<?xml version="1.0" encoding="utf-8" standalone="no"?>
<!DOCTYPE svg PUBLIC "-//W3C//DTD SVG 1.1//EN"
  "http://www.w3.org/Graphics/SVG/1.1/DTD/svg11.dtd">
<!-- Created with matplotlib (https://matplotlib.org/) -->
<svg height="216pt" version="1.1" viewBox="0 0 720 216" width="720pt" xmlns="http://www.w3.org/2000/svg" xmlns:xlink="http://www.w3.org/1999/xlink">
 <defs>
  <style type="text/css">
*{stroke-linecap:butt;stroke-linejoin:round;}
  </style>
 </defs>
 <g id="figure_1">
  <g id="patch_1">
   <path d="M 0 216 
L 720 216 
L 720 0 
L 0 0 
z
" style="fill:#ffffff;"/>
  </g>
  <g id="axes_1">
   <g id="patch_2">
    <path d="M 38.86 188.12 
L 696.555 188.12 
L 696.555 25.44 
L 38.86 25.44 
z
" style="fill:#ffffff;"/>
   </g>
   <g id="matplotlib.axis_1">
    <g id="xtick_1">
     <g id="line2d_1">
      <path clip-path="url(#p133037aecc)" d="M 38.86 188.12 
L 38.86 25.44 
" style="fill:none;stroke:#b0b0b0;stroke-linecap:square;stroke-width:0.8;"/>
     </g>
     <g id="line2d_2">
      <defs>
       <path d="M 0 0 
L 0 3.5 
" id="mb9aa389b2c" style="stroke:#000000;stroke-width:0.8;"/>
      </defs>
      <g>
       <use style="stroke:#000000;stroke-width:0.8;" x="38.86" xlink:href="#mb9aa389b2c" y="188.12"/>
      </g>
     </g>
     <g id="text_1">
      <!-- 0 -->
      <defs>
       <path d="M 31.78125 66.40625 
Q 24.171875 66.40625 20.328125 58.90625 
Q 16.5 51.421875 16.5 36.375 
Q 16.5 21.390625 20.328125 13.890625 
Q 24.171875 6.390625 31.78125 6.390625 
Q 39.453125 6.390625 43.28125 13.890625 
Q 47.125 21.390625 47.125 36.375 
Q 47.125 51.421875 43.28125 58.90625 
Q 39.453125 66.40625 31.78125 66.40625 
z
M 31.78125 74.21875 
Q 44.046875 74.21875 50.515625 64.515625 
Q 56.984375 54.828125 56.984375 36.375 
Q 56.984375 17.96875 50.515625 8.265625 
Q 44.046875 -1.421875 31.78125 -1.421875 
Q 19.53125 -1.421875 13.0625 8.265625 
Q 6.59375 17.96875 6.59375 36.375 
Q 6.59375 54.828125 13.0625 64.515625 
Q 19.53125 74.21875 31.78125 74.21875 
z
" id="DejaVuSans-48"/>
      </defs>
      <g transform="translate(35.67875 202.718437)scale(0.1 -0.1)">
       <use xlink:href="#DejaVuSans-48"/>
      </g>
     </g>
    </g>
    <g id="xtick_2">
     <g id="line2d_3">
      <path clip-path="url(#p133037aecc)" d="M 170.399 188.12 
L 170.399 25.44 
" style="fill:none;stroke:#b0b0b0;stroke-linecap:square;stroke-width:0.8;"/>
     </g>
     <g id="line2d_4">
      <g>
       <use style="stroke:#000000;stroke-width:0.8;" x="170.399" xlink:href="#mb9aa389b2c" y="188.12"/>
      </g>
     </g>
     <g id="text_2">
      <!-- 1000 -->
      <defs>
       <path d="M 12.40625 8.296875 
L 28.515625 8.296875 
L 28.515625 63.921875 
L 10.984375 60.40625 
L 10.984375 69.390625 
L 28.421875 72.90625 
L 38.28125 72.90625 
L 38.28125 8.296875 
L 54.390625 8.296875 
L 54.390625 0 
L 12.40625 0 
z
" id="DejaVuSans-49"/>
      </defs>
      <g transform="translate(157.674 202.718437)scale(0.1 -0.1)">
       <use xlink:href="#DejaVuSans-49"/>
       <use x="63.623047" xlink:href="#DejaVuSans-48"/>
       <use x="127.246094" xlink:href="#DejaVuSans-48"/>
       <use x="190.869141" xlink:href="#DejaVuSans-48"/>
      </g>
     </g>
    </g>
    <g id="xtick_3">
     <g id="line2d_5">
      <path clip-path="url(#p133037aecc)" d="M 301.938 188.12 
L 301.938 25.44 
" style="fill:none;stroke:#b0b0b0;stroke-linecap:square;stroke-width:0.8;"/>
     </g>
     <g id="line2d_6">
      <g>
       <use style="stroke:#000000;stroke-width:0.8;" x="301.938" xlink:href="#mb9aa389b2c" y="188.12"/>
      </g>
     </g>
     <g id="text_3">
      <!-- 2000 -->
      <defs>
       <path d="M 19.1875 8.296875 
L 53.609375 8.296875 
L 53.609375 0 
L 7.328125 0 
L 7.328125 8.296875 
Q 12.9375 14.109375 22.625 23.890625 
Q 32.328125 33.6875 34.8125 36.53125 
Q 39.546875 41.84375 41.421875 45.53125 
Q 43.3125 49.21875 43.3125 52.78125 
Q 43.3125 58.59375 39.234375 62.25 
Q 35.15625 65.921875 28.609375 65.921875 
Q 23.96875 65.921875 18.8125 64.3125 
Q 13.671875 62.703125 7.8125 59.421875 
L 7.8125 69.390625 
Q 13.765625 71.78125 18.9375 73 
Q 24.125 74.21875 28.421875 74.21875 
Q 39.75 74.21875 46.484375 68.546875 
Q 53.21875 62.890625 53.21875 53.421875 
Q 53.21875 48.921875 51.53125 44.890625 
Q 49.859375 40.875 45.40625 35.40625 
Q 44.1875 33.984375 37.640625 27.21875 
Q 31.109375 20.453125 19.1875 8.296875 
z
" id="DejaVuSans-50"/>
      </defs>
      <g transform="translate(289.213 202.718437)scale(0.1 -0.1)">
       <use xlink:href="#DejaVuSans-50"/>
       <use x="63.623047" xlink:href="#DejaVuSans-48"/>
       <use x="127.246094" xlink:href="#DejaVuSans-48"/>
       <use x="190.869141" xlink:href="#DejaVuSans-48"/>
      </g>
     </g>
    </g>
    <g id="xtick_4">
     <g id="line2d_7">
      <path clip-path="url(#p133037aecc)" d="M 433.477 188.12 
L 433.477 25.44 
" style="fill:none;stroke:#b0b0b0;stroke-linecap:square;stroke-width:0.8;"/>
     </g>
     <g id="line2d_8">
      <g>
       <use style="stroke:#000000;stroke-width:0.8;" x="433.477" xlink:href="#mb9aa389b2c" y="188.12"/>
      </g>
     </g>
     <g id="text_4">
      <!-- 3000 -->
      <defs>
       <path d="M 40.578125 39.3125 
Q 47.65625 37.796875 51.625 33 
Q 55.609375 28.21875 55.609375 21.1875 
Q 55.609375 10.40625 48.1875 4.484375 
Q 40.765625 -1.421875 27.09375 -1.421875 
Q 22.515625 -1.421875 17.65625 -0.515625 
Q 12.796875 0.390625 7.625 2.203125 
L 7.625 11.71875 
Q 11.71875 9.328125 16.59375 8.109375 
Q 21.484375 6.890625 26.8125 6.890625 
Q 36.078125 6.890625 40.9375 10.546875 
Q 45.796875 14.203125 45.796875 21.1875 
Q 45.796875 27.640625 41.28125 31.265625 
Q 36.765625 34.90625 28.71875 34.90625 
L 20.21875 34.90625 
L 20.21875 43.015625 
L 29.109375 43.015625 
Q 36.375 43.015625 40.234375 45.921875 
Q 44.09375 48.828125 44.09375 54.296875 
Q 44.09375 59.90625 40.109375 62.90625 
Q 36.140625 65.921875 28.71875 65.921875 
Q 24.65625 65.921875 20.015625 65.03125 
Q 15.375 64.15625 9.8125 62.3125 
L 9.8125 71.09375 
Q 15.4375 72.65625 20.34375 73.4375 
Q 25.25 74.21875 29.59375 74.21875 
Q 40.828125 74.21875 47.359375 69.109375 
Q 53.90625 64.015625 53.90625 55.328125 
Q 53.90625 49.265625 50.4375 45.09375 
Q 46.96875 40.921875 40.578125 39.3125 
z
" id="DejaVuSans-51"/>
      </defs>
      <g transform="translate(420.752 202.718437)scale(0.1 -0.1)">
       <use xlink:href="#DejaVuSans-51"/>
       <use x="63.623047" xlink:href="#DejaVuSans-48"/>
       <use x="127.246094" xlink:href="#DejaVuSans-48"/>
       <use x="190.869141" xlink:href="#DejaVuSans-48"/>
      </g>
     </g>
    </g>
    <g id="xtick_5">
     <g id="line2d_9">
      <path clip-path="url(#p133037aecc)" d="M 565.016 188.12 
L 565.016 25.44 
" style="fill:none;stroke:#b0b0b0;stroke-linecap:square;stroke-width:0.8;"/>
     </g>
     <g id="line2d_10">
      <g>
       <use style="stroke:#000000;stroke-width:0.8;" x="565.016" xlink:href="#mb9aa389b2c" y="188.12"/>
      </g>
     </g>
     <g id="text_5">
      <!-- 4000 -->
      <defs>
       <path d="M 37.796875 64.3125 
L 12.890625 25.390625 
L 37.796875 25.390625 
z
M 35.203125 72.90625 
L 47.609375 72.90625 
L 47.609375 25.390625 
L 58.015625 25.390625 
L 58.015625 17.1875 
L 47.609375 17.1875 
L 47.609375 0 
L 37.796875 0 
L 37.796875 17.1875 
L 4.890625 17.1875 
L 4.890625 26.703125 
z
" id="DejaVuSans-52"/>
      </defs>
      <g transform="translate(552.291 202.718437)scale(0.1 -0.1)">
       <use xlink:href="#DejaVuSans-52"/>
       <use x="63.623047" xlink:href="#DejaVuSans-48"/>
       <use x="127.246094" xlink:href="#DejaVuSans-48"/>
       <use x="190.869141" xlink:href="#DejaVuSans-48"/>
      </g>
     </g>
    </g>
    <g id="xtick_6">
     <g id="line2d_11">
      <path clip-path="url(#p133037aecc)" d="M 696.555 188.12 
L 696.555 25.44 
" style="fill:none;stroke:#b0b0b0;stroke-linecap:square;stroke-width:0.8;"/>
     </g>
     <g id="line2d_12">
      <g>
       <use style="stroke:#000000;stroke-width:0.8;" x="696.555" xlink:href="#mb9aa389b2c" y="188.12"/>
      </g>
     </g>
     <g id="text_6">
      <!-- 5000 -->
      <defs>
       <path d="M 10.796875 72.90625 
L 49.515625 72.90625 
L 49.515625 64.59375 
L 19.828125 64.59375 
L 19.828125 46.734375 
Q 21.96875 47.46875 24.109375 47.828125 
Q 26.265625 48.1875 28.421875 48.1875 
Q 40.625 48.1875 47.75 41.5 
Q 54.890625 34.8125 54.890625 23.390625 
Q 54.890625 11.625 47.5625 5.09375 
Q 40.234375 -1.421875 26.90625 -1.421875 
Q 22.3125 -1.421875 17.546875 -0.640625 
Q 12.796875 0.140625 7.71875 1.703125 
L 7.71875 11.625 
Q 12.109375 9.234375 16.796875 8.0625 
Q 21.484375 6.890625 26.703125 6.890625 
Q 35.15625 6.890625 40.078125 11.328125 
Q 45.015625 15.765625 45.015625 23.390625 
Q 45.015625 31 40.078125 35.4375 
Q 35.15625 39.890625 26.703125 39.890625 
Q 22.75 39.890625 18.8125 39.015625 
Q 14.890625 38.140625 10.796875 36.28125 
z
" id="DejaVuSans-53"/>
      </defs>
      <g transform="translate(683.83 202.718437)scale(0.1 -0.1)">
       <use xlink:href="#DejaVuSans-53"/>
       <use x="63.623047" xlink:href="#DejaVuSans-48"/>
       <use x="127.246094" xlink:href="#DejaVuSans-48"/>
       <use x="190.869141" xlink:href="#DejaVuSans-48"/>
      </g>
     </g>
    </g>
   </g>
   <g id="matplotlib.axis_2">
    <g id="ytick_1">
     <g id="line2d_13">
      <path clip-path="url(#p133037aecc)" d="M 38.86 188.12 
L 696.555 188.12 
" style="fill:none;stroke:#b0b0b0;stroke-linecap:square;stroke-width:0.8;"/>
     </g>
     <g id="line2d_14">
      <defs>
       <path d="M 0 0 
L -3.5 0 
" id="m9e8761dabf" style="stroke:#000000;stroke-width:0.8;"/>
      </defs>
      <g>
       <use style="stroke:#000000;stroke-width:0.8;" x="38.86" xlink:href="#m9e8761dabf" y="188.12"/>
      </g>
     </g>
     <g id="text_7">
      <!-- −40 -->
      <defs>
       <path d="M 10.59375 35.5 
L 73.1875 35.5 
L 73.1875 27.203125 
L 10.59375 27.203125 
z
" id="DejaVuSans-8722"/>
      </defs>
      <g transform="translate(10.755313 191.919219)scale(0.1 -0.1)">
       <use xlink:href="#DejaVuSans-8722"/>
       <use x="83.789062" xlink:href="#DejaVuSans-52"/>
       <use x="147.412109" xlink:href="#DejaVuSans-48"/>
      </g>
     </g>
    </g>
    <g id="ytick_2">
     <g id="line2d_15">
      <path clip-path="url(#p133037aecc)" d="M 38.86 155.584 
L 696.555 155.584 
" style="fill:none;stroke:#b0b0b0;stroke-linecap:square;stroke-width:0.8;"/>
     </g>
     <g id="line2d_16">
      <g>
       <use style="stroke:#000000;stroke-width:0.8;" x="38.86" xlink:href="#m9e8761dabf" y="155.584"/>
      </g>
     </g>
     <g id="text_8">
      <!-- −30 -->
      <g transform="translate(10.755313 159.383219)scale(0.1 -0.1)">
       <use xlink:href="#DejaVuSans-8722"/>
       <use x="83.789062" xlink:href="#DejaVuSans-51"/>
       <use x="147.412109" xlink:href="#DejaVuSans-48"/>
      </g>
     </g>
    </g>
    <g id="ytick_3">
     <g id="line2d_17">
      <path clip-path="url(#p133037aecc)" d="M 38.86 123.048 
L 696.555 123.048 
" style="fill:none;stroke:#b0b0b0;stroke-linecap:square;stroke-width:0.8;"/>
     </g>
     <g id="line2d_18">
      <g>
       <use style="stroke:#000000;stroke-width:0.8;" x="38.86" xlink:href="#m9e8761dabf" y="123.048"/>
      </g>
     </g>
     <g id="text_9">
      <!-- −20 -->
      <g transform="translate(10.755313 126.847219)scale(0.1 -0.1)">
       <use xlink:href="#DejaVuSans-8722"/>
       <use x="83.789062" xlink:href="#DejaVuSans-50"/>
       <use x="147.412109" xlink:href="#DejaVuSans-48"/>
      </g>
     </g>
    </g>
    <g id="ytick_4">
     <g id="line2d_19">
      <path clip-path="url(#p133037aecc)" d="M 38.86 90.512 
L 696.555 90.512 
" style="fill:none;stroke:#b0b0b0;stroke-linecap:square;stroke-width:0.8;"/>
     </g>
     <g id="line2d_20">
      <g>
       <use style="stroke:#000000;stroke-width:0.8;" x="38.86" xlink:href="#m9e8761dabf" y="90.512"/>
      </g>
     </g>
     <g id="text_10">
      <!-- −10 -->
      <g transform="translate(10.755313 94.311219)scale(0.1 -0.1)">
       <use xlink:href="#DejaVuSans-8722"/>
       <use x="83.789062" xlink:href="#DejaVuSans-49"/>
       <use x="147.412109" xlink:href="#DejaVuSans-48"/>
      </g>
     </g>
    </g>
    <g id="ytick_5">
     <g id="line2d_21">
      <path clip-path="url(#p133037aecc)" d="M 38.86 57.976 
L 696.555 57.976 
" style="fill:none;stroke:#b0b0b0;stroke-linecap:square;stroke-width:0.8;"/>
     </g>
     <g id="line2d_22">
      <g>
       <use style="stroke:#000000;stroke-width:0.8;" x="38.86" xlink:href="#m9e8761dabf" y="57.976"/>
      </g>
     </g>
     <g id="text_11">
      <!-- 0 -->
      <g transform="translate(25.4975 61.775219)scale(0.1 -0.1)">
       <use xlink:href="#DejaVuSans-48"/>
      </g>
     </g>
    </g>
    <g id="ytick_6">
     <g id="line2d_23">
      <path clip-path="url(#p133037aecc)" d="M 38.86 25.44 
L 696.555 25.44 
" style="fill:none;stroke:#b0b0b0;stroke-linecap:square;stroke-width:0.8;"/>
     </g>
     <g id="line2d_24">
      <g>
       <use style="stroke:#000000;stroke-width:0.8;" x="38.86" xlink:href="#m9e8761dabf" y="25.44"/>
      </g>
     </g>
     <g id="text_12">
      <!-- 10 -->
      <g transform="translate(19.135 29.239219)scale(0.1 -0.1)">
       <use xlink:href="#DejaVuSans-49"/>
       <use x="63.623047" xlink:href="#DejaVuSans-48"/>
      </g>
     </g>
    </g>
   </g>
   <g id="line2d_25">
    <path clip-path="url(#p133037aecc)" d="M 39.109924 217 
L 39.123104 214.183049 
L 39.168251 217 
M 39.931805 217 
L 40.043969 208.635237 
L 40.181855 217 
M 40.435198 217 
L 40.438626 215.654347 
L 40.44683 217 
M 40.819577 217 
L 40.833282 215.013142 
L 40.930824 217 
M 41.473044 217 
L 41.622595 195.745867 
L 41.754147 201.730517 
L 41.8857 200.283945 
L 42.017252 195.875707 
L 42.148804 212.534353 
L 42.280356 213.057266 
L 42.411908 207.343091 
L 42.525041 217 
M 45.000785 217 
L 45.174503 202.354275 
L 45.349359 217 
M 45.704037 217 
L 45.832264 195.328885 
L 45.963816 200.372832 
L 46.105009 217 
M 46.31723 217 
L 46.358473 210.138673 
L 46.461116 217 
M 46.896322 217 
L 47.016234 205.705424 
L 47.159997 217 
M 47.600574 217 
L 47.673994 213.425458 
L 47.730761 217 
M 47.957556 217 
L 48.200203 200.867126 
L 48.331755 198.970493 
L 48.594859 216.129926 
L 48.726412 199.805098 
L 48.913788 217 
M 49.051662 217 
L 49.121068 205.736344 
L 49.247734 217 
M 49.899146 217 
L 49.910381 215.445591 
L 50.041933 212.8719 
L 50.0563 217 
M 50.679357 217 
L 50.699694 212.328752 
L 50.831246 210.837684 
L 50.868177 217 
M 51.670943 217 
L 51.883663 198.559566 
L 52.015216 196.814464 
L 52.146768 199.942885 
L 52.346551 217 
M 52.921679 217 
L 53.067633 202.379268 
L 53.163337 217 
M 53.371876 217 
L 53.462289 200.993628 
L 53.593841 203.894105 
L 53.838051 217 
M 53.861879 217 
L 54.12005 194.580632 
L 54.251602 195.496955 
L 54.397562 217 
M 54.906134 217 
L 55.040915 214.514127 
L 55.230645 217 
M 55.318446 217 
L 55.435572 210.033202 
L 55.472382 217 
M 56.45977 217 
L 56.619541 198.353191 
L 56.751093 199.147774 
L 56.852857 217 
M 57.086017 217 
L 57.277302 201.4115 
L 57.426509 217 
M 57.996231 217 
L 58.198167 195.500584 
L 58.35114 217 
M 58.557517 217 
L 58.724375 200.43146 
L 58.855928 201.221699 
L 58.98748 205.242001 
L 59.067792 217 
M 59.50165 217 
L 59.513688 216.308432 
L 59.521977 217 
M 59.730387 217 
L 59.776793 211.394926 
L 59.908345 209.747976 
L 59.934522 217 
M 60.642581 217 
L 60.82921 194.227736 
L 61.173514 217 
M 61.266562 217 
L 61.486971 202.43243 
L 61.618523 199.535102 
L 61.758941 217 
M 62.009196 217 
L 62.013179 214.796496 
L 62.07372 217 
M 62.660476 217 
L 62.802492 200.518478 
L 62.904324 217 
M 63.355782 217 
L 63.591805 198.008048 
L 63.736728 217 
M 64.37093 217 
L 64.381118 216.406432 
L 64.39983 217 
M 64.997573 217 
L 65.038879 206.937296 
L 65.170431 203.067263 
L 65.243167 217 
M 65.428974 217 
L 65.565088 201.619896 
L 65.69664 205.535189 
L 65.753493 217 
M 66.10083 217 
L 66.3544 188.786997 
L 66.617505 203.435728 
L 66.749057 207.824149 
L 66.796511 217 
M 67.098943 217 
L 67.143713 211.024641 
L 67.209322 217 
M 67.379964 217 
L 67.669922 205.639987 
L 67.801474 206.452164 
L 67.933026 211.251003 
L 68.064578 206.716775 
L 68.196131 211.429917 
L 68.225424 217 
M 68.791542 217 
L 68.853891 207.262527 
L 68.963074 217 
M 69.534486 217 
L 69.643204 199.435162 
L 69.800614 217 
M 70.222405 217 
L 70.432517 208.508667 
L 70.526036 217 
M 70.590191 217 
L 70.695622 203.062148 
L 70.827174 203.603573 
L 70.882386 217 
M 71.074725 217 
L 71.090278 214.516431 
L 71.157077 217 
M 71.557459 217 
L 71.879591 198.695752 
L 72.275778 217 
M 72.536663 217 
L 72.537352 216.824281 
L 72.541826 217 
M 72.897108 217 
L 73.06356 204.167715 
L 73.154797 217 
M 73.407447 217 
L 73.589769 199.552061 
L 73.721321 199.913544 
L 73.756509 217 
M 73.95444 217 
L 73.984425 203.185619 
L 74.115978 210.742041 
L 74.24753 201.341778 
L 74.413561 217 
M 74.867915 217 
L 74.905291 212.357975 
L 74.933344 217 
M 75.116895 217 
L 75.168395 205.982479 
L 75.23524 217 
M 75.381376 217 
L 75.431499 210.435246 
L 75.563051 211.001056 
L 75.654099 217 
M 75.732194 217 
L 75.826156 210.329047 
L 75.957708 211.50853 
L 76.005993 217 
M 76.129119 217 
L 76.220812 195.215669 
L 76.352364 207.468258 
L 76.483916 205.733629 
L 76.650302 217 
M 77.125394 217 
L 77.141677 215.921845 
L 77.273229 215.995226 
L 77.279841 217 
M 77.599875 217 
L 77.667886 200.542232 
L 77.799438 196.345589 
L 77.93099 204.814101 
L 78.062542 202.577719 
L 78.125968 217 
M 78.291511 217 
L 78.457199 203.744863 
L 78.561498 217 
M 78.654536 217 
L 79.114959 194.284617 
L 79.321368 217 
M 79.630271 217 
L 79.641168 211.970531 
L 79.77272 203.415335 
L 80.070802 217 
M 80.599387 217 
L 80.693585 205.037055 
L 80.775147 217 
M 80.898332 217 
L 81.088242 196.765496 
L 81.219794 203.759661 
L 81.254214 217 
M 81.82965 217 
L 81.877555 207.48126 
L 82.027139 217 
M 82.231627 217 
L 82.272211 209.424496 
L 82.403763 210.329584 
L 82.535316 202.106488 
L 82.657165 217 
M 82.685244 217 
L 82.79842 209.695611 
L 82.929972 190.583154 
L 83.061524 188.109801 
L 83.193076 191.859954 
L 83.516585 217 
M 84.081986 217 
L 84.113941 211.366622 
L 84.16518 217 
M 84.866668 217 
L 85.034806 206.107216 
L 85.166359 208.049612 
L 85.297911 206.063082 
L 85.429463 202.322919 
L 85.561015 203.996922 
L 85.692567 212.248409 
L 85.824119 210.062378 
L 85.955672 199.936538 
L 86.087224 201.130076 
L 86.139719 217 
M 86.846387 217 
L 86.876537 204.926578 
L 87.008089 199.751207 
L 87.139641 201.907535 
L 87.271193 214.685251 
L 87.534297 208.113512 
L 87.577102 217 
M 88.484298 217 
L 88.586715 211.166754 
L 88.678545 217 
M 89.166405 217 
L 89.244475 209.476131 
L 89.376028 209.131381 
L 89.395078 217 
M 89.636167 217 
L 89.639132 215.928573 
L 89.770684 214.205461 
L 89.793108 217 
M 89.969915 217 
L 90.165341 198.872344 
L 90.244427 217 
M 90.559157 217 
L 90.691549 204.75353 
L 90.954653 213.730063 
L 91.086206 213.875143 
L 91.217758 215.587133 
L 91.480862 198.572202 
L 91.743966 203.657874 
L 91.875519 209.923182 
L 91.908827 217 
M 92.088092 217 
L 92.138623 203.98166 
L 92.202422 217 
M 92.358166 217 
L 92.401727 210.155614 
L 92.533279 213.323225 
L 92.552544 217 
M 93.038691 217 
L 93.19104 211.339309 
L 93.454144 212.867492 
L 93.529309 217 
M 93.773536 217 
L 93.848801 208.53688 
L 93.936739 217 
M 94.216883 217 
L 94.243457 211.147222 
L 94.37501 207.606437 
L 94.506562 210.445513 
L 94.548491 217 
M 95.025434 217 
L 95.164322 207.840026 
L 95.204522 217 
M 95.786879 217 
L 95.822083 209.700162 
L 95.887446 217 
M 96.857446 217 
L 97.006053 190.736647 
L 97.137605 188.077877 
L 97.269157 194.728372 
L 97.405358 217 
M 97.644856 217 
L 97.795366 204.674783 
L 97.893599 217 
M 98.220495 217 
L 98.321574 200.791067 
L 98.453126 207.526961 
L 98.584678 207.449476 
L 98.746189 217 
M 99.172277 217 
L 99.373991 202.859008 
L 99.505544 206.083193 
L 99.590723 217 
M 99.780683 217 
L 99.9002 197.398889 
L 100.031752 202.14998 
L 100.0947 217 
M 100.341988 217 
L 100.426409 213.001856 
L 100.474165 217 
M 101.01789 217 
L 101.215722 202.667337 
L 101.347274 203.305661 
L 101.478826 200.333385 
L 101.74193 214.415237 
L 102.005035 206.028274 
L 102.268139 197.250631 
L 102.457143 217 
M 102.783694 217 
L 103.057452 195.639793 
L 103.189004 199.908109 
L 103.266251 217 
M 103.699814 217 
L 103.715213 214.081824 
L 103.785949 217 
M 104.240682 217 
L 104.241421 216.752824 
L 104.504525 78.97324 
L 104.636078 62.944044 
L 104.76763 76.259883 
L 105.162286 211.536842 
L 105.302405 217 
M 105.679995 217 
L 105.820047 206.267767 
L 105.951599 198.165413 
L 106.083151 199.075482 
L 106.214703 215.949508 
L 106.346256 216.807216 
L 106.477808 207.647588 
L 106.60936 207.325849 
L 106.73607 217 
M 107.111496 217 
L 107.135569 213.597177 
L 107.157982 217 
M 107.371123 217 
L 107.398673 212.610795 
L 107.530225 211.391277 
L 107.793329 190.308212 
L 107.994154 217 
M 109.035921 217 
L 109.108851 201.983882 
L 109.240403 200.8833 
L 109.321593 217 
M 109.57469 217 
L 109.63506 209.56387 
L 109.766612 211.318336 
L 109.820406 217 
M 110.402389 217 
L 110.424372 215.945216 
L 110.432037 217 
M 110.641527 217 
L 110.819029 200.33406 
L 110.950581 190.957193 
L 111.082133 196.989872 
L 111.186063 217 
M 111.462673 217 
L 111.47679 214.445874 
L 111.558897 217 
M 112.478882 217 
L 112.529207 208.393773 
L 112.660759 209.675213 
L 112.792311 215.904406 
L 113.055416 200.728282 
L 113.186968 206.909336 
L 113.215859 217 
M 113.449816 217 
L 113.450072 216.930085 
L 113.450959 217 
M 113.650335 217 
L 113.713176 207.576002 
L 113.844728 204.839443 
L 113.948243 217 
M 114.000522 217 
L 114.107833 202.418849 
L 114.241419 217 
M 114.748577 217 
L 114.897146 199.536459 
L 115.060307 217 
M 116.287553 217 
L 116.475772 207.297634 
L 116.598643 217 
M 117.158724 217 
L 117.396637 200.852031 
L 117.528189 194.415158 
L 118.18595 207.147239 
L 118.438015 217 
M 119.199278 217 
L 119.369919 205.028924 
L 119.439473 217 
M 120.061778 217 
L 120.159232 204.202357 
L 120.29897 217 
M 120.663641 217 
L 120.816993 208.999385 
L 120.912843 217 
M 121.014261 217 
L 121.211649 212.451135 
L 121.474753 204.279136 
L 121.625528 217 
M 121.890947 217 
L 122.132514 207.915687 
L 122.212256 217 
M 122.497278 217 
L 122.527171 206.113595 
L 122.658723 199.374295 
L 122.790275 199.715502 
L 122.916784 217 
M 122.932999 217 
L 123.316484 199.461659 
L 123.448036 193.540547 
L 123.579588 200.896848 
L 123.695884 217 
M 123.752743 217 
L 123.974244 207.827153 
L 124.06164 217 
M 124.379674 217 
L 124.632005 207.096845 
L 124.763557 208.440514 
L 124.836567 217 
M 125.152549 217 
L 125.158214 216.915754 
L 125.289766 206.344319 
L 125.39715 217 
M 125.646864 217 
L 125.684422 209.303425 
L 125.815975 215.312799 
L 126.079079 195.683894 
L 126.204755 217 
M 126.731738 217 
L 126.868392 205.547136 
L 126.999944 205.174678 
L 127.131496 210.979969 
L 127.263048 210.639052 
L 127.3946 211.104415 
L 127.4303 217 
M 127.62873 217 
L 127.657705 212.528565 
L 127.733531 217 
M 128.02657 217 
L 128.183913 206.524608 
L 128.315466 212.23189 
L 128.447018 210.228027 
L 128.57857 197.56731 
L 128.710122 199.944921 
L 128.841674 208.526911 
L 128.973226 207.77776 
L 129.089519 217 
M 129.117599 217 
L 129.367883 200.662561 
L 129.499435 212.722172 
L 129.762539 197.483248 
L 129.861619 217 
M 130.023314 217 
L 130.157196 213.069041 
L 130.165335 217 
M 130.419767 217 
L 130.4203 216.757627 
L 130.424529 217 
M 130.740549 217 
L 130.946509 192.665295 
L 131.078061 199.380196 
L 131.166693 217 
M 131.45027 217 
L 131.472717 213.570105 
L 131.495193 217 
M 131.847077 217 
L 131.867374 208.391684 
L 131.998926 207.801304 
L 132.047729 217 
M 132.380461 217 
L 132.393582 213.105679 
L 132.490903 217 
M 132.963708 217 
L 133.182895 199.865951 
L 133.351456 217 
M 133.516023 217 
L 133.577552 202.624982 
L 133.709104 205.299776 
L 133.884205 217 
M 133.99303 217 
L 134.10376 209.498553 
L 134.206568 217 
M 135.498773 217 
L 135.682386 203.225609 
L 135.782294 217 
M 136.022187 217 
L 136.208595 187.054079 
L 136.340147 186.466292 
L 136.510614 217 
M 136.984075 217 
L 136.997908 213.402614 
L 137.12946 210.891554 
L 137.196306 217 
M 137.316087 217 
L 137.392564 208.789389 
L 137.524116 211.045556 
L 137.540642 217 
M 137.778078 217 
L 137.787221 213.904562 
L 137.879113 217 
M 138.340961 217 
L 138.444981 214.054104 
L 138.459541 217 
M 139.184793 217 
L 139.234294 209.151432 
L 139.302657 217 
M 140.228911 217 
L 140.286712 213.972774 
L 140.316051 217 
M 141.309265 217 
L 141.339129 212.639124 
L 141.470681 210.847147 
L 141.512411 217 
M 141.817604 217 
L 141.99689 192.388617 
L 142.237343 217 
M 142.302791 217 
L 142.523098 210.616063 
L 142.65465 194.116034 
L 142.786203 192.766946 
L 143.243226 217 
M 143.924105 217 
L 143.970172 205.990315 
L 144.085932 217 
M 144.111383 217 
L 144.364828 192.277319 
L 144.627933 205.269051 
L 144.702851 217 
M 144.936828 217 
L 145.154141 196.808262 
L 145.285694 190.975355 
L 145.417246 193.365099 
L 145.548798 198.350479 
L 145.68035 196.246404 
L 145.811902 199.16107 
L 145.928029 217 
M 146.172484 217 
L 146.206559 207.562555 
L 146.406113 217 
M 146.721831 217 
L 146.864319 205.592655 
L 146.906719 217 
M 147.075971 217 
L 147.127424 201.592684 
L 147.258976 200.193658 
L 147.390528 204.837217 
L 147.52208 201.554785 
L 147.653632 204.501913 
L 147.721027 217 
M 148.99933 217 
L 149.100706 199.852934 
L 149.495363 216.406741 
L 149.626915 216.226065 
L 149.658867 217 
M 149.879858 217 
L 149.890019 216.798057 
L 150.021571 202.070564 
L 150.153123 205.975216 
L 150.259816 217 
M 150.607552 217 
L 150.810884 200.376064 
L 150.942436 193.029787 
L 151.144291 217 
M 151.241433 217 
L 151.337093 199.333255 
L 151.468645 200.238794 
L 151.560234 217 
M 152.024219 217 
L 152.126406 209.073573 
L 152.179923 217 
M 152.589204 217 
L 152.652614 193.819486 
L 152.784166 192.785876 
L 153.079888 217 
M 153.461921 217 
L 153.573479 206.008238 
L 153.705032 211.569676 
L 153.712128 217 
M 155.613412 217 
L 155.678314 202.354519 
L 155.809866 205.192135 
L 155.886616 217 
M 155.988464 217 
L 156.204522 195.99136 
L 156.38865 217 
M 156.723372 217 
L 156.993835 205.608634 
L 157.108016 217 
M 157.49334 217 
L 157.651596 202.996739 
L 157.783148 201.03424 
L 157.9147 196.88989 
L 158.046253 211.973863 
L 158.177805 208.808274 
L 158.238881 217 
M 158.360893 217 
L 158.440909 202.323942 
L 158.572461 202.070316 
L 158.767307 217 
M 158.999707 217 
L 159.09867 199.724429 
L 159.230222 196.798484 
L 159.568773 217 
M 160.009509 217 
L 160.019535 212.558088 
L 160.151087 205.338495 
L 160.186381 217 
M 160.660104 217 
L 160.808848 208.006132 
L 161.071952 198.257166 
L 161.203504 216.164651 
L 161.335057 214.995756 
L 161.466609 212.071062 
L 161.579397 217 
M 161.961787 217 
L 161.992817 209.749772 
L 162.124369 213.63571 
L 162.255922 209.950862 
L 162.519026 197.881534 
L 162.78213 207.668121 
L 162.913682 201.761991 
L 163.045235 208.682559 
L 163.071989 217 
M 163.28904 217 
L 163.308339 211.398876 
L 163.439891 212.807405 
L 163.702995 194.401597 
L 163.818814 217 
M 164.095939 217 
L 164.097652 216.900755 
L 164.098437 217 
M 164.404049 217 
L 164.492308 197.510339 
L 164.62386 193.176878 
L 164.854546 217 
M 165.847256 217 
L 166.070934 193.079465 
L 166.202486 190.925265 
L 166.334038 191.966193 
L 166.510189 217 
M 166.754111 217 
L 166.860247 197.863678 
L 166.991799 198.073729 
L 167.088411 217 
M 167.594454 217 
L 167.64956 204.569442 
L 167.76537 217 
M 167.853063 217 
L 167.912664 215.600295 
L 168.044216 203.457618 
L 168.132546 217 
M 168.483217 217 
L 168.570425 206.146641 
L 168.701977 216.184645 
L 168.833529 212.747734 
L 168.965082 206.022166 
L 169.2054 217 
M 169.238929 217 
L 169.49129 199.729866 
L 169.645374 217 
M 170.169841 217 
L 170.412155 190.285294 
L 170.636972 217 
M 171.156669 217 
L 171.201468 211.002474 
L 171.33302 210.427006 
L 171.378807 217 
M 171.690704 217 
L 171.859229 199.324848 
L 172.027618 217 
M 172.191801 217 
L 172.253885 202.238744 
L 172.385438 199.391899 
L 172.648542 189.938219 
L 172.911646 204.022031 
L 173.043198 203.892679 
L 173.17475 204.577038 
L 173.348419 217 
M 173.542771 217 
L 173.700959 205.478593 
L 173.832511 207.81017 
L 173.979182 217 
M 174.923375 217 
L 175.148033 198.009555 
L 175.279585 204.532697 
L 175.411137 204.187489 
L 175.549181 217 
M 176.074676 217 
L 176.20045 207.182388 
L 176.463554 215.508966 
L 176.595107 205.416042 
L 176.777308 217 
M 177.125652 217 
L 177.252867 206.920106 
L 177.486267 217 
M 177.960493 217 
L 178.173732 200.247285 
L 178.305285 208.980286 
L 178.436837 205.320377 
L 178.568389 194.300061 
L 178.778045 217 
M 178.868289 217 
L 178.963045 197.492348 
L 179.094597 197.11494 
L 179.22615 211.234325 
L 179.357702 212.002212 
L 179.440826 217 
M 179.988576 217 
L 180.015463 216.261252 
L 180.278567 201.00418 
L 180.405852 217 
M 180.432378 217 
L 180.541671 214.367312 
L 180.673223 200.344921 
L 180.804775 204.42065 
L 180.926613 217 
M 180.964784 217 
L 181.06788 213.366218 
L 181.330984 202.640832 
L 181.559114 217 
M 181.611318 217 
L 181.857193 186.500643 
L 181.988745 188.831284 
L 182.131748 217 
M 183.377094 217 
L 183.567371 204.847298 
L 183.698923 212.74292 
L 183.830475 207.135981 
L 183.91305 217 
M 184.184392 217 
L 184.488236 198.678608 
L 184.681643 217 
M 185.131341 217 
L 185.277549 204.945225 
L 185.540653 195.912211 
L 185.672205 197.955092 
L 185.803757 189.290713 
L 186.066862 210.724173 
L 186.198414 210.383791 
L 186.329966 208.473472 
L 186.414833 217 
M 186.538316 217 
L 186.724622 209.355969 
L 186.856175 206.933485 
L 187.119279 200.541583 
L 187.293861 217 
M 187.712908 217 
L 187.77704 202.518149 
L 187.908592 199.222051 
L 188.012936 217 
M 189.284151 217 
L 189.355666 203.592061 
L 189.498078 217 
M 189.663809 217 
L 189.881874 197.680216 
L 190.013426 201.82042 
L 190.076514 217 
M 190.401129 217 
L 190.539635 209.330759 
L 190.671187 206.33081 
L 190.802739 199.024329 
L 190.934291 199.197887 
L 191.065844 192.410386 
L 191.197396 197.271198 
L 191.258731 217 
M 191.674729 217 
L 191.723604 205.714594 
L 191.855157 203.384646 
L 191.968751 217 
M 192.00832 217 
L 192.118261 206.050402 
L 192.249813 205.183116 
L 192.290638 217 
M 193.215052 217 
L 193.30223 207.78375 
L 193.433782 207.689038 
L 193.565335 209.319769 
L 193.696887 208.267142 
L 194.001782 217 
M 194.262579 217 
L 194.354647 208.094795 
L 194.391715 217 
M 194.678497 217 
L 194.749304 209.893454 
L 194.880856 209.779469 
L 194.948661 217 
M 195.449443 217 
L 195.670169 206.758933 
L 195.801721 213.329133 
L 196.064825 197.266978 
L 196.170512 217 
M 196.241142 217 
L 196.459482 204.476571 
L 196.722586 194.846078 
L 196.777628 217 
M 196.953136 217 
L 196.985691 206.873422 
L 197.117243 203.218415 
L 197.183049 217 
M 197.622564 217 
L 197.643451 213.572149 
L 197.775004 214.995102 
L 197.906556 210.047319 
L 198.038108 213.609666 
L 198.16966 213.346799 
L 198.432764 191.127843 
L 198.564316 197.272881 
L 198.602452 217 
M 198.801606 217 
L 198.827421 205.202496 
L 198.925588 217 
M 199.006674 217 
L 199.222077 205.49067 
L 199.353629 210.279753 
L 199.402676 217 
M 199.700697 217 
L 199.748286 215.194404 
L 199.7904 217 
M 199.916822 217 
L 200.01139 207.195193 
L 200.127413 217 
M 200.164997 217 
L 200.406047 201.918829 
L 200.537599 203.644644 
L 200.800703 190.218392 
L 200.932255 199.440769 
L 201.060458 217 
M 201.084998 217 
L 201.326912 213.654229 
L 201.590016 194.775504 
L 201.721568 211.18001 
L 201.85312 210.107671 
L 201.984672 205.619324 
L 202.078019 217 
M 202.269762 217 
L 202.510881 194.349652 
L 202.642433 192.835686 
L 202.773985 195.305206 
L 202.905538 188.952725 
L 203.03709 196.678778 
L 203.140917 217 
M 203.205023 217 
L 203.300194 202.805086 
L 203.438571 217 
M 203.792793 217 
L 203.826403 214.363621 
L 203.851994 217 
M 204.312173 217 
L 204.352611 205.990668 
L 204.484163 206.3288 
L 204.524646 217 
M 205.120319 217 
L 205.141924 212.845957 
L 205.273476 211.458792 
L 205.314147 217 
M 205.979818 217 
L 206.062789 208.79103 
L 206.194341 209.397775 
L 206.209406 217 
M 206.445434 217 
L 206.457446 211.093466 
L 206.588998 206.989544 
L 206.622861 217 
M 206.828791 217 
L 206.852102 210.780865 
L 206.992243 217 
M 207.528854 217 
L 207.772967 183.335486 
L 207.904519 184.816833 
L 208.299176 208.959611 
L 208.430728 204.973734 
L 208.556608 217 
M 208.800078 217 
L 208.825385 207.878263 
L 209.220041 190.488047 
L 209.351593 199.989497 
L 209.42095 217 
M 209.765668 217 
L 209.877802 205.309649 
L 210.009354 205.872416 
L 210.140906 209.12667 
L 210.222204 217 
M 211.043836 217 
L 211.061771 211.524694 
L 211.193323 212.480033 
L 211.456428 198.044798 
L 211.616632 217 
M 212.064779 217 
L 212.114188 210.782447 
L 212.245741 214.076582 
L 212.508845 199.467788 
L 212.619503 217 
M 212.996797 217 
L 213.035054 215.924391 
L 213.041949 217 
M 213.476911 217 
L 213.561262 212.09566 
L 213.686888 217 
M 214.136606 217 
L 214.350575 208.1381 
L 214.504378 217 
M 214.808385 217 
L 215.008336 204.449395 
L 215.161941 217 
M 215.745847 217 
L 215.797649 199.746515 
L 215.929201 198.348982 
L 216.060753 213.572781 
L 216.323857 209.194616 
L 216.358725 217 
M 216.993264 217 
L 217.11317 200.510465 
L 217.376275 201.794951 
L 217.507827 192.46156 
L 217.639379 195.847829 
L 217.747501 217 
M 218.10294 217 
L 218.165588 213.462024 
L 218.29714 215.191108 
L 218.307079 217 
M 218.780127 217 
L 218.9549 187.523773 
L 219.218005 208.336674 
L 219.349557 204.500176 
L 219.481109 213.460805 
L 219.744213 214.802688 
L 219.792529 217 
M 220.287118 217 
L 220.401974 212.153265 
L 220.428003 217 
M 221.66755 217 
L 221.717496 207.735297 
L 221.849048 205.179862 
L 221.9806 211.643084 
L 222.112152 210.414529 
L 222.243704 205.707224 
L 222.375257 216.762591 
L 222.506809 215.399882 
L 222.638361 209.111112 
L 222.690649 217 
M 224.152358 217 
L 224.216987 215.32629 
L 224.32417 217 
M 224.494149 217 
L 224.611643 209.856539 
L 224.678787 217 
M 225.482143 217 
L 225.66406 202.645617 
L 225.795613 206.925864 
L 225.896605 217 
M 226.320459 217 
L 226.453373 209.261238 
L 226.584925 205.130844 
L 226.716478 209.508581 
L 226.772195 217 
M 226.996927 217 
L 227.111134 197.187604 
L 227.242686 198.712718 
L 227.374238 205.352983 
L 227.441602 217 
M 227.892396 217 
L 227.900447 210.772201 
L 228.031999 197.818351 
L 228.163551 201.050347 
L 228.357667 217 
M 228.48278 217 
L 228.821312 191.155179 
L 229.003025 217 
M 229.597931 217 
L 229.742177 208.769506 
L 229.786893 217 
M 230.188622 217 
L 230.268386 211.397417 
L 230.331029 217 
M 231.157735 217 
L 231.189251 207.584646 
L 231.320803 201.950042 
L 231.452355 202.259755 
L 231.583907 201.597469 
L 231.73033 217 
M 232.180655 217 
L 232.241668 205.738998 
L 232.37322 206.802761 
L 232.461589 217 
M 233.791652 217 
L 233.820294 212.719147 
L 233.91491 217 
M 234.625411 217 
L 234.872711 202.542243 
L 235.135816 197.381612 
L 235.267368 191.369101 
L 235.39892 190.782826 
L 235.62861 217 
M 235.819184 217 
L 235.925129 198.87211 
L 236.056681 201.80658 
L 236.253962 217 
M 236.374957 217 
L 236.582889 201.611636 
L 236.680869 217 
M 236.749035 217 
L 236.977546 197.806441 
L 237.109098 203.465312 
L 237.189325 217 
M 237.472221 217 
L 237.635307 191.618367 
L 237.883479 217 
M 237.930178 217 
L 238.293067 195.683991 
L 238.519913 217 
M 238.586865 217 
L 238.687724 209.724084 
L 238.819276 216.855393 
L 238.950828 198.702246 
L 239.08238 210.082091 
L 239.213932 210.227316 
L 239.345485 207.182266 
L 239.389325 217 
M 239.785379 217 
L 239.871693 205.264804 
L 240.003245 204.197621 
L 240.099649 217 
M 240.197048 217 
L 240.397902 199.880152 
L 240.484757 217 
M 240.866567 217 
L 241.055663 199.557698 
L 241.187215 198.087283 
L 241.353788 217 
M 241.556128 217 
L 241.581871 212.268736 
L 241.713423 211.027229 
L 241.774088 217 
M 242.10122 217 
L 242.239632 207.119256 
L 242.371184 205.234442 
L 242.589142 217 
M 242.670618 217 
L 243.160497 201.017291 
L 243.267242 217 
M 243.654606 217 
L 243.686706 214.106096 
L 243.824752 217 
M 244.308263 217 
L 244.344466 211.080411 
L 244.488343 217 
M 244.769788 217 
L 245.002227 206.614176 
L 245.133779 206.527726 
L 245.265332 202.722594 
L 245.396884 205.494892 
L 245.536857 217 
M 245.705392 217 
L 245.79154 211.99506 
L 245.923092 195.617571 
L 246.054644 194.371647 
L 246.317749 210.321684 
L 246.355242 217 
M 246.623727 217 
L 246.712405 203.01963 
L 246.817403 217 
M 247.074231 217 
L 247.238614 200.291604 
L 247.370166 198.794811 
L 247.55857 217 
M 247.986764 217 
L 248.027927 211.429111 
L 248.201777 217 
M 248.321751 217 
L 248.422583 198.072927 
L 248.554135 194.739108 
L 248.710379 217 
M 249.977177 217 
L 250.132761 205.217898 
L 250.264313 192.062593 
L 250.395866 194.094261 
L 250.490014 217 
M 250.86235 217 
L 251.053626 202.726005 
L 251.254764 217 
M 251.346355 217 
L 251.448283 201.930734 
L 251.579835 199.161912 
L 251.875371 217 
M 252.082569 217 
L 252.106044 215.340272 
L 252.13155 217 
M 252.340764 217 
L 252.5007 199.306734 
L 252.588733 217 
M 252.77884 217 
L 252.895357 201.857642 
L 253.158461 211.868337 
L 253.290013 203.123351 
L 253.503615 217 
M 253.593861 217 
L 253.684669 208.513332 
L 253.748707 217 
M 254.080165 217 
L 254.210878 215.671753 
L 254.231214 217 
M 254.384929 217 
L 254.473982 201.778717 
L 254.605535 208.584255 
L 254.638746 217 
M 255.271467 217 
L 255.394847 194.535388 
L 255.5264 196.579026 
L 255.655986 217 
M 256.242426 217 
L 256.315713 215.866912 
L 256.324201 217 
M 257.137342 217 
L 257.236578 200.505482 
L 257.36813 202.283136 
L 257.404364 217 
M 257.590136 217 
L 257.631234 199.410087 
L 257.762786 193.062049 
L 257.945056 217 
M 258.127789 217 
L 258.157443 213.638714 
L 258.288995 211.541443 
L 258.407266 217 
M 258.61749 217 
L 258.683651 204.267645 
L 258.815204 209.331567 
L 258.829921 217 
M 259.289771 217 
L 259.472964 197.92482 
L 259.604516 212.610091 
L 259.736069 210.412005 
L 259.769317 217 
M 260.564323 217 
L 260.656934 205.664469 
L 260.816688 217 
M 260.995246 217 
L 261.05159 203.677844 
L 261.183142 207.682002 
L 261.275278 217 
M 261.701567 217 
L 261.840903 206.737554 
L 261.972455 210.82389 
L 262.104007 206.065619 
L 262.23556 208.615023 
L 262.345268 217 
M 262.39348 217 
L 262.498664 210.340572 
L 262.639733 217 
M 263.007933 217 
L 263.024872 214.052039 
L 263.156425 213.759203 
L 263.183764 217 
M 264.692718 217 
L 264.866603 191.800133 
L 264.998155 190.846006 
L 265.129707 215.288105 
L 265.261259 205.198309 
L 265.368884 217 
M 265.61112 217 
L 265.787468 201.835136 
L 265.868155 217 
M 266.036379 217 
L 266.050572 215.843809 
L 266.067451 217 
M 266.520136 217 
L 266.708333 201.294173 
L 266.839885 202.716032 
L 266.957478 217 
M 267.36181 217 
L 267.366094 216.593258 
L 267.374884 217 
M 267.557695 217 
L 267.629198 210.236274 
L 267.740943 217 
M 268.17295 217 
L 268.418511 194.609831 
L 268.550063 203.64407 
L 268.625038 217 
M 268.745849 217 
L 268.813167 206.43773 
L 268.870766 217 
M 269.033455 217 
L 269.076272 210.456468 
L 269.175831 217 
M 269.737373 217 
L 269.865585 202.56411 
L 269.923356 217 
M 270.10646 217 
L 270.128689 213.251288 
L 270.157156 217 
M 270.628993 217 
L 270.78645 195.521796 
L 270.918002 188.349501 
L 271.049554 190.287476 
L 271.271564 217 
M 271.335796 217 
L 271.575763 194.601045 
L 271.838867 204.281453 
L 271.951734 217 
M 272.351659 217 
L 272.496628 206.103966 
L 272.606387 217 
M 272.709941 217 
L 272.759732 215.682488 
L 272.891284 206.229916 
L 272.928335 217 
M 273.28869 217 
L 273.417493 212.262539 
L 273.680597 190.306359 
L 273.812149 199.117346 
L 273.911981 217 
M 274.411459 217 
L 274.46991 207.537398 
L 274.601462 204.526219 
L 274.733014 205.088261 
L 274.864566 206.717526 
L 275.020425 217 
M 275.857283 217 
L 275.916984 211.37156 
L 276.083788 217 
M 276.528327 217 
L 276.706297 185.221507 
L 276.837849 186.52896 
L 276.969401 194.66318 
L 277.100953 214.946128 
L 277.232505 215.908945 
L 277.364057 199.069378 
L 277.49561 196.467248 
L 277.890266 211.85913 
L 278.284922 197.160118 
L 278.416475 194.026943 
L 278.616318 217 
M 279.323572 217 
L 279.33734 211.498446 
L 279.468892 204.054609 
L 279.539788 217 
M 279.661635 217 
L 279.731996 204.264363 
L 279.86114 217 
M 280.069995 217 
L 280.126653 211.547289 
L 280.162337 217 
M 280.440081 217 
L 280.521309 208.421692 
L 280.642511 217 
M 281.281232 217 
L 281.310622 215.007061 
L 281.325372 217 
M 281.705761 217 
L 282.099935 195.966685 
L 282.231487 196.207948 
L 282.363039 204.734919 
L 282.408344 217 
M 282.817451 217 
L 282.889248 207.039156 
L 283.0208 207.186642 
L 283.152352 202.965409 
L 283.283904 206.765993 
L 283.415457 207.169005 
L 283.547009 209.758943 
L 283.810113 196.365935 
L 283.941665 202.191616 
L 284.000309 217 
M 284.303544 217 
L 284.336322 212.717606 
L 284.405668 217 
M 285.040338 217 
L 285.257187 205.962416 
L 285.388739 209.50239 
L 285.651843 198.006533 
L 285.783395 200.383198 
L 285.85127 217 
M 286.01804 217 
L 286.0465 212.696412 
L 286.138708 217 
M 286.386415 217 
L 286.572708 194.340108 
L 286.745326 217 
M 287.206163 217 
L 287.230469 213.065503 
L 287.260426 217 
M 287.550852 217 
L 287.625126 206.707033 
L 287.756678 206.36563 
L 287.88823 205.493594 
L 288.019782 203.340557 
L 288.189435 217 
M 288.933797 217 
L 289.072199 206.352331 
L 289.203751 206.517021 
L 289.28337 217 
M 289.38032 217 
L 289.466856 203.855871 
L 289.598408 206.171038 
L 289.72996 216.035825 
L 289.861512 210.011279 
L 289.98908 217 
M 290.608166 217 
L 290.782377 200.020268 
L 290.913929 215.011132 
L 291.045482 203.9725 
L 291.177034 202.885665 
L 291.205888 217 
M 291.405245 217 
L 291.440138 198.864956 
L 291.619901 217 
M 292.03955 217 
L 292.097899 208.847812 
L 292.173743 217 
M 292.529176 217 
L 292.75566 199.982209 
L 292.887212 197.612828 
L 293.087362 217 
M 293.199101 217 
L 293.41342 197.317485 
L 293.544972 204.619944 
L 293.583856 217 
M 293.785125 217 
L 293.808077 210.764278 
L 293.939629 205.970272 
L 294.029163 217 
M 294.300477 217 
L 294.334285 210.35211 
L 294.534807 217 
M 294.60649 217 
L 294.860494 193.85649 
L 295.102214 217 
M 295.157194 217 
L 295.386703 200.990632 
L 295.534331 217 
M 295.879249 217 
L 295.912911 210.535107 
L 296.044463 214.235034 
L 296.176016 214.762297 
L 296.206731 217 
M 298.234026 217 
L 298.28085 208.217224 
L 298.412402 208.691642 
L 298.46282 217 
M 298.934293 217 
L 298.938611 214.945509 
L 299.070163 208.573049 
L 299.199283 217 
M 299.203392 217 
L 299.333267 204.707129 
L 299.486815 217 
M 299.711828 217 
L 299.859476 204.660175 
L 300.012859 217 
M 300.188337 217 
L 300.254132 210.73324 
L 300.304798 217 
M 300.502112 217 
L 300.648789 204.262322 
L 300.763414 217 
M 301.577955 217 
L 301.832758 84.350508 
L 301.96431 63.352106 
L 302.095863 71.897476 
L 302.227415 113.907921 
L 302.358967 205.282002 
L 302.496423 217 
M 303.97475 217 
L 304.069145 210.709407 
L 304.100266 217 
M 304.283952 217 
L 304.463801 192.389684 
L 304.732037 217 
M 305.238433 217 
L 305.253114 212.70459 
L 305.314381 217 
M 305.434291 217 
L 305.516219 208.864576 
L 305.647771 209.033948 
L 305.779323 208.21373 
L 305.910875 209.965256 
L 305.936902 217 
M 306.142572 217 
L 306.173979 208.054962 
L 306.305532 204.832228 
L 306.437084 205.44047 
L 306.568636 206.726105 
L 306.700188 215.702464 
L 306.963292 203.855076 
L 307.094844 209.59201 
L 307.13667 217 
M 307.641866 217 
L 307.884157 207.837003 
L 308.01571 204.882656 
L 308.396198 217 
M 308.421416 217 
L 308.541918 213.156278 
L 308.67347 213.120398 
L 308.707196 217 
M 309.083427 217 
L 309.331231 212.740089 
L 309.594335 206.111241 
L 309.988992 190.342756 
L 310.120544 193.497299 
L 310.252096 199.625077 
L 310.383648 196.301585 
L 310.515201 198.410915 
L 310.628219 217 
M 310.895838 217 
L 311.041409 203.274526 
L 311.172961 205.031343 
L 311.304513 204.203133 
L 311.567618 214.881806 
L 311.570981 217 
M 312.353601 217 
L 312.356931 216.475447 
L 312.488483 214.867361 
L 312.507084 217 
M 312.795851 217 
L 312.883139 202.748415 
L 313.014691 204.773266 
L 313.277796 216.51563 
L 313.409348 213.849761 
L 313.5409 205.281914 
L 313.672452 188.91954 
L 313.804004 194.153548 
L 313.935557 215.295687 
L 314.067109 216.137865 
L 314.330213 197.29612 
L 314.461765 197.32176 
L 314.593317 208.137144 
L 314.724869 209.302788 
L 314.856422 212.837505 
L 314.885136 217 
M 315.053042 217 
L 315.119526 201.768138 
L 315.251078 198.2245 
L 315.38263 201.415886 
L 315.518511 217 
M 315.885034 217 
L 316.040391 193.85743 
L 316.171943 196.560998 
L 316.239424 217 
M 316.395858 217 
L 316.5666 199.350106 
L 316.698152 199.384661 
L 316.829704 206.783588 
L 316.867287 217 
M 317.261203 217 
L 317.487465 195.239266 
L 317.638232 217 
M 318.262163 217 
L 318.40833 208.235989 
L 318.671434 193.356781 
L 318.894035 217 
M 319.82884 217 
L 319.855404 212.331389 
L 319.892016 217 
M 320.218846 217 
L 320.25006 214.09123 
L 320.31496 217 
M 320.43646 217 
L 320.513164 212.822305 
L 320.64652 217 
M 321.755233 217 
L 321.828686 210.415365 
L 321.904166 217 
M 322.478417 217 
L 322.486447 214.546221 
L 322.617999 211.627097 
L 322.749551 203.902882 
L 322.881103 209.167659 
L 322.901541 217 
M 323.580582 217 
L 323.670416 203.431969 
L 323.729615 217 
M 323.868094 217 
L 323.93352 200.59262 
L 324.065073 205.260893 
L 324.104452 217 
M 324.396901 217 
L 324.591281 194.658678 
L 324.722833 196.473057 
L 324.854385 201.406141 
L 324.985938 214.067472 
L 325.11749 213.886298 
L 325.249042 203.716774 
L 325.297262 217 
M 325.497325 217 
L 325.512146 214.085439 
L 325.643698 214.314355 
L 325.652454 217 
M 326.247739 217 
L 326.301459 215.176568 
L 326.308327 217 
M 326.610539 217 
L 326.696116 213.585716 
L 326.717135 217 
M 327.021552 217 
L 327.090772 202.469226 
L 327.222324 204.323579 
L 327.353876 208.495047 
L 327.485429 207.28639 
L 327.616981 201.114857 
L 327.748533 204.920778 
L 327.842929 217 
M 328.075147 217 
L 328.143189 209.428715 
L 328.208571 217 
M 328.396335 217 
L 328.537846 206.505344 
L 328.646365 217 
M 328.695011 217 
L 328.932502 205.696803 
L 329.253156 217 
M 329.555631 217 
L 329.721815 206.332134 
L 329.984919 193.881056 
L 330.230316 217 
M 330.259441 217 
L 330.379576 205.464065 
L 330.511128 205.057249 
L 330.64268 206.302128 
L 330.701664 217 
M 330.853919 217 
L 331.037337 198.910821 
L 331.431993 212.014961 
L 331.695098 186.688281 
L 331.82665 186.420437 
L 331.958202 195.885692 
L 332.089754 214.110139 
L 332.221306 206.944472 
L 332.48441 212.77431 
L 332.510002 217 
M 333.134035 217 
L 333.142171 216.876179 
L 333.143063 217 
M 333.699999 217 
L 333.799932 212.550213 
L 333.858791 217 
M 333.965591 217 
L 334.194588 191.068857 
L 334.326141 193.261956 
L 334.457693 202.550371 
L 334.527181 217 
M 334.835622 217 
L 334.852349 215.849593 
L 334.983901 198.041645 
L 335.169973 217 
M 335.376631 217 
L 335.378558 216.79266 
L 335.379676 217 
M 336.697212 217 
L 336.825632 189.590353 
L 336.957184 192.071844 
L 337.096426 217 
M 337.603328 217 
L 337.746497 201.180565 
L 337.878049 204.534315 
L 337.929906 217 
M 338.151309 217 
L 338.272705 198.402444 
L 338.404257 198.204935 
L 338.667362 215.245602 
L 338.798914 210.63324 
L 338.833392 217 
M 339.17245 217 
L 339.456675 194.844774 
L 339.667686 217 
M 340.331201 217 
L 340.509092 198.490581 
L 340.640644 199.613026 
L 340.798854 217 
M 341.034104 217 
L 341.166853 203.7746 
L 341.298405 211.87744 
L 341.693061 207.813889 
L 341.824613 211.437544 
L 341.956166 202.754198 
L 342.087718 204.851165 
L 342.21927 211.264823 
L 342.350822 207.248989 
L 342.40536 217 
M 342.579362 217 
L 342.613926 212.092827 
L 342.720721 217 
M 343.716621 217 
L 343.797896 208.768651 
L 343.929448 207.777552 
L 343.962929 217 
M 344.158575 217 
L 344.324104 201.86114 
L 344.455657 201.012212 
L 344.599048 217 
M 344.794582 217 
L 344.850313 206.163076 
L 344.981865 204.449143 
L 345.049745 217 
M 345.348067 217 
L 345.376522 214.552159 
L 345.385294 217 
M 346.354377 217 
L 346.428939 202.528481 
L 346.560491 203.332391 
L 346.692043 206.737172 
L 346.743095 217 
M 346.892483 217 
L 346.955148 202.278821 
L 347.0867 202.606021 
L 347.401985 217 
M 348.213911 217 
L 348.270669 210.856254 
L 348.294253 217 
M 348.672369 217 
L 348.796878 208.072885 
L 348.849347 217 
M 349.402563 217 
L 349.454638 211.375795 
L 349.528869 217 
M 349.732905 217 
L 349.849295 198.921855 
L 349.980847 202.509971 
L 350.055209 217 
M 350.494673 217 
L 350.638608 194.773164 
L 350.77016 198.930267 
L 350.882514 217 
M 350.947032 217 
L 351.033264 211.124993 
L 351.089027 217 
M 351.681457 217 
L 351.822577 206.13117 
L 351.892654 217 
M 352.098944 217 
L 352.217234 205.005934 
L 352.348786 210.131645 
L 352.375785 217 
M 353.040776 217 
L 353.269651 198.56703 
L 353.440254 217 
M 353.82904 217 
L 353.927412 200.476118 
L 354.058964 204.162999 
L 354.190516 215.763661 
L 354.322068 204.693331 
L 354.45362 212.978223 
L 354.585173 212.882111 
L 354.848277 206.335485 
L 354.991753 217 
M 355.584995 217 
L 355.63759 208.720314 
L 355.806046 217 
M 356.070848 217 
L 356.163798 214.827472 
L 356.426903 200.237559 
L 356.560011 217 
M 356.977516 217 
L 357.084663 207.841087 
L 357.206676 217 
M 357.642459 217 
L 358.005529 194.955215 
L 358.137081 191.880422 
L 358.268633 193.976104 
L 358.463958 217 
M 359.051492 217 
L 359.057946 216.721697 
L 359.058705 217 
M 359.299686 217 
L 359.32105 207.703027 
L 359.584154 199.812734 
L 359.715707 215.531243 
L 359.847259 207.218576 
L 359.981314 217 
M 360.415703 217 
L 360.50502 205.386305 
L 360.636572 203.369451 
L 360.813588 217 
M 361.065532 217 
L 361.294332 200.441347 
L 361.425885 203.08245 
L 361.504619 217 
M 361.894754 217 
L 361.952093 214.635235 
L 361.96536 217 
M 362.324257 217 
L 362.34675 212.189123 
L 362.478302 211.707448 
L 362.487206 217 
M 362.992959 217 
L 363.00451 215.204333 
L 363.038636 217 
M 363.294659 217 
L 363.530719 199.533864 
L 363.721659 217 
M 363.890645 217 
L 363.925376 213.38691 
L 364.056928 213.609923 
L 364.075205 217 
M 364.345236 217 
L 364.451584 203.345388 
L 364.583136 207.036438 
L 364.669123 217 
M 364.761889 217 
L 365.109345 184.333073 
L 365.240897 192.832683 
L 365.372449 208.929662 
L 365.504001 204.344724 
L 365.635554 204.973715 
L 365.769551 217 
M 366.467836 217 
L 366.556419 208.773775 
L 366.687971 209.687889 
L 366.951075 199.185392 
L 367.082627 205.150249 
L 367.168044 217 
M 367.251033 217 
L 367.345732 200.554241 
L 367.494546 217 
M 367.839889 217 
L 367.87194 215.765159 
L 367.876139 217 
M 368.133914 217 
L 368.135045 216.675317 
L 368.214584 217 
M 368.442381 217 
L 368.661253 199.847226 
L 369.017457 217 
M 369.112737 217 
L 369.319014 207.53727 
L 369.450566 210.785935 
L 369.71367 194.628891 
L 369.845223 205.119608 
L 369.976775 196.022317 
L 370.108327 198.527947 
L 370.198868 217 
M 370.803529 217 
L 370.89764 210.570163 
L 371.029192 210.696459 
L 371.092122 217 
M 371.373641 217 
L 371.555401 199.052892 
L 371.686953 200.754793 
L 371.899057 217 
M 372.181006 217 
L 372.213161 210.924385 
L 372.344713 212.292118 
L 372.476266 206.812922 
L 372.575943 217 
M 372.750579 217 
L 373.002474 194.499721 
L 373.199756 217 
M 373.331188 217 
L 373.397131 205.334323 
L 373.528683 206.244988 
L 373.675581 217 
M 373.881014 217 
L 373.923339 203.498001 
L 374.054891 209.00987 
L 374.090185 217 
M 374.277161 217 
L 374.317996 207.190697 
L 374.435052 217 
M 374.662887 217 
L 374.712652 207.552909 
L 374.844204 208.373201 
L 374.981162 217 
M 375.682954 217 
L 375.896622 195.00914 
L 376.028174 193.615327 
L 376.159726 201.392802 
L 376.276814 217 
M 376.311074 217 
L 376.42283 206.11569 
L 376.554382 207.829663 
L 376.577546 217 
M 377.080175 217 
L 377.080591 216.933235 
L 377.212143 214.033224 
L 377.232294 217 
M 377.645913 217 
L 377.738352 209.410043 
L 377.776117 217 
M 377.943364 217 
L 378.001456 202.094249 
L 378.133008 199.326509 
L 378.26456 216.31163 
L 378.396113 216.232463 
L 378.527665 208.703527 
L 378.659217 216.836285 
L 378.790769 211.41698 
L 378.863862 217 
M 380.391676 217 
L 380.632499 199.136625 
L 380.919358 217 
M 381.28688 217 
L 381.29026 215.219897 
L 381.421812 214.640711 
L 381.684916 208.388217 
L 381.712712 217 
M 381.954914 217 
L 382.079573 206.410173 
L 382.211125 207.461117 
L 382.342677 213.207813 
L 382.474229 213.409112 
L 382.605782 201.013358 
L 382.737334 200.100679 
L 383.01401 217 
M 383.268803 217 
L 383.526647 198.402627 
L 383.658199 199.488153 
L 383.789751 213.548818 
L 383.921303 207.847756 
L 384.052855 191.23615 
L 384.184407 197.441676 
L 384.31596 196.939883 
L 384.447512 192.077972 
L 384.579064 197.575089 
L 384.684097 217 
M 385.053769 217 
L 385.105273 204.365674 
L 385.236825 209.493929 
L 385.301238 217 
M 386.093548 217 
L 386.289242 199.652831 
L 386.420794 206.184382 
L 386.552346 203.398688 
L 386.683898 206.934411 
L 386.805723 217 
M 387.403382 217 
L 387.604763 190.13866 
L 387.777305 217 
M 388.786616 217 
L 388.788733 216.116373 
L 388.920285 214.371234 
L 389.003131 217 
M 389.865712 217 
L 389.972702 206.680147 
L 390.104254 212.740124 
L 390.367359 199.232974 
L 390.630463 213.153625 
L 390.762015 214.797904 
L 390.893567 214.205951 
L 391.02512 207.383464 
L 391.19402 217 
M 391.460371 217 
L 391.551328 207.207058 
L 391.68288 209.290504 
L 391.709857 217 
M 392.116841 217 
L 392.340641 200.510546 
L 392.472193 199.781349 
L 392.603745 214.170721 
L 392.86685 203.647312 
L 392.946267 217 
M 393.211127 217 
L 393.261506 210.804331 
L 393.393058 213.156603 
L 393.52461 212.006442 
L 393.656163 207.66817 
L 393.787715 208.751264 
L 393.827156 217 
M 394.12159 217 
L 394.313923 202.145149 
L 394.445476 207.687691 
L 394.51705 217 
M 394.625672 217 
L 394.70858 203.699896 
L 394.840132 203.543219 
L 394.911225 217 
M 395.09199 217 
L 395.234788 212.715968 
L 395.281119 217 
M 395.792414 217 
L 396.155654 190.40223 
L 396.287206 202.361678 
L 396.418758 198.568975 
L 396.573718 217 
M 397.324441 217 
L 397.339623 214.873646 
L 397.471175 213.203706 
L 397.48869 217 
M 397.703069 217 
L 397.734279 209.311695 
L 397.808522 217 
M 398.919335 217 
L 399.181353 204.083795 
L 399.312905 208.948642 
L 399.362135 217 
M 399.806541 217 
L 399.839114 214.866794 
L 399.856526 217 
M 400.346152 217 
L 400.365323 212.547918 
L 400.447308 217 
M 400.705783 217 
L 401.023083 203.961831 
L 401.154635 203.979217 
L 401.41774 198.367043 
L 401.552486 217 
M 402.313214 217 
L 402.338605 214.766722 
L 402.364123 217 
M 402.564877 217 
L 402.733261 203.715178 
L 402.864813 209.327018 
L 402.996366 199.98682 
L 403.127918 200.560841 
L 403.252577 217 
M 403.429791 217 
L 403.522574 207.429235 
L 403.674724 217 
M 404.027244 217 
L 404.048783 212.774469 
L 404.180335 214.126773 
L 404.221126 217 
M 404.37429 217 
L 404.574991 197.670492 
L 404.706544 196.617529 
L 404.994101 217 
M 405.966834 217 
L 406.022065 212.526665 
L 406.066105 217 
M 406.390907 217 
L 406.416722 213.345011 
L 406.447019 217 
M 406.616575 217 
L 406.679826 205.687922 
L 406.811378 210.525099 
L 406.836686 217 
M 407.106502 217 
L 407.206035 201.978734 
L 407.537936 217 
M 408.1896 217 
L 408.258452 213.989718 
L 408.302695 217 
M 408.737682 217 
L 408.78466 206.037333 
L 408.916213 204.891441 
L 409.047765 202.41265 
L 409.179317 203.33318 
L 409.310742 217 
M 410.174431 217 
L 410.231734 213.660156 
L 410.26436 217 
M 410.438495 217 
L 410.626391 203.429018 
L 410.896498 217 
M 411.223826 217 
L 411.284151 210.805807 
L 411.415704 210.988547 
L 411.460695 217 
M 411.724572 217 
L 411.81036 199.596421 
L 411.941912 204.672393 
L 412.005275 217 
M 412.830763 217 
L 412.862777 214.376976 
L 412.994329 215.473221 
L 413.257434 203.78157 
L 413.493108 217 
M 413.938303 217 
L 414.178299 190.720888 
L 414.309851 197.23302 
L 414.394322 217 
M 415.411128 217 
L 415.49382 200.189194 
L 415.625373 212.069008 
L 415.756925 212.2582 
L 415.888477 212.162107 
L 415.93201 217 
M 416.200508 217 
L 416.283133 202.742377 
L 416.472059 217 
M 416.822357 217 
L 416.940894 203.370086 
L 417.072446 206.22063 
L 417.165258 217 
M 417.420092 217 
L 417.730207 188.379561 
L 417.861759 190.670748 
L 418.387968 213.939888 
L 418.51952 210.338899 
L 418.651072 212.259854 
L 418.683273 217 
M 418.918042 217 
L 419.045729 202.078846 
L 419.264378 217 
M 419.315642 217 
L 419.440385 207.68115 
L 419.571937 206.574912 
L 419.703489 208.072336 
L 419.835772 217 
M 420.15357 217 
L 420.229698 203.089912 
L 420.36125 200.373256 
L 420.492802 194.987733 
L 420.637969 217 
M 420.833756 217 
L 420.887459 208.945408 
L 421.019011 206.977776 
L 421.19055 217 
M 421.363944 217 
L 421.413667 210.296942 
L 421.548777 217 
M 422.406697 217 
L 422.597637 191.508981 
L 422.992293 213.917048 
L 423.065351 217 
M 423.166248 217 
L 423.255398 211.810403 
L 423.26616 217 
M 423.504158 217 
L 423.650054 198.612632 
L 423.781606 200.314872 
L 423.913158 200.503483 
L 424.04471 198.639867 
L 424.176263 200.548569 
L 424.307815 195.116882 
L 424.439367 195.572574 
L 424.570919 197.45036 
L 424.727779 217 
M 425.061001 217 
L 425.097128 215.205399 
L 425.102041 217 
M 425.342096 217 
L 425.491784 200.21133 
L 425.623336 196.148163 
L 425.754888 203.215951 
L 425.911547 217 
M 426.455806 217 
L 426.675754 200.824432 
L 426.807306 193.816506 
L 426.938858 196.515782 
L 427.007984 217 
M 427.240628 217 
L 427.465067 207.332771 
L 427.596619 205.734608 
L 427.728171 196.731171 
L 427.991275 205.023543 
L 428.061667 217 
M 428.199297 217 
L 428.254379 209.504507 
L 428.385932 210.887552 
L 428.418988 217 
M 428.776365 217 
L 428.91214 203.138866 
L 429.175245 185.777459 
L 429.306797 186.888777 
L 429.569901 214.88553 
L 429.582495 217 
M 430.094181 217 
L 430.227662 201.353404 
L 430.359214 202.137145 
L 430.490766 206.639625 
L 430.549596 217 
M 430.932772 217 
L 431.148527 196.144451 
L 431.350221 217 
M 431.541461 217 
L 431.674735 208.770692 
L 431.86522 217 
M 432.059422 217 
L 432.069392 216.54426 
L 432.075096 217 
M 432.345617 217 
L 432.464048 214.588753 
L 432.509577 217 
M 432.649143 217 
L 432.858705 208.478632 
L 432.990257 209.3583 
L 433.039728 217 
M 433.145982 217 
L 433.516466 64.280558 
L 433.648018 70.011551 
L 433.77957 108.40137 
L 434.022363 217 
M 434.070727 217 
L 434.174226 209.975861 
L 434.207923 217 
M 434.416758 217 
L 434.437331 213.218718 
L 434.568883 210.630378 
L 434.709611 217 
M 435.057942 217 
L 435.095092 207.363914 
L 435.226644 211.457647 
L 435.271094 217 
M 435.448831 217 
L 435.6213 204.780765 
L 435.691661 217 
M 436.814726 217 
L 437.068374 200.204578 
L 437.331478 191.278956 
L 437.46303 195.143285 
L 437.594582 189.168804 
L 437.74928 217 
M 438.086206 217 
L 438.252343 207.335032 
L 438.273702 217 
M 438.495395 217 
L 438.515448 208.032205 
L 438.647 210.42913 
L 438.778552 204.401839 
L 438.910104 208.851114 
L 438.974962 217 
M 439.174664 217 
L 439.436313 198.089298 
L 439.567865 196.867827 
L 439.698617 217 
M 440.731111 217 
L 440.883386 199.455271 
L 441.014938 199.805466 
L 441.142408 217 
M 441.980875 217 
L 442.067356 213.1126 
L 442.095799 217 
M 442.420181 217 
L 442.593564 205.314487 
L 442.730102 217 
M 442.958839 217 
L 442.988221 213.990404 
L 443.008328 217 
M 444.371566 217 
L 444.566847 197.617173 
L 444.698399 198.500511 
L 444.829951 206.06051 
L 444.906821 217 
M 445.190916 217 
L 445.224607 212.249306 
L 445.248595 217 
M 445.713964 217 
L 445.882368 204.36636 
L 446.01392 202.400334 
L 446.145473 203.52927 
L 446.408577 198.916954 
L 446.534438 217 
M 447.21808 217 
L 447.329442 213.041725 
L 447.460994 213.935816 
L 447.724098 216.062796 
L 447.987203 208.492367 
L 448.118755 207.3261 
L 448.202452 217 
M 448.624983 217 
L 448.644963 213.915112 
L 448.776516 214.33775 
L 448.805357 217 
M 449.012411 217 
L 449.03962 214.52776 
L 449.047935 217 
M 450.226871 217 
L 450.355142 202.066459 
L 450.437959 217 
M 450.57001 217 
L 450.749798 204.85652 
L 450.88135 209.647662 
L 451.012902 207.010567 
L 451.144454 207.559363 
L 451.407559 212.445968 
L 451.46242 217 
M 451.712768 217 
L 451.802215 196.524937 
L 451.933767 194.700371 
L 452.196872 205.37037 
L 452.445736 217 
M 452.465057 217 
L 452.986185 190.18702 
L 453.152563 217 
M 453.331381 217 
L 453.380841 202.539094 
L 453.5643 217 
M 453.751809 217 
L 453.90705 208.852627 
L 453.938615 217 
M 454.327948 217 
L 454.433258 208.817083 
L 454.696363 206.740991 
L 454.878943 217 
M 455.163385 217 
L 455.354123 208.39694 
L 455.414621 217 
M 456.12703 217 
L 456.143436 212.086188 
L 456.274988 209.91358 
L 456.410349 217 
M 456.796081 217 
L 456.932749 206.879021 
L 457.064301 205.015454 
L 457.195854 207.655314 
L 457.254501 217 
M 457.650153 217 
L 457.722062 208.779701 
L 457.853614 207.329132 
L 458.116719 197.451778 
L 458.248271 204.681443 
L 458.379823 200.380853 
L 458.54477 217 
M 458.951727 217 
L 459.169136 195.317028 
L 459.300688 191.092613 
L 459.43224 201.219609 
L 459.47692 217 
M 459.691622 217 
L 459.826897 199.680003 
L 459.958449 200.515433 
L 460.058788 217 
M 460.349299 217 
L 460.353105 216.251514 
L 460.61621 213.544737 
L 460.643546 217 
M 461.210971 217 
L 461.405523 196.981755 
L 461.537075 200.555061 
L 461.690381 217 
M 461.874344 217 
L 461.931731 209.618204 
L 462.066197 217 
M 462.320337 217 
L 462.45794 203.911181 
L 462.589492 209.122604 
L 462.612161 217 
M 463.864019 217 
L 463.905014 211.347393 
L 463.991312 217 
M 464.192634 217 
L 464.29967 208.611093 
L 464.48325 217 
M 464.847558 217 
L 464.957431 212.617478 
L 465.089161 217 
M 465.417704 217 
L 465.615192 204.219137 
L 465.746744 199.49902 
L 465.878296 209.065766 
L 466.009848 210.330966 
L 466.1414 207.063856 
L 466.243872 217 
M 467.719476 217 
L 467.851578 211.327256 
L 467.98313 209.691972 
L 468.062061 217 
M 468.180136 217 
L 468.246235 212.07988 
L 468.377787 211.750497 
L 468.440182 217 
M 468.635543 217 
L 468.640891 216.753414 
L 468.772443 204.522752 
L 468.903995 212.711217 
L 469.035548 212.278008 
L 469.1671 206.442561 
L 469.289363 217 
M 469.542413 217 
L 469.693308 194.976174 
L 469.956413 212.175095 
L 470.001183 217 
M 470.326975 217 
L 470.351069 214.445836 
L 470.38291 217 
M 470.54117 217 
L 470.745726 198.494215 
L 470.858694 217 
M 471.293683 217 
L 471.403486 204.313637 
L 471.535039 204.885086 
L 471.666591 214.490255 
L 471.798143 215.634212 
L 471.821271 217 
M 472.026829 217 
L 472.192799 207.780226 
L 472.373648 217 
M 472.504607 217 
L 472.719008 209.26925 
L 472.85056 210.096403 
L 472.982112 209.513246 
L 473.035562 217 
M 473.36153 217 
L 473.508321 207.833931 
L 473.639873 195.462233 
L 473.771425 199.20598 
L 473.878867 217 
M 474.526675 217 
L 474.560738 210.53475 
L 474.58536 217 
M 475.096025 217 
L 475.218499 205.369125 
L 475.350051 207.24545 
L 475.442803 217 
M 475.54955 217 
L 475.613155 213.180265 
L 475.722233 217 
M 476.119168 217 
L 476.270916 192.223717 
L 476.402468 191.239048 
L 476.665573 215.050645 
L 476.797125 215.022726 
L 476.928677 209.080513 
L 477.060229 192.884187 
L 477.191781 192.603687 
L 477.426513 217 
M 478.460723 217 
L 478.507303 211.406441 
L 478.583583 217 
M 478.883366 217 
L 479.033511 202.07185 
L 479.165064 206.035559 
L 479.296616 206.175521 
L 479.428168 208.658038 
L 479.485152 217 
M 480.654643 217 
L 480.743689 214.662669 
L 480.875242 201.209756 
L 481.006794 202.517299 
L 481.138346 207.340081 
L 481.19313 217 
M 481.803216 217 
L 482.059211 201.652339 
L 482.190763 200.717468 
L 482.322315 195.266444 
L 482.453867 194.767821 
L 482.58542 194.992978 
L 482.716972 199.613688 
L 482.872041 217 
M 483.308026 217 
L 483.506285 192.978035 
L 483.637837 199.501154 
L 483.710717 217 
M 483.951358 217 
L 484.164045 200.266969 
L 484.326369 217 
M 485.0367 217 
L 485.08491 209.274442 
L 485.216463 212.120227 
L 485.348015 209.575119 
L 485.479567 195.891268 
L 485.611119 197.621347 
L 485.73616 217 
M 485.990762 217 
L 486.005776 214.134276 
L 486.137328 210.422192 
L 486.170637 217 
M 486.462799 217 
L 486.663536 198.901407 
L 486.795089 200.382621 
L 487.105948 217 
M 487.481055 217 
L 487.584401 204.474388 
L 487.715954 206.953101 
L 487.794319 217 
M 487.950036 217 
L 488.11061 207.431345 
L 488.248476 217 
M 488.745146 217 
L 488.899923 198.217594 
L 489.031475 196.366675 
L 489.213604 217 
M 489.372352 217 
L 489.426132 206.242502 
L 489.557684 203.561828 
L 489.610184 217 
M 489.799344 217 
L 489.95234 206.542621 
L 490.083892 205.96277 
L 490.215445 208.427156 
L 490.328182 217 
M 490.595719 217 
L 490.610101 208.998433 
L 490.741653 203.424374 
L 490.873205 208.722787 
L 491.004757 192.473658 
L 491.13631 195.995662 
L 491.267862 215.235802 
L 491.399414 211.538018 
L 491.530966 200.99746 
L 491.628203 217 
M 492.111384 217 
L 492.188727 215.788769 
L 492.243482 217 
M 492.560693 217 
L 492.714935 195.813098 
L 492.846488 216.26092 
L 492.97804 216.089292 
L 493.109592 211.438313 
L 493.14633 217 
M 493.299195 217 
L 493.504248 193.133513 
L 493.635801 204.407492 
L 493.665952 217 
M 493.892794 217 
L 494.030457 200.079124 
L 494.162009 195.191281 
L 494.293561 198.967664 
L 494.394318 217 
M 494.585163 217 
L 494.688218 202.645826 
L 494.81977 206.954148 
L 494.864973 217 
M 495.809789 217 
L 495.872187 203.272061 
L 496.003739 201.942433 
L 496.131033 217 
M 496.291739 217 
L 496.398396 213.967032 
L 496.529948 215.8755 
L 496.6615 214.263239 
L 496.793052 207.595647 
L 496.880752 217 
M 497.186308 217 
L 497.187709 216.644775 
L 497.192088 217 
M 497.518744 217 
L 497.582365 208.012831 
L 497.652614 217 
M 498.166342 217 
L 498.371678 206.51239 
L 498.535106 217 
M 498.89736 217 
L 498.897887 216.985846 
L 498.898054 217 
M 499.111999 217 
L 499.160991 210.406921 
L 499.25374 217 
M 499.738724 217 
L 499.818752 197.157783 
L 499.950304 198.785566 
L 500.077434 217 
M 500.276394 217 
L 500.34496 206.73695 
L 500.400729 217 
M 500.924691 217 
L 501.134273 203.077489 
L 501.265826 202.6982 
L 501.36912 217 
M 501.559491 217 
L 501.660482 214.655722 
L 501.669266 217 
M 502.377057 217 
L 502.449795 208.346069 
L 502.581347 211.190272 
L 502.616516 217 
M 503.044948 217 
L 503.107556 213.551757 
L 503.120957 217 
M 503.714503 217 
L 503.896869 202.750542 
L 504.028421 201.107849 
L 504.144772 217 
M 504.178295 217 
L 504.423077 190.371263 
L 504.554629 198.702781 
L 504.613599 217 
M 504.758378 217 
L 504.949286 185.535092 
L 505.080838 189.577685 
L 505.343942 214.615789 
L 505.478387 217 
M 505.738012 217 
L 505.738599 216.799291 
L 505.743697 217 
M 506.226656 217 
L 506.39636 205.805245 
L 506.48236 217 
M 507.12177 217 
L 507.317225 190.641256 
L 507.473762 217 
M 507.970003 217 
L 508.106538 209.404845 
L 508.23809 206.461123 
L 508.38553 217 
M 508.755301 217 
L 508.764298 216.251556 
L 508.775597 217 
M 509.33263 217 
L 509.422059 197.854699 
L 509.553611 198.523811 
L 509.685164 212.544454 
L 509.948268 204.981359 
L 510.07982 213.399166 
L 510.211372 209.838807 
L 510.305533 217 
M 510.590937 217 
L 510.606029 213.783719 
L 510.692792 217 
M 510.945705 217 
L 511.000685 214.150789 
L 511.0399 217 
M 511.331022 217 
L 511.395342 201.800202 
L 511.526894 206.36555 
L 511.569192 217 
M 512.308321 217 
L 512.316207 211.089237 
L 512.447759 200.489528 
L 512.608023 217 
M 512.809727 217 
L 512.973967 202.126476 
L 513.10552 201.557804 
L 513.185673 217 
M 513.460608 217 
L 513.500176 210.6376 
L 513.569197 217 
M 514.157906 217 
L 514.157937 216.99349 
L 514.421041 208.896602 
L 514.552593 209.973336 
L 514.604467 217 
M 514.852023 217 
L 514.94725 214.115617 
L 514.996444 217 
M 515.326999 217 
L 515.473458 202.187268 
L 515.638617 217 
M 515.784444 217 
L 515.868115 199.837095 
L 515.999667 211.782464 
L 516.131219 207.251567 
L 516.394323 188.429829 
L 516.525876 192.119562 
L 516.755715 217 
M 516.807023 217 
L 516.920532 200.799073 
L 517.052084 204.491319 
L 517.183636 216.740048 
L 517.315189 213.593757 
L 517.446741 214.222504 
L 517.486825 217 
M 517.628125 217 
L 517.709845 206.60644 
L 517.82849 217 
M 517.853578 217 
L 518.104501 197.858925 
L 518.236054 202.578673 
L 518.319416 217 
M 519.277058 217 
L 519.420023 197.439911 
L 519.551575 197.430377 
L 519.683127 198.165429 
L 519.893517 217 
M 519.950411 217 
L 520.077784 197.047949 
L 520.209336 201.500353 
L 520.275496 217 
M 520.987519 217 
L 521.130201 203.526082 
L 521.261753 206.286644 
L 521.326889 217 
M 521.561648 217 
L 521.65641 203.211285 
L 521.787962 208.740434 
L 521.854639 217 
M 521.955172 217 
L 522.182618 190.765232 
L 522.31417 200.030326 
L 522.39383 217 
M 522.730855 217 
L 522.971931 197.804366 
L 523.119173 217 
M 523.329934 217 
L 523.366588 205.796409 
L 523.49814 207.993163 
L 523.553118 217 
M 523.89216 217 
L 524.024348 203.690515 
L 524.14703 217 
M 524.447131 217 
L 524.682109 207.262603 
L 524.813661 202.332729 
L 524.945214 207.19994 
L 525.003201 217 
M 525.147468 217 
L 525.33987 201.408275 
L 525.471422 201.157639 
L 525.658504 217 
M 526.068366 217 
L 526.129183 201.424137 
L 526.260735 198.060221 
L 526.333248 217 
M 528.304487 217 
L 528.497122 195.288727 
L 528.628674 203.38563 
L 528.696147 217 
M 530.428915 217 
L 530.470404 203.551564 
L 530.601956 198.423753 
L 530.828797 217 
M 530.907773 217 
L 531.259717 201.310736 
L 531.391269 213.336919 
L 531.522821 212.23418 
L 531.654373 213.36887 
L 531.917478 210.01697 
L 531.976463 217 
M 532.140951 217 
L 532.180582 213.296101 
L 532.316432 217 
M 533.446861 217 
L 533.496104 212.583788 
L 533.627656 212.059116 
L 533.759208 215.467489 
L 533.89076 204.557073 
L 534.022312 202.982646 
L 534.153864 198.307865 
L 534.350329 217 
M 534.75197 217 
L 534.811625 215.260404 
L 534.826662 217 
M 535.332236 217 
L 535.337834 215.165271 
L 535.349966 217 
M 535.559677 217 
L 535.73249 199.299201 
L 536.0242 217 
M 536.410909 217 
L 536.521803 208.154252 
L 536.653355 208.257088 
L 536.784907 206.863613 
L 536.93117 217 
M 537.229193 217 
L 537.311116 196.860188 
L 537.442668 192.075986 
L 537.705773 212.612829 
L 537.837325 211.310372 
L 538.100429 189.992866 
L 538.231981 196.852313 
L 538.46927 217 
M 538.583491 217 
L 538.626638 216.169044 
L 538.633537 217 
M 539.246735 217 
L 539.284398 211.92035 
L 539.415951 210.785305 
L 539.507565 217 
M 540.663016 217 
L 540.731472 207.0685 
L 540.850767 217 
M 540.889503 217 
L 541.126129 205.773231 
L 541.179877 217 
M 541.913789 217 
L 542.046994 209.264139 
L 542.178546 206.894347 
L 542.270954 217 
M 543.819404 217 
L 544.020276 195.31873 
L 544.151828 194.53037 
L 544.28338 212.851736 
L 544.414932 214.760452 
L 544.546485 190.887575 
L 544.678037 190.060613 
L 544.832847 217 
M 545.407542 217 
L 545.46735 209.401988 
L 545.547033 217 
M 546.046701 217 
L 546.256663 188.492173 
L 546.519767 207.084991 
L 546.59581 217 
M 547.474374 217 
L 547.572184 209.198756 
L 547.698199 217 
M 547.845207 217 
L 547.966841 210.919705 
L 548.098393 212.340171 
L 548.182637 217 
M 548.924032 217 
L 549.15081 195.419346 
L 549.330883 217 
M 549.735257 217 
L 549.940123 203.987512 
L 550.071675 206.325299 
L 550.111815 217 
M 550.365336 217 
L 550.597884 200.955432 
L 550.981796 217 
M 551.005763 217 
L 551.387197 201.156435 
L 551.518749 202.58821 
L 551.570633 217 
M 551.752417 217 
L 551.913405 205.921776 
L 552.027988 217 
M 552.99352 217 
L 553.097375 210.111191 
L 553.228927 212.382514 
L 553.280895 217 
M 553.543888 217 
L 553.755136 194.104159 
L 553.927141 217 
M 554.135442 217 
L 554.281344 202.891997 
L 554.544448 195.009112 
L 554.676001 201.690565 
L 554.807553 214.360356 
L 554.939105 210.66704 
L 555.070657 201.760271 
L 555.202209 202.700538 
L 555.333761 212.654509 
L 555.596866 185.81884 
L 555.991522 202.177774 
L 556.028008 217 
M 556.248322 217 
L 556.254626 215.056033 
L 556.274106 217 
M 556.681141 217 
L 556.780835 192.219419 
L 556.912387 193.157433 
L 557.043939 211.740737 
L 557.307044 196.871536 
L 557.438596 197.61676 
L 557.570148 199.68992 
L 557.658438 217 
M 557.841005 217 
L 557.964804 204.833874 
L 558.096357 209.447867 
L 558.227909 206.954366 
L 558.491013 195.569563 
L 558.629457 217 
M 559.175968 217 
L 559.280326 207.047357 
L 559.398044 217 
M 559.887684 217 
L 559.938087 212.526628 
L 559.991591 217 
M 561.296971 217 
L 561.648265 199.479278 
L 561.911369 216.452961 
L 562.042921 212.556072 
L 562.055176 217 
M 562.304939 217 
L 562.437578 208.176656 
L 562.700682 197.523744 
L 562.832234 197.70357 
L 562.889146 217 
M 563.052971 217 
L 563.095339 204.977766 
L 563.226891 203.879234 
L 563.304864 217 
M 564.059696 217 
L 564.147756 209.194217 
L 564.322347 217 
M 564.826445 217 
L 565.068621 194.556022 
L 565.331725 209.658787 
L 565.463277 211.22131 
L 565.726382 188.68716 
L 565.940338 217 
M 566.055473 217 
L 566.121038 209.270884 
L 566.170591 217 
M 567.231349 217 
L 567.43656 203.991837 
L 567.584992 217 
M 567.960578 217 
L 567.962768 215.946801 
L 568.09432 213.386447 
L 568.1196 217 
M 568.298608 217 
L 568.357425 204.715969 
L 568.467225 217 
M 568.692516 217 
L 568.752081 213.648619 
L 568.830616 217 
M 569.913513 217 
L 569.936051 212.775087 
L 569.969688 217 
M 570.430892 217 
L 570.988468 196.027167 
L 571.12002 213.326432 
L 571.251572 209.695607 
L 571.29319 217 
M 571.77641 217 
L 571.909333 208.374147 
L 571.967135 217 
M 573.041858 217 
L 573.093302 204.162454 
L 573.224854 204.887581 
L 573.273542 217 
M 573.810444 217 
L 573.882615 203.767 
L 574.014167 205.049035 
L 574.106859 217 
M 574.19628 217 
L 574.277272 208.973936 
L 574.323785 217 
M 574.497143 217 
L 574.671928 204.981553 
L 574.80348 196.241025 
L 575.058076 217 
M 576.737527 217 
L 576.776763 208.840892 
L 576.908315 205.050877 
L 577.039867 208.700083 
L 577.171419 200.228592 
L 577.302971 203.049389 
L 577.434523 209.44909 
L 577.477517 217 
M 578.317454 217 
L 578.355389 215.15856 
L 578.424223 217 
M 578.512224 217 
L 578.618493 209.948023 
L 578.755191 217 
M 578.958289 217 
L 579.013149 213.833285 
L 579.036571 217 
M 580.417601 217 
L 580.591775 199.893512 
L 580.723327 198.443573 
L 580.986432 192.417169 
L 581.249536 193.353982 
L 581.381088 200.165124 
L 581.454528 217 
M 581.967337 217 
L 582.038849 208.476618 
L 582.179037 217 
M 583.165307 217 
L 583.222818 198.357578 
L 583.35437 195.842737 
L 583.485923 201.175973 
L 583.617475 200.823464 
L 583.73797 217 
M 584.502447 217 
L 584.53834 213.229191 
L 584.557201 217 
M 584.791599 217 
L 584.801444 215.177433 
L 584.932996 213.492443 
L 585.196101 200.29559 
L 585.327653 204.566937 
L 585.39818 217 
M 585.634856 217 
L 585.722309 200.143577 
L 585.853861 206.810416 
L 585.875381 217 
M 586.470028 217 
L 586.511622 212.821443 
L 586.610995 217 
M 587.123618 217 
L 587.300935 197.45548 
L 587.432487 199.502786 
L 587.543227 217 
M 588.421074 217 
L 588.616457 205.224458 
L 588.729936 217 
M 588.970356 217 
L 589.011113 203.867961 
L 589.142665 199.363287 
L 589.279606 217 
M 589.51614 217 
L 589.537322 212.62361 
L 589.671077 217 
M 589.90352 217 
L 589.931978 212.410699 
L 589.952136 217 
M 590.429242 217 
L 590.589739 203.69857 
L 590.721291 201.630068 
L 590.836384 217 
M 591.057131 217 
L 591.2475 200.370731 
L 591.379052 215.436599 
L 591.510604 214.56907 
L 591.642156 212.466666 
L 591.676227 217 
M 592.628721 217 
L 592.826126 195.789439 
L 593.08923 212.433567 
L 593.220782 210.302332 
L 593.352334 199.194776 
L 593.570761 217 
M 594.608468 217 
L 594.667856 206.211211 
L 594.799408 204.740244 
L 594.853025 217 
M 595.584058 217 
L 595.588721 216.320007 
L 595.628387 217 
M 595.778844 217 
L 595.851825 215.037255 
L 596.114929 195.251851 
L 596.246482 200.76831 
L 596.351713 217 
M 596.696139 217 
L 596.904242 184.95136 
L 597.035795 187.389494 
L 597.240282 217 
M 597.377191 217 
L 597.562003 193.283929 
L 597.693555 199.15771 
L 597.769071 217 
M 597.888504 217 
L 597.95666 202.765833 
L 598.088212 203.692195 
L 598.220816 217 
M 598.712129 217 
L 598.745973 205.761438 
L 599.009077 216.46655 
L 599.272181 193.130091 
L 599.403733 197.206932 
L 599.543031 217 
M 599.893985 217 
L 599.929942 215.642317 
L 600.063178 217 
M 600.315256 217 
L 600.456151 204.354766 
L 600.608921 217 
M 601.189788 217 
L 601.245464 205.860412 
L 601.377016 210.38601 
L 601.440043 217 
M 601.626777 217 
L 601.771672 208.444737 
L 601.903224 208.40149 
L 601.999803 217 
M 602.368471 217 
L 602.560985 194.092512 
L 602.692537 198.191124 
L 602.955642 210.533108 
L 603.087194 211.655285 
L 603.154625 217 
M 603.588913 217 
L 603.613402 215.015782 
L 603.617629 217 
M 603.872832 217 
L 604.008059 203.394019 
L 604.139611 201.861318 
L 604.238466 217 
M 604.479868 217 
L 604.66582 195.360298 
L 604.797372 196.431154 
L 604.864259 217 
M 605.018166 217 
L 605.060476 207.572102 
L 605.192028 203.567309 
L 605.32358 212.904135 
L 605.586685 191.96394 
L 605.764655 217 
M 605.917788 217 
L 605.981341 202.141869 
L 606.130687 217 
M 606.959994 217 
L 607.033758 209.061024 
L 607.143404 217 
M 607.179874 217 
L 607.296863 204.258142 
L 607.428415 202.92236 
L 607.54429 217 
M 607.878019 217 
L 607.954623 209.286557 
L 608.037698 217 
M 609.150268 217 
L 609.270145 202.108142 
L 609.695425 217 
M 610.138141 217 
L 610.19101 204.653533 
L 610.322562 202.613753 
L 610.491155 217 
M 610.77971 217 
L 610.980323 200.314775 
L 611.243427 213.056796 
L 611.374979 201.082202 
L 611.506532 202.66196 
L 611.635492 217 
M 611.639701 217 
L 611.769636 193.847329 
L 611.901188 191.57077 
L 612.079055 217 
M 612.368447 217 
L 612.558949 185.863142 
L 612.690501 187.692894 
L 612.82336 217 
M 613.275257 217 
L 613.348262 215.046635 
L 613.384192 217 
M 613.784243 217 
L 614.006023 185.950127 
L 614.137575 186.044301 
L 614.400679 196.935371 
L 614.497126 217 
M 615.28369 217 
L 615.321544 203.866 
L 615.453096 200.810799 
L 615.563014 217 
M 615.597538 217 
L 615.716201 187.664879 
L 615.847753 191.737247 
L 615.945733 217 
M 616.302011 217 
L 616.373961 210.719733 
L 616.505514 209.620906 
L 616.768618 215.261854 
L 617.031722 195.738942 
L 617.198163 217 
M 618.366476 217 
L 618.610348 199.727359 
L 618.873804 217 
M 619.790856 217 
L 619.92587 203.249989 
L 620.092076 217 
M 620.531308 217 
L 620.715183 200.352243 
L 620.877918 217 
M 621.248651 217 
L 621.372943 195.267508 
L 621.504495 198.186828 
L 621.564901 217 
M 621.740528 217 
L 621.7676 211.258436 
L 621.824769 217 
M 622.155745 217 
L 622.162256 215.443383 
L 622.425361 206.159547 
L 622.556913 206.810598 
L 622.763326 217 
M 622.853405 217 
L 622.951569 208.755783 
L 623.083121 215.783696 
L 623.214673 206.063303 
L 623.263321 217 
M 623.891107 217 
L 624.003986 210.623547 
L 624.027894 217 
M 624.238034 217 
L 624.267091 208.860926 
L 624.398643 206.537 
L 624.530195 212.29931 
L 624.924851 189.69285 
L 625.144748 217 
M 625.233551 217 
L 625.319508 207.328581 
L 625.381424 217 
M 626.055513 217 
L 626.108821 215.290868 
L 626.127522 217 
M 626.741732 217 
L 626.766582 215.447271 
L 626.898134 214.251854 
L 626.911662 217 
M 627.127463 217 
L 627.29279 195.389216 
L 627.424342 194.678807 
L 627.555895 198.947113 
L 627.687447 213.606245 
L 627.818999 212.399158 
L 627.950551 209.467677 
L 628.012566 217 
M 628.510576 217 
L 628.608312 215.42133 
L 628.653656 217 
M 628.773822 217 
L 628.871416 208.374145 
L 628.924964 217 
M 629.079672 217 
L 629.266073 200.557594 
L 629.408587 217 
M 630.09726 217 
L 630.186938 207.357505 
L 630.232929 217 
M 630.835263 217 
L 630.844698 213.79154 
L 630.990106 217 
M 631.174474 217 
L 631.239355 210.941829 
L 631.370907 212.793162 
L 631.3883 217 
M 631.998987 217 
L 632.028668 212.116907 
L 632.16022 210.099893 
L 632.296754 217 
M 633.001363 217 
L 633.212637 196.521406 
L 633.344189 194.970152 
L 633.475742 199.548652 
L 633.590511 217 
M 633.729034 217 
L 633.738846 216.794325 
L 633.739941 217 
M 633.956059 217 
L 634.00195 203.875528 
L 634.133502 198.649267 
L 634.220017 217 
M 634.933663 217 
L 635.054367 204.652531 
L 635.130882 217 
M 635.678196 217 
L 635.84368 209.89464 
L 635.8962 217 
M 636.236501 217 
L 636.238337 216.767441 
L 636.239524 217 
M 636.84922 217 
L 636.896098 211.785882 
L 637.006583 217 
M 637.240283 217 
L 637.290754 196.65337 
L 637.422306 191.268826 
L 637.593523 217 
M 638.178024 217 
L 638.211619 214.71048 
L 638.250977 217 
M 638.769257 217 
L 638.86938 210.528668 
L 639.023256 217 
M 639.22123 217 
L 639.264036 213.242727 
L 639.367048 217 
M 640.147028 217 
L 640.184901 209.264836 
L 640.316454 212.515843 
L 640.37291 217 
M 640.723415 217 
L 640.974214 196.089658 
L 641.105767 206.973478 
L 641.368871 193.834778 
L 641.511578 217 
M 641.979961 217 
L 642.026632 208.772948 
L 642.131208 217 
M 642.399419 217 
L 642.421288 212.67995 
L 642.51258 217 
M 642.703831 217 
L 643.079049 195.642622 
L 643.342153 188.025765 
L 643.473705 195.093542 
L 643.592264 217 
M 644.279202 217 
L 644.39457 201.170952 
L 644.526123 202.173069 
L 644.657675 209.994661 
L 644.789227 209.919266 
L 644.920779 211.00839 
L 645.035512 217 
M 645.366361 217 
L 645.446988 208.887212 
L 645.57854 213.602867 
L 645.710092 212.948613 
L 645.841644 205.52245 
L 645.973196 206.24816 
L 646.104748 208.515324 
L 646.173469 217 
M 647.481453 217 
L 647.551822 204.823667 
L 647.683374 202.201298 
L 647.946479 209.359125 
L 648.010151 217 
M 648.721756 217 
L 648.735792 208.120787 
L 648.867344 197.970772 
L 649.130448 215.705963 
L 649.262 200.24711 
L 649.393552 199.427727 
L 649.656657 215.2675 
L 649.919761 201.947087 
L 649.991807 217 
M 650.542944 217 
L 650.577522 209.889678 
L 650.694721 217 
M 650.721111 217 
L 651.10373 195.63342 
L 651.235283 194.634306 
L 651.366835 195.631164 
L 651.498387 203.99267 
L 651.554079 217 
M 651.740538 217 
L 651.893043 198.673227 
L 652.024595 191.334019 
L 652.156148 199.010713 
L 652.266236 217 
M 652.867003 217 
L 652.945461 202.547723 
L 653.077013 199.564945 
L 653.198994 217 
M 653.221364 217 
L 653.340117 204.308475 
L 653.503578 217 
M 653.688643 217 
L 653.866326 200.912504 
L 653.997878 212.362616 
L 654.260982 204.850307 
L 654.379459 217 
M 654.830127 217 
L 654.918743 214.50463 
L 654.936304 217 
M 655.554203 217 
L 655.576504 210.993303 
L 655.839608 205.041932 
L 655.922628 217 
M 656.4901 217 
L 656.628921 198.995301 
L 656.760473 199.775326 
L 656.892025 202.260603 
L 657.15513 213.103183 
L 657.418234 199.221403 
L 657.549786 199.161888 
L 657.681338 206.094439 
L 657.81289 194.778837 
L 658.075995 214.717308 
L 658.207547 207.120027 
L 658.349098 217 
M 658.567469 217 
L 658.865308 191.055195 
L 658.99686 196.670905 
L 659.139875 217 
M 659.462519 217 
L 659.523068 208.750616 
L 659.684186 217 
M 660.011786 217 
L 660.049277 206.232424 
L 660.180829 202.190775 
L 660.312381 206.185648 
L 660.357469 217 
M 660.541335 217 
L 660.707038 204.78028 
L 660.820803 217 
M 660.858618 217 
L 661.101694 196.771778 
L 661.364798 185.876263 
L 661.496351 187.773444 
L 661.697744 217 
M 661.996975 217 
L 662.022559 213.678805 
L 662.056744 217 
M 662.944537 217 
L 663.338081 192.614845 
L 663.469633 195.137961 
L 663.592724 217 
M 663.944671 217 
L 664.127394 201.165996 
L 664.258946 196.67073 
L 664.52205 210.783538 
L 664.543715 217 
M 664.748631 217 
L 664.785155 204.881079 
L 664.916707 198.142662 
L 665.046375 217 
M 665.304971 217 
L 665.311363 216.510764 
L 665.313705 217 
M 666.043226 217 
L 666.232228 197.908725 
L 666.36378 200.442088 
L 666.495333 207.416207 
L 666.559562 217 
M 666.873817 217 
L 666.889989 206.377317 
L 667.021541 195.52329 
L 667.284645 200.799541 
L 667.501358 217 
M 668.425207 217 
L 668.468615 210.653708 
L 668.560085 217 
M 668.828791 217 
L 668.994823 199.073644 
L 669.094938 217 
M 669.782231 217 
L 669.915689 200.080699 
L 670.060079 217 
M 670.744933 217 
L 671.099658 196.185573 
L 671.273185 217 
M 671.727554 217 
L 672.020523 200.518347 
L 672.152075 209.265594 
L 672.283627 209.34529 
L 672.41518 199.949548 
L 672.546732 198.639354 
L 672.678284 207.748508 
L 672.809836 208.267947 
L 672.941388 205.535614 
L 673.023454 217 
M 673.130896 217 
L 673.336045 202.095571 
L 673.467597 208.893283 
L 673.599149 196.796429 
L 673.730701 202.524818 
L 673.778928 217 
M 674.095477 217 
L 674.25691 211.109614 
L 674.36193 217 
M 674.776408 217 
L 674.91467 213.726256 
L 675.046223 214.286478 
L 675.087153 217 
M 675.549075 217 
L 675.572431 216.363822 
L 675.576205 217 
M 676.473234 217 
L 676.624848 199.364926 
L 676.756401 206.503566 
L 676.811312 217 
M 676.9935 217 
L 677.019505 213.390539 
L 677.086081 217 
M 677.592297 217 
L 677.677266 211.10185 
L 677.817598 217 
M 679.196009 217 
L 679.255892 215.314421 
L 679.387444 203.462381 
L 679.518996 202.932984 
L 679.774612 217 
M 679.78489 217 
L 679.913652 205.9503 
L 680.046755 217 
M 680.271102 217 
L 680.308309 210.663168 
L 680.439861 209.489235 
L 680.49969 217 
M 680.617333 217 
L 680.702965 200.209312 
L 680.834517 201.614884 
L 680.884246 217 
M 681.045988 217 
L 681.097622 200.645017 
L 681.229174 206.561096 
L 681.326361 217 
M 681.626197 217 
L 681.755383 207.123467 
L 681.773925 217 
M 682.196283 217 
L 682.281591 211.342554 
L 682.327232 217 
M 683.28471 217 
L 683.465561 200.735054 
L 683.728665 214.869262 
L 683.860217 206.740925 
L 683.942518 217 
M 684.182458 217 
L 684.254873 201.002322 
L 684.386426 201.420587 
L 684.467035 217 
M 684.628851 217 
L 684.781082 201.132272 
L 684.912634 208.196554 
L 685.044186 202.760006 
L 685.175739 186.092963 
L 685.307291 190.430038 
L 685.438843 206.445064 
L 685.570395 204.16534 
L 685.833499 196.277675 
L 686.054054 217 
M 686.163534 217 
L 686.622812 190.238265 
L 686.788554 217 
M 687.179674 217 
L 687.280573 210.011239 
L 687.319049 217 
M 687.800331 217 
L 688.069886 194.660763 
L 688.33299 214.618463 
L 688.464542 197.612188 
L 688.596095 199.49113 
L 688.727647 207.363831 
L 688.859199 204.791217 
L 689.122303 196.667753 
L 689.253855 199.765673 
L 689.385408 208.112317 
L 689.51696 208.1797 
L 689.648512 208.480187 
L 689.780064 203.602289 
L 689.911616 203.522674 
L 690.018267 217 
M 690.29875 217 
L 690.437825 202.363839 
L 690.700929 209.214413 
L 690.790319 217 
M 690.932102 217 
L 690.964033 215.822934 
L 690.976557 217 
M 691.592852 217 
L 691.621794 212.629048 
L 691.64514 217 
M 691.872072 217 
L 691.884898 214.811231 
L 692.016451 212.159282 
L 692.058754 217 
M 692.217841 217 
L 692.411107 203.52152 
L 692.454635 217 
M 692.648425 217 
L 692.674211 210.354732 
L 692.805764 213.411106 
L 692.832568 217 
M 692.995924 217 
L 693.068868 199.544256 
L 693.20042 197.933605 
L 693.387174 217 
M 694.072727 217 
L 694.252837 197.671838 
L 694.384389 195.157311 
L 694.495307 217 
M 694.708865 217 
L 694.779046 210.535772 
L 694.910598 211.500162 
L 695.04215 208.885931 
L 695.173702 214.75327 
L 695.305255 211.411964 
L 695.436807 200.331871 
L 695.568359 201.070609 
L 695.64788 217 
M 695.798949 217 
L 695.963015 207.859946 
L 696.094567 210.224015 
L 696.167267 217 
L 696.167267 217 
" style="fill:none;stroke:#0000ff;stroke-linecap:square;stroke-width:1.5;"/>
   </g>
   <g id="patch_3">
    <path d="M 38.86 188.12 
L 38.86 25.44 
" style="fill:none;stroke:#000000;stroke-linecap:square;stroke-linejoin:miter;stroke-width:0.8;"/>
   </g>
   <g id="patch_4">
    <path d="M 696.555 188.12 
L 696.555 25.44 
" style="fill:none;stroke:#000000;stroke-linecap:square;stroke-linejoin:miter;stroke-width:0.8;"/>
   </g>
   <g id="patch_5">
    <path d="M 38.86 188.12 
L 696.555 188.12 
" style="fill:none;stroke:#000000;stroke-linecap:square;stroke-linejoin:miter;stroke-width:0.8;"/>
   </g>
   <g id="patch_6">
    <path d="M 38.86 25.44 
L 696.555 25.44 
" style="fill:none;stroke:#000000;stroke-linecap:square;stroke-linejoin:miter;stroke-width:0.8;"/>
   </g>
   <g id="text_13">
    <!-- Original Signal - No Decimation -->
    <defs>
     <path d="M 39.40625 66.21875 
Q 28.65625 66.21875 22.328125 58.203125 
Q 16.015625 50.203125 16.015625 36.375 
Q 16.015625 22.609375 22.328125 14.59375 
Q 28.65625 6.59375 39.40625 6.59375 
Q 50.140625 6.59375 56.421875 14.59375 
Q 62.703125 22.609375 62.703125 36.375 
Q 62.703125 50.203125 56.421875 58.203125 
Q 50.140625 66.21875 39.40625 66.21875 
z
M 39.40625 74.21875 
Q 54.734375 74.21875 63.90625 63.9375 
Q 73.09375 53.65625 73.09375 36.375 
Q 73.09375 19.140625 63.90625 8.859375 
Q 54.734375 -1.421875 39.40625 -1.421875 
Q 24.03125 -1.421875 14.8125 8.828125 
Q 5.609375 19.09375 5.609375 36.375 
Q 5.609375 53.65625 14.8125 63.9375 
Q 24.03125 74.21875 39.40625 74.21875 
z
" id="DejaVuSans-79"/>
     <path d="M 41.109375 46.296875 
Q 39.59375 47.171875 37.8125 47.578125 
Q 36.03125 48 33.890625 48 
Q 26.265625 48 22.1875 43.046875 
Q 18.109375 38.09375 18.109375 28.8125 
L 18.109375 0 
L 9.078125 0 
L 9.078125 54.6875 
L 18.109375 54.6875 
L 18.109375 46.1875 
Q 20.953125 51.171875 25.484375 53.578125 
Q 30.03125 56 36.53125 56 
Q 37.453125 56 38.578125 55.875 
Q 39.703125 55.765625 41.0625 55.515625 
z
" id="DejaVuSans-114"/>
     <path d="M 9.421875 54.6875 
L 18.40625 54.6875 
L 18.40625 0 
L 9.421875 0 
z
M 9.421875 75.984375 
L 18.40625 75.984375 
L 18.40625 64.59375 
L 9.421875 64.59375 
z
" id="DejaVuSans-105"/>
     <path d="M 45.40625 27.984375 
Q 45.40625 37.75 41.375 43.109375 
Q 37.359375 48.484375 30.078125 48.484375 
Q 22.859375 48.484375 18.828125 43.109375 
Q 14.796875 37.75 14.796875 27.984375 
Q 14.796875 18.265625 18.828125 12.890625 
Q 22.859375 7.515625 30.078125 7.515625 
Q 37.359375 7.515625 41.375 12.890625 
Q 45.40625 18.265625 45.40625 27.984375 
z
M 54.390625 6.78125 
Q 54.390625 -7.171875 48.1875 -13.984375 
Q 42 -20.796875 29.203125 -20.796875 
Q 24.46875 -20.796875 20.265625 -20.09375 
Q 16.0625 -19.390625 12.109375 -17.921875 
L 12.109375 -9.1875 
Q 16.0625 -11.328125 19.921875 -12.34375 
Q 23.78125 -13.375 27.78125 -13.375 
Q 36.625 -13.375 41.015625 -8.765625 
Q 45.40625 -4.15625 45.40625 5.171875 
L 45.40625 9.625 
Q 42.625 4.78125 38.28125 2.390625 
Q 33.9375 0 27.875 0 
Q 17.828125 0 11.671875 7.65625 
Q 5.515625 15.328125 5.515625 27.984375 
Q 5.515625 40.671875 11.671875 48.328125 
Q 17.828125 56 27.875 56 
Q 33.9375 56 38.28125 53.609375 
Q 42.625 51.21875 45.40625 46.390625 
L 45.40625 54.6875 
L 54.390625 54.6875 
z
" id="DejaVuSans-103"/>
     <path d="M 54.890625 33.015625 
L 54.890625 0 
L 45.90625 0 
L 45.90625 32.71875 
Q 45.90625 40.484375 42.875 44.328125 
Q 39.84375 48.1875 33.796875 48.1875 
Q 26.515625 48.1875 22.3125 43.546875 
Q 18.109375 38.921875 18.109375 30.90625 
L 18.109375 0 
L 9.078125 0 
L 9.078125 54.6875 
L 18.109375 54.6875 
L 18.109375 46.1875 
Q 21.34375 51.125 25.703125 53.5625 
Q 30.078125 56 35.796875 56 
Q 45.21875 56 50.046875 50.171875 
Q 54.890625 44.34375 54.890625 33.015625 
z
" id="DejaVuSans-110"/>
     <path d="M 34.28125 27.484375 
Q 23.390625 27.484375 19.1875 25 
Q 14.984375 22.515625 14.984375 16.5 
Q 14.984375 11.71875 18.140625 8.90625 
Q 21.296875 6.109375 26.703125 6.109375 
Q 34.1875 6.109375 38.703125 11.40625 
Q 43.21875 16.703125 43.21875 25.484375 
L 43.21875 27.484375 
z
M 52.203125 31.203125 
L 52.203125 0 
L 43.21875 0 
L 43.21875 8.296875 
Q 40.140625 3.328125 35.546875 0.953125 
Q 30.953125 -1.421875 24.3125 -1.421875 
Q 15.921875 -1.421875 10.953125 3.296875 
Q 6 8.015625 6 15.921875 
Q 6 25.140625 12.171875 29.828125 
Q 18.359375 34.515625 30.609375 34.515625 
L 43.21875 34.515625 
L 43.21875 35.40625 
Q 43.21875 41.609375 39.140625 45 
Q 35.0625 48.390625 27.6875 48.390625 
Q 23 48.390625 18.546875 47.265625 
Q 14.109375 46.140625 10.015625 43.890625 
L 10.015625 52.203125 
Q 14.9375 54.109375 19.578125 55.046875 
Q 24.21875 56 28.609375 56 
Q 40.484375 56 46.34375 49.84375 
Q 52.203125 43.703125 52.203125 31.203125 
z
" id="DejaVuSans-97"/>
     <path d="M 9.421875 75.984375 
L 18.40625 75.984375 
L 18.40625 0 
L 9.421875 0 
z
" id="DejaVuSans-108"/>
     <path id="DejaVuSans-32"/>
     <path d="M 53.515625 70.515625 
L 53.515625 60.890625 
Q 47.90625 63.578125 42.921875 64.890625 
Q 37.9375 66.21875 33.296875 66.21875 
Q 25.25 66.21875 20.875 63.09375 
Q 16.5 59.96875 16.5 54.203125 
Q 16.5 49.359375 19.40625 46.890625 
Q 22.3125 44.4375 30.421875 42.921875 
L 36.375 41.703125 
Q 47.40625 39.59375 52.65625 34.296875 
Q 57.90625 29 57.90625 20.125 
Q 57.90625 9.515625 50.796875 4.046875 
Q 43.703125 -1.421875 29.984375 -1.421875 
Q 24.8125 -1.421875 18.96875 -0.25 
Q 13.140625 0.921875 6.890625 3.21875 
L 6.890625 13.375 
Q 12.890625 10.015625 18.65625 8.296875 
Q 24.421875 6.59375 29.984375 6.59375 
Q 38.421875 6.59375 43.015625 9.90625 
Q 47.609375 13.234375 47.609375 19.390625 
Q 47.609375 24.75 44.3125 27.78125 
Q 41.015625 30.8125 33.5 32.328125 
L 27.484375 33.5 
Q 16.453125 35.6875 11.515625 40.375 
Q 6.59375 45.0625 6.59375 53.421875 
Q 6.59375 63.09375 13.40625 68.65625 
Q 20.21875 74.21875 32.171875 74.21875 
Q 37.3125 74.21875 42.625 73.28125 
Q 47.953125 72.359375 53.515625 70.515625 
z
" id="DejaVuSans-83"/>
     <path d="M 4.890625 31.390625 
L 31.203125 31.390625 
L 31.203125 23.390625 
L 4.890625 23.390625 
z
" id="DejaVuSans-45"/>
     <path d="M 9.8125 72.90625 
L 23.09375 72.90625 
L 55.421875 11.921875 
L 55.421875 72.90625 
L 64.984375 72.90625 
L 64.984375 0 
L 51.703125 0 
L 19.390625 60.984375 
L 19.390625 0 
L 9.8125 0 
z
" id="DejaVuSans-78"/>
     <path d="M 30.609375 48.390625 
Q 23.390625 48.390625 19.1875 42.75 
Q 14.984375 37.109375 14.984375 27.296875 
Q 14.984375 17.484375 19.15625 11.84375 
Q 23.34375 6.203125 30.609375 6.203125 
Q 37.796875 6.203125 41.984375 11.859375 
Q 46.1875 17.53125 46.1875 27.296875 
Q 46.1875 37.015625 41.984375 42.703125 
Q 37.796875 48.390625 30.609375 48.390625 
z
M 30.609375 56 
Q 42.328125 56 49.015625 48.375 
Q 55.71875 40.765625 55.71875 27.296875 
Q 55.71875 13.875 49.015625 6.21875 
Q 42.328125 -1.421875 30.609375 -1.421875 
Q 18.84375 -1.421875 12.171875 6.21875 
Q 5.515625 13.875 5.515625 27.296875 
Q 5.515625 40.765625 12.171875 48.375 
Q 18.84375 56 30.609375 56 
z
" id="DejaVuSans-111"/>
     <path d="M 19.671875 64.796875 
L 19.671875 8.109375 
L 31.59375 8.109375 
Q 46.6875 8.109375 53.6875 14.9375 
Q 60.6875 21.78125 60.6875 36.53125 
Q 60.6875 51.171875 53.6875 57.984375 
Q 46.6875 64.796875 31.59375 64.796875 
z
M 9.8125 72.90625 
L 30.078125 72.90625 
Q 51.265625 72.90625 61.171875 64.09375 
Q 71.09375 55.28125 71.09375 36.53125 
Q 71.09375 17.671875 61.125 8.828125 
Q 51.171875 0 30.078125 0 
L 9.8125 0 
z
" id="DejaVuSans-68"/>
     <path d="M 56.203125 29.59375 
L 56.203125 25.203125 
L 14.890625 25.203125 
Q 15.484375 15.921875 20.484375 11.0625 
Q 25.484375 6.203125 34.421875 6.203125 
Q 39.59375 6.203125 44.453125 7.46875 
Q 49.3125 8.734375 54.109375 11.28125 
L 54.109375 2.78125 
Q 49.265625 0.734375 44.1875 -0.34375 
Q 39.109375 -1.421875 33.890625 -1.421875 
Q 20.796875 -1.421875 13.15625 6.1875 
Q 5.515625 13.8125 5.515625 26.8125 
Q 5.515625 40.234375 12.765625 48.109375 
Q 20.015625 56 32.328125 56 
Q 43.359375 56 49.78125 48.890625 
Q 56.203125 41.796875 56.203125 29.59375 
z
M 47.21875 32.234375 
Q 47.125 39.59375 43.09375 43.984375 
Q 39.0625 48.390625 32.421875 48.390625 
Q 24.90625 48.390625 20.390625 44.140625 
Q 15.875 39.890625 15.1875 32.171875 
z
" id="DejaVuSans-101"/>
     <path d="M 48.78125 52.59375 
L 48.78125 44.1875 
Q 44.96875 46.296875 41.140625 47.34375 
Q 37.3125 48.390625 33.40625 48.390625 
Q 24.65625 48.390625 19.8125 42.84375 
Q 14.984375 37.3125 14.984375 27.296875 
Q 14.984375 17.28125 19.8125 11.734375 
Q 24.65625 6.203125 33.40625 6.203125 
Q 37.3125 6.203125 41.140625 7.25 
Q 44.96875 8.296875 48.78125 10.40625 
L 48.78125 2.09375 
Q 45.015625 0.34375 40.984375 -0.53125 
Q 36.96875 -1.421875 32.421875 -1.421875 
Q 20.0625 -1.421875 12.78125 6.34375 
Q 5.515625 14.109375 5.515625 27.296875 
Q 5.515625 40.671875 12.859375 48.328125 
Q 20.21875 56 33.015625 56 
Q 37.15625 56 41.109375 55.140625 
Q 45.0625 54.296875 48.78125 52.59375 
z
" id="DejaVuSans-99"/>
     <path d="M 52 44.1875 
Q 55.375 50.25 60.0625 53.125 
Q 64.75 56 71.09375 56 
Q 79.640625 56 84.28125 50.015625 
Q 88.921875 44.046875 88.921875 33.015625 
L 88.921875 0 
L 79.890625 0 
L 79.890625 32.71875 
Q 79.890625 40.578125 77.09375 44.375 
Q 74.3125 48.1875 68.609375 48.1875 
Q 61.625 48.1875 57.5625 43.546875 
Q 53.515625 38.921875 53.515625 30.90625 
L 53.515625 0 
L 44.484375 0 
L 44.484375 32.71875 
Q 44.484375 40.625 41.703125 44.40625 
Q 38.921875 48.1875 33.109375 48.1875 
Q 26.21875 48.1875 22.15625 43.53125 
Q 18.109375 38.875 18.109375 30.90625 
L 18.109375 0 
L 9.078125 0 
L 9.078125 54.6875 
L 18.109375 54.6875 
L 18.109375 46.1875 
Q 21.1875 51.21875 25.484375 53.609375 
Q 29.78125 56 35.6875 56 
Q 41.65625 56 45.828125 52.96875 
Q 50 49.953125 52 44.1875 
z
" id="DejaVuSans-109"/>
     <path d="M 18.3125 70.21875 
L 18.3125 54.6875 
L 36.8125 54.6875 
L 36.8125 47.703125 
L 18.3125 47.703125 
L 18.3125 18.015625 
Q 18.3125 11.328125 20.140625 9.421875 
Q 21.96875 7.515625 27.59375 7.515625 
L 36.8125 7.515625 
L 36.8125 0 
L 27.59375 0 
Q 17.1875 0 13.234375 3.875 
Q 9.28125 7.765625 9.28125 18.015625 
L 9.28125 47.703125 
L 2.6875 47.703125 
L 2.6875 54.6875 
L 9.28125 54.6875 
L 9.28125 70.21875 
z
" id="DejaVuSans-116"/>
    </defs>
    <g transform="translate(273.553437 19.44)scale(0.12 -0.12)">
     <use xlink:href="#DejaVuSans-79"/>
     <use x="78.710938" xlink:href="#DejaVuSans-114"/>
     <use x="119.824219" xlink:href="#DejaVuSans-105"/>
     <use x="147.607422" xlink:href="#DejaVuSans-103"/>
     <use x="211.083984" xlink:href="#DejaVuSans-105"/>
     <use x="238.867188" xlink:href="#DejaVuSans-110"/>
     <use x="302.246094" xlink:href="#DejaVuSans-97"/>
     <use x="363.525391" xlink:href="#DejaVuSans-108"/>
     <use x="391.308594" xlink:href="#DejaVuSans-32"/>
     <use x="423.095703" xlink:href="#DejaVuSans-83"/>
     <use x="486.572266" xlink:href="#DejaVuSans-105"/>
     <use x="514.355469" xlink:href="#DejaVuSans-103"/>
     <use x="577.832031" xlink:href="#DejaVuSans-110"/>
     <use x="641.210938" xlink:href="#DejaVuSans-97"/>
     <use x="702.490234" xlink:href="#DejaVuSans-108"/>
     <use x="730.273438" xlink:href="#DejaVuSans-32"/>
     <use x="762.060547" xlink:href="#DejaVuSans-45"/>
     <use x="798.144531" xlink:href="#DejaVuSans-32"/>
     <use x="829.931641" xlink:href="#DejaVuSans-78"/>
     <use x="904.736328" xlink:href="#DejaVuSans-111"/>
     <use x="965.917969" xlink:href="#DejaVuSans-32"/>
     <use x="997.705078" xlink:href="#DejaVuSans-68"/>
     <use x="1074.707031" xlink:href="#DejaVuSans-101"/>
     <use x="1136.230469" xlink:href="#DejaVuSans-99"/>
     <use x="1191.210938" xlink:href="#DejaVuSans-105"/>
     <use x="1218.994141" xlink:href="#DejaVuSans-109"/>
     <use x="1316.40625" xlink:href="#DejaVuSans-97"/>
     <use x="1377.685547" xlink:href="#DejaVuSans-116"/>
     <use x="1416.894531" xlink:href="#DejaVuSans-105"/>
     <use x="1444.677734" xlink:href="#DejaVuSans-111"/>
     <use x="1505.859375" xlink:href="#DejaVuSans-110"/>
    </g>
   </g>
  </g>
 </g>
 <defs>
  <clipPath id="p133037aecc">
   <rect height="162.68" width="657.695" x="38.86" y="25.44"/>
  </clipPath>
 </defs>
</svg>
