<?xml version="1.0" encoding="UTF-8"?>
<!DOCTYPE svg PUBLIC "-//W3C//DTD SVG 1.1//EN" "http://www.w3.org/Graphics/SVG/1.1/DTD/svg11.dtd">
<svg xmlns="http://www.w3.org/2000/svg" xmlns:xlink="http://www.w3.org/1999/xlink" version="1.1" width="934px" height="307px" viewBox="-0.5 -0.5 934 307" style="background-color: rgb(255, 255, 255);"><defs/><g><path d="M 465 105 L 465 24.55" fill="none" stroke="rgb(0, 0, 0)" stroke-width="1.5" stroke-miterlimit="10" pointer-events="stroke"/><path d="M 465 16.68 L 470.25 27.18 L 465 24.55 L 459.75 27.18 Z" fill="rgb(0, 0, 0)" stroke="rgb(0, 0, 0)" stroke-width="1.5" stroke-miterlimit="10" pointer-events="all"/><path d="M 465 105 L 480 45 L 570 45 L 585 105 Z" fill="rgb(255, 255, 255)" stroke="rgb(0, 0, 0)" stroke-width="1.5" stroke-miterlimit="10" pointer-events="all"/><g transform="translate(-0.5 -0.5)scale(1.5)"><switch><foreignObject pointer-events="none" width="100%" height="100%" requiredFeatures="http://www.w3.org/TR/SVG11/feature#Extensibility" style="overflow: visible; text-align: left;"><div xmlns="http://www.w3.org/1999/xhtml" style="display: flex; align-items: unsafe center; justify-content: unsafe center; width: 78px; height: 1px; padding-top: 50px; margin-left: 311px;"><div data-drawio-colors="color: rgb(0, 0, 0); " style="box-sizing: border-box; font-size: 0px; text-align: center;"><div style="display: inline-block; font-size: 12px; font-family: Helvetica; color: rgb(0, 0, 0); line-height: 1.2; pointer-events: all; white-space: normal; overflow-wrap: normal;">0</div></div></div></foreignObject><text x="350" y="54" fill="rgb(0, 0, 0)" font-family="Helvetica" font-size="12px" text-anchor="middle">0</text></switch></g><path d="M 585 105 L 600 45 L 690 45 L 705 105 Z" fill="rgb(255, 255, 255)" stroke="rgb(0, 0, 0)" stroke-width="1.5" stroke-miterlimit="10" pointer-events="all"/><g transform="translate(-0.5 -0.5)scale(1.5)"><switch><foreignObject pointer-events="none" width="100%" height="100%" requiredFeatures="http://www.w3.org/TR/SVG11/feature#Extensibility" style="overflow: visible; text-align: left;"><div xmlns="http://www.w3.org/1999/xhtml" style="display: flex; align-items: unsafe center; justify-content: unsafe center; width: 78px; height: 1px; padding-top: 50px; margin-left: 391px;"><div data-drawio-colors="color: rgb(0, 0, 0); " style="box-sizing: border-box; font-size: 0px; text-align: center;"><div style="display: inline-block; font-size: 12px; font-family: Helvetica; color: rgb(0, 0, 0); line-height: 1.2; pointer-events: all; white-space: normal; overflow-wrap: normal;">1</div></div></div></foreignObject><text x="430" y="54" fill="rgb(0, 0, 0)" font-family="Helvetica" font-size="12px" text-anchor="middle">1</text></switch></g><path d="M 705 105 L 720 45 L 810 45 L 825 105 Z" fill="rgb(255, 255, 255)" stroke="rgb(0, 0, 0)" stroke-width="1.5" stroke-miterlimit="10" pointer-events="all"/><g transform="translate(-0.5 -0.5)scale(1.5)"><switch><foreignObject pointer-events="none" width="100%" height="100%" requiredFeatures="http://www.w3.org/TR/SVG11/feature#Extensibility" style="overflow: visible; text-align: left;"><div xmlns="http://www.w3.org/1999/xhtml" style="display: flex; align-items: unsafe center; justify-content: unsafe center; width: 78px; height: 1px; padding-top: 50px; margin-left: 471px;"><div data-drawio-colors="color: rgb(0, 0, 0); " style="box-sizing: border-box; font-size: 0px; text-align: center;"><div style="display: inline-block; font-size: 12px; font-family: Helvetica; color: rgb(0, 0, 0); line-height: 1.2; pointer-events: all; white-space: normal; overflow-wrap: normal;">2</div></div></div></foreignObject><text x="510" y="54" fill="rgb(0, 0, 0)" font-family="Helvetica" font-size="12px" text-anchor="middle">2</text></switch></g><path d="M 345 105 L 360 45 L 450 45 L 465 105 Z" fill="rgb(255, 255, 255)" stroke="rgb(0, 0, 0)" stroke-width="1.5" stroke-miterlimit="10" pointer-events="all"/><g transform="translate(-0.5 -0.5)scale(1.5)"><switch><foreignObject pointer-events="none" width="100%" height="100%" requiredFeatures="http://www.w3.org/TR/SVG11/feature#Extensibility" style="overflow: visible; text-align: left;"><div xmlns="http://www.w3.org/1999/xhtml" style="display: flex; align-items: unsafe center; justify-content: unsafe center; width: 78px; height: 1px; padding-top: 50px; margin-left: 231px;"><div data-drawio-colors="color: rgb(0, 0, 0); " style="box-sizing: border-box; font-size: 0px; text-align: center;"><div style="display: inline-block; font-size: 12px; font-family: Helvetica; color: rgb(0, 0, 0); line-height: 1.2; pointer-events: all; white-space: normal; overflow-wrap: normal;">6</div></div></div></foreignObject><text x="270" y="54" fill="rgb(0, 0, 0)" font-family="Helvetica" font-size="12px" text-anchor="middle">6</text></switch></g><path d="M 225 105 L 240 45 L 330 45 L 345 105 Z" fill="rgb(255, 255, 255)" stroke="rgb(0, 0, 0)" stroke-width="1.5" stroke-miterlimit="10" pointer-events="all"/><g transform="translate(-0.5 -0.5)scale(1.5)"><switch><foreignObject pointer-events="none" width="100%" height="100%" requiredFeatures="http://www.w3.org/TR/SVG11/feature#Extensibility" style="overflow: visible; text-align: left;"><div xmlns="http://www.w3.org/1999/xhtml" style="display: flex; align-items: unsafe center; justify-content: unsafe center; width: 78px; height: 1px; padding-top: 50px; margin-left: 151px;"><div data-drawio-colors="color: rgb(0, 0, 0); " style="box-sizing: border-box; font-size: 0px; text-align: center;"><div style="display: inline-block; font-size: 12px; font-family: Helvetica; color: rgb(0, 0, 0); line-height: 1.2; pointer-events: all; white-space: normal; overflow-wrap: normal;">5</div></div></div></foreignObject><text x="190" y="54" fill="rgb(0, 0, 0)" font-family="Helvetica" font-size="12px" text-anchor="middle">5</text></switch></g><path d="M 105 105 L 120 45 L 210 45 L 225 105 Z" fill="rgb(255, 255, 255)" stroke="rgb(0, 0, 0)" stroke-width="1.5" stroke-miterlimit="10" pointer-events="all"/><g transform="translate(-0.5 -0.5)scale(1.5)"><switch><foreignObject pointer-events="none" width="100%" height="100%" requiredFeatures="http://www.w3.org/TR/SVG11/feature#Extensibility" style="overflow: visible; text-align: left;"><div xmlns="http://www.w3.org/1999/xhtml" style="display: flex; align-items: unsafe center; justify-content: unsafe center; width: 78px; height: 1px; padding-top: 50px; margin-left: 71px;"><div data-drawio-colors="color: rgb(0, 0, 0); " style="box-sizing: border-box; font-size: 0px; text-align: center;"><div style="display: inline-block; font-size: 12px; font-family: Helvetica; color: rgb(0, 0, 0); line-height: 1.2; pointer-events: all; white-space: normal; overflow-wrap: normal;">4</div></div></div></foreignObject><text x="110" y="54" fill="rgb(0, 0, 0)" font-family="Helvetica" font-size="12px" text-anchor="middle">4</text></switch></g><path d="M 465 255 L 465 174.55" fill="none" stroke="rgb(0, 0, 0)" stroke-width="1.5" stroke-miterlimit="10" pointer-events="stroke"/><path d="M 465 166.68 L 470.25 177.18 L 465 174.55 L 459.75 177.18 Z" fill="rgb(0, 0, 0)" stroke="rgb(0, 0, 0)" stroke-width="1.5" stroke-miterlimit="10" pointer-events="all"/><path d="M 45 255 L 60 195 L 150 195 L 165 255 Z" fill="rgb(255, 255, 255)" stroke="rgb(0, 0, 0)" stroke-width="1.5" stroke-miterlimit="10" pointer-events="all"/><g transform="translate(-0.5 -0.5)scale(1.5)"><switch><foreignObject pointer-events="none" width="100%" height="100%" requiredFeatures="http://www.w3.org/TR/SVG11/feature#Extensibility" style="overflow: visible; text-align: left;"><div xmlns="http://www.w3.org/1999/xhtml" style="display: flex; align-items: unsafe center; justify-content: unsafe center; width: 78px; height: 1px; padding-top: 150px; margin-left: 31px;"><div data-drawio-colors="color: rgb(0, 0, 0); " style="box-sizing: border-box; font-size: 0px; text-align: center;"><div style="display: inline-block; font-size: 12px; font-family: Helvetica; color: rgb(0, 0, 0); line-height: 1.2; pointer-events: all; white-space: normal; overflow-wrap: normal;">0</div></div></div></foreignObject><text x="70" y="154" fill="rgb(0, 0, 0)" font-family="Helvetica" font-size="12px" text-anchor="middle">0</text></switch></g><path d="M 285 255 L 300 195 L 390 195 L 405 255 Z" fill="rgb(255, 255, 255)" stroke="rgb(0, 0, 0)" stroke-width="1.5" stroke-miterlimit="10" pointer-events="all"/><g transform="translate(-0.5 -0.5)scale(1.5)"><switch><foreignObject pointer-events="none" width="100%" height="100%" requiredFeatures="http://www.w3.org/TR/SVG11/feature#Extensibility" style="overflow: visible; text-align: left;"><div xmlns="http://www.w3.org/1999/xhtml" style="display: flex; align-items: unsafe center; justify-content: unsafe center; width: 78px; height: 1px; padding-top: 150px; margin-left: 191px;"><div data-drawio-colors="color: rgb(0, 0, 0); " style="box-sizing: border-box; font-size: 0px; text-align: center;"><div style="display: inline-block; font-size: 12px; font-family: Helvetica; color: rgb(0, 0, 0); line-height: 1.2; pointer-events: all; white-space: normal; overflow-wrap: normal;">2</div></div></div></foreignObject><text x="230" y="154" fill="rgb(0, 0, 0)" font-family="Helvetica" font-size="12px" text-anchor="middle">2</text></switch></g><path d="M 645 255 L 660 195 L 750 195 L 765 255 Z" fill="rgb(255, 255, 255)" stroke="rgb(0, 0, 0)" stroke-width="1.5" stroke-miterlimit="10" pointer-events="all"/><g transform="translate(-0.5 -0.5)scale(1.5)"><switch><foreignObject pointer-events="none" width="100%" height="100%" requiredFeatures="http://www.w3.org/TR/SVG11/feature#Extensibility" style="overflow: visible; text-align: left;"><div xmlns="http://www.w3.org/1999/xhtml" style="display: flex; align-items: unsafe center; justify-content: unsafe center; width: 78px; height: 1px; padding-top: 150px; margin-left: 431px;"><div data-drawio-colors="color: rgb(0, 0, 0); " style="box-sizing: border-box; font-size: 0px; text-align: center;"><div style="display: inline-block; font-size: 12px; font-family: Helvetica; color: rgb(0, 0, 0); line-height: 1.2; pointer-events: all; white-space: normal; overflow-wrap: normal;">5</div></div></div></foreignObject><text x="470" y="154" fill="rgb(0, 0, 0)" font-family="Helvetica" font-size="12px" text-anchor="middle">5</text></switch></g><path d="M 525 255 L 540 195 L 630 195 L 645 255 Z" fill="rgb(255, 255, 255)" stroke="rgb(0, 0, 0)" stroke-width="1.5" stroke-miterlimit="10" pointer-events="all"/><g transform="translate(-0.5 -0.5)scale(1.5)"><switch><foreignObject pointer-events="none" width="100%" height="100%" requiredFeatures="http://www.w3.org/TR/SVG11/feature#Extensibility" style="overflow: visible; text-align: left;"><div xmlns="http://www.w3.org/1999/xhtml" style="display: flex; align-items: unsafe center; justify-content: unsafe center; width: 78px; height: 1px; padding-top: 150px; margin-left: 351px;"><div data-drawio-colors="color: rgb(0, 0, 0); " style="box-sizing: border-box; font-size: 0px; text-align: center;"><div style="display: inline-block; font-size: 12px; font-family: Helvetica; color: rgb(0, 0, 0); line-height: 1.2; pointer-events: all; white-space: normal; overflow-wrap: normal;">4</div></div></div></foreignObject><text x="390" y="154" fill="rgb(0, 0, 0)" font-family="Helvetica" font-size="12px" text-anchor="middle">4</text></switch></g><path d="M 405 255 L 420 195 L 510 195 L 525 255 Z" fill="rgb(255, 255, 255)" stroke="rgb(0, 0, 0)" stroke-width="1.5" stroke-miterlimit="10" pointer-events="all"/><g transform="translate(-0.5 -0.5)scale(1.5)"><switch><foreignObject pointer-events="none" width="100%" height="100%" requiredFeatures="http://www.w3.org/TR/SVG11/feature#Extensibility" style="overflow: visible; text-align: left;"><div xmlns="http://www.w3.org/1999/xhtml" style="display: flex; align-items: unsafe center; justify-content: unsafe center; width: 78px; height: 1px; padding-top: 150px; margin-left: 271px;"><div data-drawio-colors="color: rgb(0, 0, 0); " style="box-sizing: border-box; font-size: 0px; text-align: center;"><div style="display: inline-block; font-size: 12px; font-family: Helvetica; color: rgb(0, 0, 0); line-height: 1.2; pointer-events: all; white-space: normal; overflow-wrap: normal;">3</div></div></div></foreignObject><text x="310" y="154" fill="rgb(0, 0, 0)" font-family="Helvetica" font-size="12px" text-anchor="middle">3</text></switch></g><path d="M 15 105 L 905.45 105" fill="none" stroke="rgb(0, 0, 0)" stroke-width="1.5" stroke-miterlimit="10" pointer-events="stroke"/><path d="M 913.32 105 L 902.82 110.25 L 905.45 105 L 902.82 99.75 Z" fill="rgb(0, 0, 0)" stroke="rgb(0, 0, 0)" stroke-width="1.5" stroke-miterlimit="10" pointer-events="all"/><path d="M 15 255 L 905.45 255" fill="none" stroke="rgb(0, 0, 0)" stroke-width="1.5" stroke-miterlimit="10" pointer-events="stroke"/><path d="M 913.32 255 L 902.82 260.25 L 905.45 255 L 902.82 249.75 Z" fill="rgb(0, 0, 0)" stroke="rgb(0, 0, 0)" stroke-width="1.5" stroke-miterlimit="10" pointer-events="all"/><path d="M 435 120 L 773.62 184.22" fill="none" stroke="rgb(0, 0, 0)" stroke-width="1.5" stroke-miterlimit="10" stroke-dasharray="4.5 4.5" pointer-events="stroke"/><path d="M 781.35 185.69 L 770.06 188.89 L 773.62 184.22 L 772.01 178.57 Z" fill="rgb(0, 0, 0)" stroke="rgb(0, 0, 0)" stroke-width="1.5" stroke-miterlimit="10" pointer-events="all"/><rect x="435" y="255" width="60" height="45" fill="none" stroke="none" pointer-events="all"/><g transform="translate(-0.5 -0.5)scale(1.5)"><switch><foreignObject pointer-events="none" width="100%" height="100%" requiredFeatures="http://www.w3.org/TR/SVG11/feature#Extensibility" style="overflow: visible; text-align: left;"><div xmlns="http://www.w3.org/1999/xhtml" style="display: flex; align-items: unsafe center; justify-content: unsafe center; width: 38px; height: 1px; padding-top: 185px; margin-left: 291px;"><div data-drawio-colors="color: rgb(0, 0, 0); " style="box-sizing: border-box; font-size: 0px; text-align: center;"><div style="display: inline-block; font-size: 12px; font-family: Helvetica; color: rgb(0, 0, 0); line-height: 1.2; pointer-events: all; white-space: normal; overflow-wrap: normal;">0</div></div></div></foreignObject><text x="310" y="189" fill="rgb(0, 0, 0)" font-family="Helvetica" font-size="12px" text-anchor="middle">0</text></switch></g><rect x="555" y="255" width="60" height="45" fill="none" stroke="none" pointer-events="all"/><g transform="translate(-0.5 -0.5)scale(1.5)"><switch><foreignObject pointer-events="none" width="100%" height="100%" requiredFeatures="http://www.w3.org/TR/SVG11/feature#Extensibility" style="overflow: visible; text-align: left;"><div xmlns="http://www.w3.org/1999/xhtml" style="display: flex; align-items: unsafe center; justify-content: unsafe center; width: 38px; height: 1px; padding-top: 185px; margin-left: 371px;"><div data-drawio-colors="color: rgb(0, 0, 0); " style="box-sizing: border-box; font-size: 0px; text-align: center;"><div style="display: inline-block; font-size: 12px; font-family: Helvetica; color: rgb(0, 0, 0); line-height: 1.2; pointer-events: all; white-space: normal; overflow-wrap: normal;">1</div></div></div></foreignObject><text x="390" y="189" fill="rgb(0, 0, 0)" font-family="Helvetica" font-size="12px" text-anchor="middle">1</text></switch></g><rect x="675" y="255" width="60" height="45" fill="none" stroke="none" pointer-events="all"/><g transform="translate(-0.5 -0.5)scale(1.5)"><switch><foreignObject pointer-events="none" width="100%" height="100%" requiredFeatures="http://www.w3.org/TR/SVG11/feature#Extensibility" style="overflow: visible; text-align: left;"><div xmlns="http://www.w3.org/1999/xhtml" style="display: flex; align-items: unsafe center; justify-content: unsafe center; width: 38px; height: 1px; padding-top: 185px; margin-left: 451px;"><div data-drawio-colors="color: rgb(0, 0, 0); " style="box-sizing: border-box; font-size: 0px; text-align: center;"><div style="display: inline-block; font-size: 12px; font-family: Helvetica; color: rgb(0, 0, 0); line-height: 1.2; pointer-events: all; white-space: normal; overflow-wrap: normal;">2</div></div></div></foreignObject><text x="470" y="189" fill="rgb(0, 0, 0)" font-family="Helvetica" font-size="12px" text-anchor="middle">2</text></switch></g><rect x="795" y="255" width="60" height="45" fill="none" stroke="none" pointer-events="all"/><g transform="translate(-0.5 -0.5)scale(1.5)"><switch><foreignObject pointer-events="none" width="100%" height="100%" requiredFeatures="http://www.w3.org/TR/SVG11/feature#Extensibility" style="overflow: visible; text-align: left;"><div xmlns="http://www.w3.org/1999/xhtml" style="display: flex; align-items: unsafe center; justify-content: unsafe center; width: 38px; height: 1px; padding-top: 185px; margin-left: 531px;"><div data-drawio-colors="color: rgb(0, 0, 0); " style="box-sizing: border-box; font-size: 0px; text-align: center;"><div style="display: inline-block; font-size: 12px; font-family: Helvetica; color: rgb(0, 0, 0); line-height: 1.2; pointer-events: all; white-space: normal; overflow-wrap: normal;">3</div></div></div></foreignObject><text x="550" y="189" fill="rgb(0, 0, 0)" font-family="Helvetica" font-size="12px" text-anchor="middle">3</text></switch></g><rect x="75" y="255" width="60" height="45" fill="none" stroke="none" pointer-events="all"/><g transform="translate(-0.5 -0.5)scale(1.5)"><switch><foreignObject pointer-events="none" width="100%" height="100%" requiredFeatures="http://www.w3.org/TR/SVG11/feature#Extensibility" style="overflow: visible; text-align: left;"><div xmlns="http://www.w3.org/1999/xhtml" style="display: flex; align-items: unsafe center; justify-content: unsafe center; width: 38px; height: 1px; padding-top: 185px; margin-left: 51px;"><div data-drawio-colors="color: rgb(0, 0, 0); " style="box-sizing: border-box; font-size: 0px; text-align: center;"><div style="display: inline-block; font-size: 12px; font-family: Helvetica; color: rgb(0, 0, 0); line-height: 1.2; pointer-events: all; white-space: normal; overflow-wrap: normal;">4</div></div></div></foreignObject><text x="70" y="189" fill="rgb(0, 0, 0)" font-family="Helvetica" font-size="12px" text-anchor="middle">4</text></switch></g><rect x="195" y="255" width="60" height="45" fill="none" stroke="none" pointer-events="all"/><g transform="translate(-0.5 -0.5)scale(1.5)"><switch><foreignObject pointer-events="none" width="100%" height="100%" requiredFeatures="http://www.w3.org/TR/SVG11/feature#Extensibility" style="overflow: visible; text-align: left;"><div xmlns="http://www.w3.org/1999/xhtml" style="display: flex; align-items: unsafe center; justify-content: unsafe center; width: 38px; height: 1px; padding-top: 185px; margin-left: 131px;"><div data-drawio-colors="color: rgb(0, 0, 0); " style="box-sizing: border-box; font-size: 0px; text-align: center;"><div style="display: inline-block; font-size: 12px; font-family: Helvetica; color: rgb(0, 0, 0); line-height: 1.2; pointer-events: all; white-space: normal; overflow-wrap: normal;">5</div></div></div></foreignObject><text x="150" y="189" fill="rgb(0, 0, 0)" font-family="Helvetica" font-size="12px" text-anchor="middle">5</text></switch></g><rect x="315" y="255" width="60" height="45" fill="none" stroke="none" pointer-events="all"/><g transform="translate(-0.5 -0.5)scale(1.5)"><switch><foreignObject pointer-events="none" width="100%" height="100%" requiredFeatures="http://www.w3.org/TR/SVG11/feature#Extensibility" style="overflow: visible; text-align: left;"><div xmlns="http://www.w3.org/1999/xhtml" style="display: flex; align-items: unsafe center; justify-content: unsafe center; width: 38px; height: 1px; padding-top: 185px; margin-left: 211px;"><div data-drawio-colors="color: rgb(0, 0, 0); " style="box-sizing: border-box; font-size: 0px; text-align: center;"><div style="display: inline-block; font-size: 12px; font-family: Helvetica; color: rgb(0, 0, 0); line-height: 1.2; pointer-events: all; white-space: normal; overflow-wrap: normal;">6</div></div></div></foreignObject><text x="230" y="189" fill="rgb(0, 0, 0)" font-family="Helvetica" font-size="12px" text-anchor="middle">6</text></switch></g><path d="M 165 255 L 180 195 L 270 195 L 285 255 Z" fill="rgb(255, 255, 255)" stroke="rgb(0, 0, 0)" stroke-width="1.5" stroke-miterlimit="10" pointer-events="all"/><g transform="translate(-0.5 -0.5)scale(1.5)"><switch><foreignObject pointer-events="none" width="100%" height="100%" requiredFeatures="http://www.w3.org/TR/SVG11/feature#Extensibility" style="overflow: visible; text-align: left;"><div xmlns="http://www.w3.org/1999/xhtml" style="display: flex; align-items: unsafe center; justify-content: unsafe center; width: 78px; height: 1px; padding-top: 150px; margin-left: 111px;"><div data-drawio-colors="color: rgb(0, 0, 0); " style="box-sizing: border-box; font-size: 0px; text-align: center;"><div style="display: inline-block; font-size: 12px; font-family: Helvetica; color: rgb(0, 0, 0); line-height: 1.2; pointer-events: all; white-space: normal; overflow-wrap: normal;">1</div></div></div></foreignObject><text x="150" y="154" fill="rgb(0, 0, 0)" font-family="Helvetica" font-size="12px" text-anchor="middle">1</text></switch></g><rect x="666" y="103.5" width="180" height="90" fill="none" stroke="none" pointer-events="all"/><g transform="translate(-0.5 -0.5)scale(1.5)"><switch><foreignObject pointer-events="none" width="100%" height="100%" requiredFeatures="http://www.w3.org/TR/SVG11/feature#Extensibility" style="overflow: visible; text-align: left;"><div xmlns="http://www.w3.org/1999/xhtml" style="display: flex; align-items: unsafe center; justify-content: unsafe center; width: 118px; height: 1px; padding-top: 99px; margin-left: 445px;"><div data-drawio-colors="color: rgb(0, 0, 0); " style="box-sizing: border-box; font-size: 0px; text-align: center;"><div style="display: inline-block; font-size: 12px; font-family: Helvetica; color: rgb(0, 0, 0); line-height: 1.2; pointer-events: all; white-space: normal; overflow-wrap: normal;"><mjx-container class="MathJax" jax="SVG" display="true"><svg xmlns="http://www.w3.org/2000/svg" width="20.997ex" height="2.262ex" role="img" focusable="false" viewBox="0 -750 9280.7 1000" xmlns:xlink="http://www.w3.org/1999/xlink" style="vertical-align: -0.566ex;"><defs><path id="MJX-397-TEX-I-1D45F" d="M21 287Q22 290 23 295T28 317T38 348T53 381T73 411T99 433T132 442Q161 442 183 430T214 408T225 388Q227 382 228 382T236 389Q284 441 347 441H350Q398 441 422 400Q430 381 430 363Q430 333 417 315T391 292T366 288Q346 288 334 299T322 328Q322 376 378 392Q356 405 342 405Q286 405 239 331Q229 315 224 298T190 165Q156 25 151 16Q138 -11 108 -11Q95 -11 87 -5T76 7T74 17Q74 30 114 189T154 366Q154 405 128 405Q107 405 92 377T68 316T57 280Q55 278 41 278H27Q21 284 21 287Z"/><path id="MJX-397-TEX-N-3D" d="M56 347Q56 360 70 367H707Q722 359 722 347Q722 336 708 328L390 327H72Q56 332 56 347ZM56 153Q56 168 72 173H708Q722 163 722 153Q722 140 707 133H70Q56 140 56 153Z"/><path id="MJX-397-TEX-I-1D440" d="M289 629Q289 635 232 637Q208 637 201 638T194 648Q194 649 196 659Q197 662 198 666T199 671T201 676T203 679T207 681T212 683T220 683T232 684Q238 684 262 684T307 683Q386 683 398 683T414 678Q415 674 451 396L487 117L510 154Q534 190 574 254T662 394Q837 673 839 675Q840 676 842 678T846 681L852 683H948Q965 683 988 683T1017 684Q1051 684 1051 673Q1051 668 1048 656T1045 643Q1041 637 1008 637Q968 636 957 634T939 623Q936 618 867 340T797 59Q797 55 798 54T805 50T822 48T855 46H886Q892 37 892 35Q892 19 885 5Q880 0 869 0Q864 0 828 1T736 2Q675 2 644 2T609 1Q592 1 592 11Q592 13 594 25Q598 41 602 43T625 46Q652 46 685 49Q699 52 704 61Q706 65 742 207T813 490T848 631L654 322Q458 10 453 5Q451 4 449 3Q444 0 433 0Q418 0 415 7Q413 11 374 317L335 624L267 354Q200 88 200 79Q206 46 272 46H282Q288 41 289 37T286 19Q282 3 278 1Q274 0 267 0Q265 0 255 0T221 1T157 2Q127 2 95 1T58 0Q43 0 39 2T35 11Q35 13 38 25T43 40Q45 46 65 46Q135 46 154 86Q158 92 223 354T289 629Z"/><path id="MJX-397-TEX-N-2F" d="M423 750Q432 750 438 744T444 730Q444 725 271 248T92 -240Q85 -250 75 -250Q68 -250 62 -245T56 -231Q56 -221 230 257T407 740Q411 750 423 750Z"/><path id="MJX-397-TEX-N-32" d="M109 429Q82 429 66 447T50 491Q50 562 103 614T235 666Q326 666 387 610T449 465Q449 422 429 383T381 315T301 241Q265 210 201 149L142 93L218 92Q375 92 385 97Q392 99 409 186V189H449V186Q448 183 436 95T421 3V0H50V19V31Q50 38 56 46T86 81Q115 113 136 137Q145 147 170 174T204 211T233 244T261 278T284 308T305 340T320 369T333 401T340 431T343 464Q343 527 309 573T212 619Q179 619 154 602T119 569T109 550Q109 549 114 549Q132 549 151 535T170 489Q170 464 154 447T109 429Z"/><path id="MJX-397-TEX-N-37" d="M55 458Q56 460 72 567L88 674Q88 676 108 676H128V672Q128 662 143 655T195 646T364 644H485V605L417 512Q408 500 387 472T360 435T339 403T319 367T305 330T292 284T284 230T278 162T275 80Q275 66 275 52T274 28V19Q270 2 255 -10T221 -22Q210 -22 200 -19T179 0T168 40Q168 198 265 368Q285 400 349 489L395 552H302Q128 552 119 546Q113 543 108 522T98 479L95 458V455H55V458Z"/><path id="MJX-397-TEX-N-33" d="M127 463Q100 463 85 480T69 524Q69 579 117 622T233 665Q268 665 277 664Q351 652 390 611T430 522Q430 470 396 421T302 350L299 348Q299 347 308 345T337 336T375 315Q457 262 457 175Q457 96 395 37T238 -22Q158 -22 100 21T42 130Q42 158 60 175T105 193Q133 193 151 175T169 130Q169 119 166 110T159 94T148 82T136 74T126 70T118 67L114 66Q165 21 238 21Q293 21 321 74Q338 107 338 175V195Q338 290 274 322Q259 328 213 329L171 330L168 332Q166 335 166 348Q166 366 174 366Q202 366 232 371Q266 376 294 413T322 525V533Q322 590 287 612Q265 626 240 626Q208 626 181 615T143 592T132 580H135Q138 579 143 578T153 573T165 566T175 555T183 540T186 520Q186 498 172 481T127 463Z"/><path id="MJX-397-TEX-N-2E" d="M78 60Q78 84 95 102T138 120Q162 120 180 104T199 61Q199 36 182 18T139 0T96 17T78 60Z"/><path id="MJX-397-TEX-N-35" d="M164 157Q164 133 148 117T109 101H102Q148 22 224 22Q294 22 326 82Q345 115 345 210Q345 313 318 349Q292 382 260 382H254Q176 382 136 314Q132 307 129 306T114 304Q97 304 95 310Q93 314 93 485V614Q93 664 98 664Q100 666 102 666Q103 666 123 658T178 642T253 634Q324 634 389 662Q397 666 402 666Q410 666 410 648V635Q328 538 205 538Q174 538 149 544L139 546V374Q158 388 169 396T205 412T256 420Q337 420 393 355T449 201Q449 109 385 44T229 -22Q148 -22 99 32T50 154Q50 178 61 192T84 210T107 214Q132 214 148 197T164 157Z"/></defs><g stroke="currentColor" fill="currentColor" stroke-width="0" transform="scale(1,-1)"><g data-mml-node="math"><g data-mml-node="mi"><use data-c="1D45F" xlink:href="#MJX-397-TEX-I-1D45F"/></g><g data-mml-node="mo" transform="translate(728.8,0)"><use data-c="3D" xlink:href="#MJX-397-TEX-N-3D"/></g><g data-mml-node="mi" transform="translate(1784.6,0)"><use data-c="1D440" xlink:href="#MJX-397-TEX-I-1D440"/></g><g data-mml-node="TeXAtom" data-mjx-texclass="ORD" transform="translate(2835.6,0)"><g data-mml-node="mo"><use data-c="2F" xlink:href="#MJX-397-TEX-N-2F"/></g></g><g data-mml-node="mn" transform="translate(3335.6,0)"><use data-c="32" xlink:href="#MJX-397-TEX-N-32"/></g><g data-mml-node="mo" transform="translate(4113.3,0)"><use data-c="3D" xlink:href="#MJX-397-TEX-N-3D"/></g><g data-mml-node="mn" transform="translate(5169.1,0)"><use data-c="37" xlink:href="#MJX-397-TEX-N-37"/></g><g data-mml-node="TeXAtom" data-mjx-texclass="ORD" transform="translate(5669.1,0)"><g data-mml-node="mo"><use data-c="2F" xlink:href="#MJX-397-TEX-N-2F"/></g></g><g data-mml-node="mn" transform="translate(6169.1,0)"><use data-c="32" xlink:href="#MJX-397-TEX-N-32"/></g><g data-mml-node="mo" transform="translate(6946.9,0)"><use data-c="3D" xlink:href="#MJX-397-TEX-N-3D"/></g><g data-mml-node="mn" transform="translate(8002.7,0)"><use data-c="33" xlink:href="#MJX-397-TEX-N-33"/><use data-c="2E" xlink:href="#MJX-397-TEX-N-2E" transform="translate(500,0)"/><use data-c="35" xlink:href="#MJX-397-TEX-N-35" transform="translate(778,0)"/></g></g></g></svg></mjx-container></div></div></div></foreignObject><text x="504" y="103" fill="rgb(0, 0, 0)" font-family="Helvetica" font-size="12px" text-anchor="middle">$$r = M/2 = 7/2 = 3....</text></switch></g><path d="M 45 105 L 60 45 L 105 45 L 105 105 Z" fill="rgb(255, 255, 255)" stroke="rgb(0, 0, 0)" stroke-width="1.5" stroke-miterlimit="10" transform="translate(75,0)scale(-1,1)translate(-75,0)" pointer-events="all"/><rect x="45" y="45" width="60" height="60" fill="none" stroke="none" pointer-events="all"/><g transform="translate(-0.5 -0.5)scale(1.5)"><switch><foreignObject pointer-events="none" width="100%" height="100%" requiredFeatures="http://www.w3.org/TR/SVG11/feature#Extensibility" style="overflow: visible; text-align: left;"><div xmlns="http://www.w3.org/1999/xhtml" style="display: flex; align-items: unsafe center; justify-content: unsafe center; width: 38px; height: 1px; padding-top: 50px; margin-left: 31px;"><div data-drawio-colors="color: rgb(0, 0, 0); " style="box-sizing: border-box; font-size: 0px; text-align: center;"><div style="display: inline-block; font-size: 12px; font-family: Helvetica; color: rgb(0, 0, 0); line-height: 1.2; pointer-events: all; white-space: normal; overflow-wrap: normal;">3</div></div></div></foreignObject><text x="50" y="54" fill="rgb(0, 0, 0)" font-family="Helvetica" font-size="12px" text-anchor="middle">3</text></switch></g><path d="M 825 105 L 840 45 L 885 45 L 885 105 Z" fill="rgb(255, 255, 255)" stroke="rgb(0, 0, 0)" stroke-width="1.5" stroke-miterlimit="10" pointer-events="all"/><rect x="825" y="45" width="60" height="60" fill="none" stroke="none" pointer-events="all"/><g transform="translate(-0.5 -0.5)scale(1.5)"><switch><foreignObject pointer-events="none" width="100%" height="100%" requiredFeatures="http://www.w3.org/TR/SVG11/feature#Extensibility" style="overflow: visible; text-align: left;"><div xmlns="http://www.w3.org/1999/xhtml" style="display: flex; align-items: unsafe center; justify-content: unsafe center; width: 38px; height: 1px; padding-top: 50px; margin-left: 551px;"><div data-drawio-colors="color: rgb(0, 0, 0); " style="box-sizing: border-box; font-size: 0px; text-align: center;"><div style="display: inline-block; font-size: 12px; font-family: Helvetica; color: rgb(0, 0, 0); line-height: 1.2; pointer-events: all; white-space: normal; overflow-wrap: normal;">3</div></div></div></foreignObject><text x="570" y="54" fill="rgb(0, 0, 0)" font-family="Helvetica" font-size="12px" text-anchor="middle">3</text></switch></g><path d="M 765 255 L 780 195 L 870 195 L 885 255 Z" fill="rgb(255, 255, 255)" stroke="rgb(0, 0, 0)" stroke-width="1.5" stroke-miterlimit="10" pointer-events="all"/><g transform="translate(-0.5 -0.5)scale(1.5)"><switch><foreignObject pointer-events="none" width="100%" height="100%" requiredFeatures="http://www.w3.org/TR/SVG11/feature#Extensibility" style="overflow: visible; text-align: left;"><div xmlns="http://www.w3.org/1999/xhtml" style="display: flex; align-items: unsafe center; justify-content: unsafe center; width: 78px; height: 1px; padding-top: 150px; margin-left: 511px;"><div data-drawio-colors="color: rgb(0, 0, 0); " style="box-sizing: border-box; font-size: 0px; text-align: center;"><div style="display: inline-block; font-size: 12px; font-family: Helvetica; color: rgb(0, 0, 0); line-height: 1.2; pointer-events: all; white-space: normal; overflow-wrap: normal;">6</div></div></div></foreignObject><text x="550" y="154" fill="rgb(0, 0, 0)" font-family="Helvetica" font-size="12px" text-anchor="middle">6</text></switch></g></g><switch><g requiredFeatures="http://www.w3.org/TR/SVG11/feature#Extensibility"/><a transform="translate(0,-5)" xlink:href="https://www.drawio.com/doc/faq/svg-export-text-problems" target="_blank"><text text-anchor="middle" font-size="10px" x="50%" y="100%">Text is not SVG - cannot display</text></a></switch></svg>