<?xml version="1.0" encoding="utf-8" standalone="no"?>
<!DOCTYPE svg PUBLIC "-//W3C//DTD SVG 1.1//EN"
  "http://www.w3.org/Graphics/SVG/1.1/DTD/svg11.dtd">
<svg xmlns:xlink="http://www.w3.org/1999/xlink" width="864pt" height="216pt" viewBox="0 0 864 216" xmlns="http://www.w3.org/2000/svg" version="1.1">
 <metadata>
  <rdf:RDF xmlns:dc="http://purl.org/dc/elements/1.1/" xmlns:cc="http://creativecommons.org/ns#" xmlns:rdf="http://www.w3.org/1999/02/22-rdf-syntax-ns#">
   <cc:Work>
    <dc:type rdf:resource="http://purl.org/dc/dcmitype/StillImage"/>
    <dc:date>2026-03-04T21:22:47.141295</dc:date>
    <dc:format>image/svg+xml</dc:format>
    <dc:creator>
     <cc:Agent>
      <dc:title>Matplotlib v3.10.8, https://matplotlib.org/</dc:title>
     </cc:Agent>
    </dc:creator>
   </cc:Work>
  </rdf:RDF>
 </metadata>
 <defs>
  <style type="text/css">*{stroke-linejoin: round; stroke-linecap: butt}</style>
 </defs>
 <g id="figure_1">
  <g id="patch_1">
   <path d="M 0 216 
L 864 216 
L 864 0 
L 0 0 
z
" style="fill: #ffffff"/>
  </g>
  <g id="axes_1">
   <g id="patch_2">
    <path d="M 60.686177 182.64351 
L 849.866947 182.64351 
L 849.866947 18.118365 
L 60.686177 18.118365 
z
" style="fill: #ffffff"/>
   </g>
   <g id="matplotlib.axis_1">
    <g id="xtick_1">
     <g id="line2d_1">
      <path d="M 60.686178 182.64351 
L 60.686178 18.118365 
" clip-path="url(#peccb542d1b)" style="fill: none; stroke: #b0b0b0; stroke-opacity: 0.3; stroke-width: 0.8; stroke-linecap: square"/>
     </g>
     <g id="line2d_2">
      <defs>
       <path id="m5dbbc92506" d="M 0 0 
L 0 3.5 
" style="stroke: #000000; stroke-width: 0.8"/>
      </defs>
      <g>
       <use xlink:href="#m5dbbc92506" x="60.686178" y="182.64351" style="stroke: #000000; stroke-width: 0.8"/>
      </g>
     </g>
     <g id="text_1">
      <!-- 1.14 -->
      <g transform="translate(49.553365 197.241948) scale(0.1 -0.1)">
       <defs>
        <path id="DejaVuSans-31" d="M 794 531 
L 1825 531 
L 1825 4091 
L 703 3866 
L 703 4441 
L 1819 4666 
L 2450 4666 
L 2450 531 
L 3481 531 
L 3481 0 
L 794 0 
L 794 531 
z
" transform="scale(0.015625)"/>
        <path id="DejaVuSans-2e" d="M 684 794 
L 1344 794 
L 1344 0 
L 684 0 
L 684 794 
z
" transform="scale(0.015625)"/>
        <path id="DejaVuSans-34" d="M 2419 4116 
L 825 1625 
L 2419 1625 
L 2419 4116 
z
M 2253 4666 
L 3047 4666 
L 3047 1625 
L 3713 1625 
L 3713 1100 
L 3047 1100 
L 3047 0 
L 2419 0 
L 2419 1100 
L 313 1100 
L 313 1709 
L 2253 4666 
z
" transform="scale(0.015625)"/>
       </defs>
       <use xlink:href="#DejaVuSans-31"/>
       <use xlink:href="#DejaVuSans-2e" transform="translate(63.623047 0)"/>
       <use xlink:href="#DejaVuSans-31" transform="translate(95.410156 0)"/>
       <use xlink:href="#DejaVuSans-34" transform="translate(159.033203 0)"/>
      </g>
     </g>
    </g>
    <g id="xtick_2">
     <g id="line2d_3">
      <path d="M 218.522332 182.64351 
L 218.522332 18.118365 
" clip-path="url(#peccb542d1b)" style="fill: none; stroke: #b0b0b0; stroke-opacity: 0.3; stroke-width: 0.8; stroke-linecap: square"/>
     </g>
     <g id="line2d_4">
      <g>
       <use xlink:href="#m5dbbc92506" x="218.522332" y="182.64351" style="stroke: #000000; stroke-width: 0.8"/>
      </g>
     </g>
     <g id="text_2">
      <!-- 1.16 -->
      <g transform="translate(207.389519 197.241948) scale(0.1 -0.1)">
       <defs>
        <path id="DejaVuSans-36" d="M 2113 2584 
Q 1688 2584 1439 2293 
Q 1191 2003 1191 1497 
Q 1191 994 1439 701 
Q 1688 409 2113 409 
Q 2538 409 2786 701 
Q 3034 994 3034 1497 
Q 3034 2003 2786 2293 
Q 2538 2584 2113 2584 
z
M 3366 4563 
L 3366 3988 
Q 3128 4100 2886 4159 
Q 2644 4219 2406 4219 
Q 1781 4219 1451 3797 
Q 1122 3375 1075 2522 
Q 1259 2794 1537 2939 
Q 1816 3084 2150 3084 
Q 2853 3084 3261 2657 
Q 3669 2231 3669 1497 
Q 3669 778 3244 343 
Q 2819 -91 2113 -91 
Q 1303 -91 875 529 
Q 447 1150 447 2328 
Q 447 3434 972 4092 
Q 1497 4750 2381 4750 
Q 2619 4750 2861 4703 
Q 3103 4656 3366 4563 
z
" transform="scale(0.015625)"/>
       </defs>
       <use xlink:href="#DejaVuSans-31"/>
       <use xlink:href="#DejaVuSans-2e" transform="translate(63.623047 0)"/>
       <use xlink:href="#DejaVuSans-31" transform="translate(95.410156 0)"/>
       <use xlink:href="#DejaVuSans-36" transform="translate(159.033203 0)"/>
      </g>
     </g>
    </g>
    <g id="xtick_3">
     <g id="line2d_5">
      <path d="M 376.358486 182.64351 
L 376.358486 18.118365 
" clip-path="url(#peccb542d1b)" style="fill: none; stroke: #b0b0b0; stroke-opacity: 0.3; stroke-width: 0.8; stroke-linecap: square"/>
     </g>
     <g id="line2d_6">
      <g>
       <use xlink:href="#m5dbbc92506" x="376.358486" y="182.64351" style="stroke: #000000; stroke-width: 0.8"/>
      </g>
     </g>
     <g id="text_3">
      <!-- 1.18 -->
      <g transform="translate(365.225673 197.241948) scale(0.1 -0.1)">
       <defs>
        <path id="DejaVuSans-38" d="M 2034 2216 
Q 1584 2216 1326 1975 
Q 1069 1734 1069 1313 
Q 1069 891 1326 650 
Q 1584 409 2034 409 
Q 2484 409 2743 651 
Q 3003 894 3003 1313 
Q 3003 1734 2745 1975 
Q 2488 2216 2034 2216 
z
M 1403 2484 
Q 997 2584 770 2862 
Q 544 3141 544 3541 
Q 544 4100 942 4425 
Q 1341 4750 2034 4750 
Q 2731 4750 3128 4425 
Q 3525 4100 3525 3541 
Q 3525 3141 3298 2862 
Q 3072 2584 2669 2484 
Q 3125 2378 3379 2068 
Q 3634 1759 3634 1313 
Q 3634 634 3220 271 
Q 2806 -91 2034 -91 
Q 1263 -91 848 271 
Q 434 634 434 1313 
Q 434 1759 690 2068 
Q 947 2378 1403 2484 
z
M 1172 3481 
Q 1172 3119 1398 2916 
Q 1625 2713 2034 2713 
Q 2441 2713 2670 2916 
Q 2900 3119 2900 3481 
Q 2900 3844 2670 4047 
Q 2441 4250 2034 4250 
Q 1625 4250 1398 4047 
Q 1172 3844 1172 3481 
z
" transform="scale(0.015625)"/>
       </defs>
       <use xlink:href="#DejaVuSans-31"/>
       <use xlink:href="#DejaVuSans-2e" transform="translate(63.623047 0)"/>
       <use xlink:href="#DejaVuSans-31" transform="translate(95.410156 0)"/>
       <use xlink:href="#DejaVuSans-38" transform="translate(159.033203 0)"/>
      </g>
     </g>
    </g>
    <g id="xtick_4">
     <g id="line2d_7">
      <path d="M 534.19464 182.64351 
L 534.19464 18.118365 
" clip-path="url(#peccb542d1b)" style="fill: none; stroke: #b0b0b0; stroke-opacity: 0.3; stroke-width: 0.8; stroke-linecap: square"/>
     </g>
     <g id="line2d_8">
      <g>
       <use xlink:href="#m5dbbc92506" x="534.19464" y="182.64351" style="stroke: #000000; stroke-width: 0.8"/>
      </g>
     </g>
     <g id="text_4">
      <!-- 1.20 -->
      <g transform="translate(523.061827 197.241948) scale(0.1 -0.1)">
       <defs>
        <path id="DejaVuSans-32" d="M 1228 531 
L 3431 531 
L 3431 0 
L 469 0 
L 469 531 
Q 828 903 1448 1529 
Q 2069 2156 2228 2338 
Q 2531 2678 2651 2914 
Q 2772 3150 2772 3378 
Q 2772 3750 2511 3984 
Q 2250 4219 1831 4219 
Q 1534 4219 1204 4116 
Q 875 4013 500 3803 
L 500 4441 
Q 881 4594 1212 4672 
Q 1544 4750 1819 4750 
Q 2544 4750 2975 4387 
Q 3406 4025 3406 3419 
Q 3406 3131 3298 2873 
Q 3191 2616 2906 2266 
Q 2828 2175 2409 1742 
Q 1991 1309 1228 531 
z
" transform="scale(0.015625)"/>
        <path id="DejaVuSans-30" d="M 2034 4250 
Q 1547 4250 1301 3770 
Q 1056 3291 1056 2328 
Q 1056 1369 1301 889 
Q 1547 409 2034 409 
Q 2525 409 2770 889 
Q 3016 1369 3016 2328 
Q 3016 3291 2770 3770 
Q 2525 4250 2034 4250 
z
M 2034 4750 
Q 2819 4750 3233 4129 
Q 3647 3509 3647 2328 
Q 3647 1150 3233 529 
Q 2819 -91 2034 -91 
Q 1250 -91 836 529 
Q 422 1150 422 2328 
Q 422 3509 836 4129 
Q 1250 4750 2034 4750 
z
" transform="scale(0.015625)"/>
       </defs>
       <use xlink:href="#DejaVuSans-31"/>
       <use xlink:href="#DejaVuSans-2e" transform="translate(63.623047 0)"/>
       <use xlink:href="#DejaVuSans-32" transform="translate(95.410156 0)"/>
       <use xlink:href="#DejaVuSans-30" transform="translate(159.033203 0)"/>
      </g>
     </g>
    </g>
    <g id="xtick_5">
     <g id="line2d_9">
      <path d="M 692.030794 182.64351 
L 692.030794 18.118365 
" clip-path="url(#peccb542d1b)" style="fill: none; stroke: #b0b0b0; stroke-opacity: 0.3; stroke-width: 0.8; stroke-linecap: square"/>
     </g>
     <g id="line2d_10">
      <g>
       <use xlink:href="#m5dbbc92506" x="692.030794" y="182.64351" style="stroke: #000000; stroke-width: 0.8"/>
      </g>
     </g>
     <g id="text_5">
      <!-- 1.22 -->
      <g transform="translate(680.897981 197.241948) scale(0.1 -0.1)">
       <use xlink:href="#DejaVuSans-31"/>
       <use xlink:href="#DejaVuSans-2e" transform="translate(63.623047 0)"/>
       <use xlink:href="#DejaVuSans-32" transform="translate(95.410156 0)"/>
       <use xlink:href="#DejaVuSans-32" transform="translate(159.033203 0)"/>
      </g>
     </g>
    </g>
    <g id="xtick_6">
     <g id="line2d_11">
      <path d="M 849.866948 182.64351 
L 849.866948 18.118365 
" clip-path="url(#peccb542d1b)" style="fill: none; stroke: #b0b0b0; stroke-opacity: 0.3; stroke-width: 0.8; stroke-linecap: square"/>
     </g>
     <g id="line2d_12">
      <g>
       <use xlink:href="#m5dbbc92506" x="849.866948" y="182.64351" style="stroke: #000000; stroke-width: 0.8"/>
      </g>
     </g>
     <g id="text_6">
      <!-- 1.24 -->
      <g transform="translate(838.734135 197.241948) scale(0.1 -0.1)">
       <use xlink:href="#DejaVuSans-31"/>
       <use xlink:href="#DejaVuSans-2e" transform="translate(63.623047 0)"/>
       <use xlink:href="#DejaVuSans-32" transform="translate(95.410156 0)"/>
       <use xlink:href="#DejaVuSans-34" transform="translate(159.033203 0)"/>
      </g>
     </g>
    </g>
    <g id="text_7">
     <!-- Time (ms) -->
     <g transform="translate(430.077344 210.920073) scale(0.1 -0.1)">
      <defs>
       <path id="DejaVuSans-54" d="M -19 4666 
L 3928 4666 
L 3928 4134 
L 2272 4134 
L 2272 0 
L 1638 0 
L 1638 4134 
L -19 4134 
L -19 4666 
z
" transform="scale(0.015625)"/>
       <path id="DejaVuSans-69" d="M 603 3500 
L 1178 3500 
L 1178 0 
L 603 0 
L 603 3500 
z
M 603 4863 
L 1178 4863 
L 1178 4134 
L 603 4134 
L 603 4863 
z
" transform="scale(0.015625)"/>
       <path id="DejaVuSans-6d" d="M 3328 2828 
Q 3544 3216 3844 3400 
Q 4144 3584 4550 3584 
Q 5097 3584 5394 3201 
Q 5691 2819 5691 2113 
L 5691 0 
L 5113 0 
L 5113 2094 
Q 5113 2597 4934 2840 
Q 4756 3084 4391 3084 
Q 3944 3084 3684 2787 
Q 3425 2491 3425 1978 
L 3425 0 
L 2847 0 
L 2847 2094 
Q 2847 2600 2669 2842 
Q 2491 3084 2119 3084 
Q 1678 3084 1418 2786 
Q 1159 2488 1159 1978 
L 1159 0 
L 581 0 
L 581 3500 
L 1159 3500 
L 1159 2956 
Q 1356 3278 1631 3431 
Q 1906 3584 2284 3584 
Q 2666 3584 2933 3390 
Q 3200 3197 3328 2828 
z
" transform="scale(0.015625)"/>
       <path id="DejaVuSans-65" d="M 3597 1894 
L 3597 1613 
L 953 1613 
Q 991 1019 1311 708 
Q 1631 397 2203 397 
Q 2534 397 2845 478 
Q 3156 559 3463 722 
L 3463 178 
Q 3153 47 2828 -22 
Q 2503 -91 2169 -91 
Q 1331 -91 842 396 
Q 353 884 353 1716 
Q 353 2575 817 3079 
Q 1281 3584 2069 3584 
Q 2775 3584 3186 3129 
Q 3597 2675 3597 1894 
z
M 3022 2063 
Q 3016 2534 2758 2815 
Q 2500 3097 2075 3097 
Q 1594 3097 1305 2825 
Q 1016 2553 972 2059 
L 3022 2063 
z
" transform="scale(0.015625)"/>
       <path id="DejaVuSans-20" transform="scale(0.015625)"/>
       <path id="DejaVuSans-28" d="M 1984 4856 
Q 1566 4138 1362 3434 
Q 1159 2731 1159 2009 
Q 1159 1288 1364 580 
Q 1569 -128 1984 -844 
L 1484 -844 
Q 1016 -109 783 600 
Q 550 1309 550 2009 
Q 550 2706 781 3412 
Q 1013 4119 1484 4856 
L 1984 4856 
z
" transform="scale(0.015625)"/>
       <path id="DejaVuSans-73" d="M 2834 3397 
L 2834 2853 
Q 2591 2978 2328 3040 
Q 2066 3103 1784 3103 
Q 1356 3103 1142 2972 
Q 928 2841 928 2578 
Q 928 2378 1081 2264 
Q 1234 2150 1697 2047 
L 1894 2003 
Q 2506 1872 2764 1633 
Q 3022 1394 3022 966 
Q 3022 478 2636 193 
Q 2250 -91 1575 -91 
Q 1294 -91 989 -36 
Q 684 19 347 128 
L 347 722 
Q 666 556 975 473 
Q 1284 391 1588 391 
Q 1994 391 2212 530 
Q 2431 669 2431 922 
Q 2431 1156 2273 1281 
Q 2116 1406 1581 1522 
L 1381 1569 
Q 847 1681 609 1914 
Q 372 2147 372 2553 
Q 372 3047 722 3315 
Q 1072 3584 1716 3584 
Q 2034 3584 2315 3537 
Q 2597 3491 2834 3397 
z
" transform="scale(0.015625)"/>
       <path id="DejaVuSans-29" d="M 513 4856 
L 1013 4856 
Q 1481 4119 1714 3412 
Q 1947 2706 1947 2009 
Q 1947 1309 1714 600 
Q 1481 -109 1013 -844 
L 513 -844 
Q 928 -128 1133 580 
Q 1338 1288 1338 2009 
Q 1338 2731 1133 3434 
Q 928 4138 513 4856 
z
" transform="scale(0.015625)"/>
      </defs>
      <use xlink:href="#DejaVuSans-54"/>
      <use xlink:href="#DejaVuSans-69" transform="translate(57.958984 0)"/>
      <use xlink:href="#DejaVuSans-6d" transform="translate(85.742188 0)"/>
      <use xlink:href="#DejaVuSans-65" transform="translate(183.154297 0)"/>
      <use xlink:href="#DejaVuSans-20" transform="translate(244.677734 0)"/>
      <use xlink:href="#DejaVuSans-28" transform="translate(276.464844 0)"/>
      <use xlink:href="#DejaVuSans-6d" transform="translate(315.478516 0)"/>
      <use xlink:href="#DejaVuSans-73" transform="translate(412.890625 0)"/>
      <use xlink:href="#DejaVuSans-29" transform="translate(464.990234 0)"/>
     </g>
    </g>
   </g>
   <g id="matplotlib.axis_2">
    <g id="ytick_1">
     <g id="line2d_13">
      <path d="M 60.686177 166.809692 
L 849.866947 166.809692 
" clip-path="url(#peccb542d1b)" style="fill: none; stroke: #b0b0b0; stroke-opacity: 0.3; stroke-width: 0.8; stroke-linecap: square"/>
     </g>
     <g id="line2d_14">
      <defs>
       <path id="mab25518f7d" d="M 0 0 
L -3.5 0 
" style="stroke: #000000; stroke-width: 0.8"/>
      </defs>
      <g>
       <use xlink:href="#mab25518f7d" x="60.686177" y="166.809692" style="stroke: #000000; stroke-width: 0.8"/>
      </g>
     </g>
     <g id="text_8">
      <!-- −0.004 -->
      <g transform="translate(16.678365 170.608911) scale(0.1 -0.1)">
       <defs>
        <path id="DejaVuSans-2212" d="M 678 2272 
L 4684 2272 
L 4684 1741 
L 678 1741 
L 678 2272 
z
" transform="scale(0.015625)"/>
       </defs>
       <use xlink:href="#DejaVuSans-2212"/>
       <use xlink:href="#DejaVuSans-30" transform="translate(83.789062 0)"/>
       <use xlink:href="#DejaVuSans-2e" transform="translate(147.412109 0)"/>
       <use xlink:href="#DejaVuSans-30" transform="translate(179.199219 0)"/>
       <use xlink:href="#DejaVuSans-30" transform="translate(242.822266 0)"/>
       <use xlink:href="#DejaVuSans-34" transform="translate(306.445312 0)"/>
      </g>
     </g>
    </g>
    <g id="ytick_2">
     <g id="line2d_15">
      <path d="M 60.686177 133.648483 
L 849.866947 133.648483 
" clip-path="url(#peccb542d1b)" style="fill: none; stroke: #b0b0b0; stroke-opacity: 0.3; stroke-width: 0.8; stroke-linecap: square"/>
     </g>
     <g id="line2d_16">
      <g>
       <use xlink:href="#mab25518f7d" x="60.686177" y="133.648483" style="stroke: #000000; stroke-width: 0.8"/>
      </g>
     </g>
     <g id="text_9">
      <!-- −0.002 -->
      <g transform="translate(16.678365 137.447702) scale(0.1 -0.1)">
       <use xlink:href="#DejaVuSans-2212"/>
       <use xlink:href="#DejaVuSans-30" transform="translate(83.789062 0)"/>
       <use xlink:href="#DejaVuSans-2e" transform="translate(147.412109 0)"/>
       <use xlink:href="#DejaVuSans-30" transform="translate(179.199219 0)"/>
       <use xlink:href="#DejaVuSans-30" transform="translate(242.822266 0)"/>
       <use xlink:href="#DejaVuSans-32" transform="translate(306.445312 0)"/>
      </g>
     </g>
    </g>
    <g id="ytick_3">
     <g id="line2d_17">
      <path d="M 60.686177 100.487274 
L 849.866947 100.487274 
" clip-path="url(#peccb542d1b)" style="fill: none; stroke: #b0b0b0; stroke-opacity: 0.3; stroke-width: 0.8; stroke-linecap: square"/>
     </g>
     <g id="line2d_18">
      <g>
       <use xlink:href="#mab25518f7d" x="60.686177" y="100.487274" style="stroke: #000000; stroke-width: 0.8"/>
      </g>
     </g>
     <g id="text_10">
      <!-- 0.000 -->
      <g transform="translate(25.058052 104.286493) scale(0.1 -0.1)">
       <use xlink:href="#DejaVuSans-30"/>
       <use xlink:href="#DejaVuSans-2e" transform="translate(63.623047 0)"/>
       <use xlink:href="#DejaVuSans-30" transform="translate(95.410156 0)"/>
       <use xlink:href="#DejaVuSans-30" transform="translate(159.033203 0)"/>
       <use xlink:href="#DejaVuSans-30" transform="translate(222.65625 0)"/>
      </g>
     </g>
    </g>
    <g id="ytick_4">
     <g id="line2d_19">
      <path d="M 60.686177 67.326065 
L 849.866947 67.326065 
" clip-path="url(#peccb542d1b)" style="fill: none; stroke: #b0b0b0; stroke-opacity: 0.3; stroke-width: 0.8; stroke-linecap: square"/>
     </g>
     <g id="line2d_20">
      <g>
       <use xlink:href="#mab25518f7d" x="60.686177" y="67.326065" style="stroke: #000000; stroke-width: 0.8"/>
      </g>
     </g>
     <g id="text_11">
      <!-- 0.002 -->
      <g transform="translate(25.058052 71.125284) scale(0.1 -0.1)">
       <use xlink:href="#DejaVuSans-30"/>
       <use xlink:href="#DejaVuSans-2e" transform="translate(63.623047 0)"/>
       <use xlink:href="#DejaVuSans-30" transform="translate(95.410156 0)"/>
       <use xlink:href="#DejaVuSans-30" transform="translate(159.033203 0)"/>
       <use xlink:href="#DejaVuSans-32" transform="translate(222.65625 0)"/>
      </g>
     </g>
    </g>
    <g id="ytick_5">
     <g id="line2d_21">
      <path d="M 60.686177 34.164856 
L 849.866947 34.164856 
" clip-path="url(#peccb542d1b)" style="fill: none; stroke: #b0b0b0; stroke-opacity: 0.3; stroke-width: 0.8; stroke-linecap: square"/>
     </g>
     <g id="line2d_22">
      <g>
       <use xlink:href="#mab25518f7d" x="60.686177" y="34.164856" style="stroke: #000000; stroke-width: 0.8"/>
      </g>
     </g>
     <g id="text_12">
      <!-- 0.004 -->
      <g transform="translate(25.058052 37.964075) scale(0.1 -0.1)">
       <use xlink:href="#DejaVuSans-30"/>
       <use xlink:href="#DejaVuSans-2e" transform="translate(63.623047 0)"/>
       <use xlink:href="#DejaVuSans-30" transform="translate(95.410156 0)"/>
       <use xlink:href="#DejaVuSans-30" transform="translate(159.033203 0)"/>
       <use xlink:href="#DejaVuSans-34" transform="translate(222.65625 0)"/>
      </g>
     </g>
    </g>
    <g id="text_13">
     <!-- Amplitude -->
     <g transform="translate(10.598677 126.003594) rotate(-90) scale(0.1 -0.1)">
      <defs>
       <path id="DejaVuSans-41" d="M 2188 4044 
L 1331 1722 
L 3047 1722 
L 2188 4044 
z
M 1831 4666 
L 2547 4666 
L 4325 0 
L 3669 0 
L 3244 1197 
L 1141 1197 
L 716 0 
L 50 0 
L 1831 4666 
z
" transform="scale(0.015625)"/>
       <path id="DejaVuSans-70" d="M 1159 525 
L 1159 -1331 
L 581 -1331 
L 581 3500 
L 1159 3500 
L 1159 2969 
Q 1341 3281 1617 3432 
Q 1894 3584 2278 3584 
Q 2916 3584 3314 3078 
Q 3713 2572 3713 1747 
Q 3713 922 3314 415 
Q 2916 -91 2278 -91 
Q 1894 -91 1617 61 
Q 1341 213 1159 525 
z
M 3116 1747 
Q 3116 2381 2855 2742 
Q 2594 3103 2138 3103 
Q 1681 3103 1420 2742 
Q 1159 2381 1159 1747 
Q 1159 1113 1420 752 
Q 1681 391 2138 391 
Q 2594 391 2855 752 
Q 3116 1113 3116 1747 
z
" transform="scale(0.015625)"/>
       <path id="DejaVuSans-6c" d="M 603 4863 
L 1178 4863 
L 1178 0 
L 603 0 
L 603 4863 
z
" transform="scale(0.015625)"/>
       <path id="DejaVuSans-74" d="M 1172 4494 
L 1172 3500 
L 2356 3500 
L 2356 3053 
L 1172 3053 
L 1172 1153 
Q 1172 725 1289 603 
Q 1406 481 1766 481 
L 2356 481 
L 2356 0 
L 1766 0 
Q 1100 0 847 248 
Q 594 497 594 1153 
L 594 3053 
L 172 3053 
L 172 3500 
L 594 3500 
L 594 4494 
L 1172 4494 
z
" transform="scale(0.015625)"/>
       <path id="DejaVuSans-75" d="M 544 1381 
L 544 3500 
L 1119 3500 
L 1119 1403 
Q 1119 906 1312 657 
Q 1506 409 1894 409 
Q 2359 409 2629 706 
Q 2900 1003 2900 1516 
L 2900 3500 
L 3475 3500 
L 3475 0 
L 2900 0 
L 2900 538 
Q 2691 219 2414 64 
Q 2138 -91 1772 -91 
Q 1169 -91 856 284 
Q 544 659 544 1381 
z
M 1991 3584 
L 1991 3584 
z
" transform="scale(0.015625)"/>
       <path id="DejaVuSans-64" d="M 2906 2969 
L 2906 4863 
L 3481 4863 
L 3481 0 
L 2906 0 
L 2906 525 
Q 2725 213 2448 61 
Q 2172 -91 1784 -91 
Q 1150 -91 751 415 
Q 353 922 353 1747 
Q 353 2572 751 3078 
Q 1150 3584 1784 3584 
Q 2172 3584 2448 3432 
Q 2725 3281 2906 2969 
z
M 947 1747 
Q 947 1113 1208 752 
Q 1469 391 1925 391 
Q 2381 391 2643 752 
Q 2906 1113 2906 1747 
Q 2906 2381 2643 2742 
Q 2381 3103 1925 3103 
Q 1469 3103 1208 2742 
Q 947 2381 947 1747 
z
" transform="scale(0.015625)"/>
      </defs>
      <use xlink:href="#DejaVuSans-41"/>
      <use xlink:href="#DejaVuSans-6d" transform="translate(68.408203 0)"/>
      <use xlink:href="#DejaVuSans-70" transform="translate(165.820312 0)"/>
      <use xlink:href="#DejaVuSans-6c" transform="translate(229.296875 0)"/>
      <use xlink:href="#DejaVuSans-69" transform="translate(257.080078 0)"/>
      <use xlink:href="#DejaVuSans-74" transform="translate(284.863281 0)"/>
      <use xlink:href="#DejaVuSans-75" transform="translate(324.072266 0)"/>
      <use xlink:href="#DejaVuSans-64" transform="translate(387.451172 0)"/>
      <use xlink:href="#DejaVuSans-65" transform="translate(450.927734 0)"/>
     </g>
    </g>
   </g>
   <g id="line2d_23">
    <path d="M 60.686177 100.165768 
L 64.632081 101.454282 
L 68.577985 101.824077 
L 72.523889 100.478772 
L 76.469793 100.346439 
L 80.415697 101.101087 
L 84.361601 101.180716 
L 92.253408 99.155311 
L 96.199312 100.755264 
L 100.145216 101.359529 
L 104.09112 99.965819 
L 108.037024 101.924851 
L 111.982928 99.042642 
L 115.928831 97.418781 
L 119.874735 122.377182 
L 123.820639 150.496735 
L 127.766543 150.145439 
L 131.712447 154.302227 
L 135.658351 173.172249 
L 139.604255 166.716511 
L 143.550158 149.578382 
L 147.496062 160.92176 
L 151.441966 175.165094 
L 155.38787 162.622565 
L 159.333774 150.88052 
L 163.279678 163.049259 
L 167.225581 174.398211 
L 171.171485 164.472264 
L 175.117389 153.987926 
L 179.063293 162.384293 
L 183.009197 172.225352 
L 186.955101 164.641291 
L 190.901005 155.860178 
L 198.792812 172.697094 
L 202.738716 164.993988 
L 206.68462 158.773982 
L 210.630524 166.885183 
L 214.576428 172.420337 
L 218.522332 165.893984 
L 222.468235 160.973703 
L 226.414139 164.895978 
L 230.360043 168.092816 
L 238.251851 161.656759 
L 242.197755 163.916275 
L 246.143658 167.663786 
L 250.089562 165.757091 
L 254.035466 162.056353 
L 257.98137 166.105267 
L 261.927274 159.338187 
L 265.873178 114.271037 
L 269.819082 70.630213 
L 273.764985 89.892353 
L 277.710889 128.570193 
L 281.656793 108.174763 
L 285.602697 68.224386 
L 289.548601 84.015305 
L 293.494505 132.556585 
L 297.440409 161.722005 
L 301.386312 159.011938 
L 305.332216 121.405596 
L 309.27812 82.606682 
L 313.224024 100.54814 
L 317.169928 141.710515 
L 321.115832 125.063515 
L 325.061735 85.666532 
L 329.007639 106.58957 
L 332.953543 147.588089 
L 336.899447 129.494564 
L 340.845351 91.449802 
L 344.791255 109.378504 
L 348.737159 157.905781 
L 352.683062 168.172604 
L 356.628966 150.001826 
L 360.57487 155.783934 
L 364.520774 166.766049 
L 368.466678 135.175032 
L 372.412582 97.975981 
L 376.358486 114.876877 
L 380.304389 157.909862 
L 384.250293 168.362995 
L 388.196197 137.170139 
L 392.142101 85.103803 
L 396.088005 41.52769 
L 400.033909 35.143336 
L 403.979812 69.012556 
L 407.925716 121.374335 
L 411.87162 154.902789 
L 415.817524 139.728143 
L 419.763428 109.027721 
L 423.709332 123.208133 
L 427.655236 157.133517 
L 431.601139 144.658804 
L 435.547043 112.967447 
L 439.492947 127.115306 
L 443.438851 158.346972 
L 447.384755 145.019276 
L 451.330659 115.526974 
L 455.276563 129.668924 
L 459.222466 160.63207 
L 463.16837 148.989664 
L 467.114274 120.140443 
L 471.060178 134.213666 
L 475.006082 166.837213 
L 478.951986 156.756692 
L 482.897889 126.815583 
L 486.843793 135.686112 
L 490.789697 161.881049 
L 494.735601 152.455446 
L 498.681505 112.583203 
L 502.627409 68.697385 
L 506.573313 39.455511 
L 510.519216 49.696172 
L 514.46512 79.628644 
L 518.411024 71.761067 
L 522.356928 41.655792 
L 526.302832 53.239434 
L 530.248736 85.168762 
L 534.194639 73.027187 
L 538.140543 40.297897 
L 542.086447 45.714176 
L 546.032351 66.611085 
L 549.978255 54.336862 
L 553.924159 33.434189 
L 557.870063 45.878848 
L 561.815966 63.693127 
L 569.707774 31.243124 
L 573.653678 59.69765 
L 577.599582 95.511023 
L 581.545486 83.082529 
L 585.49139 50.917637 
L 589.437293 60.881711 
L 593.383197 109.946678 
L 597.329101 154.004565 
L 601.275005 169.707683 
L 605.220909 159.578543 
L 609.166813 149.045263 
L 613.112716 160.39242 
L 617.05862 167.630069 
L 621.004524 136.422636 
L 624.950428 83.239969 
L 628.896332 41.847267 
L 632.842236 34.017329 
L 636.78814 69.848724 
L 640.734043 109.45229 
L 644.679947 95.996716 
L 648.625851 51.622401 
L 652.571755 36.676515 
L 656.517659 58.705091 
L 660.463563 100.694487 
L 664.409467 146.067136 
L 668.35537 165.039715 
L 672.301274 158.492596 
L 676.247178 160.353398 
L 680.193082 169.545883 
L 684.138986 163.605345 
L 688.08489 156.501086 
L 692.030794 165.298845 
L 695.976697 160.102742 
L 699.922601 116.671916 
L 703.868505 78.347106 
L 707.814409 92.548106 
L 711.760313 136.49741 
L 715.706217 164.127327 
L 719.65212 156.069949 
L 723.598024 115.209155 
L 727.543928 79.63992 
L 731.489832 93.847674 
L 735.435736 142.330186 
L 739.38164 170.296096 
L 743.327544 151.842129 
L 751.219351 57.754376 
L 755.165255 30.574366 
L 759.111159 46.259745 
L 763.057063 99.523463 
L 767.002967 128.804306 
L 770.948871 110.677732 
L 774.894774 96.155463 
L 778.840678 101.849986 
L 782.786582 101.971574 
L 786.732486 99.94387 
L 790.67839 102.961405 
L 794.624294 101.803655 
L 798.570197 99.546998 
L 802.516101 100.584667 
L 806.462005 100.314957 
L 810.407909 99.460693 
L 814.353813 100.267429 
L 818.299717 100.780358 
L 822.245621 100.033806 
L 826.191524 99.544224 
L 834.083332 101.453226 
L 841.97514 100.762099 
L 845.921044 100.852627 
L 849.866947 100.620241 
L 849.866947 100.620241 
" clip-path="url(#peccb542d1b)" style="fill: none; stroke: #1f77b4; stroke-width: 1.5; stroke-linecap: square"/>
   </g>
   <g id="line2d_24">
    <path d="M 60.686177 98.846177 
L 64.632081 99.745626 
L 68.577985 100.35318 
L 72.523889 100.740067 
L 76.469793 100.326233 
L 80.415697 99.170917 
L 84.361601 99.423367 
L 88.307504 100.430802 
L 92.253408 100.755686 
L 96.199312 100.820717 
L 100.145216 99.974947 
L 104.09112 100.17676 
L 108.037024 101.704668 
L 111.982928 99.392176 
L 115.928831 99.865868 
L 119.874735 103.774601 
L 123.820639 83.332815 
L 127.766543 49.118588 
L 131.712447 60.378463 
L 135.658351 99.542374 
L 139.604255 87.691738 
L 143.550158 48.999724 
L 147.496062 66.014109 
L 151.441966 106.127291 
L 155.38787 88.585731 
L 159.333774 49.601676 
L 163.279678 67.499526 
L 167.225581 107.744123 
L 171.171485 92.623383 
L 175.117389 53.241538 
L 179.063293 69.32613 
L 183.009197 111.522913 
L 186.955101 97.303607 
L 190.901005 56.825361 
L 194.846908 73.630308 
L 198.792812 115.466114 
L 202.738716 99.748372 
L 206.68462 59.655269 
L 210.630524 76.649953 
L 214.576428 117.533576 
L 218.522332 101.032054 
L 222.468235 61.080193 
L 226.414139 79.768545 
L 230.360043 122.077243 
L 234.305947 105.818219 
L 238.251851 66.558239 
L 242.197755 85.245495 
L 246.143658 126.287281 
L 250.089562 110.870958 
L 254.035466 71.918683 
L 257.98137 85.936175 
L 261.927274 137.05153 
L 265.873178 165.685317 
L 269.819082 164.410041 
L 273.764985 159.875997 
L 277.710889 164.041003 
L 281.656793 167.206583 
L 285.602697 163.0231 
L 289.548601 162.19484 
L 293.494505 157.594253 
L 297.440409 123.050557 
L 301.386312 71.819521 
L 305.332216 40.708015 
L 309.27812 31.427454 
L 313.224024 33.463343 
L 317.169928 42.754258 
L 321.115832 42.020545 
L 325.061735 31.649794 
L 329.007639 35.411014 
L 332.953543 47.108335 
L 336.899447 44.230959 
L 340.845351 32.82364 
L 344.791255 32.363765 
L 348.737159 57.798648 
L 352.683062 108.760777 
L 356.628966 147.693518 
L 360.57487 134.135101 
L 364.520774 84.915981 
L 368.466678 47.646748 
L 372.412582 34.504165 
L 376.358486 35.886856 
L 380.304389 62.342761 
L 384.250293 115.306305 
L 388.196197 159.145923 
L 392.142101 164.545335 
L 396.088005 134.636994 
L 400.033909 83.926985 
L 403.979812 40.828627 
L 407.925716 37.910315 
L 411.87162 57.747065 
L 415.817524 52.353934 
L 419.763428 31.493267 
L 423.709332 40.14749 
L 427.655236 62.813955 
L 431.601139 54.534406 
L 435.547043 33.122965 
L 439.492947 43.222789 
L 443.438851 66.782459 
L 447.384755 58.17191 
L 451.330659 34.809591 
L 455.276563 43.030691 
L 459.222466 66.8204 
L 463.16837 60.792623 
L 467.114274 36.438791 
L 471.060178 40.78307 
L 475.006082 84.739372 
L 478.951986 136.509717 
L 482.897889 161.46733 
L 486.843793 149.553104 
L 490.789697 112.38294 
L 494.735601 67.528642 
L 498.681505 39.531675 
L 502.627409 50.055235 
L 506.573313 73.929615 
L 510.519216 62.172525 
L 514.46512 35.392445 
L 518.411024 48.033451 
L 522.356928 72.253372 
L 526.302832 57.581844 
L 530.248736 35.086996 
L 534.194639 45.095392 
L 538.140543 77.808382 
L 542.086447 123.106358 
L 546.032351 158.125508 
L 549.978255 143.849186 
L 553.924159 110.447699 
L 557.870063 121.968234 
L 561.815966 153.902347 
L 565.76187 142.755564 
L 569.707774 95.686686 
L 573.653678 53.024521 
L 577.599582 33.386288 
L 581.545486 43.170668 
L 585.49139 59.27282 
L 589.437293 46.232818 
L 593.383197 31.213166 
L 597.329101 62.499446 
L 601.275005 101.757229 
L 605.220909 86.527677 
L 609.166813 51.983842 
L 613.112716 66.504385 
L 617.05862 119.172611 
L 621.004524 159.691223 
L 624.950428 166.220572 
L 628.896332 135.351212 
L 632.842236 82.029815 
L 636.78814 42.827847 
L 640.734043 32.379678 
L 644.679947 37.291469 
L 648.625851 59.423093 
L 652.571755 104.169188 
L 656.517659 147.455362 
L 660.463563 163.826063 
L 664.409467 147.003528 
L 668.35537 100.893471 
L 672.301274 63.776726 
L 676.247178 81.540077 
L 680.193082 118.073755 
L 684.138986 104.094244 
L 688.08489 66.833479 
L 692.030794 79.259889 
L 695.976697 131.702038 
L 699.922601 164.533117 
L 703.868505 165.968599 
L 707.814409 161.932656 
L 711.760313 151.653151 
L 715.706217 114.694459 
L 719.65212 66.161494 
L 723.598024 41.370781 
L 727.543928 37.785135 
L 731.489832 36.13171 
L 735.435736 49.4215 
L 739.38164 93.287381 
L 743.327544 143.910409 
L 747.273447 166.179713 
L 751.219351 151.600297 
L 755.165255 107.540279 
L 759.111159 53.296322 
L 763.057063 32.955946 
L 767.002967 64.465913 
L 770.948871 99.280526 
L 774.894774 102.254955 
L 778.840678 97.852144 
L 782.786582 101.098569 
L 786.732486 101.476931 
L 790.67839 100.632648 
L 794.624294 101.324157 
L 798.570197 100.749492 
L 806.462005 101.180504 
L 810.407909 101.012692 
L 814.353813 101.718425 
L 818.299717 100.089046 
L 822.245621 98.080182 
L 826.191524 99.617599 
L 830.137428 100.276952 
L 834.083332 98.948051 
L 841.97514 99.06949 
L 845.921044 99.446195 
L 849.866947 101.068242 
L 849.866947 101.068242 
" clip-path="url(#peccb542d1b)" style="fill: none; stroke: #ff7f0e; stroke-width: 1.5; stroke-linecap: square"/>
   </g>
   <g id="line2d_25">
    <path d="M 60.686177 98.81498 
L 64.632081 99.268609 
L 68.577985 99.143763 
L 72.523889 100.234338 
L 76.469793 100.273338 
L 80.415697 99.034841 
L 84.361601 99.217329 
L 88.307504 100.204437 
L 92.253408 99.128535 
L 96.199312 100.059486 
L 100.145216 99.475687 
L 104.09112 99.880368 
L 108.037024 98.603482 
L 111.982928 98.674486 
L 115.928831 97.356492 
L 119.874735 78.351906 
L 123.820639 47.61742 
L 127.766543 29.040261 
L 131.712447 33.369719 
L 135.658351 27.796154 
L 139.604255 33.033302 
L 143.550158 29.347238 
L 147.496062 30.911949 
L 151.441966 25.596781 
L 155.38787 37.222429 
L 159.333774 28.871473 
L 163.279678 29.761088 
L 167.225581 26.220934 
L 171.171485 36.020853 
L 175.117389 29.111649 
L 179.063293 31.188946 
L 183.009197 27.905343 
L 186.955101 36.254311 
L 190.901005 29.971167 
L 194.846908 31.36127 
L 198.792812 26.740253 
L 202.738716 35.97633 
L 206.68462 29.321319 
L 210.630524 29.940129 
L 214.576428 26.56203 
L 218.522332 35.078295 
L 222.468235 28.296371 
L 226.414139 32.828226 
L 230.360043 29.51801 
L 234.305947 35.887454 
L 238.251851 30.538109 
L 242.197755 35.252696 
L 246.143658 28.526702 
L 250.089562 34.396659 
L 254.035466 32.613012 
L 257.98137 33.275261 
L 261.927274 31.202542 
L 265.873178 33.848124 
L 269.819082 29.935419 
L 273.764985 40.160889 
L 277.710889 31.005434 
L 281.656793 33.326544 
L 285.602697 30.119502 
L 289.548601 36.619056 
L 293.494505 34.991874 
L 297.440409 35.227834 
L 301.386312 35.31844 
L 305.332216 37.153743 
L 309.27812 29.150222 
L 313.224024 33.46332 
L 317.169928 29.547465 
L 321.115832 37.065269 
L 325.061735 30.072404 
L 329.007639 35.125532 
L 332.953543 29.298812 
L 336.899447 37.192757 
L 340.845351 32.222765 
L 344.791255 31.785991 
L 348.737159 28.938661 
L 352.683062 32.298168 
L 356.628966 32.075866 
L 360.57487 35.757858 
L 364.520774 32.403929 
L 368.466678 37.278402 
L 372.412582 34.456396 
L 376.358486 34.303629 
L 380.304389 31.549931 
L 384.250293 31.0127 
L 388.196197 31.302961 
L 392.142101 34.607943 
L 396.088005 32.351851 
L 400.033909 33.077535 
L 403.979812 33.034978 
L 407.925716 34.516488 
L 411.87162 31.293534 
L 415.817524 38.385226 
L 419.763428 30.966691 
L 423.709332 36.011487 
L 427.655236 32.457312 
L 431.601139 36.747258 
L 435.547043 31.97666 
L 439.492947 37.334498 
L 443.438851 33.5264 
L 447.384755 39.05691 
L 451.330659 33.109601 
L 455.276563 36.044838 
L 459.222466 31.560825 
L 463.16837 37.812344 
L 467.114274 33.49134 
L 471.060178 31.915695 
L 475.006082 32.294091 
L 478.951986 33.675121 
L 482.897889 34.066295 
L 486.843793 40.101727 
L 490.789697 37.951664 
L 494.735601 38.948979 
L 498.681505 38.343112 
L 502.627409 40.871942 
L 506.573313 33.927635 
L 510.519216 36.865296 
L 514.46512 32.132175 
L 518.411024 40.682605 
L 522.356928 35.231656 
L 526.302832 36.665378 
L 530.248736 33.316947 
L 534.194639 38.662381 
L 538.140543 36.167037 
L 542.086447 41.227546 
L 546.032351 33.630996 
L 549.978255 37.161796 
L 553.924159 32.698429 
L 557.870063 41.805829 
L 561.815966 35.626042 
L 565.76187 32.658628 
L 569.707774 31.076915 
L 573.653678 37.905281 
L 577.599582 33.20202 
L 581.545486 40.586367 
L 585.49139 36.021937 
L 593.383197 30.570305 
L 597.329101 34.858194 
L 601.275005 31.255215 
L 605.220909 39.769499 
L 609.166813 31.854476 
L 613.112716 31.61447 
L 617.05862 30.792969 
L 621.004524 31.230809 
L 624.950428 32.528931 
L 628.896332 32.265987 
L 632.842236 31.502262 
L 636.78814 35.19309 
L 640.734043 31.792183 
L 644.679947 37.132128 
L 648.625851 36.659043 
L 652.571755 36.570375 
L 656.517659 37.624312 
L 660.463563 37.148145 
L 664.409467 35.362125 
L 668.35537 35.933556 
L 672.301274 31.841219 
L 676.247178 37.694368 
L 680.193082 29.224552 
L 684.138986 37.266226 
L 688.08489 35.141082 
L 692.030794 32.287999 
L 695.976697 33.194145 
L 699.922601 34.428114 
L 703.868505 31.364265 
L 707.814409 38.531117 
L 711.760313 37.919896 
L 715.706217 35.280676 
L 719.65212 35.159689 
L 723.598024 39.565245 
L 727.543928 34.410263 
L 731.489832 35.790108 
L 735.435736 34.468016 
L 739.38164 30.308148 
L 743.327544 33.234842 
L 747.273447 34.658283 
L 751.219351 33.864145 
L 755.165255 30.219504 
L 759.111159 28.601178 
L 763.057063 32.949074 
L 767.002967 54.668141 
L 770.948871 90.225613 
L 774.894774 95.808676 
L 778.840678 97.520644 
L 782.786582 98.882024 
L 786.732486 99.358245 
L 790.67839 98.008876 
L 794.624294 98.927392 
L 802.516101 100.02978 
L 806.462005 99.772949 
L 810.407909 99.334047 
L 814.353813 99.236648 
L 818.299717 99.992821 
L 822.245621 98.03784 
L 830.137428 100.27695 
L 834.083332 98.670059 
L 841.97514 99.0431 
L 845.921044 99.383948 
L 849.866947 99.891285 
L 849.866947 99.891285 
" clip-path="url(#peccb542d1b)" style="fill: none; stroke: #2ca02c; stroke-width: 1.2; stroke-linecap: square"/>
   </g>
   <g id="patch_3">
    <path d="M 60.686177 182.64351 
L 60.686177 18.118365 
" style="fill: none; stroke: #000000; stroke-width: 0.8; stroke-linejoin: miter; stroke-linecap: square"/>
   </g>
   <g id="patch_4">
    <path d="M 849.866947 182.64351 
L 849.866947 18.118365 
" style="fill: none; stroke: #000000; stroke-width: 0.8; stroke-linejoin: miter; stroke-linecap: square"/>
   </g>
   <g id="patch_5">
    <path d="M 60.686177 182.64351 
L 849.866947 182.64351 
" style="fill: none; stroke: #000000; stroke-width: 0.8; stroke-linejoin: miter; stroke-linecap: square"/>
   </g>
   <g id="patch_6">
    <path d="M 60.686177 18.118365 
L 849.866947 18.118365 
" style="fill: none; stroke: #000000; stroke-width: 0.8; stroke-linejoin: miter; stroke-linecap: square"/>
   </g>
   <g id="text_14">
    <!-- Het Pre - Channel 33 IQ Plot (1.14 ms to 1.24 ms) -->
    <g transform="translate(306.610625 12.118365) scale(0.12 -0.12)">
     <defs>
      <path id="DejaVuSans-48" d="M 628 4666 
L 1259 4666 
L 1259 2753 
L 3553 2753 
L 3553 4666 
L 4184 4666 
L 4184 0 
L 3553 0 
L 3553 2222 
L 1259 2222 
L 1259 0 
L 628 0 
L 628 4666 
z
" transform="scale(0.015625)"/>
      <path id="DejaVuSans-50" d="M 1259 4147 
L 1259 2394 
L 2053 2394 
Q 2494 2394 2734 2622 
Q 2975 2850 2975 3272 
Q 2975 3691 2734 3919 
Q 2494 4147 2053 4147 
L 1259 4147 
z
M 628 4666 
L 2053 4666 
Q 2838 4666 3239 4311 
Q 3641 3956 3641 3272 
Q 3641 2581 3239 2228 
Q 2838 1875 2053 1875 
L 1259 1875 
L 1259 0 
L 628 0 
L 628 4666 
z
" transform="scale(0.015625)"/>
      <path id="DejaVuSans-72" d="M 2631 2963 
Q 2534 3019 2420 3045 
Q 2306 3072 2169 3072 
Q 1681 3072 1420 2755 
Q 1159 2438 1159 1844 
L 1159 0 
L 581 0 
L 581 3500 
L 1159 3500 
L 1159 2956 
Q 1341 3275 1631 3429 
Q 1922 3584 2338 3584 
Q 2397 3584 2469 3576 
Q 2541 3569 2628 3553 
L 2631 2963 
z
" transform="scale(0.015625)"/>
      <path id="DejaVuSans-2d" d="M 313 2009 
L 1997 2009 
L 1997 1497 
L 313 1497 
L 313 2009 
z
" transform="scale(0.015625)"/>
      <path id="DejaVuSans-43" d="M 4122 4306 
L 4122 3641 
Q 3803 3938 3442 4084 
Q 3081 4231 2675 4231 
Q 1875 4231 1450 3742 
Q 1025 3253 1025 2328 
Q 1025 1406 1450 917 
Q 1875 428 2675 428 
Q 3081 428 3442 575 
Q 3803 722 4122 1019 
L 4122 359 
Q 3791 134 3420 21 
Q 3050 -91 2638 -91 
Q 1578 -91 968 557 
Q 359 1206 359 2328 
Q 359 3453 968 4101 
Q 1578 4750 2638 4750 
Q 3056 4750 3426 4639 
Q 3797 4528 4122 4306 
z
" transform="scale(0.015625)"/>
      <path id="DejaVuSans-68" d="M 3513 2113 
L 3513 0 
L 2938 0 
L 2938 2094 
Q 2938 2591 2744 2837 
Q 2550 3084 2163 3084 
Q 1697 3084 1428 2787 
Q 1159 2491 1159 1978 
L 1159 0 
L 581 0 
L 581 4863 
L 1159 4863 
L 1159 2956 
Q 1366 3272 1645 3428 
Q 1925 3584 2291 3584 
Q 2894 3584 3203 3211 
Q 3513 2838 3513 2113 
z
" transform="scale(0.015625)"/>
      <path id="DejaVuSans-61" d="M 2194 1759 
Q 1497 1759 1228 1600 
Q 959 1441 959 1056 
Q 959 750 1161 570 
Q 1363 391 1709 391 
Q 2188 391 2477 730 
Q 2766 1069 2766 1631 
L 2766 1759 
L 2194 1759 
z
M 3341 1997 
L 3341 0 
L 2766 0 
L 2766 531 
Q 2569 213 2275 61 
Q 1981 -91 1556 -91 
Q 1019 -91 701 211 
Q 384 513 384 1019 
Q 384 1609 779 1909 
Q 1175 2209 1959 2209 
L 2766 2209 
L 2766 2266 
Q 2766 2663 2505 2880 
Q 2244 3097 1772 3097 
Q 1472 3097 1187 3025 
Q 903 2953 641 2809 
L 641 3341 
Q 956 3463 1253 3523 
Q 1550 3584 1831 3584 
Q 2591 3584 2966 3190 
Q 3341 2797 3341 1997 
z
" transform="scale(0.015625)"/>
      <path id="DejaVuSans-6e" d="M 3513 2113 
L 3513 0 
L 2938 0 
L 2938 2094 
Q 2938 2591 2744 2837 
Q 2550 3084 2163 3084 
Q 1697 3084 1428 2787 
Q 1159 2491 1159 1978 
L 1159 0 
L 581 0 
L 581 3500 
L 1159 3500 
L 1159 2956 
Q 1366 3272 1645 3428 
Q 1925 3584 2291 3584 
Q 2894 3584 3203 3211 
Q 3513 2838 3513 2113 
z
" transform="scale(0.015625)"/>
      <path id="DejaVuSans-33" d="M 2597 2516 
Q 3050 2419 3304 2112 
Q 3559 1806 3559 1356 
Q 3559 666 3084 287 
Q 2609 -91 1734 -91 
Q 1441 -91 1130 -33 
Q 819 25 488 141 
L 488 750 
Q 750 597 1062 519 
Q 1375 441 1716 441 
Q 2309 441 2620 675 
Q 2931 909 2931 1356 
Q 2931 1769 2642 2001 
Q 2353 2234 1838 2234 
L 1294 2234 
L 1294 2753 
L 1863 2753 
Q 2328 2753 2575 2939 
Q 2822 3125 2822 3475 
Q 2822 3834 2567 4026 
Q 2313 4219 1838 4219 
Q 1578 4219 1281 4162 
Q 984 4106 628 3988 
L 628 4550 
Q 988 4650 1302 4700 
Q 1616 4750 1894 4750 
Q 2613 4750 3031 4423 
Q 3450 4097 3450 3541 
Q 3450 3153 3228 2886 
Q 3006 2619 2597 2516 
z
" transform="scale(0.015625)"/>
      <path id="DejaVuSans-49" d="M 628 4666 
L 1259 4666 
L 1259 0 
L 628 0 
L 628 4666 
z
" transform="scale(0.015625)"/>
      <path id="DejaVuSans-51" d="M 2522 4238 
Q 1834 4238 1429 3725 
Q 1025 3213 1025 2328 
Q 1025 1447 1429 934 
Q 1834 422 2522 422 
Q 3209 422 3611 934 
Q 4013 1447 4013 2328 
Q 4013 3213 3611 3725 
Q 3209 4238 2522 4238 
z
M 3406 84 
L 4238 -825 
L 3475 -825 
L 2784 -78 
Q 2681 -84 2626 -87 
Q 2572 -91 2522 -91 
Q 1538 -91 948 567 
Q 359 1225 359 2328 
Q 359 3434 948 4092 
Q 1538 4750 2522 4750 
Q 3503 4750 4090 4092 
Q 4678 3434 4678 2328 
Q 4678 1516 4351 937 
Q 4025 359 3406 84 
z
" transform="scale(0.015625)"/>
      <path id="DejaVuSans-6f" d="M 1959 3097 
Q 1497 3097 1228 2736 
Q 959 2375 959 1747 
Q 959 1119 1226 758 
Q 1494 397 1959 397 
Q 2419 397 2687 759 
Q 2956 1122 2956 1747 
Q 2956 2369 2687 2733 
Q 2419 3097 1959 3097 
z
M 1959 3584 
Q 2709 3584 3137 3096 
Q 3566 2609 3566 1747 
Q 3566 888 3137 398 
Q 2709 -91 1959 -91 
Q 1206 -91 779 398 
Q 353 888 353 1747 
Q 353 2609 779 3096 
Q 1206 3584 1959 3584 
z
" transform="scale(0.015625)"/>
     </defs>
     <use xlink:href="#DejaVuSans-48"/>
     <use xlink:href="#DejaVuSans-65" transform="translate(75.195312 0)"/>
     <use xlink:href="#DejaVuSans-74" transform="translate(136.71875 0)"/>
     <use xlink:href="#DejaVuSans-20" transform="translate(175.927734 0)"/>
     <use xlink:href="#DejaVuSans-50" transform="translate(207.714844 0)"/>
     <use xlink:href="#DejaVuSans-72" transform="translate(266.267578 0)"/>
     <use xlink:href="#DejaVuSans-65" transform="translate(305.130859 0)"/>
     <use xlink:href="#DejaVuSans-20" transform="translate(366.654297 0)"/>
     <use xlink:href="#DejaVuSans-2d" transform="translate(398.441406 0)"/>
     <use xlink:href="#DejaVuSans-20" transform="translate(434.525391 0)"/>
     <use xlink:href="#DejaVuSans-43" transform="translate(466.3125 0)"/>
     <use xlink:href="#DejaVuSans-68" transform="translate(536.136719 0)"/>
     <use xlink:href="#DejaVuSans-61" transform="translate(599.515625 0)"/>
     <use xlink:href="#DejaVuSans-6e" transform="translate(660.794922 0)"/>
     <use xlink:href="#DejaVuSans-6e" transform="translate(724.173828 0)"/>
     <use xlink:href="#DejaVuSans-65" transform="translate(787.552734 0)"/>
     <use xlink:href="#DejaVuSans-6c" transform="translate(849.076172 0)"/>
     <use xlink:href="#DejaVuSans-20" transform="translate(876.859375 0)"/>
     <use xlink:href="#DejaVuSans-33" transform="translate(908.646484 0)"/>
     <use xlink:href="#DejaVuSans-33" transform="translate(972.269531 0)"/>
     <use xlink:href="#DejaVuSans-20" transform="translate(1035.892578 0)"/>
     <use xlink:href="#DejaVuSans-49" transform="translate(1067.679688 0)"/>
     <use xlink:href="#DejaVuSans-51" transform="translate(1097.171875 0)"/>
     <use xlink:href="#DejaVuSans-20" transform="translate(1175.882812 0)"/>
     <use xlink:href="#DejaVuSans-50" transform="translate(1207.669922 0)"/>
     <use xlink:href="#DejaVuSans-6c" transform="translate(1267.972656 0)"/>
     <use xlink:href="#DejaVuSans-6f" transform="translate(1295.755859 0)"/>
     <use xlink:href="#DejaVuSans-74" transform="translate(1356.9375 0)"/>
     <use xlink:href="#DejaVuSans-20" transform="translate(1396.146484 0)"/>
     <use xlink:href="#DejaVuSans-28" transform="translate(1427.933594 0)"/>
     <use xlink:href="#DejaVuSans-31" transform="translate(1466.947266 0)"/>
     <use xlink:href="#DejaVuSans-2e" transform="translate(1530.570312 0)"/>
     <use xlink:href="#DejaVuSans-31" transform="translate(1562.357422 0)"/>
     <use xlink:href="#DejaVuSans-34" transform="translate(1625.980469 0)"/>
     <use xlink:href="#DejaVuSans-20" transform="translate(1689.603516 0)"/>
     <use xlink:href="#DejaVuSans-6d" transform="translate(1721.390625 0)"/>
     <use xlink:href="#DejaVuSans-73" transform="translate(1818.802734 0)"/>
     <use xlink:href="#DejaVuSans-20" transform="translate(1870.902344 0)"/>
     <use xlink:href="#DejaVuSans-74" transform="translate(1902.689453 0)"/>
     <use xlink:href="#DejaVuSans-6f" transform="translate(1941.898438 0)"/>
     <use xlink:href="#DejaVuSans-20" transform="translate(2003.080078 0)"/>
     <use xlink:href="#DejaVuSans-31" transform="translate(2034.867188 0)"/>
     <use xlink:href="#DejaVuSans-2e" transform="translate(2098.490234 0)"/>
     <use xlink:href="#DejaVuSans-32" transform="translate(2130.277344 0)"/>
     <use xlink:href="#DejaVuSans-34" transform="translate(2193.900391 0)"/>
     <use xlink:href="#DejaVuSans-20" transform="translate(2257.523438 0)"/>
     <use xlink:href="#DejaVuSans-6d" transform="translate(2289.310547 0)"/>
     <use xlink:href="#DejaVuSans-73" transform="translate(2386.722656 0)"/>
     <use xlink:href="#DejaVuSans-29" transform="translate(2438.822266 0)"/>
    </g>
   </g>
   <g id="legend_1">
    <g id="patch_7">
     <path d="M 793.307572 70.474615 
L 842.866947 70.474615 
Q 844.866947 70.474615 844.866947 68.474615 
L 844.866947 25.118365 
Q 844.866947 23.118365 842.866947 23.118365 
L 793.307572 23.118365 
Q 791.307572 23.118365 791.307572 25.118365 
L 791.307572 68.474615 
Q 791.307572 70.474615 793.307572 70.474615 
z
" style="fill: #ffffff; opacity: 0.8; stroke: #cccccc; stroke-linejoin: miter"/>
    </g>
    <g id="line2d_26">
     <path d="M 795.307572 31.216803 
L 805.307572 31.216803 
L 815.307572 31.216803 
" style="fill: none; stroke: #1f77b4; stroke-width: 1.5; stroke-linecap: square"/>
    </g>
    <g id="text_15">
     <!-- I -->
     <g transform="translate(823.307572 34.716803) scale(0.1 -0.1)">
      <use xlink:href="#DejaVuSans-49"/>
     </g>
    </g>
    <g id="line2d_27">
     <path d="M 795.307572 45.894927 
L 805.307572 45.894927 
L 815.307572 45.894927 
" style="fill: none; stroke: #ff7f0e; stroke-width: 1.5; stroke-linecap: square"/>
    </g>
    <g id="text_16">
     <!-- Q -->
     <g transform="translate(823.307572 49.394927) scale(0.1 -0.1)">
      <use xlink:href="#DejaVuSans-51"/>
     </g>
    </g>
    <g id="line2d_28">
     <path d="M 795.307572 60.616803 
L 805.307572 60.616803 
L 815.307572 60.616803 
" style="fill: none; stroke: #2ca02c; stroke-width: 1.2; stroke-linecap: square"/>
    </g>
    <g id="text_17">
     <!-- |IQ| -->
     <g transform="translate(823.307572 64.116803) scale(0.1 -0.1)">
      <defs>
       <path id="DejaVuSans-7c" d="M 1344 4891 
L 1344 -1509 
L 813 -1509 
L 813 4891 
L 1344 4891 
z
" transform="scale(0.015625)"/>
      </defs>
      <use xlink:href="#DejaVuSans-7c"/>
      <use xlink:href="#DejaVuSans-49" transform="translate(33.691406 0)"/>
      <use xlink:href="#DejaVuSans-51" transform="translate(63.183594 0)"/>
      <use xlink:href="#DejaVuSans-7c" transform="translate(141.894531 0)"/>
     </g>
    </g>
   </g>
  </g>
 </g>
 <defs>
  <clipPath id="peccb542d1b">
   <rect x="60.686177" y="18.118365" width="789.18077" height="164.525145"/>
  </clipPath>
 </defs>
</svg>
