<?xml version="1.0" encoding="utf-8" standalone="no"?>
<!DOCTYPE svg PUBLIC "-//W3C//DTD SVG 1.1//EN"
  "http://www.w3.org/Graphics/SVG/1.1/DTD/svg11.dtd">
<svg xmlns:xlink="http://www.w3.org/1999/xlink" width="864pt" height="432pt" viewBox="0 0 864 432" xmlns="http://www.w3.org/2000/svg" version="1.1">
 <metadata>
  <rdf:RDF xmlns:dc="http://purl.org/dc/elements/1.1/" xmlns:cc="http://creativecommons.org/ns#" xmlns:rdf="http://www.w3.org/1999/02/22-rdf-syntax-ns#">
   <cc:Work>
    <dc:type rdf:resource="http://purl.org/dc/dcmitype/StillImage"/>
    <dc:date>2026-03-03T23:33:36.019756</dc:date>
    <dc:format>image/svg+xml</dc:format>
    <dc:creator>
     <cc:Agent>
      <dc:title>Matplotlib v3.10.8, https://matplotlib.org/</dc:title>
     </cc:Agent>
    </dc:creator>
   </cc:Work>
  </rdf:RDF>
 </metadata>
 <defs>
  <style type="text/css">*{stroke-linejoin: round; stroke-linecap: butt}</style>
 </defs>
 <g id="figure_1">
  <g id="patch_1">
   <path d="M 0 432 
L 864 432 
L 864 0 
L 0 0 
z
" style="fill: #ffffff"/>
  </g>
  <g id="axes_1">
   <g id="patch_2">
    <path d="M 60.686177 203.630697 
L 860.99976 203.630697 
L 860.99976 18.118365 
L 60.686177 18.118365 
z
" style="fill: #ffffff"/>
   </g>
   <g id="matplotlib.axis_1">
    <g id="xtick_1">
     <g id="line2d_1">
      <path d="M 140.717536 203.630697 
L 140.717536 18.118365 
" clip-path="url(#pecb7935159)" style="fill: none; stroke: #b0b0b0; stroke-opacity: 0.3; stroke-width: 0.8; stroke-linecap: square"/>
     </g>
     <g id="line2d_2">
      <defs>
       <path id="m00c078bb11" d="M 0 0 
L 0 3.5 
" style="stroke: #000000; stroke-width: 0.8"/>
      </defs>
      <g>
       <use xlink:href="#m00c078bb11" x="140.717536" y="203.630697" style="stroke: #000000; stroke-width: 0.8"/>
      </g>
     </g>
    </g>
    <g id="xtick_2">
     <g id="line2d_3">
      <path d="M 300.780252 203.630697 
L 300.780252 18.118365 
" clip-path="url(#pecb7935159)" style="fill: none; stroke: #b0b0b0; stroke-opacity: 0.3; stroke-width: 0.8; stroke-linecap: square"/>
     </g>
     <g id="line2d_4">
      <g>
       <use xlink:href="#m00c078bb11" x="300.780252" y="203.630697" style="stroke: #000000; stroke-width: 0.8"/>
      </g>
     </g>
    </g>
    <g id="xtick_3">
     <g id="line2d_5">
      <path d="M 460.842969 203.630697 
L 460.842969 18.118365 
" clip-path="url(#pecb7935159)" style="fill: none; stroke: #b0b0b0; stroke-opacity: 0.3; stroke-width: 0.8; stroke-linecap: square"/>
     </g>
     <g id="line2d_6">
      <g>
       <use xlink:href="#m00c078bb11" x="460.842969" y="203.630697" style="stroke: #000000; stroke-width: 0.8"/>
      </g>
     </g>
    </g>
    <g id="xtick_4">
     <g id="line2d_7">
      <path d="M 620.905685 203.630697 
L 620.905685 18.118365 
" clip-path="url(#pecb7935159)" style="fill: none; stroke: #b0b0b0; stroke-opacity: 0.3; stroke-width: 0.8; stroke-linecap: square"/>
     </g>
     <g id="line2d_8">
      <g>
       <use xlink:href="#m00c078bb11" x="620.905685" y="203.630697" style="stroke: #000000; stroke-width: 0.8"/>
      </g>
     </g>
    </g>
    <g id="xtick_5">
     <g id="line2d_9">
      <path d="M 780.968402 203.630697 
L 780.968402 18.118365 
" clip-path="url(#pecb7935159)" style="fill: none; stroke: #b0b0b0; stroke-opacity: 0.3; stroke-width: 0.8; stroke-linecap: square"/>
     </g>
     <g id="line2d_10">
      <g>
       <use xlink:href="#m00c078bb11" x="780.968402" y="203.630697" style="stroke: #000000; stroke-width: 0.8"/>
      </g>
     </g>
    </g>
   </g>
   <g id="matplotlib.axis_2">
    <g id="ytick_1">
     <g id="line2d_11">
      <path d="M 60.686177 185.777083 
L 860.99976 185.777083 
" clip-path="url(#pecb7935159)" style="fill: none; stroke: #b0b0b0; stroke-opacity: 0.3; stroke-width: 0.8; stroke-linecap: square"/>
     </g>
     <g id="line2d_12">
      <defs>
       <path id="m4a28bf273e" d="M 0 0 
L -3.5 0 
" style="stroke: #000000; stroke-width: 0.8"/>
      </defs>
      <g>
       <use xlink:href="#m4a28bf273e" x="60.686177" y="185.777083" style="stroke: #000000; stroke-width: 0.8"/>
      </g>
     </g>
     <g id="text_1">
      <!-- −0.004 -->
      <g transform="translate(16.678365 189.576302) scale(0.1 -0.1)">
       <defs>
        <path id="DejaVuSans-2212" d="M 678 2272 
L 4684 2272 
L 4684 1741 
L 678 1741 
L 678 2272 
z
" transform="scale(0.015625)"/>
        <path id="DejaVuSans-30" d="M 2034 4250 
Q 1547 4250 1301 3770 
Q 1056 3291 1056 2328 
Q 1056 1369 1301 889 
Q 1547 409 2034 409 
Q 2525 409 2770 889 
Q 3016 1369 3016 2328 
Q 3016 3291 2770 3770 
Q 2525 4250 2034 4250 
z
M 2034 4750 
Q 2819 4750 3233 4129 
Q 3647 3509 3647 2328 
Q 3647 1150 3233 529 
Q 2819 -91 2034 -91 
Q 1250 -91 836 529 
Q 422 1150 422 2328 
Q 422 3509 836 4129 
Q 1250 4750 2034 4750 
z
" transform="scale(0.015625)"/>
        <path id="DejaVuSans-2e" d="M 684 794 
L 1344 794 
L 1344 0 
L 684 0 
L 684 794 
z
" transform="scale(0.015625)"/>
        <path id="DejaVuSans-34" d="M 2419 4116 
L 825 1625 
L 2419 1625 
L 2419 4116 
z
M 2253 4666 
L 3047 4666 
L 3047 1625 
L 3713 1625 
L 3713 1100 
L 3047 1100 
L 3047 0 
L 2419 0 
L 2419 1100 
L 313 1100 
L 313 1709 
L 2253 4666 
z
" transform="scale(0.015625)"/>
       </defs>
       <use xlink:href="#DejaVuSans-2212"/>
       <use xlink:href="#DejaVuSans-30" transform="translate(83.789062 0)"/>
       <use xlink:href="#DejaVuSans-2e" transform="translate(147.412109 0)"/>
       <use xlink:href="#DejaVuSans-30" transform="translate(179.199219 0)"/>
       <use xlink:href="#DejaVuSans-30" transform="translate(242.822266 0)"/>
       <use xlink:href="#DejaVuSans-34" transform="translate(306.445312 0)"/>
      </g>
     </g>
    </g>
    <g id="ytick_2">
     <g id="line2d_13">
      <path d="M 60.686177 148.385758 
L 860.99976 148.385758 
" clip-path="url(#pecb7935159)" style="fill: none; stroke: #b0b0b0; stroke-opacity: 0.3; stroke-width: 0.8; stroke-linecap: square"/>
     </g>
     <g id="line2d_14">
      <g>
       <use xlink:href="#m4a28bf273e" x="60.686177" y="148.385758" style="stroke: #000000; stroke-width: 0.8"/>
      </g>
     </g>
     <g id="text_2">
      <!-- −0.002 -->
      <g transform="translate(16.678365 152.184977) scale(0.1 -0.1)">
       <defs>
        <path id="DejaVuSans-32" d="M 1228 531 
L 3431 531 
L 3431 0 
L 469 0 
L 469 531 
Q 828 903 1448 1529 
Q 2069 2156 2228 2338 
Q 2531 2678 2651 2914 
Q 2772 3150 2772 3378 
Q 2772 3750 2511 3984 
Q 2250 4219 1831 4219 
Q 1534 4219 1204 4116 
Q 875 4013 500 3803 
L 500 4441 
Q 881 4594 1212 4672 
Q 1544 4750 1819 4750 
Q 2544 4750 2975 4387 
Q 3406 4025 3406 3419 
Q 3406 3131 3298 2873 
Q 3191 2616 2906 2266 
Q 2828 2175 2409 1742 
Q 1991 1309 1228 531 
z
" transform="scale(0.015625)"/>
       </defs>
       <use xlink:href="#DejaVuSans-2212"/>
       <use xlink:href="#DejaVuSans-30" transform="translate(83.789062 0)"/>
       <use xlink:href="#DejaVuSans-2e" transform="translate(147.412109 0)"/>
       <use xlink:href="#DejaVuSans-30" transform="translate(179.199219 0)"/>
       <use xlink:href="#DejaVuSans-30" transform="translate(242.822266 0)"/>
       <use xlink:href="#DejaVuSans-32" transform="translate(306.445312 0)"/>
      </g>
     </g>
    </g>
    <g id="ytick_3">
     <g id="line2d_15">
      <path d="M 60.686177 110.994433 
L 860.99976 110.994433 
" clip-path="url(#pecb7935159)" style="fill: none; stroke: #b0b0b0; stroke-opacity: 0.3; stroke-width: 0.8; stroke-linecap: square"/>
     </g>
     <g id="line2d_16">
      <g>
       <use xlink:href="#m4a28bf273e" x="60.686177" y="110.994433" style="stroke: #000000; stroke-width: 0.8"/>
      </g>
     </g>
     <g id="text_3">
      <!-- 0.000 -->
      <g transform="translate(25.058052 114.793651) scale(0.1 -0.1)">
       <use xlink:href="#DejaVuSans-30"/>
       <use xlink:href="#DejaVuSans-2e" transform="translate(63.623047 0)"/>
       <use xlink:href="#DejaVuSans-30" transform="translate(95.410156 0)"/>
       <use xlink:href="#DejaVuSans-30" transform="translate(159.033203 0)"/>
       <use xlink:href="#DejaVuSans-30" transform="translate(222.65625 0)"/>
      </g>
     </g>
    </g>
    <g id="ytick_4">
     <g id="line2d_17">
      <path d="M 60.686177 73.603107 
L 860.99976 73.603107 
" clip-path="url(#pecb7935159)" style="fill: none; stroke: #b0b0b0; stroke-opacity: 0.3; stroke-width: 0.8; stroke-linecap: square"/>
     </g>
     <g id="line2d_18">
      <g>
       <use xlink:href="#m4a28bf273e" x="60.686177" y="73.603107" style="stroke: #000000; stroke-width: 0.8"/>
      </g>
     </g>
     <g id="text_4">
      <!-- 0.002 -->
      <g transform="translate(25.058052 77.402326) scale(0.1 -0.1)">
       <use xlink:href="#DejaVuSans-30"/>
       <use xlink:href="#DejaVuSans-2e" transform="translate(63.623047 0)"/>
       <use xlink:href="#DejaVuSans-30" transform="translate(95.410156 0)"/>
       <use xlink:href="#DejaVuSans-30" transform="translate(159.033203 0)"/>
       <use xlink:href="#DejaVuSans-32" transform="translate(222.65625 0)"/>
      </g>
     </g>
    </g>
    <g id="ytick_5">
     <g id="line2d_19">
      <path d="M 60.686177 36.211782 
L 860.99976 36.211782 
" clip-path="url(#pecb7935159)" style="fill: none; stroke: #b0b0b0; stroke-opacity: 0.3; stroke-width: 0.8; stroke-linecap: square"/>
     </g>
     <g id="line2d_20">
      <g>
       <use xlink:href="#m4a28bf273e" x="60.686177" y="36.211782" style="stroke: #000000; stroke-width: 0.8"/>
      </g>
     </g>
     <g id="text_5">
      <!-- 0.004 -->
      <g transform="translate(25.058052 40.011) scale(0.1 -0.1)">
       <use xlink:href="#DejaVuSans-30"/>
       <use xlink:href="#DejaVuSans-2e" transform="translate(63.623047 0)"/>
       <use xlink:href="#DejaVuSans-30" transform="translate(95.410156 0)"/>
       <use xlink:href="#DejaVuSans-30" transform="translate(159.033203 0)"/>
       <use xlink:href="#DejaVuSans-34" transform="translate(222.65625 0)"/>
      </g>
     </g>
    </g>
    <g id="text_6">
     <!-- Amplitude -->
     <g transform="translate(10.598677 136.497187) rotate(-90) scale(0.1 -0.1)">
      <defs>
       <path id="DejaVuSans-41" d="M 2188 4044 
L 1331 1722 
L 3047 1722 
L 2188 4044 
z
M 1831 4666 
L 2547 4666 
L 4325 0 
L 3669 0 
L 3244 1197 
L 1141 1197 
L 716 0 
L 50 0 
L 1831 4666 
z
" transform="scale(0.015625)"/>
       <path id="DejaVuSans-6d" d="M 3328 2828 
Q 3544 3216 3844 3400 
Q 4144 3584 4550 3584 
Q 5097 3584 5394 3201 
Q 5691 2819 5691 2113 
L 5691 0 
L 5113 0 
L 5113 2094 
Q 5113 2597 4934 2840 
Q 4756 3084 4391 3084 
Q 3944 3084 3684 2787 
Q 3425 2491 3425 1978 
L 3425 0 
L 2847 0 
L 2847 2094 
Q 2847 2600 2669 2842 
Q 2491 3084 2119 3084 
Q 1678 3084 1418 2786 
Q 1159 2488 1159 1978 
L 1159 0 
L 581 0 
L 581 3500 
L 1159 3500 
L 1159 2956 
Q 1356 3278 1631 3431 
Q 1906 3584 2284 3584 
Q 2666 3584 2933 3390 
Q 3200 3197 3328 2828 
z
" transform="scale(0.015625)"/>
       <path id="DejaVuSans-70" d="M 1159 525 
L 1159 -1331 
L 581 -1331 
L 581 3500 
L 1159 3500 
L 1159 2969 
Q 1341 3281 1617 3432 
Q 1894 3584 2278 3584 
Q 2916 3584 3314 3078 
Q 3713 2572 3713 1747 
Q 3713 922 3314 415 
Q 2916 -91 2278 -91 
Q 1894 -91 1617 61 
Q 1341 213 1159 525 
z
M 3116 1747 
Q 3116 2381 2855 2742 
Q 2594 3103 2138 3103 
Q 1681 3103 1420 2742 
Q 1159 2381 1159 1747 
Q 1159 1113 1420 752 
Q 1681 391 2138 391 
Q 2594 391 2855 752 
Q 3116 1113 3116 1747 
z
" transform="scale(0.015625)"/>
       <path id="DejaVuSans-6c" d="M 603 4863 
L 1178 4863 
L 1178 0 
L 603 0 
L 603 4863 
z
" transform="scale(0.015625)"/>
       <path id="DejaVuSans-69" d="M 603 3500 
L 1178 3500 
L 1178 0 
L 603 0 
L 603 3500 
z
M 603 4863 
L 1178 4863 
L 1178 4134 
L 603 4134 
L 603 4863 
z
" transform="scale(0.015625)"/>
       <path id="DejaVuSans-74" d="M 1172 4494 
L 1172 3500 
L 2356 3500 
L 2356 3053 
L 1172 3053 
L 1172 1153 
Q 1172 725 1289 603 
Q 1406 481 1766 481 
L 2356 481 
L 2356 0 
L 1766 0 
Q 1100 0 847 248 
Q 594 497 594 1153 
L 594 3053 
L 172 3053 
L 172 3500 
L 594 3500 
L 594 4494 
L 1172 4494 
z
" transform="scale(0.015625)"/>
       <path id="DejaVuSans-75" d="M 544 1381 
L 544 3500 
L 1119 3500 
L 1119 1403 
Q 1119 906 1312 657 
Q 1506 409 1894 409 
Q 2359 409 2629 706 
Q 2900 1003 2900 1516 
L 2900 3500 
L 3475 3500 
L 3475 0 
L 2900 0 
L 2900 538 
Q 2691 219 2414 64 
Q 2138 -91 1772 -91 
Q 1169 -91 856 284 
Q 544 659 544 1381 
z
M 1991 3584 
L 1991 3584 
z
" transform="scale(0.015625)"/>
       <path id="DejaVuSans-64" d="M 2906 2969 
L 2906 4863 
L 3481 4863 
L 3481 0 
L 2906 0 
L 2906 525 
Q 2725 213 2448 61 
Q 2172 -91 1784 -91 
Q 1150 -91 751 415 
Q 353 922 353 1747 
Q 353 2572 751 3078 
Q 1150 3584 1784 3584 
Q 2172 3584 2448 3432 
Q 2725 3281 2906 2969 
z
M 947 1747 
Q 947 1113 1208 752 
Q 1469 391 1925 391 
Q 2381 391 2643 752 
Q 2906 1113 2906 1747 
Q 2906 2381 2643 2742 
Q 2381 3103 1925 3103 
Q 1469 3103 1208 2742 
Q 947 2381 947 1747 
z
" transform="scale(0.015625)"/>
       <path id="DejaVuSans-65" d="M 3597 1894 
L 3597 1613 
L 953 1613 
Q 991 1019 1311 708 
Q 1631 397 2203 397 
Q 2534 397 2845 478 
Q 3156 559 3463 722 
L 3463 178 
Q 3153 47 2828 -22 
Q 2503 -91 2169 -91 
Q 1331 -91 842 396 
Q 353 884 353 1716 
Q 353 2575 817 3079 
Q 1281 3584 2069 3584 
Q 2775 3584 3186 3129 
Q 3597 2675 3597 1894 
z
M 3022 2063 
Q 3016 2534 2758 2815 
Q 2500 3097 2075 3097 
Q 1594 3097 1305 2825 
Q 1016 2553 972 2059 
L 3022 2063 
z
" transform="scale(0.015625)"/>
      </defs>
      <use xlink:href="#DejaVuSans-41"/>
      <use xlink:href="#DejaVuSans-6d" transform="translate(68.408203 0)"/>
      <use xlink:href="#DejaVuSans-70" transform="translate(165.820312 0)"/>
      <use xlink:href="#DejaVuSans-6c" transform="translate(229.296875 0)"/>
      <use xlink:href="#DejaVuSans-69" transform="translate(257.080078 0)"/>
      <use xlink:href="#DejaVuSans-74" transform="translate(284.863281 0)"/>
      <use xlink:href="#DejaVuSans-75" transform="translate(324.072266 0)"/>
      <use xlink:href="#DejaVuSans-64" transform="translate(387.451172 0)"/>
      <use xlink:href="#DejaVuSans-65" transform="translate(450.927734 0)"/>
     </g>
    </g>
   </g>
   <g id="line2d_21">
    <path d="M 60.686177 111.056312 
L 64.687745 110.147585 
L 68.689313 109.769472 
L 76.692449 109.982692 
L 80.694017 111.438422 
L 84.695585 112.395697 
L 92.698721 110.064909 
L 96.700289 109.643243 
L 100.701857 110.329617 
L 104.703425 112.147445 
L 108.704992 112.574564 
L 112.70656 111.255758 
L 116.708128 111.123583 
L 120.709696 111.947219 
L 124.711264 111.24779 
L 128.712832 110.082112 
L 136.715968 110.582847 
L 140.717536 110.631914 
L 144.719104 112.084793 
L 148.720672 112.501761 
L 152.722239 110.984846 
L 156.723807 110.835632 
L 160.725375 111.686545 
L 164.726943 111.776331 
L 172.730079 109.492561 
L 176.731647 111.296608 
L 180.733215 111.977954 
L 184.734783 110.406459 
L 188.736351 112.61539 
L 192.737919 109.36552 
L 196.739487 107.534515 
L 200.741054 135.676665 
L 204.742622 167.383209 
L 208.74419 166.987102 
L 212.745758 171.674138 
L 216.747326 192.951261 
L 220.748894 185.672016 
L 224.750462 166.34771 
L 228.75203 179.138074 
L 232.753598 195.198319 
L 236.755166 181.055837 
L 240.756734 167.815951 
L 244.758301 181.536961 
L 248.759869 194.333611 
L 252.761437 183.141488 
L 256.763005 171.319745 
L 260.764573 180.78717 
L 264.766141 191.883576 
L 268.767709 183.332076 
L 272.769277 173.430826 
L 280.772413 192.415495 
L 284.773981 183.729763 
L 288.775549 176.716321 
L 292.777116 185.862204 
L 296.778684 192.103434 
L 300.780252 184.744565 
L 304.78182 179.196642 
L 308.783388 183.619251 
L 312.784956 187.223885 
L 320.788092 179.966831 
L 324.78966 182.514575 
L 328.791228 186.740128 
L 332.792796 184.59021 
L 336.794363 180.417398 
L 340.795931 184.9828 
L 344.797499 177.352496 
L 348.799067 126.536483 
L 352.800635 77.32874 
L 356.802203 99.048 
L 360.803771 142.65967 
L 364.805339 119.662554 
L 368.806907 74.61602 
L 372.808475 92.421262 
L 376.810043 147.154575 
L 380.81161 180.0404 
L 384.813178 176.98463 
L 388.814746 134.581141 
L 392.816314 90.832953 
L 396.817882 111.063062 
L 400.81945 157.4762 
L 404.821018 138.705673 
L 408.822586 94.283124 
L 412.824154 117.87515 
L 416.825722 164.10353 
L 420.82729 143.701956 
L 424.828858 100.804121 
L 428.830425 121.019847 
L 432.831993 175.73737 
L 436.833561 187.313852 
L 440.835129 166.825169 
L 444.836697 173.344855 
L 448.838265 185.727873 
L 452.839833 150.107036 
L 456.841401 108.162794 
L 460.842969 127.219604 
L 464.844537 175.741971 
L 468.846105 187.528529 
L 472.847672 152.356644 
L 476.84924 93.648613 
L 480.850808 44.513834 
L 484.852376 37.315079 
L 488.853944 75.50473 
L 492.855512 134.545893 
L 496.85708 172.351309 
L 500.858648 155.240952 
L 504.860216 120.624317 
L 508.861784 136.613614 
L 512.863352 174.866594 
L 516.86492 160.80058 
L 520.866487 125.066604 
L 524.868055 141.019195 
L 528.869623 176.234839 
L 532.871191 161.207034 
L 536.872759 127.952629 
L 540.874327 143.898558 
L 544.875895 178.81143 
L 548.877463 165.683893 
L 552.879031 133.154603 
L 556.880599 149.023036 
L 560.882167 185.808115 
L 564.883734 174.441701 
L 568.885302 140.681238 
L 572.88687 150.683311 
L 576.888438 180.219732 
L 580.890006 169.591778 
L 584.891574 124.633344 
L 588.893142 75.149355 
L 592.89471 42.177324 
L 596.896278 53.724306 
L 600.897846 87.475029 
L 604.899414 78.603848 
L 608.900982 44.658277 
L 612.902549 57.719554 
L 616.904117 93.721857 
L 620.905685 80.031476 
L 624.907253 43.127167 
L 628.908821 49.234357 
L 632.910389 72.796922 
L 636.911957 58.956973 
L 640.913525 35.387909 
L 644.915093 49.420036 
L 648.916661 69.506743 
L 656.919796 32.917347 
L 660.921364 65.001594 
L 664.922932 105.3834 
L 668.9245 91.3695 
L 672.926068 55.101584 
L 676.927636 66.336697 
L 680.929204 121.660498 
L 684.930772 171.338506 
L 688.93234 189.044748 
L 692.933908 177.623513 
L 696.935476 165.746584 
L 700.937043 178.54121 
L 704.938611 186.702109 
L 708.940179 151.513788 
L 712.941747 91.547023 
L 716.943315 44.874178 
L 720.944883 36.045436 
L 724.946451 76.447562 
L 728.948019 121.103045 
L 732.949587 105.931049 
L 736.951155 55.89625 
L 740.952723 39.043834 
L 744.954291 63.882423 
L 748.955858 111.228078 
L 752.957426 162.388561 
L 756.958994 183.781324 
L 760.960562 176.39904 
L 764.96213 178.49721 
L 768.963698 188.862308 
L 772.965266 182.163982 
L 776.966834 174.153489 
L 780.968402 184.073509 
L 784.96997 178.214579 
L 788.971538 129.243622 
L 792.973105 86.030015 
L 796.974673 102.042526 
L 800.976241 151.598099 
L 804.977809 182.75255 
L 808.979377 173.667355 
L 812.980945 127.594268 
L 816.982513 87.487744 
L 820.984081 103.50787 
L 824.985649 158.174918 
L 828.987217 189.708221 
L 832.988785 168.900225 
L 840.99192 62.810433 
L 844.993488 32.163281 
L 848.995056 49.849521 
L 852.996624 109.907676 
L 856.998192 142.923646 
L 860.99976 122.484808 
L 860.99976 122.484808 
" clip-path="url(#pecb7935159)" style="fill: none; stroke: #1f77b4; stroke-width: 1.5; stroke-linecap: square"/>
   </g>
   <g id="line2d_22">
    <path d="M 60.686177 111.091734 
L 64.687745 110.921258 
L 68.689313 110.566496 
L 76.692449 110.275306 
L 80.694017 109.722409 
L 84.695585 110.212137 
L 88.697153 111.41504 
L 92.698721 111.735499 
L 96.700289 111.550729 
L 100.701857 111.084693 
L 108.704992 109.391083 
L 112.70656 109.29879 
L 116.708128 110.523097 
L 120.709696 111.949255 
L 124.711264 111.754697 
L 128.712832 110.859047 
L 132.7144 110.113414 
L 136.715968 109.135739 
L 140.717536 109.143993 
L 144.719104 110.158177 
L 148.720672 110.843233 
L 152.722239 111.279472 
L 156.723807 110.812849 
L 160.725375 109.510158 
L 164.726943 109.794811 
L 168.728511 110.930757 
L 172.730079 111.297084 
L 176.731647 111.37041 
L 180.733215 110.416752 
L 184.734783 110.644308 
L 188.736351 112.367119 
L 192.737919 109.759641 
L 196.739487 110.293759 
L 200.741054 114.701098 
L 204.742622 91.651713 
L 208.74419 53.073044 
L 212.745758 65.769254 
L 216.747326 109.928999 
L 220.748894 96.56667 
L 224.750462 52.939017 
L 228.75203 72.123795 
L 232.753598 117.353903 
L 236.755166 97.574702 
L 240.756734 53.617755 
L 244.758301 73.798695 
L 248.759869 119.176981 
L 252.761437 102.127406 
L 256.763005 57.721927 
L 260.764573 75.858305 
L 264.766141 123.437801 
L 268.767709 107.40465 
L 272.769277 61.762911 
L 276.770845 80.711533 
L 280.772413 127.884006 
L 284.773981 110.161274 
L 288.775549 64.953808 
L 292.777116 84.11637 
L 296.778684 130.215198 
L 300.780252 111.608706 
L 304.78182 66.560498 
L 308.783388 87.632777 
L 312.784956 135.338464 
L 316.786524 117.005405 
L 320.788092 72.737335 
L 324.78966 93.808379 
L 328.791228 140.085545 
L 332.792796 122.702682 
L 336.794363 78.781569 
L 340.795931 94.587163 
L 344.797499 152.222905 
L 348.799067 184.509281 
L 352.800635 183.071327 
L 356.802203 177.95891 
L 360.803771 182.655214 
L 364.805339 186.224602 
L 368.806907 181.507466 
L 372.808475 180.57355 
L 376.810043 175.386102 
L 380.81161 136.435937 
L 384.813178 78.669758 
L 388.814746 43.5896 
L 392.816314 33.12519 
L 396.817882 35.420782 
L 400.81945 45.896867 
L 404.821018 45.069559 
L 408.822586 33.375892 
L 412.824154 37.616902 
L 416.825722 50.806359 
L 420.82729 47.561938 
L 424.828858 34.699477 
L 428.830425 34.180939 
L 432.831993 62.860352 
L 436.833561 120.323321 
L 440.835129 164.222408 
L 444.836697 148.93445 
L 448.838265 93.436831 
L 452.839833 51.413453 
L 456.841401 36.594374 
L 460.842969 38.153443 
L 464.844537 67.984121 
L 468.846105 127.703812 
L 472.847672 177.135707 
L 476.84924 183.22388 
L 480.850808 149.500365 
L 484.852376 92.321676 
L 488.853944 43.725598 
L 492.855512 40.435019 
L 496.85708 62.802188 
L 500.858648 56.721098 
L 504.860216 33.199399 
L 508.861784 42.957573 
L 512.863352 68.515422 
L 516.86492 59.179716 
L 520.866487 35.036985 
L 524.868055 46.425164 
L 528.869623 72.990157 
L 532.871191 63.281228 
L 536.872759 36.93876 
L 540.874327 46.208562 
L 544.875895 73.032938 
L 548.877463 66.236244 
L 552.879031 38.775785 
L 556.880599 43.674229 
L 560.882167 93.237693 
L 564.883734 151.611977 
L 568.885302 179.753238 
L 572.88687 166.319207 
L 576.888438 124.407535 
L 580.890006 73.831525 
L 584.891574 42.263203 
L 588.893142 54.129172 
L 592.89471 81.04902 
L 596.896278 67.792171 
L 600.897846 37.595964 
L 604.899414 51.849485 
L 608.900982 79.158952 
L 612.902549 62.615892 
L 616.904117 37.251552 
L 620.905685 48.536641 
L 624.907253 85.422572 
L 628.908821 136.498856 
L 632.910389 175.985125 
L 636.911957 159.887684 
L 640.913525 122.225431 
L 644.915093 135.215551 
L 648.916661 171.223249 
L 652.918229 158.654558 
L 656.919796 105.581471 
L 660.921364 57.477227 
L 664.922932 35.333898 
L 668.9245 46.366395 
L 672.926068 64.522572 
L 676.927636 49.81916 
L 680.929204 32.883568 
L 684.930772 68.160793 
L 688.93234 112.426386 
L 692.933908 95.254119 
L 696.935476 56.303796 
L 700.937043 72.676612 
L 704.938611 132.063312 
L 708.940179 177.750566 
L 712.941747 185.112813 
L 716.943315 150.30569 
L 720.944883 90.1825 
L 724.946451 45.979842 
L 728.948019 34.198882 
L 732.949587 39.737232 
L 736.951155 64.692014 
L 740.952723 115.146019 
L 744.954291 163.953872 
L 748.955858 182.412856 
L 752.957426 163.444401 
L 756.958994 111.452444 
L 760.960562 69.601006 
L 764.96213 89.63029 
L 768.963698 130.824283 
L 772.965266 115.061515 
L 776.966834 73.047685 
L 780.968402 87.059236 
L 784.96997 146.19102 
L 788.971538 183.210103 
L 792.973105 184.828698 
L 796.974673 180.277921 
L 800.976241 168.68714 
L 804.977809 127.013917 
L 808.979377 72.289981 
L 812.980945 44.33691 
L 816.982513 40.293871 
L 820.984081 38.429532 
L 824.985649 53.414596 
L 828.987217 102.876106 
L 832.988785 159.956718 
L 836.990353 185.066742 
L 840.99192 168.627545 
L 844.993488 118.947134 
L 848.995056 57.783699 
L 852.996624 34.84866 
L 856.998192 70.378107 
L 860.99976 109.633749 
L 860.99976 109.633749 
" clip-path="url(#pecb7935159)" style="fill: none; stroke: #ff7f0e; stroke-width: 1.5; stroke-linecap: square"/>
   </g>
   <g id="line2d_23">
    <path d="M 60.686177 110.879122 
L 64.687745 110.144429 
L 68.689313 109.696875 
L 76.692449 109.753158 
L 80.694017 109.647149 
L 84.695585 109.389587 
L 88.697153 110.495407 
L 92.698721 109.805654 
L 96.700289 109.533208 
L 100.701857 110.323518 
L 108.704992 108.743312 
L 112.70656 109.278771 
L 116.708128 110.505723 
L 120.709696 109.645549 
L 124.711264 110.193064 
L 132.7144 109.903004 
L 136.715968 109.090714 
L 140.717536 109.108817 
L 144.719104 109.620311 
L 148.720672 109.47954 
L 152.722239 110.709232 
L 156.723807 110.753206 
L 160.725375 109.356724 
L 164.726943 109.562491 
L 168.728511 110.675516 
L 172.730079 109.46237 
L 176.731647 110.512075 
L 180.733215 109.853805 
L 184.734783 110.310108 
L 188.736351 108.870339 
L 192.737919 108.950401 
L 196.739487 107.464281 
L 200.741054 86.035428 
L 204.742622 51.380383 
L 208.74419 30.433482 
L 212.745758 35.315215 
L 216.747326 29.030674 
L 220.748894 34.935884 
L 224.750462 30.779617 
L 228.75203 32.543927 
L 232.753598 26.550744 
L 236.755166 39.659385 
L 240.756734 30.243163 
L 244.758301 31.246259 
L 248.759869 27.254516 
L 252.761437 38.304533 
L 256.763005 30.513976 
L 260.764573 32.856258 
L 264.766141 29.153792 
L 268.767709 38.567772 
L 272.769277 31.483137 
L 276.770845 33.050563 
L 280.772413 27.84008 
L 284.773981 38.254331 
L 288.775549 30.750392 
L 292.777116 31.448139 
L 296.778684 27.639123 
L 300.780252 37.241741 
L 304.78182 29.594699 
L 308.783388 34.704648 
L 312.784956 30.972173 
L 316.786524 38.154118 
L 320.788092 32.122398 
L 324.78966 37.438388 
L 328.791228 29.854412 
L 332.792796 36.473154 
L 336.794363 34.461981 
L 340.795931 35.208708 
L 344.797499 32.871589 
L 348.799067 35.854647 
L 352.800635 31.442829 
L 356.802203 42.972682 
L 360.803771 32.649337 
L 364.805339 35.266532 
L 368.806907 31.650393 
L 372.808475 38.979045 
L 376.810043 37.144296 
L 380.81161 37.410356 
L 384.813178 37.512519 
L 388.814746 39.581938 
L 392.816314 30.55747 
L 396.817882 35.420756 
L 400.81945 31.005386 
L 404.821018 39.482177 
L 408.822586 31.597288 
L 412.824154 37.295003 
L 416.825722 30.725014 
L 420.82729 39.625928 
L 424.828858 34.021953 
L 428.830425 33.529463 
L 432.831993 30.318921 
L 436.833561 34.106974 
L 440.835129 33.856316 
L 444.836697 38.00799 
L 448.838265 34.226227 
L 452.839833 39.722498 
L 456.841401 36.540511 
L 460.842969 36.368257 
L 464.844537 33.263291 
L 468.846105 32.657529 
L 472.847672 32.984817 
L 476.84924 36.711389 
L 480.850808 34.167506 
L 484.852376 34.98576 
L 488.853944 34.937773 
L 492.855512 36.608269 
L 496.85708 32.974187 
L 500.858648 40.970511 
L 504.860216 32.605651 
L 508.861784 38.293973 
L 512.863352 34.286419 
L 516.86492 39.123601 
L 520.866487 33.744454 
L 524.868055 39.78575 
L 528.869623 35.491883 
L 532.871191 41.727876 
L 536.872759 35.021915 
L 540.874327 38.331578 
L 544.875895 33.275575 
L 548.877463 40.324551 
L 552.879031 35.45235 
L 556.880599 33.675713 
L 560.882167 34.102378 
L 564.883734 35.659575 
L 568.885302 36.100648 
L 572.88687 42.905973 
L 576.888438 40.481643 
L 580.890006 41.606177 
L 584.891574 40.923025 
L 588.893142 43.774438 
L 592.89471 35.9443 
L 596.896278 39.256696 
L 600.897846 33.919807 
L 604.899414 43.560949 
L 608.900982 37.414665 
L 612.902549 39.031275 
L 616.904117 35.255711 
L 620.905685 41.283021 
L 624.907253 38.469365 
L 628.908821 44.175403 
L 632.910389 35.609821 
L 636.911957 39.591018 
L 640.913525 34.558294 
L 644.915093 44.827454 
L 648.916661 37.85936 
L 652.918229 34.513416 
L 656.919796 32.729936 
L 660.921364 40.429343 
L 664.922932 35.126124 
L 668.9245 43.452435 
L 672.926068 38.305756 
L 680.929204 32.158702 
L 684.930772 36.993563 
L 688.93234 32.93098 
L 692.933908 42.531365 
L 696.935476 33.606684 
L 700.937043 33.336063 
L 704.938611 32.40977 
L 708.940179 32.903461 
L 712.941747 34.367175 
L 716.943315 34.070688 
L 720.944883 33.209541 
L 724.946451 37.371179 
L 728.948019 33.536445 
L 732.949587 39.557566 
L 736.951155 39.024132 
L 740.952723 38.924154 
L 744.954291 40.112533 
L 748.955858 39.575626 
L 752.957426 37.561776 
L 756.958994 38.2061 
L 760.960562 33.591736 
L 764.96213 40.191525 
L 768.963698 30.641281 
L 772.965266 39.708769 
L 776.966834 37.312537 
L 780.968402 34.095509 
L 784.96997 35.117244 
L 788.971538 36.508621 
L 792.973105 33.053941 
L 796.974673 41.135013 
L 800.976241 40.445823 
L 804.977809 37.469938 
L 808.979377 37.333518 
L 812.980945 42.301056 
L 816.982513 36.488493 
L 820.984081 38.044354 
L 824.985649 36.553613 
L 828.987217 31.863103 
L 832.988785 35.163133 
L 836.990353 36.768151 
L 840.99192 35.872712 
L 844.993488 31.763152 
L 848.995056 29.938389 
L 852.996624 34.840912 
L 856.998192 59.33051 
L 860.99976 99.423772 
L 860.99976 99.423772 
" clip-path="url(#pecb7935159)" style="fill: none; stroke: #2ca02c; stroke-width: 1.2; stroke-linecap: square"/>
   </g>
   <g id="patch_3">
    <path d="M 60.686177 203.630697 
L 60.686177 18.118365 
" style="fill: none; stroke: #000000; stroke-width: 0.8; stroke-linejoin: miter; stroke-linecap: square"/>
   </g>
   <g id="patch_4">
    <path d="M 860.99976 203.630697 
L 860.99976 18.118365 
" style="fill: none; stroke: #000000; stroke-width: 0.8; stroke-linejoin: miter; stroke-linecap: square"/>
   </g>
   <g id="patch_5">
    <path d="M 60.686177 203.630697 
L 860.99976 203.630697 
" style="fill: none; stroke: #000000; stroke-width: 0.8; stroke-linejoin: miter; stroke-linecap: square"/>
   </g>
   <g id="patch_6">
    <path d="M 60.686177 18.118365 
L 860.99976 18.118365 
" style="fill: none; stroke: #000000; stroke-width: 0.8; stroke-linejoin: miter; stroke-linecap: square"/>
   </g>
   <g id="text_7">
    <!-- Het Pre - Channel 33 Time Plot (2.4 ms to 2.8 ms) -->
    <g transform="translate(311.624844 12.118365) scale(0.12 -0.12)">
     <defs>
      <path id="DejaVuSans-48" d="M 628 4666 
L 1259 4666 
L 1259 2753 
L 3553 2753 
L 3553 4666 
L 4184 4666 
L 4184 0 
L 3553 0 
L 3553 2222 
L 1259 2222 
L 1259 0 
L 628 0 
L 628 4666 
z
" transform="scale(0.015625)"/>
      <path id="DejaVuSans-20" transform="scale(0.015625)"/>
      <path id="DejaVuSans-50" d="M 1259 4147 
L 1259 2394 
L 2053 2394 
Q 2494 2394 2734 2622 
Q 2975 2850 2975 3272 
Q 2975 3691 2734 3919 
Q 2494 4147 2053 4147 
L 1259 4147 
z
M 628 4666 
L 2053 4666 
Q 2838 4666 3239 4311 
Q 3641 3956 3641 3272 
Q 3641 2581 3239 2228 
Q 2838 1875 2053 1875 
L 1259 1875 
L 1259 0 
L 628 0 
L 628 4666 
z
" transform="scale(0.015625)"/>
      <path id="DejaVuSans-72" d="M 2631 2963 
Q 2534 3019 2420 3045 
Q 2306 3072 2169 3072 
Q 1681 3072 1420 2755 
Q 1159 2438 1159 1844 
L 1159 0 
L 581 0 
L 581 3500 
L 1159 3500 
L 1159 2956 
Q 1341 3275 1631 3429 
Q 1922 3584 2338 3584 
Q 2397 3584 2469 3576 
Q 2541 3569 2628 3553 
L 2631 2963 
z
" transform="scale(0.015625)"/>
      <path id="DejaVuSans-2d" d="M 313 2009 
L 1997 2009 
L 1997 1497 
L 313 1497 
L 313 2009 
z
" transform="scale(0.015625)"/>
      <path id="DejaVuSans-43" d="M 4122 4306 
L 4122 3641 
Q 3803 3938 3442 4084 
Q 3081 4231 2675 4231 
Q 1875 4231 1450 3742 
Q 1025 3253 1025 2328 
Q 1025 1406 1450 917 
Q 1875 428 2675 428 
Q 3081 428 3442 575 
Q 3803 722 4122 1019 
L 4122 359 
Q 3791 134 3420 21 
Q 3050 -91 2638 -91 
Q 1578 -91 968 557 
Q 359 1206 359 2328 
Q 359 3453 968 4101 
Q 1578 4750 2638 4750 
Q 3056 4750 3426 4639 
Q 3797 4528 4122 4306 
z
" transform="scale(0.015625)"/>
      <path id="DejaVuSans-68" d="M 3513 2113 
L 3513 0 
L 2938 0 
L 2938 2094 
Q 2938 2591 2744 2837 
Q 2550 3084 2163 3084 
Q 1697 3084 1428 2787 
Q 1159 2491 1159 1978 
L 1159 0 
L 581 0 
L 581 4863 
L 1159 4863 
L 1159 2956 
Q 1366 3272 1645 3428 
Q 1925 3584 2291 3584 
Q 2894 3584 3203 3211 
Q 3513 2838 3513 2113 
z
" transform="scale(0.015625)"/>
      <path id="DejaVuSans-61" d="M 2194 1759 
Q 1497 1759 1228 1600 
Q 959 1441 959 1056 
Q 959 750 1161 570 
Q 1363 391 1709 391 
Q 2188 391 2477 730 
Q 2766 1069 2766 1631 
L 2766 1759 
L 2194 1759 
z
M 3341 1997 
L 3341 0 
L 2766 0 
L 2766 531 
Q 2569 213 2275 61 
Q 1981 -91 1556 -91 
Q 1019 -91 701 211 
Q 384 513 384 1019 
Q 384 1609 779 1909 
Q 1175 2209 1959 2209 
L 2766 2209 
L 2766 2266 
Q 2766 2663 2505 2880 
Q 2244 3097 1772 3097 
Q 1472 3097 1187 3025 
Q 903 2953 641 2809 
L 641 3341 
Q 956 3463 1253 3523 
Q 1550 3584 1831 3584 
Q 2591 3584 2966 3190 
Q 3341 2797 3341 1997 
z
" transform="scale(0.015625)"/>
      <path id="DejaVuSans-6e" d="M 3513 2113 
L 3513 0 
L 2938 0 
L 2938 2094 
Q 2938 2591 2744 2837 
Q 2550 3084 2163 3084 
Q 1697 3084 1428 2787 
Q 1159 2491 1159 1978 
L 1159 0 
L 581 0 
L 581 3500 
L 1159 3500 
L 1159 2956 
Q 1366 3272 1645 3428 
Q 1925 3584 2291 3584 
Q 2894 3584 3203 3211 
Q 3513 2838 3513 2113 
z
" transform="scale(0.015625)"/>
      <path id="DejaVuSans-33" d="M 2597 2516 
Q 3050 2419 3304 2112 
Q 3559 1806 3559 1356 
Q 3559 666 3084 287 
Q 2609 -91 1734 -91 
Q 1441 -91 1130 -33 
Q 819 25 488 141 
L 488 750 
Q 750 597 1062 519 
Q 1375 441 1716 441 
Q 2309 441 2620 675 
Q 2931 909 2931 1356 
Q 2931 1769 2642 2001 
Q 2353 2234 1838 2234 
L 1294 2234 
L 1294 2753 
L 1863 2753 
Q 2328 2753 2575 2939 
Q 2822 3125 2822 3475 
Q 2822 3834 2567 4026 
Q 2313 4219 1838 4219 
Q 1578 4219 1281 4162 
Q 984 4106 628 3988 
L 628 4550 
Q 988 4650 1302 4700 
Q 1616 4750 1894 4750 
Q 2613 4750 3031 4423 
Q 3450 4097 3450 3541 
Q 3450 3153 3228 2886 
Q 3006 2619 2597 2516 
z
" transform="scale(0.015625)"/>
      <path id="DejaVuSans-54" d="M -19 4666 
L 3928 4666 
L 3928 4134 
L 2272 4134 
L 2272 0 
L 1638 0 
L 1638 4134 
L -19 4134 
L -19 4666 
z
" transform="scale(0.015625)"/>
      <path id="DejaVuSans-6f" d="M 1959 3097 
Q 1497 3097 1228 2736 
Q 959 2375 959 1747 
Q 959 1119 1226 758 
Q 1494 397 1959 397 
Q 2419 397 2687 759 
Q 2956 1122 2956 1747 
Q 2956 2369 2687 2733 
Q 2419 3097 1959 3097 
z
M 1959 3584 
Q 2709 3584 3137 3096 
Q 3566 2609 3566 1747 
Q 3566 888 3137 398 
Q 2709 -91 1959 -91 
Q 1206 -91 779 398 
Q 353 888 353 1747 
Q 353 2609 779 3096 
Q 1206 3584 1959 3584 
z
" transform="scale(0.015625)"/>
      <path id="DejaVuSans-28" d="M 1984 4856 
Q 1566 4138 1362 3434 
Q 1159 2731 1159 2009 
Q 1159 1288 1364 580 
Q 1569 -128 1984 -844 
L 1484 -844 
Q 1016 -109 783 600 
Q 550 1309 550 2009 
Q 550 2706 781 3412 
Q 1013 4119 1484 4856 
L 1984 4856 
z
" transform="scale(0.015625)"/>
      <path id="DejaVuSans-73" d="M 2834 3397 
L 2834 2853 
Q 2591 2978 2328 3040 
Q 2066 3103 1784 3103 
Q 1356 3103 1142 2972 
Q 928 2841 928 2578 
Q 928 2378 1081 2264 
Q 1234 2150 1697 2047 
L 1894 2003 
Q 2506 1872 2764 1633 
Q 3022 1394 3022 966 
Q 3022 478 2636 193 
Q 2250 -91 1575 -91 
Q 1294 -91 989 -36 
Q 684 19 347 128 
L 347 722 
Q 666 556 975 473 
Q 1284 391 1588 391 
Q 1994 391 2212 530 
Q 2431 669 2431 922 
Q 2431 1156 2273 1281 
Q 2116 1406 1581 1522 
L 1381 1569 
Q 847 1681 609 1914 
Q 372 2147 372 2553 
Q 372 3047 722 3315 
Q 1072 3584 1716 3584 
Q 2034 3584 2315 3537 
Q 2597 3491 2834 3397 
z
" transform="scale(0.015625)"/>
      <path id="DejaVuSans-38" d="M 2034 2216 
Q 1584 2216 1326 1975 
Q 1069 1734 1069 1313 
Q 1069 891 1326 650 
Q 1584 409 2034 409 
Q 2484 409 2743 651 
Q 3003 894 3003 1313 
Q 3003 1734 2745 1975 
Q 2488 2216 2034 2216 
z
M 1403 2484 
Q 997 2584 770 2862 
Q 544 3141 544 3541 
Q 544 4100 942 4425 
Q 1341 4750 2034 4750 
Q 2731 4750 3128 4425 
Q 3525 4100 3525 3541 
Q 3525 3141 3298 2862 
Q 3072 2584 2669 2484 
Q 3125 2378 3379 2068 
Q 3634 1759 3634 1313 
Q 3634 634 3220 271 
Q 2806 -91 2034 -91 
Q 1263 -91 848 271 
Q 434 634 434 1313 
Q 434 1759 690 2068 
Q 947 2378 1403 2484 
z
M 1172 3481 
Q 1172 3119 1398 2916 
Q 1625 2713 2034 2713 
Q 2441 2713 2670 2916 
Q 2900 3119 2900 3481 
Q 2900 3844 2670 4047 
Q 2441 4250 2034 4250 
Q 1625 4250 1398 4047 
Q 1172 3844 1172 3481 
z
" transform="scale(0.015625)"/>
      <path id="DejaVuSans-29" d="M 513 4856 
L 1013 4856 
Q 1481 4119 1714 3412 
Q 1947 2706 1947 2009 
Q 1947 1309 1714 600 
Q 1481 -109 1013 -844 
L 513 -844 
Q 928 -128 1133 580 
Q 1338 1288 1338 2009 
Q 1338 2731 1133 3434 
Q 928 4138 513 4856 
z
" transform="scale(0.015625)"/>
     </defs>
     <use xlink:href="#DejaVuSans-48"/>
     <use xlink:href="#DejaVuSans-65" transform="translate(75.195312 0)"/>
     <use xlink:href="#DejaVuSans-74" transform="translate(136.71875 0)"/>
     <use xlink:href="#DejaVuSans-20" transform="translate(175.927734 0)"/>
     <use xlink:href="#DejaVuSans-50" transform="translate(207.714844 0)"/>
     <use xlink:href="#DejaVuSans-72" transform="translate(266.267578 0)"/>
     <use xlink:href="#DejaVuSans-65" transform="translate(305.130859 0)"/>
     <use xlink:href="#DejaVuSans-20" transform="translate(366.654297 0)"/>
     <use xlink:href="#DejaVuSans-2d" transform="translate(398.441406 0)"/>
     <use xlink:href="#DejaVuSans-20" transform="translate(434.525391 0)"/>
     <use xlink:href="#DejaVuSans-43" transform="translate(466.3125 0)"/>
     <use xlink:href="#DejaVuSans-68" transform="translate(536.136719 0)"/>
     <use xlink:href="#DejaVuSans-61" transform="translate(599.515625 0)"/>
     <use xlink:href="#DejaVuSans-6e" transform="translate(660.794922 0)"/>
     <use xlink:href="#DejaVuSans-6e" transform="translate(724.173828 0)"/>
     <use xlink:href="#DejaVuSans-65" transform="translate(787.552734 0)"/>
     <use xlink:href="#DejaVuSans-6c" transform="translate(849.076172 0)"/>
     <use xlink:href="#DejaVuSans-20" transform="translate(876.859375 0)"/>
     <use xlink:href="#DejaVuSans-33" transform="translate(908.646484 0)"/>
     <use xlink:href="#DejaVuSans-33" transform="translate(972.269531 0)"/>
     <use xlink:href="#DejaVuSans-20" transform="translate(1035.892578 0)"/>
     <use xlink:href="#DejaVuSans-54" transform="translate(1067.679688 0)"/>
     <use xlink:href="#DejaVuSans-69" transform="translate(1125.638672 0)"/>
     <use xlink:href="#DejaVuSans-6d" transform="translate(1153.421875 0)"/>
     <use xlink:href="#DejaVuSans-65" transform="translate(1250.833984 0)"/>
     <use xlink:href="#DejaVuSans-20" transform="translate(1312.357422 0)"/>
     <use xlink:href="#DejaVuSans-50" transform="translate(1344.144531 0)"/>
     <use xlink:href="#DejaVuSans-6c" transform="translate(1404.447266 0)"/>
     <use xlink:href="#DejaVuSans-6f" transform="translate(1432.230469 0)"/>
     <use xlink:href="#DejaVuSans-74" transform="translate(1493.412109 0)"/>
     <use xlink:href="#DejaVuSans-20" transform="translate(1532.621094 0)"/>
     <use xlink:href="#DejaVuSans-28" transform="translate(1564.408203 0)"/>
     <use xlink:href="#DejaVuSans-32" transform="translate(1603.421875 0)"/>
     <use xlink:href="#DejaVuSans-2e" transform="translate(1667.044922 0)"/>
     <use xlink:href="#DejaVuSans-34" transform="translate(1698.832031 0)"/>
     <use xlink:href="#DejaVuSans-20" transform="translate(1762.455078 0)"/>
     <use xlink:href="#DejaVuSans-6d" transform="translate(1794.242188 0)"/>
     <use xlink:href="#DejaVuSans-73" transform="translate(1891.654297 0)"/>
     <use xlink:href="#DejaVuSans-20" transform="translate(1943.753906 0)"/>
     <use xlink:href="#DejaVuSans-74" transform="translate(1975.541016 0)"/>
     <use xlink:href="#DejaVuSans-6f" transform="translate(2014.75 0)"/>
     <use xlink:href="#DejaVuSans-20" transform="translate(2075.931641 0)"/>
     <use xlink:href="#DejaVuSans-32" transform="translate(2107.71875 0)"/>
     <use xlink:href="#DejaVuSans-2e" transform="translate(2171.341797 0)"/>
     <use xlink:href="#DejaVuSans-38" transform="translate(2203.128906 0)"/>
     <use xlink:href="#DejaVuSans-20" transform="translate(2266.751953 0)"/>
     <use xlink:href="#DejaVuSans-6d" transform="translate(2298.539062 0)"/>
     <use xlink:href="#DejaVuSans-73" transform="translate(2395.951172 0)"/>
     <use xlink:href="#DejaVuSans-29" transform="translate(2448.050781 0)"/>
    </g>
   </g>
   <g id="legend_1">
    <g id="patch_7">
     <path d="M 67.686177 70.474615 
L 117.245553 70.474615 
Q 119.245553 70.474615 119.245553 68.474615 
L 119.245553 25.118365 
Q 119.245553 23.118365 117.245553 23.118365 
L 67.686177 23.118365 
Q 65.686177 23.118365 65.686177 25.118365 
L 65.686177 68.474615 
Q 65.686177 70.474615 67.686177 70.474615 
z
" style="fill: #ffffff; opacity: 0.8; stroke: #cccccc; stroke-linejoin: miter"/>
    </g>
    <g id="line2d_24">
     <path d="M 69.686177 31.216802 
L 79.686177 31.216802 
L 89.686177 31.216802 
" style="fill: none; stroke: #1f77b4; stroke-width: 1.5; stroke-linecap: square"/>
    </g>
    <g id="text_8">
     <!-- I -->
     <g transform="translate(97.686177 34.716802) scale(0.1 -0.1)">
      <defs>
       <path id="DejaVuSans-49" d="M 628 4666 
L 1259 4666 
L 1259 0 
L 628 0 
L 628 4666 
z
" transform="scale(0.015625)"/>
      </defs>
      <use xlink:href="#DejaVuSans-49"/>
     </g>
    </g>
    <g id="line2d_25">
     <path d="M 69.686177 45.894927 
L 79.686177 45.894927 
L 89.686177 45.894927 
" style="fill: none; stroke: #ff7f0e; stroke-width: 1.5; stroke-linecap: square"/>
    </g>
    <g id="text_9">
     <!-- Q -->
     <g transform="translate(97.686177 49.394927) scale(0.1 -0.1)">
      <defs>
       <path id="DejaVuSans-51" d="M 2522 4238 
Q 1834 4238 1429 3725 
Q 1025 3213 1025 2328 
Q 1025 1447 1429 934 
Q 1834 422 2522 422 
Q 3209 422 3611 934 
Q 4013 1447 4013 2328 
Q 4013 3213 3611 3725 
Q 3209 4238 2522 4238 
z
M 3406 84 
L 4238 -825 
L 3475 -825 
L 2784 -78 
Q 2681 -84 2626 -87 
Q 2572 -91 2522 -91 
Q 1538 -91 948 567 
Q 359 1225 359 2328 
Q 359 3434 948 4092 
Q 1538 4750 2522 4750 
Q 3503 4750 4090 4092 
Q 4678 3434 4678 2328 
Q 4678 1516 4351 937 
Q 4025 359 3406 84 
z
" transform="scale(0.015625)"/>
      </defs>
      <use xlink:href="#DejaVuSans-51"/>
     </g>
    </g>
    <g id="line2d_26">
     <path d="M 69.686177 60.616802 
L 79.686177 60.616802 
L 89.686177 60.616802 
" style="fill: none; stroke: #2ca02c; stroke-width: 1.2; stroke-linecap: square"/>
    </g>
    <g id="text_10">
     <!-- |IQ| -->
     <g transform="translate(97.686177 64.116802) scale(0.1 -0.1)">
      <defs>
       <path id="DejaVuSans-7c" d="M 1344 4891 
L 1344 -1509 
L 813 -1509 
L 813 4891 
L 1344 4891 
z
" transform="scale(0.015625)"/>
      </defs>
      <use xlink:href="#DejaVuSans-7c"/>
      <use xlink:href="#DejaVuSans-49" transform="translate(33.691406 0)"/>
      <use xlink:href="#DejaVuSans-51" transform="translate(63.183594 0)"/>
      <use xlink:href="#DejaVuSans-7c" transform="translate(141.894531 0)"/>
     </g>
    </g>
   </g>
  </g>
  <g id="axes_2">
   <g id="patch_8">
    <path d="M 60.686177 398.64351 
L 860.99976 398.64351 
L 860.99976 213.131177 
L 60.686177 213.131177 
z
" style="fill: #ffffff"/>
   </g>
   <g id="matplotlib.axis_3">
    <g id="xtick_6">
     <g id="line2d_27">
      <path d="M 140.717536 398.64351 
L 140.717536 213.131177 
" clip-path="url(#p86de52034b)" style="fill: none; stroke: #b0b0b0; stroke-opacity: 0.3; stroke-width: 0.8; stroke-linecap: square"/>
     </g>
     <g id="line2d_28">
      <g>
       <use xlink:href="#m00c078bb11" x="140.717536" y="398.64351" style="stroke: #000000; stroke-width: 0.8"/>
      </g>
     </g>
     <g id="text_11">
      <!-- 1.14 -->
      <g transform="translate(129.584723 413.241947) scale(0.1 -0.1)">
       <defs>
        <path id="DejaVuSans-31" d="M 794 531 
L 1825 531 
L 1825 4091 
L 703 3866 
L 703 4441 
L 1819 4666 
L 2450 4666 
L 2450 531 
L 3481 531 
L 3481 0 
L 794 0 
L 794 531 
z
" transform="scale(0.015625)"/>
       </defs>
       <use xlink:href="#DejaVuSans-31"/>
       <use xlink:href="#DejaVuSans-2e" transform="translate(63.623047 0)"/>
       <use xlink:href="#DejaVuSans-31" transform="translate(95.410156 0)"/>
       <use xlink:href="#DejaVuSans-34" transform="translate(159.033203 0)"/>
      </g>
     </g>
    </g>
    <g id="xtick_7">
     <g id="line2d_29">
      <path d="M 300.780252 398.64351 
L 300.780252 213.131177 
" clip-path="url(#p86de52034b)" style="fill: none; stroke: #b0b0b0; stroke-opacity: 0.3; stroke-width: 0.8; stroke-linecap: square"/>
     </g>
     <g id="line2d_30">
      <g>
       <use xlink:href="#m00c078bb11" x="300.780252" y="398.64351" style="stroke: #000000; stroke-width: 0.8"/>
      </g>
     </g>
     <g id="text_12">
      <!-- 1.16 -->
      <g transform="translate(289.64744 413.241947) scale(0.1 -0.1)">
       <defs>
        <path id="DejaVuSans-36" d="M 2113 2584 
Q 1688 2584 1439 2293 
Q 1191 2003 1191 1497 
Q 1191 994 1439 701 
Q 1688 409 2113 409 
Q 2538 409 2786 701 
Q 3034 994 3034 1497 
Q 3034 2003 2786 2293 
Q 2538 2584 2113 2584 
z
M 3366 4563 
L 3366 3988 
Q 3128 4100 2886 4159 
Q 2644 4219 2406 4219 
Q 1781 4219 1451 3797 
Q 1122 3375 1075 2522 
Q 1259 2794 1537 2939 
Q 1816 3084 2150 3084 
Q 2853 3084 3261 2657 
Q 3669 2231 3669 1497 
Q 3669 778 3244 343 
Q 2819 -91 2113 -91 
Q 1303 -91 875 529 
Q 447 1150 447 2328 
Q 447 3434 972 4092 
Q 1497 4750 2381 4750 
Q 2619 4750 2861 4703 
Q 3103 4656 3366 4563 
z
" transform="scale(0.015625)"/>
       </defs>
       <use xlink:href="#DejaVuSans-31"/>
       <use xlink:href="#DejaVuSans-2e" transform="translate(63.623047 0)"/>
       <use xlink:href="#DejaVuSans-31" transform="translate(95.410156 0)"/>
       <use xlink:href="#DejaVuSans-36" transform="translate(159.033203 0)"/>
      </g>
     </g>
    </g>
    <g id="xtick_8">
     <g id="line2d_31">
      <path d="M 460.842969 398.64351 
L 460.842969 213.131177 
" clip-path="url(#p86de52034b)" style="fill: none; stroke: #b0b0b0; stroke-opacity: 0.3; stroke-width: 0.8; stroke-linecap: square"/>
     </g>
     <g id="line2d_32">
      <g>
       <use xlink:href="#m00c078bb11" x="460.842969" y="398.64351" style="stroke: #000000; stroke-width: 0.8"/>
      </g>
     </g>
     <g id="text_13">
      <!-- 1.18 -->
      <g transform="translate(449.710156 413.241947) scale(0.1 -0.1)">
       <use xlink:href="#DejaVuSans-31"/>
       <use xlink:href="#DejaVuSans-2e" transform="translate(63.623047 0)"/>
       <use xlink:href="#DejaVuSans-31" transform="translate(95.410156 0)"/>
       <use xlink:href="#DejaVuSans-38" transform="translate(159.033203 0)"/>
      </g>
     </g>
    </g>
    <g id="xtick_9">
     <g id="line2d_33">
      <path d="M 620.905685 398.64351 
L 620.905685 213.131177 
" clip-path="url(#p86de52034b)" style="fill: none; stroke: #b0b0b0; stroke-opacity: 0.3; stroke-width: 0.8; stroke-linecap: square"/>
     </g>
     <g id="line2d_34">
      <g>
       <use xlink:href="#m00c078bb11" x="620.905685" y="398.64351" style="stroke: #000000; stroke-width: 0.8"/>
      </g>
     </g>
     <g id="text_14">
      <!-- 1.20 -->
      <g transform="translate(609.772873 413.241947) scale(0.1 -0.1)">
       <use xlink:href="#DejaVuSans-31"/>
       <use xlink:href="#DejaVuSans-2e" transform="translate(63.623047 0)"/>
       <use xlink:href="#DejaVuSans-32" transform="translate(95.410156 0)"/>
       <use xlink:href="#DejaVuSans-30" transform="translate(159.033203 0)"/>
      </g>
     </g>
    </g>
    <g id="xtick_10">
     <g id="line2d_35">
      <path d="M 780.968402 398.64351 
L 780.968402 213.131177 
" clip-path="url(#p86de52034b)" style="fill: none; stroke: #b0b0b0; stroke-opacity: 0.3; stroke-width: 0.8; stroke-linecap: square"/>
     </g>
     <g id="line2d_36">
      <g>
       <use xlink:href="#m00c078bb11" x="780.968402" y="398.64351" style="stroke: #000000; stroke-width: 0.8"/>
      </g>
     </g>
     <g id="text_15">
      <!-- 1.22 -->
      <g transform="translate(769.835589 413.241947) scale(0.1 -0.1)">
       <use xlink:href="#DejaVuSans-31"/>
       <use xlink:href="#DejaVuSans-2e" transform="translate(63.623047 0)"/>
       <use xlink:href="#DejaVuSans-32" transform="translate(95.410156 0)"/>
       <use xlink:href="#DejaVuSans-32" transform="translate(159.033203 0)"/>
      </g>
     </g>
    </g>
    <g id="text_16">
     <!-- Time (ms) -->
     <g transform="translate(435.64375 426.920073) scale(0.1 -0.1)">
      <use xlink:href="#DejaVuSans-54"/>
      <use xlink:href="#DejaVuSans-69" transform="translate(57.958984 0)"/>
      <use xlink:href="#DejaVuSans-6d" transform="translate(85.742188 0)"/>
      <use xlink:href="#DejaVuSans-65" transform="translate(183.154297 0)"/>
      <use xlink:href="#DejaVuSans-20" transform="translate(244.677734 0)"/>
      <use xlink:href="#DejaVuSans-28" transform="translate(276.464844 0)"/>
      <use xlink:href="#DejaVuSans-6d" transform="translate(315.478516 0)"/>
      <use xlink:href="#DejaVuSans-73" transform="translate(412.890625 0)"/>
      <use xlink:href="#DejaVuSans-29" transform="translate(464.990234 0)"/>
     </g>
    </g>
   </g>
   <g id="matplotlib.axis_4">
    <g id="ytick_6">
     <g id="line2d_37">
      <path d="M 60.686177 387.685808 
L 860.99976 387.685808 
" clip-path="url(#p86de52034b)" style="fill: none; stroke: #b0b0b0; stroke-opacity: 0.3; stroke-width: 0.8; stroke-linecap: square"/>
     </g>
     <g id="line2d_38">
      <g>
       <use xlink:href="#m4a28bf273e" x="60.686177" y="387.685808" style="stroke: #000000; stroke-width: 0.8"/>
      </g>
     </g>
     <g id="text_17">
      <!-- −3 -->
      <g transform="translate(38.94399 391.485027) scale(0.1 -0.1)">
       <use xlink:href="#DejaVuSans-2212"/>
       <use xlink:href="#DejaVuSans-33" transform="translate(83.789062 0)"/>
      </g>
     </g>
    </g>
    <g id="ytick_7">
     <g id="line2d_39">
      <path d="M 60.686177 359.887688 
L 860.99976 359.887688 
" clip-path="url(#p86de52034b)" style="fill: none; stroke: #b0b0b0; stroke-opacity: 0.3; stroke-width: 0.8; stroke-linecap: square"/>
     </g>
     <g id="line2d_40">
      <g>
       <use xlink:href="#m4a28bf273e" x="60.686177" y="359.887688" style="stroke: #000000; stroke-width: 0.8"/>
      </g>
     </g>
     <g id="text_18">
      <!-- −2 -->
      <g transform="translate(38.94399 363.686906) scale(0.1 -0.1)">
       <use xlink:href="#DejaVuSans-2212"/>
       <use xlink:href="#DejaVuSans-32" transform="translate(83.789062 0)"/>
      </g>
     </g>
    </g>
    <g id="ytick_8">
     <g id="line2d_41">
      <path d="M 60.686177 332.089567 
L 860.99976 332.089567 
" clip-path="url(#p86de52034b)" style="fill: none; stroke: #b0b0b0; stroke-opacity: 0.3; stroke-width: 0.8; stroke-linecap: square"/>
     </g>
     <g id="line2d_42">
      <g>
       <use xlink:href="#m4a28bf273e" x="60.686177" y="332.089567" style="stroke: #000000; stroke-width: 0.8"/>
      </g>
     </g>
     <g id="text_19">
      <!-- −1 -->
      <g transform="translate(38.94399 335.888786) scale(0.1 -0.1)">
       <use xlink:href="#DejaVuSans-2212"/>
       <use xlink:href="#DejaVuSans-31" transform="translate(83.789062 0)"/>
      </g>
     </g>
    </g>
    <g id="ytick_9">
     <g id="line2d_43">
      <path d="M 60.686177 304.291447 
L 860.99976 304.291447 
" clip-path="url(#p86de52034b)" style="fill: none; stroke: #b0b0b0; stroke-opacity: 0.3; stroke-width: 0.8; stroke-linecap: square"/>
     </g>
     <g id="line2d_44">
      <g>
       <use xlink:href="#m4a28bf273e" x="60.686177" y="304.291447" style="stroke: #000000; stroke-width: 0.8"/>
      </g>
     </g>
     <g id="text_20">
      <!-- 0 -->
      <g transform="translate(47.323678 308.090666) scale(0.1 -0.1)">
       <use xlink:href="#DejaVuSans-30"/>
      </g>
     </g>
    </g>
    <g id="ytick_10">
     <g id="line2d_45">
      <path d="M 60.686177 276.493327 
L 860.99976 276.493327 
" clip-path="url(#p86de52034b)" style="fill: none; stroke: #b0b0b0; stroke-opacity: 0.3; stroke-width: 0.8; stroke-linecap: square"/>
     </g>
     <g id="line2d_46">
      <g>
       <use xlink:href="#m4a28bf273e" x="60.686177" y="276.493327" style="stroke: #000000; stroke-width: 0.8"/>
      </g>
     </g>
     <g id="text_21">
      <!-- 1 -->
      <g transform="translate(47.323678 280.292545) scale(0.1 -0.1)">
       <use xlink:href="#DejaVuSans-31"/>
      </g>
     </g>
    </g>
    <g id="ytick_11">
     <g id="line2d_47">
      <path d="M 60.686177 248.695206 
L 860.99976 248.695206 
" clip-path="url(#p86de52034b)" style="fill: none; stroke: #b0b0b0; stroke-opacity: 0.3; stroke-width: 0.8; stroke-linecap: square"/>
     </g>
     <g id="line2d_48">
      <g>
       <use xlink:href="#m4a28bf273e" x="60.686177" y="248.695206" style="stroke: #000000; stroke-width: 0.8"/>
      </g>
     </g>
     <g id="text_22">
      <!-- 2 -->
      <g transform="translate(47.323678 252.494425) scale(0.1 -0.1)">
       <use xlink:href="#DejaVuSans-32"/>
      </g>
     </g>
    </g>
    <g id="ytick_12">
     <g id="line2d_49">
      <path d="M 60.686177 220.897086 
L 860.99976 220.897086 
" clip-path="url(#p86de52034b)" style="fill: none; stroke: #b0b0b0; stroke-opacity: 0.3; stroke-width: 0.8; stroke-linecap: square"/>
     </g>
     <g id="line2d_50">
      <g>
       <use xlink:href="#m4a28bf273e" x="60.686177" y="220.897086" style="stroke: #000000; stroke-width: 0.8"/>
      </g>
     </g>
     <g id="text_23">
      <!-- 3 -->
      <g transform="translate(47.323678 224.696305) scale(0.1 -0.1)">
       <use xlink:href="#DejaVuSans-33"/>
      </g>
     </g>
    </g>
    <g id="text_24">
     <!-- FM -->
     <g transform="translate(32.864303 313.077187) rotate(-90) scale(0.1 -0.1)">
      <defs>
       <path id="DejaVuSans-46" d="M 628 4666 
L 3309 4666 
L 3309 4134 
L 1259 4134 
L 1259 2759 
L 3109 2759 
L 3109 2228 
L 1259 2228 
L 1259 0 
L 628 0 
L 628 4666 
z
" transform="scale(0.015625)"/>
       <path id="DejaVuSans-4d" d="M 628 4666 
L 1569 4666 
L 2759 1491 
L 3956 4666 
L 4897 4666 
L 4897 0 
L 4281 0 
L 4281 4097 
L 3078 897 
L 2444 897 
L 1241 4097 
L 1241 0 
L 628 0 
L 628 4666 
z
" transform="scale(0.015625)"/>
      </defs>
      <use xlink:href="#DejaVuSans-46"/>
      <use xlink:href="#DejaVuSans-4d" transform="translate(57.519531 0)"/>
     </g>
    </g>
   </g>
   <g id="line2d_51">
    <path d="M 64.687745 366.09856 
L 68.689313 311.238168 
L 72.690881 308.531804 
L 76.692449 307.885492 
L 80.694017 340.114675 
L 84.695585 324.467274 
L 88.697153 346.315129 
L 92.698721 345.042354 
L 96.700289 312.144569 
L 100.701857 311.397123 
L 104.703425 378.334917 
L 108.704992 299.294139 
L 112.70656 286.912293 
L 116.708128 307.475234 
L 120.709696 362.384433 
L 124.711264 317.152415 
L 128.712832 360.993859 
L 132.7144 326.310284 
L 140.717536 304.971464 
L 144.719104 335.147165 
L 148.720672 319.699583 
L 152.722239 351.670273 
L 156.723807 370.712554 
L 160.725375 336.395167 
L 164.726943 308.219486 
L 168.728511 250.15704 
L 172.730079 293.175921 
L 176.731647 247.334748 
L 180.733215 264.682646 
L 184.734783 246.653909 
L 188.736351 221.563556 
L 192.737919 390.120068 
L 196.739487 291.815065 
L 200.741054 390.211131 
L 204.742622 290.962015 
L 208.74419 291.174045 
L 212.745758 308.790148 
L 216.747326 321.734597 
L 220.748894 299.347558 
L 224.750462 287.101895 
L 228.75203 312.376071 
L 232.753598 320.797085 
L 236.755166 296.935169 
L 240.756734 287.584516 
L 244.758301 312.770624 
L 248.759869 320.500619 
L 252.761437 298.171426 
L 256.763005 287.581918 
L 260.764573 311.435563 
L 264.766141 321.499264 
L 268.767709 298.670059 
L 272.769277 287.109186 
L 276.770845 311.759864 
L 280.772413 321.069346 
L 284.773981 298.287382 
L 288.775549 287.622797 
L 292.777116 311.697141 
L 296.778684 320.340921 
L 300.780252 298.05486 
L 304.78182 288.008443 
L 308.783388 311.691521 
L 312.784956 321.535663 
L 316.786524 297.995212 
L 320.788092 287.917248 
L 324.78966 311.813574 
L 328.791228 321.040291 
L 332.792796 298.483718 
L 336.794363 287.829154 
L 340.795931 310.301927 
L 344.797499 325.811651 
L 348.799067 326.710988 
L 352.800635 322.229943 
L 356.802203 297.052106 
L 360.803771 287.817754 
L 364.805339 312.668719 
L 368.806907 320.720443 
L 372.808475 298.302599 
L 376.810043 282.81647 
L 380.81161 284.663712 
L 384.813178 281.816049 
L 388.814746 282.645028 
L 392.816314 287.891665 
L 396.817882 311.359372 
L 400.81945 321.50332 
L 404.821018 298.115834 
L 408.822586 287.335001 
L 412.824154 312.78547 
L 416.825722 321.790348 
L 420.82729 297.42736 
L 424.828858 287.366575 
L 428.830425 311.590145 
L 432.831993 326.577455 
L 436.833561 325.444031 
L 440.835129 322.079603 
L 444.836697 298.317816 
L 448.838265 282.681347 
L 452.839833 283.188755 
L 456.841401 287.085936 
L 460.842969 311.441422 
L 464.844537 325.564813 
L 468.846105 326.566056 
L 476.84924 326.378336 
L 480.850808 326.81125 
L 484.852376 325.784875 
L 488.853944 327.561864 
L 492.855512 326.741793 
L 496.85708 320.493356 
L 500.858648 298.147407 
L 504.860216 288.701875 
L 508.861784 310.87874 
L 512.863352 321.631286 
L 516.86492 298.223969 
L 520.866487 288.100461 
L 524.868055 311.298558 
L 528.869623 321.194554 
L 532.871191 297.830927 
L 536.872759 288.007197 
L 540.874327 311.097238 
L 544.875895 320.707559 
L 548.877463 299.411315 
L 552.879031 287.96828 
L 556.880599 310.309085 
L 560.882167 327.184781 
L 564.883734 326.598743 
L 568.885302 320.797429 
L 572.88687 298.322641 
L 576.888438 283.245143 
L 580.890006 283.259882 
L 584.891574 281.783044 
L 588.893142 283.211262 
L 592.89471 287.670251 
L 596.896278 310.847722 
L 600.897846 321.371007 
L 604.899414 298.983703 
L 608.900982 286.992328 
L 612.902549 312.34789 
L 616.904117 321.066191 
L 620.905685 297.893544 
L 624.907253 283.436706 
L 628.908821 283.388139 
L 632.910389 286.283441 
L 636.911957 312.219103 
L 640.913525 321.15903 
L 644.915093 297.972757 
L 648.916661 287.811869 
L 652.918229 312.486964 
L 656.919796 324.917615 
L 660.921364 326.29785 
L 664.922932 321.968339 
L 668.9245 298.154035 
L 672.926068 288.102847 
L 676.927636 311.146388 
L 680.929204 325.592781 
L 684.930772 327.024658 
L 688.93234 321.960916 
L 692.933908 297.332691 
L 696.935476 288.923236 
L 700.937043 311.764238 
L 704.938611 326.180728 
L 708.940179 325.246768 
L 712.941747 326.589199 
L 716.943315 325.912867 
L 720.944883 326.73156 
L 724.946451 326.849955 
L 728.948019 321.506952 
L 732.949587 298.681326 
L 736.951155 282.02556 
L 740.952723 283.26195 
L 744.954291 282.438539 
L 748.955858 283.990402 
L 752.957426 282.832429 
L 756.958994 282.35116 
L 760.960562 288.431469 
L 764.96213 311.45587 
L 768.963698 319.743802 
L 772.965266 298.946536 
L 776.966834 287.665373 
L 780.968402 310.532196 
L 784.96997 326.498375 
L 788.971538 327.667534 
L 792.973105 320.235622 
L 796.974673 298.79988 
L 800.976241 283.671853 
L 804.977809 283.779538 
L 808.979377 282.806979 
L 812.980945 282.789695 
L 816.982513 288.584063 
L 820.984081 310.35638 
L 824.985649 326.231415 
L 828.987217 326.017583 
L 832.988785 326.660035 
L 836.990353 326.654203 
L 840.99192 325.439127 
L 844.993488 325.804864 
L 848.995056 326.993323 
L 852.996624 327.652901 
L 856.998192 323.207804 
L 860.99976 326.160421 
L 860.99976 326.160421 
" clip-path="url(#p86de52034b)" style="fill: none; stroke: #2ca02c; stroke-width: 1.5; stroke-linecap: square"/>
   </g>
   <g id="patch_9">
    <path d="M 60.686177 398.64351 
L 60.686177 213.131177 
" style="fill: none; stroke: #000000; stroke-width: 0.8; stroke-linejoin: miter; stroke-linecap: square"/>
   </g>
   <g id="patch_10">
    <path d="M 860.99976 398.64351 
L 860.99976 213.131177 
" style="fill: none; stroke: #000000; stroke-width: 0.8; stroke-linejoin: miter; stroke-linecap: square"/>
   </g>
   <g id="patch_11">
    <path d="M 60.686177 398.64351 
L 860.99976 398.64351 
" style="fill: none; stroke: #000000; stroke-width: 0.8; stroke-linejoin: miter; stroke-linecap: square"/>
   </g>
   <g id="patch_12">
    <path d="M 60.686177 213.131177 
L 860.99976 213.131177 
" style="fill: none; stroke: #000000; stroke-width: 0.8; stroke-linejoin: miter; stroke-linecap: square"/>
   </g>
   <g id="legend_2">
    <g id="patch_13">
     <path d="M 760.121635 235.809302 
L 853.99976 235.809302 
Q 855.99976 235.809302 855.99976 233.809302 
L 855.99976 220.131177 
Q 855.99976 218.131177 853.99976 218.131177 
L 760.121635 218.131177 
Q 758.121635 218.131177 758.121635 220.131177 
L 758.121635 233.809302 
Q 758.121635 235.809302 760.121635 235.809302 
z
" style="fill: #ffffff; opacity: 0.8; stroke: #cccccc; stroke-linejoin: miter"/>
    </g>
    <g id="line2d_52">
     <path d="M 762.121635 226.229615 
L 772.121635 226.229615 
L 782.121635 226.229615 
" style="fill: none; stroke: #2ca02c; stroke-width: 1.5; stroke-linecap: square"/>
    </g>
    <g id="text_25">
     <!-- FM Decoded -->
     <g transform="translate(790.121635 229.729615) scale(0.1 -0.1)">
      <defs>
       <path id="DejaVuSans-44" d="M 1259 4147 
L 1259 519 
L 2022 519 
Q 2988 519 3436 956 
Q 3884 1394 3884 2338 
Q 3884 3275 3436 3711 
Q 2988 4147 2022 4147 
L 1259 4147 
z
M 628 4666 
L 1925 4666 
Q 3281 4666 3915 4102 
Q 4550 3538 4550 2338 
Q 4550 1131 3912 565 
Q 3275 0 1925 0 
L 628 0 
L 628 4666 
z
" transform="scale(0.015625)"/>
       <path id="DejaVuSans-63" d="M 3122 3366 
L 3122 2828 
Q 2878 2963 2633 3030 
Q 2388 3097 2138 3097 
Q 1578 3097 1268 2742 
Q 959 2388 959 1747 
Q 959 1106 1268 751 
Q 1578 397 2138 397 
Q 2388 397 2633 464 
Q 2878 531 3122 666 
L 3122 134 
Q 2881 22 2623 -34 
Q 2366 -91 2075 -91 
Q 1284 -91 818 406 
Q 353 903 353 1747 
Q 353 2603 823 3093 
Q 1294 3584 2113 3584 
Q 2378 3584 2631 3529 
Q 2884 3475 3122 3366 
z
" transform="scale(0.015625)"/>
      </defs>
      <use xlink:href="#DejaVuSans-46"/>
      <use xlink:href="#DejaVuSans-4d" transform="translate(57.519531 0)"/>
      <use xlink:href="#DejaVuSans-20" transform="translate(143.798828 0)"/>
      <use xlink:href="#DejaVuSans-44" transform="translate(175.585938 0)"/>
      <use xlink:href="#DejaVuSans-65" transform="translate(252.587891 0)"/>
      <use xlink:href="#DejaVuSans-63" transform="translate(314.111328 0)"/>
      <use xlink:href="#DejaVuSans-6f" transform="translate(369.091797 0)"/>
      <use xlink:href="#DejaVuSans-64" transform="translate(430.273438 0)"/>
      <use xlink:href="#DejaVuSans-65" transform="translate(493.75 0)"/>
      <use xlink:href="#DejaVuSans-64" transform="translate(555.273438 0)"/>
     </g>
    </g>
   </g>
  </g>
 </g>
 <defs>
  <clipPath id="pecb7935159">
   <rect x="60.686177" y="18.118365" width="800.313583" height="185.512333"/>
  </clipPath>
  <clipPath id="p86de52034b">
   <rect x="60.686177" y="213.131177" width="800.313583" height="185.512333"/>
  </clipPath>
 </defs>
</svg>
