<?xml version="1.0" encoding="utf-8" standalone="no"?>
<!DOCTYPE svg PUBLIC "-//W3C//DTD SVG 1.1//EN"
  "http://www.w3.org/Graphics/SVG/1.1/DTD/svg11.dtd">
<svg xmlns:xlink="http://www.w3.org/1999/xlink" width="864pt" height="432pt" viewBox="0 0 864 432" xmlns="http://www.w3.org/2000/svg" version="1.1">
 <metadata>
  <rdf:RDF xmlns:dc="http://purl.org/dc/elements/1.1/" xmlns:cc="http://creativecommons.org/ns#" xmlns:rdf="http://www.w3.org/1999/02/22-rdf-syntax-ns#">
   <cc:Work>
    <dc:type rdf:resource="http://purl.org/dc/dcmitype/StillImage"/>
    <dc:date>2026-02-24T08:01:25.285131</dc:date>
    <dc:format>image/svg+xml</dc:format>
    <dc:creator>
     <cc:Agent>
      <dc:title>Matplotlib v3.10.8, https://matplotlib.org/</dc:title>
     </cc:Agent>
    </dc:creator>
   </cc:Work>
  </rdf:RDF>
 </metadata>
 <defs>
  <style type="text/css">*{stroke-linejoin: round; stroke-linecap: butt}</style>
 </defs>
 <g id="figure_1">
  <g id="patch_1">
   <path d="M 0 432 
L 864 432 
L 864 0 
L 0 0 
z
" style="fill: #ffffff"/>
  </g>
  <g id="axes_1">
   <g id="patch_2">
    <path d="M 60.686177 203.630697 
L 860.99976 203.630697 
L 860.99976 18.118365 
L 60.686177 18.118365 
z
" style="fill: #ffffff"/>
   </g>
   <g id="matplotlib.axis_1">
    <g id="xtick_1">
     <g id="line2d_1">
      <path d="M 140.717536 203.630697 
L 140.717536 18.118365 
" clip-path="url(#p791402b6dd)" style="fill: none; stroke: #b0b0b0; stroke-opacity: 0.3; stroke-width: 0.8; stroke-linecap: square"/>
     </g>
     <g id="line2d_2">
      <defs>
       <path id="med17b2b0f5" d="M 0 0 
L 0 3.5 
" style="stroke: #000000; stroke-width: 0.8"/>
      </defs>
      <g>
       <use xlink:href="#med17b2b0f5" x="140.717536" y="203.630697" style="stroke: #000000; stroke-width: 0.8"/>
      </g>
     </g>
    </g>
    <g id="xtick_2">
     <g id="line2d_3">
      <path d="M 300.780252 203.630697 
L 300.780252 18.118365 
" clip-path="url(#p791402b6dd)" style="fill: none; stroke: #b0b0b0; stroke-opacity: 0.3; stroke-width: 0.8; stroke-linecap: square"/>
     </g>
     <g id="line2d_4">
      <g>
       <use xlink:href="#med17b2b0f5" x="300.780252" y="203.630697" style="stroke: #000000; stroke-width: 0.8"/>
      </g>
     </g>
    </g>
    <g id="xtick_3">
     <g id="line2d_5">
      <path d="M 460.842969 203.630697 
L 460.842969 18.118365 
" clip-path="url(#p791402b6dd)" style="fill: none; stroke: #b0b0b0; stroke-opacity: 0.3; stroke-width: 0.8; stroke-linecap: square"/>
     </g>
     <g id="line2d_6">
      <g>
       <use xlink:href="#med17b2b0f5" x="460.842969" y="203.630697" style="stroke: #000000; stroke-width: 0.8"/>
      </g>
     </g>
    </g>
    <g id="xtick_4">
     <g id="line2d_7">
      <path d="M 620.905685 203.630697 
L 620.905685 18.118365 
" clip-path="url(#p791402b6dd)" style="fill: none; stroke: #b0b0b0; stroke-opacity: 0.3; stroke-width: 0.8; stroke-linecap: square"/>
     </g>
     <g id="line2d_8">
      <g>
       <use xlink:href="#med17b2b0f5" x="620.905685" y="203.630697" style="stroke: #000000; stroke-width: 0.8"/>
      </g>
     </g>
    </g>
    <g id="xtick_5">
     <g id="line2d_9">
      <path d="M 780.968402 203.630697 
L 780.968402 18.118365 
" clip-path="url(#p791402b6dd)" style="fill: none; stroke: #b0b0b0; stroke-opacity: 0.3; stroke-width: 0.8; stroke-linecap: square"/>
     </g>
     <g id="line2d_10">
      <g>
       <use xlink:href="#med17b2b0f5" x="780.968402" y="203.630697" style="stroke: #000000; stroke-width: 0.8"/>
      </g>
     </g>
    </g>
   </g>
   <g id="matplotlib.axis_2">
    <g id="ytick_1">
     <g id="line2d_11">
      <path d="M 60.686177 190.662816 
L 860.99976 190.662816 
" clip-path="url(#p791402b6dd)" style="fill: none; stroke: #b0b0b0; stroke-opacity: 0.3; stroke-width: 0.8; stroke-linecap: square"/>
     </g>
     <g id="line2d_12">
      <defs>
       <path id="m93fd130772" d="M 0 0 
L -3.5 0 
" style="stroke: #000000; stroke-width: 0.8"/>
      </defs>
      <g>
       <use xlink:href="#m93fd130772" x="60.686177" y="190.662816" style="stroke: #000000; stroke-width: 0.8"/>
      </g>
     </g>
     <g id="text_1">
      <!-- −0.004 -->
      <g transform="translate(16.678365 194.462034) scale(0.1 -0.1)">
       <defs>
        <path id="DejaVuSans-2212" d="M 678 2272 
L 4684 2272 
L 4684 1741 
L 678 1741 
L 678 2272 
z
" transform="scale(0.015625)"/>
        <path id="DejaVuSans-30" d="M 2034 4250 
Q 1547 4250 1301 3770 
Q 1056 3291 1056 2328 
Q 1056 1369 1301 889 
Q 1547 409 2034 409 
Q 2525 409 2770 889 
Q 3016 1369 3016 2328 
Q 3016 3291 2770 3770 
Q 2525 4250 2034 4250 
z
M 2034 4750 
Q 2819 4750 3233 4129 
Q 3647 3509 3647 2328 
Q 3647 1150 3233 529 
Q 2819 -91 2034 -91 
Q 1250 -91 836 529 
Q 422 1150 422 2328 
Q 422 3509 836 4129 
Q 1250 4750 2034 4750 
z
" transform="scale(0.015625)"/>
        <path id="DejaVuSans-2e" d="M 684 794 
L 1344 794 
L 1344 0 
L 684 0 
L 684 794 
z
" transform="scale(0.015625)"/>
        <path id="DejaVuSans-34" d="M 2419 4116 
L 825 1625 
L 2419 1625 
L 2419 4116 
z
M 2253 4666 
L 3047 4666 
L 3047 1625 
L 3713 1625 
L 3713 1100 
L 3047 1100 
L 3047 0 
L 2419 0 
L 2419 1100 
L 313 1100 
L 313 1709 
L 2253 4666 
z
" transform="scale(0.015625)"/>
       </defs>
       <use xlink:href="#DejaVuSans-2212"/>
       <use xlink:href="#DejaVuSans-30" transform="translate(83.789062 0)"/>
       <use xlink:href="#DejaVuSans-2e" transform="translate(147.412109 0)"/>
       <use xlink:href="#DejaVuSans-30" transform="translate(179.199219 0)"/>
       <use xlink:href="#DejaVuSans-30" transform="translate(242.822266 0)"/>
       <use xlink:href="#DejaVuSans-34" transform="translate(306.445312 0)"/>
      </g>
     </g>
    </g>
    <g id="ytick_2">
     <g id="line2d_13">
      <path d="M 60.686177 152.124167 
L 860.99976 152.124167 
" clip-path="url(#p791402b6dd)" style="fill: none; stroke: #b0b0b0; stroke-opacity: 0.3; stroke-width: 0.8; stroke-linecap: square"/>
     </g>
     <g id="line2d_14">
      <g>
       <use xlink:href="#m93fd130772" x="60.686177" y="152.124167" style="stroke: #000000; stroke-width: 0.8"/>
      </g>
     </g>
     <g id="text_2">
      <!-- −0.002 -->
      <g transform="translate(16.678365 155.923386) scale(0.1 -0.1)">
       <defs>
        <path id="DejaVuSans-32" d="M 1228 531 
L 3431 531 
L 3431 0 
L 469 0 
L 469 531 
Q 828 903 1448 1529 
Q 2069 2156 2228 2338 
Q 2531 2678 2651 2914 
Q 2772 3150 2772 3378 
Q 2772 3750 2511 3984 
Q 2250 4219 1831 4219 
Q 1534 4219 1204 4116 
Q 875 4013 500 3803 
L 500 4441 
Q 881 4594 1212 4672 
Q 1544 4750 1819 4750 
Q 2544 4750 2975 4387 
Q 3406 4025 3406 3419 
Q 3406 3131 3298 2873 
Q 3191 2616 2906 2266 
Q 2828 2175 2409 1742 
Q 1991 1309 1228 531 
z
" transform="scale(0.015625)"/>
       </defs>
       <use xlink:href="#DejaVuSans-2212"/>
       <use xlink:href="#DejaVuSans-30" transform="translate(83.789062 0)"/>
       <use xlink:href="#DejaVuSans-2e" transform="translate(147.412109 0)"/>
       <use xlink:href="#DejaVuSans-30" transform="translate(179.199219 0)"/>
       <use xlink:href="#DejaVuSans-30" transform="translate(242.822266 0)"/>
       <use xlink:href="#DejaVuSans-32" transform="translate(306.445312 0)"/>
      </g>
     </g>
    </g>
    <g id="ytick_3">
     <g id="line2d_15">
      <path d="M 60.686177 113.585519 
L 860.99976 113.585519 
" clip-path="url(#p791402b6dd)" style="fill: none; stroke: #b0b0b0; stroke-opacity: 0.3; stroke-width: 0.8; stroke-linecap: square"/>
     </g>
     <g id="line2d_16">
      <g>
       <use xlink:href="#m93fd130772" x="60.686177" y="113.585519" style="stroke: #000000; stroke-width: 0.8"/>
      </g>
     </g>
     <g id="text_3">
      <!-- 0.000 -->
      <g transform="translate(25.058052 117.384738) scale(0.1 -0.1)">
       <use xlink:href="#DejaVuSans-30"/>
       <use xlink:href="#DejaVuSans-2e" transform="translate(63.623047 0)"/>
       <use xlink:href="#DejaVuSans-30" transform="translate(95.410156 0)"/>
       <use xlink:href="#DejaVuSans-30" transform="translate(159.033203 0)"/>
       <use xlink:href="#DejaVuSans-30" transform="translate(222.65625 0)"/>
      </g>
     </g>
    </g>
    <g id="ytick_4">
     <g id="line2d_17">
      <path d="M 60.686177 75.046871 
L 860.99976 75.046871 
" clip-path="url(#p791402b6dd)" style="fill: none; stroke: #b0b0b0; stroke-opacity: 0.3; stroke-width: 0.8; stroke-linecap: square"/>
     </g>
     <g id="line2d_18">
      <g>
       <use xlink:href="#m93fd130772" x="60.686177" y="75.046871" style="stroke: #000000; stroke-width: 0.8"/>
      </g>
     </g>
     <g id="text_4">
      <!-- 0.002 -->
      <g transform="translate(25.058052 78.84609) scale(0.1 -0.1)">
       <use xlink:href="#DejaVuSans-30"/>
       <use xlink:href="#DejaVuSans-2e" transform="translate(63.623047 0)"/>
       <use xlink:href="#DejaVuSans-30" transform="translate(95.410156 0)"/>
       <use xlink:href="#DejaVuSans-30" transform="translate(159.033203 0)"/>
       <use xlink:href="#DejaVuSans-32" transform="translate(222.65625 0)"/>
      </g>
     </g>
    </g>
    <g id="ytick_5">
     <g id="line2d_19">
      <path d="M 60.686177 36.508223 
L 860.99976 36.508223 
" clip-path="url(#p791402b6dd)" style="fill: none; stroke: #b0b0b0; stroke-opacity: 0.3; stroke-width: 0.8; stroke-linecap: square"/>
     </g>
     <g id="line2d_20">
      <g>
       <use xlink:href="#m93fd130772" x="60.686177" y="36.508223" style="stroke: #000000; stroke-width: 0.8"/>
      </g>
     </g>
     <g id="text_5">
      <!-- 0.004 -->
      <g transform="translate(25.058052 40.307442) scale(0.1 -0.1)">
       <use xlink:href="#DejaVuSans-30"/>
       <use xlink:href="#DejaVuSans-2e" transform="translate(63.623047 0)"/>
       <use xlink:href="#DejaVuSans-30" transform="translate(95.410156 0)"/>
       <use xlink:href="#DejaVuSans-30" transform="translate(159.033203 0)"/>
       <use xlink:href="#DejaVuSans-34" transform="translate(222.65625 0)"/>
      </g>
     </g>
    </g>
    <g id="text_6">
     <!-- Amplitude -->
     <g transform="translate(10.598677 136.497187) rotate(-90) scale(0.1 -0.1)">
      <defs>
       <path id="DejaVuSans-41" d="M 2188 4044 
L 1331 1722 
L 3047 1722 
L 2188 4044 
z
M 1831 4666 
L 2547 4666 
L 4325 0 
L 3669 0 
L 3244 1197 
L 1141 1197 
L 716 0 
L 50 0 
L 1831 4666 
z
" transform="scale(0.015625)"/>
       <path id="DejaVuSans-6d" d="M 3328 2828 
Q 3544 3216 3844 3400 
Q 4144 3584 4550 3584 
Q 5097 3584 5394 3201 
Q 5691 2819 5691 2113 
L 5691 0 
L 5113 0 
L 5113 2094 
Q 5113 2597 4934 2840 
Q 4756 3084 4391 3084 
Q 3944 3084 3684 2787 
Q 3425 2491 3425 1978 
L 3425 0 
L 2847 0 
L 2847 2094 
Q 2847 2600 2669 2842 
Q 2491 3084 2119 3084 
Q 1678 3084 1418 2786 
Q 1159 2488 1159 1978 
L 1159 0 
L 581 0 
L 581 3500 
L 1159 3500 
L 1159 2956 
Q 1356 3278 1631 3431 
Q 1906 3584 2284 3584 
Q 2666 3584 2933 3390 
Q 3200 3197 3328 2828 
z
" transform="scale(0.015625)"/>
       <path id="DejaVuSans-70" d="M 1159 525 
L 1159 -1331 
L 581 -1331 
L 581 3500 
L 1159 3500 
L 1159 2969 
Q 1341 3281 1617 3432 
Q 1894 3584 2278 3584 
Q 2916 3584 3314 3078 
Q 3713 2572 3713 1747 
Q 3713 922 3314 415 
Q 2916 -91 2278 -91 
Q 1894 -91 1617 61 
Q 1341 213 1159 525 
z
M 3116 1747 
Q 3116 2381 2855 2742 
Q 2594 3103 2138 3103 
Q 1681 3103 1420 2742 
Q 1159 2381 1159 1747 
Q 1159 1113 1420 752 
Q 1681 391 2138 391 
Q 2594 391 2855 752 
Q 3116 1113 3116 1747 
z
" transform="scale(0.015625)"/>
       <path id="DejaVuSans-6c" d="M 603 4863 
L 1178 4863 
L 1178 0 
L 603 0 
L 603 4863 
z
" transform="scale(0.015625)"/>
       <path id="DejaVuSans-69" d="M 603 3500 
L 1178 3500 
L 1178 0 
L 603 0 
L 603 3500 
z
M 603 4863 
L 1178 4863 
L 1178 4134 
L 603 4134 
L 603 4863 
z
" transform="scale(0.015625)"/>
       <path id="DejaVuSans-74" d="M 1172 4494 
L 1172 3500 
L 2356 3500 
L 2356 3053 
L 1172 3053 
L 1172 1153 
Q 1172 725 1289 603 
Q 1406 481 1766 481 
L 2356 481 
L 2356 0 
L 1766 0 
Q 1100 0 847 248 
Q 594 497 594 1153 
L 594 3053 
L 172 3053 
L 172 3500 
L 594 3500 
L 594 4494 
L 1172 4494 
z
" transform="scale(0.015625)"/>
       <path id="DejaVuSans-75" d="M 544 1381 
L 544 3500 
L 1119 3500 
L 1119 1403 
Q 1119 906 1312 657 
Q 1506 409 1894 409 
Q 2359 409 2629 706 
Q 2900 1003 2900 1516 
L 2900 3500 
L 3475 3500 
L 3475 0 
L 2900 0 
L 2900 538 
Q 2691 219 2414 64 
Q 2138 -91 1772 -91 
Q 1169 -91 856 284 
Q 544 659 544 1381 
z
M 1991 3584 
L 1991 3584 
z
" transform="scale(0.015625)"/>
       <path id="DejaVuSans-64" d="M 2906 2969 
L 2906 4863 
L 3481 4863 
L 3481 0 
L 2906 0 
L 2906 525 
Q 2725 213 2448 61 
Q 2172 -91 1784 -91 
Q 1150 -91 751 415 
Q 353 922 353 1747 
Q 353 2572 751 3078 
Q 1150 3584 1784 3584 
Q 2172 3584 2448 3432 
Q 2725 3281 2906 2969 
z
M 947 1747 
Q 947 1113 1208 752 
Q 1469 391 1925 391 
Q 2381 391 2643 752 
Q 2906 1113 2906 1747 
Q 2906 2381 2643 2742 
Q 2381 3103 1925 3103 
Q 1469 3103 1208 2742 
Q 947 2381 947 1747 
z
" transform="scale(0.015625)"/>
       <path id="DejaVuSans-65" d="M 3597 1894 
L 3597 1613 
L 953 1613 
Q 991 1019 1311 708 
Q 1631 397 2203 397 
Q 2534 397 2845 478 
Q 3156 559 3463 722 
L 3463 178 
Q 3153 47 2828 -22 
Q 2503 -91 2169 -91 
Q 1331 -91 842 396 
Q 353 884 353 1716 
Q 353 2575 817 3079 
Q 1281 3584 2069 3584 
Q 2775 3584 3186 3129 
Q 3597 2675 3597 1894 
z
M 3022 2063 
Q 3016 2534 2758 2815 
Q 2500 3097 2075 3097 
Q 1594 3097 1305 2825 
Q 1016 2553 972 2059 
L 3022 2063 
z
" transform="scale(0.015625)"/>
      </defs>
      <use xlink:href="#DejaVuSans-41"/>
      <use xlink:href="#DejaVuSans-6d" transform="translate(68.408203 0)"/>
      <use xlink:href="#DejaVuSans-70" transform="translate(165.820312 0)"/>
      <use xlink:href="#DejaVuSans-6c" transform="translate(229.296875 0)"/>
      <use xlink:href="#DejaVuSans-69" transform="translate(257.080078 0)"/>
      <use xlink:href="#DejaVuSans-74" transform="translate(284.863281 0)"/>
      <use xlink:href="#DejaVuSans-75" transform="translate(324.072266 0)"/>
      <use xlink:href="#DejaVuSans-64" transform="translate(387.451172 0)"/>
      <use xlink:href="#DejaVuSans-65" transform="translate(450.927734 0)"/>
     </g>
    </g>
   </g>
   <g id="line2d_21">
    <path d="M 60.686177 113.528677 
L 64.687745 114.45163 
L 68.689313 114.816561 
L 76.692449 114.577742 
L 80.694017 113.043481 
L 84.695585 112.091545 
L 92.698721 114.591412 
L 96.700289 115.012762 
L 100.701857 114.275326 
L 104.703425 112.345058 
L 108.704992 111.852491 
L 112.70656 113.202519 
L 116.708128 113.420796 
L 120.709696 112.669761 
L 124.711264 113.37605 
L 128.712832 114.514809 
L 136.715968 113.883526 
L 140.717536 113.833516 
L 144.719104 112.407656 
L 148.720672 112.024913 
L 152.722239 113.614497 
L 156.723807 113.736464 
L 160.725375 112.77333 
L 164.726943 112.700506 
L 172.730079 115.150639 
L 176.731647 113.300282 
L 180.733215 112.535269 
L 184.734783 114.166693 
L 188.736351 112.011349 
L 192.737919 115.177668 
L 196.739487 117.09678 
L 200.741054 88.451458 
L 204.742622 54.283245 
L 208.74419 52.080128 
L 212.745758 48.138985 
L 216.747326 29.222107 
L 220.748894 35.8111 
L 224.750462 52.754075 
L 228.75203 40.888163 
L 232.753598 27.410086 
L 236.755166 40.626027 
L 240.756734 51.287989 
L 244.758301 38.5322 
L 248.759869 28.421861 
L 252.761437 38.786494 
L 256.763005 47.958327 
L 260.764573 39.44119 
L 264.766141 31.229847 
L 268.767709 38.945554 
L 272.769277 46.056576 
L 276.770845 37.680476 
L 280.772413 30.982354 
L 284.773981 38.722683 
L 288.775549 42.891636 
L 292.777116 34.774891 
L 296.778684 31.460686 
L 300.780252 37.77646 
L 304.78182 40.447303 
L 308.783388 37.317977 
L 312.784956 36.82571 
L 316.786524 39.331607 
L 320.788092 40.069935 
L 328.791228 37.644548 
L 332.792796 38.683731 
L 336.794363 40.013266 
L 340.795931 36.383719 
L 344.797499 48.119249 
L 348.799067 102.561059 
L 352.800635 153.073797 
L 356.802203 130.391779 
L 360.803771 85.856064 
L 364.805339 109.749715 
L 368.806907 155.760581 
L 372.808475 137.385427 
L 376.810043 80.744435 
L 380.81161 44.292484 
L 384.813178 43.532998 
L 388.814746 84.77347 
L 392.816314 129.059839 
L 396.817882 108.407889 
L 400.81945 61.380341 
L 404.821018 80.62878 
L 408.822586 125.524733 
L 412.824154 101.546997 
L 416.825722 54.893847 
L 420.82729 75.656229 
L 424.828858 118.904867 
L 428.830425 98.078192 
L 432.831993 43.764801 
L 436.833561 35.717888 
L 440.835129 59.740045 
L 444.836697 52.007599 
L 448.838265 35.54252 
L 452.839833 69.354457 
L 456.841401 111.497262 
L 460.842969 92.001143 
L 464.844537 44.101566 
L 468.846105 35.994938 
L 472.847672 75.493194 
L 476.84924 136.283807 
L 480.850808 184.550386 
L 484.852376 188.107158 
L 488.853944 145.559332 
L 492.855512 84.614682 
L 496.85708 47.237541 
L 500.858648 64.425559 
L 504.860216 98.444036 
L 508.861784 82.655609 
L 512.863352 45.033589 
L 516.86492 58.871174 
L 520.866487 93.996292 
L 524.868055 78.355655 
L 528.869623 43.926028 
L 532.871191 58.727328 
L 536.872759 91.153157 
L 540.874327 75.37729 
L 544.875895 41.278057 
L 548.877463 54.320815 
L 552.879031 85.924111 
L 556.880599 69.933793 
L 560.882167 35.443997 
L 564.883734 51.071578 
L 568.885302 87.692461 
L 572.88687 76.500054 
L 576.888438 43.29446 
L 580.890006 50.811479 
L 584.891574 94.918872 
L 588.893142 146.611761 
L 592.89471 182.339354 
L 596.896278 169.568518 
L 600.897846 132.81707 
L 604.899414 142.90266 
L 608.900982 179.659041 
L 612.902549 165.107665 
L 616.904117 126.365964 
L 620.905685 141.208629 
L 624.907253 181.656287 
L 628.908821 178.827595 
L 632.910389 157.264326 
L 636.911957 170.410565 
L 640.913525 192.103897 
L 644.915093 178.551057 
L 648.916661 160.328859 
L 652.918229 178.306086 
L 656.919796 193.523351 
L 660.921364 157.293273 
L 664.922932 114.273477 
L 668.9245 129.427504 
L 672.926068 167.94781 
L 676.927636 155.403824 
L 680.929204 97.364798 
L 684.930772 48.642409 
L 688.93234 33.408199 
L 692.933908 44.000032 
L 696.935476 53.594511 
L 700.937043 41.53616 
L 704.938611 37.138867 
L 708.940179 76.40407 
L 712.941747 138.574481 
L 716.943315 184.234977 
L 720.944883 189.26849 
L 724.946451 144.73904 
L 728.948019 98.018173 
L 732.949587 113.99498 
L 736.951155 167.134531 
L 740.952723 187.865282 
L 744.954291 165.607693 
L 748.955858 118.157082 
L 752.957426 64.261663 
L 756.958994 38.756444 
L 760.960562 43.528197 
L 764.96213 42.720369 
L 768.963698 34.837155 
L 772.965266 40.663256 
L 776.966834 46.068932 
L 780.968402 36.811317 
L 784.96997 46.825475 
L 788.971538 99.688967 
L 792.973105 144.242931 
L 796.974673 127.467605 
L 800.976241 75.71947 
L 804.977809 40.865758 
L 808.979377 46.515329 
L 812.980945 92.012387 
L 816.982513 132.986998 
L 820.984081 116.384195 
L 824.985649 61.172298 
L 828.987217 32.082109 
L 832.988785 57.339495 
L 836.990353 113.676971 
L 840.99192 167.036564 
L 844.993488 195.198319 
L 848.995056 172.873674 
L 852.996624 109.554457 
L 856.998192 78.000489 
L 860.99976 101.675815 
L 860.99976 101.675815 
" clip-path="url(#p791402b6dd)" style="fill: none; stroke: #1f77b4; stroke-width: 1.5; stroke-linecap: square"/>
   </g>
   <g id="line2d_22">
    <path d="M 60.686177 113.481277 
L 64.687745 113.717622 
L 68.689313 114.108079 
L 76.692449 114.393405 
L 80.694017 114.864042 
L 84.695585 114.295839 
L 88.697153 113.13493 
L 92.698721 112.886172 
L 96.700289 113.104699 
L 100.701857 113.537517 
L 108.704992 115.128104 
L 112.70656 115.311876 
L 116.708128 114.061369 
L 120.709696 112.539195 
L 124.711264 112.786688 
L 128.712832 113.78639 
L 132.7144 114.535025 
L 136.715968 115.524846 
L 140.717536 115.513074 
L 144.719104 114.371932 
L 148.720672 113.639288 
L 152.722239 113.293159 
L 156.723807 113.783107 
L 160.725375 115.065339 
L 164.726943 114.766595 
L 168.728511 113.672263 
L 176.731647 113.178139 
L 180.733215 114.112876 
L 184.734783 113.985249 
L 188.736351 112.064312 
L 192.737919 114.96565 
L 196.739487 114.539954 
L 200.741054 108.103994 
L 204.742622 129.664323 
L 208.74419 169.366712 
L 212.745758 156.023574 
L 216.747326 109.17607 
L 220.748894 123.407125 
L 224.750462 169.575486 
L 228.75203 148.984206 
L 232.753598 101.38524 
L 236.755166 122.677838 
L 240.756734 168.776761 
L 244.758301 147.09805 
L 248.759869 99.565971 
L 252.761437 117.852947 
L 256.763005 164.317679 
L 260.764573 145.027194 
L 264.766141 95.344927 
L 268.767709 112.40946 
L 272.769277 160.017173 
L 276.770845 139.896714 
L 280.772413 90.733843 
L 284.773981 109.545258 
L 288.775549 156.511319 
L 292.777116 136.186516 
L 296.778684 88.35413 
L 300.780252 107.985576 
L 304.78182 154.690154 
L 308.783388 132.719417 
L 312.784956 83.411062 
L 316.786524 102.510296 
L 320.788092 148.282395 
L 324.78966 126.439066 
L 328.791228 78.55879 
L 332.792796 96.5809 
L 336.794363 142.032956 
L 340.795931 125.468696 
L 344.797499 66.706235 
L 348.799067 36.928855 
L 352.800635 41.728379 
L 356.802203 45.520477 
L 360.803771 37.746607 
L 364.805339 35.628356 
L 368.806907 43.521131 
L 372.808475 43.279238 
L 376.810043 44.918529 
L 380.81161 82.756116 
L 384.813178 142.372054 
L 388.814746 181.31539 
L 392.816314 195.034032 
L 396.817882 191.305805 
L 400.81945 177.394279 
L 404.821018 179.513732 
L 408.822586 194.543273 
L 412.824154 188.586194 
L 416.825722 171.894803 
L 420.82729 176.611149 
L 424.828858 192.741347 
L 428.830425 191.906636 
L 432.831993 158.742764 
L 436.833561 98.865076 
L 440.835129 55.090643 
L 444.836697 70.374859 
L 448.838265 126.621207 
L 452.839833 172.235471 
L 456.841401 190.295645 
L 460.842969 187.411151 
L 464.844537 153.467662 
L 468.846105 91.252932 
L 472.847672 42.778083 
L 476.84924 40.465491 
L 480.850808 78.454901 
L 484.852376 137.747435 
L 488.853944 185.159189 
L 492.855512 184.570212 
L 496.85708 159.020679 
L 500.858648 166.426213 
L 504.860216 192.948219 
L 508.861784 181.835445 
L 512.863352 152.973183 
L 516.86492 163.521489 
L 520.866487 190.758471 
L 524.868055 177.970932 
L 528.869623 148.276166 
L 532.871191 159.273784 
L 536.872759 188.60715 
L 540.874327 177.998178 
L 544.875895 148.05576 
L 548.877463 155.930336 
L 552.879031 186.366221 
L 556.880599 180.258122 
L 560.882167 126.801143 
L 564.883734 67.530753 
L 568.885302 40.866354 
L 572.88687 54.00786 
L 576.888438 95.118459 
L 580.890006 147.850963 
L 584.891574 183.352794 
L 588.893142 174.489968 
L 592.89471 149.030432 
L 596.896278 161.885473 
L 600.897846 190.662182 
L 604.899414 176.602189 
L 608.900982 150.808991 
L 612.902549 166.94128 
L 616.904117 190.595055 
L 620.905685 179.913945 
L 624.907253 144.473095 
L 628.908821 91.530695 
L 632.910389 49.32755 
L 636.911957 66.819483 
L 640.913525 107.148597 
L 644.915093 92.840357 
L 648.916661 54.449277 
L 652.918229 68.584423 
L 656.919796 124.397134 
L 660.921364 171.717354 
L 664.922932 191.778564 
L 668.9245 181.373575 
L 672.926068 165.137877 
L 676.927636 179.505271 
L 680.929204 193.20472 
L 684.930772 153.582763 
L 688.93234 106.864879 
L 692.933908 125.29335 
L 696.935476 166.151195 
L 700.937043 148.450713 
L 704.938611 86.822683 
L 708.940179 42.201004 
L 712.941747 38.664332 
L 716.943315 77.604769 
L 720.944883 140.035454 
L 724.946451 182.777617 
L 728.948019 191.887936 
L 732.949587 187.213956 
L 736.951155 164.917958 
L 744.954291 62.291709 
L 748.955858 40.117846 
L 752.957426 56.178697 
L 756.958994 108.208956 
L 760.960562 151.749018 
L 764.96213 131.007179 
L 768.963698 87.941266 
L 772.965266 104.604077 
L 776.966834 148.353219 
L 780.968402 133.272844 
L 784.96997 72.852052 
L 788.971538 38.082196 
L 792.973105 39.333267 
L 796.974673 42.933343 
L 800.976241 51.509837 
L 804.977809 92.26638 
L 808.979377 149.160493 
L 812.980945 181.01925 
L 816.982513 187.885983 
L 820.984081 188.721955 
L 824.985649 169.617318 
L 828.987217 116.616726 
L 832.988785 59.316727 
L 836.990353 37.08179 
L 840.99192 57.568203 
L 844.993488 110.734697 
L 848.995056 172.444241 
L 852.996624 191.972129 
L 860.99976 114.208261 
L 860.99976 114.208261 
" clip-path="url(#p791402b6dd)" style="fill: none; stroke: #ff7f0e; stroke-width: 1.5; stroke-linecap: square"/>
   </g>
   <g id="line2d_23">
    <path d="M 60.686177 113.466787 
L 64.687745 112.709392 
L 68.689313 112.248159 
L 76.692449 112.305993 
L 80.694017 112.196842 
L 84.695585 111.931278 
L 88.697153 113.071109 
L 92.698721 112.360404 
L 96.700289 112.079461 
L 100.701857 112.894044 
L 108.704992 111.2654 
L 112.70656 111.817188 
L 116.708128 113.081965 
L 120.709696 112.195049 
L 124.711264 112.759681 
L 132.7144 112.460498 
L 136.715968 111.623429 
L 140.717536 111.642076 
L 144.719104 112.169254 
L 148.720672 112.023987 
L 152.722239 113.291726 
L 156.723807 113.336873 
L 160.725375 111.897468 
L 164.726943 112.109651 
L 168.728511 113.256504 
L 172.730079 112.006392 
L 176.731647 113.088207 
L 180.733215 112.410304 
L 184.734783 112.880149 
L 188.736351 111.396437 
L 192.737919 111.47846 
L 196.739487 109.946852 
L 200.741054 87.860664 
L 204.742622 52.142149 
L 208.74419 30.552665 
L 212.745758 35.584002 
L 216.747326 29.106948 
L 220.748894 35.1934 
L 224.750462 30.909395 
L 228.75203 32.727796 
L 232.753598 26.550744 
L 236.755166 40.061658 
L 240.756734 30.356588 
L 244.758301 31.390077 
L 248.759869 27.275635 
L 252.761437 38.664861 
L 256.763005 30.635656 
L 260.764573 33.050051 
L 264.766141 29.234014 
L 268.767709 38.936289 
L 272.769277 31.633972 
L 276.770845 33.249628 
L 280.772413 27.879732 
L 284.773981 38.613733 
L 288.775549 30.879721 
L 292.777116 31.598206 
L 296.778684 27.672124 
L 300.780252 37.569911 
L 304.78182 29.68802 
L 308.783388 34.954458 
L 312.784956 31.10785 
L 316.786524 38.510198 
L 320.788092 32.29336 
L 324.78966 37.77244 
L 328.791228 29.955962 
L 332.792796 36.777741 
L 336.794363 34.705018 
L 340.795931 35.474523 
L 344.797499 33.065341 
L 348.799067 36.140166 
L 352.800635 31.593001 
L 356.802203 43.47632 
L 360.803771 32.836127 
L 364.805339 35.53405 
L 368.806907 31.806827 
L 372.808475 39.360132 
L 376.810043 37.469207 
L 380.81161 37.743736 
L 384.813178 37.848998 
L 388.814746 39.982058 
L 392.816314 30.680063 
L 396.817882 35.692961 
L 400.81945 31.141974 
L 404.821018 39.878829 
L 408.822586 31.752137 
L 412.824154 37.624826 
L 416.825722 30.85291 
L 420.82729 40.026964 
L 424.828858 34.251156 
L 428.830425 33.743968 
L 432.831993 30.434401 
L 436.833561 34.338697 
L 440.835129 34.080894 
L 444.836697 38.359183 
L 448.838265 34.461321 
L 452.839833 40.126662 
L 456.841401 36.846976 
L 460.842969 36.669275 
L 464.844537 33.469323 
L 468.846105 32.844929 
L 472.847672 33.182053 
L 476.84924 37.023448 
L 480.850808 34.401104 
L 484.852376 35.24477 
L 488.853944 35.194737 
L 492.855512 36.916517 
L 496.85708 33.171537 
L 500.858648 41.413222 
L 504.860216 32.791316 
L 508.861784 38.654134 
L 512.863352 34.5238 
L 516.86492 39.50947 
L 520.866487 33.965152 
L 524.868055 40.191892 
L 528.869623 35.765948 
L 532.871191 42.193373 
L 536.872759 35.2819 
L 540.874327 38.693202 
L 544.875895 33.482046 
L 548.877463 40.747418 
L 552.879031 35.725497 
L 556.880599 33.894184 
L 560.882167 34.334336 
L 564.883734 35.938668 
L 568.885302 36.394029 
L 572.88687 43.408395 
L 576.888438 40.909079 
L 580.890006 42.068379 
L 584.891574 41.364216 
L 588.893142 44.302879 
L 592.89471 36.232874 
L 596.896278 39.646482 
L 600.897846 34.145831 
L 604.899414 44.083037 
L 608.900982 37.748213 
L 612.902549 39.414311 
L 616.904117 35.522672 
L 620.905685 41.735006 
L 624.907253 38.834791 
L 628.908821 44.716484 
L 632.910389 35.887872 
L 636.911957 39.991031 
L 640.913525 34.803739 
L 644.915093 45.388134 
L 648.916661 38.206248 
L 652.918229 34.757537 
L 656.919796 32.919862 
L 660.921364 40.855345 
L 664.922932 35.38945 
L 668.9245 43.970947 
L 672.926068 38.666198 
L 680.929204 32.330795 
L 684.930772 37.313723 
L 688.93234 33.127022 
L 692.933908 43.021982 
L 696.935476 33.82293 
L 700.937043 33.543709 
L 704.938611 32.589594 
L 708.940179 33.0982 
L 712.941747 34.606836 
L 716.943315 34.301477 
L 720.944883 33.413762 
L 724.946451 37.703447 
L 728.948019 33.750626 
L 732.949587 39.955952 
L 736.951155 39.406572 
L 740.952723 39.303526 
L 744.954291 40.528271 
L 748.955858 39.975746 
L 752.957426 37.899417 
L 756.958994 38.563534 
L 760.960562 33.807819 
L 764.96213 40.610288 
L 768.963698 30.76685 
L 772.965266 40.112238 
L 776.966834 37.642888 
L 780.968402 34.327274 
L 784.96997 35.379903 
L 788.971538 36.814 
L 792.973105 33.253244 
L 796.974673 41.582447 
L 800.976241 40.872191 
L 804.977809 37.80512 
L 808.979377 37.664576 
L 812.980945 42.785042 
L 816.982513 36.793748 
L 820.984081 38.396982 
L 824.985649 36.860633 
L 828.987217 32.025768 
L 832.988785 35.427236 
L 836.990353 37.081736 
L 840.99192 36.158435 
L 844.993488 31.922947 
L 848.995056 30.042515 
L 852.996624 35.095325 
L 856.998192 60.335739 
L 860.99976 101.659545 
L 860.99976 101.659545 
" clip-path="url(#p791402b6dd)" style="fill: none; stroke: #2ca02c; stroke-width: 1.2; stroke-linecap: square"/>
   </g>
   <g id="patch_3">
    <path d="M 60.686177 203.630698 
L 60.686177 18.118365 
" style="fill: none; stroke: #000000; stroke-width: 0.8; stroke-linejoin: miter; stroke-linecap: square"/>
   </g>
   <g id="patch_4">
    <path d="M 860.99976 203.630698 
L 860.99976 18.118365 
" style="fill: none; stroke: #000000; stroke-width: 0.8; stroke-linejoin: miter; stroke-linecap: square"/>
   </g>
   <g id="patch_5">
    <path d="M 60.686177 203.630697 
L 860.99976 203.630697 
" style="fill: none; stroke: #000000; stroke-width: 0.8; stroke-linejoin: miter; stroke-linecap: square"/>
   </g>
   <g id="patch_6">
    <path d="M 60.686177 18.118365 
L 860.99976 18.118365 
" style="fill: none; stroke: #000000; stroke-width: 0.8; stroke-linejoin: miter; stroke-linecap: square"/>
   </g>
   <g id="text_7">
    <!-- Het Post - Channel 33 Time Plot (2.4 ms to 2.8 ms) -->
    <g transform="translate(308.611719 12.118365) scale(0.12 -0.12)">
     <defs>
      <path id="DejaVuSans-48" d="M 628 4666 
L 1259 4666 
L 1259 2753 
L 3553 2753 
L 3553 4666 
L 4184 4666 
L 4184 0 
L 3553 0 
L 3553 2222 
L 1259 2222 
L 1259 0 
L 628 0 
L 628 4666 
z
" transform="scale(0.015625)"/>
      <path id="DejaVuSans-20" transform="scale(0.015625)"/>
      <path id="DejaVuSans-50" d="M 1259 4147 
L 1259 2394 
L 2053 2394 
Q 2494 2394 2734 2622 
Q 2975 2850 2975 3272 
Q 2975 3691 2734 3919 
Q 2494 4147 2053 4147 
L 1259 4147 
z
M 628 4666 
L 2053 4666 
Q 2838 4666 3239 4311 
Q 3641 3956 3641 3272 
Q 3641 2581 3239 2228 
Q 2838 1875 2053 1875 
L 1259 1875 
L 1259 0 
L 628 0 
L 628 4666 
z
" transform="scale(0.015625)"/>
      <path id="DejaVuSans-6f" d="M 1959 3097 
Q 1497 3097 1228 2736 
Q 959 2375 959 1747 
Q 959 1119 1226 758 
Q 1494 397 1959 397 
Q 2419 397 2687 759 
Q 2956 1122 2956 1747 
Q 2956 2369 2687 2733 
Q 2419 3097 1959 3097 
z
M 1959 3584 
Q 2709 3584 3137 3096 
Q 3566 2609 3566 1747 
Q 3566 888 3137 398 
Q 2709 -91 1959 -91 
Q 1206 -91 779 398 
Q 353 888 353 1747 
Q 353 2609 779 3096 
Q 1206 3584 1959 3584 
z
" transform="scale(0.015625)"/>
      <path id="DejaVuSans-73" d="M 2834 3397 
L 2834 2853 
Q 2591 2978 2328 3040 
Q 2066 3103 1784 3103 
Q 1356 3103 1142 2972 
Q 928 2841 928 2578 
Q 928 2378 1081 2264 
Q 1234 2150 1697 2047 
L 1894 2003 
Q 2506 1872 2764 1633 
Q 3022 1394 3022 966 
Q 3022 478 2636 193 
Q 2250 -91 1575 -91 
Q 1294 -91 989 -36 
Q 684 19 347 128 
L 347 722 
Q 666 556 975 473 
Q 1284 391 1588 391 
Q 1994 391 2212 530 
Q 2431 669 2431 922 
Q 2431 1156 2273 1281 
Q 2116 1406 1581 1522 
L 1381 1569 
Q 847 1681 609 1914 
Q 372 2147 372 2553 
Q 372 3047 722 3315 
Q 1072 3584 1716 3584 
Q 2034 3584 2315 3537 
Q 2597 3491 2834 3397 
z
" transform="scale(0.015625)"/>
      <path id="DejaVuSans-2d" d="M 313 2009 
L 1997 2009 
L 1997 1497 
L 313 1497 
L 313 2009 
z
" transform="scale(0.015625)"/>
      <path id="DejaVuSans-43" d="M 4122 4306 
L 4122 3641 
Q 3803 3938 3442 4084 
Q 3081 4231 2675 4231 
Q 1875 4231 1450 3742 
Q 1025 3253 1025 2328 
Q 1025 1406 1450 917 
Q 1875 428 2675 428 
Q 3081 428 3442 575 
Q 3803 722 4122 1019 
L 4122 359 
Q 3791 134 3420 21 
Q 3050 -91 2638 -91 
Q 1578 -91 968 557 
Q 359 1206 359 2328 
Q 359 3453 968 4101 
Q 1578 4750 2638 4750 
Q 3056 4750 3426 4639 
Q 3797 4528 4122 4306 
z
" transform="scale(0.015625)"/>
      <path id="DejaVuSans-68" d="M 3513 2113 
L 3513 0 
L 2938 0 
L 2938 2094 
Q 2938 2591 2744 2837 
Q 2550 3084 2163 3084 
Q 1697 3084 1428 2787 
Q 1159 2491 1159 1978 
L 1159 0 
L 581 0 
L 581 4863 
L 1159 4863 
L 1159 2956 
Q 1366 3272 1645 3428 
Q 1925 3584 2291 3584 
Q 2894 3584 3203 3211 
Q 3513 2838 3513 2113 
z
" transform="scale(0.015625)"/>
      <path id="DejaVuSans-61" d="M 2194 1759 
Q 1497 1759 1228 1600 
Q 959 1441 959 1056 
Q 959 750 1161 570 
Q 1363 391 1709 391 
Q 2188 391 2477 730 
Q 2766 1069 2766 1631 
L 2766 1759 
L 2194 1759 
z
M 3341 1997 
L 3341 0 
L 2766 0 
L 2766 531 
Q 2569 213 2275 61 
Q 1981 -91 1556 -91 
Q 1019 -91 701 211 
Q 384 513 384 1019 
Q 384 1609 779 1909 
Q 1175 2209 1959 2209 
L 2766 2209 
L 2766 2266 
Q 2766 2663 2505 2880 
Q 2244 3097 1772 3097 
Q 1472 3097 1187 3025 
Q 903 2953 641 2809 
L 641 3341 
Q 956 3463 1253 3523 
Q 1550 3584 1831 3584 
Q 2591 3584 2966 3190 
Q 3341 2797 3341 1997 
z
" transform="scale(0.015625)"/>
      <path id="DejaVuSans-6e" d="M 3513 2113 
L 3513 0 
L 2938 0 
L 2938 2094 
Q 2938 2591 2744 2837 
Q 2550 3084 2163 3084 
Q 1697 3084 1428 2787 
Q 1159 2491 1159 1978 
L 1159 0 
L 581 0 
L 581 3500 
L 1159 3500 
L 1159 2956 
Q 1366 3272 1645 3428 
Q 1925 3584 2291 3584 
Q 2894 3584 3203 3211 
Q 3513 2838 3513 2113 
z
" transform="scale(0.015625)"/>
      <path id="DejaVuSans-33" d="M 2597 2516 
Q 3050 2419 3304 2112 
Q 3559 1806 3559 1356 
Q 3559 666 3084 287 
Q 2609 -91 1734 -91 
Q 1441 -91 1130 -33 
Q 819 25 488 141 
L 488 750 
Q 750 597 1062 519 
Q 1375 441 1716 441 
Q 2309 441 2620 675 
Q 2931 909 2931 1356 
Q 2931 1769 2642 2001 
Q 2353 2234 1838 2234 
L 1294 2234 
L 1294 2753 
L 1863 2753 
Q 2328 2753 2575 2939 
Q 2822 3125 2822 3475 
Q 2822 3834 2567 4026 
Q 2313 4219 1838 4219 
Q 1578 4219 1281 4162 
Q 984 4106 628 3988 
L 628 4550 
Q 988 4650 1302 4700 
Q 1616 4750 1894 4750 
Q 2613 4750 3031 4423 
Q 3450 4097 3450 3541 
Q 3450 3153 3228 2886 
Q 3006 2619 2597 2516 
z
" transform="scale(0.015625)"/>
      <path id="DejaVuSans-54" d="M -19 4666 
L 3928 4666 
L 3928 4134 
L 2272 4134 
L 2272 0 
L 1638 0 
L 1638 4134 
L -19 4134 
L -19 4666 
z
" transform="scale(0.015625)"/>
      <path id="DejaVuSans-28" d="M 1984 4856 
Q 1566 4138 1362 3434 
Q 1159 2731 1159 2009 
Q 1159 1288 1364 580 
Q 1569 -128 1984 -844 
L 1484 -844 
Q 1016 -109 783 600 
Q 550 1309 550 2009 
Q 550 2706 781 3412 
Q 1013 4119 1484 4856 
L 1984 4856 
z
" transform="scale(0.015625)"/>
      <path id="DejaVuSans-38" d="M 2034 2216 
Q 1584 2216 1326 1975 
Q 1069 1734 1069 1313 
Q 1069 891 1326 650 
Q 1584 409 2034 409 
Q 2484 409 2743 651 
Q 3003 894 3003 1313 
Q 3003 1734 2745 1975 
Q 2488 2216 2034 2216 
z
M 1403 2484 
Q 997 2584 770 2862 
Q 544 3141 544 3541 
Q 544 4100 942 4425 
Q 1341 4750 2034 4750 
Q 2731 4750 3128 4425 
Q 3525 4100 3525 3541 
Q 3525 3141 3298 2862 
Q 3072 2584 2669 2484 
Q 3125 2378 3379 2068 
Q 3634 1759 3634 1313 
Q 3634 634 3220 271 
Q 2806 -91 2034 -91 
Q 1263 -91 848 271 
Q 434 634 434 1313 
Q 434 1759 690 2068 
Q 947 2378 1403 2484 
z
M 1172 3481 
Q 1172 3119 1398 2916 
Q 1625 2713 2034 2713 
Q 2441 2713 2670 2916 
Q 2900 3119 2900 3481 
Q 2900 3844 2670 4047 
Q 2441 4250 2034 4250 
Q 1625 4250 1398 4047 
Q 1172 3844 1172 3481 
z
" transform="scale(0.015625)"/>
      <path id="DejaVuSans-29" d="M 513 4856 
L 1013 4856 
Q 1481 4119 1714 3412 
Q 1947 2706 1947 2009 
Q 1947 1309 1714 600 
Q 1481 -109 1013 -844 
L 513 -844 
Q 928 -128 1133 580 
Q 1338 1288 1338 2009 
Q 1338 2731 1133 3434 
Q 928 4138 513 4856 
z
" transform="scale(0.015625)"/>
     </defs>
     <use xlink:href="#DejaVuSans-48"/>
     <use xlink:href="#DejaVuSans-65" transform="translate(75.195312 0)"/>
     <use xlink:href="#DejaVuSans-74" transform="translate(136.71875 0)"/>
     <use xlink:href="#DejaVuSans-20" transform="translate(175.927734 0)"/>
     <use xlink:href="#DejaVuSans-50" transform="translate(207.714844 0)"/>
     <use xlink:href="#DejaVuSans-6f" transform="translate(264.392578 0)"/>
     <use xlink:href="#DejaVuSans-73" transform="translate(325.574219 0)"/>
     <use xlink:href="#DejaVuSans-74" transform="translate(377.673828 0)"/>
     <use xlink:href="#DejaVuSans-20" transform="translate(416.882812 0)"/>
     <use xlink:href="#DejaVuSans-2d" transform="translate(448.669922 0)"/>
     <use xlink:href="#DejaVuSans-20" transform="translate(484.753906 0)"/>
     <use xlink:href="#DejaVuSans-43" transform="translate(516.541016 0)"/>
     <use xlink:href="#DejaVuSans-68" transform="translate(586.365234 0)"/>
     <use xlink:href="#DejaVuSans-61" transform="translate(649.744141 0)"/>
     <use xlink:href="#DejaVuSans-6e" transform="translate(711.023438 0)"/>
     <use xlink:href="#DejaVuSans-6e" transform="translate(774.402344 0)"/>
     <use xlink:href="#DejaVuSans-65" transform="translate(837.78125 0)"/>
     <use xlink:href="#DejaVuSans-6c" transform="translate(899.304688 0)"/>
     <use xlink:href="#DejaVuSans-20" transform="translate(927.087891 0)"/>
     <use xlink:href="#DejaVuSans-33" transform="translate(958.875 0)"/>
     <use xlink:href="#DejaVuSans-33" transform="translate(1022.498047 0)"/>
     <use xlink:href="#DejaVuSans-20" transform="translate(1086.121094 0)"/>
     <use xlink:href="#DejaVuSans-54" transform="translate(1117.908203 0)"/>
     <use xlink:href="#DejaVuSans-69" transform="translate(1175.867188 0)"/>
     <use xlink:href="#DejaVuSans-6d" transform="translate(1203.650391 0)"/>
     <use xlink:href="#DejaVuSans-65" transform="translate(1301.0625 0)"/>
     <use xlink:href="#DejaVuSans-20" transform="translate(1362.585938 0)"/>
     <use xlink:href="#DejaVuSans-50" transform="translate(1394.373047 0)"/>
     <use xlink:href="#DejaVuSans-6c" transform="translate(1454.675781 0)"/>
     <use xlink:href="#DejaVuSans-6f" transform="translate(1482.458984 0)"/>
     <use xlink:href="#DejaVuSans-74" transform="translate(1543.640625 0)"/>
     <use xlink:href="#DejaVuSans-20" transform="translate(1582.849609 0)"/>
     <use xlink:href="#DejaVuSans-28" transform="translate(1614.636719 0)"/>
     <use xlink:href="#DejaVuSans-32" transform="translate(1653.650391 0)"/>
     <use xlink:href="#DejaVuSans-2e" transform="translate(1717.273438 0)"/>
     <use xlink:href="#DejaVuSans-34" transform="translate(1749.060547 0)"/>
     <use xlink:href="#DejaVuSans-20" transform="translate(1812.683594 0)"/>
     <use xlink:href="#DejaVuSans-6d" transform="translate(1844.470703 0)"/>
     <use xlink:href="#DejaVuSans-73" transform="translate(1941.882812 0)"/>
     <use xlink:href="#DejaVuSans-20" transform="translate(1993.982422 0)"/>
     <use xlink:href="#DejaVuSans-74" transform="translate(2025.769531 0)"/>
     <use xlink:href="#DejaVuSans-6f" transform="translate(2064.978516 0)"/>
     <use xlink:href="#DejaVuSans-20" transform="translate(2126.160156 0)"/>
     <use xlink:href="#DejaVuSans-32" transform="translate(2157.947266 0)"/>
     <use xlink:href="#DejaVuSans-2e" transform="translate(2221.570312 0)"/>
     <use xlink:href="#DejaVuSans-38" transform="translate(2253.357422 0)"/>
     <use xlink:href="#DejaVuSans-20" transform="translate(2316.980469 0)"/>
     <use xlink:href="#DejaVuSans-6d" transform="translate(2348.767578 0)"/>
     <use xlink:href="#DejaVuSans-73" transform="translate(2446.179688 0)"/>
     <use xlink:href="#DejaVuSans-29" transform="translate(2498.279297 0)"/>
    </g>
   </g>
   <g id="legend_1">
    <g id="patch_7">
     <path d="M 67.686177 70.474615 
L 117.245553 70.474615 
Q 119.245553 70.474615 119.245553 68.474615 
L 119.245553 25.118365 
Q 119.245553 23.118365 117.245553 23.118365 
L 67.686177 23.118365 
Q 65.686177 23.118365 65.686177 25.118365 
L 65.686177 68.474615 
Q 65.686177 70.474615 67.686177 70.474615 
z
" style="fill: #ffffff; opacity: 0.8; stroke: #cccccc; stroke-linejoin: miter"/>
    </g>
    <g id="line2d_24">
     <path d="M 69.686177 31.216802 
L 79.686177 31.216802 
L 89.686177 31.216802 
" style="fill: none; stroke: #1f77b4; stroke-width: 1.5; stroke-linecap: square"/>
    </g>
    <g id="text_8">
     <!-- I -->
     <g transform="translate(97.686177 34.716802) scale(0.1 -0.1)">
      <defs>
       <path id="DejaVuSans-49" d="M 628 4666 
L 1259 4666 
L 1259 0 
L 628 0 
L 628 4666 
z
" transform="scale(0.015625)"/>
      </defs>
      <use xlink:href="#DejaVuSans-49"/>
     </g>
    </g>
    <g id="line2d_25">
     <path d="M 69.686177 45.894927 
L 79.686177 45.894927 
L 89.686177 45.894927 
" style="fill: none; stroke: #ff7f0e; stroke-width: 1.5; stroke-linecap: square"/>
    </g>
    <g id="text_9">
     <!-- Q -->
     <g transform="translate(97.686177 49.394927) scale(0.1 -0.1)">
      <defs>
       <path id="DejaVuSans-51" d="M 2522 4238 
Q 1834 4238 1429 3725 
Q 1025 3213 1025 2328 
Q 1025 1447 1429 934 
Q 1834 422 2522 422 
Q 3209 422 3611 934 
Q 4013 1447 4013 2328 
Q 4013 3213 3611 3725 
Q 3209 4238 2522 4238 
z
M 3406 84 
L 4238 -825 
L 3475 -825 
L 2784 -78 
Q 2681 -84 2626 -87 
Q 2572 -91 2522 -91 
Q 1538 -91 948 567 
Q 359 1225 359 2328 
Q 359 3434 948 4092 
Q 1538 4750 2522 4750 
Q 3503 4750 4090 4092 
Q 4678 3434 4678 2328 
Q 4678 1516 4351 937 
Q 4025 359 3406 84 
z
" transform="scale(0.015625)"/>
      </defs>
      <use xlink:href="#DejaVuSans-51"/>
     </g>
    </g>
    <g id="line2d_26">
     <path d="M 69.686177 60.616802 
L 79.686177 60.616802 
L 89.686177 60.616802 
" style="fill: none; stroke: #2ca02c; stroke-width: 1.2; stroke-linecap: square"/>
    </g>
    <g id="text_10">
     <!-- |IQ| -->
     <g transform="translate(97.686177 64.116802) scale(0.1 -0.1)">
      <defs>
       <path id="DejaVuSans-7c" d="M 1344 4891 
L 1344 -1509 
L 813 -1509 
L 813 4891 
L 1344 4891 
z
" transform="scale(0.015625)"/>
      </defs>
      <use xlink:href="#DejaVuSans-7c"/>
      <use xlink:href="#DejaVuSans-49" transform="translate(33.691406 0)"/>
      <use xlink:href="#DejaVuSans-51" transform="translate(63.183594 0)"/>
      <use xlink:href="#DejaVuSans-7c" transform="translate(141.894531 0)"/>
     </g>
    </g>
   </g>
  </g>
  <g id="axes_2">
   <g id="patch_8">
    <path d="M 60.686177 398.64351 
L 860.99976 398.64351 
L 860.99976 213.131177 
L 60.686177 213.131177 
z
" style="fill: #ffffff"/>
   </g>
   <g id="matplotlib.axis_3">
    <g id="xtick_6">
     <g id="line2d_27">
      <path d="M 140.717536 398.64351 
L 140.717536 213.131177 
" clip-path="url(#p59324c1adc)" style="fill: none; stroke: #b0b0b0; stroke-opacity: 0.3; stroke-width: 0.8; stroke-linecap: square"/>
     </g>
     <g id="line2d_28">
      <g>
       <use xlink:href="#med17b2b0f5" x="140.717536" y="398.64351" style="stroke: #000000; stroke-width: 0.8"/>
      </g>
     </g>
     <g id="text_11">
      <!-- 1.14 -->
      <g transform="translate(129.584723 413.241947) scale(0.1 -0.1)">
       <defs>
        <path id="DejaVuSans-31" d="M 794 531 
L 1825 531 
L 1825 4091 
L 703 3866 
L 703 4441 
L 1819 4666 
L 2450 4666 
L 2450 531 
L 3481 531 
L 3481 0 
L 794 0 
L 794 531 
z
" transform="scale(0.015625)"/>
       </defs>
       <use xlink:href="#DejaVuSans-31"/>
       <use xlink:href="#DejaVuSans-2e" transform="translate(63.623047 0)"/>
       <use xlink:href="#DejaVuSans-31" transform="translate(95.410156 0)"/>
       <use xlink:href="#DejaVuSans-34" transform="translate(159.033203 0)"/>
      </g>
     </g>
    </g>
    <g id="xtick_7">
     <g id="line2d_29">
      <path d="M 300.780252 398.64351 
L 300.780252 213.131177 
" clip-path="url(#p59324c1adc)" style="fill: none; stroke: #b0b0b0; stroke-opacity: 0.3; stroke-width: 0.8; stroke-linecap: square"/>
     </g>
     <g id="line2d_30">
      <g>
       <use xlink:href="#med17b2b0f5" x="300.780252" y="398.64351" style="stroke: #000000; stroke-width: 0.8"/>
      </g>
     </g>
     <g id="text_12">
      <!-- 1.16 -->
      <g transform="translate(289.64744 413.241947) scale(0.1 -0.1)">
       <defs>
        <path id="DejaVuSans-36" d="M 2113 2584 
Q 1688 2584 1439 2293 
Q 1191 2003 1191 1497 
Q 1191 994 1439 701 
Q 1688 409 2113 409 
Q 2538 409 2786 701 
Q 3034 994 3034 1497 
Q 3034 2003 2786 2293 
Q 2538 2584 2113 2584 
z
M 3366 4563 
L 3366 3988 
Q 3128 4100 2886 4159 
Q 2644 4219 2406 4219 
Q 1781 4219 1451 3797 
Q 1122 3375 1075 2522 
Q 1259 2794 1537 2939 
Q 1816 3084 2150 3084 
Q 2853 3084 3261 2657 
Q 3669 2231 3669 1497 
Q 3669 778 3244 343 
Q 2819 -91 2113 -91 
Q 1303 -91 875 529 
Q 447 1150 447 2328 
Q 447 3434 972 4092 
Q 1497 4750 2381 4750 
Q 2619 4750 2861 4703 
Q 3103 4656 3366 4563 
z
" transform="scale(0.015625)"/>
       </defs>
       <use xlink:href="#DejaVuSans-31"/>
       <use xlink:href="#DejaVuSans-2e" transform="translate(63.623047 0)"/>
       <use xlink:href="#DejaVuSans-31" transform="translate(95.410156 0)"/>
       <use xlink:href="#DejaVuSans-36" transform="translate(159.033203 0)"/>
      </g>
     </g>
    </g>
    <g id="xtick_8">
     <g id="line2d_31">
      <path d="M 460.842969 398.64351 
L 460.842969 213.131177 
" clip-path="url(#p59324c1adc)" style="fill: none; stroke: #b0b0b0; stroke-opacity: 0.3; stroke-width: 0.8; stroke-linecap: square"/>
     </g>
     <g id="line2d_32">
      <g>
       <use xlink:href="#med17b2b0f5" x="460.842969" y="398.64351" style="stroke: #000000; stroke-width: 0.8"/>
      </g>
     </g>
     <g id="text_13">
      <!-- 1.18 -->
      <g transform="translate(449.710156 413.241947) scale(0.1 -0.1)">
       <use xlink:href="#DejaVuSans-31"/>
       <use xlink:href="#DejaVuSans-2e" transform="translate(63.623047 0)"/>
       <use xlink:href="#DejaVuSans-31" transform="translate(95.410156 0)"/>
       <use xlink:href="#DejaVuSans-38" transform="translate(159.033203 0)"/>
      </g>
     </g>
    </g>
    <g id="xtick_9">
     <g id="line2d_33">
      <path d="M 620.905685 398.64351 
L 620.905685 213.131177 
" clip-path="url(#p59324c1adc)" style="fill: none; stroke: #b0b0b0; stroke-opacity: 0.3; stroke-width: 0.8; stroke-linecap: square"/>
     </g>
     <g id="line2d_34">
      <g>
       <use xlink:href="#med17b2b0f5" x="620.905685" y="398.64351" style="stroke: #000000; stroke-width: 0.8"/>
      </g>
     </g>
     <g id="text_14">
      <!-- 1.20 -->
      <g transform="translate(609.772873 413.241947) scale(0.1 -0.1)">
       <use xlink:href="#DejaVuSans-31"/>
       <use xlink:href="#DejaVuSans-2e" transform="translate(63.623047 0)"/>
       <use xlink:href="#DejaVuSans-32" transform="translate(95.410156 0)"/>
       <use xlink:href="#DejaVuSans-30" transform="translate(159.033203 0)"/>
      </g>
     </g>
    </g>
    <g id="xtick_10">
     <g id="line2d_35">
      <path d="M 780.968402 398.64351 
L 780.968402 213.131177 
" clip-path="url(#p59324c1adc)" style="fill: none; stroke: #b0b0b0; stroke-opacity: 0.3; stroke-width: 0.8; stroke-linecap: square"/>
     </g>
     <g id="line2d_36">
      <g>
       <use xlink:href="#med17b2b0f5" x="780.968402" y="398.64351" style="stroke: #000000; stroke-width: 0.8"/>
      </g>
     </g>
     <g id="text_15">
      <!-- 1.22 -->
      <g transform="translate(769.835589 413.241947) scale(0.1 -0.1)">
       <use xlink:href="#DejaVuSans-31"/>
       <use xlink:href="#DejaVuSans-2e" transform="translate(63.623047 0)"/>
       <use xlink:href="#DejaVuSans-32" transform="translate(95.410156 0)"/>
       <use xlink:href="#DejaVuSans-32" transform="translate(159.033203 0)"/>
      </g>
     </g>
    </g>
    <g id="text_16">
     <!-- Time (ms) -->
     <g transform="translate(435.64375 426.920073) scale(0.1 -0.1)">
      <use xlink:href="#DejaVuSans-54"/>
      <use xlink:href="#DejaVuSans-69" transform="translate(57.958984 0)"/>
      <use xlink:href="#DejaVuSans-6d" transform="translate(85.742188 0)"/>
      <use xlink:href="#DejaVuSans-65" transform="translate(183.154297 0)"/>
      <use xlink:href="#DejaVuSans-20" transform="translate(244.677734 0)"/>
      <use xlink:href="#DejaVuSans-28" transform="translate(276.464844 0)"/>
      <use xlink:href="#DejaVuSans-6d" transform="translate(315.478516 0)"/>
      <use xlink:href="#DejaVuSans-73" transform="translate(412.890625 0)"/>
      <use xlink:href="#DejaVuSans-29" transform="translate(464.990234 0)"/>
     </g>
    </g>
   </g>
   <g id="matplotlib.axis_4">
    <g id="ytick_6">
     <g id="line2d_37">
      <path d="M 60.686177 387.683831 
L 860.99976 387.683831 
" clip-path="url(#p59324c1adc)" style="fill: none; stroke: #b0b0b0; stroke-opacity: 0.3; stroke-width: 0.8; stroke-linecap: square"/>
     </g>
     <g id="line2d_38">
      <g>
       <use xlink:href="#m93fd130772" x="60.686177" y="387.683831" style="stroke: #000000; stroke-width: 0.8"/>
      </g>
     </g>
     <g id="text_17">
      <!-- −3 -->
      <g transform="translate(38.94399 391.48305) scale(0.1 -0.1)">
       <use xlink:href="#DejaVuSans-2212"/>
       <use xlink:href="#DejaVuSans-33" transform="translate(83.789062 0)"/>
      </g>
     </g>
    </g>
    <g id="ytick_7">
     <g id="line2d_39">
      <path d="M 60.686177 359.884959 
L 860.99976 359.884959 
" clip-path="url(#p59324c1adc)" style="fill: none; stroke: #b0b0b0; stroke-opacity: 0.3; stroke-width: 0.8; stroke-linecap: square"/>
     </g>
     <g id="line2d_40">
      <g>
       <use xlink:href="#m93fd130772" x="60.686177" y="359.884959" style="stroke: #000000; stroke-width: 0.8"/>
      </g>
     </g>
     <g id="text_18">
      <!-- −2 -->
      <g transform="translate(38.94399 363.684178) scale(0.1 -0.1)">
       <use xlink:href="#DejaVuSans-2212"/>
       <use xlink:href="#DejaVuSans-32" transform="translate(83.789062 0)"/>
      </g>
     </g>
    </g>
    <g id="ytick_8">
     <g id="line2d_41">
      <path d="M 60.686177 332.086087 
L 860.99976 332.086087 
" clip-path="url(#p59324c1adc)" style="fill: none; stroke: #b0b0b0; stroke-opacity: 0.3; stroke-width: 0.8; stroke-linecap: square"/>
     </g>
     <g id="line2d_42">
      <g>
       <use xlink:href="#m93fd130772" x="60.686177" y="332.086087" style="stroke: #000000; stroke-width: 0.8"/>
      </g>
     </g>
     <g id="text_19">
      <!-- −1 -->
      <g transform="translate(38.94399 335.885306) scale(0.1 -0.1)">
       <use xlink:href="#DejaVuSans-2212"/>
       <use xlink:href="#DejaVuSans-31" transform="translate(83.789062 0)"/>
      </g>
     </g>
    </g>
    <g id="ytick_9">
     <g id="line2d_43">
      <path d="M 60.686177 304.287215 
L 860.99976 304.287215 
" clip-path="url(#p59324c1adc)" style="fill: none; stroke: #b0b0b0; stroke-opacity: 0.3; stroke-width: 0.8; stroke-linecap: square"/>
     </g>
     <g id="line2d_44">
      <g>
       <use xlink:href="#m93fd130772" x="60.686177" y="304.287215" style="stroke: #000000; stroke-width: 0.8"/>
      </g>
     </g>
     <g id="text_20">
      <!-- 0 -->
      <g transform="translate(47.323678 308.086434) scale(0.1 -0.1)">
       <use xlink:href="#DejaVuSans-30"/>
      </g>
     </g>
    </g>
    <g id="ytick_10">
     <g id="line2d_45">
      <path d="M 60.686177 276.488343 
L 860.99976 276.488343 
" clip-path="url(#p59324c1adc)" style="fill: none; stroke: #b0b0b0; stroke-opacity: 0.3; stroke-width: 0.8; stroke-linecap: square"/>
     </g>
     <g id="line2d_46">
      <g>
       <use xlink:href="#m93fd130772" x="60.686177" y="276.488343" style="stroke: #000000; stroke-width: 0.8"/>
      </g>
     </g>
     <g id="text_21">
      <!-- 1 -->
      <g transform="translate(47.323678 280.287562) scale(0.1 -0.1)">
       <use xlink:href="#DejaVuSans-31"/>
      </g>
     </g>
    </g>
    <g id="ytick_11">
     <g id="line2d_47">
      <path d="M 60.686177 248.689471 
L 860.99976 248.689471 
" clip-path="url(#p59324c1adc)" style="fill: none; stroke: #b0b0b0; stroke-opacity: 0.3; stroke-width: 0.8; stroke-linecap: square"/>
     </g>
     <g id="line2d_48">
      <g>
       <use xlink:href="#m93fd130772" x="60.686177" y="248.689471" style="stroke: #000000; stroke-width: 0.8"/>
      </g>
     </g>
     <g id="text_22">
      <!-- 2 -->
      <g transform="translate(47.323678 252.48869) scale(0.1 -0.1)">
       <use xlink:href="#DejaVuSans-32"/>
      </g>
     </g>
    </g>
    <g id="ytick_12">
     <g id="line2d_49">
      <path d="M 60.686177 220.890599 
L 860.99976 220.890599 
" clip-path="url(#p59324c1adc)" style="fill: none; stroke: #b0b0b0; stroke-opacity: 0.3; stroke-width: 0.8; stroke-linecap: square"/>
     </g>
     <g id="line2d_50">
      <g>
       <use xlink:href="#m93fd130772" x="60.686177" y="220.890599" style="stroke: #000000; stroke-width: 0.8"/>
      </g>
     </g>
     <g id="text_23">
      <!-- 3 -->
      <g transform="translate(47.323678 224.689818) scale(0.1 -0.1)">
       <use xlink:href="#DejaVuSans-33"/>
      </g>
     </g>
    </g>
    <g id="text_24">
     <!-- FM -->
     <g transform="translate(32.864303 313.077187) rotate(-90) scale(0.1 -0.1)">
      <defs>
       <path id="DejaVuSans-46" d="M 628 4666 
L 3309 4666 
L 3309 4134 
L 1259 4134 
L 1259 2759 
L 3109 2759 
L 3109 2228 
L 1259 2228 
L 1259 0 
L 628 0 
L 628 4666 
z
" transform="scale(0.015625)"/>
       <path id="DejaVuSans-4d" d="M 628 4666 
L 1569 4666 
L 2759 1491 
L 3956 4666 
L 4897 4666 
L 4897 0 
L 4281 0 
L 4281 4097 
L 3078 897 
L 2444 897 
L 1241 4097 
L 1241 0 
L 628 0 
L 628 4666 
z
" transform="scale(0.015625)"/>
      </defs>
      <use xlink:href="#DejaVuSans-46"/>
      <use xlink:href="#DejaVuSans-4d" transform="translate(57.519531 0)"/>
     </g>
    </g>
   </g>
   <g id="line2d_51">
    <path d="M 64.687745 366.038788 
L 68.689313 311.239087 
L 72.690881 308.531677 
L 76.692449 307.87969 
L 80.694017 340.104181 
L 84.695585 324.468887 
L 88.697153 346.296511 
L 92.698721 345.05969 
L 96.700289 312.142763 
L 100.701857 311.389027 
L 104.703425 378.333456 
L 108.704992 299.286246 
L 112.70656 286.908625 
L 116.708128 307.482382 
L 120.709696 362.369736 
L 124.711264 317.144342 
L 128.712832 361.000333 
L 132.7144 326.298296 
L 140.717536 304.968762 
L 144.719104 335.145677 
L 148.720672 319.69476 
L 152.722239 351.657301 
L 156.723807 370.738697 
L 160.725375 336.375896 
L 164.726943 308.210111 
L 168.728511 250.160995 
L 172.730079 293.165026 
L 176.731647 247.345466 
L 180.733215 264.665466 
L 184.734783 246.639105 
L 188.736351 221.563556 
L 192.737919 390.115957 
L 196.739487 291.811689 
L 200.741054 390.211131 
L 204.742622 290.957767 
L 208.74419 291.169909 
L 212.745758 308.772676 
L 216.747326 321.730916 
L 220.748894 299.343537 
L 224.750462 287.09749 
L 228.75203 312.372243 
L 232.753598 320.793591 
L 236.755166 296.931029 
L 240.756734 287.579939 
L 244.758301 312.766834 
L 248.759869 320.496985 
L 252.761437 298.1674 
L 256.763005 287.577553 
L 260.764573 311.431683 
L 264.766141 321.495869 
L 268.767709 298.665967 
L 272.769277 287.104807 
L 276.770845 311.755967 
L 280.772413 321.065647 
L 284.773981 298.283306 
L 288.775549 287.618486 
L 292.777116 311.693401 
L 296.778684 320.337176 
L 300.780252 298.050698 
L 304.78182 288.003904 
L 308.783388 311.687674 
L 312.784956 321.532295 
L 316.786524 297.991207 
L 320.788092 287.912812 
L 324.78966 311.809678 
L 328.791228 321.03675 
L 332.792796 298.479541 
L 336.794363 287.824848 
L 340.795931 310.298123 
L 344.797499 325.808107 
L 348.799067 326.707574 
L 352.800635 322.226567 
L 356.802203 297.047943 
L 360.803771 287.813342 
L 364.805339 312.664978 
L 368.806907 320.716762 
L 372.808475 298.298205 
L 376.810043 282.812082 
L 380.81161 284.659214 
L 384.813178 281.81166 
L 388.814746 282.640237 
L 392.816314 287.887096 
L 396.817882 311.35565 
L 400.81945 321.500005 
L 404.821018 298.11162 
L 408.822586 287.330522 
L 412.824154 312.781839 
L 416.825722 321.78696 
L 420.82729 297.423128 
L 424.828858 287.361965 
L 428.830425 311.586296 
L 432.831993 326.560597 
L 436.833561 325.440345 
L 440.835129 322.076302 
L 444.836697 298.313794 
L 448.838265 282.676769 
L 452.839833 283.184032 
L 456.841401 287.081424 
L 460.842969 311.437834 
L 464.844537 325.561395 
L 468.846105 326.562877 
L 476.84924 326.374913 
L 480.850808 326.807892 
L 484.852376 325.781489 
L 488.853944 327.558633 
L 492.855512 326.738221 
L 496.85708 320.489774 
L 500.858648 298.143222 
L 504.860216 288.697486 
L 508.861784 310.874898 
L 512.863352 321.627788 
L 516.86492 298.219839 
L 520.866487 288.096003 
L 524.868055 311.294833 
L 528.869623 321.191098 
L 532.871191 297.826785 
L 536.872759 288.002684 
L 540.874327 311.093455 
L 544.875895 320.704089 
L 548.877463 299.407269 
L 552.879031 287.963766 
L 556.880599 310.305122 
L 560.882167 327.181592 
L 564.883734 326.595326 
L 568.885302 320.793697 
L 572.88687 298.318566 
L 576.888438 283.24066 
L 580.890006 283.2554 
L 584.891574 281.778203 
L 588.893142 283.206885 
L 592.89471 287.665835 
L 596.896278 310.843827 
L 600.897846 321.367449 
L 604.899414 298.979646 
L 608.900982 286.987893 
L 612.902549 312.344247 
L 616.904117 321.062625 
L 620.905685 297.889192 
L 624.907253 283.432282 
L 628.908821 283.383554 
L 632.910389 286.278828 
L 636.911957 312.215351 
L 640.913525 321.155626 
L 644.915093 297.968726 
L 648.916661 287.807351 
L 652.918229 312.469592 
L 656.919796 324.914206 
L 660.921364 326.294585 
L 664.922932 321.964532 
L 668.9245 298.149743 
L 672.926068 288.098707 
L 676.927636 311.142554 
L 680.929204 325.58939 
L 684.930772 327.0212 
L 688.93234 321.957321 
L 692.933908 297.328748 
L 696.935476 288.919013 
L 700.937043 311.760474 
L 704.938611 326.177194 
L 708.940179 325.243368 
L 712.941747 326.58557 
L 716.943315 325.909538 
L 720.944883 326.728253 
L 724.946451 326.846651 
L 728.948019 321.503345 
L 732.949587 298.677048 
L 736.951155 282.021203 
L 740.952723 283.25715 
L 744.954291 282.434352 
L 748.955858 283.985621 
L 752.957426 282.827723 
L 756.958994 282.346706 
L 760.960562 288.427179 
L 764.96213 311.452044 
L 768.963698 319.740041 
L 772.965266 298.942318 
L 776.966834 287.661169 
L 780.968402 310.528451 
L 784.96997 326.494902 
L 788.971538 327.6642 
L 792.973105 320.232033 
L 796.974673 298.795606 
L 800.976241 283.667329 
L 804.977809 283.774964 
L 808.979377 282.802591 
L 812.980945 282.785146 
L 816.982513 288.579565 
L 820.984081 310.35263 
L 824.985649 326.228095 
L 828.987217 326.014257 
L 832.988785 326.656514 
L 836.990353 326.650893 
L 840.99192 325.435626 
L 844.993488 325.80132 
L 848.995056 326.990023 
L 852.996624 327.649725 
L 856.998192 323.204242 
L 860.99976 326.156038 
L 860.99976 326.156038 
" clip-path="url(#p59324c1adc)" style="fill: none; stroke: #2ca02c; stroke-width: 1.5; stroke-linecap: square"/>
   </g>
   <g id="patch_9">
    <path d="M 60.686177 398.64351 
L 60.686177 213.131178 
" style="fill: none; stroke: #000000; stroke-width: 0.8; stroke-linejoin: miter; stroke-linecap: square"/>
   </g>
   <g id="patch_10">
    <path d="M 860.99976 398.64351 
L 860.99976 213.131178 
" style="fill: none; stroke: #000000; stroke-width: 0.8; stroke-linejoin: miter; stroke-linecap: square"/>
   </g>
   <g id="patch_11">
    <path d="M 60.686177 398.64351 
L 860.99976 398.64351 
" style="fill: none; stroke: #000000; stroke-width: 0.8; stroke-linejoin: miter; stroke-linecap: square"/>
   </g>
   <g id="patch_12">
    <path d="M 60.686177 213.131177 
L 860.99976 213.131177 
" style="fill: none; stroke: #000000; stroke-width: 0.8; stroke-linejoin: miter; stroke-linecap: square"/>
   </g>
   <g id="legend_2">
    <g id="patch_13">
     <path d="M 760.121635 235.809302 
L 853.99976 235.809302 
Q 855.99976 235.809302 855.99976 233.809302 
L 855.99976 220.131177 
Q 855.99976 218.131177 853.99976 218.131177 
L 760.121635 218.131177 
Q 758.121635 218.131177 758.121635 220.131177 
L 758.121635 233.809302 
Q 758.121635 235.809302 760.121635 235.809302 
z
" style="fill: #ffffff; opacity: 0.8; stroke: #cccccc; stroke-linejoin: miter"/>
    </g>
    <g id="line2d_52">
     <path d="M 762.121635 226.229615 
L 772.121635 226.229615 
L 782.121635 226.229615 
" style="fill: none; stroke: #2ca02c; stroke-width: 1.5; stroke-linecap: square"/>
    </g>
    <g id="text_25">
     <!-- FM Decoded -->
     <g transform="translate(790.121635 229.729615) scale(0.1 -0.1)">
      <defs>
       <path id="DejaVuSans-44" d="M 1259 4147 
L 1259 519 
L 2022 519 
Q 2988 519 3436 956 
Q 3884 1394 3884 2338 
Q 3884 3275 3436 3711 
Q 2988 4147 2022 4147 
L 1259 4147 
z
M 628 4666 
L 1925 4666 
Q 3281 4666 3915 4102 
Q 4550 3538 4550 2338 
Q 4550 1131 3912 565 
Q 3275 0 1925 0 
L 628 0 
L 628 4666 
z
" transform="scale(0.015625)"/>
       <path id="DejaVuSans-63" d="M 3122 3366 
L 3122 2828 
Q 2878 2963 2633 3030 
Q 2388 3097 2138 3097 
Q 1578 3097 1268 2742 
Q 959 2388 959 1747 
Q 959 1106 1268 751 
Q 1578 397 2138 397 
Q 2388 397 2633 464 
Q 2878 531 3122 666 
L 3122 134 
Q 2881 22 2623 -34 
Q 2366 -91 2075 -91 
Q 1284 -91 818 406 
Q 353 903 353 1747 
Q 353 2603 823 3093 
Q 1294 3584 2113 3584 
Q 2378 3584 2631 3529 
Q 2884 3475 3122 3366 
z
" transform="scale(0.015625)"/>
      </defs>
      <use xlink:href="#DejaVuSans-46"/>
      <use xlink:href="#DejaVuSans-4d" transform="translate(57.519531 0)"/>
      <use xlink:href="#DejaVuSans-20" transform="translate(143.798828 0)"/>
      <use xlink:href="#DejaVuSans-44" transform="translate(175.585938 0)"/>
      <use xlink:href="#DejaVuSans-65" transform="translate(252.587891 0)"/>
      <use xlink:href="#DejaVuSans-63" transform="translate(314.111328 0)"/>
      <use xlink:href="#DejaVuSans-6f" transform="translate(369.091797 0)"/>
      <use xlink:href="#DejaVuSans-64" transform="translate(430.273438 0)"/>
      <use xlink:href="#DejaVuSans-65" transform="translate(493.75 0)"/>
      <use xlink:href="#DejaVuSans-64" transform="translate(555.273438 0)"/>
     </g>
    </g>
   </g>
  </g>
 </g>
 <defs>
  <clipPath id="p791402b6dd">
   <rect x="60.686177" y="18.118365" width="800.313583" height="185.512333"/>
  </clipPath>
  <clipPath id="p59324c1adc">
   <rect x="60.686177" y="213.131177" width="800.313583" height="185.512333"/>
  </clipPath>
 </defs>
</svg>
