<?xml version="1.0" encoding="utf-8" standalone="no"?>
<!DOCTYPE svg PUBLIC "-//W3C//DTD SVG 1.1//EN"
  "http://www.w3.org/Graphics/SVG/1.1/DTD/svg11.dtd">
<svg xmlns:xlink="http://www.w3.org/1999/xlink" width="864pt" height="432pt" viewBox="0 0 864 432" xmlns="http://www.w3.org/2000/svg" version="1.1">
 <metadata>
  <rdf:RDF xmlns:dc="http://purl.org/dc/elements/1.1/" xmlns:cc="http://creativecommons.org/ns#" xmlns:rdf="http://www.w3.org/1999/02/22-rdf-syntax-ns#">
   <cc:Work>
    <dc:type rdf:resource="http://purl.org/dc/dcmitype/StillImage"/>
    <dc:date>2026-02-24T00:14:45.064546</dc:date>
    <dc:format>image/svg+xml</dc:format>
    <dc:creator>
     <cc:Agent>
      <dc:title>Matplotlib v3.10.8, https://matplotlib.org/</dc:title>
     </cc:Agent>
    </dc:creator>
   </cc:Work>
  </rdf:RDF>
 </metadata>
 <defs>
  <style type="text/css">*{stroke-linejoin: round; stroke-linecap: butt}</style>
 </defs>
 <g id="figure_1">
  <g id="patch_1">
   <path d="M 0 432 
L 864 432 
L 864 0 
L 0 0 
z
" style="fill: #ffffff"/>
  </g>
  <g id="axes_1">
   <g id="patch_2">
    <path d="M 60.686177 203.630697 
L 860.99976 203.630697 
L 860.99976 18.118365 
L 60.686177 18.118365 
z
" style="fill: #ffffff"/>
   </g>
   <g id="matplotlib.axis_1">
    <g id="xtick_1">
     <g id="line2d_1">
      <path d="M 140.717536 203.630697 
L 140.717536 18.118365 
" clip-path="url(#pbb3668ff66)" style="fill: none; stroke: #b0b0b0; stroke-opacity: 0.3; stroke-width: 0.8; stroke-linecap: square"/>
     </g>
     <g id="line2d_2">
      <defs>
       <path id="mcbdddf4d9f" d="M 0 0 
L 0 3.5 
" style="stroke: #000000; stroke-width: 0.8"/>
      </defs>
      <g>
       <use xlink:href="#mcbdddf4d9f" x="140.717536" y="203.630697" style="stroke: #000000; stroke-width: 0.8"/>
      </g>
     </g>
    </g>
    <g id="xtick_2">
     <g id="line2d_3">
      <path d="M 300.780252 203.630697 
L 300.780252 18.118365 
" clip-path="url(#pbb3668ff66)" style="fill: none; stroke: #b0b0b0; stroke-opacity: 0.3; stroke-width: 0.8; stroke-linecap: square"/>
     </g>
     <g id="line2d_4">
      <g>
       <use xlink:href="#mcbdddf4d9f" x="300.780252" y="203.630697" style="stroke: #000000; stroke-width: 0.8"/>
      </g>
     </g>
    </g>
    <g id="xtick_3">
     <g id="line2d_5">
      <path d="M 460.842969 203.630697 
L 460.842969 18.118365 
" clip-path="url(#pbb3668ff66)" style="fill: none; stroke: #b0b0b0; stroke-opacity: 0.3; stroke-width: 0.8; stroke-linecap: square"/>
     </g>
     <g id="line2d_6">
      <g>
       <use xlink:href="#mcbdddf4d9f" x="460.842969" y="203.630697" style="stroke: #000000; stroke-width: 0.8"/>
      </g>
     </g>
    </g>
    <g id="xtick_4">
     <g id="line2d_7">
      <path d="M 620.905685 203.630697 
L 620.905685 18.118365 
" clip-path="url(#pbb3668ff66)" style="fill: none; stroke: #b0b0b0; stroke-opacity: 0.3; stroke-width: 0.8; stroke-linecap: square"/>
     </g>
     <g id="line2d_8">
      <g>
       <use xlink:href="#mcbdddf4d9f" x="620.905685" y="203.630697" style="stroke: #000000; stroke-width: 0.8"/>
      </g>
     </g>
    </g>
    <g id="xtick_5">
     <g id="line2d_9">
      <path d="M 780.968402 203.630697 
L 780.968402 18.118365 
" clip-path="url(#pbb3668ff66)" style="fill: none; stroke: #b0b0b0; stroke-opacity: 0.3; stroke-width: 0.8; stroke-linecap: square"/>
     </g>
     <g id="line2d_10">
      <g>
       <use xlink:href="#mcbdddf4d9f" x="780.968402" y="203.630697" style="stroke: #000000; stroke-width: 0.8"/>
      </g>
     </g>
    </g>
   </g>
   <g id="matplotlib.axis_2">
    <g id="ytick_1">
     <g id="line2d_11">
      <path d="M 60.686177 181.559718 
L 860.99976 181.559718 
" clip-path="url(#pbb3668ff66)" style="fill: none; stroke: #b0b0b0; stroke-opacity: 0.3; stroke-width: 0.8; stroke-linecap: square"/>
     </g>
     <g id="line2d_12">
      <defs>
       <path id="m1faabf36a3" d="M 0 0 
L -3.5 0 
" style="stroke: #000000; stroke-width: 0.8"/>
      </defs>
      <g>
       <use xlink:href="#m1faabf36a3" x="60.686177" y="181.559718" style="stroke: #000000; stroke-width: 0.8"/>
      </g>
     </g>
     <g id="text_1">
      <!-- −0.002 -->
      <g transform="translate(16.678365 185.358936) scale(0.1 -0.1)">
       <defs>
        <path id="DejaVuSans-2212" d="M 678 2272 
L 4684 2272 
L 4684 1741 
L 678 1741 
L 678 2272 
z
" transform="scale(0.015625)"/>
        <path id="DejaVuSans-30" d="M 2034 4250 
Q 1547 4250 1301 3770 
Q 1056 3291 1056 2328 
Q 1056 1369 1301 889 
Q 1547 409 2034 409 
Q 2525 409 2770 889 
Q 3016 1369 3016 2328 
Q 3016 3291 2770 3770 
Q 2525 4250 2034 4250 
z
M 2034 4750 
Q 2819 4750 3233 4129 
Q 3647 3509 3647 2328 
Q 3647 1150 3233 529 
Q 2819 -91 2034 -91 
Q 1250 -91 836 529 
Q 422 1150 422 2328 
Q 422 3509 836 4129 
Q 1250 4750 2034 4750 
z
" transform="scale(0.015625)"/>
        <path id="DejaVuSans-2e" d="M 684 794 
L 1344 794 
L 1344 0 
L 684 0 
L 684 794 
z
" transform="scale(0.015625)"/>
        <path id="DejaVuSans-32" d="M 1228 531 
L 3431 531 
L 3431 0 
L 469 0 
L 469 531 
Q 828 903 1448 1529 
Q 2069 2156 2228 2338 
Q 2531 2678 2651 2914 
Q 2772 3150 2772 3378 
Q 2772 3750 2511 3984 
Q 2250 4219 1831 4219 
Q 1534 4219 1204 4116 
Q 875 4013 500 3803 
L 500 4441 
Q 881 4594 1212 4672 
Q 1544 4750 1819 4750 
Q 2544 4750 2975 4387 
Q 3406 4025 3406 3419 
Q 3406 3131 3298 2873 
Q 3191 2616 2906 2266 
Q 2828 2175 2409 1742 
Q 1991 1309 1228 531 
z
" transform="scale(0.015625)"/>
       </defs>
       <use xlink:href="#DejaVuSans-2212"/>
       <use xlink:href="#DejaVuSans-30" transform="translate(83.789062 0)"/>
       <use xlink:href="#DejaVuSans-2e" transform="translate(147.412109 0)"/>
       <use xlink:href="#DejaVuSans-30" transform="translate(179.199219 0)"/>
       <use xlink:href="#DejaVuSans-30" transform="translate(242.822266 0)"/>
       <use xlink:href="#DejaVuSans-32" transform="translate(306.445312 0)"/>
      </g>
     </g>
    </g>
    <g id="ytick_2">
     <g id="line2d_13">
      <path d="M 60.686177 146.285216 
L 860.99976 146.285216 
" clip-path="url(#pbb3668ff66)" style="fill: none; stroke: #b0b0b0; stroke-opacity: 0.3; stroke-width: 0.8; stroke-linecap: square"/>
     </g>
     <g id="line2d_14">
      <g>
       <use xlink:href="#m1faabf36a3" x="60.686177" y="146.285216" style="stroke: #000000; stroke-width: 0.8"/>
      </g>
     </g>
     <g id="text_2">
      <!-- −0.001 -->
      <g transform="translate(16.678365 150.084435) scale(0.1 -0.1)">
       <defs>
        <path id="DejaVuSans-31" d="M 794 531 
L 1825 531 
L 1825 4091 
L 703 3866 
L 703 4441 
L 1819 4666 
L 2450 4666 
L 2450 531 
L 3481 531 
L 3481 0 
L 794 0 
L 794 531 
z
" transform="scale(0.015625)"/>
       </defs>
       <use xlink:href="#DejaVuSans-2212"/>
       <use xlink:href="#DejaVuSans-30" transform="translate(83.789062 0)"/>
       <use xlink:href="#DejaVuSans-2e" transform="translate(147.412109 0)"/>
       <use xlink:href="#DejaVuSans-30" transform="translate(179.199219 0)"/>
       <use xlink:href="#DejaVuSans-30" transform="translate(242.822266 0)"/>
       <use xlink:href="#DejaVuSans-31" transform="translate(306.445312 0)"/>
      </g>
     </g>
    </g>
    <g id="ytick_3">
     <g id="line2d_15">
      <path d="M 60.686177 111.010715 
L 860.99976 111.010715 
" clip-path="url(#pbb3668ff66)" style="fill: none; stroke: #b0b0b0; stroke-opacity: 0.3; stroke-width: 0.8; stroke-linecap: square"/>
     </g>
     <g id="line2d_16">
      <g>
       <use xlink:href="#m1faabf36a3" x="60.686177" y="111.010715" style="stroke: #000000; stroke-width: 0.8"/>
      </g>
     </g>
     <g id="text_3">
      <!-- 0.000 -->
      <g transform="translate(25.058052 114.809934) scale(0.1 -0.1)">
       <use xlink:href="#DejaVuSans-30"/>
       <use xlink:href="#DejaVuSans-2e" transform="translate(63.623047 0)"/>
       <use xlink:href="#DejaVuSans-30" transform="translate(95.410156 0)"/>
       <use xlink:href="#DejaVuSans-30" transform="translate(159.033203 0)"/>
       <use xlink:href="#DejaVuSans-30" transform="translate(222.65625 0)"/>
      </g>
     </g>
    </g>
    <g id="ytick_4">
     <g id="line2d_17">
      <path d="M 60.686177 75.736213 
L 860.99976 75.736213 
" clip-path="url(#pbb3668ff66)" style="fill: none; stroke: #b0b0b0; stroke-opacity: 0.3; stroke-width: 0.8; stroke-linecap: square"/>
     </g>
     <g id="line2d_18">
      <g>
       <use xlink:href="#m1faabf36a3" x="60.686177" y="75.736213" style="stroke: #000000; stroke-width: 0.8"/>
      </g>
     </g>
     <g id="text_4">
      <!-- 0.001 -->
      <g transform="translate(25.058052 79.535432) scale(0.1 -0.1)">
       <use xlink:href="#DejaVuSans-30"/>
       <use xlink:href="#DejaVuSans-2e" transform="translate(63.623047 0)"/>
       <use xlink:href="#DejaVuSans-30" transform="translate(95.410156 0)"/>
       <use xlink:href="#DejaVuSans-30" transform="translate(159.033203 0)"/>
       <use xlink:href="#DejaVuSans-31" transform="translate(222.65625 0)"/>
      </g>
     </g>
    </g>
    <g id="ytick_5">
     <g id="line2d_19">
      <path d="M 60.686177 40.461712 
L 860.99976 40.461712 
" clip-path="url(#pbb3668ff66)" style="fill: none; stroke: #b0b0b0; stroke-opacity: 0.3; stroke-width: 0.8; stroke-linecap: square"/>
     </g>
     <g id="line2d_20">
      <g>
       <use xlink:href="#m1faabf36a3" x="60.686177" y="40.461712" style="stroke: #000000; stroke-width: 0.8"/>
      </g>
     </g>
     <g id="text_5">
      <!-- 0.002 -->
      <g transform="translate(25.058052 44.260931) scale(0.1 -0.1)">
       <use xlink:href="#DejaVuSans-30"/>
       <use xlink:href="#DejaVuSans-2e" transform="translate(63.623047 0)"/>
       <use xlink:href="#DejaVuSans-30" transform="translate(95.410156 0)"/>
       <use xlink:href="#DejaVuSans-30" transform="translate(159.033203 0)"/>
       <use xlink:href="#DejaVuSans-32" transform="translate(222.65625 0)"/>
      </g>
     </g>
    </g>
    <g id="text_6">
     <!-- Amplitude -->
     <g transform="translate(10.598677 136.497187) rotate(-90) scale(0.1 -0.1)">
      <defs>
       <path id="DejaVuSans-41" d="M 2188 4044 
L 1331 1722 
L 3047 1722 
L 2188 4044 
z
M 1831 4666 
L 2547 4666 
L 4325 0 
L 3669 0 
L 3244 1197 
L 1141 1197 
L 716 0 
L 50 0 
L 1831 4666 
z
" transform="scale(0.015625)"/>
       <path id="DejaVuSans-6d" d="M 3328 2828 
Q 3544 3216 3844 3400 
Q 4144 3584 4550 3584 
Q 5097 3584 5394 3201 
Q 5691 2819 5691 2113 
L 5691 0 
L 5113 0 
L 5113 2094 
Q 5113 2597 4934 2840 
Q 4756 3084 4391 3084 
Q 3944 3084 3684 2787 
Q 3425 2491 3425 1978 
L 3425 0 
L 2847 0 
L 2847 2094 
Q 2847 2600 2669 2842 
Q 2491 3084 2119 3084 
Q 1678 3084 1418 2786 
Q 1159 2488 1159 1978 
L 1159 0 
L 581 0 
L 581 3500 
L 1159 3500 
L 1159 2956 
Q 1356 3278 1631 3431 
Q 1906 3584 2284 3584 
Q 2666 3584 2933 3390 
Q 3200 3197 3328 2828 
z
" transform="scale(0.015625)"/>
       <path id="DejaVuSans-70" d="M 1159 525 
L 1159 -1331 
L 581 -1331 
L 581 3500 
L 1159 3500 
L 1159 2969 
Q 1341 3281 1617 3432 
Q 1894 3584 2278 3584 
Q 2916 3584 3314 3078 
Q 3713 2572 3713 1747 
Q 3713 922 3314 415 
Q 2916 -91 2278 -91 
Q 1894 -91 1617 61 
Q 1341 213 1159 525 
z
M 3116 1747 
Q 3116 2381 2855 2742 
Q 2594 3103 2138 3103 
Q 1681 3103 1420 2742 
Q 1159 2381 1159 1747 
Q 1159 1113 1420 752 
Q 1681 391 2138 391 
Q 2594 391 2855 752 
Q 3116 1113 3116 1747 
z
" transform="scale(0.015625)"/>
       <path id="DejaVuSans-6c" d="M 603 4863 
L 1178 4863 
L 1178 0 
L 603 0 
L 603 4863 
z
" transform="scale(0.015625)"/>
       <path id="DejaVuSans-69" d="M 603 3500 
L 1178 3500 
L 1178 0 
L 603 0 
L 603 3500 
z
M 603 4863 
L 1178 4863 
L 1178 4134 
L 603 4134 
L 603 4863 
z
" transform="scale(0.015625)"/>
       <path id="DejaVuSans-74" d="M 1172 4494 
L 1172 3500 
L 2356 3500 
L 2356 3053 
L 1172 3053 
L 1172 1153 
Q 1172 725 1289 603 
Q 1406 481 1766 481 
L 2356 481 
L 2356 0 
L 1766 0 
Q 1100 0 847 248 
Q 594 497 594 1153 
L 594 3053 
L 172 3053 
L 172 3500 
L 594 3500 
L 594 4494 
L 1172 4494 
z
" transform="scale(0.015625)"/>
       <path id="DejaVuSans-75" d="M 544 1381 
L 544 3500 
L 1119 3500 
L 1119 1403 
Q 1119 906 1312 657 
Q 1506 409 1894 409 
Q 2359 409 2629 706 
Q 2900 1003 2900 1516 
L 2900 3500 
L 3475 3500 
L 3475 0 
L 2900 0 
L 2900 538 
Q 2691 219 2414 64 
Q 2138 -91 1772 -91 
Q 1169 -91 856 284 
Q 544 659 544 1381 
z
M 1991 3584 
L 1991 3584 
z
" transform="scale(0.015625)"/>
       <path id="DejaVuSans-64" d="M 2906 2969 
L 2906 4863 
L 3481 4863 
L 3481 0 
L 2906 0 
L 2906 525 
Q 2725 213 2448 61 
Q 2172 -91 1784 -91 
Q 1150 -91 751 415 
Q 353 922 353 1747 
Q 353 2572 751 3078 
Q 1150 3584 1784 3584 
Q 2172 3584 2448 3432 
Q 2725 3281 2906 2969 
z
M 947 1747 
Q 947 1113 1208 752 
Q 1469 391 1925 391 
Q 2381 391 2643 752 
Q 2906 1113 2906 1747 
Q 2906 2381 2643 2742 
Q 2381 3103 1925 3103 
Q 1469 3103 1208 2742 
Q 947 2381 947 1747 
z
" transform="scale(0.015625)"/>
       <path id="DejaVuSans-65" d="M 3597 1894 
L 3597 1613 
L 953 1613 
Q 991 1019 1311 708 
Q 1631 397 2203 397 
Q 2534 397 2845 478 
Q 3156 559 3463 722 
L 3463 178 
Q 3153 47 2828 -22 
Q 2503 -91 2169 -91 
Q 1331 -91 842 396 
Q 353 884 353 1716 
Q 353 2575 817 3079 
Q 1281 3584 2069 3584 
Q 2775 3584 3186 3129 
Q 3597 2675 3597 1894 
z
M 3022 2063 
Q 3016 2534 2758 2815 
Q 2500 3097 2075 3097 
Q 1594 3097 1305 2825 
Q 1016 2553 972 2059 
L 3022 2063 
z
" transform="scale(0.015625)"/>
      </defs>
      <use xlink:href="#DejaVuSans-41"/>
      <use xlink:href="#DejaVuSans-6d" transform="translate(68.408203 0)"/>
      <use xlink:href="#DejaVuSans-70" transform="translate(165.820312 0)"/>
      <use xlink:href="#DejaVuSans-6c" transform="translate(229.296875 0)"/>
      <use xlink:href="#DejaVuSans-69" transform="translate(257.080078 0)"/>
      <use xlink:href="#DejaVuSans-74" transform="translate(284.863281 0)"/>
      <use xlink:href="#DejaVuSans-75" transform="translate(324.072266 0)"/>
      <use xlink:href="#DejaVuSans-64" transform="translate(387.451172 0)"/>
      <use xlink:href="#DejaVuSans-65" transform="translate(450.927734 0)"/>
     </g>
    </g>
   </g>
   <g id="line2d_21">
    <path d="M 60.686177 111.453447 
L 64.687745 110.682654 
L 68.689313 109.062529 
L 72.690881 109.629145 
L 76.692449 110.569499 
L 80.694017 112.170677 
L 84.695585 113.14829 
L 92.698721 109.631193 
L 96.700289 109.300467 
L 100.701857 110.499022 
L 104.703425 113.850626 
L 108.704992 114.234709 
L 112.70656 110.605995 
L 116.708128 110.333939 
L 120.709696 112.694152 
L 124.711264 112.261139 
L 128.712832 110.857943 
L 136.715968 109.463845 
L 140.717536 110.591861 
L 144.719104 112.61289 
L 148.720672 112.144269 
L 152.722239 109.975731 
L 156.723807 109.708851 
L 160.725375 111.410124 
L 164.726943 112.208298 
L 172.730079 108.277661 
L 176.731647 110.277489 
L 180.733215 111.847044 
L 184.734783 110.996615 
L 188.736351 112.533752 
L 192.737919 108.732038 
L 196.739487 106.670346 
L 200.741054 134.149681 
L 204.742622 168.309466 
L 208.74419 170.915249 
L 212.745758 172.485391 
L 216.747326 190.836485 
L 220.748894 185.916956 
L 224.750462 166.600241 
L 228.75203 177.247218 
L 232.753598 194.699109 
L 236.755166 181.446267 
L 240.756734 166.679669 
L 244.758301 180.701045 
L 248.759869 195.198319 
L 252.761437 184.71193 
L 256.763005 172.69081 
L 260.764573 181.542195 
L 264.766141 192.06063 
L 268.767709 183.432807 
L 272.769277 174.138435 
L 276.770845 183.613279 
L 280.772413 192.498201 
L 284.773981 184.392322 
L 288.775549 178.020393 
L 292.777116 185.636877 
L 296.778684 190.713528 
L 300.780252 183.558992 
L 304.78182 177.742929 
L 312.784956 187.107321 
L 316.786524 183.772168 
L 320.788092 180.038175 
L 324.78966 182.543719 
L 328.791228 187.427053 
L 332.792796 186.890342 
L 336.794363 182.45244 
L 340.795931 184.598082 
L 344.797499 177.094071 
L 348.799067 128.248138 
L 352.800635 77.622878 
L 356.802203 97.217626 
L 360.803771 142.189585 
L 364.805339 119.893642 
L 368.806907 73.356076 
L 372.808475 91.305775 
L 376.810043 146.555364 
L 380.81161 178.056177 
L 384.813178 174.848472 
L 388.814746 135.142337 
L 392.816314 93.229822 
L 396.817882 112.248048 
L 400.81945 157.39052 
L 404.821018 138.800561 
L 408.822586 94.222048 
L 412.824154 118.152888 
L 416.825722 165.41535 
L 420.82729 144.227258 
L 424.828858 100.001627 
L 428.830425 120.538844 
L 432.831993 175.557483 
L 436.833561 186.29109 
L 440.835129 164.987815 
L 444.836697 172.465672 
L 448.838265 186.176741 
L 452.839833 149.767873 
L 456.841401 108.129133 
L 460.842969 129.367559 
L 464.844537 176.589756 
L 468.846105 186.082694 
L 472.847672 152.386706 
L 476.84924 93.50707 
L 480.850808 41.385037 
L 484.852376 35.162009 
L 488.853944 76.552098 
L 492.855512 135.023165 
L 496.85708 170.794658 
L 500.858648 154.338534 
L 504.860216 121.259233 
L 508.861784 136.376806 
L 512.863352 172.720459 
L 516.86492 159.542548 
L 520.866487 125.635197 
L 524.868055 140.087786 
L 528.869623 174.35226 
L 532.871191 162.394347 
L 536.872759 130.096043 
L 540.874327 143.466062 
L 544.875895 178.320294 
L 548.877463 166.640637 
L 552.879031 134.033726 
L 556.880599 149.942481 
L 560.882167 185.84253 
L 564.883734 172.474287 
L 568.885302 138.954416 
L 572.88687 150.134771 
L 576.888438 179.792196 
L 580.890006 170.069825 
L 584.891574 126.229602 
L 588.893142 76.288293 
L 592.89471 42.168498 
L 596.896278 53.178206 
L 600.897846 87.556352 
L 604.899414 79.65644 
L 608.900982 45.955916 
L 612.902549 58.907009 
L 616.904117 94.107209 
L 620.905685 79.942079 
L 624.907253 44.912707 
L 628.908821 51.797159 
L 632.910389 72.293275 
L 636.911957 57.242832 
L 640.913525 36.290334 
L 644.915093 50.584796 
L 648.916661 68.362196 
L 652.918229 50.269939 
L 656.919796 33.581289 
L 660.921364 65.670004 
L 664.922932 106.074525 
L 668.9245 92.468922 
L 672.926068 55.712195 
L 676.927636 66.664346 
L 680.929204 121.799074 
L 684.930772 169.745774 
L 688.93234 186.685798 
L 692.933908 177.161586 
L 696.935476 165.708788 
L 700.937043 176.854174 
L 704.938611 185.186206 
L 708.940179 150.993427 
L 712.941747 91.602181 
L 716.943315 46.520062 
L 720.944883 37.157691 
L 724.946451 74.696641 
L 728.948019 119.864052 
L 732.949587 106.693207 
L 736.951155 56.249094 
L 740.952723 39.192507 
L 744.954291 63.636333 
L 748.955858 109.799952 
L 752.957426 162.268491 
L 756.958994 185.295709 
L 760.960562 177.255029 
L 764.96213 178.74454 
L 768.963698 188.721813 
L 772.965266 181.941674 
L 776.966834 174.928155 
L 780.968402 184.768395 
L 784.96997 178.284551 
L 788.971538 129.373456 
L 792.973105 84.988248 
L 796.974673 99.796176 
L 800.976241 150.233701 
L 804.977809 182.656795 
L 808.979377 174.524474 
L 812.980945 129.391098 
L 816.982513 88.950672 
L 820.984081 103.435072 
L 824.985649 157.242913 
L 828.987217 188.933158 
L 832.988785 167.845938 
L 836.990353 115.084327 
L 840.99192 64.114994 
L 844.993488 33.499414 
L 848.995056 49.395071 
L 852.996624 110.140822 
L 856.998192 143.697711 
L 860.99976 121.448061 
L 860.99976 121.448061 
" clip-path="url(#pbb3668ff66)" style="fill: none; stroke: #1f77b4; stroke-width: 1.5; stroke-linecap: square"/>
   </g>
   <g id="line2d_22">
    <path d="M 60.686177 110.717147 
L 64.687745 111.642564 
L 68.689313 111.028613 
L 72.690881 110.551869 
L 76.692449 110.359374 
L 80.694017 108.439284 
L 84.695585 108.297355 
L 88.697153 111.901856 
L 92.698721 113.934724 
L 100.701857 110.053363 
L 104.703425 109.834686 
L 108.704992 109.272641 
L 112.70656 108.367041 
L 116.708128 109.146743 
L 120.709696 111.103529 
L 124.711264 111.730141 
L 128.712832 110.8689 
L 132.7144 110.237873 
L 140.717536 110.137416 
L 144.719104 110.004038 
L 148.720672 110.593923 
L 152.722239 111.544847 
L 156.723807 111.738884 
L 160.725375 111.193017 
L 164.726943 110.358072 
L 168.728511 110.173829 
L 172.730079 111.914888 
L 176.731647 112.331195 
L 180.733215 109.473258 
L 184.734783 110.348125 
L 188.736351 113.842679 
L 192.737919 110.310116 
L 196.739487 110.199028 
L 200.741054 116.437858 
L 204.742622 94.614538 
L 208.74419 54.43055 
L 212.745758 65.096048 
L 216.747326 109.59089 
L 220.748894 97.174718 
L 224.750462 54.044179 
L 228.75203 74.292936 
L 232.753598 119.144662 
L 236.755166 98.092138 
L 240.756734 54.586133 
L 244.758301 74.097307 
L 248.759869 117.788113 
L 252.761437 101.809192 
L 256.763005 58.869903 
L 260.764573 76.961538 
L 264.766141 124.731962 
L 268.767709 108.369752 
L 272.769277 62.233888 
L 276.770845 81.751127 
L 280.772413 129.352039 
L 284.773981 112.01149 
L 288.775549 66.656798 
L 292.777116 84.011272 
L 296.778684 129.795051 
L 300.780252 113.689532 
L 304.78182 69.607276 
L 308.783388 89.045132 
L 312.784956 135.310687 
L 316.786524 116.627456 
L 320.788092 73.205857 
L 324.78966 95.167452 
L 328.791228 140.500507 
L 332.792796 122.444232 
L 336.794363 79.123298 
L 340.795931 93.654514 
L 344.797499 149.953626 
L 348.799067 184.114255 
L 352.800635 183.355753 
L 356.802203 175.702746 
L 360.803771 180.126777 
L 364.805339 186.686242 
L 368.806907 183.561332 
L 372.808475 181.421028 
L 376.810043 174.8875 
L 380.81161 136.563109 
L 384.813178 79.902567 
L 388.814746 44.061259 
L 392.816314 32.456964 
L 396.817882 35.626437 
L 400.81945 47.206725 
L 404.821018 45.320679 
L 408.822586 32.874422 
L 412.824154 39.169371 
L 416.825722 53.641287 
L 420.82729 48.903799 
L 424.828858 35.510108 
L 428.830425 34.995466 
L 432.831993 61.886737 
L 436.833561 119.07933 
L 440.835129 164.436272 
L 444.836697 148.824927 
L 448.838265 93.660565 
L 452.839833 53.748634 
L 456.841401 38.469041 
L 460.842969 38.258855 
L 464.844537 68.65544 
L 468.846105 128.668979 
L 472.847672 176.778253 
L 476.84924 182.498005 
L 480.850808 149.767269 
L 484.852376 94.42943 
L 488.853944 47.038761 
L 492.855512 42.186756 
L 496.85708 63.294624 
L 500.858648 58.49119 
L 504.860216 34.565861 
L 508.861784 42.315158 
L 512.863352 68.792671 
L 516.86492 61.242827 
L 520.866487 36.026023 
L 524.868055 45.888656 
L 528.869623 72.796908 
L 532.871191 63.503882 
L 536.872759 36.853966 
L 540.874327 46.838796 
L 544.875895 74.787329 
L 548.877463 67.302445 
L 552.879031 38.685577 
L 556.880599 43.663639 
L 560.882167 92.636112 
L 564.883734 150.079075 
L 568.885302 179.730406 
L 572.88687 167.789942 
L 576.888438 124.587814 
L 580.890006 73.210008 
L 584.891574 42.023391 
L 588.893142 53.135552 
L 592.89471 79.875681 
L 596.896278 67.067402 
L 600.897846 36.425043 
L 604.899414 51.962573 
L 608.900982 80.683205 
L 612.902549 62.84941 
L 616.904117 37.972468 
L 620.905685 50.538926 
L 624.907253 84.633798 
L 628.908821 134.174644 
L 632.910389 175.686205 
L 636.911957 159.861434 
L 640.913525 121.837565 
L 644.915093 135.326142 
L 648.916661 170.610498 
L 652.918229 157.939497 
L 656.919796 105.213135 
L 660.921364 56.377701 
L 664.922932 34.697499 
L 668.9245 46.175531 
L 672.926068 63.570239 
L 676.927636 49.901397 
L 680.929204 33.72757 
L 684.930772 67.848272 
L 688.93234 112.878002 
L 692.933908 97.013066 
L 696.935476 57.22198 
L 700.937043 72.724646 
L 704.938611 131.899387 
L 708.940179 178.092507 
L 712.941747 185.914147 
L 716.943315 148.980358 
L 720.944883 87.395408 
L 724.946451 45.602672 
L 728.948019 35.319863 
L 732.949587 39.399326 
L 736.951155 63.627935 
L 740.952723 114.657111 
L 744.954291 163.634783 
L 748.955858 182.118631 
L 752.957426 163.721069 
L 756.958994 112.372031 
L 760.960562 70.356497 
L 764.96213 90.018457 
L 768.963698 131.722567 
L 772.965266 116.495757 
L 776.966834 73.906034 
L 780.968402 87.307022 
L 784.96997 146.408051 
L 788.971538 182.817252 
L 792.973105 184.422341 
L 796.974673 181.647846 
L 800.976241 170.61952 
L 804.977809 128.254452 
L 808.979377 74.41489 
L 812.980945 46.0898 
L 816.982513 39.870883 
L 820.984081 38.675483 
L 824.985649 54.739211 
L 828.987217 103.044483 
L 832.988785 160.791661 
L 836.990353 185.949693 
L 840.99192 166.557895 
L 844.993488 118.681255 
L 848.995056 62.230751 
L 852.996624 37.138357 
L 856.998192 68.805073 
L 860.99976 109.141303 
L 860.99976 109.141303 
" clip-path="url(#pbb3668ff66)" style="fill: none; stroke: #ff7f0e; stroke-width: 1.5; stroke-linecap: square"/>
   </g>
   <g id="line2d_23">
    <path d="M 60.686177 110.479495 
L 64.687745 110.298775 
L 68.689313 109.062446 
L 72.690881 109.554942 
L 76.692449 110.224002 
L 80.694017 108.189763 
L 84.695585 107.556507 
L 88.697153 110.055733 
L 92.698721 107.777619 
L 96.700289 109.034556 
L 100.701857 109.925196 
L 104.703425 107.936932 
L 108.704992 107.34806 
L 112.70656 108.336241 
L 116.708128 109.027683 
L 124.711264 109.568101 
L 128.712832 110.802267 
L 132.7144 109.822983 
L 136.715968 109.27816 
L 140.717536 110.042164 
L 144.719104 109.11853 
L 148.720672 109.802965 
L 152.722239 109.846031 
L 156.723807 109.519045 
L 160.725375 110.571668 
L 164.726943 109.646843 
L 168.728511 109.895798 
L 172.730079 108.131981 
L 176.731647 109.500321 
L 180.733215 109.26051 
L 184.734783 110.347975 
L 188.736351 107.795181 
L 192.737919 108.626766 
L 196.739487 106.595102 
L 200.741054 87.243813 
L 204.742622 51.412217 
L 208.74419 28.610059 
L 212.745758 34.282021 
L 216.747326 31.172314 
L 220.748894 34.837366 
L 224.750462 31.415607 
L 228.75203 35.277837 
L 232.753598 26.927974 
L 236.755166 39.400262 
L 240.756734 31.74682 
L 244.758301 32.147918 
L 248.759869 26.550744 
L 252.761437 36.737317 
L 256.763005 30.24501 
L 260.764573 32.690632 
L 264.766141 28.807549 
L 268.767709 38.540486 
L 272.769277 31.234231 
L 276.770845 32.733922 
L 280.772413 27.484585 
L 284.773981 37.622283 
L 288.775549 30.651733 
L 292.777116 31.650556 
L 296.778684 29.124274 
L 300.780252 38.412996 
L 304.78182 32.47771 
L 308.783388 36.273998 
L 312.784956 31.128415 
L 316.786524 38.0328 
L 320.788092 32.308761 
L 324.78966 37.744221 
L 328.791228 29.10159 
L 332.792796 34.274522 
L 336.794363 32.775636 
L 340.795931 35.404243 
L 344.797499 34.306347 
L 348.799067 35.902418 
L 352.800635 31.332918 
L 356.802203 44.864608 
L 360.803771 35.187551 
L 364.805339 34.815626 
L 368.806907 29.27049 
L 372.808475 37.895069 
L 376.810043 37.910337 
L 380.81161 39.26102 
L 384.813178 39.996796 
L 388.814746 39.844963 
L 392.816314 30.469717 
L 396.817882 35.616286 
L 400.81945 32.130835 
L 404.821018 39.684309 
L 408.822586 31.091128 
L 412.824154 38.815219 
L 416.825722 31.946716 
L 420.82729 40.57913 
L 424.828858 34.711683 
L 428.830425 34.400649 
L 432.831993 29.896903 
L 436.833561 35.299174 
L 440.835129 35.064562 
L 444.836697 38.853762 
L 448.838265 33.868259 
L 452.839833 41.86548 
L 456.841401 38.41183 
L 460.842969 35.978684 
L 464.844537 32.942918 
L 468.846105 33.889925 
L 472.847672 33.310375 
L 476.84924 37.411726 
L 480.850808 31.32505 
L 484.852376 33.370741 
L 488.853944 38.348434 
L 492.855512 38.118084 
L 496.85708 34.519236 
L 500.858648 42.925469 
L 504.860216 33.881942 
L 508.861784 37.7815 
L 512.863352 36.241368 
L 516.86492 41.496816 
L 520.866487 34.613209 
L 524.868055 39.692004 
L 528.869623 37.034734 
L 532.871191 41.030885 
L 536.872759 34.437402 
L 540.874327 39.098378 
L 544.875895 34.573072 
L 548.877463 40.263981 
L 552.879031 35.109561 
L 556.880599 33.220542 
L 560.882167 33.956014 
L 564.883734 38.181414 
L 568.885302 36.826847 
L 572.88687 42.057311 
L 576.888438 40.902015 
L 580.890006 40.890303 
L 584.891574 40.364656 
L 588.893142 43.518631 
L 592.89471 35.455172 
L 596.896278 38.377294 
L 600.897846 32.824208 
L 604.899414 44.154345 
L 608.900982 39.234081 
L 612.902549 40.05786 
L 616.904117 36.041965 
L 620.905685 43.024706 
L 624.907253 39.844084 
L 628.908821 47.427597 
L 632.910389 35.631948 
L 636.911957 38.365155 
L 640.913525 35.51001 
L 644.915093 45.875992 
L 648.916661 37.723401 
L 652.918229 34.252963 
L 656.919796 33.36454 
L 660.921364 40.013912 
L 664.922932 34.538028 
L 668.9245 43.576315 
L 672.926068 38.151084 
L 680.929204 32.978201 
L 684.930772 38.121739 
L 688.93234 35.312602 
L 692.933908 43.395095 
L 696.935476 34.296262 
L 700.937043 34.84521 
L 704.938611 33.950085 
L 708.940179 32.917277 
L 712.941747 33.633614 
L 716.943315 36.172633 
L 720.944883 33.473937 
L 724.946451 36.198126 
L 728.948019 34.803841 
L 732.949587 39.269298 
L 736.951155 38.595505 
L 740.952723 39.099996 
L 744.954291 40.203763 
L 748.955858 39.892491 
L 752.957426 37.486966 
L 756.958994 36.713253 
L 760.960562 33.28636 
L 764.96213 40.098473 
L 768.963698 30.586867 
L 772.965266 39.867992 
L 776.966834 37.104043 
L 780.968402 33.537752 
L 784.96997 34.992682 
L 788.971538 36.893446 
L 792.973105 33.12339 
L 796.974673 39.488897 
L 800.976241 39.654898 
L 804.977809 37.318747 
L 808.979377 37.708248 
L 812.980945 43.538022 
L 816.982513 36.529028 
L 820.984081 38.279863 
L 824.985649 38.182852 
L 828.987217 32.682123 
L 832.988785 35.456855 
L 836.990353 35.9611 
L 840.99192 38.314785 
L 844.993488 33.120803 
L 848.995056 32.423356 
L 852.996624 37.13324 
L 856.998192 57.627611 
L 860.99976 100.407276 
L 860.99976 100.407276 
" clip-path="url(#pbb3668ff66)" style="fill: none; stroke: #2ca02c; stroke-width: 1.2; stroke-linecap: square"/>
   </g>
   <g id="patch_3">
    <path d="M 60.686177 203.630697 
L 60.686177 18.118365 
" style="fill: none; stroke: #000000; stroke-width: 0.8; stroke-linejoin: miter; stroke-linecap: square"/>
   </g>
   <g id="patch_4">
    <path d="M 860.99976 203.630697 
L 860.99976 18.118365 
" style="fill: none; stroke: #000000; stroke-width: 0.8; stroke-linejoin: miter; stroke-linecap: square"/>
   </g>
   <g id="patch_5">
    <path d="M 60.686177 203.630697 
L 860.99976 203.630697 
" style="fill: none; stroke: #000000; stroke-width: 0.8; stroke-linejoin: miter; stroke-linecap: square"/>
   </g>
   <g id="patch_6">
    <path d="M 60.686177 18.118365 
L 860.99976 18.118365 
" style="fill: none; stroke: #000000; stroke-width: 0.8; stroke-linejoin: miter; stroke-linecap: square"/>
   </g>
   <g id="text_7">
    <!-- Het Pre - Channel 33 Time Plot (2.4 ms to 2.8 ms) -->
    <g transform="translate(311.624844 12.118365) scale(0.12 -0.12)">
     <defs>
      <path id="DejaVuSans-48" d="M 628 4666 
L 1259 4666 
L 1259 2753 
L 3553 2753 
L 3553 4666 
L 4184 4666 
L 4184 0 
L 3553 0 
L 3553 2222 
L 1259 2222 
L 1259 0 
L 628 0 
L 628 4666 
z
" transform="scale(0.015625)"/>
      <path id="DejaVuSans-20" transform="scale(0.015625)"/>
      <path id="DejaVuSans-50" d="M 1259 4147 
L 1259 2394 
L 2053 2394 
Q 2494 2394 2734 2622 
Q 2975 2850 2975 3272 
Q 2975 3691 2734 3919 
Q 2494 4147 2053 4147 
L 1259 4147 
z
M 628 4666 
L 2053 4666 
Q 2838 4666 3239 4311 
Q 3641 3956 3641 3272 
Q 3641 2581 3239 2228 
Q 2838 1875 2053 1875 
L 1259 1875 
L 1259 0 
L 628 0 
L 628 4666 
z
" transform="scale(0.015625)"/>
      <path id="DejaVuSans-72" d="M 2631 2963 
Q 2534 3019 2420 3045 
Q 2306 3072 2169 3072 
Q 1681 3072 1420 2755 
Q 1159 2438 1159 1844 
L 1159 0 
L 581 0 
L 581 3500 
L 1159 3500 
L 1159 2956 
Q 1341 3275 1631 3429 
Q 1922 3584 2338 3584 
Q 2397 3584 2469 3576 
Q 2541 3569 2628 3553 
L 2631 2963 
z
" transform="scale(0.015625)"/>
      <path id="DejaVuSans-2d" d="M 313 2009 
L 1997 2009 
L 1997 1497 
L 313 1497 
L 313 2009 
z
" transform="scale(0.015625)"/>
      <path id="DejaVuSans-43" d="M 4122 4306 
L 4122 3641 
Q 3803 3938 3442 4084 
Q 3081 4231 2675 4231 
Q 1875 4231 1450 3742 
Q 1025 3253 1025 2328 
Q 1025 1406 1450 917 
Q 1875 428 2675 428 
Q 3081 428 3442 575 
Q 3803 722 4122 1019 
L 4122 359 
Q 3791 134 3420 21 
Q 3050 -91 2638 -91 
Q 1578 -91 968 557 
Q 359 1206 359 2328 
Q 359 3453 968 4101 
Q 1578 4750 2638 4750 
Q 3056 4750 3426 4639 
Q 3797 4528 4122 4306 
z
" transform="scale(0.015625)"/>
      <path id="DejaVuSans-68" d="M 3513 2113 
L 3513 0 
L 2938 0 
L 2938 2094 
Q 2938 2591 2744 2837 
Q 2550 3084 2163 3084 
Q 1697 3084 1428 2787 
Q 1159 2491 1159 1978 
L 1159 0 
L 581 0 
L 581 4863 
L 1159 4863 
L 1159 2956 
Q 1366 3272 1645 3428 
Q 1925 3584 2291 3584 
Q 2894 3584 3203 3211 
Q 3513 2838 3513 2113 
z
" transform="scale(0.015625)"/>
      <path id="DejaVuSans-61" d="M 2194 1759 
Q 1497 1759 1228 1600 
Q 959 1441 959 1056 
Q 959 750 1161 570 
Q 1363 391 1709 391 
Q 2188 391 2477 730 
Q 2766 1069 2766 1631 
L 2766 1759 
L 2194 1759 
z
M 3341 1997 
L 3341 0 
L 2766 0 
L 2766 531 
Q 2569 213 2275 61 
Q 1981 -91 1556 -91 
Q 1019 -91 701 211 
Q 384 513 384 1019 
Q 384 1609 779 1909 
Q 1175 2209 1959 2209 
L 2766 2209 
L 2766 2266 
Q 2766 2663 2505 2880 
Q 2244 3097 1772 3097 
Q 1472 3097 1187 3025 
Q 903 2953 641 2809 
L 641 3341 
Q 956 3463 1253 3523 
Q 1550 3584 1831 3584 
Q 2591 3584 2966 3190 
Q 3341 2797 3341 1997 
z
" transform="scale(0.015625)"/>
      <path id="DejaVuSans-6e" d="M 3513 2113 
L 3513 0 
L 2938 0 
L 2938 2094 
Q 2938 2591 2744 2837 
Q 2550 3084 2163 3084 
Q 1697 3084 1428 2787 
Q 1159 2491 1159 1978 
L 1159 0 
L 581 0 
L 581 3500 
L 1159 3500 
L 1159 2956 
Q 1366 3272 1645 3428 
Q 1925 3584 2291 3584 
Q 2894 3584 3203 3211 
Q 3513 2838 3513 2113 
z
" transform="scale(0.015625)"/>
      <path id="DejaVuSans-33" d="M 2597 2516 
Q 3050 2419 3304 2112 
Q 3559 1806 3559 1356 
Q 3559 666 3084 287 
Q 2609 -91 1734 -91 
Q 1441 -91 1130 -33 
Q 819 25 488 141 
L 488 750 
Q 750 597 1062 519 
Q 1375 441 1716 441 
Q 2309 441 2620 675 
Q 2931 909 2931 1356 
Q 2931 1769 2642 2001 
Q 2353 2234 1838 2234 
L 1294 2234 
L 1294 2753 
L 1863 2753 
Q 2328 2753 2575 2939 
Q 2822 3125 2822 3475 
Q 2822 3834 2567 4026 
Q 2313 4219 1838 4219 
Q 1578 4219 1281 4162 
Q 984 4106 628 3988 
L 628 4550 
Q 988 4650 1302 4700 
Q 1616 4750 1894 4750 
Q 2613 4750 3031 4423 
Q 3450 4097 3450 3541 
Q 3450 3153 3228 2886 
Q 3006 2619 2597 2516 
z
" transform="scale(0.015625)"/>
      <path id="DejaVuSans-54" d="M -19 4666 
L 3928 4666 
L 3928 4134 
L 2272 4134 
L 2272 0 
L 1638 0 
L 1638 4134 
L -19 4134 
L -19 4666 
z
" transform="scale(0.015625)"/>
      <path id="DejaVuSans-6f" d="M 1959 3097 
Q 1497 3097 1228 2736 
Q 959 2375 959 1747 
Q 959 1119 1226 758 
Q 1494 397 1959 397 
Q 2419 397 2687 759 
Q 2956 1122 2956 1747 
Q 2956 2369 2687 2733 
Q 2419 3097 1959 3097 
z
M 1959 3584 
Q 2709 3584 3137 3096 
Q 3566 2609 3566 1747 
Q 3566 888 3137 398 
Q 2709 -91 1959 -91 
Q 1206 -91 779 398 
Q 353 888 353 1747 
Q 353 2609 779 3096 
Q 1206 3584 1959 3584 
z
" transform="scale(0.015625)"/>
      <path id="DejaVuSans-28" d="M 1984 4856 
Q 1566 4138 1362 3434 
Q 1159 2731 1159 2009 
Q 1159 1288 1364 580 
Q 1569 -128 1984 -844 
L 1484 -844 
Q 1016 -109 783 600 
Q 550 1309 550 2009 
Q 550 2706 781 3412 
Q 1013 4119 1484 4856 
L 1984 4856 
z
" transform="scale(0.015625)"/>
      <path id="DejaVuSans-34" d="M 2419 4116 
L 825 1625 
L 2419 1625 
L 2419 4116 
z
M 2253 4666 
L 3047 4666 
L 3047 1625 
L 3713 1625 
L 3713 1100 
L 3047 1100 
L 3047 0 
L 2419 0 
L 2419 1100 
L 313 1100 
L 313 1709 
L 2253 4666 
z
" transform="scale(0.015625)"/>
      <path id="DejaVuSans-73" d="M 2834 3397 
L 2834 2853 
Q 2591 2978 2328 3040 
Q 2066 3103 1784 3103 
Q 1356 3103 1142 2972 
Q 928 2841 928 2578 
Q 928 2378 1081 2264 
Q 1234 2150 1697 2047 
L 1894 2003 
Q 2506 1872 2764 1633 
Q 3022 1394 3022 966 
Q 3022 478 2636 193 
Q 2250 -91 1575 -91 
Q 1294 -91 989 -36 
Q 684 19 347 128 
L 347 722 
Q 666 556 975 473 
Q 1284 391 1588 391 
Q 1994 391 2212 530 
Q 2431 669 2431 922 
Q 2431 1156 2273 1281 
Q 2116 1406 1581 1522 
L 1381 1569 
Q 847 1681 609 1914 
Q 372 2147 372 2553 
Q 372 3047 722 3315 
Q 1072 3584 1716 3584 
Q 2034 3584 2315 3537 
Q 2597 3491 2834 3397 
z
" transform="scale(0.015625)"/>
      <path id="DejaVuSans-38" d="M 2034 2216 
Q 1584 2216 1326 1975 
Q 1069 1734 1069 1313 
Q 1069 891 1326 650 
Q 1584 409 2034 409 
Q 2484 409 2743 651 
Q 3003 894 3003 1313 
Q 3003 1734 2745 1975 
Q 2488 2216 2034 2216 
z
M 1403 2484 
Q 997 2584 770 2862 
Q 544 3141 544 3541 
Q 544 4100 942 4425 
Q 1341 4750 2034 4750 
Q 2731 4750 3128 4425 
Q 3525 4100 3525 3541 
Q 3525 3141 3298 2862 
Q 3072 2584 2669 2484 
Q 3125 2378 3379 2068 
Q 3634 1759 3634 1313 
Q 3634 634 3220 271 
Q 2806 -91 2034 -91 
Q 1263 -91 848 271 
Q 434 634 434 1313 
Q 434 1759 690 2068 
Q 947 2378 1403 2484 
z
M 1172 3481 
Q 1172 3119 1398 2916 
Q 1625 2713 2034 2713 
Q 2441 2713 2670 2916 
Q 2900 3119 2900 3481 
Q 2900 3844 2670 4047 
Q 2441 4250 2034 4250 
Q 1625 4250 1398 4047 
Q 1172 3844 1172 3481 
z
" transform="scale(0.015625)"/>
      <path id="DejaVuSans-29" d="M 513 4856 
L 1013 4856 
Q 1481 4119 1714 3412 
Q 1947 2706 1947 2009 
Q 1947 1309 1714 600 
Q 1481 -109 1013 -844 
L 513 -844 
Q 928 -128 1133 580 
Q 1338 1288 1338 2009 
Q 1338 2731 1133 3434 
Q 928 4138 513 4856 
z
" transform="scale(0.015625)"/>
     </defs>
     <use xlink:href="#DejaVuSans-48"/>
     <use xlink:href="#DejaVuSans-65" transform="translate(75.195312 0)"/>
     <use xlink:href="#DejaVuSans-74" transform="translate(136.71875 0)"/>
     <use xlink:href="#DejaVuSans-20" transform="translate(175.927734 0)"/>
     <use xlink:href="#DejaVuSans-50" transform="translate(207.714844 0)"/>
     <use xlink:href="#DejaVuSans-72" transform="translate(266.267578 0)"/>
     <use xlink:href="#DejaVuSans-65" transform="translate(305.130859 0)"/>
     <use xlink:href="#DejaVuSans-20" transform="translate(366.654297 0)"/>
     <use xlink:href="#DejaVuSans-2d" transform="translate(398.441406 0)"/>
     <use xlink:href="#DejaVuSans-20" transform="translate(434.525391 0)"/>
     <use xlink:href="#DejaVuSans-43" transform="translate(466.3125 0)"/>
     <use xlink:href="#DejaVuSans-68" transform="translate(536.136719 0)"/>
     <use xlink:href="#DejaVuSans-61" transform="translate(599.515625 0)"/>
     <use xlink:href="#DejaVuSans-6e" transform="translate(660.794922 0)"/>
     <use xlink:href="#DejaVuSans-6e" transform="translate(724.173828 0)"/>
     <use xlink:href="#DejaVuSans-65" transform="translate(787.552734 0)"/>
     <use xlink:href="#DejaVuSans-6c" transform="translate(849.076172 0)"/>
     <use xlink:href="#DejaVuSans-20" transform="translate(876.859375 0)"/>
     <use xlink:href="#DejaVuSans-33" transform="translate(908.646484 0)"/>
     <use xlink:href="#DejaVuSans-33" transform="translate(972.269531 0)"/>
     <use xlink:href="#DejaVuSans-20" transform="translate(1035.892578 0)"/>
     <use xlink:href="#DejaVuSans-54" transform="translate(1067.679688 0)"/>
     <use xlink:href="#DejaVuSans-69" transform="translate(1125.638672 0)"/>
     <use xlink:href="#DejaVuSans-6d" transform="translate(1153.421875 0)"/>
     <use xlink:href="#DejaVuSans-65" transform="translate(1250.833984 0)"/>
     <use xlink:href="#DejaVuSans-20" transform="translate(1312.357422 0)"/>
     <use xlink:href="#DejaVuSans-50" transform="translate(1344.144531 0)"/>
     <use xlink:href="#DejaVuSans-6c" transform="translate(1404.447266 0)"/>
     <use xlink:href="#DejaVuSans-6f" transform="translate(1432.230469 0)"/>
     <use xlink:href="#DejaVuSans-74" transform="translate(1493.412109 0)"/>
     <use xlink:href="#DejaVuSans-20" transform="translate(1532.621094 0)"/>
     <use xlink:href="#DejaVuSans-28" transform="translate(1564.408203 0)"/>
     <use xlink:href="#DejaVuSans-32" transform="translate(1603.421875 0)"/>
     <use xlink:href="#DejaVuSans-2e" transform="translate(1667.044922 0)"/>
     <use xlink:href="#DejaVuSans-34" transform="translate(1698.832031 0)"/>
     <use xlink:href="#DejaVuSans-20" transform="translate(1762.455078 0)"/>
     <use xlink:href="#DejaVuSans-6d" transform="translate(1794.242188 0)"/>
     <use xlink:href="#DejaVuSans-73" transform="translate(1891.654297 0)"/>
     <use xlink:href="#DejaVuSans-20" transform="translate(1943.753906 0)"/>
     <use xlink:href="#DejaVuSans-74" transform="translate(1975.541016 0)"/>
     <use xlink:href="#DejaVuSans-6f" transform="translate(2014.75 0)"/>
     <use xlink:href="#DejaVuSans-20" transform="translate(2075.931641 0)"/>
     <use xlink:href="#DejaVuSans-32" transform="translate(2107.71875 0)"/>
     <use xlink:href="#DejaVuSans-2e" transform="translate(2171.341797 0)"/>
     <use xlink:href="#DejaVuSans-38" transform="translate(2203.128906 0)"/>
     <use xlink:href="#DejaVuSans-20" transform="translate(2266.751953 0)"/>
     <use xlink:href="#DejaVuSans-6d" transform="translate(2298.539062 0)"/>
     <use xlink:href="#DejaVuSans-73" transform="translate(2395.951172 0)"/>
     <use xlink:href="#DejaVuSans-29" transform="translate(2448.050781 0)"/>
    </g>
   </g>
   <g id="legend_1">
    <g id="patch_7">
     <path d="M 67.686177 70.474615 
L 117.245553 70.474615 
Q 119.245553 70.474615 119.245553 68.474615 
L 119.245553 25.118365 
Q 119.245553 23.118365 117.245553 23.118365 
L 67.686177 23.118365 
Q 65.686177 23.118365 65.686177 25.118365 
L 65.686177 68.474615 
Q 65.686177 70.474615 67.686177 70.474615 
z
" style="fill: #ffffff; opacity: 0.8; stroke: #cccccc; stroke-linejoin: miter"/>
    </g>
    <g id="line2d_24">
     <path d="M 69.686177 31.216802 
L 79.686177 31.216802 
L 89.686177 31.216802 
" style="fill: none; stroke: #1f77b4; stroke-width: 1.5; stroke-linecap: square"/>
    </g>
    <g id="text_8">
     <!-- I -->
     <g transform="translate(97.686177 34.716802) scale(0.1 -0.1)">
      <defs>
       <path id="DejaVuSans-49" d="M 628 4666 
L 1259 4666 
L 1259 0 
L 628 0 
L 628 4666 
z
" transform="scale(0.015625)"/>
      </defs>
      <use xlink:href="#DejaVuSans-49"/>
     </g>
    </g>
    <g id="line2d_25">
     <path d="M 69.686177 45.894927 
L 79.686177 45.894927 
L 89.686177 45.894927 
" style="fill: none; stroke: #ff7f0e; stroke-width: 1.5; stroke-linecap: square"/>
    </g>
    <g id="text_9">
     <!-- Q -->
     <g transform="translate(97.686177 49.394927) scale(0.1 -0.1)">
      <defs>
       <path id="DejaVuSans-51" d="M 2522 4238 
Q 1834 4238 1429 3725 
Q 1025 3213 1025 2328 
Q 1025 1447 1429 934 
Q 1834 422 2522 422 
Q 3209 422 3611 934 
Q 4013 1447 4013 2328 
Q 4013 3213 3611 3725 
Q 3209 4238 2522 4238 
z
M 3406 84 
L 4238 -825 
L 3475 -825 
L 2784 -78 
Q 2681 -84 2626 -87 
Q 2572 -91 2522 -91 
Q 1538 -91 948 567 
Q 359 1225 359 2328 
Q 359 3434 948 4092 
Q 1538 4750 2522 4750 
Q 3503 4750 4090 4092 
Q 4678 3434 4678 2328 
Q 4678 1516 4351 937 
Q 4025 359 3406 84 
z
" transform="scale(0.015625)"/>
      </defs>
      <use xlink:href="#DejaVuSans-51"/>
     </g>
    </g>
    <g id="line2d_26">
     <path d="M 69.686177 60.616802 
L 79.686177 60.616802 
L 89.686177 60.616802 
" style="fill: none; stroke: #2ca02c; stroke-width: 1.2; stroke-linecap: square"/>
    </g>
    <g id="text_10">
     <!-- |IQ| -->
     <g transform="translate(97.686177 64.116802) scale(0.1 -0.1)">
      <defs>
       <path id="DejaVuSans-7c" d="M 1344 4891 
L 1344 -1509 
L 813 -1509 
L 813 4891 
L 1344 4891 
z
" transform="scale(0.015625)"/>
      </defs>
      <use xlink:href="#DejaVuSans-7c"/>
      <use xlink:href="#DejaVuSans-49" transform="translate(33.691406 0)"/>
      <use xlink:href="#DejaVuSans-51" transform="translate(63.183594 0)"/>
      <use xlink:href="#DejaVuSans-7c" transform="translate(141.894531 0)"/>
     </g>
    </g>
   </g>
  </g>
  <g id="axes_2">
   <g id="patch_8">
    <path d="M 60.686177 398.64351 
L 860.99976 398.64351 
L 860.99976 213.131177 
L 60.686177 213.131177 
z
" style="fill: #ffffff"/>
   </g>
   <g id="matplotlib.axis_3">
    <g id="xtick_6">
     <g id="line2d_27">
      <path d="M 140.717536 398.64351 
L 140.717536 213.131177 
" clip-path="url(#p44f2f6795a)" style="fill: none; stroke: #b0b0b0; stroke-opacity: 0.3; stroke-width: 0.8; stroke-linecap: square"/>
     </g>
     <g id="line2d_28">
      <g>
       <use xlink:href="#mcbdddf4d9f" x="140.717536" y="398.64351" style="stroke: #000000; stroke-width: 0.8"/>
      </g>
     </g>
     <g id="text_11">
      <!-- 1.14 -->
      <g transform="translate(129.584723 413.241947) scale(0.1 -0.1)">
       <use xlink:href="#DejaVuSans-31"/>
       <use xlink:href="#DejaVuSans-2e" transform="translate(63.623047 0)"/>
       <use xlink:href="#DejaVuSans-31" transform="translate(95.410156 0)"/>
       <use xlink:href="#DejaVuSans-34" transform="translate(159.033203 0)"/>
      </g>
     </g>
    </g>
    <g id="xtick_7">
     <g id="line2d_29">
      <path d="M 300.780252 398.64351 
L 300.780252 213.131177 
" clip-path="url(#p44f2f6795a)" style="fill: none; stroke: #b0b0b0; stroke-opacity: 0.3; stroke-width: 0.8; stroke-linecap: square"/>
     </g>
     <g id="line2d_30">
      <g>
       <use xlink:href="#mcbdddf4d9f" x="300.780252" y="398.64351" style="stroke: #000000; stroke-width: 0.8"/>
      </g>
     </g>
     <g id="text_12">
      <!-- 1.16 -->
      <g transform="translate(289.64744 413.241947) scale(0.1 -0.1)">
       <defs>
        <path id="DejaVuSans-36" d="M 2113 2584 
Q 1688 2584 1439 2293 
Q 1191 2003 1191 1497 
Q 1191 994 1439 701 
Q 1688 409 2113 409 
Q 2538 409 2786 701 
Q 3034 994 3034 1497 
Q 3034 2003 2786 2293 
Q 2538 2584 2113 2584 
z
M 3366 4563 
L 3366 3988 
Q 3128 4100 2886 4159 
Q 2644 4219 2406 4219 
Q 1781 4219 1451 3797 
Q 1122 3375 1075 2522 
Q 1259 2794 1537 2939 
Q 1816 3084 2150 3084 
Q 2853 3084 3261 2657 
Q 3669 2231 3669 1497 
Q 3669 778 3244 343 
Q 2819 -91 2113 -91 
Q 1303 -91 875 529 
Q 447 1150 447 2328 
Q 447 3434 972 4092 
Q 1497 4750 2381 4750 
Q 2619 4750 2861 4703 
Q 3103 4656 3366 4563 
z
" transform="scale(0.015625)"/>
       </defs>
       <use xlink:href="#DejaVuSans-31"/>
       <use xlink:href="#DejaVuSans-2e" transform="translate(63.623047 0)"/>
       <use xlink:href="#DejaVuSans-31" transform="translate(95.410156 0)"/>
       <use xlink:href="#DejaVuSans-36" transform="translate(159.033203 0)"/>
      </g>
     </g>
    </g>
    <g id="xtick_8">
     <g id="line2d_31">
      <path d="M 460.842969 398.64351 
L 460.842969 213.131177 
" clip-path="url(#p44f2f6795a)" style="fill: none; stroke: #b0b0b0; stroke-opacity: 0.3; stroke-width: 0.8; stroke-linecap: square"/>
     </g>
     <g id="line2d_32">
      <g>
       <use xlink:href="#mcbdddf4d9f" x="460.842969" y="398.64351" style="stroke: #000000; stroke-width: 0.8"/>
      </g>
     </g>
     <g id="text_13">
      <!-- 1.18 -->
      <g transform="translate(449.710156 413.241947) scale(0.1 -0.1)">
       <use xlink:href="#DejaVuSans-31"/>
       <use xlink:href="#DejaVuSans-2e" transform="translate(63.623047 0)"/>
       <use xlink:href="#DejaVuSans-31" transform="translate(95.410156 0)"/>
       <use xlink:href="#DejaVuSans-38" transform="translate(159.033203 0)"/>
      </g>
     </g>
    </g>
    <g id="xtick_9">
     <g id="line2d_33">
      <path d="M 620.905685 398.64351 
L 620.905685 213.131177 
" clip-path="url(#p44f2f6795a)" style="fill: none; stroke: #b0b0b0; stroke-opacity: 0.3; stroke-width: 0.8; stroke-linecap: square"/>
     </g>
     <g id="line2d_34">
      <g>
       <use xlink:href="#mcbdddf4d9f" x="620.905685" y="398.64351" style="stroke: #000000; stroke-width: 0.8"/>
      </g>
     </g>
     <g id="text_14">
      <!-- 1.20 -->
      <g transform="translate(609.772873 413.241947) scale(0.1 -0.1)">
       <use xlink:href="#DejaVuSans-31"/>
       <use xlink:href="#DejaVuSans-2e" transform="translate(63.623047 0)"/>
       <use xlink:href="#DejaVuSans-32" transform="translate(95.410156 0)"/>
       <use xlink:href="#DejaVuSans-30" transform="translate(159.033203 0)"/>
      </g>
     </g>
    </g>
    <g id="xtick_10">
     <g id="line2d_35">
      <path d="M 780.968402 398.64351 
L 780.968402 213.131177 
" clip-path="url(#p44f2f6795a)" style="fill: none; stroke: #b0b0b0; stroke-opacity: 0.3; stroke-width: 0.8; stroke-linecap: square"/>
     </g>
     <g id="line2d_36">
      <g>
       <use xlink:href="#mcbdddf4d9f" x="780.968402" y="398.64351" style="stroke: #000000; stroke-width: 0.8"/>
      </g>
     </g>
     <g id="text_15">
      <!-- 1.22 -->
      <g transform="translate(769.835589 413.241947) scale(0.1 -0.1)">
       <use xlink:href="#DejaVuSans-31"/>
       <use xlink:href="#DejaVuSans-2e" transform="translate(63.623047 0)"/>
       <use xlink:href="#DejaVuSans-32" transform="translate(95.410156 0)"/>
       <use xlink:href="#DejaVuSans-32" transform="translate(159.033203 0)"/>
      </g>
     </g>
    </g>
    <g id="text_16">
     <!-- Time (ms) -->
     <g transform="translate(435.64375 426.920073) scale(0.1 -0.1)">
      <use xlink:href="#DejaVuSans-54"/>
      <use xlink:href="#DejaVuSans-69" transform="translate(57.958984 0)"/>
      <use xlink:href="#DejaVuSans-6d" transform="translate(85.742188 0)"/>
      <use xlink:href="#DejaVuSans-65" transform="translate(183.154297 0)"/>
      <use xlink:href="#DejaVuSans-20" transform="translate(244.677734 0)"/>
      <use xlink:href="#DejaVuSans-28" transform="translate(276.464844 0)"/>
      <use xlink:href="#DejaVuSans-6d" transform="translate(315.478516 0)"/>
      <use xlink:href="#DejaVuSans-73" transform="translate(412.890625 0)"/>
      <use xlink:href="#DejaVuSans-29" transform="translate(464.990234 0)"/>
     </g>
    </g>
   </g>
   <g id="matplotlib.axis_4">
    <g id="ytick_6">
     <g id="line2d_37">
      <path d="M 60.686177 386.612601 
L 860.99976 386.612601 
" clip-path="url(#p44f2f6795a)" style="fill: none; stroke: #b0b0b0; stroke-opacity: 0.3; stroke-width: 0.8; stroke-linecap: square"/>
     </g>
     <g id="line2d_38">
      <g>
       <use xlink:href="#m1faabf36a3" x="60.686177" y="386.612601" style="stroke: #000000; stroke-width: 0.8"/>
      </g>
     </g>
     <g id="text_17">
      <!-- −3 -->
      <g transform="translate(38.94399 390.41182) scale(0.1 -0.1)">
       <use xlink:href="#DejaVuSans-2212"/>
       <use xlink:href="#DejaVuSans-33" transform="translate(83.789062 0)"/>
      </g>
     </g>
    </g>
    <g id="ytick_7">
     <g id="line2d_39">
      <path d="M 60.686177 359.538002 
L 860.99976 359.538002 
" clip-path="url(#p44f2f6795a)" style="fill: none; stroke: #b0b0b0; stroke-opacity: 0.3; stroke-width: 0.8; stroke-linecap: square"/>
     </g>
     <g id="line2d_40">
      <g>
       <use xlink:href="#m1faabf36a3" x="60.686177" y="359.538002" style="stroke: #000000; stroke-width: 0.8"/>
      </g>
     </g>
     <g id="text_18">
      <!-- −2 -->
      <g transform="translate(38.94399 363.337221) scale(0.1 -0.1)">
       <use xlink:href="#DejaVuSans-2212"/>
       <use xlink:href="#DejaVuSans-32" transform="translate(83.789062 0)"/>
      </g>
     </g>
    </g>
    <g id="ytick_8">
     <g id="line2d_41">
      <path d="M 60.686177 332.463403 
L 860.99976 332.463403 
" clip-path="url(#p44f2f6795a)" style="fill: none; stroke: #b0b0b0; stroke-opacity: 0.3; stroke-width: 0.8; stroke-linecap: square"/>
     </g>
     <g id="line2d_42">
      <g>
       <use xlink:href="#m1faabf36a3" x="60.686177" y="332.463403" style="stroke: #000000; stroke-width: 0.8"/>
      </g>
     </g>
     <g id="text_19">
      <!-- −1 -->
      <g transform="translate(38.94399 336.262622) scale(0.1 -0.1)">
       <use xlink:href="#DejaVuSans-2212"/>
       <use xlink:href="#DejaVuSans-31" transform="translate(83.789062 0)"/>
      </g>
     </g>
    </g>
    <g id="ytick_9">
     <g id="line2d_43">
      <path d="M 60.686177 305.388804 
L 860.99976 305.388804 
" clip-path="url(#p44f2f6795a)" style="fill: none; stroke: #b0b0b0; stroke-opacity: 0.3; stroke-width: 0.8; stroke-linecap: square"/>
     </g>
     <g id="line2d_44">
      <g>
       <use xlink:href="#m1faabf36a3" x="60.686177" y="305.388804" style="stroke: #000000; stroke-width: 0.8"/>
      </g>
     </g>
     <g id="text_20">
      <!-- 0 -->
      <g transform="translate(47.323678 309.188023) scale(0.1 -0.1)">
       <use xlink:href="#DejaVuSans-30"/>
      </g>
     </g>
    </g>
    <g id="ytick_10">
     <g id="line2d_45">
      <path d="M 60.686177 278.314206 
L 860.99976 278.314206 
" clip-path="url(#p44f2f6795a)" style="fill: none; stroke: #b0b0b0; stroke-opacity: 0.3; stroke-width: 0.8; stroke-linecap: square"/>
     </g>
     <g id="line2d_46">
      <g>
       <use xlink:href="#m1faabf36a3" x="60.686177" y="278.314206" style="stroke: #000000; stroke-width: 0.8"/>
      </g>
     </g>
     <g id="text_21">
      <!-- 1 -->
      <g transform="translate(47.323678 282.113424) scale(0.1 -0.1)">
       <use xlink:href="#DejaVuSans-31"/>
      </g>
     </g>
    </g>
    <g id="ytick_11">
     <g id="line2d_47">
      <path d="M 60.686177 251.239607 
L 860.99976 251.239607 
" clip-path="url(#p44f2f6795a)" style="fill: none; stroke: #b0b0b0; stroke-opacity: 0.3; stroke-width: 0.8; stroke-linecap: square"/>
     </g>
     <g id="line2d_48">
      <g>
       <use xlink:href="#m1faabf36a3" x="60.686177" y="251.239607" style="stroke: #000000; stroke-width: 0.8"/>
      </g>
     </g>
     <g id="text_22">
      <!-- 2 -->
      <g transform="translate(47.323678 255.038826) scale(0.1 -0.1)">
       <use xlink:href="#DejaVuSans-32"/>
      </g>
     </g>
    </g>
    <g id="ytick_12">
     <g id="line2d_49">
      <path d="M 60.686177 224.165008 
L 860.99976 224.165008 
" clip-path="url(#p44f2f6795a)" style="fill: none; stroke: #b0b0b0; stroke-opacity: 0.3; stroke-width: 0.8; stroke-linecap: square"/>
     </g>
     <g id="line2d_50">
      <g>
       <use xlink:href="#m1faabf36a3" x="60.686177" y="224.165008" style="stroke: #000000; stroke-width: 0.8"/>
      </g>
     </g>
     <g id="text_23">
      <!-- 3 -->
      <g transform="translate(47.323678 227.964227) scale(0.1 -0.1)">
       <use xlink:href="#DejaVuSans-33"/>
      </g>
     </g>
    </g>
    <g id="text_24">
     <!-- FM -->
     <g transform="translate(32.864303 313.077187) rotate(-90) scale(0.1 -0.1)">
      <defs>
       <path id="DejaVuSans-46" d="M 628 4666 
L 3309 4666 
L 3309 4134 
L 1259 4134 
L 1259 2759 
L 3109 2759 
L 3109 2228 
L 1259 2228 
L 1259 0 
L 628 0 
L 628 4666 
z
" transform="scale(0.015625)"/>
       <path id="DejaVuSans-4d" d="M 628 4666 
L 1569 4666 
L 2759 1491 
L 3956 4666 
L 4897 4666 
L 4897 0 
L 4281 0 
L 4281 4097 
L 3078 897 
L 2444 897 
L 1241 4097 
L 1241 0 
L 628 0 
L 628 4666 
z
" transform="scale(0.015625)"/>
      </defs>
      <use xlink:href="#DejaVuSans-46"/>
      <use xlink:href="#DejaVuSans-4d" transform="translate(57.519531 0)"/>
     </g>
    </g>
   </g>
   <g id="line2d_51">
    <path d="M 64.687745 376.736014 
L 68.689313 334.702854 
L 72.690881 314.319211 
L 76.692449 323.115752 
L 80.694017 332.982108 
L 84.695585 311.98123 
L 88.697153 362.42464 
L 92.698721 327.279839 
L 96.700289 321.774398 
L 100.701857 348.835648 
L 104.703425 350.577489 
L 108.704992 302.631733 
L 112.70656 272.134002 
L 116.708128 300.07211 
L 120.709696 358.838322 
L 124.711264 318.033055 
L 128.712832 226.453698 
L 132.7144 304.313129 
L 136.715968 298.856437 
L 140.717536 323.15966 
L 144.719104 344.837238 
L 148.720672 311.037651 
L 152.722239 387.086637 
L 156.723807 304.480445 
L 160.725375 245.731868 
L 164.726943 280.28639 
L 168.728511 256.827466 
L 172.730079 273.752008 
L 176.731647 285.233956 
L 180.733215 390.211131 
L 184.734783 291.32415 
L 188.736351 377.662803 
L 192.737919 369.352885 
L 196.739487 302.318197 
L 200.741054 221.563556 
L 204.742622 291.605489 
L 208.74419 292.442765 
L 212.745758 308.512163 
L 216.747326 322.275804 
L 220.748894 300.925086 
L 224.750462 288.738475 
L 228.75203 313.279968 
L 232.753598 321.716432 
L 236.755166 297.854401 
L 240.756734 288.853143 
L 244.758301 313.647417 
L 248.759869 320.751938 
L 252.761437 299.851062 
L 256.763005 289.751123 
L 260.764573 312.2124 
L 264.766141 322.106241 
L 268.767709 299.861391 
L 272.769277 288.5646 
L 276.770845 312.827621 
L 280.772413 321.755188 
L 284.773981 299.763919 
L 288.775549 289.189143 
L 292.777116 311.820447 
L 296.778684 321.054165 
L 300.780252 300.121505 
L 304.78182 289.354626 
L 308.783388 312.347079 
L 312.784956 321.834095 
L 316.786524 299.106016 
L 320.788092 289.736973 
L 324.78966 313.053498 
L 328.791228 321.261658 
L 332.792796 299.466365 
L 336.794363 289.973565 
L 340.795931 310.483753 
L 344.797499 326.077592 
L 348.799067 327.230341 
L 352.800635 323.364932 
L 356.802203 299.369668 
L 360.803771 288.227774 
L 364.805339 313.698774 
L 368.806907 321.514129 
L 372.808475 299.815121 
L 376.810043 284.252628 
L 380.81161 286.466774 
L 384.813178 283.253639 
L 388.814746 284.503189 
L 392.816314 289.995487 
L 396.817882 311.86003 
L 400.81945 321.962448 
L 404.821018 299.206432 
L 408.822586 288.822933 
L 412.824154 313.801875 
L 416.825722 323.252329 
L 420.82729 298.139328 
L 424.828858 288.171692 
L 428.830425 312.685093 
L 432.831993 326.928269 
L 436.833561 325.892821 
L 440.835129 323.623264 
L 444.836697 299.198014 
L 448.838265 284.312402 
L 452.839833 285.111723 
L 456.841401 288.2042 
L 460.842969 313.15554 
L 464.844537 325.699375 
L 468.846105 327.169818 
L 472.847672 326.458726 
L 480.850808 327.664227 
L 484.852376 324.967859 
L 488.853944 328.713152 
L 492.855512 327.854781 
L 496.85708 320.591103 
L 500.858648 299.773601 
L 504.860216 290.321185 
L 508.861784 311.35754 
L 512.863352 322.095758 
L 516.86492 300.02881 
L 520.866487 289.679859 
L 524.868055 311.54355 
L 528.869623 321.850568 
L 532.871191 299.882563 
L 536.872759 289.883633 
L 540.874327 311.246202 
L 544.875895 321.873084 
L 548.877463 300.725185 
L 552.879031 289.234664 
L 556.880599 311.235823 
L 560.882167 327.207413 
L 564.883734 327.237829 
L 568.885302 322.131029 
L 572.88687 299.510079 
L 576.888438 284.471946 
L 580.890006 284.697358 
L 584.891574 284.153581 
L 588.893142 284.879494 
L 592.89471 288.990455 
L 596.896278 311.481374 
L 600.897846 322.076445 
L 604.899414 300.421589 
L 608.900982 287.886997 
L 612.902549 313.778352 
L 616.904117 321.559573 
L 620.905685 298.696686 
L 624.907253 285.989873 
L 628.908821 285.012882 
L 632.910389 287.560576 
L 636.911957 313.34488 
L 640.913525 321.460888 
L 644.915093 298.926694 
L 648.916661 290.034372 
L 652.918229 313.291226 
L 656.919796 325.222293 
L 660.921364 327.138989 
L 664.922932 322.395016 
L 668.9245 299.596061 
L 672.926068 289.599248 
L 676.927636 311.723621 
L 680.929204 326.140361 
L 684.930772 327.003845 
L 688.93234 323.215174 
L 692.933908 299.075109 
L 696.935476 289.997139 
L 700.937043 312.16644 
L 704.938611 327.080635 
L 708.940179 325.932972 
L 712.941747 326.8057 
L 716.943315 326.646233 
L 720.944883 328.17485 
L 724.946451 325.816264 
L 728.948019 322.263332 
L 732.949587 300.605895 
L 736.951155 283.802373 
L 740.952723 284.703451 
L 744.954291 284.077927 
L 748.955858 286.005468 
L 752.957426 284.041727 
L 756.958994 284.2423 
L 760.960562 289.989961 
L 764.96213 312.154666 
L 768.963698 320.57778 
L 772.965266 300.426237 
L 776.966834 289.058983 
L 780.968402 311.210312 
L 784.96997 326.92153 
L 788.971538 328.025195 
L 792.973105 321.390243 
L 796.974673 300.428612 
L 800.976241 285.368945 
L 804.977809 285.011798 
L 808.979377 284.841487 
L 812.980945 284.482584 
L 816.982513 289.777873 
L 820.984081 310.704698 
L 824.985649 326.835032 
L 828.987217 326.538149 
L 832.988785 327.622656 
L 836.990353 326.971673 
L 840.99192 325.842343 
L 844.993488 326.263627 
L 848.995056 326.189833 
L 852.996624 329.468243 
L 856.998192 323.549186 
L 860.99976 325.277497 
L 860.99976 325.277497 
" clip-path="url(#p44f2f6795a)" style="fill: none; stroke: #2ca02c; stroke-width: 1.5; stroke-linecap: square"/>
   </g>
   <g id="patch_9">
    <path d="M 60.686177 398.64351 
L 60.686177 213.131178 
" style="fill: none; stroke: #000000; stroke-width: 0.8; stroke-linejoin: miter; stroke-linecap: square"/>
   </g>
   <g id="patch_10">
    <path d="M 860.99976 398.64351 
L 860.99976 213.131178 
" style="fill: none; stroke: #000000; stroke-width: 0.8; stroke-linejoin: miter; stroke-linecap: square"/>
   </g>
   <g id="patch_11">
    <path d="M 60.686177 398.64351 
L 860.99976 398.64351 
" style="fill: none; stroke: #000000; stroke-width: 0.8; stroke-linejoin: miter; stroke-linecap: square"/>
   </g>
   <g id="patch_12">
    <path d="M 60.686177 213.131177 
L 860.99976 213.131177 
" style="fill: none; stroke: #000000; stroke-width: 0.8; stroke-linejoin: miter; stroke-linecap: square"/>
   </g>
   <g id="legend_2">
    <g id="patch_13">
     <path d="M 760.121635 235.809302 
L 853.99976 235.809302 
Q 855.99976 235.809302 855.99976 233.809302 
L 855.99976 220.131177 
Q 855.99976 218.131177 853.99976 218.131177 
L 760.121635 218.131177 
Q 758.121635 218.131177 758.121635 220.131177 
L 758.121635 233.809302 
Q 758.121635 235.809302 760.121635 235.809302 
z
" style="fill: #ffffff; opacity: 0.8; stroke: #cccccc; stroke-linejoin: miter"/>
    </g>
    <g id="line2d_52">
     <path d="M 762.121635 226.229615 
L 772.121635 226.229615 
L 782.121635 226.229615 
" style="fill: none; stroke: #2ca02c; stroke-width: 1.5; stroke-linecap: square"/>
    </g>
    <g id="text_25">
     <!-- FM Decoded -->
     <g transform="translate(790.121635 229.729615) scale(0.1 -0.1)">
      <defs>
       <path id="DejaVuSans-44" d="M 1259 4147 
L 1259 519 
L 2022 519 
Q 2988 519 3436 956 
Q 3884 1394 3884 2338 
Q 3884 3275 3436 3711 
Q 2988 4147 2022 4147 
L 1259 4147 
z
M 628 4666 
L 1925 4666 
Q 3281 4666 3915 4102 
Q 4550 3538 4550 2338 
Q 4550 1131 3912 565 
Q 3275 0 1925 0 
L 628 0 
L 628 4666 
z
" transform="scale(0.015625)"/>
       <path id="DejaVuSans-63" d="M 3122 3366 
L 3122 2828 
Q 2878 2963 2633 3030 
Q 2388 3097 2138 3097 
Q 1578 3097 1268 2742 
Q 959 2388 959 1747 
Q 959 1106 1268 751 
Q 1578 397 2138 397 
Q 2388 397 2633 464 
Q 2878 531 3122 666 
L 3122 134 
Q 2881 22 2623 -34 
Q 2366 -91 2075 -91 
Q 1284 -91 818 406 
Q 353 903 353 1747 
Q 353 2603 823 3093 
Q 1294 3584 2113 3584 
Q 2378 3584 2631 3529 
Q 2884 3475 3122 3366 
z
" transform="scale(0.015625)"/>
      </defs>
      <use xlink:href="#DejaVuSans-46"/>
      <use xlink:href="#DejaVuSans-4d" transform="translate(57.519531 0)"/>
      <use xlink:href="#DejaVuSans-20" transform="translate(143.798828 0)"/>
      <use xlink:href="#DejaVuSans-44" transform="translate(175.585938 0)"/>
      <use xlink:href="#DejaVuSans-65" transform="translate(252.587891 0)"/>
      <use xlink:href="#DejaVuSans-63" transform="translate(314.111328 0)"/>
      <use xlink:href="#DejaVuSans-6f" transform="translate(369.091797 0)"/>
      <use xlink:href="#DejaVuSans-64" transform="translate(430.273438 0)"/>
      <use xlink:href="#DejaVuSans-65" transform="translate(493.75 0)"/>
      <use xlink:href="#DejaVuSans-64" transform="translate(555.273438 0)"/>
     </g>
    </g>
   </g>
  </g>
 </g>
 <defs>
  <clipPath id="pbb3668ff66">
   <rect x="60.686177" y="18.118365" width="800.313583" height="185.512333"/>
  </clipPath>
  <clipPath id="p44f2f6795a">
   <rect x="60.686177" y="213.131177" width="800.313583" height="185.512333"/>
  </clipPath>
 </defs>
</svg>
