<?xml version="1.0" encoding="utf-8" standalone="no"?>
<!DOCTYPE svg PUBLIC "-//W3C//DTD SVG 1.1//EN"
  "http://www.w3.org/Graphics/SVG/1.1/DTD/svg11.dtd">
<svg xmlns:xlink="http://www.w3.org/1999/xlink" width="864pt" height="432pt" viewBox="0 0 864 432" xmlns="http://www.w3.org/2000/svg" version="1.1">
 <metadata>
  <rdf:RDF xmlns:dc="http://purl.org/dc/elements/1.1/" xmlns:cc="http://creativecommons.org/ns#" xmlns:rdf="http://www.w3.org/1999/02/22-rdf-syntax-ns#">
   <cc:Work>
    <dc:type rdf:resource="http://purl.org/dc/dcmitype/StillImage"/>
    <dc:date>2026-03-06T00:11:31.996976</dc:date>
    <dc:format>image/svg+xml</dc:format>
    <dc:creator>
     <cc:Agent>
      <dc:title>Matplotlib v3.10.8, https://matplotlib.org/</dc:title>
     </cc:Agent>
    </dc:creator>
   </cc:Work>
  </rdf:RDF>
 </metadata>
 <defs>
  <style type="text/css">*{stroke-linejoin: round; stroke-linecap: butt}</style>
 </defs>
 <g id="figure_1">
  <g id="patch_1">
   <path d="M 0 432 
L 864 432 
L 864 0 
L 0 0 
z
" style="fill: #ffffff"/>
  </g>
  <g id="axes_1">
   <g id="patch_2">
    <path d="M 60.686177 203.630697 
L 849.866947 203.630697 
L 849.866947 18.118365 
L 60.686177 18.118365 
z
" style="fill: #ffffff"/>
   </g>
   <g id="matplotlib.axis_1">
    <g id="xtick_1">
     <g id="line2d_1">
      <path d="M 60.686178 203.630697 
L 60.686178 18.118365 
" clip-path="url(#p0cb0994ad3)" style="fill: none; stroke: #b0b0b0; stroke-opacity: 0.3; stroke-width: 0.8; stroke-linecap: square"/>
     </g>
     <g id="line2d_2">
      <defs>
       <path id="m87077adb65" d="M 0 0 
L 0 3.5 
" style="stroke: #000000; stroke-width: 0.8"/>
      </defs>
      <g>
       <use xlink:href="#m87077adb65" x="60.686178" y="203.630697" style="stroke: #000000; stroke-width: 0.8"/>
      </g>
     </g>
    </g>
    <g id="xtick_2">
     <g id="line2d_3">
      <path d="M 218.522332 203.630697 
L 218.522332 18.118365 
" clip-path="url(#p0cb0994ad3)" style="fill: none; stroke: #b0b0b0; stroke-opacity: 0.3; stroke-width: 0.8; stroke-linecap: square"/>
     </g>
     <g id="line2d_4">
      <g>
       <use xlink:href="#m87077adb65" x="218.522332" y="203.630697" style="stroke: #000000; stroke-width: 0.8"/>
      </g>
     </g>
    </g>
    <g id="xtick_3">
     <g id="line2d_5">
      <path d="M 376.358486 203.630697 
L 376.358486 18.118365 
" clip-path="url(#p0cb0994ad3)" style="fill: none; stroke: #b0b0b0; stroke-opacity: 0.3; stroke-width: 0.8; stroke-linecap: square"/>
     </g>
     <g id="line2d_6">
      <g>
       <use xlink:href="#m87077adb65" x="376.358486" y="203.630697" style="stroke: #000000; stroke-width: 0.8"/>
      </g>
     </g>
    </g>
    <g id="xtick_4">
     <g id="line2d_7">
      <path d="M 534.19464 203.630697 
L 534.19464 18.118365 
" clip-path="url(#p0cb0994ad3)" style="fill: none; stroke: #b0b0b0; stroke-opacity: 0.3; stroke-width: 0.8; stroke-linecap: square"/>
     </g>
     <g id="line2d_8">
      <g>
       <use xlink:href="#m87077adb65" x="534.19464" y="203.630697" style="stroke: #000000; stroke-width: 0.8"/>
      </g>
     </g>
    </g>
    <g id="xtick_5">
     <g id="line2d_9">
      <path d="M 692.030794 203.630697 
L 692.030794 18.118365 
" clip-path="url(#p0cb0994ad3)" style="fill: none; stroke: #b0b0b0; stroke-opacity: 0.3; stroke-width: 0.8; stroke-linecap: square"/>
     </g>
     <g id="line2d_10">
      <g>
       <use xlink:href="#m87077adb65" x="692.030794" y="203.630697" style="stroke: #000000; stroke-width: 0.8"/>
      </g>
     </g>
    </g>
    <g id="xtick_6">
     <g id="line2d_11">
      <path d="M 849.866948 203.630697 
L 849.866948 18.118365 
" clip-path="url(#p0cb0994ad3)" style="fill: none; stroke: #b0b0b0; stroke-opacity: 0.3; stroke-width: 0.8; stroke-linecap: square"/>
     </g>
     <g id="line2d_12">
      <g>
       <use xlink:href="#m87077adb65" x="849.866948" y="203.630697" style="stroke: #000000; stroke-width: 0.8"/>
      </g>
     </g>
    </g>
   </g>
   <g id="matplotlib.axis_2">
    <g id="ytick_1">
     <g id="line2d_13">
      <path d="M 60.686177 190.662816 
L 849.866947 190.662816 
" clip-path="url(#p0cb0994ad3)" style="fill: none; stroke: #b0b0b0; stroke-opacity: 0.3; stroke-width: 0.8; stroke-linecap: square"/>
     </g>
     <g id="line2d_14">
      <defs>
       <path id="mb4133aaa4a" d="M 0 0 
L -3.5 0 
" style="stroke: #000000; stroke-width: 0.8"/>
      </defs>
      <g>
       <use xlink:href="#mb4133aaa4a" x="60.686177" y="190.662816" style="stroke: #000000; stroke-width: 0.8"/>
      </g>
     </g>
     <g id="text_1">
      <!-- −0.004 -->
      <g transform="translate(16.678365 194.462034) scale(0.1 -0.1)">
       <defs>
        <path id="DejaVuSans-2212" d="M 678 2272 
L 4684 2272 
L 4684 1741 
L 678 1741 
L 678 2272 
z
" transform="scale(0.015625)"/>
        <path id="DejaVuSans-30" d="M 2034 4250 
Q 1547 4250 1301 3770 
Q 1056 3291 1056 2328 
Q 1056 1369 1301 889 
Q 1547 409 2034 409 
Q 2525 409 2770 889 
Q 3016 1369 3016 2328 
Q 3016 3291 2770 3770 
Q 2525 4250 2034 4250 
z
M 2034 4750 
Q 2819 4750 3233 4129 
Q 3647 3509 3647 2328 
Q 3647 1150 3233 529 
Q 2819 -91 2034 -91 
Q 1250 -91 836 529 
Q 422 1150 422 2328 
Q 422 3509 836 4129 
Q 1250 4750 2034 4750 
z
" transform="scale(0.015625)"/>
        <path id="DejaVuSans-2e" d="M 684 794 
L 1344 794 
L 1344 0 
L 684 0 
L 684 794 
z
" transform="scale(0.015625)"/>
        <path id="DejaVuSans-34" d="M 2419 4116 
L 825 1625 
L 2419 1625 
L 2419 4116 
z
M 2253 4666 
L 3047 4666 
L 3047 1625 
L 3713 1625 
L 3713 1100 
L 3047 1100 
L 3047 0 
L 2419 0 
L 2419 1100 
L 313 1100 
L 313 1709 
L 2253 4666 
z
" transform="scale(0.015625)"/>
       </defs>
       <use xlink:href="#DejaVuSans-2212"/>
       <use xlink:href="#DejaVuSans-30" transform="translate(83.789062 0)"/>
       <use xlink:href="#DejaVuSans-2e" transform="translate(147.412109 0)"/>
       <use xlink:href="#DejaVuSans-30" transform="translate(179.199219 0)"/>
       <use xlink:href="#DejaVuSans-30" transform="translate(242.822266 0)"/>
       <use xlink:href="#DejaVuSans-34" transform="translate(306.445312 0)"/>
      </g>
     </g>
    </g>
    <g id="ytick_2">
     <g id="line2d_15">
      <path d="M 60.686177 152.124167 
L 849.866947 152.124167 
" clip-path="url(#p0cb0994ad3)" style="fill: none; stroke: #b0b0b0; stroke-opacity: 0.3; stroke-width: 0.8; stroke-linecap: square"/>
     </g>
     <g id="line2d_16">
      <g>
       <use xlink:href="#mb4133aaa4a" x="60.686177" y="152.124167" style="stroke: #000000; stroke-width: 0.8"/>
      </g>
     </g>
     <g id="text_2">
      <!-- −0.002 -->
      <g transform="translate(16.678365 155.923386) scale(0.1 -0.1)">
       <defs>
        <path id="DejaVuSans-32" d="M 1228 531 
L 3431 531 
L 3431 0 
L 469 0 
L 469 531 
Q 828 903 1448 1529 
Q 2069 2156 2228 2338 
Q 2531 2678 2651 2914 
Q 2772 3150 2772 3378 
Q 2772 3750 2511 3984 
Q 2250 4219 1831 4219 
Q 1534 4219 1204 4116 
Q 875 4013 500 3803 
L 500 4441 
Q 881 4594 1212 4672 
Q 1544 4750 1819 4750 
Q 2544 4750 2975 4387 
Q 3406 4025 3406 3419 
Q 3406 3131 3298 2873 
Q 3191 2616 2906 2266 
Q 2828 2175 2409 1742 
Q 1991 1309 1228 531 
z
" transform="scale(0.015625)"/>
       </defs>
       <use xlink:href="#DejaVuSans-2212"/>
       <use xlink:href="#DejaVuSans-30" transform="translate(83.789062 0)"/>
       <use xlink:href="#DejaVuSans-2e" transform="translate(147.412109 0)"/>
       <use xlink:href="#DejaVuSans-30" transform="translate(179.199219 0)"/>
       <use xlink:href="#DejaVuSans-30" transform="translate(242.822266 0)"/>
       <use xlink:href="#DejaVuSans-32" transform="translate(306.445312 0)"/>
      </g>
     </g>
    </g>
    <g id="ytick_3">
     <g id="line2d_17">
      <path d="M 60.686177 113.585519 
L 849.866947 113.585519 
" clip-path="url(#p0cb0994ad3)" style="fill: none; stroke: #b0b0b0; stroke-opacity: 0.3; stroke-width: 0.8; stroke-linecap: square"/>
     </g>
     <g id="line2d_18">
      <g>
       <use xlink:href="#mb4133aaa4a" x="60.686177" y="113.585519" style="stroke: #000000; stroke-width: 0.8"/>
      </g>
     </g>
     <g id="text_3">
      <!-- 0.000 -->
      <g transform="translate(25.058052 117.384738) scale(0.1 -0.1)">
       <use xlink:href="#DejaVuSans-30"/>
       <use xlink:href="#DejaVuSans-2e" transform="translate(63.623047 0)"/>
       <use xlink:href="#DejaVuSans-30" transform="translate(95.410156 0)"/>
       <use xlink:href="#DejaVuSans-30" transform="translate(159.033203 0)"/>
       <use xlink:href="#DejaVuSans-30" transform="translate(222.65625 0)"/>
      </g>
     </g>
    </g>
    <g id="ytick_4">
     <g id="line2d_19">
      <path d="M 60.686177 75.046871 
L 849.866947 75.046871 
" clip-path="url(#p0cb0994ad3)" style="fill: none; stroke: #b0b0b0; stroke-opacity: 0.3; stroke-width: 0.8; stroke-linecap: square"/>
     </g>
     <g id="line2d_20">
      <g>
       <use xlink:href="#mb4133aaa4a" x="60.686177" y="75.046871" style="stroke: #000000; stroke-width: 0.8"/>
      </g>
     </g>
     <g id="text_4">
      <!-- 0.002 -->
      <g transform="translate(25.058052 78.84609) scale(0.1 -0.1)">
       <use xlink:href="#DejaVuSans-30"/>
       <use xlink:href="#DejaVuSans-2e" transform="translate(63.623047 0)"/>
       <use xlink:href="#DejaVuSans-30" transform="translate(95.410156 0)"/>
       <use xlink:href="#DejaVuSans-30" transform="translate(159.033203 0)"/>
       <use xlink:href="#DejaVuSans-32" transform="translate(222.65625 0)"/>
      </g>
     </g>
    </g>
    <g id="ytick_5">
     <g id="line2d_21">
      <path d="M 60.686177 36.508223 
L 849.866947 36.508223 
" clip-path="url(#p0cb0994ad3)" style="fill: none; stroke: #b0b0b0; stroke-opacity: 0.3; stroke-width: 0.8; stroke-linecap: square"/>
     </g>
     <g id="line2d_22">
      <g>
       <use xlink:href="#mb4133aaa4a" x="60.686177" y="36.508223" style="stroke: #000000; stroke-width: 0.8"/>
      </g>
     </g>
     <g id="text_5">
      <!-- 0.004 -->
      <g transform="translate(25.058052 40.307442) scale(0.1 -0.1)">
       <use xlink:href="#DejaVuSans-30"/>
       <use xlink:href="#DejaVuSans-2e" transform="translate(63.623047 0)"/>
       <use xlink:href="#DejaVuSans-30" transform="translate(95.410156 0)"/>
       <use xlink:href="#DejaVuSans-30" transform="translate(159.033203 0)"/>
       <use xlink:href="#DejaVuSans-34" transform="translate(222.65625 0)"/>
      </g>
     </g>
    </g>
    <g id="text_6">
     <!-- Amplitude -->
     <g transform="translate(10.598677 136.497187) rotate(-90) scale(0.1 -0.1)">
      <defs>
       <path id="DejaVuSans-41" d="M 2188 4044 
L 1331 1722 
L 3047 1722 
L 2188 4044 
z
M 1831 4666 
L 2547 4666 
L 4325 0 
L 3669 0 
L 3244 1197 
L 1141 1197 
L 716 0 
L 50 0 
L 1831 4666 
z
" transform="scale(0.015625)"/>
       <path id="DejaVuSans-6d" d="M 3328 2828 
Q 3544 3216 3844 3400 
Q 4144 3584 4550 3584 
Q 5097 3584 5394 3201 
Q 5691 2819 5691 2113 
L 5691 0 
L 5113 0 
L 5113 2094 
Q 5113 2597 4934 2840 
Q 4756 3084 4391 3084 
Q 3944 3084 3684 2787 
Q 3425 2491 3425 1978 
L 3425 0 
L 2847 0 
L 2847 2094 
Q 2847 2600 2669 2842 
Q 2491 3084 2119 3084 
Q 1678 3084 1418 2786 
Q 1159 2488 1159 1978 
L 1159 0 
L 581 0 
L 581 3500 
L 1159 3500 
L 1159 2956 
Q 1356 3278 1631 3431 
Q 1906 3584 2284 3584 
Q 2666 3584 2933 3390 
Q 3200 3197 3328 2828 
z
" transform="scale(0.015625)"/>
       <path id="DejaVuSans-70" d="M 1159 525 
L 1159 -1331 
L 581 -1331 
L 581 3500 
L 1159 3500 
L 1159 2969 
Q 1341 3281 1617 3432 
Q 1894 3584 2278 3584 
Q 2916 3584 3314 3078 
Q 3713 2572 3713 1747 
Q 3713 922 3314 415 
Q 2916 -91 2278 -91 
Q 1894 -91 1617 61 
Q 1341 213 1159 525 
z
M 3116 1747 
Q 3116 2381 2855 2742 
Q 2594 3103 2138 3103 
Q 1681 3103 1420 2742 
Q 1159 2381 1159 1747 
Q 1159 1113 1420 752 
Q 1681 391 2138 391 
Q 2594 391 2855 752 
Q 3116 1113 3116 1747 
z
" transform="scale(0.015625)"/>
       <path id="DejaVuSans-6c" d="M 603 4863 
L 1178 4863 
L 1178 0 
L 603 0 
L 603 4863 
z
" transform="scale(0.015625)"/>
       <path id="DejaVuSans-69" d="M 603 3500 
L 1178 3500 
L 1178 0 
L 603 0 
L 603 3500 
z
M 603 4863 
L 1178 4863 
L 1178 4134 
L 603 4134 
L 603 4863 
z
" transform="scale(0.015625)"/>
       <path id="DejaVuSans-74" d="M 1172 4494 
L 1172 3500 
L 2356 3500 
L 2356 3053 
L 1172 3053 
L 1172 1153 
Q 1172 725 1289 603 
Q 1406 481 1766 481 
L 2356 481 
L 2356 0 
L 1766 0 
Q 1100 0 847 248 
Q 594 497 594 1153 
L 594 3053 
L 172 3053 
L 172 3500 
L 594 3500 
L 594 4494 
L 1172 4494 
z
" transform="scale(0.015625)"/>
       <path id="DejaVuSans-75" d="M 544 1381 
L 544 3500 
L 1119 3500 
L 1119 1403 
Q 1119 906 1312 657 
Q 1506 409 1894 409 
Q 2359 409 2629 706 
Q 2900 1003 2900 1516 
L 2900 3500 
L 3475 3500 
L 3475 0 
L 2900 0 
L 2900 538 
Q 2691 219 2414 64 
Q 2138 -91 1772 -91 
Q 1169 -91 856 284 
Q 544 659 544 1381 
z
M 1991 3584 
L 1991 3584 
z
" transform="scale(0.015625)"/>
       <path id="DejaVuSans-64" d="M 2906 2969 
L 2906 4863 
L 3481 4863 
L 3481 0 
L 2906 0 
L 2906 525 
Q 2725 213 2448 61 
Q 2172 -91 1784 -91 
Q 1150 -91 751 415 
Q 353 922 353 1747 
Q 353 2572 751 3078 
Q 1150 3584 1784 3584 
Q 2172 3584 2448 3432 
Q 2725 3281 2906 2969 
z
M 947 1747 
Q 947 1113 1208 752 
Q 1469 391 1925 391 
Q 2381 391 2643 752 
Q 2906 1113 2906 1747 
Q 2906 2381 2643 2742 
Q 2381 3103 1925 3103 
Q 1469 3103 1208 2742 
Q 947 2381 947 1747 
z
" transform="scale(0.015625)"/>
       <path id="DejaVuSans-65" d="M 3597 1894 
L 3597 1613 
L 953 1613 
Q 991 1019 1311 708 
Q 1631 397 2203 397 
Q 2534 397 2845 478 
Q 3156 559 3463 722 
L 3463 178 
Q 3153 47 2828 -22 
Q 2503 -91 2169 -91 
Q 1331 -91 842 396 
Q 353 884 353 1716 
Q 353 2575 817 3079 
Q 1281 3584 2069 3584 
Q 2775 3584 3186 3129 
Q 3597 2675 3597 1894 
z
M 3022 2063 
Q 3016 2534 2758 2815 
Q 2500 3097 2075 3097 
Q 1594 3097 1305 2825 
Q 1016 2553 972 2059 
L 3022 2063 
z
" transform="scale(0.015625)"/>
      </defs>
      <use xlink:href="#DejaVuSans-41"/>
      <use xlink:href="#DejaVuSans-6d" transform="translate(68.408203 0)"/>
      <use xlink:href="#DejaVuSans-70" transform="translate(165.820312 0)"/>
      <use xlink:href="#DejaVuSans-6c" transform="translate(229.296875 0)"/>
      <use xlink:href="#DejaVuSans-69" transform="translate(257.080078 0)"/>
      <use xlink:href="#DejaVuSans-74" transform="translate(284.863281 0)"/>
      <use xlink:href="#DejaVuSans-75" transform="translate(324.072266 0)"/>
      <use xlink:href="#DejaVuSans-64" transform="translate(387.451172 0)"/>
      <use xlink:href="#DejaVuSans-65" transform="translate(450.927734 0)"/>
     </g>
    </g>
   </g>
   <g id="line2d_23">
    <path d="M 60.686177 113.833516 
L 64.632081 112.407656 
L 68.577985 112.024913 
L 72.523889 113.614497 
L 76.469793 113.736464 
L 80.415697 112.77333 
L 84.361601 112.700506 
L 92.253408 115.150639 
L 96.199312 113.300282 
L 100.145216 112.535269 
L 104.09112 114.166693 
L 108.037024 112.011349 
L 111.982928 115.177668 
L 115.928831 117.09678 
L 119.874735 88.451458 
L 123.820639 54.283245 
L 127.766543 52.080128 
L 131.712447 48.138985 
L 135.658351 29.222107 
L 139.604255 35.8111 
L 143.550158 52.754075 
L 147.496062 40.888163 
L 151.441966 27.410086 
L 155.38787 40.626027 
L 159.333774 51.287989 
L 163.279678 38.5322 
L 167.225581 28.421861 
L 171.171485 38.786494 
L 175.117389 47.958327 
L 179.063293 39.44119 
L 183.009197 31.229847 
L 186.955101 38.945554 
L 190.901005 46.056576 
L 194.846908 37.680476 
L 198.792812 30.982354 
L 202.738716 38.722683 
L 206.68462 42.891636 
L 210.630524 34.774891 
L 214.576428 31.460686 
L 218.522332 37.77646 
L 222.468235 40.447303 
L 226.414139 37.317977 
L 230.360043 36.82571 
L 234.305947 39.331607 
L 238.251851 40.069935 
L 246.143658 37.644548 
L 250.089562 38.683731 
L 254.035466 40.013266 
L 257.98137 36.383719 
L 261.927274 48.119249 
L 265.873178 102.561059 
L 269.819082 153.073797 
L 273.764985 130.391779 
L 277.710889 85.856064 
L 281.656793 109.749715 
L 285.602697 155.760581 
L 289.548601 137.385427 
L 293.494505 80.744435 
L 297.440409 44.292484 
L 301.386312 43.532998 
L 305.332216 84.77347 
L 309.27812 129.059839 
L 313.224024 108.407889 
L 317.169928 61.380341 
L 321.115832 80.62878 
L 325.061735 125.524733 
L 329.007639 101.546997 
L 332.953543 54.893847 
L 336.899447 75.656229 
L 340.845351 118.904867 
L 344.791255 98.078192 
L 348.737159 43.764801 
L 352.683062 35.717888 
L 356.628966 59.740045 
L 360.57487 52.007599 
L 364.520774 35.54252 
L 368.466678 69.354457 
L 372.412582 111.497262 
L 376.358486 92.001143 
L 380.304389 44.101566 
L 384.250293 35.994938 
L 388.196197 75.493194 
L 392.142101 136.283807 
L 396.088005 184.550386 
L 400.033909 188.107158 
L 403.979812 145.559332 
L 407.925716 84.614682 
L 411.87162 47.237541 
L 415.817524 64.425559 
L 419.763428 98.444036 
L 423.709332 82.655609 
L 427.655236 45.033589 
L 431.601139 58.871174 
L 435.547043 93.996292 
L 439.492947 78.355655 
L 443.438851 43.926028 
L 447.384755 58.727328 
L 451.330659 91.153157 
L 455.276563 75.37729 
L 459.222466 41.278057 
L 463.16837 54.320815 
L 467.114274 85.924111 
L 471.060178 69.933793 
L 475.006082 35.443997 
L 478.951986 51.071578 
L 482.897889 87.692461 
L 486.843793 76.500054 
L 490.789697 43.29446 
L 494.735601 50.811479 
L 498.681505 94.918872 
L 502.627409 146.611761 
L 506.573313 182.339354 
L 510.519216 169.568518 
L 514.46512 132.81707 
L 518.411024 142.90266 
L 522.356928 179.659041 
L 526.302832 165.107665 
L 530.248736 126.365964 
L 534.194639 141.208629 
L 538.140543 181.656287 
L 542.086447 178.827595 
L 546.032351 157.264326 
L 549.978255 170.410565 
L 553.924159 192.103897 
L 557.870063 178.551057 
L 561.815966 160.328859 
L 565.76187 178.306086 
L 569.707774 193.523351 
L 573.653678 157.293273 
L 577.599582 114.273477 
L 581.545486 129.427504 
L 585.49139 167.94781 
L 589.437293 155.403824 
L 593.383197 97.364798 
L 597.329101 48.642409 
L 601.275005 33.408199 
L 605.220909 44.000032 
L 609.166813 53.594511 
L 613.112716 41.53616 
L 617.05862 37.138867 
L 621.004524 76.40407 
L 624.950428 138.574481 
L 628.896332 184.234977 
L 632.842236 189.26849 
L 636.78814 144.73904 
L 640.734043 98.018173 
L 644.679947 113.99498 
L 648.625851 167.134531 
L 652.571755 187.865282 
L 656.517659 165.607693 
L 660.463563 118.157082 
L 664.409467 64.261663 
L 668.35537 38.756444 
L 672.301274 43.528197 
L 676.247178 42.720369 
L 680.193082 34.837155 
L 684.138986 40.663256 
L 688.08489 46.068932 
L 692.030794 36.811317 
L 695.976697 46.825475 
L 699.922601 99.688967 
L 703.868505 144.242931 
L 707.814409 127.467605 
L 711.760313 75.71947 
L 715.706217 40.865758 
L 719.65212 46.515329 
L 723.598024 92.012387 
L 727.543928 132.986998 
L 731.489832 116.384195 
L 735.435736 61.172298 
L 739.38164 32.082109 
L 743.327544 57.339495 
L 747.273447 113.676971 
L 751.219351 167.036564 
L 755.165255 195.198319 
L 759.111159 172.873674 
L 763.057063 109.554457 
L 767.002967 78.000489 
L 770.948871 101.675815 
L 774.894774 118.743594 
L 778.840678 111.80409 
L 782.786582 111.910837 
L 786.732486 114.290777 
L 790.67839 110.727446 
L 794.624294 112.122304 
L 798.570197 114.695748 
L 802.516101 113.506652 
L 806.462005 113.838339 
L 810.407909 114.816101 
L 814.353813 113.933768 
L 818.299717 113.215489 
L 826.191524 114.613316 
L 830.137428 113.568305 
L 834.083332 112.348597 
L 841.97514 113.159401 
L 845.921044 113.082896 
L 849.866947 113.475333 
L 849.866947 113.475333 
" clip-path="url(#p0cb0994ad3)" style="fill: none; stroke: #1f77b4; stroke-width: 1.5; stroke-linecap: square"/>
   </g>
   <g id="line2d_24">
    <path d="M 60.686177 115.513074 
L 64.632081 114.371932 
L 68.577985 113.639288 
L 72.523889 113.293159 
L 76.469793 113.783107 
L 80.415697 115.065339 
L 84.361601 114.766595 
L 88.307504 113.672263 
L 96.199312 113.178139 
L 100.145216 114.112876 
L 104.09112 113.985249 
L 108.037024 112.064312 
L 111.982928 114.96565 
L 115.928831 114.539954 
L 119.874735 108.103994 
L 123.820639 129.664323 
L 127.766543 169.366712 
L 131.712447 156.023574 
L 135.658351 109.17607 
L 139.604255 123.407125 
L 143.550158 169.575486 
L 147.496062 148.984206 
L 151.441966 101.38524 
L 155.38787 122.677838 
L 159.333774 168.776761 
L 163.279678 147.09805 
L 167.225581 99.565971 
L 171.171485 117.852947 
L 175.117389 164.317679 
L 179.063293 145.027194 
L 183.009197 95.344927 
L 186.955101 112.40946 
L 190.901005 160.017173 
L 194.846908 139.896714 
L 198.792812 90.733843 
L 202.738716 109.545258 
L 206.68462 156.511319 
L 210.630524 136.186516 
L 214.576428 88.35413 
L 218.522332 107.985576 
L 222.468235 154.690154 
L 226.414139 132.719417 
L 230.360043 83.411062 
L 234.305947 102.510296 
L 238.251851 148.282395 
L 242.197755 126.439066 
L 246.143658 78.55879 
L 250.089562 96.5809 
L 254.035466 142.032956 
L 257.98137 125.468696 
L 261.927274 66.706235 
L 265.873178 36.928855 
L 269.819082 41.728379 
L 273.764985 45.520477 
L 277.710889 37.746607 
L 281.656793 35.628356 
L 285.602697 43.521131 
L 289.548601 43.279238 
L 293.494505 44.918529 
L 297.440409 82.756116 
L 301.386312 142.372054 
L 305.332216 181.31539 
L 309.27812 195.034032 
L 313.224024 191.305805 
L 317.169928 177.394279 
L 321.115832 179.513732 
L 325.061735 194.543273 
L 329.007639 188.586194 
L 332.953543 171.894803 
L 336.899447 176.611149 
L 340.845351 192.741347 
L 344.791255 191.906636 
L 348.737159 158.742764 
L 352.683062 98.865076 
L 356.628966 55.090643 
L 360.57487 70.374859 
L 364.520774 126.621207 
L 368.466678 172.235471 
L 372.412582 190.295645 
L 376.358486 187.411151 
L 380.304389 153.467662 
L 384.250293 91.252932 
L 388.196197 42.778083 
L 392.142101 40.465491 
L 396.088005 78.454901 
L 400.033909 137.747435 
L 403.979812 185.159189 
L 407.925716 184.570212 
L 411.87162 159.020679 
L 415.817524 166.426213 
L 419.763428 192.948219 
L 423.709332 181.835445 
L 427.655236 152.973183 
L 431.601139 163.521489 
L 435.547043 190.758471 
L 439.492947 177.970932 
L 443.438851 148.276166 
L 447.384755 159.273784 
L 451.330659 188.60715 
L 455.276563 177.998178 
L 459.222466 148.05576 
L 463.16837 155.930336 
L 467.114274 186.366221 
L 471.060178 180.258122 
L 475.006082 126.801143 
L 478.951986 67.530753 
L 482.897889 40.866354 
L 486.843793 54.00786 
L 490.789697 95.118459 
L 494.735601 147.850963 
L 498.681505 183.352794 
L 502.627409 174.489968 
L 506.573313 149.030432 
L 510.519216 161.885473 
L 514.46512 190.662182 
L 518.411024 176.602189 
L 522.356928 150.808991 
L 526.302832 166.94128 
L 530.248736 190.595055 
L 534.194639 179.913945 
L 538.140543 144.473095 
L 542.086447 91.530695 
L 546.032351 49.32755 
L 549.978255 66.819483 
L 553.924159 107.148597 
L 557.870063 92.840357 
L 561.815966 54.449277 
L 565.76187 68.584423 
L 569.707774 124.397134 
L 573.653678 171.717354 
L 577.599582 191.778564 
L 581.545486 181.373575 
L 585.49139 165.137877 
L 589.437293 179.505271 
L 593.383197 193.20472 
L 597.329101 153.582763 
L 601.275005 106.864879 
L 605.220909 125.29335 
L 609.166813 166.151195 
L 613.112716 148.450713 
L 617.05862 86.822683 
L 621.004524 42.201004 
L 624.950428 38.664332 
L 628.896332 77.604769 
L 632.842236 140.035454 
L 636.78814 182.777617 
L 640.734043 191.887936 
L 644.679947 187.213956 
L 648.625851 164.917958 
L 656.517659 62.291709 
L 660.463563 40.117846 
L 664.409467 56.178697 
L 668.35537 108.208956 
L 672.301274 151.749018 
L 676.247178 131.007179 
L 680.193082 87.941266 
L 684.138986 104.604077 
L 688.08489 148.353219 
L 692.030794 133.272844 
L 695.976697 72.852052 
L 699.922601 38.082196 
L 703.868505 39.333267 
L 707.814409 42.933343 
L 711.760313 51.509837 
L 715.706217 92.26638 
L 719.65212 149.160493 
L 723.598024 181.01925 
L 727.543928 187.885983 
L 731.489832 188.721955 
L 735.435736 169.617318 
L 739.38164 116.616726 
L 743.327544 59.316727 
L 747.273447 37.08179 
L 751.219351 57.568203 
L 755.165255 110.734697 
L 759.111159 172.444241 
L 763.057063 191.972129 
L 770.948871 114.208261 
L 774.894774 111.865839 
L 778.840678 116.537079 
L 782.786582 112.763298 
L 786.732486 112.478827 
L 790.67839 113.229377 
L 794.624294 112.515205 
L 798.570197 113.352526 
L 806.462005 112.794876 
L 810.407909 113.054242 
L 814.353813 112.174532 
L 818.299717 114.025004 
L 822.245621 116.411173 
L 826.191524 114.665449 
L 830.137428 113.829177 
L 834.083332 115.297116 
L 841.97514 115.208773 
L 845.921044 114.764973 
L 849.866947 112.901759 
L 849.866947 112.901759 
" clip-path="url(#p0cb0994ad3)" style="fill: none; stroke: #ff7f0e; stroke-width: 1.5; stroke-linecap: square"/>
   </g>
   <g id="line2d_25">
    <path d="M 60.686177 111.642076 
L 64.632081 112.169254 
L 68.577985 112.023987 
L 72.523889 113.291726 
L 76.469793 113.336873 
L 80.415697 111.897468 
L 84.361601 112.109651 
L 88.307504 113.256504 
L 92.253408 112.006392 
L 96.199312 113.088207 
L 100.145216 112.410304 
L 104.09112 112.880149 
L 108.037024 111.396437 
L 111.982928 111.47846 
L 115.928831 109.946852 
L 119.874735 87.860664 
L 123.820639 52.142149 
L 127.766543 30.552665 
L 131.712447 35.584002 
L 135.658351 29.106948 
L 139.604255 35.1934 
L 143.550158 30.909395 
L 147.496062 32.727796 
L 151.441966 26.550744 
L 155.38787 40.061658 
L 159.333774 30.356588 
L 163.279678 31.390077 
L 167.225581 27.275635 
L 171.171485 38.664861 
L 175.117389 30.635656 
L 179.063293 33.050051 
L 183.009197 29.234014 
L 186.955101 38.936289 
L 190.901005 31.633972 
L 194.846908 33.249628 
L 198.792812 27.879732 
L 202.738716 38.613733 
L 206.68462 30.879721 
L 210.630524 31.598206 
L 214.576428 27.672124 
L 218.522332 37.569911 
L 222.468235 29.68802 
L 226.414139 34.954458 
L 230.360043 31.10785 
L 234.305947 38.510198 
L 238.251851 32.29336 
L 242.197755 37.77244 
L 246.143658 29.955962 
L 250.089562 36.777741 
L 254.035466 34.705018 
L 257.98137 35.474523 
L 261.927274 33.065341 
L 265.873178 36.140166 
L 269.819082 31.593001 
L 273.764985 43.47632 
L 277.710889 32.836127 
L 281.656793 35.53405 
L 285.602697 31.806827 
L 289.548601 39.360132 
L 293.494505 37.469207 
L 297.440409 37.743736 
L 301.386312 37.848998 
L 305.332216 39.982058 
L 309.27812 30.680063 
L 313.224024 35.692961 
L 317.169928 31.141974 
L 321.115832 39.878829 
L 325.061735 31.752137 
L 329.007639 37.624826 
L 332.953543 30.85291 
L 336.899447 40.026964 
L 340.845351 34.251156 
L 344.791255 33.743968 
L 348.737159 30.434401 
L 352.683062 34.338697 
L 356.628966 34.080894 
L 360.57487 38.359183 
L 364.520774 34.461321 
L 368.466678 40.126662 
L 372.412582 36.846976 
L 376.358486 36.669275 
L 380.304389 33.469323 
L 384.250293 32.844929 
L 388.196197 33.182053 
L 392.142101 37.023448 
L 396.088005 34.401104 
L 400.033909 35.24477 
L 403.979812 35.194737 
L 407.925716 36.916517 
L 411.87162 33.171537 
L 415.817524 41.413222 
L 419.763428 32.791316 
L 423.709332 38.654134 
L 427.655236 34.5238 
L 431.601139 39.50947 
L 435.547043 33.965152 
L 439.492947 40.191892 
L 443.438851 35.765948 
L 447.384755 42.193373 
L 451.330659 35.2819 
L 455.276563 38.693202 
L 459.222466 33.482046 
L 463.16837 40.747418 
L 467.114274 35.725497 
L 471.060178 33.894184 
L 475.006082 34.334336 
L 478.951986 35.938668 
L 482.897889 36.394029 
L 486.843793 43.408395 
L 490.789697 40.909079 
L 494.735601 42.068379 
L 498.681505 41.364216 
L 502.627409 44.302879 
L 506.573313 36.232874 
L 510.519216 39.646482 
L 514.46512 34.145831 
L 518.411024 44.083037 
L 522.356928 37.748213 
L 526.302832 39.414311 
L 530.248736 35.522672 
L 534.194639 41.735006 
L 538.140543 38.834791 
L 542.086447 44.716484 
L 546.032351 35.887872 
L 549.978255 39.991031 
L 553.924159 34.803739 
L 557.870063 45.388134 
L 561.815966 38.206248 
L 565.76187 34.757537 
L 569.707774 32.919862 
L 573.653678 40.855345 
L 577.599582 35.38945 
L 581.545486 43.970947 
L 585.49139 38.666198 
L 593.383197 32.330795 
L 597.329101 37.313723 
L 601.275005 33.127022 
L 605.220909 43.021982 
L 609.166813 33.82293 
L 613.112716 33.543709 
L 617.05862 32.589594 
L 621.004524 33.0982 
L 624.950428 34.606836 
L 628.896332 34.301477 
L 632.842236 33.413762 
L 636.78814 37.703447 
L 640.734043 33.750626 
L 644.679947 39.955952 
L 648.625851 39.406572 
L 652.571755 39.303526 
L 656.517659 40.528271 
L 660.463563 39.975746 
L 664.409467 37.899417 
L 668.35537 38.563534 
L 672.301274 33.807819 
L 676.247178 40.610288 
L 680.193082 30.76685 
L 684.138986 40.112238 
L 688.08489 37.642888 
L 692.030794 34.327274 
L 695.976697 35.379903 
L 699.922601 36.814 
L 703.868505 33.253244 
L 707.814409 41.582447 
L 711.760313 40.872191 
L 715.706217 37.80512 
L 719.65212 37.664576 
L 723.598024 42.785042 
L 727.543928 36.793748 
L 731.489832 38.396982 
L 735.435736 36.860633 
L 739.38164 32.025768 
L 743.327544 35.427236 
L 747.273447 37.081736 
L 751.219351 36.158435 
L 755.165255 31.922947 
L 759.111159 30.042515 
L 763.057063 35.095325 
L 767.002967 60.335739 
L 770.948871 101.659545 
L 774.894774 108.148329 
L 778.840678 110.138028 
L 782.786582 111.71988 
L 786.732486 112.273209 
L 790.67839 110.705342 
L 794.624294 111.772629 
L 802.516101 113.053857 
L 806.462005 112.755438 
L 810.407909 112.245151 
L 814.353813 112.132191 
L 818.299717 113.011003 
L 822.245621 110.739059 
L 830.137428 113.341254 
L 834.083332 111.473756 
L 841.97514 111.907267 
L 845.921044 112.303435 
L 849.866947 112.892938 
L 849.866947 112.892938 
" clip-path="url(#p0cb0994ad3)" style="fill: none; stroke: #2ca02c; stroke-width: 1.2; stroke-linecap: square"/>
   </g>
   <g id="patch_3">
    <path d="M 60.686177 203.630698 
L 60.686177 18.118365 
" style="fill: none; stroke: #000000; stroke-width: 0.8; stroke-linejoin: miter; stroke-linecap: square"/>
   </g>
   <g id="patch_4">
    <path d="M 849.866947 203.630698 
L 849.866947 18.118365 
" style="fill: none; stroke: #000000; stroke-width: 0.8; stroke-linejoin: miter; stroke-linecap: square"/>
   </g>
   <g id="patch_5">
    <path d="M 60.686177 203.630697 
L 849.866947 203.630697 
" style="fill: none; stroke: #000000; stroke-width: 0.8; stroke-linejoin: miter; stroke-linecap: square"/>
   </g>
   <g id="patch_6">
    <path d="M 60.686177 18.118365 
L 849.866947 18.118365 
" style="fill: none; stroke: #000000; stroke-width: 0.8; stroke-linejoin: miter; stroke-linecap: square"/>
   </g>
   <g id="text_7">
    <!-- Het Post - Channel 33 Time Plot (1.14 ms to 1.24 ms) -->
    <g transform="translate(295.410312 12.118365) scale(0.12 -0.12)">
     <defs>
      <path id="DejaVuSans-48" d="M 628 4666 
L 1259 4666 
L 1259 2753 
L 3553 2753 
L 3553 4666 
L 4184 4666 
L 4184 0 
L 3553 0 
L 3553 2222 
L 1259 2222 
L 1259 0 
L 628 0 
L 628 4666 
z
" transform="scale(0.015625)"/>
      <path id="DejaVuSans-20" transform="scale(0.015625)"/>
      <path id="DejaVuSans-50" d="M 1259 4147 
L 1259 2394 
L 2053 2394 
Q 2494 2394 2734 2622 
Q 2975 2850 2975 3272 
Q 2975 3691 2734 3919 
Q 2494 4147 2053 4147 
L 1259 4147 
z
M 628 4666 
L 2053 4666 
Q 2838 4666 3239 4311 
Q 3641 3956 3641 3272 
Q 3641 2581 3239 2228 
Q 2838 1875 2053 1875 
L 1259 1875 
L 1259 0 
L 628 0 
L 628 4666 
z
" transform="scale(0.015625)"/>
      <path id="DejaVuSans-6f" d="M 1959 3097 
Q 1497 3097 1228 2736 
Q 959 2375 959 1747 
Q 959 1119 1226 758 
Q 1494 397 1959 397 
Q 2419 397 2687 759 
Q 2956 1122 2956 1747 
Q 2956 2369 2687 2733 
Q 2419 3097 1959 3097 
z
M 1959 3584 
Q 2709 3584 3137 3096 
Q 3566 2609 3566 1747 
Q 3566 888 3137 398 
Q 2709 -91 1959 -91 
Q 1206 -91 779 398 
Q 353 888 353 1747 
Q 353 2609 779 3096 
Q 1206 3584 1959 3584 
z
" transform="scale(0.015625)"/>
      <path id="DejaVuSans-73" d="M 2834 3397 
L 2834 2853 
Q 2591 2978 2328 3040 
Q 2066 3103 1784 3103 
Q 1356 3103 1142 2972 
Q 928 2841 928 2578 
Q 928 2378 1081 2264 
Q 1234 2150 1697 2047 
L 1894 2003 
Q 2506 1872 2764 1633 
Q 3022 1394 3022 966 
Q 3022 478 2636 193 
Q 2250 -91 1575 -91 
Q 1294 -91 989 -36 
Q 684 19 347 128 
L 347 722 
Q 666 556 975 473 
Q 1284 391 1588 391 
Q 1994 391 2212 530 
Q 2431 669 2431 922 
Q 2431 1156 2273 1281 
Q 2116 1406 1581 1522 
L 1381 1569 
Q 847 1681 609 1914 
Q 372 2147 372 2553 
Q 372 3047 722 3315 
Q 1072 3584 1716 3584 
Q 2034 3584 2315 3537 
Q 2597 3491 2834 3397 
z
" transform="scale(0.015625)"/>
      <path id="DejaVuSans-2d" d="M 313 2009 
L 1997 2009 
L 1997 1497 
L 313 1497 
L 313 2009 
z
" transform="scale(0.015625)"/>
      <path id="DejaVuSans-43" d="M 4122 4306 
L 4122 3641 
Q 3803 3938 3442 4084 
Q 3081 4231 2675 4231 
Q 1875 4231 1450 3742 
Q 1025 3253 1025 2328 
Q 1025 1406 1450 917 
Q 1875 428 2675 428 
Q 3081 428 3442 575 
Q 3803 722 4122 1019 
L 4122 359 
Q 3791 134 3420 21 
Q 3050 -91 2638 -91 
Q 1578 -91 968 557 
Q 359 1206 359 2328 
Q 359 3453 968 4101 
Q 1578 4750 2638 4750 
Q 3056 4750 3426 4639 
Q 3797 4528 4122 4306 
z
" transform="scale(0.015625)"/>
      <path id="DejaVuSans-68" d="M 3513 2113 
L 3513 0 
L 2938 0 
L 2938 2094 
Q 2938 2591 2744 2837 
Q 2550 3084 2163 3084 
Q 1697 3084 1428 2787 
Q 1159 2491 1159 1978 
L 1159 0 
L 581 0 
L 581 4863 
L 1159 4863 
L 1159 2956 
Q 1366 3272 1645 3428 
Q 1925 3584 2291 3584 
Q 2894 3584 3203 3211 
Q 3513 2838 3513 2113 
z
" transform="scale(0.015625)"/>
      <path id="DejaVuSans-61" d="M 2194 1759 
Q 1497 1759 1228 1600 
Q 959 1441 959 1056 
Q 959 750 1161 570 
Q 1363 391 1709 391 
Q 2188 391 2477 730 
Q 2766 1069 2766 1631 
L 2766 1759 
L 2194 1759 
z
M 3341 1997 
L 3341 0 
L 2766 0 
L 2766 531 
Q 2569 213 2275 61 
Q 1981 -91 1556 -91 
Q 1019 -91 701 211 
Q 384 513 384 1019 
Q 384 1609 779 1909 
Q 1175 2209 1959 2209 
L 2766 2209 
L 2766 2266 
Q 2766 2663 2505 2880 
Q 2244 3097 1772 3097 
Q 1472 3097 1187 3025 
Q 903 2953 641 2809 
L 641 3341 
Q 956 3463 1253 3523 
Q 1550 3584 1831 3584 
Q 2591 3584 2966 3190 
Q 3341 2797 3341 1997 
z
" transform="scale(0.015625)"/>
      <path id="DejaVuSans-6e" d="M 3513 2113 
L 3513 0 
L 2938 0 
L 2938 2094 
Q 2938 2591 2744 2837 
Q 2550 3084 2163 3084 
Q 1697 3084 1428 2787 
Q 1159 2491 1159 1978 
L 1159 0 
L 581 0 
L 581 3500 
L 1159 3500 
L 1159 2956 
Q 1366 3272 1645 3428 
Q 1925 3584 2291 3584 
Q 2894 3584 3203 3211 
Q 3513 2838 3513 2113 
z
" transform="scale(0.015625)"/>
      <path id="DejaVuSans-33" d="M 2597 2516 
Q 3050 2419 3304 2112 
Q 3559 1806 3559 1356 
Q 3559 666 3084 287 
Q 2609 -91 1734 -91 
Q 1441 -91 1130 -33 
Q 819 25 488 141 
L 488 750 
Q 750 597 1062 519 
Q 1375 441 1716 441 
Q 2309 441 2620 675 
Q 2931 909 2931 1356 
Q 2931 1769 2642 2001 
Q 2353 2234 1838 2234 
L 1294 2234 
L 1294 2753 
L 1863 2753 
Q 2328 2753 2575 2939 
Q 2822 3125 2822 3475 
Q 2822 3834 2567 4026 
Q 2313 4219 1838 4219 
Q 1578 4219 1281 4162 
Q 984 4106 628 3988 
L 628 4550 
Q 988 4650 1302 4700 
Q 1616 4750 1894 4750 
Q 2613 4750 3031 4423 
Q 3450 4097 3450 3541 
Q 3450 3153 3228 2886 
Q 3006 2619 2597 2516 
z
" transform="scale(0.015625)"/>
      <path id="DejaVuSans-54" d="M -19 4666 
L 3928 4666 
L 3928 4134 
L 2272 4134 
L 2272 0 
L 1638 0 
L 1638 4134 
L -19 4134 
L -19 4666 
z
" transform="scale(0.015625)"/>
      <path id="DejaVuSans-28" d="M 1984 4856 
Q 1566 4138 1362 3434 
Q 1159 2731 1159 2009 
Q 1159 1288 1364 580 
Q 1569 -128 1984 -844 
L 1484 -844 
Q 1016 -109 783 600 
Q 550 1309 550 2009 
Q 550 2706 781 3412 
Q 1013 4119 1484 4856 
L 1984 4856 
z
" transform="scale(0.015625)"/>
      <path id="DejaVuSans-31" d="M 794 531 
L 1825 531 
L 1825 4091 
L 703 3866 
L 703 4441 
L 1819 4666 
L 2450 4666 
L 2450 531 
L 3481 531 
L 3481 0 
L 794 0 
L 794 531 
z
" transform="scale(0.015625)"/>
      <path id="DejaVuSans-29" d="M 513 4856 
L 1013 4856 
Q 1481 4119 1714 3412 
Q 1947 2706 1947 2009 
Q 1947 1309 1714 600 
Q 1481 -109 1013 -844 
L 513 -844 
Q 928 -128 1133 580 
Q 1338 1288 1338 2009 
Q 1338 2731 1133 3434 
Q 928 4138 513 4856 
z
" transform="scale(0.015625)"/>
     </defs>
     <use xlink:href="#DejaVuSans-48"/>
     <use xlink:href="#DejaVuSans-65" transform="translate(75.195312 0)"/>
     <use xlink:href="#DejaVuSans-74" transform="translate(136.71875 0)"/>
     <use xlink:href="#DejaVuSans-20" transform="translate(175.927734 0)"/>
     <use xlink:href="#DejaVuSans-50" transform="translate(207.714844 0)"/>
     <use xlink:href="#DejaVuSans-6f" transform="translate(264.392578 0)"/>
     <use xlink:href="#DejaVuSans-73" transform="translate(325.574219 0)"/>
     <use xlink:href="#DejaVuSans-74" transform="translate(377.673828 0)"/>
     <use xlink:href="#DejaVuSans-20" transform="translate(416.882812 0)"/>
     <use xlink:href="#DejaVuSans-2d" transform="translate(448.669922 0)"/>
     <use xlink:href="#DejaVuSans-20" transform="translate(484.753906 0)"/>
     <use xlink:href="#DejaVuSans-43" transform="translate(516.541016 0)"/>
     <use xlink:href="#DejaVuSans-68" transform="translate(586.365234 0)"/>
     <use xlink:href="#DejaVuSans-61" transform="translate(649.744141 0)"/>
     <use xlink:href="#DejaVuSans-6e" transform="translate(711.023438 0)"/>
     <use xlink:href="#DejaVuSans-6e" transform="translate(774.402344 0)"/>
     <use xlink:href="#DejaVuSans-65" transform="translate(837.78125 0)"/>
     <use xlink:href="#DejaVuSans-6c" transform="translate(899.304688 0)"/>
     <use xlink:href="#DejaVuSans-20" transform="translate(927.087891 0)"/>
     <use xlink:href="#DejaVuSans-33" transform="translate(958.875 0)"/>
     <use xlink:href="#DejaVuSans-33" transform="translate(1022.498047 0)"/>
     <use xlink:href="#DejaVuSans-20" transform="translate(1086.121094 0)"/>
     <use xlink:href="#DejaVuSans-54" transform="translate(1117.908203 0)"/>
     <use xlink:href="#DejaVuSans-69" transform="translate(1175.867188 0)"/>
     <use xlink:href="#DejaVuSans-6d" transform="translate(1203.650391 0)"/>
     <use xlink:href="#DejaVuSans-65" transform="translate(1301.0625 0)"/>
     <use xlink:href="#DejaVuSans-20" transform="translate(1362.585938 0)"/>
     <use xlink:href="#DejaVuSans-50" transform="translate(1394.373047 0)"/>
     <use xlink:href="#DejaVuSans-6c" transform="translate(1454.675781 0)"/>
     <use xlink:href="#DejaVuSans-6f" transform="translate(1482.458984 0)"/>
     <use xlink:href="#DejaVuSans-74" transform="translate(1543.640625 0)"/>
     <use xlink:href="#DejaVuSans-20" transform="translate(1582.849609 0)"/>
     <use xlink:href="#DejaVuSans-28" transform="translate(1614.636719 0)"/>
     <use xlink:href="#DejaVuSans-31" transform="translate(1653.650391 0)"/>
     <use xlink:href="#DejaVuSans-2e" transform="translate(1717.273438 0)"/>
     <use xlink:href="#DejaVuSans-31" transform="translate(1749.060547 0)"/>
     <use xlink:href="#DejaVuSans-34" transform="translate(1812.683594 0)"/>
     <use xlink:href="#DejaVuSans-20" transform="translate(1876.306641 0)"/>
     <use xlink:href="#DejaVuSans-6d" transform="translate(1908.09375 0)"/>
     <use xlink:href="#DejaVuSans-73" transform="translate(2005.505859 0)"/>
     <use xlink:href="#DejaVuSans-20" transform="translate(2057.605469 0)"/>
     <use xlink:href="#DejaVuSans-74" transform="translate(2089.392578 0)"/>
     <use xlink:href="#DejaVuSans-6f" transform="translate(2128.601562 0)"/>
     <use xlink:href="#DejaVuSans-20" transform="translate(2189.783203 0)"/>
     <use xlink:href="#DejaVuSans-31" transform="translate(2221.570312 0)"/>
     <use xlink:href="#DejaVuSans-2e" transform="translate(2285.193359 0)"/>
     <use xlink:href="#DejaVuSans-32" transform="translate(2316.980469 0)"/>
     <use xlink:href="#DejaVuSans-34" transform="translate(2380.603516 0)"/>
     <use xlink:href="#DejaVuSans-20" transform="translate(2444.226562 0)"/>
     <use xlink:href="#DejaVuSans-6d" transform="translate(2476.013672 0)"/>
     <use xlink:href="#DejaVuSans-73" transform="translate(2573.425781 0)"/>
     <use xlink:href="#DejaVuSans-29" transform="translate(2625.525391 0)"/>
    </g>
   </g>
   <g id="legend_1">
    <g id="patch_7">
     <path d="M 793.307572 70.474615 
L 842.866947 70.474615 
Q 844.866947 70.474615 844.866947 68.474615 
L 844.866947 25.118365 
Q 844.866947 23.118365 842.866947 23.118365 
L 793.307572 23.118365 
Q 791.307572 23.118365 791.307572 25.118365 
L 791.307572 68.474615 
Q 791.307572 70.474615 793.307572 70.474615 
z
" style="fill: #ffffff; opacity: 0.8; stroke: #cccccc; stroke-linejoin: miter"/>
    </g>
    <g id="line2d_26">
     <path d="M 795.307572 31.216802 
L 805.307572 31.216802 
L 815.307572 31.216802 
" style="fill: none; stroke: #1f77b4; stroke-width: 1.5; stroke-linecap: square"/>
    </g>
    <g id="text_8">
     <!-- I -->
     <g transform="translate(823.307572 34.716802) scale(0.1 -0.1)">
      <defs>
       <path id="DejaVuSans-49" d="M 628 4666 
L 1259 4666 
L 1259 0 
L 628 0 
L 628 4666 
z
" transform="scale(0.015625)"/>
      </defs>
      <use xlink:href="#DejaVuSans-49"/>
     </g>
    </g>
    <g id="line2d_27">
     <path d="M 795.307572 45.894927 
L 805.307572 45.894927 
L 815.307572 45.894927 
" style="fill: none; stroke: #ff7f0e; stroke-width: 1.5; stroke-linecap: square"/>
    </g>
    <g id="text_9">
     <!-- Q -->
     <g transform="translate(823.307572 49.394927) scale(0.1 -0.1)">
      <defs>
       <path id="DejaVuSans-51" d="M 2522 4238 
Q 1834 4238 1429 3725 
Q 1025 3213 1025 2328 
Q 1025 1447 1429 934 
Q 1834 422 2522 422 
Q 3209 422 3611 934 
Q 4013 1447 4013 2328 
Q 4013 3213 3611 3725 
Q 3209 4238 2522 4238 
z
M 3406 84 
L 4238 -825 
L 3475 -825 
L 2784 -78 
Q 2681 -84 2626 -87 
Q 2572 -91 2522 -91 
Q 1538 -91 948 567 
Q 359 1225 359 2328 
Q 359 3434 948 4092 
Q 1538 4750 2522 4750 
Q 3503 4750 4090 4092 
Q 4678 3434 4678 2328 
Q 4678 1516 4351 937 
Q 4025 359 3406 84 
z
" transform="scale(0.015625)"/>
      </defs>
      <use xlink:href="#DejaVuSans-51"/>
     </g>
    </g>
    <g id="line2d_28">
     <path d="M 795.307572 60.616802 
L 805.307572 60.616802 
L 815.307572 60.616802 
" style="fill: none; stroke: #2ca02c; stroke-width: 1.2; stroke-linecap: square"/>
    </g>
    <g id="text_10">
     <!-- |IQ| -->
     <g transform="translate(823.307572 64.116802) scale(0.1 -0.1)">
      <defs>
       <path id="DejaVuSans-7c" d="M 1344 4891 
L 1344 -1509 
L 813 -1509 
L 813 4891 
L 1344 4891 
z
" transform="scale(0.015625)"/>
      </defs>
      <use xlink:href="#DejaVuSans-7c"/>
      <use xlink:href="#DejaVuSans-49" transform="translate(33.691406 0)"/>
      <use xlink:href="#DejaVuSans-51" transform="translate(63.183594 0)"/>
      <use xlink:href="#DejaVuSans-7c" transform="translate(141.894531 0)"/>
     </g>
    </g>
   </g>
  </g>
  <g id="axes_2">
   <g id="patch_8">
    <path d="M 60.686177 398.64351 
L 849.866947 398.64351 
L 849.866947 213.131177 
L 60.686177 213.131177 
z
" style="fill: #ffffff"/>
   </g>
   <g id="matplotlib.axis_3">
    <g id="xtick_7">
     <g id="line2d_29">
      <path d="M 60.686178 398.64351 
L 60.686178 213.131177 
" clip-path="url(#pfbd220dfc2)" style="fill: none; stroke: #b0b0b0; stroke-opacity: 0.3; stroke-width: 0.8; stroke-linecap: square"/>
     </g>
     <g id="line2d_30">
      <g>
       <use xlink:href="#m87077adb65" x="60.686178" y="398.64351" style="stroke: #000000; stroke-width: 0.8"/>
      </g>
     </g>
     <g id="text_11">
      <!-- 1.14 -->
      <g transform="translate(49.553365 413.241947) scale(0.1 -0.1)">
       <use xlink:href="#DejaVuSans-31"/>
       <use xlink:href="#DejaVuSans-2e" transform="translate(63.623047 0)"/>
       <use xlink:href="#DejaVuSans-31" transform="translate(95.410156 0)"/>
       <use xlink:href="#DejaVuSans-34" transform="translate(159.033203 0)"/>
      </g>
     </g>
    </g>
    <g id="xtick_8">
     <g id="line2d_31">
      <path d="M 218.522332 398.64351 
L 218.522332 213.131177 
" clip-path="url(#pfbd220dfc2)" style="fill: none; stroke: #b0b0b0; stroke-opacity: 0.3; stroke-width: 0.8; stroke-linecap: square"/>
     </g>
     <g id="line2d_32">
      <g>
       <use xlink:href="#m87077adb65" x="218.522332" y="398.64351" style="stroke: #000000; stroke-width: 0.8"/>
      </g>
     </g>
     <g id="text_12">
      <!-- 1.16 -->
      <g transform="translate(207.389519 413.241947) scale(0.1 -0.1)">
       <defs>
        <path id="DejaVuSans-36" d="M 2113 2584 
Q 1688 2584 1439 2293 
Q 1191 2003 1191 1497 
Q 1191 994 1439 701 
Q 1688 409 2113 409 
Q 2538 409 2786 701 
Q 3034 994 3034 1497 
Q 3034 2003 2786 2293 
Q 2538 2584 2113 2584 
z
M 3366 4563 
L 3366 3988 
Q 3128 4100 2886 4159 
Q 2644 4219 2406 4219 
Q 1781 4219 1451 3797 
Q 1122 3375 1075 2522 
Q 1259 2794 1537 2939 
Q 1816 3084 2150 3084 
Q 2853 3084 3261 2657 
Q 3669 2231 3669 1497 
Q 3669 778 3244 343 
Q 2819 -91 2113 -91 
Q 1303 -91 875 529 
Q 447 1150 447 2328 
Q 447 3434 972 4092 
Q 1497 4750 2381 4750 
Q 2619 4750 2861 4703 
Q 3103 4656 3366 4563 
z
" transform="scale(0.015625)"/>
       </defs>
       <use xlink:href="#DejaVuSans-31"/>
       <use xlink:href="#DejaVuSans-2e" transform="translate(63.623047 0)"/>
       <use xlink:href="#DejaVuSans-31" transform="translate(95.410156 0)"/>
       <use xlink:href="#DejaVuSans-36" transform="translate(159.033203 0)"/>
      </g>
     </g>
    </g>
    <g id="xtick_9">
     <g id="line2d_33">
      <path d="M 376.358486 398.64351 
L 376.358486 213.131177 
" clip-path="url(#pfbd220dfc2)" style="fill: none; stroke: #b0b0b0; stroke-opacity: 0.3; stroke-width: 0.8; stroke-linecap: square"/>
     </g>
     <g id="line2d_34">
      <g>
       <use xlink:href="#m87077adb65" x="376.358486" y="398.64351" style="stroke: #000000; stroke-width: 0.8"/>
      </g>
     </g>
     <g id="text_13">
      <!-- 1.18 -->
      <g transform="translate(365.225673 413.241947) scale(0.1 -0.1)">
       <defs>
        <path id="DejaVuSans-38" d="M 2034 2216 
Q 1584 2216 1326 1975 
Q 1069 1734 1069 1313 
Q 1069 891 1326 650 
Q 1584 409 2034 409 
Q 2484 409 2743 651 
Q 3003 894 3003 1313 
Q 3003 1734 2745 1975 
Q 2488 2216 2034 2216 
z
M 1403 2484 
Q 997 2584 770 2862 
Q 544 3141 544 3541 
Q 544 4100 942 4425 
Q 1341 4750 2034 4750 
Q 2731 4750 3128 4425 
Q 3525 4100 3525 3541 
Q 3525 3141 3298 2862 
Q 3072 2584 2669 2484 
Q 3125 2378 3379 2068 
Q 3634 1759 3634 1313 
Q 3634 634 3220 271 
Q 2806 -91 2034 -91 
Q 1263 -91 848 271 
Q 434 634 434 1313 
Q 434 1759 690 2068 
Q 947 2378 1403 2484 
z
M 1172 3481 
Q 1172 3119 1398 2916 
Q 1625 2713 2034 2713 
Q 2441 2713 2670 2916 
Q 2900 3119 2900 3481 
Q 2900 3844 2670 4047 
Q 2441 4250 2034 4250 
Q 1625 4250 1398 4047 
Q 1172 3844 1172 3481 
z
" transform="scale(0.015625)"/>
       </defs>
       <use xlink:href="#DejaVuSans-31"/>
       <use xlink:href="#DejaVuSans-2e" transform="translate(63.623047 0)"/>
       <use xlink:href="#DejaVuSans-31" transform="translate(95.410156 0)"/>
       <use xlink:href="#DejaVuSans-38" transform="translate(159.033203 0)"/>
      </g>
     </g>
    </g>
    <g id="xtick_10">
     <g id="line2d_35">
      <path d="M 534.19464 398.64351 
L 534.19464 213.131177 
" clip-path="url(#pfbd220dfc2)" style="fill: none; stroke: #b0b0b0; stroke-opacity: 0.3; stroke-width: 0.8; stroke-linecap: square"/>
     </g>
     <g id="line2d_36">
      <g>
       <use xlink:href="#m87077adb65" x="534.19464" y="398.64351" style="stroke: #000000; stroke-width: 0.8"/>
      </g>
     </g>
     <g id="text_14">
      <!-- 1.20 -->
      <g transform="translate(523.061827 413.241947) scale(0.1 -0.1)">
       <use xlink:href="#DejaVuSans-31"/>
       <use xlink:href="#DejaVuSans-2e" transform="translate(63.623047 0)"/>
       <use xlink:href="#DejaVuSans-32" transform="translate(95.410156 0)"/>
       <use xlink:href="#DejaVuSans-30" transform="translate(159.033203 0)"/>
      </g>
     </g>
    </g>
    <g id="xtick_11">
     <g id="line2d_37">
      <path d="M 692.030794 398.64351 
L 692.030794 213.131177 
" clip-path="url(#pfbd220dfc2)" style="fill: none; stroke: #b0b0b0; stroke-opacity: 0.3; stroke-width: 0.8; stroke-linecap: square"/>
     </g>
     <g id="line2d_38">
      <g>
       <use xlink:href="#m87077adb65" x="692.030794" y="398.64351" style="stroke: #000000; stroke-width: 0.8"/>
      </g>
     </g>
     <g id="text_15">
      <!-- 1.22 -->
      <g transform="translate(680.897981 413.241947) scale(0.1 -0.1)">
       <use xlink:href="#DejaVuSans-31"/>
       <use xlink:href="#DejaVuSans-2e" transform="translate(63.623047 0)"/>
       <use xlink:href="#DejaVuSans-32" transform="translate(95.410156 0)"/>
       <use xlink:href="#DejaVuSans-32" transform="translate(159.033203 0)"/>
      </g>
     </g>
    </g>
    <g id="xtick_12">
     <g id="line2d_39">
      <path d="M 849.866948 398.64351 
L 849.866948 213.131177 
" clip-path="url(#pfbd220dfc2)" style="fill: none; stroke: #b0b0b0; stroke-opacity: 0.3; stroke-width: 0.8; stroke-linecap: square"/>
     </g>
     <g id="line2d_40">
      <g>
       <use xlink:href="#m87077adb65" x="849.866948" y="398.64351" style="stroke: #000000; stroke-width: 0.8"/>
      </g>
     </g>
     <g id="text_16">
      <!-- 1.24 -->
      <g transform="translate(838.734135 413.241947) scale(0.1 -0.1)">
       <use xlink:href="#DejaVuSans-31"/>
       <use xlink:href="#DejaVuSans-2e" transform="translate(63.623047 0)"/>
       <use xlink:href="#DejaVuSans-32" transform="translate(95.410156 0)"/>
       <use xlink:href="#DejaVuSans-34" transform="translate(159.033203 0)"/>
      </g>
     </g>
    </g>
    <g id="text_17">
     <!-- Time (ms) -->
     <g transform="translate(430.077344 426.920073) scale(0.1 -0.1)">
      <use xlink:href="#DejaVuSans-54"/>
      <use xlink:href="#DejaVuSans-69" transform="translate(57.958984 0)"/>
      <use xlink:href="#DejaVuSans-6d" transform="translate(85.742188 0)"/>
      <use xlink:href="#DejaVuSans-65" transform="translate(183.154297 0)"/>
      <use xlink:href="#DejaVuSans-20" transform="translate(244.677734 0)"/>
      <use xlink:href="#DejaVuSans-28" transform="translate(276.464844 0)"/>
      <use xlink:href="#DejaVuSans-6d" transform="translate(315.478516 0)"/>
      <use xlink:href="#DejaVuSans-73" transform="translate(412.890625 0)"/>
      <use xlink:href="#DejaVuSans-29" transform="translate(464.990234 0)"/>
     </g>
    </g>
   </g>
   <g id="matplotlib.axis_4">
    <g id="ytick_6">
     <g id="line2d_41">
      <path d="M 60.686177 387.683837 
L 849.866947 387.683837 
" clip-path="url(#pfbd220dfc2)" style="fill: none; stroke: #b0b0b0; stroke-opacity: 0.3; stroke-width: 0.8; stroke-linecap: square"/>
     </g>
     <g id="line2d_42">
      <g>
       <use xlink:href="#mb4133aaa4a" x="60.686177" y="387.683837" style="stroke: #000000; stroke-width: 0.8"/>
      </g>
     </g>
     <g id="text_18">
      <!-- −3 -->
      <g transform="translate(38.94399 391.483056) scale(0.1 -0.1)">
       <use xlink:href="#DejaVuSans-2212"/>
       <use xlink:href="#DejaVuSans-33" transform="translate(83.789062 0)"/>
      </g>
     </g>
    </g>
    <g id="ytick_7">
     <g id="line2d_43">
      <path d="M 60.686177 359.884963 
L 849.866947 359.884963 
" clip-path="url(#pfbd220dfc2)" style="fill: none; stroke: #b0b0b0; stroke-opacity: 0.3; stroke-width: 0.8; stroke-linecap: square"/>
     </g>
     <g id="line2d_44">
      <g>
       <use xlink:href="#mb4133aaa4a" x="60.686177" y="359.884963" style="stroke: #000000; stroke-width: 0.8"/>
      </g>
     </g>
     <g id="text_19">
      <!-- −2 -->
      <g transform="translate(38.94399 363.684182) scale(0.1 -0.1)">
       <use xlink:href="#DejaVuSans-2212"/>
       <use xlink:href="#DejaVuSans-32" transform="translate(83.789062 0)"/>
      </g>
     </g>
    </g>
    <g id="ytick_8">
     <g id="line2d_45">
      <path d="M 60.686177 332.086089 
L 849.866947 332.086089 
" clip-path="url(#pfbd220dfc2)" style="fill: none; stroke: #b0b0b0; stroke-opacity: 0.3; stroke-width: 0.8; stroke-linecap: square"/>
     </g>
     <g id="line2d_46">
      <g>
       <use xlink:href="#mb4133aaa4a" x="60.686177" y="332.086089" style="stroke: #000000; stroke-width: 0.8"/>
      </g>
     </g>
     <g id="text_20">
      <!-- −1 -->
      <g transform="translate(38.94399 335.885308) scale(0.1 -0.1)">
       <use xlink:href="#DejaVuSans-2212"/>
       <use xlink:href="#DejaVuSans-31" transform="translate(83.789062 0)"/>
      </g>
     </g>
    </g>
    <g id="ytick_9">
     <g id="line2d_47">
      <path d="M 60.686177 304.287215 
L 849.866947 304.287215 
" clip-path="url(#pfbd220dfc2)" style="fill: none; stroke: #b0b0b0; stroke-opacity: 0.3; stroke-width: 0.8; stroke-linecap: square"/>
     </g>
     <g id="line2d_48">
      <g>
       <use xlink:href="#mb4133aaa4a" x="60.686177" y="304.287215" style="stroke: #000000; stroke-width: 0.8"/>
      </g>
     </g>
     <g id="text_21">
      <!-- 0 -->
      <g transform="translate(47.323678 308.086434) scale(0.1 -0.1)">
       <use xlink:href="#DejaVuSans-30"/>
      </g>
     </g>
    </g>
    <g id="ytick_10">
     <g id="line2d_49">
      <path d="M 60.686177 276.488341 
L 849.866947 276.488341 
" clip-path="url(#pfbd220dfc2)" style="fill: none; stroke: #b0b0b0; stroke-opacity: 0.3; stroke-width: 0.8; stroke-linecap: square"/>
     </g>
     <g id="line2d_50">
      <g>
       <use xlink:href="#mb4133aaa4a" x="60.686177" y="276.488341" style="stroke: #000000; stroke-width: 0.8"/>
      </g>
     </g>
     <g id="text_22">
      <!-- 1 -->
      <g transform="translate(47.323678 280.28756) scale(0.1 -0.1)">
       <use xlink:href="#DejaVuSans-31"/>
      </g>
     </g>
    </g>
    <g id="ytick_11">
     <g id="line2d_51">
      <path d="M 60.686177 248.689467 
L 849.866947 248.689467 
" clip-path="url(#pfbd220dfc2)" style="fill: none; stroke: #b0b0b0; stroke-opacity: 0.3; stroke-width: 0.8; stroke-linecap: square"/>
     </g>
     <g id="line2d_52">
      <g>
       <use xlink:href="#mb4133aaa4a" x="60.686177" y="248.689467" style="stroke: #000000; stroke-width: 0.8"/>
      </g>
     </g>
     <g id="text_23">
      <!-- 2 -->
      <g transform="translate(47.323678 252.488685) scale(0.1 -0.1)">
       <use xlink:href="#DejaVuSans-32"/>
      </g>
     </g>
    </g>
    <g id="ytick_12">
     <g id="line2d_53">
      <path d="M 60.686177 220.890593 
L 849.866947 220.890593 
" clip-path="url(#pfbd220dfc2)" style="fill: none; stroke: #b0b0b0; stroke-opacity: 0.3; stroke-width: 0.8; stroke-linecap: square"/>
     </g>
     <g id="line2d_54">
      <g>
       <use xlink:href="#mb4133aaa4a" x="60.686177" y="220.890593" style="stroke: #000000; stroke-width: 0.8"/>
      </g>
     </g>
     <g id="text_24">
      <!-- 3 -->
      <g transform="translate(47.323678 224.689811) scale(0.1 -0.1)">
       <use xlink:href="#DejaVuSans-33"/>
      </g>
     </g>
    </g>
    <g id="text_25">
     <!-- FM -->
     <g transform="translate(32.864303 313.077187) rotate(-90) scale(0.1 -0.1)">
      <defs>
       <path id="DejaVuSans-46" d="M 628 4666 
L 3309 4666 
L 3309 4134 
L 1259 4134 
L 1259 2759 
L 3109 2759 
L 3109 2228 
L 1259 2228 
L 1259 0 
L 628 0 
L 628 4666 
z
" transform="scale(0.015625)"/>
       <path id="DejaVuSans-4d" d="M 628 4666 
L 1569 4666 
L 2759 1491 
L 3956 4666 
L 4897 4666 
L 4897 0 
L 4281 0 
L 4281 4097 
L 3078 897 
L 2444 897 
L 1241 4097 
L 1241 0 
L 628 0 
L 628 4666 
z
" transform="scale(0.015625)"/>
      </defs>
      <use xlink:href="#DejaVuSans-46"/>
      <use xlink:href="#DejaVuSans-4d" transform="translate(57.519531 0)"/>
     </g>
    </g>
   </g>
   <g id="line2d_55">
    <path d="M 64.632081 335.145669 
L 68.577985 319.694761 
L 72.523889 351.657302 
L 76.469793 370.738716 
L 80.415697 336.375925 
L 84.361601 308.210098 
L 88.307504 250.160984 
L 92.253408 293.165058 
L 96.199312 247.345435 
L 100.145216 264.665509 
L 104.09112 246.63908 
L 108.037024 221.563556 
L 111.982928 390.115976 
L 115.928831 291.811681 
L 119.874735 390.211131 
L 123.820639 290.957744 
L 127.766543 291.169925 
L 131.712447 308.772699 
L 135.658351 321.730912 
L 139.604255 299.343516 
L 143.550158 287.097499 
L 147.496062 312.372228 
L 151.441966 320.793605 
L 155.38787 296.931007 
L 159.333774 287.579962 
L 163.279678 312.766811 
L 167.225581 320.496981 
L 171.171485 298.167411 
L 175.117389 287.577546 
L 179.063293 311.431725 
L 183.009197 321.495868 
L 186.955101 298.665957 
L 190.901005 287.104791 
L 194.846908 311.755955 
L 198.792812 321.065675 
L 202.738716 298.283283 
L 206.68462 287.618504 
L 210.630524 311.693411 
L 214.576428 320.337157 
L 218.522332 298.050722 
L 222.468235 288.003896 
L 226.414139 311.687666 
L 230.360043 321.532286 
L 234.305947 297.991213 
L 238.251851 287.912787 
L 242.197755 311.809719 
L 246.143658 321.036708 
L 250.089562 298.479556 
L 254.035466 287.824856 
L 257.98137 310.298128 
L 261.927274 325.808088 
L 265.873178 326.707594 
L 269.819082 322.226542 
L 273.764985 297.047936 
L 277.710889 287.813354 
L 281.656793 312.665012 
L 285.602697 320.716749 
L 289.548601 298.298198 
L 293.494505 282.812063 
L 297.440409 284.659246 
L 301.386312 281.811625 
L 305.332216 282.64027 
L 309.27812 287.887055 
L 313.224024 311.355687 
L 317.169928 321.500009 
L 321.115832 298.111623 
L 325.061735 287.330528 
L 329.007639 312.781823 
L 332.953543 321.786934 
L 336.899447 297.423145 
L 340.845351 287.36194 
L 344.791255 311.58633 
L 348.737159 326.560607 
L 352.683062 325.440313 
L 356.628966 322.07632 
L 360.57487 298.313801 
L 364.520774 282.676764 
L 368.466678 283.18403 
L 372.412582 287.081436 
L 376.358486 311.437805 
L 380.304389 325.561411 
L 384.250293 326.562883 
L 392.142101 326.374925 
L 396.088005 326.807894 
L 400.033909 325.781484 
L 403.979812 327.558647 
L 407.925716 326.738183 
L 411.87162 320.489801 
L 415.817524 298.143234 
L 419.763428 288.697445 
L 423.709332 310.874925 
L 427.655236 321.627802 
L 431.601139 298.219811 
L 435.547043 288.095988 
L 439.492947 311.29486 
L 443.438851 321.191112 
L 447.384755 297.826758 
L 451.330659 288.002709 
L 455.276563 311.093456 
L 459.222466 320.704077 
L 463.16837 299.407282 
L 467.114274 287.963738 
L 471.060178 310.305136 
L 475.006082 327.18162 
L 478.951986 326.595288 
L 482.897889 320.793698 
L 486.843793 298.318565 
L 490.789697 283.240684 
L 494.735601 283.255398 
L 498.681505 281.778201 
L 502.627409 283.20687 
L 506.573313 287.665846 
L 510.519216 310.843827 
L 514.46512 321.367424 
L 518.411024 298.979685 
L 522.356928 286.987839 
L 526.302832 312.344268 
L 530.248736 321.06262 
L 534.194639 297.889179 
L 538.140543 283.432287 
L 542.086447 283.383586 
L 546.032351 286.278814 
L 549.978255 312.215398 
L 553.924159 321.15562 
L 557.870063 297.968692 
L 561.815966 287.807369 
L 565.76187 312.469572 
L 569.707774 324.914221 
L 573.653678 326.294553 
L 577.599582 321.964546 
L 581.545486 298.149769 
L 585.49139 288.098712 
L 589.437293 311.142547 
L 593.383197 325.589365 
L 597.329101 327.021215 
L 601.275005 321.957348 
L 605.220909 297.328695 
L 609.166813 288.919051 
L 613.112716 311.760474 
L 617.05862 326.177195 
L 621.004524 325.243356 
L 624.950428 326.585559 
L 628.896332 325.909566 
L 632.842236 326.728228 
L 636.78814 326.846626 
L 640.734043 321.503346 
L 644.679947 298.677048 
L 648.625851 282.021228 
L 652.571755 283.257148 
L 656.517659 282.434297 
L 660.463563 283.985632 
L 664.409467 282.827721 
L 668.35537 282.346718 
L 672.301274 288.427152 
L 676.247178 311.452084 
L 680.193082 319.740042 
L 684.138986 298.942318 
L 688.08489 287.661154 
L 692.030794 310.528438 
L 695.976697 326.494904 
L 699.922601 327.664228 
L 703.868505 320.232021 
L 707.814409 298.795579 
L 711.760313 283.667354 
L 715.706217 283.774975 
L 719.65212 282.802589 
L 723.598024 282.785131 
L 727.543928 288.57959 
L 731.489832 310.35259 
L 735.435736 326.228123 
L 739.38164 326.014245 
L 743.327544 326.656502 
L 747.273447 326.650935 
L 751.219351 325.435601 
L 755.165255 325.801321 
L 759.111159 326.990025 
L 763.057063 327.649753 
L 767.002967 323.204217 
L 770.948871 326.156013 
L 774.894774 384.126343 
L 778.840678 371.995062 
L 782.786582 345.545336 
L 786.732486 351.038537 
L 790.67839 248.29477 
L 794.624294 318.397203 
L 798.570197 368.31331 
L 802.516101 262.23233 
L 806.462005 317.029603 
L 810.407909 328.020563 
L 818.299717 229.681717 
L 822.245621 281.470089 
L 826.191524 286.504701 
L 830.137428 327.393576 
L 834.083332 319.722544 
L 838.029236 299.474183 
L 841.97514 298.840727 
L 845.921044 308.349401 
L 849.866947 375.979782 
L 849.866947 375.979782 
" clip-path="url(#pfbd220dfc2)" style="fill: none; stroke: #2ca02c; stroke-width: 1.5; stroke-linecap: square"/>
   </g>
   <g id="patch_9">
    <path d="M 60.686177 398.64351 
L 60.686177 213.131178 
" style="fill: none; stroke: #000000; stroke-width: 0.8; stroke-linejoin: miter; stroke-linecap: square"/>
   </g>
   <g id="patch_10">
    <path d="M 849.866947 398.64351 
L 849.866947 213.131178 
" style="fill: none; stroke: #000000; stroke-width: 0.8; stroke-linejoin: miter; stroke-linecap: square"/>
   </g>
   <g id="patch_11">
    <path d="M 60.686177 398.64351 
L 849.866947 398.64351 
" style="fill: none; stroke: #000000; stroke-width: 0.8; stroke-linejoin: miter; stroke-linecap: square"/>
   </g>
   <g id="patch_12">
    <path d="M 60.686177 213.131177 
L 849.866947 213.131177 
" style="fill: none; stroke: #000000; stroke-width: 0.8; stroke-linejoin: miter; stroke-linecap: square"/>
   </g>
   <g id="legend_2">
    <g id="patch_13">
     <path d="M 408.3375 393.64351 
L 502.215625 393.64351 
Q 504.215625 393.64351 504.215625 391.64351 
L 504.215625 377.965385 
Q 504.215625 375.965385 502.215625 375.965385 
L 408.3375 375.965385 
Q 406.3375 375.965385 406.3375 377.965385 
L 406.3375 391.64351 
Q 406.3375 393.64351 408.3375 393.64351 
z
" style="fill: #ffffff; opacity: 0.8; stroke: #cccccc; stroke-linejoin: miter"/>
    </g>
    <g id="line2d_56">
     <path d="M 410.3375 384.063823 
L 420.3375 384.063823 
L 430.3375 384.063823 
" style="fill: none; stroke: #2ca02c; stroke-width: 1.5; stroke-linecap: square"/>
    </g>
    <g id="text_26">
     <!-- FM Decoded -->
     <g transform="translate(438.3375 387.563823) scale(0.1 -0.1)">
      <defs>
       <path id="DejaVuSans-44" d="M 1259 4147 
L 1259 519 
L 2022 519 
Q 2988 519 3436 956 
Q 3884 1394 3884 2338 
Q 3884 3275 3436 3711 
Q 2988 4147 2022 4147 
L 1259 4147 
z
M 628 4666 
L 1925 4666 
Q 3281 4666 3915 4102 
Q 4550 3538 4550 2338 
Q 4550 1131 3912 565 
Q 3275 0 1925 0 
L 628 0 
L 628 4666 
z
" transform="scale(0.015625)"/>
       <path id="DejaVuSans-63" d="M 3122 3366 
L 3122 2828 
Q 2878 2963 2633 3030 
Q 2388 3097 2138 3097 
Q 1578 3097 1268 2742 
Q 959 2388 959 1747 
Q 959 1106 1268 751 
Q 1578 397 2138 397 
Q 2388 397 2633 464 
Q 2878 531 3122 666 
L 3122 134 
Q 2881 22 2623 -34 
Q 2366 -91 2075 -91 
Q 1284 -91 818 406 
Q 353 903 353 1747 
Q 353 2603 823 3093 
Q 1294 3584 2113 3584 
Q 2378 3584 2631 3529 
Q 2884 3475 3122 3366 
z
" transform="scale(0.015625)"/>
      </defs>
      <use xlink:href="#DejaVuSans-46"/>
      <use xlink:href="#DejaVuSans-4d" transform="translate(57.519531 0)"/>
      <use xlink:href="#DejaVuSans-20" transform="translate(143.798828 0)"/>
      <use xlink:href="#DejaVuSans-44" transform="translate(175.585938 0)"/>
      <use xlink:href="#DejaVuSans-65" transform="translate(252.587891 0)"/>
      <use xlink:href="#DejaVuSans-63" transform="translate(314.111328 0)"/>
      <use xlink:href="#DejaVuSans-6f" transform="translate(369.091797 0)"/>
      <use xlink:href="#DejaVuSans-64" transform="translate(430.273438 0)"/>
      <use xlink:href="#DejaVuSans-65" transform="translate(493.75 0)"/>
      <use xlink:href="#DejaVuSans-64" transform="translate(555.273438 0)"/>
     </g>
    </g>
   </g>
  </g>
 </g>
 <defs>
  <clipPath id="p0cb0994ad3">
   <rect x="60.686177" y="18.118365" width="789.18077" height="185.512333"/>
  </clipPath>
  <clipPath id="pfbd220dfc2">
   <rect x="60.686177" y="213.131177" width="789.18077" height="185.512333"/>
  </clipPath>
 </defs>
</svg>
