<?xml version="1.0" encoding="utf-8" standalone="no"?>
<!DOCTYPE svg PUBLIC "-//W3C//DTD SVG 1.1//EN"
  "http://www.w3.org/Graphics/SVG/1.1/DTD/svg11.dtd">
<svg xmlns:xlink="http://www.w3.org/1999/xlink" width="864pt" height="432pt" viewBox="0 0 864 432" xmlns="http://www.w3.org/2000/svg" version="1.1">
 <metadata>
  <rdf:RDF xmlns:dc="http://purl.org/dc/elements/1.1/" xmlns:cc="http://creativecommons.org/ns#" xmlns:rdf="http://www.w3.org/1999/02/22-rdf-syntax-ns#">
   <cc:Work>
    <dc:type rdf:resource="http://purl.org/dc/dcmitype/StillImage"/>
    <dc:date>2026-02-24T00:14:46.089756</dc:date>
    <dc:format>image/svg+xml</dc:format>
    <dc:creator>
     <cc:Agent>
      <dc:title>Matplotlib v3.10.8, https://matplotlib.org/</dc:title>
     </cc:Agent>
    </dc:creator>
   </cc:Work>
  </rdf:RDF>
 </metadata>
 <defs>
  <style type="text/css">*{stroke-linejoin: round; stroke-linecap: butt}</style>
 </defs>
 <g id="figure_1">
  <g id="patch_1">
   <path d="M 0 432 
L 864 432 
L 864 0 
L 0 0 
z
" style="fill: #ffffff"/>
  </g>
  <g id="axes_1">
   <g id="patch_2">
    <path d="M 60.686177 203.630697 
L 860.99976 203.630697 
L 860.99976 18.118365 
L 60.686177 18.118365 
z
" style="fill: #ffffff"/>
   </g>
   <g id="matplotlib.axis_1">
    <g id="xtick_1">
     <g id="line2d_1">
      <path d="M 140.717536 203.630697 
L 140.717536 18.118365 
" clip-path="url(#pa614a677ab)" style="fill: none; stroke: #b0b0b0; stroke-opacity: 0.3; stroke-width: 0.8; stroke-linecap: square"/>
     </g>
     <g id="line2d_2">
      <defs>
       <path id="mb49bdb0d5b" d="M 0 0 
L 0 3.5 
" style="stroke: #000000; stroke-width: 0.8"/>
      </defs>
      <g>
       <use xlink:href="#mb49bdb0d5b" x="140.717536" y="203.630697" style="stroke: #000000; stroke-width: 0.8"/>
      </g>
     </g>
    </g>
    <g id="xtick_2">
     <g id="line2d_3">
      <path d="M 300.780252 203.630697 
L 300.780252 18.118365 
" clip-path="url(#pa614a677ab)" style="fill: none; stroke: #b0b0b0; stroke-opacity: 0.3; stroke-width: 0.8; stroke-linecap: square"/>
     </g>
     <g id="line2d_4">
      <g>
       <use xlink:href="#mb49bdb0d5b" x="300.780252" y="203.630697" style="stroke: #000000; stroke-width: 0.8"/>
      </g>
     </g>
    </g>
    <g id="xtick_3">
     <g id="line2d_5">
      <path d="M 460.842969 203.630697 
L 460.842969 18.118365 
" clip-path="url(#pa614a677ab)" style="fill: none; stroke: #b0b0b0; stroke-opacity: 0.3; stroke-width: 0.8; stroke-linecap: square"/>
     </g>
     <g id="line2d_6">
      <g>
       <use xlink:href="#mb49bdb0d5b" x="460.842969" y="203.630697" style="stroke: #000000; stroke-width: 0.8"/>
      </g>
     </g>
    </g>
    <g id="xtick_4">
     <g id="line2d_7">
      <path d="M 620.905685 203.630697 
L 620.905685 18.118365 
" clip-path="url(#pa614a677ab)" style="fill: none; stroke: #b0b0b0; stroke-opacity: 0.3; stroke-width: 0.8; stroke-linecap: square"/>
     </g>
     <g id="line2d_8">
      <g>
       <use xlink:href="#mb49bdb0d5b" x="620.905685" y="203.630697" style="stroke: #000000; stroke-width: 0.8"/>
      </g>
     </g>
    </g>
    <g id="xtick_5">
     <g id="line2d_9">
      <path d="M 780.968402 203.630697 
L 780.968402 18.118365 
" clip-path="url(#pa614a677ab)" style="fill: none; stroke: #b0b0b0; stroke-opacity: 0.3; stroke-width: 0.8; stroke-linecap: square"/>
     </g>
     <g id="line2d_10">
      <g>
       <use xlink:href="#mb49bdb0d5b" x="780.968402" y="203.630697" style="stroke: #000000; stroke-width: 0.8"/>
      </g>
     </g>
    </g>
   </g>
   <g id="matplotlib.axis_2">
    <g id="ytick_1">
     <g id="line2d_11">
      <path d="M 60.686177 185.941768 
L 860.99976 185.941768 
" clip-path="url(#pa614a677ab)" style="fill: none; stroke: #b0b0b0; stroke-opacity: 0.3; stroke-width: 0.8; stroke-linecap: square"/>
     </g>
     <g id="line2d_12">
      <defs>
       <path id="mcf570effaa" d="M 0 0 
L -3.5 0 
" style="stroke: #000000; stroke-width: 0.8"/>
      </defs>
      <g>
       <use xlink:href="#mcf570effaa" x="60.686177" y="185.941768" style="stroke: #000000; stroke-width: 0.8"/>
      </g>
     </g>
     <g id="text_1">
      <!-- −0.002 -->
      <g transform="translate(16.678365 189.740987) scale(0.1 -0.1)">
       <defs>
        <path id="DejaVuSans-2212" d="M 678 2272 
L 4684 2272 
L 4684 1741 
L 678 1741 
L 678 2272 
z
" transform="scale(0.015625)"/>
        <path id="DejaVuSans-30" d="M 2034 4250 
Q 1547 4250 1301 3770 
Q 1056 3291 1056 2328 
Q 1056 1369 1301 889 
Q 1547 409 2034 409 
Q 2525 409 2770 889 
Q 3016 1369 3016 2328 
Q 3016 3291 2770 3770 
Q 2525 4250 2034 4250 
z
M 2034 4750 
Q 2819 4750 3233 4129 
Q 3647 3509 3647 2328 
Q 3647 1150 3233 529 
Q 2819 -91 2034 -91 
Q 1250 -91 836 529 
Q 422 1150 422 2328 
Q 422 3509 836 4129 
Q 1250 4750 2034 4750 
z
" transform="scale(0.015625)"/>
        <path id="DejaVuSans-2e" d="M 684 794 
L 1344 794 
L 1344 0 
L 684 0 
L 684 794 
z
" transform="scale(0.015625)"/>
        <path id="DejaVuSans-32" d="M 1228 531 
L 3431 531 
L 3431 0 
L 469 0 
L 469 531 
Q 828 903 1448 1529 
Q 2069 2156 2228 2338 
Q 2531 2678 2651 2914 
Q 2772 3150 2772 3378 
Q 2772 3750 2511 3984 
Q 2250 4219 1831 4219 
Q 1534 4219 1204 4116 
Q 875 4013 500 3803 
L 500 4441 
Q 881 4594 1212 4672 
Q 1544 4750 1819 4750 
Q 2544 4750 2975 4387 
Q 3406 4025 3406 3419 
Q 3406 3131 3298 2873 
Q 3191 2616 2906 2266 
Q 2828 2175 2409 1742 
Q 1991 1309 1228 531 
z
" transform="scale(0.015625)"/>
       </defs>
       <use xlink:href="#DejaVuSans-2212"/>
       <use xlink:href="#DejaVuSans-30" transform="translate(83.789062 0)"/>
       <use xlink:href="#DejaVuSans-2e" transform="translate(147.412109 0)"/>
       <use xlink:href="#DejaVuSans-30" transform="translate(179.199219 0)"/>
       <use xlink:href="#DejaVuSans-30" transform="translate(242.822266 0)"/>
       <use xlink:href="#DejaVuSans-32" transform="translate(306.445312 0)"/>
      </g>
     </g>
    </g>
    <g id="ytick_2">
     <g id="line2d_13">
      <path d="M 60.686177 149.670142 
L 860.99976 149.670142 
" clip-path="url(#pa614a677ab)" style="fill: none; stroke: #b0b0b0; stroke-opacity: 0.3; stroke-width: 0.8; stroke-linecap: square"/>
     </g>
     <g id="line2d_14">
      <g>
       <use xlink:href="#mcf570effaa" x="60.686177" y="149.670142" style="stroke: #000000; stroke-width: 0.8"/>
      </g>
     </g>
     <g id="text_2">
      <!-- −0.001 -->
      <g transform="translate(16.678365 153.46936) scale(0.1 -0.1)">
       <defs>
        <path id="DejaVuSans-31" d="M 794 531 
L 1825 531 
L 1825 4091 
L 703 3866 
L 703 4441 
L 1819 4666 
L 2450 4666 
L 2450 531 
L 3481 531 
L 3481 0 
L 794 0 
L 794 531 
z
" transform="scale(0.015625)"/>
       </defs>
       <use xlink:href="#DejaVuSans-2212"/>
       <use xlink:href="#DejaVuSans-30" transform="translate(83.789062 0)"/>
       <use xlink:href="#DejaVuSans-2e" transform="translate(147.412109 0)"/>
       <use xlink:href="#DejaVuSans-30" transform="translate(179.199219 0)"/>
       <use xlink:href="#DejaVuSans-30" transform="translate(242.822266 0)"/>
       <use xlink:href="#DejaVuSans-31" transform="translate(306.445312 0)"/>
      </g>
     </g>
    </g>
    <g id="ytick_3">
     <g id="line2d_15">
      <path d="M 60.686177 113.398515 
L 860.99976 113.398515 
" clip-path="url(#pa614a677ab)" style="fill: none; stroke: #b0b0b0; stroke-opacity: 0.3; stroke-width: 0.8; stroke-linecap: square"/>
     </g>
     <g id="line2d_16">
      <g>
       <use xlink:href="#mcf570effaa" x="60.686177" y="113.398515" style="stroke: #000000; stroke-width: 0.8"/>
      </g>
     </g>
     <g id="text_3">
      <!-- 0.000 -->
      <g transform="translate(25.058052 117.197734) scale(0.1 -0.1)">
       <use xlink:href="#DejaVuSans-30"/>
       <use xlink:href="#DejaVuSans-2e" transform="translate(63.623047 0)"/>
       <use xlink:href="#DejaVuSans-30" transform="translate(95.410156 0)"/>
       <use xlink:href="#DejaVuSans-30" transform="translate(159.033203 0)"/>
       <use xlink:href="#DejaVuSans-30" transform="translate(222.65625 0)"/>
      </g>
     </g>
    </g>
    <g id="ytick_4">
     <g id="line2d_17">
      <path d="M 60.686177 77.126889 
L 860.99976 77.126889 
" clip-path="url(#pa614a677ab)" style="fill: none; stroke: #b0b0b0; stroke-opacity: 0.3; stroke-width: 0.8; stroke-linecap: square"/>
     </g>
     <g id="line2d_18">
      <g>
       <use xlink:href="#mcf570effaa" x="60.686177" y="77.126889" style="stroke: #000000; stroke-width: 0.8"/>
      </g>
     </g>
     <g id="text_4">
      <!-- 0.001 -->
      <g transform="translate(25.058052 80.926108) scale(0.1 -0.1)">
       <use xlink:href="#DejaVuSans-30"/>
       <use xlink:href="#DejaVuSans-2e" transform="translate(63.623047 0)"/>
       <use xlink:href="#DejaVuSans-30" transform="translate(95.410156 0)"/>
       <use xlink:href="#DejaVuSans-30" transform="translate(159.033203 0)"/>
       <use xlink:href="#DejaVuSans-31" transform="translate(222.65625 0)"/>
      </g>
     </g>
    </g>
    <g id="ytick_5">
     <g id="line2d_19">
      <path d="M 60.686177 40.855262 
L 860.99976 40.855262 
" clip-path="url(#pa614a677ab)" style="fill: none; stroke: #b0b0b0; stroke-opacity: 0.3; stroke-width: 0.8; stroke-linecap: square"/>
     </g>
     <g id="line2d_20">
      <g>
       <use xlink:href="#mcf570effaa" x="60.686177" y="40.855262" style="stroke: #000000; stroke-width: 0.8"/>
      </g>
     </g>
     <g id="text_5">
      <!-- 0.002 -->
      <g transform="translate(25.058052 44.654481) scale(0.1 -0.1)">
       <use xlink:href="#DejaVuSans-30"/>
       <use xlink:href="#DejaVuSans-2e" transform="translate(63.623047 0)"/>
       <use xlink:href="#DejaVuSans-30" transform="translate(95.410156 0)"/>
       <use xlink:href="#DejaVuSans-30" transform="translate(159.033203 0)"/>
       <use xlink:href="#DejaVuSans-32" transform="translate(222.65625 0)"/>
      </g>
     </g>
    </g>
    <g id="text_6">
     <!-- Amplitude -->
     <g transform="translate(10.598677 136.497187) rotate(-90) scale(0.1 -0.1)">
      <defs>
       <path id="DejaVuSans-41" d="M 2188 4044 
L 1331 1722 
L 3047 1722 
L 2188 4044 
z
M 1831 4666 
L 2547 4666 
L 4325 0 
L 3669 0 
L 3244 1197 
L 1141 1197 
L 716 0 
L 50 0 
L 1831 4666 
z
" transform="scale(0.015625)"/>
       <path id="DejaVuSans-6d" d="M 3328 2828 
Q 3544 3216 3844 3400 
Q 4144 3584 4550 3584 
Q 5097 3584 5394 3201 
Q 5691 2819 5691 2113 
L 5691 0 
L 5113 0 
L 5113 2094 
Q 5113 2597 4934 2840 
Q 4756 3084 4391 3084 
Q 3944 3084 3684 2787 
Q 3425 2491 3425 1978 
L 3425 0 
L 2847 0 
L 2847 2094 
Q 2847 2600 2669 2842 
Q 2491 3084 2119 3084 
Q 1678 3084 1418 2786 
Q 1159 2488 1159 1978 
L 1159 0 
L 581 0 
L 581 3500 
L 1159 3500 
L 1159 2956 
Q 1356 3278 1631 3431 
Q 1906 3584 2284 3584 
Q 2666 3584 2933 3390 
Q 3200 3197 3328 2828 
z
" transform="scale(0.015625)"/>
       <path id="DejaVuSans-70" d="M 1159 525 
L 1159 -1331 
L 581 -1331 
L 581 3500 
L 1159 3500 
L 1159 2969 
Q 1341 3281 1617 3432 
Q 1894 3584 2278 3584 
Q 2916 3584 3314 3078 
Q 3713 2572 3713 1747 
Q 3713 922 3314 415 
Q 2916 -91 2278 -91 
Q 1894 -91 1617 61 
Q 1341 213 1159 525 
z
M 3116 1747 
Q 3116 2381 2855 2742 
Q 2594 3103 2138 3103 
Q 1681 3103 1420 2742 
Q 1159 2381 1159 1747 
Q 1159 1113 1420 752 
Q 1681 391 2138 391 
Q 2594 391 2855 752 
Q 3116 1113 3116 1747 
z
" transform="scale(0.015625)"/>
       <path id="DejaVuSans-6c" d="M 603 4863 
L 1178 4863 
L 1178 0 
L 603 0 
L 603 4863 
z
" transform="scale(0.015625)"/>
       <path id="DejaVuSans-69" d="M 603 3500 
L 1178 3500 
L 1178 0 
L 603 0 
L 603 3500 
z
M 603 4863 
L 1178 4863 
L 1178 4134 
L 603 4134 
L 603 4863 
z
" transform="scale(0.015625)"/>
       <path id="DejaVuSans-74" d="M 1172 4494 
L 1172 3500 
L 2356 3500 
L 2356 3053 
L 1172 3053 
L 1172 1153 
Q 1172 725 1289 603 
Q 1406 481 1766 481 
L 2356 481 
L 2356 0 
L 1766 0 
Q 1100 0 847 248 
Q 594 497 594 1153 
L 594 3053 
L 172 3053 
L 172 3500 
L 594 3500 
L 594 4494 
L 1172 4494 
z
" transform="scale(0.015625)"/>
       <path id="DejaVuSans-75" d="M 544 1381 
L 544 3500 
L 1119 3500 
L 1119 1403 
Q 1119 906 1312 657 
Q 1506 409 1894 409 
Q 2359 409 2629 706 
Q 2900 1003 2900 1516 
L 2900 3500 
L 3475 3500 
L 3475 0 
L 2900 0 
L 2900 538 
Q 2691 219 2414 64 
Q 2138 -91 1772 -91 
Q 1169 -91 856 284 
Q 544 659 544 1381 
z
M 1991 3584 
L 1991 3584 
z
" transform="scale(0.015625)"/>
       <path id="DejaVuSans-64" d="M 2906 2969 
L 2906 4863 
L 3481 4863 
L 3481 0 
L 2906 0 
L 2906 525 
Q 2725 213 2448 61 
Q 2172 -91 1784 -91 
Q 1150 -91 751 415 
Q 353 922 353 1747 
Q 353 2572 751 3078 
Q 1150 3584 1784 3584 
Q 2172 3584 2448 3432 
Q 2725 3281 2906 2969 
z
M 947 1747 
Q 947 1113 1208 752 
Q 1469 391 1925 391 
Q 2381 391 2643 752 
Q 2906 1113 2906 1747 
Q 2906 2381 2643 2742 
Q 2381 3103 1925 3103 
Q 1469 3103 1208 2742 
Q 947 2381 947 1747 
z
" transform="scale(0.015625)"/>
       <path id="DejaVuSans-65" d="M 3597 1894 
L 3597 1613 
L 953 1613 
Q 991 1019 1311 708 
Q 1631 397 2203 397 
Q 2534 397 2845 478 
Q 3156 559 3463 722 
L 3463 178 
Q 3153 47 2828 -22 
Q 2503 -91 2169 -91 
Q 1331 -91 842 396 
Q 353 884 353 1716 
Q 353 2575 817 3079 
Q 1281 3584 2069 3584 
Q 2775 3584 3186 3129 
Q 3597 2675 3597 1894 
z
M 3022 2063 
Q 3016 2534 2758 2815 
Q 2500 3097 2075 3097 
Q 1594 3097 1305 2825 
Q 1016 2553 972 2059 
L 3022 2063 
z
" transform="scale(0.015625)"/>
      </defs>
      <use xlink:href="#DejaVuSans-41"/>
      <use xlink:href="#DejaVuSans-6d" transform="translate(68.408203 0)"/>
      <use xlink:href="#DejaVuSans-70" transform="translate(165.820312 0)"/>
      <use xlink:href="#DejaVuSans-6c" transform="translate(229.296875 0)"/>
      <use xlink:href="#DejaVuSans-69" transform="translate(257.080078 0)"/>
      <use xlink:href="#DejaVuSans-74" transform="translate(284.863281 0)"/>
      <use xlink:href="#DejaVuSans-75" transform="translate(324.072266 0)"/>
      <use xlink:href="#DejaVuSans-64" transform="translate(387.451172 0)"/>
      <use xlink:href="#DejaVuSans-65" transform="translate(450.927734 0)"/>
     </g>
    </g>
   </g>
   <g id="line2d_21">
    <path d="M 60.686177 112.925185 
L 64.687745 113.777896 
L 68.689313 115.398564 
L 72.690881 114.785043 
L 76.692449 113.807583 
L 80.694017 112.035596 
L 84.695585 111.022699 
L 88.697153 113.106046 
L 92.698721 115.010434 
L 96.700289 115.219769 
L 100.701857 113.859262 
L 104.703425 110.405721 
L 108.704992 109.973728 
L 112.70656 113.635972 
L 116.708128 113.967462 
L 120.709696 111.677308 
L 124.711264 112.163899 
L 128.712832 113.546001 
L 136.715968 114.933397 
L 140.717536 113.769651 
L 144.719104 111.686649 
L 148.720672 112.206972 
L 152.722239 114.496216 
L 156.723807 114.783093 
L 160.725375 113.000838 
L 164.726943 112.126248 
L 168.728511 114.098424 
L 172.730079 116.263671 
L 176.731647 114.240125 
L 180.733215 112.437214 
L 184.734783 113.368179 
L 188.736351 112.02662 
L 192.737919 115.689699 
L 196.739487 117.797435 
L 200.741054 90.022562 
L 204.742622 53.500071 
L 208.74419 48.114179 
L 212.745758 47.243894 
L 216.747326 31.395834 
L 220.748894 35.611212 
L 224.750462 52.540259 
L 228.75203 42.973006 
L 232.753598 28.073192 
L 240.756734 52.493675 
L 244.758301 39.414365 
L 248.759869 27.469854 
L 256.763005 46.610753 
L 260.764573 38.743077 
L 264.766141 31.157318 
L 268.767709 38.910485 
L 272.769277 45.348731 
L 276.770845 36.937986 
L 280.772413 31.018378 
L 284.773981 38.170809 
L 288.775549 41.662184 
L 292.777116 35.012569 
L 296.778684 32.879857 
L 300.780252 39.139231 
L 304.78182 42.143684 
L 308.783388 38.623114 
L 312.784956 36.9516 
L 316.786524 39.117898 
L 320.788092 40.02896 
L 324.78966 38.935035 
L 328.791228 36.974275 
L 332.792796 36.310858 
L 336.794363 37.949504 
L 340.795931 36.725034 
L 344.797499 48.213793 
L 352.800635 152.526874 
L 356.802203 131.90665 
L 360.803771 86.061913 
L 364.805339 109.381514 
L 368.806907 156.921416 
L 372.808475 138.35996 
L 376.810043 81.231239 
L 380.81161 46.328005 
L 384.813178 45.800829 
L 388.814746 84.125496 
L 392.816314 126.34774 
L 396.817882 107.046753 
L 400.81945 61.507543 
L 404.821018 80.454389 
L 408.822586 125.354607 
L 412.824154 101.22353 
L 416.825722 53.704903 
L 420.82729 75.125054 
L 424.828858 119.598996 
L 428.830425 98.491925 
L 432.831993 43.876882 
L 436.833561 36.694994 
L 440.835129 61.59408 
L 444.836697 52.875083 
L 448.838265 35.108202 
L 452.839833 69.79123 
L 456.841401 111.491254 
L 460.842969 89.683574 
L 464.844537 43.268371 
L 468.846105 37.55406 
L 472.847672 75.356417 
L 476.84924 136.155859 
L 480.850808 187.441021 
L 484.852376 190.111427 
L 488.853944 144.460337 
L 492.855512 84.13908 
L 496.85708 48.852272 
L 500.858648 65.414559 
L 504.860216 97.748529 
L 508.861784 82.75659 
L 512.863352 47.243864 
L 516.86492 60.257505 
L 520.866487 93.353699 
L 524.868055 79.186627 
L 528.869623 45.836544 
L 532.871191 57.480779 
L 536.872759 88.829337 
L 540.874327 75.781808 
L 544.875895 41.897778 
L 548.877463 53.378131 
L 552.879031 84.909638 
L 556.880599 68.920561 
L 560.882167 35.379671 
L 564.883734 52.961937 
L 568.885302 89.351513 
L 572.88687 77.076761 
L 576.888438 43.73833 
L 580.890006 50.254956 
L 584.891574 93.137326 
L 588.893142 145.12714 
L 592.89471 181.936251 
L 596.896278 169.776926 
L 600.897846 132.43803 
L 604.899414 141.590056 
L 608.900982 178.104009 
L 612.902549 163.612729 
L 616.904117 125.817696 
L 620.905685 141.199265 
L 624.907253 179.440153 
L 628.908821 175.717047 
L 632.910389 157.487498 
L 636.911957 171.863248 
L 640.913525 190.796168 
L 644.915093 177.039637 
L 648.916661 161.180987 
L 652.918229 178.867813 
L 656.919796 192.458308 
L 660.921364 156.260165 
L 664.922932 113.349129 
L 668.9245 128.078133 
L 672.926068 166.958405 
L 676.927636 154.803627 
L 680.929204 97.145673 
L 684.930772 50.236178 
L 688.93234 35.8753 
L 692.933908 44.583812 
L 696.935476 53.664113 
L 700.937043 43.26791 
L 704.938611 38.691401 
L 708.940179 76.877021 
L 712.941747 138.341814 
L 716.943315 182.120229 
L 720.944883 187.591328 
L 724.946451 146.265894 
L 728.948019 99.229816 
L 732.949587 113.017897 
L 736.951155 166.404205 
L 740.952723 187.33419 
L 744.954291 165.545067 
L 748.955858 119.42072 
L 752.957426 64.348093 
L 756.958994 37.268529 
L 760.960562 42.693683 
L 764.96213 42.487807 
L 768.963698 35.055133 
L 772.965266 40.987451 
L 776.966834 45.319173 
L 780.968402 36.124229 
L 784.96997 46.753446 
L 788.971538 99.390072 
L 792.973105 145.040913 
L 796.974673 129.660542 
L 800.976241 77.166757 
L 804.977809 41.046702 
L 808.979377 45.764836 
L 812.980945 90.166169 
L 816.982513 131.241207 
L 820.984081 116.297643 
L 824.985649 62.168557 
L 828.987217 32.907937 
L 832.988785 58.438171 
L 836.990353 114.27126 
L 840.99192 165.261733 
L 844.993488 193.447226 
L 848.995056 173.329685 
L 852.996624 109.307268 
L 856.998192 77.011873 
L 860.99976 102.563045 
L 860.99976 102.563045 
" clip-path="url(#pa614a677ab)" style="fill: none; stroke: #1f77b4; stroke-width: 1.5; stroke-linecap: square"/>
   </g>
   <g id="line2d_22">
    <path d="M 60.686177 113.670076 
L 64.687745 112.772293 
L 68.689313 113.511073 
L 72.690881 113.961954 
L 76.692449 114.096324 
L 80.694017 115.959229 
L 84.695585 116.039301 
L 88.697153 112.461372 
L 92.698721 110.491468 
L 100.701857 114.415255 
L 104.703425 114.414255 
L 108.704992 114.965402 
L 112.70656 116.138364 
L 116.708128 115.356254 
L 120.709696 113.189915 
L 124.711264 112.576363 
L 128.712832 113.554363 
L 132.7144 114.252143 
L 144.719104 114.323411 
L 148.720672 113.749931 
L 152.722239 112.920532 
L 156.723807 112.739369 
L 160.725375 113.184582 
L 164.726943 113.987496 
L 168.728511 114.307248 
L 172.730079 112.655337 
L 176.731647 112.09283 
L 180.733215 114.919321 
L 184.734783 114.079383 
L 188.736351 110.3902 
L 192.737919 114.27096 
L 196.739487 114.523847 
L 200.741054 106.26857 
L 204.742622 126.354941 
L 208.74419 167.40867 
L 212.745758 156.391086 
L 216.747326 109.505898 
L 220.748894 122.574687 
L 224.750462 168.123966 
L 228.75203 146.632853 
L 232.753598 99.440582 
L 236.755166 121.930359 
L 240.756734 167.561029 
L 244.758301 146.600219 
L 248.759869 100.796947 
L 252.761437 117.894943 
L 256.763005 162.759364 
L 260.764573 143.601341 
L 264.766141 93.878664 
L 268.767709 111.245979 
L 272.769277 159.208138 
L 276.770845 138.545293 
L 280.772413 89.106306 
L 284.773981 107.44241 
L 288.775549 154.406291 
L 292.777116 136.087561 
L 296.778684 88.768926 
L 300.780252 105.774122 
L 304.78182 151.39596 
L 308.783388 131.134648 
L 312.784956 83.348487 
L 316.786524 102.742336 
L 320.788092 147.546474 
L 324.78966 124.843442 
L 328.791228 78.000132 
L 332.792796 96.562268 
L 336.794363 141.309472 
L 340.795931 126.254757 
L 344.797499 68.993156 
L 348.799067 37.229589 
L 352.800635 41.416338 
L 356.802203 47.949684 
L 360.803771 40.381233 
L 364.805339 35.152218 
L 368.806907 41.49367 
L 372.808475 42.48073 
L 376.810043 45.462052 
L 380.81161 82.661741 
L 384.813178 141.013831 
L 388.814746 180.465626 
L 392.816314 195.198319 
L 396.817882 190.663554 
L 400.81945 175.737088 
L 404.821018 178.926068 
L 408.822586 194.703323 
L 412.824154 186.62946 
L 416.825722 168.591037 
L 420.82729 174.881594 
L 424.828858 191.609056 
L 428.830425 190.75026 
L 432.831993 159.478252 
L 436.833561 100.075168 
L 440.835129 54.962107 
L 444.836697 70.478323 
L 448.838265 126.162378 
L 452.839833 169.555671 
L 456.841401 188.02486 
L 460.842969 186.816621 
L 464.844537 152.45982 
L 468.846105 90.24302 
L 472.847672 43.139519 
L 476.84924 41.222006 
L 480.850808 78.304252 
L 484.852376 135.503305 
L 488.853944 181.352345 
L 492.855512 182.405417 
L 496.85708 158.344318 
L 500.858648 164.377158 
L 504.860216 191.147993 
L 508.861784 182.181536 
L 512.863352 152.571359 
L 516.86492 161.202408 
L 520.866487 189.35519 
L 524.868055 178.264129 
L 528.869623 148.350532 
L 532.871191 158.689108 
L 536.872759 188.204817 
L 540.874327 177.060062 
L 544.875895 146.03827 
L 548.877463 154.5033 
L 552.879031 186.059691 
L 556.880599 179.881442 
L 560.882167 127.215853 
L 564.883734 69.175081 
L 568.885302 41.007609 
L 572.88687 52.506284 
L 576.888438 94.83647 
L 580.890006 148.206984 
L 584.891574 183.15834 
L 588.893142 175.12033 
L 592.89471 149.982305 
L 596.896278 162.383606 
L 600.897846 191.508339 
L 604.899414 176.097873 
L 608.900982 148.901061 
L 612.902549 166.328067 
L 616.904117 189.480068 
L 620.905685 177.540954 
L 624.907253 144.920802 
L 628.908821 93.625301 
L 632.910389 49.649468 
L 636.911957 66.902442 
L 640.913525 107.33176 
L 644.915093 92.52789 
L 648.916661 55.124541 
L 652.918229 69.315013 
L 656.919796 124.535899 
L 660.921364 172.495182 
L 664.922932 192.032614 
L 668.9245 181.167941 
L 672.926068 165.784322 
L 676.927636 179.074905 
L 680.929204 191.97343 
L 684.930772 153.747236 
L 688.93234 106.405991 
L 692.933908 123.322948 
L 696.935476 164.919447 
L 700.937043 148.263687 
L 704.938611 86.986226 
L 708.940179 41.883287 
L 712.941747 37.844801 
L 716.943315 78.769742 
L 720.944883 142.589946 
L 724.946451 182.950919 
L 728.948019 190.468057 
L 732.949587 187.167551 
L 736.951155 165.696316 
L 744.954291 62.586744 
L 748.955858 40.519024 
L 752.957426 55.868525 
L 756.958994 107.006754 
L 760.960562 150.657178 
L 764.96213 130.382247 
L 768.963698 86.919902 
L 772.965266 102.998933 
L 776.966834 147.169981 
L 780.968402 132.757229 
L 784.96997 72.551163 
L 788.971538 38.48436 
L 792.973105 39.825204 
L 796.974673 41.67508 
L 800.976241 49.595225 
L 804.977809 90.881112 
L 808.979377 146.669944 
L 812.980945 178.771931 
L 816.982513 187.87772 
L 820.984081 188.129368 
L 824.985649 168.020876 
L 828.987217 116.319974 
L 832.988785 58.489075 
L 836.990353 36.232487 
L 840.99192 59.565831 
L 844.993488 110.754725 
L 848.995056 167.6048 
L 852.996624 189.254025 
L 856.998192 154.498888 
L 860.99976 114.612916 
L 860.99976 114.612916 
" clip-path="url(#pa614a677ab)" style="fill: none; stroke: #ff7f0e; stroke-width: 1.5; stroke-linecap: square"/>
   </g>
   <g id="line2d_23">
    <path d="M 60.686177 112.852817 
L 64.687745 112.666338 
L 68.689313 111.395302 
L 72.690881 111.901878 
L 76.692449 112.589644 
L 80.694017 110.497687 
L 84.695585 109.846297 
L 88.697153 112.416794 
L 92.698721 110.07448 
L 96.700289 111.366806 
L 100.701857 112.28225 
L 104.703425 110.23805 
L 108.704992 109.632309 
L 112.70656 110.648396 
L 116.708128 111.35978 
L 124.711264 111.915204 
L 128.712832 113.183944 
L 132.7144 112.177005 
L 136.715968 111.61682 
L 140.717536 112.40264 
L 144.719104 111.452772 
L 148.720672 112.156232 
L 152.722239 112.201262 
L 156.723807 111.865045 
L 160.725375 112.946947 
L 164.726943 111.99653 
L 168.728511 112.251489 
L 172.730079 110.438543 
L 176.731647 111.845093 
L 180.733215 111.599362 
L 184.734783 112.716972 
L 188.736351 110.092149 
L 192.737919 110.946845 
L 196.739487 108.857935 
L 200.741054 88.959381 
L 204.742622 52.114809 
L 208.74419 28.668702 
L 212.745758 34.501139 
L 216.747326 31.303495 
L 220.748894 35.071846 
L 224.750462 31.553522 
L 228.75203 35.525063 
L 232.753598 26.939068 
L 236.755166 39.764121 
L 240.756734 31.894055 
L 244.758301 32.305925 
L 248.759869 26.550744 
L 252.761437 37.025453 
L 256.763005 30.349742 
L 260.764573 32.865011 
L 264.766141 28.872542 
L 268.767709 38.87939 
L 272.769277 31.366234 
L 276.770845 32.908934 
L 280.772413 27.511388 
L 284.773981 37.935392 
L 288.775549 30.768385 
L 292.777116 31.794901 
L 296.778684 29.19714 
L 300.780252 38.748845 
L 304.78182 32.645454 
L 308.783388 36.548462 
L 312.784956 31.257578 
L 316.786524 38.357438 
L 320.788092 32.471543 
L 324.78966 38.060633 
L 328.791228 29.174347 
L 332.792796 34.493725 
L 336.794363 32.952418 
L 340.795931 35.654662 
L 344.797499 34.525934 
L 348.799067 36.167291 
L 352.800635 31.468893 
L 356.802203 45.383073 
L 360.803771 35.431769 
L 364.805339 35.049179 
L 368.806907 29.347641 
L 372.808475 38.216033 
L 376.810043 38.231394 
L 380.81161 39.620452 
L 384.813178 40.37761 
L 388.814746 40.221282 
L 392.816314 30.5801 
L 396.817882 35.872834 
L 400.81945 32.2889 
L 404.821018 40.055647 
L 408.822586 31.21933 
L 412.824154 39.162396 
L 416.825722 32.099424 
L 420.82729 40.975957 
L 424.828858 34.942576 
L 428.830425 34.623518 
L 432.831993 29.992284 
L 436.833561 35.546463 
L 440.835129 35.30554 
L 444.836697 39.201286 
L 448.838265 34.074558 
L 452.839833 42.298433 
L 456.841401 38.747806 
L 460.842969 36.245307 
L 464.844537 33.123846 
L 468.846105 34.098086 
L 472.847672 33.501538 
L 476.84924 37.719289 
L 480.850808 31.460118 
L 484.852376 33.564362 
L 488.853944 38.681985 
L 492.855512 38.444752 
L 496.85708 34.745204 
L 500.858648 43.38936 
L 504.860216 34.089599 
L 508.861784 38.098907 
L 512.863352 36.515813 
L 516.86492 41.919989 
L 520.866487 34.841453 
L 524.868055 40.063662 
L 528.869623 37.331023 
L 532.871191 41.439976 
L 536.872759 34.660803 
L 540.874327 39.45388 
L 544.875895 34.800114 
L 548.877463 40.652035 
L 552.879031 35.351979 
L 556.880599 33.409342 
L 560.882167 34.165572 
L 564.883734 38.509983 
L 568.885302 37.118096 
L 572.88687 42.496235 
L 576.888438 41.307665 
L 580.890006 41.296239 
L 584.891574 40.75591 
L 588.893142 43.999036 
L 592.89471 35.708145 
L 596.896278 38.712075 
L 600.897846 33.001704 
L 604.899414 44.652809 
L 608.900982 39.593157 
L 612.902549 40.439589 
L 616.904117 36.310005 
L 620.905685 43.490474 
L 624.907253 40.21961 
L 628.908821 48.018246 
L 632.910389 35.888643 
L 636.911957 38.699053 
L 640.913525 35.763452 
L 644.915093 46.422582 
L 648.916661 38.039233 
L 652.918229 34.470804 
L 656.919796 33.558095 
L 660.921364 40.394838 
L 664.922932 34.764408 
L 668.9245 44.057426 
L 672.926068 38.478989 
L 680.929204 33.160287 
L 684.930772 38.448527 
L 688.93234 35.560583 
L 692.933908 43.871844 
L 696.935476 34.515023 
L 700.937043 35.079412 
L 704.938611 34.15988 
L 708.940179 33.097531 
L 712.941747 33.83388 
L 716.943315 36.445111 
L 720.944883 33.669512 
L 724.946451 36.471265 
L 728.948019 35.037389 
L 732.949587 39.6285 
L 736.951155 38.936015 
L 740.952723 39.454893 
L 744.954291 40.58987 
L 748.955858 40.270635 
L 752.957426 37.796638 
L 756.958994 37.000675 
L 760.960562 33.477427 
L 764.96213 40.482287 
L 768.963698 30.701457 
L 772.965266 40.244481 
L 776.966834 37.403061 
L 780.968402 33.736263 
L 784.96997 35.231577 
L 788.971538 37.185868 
L 792.973105 33.309352 
L 796.974673 39.854619 
L 800.976241 40.02549 
L 804.977809 37.623732 
L 808.979377 38.0241 
L 812.980945 44.019664 
L 816.982513 36.811875 
L 820.984081 38.611451 
L 824.985649 38.51119 
L 828.987217 32.854936 
L 832.988785 35.708838 
L 836.990353 36.227555 
L 840.99192 38.64725 
L 844.993488 33.30616 
L 848.995056 32.58969 
L 852.996624 37.432754 
L 856.998192 58.505635 
L 860.99976 102.495204 
L 860.99976 102.495204 
" clip-path="url(#pa614a677ab)" style="fill: none; stroke: #2ca02c; stroke-width: 1.2; stroke-linecap: square"/>
   </g>
   <g id="patch_3">
    <path d="M 60.686177 203.630697 
L 60.686177 18.118365 
" style="fill: none; stroke: #000000; stroke-width: 0.8; stroke-linejoin: miter; stroke-linecap: square"/>
   </g>
   <g id="patch_4">
    <path d="M 860.99976 203.630697 
L 860.99976 18.118365 
" style="fill: none; stroke: #000000; stroke-width: 0.8; stroke-linejoin: miter; stroke-linecap: square"/>
   </g>
   <g id="patch_5">
    <path d="M 60.686177 203.630697 
L 860.99976 203.630697 
" style="fill: none; stroke: #000000; stroke-width: 0.8; stroke-linejoin: miter; stroke-linecap: square"/>
   </g>
   <g id="patch_6">
    <path d="M 60.686177 18.118365 
L 860.99976 18.118365 
" style="fill: none; stroke: #000000; stroke-width: 0.8; stroke-linejoin: miter; stroke-linecap: square"/>
   </g>
   <g id="text_7">
    <!-- Het Post - Channel 33 Time Plot (2.4 ms to 2.8 ms) -->
    <g transform="translate(308.611719 12.118365) scale(0.12 -0.12)">
     <defs>
      <path id="DejaVuSans-48" d="M 628 4666 
L 1259 4666 
L 1259 2753 
L 3553 2753 
L 3553 4666 
L 4184 4666 
L 4184 0 
L 3553 0 
L 3553 2222 
L 1259 2222 
L 1259 0 
L 628 0 
L 628 4666 
z
" transform="scale(0.015625)"/>
      <path id="DejaVuSans-20" transform="scale(0.015625)"/>
      <path id="DejaVuSans-50" d="M 1259 4147 
L 1259 2394 
L 2053 2394 
Q 2494 2394 2734 2622 
Q 2975 2850 2975 3272 
Q 2975 3691 2734 3919 
Q 2494 4147 2053 4147 
L 1259 4147 
z
M 628 4666 
L 2053 4666 
Q 2838 4666 3239 4311 
Q 3641 3956 3641 3272 
Q 3641 2581 3239 2228 
Q 2838 1875 2053 1875 
L 1259 1875 
L 1259 0 
L 628 0 
L 628 4666 
z
" transform="scale(0.015625)"/>
      <path id="DejaVuSans-6f" d="M 1959 3097 
Q 1497 3097 1228 2736 
Q 959 2375 959 1747 
Q 959 1119 1226 758 
Q 1494 397 1959 397 
Q 2419 397 2687 759 
Q 2956 1122 2956 1747 
Q 2956 2369 2687 2733 
Q 2419 3097 1959 3097 
z
M 1959 3584 
Q 2709 3584 3137 3096 
Q 3566 2609 3566 1747 
Q 3566 888 3137 398 
Q 2709 -91 1959 -91 
Q 1206 -91 779 398 
Q 353 888 353 1747 
Q 353 2609 779 3096 
Q 1206 3584 1959 3584 
z
" transform="scale(0.015625)"/>
      <path id="DejaVuSans-73" d="M 2834 3397 
L 2834 2853 
Q 2591 2978 2328 3040 
Q 2066 3103 1784 3103 
Q 1356 3103 1142 2972 
Q 928 2841 928 2578 
Q 928 2378 1081 2264 
Q 1234 2150 1697 2047 
L 1894 2003 
Q 2506 1872 2764 1633 
Q 3022 1394 3022 966 
Q 3022 478 2636 193 
Q 2250 -91 1575 -91 
Q 1294 -91 989 -36 
Q 684 19 347 128 
L 347 722 
Q 666 556 975 473 
Q 1284 391 1588 391 
Q 1994 391 2212 530 
Q 2431 669 2431 922 
Q 2431 1156 2273 1281 
Q 2116 1406 1581 1522 
L 1381 1569 
Q 847 1681 609 1914 
Q 372 2147 372 2553 
Q 372 3047 722 3315 
Q 1072 3584 1716 3584 
Q 2034 3584 2315 3537 
Q 2597 3491 2834 3397 
z
" transform="scale(0.015625)"/>
      <path id="DejaVuSans-2d" d="M 313 2009 
L 1997 2009 
L 1997 1497 
L 313 1497 
L 313 2009 
z
" transform="scale(0.015625)"/>
      <path id="DejaVuSans-43" d="M 4122 4306 
L 4122 3641 
Q 3803 3938 3442 4084 
Q 3081 4231 2675 4231 
Q 1875 4231 1450 3742 
Q 1025 3253 1025 2328 
Q 1025 1406 1450 917 
Q 1875 428 2675 428 
Q 3081 428 3442 575 
Q 3803 722 4122 1019 
L 4122 359 
Q 3791 134 3420 21 
Q 3050 -91 2638 -91 
Q 1578 -91 968 557 
Q 359 1206 359 2328 
Q 359 3453 968 4101 
Q 1578 4750 2638 4750 
Q 3056 4750 3426 4639 
Q 3797 4528 4122 4306 
z
" transform="scale(0.015625)"/>
      <path id="DejaVuSans-68" d="M 3513 2113 
L 3513 0 
L 2938 0 
L 2938 2094 
Q 2938 2591 2744 2837 
Q 2550 3084 2163 3084 
Q 1697 3084 1428 2787 
Q 1159 2491 1159 1978 
L 1159 0 
L 581 0 
L 581 4863 
L 1159 4863 
L 1159 2956 
Q 1366 3272 1645 3428 
Q 1925 3584 2291 3584 
Q 2894 3584 3203 3211 
Q 3513 2838 3513 2113 
z
" transform="scale(0.015625)"/>
      <path id="DejaVuSans-61" d="M 2194 1759 
Q 1497 1759 1228 1600 
Q 959 1441 959 1056 
Q 959 750 1161 570 
Q 1363 391 1709 391 
Q 2188 391 2477 730 
Q 2766 1069 2766 1631 
L 2766 1759 
L 2194 1759 
z
M 3341 1997 
L 3341 0 
L 2766 0 
L 2766 531 
Q 2569 213 2275 61 
Q 1981 -91 1556 -91 
Q 1019 -91 701 211 
Q 384 513 384 1019 
Q 384 1609 779 1909 
Q 1175 2209 1959 2209 
L 2766 2209 
L 2766 2266 
Q 2766 2663 2505 2880 
Q 2244 3097 1772 3097 
Q 1472 3097 1187 3025 
Q 903 2953 641 2809 
L 641 3341 
Q 956 3463 1253 3523 
Q 1550 3584 1831 3584 
Q 2591 3584 2966 3190 
Q 3341 2797 3341 1997 
z
" transform="scale(0.015625)"/>
      <path id="DejaVuSans-6e" d="M 3513 2113 
L 3513 0 
L 2938 0 
L 2938 2094 
Q 2938 2591 2744 2837 
Q 2550 3084 2163 3084 
Q 1697 3084 1428 2787 
Q 1159 2491 1159 1978 
L 1159 0 
L 581 0 
L 581 3500 
L 1159 3500 
L 1159 2956 
Q 1366 3272 1645 3428 
Q 1925 3584 2291 3584 
Q 2894 3584 3203 3211 
Q 3513 2838 3513 2113 
z
" transform="scale(0.015625)"/>
      <path id="DejaVuSans-33" d="M 2597 2516 
Q 3050 2419 3304 2112 
Q 3559 1806 3559 1356 
Q 3559 666 3084 287 
Q 2609 -91 1734 -91 
Q 1441 -91 1130 -33 
Q 819 25 488 141 
L 488 750 
Q 750 597 1062 519 
Q 1375 441 1716 441 
Q 2309 441 2620 675 
Q 2931 909 2931 1356 
Q 2931 1769 2642 2001 
Q 2353 2234 1838 2234 
L 1294 2234 
L 1294 2753 
L 1863 2753 
Q 2328 2753 2575 2939 
Q 2822 3125 2822 3475 
Q 2822 3834 2567 4026 
Q 2313 4219 1838 4219 
Q 1578 4219 1281 4162 
Q 984 4106 628 3988 
L 628 4550 
Q 988 4650 1302 4700 
Q 1616 4750 1894 4750 
Q 2613 4750 3031 4423 
Q 3450 4097 3450 3541 
Q 3450 3153 3228 2886 
Q 3006 2619 2597 2516 
z
" transform="scale(0.015625)"/>
      <path id="DejaVuSans-54" d="M -19 4666 
L 3928 4666 
L 3928 4134 
L 2272 4134 
L 2272 0 
L 1638 0 
L 1638 4134 
L -19 4134 
L -19 4666 
z
" transform="scale(0.015625)"/>
      <path id="DejaVuSans-28" d="M 1984 4856 
Q 1566 4138 1362 3434 
Q 1159 2731 1159 2009 
Q 1159 1288 1364 580 
Q 1569 -128 1984 -844 
L 1484 -844 
Q 1016 -109 783 600 
Q 550 1309 550 2009 
Q 550 2706 781 3412 
Q 1013 4119 1484 4856 
L 1984 4856 
z
" transform="scale(0.015625)"/>
      <path id="DejaVuSans-34" d="M 2419 4116 
L 825 1625 
L 2419 1625 
L 2419 4116 
z
M 2253 4666 
L 3047 4666 
L 3047 1625 
L 3713 1625 
L 3713 1100 
L 3047 1100 
L 3047 0 
L 2419 0 
L 2419 1100 
L 313 1100 
L 313 1709 
L 2253 4666 
z
" transform="scale(0.015625)"/>
      <path id="DejaVuSans-38" d="M 2034 2216 
Q 1584 2216 1326 1975 
Q 1069 1734 1069 1313 
Q 1069 891 1326 650 
Q 1584 409 2034 409 
Q 2484 409 2743 651 
Q 3003 894 3003 1313 
Q 3003 1734 2745 1975 
Q 2488 2216 2034 2216 
z
M 1403 2484 
Q 997 2584 770 2862 
Q 544 3141 544 3541 
Q 544 4100 942 4425 
Q 1341 4750 2034 4750 
Q 2731 4750 3128 4425 
Q 3525 4100 3525 3541 
Q 3525 3141 3298 2862 
Q 3072 2584 2669 2484 
Q 3125 2378 3379 2068 
Q 3634 1759 3634 1313 
Q 3634 634 3220 271 
Q 2806 -91 2034 -91 
Q 1263 -91 848 271 
Q 434 634 434 1313 
Q 434 1759 690 2068 
Q 947 2378 1403 2484 
z
M 1172 3481 
Q 1172 3119 1398 2916 
Q 1625 2713 2034 2713 
Q 2441 2713 2670 2916 
Q 2900 3119 2900 3481 
Q 2900 3844 2670 4047 
Q 2441 4250 2034 4250 
Q 1625 4250 1398 4047 
Q 1172 3844 1172 3481 
z
" transform="scale(0.015625)"/>
      <path id="DejaVuSans-29" d="M 513 4856 
L 1013 4856 
Q 1481 4119 1714 3412 
Q 1947 2706 1947 2009 
Q 1947 1309 1714 600 
Q 1481 -109 1013 -844 
L 513 -844 
Q 928 -128 1133 580 
Q 1338 1288 1338 2009 
Q 1338 2731 1133 3434 
Q 928 4138 513 4856 
z
" transform="scale(0.015625)"/>
     </defs>
     <use xlink:href="#DejaVuSans-48"/>
     <use xlink:href="#DejaVuSans-65" transform="translate(75.195312 0)"/>
     <use xlink:href="#DejaVuSans-74" transform="translate(136.71875 0)"/>
     <use xlink:href="#DejaVuSans-20" transform="translate(175.927734 0)"/>
     <use xlink:href="#DejaVuSans-50" transform="translate(207.714844 0)"/>
     <use xlink:href="#DejaVuSans-6f" transform="translate(264.392578 0)"/>
     <use xlink:href="#DejaVuSans-73" transform="translate(325.574219 0)"/>
     <use xlink:href="#DejaVuSans-74" transform="translate(377.673828 0)"/>
     <use xlink:href="#DejaVuSans-20" transform="translate(416.882812 0)"/>
     <use xlink:href="#DejaVuSans-2d" transform="translate(448.669922 0)"/>
     <use xlink:href="#DejaVuSans-20" transform="translate(484.753906 0)"/>
     <use xlink:href="#DejaVuSans-43" transform="translate(516.541016 0)"/>
     <use xlink:href="#DejaVuSans-68" transform="translate(586.365234 0)"/>
     <use xlink:href="#DejaVuSans-61" transform="translate(649.744141 0)"/>
     <use xlink:href="#DejaVuSans-6e" transform="translate(711.023438 0)"/>
     <use xlink:href="#DejaVuSans-6e" transform="translate(774.402344 0)"/>
     <use xlink:href="#DejaVuSans-65" transform="translate(837.78125 0)"/>
     <use xlink:href="#DejaVuSans-6c" transform="translate(899.304688 0)"/>
     <use xlink:href="#DejaVuSans-20" transform="translate(927.087891 0)"/>
     <use xlink:href="#DejaVuSans-33" transform="translate(958.875 0)"/>
     <use xlink:href="#DejaVuSans-33" transform="translate(1022.498047 0)"/>
     <use xlink:href="#DejaVuSans-20" transform="translate(1086.121094 0)"/>
     <use xlink:href="#DejaVuSans-54" transform="translate(1117.908203 0)"/>
     <use xlink:href="#DejaVuSans-69" transform="translate(1175.867188 0)"/>
     <use xlink:href="#DejaVuSans-6d" transform="translate(1203.650391 0)"/>
     <use xlink:href="#DejaVuSans-65" transform="translate(1301.0625 0)"/>
     <use xlink:href="#DejaVuSans-20" transform="translate(1362.585938 0)"/>
     <use xlink:href="#DejaVuSans-50" transform="translate(1394.373047 0)"/>
     <use xlink:href="#DejaVuSans-6c" transform="translate(1454.675781 0)"/>
     <use xlink:href="#DejaVuSans-6f" transform="translate(1482.458984 0)"/>
     <use xlink:href="#DejaVuSans-74" transform="translate(1543.640625 0)"/>
     <use xlink:href="#DejaVuSans-20" transform="translate(1582.849609 0)"/>
     <use xlink:href="#DejaVuSans-28" transform="translate(1614.636719 0)"/>
     <use xlink:href="#DejaVuSans-32" transform="translate(1653.650391 0)"/>
     <use xlink:href="#DejaVuSans-2e" transform="translate(1717.273438 0)"/>
     <use xlink:href="#DejaVuSans-34" transform="translate(1749.060547 0)"/>
     <use xlink:href="#DejaVuSans-20" transform="translate(1812.683594 0)"/>
     <use xlink:href="#DejaVuSans-6d" transform="translate(1844.470703 0)"/>
     <use xlink:href="#DejaVuSans-73" transform="translate(1941.882812 0)"/>
     <use xlink:href="#DejaVuSans-20" transform="translate(1993.982422 0)"/>
     <use xlink:href="#DejaVuSans-74" transform="translate(2025.769531 0)"/>
     <use xlink:href="#DejaVuSans-6f" transform="translate(2064.978516 0)"/>
     <use xlink:href="#DejaVuSans-20" transform="translate(2126.160156 0)"/>
     <use xlink:href="#DejaVuSans-32" transform="translate(2157.947266 0)"/>
     <use xlink:href="#DejaVuSans-2e" transform="translate(2221.570312 0)"/>
     <use xlink:href="#DejaVuSans-38" transform="translate(2253.357422 0)"/>
     <use xlink:href="#DejaVuSans-20" transform="translate(2316.980469 0)"/>
     <use xlink:href="#DejaVuSans-6d" transform="translate(2348.767578 0)"/>
     <use xlink:href="#DejaVuSans-73" transform="translate(2446.179688 0)"/>
     <use xlink:href="#DejaVuSans-29" transform="translate(2498.279297 0)"/>
    </g>
   </g>
   <g id="legend_1">
    <g id="patch_7">
     <path d="M 67.686177 70.474615 
L 117.245553 70.474615 
Q 119.245553 70.474615 119.245553 68.474615 
L 119.245553 25.118365 
Q 119.245553 23.118365 117.245553 23.118365 
L 67.686177 23.118365 
Q 65.686177 23.118365 65.686177 25.118365 
L 65.686177 68.474615 
Q 65.686177 70.474615 67.686177 70.474615 
z
" style="fill: #ffffff; opacity: 0.8; stroke: #cccccc; stroke-linejoin: miter"/>
    </g>
    <g id="line2d_24">
     <path d="M 69.686177 31.216802 
L 79.686177 31.216802 
L 89.686177 31.216802 
" style="fill: none; stroke: #1f77b4; stroke-width: 1.5; stroke-linecap: square"/>
    </g>
    <g id="text_8">
     <!-- I -->
     <g transform="translate(97.686177 34.716802) scale(0.1 -0.1)">
      <defs>
       <path id="DejaVuSans-49" d="M 628 4666 
L 1259 4666 
L 1259 0 
L 628 0 
L 628 4666 
z
" transform="scale(0.015625)"/>
      </defs>
      <use xlink:href="#DejaVuSans-49"/>
     </g>
    </g>
    <g id="line2d_25">
     <path d="M 69.686177 45.894927 
L 79.686177 45.894927 
L 89.686177 45.894927 
" style="fill: none; stroke: #ff7f0e; stroke-width: 1.5; stroke-linecap: square"/>
    </g>
    <g id="text_9">
     <!-- Q -->
     <g transform="translate(97.686177 49.394927) scale(0.1 -0.1)">
      <defs>
       <path id="DejaVuSans-51" d="M 2522 4238 
Q 1834 4238 1429 3725 
Q 1025 3213 1025 2328 
Q 1025 1447 1429 934 
Q 1834 422 2522 422 
Q 3209 422 3611 934 
Q 4013 1447 4013 2328 
Q 4013 3213 3611 3725 
Q 3209 4238 2522 4238 
z
M 3406 84 
L 4238 -825 
L 3475 -825 
L 2784 -78 
Q 2681 -84 2626 -87 
Q 2572 -91 2522 -91 
Q 1538 -91 948 567 
Q 359 1225 359 2328 
Q 359 3434 948 4092 
Q 1538 4750 2522 4750 
Q 3503 4750 4090 4092 
Q 4678 3434 4678 2328 
Q 4678 1516 4351 937 
Q 4025 359 3406 84 
z
" transform="scale(0.015625)"/>
      </defs>
      <use xlink:href="#DejaVuSans-51"/>
     </g>
    </g>
    <g id="line2d_26">
     <path d="M 69.686177 60.616802 
L 79.686177 60.616802 
L 89.686177 60.616802 
" style="fill: none; stroke: #2ca02c; stroke-width: 1.2; stroke-linecap: square"/>
    </g>
    <g id="text_10">
     <!-- |IQ| -->
     <g transform="translate(97.686177 64.116802) scale(0.1 -0.1)">
      <defs>
       <path id="DejaVuSans-7c" d="M 1344 4891 
L 1344 -1509 
L 813 -1509 
L 813 4891 
L 1344 4891 
z
" transform="scale(0.015625)"/>
      </defs>
      <use xlink:href="#DejaVuSans-7c"/>
      <use xlink:href="#DejaVuSans-49" transform="translate(33.691406 0)"/>
      <use xlink:href="#DejaVuSans-51" transform="translate(63.183594 0)"/>
      <use xlink:href="#DejaVuSans-7c" transform="translate(141.894531 0)"/>
     </g>
    </g>
   </g>
  </g>
  <g id="axes_2">
   <g id="patch_8">
    <path d="M 60.686177 398.64351 
L 860.99976 398.64351 
L 860.99976 213.131177 
L 60.686177 213.131177 
z
" style="fill: #ffffff"/>
   </g>
   <g id="matplotlib.axis_3">
    <g id="xtick_6">
     <g id="line2d_27">
      <path d="M 140.717536 398.64351 
L 140.717536 213.131177 
" clip-path="url(#pd54e1d8bd5)" style="fill: none; stroke: #b0b0b0; stroke-opacity: 0.3; stroke-width: 0.8; stroke-linecap: square"/>
     </g>
     <g id="line2d_28">
      <g>
       <use xlink:href="#mb49bdb0d5b" x="140.717536" y="398.64351" style="stroke: #000000; stroke-width: 0.8"/>
      </g>
     </g>
     <g id="text_11">
      <!-- 1.14 -->
      <g transform="translate(129.584723 413.241947) scale(0.1 -0.1)">
       <use xlink:href="#DejaVuSans-31"/>
       <use xlink:href="#DejaVuSans-2e" transform="translate(63.623047 0)"/>
       <use xlink:href="#DejaVuSans-31" transform="translate(95.410156 0)"/>
       <use xlink:href="#DejaVuSans-34" transform="translate(159.033203 0)"/>
      </g>
     </g>
    </g>
    <g id="xtick_7">
     <g id="line2d_29">
      <path d="M 300.780252 398.64351 
L 300.780252 213.131177 
" clip-path="url(#pd54e1d8bd5)" style="fill: none; stroke: #b0b0b0; stroke-opacity: 0.3; stroke-width: 0.8; stroke-linecap: square"/>
     </g>
     <g id="line2d_30">
      <g>
       <use xlink:href="#mb49bdb0d5b" x="300.780252" y="398.64351" style="stroke: #000000; stroke-width: 0.8"/>
      </g>
     </g>
     <g id="text_12">
      <!-- 1.16 -->
      <g transform="translate(289.64744 413.241947) scale(0.1 -0.1)">
       <defs>
        <path id="DejaVuSans-36" d="M 2113 2584 
Q 1688 2584 1439 2293 
Q 1191 2003 1191 1497 
Q 1191 994 1439 701 
Q 1688 409 2113 409 
Q 2538 409 2786 701 
Q 3034 994 3034 1497 
Q 3034 2003 2786 2293 
Q 2538 2584 2113 2584 
z
M 3366 4563 
L 3366 3988 
Q 3128 4100 2886 4159 
Q 2644 4219 2406 4219 
Q 1781 4219 1451 3797 
Q 1122 3375 1075 2522 
Q 1259 2794 1537 2939 
Q 1816 3084 2150 3084 
Q 2853 3084 3261 2657 
Q 3669 2231 3669 1497 
Q 3669 778 3244 343 
Q 2819 -91 2113 -91 
Q 1303 -91 875 529 
Q 447 1150 447 2328 
Q 447 3434 972 4092 
Q 1497 4750 2381 4750 
Q 2619 4750 2861 4703 
Q 3103 4656 3366 4563 
z
" transform="scale(0.015625)"/>
       </defs>
       <use xlink:href="#DejaVuSans-31"/>
       <use xlink:href="#DejaVuSans-2e" transform="translate(63.623047 0)"/>
       <use xlink:href="#DejaVuSans-31" transform="translate(95.410156 0)"/>
       <use xlink:href="#DejaVuSans-36" transform="translate(159.033203 0)"/>
      </g>
     </g>
    </g>
    <g id="xtick_8">
     <g id="line2d_31">
      <path d="M 460.842969 398.64351 
L 460.842969 213.131177 
" clip-path="url(#pd54e1d8bd5)" style="fill: none; stroke: #b0b0b0; stroke-opacity: 0.3; stroke-width: 0.8; stroke-linecap: square"/>
     </g>
     <g id="line2d_32">
      <g>
       <use xlink:href="#mb49bdb0d5b" x="460.842969" y="398.64351" style="stroke: #000000; stroke-width: 0.8"/>
      </g>
     </g>
     <g id="text_13">
      <!-- 1.18 -->
      <g transform="translate(449.710156 413.241947) scale(0.1 -0.1)">
       <use xlink:href="#DejaVuSans-31"/>
       <use xlink:href="#DejaVuSans-2e" transform="translate(63.623047 0)"/>
       <use xlink:href="#DejaVuSans-31" transform="translate(95.410156 0)"/>
       <use xlink:href="#DejaVuSans-38" transform="translate(159.033203 0)"/>
      </g>
     </g>
    </g>
    <g id="xtick_9">
     <g id="line2d_33">
      <path d="M 620.905685 398.64351 
L 620.905685 213.131177 
" clip-path="url(#pd54e1d8bd5)" style="fill: none; stroke: #b0b0b0; stroke-opacity: 0.3; stroke-width: 0.8; stroke-linecap: square"/>
     </g>
     <g id="line2d_34">
      <g>
       <use xlink:href="#mb49bdb0d5b" x="620.905685" y="398.64351" style="stroke: #000000; stroke-width: 0.8"/>
      </g>
     </g>
     <g id="text_14">
      <!-- 1.20 -->
      <g transform="translate(609.772873 413.241947) scale(0.1 -0.1)">
       <use xlink:href="#DejaVuSans-31"/>
       <use xlink:href="#DejaVuSans-2e" transform="translate(63.623047 0)"/>
       <use xlink:href="#DejaVuSans-32" transform="translate(95.410156 0)"/>
       <use xlink:href="#DejaVuSans-30" transform="translate(159.033203 0)"/>
      </g>
     </g>
    </g>
    <g id="xtick_10">
     <g id="line2d_35">
      <path d="M 780.968402 398.64351 
L 780.968402 213.131177 
" clip-path="url(#pd54e1d8bd5)" style="fill: none; stroke: #b0b0b0; stroke-opacity: 0.3; stroke-width: 0.8; stroke-linecap: square"/>
     </g>
     <g id="line2d_36">
      <g>
       <use xlink:href="#mb49bdb0d5b" x="780.968402" y="398.64351" style="stroke: #000000; stroke-width: 0.8"/>
      </g>
     </g>
     <g id="text_15">
      <!-- 1.22 -->
      <g transform="translate(769.835589 413.241947) scale(0.1 -0.1)">
       <use xlink:href="#DejaVuSans-31"/>
       <use xlink:href="#DejaVuSans-2e" transform="translate(63.623047 0)"/>
       <use xlink:href="#DejaVuSans-32" transform="translate(95.410156 0)"/>
       <use xlink:href="#DejaVuSans-32" transform="translate(159.033203 0)"/>
      </g>
     </g>
    </g>
    <g id="text_16">
     <!-- Time (ms) -->
     <g transform="translate(435.64375 426.920073) scale(0.1 -0.1)">
      <use xlink:href="#DejaVuSans-54"/>
      <use xlink:href="#DejaVuSans-69" transform="translate(57.958984 0)"/>
      <use xlink:href="#DejaVuSans-6d" transform="translate(85.742188 0)"/>
      <use xlink:href="#DejaVuSans-65" transform="translate(183.154297 0)"/>
      <use xlink:href="#DejaVuSans-20" transform="translate(244.677734 0)"/>
      <use xlink:href="#DejaVuSans-28" transform="translate(276.464844 0)"/>
      <use xlink:href="#DejaVuSans-6d" transform="translate(315.478516 0)"/>
      <use xlink:href="#DejaVuSans-73" transform="translate(412.890625 0)"/>
      <use xlink:href="#DejaVuSans-29" transform="translate(464.990234 0)"/>
     </g>
    </g>
   </g>
   <g id="matplotlib.axis_4">
    <g id="ytick_6">
     <g id="line2d_37">
      <path d="M 60.686177 386.617325 
L 860.99976 386.617325 
" clip-path="url(#pd54e1d8bd5)" style="fill: none; stroke: #b0b0b0; stroke-opacity: 0.3; stroke-width: 0.8; stroke-linecap: square"/>
     </g>
     <g id="line2d_38">
      <g>
       <use xlink:href="#mcf570effaa" x="60.686177" y="386.617325" style="stroke: #000000; stroke-width: 0.8"/>
      </g>
     </g>
     <g id="text_17">
      <!-- −3 -->
      <g transform="translate(38.94399 390.416543) scale(0.1 -0.1)">
       <use xlink:href="#DejaVuSans-2212"/>
       <use xlink:href="#DejaVuSans-33" transform="translate(83.789062 0)"/>
      </g>
     </g>
    </g>
    <g id="ytick_7">
     <g id="line2d_39">
      <path d="M 60.686177 359.541549 
L 860.99976 359.541549 
" clip-path="url(#pd54e1d8bd5)" style="fill: none; stroke: #b0b0b0; stroke-opacity: 0.3; stroke-width: 0.8; stroke-linecap: square"/>
     </g>
     <g id="line2d_40">
      <g>
       <use xlink:href="#mcf570effaa" x="60.686177" y="359.541549" style="stroke: #000000; stroke-width: 0.8"/>
      </g>
     </g>
     <g id="text_18">
      <!-- −2 -->
      <g transform="translate(38.94399 363.340767) scale(0.1 -0.1)">
       <use xlink:href="#DejaVuSans-2212"/>
       <use xlink:href="#DejaVuSans-32" transform="translate(83.789062 0)"/>
      </g>
     </g>
    </g>
    <g id="ytick_8">
     <g id="line2d_41">
      <path d="M 60.686177 332.465772 
L 860.99976 332.465772 
" clip-path="url(#pd54e1d8bd5)" style="fill: none; stroke: #b0b0b0; stroke-opacity: 0.3; stroke-width: 0.8; stroke-linecap: square"/>
     </g>
     <g id="line2d_42">
      <g>
       <use xlink:href="#mcf570effaa" x="60.686177" y="332.465772" style="stroke: #000000; stroke-width: 0.8"/>
      </g>
     </g>
     <g id="text_19">
      <!-- −1 -->
      <g transform="translate(38.94399 336.264991) scale(0.1 -0.1)">
       <use xlink:href="#DejaVuSans-2212"/>
       <use xlink:href="#DejaVuSans-31" transform="translate(83.789062 0)"/>
      </g>
     </g>
    </g>
    <g id="ytick_9">
     <g id="line2d_43">
      <path d="M 60.686177 305.389996 
L 860.99976 305.389996 
" clip-path="url(#pd54e1d8bd5)" style="fill: none; stroke: #b0b0b0; stroke-opacity: 0.3; stroke-width: 0.8; stroke-linecap: square"/>
     </g>
     <g id="line2d_44">
      <g>
       <use xlink:href="#mcf570effaa" x="60.686177" y="305.389996" style="stroke: #000000; stroke-width: 0.8"/>
      </g>
     </g>
     <g id="text_20">
      <!-- 0 -->
      <g transform="translate(47.323678 309.189215) scale(0.1 -0.1)">
       <use xlink:href="#DejaVuSans-30"/>
      </g>
     </g>
    </g>
    <g id="ytick_10">
     <g id="line2d_45">
      <path d="M 60.686177 278.31422 
L 860.99976 278.31422 
" clip-path="url(#pd54e1d8bd5)" style="fill: none; stroke: #b0b0b0; stroke-opacity: 0.3; stroke-width: 0.8; stroke-linecap: square"/>
     </g>
     <g id="line2d_46">
      <g>
       <use xlink:href="#mcf570effaa" x="60.686177" y="278.31422" style="stroke: #000000; stroke-width: 0.8"/>
      </g>
     </g>
     <g id="text_21">
      <!-- 1 -->
      <g transform="translate(47.323678 282.113439) scale(0.1 -0.1)">
       <use xlink:href="#DejaVuSans-31"/>
      </g>
     </g>
    </g>
    <g id="ytick_11">
     <g id="line2d_47">
      <path d="M 60.686177 251.238444 
L 860.99976 251.238444 
" clip-path="url(#pd54e1d8bd5)" style="fill: none; stroke: #b0b0b0; stroke-opacity: 0.3; stroke-width: 0.8; stroke-linecap: square"/>
     </g>
     <g id="line2d_48">
      <g>
       <use xlink:href="#mcf570effaa" x="60.686177" y="251.238444" style="stroke: #000000; stroke-width: 0.8"/>
      </g>
     </g>
     <g id="text_22">
      <!-- 2 -->
      <g transform="translate(47.323678 255.037663) scale(0.1 -0.1)">
       <use xlink:href="#DejaVuSans-32"/>
      </g>
     </g>
    </g>
    <g id="ytick_12">
     <g id="line2d_49">
      <path d="M 60.686177 224.162668 
L 860.99976 224.162668 
" clip-path="url(#pd54e1d8bd5)" style="fill: none; stroke: #b0b0b0; stroke-opacity: 0.3; stroke-width: 0.8; stroke-linecap: square"/>
     </g>
     <g id="line2d_50">
      <g>
       <use xlink:href="#mcf570effaa" x="60.686177" y="224.162668" style="stroke: #000000; stroke-width: 0.8"/>
      </g>
     </g>
     <g id="text_23">
      <!-- 3 -->
      <g transform="translate(47.323678 227.961887) scale(0.1 -0.1)">
       <use xlink:href="#DejaVuSans-33"/>
      </g>
     </g>
    </g>
    <g id="text_24">
     <!-- FM -->
     <g transform="translate(32.864303 313.077187) rotate(-90) scale(0.1 -0.1)">
      <defs>
       <path id="DejaVuSans-46" d="M 628 4666 
L 3309 4666 
L 3309 4134 
L 1259 4134 
L 1259 2759 
L 3109 2759 
L 3109 2228 
L 1259 2228 
L 1259 0 
L 628 0 
L 628 4666 
z
" transform="scale(0.015625)"/>
       <path id="DejaVuSans-4d" d="M 628 4666 
L 1569 4666 
L 2759 1491 
L 3956 4666 
L 4897 4666 
L 4897 0 
L 4281 0 
L 4281 4097 
L 3078 897 
L 2444 897 
L 1241 4097 
L 1241 0 
L 628 0 
L 628 4666 
z
" transform="scale(0.015625)"/>
      </defs>
      <use xlink:href="#DejaVuSans-46"/>
      <use xlink:href="#DejaVuSans-4d" transform="translate(57.519531 0)"/>
     </g>
    </g>
   </g>
   <g id="line2d_51">
    <path d="M 64.687745 376.771539 
L 68.689313 334.694734 
L 72.690881 314.318642 
L 76.692449 323.113519 
L 80.694017 332.989174 
L 84.695585 311.983522 
L 88.697153 362.423935 
L 92.698721 327.288593 
L 96.700289 321.779814 
L 100.701857 348.8331 
L 104.703425 350.581601 
L 108.704992 302.631282 
L 112.70656 272.136511 
L 116.708128 300.073071 
L 120.709696 358.843697 
L 124.711264 318.031079 
L 128.712832 226.433796 
L 132.7144 304.328734 
L 136.715968 298.861321 
L 140.717536 323.15912 
L 144.719104 344.848356 
L 148.720672 311.036894 
L 152.722239 387.096778 
L 156.723807 304.479273 
L 160.725375 245.722384 
L 164.726943 280.287755 
L 168.728511 256.828457 
L 172.730079 273.757867 
L 176.731647 285.233316 
L 180.733215 390.211131 
L 184.734783 291.333252 
L 188.736351 377.660837 
L 192.737919 369.356187 
L 196.739487 302.320082 
L 200.741054 221.563556 
L 204.742622 291.606443 
L 208.74419 292.443833 
L 212.745758 308.500451 
L 216.747326 322.277833 
L 220.748894 300.926393 
L 224.750462 288.739304 
L 228.75203 313.281684 
L 232.753598 321.718592 
L 236.755166 297.85542 
L 240.756734 288.853693 
L 244.758301 313.649227 
L 248.759869 320.753953 
L 252.761437 299.852401 
L 256.763005 289.7521 
L 260.764573 312.214043 
L 264.766141 322.108496 
L 268.767709 299.862549 
L 272.769277 288.565474 
L 276.770845 312.829188 
L 280.772413 321.757169 
L 284.773981 299.765202 
L 288.775549 289.190018 
L 292.777116 311.822048 
L 296.778684 321.056064 
L 300.780252 300.122829 
L 304.78182 289.355301 
L 308.783388 312.348831 
L 312.784956 321.836312 
L 316.786524 299.107245 
L 320.788092 289.737691 
L 324.78966 313.055178 
L 328.791228 321.263643 
L 332.792796 299.467584 
L 336.794363 289.974474 
L 340.795931 310.485373 
L 344.797499 326.079761 
L 348.799067 327.232896 
L 352.800635 323.367112 
L 356.802203 299.370701 
L 360.803771 288.228736 
L 364.805339 313.700611 
L 368.806907 321.516022 
L 372.808475 299.816148 
L 376.810043 284.253262 
L 380.81161 286.46766 
L 384.813178 283.254255 
L 388.814746 284.503369 
L 392.816314 289.996061 
L 396.817882 311.861761 
L 400.81945 321.964903 
L 404.821018 299.207432 
L 408.822586 288.823585 
L 412.824154 313.803897 
L 416.825722 323.25484 
L 420.82729 298.140334 
L 424.828858 288.172084 
L 428.830425 312.68668 
L 432.831993 326.917668 
L 436.833561 325.894827 
L 440.835129 323.625559 
L 444.836697 299.199273 
L 448.838265 284.312832 
L 452.839833 285.112265 
L 456.841401 288.204774 
L 460.842969 313.157508 
L 464.844537 325.70158 
L 468.846105 327.172526 
L 472.847672 326.460989 
L 480.850808 327.666594 
L 484.852376 324.970161 
L 488.853944 328.715849 
L 492.855512 327.856743 
L 496.85708 320.593214 
L 500.858648 299.774807 
L 504.860216 290.321928 
L 508.861784 311.359146 
L 512.863352 322.097987 
L 516.86492 300.030182 
L 520.866487 289.680523 
L 524.868055 311.545164 
L 528.869623 321.852941 
L 532.871191 299.883826 
L 536.872759 289.884254 
L 540.874327 311.247907 
L 544.875895 321.875457 
L 548.877463 300.726432 
L 552.879031 289.235102 
L 556.880599 311.237475 
L 560.882167 327.209967 
L 564.883734 327.239971 
L 568.885302 322.132949 
L 572.88687 299.511222 
L 576.888438 284.472745 
L 580.890006 284.698063 
L 584.891574 284.15385 
L 588.893142 284.880208 
L 592.89471 288.991193 
L 596.896278 311.483192 
L 600.897846 322.078466 
L 604.899414 300.422771 
L 608.900982 287.887634 
L 612.902549 313.780529 
L 616.904117 321.56152 
L 620.905685 298.697587 
L 624.907253 285.990634 
L 628.908821 285.013446 
L 632.910389 287.561044 
L 636.911957 313.346754 
L 640.913525 321.463114 
L 644.915093 298.927915 
L 648.916661 290.035026 
L 652.918229 313.279566 
L 656.919796 325.22476 
L 660.921364 327.141385 
L 664.922932 322.396844 
L 668.9245 299.597311 
L 672.926068 289.600373 
L 676.927636 311.725088 
L 680.929204 326.142817 
L 684.930772 327.006184 
L 688.93234 323.217347 
L 692.933908 299.076233 
L 696.935476 289.998127 
L 700.937043 312.168236 
L 704.938611 327.082873 
L 708.940179 325.935419 
L 712.941747 326.80772 
L 716.943315 326.648866 
L 720.944883 328.177291 
L 724.946451 325.818499 
L 728.948019 322.265413 
L 732.949587 300.60693 
L 736.951155 283.803039 
L 740.952723 284.703847 
L 744.954291 284.078606 
L 748.955858 286.006024 
L 752.957426 284.042094 
L 756.958994 284.242985 
L 760.960562 289.990793 
L 764.96213 312.156307 
L 768.963698 320.579736 
L 772.965266 300.427419 
L 776.966834 289.059671 
L 780.968402 311.211912 
L 784.96997 326.924071 
L 788.971538 328.027526 
L 792.973105 321.392389 
L 796.974673 300.42964 
L 800.976241 285.369679 
L 804.977809 285.012207 
L 808.979377 284.842302 
L 812.980945 284.483125 
L 816.982513 289.778283 
L 820.984081 310.706586 
L 824.985649 326.837673 
L 828.987217 326.540416 
L 832.988785 327.625021 
L 836.990353 326.97401 
L 840.99192 325.844579 
L 844.993488 326.26583 
L 848.995056 326.192239 
L 852.996624 329.471101 
L 856.998192 323.551322 
L 860.99976 325.278366 
L 860.99976 325.278366 
" clip-path="url(#pd54e1d8bd5)" style="fill: none; stroke: #2ca02c; stroke-width: 1.5; stroke-linecap: square"/>
   </g>
   <g id="patch_9">
    <path d="M 60.686177 398.64351 
L 60.686177 213.131178 
" style="fill: none; stroke: #000000; stroke-width: 0.8; stroke-linejoin: miter; stroke-linecap: square"/>
   </g>
   <g id="patch_10">
    <path d="M 860.99976 398.64351 
L 860.99976 213.131178 
" style="fill: none; stroke: #000000; stroke-width: 0.8; stroke-linejoin: miter; stroke-linecap: square"/>
   </g>
   <g id="patch_11">
    <path d="M 60.686177 398.64351 
L 860.99976 398.64351 
" style="fill: none; stroke: #000000; stroke-width: 0.8; stroke-linejoin: miter; stroke-linecap: square"/>
   </g>
   <g id="patch_12">
    <path d="M 60.686177 213.131177 
L 860.99976 213.131177 
" style="fill: none; stroke: #000000; stroke-width: 0.8; stroke-linejoin: miter; stroke-linecap: square"/>
   </g>
   <g id="legend_2">
    <g id="patch_13">
     <path d="M 760.121635 235.809302 
L 853.99976 235.809302 
Q 855.99976 235.809302 855.99976 233.809302 
L 855.99976 220.131177 
Q 855.99976 218.131177 853.99976 218.131177 
L 760.121635 218.131177 
Q 758.121635 218.131177 758.121635 220.131177 
L 758.121635 233.809302 
Q 758.121635 235.809302 760.121635 235.809302 
z
" style="fill: #ffffff; opacity: 0.8; stroke: #cccccc; stroke-linejoin: miter"/>
    </g>
    <g id="line2d_52">
     <path d="M 762.121635 226.229615 
L 772.121635 226.229615 
L 782.121635 226.229615 
" style="fill: none; stroke: #2ca02c; stroke-width: 1.5; stroke-linecap: square"/>
    </g>
    <g id="text_25">
     <!-- FM Decoded -->
     <g transform="translate(790.121635 229.729615) scale(0.1 -0.1)">
      <defs>
       <path id="DejaVuSans-44" d="M 1259 4147 
L 1259 519 
L 2022 519 
Q 2988 519 3436 956 
Q 3884 1394 3884 2338 
Q 3884 3275 3436 3711 
Q 2988 4147 2022 4147 
L 1259 4147 
z
M 628 4666 
L 1925 4666 
Q 3281 4666 3915 4102 
Q 4550 3538 4550 2338 
Q 4550 1131 3912 565 
Q 3275 0 1925 0 
L 628 0 
L 628 4666 
z
" transform="scale(0.015625)"/>
       <path id="DejaVuSans-63" d="M 3122 3366 
L 3122 2828 
Q 2878 2963 2633 3030 
Q 2388 3097 2138 3097 
Q 1578 3097 1268 2742 
Q 959 2388 959 1747 
Q 959 1106 1268 751 
Q 1578 397 2138 397 
Q 2388 397 2633 464 
Q 2878 531 3122 666 
L 3122 134 
Q 2881 22 2623 -34 
Q 2366 -91 2075 -91 
Q 1284 -91 818 406 
Q 353 903 353 1747 
Q 353 2603 823 3093 
Q 1294 3584 2113 3584 
Q 2378 3584 2631 3529 
Q 2884 3475 3122 3366 
z
" transform="scale(0.015625)"/>
      </defs>
      <use xlink:href="#DejaVuSans-46"/>
      <use xlink:href="#DejaVuSans-4d" transform="translate(57.519531 0)"/>
      <use xlink:href="#DejaVuSans-20" transform="translate(143.798828 0)"/>
      <use xlink:href="#DejaVuSans-44" transform="translate(175.585938 0)"/>
      <use xlink:href="#DejaVuSans-65" transform="translate(252.587891 0)"/>
      <use xlink:href="#DejaVuSans-63" transform="translate(314.111328 0)"/>
      <use xlink:href="#DejaVuSans-6f" transform="translate(369.091797 0)"/>
      <use xlink:href="#DejaVuSans-64" transform="translate(430.273438 0)"/>
      <use xlink:href="#DejaVuSans-65" transform="translate(493.75 0)"/>
      <use xlink:href="#DejaVuSans-64" transform="translate(555.273438 0)"/>
     </g>
    </g>
   </g>
  </g>
 </g>
 <defs>
  <clipPath id="pa614a677ab">
   <rect x="60.686177" y="18.118365" width="800.313583" height="185.512333"/>
  </clipPath>
  <clipPath id="pd54e1d8bd5">
   <rect x="60.686177" y="213.131177" width="800.313583" height="185.512333"/>
  </clipPath>
 </defs>
</svg>
