<?xml version="1.0" encoding="utf-8" standalone="no"?>
<!DOCTYPE svg PUBLIC "-//W3C//DTD SVG 1.1//EN"
  "http://www.w3.org/Graphics/SVG/1.1/DTD/svg11.dtd">
<svg xmlns:xlink="http://www.w3.org/1999/xlink" width="576pt" height="288pt" viewBox="0 0 576 288" xmlns="http://www.w3.org/2000/svg" version="1.1">
 <metadata>
  <rdf:RDF xmlns:dc="http://purl.org/dc/elements/1.1/" xmlns:cc="http://creativecommons.org/ns#" xmlns:rdf="http://www.w3.org/1999/02/22-rdf-syntax-ns#">
   <cc:Work>
    <dc:type rdf:resource="http://purl.org/dc/dcmitype/StillImage"/>
    <dc:date>2026-02-07T08:24:09.979845</dc:date>
    <dc:format>image/svg+xml</dc:format>
    <dc:creator>
     <cc:Agent>
      <dc:title>Matplotlib v3.10.8, https://matplotlib.org/</dc:title>
     </cc:Agent>
    </dc:creator>
   </cc:Work>
  </rdf:RDF>
 </metadata>
 <defs>
  <style type="text/css">*{stroke-linejoin: round; stroke-linecap: butt}</style>
 </defs>
 <g id="figure_1">
  <g id="patch_1">
   <path d="M 0 288 
L 576 288 
L 576 0 
L 0 0 
z
" style="fill: #ffffff"/>
  </g>
  <g id="axes_1">
   <g id="patch_2">
    <path d="M 56.18 246.04 
L 565.2 246.04 
L 565.2 26.16 
L 56.18 26.16 
z
" style="fill: #ffffff"/>
   </g>
   <g id="matplotlib.axis_1">
    <g id="xtick_1">
     <g id="line2d_1">
      <path d="M 56.18 246.04 
L 56.18 26.16 
" clip-path="url(#pb5c7ffef35)" style="fill: none; stroke: #b0b0b0; stroke-width: 0.8; stroke-linecap: square"/>
     </g>
     <g id="line2d_2">
      <defs>
       <path id="m8eb91f86f8" d="M 0 0 
L 0 3.5 
" style="stroke: #000000; stroke-width: 0.8"/>
      </defs>
      <g>
       <use xlink:href="#m8eb91f86f8" x="56.18" y="246.04" style="stroke: #000000; stroke-width: 0.8"/>
      </g>
     </g>
     <g id="text_1">
      <!-- 0.0 -->
      <g transform="translate(48.228438 260.638438) scale(0.1 -0.1)">
       <defs>
        <path id="DejaVuSans-30" d="M 2034 4250 
Q 1547 4250 1301 3770 
Q 1056 3291 1056 2328 
Q 1056 1369 1301 889 
Q 1547 409 2034 409 
Q 2525 409 2770 889 
Q 3016 1369 3016 2328 
Q 3016 3291 2770 3770 
Q 2525 4250 2034 4250 
z
M 2034 4750 
Q 2819 4750 3233 4129 
Q 3647 3509 3647 2328 
Q 3647 1150 3233 529 
Q 2819 -91 2034 -91 
Q 1250 -91 836 529 
Q 422 1150 422 2328 
Q 422 3509 836 4129 
Q 1250 4750 2034 4750 
z
" transform="scale(0.015625)"/>
        <path id="DejaVuSans-2e" d="M 684 794 
L 1344 794 
L 1344 0 
L 684 0 
L 684 794 
z
" transform="scale(0.015625)"/>
       </defs>
       <use xlink:href="#DejaVuSans-30"/>
       <use xlink:href="#DejaVuSans-2e" transform="translate(63.623047 0)"/>
       <use xlink:href="#DejaVuSans-30" transform="translate(95.410156 0)"/>
      </g>
     </g>
    </g>
    <g id="xtick_2">
     <g id="line2d_3">
      <path d="M 126.292948 246.04 
L 126.292948 26.16 
" clip-path="url(#pb5c7ffef35)" style="fill: none; stroke: #b0b0b0; stroke-width: 0.8; stroke-linecap: square"/>
     </g>
     <g id="line2d_4">
      <g>
       <use xlink:href="#m8eb91f86f8" x="126.292948" y="246.04" style="stroke: #000000; stroke-width: 0.8"/>
      </g>
     </g>
     <g id="text_2">
      <!-- 0.5 -->
      <g transform="translate(118.341385 260.638438) scale(0.1 -0.1)">
       <defs>
        <path id="DejaVuSans-35" d="M 691 4666 
L 3169 4666 
L 3169 4134 
L 1269 4134 
L 1269 2991 
Q 1406 3038 1543 3061 
Q 1681 3084 1819 3084 
Q 2600 3084 3056 2656 
Q 3513 2228 3513 1497 
Q 3513 744 3044 326 
Q 2575 -91 1722 -91 
Q 1428 -91 1123 -41 
Q 819 9 494 109 
L 494 744 
Q 775 591 1075 516 
Q 1375 441 1709 441 
Q 2250 441 2565 725 
Q 2881 1009 2881 1497 
Q 2881 1984 2565 2268 
Q 2250 2553 1709 2553 
Q 1456 2553 1204 2497 
Q 953 2441 691 2322 
L 691 4666 
z
" transform="scale(0.015625)"/>
       </defs>
       <use xlink:href="#DejaVuSans-30"/>
       <use xlink:href="#DejaVuSans-2e" transform="translate(63.623047 0)"/>
       <use xlink:href="#DejaVuSans-35" transform="translate(95.410156 0)"/>
      </g>
     </g>
    </g>
    <g id="xtick_3">
     <g id="line2d_5">
      <path d="M 196.405895 246.04 
L 196.405895 26.16 
" clip-path="url(#pb5c7ffef35)" style="fill: none; stroke: #b0b0b0; stroke-width: 0.8; stroke-linecap: square"/>
     </g>
     <g id="line2d_6">
      <g>
       <use xlink:href="#m8eb91f86f8" x="196.405895" y="246.04" style="stroke: #000000; stroke-width: 0.8"/>
      </g>
     </g>
     <g id="text_3">
      <!-- 1.0 -->
      <g transform="translate(188.454333 260.638438) scale(0.1 -0.1)">
       <defs>
        <path id="DejaVuSans-31" d="M 794 531 
L 1825 531 
L 1825 4091 
L 703 3866 
L 703 4441 
L 1819 4666 
L 2450 4666 
L 2450 531 
L 3481 531 
L 3481 0 
L 794 0 
L 794 531 
z
" transform="scale(0.015625)"/>
       </defs>
       <use xlink:href="#DejaVuSans-31"/>
       <use xlink:href="#DejaVuSans-2e" transform="translate(63.623047 0)"/>
       <use xlink:href="#DejaVuSans-30" transform="translate(95.410156 0)"/>
      </g>
     </g>
    </g>
    <g id="xtick_4">
     <g id="line2d_7">
      <path d="M 266.518843 246.04 
L 266.518843 26.16 
" clip-path="url(#pb5c7ffef35)" style="fill: none; stroke: #b0b0b0; stroke-width: 0.8; stroke-linecap: square"/>
     </g>
     <g id="line2d_8">
      <g>
       <use xlink:href="#m8eb91f86f8" x="266.518843" y="246.04" style="stroke: #000000; stroke-width: 0.8"/>
      </g>
     </g>
     <g id="text_4">
      <!-- 1.5 -->
      <g transform="translate(258.56728 260.638438) scale(0.1 -0.1)">
       <use xlink:href="#DejaVuSans-31"/>
       <use xlink:href="#DejaVuSans-2e" transform="translate(63.623047 0)"/>
       <use xlink:href="#DejaVuSans-35" transform="translate(95.410156 0)"/>
      </g>
     </g>
    </g>
    <g id="xtick_5">
     <g id="line2d_9">
      <path d="M 336.631791 246.04 
L 336.631791 26.16 
" clip-path="url(#pb5c7ffef35)" style="fill: none; stroke: #b0b0b0; stroke-width: 0.8; stroke-linecap: square"/>
     </g>
     <g id="line2d_10">
      <g>
       <use xlink:href="#m8eb91f86f8" x="336.631791" y="246.04" style="stroke: #000000; stroke-width: 0.8"/>
      </g>
     </g>
     <g id="text_5">
      <!-- 2.0 -->
      <g transform="translate(328.680228 260.638438) scale(0.1 -0.1)">
       <defs>
        <path id="DejaVuSans-32" d="M 1228 531 
L 3431 531 
L 3431 0 
L 469 0 
L 469 531 
Q 828 903 1448 1529 
Q 2069 2156 2228 2338 
Q 2531 2678 2651 2914 
Q 2772 3150 2772 3378 
Q 2772 3750 2511 3984 
Q 2250 4219 1831 4219 
Q 1534 4219 1204 4116 
Q 875 4013 500 3803 
L 500 4441 
Q 881 4594 1212 4672 
Q 1544 4750 1819 4750 
Q 2544 4750 2975 4387 
Q 3406 4025 3406 3419 
Q 3406 3131 3298 2873 
Q 3191 2616 2906 2266 
Q 2828 2175 2409 1742 
Q 1991 1309 1228 531 
z
" transform="scale(0.015625)"/>
       </defs>
       <use xlink:href="#DejaVuSans-32"/>
       <use xlink:href="#DejaVuSans-2e" transform="translate(63.623047 0)"/>
       <use xlink:href="#DejaVuSans-30" transform="translate(95.410156 0)"/>
      </g>
     </g>
    </g>
    <g id="xtick_6">
     <g id="line2d_11">
      <path d="M 406.744738 246.04 
L 406.744738 26.16 
" clip-path="url(#pb5c7ffef35)" style="fill: none; stroke: #b0b0b0; stroke-width: 0.8; stroke-linecap: square"/>
     </g>
     <g id="line2d_12">
      <g>
       <use xlink:href="#m8eb91f86f8" x="406.744738" y="246.04" style="stroke: #000000; stroke-width: 0.8"/>
      </g>
     </g>
     <g id="text_6">
      <!-- 2.5 -->
      <g transform="translate(398.793176 260.638438) scale(0.1 -0.1)">
       <use xlink:href="#DejaVuSans-32"/>
       <use xlink:href="#DejaVuSans-2e" transform="translate(63.623047 0)"/>
       <use xlink:href="#DejaVuSans-35" transform="translate(95.410156 0)"/>
      </g>
     </g>
    </g>
    <g id="xtick_7">
     <g id="line2d_13">
      <path d="M 476.857686 246.04 
L 476.857686 26.16 
" clip-path="url(#pb5c7ffef35)" style="fill: none; stroke: #b0b0b0; stroke-width: 0.8; stroke-linecap: square"/>
     </g>
     <g id="line2d_14">
      <g>
       <use xlink:href="#m8eb91f86f8" x="476.857686" y="246.04" style="stroke: #000000; stroke-width: 0.8"/>
      </g>
     </g>
     <g id="text_7">
      <!-- 3.0 -->
      <g transform="translate(468.906123 260.638438) scale(0.1 -0.1)">
       <defs>
        <path id="DejaVuSans-33" d="M 2597 2516 
Q 3050 2419 3304 2112 
Q 3559 1806 3559 1356 
Q 3559 666 3084 287 
Q 2609 -91 1734 -91 
Q 1441 -91 1130 -33 
Q 819 25 488 141 
L 488 750 
Q 750 597 1062 519 
Q 1375 441 1716 441 
Q 2309 441 2620 675 
Q 2931 909 2931 1356 
Q 2931 1769 2642 2001 
Q 2353 2234 1838 2234 
L 1294 2234 
L 1294 2753 
L 1863 2753 
Q 2328 2753 2575 2939 
Q 2822 3125 2822 3475 
Q 2822 3834 2567 4026 
Q 2313 4219 1838 4219 
Q 1578 4219 1281 4162 
Q 984 4106 628 3988 
L 628 4550 
Q 988 4650 1302 4700 
Q 1616 4750 1894 4750 
Q 2613 4750 3031 4423 
Q 3450 4097 3450 3541 
Q 3450 3153 3228 2886 
Q 3006 2619 2597 2516 
z
" transform="scale(0.015625)"/>
       </defs>
       <use xlink:href="#DejaVuSans-33"/>
       <use xlink:href="#DejaVuSans-2e" transform="translate(63.623047 0)"/>
       <use xlink:href="#DejaVuSans-30" transform="translate(95.410156 0)"/>
      </g>
     </g>
    </g>
    <g id="xtick_8">
     <g id="line2d_15">
      <path d="M 546.970634 246.04 
L 546.970634 26.16 
" clip-path="url(#pb5c7ffef35)" style="fill: none; stroke: #b0b0b0; stroke-width: 0.8; stroke-linecap: square"/>
     </g>
     <g id="line2d_16">
      <g>
       <use xlink:href="#m8eb91f86f8" x="546.970634" y="246.04" style="stroke: #000000; stroke-width: 0.8"/>
      </g>
     </g>
     <g id="text_8">
      <!-- 3.5 -->
      <g transform="translate(539.019071 260.638438) scale(0.1 -0.1)">
       <use xlink:href="#DejaVuSans-33"/>
       <use xlink:href="#DejaVuSans-2e" transform="translate(63.623047 0)"/>
       <use xlink:href="#DejaVuSans-35" transform="translate(95.410156 0)"/>
      </g>
     </g>
    </g>
    <g id="text_9">
     <!-- Time (us) -->
     <g transform="translate(287.192344 274.316562) scale(0.1 -0.1)">
      <defs>
       <path id="DejaVuSans-54" d="M -19 4666 
L 3928 4666 
L 3928 4134 
L 2272 4134 
L 2272 0 
L 1638 0 
L 1638 4134 
L -19 4134 
L -19 4666 
z
" transform="scale(0.015625)"/>
       <path id="DejaVuSans-69" d="M 603 3500 
L 1178 3500 
L 1178 0 
L 603 0 
L 603 3500 
z
M 603 4863 
L 1178 4863 
L 1178 4134 
L 603 4134 
L 603 4863 
z
" transform="scale(0.015625)"/>
       <path id="DejaVuSans-6d" d="M 3328 2828 
Q 3544 3216 3844 3400 
Q 4144 3584 4550 3584 
Q 5097 3584 5394 3201 
Q 5691 2819 5691 2113 
L 5691 0 
L 5113 0 
L 5113 2094 
Q 5113 2597 4934 2840 
Q 4756 3084 4391 3084 
Q 3944 3084 3684 2787 
Q 3425 2491 3425 1978 
L 3425 0 
L 2847 0 
L 2847 2094 
Q 2847 2600 2669 2842 
Q 2491 3084 2119 3084 
Q 1678 3084 1418 2786 
Q 1159 2488 1159 1978 
L 1159 0 
L 581 0 
L 581 3500 
L 1159 3500 
L 1159 2956 
Q 1356 3278 1631 3431 
Q 1906 3584 2284 3584 
Q 2666 3584 2933 3390 
Q 3200 3197 3328 2828 
z
" transform="scale(0.015625)"/>
       <path id="DejaVuSans-65" d="M 3597 1894 
L 3597 1613 
L 953 1613 
Q 991 1019 1311 708 
Q 1631 397 2203 397 
Q 2534 397 2845 478 
Q 3156 559 3463 722 
L 3463 178 
Q 3153 47 2828 -22 
Q 2503 -91 2169 -91 
Q 1331 -91 842 396 
Q 353 884 353 1716 
Q 353 2575 817 3079 
Q 1281 3584 2069 3584 
Q 2775 3584 3186 3129 
Q 3597 2675 3597 1894 
z
M 3022 2063 
Q 3016 2534 2758 2815 
Q 2500 3097 2075 3097 
Q 1594 3097 1305 2825 
Q 1016 2553 972 2059 
L 3022 2063 
z
" transform="scale(0.015625)"/>
       <path id="DejaVuSans-20" transform="scale(0.015625)"/>
       <path id="DejaVuSans-28" d="M 1984 4856 
Q 1566 4138 1362 3434 
Q 1159 2731 1159 2009 
Q 1159 1288 1364 580 
Q 1569 -128 1984 -844 
L 1484 -844 
Q 1016 -109 783 600 
Q 550 1309 550 2009 
Q 550 2706 781 3412 
Q 1013 4119 1484 4856 
L 1984 4856 
z
" transform="scale(0.015625)"/>
       <path id="DejaVuSans-75" d="M 544 1381 
L 544 3500 
L 1119 3500 
L 1119 1403 
Q 1119 906 1312 657 
Q 1506 409 1894 409 
Q 2359 409 2629 706 
Q 2900 1003 2900 1516 
L 2900 3500 
L 3475 3500 
L 3475 0 
L 2900 0 
L 2900 538 
Q 2691 219 2414 64 
Q 2138 -91 1772 -91 
Q 1169 -91 856 284 
Q 544 659 544 1381 
z
M 1991 3584 
L 1991 3584 
z
" transform="scale(0.015625)"/>
       <path id="DejaVuSans-73" d="M 2834 3397 
L 2834 2853 
Q 2591 2978 2328 3040 
Q 2066 3103 1784 3103 
Q 1356 3103 1142 2972 
Q 928 2841 928 2578 
Q 928 2378 1081 2264 
Q 1234 2150 1697 2047 
L 1894 2003 
Q 2506 1872 2764 1633 
Q 3022 1394 3022 966 
Q 3022 478 2636 193 
Q 2250 -91 1575 -91 
Q 1294 -91 989 -36 
Q 684 19 347 128 
L 347 722 
Q 666 556 975 473 
Q 1284 391 1588 391 
Q 1994 391 2212 530 
Q 2431 669 2431 922 
Q 2431 1156 2273 1281 
Q 2116 1406 1581 1522 
L 1381 1569 
Q 847 1681 609 1914 
Q 372 2147 372 2553 
Q 372 3047 722 3315 
Q 1072 3584 1716 3584 
Q 2034 3584 2315 3537 
Q 2597 3491 2834 3397 
z
" transform="scale(0.015625)"/>
       <path id="DejaVuSans-29" d="M 513 4856 
L 1013 4856 
Q 1481 4119 1714 3412 
Q 1947 2706 1947 2009 
Q 1947 1309 1714 600 
Q 1481 -109 1013 -844 
L 513 -844 
Q 928 -128 1133 580 
Q 1338 1288 1338 2009 
Q 1338 2731 1133 3434 
Q 928 4138 513 4856 
z
" transform="scale(0.015625)"/>
      </defs>
      <use xlink:href="#DejaVuSans-54"/>
      <use xlink:href="#DejaVuSans-69" transform="translate(57.958984 0)"/>
      <use xlink:href="#DejaVuSans-6d" transform="translate(85.742188 0)"/>
      <use xlink:href="#DejaVuSans-65" transform="translate(183.154297 0)"/>
      <use xlink:href="#DejaVuSans-20" transform="translate(244.677734 0)"/>
      <use xlink:href="#DejaVuSans-28" transform="translate(276.464844 0)"/>
      <use xlink:href="#DejaVuSans-75" transform="translate(315.478516 0)"/>
      <use xlink:href="#DejaVuSans-73" transform="translate(378.857422 0)"/>
      <use xlink:href="#DejaVuSans-29" transform="translate(430.957031 0)"/>
     </g>
    </g>
   </g>
   <g id="matplotlib.axis_2">
    <g id="ytick_1">
     <g id="line2d_17">
      <path d="M 56.18 231.369758 
L 565.2 231.369758 
" clip-path="url(#pb5c7ffef35)" style="fill: none; stroke: #b0b0b0; stroke-width: 0.8; stroke-linecap: square"/>
     </g>
     <g id="line2d_18">
      <defs>
       <path id="m99590bee67" d="M 0 0 
L -3.5 0 
" style="stroke: #000000; stroke-width: 0.8"/>
      </defs>
      <g>
       <use xlink:href="#m99590bee67" x="56.18" y="231.369758" style="stroke: #000000; stroke-width: 0.8"/>
      </g>
     </g>
     <g id="text_10">
      <!-- −0.6 -->
      <g transform="translate(24.897188 235.168977) scale(0.1 -0.1)">
       <defs>
        <path id="DejaVuSans-2212" d="M 678 2272 
L 4684 2272 
L 4684 1741 
L 678 1741 
L 678 2272 
z
" transform="scale(0.015625)"/>
        <path id="DejaVuSans-36" d="M 2113 2584 
Q 1688 2584 1439 2293 
Q 1191 2003 1191 1497 
Q 1191 994 1439 701 
Q 1688 409 2113 409 
Q 2538 409 2786 701 
Q 3034 994 3034 1497 
Q 3034 2003 2786 2293 
Q 2538 2584 2113 2584 
z
M 3366 4563 
L 3366 3988 
Q 3128 4100 2886 4159 
Q 2644 4219 2406 4219 
Q 1781 4219 1451 3797 
Q 1122 3375 1075 2522 
Q 1259 2794 1537 2939 
Q 1816 3084 2150 3084 
Q 2853 3084 3261 2657 
Q 3669 2231 3669 1497 
Q 3669 778 3244 343 
Q 2819 -91 2113 -91 
Q 1303 -91 875 529 
Q 447 1150 447 2328 
Q 447 3434 972 4092 
Q 1497 4750 2381 4750 
Q 2619 4750 2861 4703 
Q 3103 4656 3366 4563 
z
" transform="scale(0.015625)"/>
       </defs>
       <use xlink:href="#DejaVuSans-2212"/>
       <use xlink:href="#DejaVuSans-30" transform="translate(83.789062 0)"/>
       <use xlink:href="#DejaVuSans-2e" transform="translate(147.412109 0)"/>
       <use xlink:href="#DejaVuSans-36" transform="translate(179.199219 0)"/>
      </g>
     </g>
    </g>
    <g id="ytick_2">
     <g id="line2d_19">
      <path d="M 56.18 200.501529 
L 565.2 200.501529 
" clip-path="url(#pb5c7ffef35)" style="fill: none; stroke: #b0b0b0; stroke-width: 0.8; stroke-linecap: square"/>
     </g>
     <g id="line2d_20">
      <g>
       <use xlink:href="#m99590bee67" x="56.18" y="200.501529" style="stroke: #000000; stroke-width: 0.8"/>
      </g>
     </g>
     <g id="text_11">
      <!-- −0.4 -->
      <g transform="translate(24.897188 204.300747) scale(0.1 -0.1)">
       <defs>
        <path id="DejaVuSans-34" d="M 2419 4116 
L 825 1625 
L 2419 1625 
L 2419 4116 
z
M 2253 4666 
L 3047 4666 
L 3047 1625 
L 3713 1625 
L 3713 1100 
L 3047 1100 
L 3047 0 
L 2419 0 
L 2419 1100 
L 313 1100 
L 313 1709 
L 2253 4666 
z
" transform="scale(0.015625)"/>
       </defs>
       <use xlink:href="#DejaVuSans-2212"/>
       <use xlink:href="#DejaVuSans-30" transform="translate(83.789062 0)"/>
       <use xlink:href="#DejaVuSans-2e" transform="translate(147.412109 0)"/>
       <use xlink:href="#DejaVuSans-34" transform="translate(179.199219 0)"/>
      </g>
     </g>
    </g>
    <g id="ytick_3">
     <g id="line2d_21">
      <path d="M 56.18 169.633299 
L 565.2 169.633299 
" clip-path="url(#pb5c7ffef35)" style="fill: none; stroke: #b0b0b0; stroke-width: 0.8; stroke-linecap: square"/>
     </g>
     <g id="line2d_22">
      <g>
       <use xlink:href="#m99590bee67" x="56.18" y="169.633299" style="stroke: #000000; stroke-width: 0.8"/>
      </g>
     </g>
     <g id="text_12">
      <!-- −0.2 -->
      <g transform="translate(24.897188 173.432517) scale(0.1 -0.1)">
       <use xlink:href="#DejaVuSans-2212"/>
       <use xlink:href="#DejaVuSans-30" transform="translate(83.789062 0)"/>
       <use xlink:href="#DejaVuSans-2e" transform="translate(147.412109 0)"/>
       <use xlink:href="#DejaVuSans-32" transform="translate(179.199219 0)"/>
      </g>
     </g>
    </g>
    <g id="ytick_4">
     <g id="line2d_23">
      <path d="M 56.18 138.765069 
L 565.2 138.765069 
" clip-path="url(#pb5c7ffef35)" style="fill: none; stroke: #b0b0b0; stroke-width: 0.8; stroke-linecap: square"/>
     </g>
     <g id="line2d_24">
      <g>
       <use xlink:href="#m99590bee67" x="56.18" y="138.765069" style="stroke: #000000; stroke-width: 0.8"/>
      </g>
     </g>
     <g id="text_13">
      <!-- 0.0 -->
      <g transform="translate(33.276875 142.564288) scale(0.1 -0.1)">
       <use xlink:href="#DejaVuSans-30"/>
       <use xlink:href="#DejaVuSans-2e" transform="translate(63.623047 0)"/>
       <use xlink:href="#DejaVuSans-30" transform="translate(95.410156 0)"/>
      </g>
     </g>
    </g>
    <g id="ytick_5">
     <g id="line2d_25">
      <path d="M 56.18 107.896839 
L 565.2 107.896839 
" clip-path="url(#pb5c7ffef35)" style="fill: none; stroke: #b0b0b0; stroke-width: 0.8; stroke-linecap: square"/>
     </g>
     <g id="line2d_26">
      <g>
       <use xlink:href="#m99590bee67" x="56.18" y="107.896839" style="stroke: #000000; stroke-width: 0.8"/>
      </g>
     </g>
     <g id="text_14">
      <!-- 0.2 -->
      <g transform="translate(33.276875 111.696058) scale(0.1 -0.1)">
       <use xlink:href="#DejaVuSans-30"/>
       <use xlink:href="#DejaVuSans-2e" transform="translate(63.623047 0)"/>
       <use xlink:href="#DejaVuSans-32" transform="translate(95.410156 0)"/>
      </g>
     </g>
    </g>
    <g id="ytick_6">
     <g id="line2d_27">
      <path d="M 56.18 77.028609 
L 565.2 77.028609 
" clip-path="url(#pb5c7ffef35)" style="fill: none; stroke: #b0b0b0; stroke-width: 0.8; stroke-linecap: square"/>
     </g>
     <g id="line2d_28">
      <g>
       <use xlink:href="#m99590bee67" x="56.18" y="77.028609" style="stroke: #000000; stroke-width: 0.8"/>
      </g>
     </g>
     <g id="text_15">
      <!-- 0.4 -->
      <g transform="translate(33.276875 80.827828) scale(0.1 -0.1)">
       <use xlink:href="#DejaVuSans-30"/>
       <use xlink:href="#DejaVuSans-2e" transform="translate(63.623047 0)"/>
       <use xlink:href="#DejaVuSans-34" transform="translate(95.410156 0)"/>
      </g>
     </g>
    </g>
    <g id="ytick_7">
     <g id="line2d_29">
      <path d="M 56.18 46.16038 
L 565.2 46.16038 
" clip-path="url(#pb5c7ffef35)" style="fill: none; stroke: #b0b0b0; stroke-width: 0.8; stroke-linecap: square"/>
     </g>
     <g id="line2d_30">
      <g>
       <use xlink:href="#m99590bee67" x="56.18" y="46.16038" style="stroke: #000000; stroke-width: 0.8"/>
      </g>
     </g>
     <g id="text_16">
      <!-- 0.6 -->
      <g transform="translate(33.276875 49.959598) scale(0.1 -0.1)">
       <use xlink:href="#DejaVuSans-30"/>
       <use xlink:href="#DejaVuSans-2e" transform="translate(63.623047 0)"/>
       <use xlink:href="#DejaVuSans-36" transform="translate(95.410156 0)"/>
      </g>
     </g>
    </g>
    <g id="text_17">
     <!-- Amplitude -->
     <g transform="translate(18.8175 161.722656) rotate(-90) scale(0.1 -0.1)">
      <defs>
       <path id="DejaVuSans-41" d="M 2188 4044 
L 1331 1722 
L 3047 1722 
L 2188 4044 
z
M 1831 4666 
L 2547 4666 
L 4325 0 
L 3669 0 
L 3244 1197 
L 1141 1197 
L 716 0 
L 50 0 
L 1831 4666 
z
" transform="scale(0.015625)"/>
       <path id="DejaVuSans-70" d="M 1159 525 
L 1159 -1331 
L 581 -1331 
L 581 3500 
L 1159 3500 
L 1159 2969 
Q 1341 3281 1617 3432 
Q 1894 3584 2278 3584 
Q 2916 3584 3314 3078 
Q 3713 2572 3713 1747 
Q 3713 922 3314 415 
Q 2916 -91 2278 -91 
Q 1894 -91 1617 61 
Q 1341 213 1159 525 
z
M 3116 1747 
Q 3116 2381 2855 2742 
Q 2594 3103 2138 3103 
Q 1681 3103 1420 2742 
Q 1159 2381 1159 1747 
Q 1159 1113 1420 752 
Q 1681 391 2138 391 
Q 2594 391 2855 752 
Q 3116 1113 3116 1747 
z
" transform="scale(0.015625)"/>
       <path id="DejaVuSans-6c" d="M 603 4863 
L 1178 4863 
L 1178 0 
L 603 0 
L 603 4863 
z
" transform="scale(0.015625)"/>
       <path id="DejaVuSans-74" d="M 1172 4494 
L 1172 3500 
L 2356 3500 
L 2356 3053 
L 1172 3053 
L 1172 1153 
Q 1172 725 1289 603 
Q 1406 481 1766 481 
L 2356 481 
L 2356 0 
L 1766 0 
Q 1100 0 847 248 
Q 594 497 594 1153 
L 594 3053 
L 172 3053 
L 172 3500 
L 594 3500 
L 594 4494 
L 1172 4494 
z
" transform="scale(0.015625)"/>
       <path id="DejaVuSans-64" d="M 2906 2969 
L 2906 4863 
L 3481 4863 
L 3481 0 
L 2906 0 
L 2906 525 
Q 2725 213 2448 61 
Q 2172 -91 1784 -91 
Q 1150 -91 751 415 
Q 353 922 353 1747 
Q 353 2572 751 3078 
Q 1150 3584 1784 3584 
Q 2172 3584 2448 3432 
Q 2725 3281 2906 2969 
z
M 947 1747 
Q 947 1113 1208 752 
Q 1469 391 1925 391 
Q 2381 391 2643 752 
Q 2906 1113 2906 1747 
Q 2906 2381 2643 2742 
Q 2381 3103 1925 3103 
Q 1469 3103 1208 2742 
Q 947 2381 947 1747 
z
" transform="scale(0.015625)"/>
      </defs>
      <use xlink:href="#DejaVuSans-41"/>
      <use xlink:href="#DejaVuSans-6d" transform="translate(68.408203 0)"/>
      <use xlink:href="#DejaVuSans-70" transform="translate(165.820312 0)"/>
      <use xlink:href="#DejaVuSans-6c" transform="translate(229.296875 0)"/>
      <use xlink:href="#DejaVuSans-69" transform="translate(257.080078 0)"/>
      <use xlink:href="#DejaVuSans-74" transform="translate(284.863281 0)"/>
      <use xlink:href="#DejaVuSans-75" transform="translate(324.072266 0)"/>
      <use xlink:href="#DejaVuSans-64" transform="translate(387.451172 0)"/>
      <use xlink:href="#DejaVuSans-65" transform="translate(450.927734 0)"/>
     </g>
    </g>
   </g>
   <g id="line2d_31">
    <path d="M 56.18 112.867367 
L 60.386777 94.008097 
L 61.789036 88.242369 
L 63.191295 83.101444 
L 64.593554 78.772979 
L 65.995813 75.409351 
L 67.398072 73.12019 
L 68.800331 71.967847 
L 70.20259 71.965957 
L 71.604848 73.081235 
L 73.007107 75.238121 
L 74.409366 78.325946 
L 75.811625 82.207927 
L 77.213884 86.731264 
L 80.018402 97.072924 
L 87.029697 124.558319 
L 91.236474 139.744642 
L 105.259063 188.475866 
L 106.661322 192.838881 
L 108.063581 196.788864 
L 109.46584 200.199218 
L 110.868099 202.940196 
L 112.270358 204.884174 
L 113.672617 205.910879 
L 115.074876 205.912473 
L 116.477135 204.798208 
L 117.879394 202.498683 
L 119.281653 198.969455 
L 120.683912 194.194036 
L 122.086171 188.186168 
L 123.48843 180.99129 
L 124.890689 172.687237 
L 126.292948 163.384033 
L 129.097466 142.373914 
L 137.511019 75.140653 
L 138.913278 65.8786 
L 140.315537 57.826889 
L 141.717796 51.20013 
L 143.120055 46.185715 
L 144.522314 42.937853 
L 145.924573 41.572338 
L 147.326832 42.162294 
L 148.729091 44.735081 
L 150.13135 49.270422 
L 151.533609 55.69995 
L 152.935868 63.908101 
L 154.338127 73.734425 
L 155.740386 84.977252 
L 158.544904 110.729883 
L 165.556198 180.432677 
L 166.958457 192.820617 
L 168.360716 204.024349 
L 169.762975 213.808175 
L 171.165234 221.972792 
L 172.567493 228.35996 
L 173.969752 232.85597 
L 175.372011 235.393846 
L 176.77427 235.954164 
L 178.176529 234.564608 
L 179.578788 231.298176 
L 180.981047 226.270199 
L 182.383306 219.634275 
L 183.785565 211.577207 
L 185.187824 202.31321 
L 187.992342 181.119332 
L 195.003636 124.342801 
L 196.405895 114.221818 
L 197.808154 104.963341 
L 199.210413 96.705685 
L 200.612672 89.55492 
L 202.014931 83.584039 
L 203.41719 78.833101 
L 204.819449 75.310524 
L 206.221708 72.995196 
L 207.623967 71.839507 
L 209.026226 71.773059 
L 210.428485 72.706853 
L 211.830744 74.537939 
L 213.233003 77.154125 
L 214.635262 80.438757 
L 216.037521 84.275257 
L 218.842039 93.16244 
L 221.646556 103.029111 
L 242.680441 179.545586 
L 245.484959 188.899412 
L 246.887218 193.1276 
L 248.289477 196.92404 
L 249.691736 200.178201 
L 251.093994 202.774799 
L 252.496253 204.597842 
L 253.898512 205.535095 
L 255.300771 205.482829 
L 256.70303 204.35056 
L 258.105289 202.065774 
L 259.507548 198.578256 
L 260.909807 193.863981 
L 262.312066 187.928363 
L 263.714325 180.808596 
L 265.116584 172.575194 
L 266.518843 163.332331 
L 269.323361 142.398076 
L 277.736915 75.092141 
L 279.139174 65.807295 
L 280.541433 57.738037 
L 281.943691 51.100376 
L 283.34595 46.082055 
L 284.748209 42.836704 
L 286.150468 41.478757 
L 287.552727 42.079467 
L 288.954986 44.664092 
L 290.357245 49.210283 
L 291.759504 55.647925 
L 293.161763 63.860191 
L 294.564022 73.686018 
L 295.966281 84.923807 
L 298.770799 110.656188 
L 305.782094 180.324708 
L 307.184353 192.720559 
L 308.586612 203.938502 
L 309.988871 213.742235 
L 311.391129 221.931301 
L 312.793388 228.345857 
L 314.195647 232.870312 
L 315.597906 235.435737 
L 317.000165 236.020857 
L 318.402424 234.651836 
L 319.804683 231.400607 
L 321.206942 226.382031 
L 322.609201 219.74988 
L 324.01146 211.691751 
L 325.413719 202.423227 
L 328.218237 181.217356 
L 335.229532 124.483392 
L 336.631791 114.39247 
L 338.03405 105.170689 
L 339.436309 96.954751 
L 340.838567 89.848548 
L 342.240826 83.922478 
L 343.643085 79.213779 
L 345.045344 75.728025 
L 346.447603 73.441452 
L 347.849862 72.304176 
L 349.252121 72.244069 
L 350.65438 73.171067 
L 352.056639 74.981898 
L 353.458898 77.56481 
L 354.861157 80.804324 
L 356.263416 84.585694 
L 359.067934 93.34246 
L 361.872452 103.071238 
L 373.090523 143.816834 
L 384.308595 184.407423 
L 387.113113 193.214854 
L 388.515372 197.00488 
L 389.917631 200.240696 
L 391.31989 202.807587 
L 392.722149 204.590889 
L 394.124408 205.480393 
L 395.526667 205.375005 
L 396.928926 204.187332 
L 398.331185 201.84823 
L 399.733444 198.31092 
L 401.135702 193.554661 
L 402.537961 187.587762 
L 403.94022 180.449731 
L 405.342479 172.212626 
L 406.744738 162.98129 
L 409.549256 142.113729 
L 417.96281 75.183249 
L 419.365069 65.951957 
L 420.767328 57.925927 
L 422.169587 51.319635 
L 423.571846 46.320143 
L 424.974105 43.081249 
L 426.376364 41.718339 
L 427.778623 42.304268 
L 429.180882 44.866392 
L 430.58314 49.384754 
L 431.985399 55.791716 
L 433.387658 63.972827 
L 434.789917 73.769122 
L 436.192176 84.980695 
L 438.996694 110.674883 
L 446.007989 180.330941 
L 447.410248 192.732541 
L 448.812507 203.956556 
L 450.214766 213.765779 
L 451.617025 221.959035 
L 453.019284 228.375976 
L 454.421543 232.900726 
L 455.823802 235.464276 
L 457.226061 236.045455 
L 458.62832 234.670675 
L 460.030579 231.41223 
L 461.432837 226.385412 
L 462.835096 219.744467 
L 464.237355 211.677473 
L 465.639614 202.400475 
L 468.444132 181.180446 
L 475.455427 124.436006 
L 476.857686 114.346298 
L 478.259945 105.125771 
L 479.662204 96.91043 
L 481.064463 89.803431 
L 482.466722 83.874466 
L 483.868981 79.160174 
L 485.27124 75.665726 
L 486.673499 73.367211 
L 488.075758 72.214924 
L 489.478017 72.137273 
L 490.880275 73.045081 
L 492.282534 74.836285 
L 493.684793 77.400587 
L 495.087052 80.624106 
L 496.489311 84.393699 
L 499.293829 93.145132 
L 502.098347 102.898538 
L 511.91416 138.790923 
L 524.53449 184.509471 
L 527.339008 193.303602 
L 528.741267 197.095258 
L 530.143526 200.339437 
L 531.545785 202.921414 
L 532.948044 204.725749 
L 534.350303 205.640761 
L 535.752562 205.563321 
L 537.154821 204.40364 
L 538.55708 202.090047 
L 539.959339 198.573356 
L 541.361598 193.830772 
L 542.763857 187.869109 
L 544.166116 180.727095 
L 545.568375 172.476795 
L 546.970634 163.223842 
L 549.775152 142.294312 
L 558.188705 75.19155 
L 559.590964 65.951679 
L 560.993223 57.923716 
L 562.395482 51.32104 
L 563.797741 46.329167 
L 565.2 43.100096 
L 565.2 43.100096 
" clip-path="url(#pb5c7ffef35)" style="fill: none; stroke: #1f77b4; stroke-width: 1.5; stroke-linecap: square"/>
   </g>
   <g id="line2d_32">
    <path d="M 56.18 184.056438 
L 57.582259 192.508577 
L 58.984518 200.126478 
L 60.386777 206.476277 
L 61.789036 211.162728 
L 63.191295 213.852571 
L 64.593554 214.294231 
L 65.995813 212.332492 
L 67.398072 207.917351 
L 68.800331 201.106471 
L 70.20259 192.061396 
L 71.604848 181.037957 
L 73.007107 168.371767 
L 75.811625 139.741221 
L 80.018402 95.300617 
L 81.420661 81.834665 
L 82.82292 69.669218 
L 84.225179 59.099838 
L 85.627438 50.359569 
L 87.029697 43.61741 
L 88.431956 38.979744 
L 89.834215 36.494106 
L 91.236474 36.154545 
L 92.638733 37.90779 
L 94.040992 41.659689 
L 95.443251 47.281277 
L 96.84551 54.61426 
L 98.247769 63.475681 
L 99.650028 73.661788 
L 102.454545 97.108383 
L 106.661322 136.267311 
L 109.46584 162.008415 
L 112.270358 185.084924 
L 113.672617 195.053227 
L 115.074876 203.717904 
L 116.477135 210.925763 
L 117.879394 216.560913 
L 119.281653 220.548096 
L 120.683912 222.854634 
L 122.086171 223.490725 
L 123.48843 222.508141 
L 124.890689 219.997327 
L 126.292948 216.083068 
L 127.695207 210.919014 
L 129.097466 204.681288 
L 130.499725 197.56158 
L 133.304242 181.478377 
L 140.315537 139.280876 
L 143.120055 124.704851 
L 144.522314 118.27979 
L 145.924573 112.483026 
L 147.326832 107.328332 
L 148.729091 102.81184 
L 150.13135 98.915228 
L 151.533609 95.609191 
L 152.935868 92.857022 
L 154.338127 90.61823 
L 155.740386 88.851947 
L 157.142645 87.520099 
L 158.544904 86.590156 
L 159.947163 86.037384 
L 161.349421 85.846528 
L 162.75168 86.012826 
L 164.153939 86.542359 
L 165.556198 87.451662 
L 166.958457 88.766668 
L 168.360716 90.520964 
L 169.762975 92.75344 
L 171.165234 95.505455 
L 172.567493 98.817539 
L 173.969752 102.725904 
L 175.372011 107.25877 
L 176.77427 112.432768 
L 178.176529 118.249564 
L 179.578788 124.692825 
L 182.383306 139.289372 
L 185.187824 155.656019 
L 190.79686 189.646921 
L 192.199118 197.426907 
L 193.601377 204.539385 
L 195.003636 210.790408 
L 196.405895 215.993218 
L 197.808154 219.974412 
L 199.210413 222.57996 
L 200.612672 223.680995 
L 202.014931 223.178962 
L 203.41719 221.010127 
L 204.819449 217.149159 
L 206.221708 211.611599 
L 207.623967 204.45526 
L 209.026226 195.780269 
L 210.428485 185.727925 
L 211.830744 174.478235 
L 214.635262 149.277247 
L 220.244298 95.651152 
L 221.646556 83.290383 
L 223.048815 71.929496 
L 224.451074 61.831761 
L 225.853333 53.233008 
L 227.255592 46.335297 
L 228.657851 41.301367 
L 230.06011 38.250226 
L 231.462369 37.253909 
L 232.864628 38.335459 
L 234.266887 41.468386 
L 235.669146 46.577341 
L 237.071405 53.540258 
L 238.473664 62.191718 
L 239.875923 72.32748 
L 241.278182 83.710133 
L 244.0827 109.139854 
L 249.691736 162.457301 
L 251.093994 174.613697 
L 252.496253 185.784229 
L 253.898512 195.757659 
L 255.300771 204.357735 
L 256.70303 211.446661 
L 258.105289 216.927357 
L 259.507548 220.744413 
L 260.909807 222.883914 
L 262.312066 223.371944 
L 263.714325 222.27208 
L 265.116584 219.681839 
L 266.518843 215.728263 
L 267.921102 210.562909 
L 269.323361 204.356236 
L 270.72562 197.291826 
L 273.530138 181.354228 
L 280.541433 139.376421 
L 283.34595 124.77549 
L 284.748209 118.322235 
L 286.150468 112.492692 
L 287.552727 107.305053 
L 288.954986 102.759294 
L 290.357245 98.840072 
L 291.759504 95.520021 
L 293.161763 92.763282 
L 294.564022 90.529228 
L 295.966281 88.776009 
L 297.36854 87.463985 
L 298.770799 86.558719 
L 300.173058 86.033484 
L 301.575317 85.871178 
L 302.977576 86.065481 
L 304.379835 86.621341 
L 305.782094 87.554592 
L 307.184353 88.89089 
L 308.586612 90.663874 
L 309.988871 92.912709 
L 311.391129 95.679124 
L 312.793388 99.003961 
L 314.195647 102.923605 
L 315.597906 107.46619 
L 317.000165 112.648003 
L 318.402424 118.470103 
L 319.804683 124.915336 
L 322.609201 139.5022 
L 325.413719 155.83603 
L 331.022755 189.694526 
L 332.425014 197.434706 
L 333.827273 204.509088 
L 335.229532 210.726398 
L 336.631791 215.902527 
L 338.03405 219.866476 
L 339.436309 222.466154 
L 340.838567 223.57398 
L 342.240826 223.091898 
L 343.643085 220.95579 
L 345.045344 217.139039 
L 346.447603 211.655048 
L 347.849862 204.558776 
L 349.252121 195.946951 
L 350.65438 185.957156 
L 352.056639 174.765628 
L 354.861157 149.653983 
L 361.872452 83.641225 
L 363.274711 72.232302 
L 364.67697 62.076616 
L 366.079229 53.413068 
L 367.481488 46.447038 
L 368.883747 41.34463 
L 370.286006 38.228054 
L 371.688264 37.17221 
L 373.090523 38.202542 
L 374.492782 41.2944 
L 375.895041 46.373668 
L 377.2973 53.318903 
L 378.699559 61.964729 
L 380.101818 72.106432 
L 381.504077 83.505686 
L 384.308595 108.995312 
L 389.917631 162.492754 
L 391.31989 174.69649 
L 392.722149 185.912025 
L 394.124408 195.926702 
L 395.526667 204.563024 
L 396.928926 211.682155 
L 398.331185 217.186215 
L 399.733444 221.019257 
L 401.135702 223.167124 
L 402.537961 223.655962 
L 403.94022 222.549725 
L 405.342479 219.946613 
L 406.744738 215.974624 
L 408.146997 210.786505 
L 409.549256 204.554067 
L 410.951515 197.462327 
L 413.756033 181.470981 
L 420.767328 139.409774 
L 423.571846 124.801204 
L 424.974105 118.347887 
L 426.376364 112.519738 
L 427.778623 107.334181 
L 429.180882 102.79054 
L 430.58314 98.872999 
L 431.985399 95.553936 
L 433.387658 92.79746 
L 434.789917 90.563117 
L 436.192176 88.809379 
L 437.594435 87.497008 
L 438.996694 86.591968 
L 440.398953 86.067842 
L 441.801212 85.907676 
L 443.203471 86.105089 
L 444.60573 86.664726 
L 446.007989 87.601893 
L 447.410248 88.941536 
L 448.812507 90.716474 
L 450.214766 92.965039 
L 451.617025 95.728218 
L 453.019284 99.04632 
L 454.421543 102.955489 
L 455.823802 107.483987 
L 457.226061 112.648613 
L 458.62832 118.451322 
L 460.030579 124.876176 
L 462.835096 139.425195 
L 465.639614 155.734926 
L 471.24865 189.613725 
L 472.650909 197.371851 
L 474.053168 204.466705 
L 475.455427 210.704981 
L 476.857686 215.900352 
L 478.259945 219.879616 
L 479.662204 222.488684 
L 481.064463 223.598366 
L 482.466722 223.109546 
L 483.868981 220.957709 
L 485.27124 217.116559 
L 486.673499 211.600541 
L 488.075758 204.466306 
L 489.478017 195.812814 
L 490.880275 185.780258 
L 492.282534 174.547659 
L 495.087052 149.369697 
L 500.696088 95.735929 
L 502.098347 83.36268 
L 503.500606 71.986002 
L 504.902865 61.86981 
L 506.305124 53.250624 
L 507.707383 46.331212 
L 509.109642 41.275013 
L 510.511901 38.201719 
L 511.91416 37.184027 
L 513.316419 38.245631 
L 514.718678 41.360684 
L 516.120937 46.454485 
L 517.523196 53.405622 
L 518.925455 62.049329 
L 520.327713 72.182001 
L 521.729972 83.566806 
L 524.53449 109.018368 
L 530.143526 162.450629 
L 531.545785 174.647308 
L 532.948044 185.860291 
L 534.350303 195.87657 
L 535.752562 204.517922 
L 537.154821 211.644492 
L 538.55708 217.157181 
L 539.959339 220.998746 
L 541.361598 223.153766 
L 542.763857 223.647273 
L 544.166116 222.542351 
L 545.568375 219.936654 
L 546.970634 215.95801 
L 548.372893 210.759392 
L 549.775152 204.513227 
L 551.17741 197.405498 
L 553.981928 181.380587 
L 560.993223 139.293419 
L 563.797741 124.718862 
L 565.2 118.292528 
L 565.2 118.292528 
" clip-path="url(#pb5c7ffef35)" style="fill: none; stroke: #ff7f0e; stroke-width: 1.5; stroke-linecap: square"/>
   </g>
   <g id="patch_3">
    <path d="M 56.18 246.04 
L 56.18 26.16 
" style="fill: none; stroke: #000000; stroke-width: 0.8; stroke-linejoin: miter; stroke-linecap: square"/>
   </g>
   <g id="patch_4">
    <path d="M 565.2 246.04 
L 565.2 26.16 
" style="fill: none; stroke: #000000; stroke-width: 0.8; stroke-linejoin: miter; stroke-linecap: square"/>
   </g>
   <g id="patch_5">
    <path d="M 56.18 246.04 
L 565.2 246.04 
" style="fill: none; stroke: #000000; stroke-width: 0.8; stroke-linejoin: miter; stroke-linecap: square"/>
   </g>
   <g id="patch_6">
    <path d="M 56.18 26.16 
L 565.2 26.16 
" style="fill: none; stroke: #000000; stroke-width: 0.8; stroke-linejoin: miter; stroke-linecap: square"/>
   </g>
   <g id="text_18">
    <!-- LPF Output I/Q (Time Domain) -->
    <g transform="translate(220.650625 20.16) scale(0.12 -0.12)">
     <defs>
      <path id="DejaVuSans-4c" d="M 628 4666 
L 1259 4666 
L 1259 531 
L 3531 531 
L 3531 0 
L 628 0 
L 628 4666 
z
" transform="scale(0.015625)"/>
      <path id="DejaVuSans-50" d="M 1259 4147 
L 1259 2394 
L 2053 2394 
Q 2494 2394 2734 2622 
Q 2975 2850 2975 3272 
Q 2975 3691 2734 3919 
Q 2494 4147 2053 4147 
L 1259 4147 
z
M 628 4666 
L 2053 4666 
Q 2838 4666 3239 4311 
Q 3641 3956 3641 3272 
Q 3641 2581 3239 2228 
Q 2838 1875 2053 1875 
L 1259 1875 
L 1259 0 
L 628 0 
L 628 4666 
z
" transform="scale(0.015625)"/>
      <path id="DejaVuSans-46" d="M 628 4666 
L 3309 4666 
L 3309 4134 
L 1259 4134 
L 1259 2759 
L 3109 2759 
L 3109 2228 
L 1259 2228 
L 1259 0 
L 628 0 
L 628 4666 
z
" transform="scale(0.015625)"/>
      <path id="DejaVuSans-4f" d="M 2522 4238 
Q 1834 4238 1429 3725 
Q 1025 3213 1025 2328 
Q 1025 1447 1429 934 
Q 1834 422 2522 422 
Q 3209 422 3611 934 
Q 4013 1447 4013 2328 
Q 4013 3213 3611 3725 
Q 3209 4238 2522 4238 
z
M 2522 4750 
Q 3503 4750 4090 4092 
Q 4678 3434 4678 2328 
Q 4678 1225 4090 567 
Q 3503 -91 2522 -91 
Q 1538 -91 948 565 
Q 359 1222 359 2328 
Q 359 3434 948 4092 
Q 1538 4750 2522 4750 
z
" transform="scale(0.015625)"/>
      <path id="DejaVuSans-49" d="M 628 4666 
L 1259 4666 
L 1259 0 
L 628 0 
L 628 4666 
z
" transform="scale(0.015625)"/>
      <path id="DejaVuSans-2f" d="M 1625 4666 
L 2156 4666 
L 531 -594 
L 0 -594 
L 1625 4666 
z
" transform="scale(0.015625)"/>
      <path id="DejaVuSans-51" d="M 2522 4238 
Q 1834 4238 1429 3725 
Q 1025 3213 1025 2328 
Q 1025 1447 1429 934 
Q 1834 422 2522 422 
Q 3209 422 3611 934 
Q 4013 1447 4013 2328 
Q 4013 3213 3611 3725 
Q 3209 4238 2522 4238 
z
M 3406 84 
L 4238 -825 
L 3475 -825 
L 2784 -78 
Q 2681 -84 2626 -87 
Q 2572 -91 2522 -91 
Q 1538 -91 948 567 
Q 359 1225 359 2328 
Q 359 3434 948 4092 
Q 1538 4750 2522 4750 
Q 3503 4750 4090 4092 
Q 4678 3434 4678 2328 
Q 4678 1516 4351 937 
Q 4025 359 3406 84 
z
" transform="scale(0.015625)"/>
      <path id="DejaVuSans-44" d="M 1259 4147 
L 1259 519 
L 2022 519 
Q 2988 519 3436 956 
Q 3884 1394 3884 2338 
Q 3884 3275 3436 3711 
Q 2988 4147 2022 4147 
L 1259 4147 
z
M 628 4666 
L 1925 4666 
Q 3281 4666 3915 4102 
Q 4550 3538 4550 2338 
Q 4550 1131 3912 565 
Q 3275 0 1925 0 
L 628 0 
L 628 4666 
z
" transform="scale(0.015625)"/>
      <path id="DejaVuSans-6f" d="M 1959 3097 
Q 1497 3097 1228 2736 
Q 959 2375 959 1747 
Q 959 1119 1226 758 
Q 1494 397 1959 397 
Q 2419 397 2687 759 
Q 2956 1122 2956 1747 
Q 2956 2369 2687 2733 
Q 2419 3097 1959 3097 
z
M 1959 3584 
Q 2709 3584 3137 3096 
Q 3566 2609 3566 1747 
Q 3566 888 3137 398 
Q 2709 -91 1959 -91 
Q 1206 -91 779 398 
Q 353 888 353 1747 
Q 353 2609 779 3096 
Q 1206 3584 1959 3584 
z
" transform="scale(0.015625)"/>
      <path id="DejaVuSans-61" d="M 2194 1759 
Q 1497 1759 1228 1600 
Q 959 1441 959 1056 
Q 959 750 1161 570 
Q 1363 391 1709 391 
Q 2188 391 2477 730 
Q 2766 1069 2766 1631 
L 2766 1759 
L 2194 1759 
z
M 3341 1997 
L 3341 0 
L 2766 0 
L 2766 531 
Q 2569 213 2275 61 
Q 1981 -91 1556 -91 
Q 1019 -91 701 211 
Q 384 513 384 1019 
Q 384 1609 779 1909 
Q 1175 2209 1959 2209 
L 2766 2209 
L 2766 2266 
Q 2766 2663 2505 2880 
Q 2244 3097 1772 3097 
Q 1472 3097 1187 3025 
Q 903 2953 641 2809 
L 641 3341 
Q 956 3463 1253 3523 
Q 1550 3584 1831 3584 
Q 2591 3584 2966 3190 
Q 3341 2797 3341 1997 
z
" transform="scale(0.015625)"/>
      <path id="DejaVuSans-6e" d="M 3513 2113 
L 3513 0 
L 2938 0 
L 2938 2094 
Q 2938 2591 2744 2837 
Q 2550 3084 2163 3084 
Q 1697 3084 1428 2787 
Q 1159 2491 1159 1978 
L 1159 0 
L 581 0 
L 581 3500 
L 1159 3500 
L 1159 2956 
Q 1366 3272 1645 3428 
Q 1925 3584 2291 3584 
Q 2894 3584 3203 3211 
Q 3513 2838 3513 2113 
z
" transform="scale(0.015625)"/>
     </defs>
     <use xlink:href="#DejaVuSans-4c"/>
     <use xlink:href="#DejaVuSans-50" transform="translate(55.712891 0)"/>
     <use xlink:href="#DejaVuSans-46" transform="translate(116.015625 0)"/>
     <use xlink:href="#DejaVuSans-20" transform="translate(173.535156 0)"/>
     <use xlink:href="#DejaVuSans-4f" transform="translate(205.322266 0)"/>
     <use xlink:href="#DejaVuSans-75" transform="translate(284.033203 0)"/>
     <use xlink:href="#DejaVuSans-74" transform="translate(347.412109 0)"/>
     <use xlink:href="#DejaVuSans-70" transform="translate(386.621094 0)"/>
     <use xlink:href="#DejaVuSans-75" transform="translate(450.097656 0)"/>
     <use xlink:href="#DejaVuSans-74" transform="translate(513.476562 0)"/>
     <use xlink:href="#DejaVuSans-20" transform="translate(552.685547 0)"/>
     <use xlink:href="#DejaVuSans-49" transform="translate(584.472656 0)"/>
     <use xlink:href="#DejaVuSans-2f" transform="translate(613.964844 0)"/>
     <use xlink:href="#DejaVuSans-51" transform="translate(647.65625 0)"/>
     <use xlink:href="#DejaVuSans-20" transform="translate(726.367188 0)"/>
     <use xlink:href="#DejaVuSans-28" transform="translate(758.154297 0)"/>
     <use xlink:href="#DejaVuSans-54" transform="translate(797.167969 0)"/>
     <use xlink:href="#DejaVuSans-69" transform="translate(855.126953 0)"/>
     <use xlink:href="#DejaVuSans-6d" transform="translate(882.910156 0)"/>
     <use xlink:href="#DejaVuSans-65" transform="translate(980.322266 0)"/>
     <use xlink:href="#DejaVuSans-20" transform="translate(1041.845703 0)"/>
     <use xlink:href="#DejaVuSans-44" transform="translate(1073.632812 0)"/>
     <use xlink:href="#DejaVuSans-6f" transform="translate(1150.634766 0)"/>
     <use xlink:href="#DejaVuSans-6d" transform="translate(1211.816406 0)"/>
     <use xlink:href="#DejaVuSans-61" transform="translate(1309.228516 0)"/>
     <use xlink:href="#DejaVuSans-69" transform="translate(1370.507812 0)"/>
     <use xlink:href="#DejaVuSans-6e" transform="translate(1398.291016 0)"/>
     <use xlink:href="#DejaVuSans-29" transform="translate(1461.669922 0)"/>
    </g>
   </g>
   <g id="legend_1">
    <g id="patch_7">
     <path d="M 518.328125 63.51625 
L 558.2 63.51625 
Q 560.2 63.51625 560.2 61.51625 
L 560.2 33.16 
Q 560.2 31.16 558.2 31.16 
L 518.328125 31.16 
Q 516.328125 31.16 516.328125 33.16 
L 516.328125 61.51625 
Q 516.328125 63.51625 518.328125 63.51625 
z
" style="fill: #ffffff; opacity: 0.8; stroke: #cccccc; stroke-linejoin: miter"/>
    </g>
    <g id="line2d_33">
     <path d="M 520.328125 39.258437 
L 530.328125 39.258437 
L 540.328125 39.258437 
" style="fill: none; stroke: #1f77b4; stroke-width: 1.5; stroke-linecap: square"/>
    </g>
    <g id="text_19">
     <!-- I -->
     <g transform="translate(548.328125 42.758437) scale(0.1 -0.1)">
      <use xlink:href="#DejaVuSans-49"/>
     </g>
    </g>
    <g id="line2d_34">
     <path d="M 520.328125 53.936562 
L 530.328125 53.936562 
L 540.328125 53.936562 
" style="fill: none; stroke: #ff7f0e; stroke-width: 1.5; stroke-linecap: square"/>
    </g>
    <g id="text_20">
     <!-- Q -->
     <g transform="translate(548.328125 57.436562) scale(0.1 -0.1)">
      <use xlink:href="#DejaVuSans-51"/>
     </g>
    </g>
   </g>
  </g>
 </g>
 <defs>
  <clipPath id="pb5c7ffef35">
   <rect x="56.18" y="26.16" width="509.02" height="219.88"/>
  </clipPath>
 </defs>
</svg>
