<?xml version="1.0" encoding="utf-8" standalone="no"?>
<!DOCTYPE svg PUBLIC "-//W3C//DTD SVG 1.1//EN"
  "http://www.w3.org/Graphics/SVG/1.1/DTD/svg11.dtd">
<svg xmlns:xlink="http://www.w3.org/1999/xlink" width="576pt" height="288pt" viewBox="0 0 576 288" xmlns="http://www.w3.org/2000/svg" version="1.1">
 <metadata>
  <rdf:RDF xmlns:dc="http://purl.org/dc/elements/1.1/" xmlns:cc="http://creativecommons.org/ns#" xmlns:rdf="http://www.w3.org/1999/02/22-rdf-syntax-ns#">
   <cc:Work>
    <dc:type rdf:resource="http://purl.org/dc/dcmitype/StillImage"/>
    <dc:date>2026-02-03T22:51:50.810227</dc:date>
    <dc:format>image/svg+xml</dc:format>
    <dc:creator>
     <cc:Agent>
      <dc:title>Matplotlib v3.10.8, https://matplotlib.org/</dc:title>
     </cc:Agent>
    </dc:creator>
   </cc:Work>
  </rdf:RDF>
 </metadata>
 <defs>
  <style type="text/css">*{stroke-linejoin: round; stroke-linecap: butt}</style>
 </defs>
 <g id="figure_1">
  <g id="patch_1">
   <path d="M 0 288 
L 576 288 
L 576 0 
L 0 0 
z
" style="fill: #ffffff"/>
  </g>
  <g id="axes_1">
   <g id="patch_2">
    <path d="M 56.18 246.04 
L 565.2 246.04 
L 565.2 26.16 
L 56.18 26.16 
z
" style="fill: #ffffff"/>
   </g>
   <g id="matplotlib.axis_1">
    <g id="xtick_1">
     <g id="line2d_1">
      <path d="M 56.18 246.04 
L 56.18 26.16 
" clip-path="url(#p83ab2b094a)" style="fill: none; stroke: #b0b0b0; stroke-width: 0.8; stroke-linecap: square"/>
     </g>
     <g id="line2d_2">
      <defs>
       <path id="ma2645378b3" d="M 0 0 
L 0 3.5 
" style="stroke: #000000; stroke-width: 0.8"/>
      </defs>
      <g>
       <use xlink:href="#ma2645378b3" x="56.18" y="246.04" style="stroke: #000000; stroke-width: 0.8"/>
      </g>
     </g>
     <g id="text_1">
      <!-- 0.0 -->
      <g transform="translate(48.228438 260.638438) scale(0.1 -0.1)">
       <defs>
        <path id="DejaVuSans-30" d="M 2034 4250 
Q 1547 4250 1301 3770 
Q 1056 3291 1056 2328 
Q 1056 1369 1301 889 
Q 1547 409 2034 409 
Q 2525 409 2770 889 
Q 3016 1369 3016 2328 
Q 3016 3291 2770 3770 
Q 2525 4250 2034 4250 
z
M 2034 4750 
Q 2819 4750 3233 4129 
Q 3647 3509 3647 2328 
Q 3647 1150 3233 529 
Q 2819 -91 2034 -91 
Q 1250 -91 836 529 
Q 422 1150 422 2328 
Q 422 3509 836 4129 
Q 1250 4750 2034 4750 
z
" transform="scale(0.015625)"/>
        <path id="DejaVuSans-2e" d="M 684 794 
L 1344 794 
L 1344 0 
L 684 0 
L 684 794 
z
" transform="scale(0.015625)"/>
       </defs>
       <use xlink:href="#DejaVuSans-30"/>
       <use xlink:href="#DejaVuSans-2e" transform="translate(63.623047 0)"/>
       <use xlink:href="#DejaVuSans-30" transform="translate(95.410156 0)"/>
      </g>
     </g>
    </g>
    <g id="xtick_2">
     <g id="line2d_3">
      <path d="M 126.292948 246.04 
L 126.292948 26.16 
" clip-path="url(#p83ab2b094a)" style="fill: none; stroke: #b0b0b0; stroke-width: 0.8; stroke-linecap: square"/>
     </g>
     <g id="line2d_4">
      <g>
       <use xlink:href="#ma2645378b3" x="126.292948" y="246.04" style="stroke: #000000; stroke-width: 0.8"/>
      </g>
     </g>
     <g id="text_2">
      <!-- 0.5 -->
      <g transform="translate(118.341385 260.638438) scale(0.1 -0.1)">
       <defs>
        <path id="DejaVuSans-35" d="M 691 4666 
L 3169 4666 
L 3169 4134 
L 1269 4134 
L 1269 2991 
Q 1406 3038 1543 3061 
Q 1681 3084 1819 3084 
Q 2600 3084 3056 2656 
Q 3513 2228 3513 1497 
Q 3513 744 3044 326 
Q 2575 -91 1722 -91 
Q 1428 -91 1123 -41 
Q 819 9 494 109 
L 494 744 
Q 775 591 1075 516 
Q 1375 441 1709 441 
Q 2250 441 2565 725 
Q 2881 1009 2881 1497 
Q 2881 1984 2565 2268 
Q 2250 2553 1709 2553 
Q 1456 2553 1204 2497 
Q 953 2441 691 2322 
L 691 4666 
z
" transform="scale(0.015625)"/>
       </defs>
       <use xlink:href="#DejaVuSans-30"/>
       <use xlink:href="#DejaVuSans-2e" transform="translate(63.623047 0)"/>
       <use xlink:href="#DejaVuSans-35" transform="translate(95.410156 0)"/>
      </g>
     </g>
    </g>
    <g id="xtick_3">
     <g id="line2d_5">
      <path d="M 196.405895 246.04 
L 196.405895 26.16 
" clip-path="url(#p83ab2b094a)" style="fill: none; stroke: #b0b0b0; stroke-width: 0.8; stroke-linecap: square"/>
     </g>
     <g id="line2d_6">
      <g>
       <use xlink:href="#ma2645378b3" x="196.405895" y="246.04" style="stroke: #000000; stroke-width: 0.8"/>
      </g>
     </g>
     <g id="text_3">
      <!-- 1.0 -->
      <g transform="translate(188.454333 260.638438) scale(0.1 -0.1)">
       <defs>
        <path id="DejaVuSans-31" d="M 794 531 
L 1825 531 
L 1825 4091 
L 703 3866 
L 703 4441 
L 1819 4666 
L 2450 4666 
L 2450 531 
L 3481 531 
L 3481 0 
L 794 0 
L 794 531 
z
" transform="scale(0.015625)"/>
       </defs>
       <use xlink:href="#DejaVuSans-31"/>
       <use xlink:href="#DejaVuSans-2e" transform="translate(63.623047 0)"/>
       <use xlink:href="#DejaVuSans-30" transform="translate(95.410156 0)"/>
      </g>
     </g>
    </g>
    <g id="xtick_4">
     <g id="line2d_7">
      <path d="M 266.518843 246.04 
L 266.518843 26.16 
" clip-path="url(#p83ab2b094a)" style="fill: none; stroke: #b0b0b0; stroke-width: 0.8; stroke-linecap: square"/>
     </g>
     <g id="line2d_8">
      <g>
       <use xlink:href="#ma2645378b3" x="266.518843" y="246.04" style="stroke: #000000; stroke-width: 0.8"/>
      </g>
     </g>
     <g id="text_4">
      <!-- 1.5 -->
      <g transform="translate(258.56728 260.638438) scale(0.1 -0.1)">
       <use xlink:href="#DejaVuSans-31"/>
       <use xlink:href="#DejaVuSans-2e" transform="translate(63.623047 0)"/>
       <use xlink:href="#DejaVuSans-35" transform="translate(95.410156 0)"/>
      </g>
     </g>
    </g>
    <g id="xtick_5">
     <g id="line2d_9">
      <path d="M 336.631791 246.04 
L 336.631791 26.16 
" clip-path="url(#p83ab2b094a)" style="fill: none; stroke: #b0b0b0; stroke-width: 0.8; stroke-linecap: square"/>
     </g>
     <g id="line2d_10">
      <g>
       <use xlink:href="#ma2645378b3" x="336.631791" y="246.04" style="stroke: #000000; stroke-width: 0.8"/>
      </g>
     </g>
     <g id="text_5">
      <!-- 2.0 -->
      <g transform="translate(328.680228 260.638438) scale(0.1 -0.1)">
       <defs>
        <path id="DejaVuSans-32" d="M 1228 531 
L 3431 531 
L 3431 0 
L 469 0 
L 469 531 
Q 828 903 1448 1529 
Q 2069 2156 2228 2338 
Q 2531 2678 2651 2914 
Q 2772 3150 2772 3378 
Q 2772 3750 2511 3984 
Q 2250 4219 1831 4219 
Q 1534 4219 1204 4116 
Q 875 4013 500 3803 
L 500 4441 
Q 881 4594 1212 4672 
Q 1544 4750 1819 4750 
Q 2544 4750 2975 4387 
Q 3406 4025 3406 3419 
Q 3406 3131 3298 2873 
Q 3191 2616 2906 2266 
Q 2828 2175 2409 1742 
Q 1991 1309 1228 531 
z
" transform="scale(0.015625)"/>
       </defs>
       <use xlink:href="#DejaVuSans-32"/>
       <use xlink:href="#DejaVuSans-2e" transform="translate(63.623047 0)"/>
       <use xlink:href="#DejaVuSans-30" transform="translate(95.410156 0)"/>
      </g>
     </g>
    </g>
    <g id="xtick_6">
     <g id="line2d_11">
      <path d="M 406.744738 246.04 
L 406.744738 26.16 
" clip-path="url(#p83ab2b094a)" style="fill: none; stroke: #b0b0b0; stroke-width: 0.8; stroke-linecap: square"/>
     </g>
     <g id="line2d_12">
      <g>
       <use xlink:href="#ma2645378b3" x="406.744738" y="246.04" style="stroke: #000000; stroke-width: 0.8"/>
      </g>
     </g>
     <g id="text_6">
      <!-- 2.5 -->
      <g transform="translate(398.793176 260.638438) scale(0.1 -0.1)">
       <use xlink:href="#DejaVuSans-32"/>
       <use xlink:href="#DejaVuSans-2e" transform="translate(63.623047 0)"/>
       <use xlink:href="#DejaVuSans-35" transform="translate(95.410156 0)"/>
      </g>
     </g>
    </g>
    <g id="xtick_7">
     <g id="line2d_13">
      <path d="M 476.857686 246.04 
L 476.857686 26.16 
" clip-path="url(#p83ab2b094a)" style="fill: none; stroke: #b0b0b0; stroke-width: 0.8; stroke-linecap: square"/>
     </g>
     <g id="line2d_14">
      <g>
       <use xlink:href="#ma2645378b3" x="476.857686" y="246.04" style="stroke: #000000; stroke-width: 0.8"/>
      </g>
     </g>
     <g id="text_7">
      <!-- 3.0 -->
      <g transform="translate(468.906123 260.638438) scale(0.1 -0.1)">
       <defs>
        <path id="DejaVuSans-33" d="M 2597 2516 
Q 3050 2419 3304 2112 
Q 3559 1806 3559 1356 
Q 3559 666 3084 287 
Q 2609 -91 1734 -91 
Q 1441 -91 1130 -33 
Q 819 25 488 141 
L 488 750 
Q 750 597 1062 519 
Q 1375 441 1716 441 
Q 2309 441 2620 675 
Q 2931 909 2931 1356 
Q 2931 1769 2642 2001 
Q 2353 2234 1838 2234 
L 1294 2234 
L 1294 2753 
L 1863 2753 
Q 2328 2753 2575 2939 
Q 2822 3125 2822 3475 
Q 2822 3834 2567 4026 
Q 2313 4219 1838 4219 
Q 1578 4219 1281 4162 
Q 984 4106 628 3988 
L 628 4550 
Q 988 4650 1302 4700 
Q 1616 4750 1894 4750 
Q 2613 4750 3031 4423 
Q 3450 4097 3450 3541 
Q 3450 3153 3228 2886 
Q 3006 2619 2597 2516 
z
" transform="scale(0.015625)"/>
       </defs>
       <use xlink:href="#DejaVuSans-33"/>
       <use xlink:href="#DejaVuSans-2e" transform="translate(63.623047 0)"/>
       <use xlink:href="#DejaVuSans-30" transform="translate(95.410156 0)"/>
      </g>
     </g>
    </g>
    <g id="xtick_8">
     <g id="line2d_15">
      <path d="M 546.970634 246.04 
L 546.970634 26.16 
" clip-path="url(#p83ab2b094a)" style="fill: none; stroke: #b0b0b0; stroke-width: 0.8; stroke-linecap: square"/>
     </g>
     <g id="line2d_16">
      <g>
       <use xlink:href="#ma2645378b3" x="546.970634" y="246.04" style="stroke: #000000; stroke-width: 0.8"/>
      </g>
     </g>
     <g id="text_8">
      <!-- 3.5 -->
      <g transform="translate(539.019071 260.638438) scale(0.1 -0.1)">
       <use xlink:href="#DejaVuSans-33"/>
       <use xlink:href="#DejaVuSans-2e" transform="translate(63.623047 0)"/>
       <use xlink:href="#DejaVuSans-35" transform="translate(95.410156 0)"/>
      </g>
     </g>
    </g>
    <g id="text_9">
     <!-- Time (us) -->
     <g transform="translate(287.192344 274.316562) scale(0.1 -0.1)">
      <defs>
       <path id="DejaVuSans-54" d="M -19 4666 
L 3928 4666 
L 3928 4134 
L 2272 4134 
L 2272 0 
L 1638 0 
L 1638 4134 
L -19 4134 
L -19 4666 
z
" transform="scale(0.015625)"/>
       <path id="DejaVuSans-69" d="M 603 3500 
L 1178 3500 
L 1178 0 
L 603 0 
L 603 3500 
z
M 603 4863 
L 1178 4863 
L 1178 4134 
L 603 4134 
L 603 4863 
z
" transform="scale(0.015625)"/>
       <path id="DejaVuSans-6d" d="M 3328 2828 
Q 3544 3216 3844 3400 
Q 4144 3584 4550 3584 
Q 5097 3584 5394 3201 
Q 5691 2819 5691 2113 
L 5691 0 
L 5113 0 
L 5113 2094 
Q 5113 2597 4934 2840 
Q 4756 3084 4391 3084 
Q 3944 3084 3684 2787 
Q 3425 2491 3425 1978 
L 3425 0 
L 2847 0 
L 2847 2094 
Q 2847 2600 2669 2842 
Q 2491 3084 2119 3084 
Q 1678 3084 1418 2786 
Q 1159 2488 1159 1978 
L 1159 0 
L 581 0 
L 581 3500 
L 1159 3500 
L 1159 2956 
Q 1356 3278 1631 3431 
Q 1906 3584 2284 3584 
Q 2666 3584 2933 3390 
Q 3200 3197 3328 2828 
z
" transform="scale(0.015625)"/>
       <path id="DejaVuSans-65" d="M 3597 1894 
L 3597 1613 
L 953 1613 
Q 991 1019 1311 708 
Q 1631 397 2203 397 
Q 2534 397 2845 478 
Q 3156 559 3463 722 
L 3463 178 
Q 3153 47 2828 -22 
Q 2503 -91 2169 -91 
Q 1331 -91 842 396 
Q 353 884 353 1716 
Q 353 2575 817 3079 
Q 1281 3584 2069 3584 
Q 2775 3584 3186 3129 
Q 3597 2675 3597 1894 
z
M 3022 2063 
Q 3016 2534 2758 2815 
Q 2500 3097 2075 3097 
Q 1594 3097 1305 2825 
Q 1016 2553 972 2059 
L 3022 2063 
z
" transform="scale(0.015625)"/>
       <path id="DejaVuSans-20" transform="scale(0.015625)"/>
       <path id="DejaVuSans-28" d="M 1984 4856 
Q 1566 4138 1362 3434 
Q 1159 2731 1159 2009 
Q 1159 1288 1364 580 
Q 1569 -128 1984 -844 
L 1484 -844 
Q 1016 -109 783 600 
Q 550 1309 550 2009 
Q 550 2706 781 3412 
Q 1013 4119 1484 4856 
L 1984 4856 
z
" transform="scale(0.015625)"/>
       <path id="DejaVuSans-75" d="M 544 1381 
L 544 3500 
L 1119 3500 
L 1119 1403 
Q 1119 906 1312 657 
Q 1506 409 1894 409 
Q 2359 409 2629 706 
Q 2900 1003 2900 1516 
L 2900 3500 
L 3475 3500 
L 3475 0 
L 2900 0 
L 2900 538 
Q 2691 219 2414 64 
Q 2138 -91 1772 -91 
Q 1169 -91 856 284 
Q 544 659 544 1381 
z
M 1991 3584 
L 1991 3584 
z
" transform="scale(0.015625)"/>
       <path id="DejaVuSans-73" d="M 2834 3397 
L 2834 2853 
Q 2591 2978 2328 3040 
Q 2066 3103 1784 3103 
Q 1356 3103 1142 2972 
Q 928 2841 928 2578 
Q 928 2378 1081 2264 
Q 1234 2150 1697 2047 
L 1894 2003 
Q 2506 1872 2764 1633 
Q 3022 1394 3022 966 
Q 3022 478 2636 193 
Q 2250 -91 1575 -91 
Q 1294 -91 989 -36 
Q 684 19 347 128 
L 347 722 
Q 666 556 975 473 
Q 1284 391 1588 391 
Q 1994 391 2212 530 
Q 2431 669 2431 922 
Q 2431 1156 2273 1281 
Q 2116 1406 1581 1522 
L 1381 1569 
Q 847 1681 609 1914 
Q 372 2147 372 2553 
Q 372 3047 722 3315 
Q 1072 3584 1716 3584 
Q 2034 3584 2315 3537 
Q 2597 3491 2834 3397 
z
" transform="scale(0.015625)"/>
       <path id="DejaVuSans-29" d="M 513 4856 
L 1013 4856 
Q 1481 4119 1714 3412 
Q 1947 2706 1947 2009 
Q 1947 1309 1714 600 
Q 1481 -109 1013 -844 
L 513 -844 
Q 928 -128 1133 580 
Q 1338 1288 1338 2009 
Q 1338 2731 1133 3434 
Q 928 4138 513 4856 
z
" transform="scale(0.015625)"/>
      </defs>
      <use xlink:href="#DejaVuSans-54"/>
      <use xlink:href="#DejaVuSans-69" transform="translate(57.958984 0)"/>
      <use xlink:href="#DejaVuSans-6d" transform="translate(85.742188 0)"/>
      <use xlink:href="#DejaVuSans-65" transform="translate(183.154297 0)"/>
      <use xlink:href="#DejaVuSans-20" transform="translate(244.677734 0)"/>
      <use xlink:href="#DejaVuSans-28" transform="translate(276.464844 0)"/>
      <use xlink:href="#DejaVuSans-75" transform="translate(315.478516 0)"/>
      <use xlink:href="#DejaVuSans-73" transform="translate(378.857422 0)"/>
      <use xlink:href="#DejaVuSans-29" transform="translate(430.957031 0)"/>
     </g>
    </g>
   </g>
   <g id="matplotlib.axis_2">
    <g id="ytick_1">
     <g id="line2d_17">
      <path d="M 56.18 236.114084 
L 565.2 236.114084 
" clip-path="url(#p83ab2b094a)" style="fill: none; stroke: #b0b0b0; stroke-width: 0.8; stroke-linecap: square"/>
     </g>
     <g id="line2d_18">
      <defs>
       <path id="m6fdea85859" d="M 0 0 
L -3.5 0 
" style="stroke: #000000; stroke-width: 0.8"/>
      </defs>
      <g>
       <use xlink:href="#m6fdea85859" x="56.18" y="236.114084" style="stroke: #000000; stroke-width: 0.8"/>
      </g>
     </g>
     <g id="text_10">
      <!-- −0.6 -->
      <g transform="translate(24.897188 239.913303) scale(0.1 -0.1)">
       <defs>
        <path id="DejaVuSans-2212" d="M 678 2272 
L 4684 2272 
L 4684 1741 
L 678 1741 
L 678 2272 
z
" transform="scale(0.015625)"/>
        <path id="DejaVuSans-36" d="M 2113 2584 
Q 1688 2584 1439 2293 
Q 1191 2003 1191 1497 
Q 1191 994 1439 701 
Q 1688 409 2113 409 
Q 2538 409 2786 701 
Q 3034 994 3034 1497 
Q 3034 2003 2786 2293 
Q 2538 2584 2113 2584 
z
M 3366 4563 
L 3366 3988 
Q 3128 4100 2886 4159 
Q 2644 4219 2406 4219 
Q 1781 4219 1451 3797 
Q 1122 3375 1075 2522 
Q 1259 2794 1537 2939 
Q 1816 3084 2150 3084 
Q 2853 3084 3261 2657 
Q 3669 2231 3669 1497 
Q 3669 778 3244 343 
Q 2819 -91 2113 -91 
Q 1303 -91 875 529 
Q 447 1150 447 2328 
Q 447 3434 972 4092 
Q 1497 4750 2381 4750 
Q 2619 4750 2861 4703 
Q 3103 4656 3366 4563 
z
" transform="scale(0.015625)"/>
       </defs>
       <use xlink:href="#DejaVuSans-2212"/>
       <use xlink:href="#DejaVuSans-30" transform="translate(83.789062 0)"/>
       <use xlink:href="#DejaVuSans-2e" transform="translate(147.412109 0)"/>
       <use xlink:href="#DejaVuSans-36" transform="translate(179.199219 0)"/>
      </g>
     </g>
    </g>
    <g id="ytick_2">
     <g id="line2d_19">
      <path d="M 56.18 203.850327 
L 565.2 203.850327 
" clip-path="url(#p83ab2b094a)" style="fill: none; stroke: #b0b0b0; stroke-width: 0.8; stroke-linecap: square"/>
     </g>
     <g id="line2d_20">
      <g>
       <use xlink:href="#m6fdea85859" x="56.18" y="203.850327" style="stroke: #000000; stroke-width: 0.8"/>
      </g>
     </g>
     <g id="text_11">
      <!-- −0.4 -->
      <g transform="translate(24.897188 207.649546) scale(0.1 -0.1)">
       <defs>
        <path id="DejaVuSans-34" d="M 2419 4116 
L 825 1625 
L 2419 1625 
L 2419 4116 
z
M 2253 4666 
L 3047 4666 
L 3047 1625 
L 3713 1625 
L 3713 1100 
L 3047 1100 
L 3047 0 
L 2419 0 
L 2419 1100 
L 313 1100 
L 313 1709 
L 2253 4666 
z
" transform="scale(0.015625)"/>
       </defs>
       <use xlink:href="#DejaVuSans-2212"/>
       <use xlink:href="#DejaVuSans-30" transform="translate(83.789062 0)"/>
       <use xlink:href="#DejaVuSans-2e" transform="translate(147.412109 0)"/>
       <use xlink:href="#DejaVuSans-34" transform="translate(179.199219 0)"/>
      </g>
     </g>
    </g>
    <g id="ytick_3">
     <g id="line2d_21">
      <path d="M 56.18 171.58657 
L 565.2 171.58657 
" clip-path="url(#p83ab2b094a)" style="fill: none; stroke: #b0b0b0; stroke-width: 0.8; stroke-linecap: square"/>
     </g>
     <g id="line2d_22">
      <g>
       <use xlink:href="#m6fdea85859" x="56.18" y="171.58657" style="stroke: #000000; stroke-width: 0.8"/>
      </g>
     </g>
     <g id="text_12">
      <!-- −0.2 -->
      <g transform="translate(24.897188 175.385789) scale(0.1 -0.1)">
       <use xlink:href="#DejaVuSans-2212"/>
       <use xlink:href="#DejaVuSans-30" transform="translate(83.789062 0)"/>
       <use xlink:href="#DejaVuSans-2e" transform="translate(147.412109 0)"/>
       <use xlink:href="#DejaVuSans-32" transform="translate(179.199219 0)"/>
      </g>
     </g>
    </g>
    <g id="ytick_4">
     <g id="line2d_23">
      <path d="M 56.18 139.322813 
L 565.2 139.322813 
" clip-path="url(#p83ab2b094a)" style="fill: none; stroke: #b0b0b0; stroke-width: 0.8; stroke-linecap: square"/>
     </g>
     <g id="line2d_24">
      <g>
       <use xlink:href="#m6fdea85859" x="56.18" y="139.322813" style="stroke: #000000; stroke-width: 0.8"/>
      </g>
     </g>
     <g id="text_13">
      <!-- 0.0 -->
      <g transform="translate(33.276875 143.122032) scale(0.1 -0.1)">
       <use xlink:href="#DejaVuSans-30"/>
       <use xlink:href="#DejaVuSans-2e" transform="translate(63.623047 0)"/>
       <use xlink:href="#DejaVuSans-30" transform="translate(95.410156 0)"/>
      </g>
     </g>
    </g>
    <g id="ytick_5">
     <g id="line2d_25">
      <path d="M 56.18 107.059057 
L 565.2 107.059057 
" clip-path="url(#p83ab2b094a)" style="fill: none; stroke: #b0b0b0; stroke-width: 0.8; stroke-linecap: square"/>
     </g>
     <g id="line2d_26">
      <g>
       <use xlink:href="#m6fdea85859" x="56.18" y="107.059057" style="stroke: #000000; stroke-width: 0.8"/>
      </g>
     </g>
     <g id="text_14">
      <!-- 0.2 -->
      <g transform="translate(33.276875 110.858275) scale(0.1 -0.1)">
       <use xlink:href="#DejaVuSans-30"/>
       <use xlink:href="#DejaVuSans-2e" transform="translate(63.623047 0)"/>
       <use xlink:href="#DejaVuSans-32" transform="translate(95.410156 0)"/>
      </g>
     </g>
    </g>
    <g id="ytick_6">
     <g id="line2d_27">
      <path d="M 56.18 74.7953 
L 565.2 74.7953 
" clip-path="url(#p83ab2b094a)" style="fill: none; stroke: #b0b0b0; stroke-width: 0.8; stroke-linecap: square"/>
     </g>
     <g id="line2d_28">
      <g>
       <use xlink:href="#m6fdea85859" x="56.18" y="74.7953" style="stroke: #000000; stroke-width: 0.8"/>
      </g>
     </g>
     <g id="text_15">
      <!-- 0.4 -->
      <g transform="translate(33.276875 78.594518) scale(0.1 -0.1)">
       <use xlink:href="#DejaVuSans-30"/>
       <use xlink:href="#DejaVuSans-2e" transform="translate(63.623047 0)"/>
       <use xlink:href="#DejaVuSans-34" transform="translate(95.410156 0)"/>
      </g>
     </g>
    </g>
    <g id="ytick_7">
     <g id="line2d_29">
      <path d="M 56.18 42.531543 
L 565.2 42.531543 
" clip-path="url(#p83ab2b094a)" style="fill: none; stroke: #b0b0b0; stroke-width: 0.8; stroke-linecap: square"/>
     </g>
     <g id="line2d_30">
      <g>
       <use xlink:href="#m6fdea85859" x="56.18" y="42.531543" style="stroke: #000000; stroke-width: 0.8"/>
      </g>
     </g>
     <g id="text_16">
      <!-- 0.6 -->
      <g transform="translate(33.276875 46.330762) scale(0.1 -0.1)">
       <use xlink:href="#DejaVuSans-30"/>
       <use xlink:href="#DejaVuSans-2e" transform="translate(63.623047 0)"/>
       <use xlink:href="#DejaVuSans-36" transform="translate(95.410156 0)"/>
      </g>
     </g>
    </g>
    <g id="text_17">
     <!-- Amplitude -->
     <g transform="translate(18.8175 161.722656) rotate(-90) scale(0.1 -0.1)">
      <defs>
       <path id="DejaVuSans-41" d="M 2188 4044 
L 1331 1722 
L 3047 1722 
L 2188 4044 
z
M 1831 4666 
L 2547 4666 
L 4325 0 
L 3669 0 
L 3244 1197 
L 1141 1197 
L 716 0 
L 50 0 
L 1831 4666 
z
" transform="scale(0.015625)"/>
       <path id="DejaVuSans-70" d="M 1159 525 
L 1159 -1331 
L 581 -1331 
L 581 3500 
L 1159 3500 
L 1159 2969 
Q 1341 3281 1617 3432 
Q 1894 3584 2278 3584 
Q 2916 3584 3314 3078 
Q 3713 2572 3713 1747 
Q 3713 922 3314 415 
Q 2916 -91 2278 -91 
Q 1894 -91 1617 61 
Q 1341 213 1159 525 
z
M 3116 1747 
Q 3116 2381 2855 2742 
Q 2594 3103 2138 3103 
Q 1681 3103 1420 2742 
Q 1159 2381 1159 1747 
Q 1159 1113 1420 752 
Q 1681 391 2138 391 
Q 2594 391 2855 752 
Q 3116 1113 3116 1747 
z
" transform="scale(0.015625)"/>
       <path id="DejaVuSans-6c" d="M 603 4863 
L 1178 4863 
L 1178 0 
L 603 0 
L 603 4863 
z
" transform="scale(0.015625)"/>
       <path id="DejaVuSans-74" d="M 1172 4494 
L 1172 3500 
L 2356 3500 
L 2356 3053 
L 1172 3053 
L 1172 1153 
Q 1172 725 1289 603 
Q 1406 481 1766 481 
L 2356 481 
L 2356 0 
L 1766 0 
Q 1100 0 847 248 
Q 594 497 594 1153 
L 594 3053 
L 172 3053 
L 172 3500 
L 594 3500 
L 594 4494 
L 1172 4494 
z
" transform="scale(0.015625)"/>
       <path id="DejaVuSans-64" d="M 2906 2969 
L 2906 4863 
L 3481 4863 
L 3481 0 
L 2906 0 
L 2906 525 
Q 2725 213 2448 61 
Q 2172 -91 1784 -91 
Q 1150 -91 751 415 
Q 353 922 353 1747 
Q 353 2572 751 3078 
Q 1150 3584 1784 3584 
Q 2172 3584 2448 3432 
Q 2725 3281 2906 2969 
z
M 947 1747 
Q 947 1113 1208 752 
Q 1469 391 1925 391 
Q 2381 391 2643 752 
Q 2906 1113 2906 1747 
Q 2906 2381 2643 2742 
Q 2381 3103 1925 3103 
Q 1469 3103 1208 2742 
Q 947 2381 947 1747 
z
" transform="scale(0.015625)"/>
      </defs>
      <use xlink:href="#DejaVuSans-41"/>
      <use xlink:href="#DejaVuSans-6d" transform="translate(68.408203 0)"/>
      <use xlink:href="#DejaVuSans-70" transform="translate(165.820312 0)"/>
      <use xlink:href="#DejaVuSans-6c" transform="translate(229.296875 0)"/>
      <use xlink:href="#DejaVuSans-69" transform="translate(257.080078 0)"/>
      <use xlink:href="#DejaVuSans-74" transform="translate(284.863281 0)"/>
      <use xlink:href="#DejaVuSans-75" transform="translate(324.072266 0)"/>
      <use xlink:href="#DejaVuSans-64" transform="translate(387.451172 0)"/>
      <use xlink:href="#DejaVuSans-65" transform="translate(450.927734 0)"/>
     </g>
    </g>
   </g>
   <g id="line2d_31">
    <path d="M 56.18 92.126138 
L 57.582259 80.479524 
L 58.984518 69.837657 
L 60.386777 60.969533 
L 61.789036 54.601983 
L 63.191295 51.364373 
L 64.593554 51.736721 
L 65.995813 56.005366 
L 67.398072 64.230019 
L 68.800331 76.225412 
L 70.20259 91.559535 
L 71.604848 109.569483 
L 77.213884 189.283043 
L 78.616143 205.729241 
L 80.018402 218.758756 
L 81.420661 227.621679 
L 82.82292 231.811146 
L 84.225179 231.101098 
L 85.627438 225.565654 
L 87.029697 215.578337 
L 88.431956 201.790958 
L 89.834215 185.093456 
L 95.443251 111.842995 
L 96.84551 97.734864 
L 98.247769 87.270299 
L 99.650028 81.059077 
L 101.052287 79.422748 
L 102.454545 82.374017 
L 103.856804 89.616758 
L 105.259063 100.566536 
L 106.661322 114.390277 
L 112.270358 176.514855 
L 113.672617 188.00641 
L 115.074876 195.904575 
L 116.477135 199.571539 
L 117.879394 198.649709 
L 119.281653 193.085996 
L 120.683912 183.136399 
L 122.086171 169.350666 
L 123.48843 152.53806 
L 129.097466 77.101241 
L 130.499725 62.191073 
L 131.901983 51.023147 
L 133.304242 44.363902 
L 134.706501 42.711583 
L 136.10876 46.26404 
L 137.511019 54.90518 
L 138.913278 68.210983 
L 140.315537 85.474563 
L 141.717796 105.748808 
L 147.326832 193.103097 
L 148.729091 210.349502 
L 150.13135 223.639438 
L 151.533609 232.270717 
L 152.935868 235.823695 
L 154.338127 234.185562 
L 155.740386 227.555653 
L 157.142645 216.431364 
L 158.544904 201.575618 
L 159.947163 183.967999 
L 164.153939 126.31139 
L 165.556198 109.481644 
L 166.958457 95.637208 
L 168.360716 85.58362 
L 169.762975 79.871874 
L 171.165234 78.765063 
L 172.567493 82.223345 
L 173.969752 89.908154 
L 175.372011 101.205333 
L 176.77427 115.265768 
L 182.383306 177.326607 
L 183.785565 188.643373 
L 185.187824 196.351527 
L 186.590083 199.834871 
L 187.992342 198.752678 
L 189.394601 193.06302 
L 190.79686 183.027178 
L 192.199118 169.194767 
L 193.601377 152.370505 
L 199.210413 77.067618 
L 200.612672 62.192691 
L 202.014931 51.048667 
L 203.41719 44.400079 
L 204.819449 42.745647 
L 206.221708 46.28563 
L 207.623967 54.90766 
L 209.026226 68.192104 
L 210.428485 85.436414 
L 211.830744 105.697204 
L 217.43978 193.089129 
L 218.842039 210.364773 
L 220.244298 223.687056 
L 221.646556 232.350495 
L 223.048815 235.932296 
L 224.451074 234.316978 
L 225.853333 227.701986 
L 227.255592 216.583768 
L 228.657851 201.725301 
L 230.06011 184.10719 
L 234.266887 126.393182 
L 235.669146 109.544304 
L 237.071405 95.684918 
L 238.473664 85.622417 
L 239.875923 79.908937 
L 241.278182 78.807892 
L 242.680441 82.278908 
L 244.0827 89.982115 
L 245.484959 101.301388 
L 246.887218 115.385209 
L 252.496253 177.502019 
L 253.898512 188.813538 
L 255.300771 196.506971 
L 256.70303 199.966578 
L 258.105289 198.852874 
L 259.507548 193.125811 
L 260.909807 183.049036 
L 262.312066 169.174797 
L 263.714325 152.310469 
L 269.323361 76.907079 
L 270.72562 62.027456 
L 272.127879 50.886687 
L 273.530138 44.248066 
L 274.932397 42.60863 
L 276.334656 46.166691 
L 277.736915 54.807896 
L 279.139174 68.110781 
L 280.541433 85.371317 
L 281.943691 105.645115 
L 287.552727 193.056679 
L 288.954986 210.333396 
L 290.357245 223.657935 
L 291.759504 232.326184 
L 293.161763 235.916423 
L 294.564022 234.313792 
L 295.966281 227.71581 
L 297.36854 216.618401 
L 298.770799 201.783446 
L 300.173058 184.18997 
L 304.379835 126.536921 
L 305.782094 109.697586 
L 307.184353 95.839894 
L 308.586612 85.770592 
L 309.988871 80.041883 
L 311.391129 78.917983 
L 312.793388 82.360016 
L 314.195647 90.030197 
L 315.597906 101.314898 
L 317.000165 115.365314 
L 322.609201 177.409406 
L 324.01146 188.726319 
L 325.413719 196.435628 
L 326.815978 199.920877 
L 328.218237 198.841247 
L 329.620496 193.154886 
L 331.022755 183.12333 
L 332.425014 169.296603 
L 333.827273 152.479925 
L 339.436309 77.235334 
L 340.838567 62.382627 
L 342.240826 51.263086 
L 343.643085 44.640205 
L 345.045344 43.011335 
L 346.447603 46.575113 
L 347.849862 55.217427 
L 349.252121 68.516924 
L 350.65438 85.769541 
L 352.056639 106.030744 
L 357.665675 193.342757 
L 359.067934 210.583254 
L 360.470193 223.868541 
L 361.872452 232.495931 
L 363.274711 236.045455 
L 364.67697 234.404224 
L 366.079229 227.771781 
L 367.481488 216.645934 
L 368.883747 201.790107 
L 370.286006 184.184327 
L 374.492782 126.544788 
L 375.895041 109.722398 
L 377.2973 95.883863 
L 378.699559 85.832767 
L 380.101818 80.118001 
L 381.504077 79.00063 
L 382.906336 82.4391 
L 384.308595 90.093711 
L 385.710854 101.349912 
L 387.113113 115.359115 
L 392.722149 177.15495 
L 394.124408 188.407352 
L 395.526667 196.059848 
L 396.928926 199.499937 
L 398.331185 198.389939 
L 399.733444 192.690035 
L 401.135702 182.662491 
L 402.537961 168.856682 
L 403.94022 152.075842 
L 409.549256 77.049889 
L 410.951515 62.248427 
L 412.353774 51.170566 
L 413.756033 44.577065 
L 415.158292 42.963716 
L 416.560551 46.528863 
L 417.96281 55.159336 
L 419.365069 68.435796 
L 420.767328 85.657013 
L 422.169587 105.881777 
L 427.778623 193.061191 
L 429.180882 210.282712 
L 430.58314 223.55599 
L 431.985399 232.177375 
L 433.387658 235.725228 
L 434.789917 234.084557 
L 436.192176 227.452674 
L 437.594435 216.325373 
L 438.996694 201.464575 
L 440.398953 183.849564 
L 444.60573 126.163163 
L 446.007989 109.325286 
L 447.410248 95.47617 
L 448.812507 85.422645 
L 450.214766 79.716578 
L 451.617025 78.621387 
L 453.019284 82.096945 
L 454.421543 89.803825 
L 455.823802 101.126486 
L 457.226061 115.21409 
L 462.835096 177.364103 
L 464.237355 188.691486 
L 465.639614 196.404625 
L 467.041873 199.887901 
L 468.444132 198.801746 
L 469.846391 193.105816 
L 471.24865 183.06324 
L 472.650909 169.225535 
L 474.053168 152.39915 
L 479.662204 77.138501 
L 481.064463 62.286176 
L 482.466722 51.167142 
L 483.868981 44.543904 
L 485.27124 42.912989 
L 486.673499 46.472511 
L 488.075758 55.108249 
L 489.478017 68.399198 
L 490.880275 85.642083 
L 492.282534 105.893522 
L 497.89157 193.193355 
L 499.293829 210.442837 
L 500.696088 223.742535 
L 502.098347 232.389035 
L 503.500606 235.961058 
L 504.902865 234.343927 
L 506.305124 227.735095 
L 507.707383 216.630211 
L 509.109642 201.790708 
L 510.511901 184.195043 
L 514.718678 126.543149 
L 516.120937 109.704707 
L 517.523196 95.847296 
L 518.925455 85.777295 
L 520.327713 80.046657 
L 521.729972 78.919469 
L 523.132231 82.356837 
L 524.53449 90.021056 
L 525.936749 101.298665 
L 527.339008 115.341084 
L 532.948044 177.349184 
L 534.350303 188.657075 
L 535.752562 196.357458 
L 537.154821 199.833717 
L 538.55708 198.744733 
L 539.959339 193.048218 
L 541.361598 183.005165 
L 542.763857 169.164986 
L 544.166116 152.332281 
L 549.775152 76.989733 
L 551.17741 62.104277 
L 552.579669 50.950036 
L 553.981928 44.291907 
L 555.384187 42.629017 
L 556.786446 46.16206 
L 558.188705 54.779138 
L 559.590964 68.061089 
L 560.993223 85.30583 
L 562.395482 105.570396 
L 565.2 150.536241 
L 565.2 150.536241 
" clip-path="url(#p83ab2b094a)" style="fill: none; stroke: #1f77b4; stroke-width: 1.5; stroke-linecap: square"/>
   </g>
   <g id="line2d_32">
    <path d="M 56.18 182.510046 
L 57.582259 183.355883 
L 58.984518 181.748839 
L 60.386777 177.614699 
L 61.789036 171.069836 
L 63.191295 162.42583 
L 64.593554 152.178282 
L 68.800331 118.864661 
L 70.20259 109.610107 
L 71.604848 102.602968 
L 73.007107 98.485296 
L 74.409366 97.717112 
L 75.811625 100.532155 
L 77.213884 106.909265 
L 78.616143 116.562205 
L 80.018402 128.949303 
L 82.82292 158.676586 
L 85.627438 188.190421 
L 87.029697 200.152753 
L 88.431956 208.935269 
L 89.834215 213.761794 
L 91.236474 214.099175 
L 92.638733 209.700811 
L 94.040992 200.630606 
L 95.443251 187.265516 
L 96.84551 170.27626 
L 98.247769 150.587429 
L 102.454545 87.072089 
L 103.856804 68.629812 
L 105.259063 53.518319 
L 106.661322 42.668855 
L 108.063581 36.756164 
L 109.46584 36.154545 
L 110.868099 40.913604 
L 112.270358 50.755216 
L 113.672617 65.091788 
L 115.074876 83.064339 
L 117.879394 125.470164 
L 120.683912 168.076338 
L 122.086171 186.343109 
L 123.48843 201.168108 
L 124.890689 211.757752 
L 126.292948 217.594041 
L 127.695207 218.464174 
L 129.097466 214.47058 
L 130.499725 206.021023 
L 131.901983 193.799485 
L 133.304242 178.719858 
L 138.913278 112.50947 
L 140.315537 100.217287 
L 141.717796 91.53406 
L 143.120055 87.040919 
L 144.522314 87.036369 
L 145.924573 91.517675 
L 147.326832 100.181438 
L 148.729091 112.443277 
L 150.13135 127.475324 
L 155.740386 193.501427 
L 157.142645 205.716536 
L 158.544904 214.198658 
L 159.947163 218.272974 
L 161.349421 217.53692 
L 162.75168 211.887761 
L 164.153939 201.531342 
L 165.556198 186.971513 
L 166.958457 168.980793 
L 169.762975 126.848319 
L 172.567493 84.607463 
L 173.969752 66.535395 
L 175.372011 51.958553 
L 176.77427 41.737256 
L 178.176529 36.475937 
L 179.578788 36.485778 
L 180.981047 41.76545 
L 182.383306 52.001202 
L 183.785565 66.586331 
L 185.187824 84.658721 
L 187.992342 126.872299 
L 190.79686 168.941161 
L 192.199118 186.889745 
L 193.601377 201.403755 
L 195.003636 211.713775 
L 196.405895 217.319399 
L 197.808154 218.018339 
L 199.210413 213.916725 
L 200.612672 205.420087 
L 202.014931 193.205475 
L 203.41719 178.176634 
L 209.026226 112.371855 
L 210.428485 100.179596 
L 211.830744 91.581314 
L 213.233003 87.154756 
L 214.635262 87.197006 
L 216.037521 91.705524 
L 217.43978 100.378312 
L 218.842039 112.633225 
L 220.244298 127.645104 
L 225.853333 193.515893 
L 227.255592 205.686746 
L 228.657851 214.12682 
L 230.06011 218.162902 
L 231.462369 217.393641 
L 232.864628 211.717113 
L 234.266887 201.339515 
L 235.669146 186.764609 
L 237.071405 168.764386 
L 239.875923 126.62563 
L 242.680441 84.386419 
L 244.0827 66.31457 
L 245.484959 51.735965 
L 246.887218 41.51021 
L 248.289477 36.241509 
L 249.691736 36.241395 
L 251.093994 41.509441 
L 252.496253 51.733294 
L 253.898512 66.308047 
L 255.300771 84.373578 
L 258.105289 126.591874 
L 260.909807 168.699928 
L 262.312066 186.68257 
L 263.714325 201.239591 
L 265.116584 211.600041 
L 266.518843 217.261227 
L 267.921102 218.017973 
L 269.323361 213.973093 
L 270.72562 205.528626 
L 272.127879 193.35822 
L 273.530138 178.362583 
L 279.139174 112.544949 
L 280.541433 100.312468 
L 281.943691 91.662449 
L 283.34595 87.175823 
L 284.748209 87.153435 
L 286.150468 91.596814 
L 287.552727 100.208053 
L 288.954986 112.408819 
L 290.357245 127.377216 
L 295.966281 193.215702 
L 297.36854 205.413781 
L 298.770799 213.891783 
L 300.173058 217.973491 
L 301.575317 217.254182 
L 302.977576 211.628469 
L 304.379835 201.299277 
L 305.782094 186.767542 
L 307.184353 168.80309 
L 309.988871 126.709161 
L 312.793388 84.480456 
L 314.195647 66.404452 
L 315.597906 51.818421 
L 317.000165 41.584548 
L 318.402424 36.309574 
L 319.804683 36.30728 
L 321.206942 41.578965 
L 322.609201 51.81332 
L 324.01146 66.405683 
L 325.413719 84.495345 
L 328.218237 126.775282 
L 331.022755 168.946869 
L 332.425014 186.955007 
L 333.827273 201.529783 
L 335.229532 211.898111 
L 336.631791 217.555836 
L 338.03405 218.297145 
L 339.436309 214.225111 
L 340.838567 205.742939 
L 342.240826 193.526269 
L 343.643085 178.47849 
L 349.252121 112.459194 
L 350.65438 100.193974 
L 352.056639 91.523152 
L 353.458898 87.028817 
L 354.861157 87.012088 
L 356.263416 91.473878 
L 357.665675 100.114856 
L 359.067934 112.354582 
L 360.470193 127.368553 
L 366.079229 193.397873 
L 367.481488 205.632997 
L 368.883747 214.140251 
L 370.286006 218.242742 
L 371.688264 217.535716 
L 373.090523 211.914346 
L 374.492782 201.582586 
L 375.895041 187.04274 
L 377.2973 169.066168 
L 380.101818 126.94198 
L 382.906336 84.682772 
L 384.308595 66.592999 
L 385.710854 51.9942 
L 387.113113 41.748086 
L 388.515372 36.460636 
L 389.917631 36.444681 
L 391.31989 41.70053 
L 392.722149 51.915967 
L 394.124408 66.485647 
L 395.526667 84.548506 
L 398.331185 126.763175 
L 401.135702 168.859606 
L 402.537961 186.830103 
L 403.94022 201.369714 
L 405.342479 211.707382 
L 406.744738 217.340925 
L 408.146997 218.066289 
L 409.549256 213.987962 
L 410.951515 205.5101 
L 412.353774 193.308754 
L 413.756033 178.287129 
L 419.365069 112.457285 
L 420.767328 100.250807 
L 422.169587 91.6384 
L 423.571846 87.199625 
L 424.974105 87.233254 
L 426.376364 91.738153 
L 427.778623 100.413345 
L 429.180882 112.677215 
L 430.58314 127.704599 
L 436.192176 193.684489 
L 437.594435 205.886243 
L 438.996694 214.354687 
L 440.398953 218.414689 
L 441.801212 217.663278 
L 443.203471 211.99735 
L 444.60573 201.622463 
L 446.007989 187.042346 
L 447.410248 169.029581 
L 450.214766 126.84894 
L 453.019284 84.558216 
L 454.421543 66.462494 
L 455.823802 51.864047 
L 457.226061 41.624126 
L 458.62832 36.348038 
L 460.030579 36.347749 
L 461.432837 41.622533 
L 462.835096 51.859003 
L 464.237355 66.450544 
L 465.639614 84.534773 
L 468.444132 126.785545 
L 471.24865 168.90176 
L 472.650909 186.873997 
L 474.053168 201.409404 
L 475.455427 211.736968 
L 476.857686 217.354913 
L 478.259945 218.059936 
L 479.662204 213.95759 
L 481.064463 205.45334 
L 482.466722 193.224713 
L 483.868981 178.176456 
L 489.478017 112.273828 
L 490.880275 100.062155 
L 492.282534 91.450297 
L 493.684793 87.017365 
L 495.087052 87.061299 
L 496.489311 91.579819 
L 497.89157 100.270575 
L 499.293829 112.550466 
L 500.696088 127.592841 
L 506.305124 193.599003 
L 507.707383 205.795814 
L 509.109642 214.254829 
L 510.511901 218.301639 
L 511.91416 217.534301 
L 513.316419 211.850947 
L 514.718678 201.458484 
L 516.120937 186.861992 
L 517.523196 168.835304 
L 520.327713 126.63815 
L 523.132231 84.349793 
L 524.53449 66.262571 
L 525.936749 51.677043 
L 527.339008 41.45384 
L 528.741267 36.19751 
L 530.143526 36.219206 
L 531.545785 41.517411 
L 532.948044 51.778044 
L 534.350303 66.393943 
L 535.752562 84.50236 
L 538.55708 126.800488 
L 541.361598 168.9634 
L 542.763857 186.95933 
L 544.166116 201.518971 
L 545.568375 211.871423 
L 546.970634 217.514855 
L 548.372893 218.245703 
L 549.775152 214.169025 
L 551.17741 205.689565 
L 552.579669 193.483924 
L 553.981928 178.455772 
L 559.590964 112.581808 
L 560.993223 100.359512 
L 562.395482 91.728806 
L 563.797741 87.268858 
L 565.2 87.278082 
L 565.2 87.278082 
" clip-path="url(#p83ab2b094a)" style="fill: none; stroke: #ff7f0e; stroke-width: 1.5; stroke-linecap: square"/>
   </g>
   <g id="patch_3">
    <path d="M 56.18 246.04 
L 56.18 26.16 
" style="fill: none; stroke: #000000; stroke-width: 0.8; stroke-linejoin: miter; stroke-linecap: square"/>
   </g>
   <g id="patch_4">
    <path d="M 565.2 246.04 
L 565.2 26.16 
" style="fill: none; stroke: #000000; stroke-width: 0.8; stroke-linejoin: miter; stroke-linecap: square"/>
   </g>
   <g id="patch_5">
    <path d="M 56.18 246.04 
L 565.2 246.04 
" style="fill: none; stroke: #000000; stroke-width: 0.8; stroke-linejoin: miter; stroke-linecap: square"/>
   </g>
   <g id="patch_6">
    <path d="M 56.18 26.16 
L 565.2 26.16 
" style="fill: none; stroke: #000000; stroke-width: 0.8; stroke-linejoin: miter; stroke-linecap: square"/>
   </g>
   <g id="text_18">
    <!-- LPF Output I/Q (Time Domain) -->
    <g transform="translate(220.650625 20.16) scale(0.12 -0.12)">
     <defs>
      <path id="DejaVuSans-4c" d="M 628 4666 
L 1259 4666 
L 1259 531 
L 3531 531 
L 3531 0 
L 628 0 
L 628 4666 
z
" transform="scale(0.015625)"/>
      <path id="DejaVuSans-50" d="M 1259 4147 
L 1259 2394 
L 2053 2394 
Q 2494 2394 2734 2622 
Q 2975 2850 2975 3272 
Q 2975 3691 2734 3919 
Q 2494 4147 2053 4147 
L 1259 4147 
z
M 628 4666 
L 2053 4666 
Q 2838 4666 3239 4311 
Q 3641 3956 3641 3272 
Q 3641 2581 3239 2228 
Q 2838 1875 2053 1875 
L 1259 1875 
L 1259 0 
L 628 0 
L 628 4666 
z
" transform="scale(0.015625)"/>
      <path id="DejaVuSans-46" d="M 628 4666 
L 3309 4666 
L 3309 4134 
L 1259 4134 
L 1259 2759 
L 3109 2759 
L 3109 2228 
L 1259 2228 
L 1259 0 
L 628 0 
L 628 4666 
z
" transform="scale(0.015625)"/>
      <path id="DejaVuSans-4f" d="M 2522 4238 
Q 1834 4238 1429 3725 
Q 1025 3213 1025 2328 
Q 1025 1447 1429 934 
Q 1834 422 2522 422 
Q 3209 422 3611 934 
Q 4013 1447 4013 2328 
Q 4013 3213 3611 3725 
Q 3209 4238 2522 4238 
z
M 2522 4750 
Q 3503 4750 4090 4092 
Q 4678 3434 4678 2328 
Q 4678 1225 4090 567 
Q 3503 -91 2522 -91 
Q 1538 -91 948 565 
Q 359 1222 359 2328 
Q 359 3434 948 4092 
Q 1538 4750 2522 4750 
z
" transform="scale(0.015625)"/>
      <path id="DejaVuSans-49" d="M 628 4666 
L 1259 4666 
L 1259 0 
L 628 0 
L 628 4666 
z
" transform="scale(0.015625)"/>
      <path id="DejaVuSans-2f" d="M 1625 4666 
L 2156 4666 
L 531 -594 
L 0 -594 
L 1625 4666 
z
" transform="scale(0.015625)"/>
      <path id="DejaVuSans-51" d="M 2522 4238 
Q 1834 4238 1429 3725 
Q 1025 3213 1025 2328 
Q 1025 1447 1429 934 
Q 1834 422 2522 422 
Q 3209 422 3611 934 
Q 4013 1447 4013 2328 
Q 4013 3213 3611 3725 
Q 3209 4238 2522 4238 
z
M 3406 84 
L 4238 -825 
L 3475 -825 
L 2784 -78 
Q 2681 -84 2626 -87 
Q 2572 -91 2522 -91 
Q 1538 -91 948 567 
Q 359 1225 359 2328 
Q 359 3434 948 4092 
Q 1538 4750 2522 4750 
Q 3503 4750 4090 4092 
Q 4678 3434 4678 2328 
Q 4678 1516 4351 937 
Q 4025 359 3406 84 
z
" transform="scale(0.015625)"/>
      <path id="DejaVuSans-44" d="M 1259 4147 
L 1259 519 
L 2022 519 
Q 2988 519 3436 956 
Q 3884 1394 3884 2338 
Q 3884 3275 3436 3711 
Q 2988 4147 2022 4147 
L 1259 4147 
z
M 628 4666 
L 1925 4666 
Q 3281 4666 3915 4102 
Q 4550 3538 4550 2338 
Q 4550 1131 3912 565 
Q 3275 0 1925 0 
L 628 0 
L 628 4666 
z
" transform="scale(0.015625)"/>
      <path id="DejaVuSans-6f" d="M 1959 3097 
Q 1497 3097 1228 2736 
Q 959 2375 959 1747 
Q 959 1119 1226 758 
Q 1494 397 1959 397 
Q 2419 397 2687 759 
Q 2956 1122 2956 1747 
Q 2956 2369 2687 2733 
Q 2419 3097 1959 3097 
z
M 1959 3584 
Q 2709 3584 3137 3096 
Q 3566 2609 3566 1747 
Q 3566 888 3137 398 
Q 2709 -91 1959 -91 
Q 1206 -91 779 398 
Q 353 888 353 1747 
Q 353 2609 779 3096 
Q 1206 3584 1959 3584 
z
" transform="scale(0.015625)"/>
      <path id="DejaVuSans-61" d="M 2194 1759 
Q 1497 1759 1228 1600 
Q 959 1441 959 1056 
Q 959 750 1161 570 
Q 1363 391 1709 391 
Q 2188 391 2477 730 
Q 2766 1069 2766 1631 
L 2766 1759 
L 2194 1759 
z
M 3341 1997 
L 3341 0 
L 2766 0 
L 2766 531 
Q 2569 213 2275 61 
Q 1981 -91 1556 -91 
Q 1019 -91 701 211 
Q 384 513 384 1019 
Q 384 1609 779 1909 
Q 1175 2209 1959 2209 
L 2766 2209 
L 2766 2266 
Q 2766 2663 2505 2880 
Q 2244 3097 1772 3097 
Q 1472 3097 1187 3025 
Q 903 2953 641 2809 
L 641 3341 
Q 956 3463 1253 3523 
Q 1550 3584 1831 3584 
Q 2591 3584 2966 3190 
Q 3341 2797 3341 1997 
z
" transform="scale(0.015625)"/>
      <path id="DejaVuSans-6e" d="M 3513 2113 
L 3513 0 
L 2938 0 
L 2938 2094 
Q 2938 2591 2744 2837 
Q 2550 3084 2163 3084 
Q 1697 3084 1428 2787 
Q 1159 2491 1159 1978 
L 1159 0 
L 581 0 
L 581 3500 
L 1159 3500 
L 1159 2956 
Q 1366 3272 1645 3428 
Q 1925 3584 2291 3584 
Q 2894 3584 3203 3211 
Q 3513 2838 3513 2113 
z
" transform="scale(0.015625)"/>
     </defs>
     <use xlink:href="#DejaVuSans-4c"/>
     <use xlink:href="#DejaVuSans-50" transform="translate(55.712891 0)"/>
     <use xlink:href="#DejaVuSans-46" transform="translate(116.015625 0)"/>
     <use xlink:href="#DejaVuSans-20" transform="translate(173.535156 0)"/>
     <use xlink:href="#DejaVuSans-4f" transform="translate(205.322266 0)"/>
     <use xlink:href="#DejaVuSans-75" transform="translate(284.033203 0)"/>
     <use xlink:href="#DejaVuSans-74" transform="translate(347.412109 0)"/>
     <use xlink:href="#DejaVuSans-70" transform="translate(386.621094 0)"/>
     <use xlink:href="#DejaVuSans-75" transform="translate(450.097656 0)"/>
     <use xlink:href="#DejaVuSans-74" transform="translate(513.476562 0)"/>
     <use xlink:href="#DejaVuSans-20" transform="translate(552.685547 0)"/>
     <use xlink:href="#DejaVuSans-49" transform="translate(584.472656 0)"/>
     <use xlink:href="#DejaVuSans-2f" transform="translate(613.964844 0)"/>
     <use xlink:href="#DejaVuSans-51" transform="translate(647.65625 0)"/>
     <use xlink:href="#DejaVuSans-20" transform="translate(726.367188 0)"/>
     <use xlink:href="#DejaVuSans-28" transform="translate(758.154297 0)"/>
     <use xlink:href="#DejaVuSans-54" transform="translate(797.167969 0)"/>
     <use xlink:href="#DejaVuSans-69" transform="translate(855.126953 0)"/>
     <use xlink:href="#DejaVuSans-6d" transform="translate(882.910156 0)"/>
     <use xlink:href="#DejaVuSans-65" transform="translate(980.322266 0)"/>
     <use xlink:href="#DejaVuSans-20" transform="translate(1041.845703 0)"/>
     <use xlink:href="#DejaVuSans-44" transform="translate(1073.632812 0)"/>
     <use xlink:href="#DejaVuSans-6f" transform="translate(1150.634766 0)"/>
     <use xlink:href="#DejaVuSans-6d" transform="translate(1211.816406 0)"/>
     <use xlink:href="#DejaVuSans-61" transform="translate(1309.228516 0)"/>
     <use xlink:href="#DejaVuSans-69" transform="translate(1370.507812 0)"/>
     <use xlink:href="#DejaVuSans-6e" transform="translate(1398.291016 0)"/>
     <use xlink:href="#DejaVuSans-29" transform="translate(1461.669922 0)"/>
    </g>
   </g>
   <g id="legend_1">
    <g id="patch_7">
     <path d="M 518.328125 63.51625 
L 558.2 63.51625 
Q 560.2 63.51625 560.2 61.51625 
L 560.2 33.16 
Q 560.2 31.16 558.2 31.16 
L 518.328125 31.16 
Q 516.328125 31.16 516.328125 33.16 
L 516.328125 61.51625 
Q 516.328125 63.51625 518.328125 63.51625 
z
" style="fill: #ffffff; opacity: 0.8; stroke: #cccccc; stroke-linejoin: miter"/>
    </g>
    <g id="line2d_33">
     <path d="M 520.328125 39.258437 
L 530.328125 39.258437 
L 540.328125 39.258437 
" style="fill: none; stroke: #1f77b4; stroke-width: 1.5; stroke-linecap: square"/>
    </g>
    <g id="text_19">
     <!-- I -->
     <g transform="translate(548.328125 42.758437) scale(0.1 -0.1)">
      <use xlink:href="#DejaVuSans-49"/>
     </g>
    </g>
    <g id="line2d_34">
     <path d="M 520.328125 53.936562 
L 530.328125 53.936562 
L 540.328125 53.936562 
" style="fill: none; stroke: #ff7f0e; stroke-width: 1.5; stroke-linecap: square"/>
    </g>
    <g id="text_20">
     <!-- Q -->
     <g transform="translate(548.328125 57.436562) scale(0.1 -0.1)">
      <use xlink:href="#DejaVuSans-51"/>
     </g>
    </g>
   </g>
  </g>
 </g>
 <defs>
  <clipPath id="p83ab2b094a">
   <rect x="56.18" y="26.16" width="509.02" height="219.88"/>
  </clipPath>
 </defs>
</svg>
