<?xml version="1.0" encoding="utf-8" standalone="no"?>
<!DOCTYPE svg PUBLIC "-//W3C//DTD SVG 1.1//EN"
  "http://www.w3.org/Graphics/SVG/1.1/DTD/svg11.dtd">
<svg xmlns:xlink="http://www.w3.org/1999/xlink" width="576pt" height="288pt" viewBox="0 0 576 288" xmlns="http://www.w3.org/2000/svg" version="1.1">
 <metadata>
  <rdf:RDF xmlns:dc="http://purl.org/dc/elements/1.1/" xmlns:cc="http://creativecommons.org/ns#" xmlns:rdf="http://www.w3.org/1999/02/22-rdf-syntax-ns#">
   <cc:Work>
    <dc:type rdf:resource="http://purl.org/dc/dcmitype/StillImage"/>
    <dc:date>2026-02-03T22:26:34.046844</dc:date>
    <dc:format>image/svg+xml</dc:format>
    <dc:creator>
     <cc:Agent>
      <dc:title>Matplotlib v3.10.8, https://matplotlib.org/</dc:title>
     </cc:Agent>
    </dc:creator>
   </cc:Work>
  </rdf:RDF>
 </metadata>
 <defs>
  <style type="text/css">*{stroke-linejoin: round; stroke-linecap: butt}</style>
 </defs>
 <g id="figure_1">
  <g id="patch_1">
   <path d="M 0 288 
L 576 288 
L 576 0 
L 0 0 
z
" style="fill: #ffffff"/>
  </g>
  <g id="axes_1">
   <g id="patch_2">
    <path d="M 56.18 246.04 
L 565.2 246.04 
L 565.2 26.16 
L 56.18 26.16 
z
" style="fill: #ffffff"/>
   </g>
   <g id="matplotlib.axis_1">
    <g id="xtick_1">
     <g id="line2d_1">
      <path d="M 56.18 246.04 
L 56.18 26.16 
" clip-path="url(#p06d346eb02)" style="fill: none; stroke: #b0b0b0; stroke-width: 0.8; stroke-linecap: square"/>
     </g>
     <g id="line2d_2">
      <defs>
       <path id="me5cffc0590" d="M 0 0 
L 0 3.5 
" style="stroke: #000000; stroke-width: 0.8"/>
      </defs>
      <g>
       <use xlink:href="#me5cffc0590" x="56.18" y="246.04" style="stroke: #000000; stroke-width: 0.8"/>
      </g>
     </g>
     <g id="text_1">
      <!-- 0.0 -->
      <g transform="translate(48.228438 260.638438) scale(0.1 -0.1)">
       <defs>
        <path id="DejaVuSans-30" d="M 2034 4250 
Q 1547 4250 1301 3770 
Q 1056 3291 1056 2328 
Q 1056 1369 1301 889 
Q 1547 409 2034 409 
Q 2525 409 2770 889 
Q 3016 1369 3016 2328 
Q 3016 3291 2770 3770 
Q 2525 4250 2034 4250 
z
M 2034 4750 
Q 2819 4750 3233 4129 
Q 3647 3509 3647 2328 
Q 3647 1150 3233 529 
Q 2819 -91 2034 -91 
Q 1250 -91 836 529 
Q 422 1150 422 2328 
Q 422 3509 836 4129 
Q 1250 4750 2034 4750 
z
" transform="scale(0.015625)"/>
        <path id="DejaVuSans-2e" d="M 684 794 
L 1344 794 
L 1344 0 
L 684 0 
L 684 794 
z
" transform="scale(0.015625)"/>
       </defs>
       <use xlink:href="#DejaVuSans-30"/>
       <use xlink:href="#DejaVuSans-2e" transform="translate(63.623047 0)"/>
       <use xlink:href="#DejaVuSans-30" transform="translate(95.410156 0)"/>
      </g>
     </g>
    </g>
    <g id="xtick_2">
     <g id="line2d_3">
      <path d="M 126.292948 246.04 
L 126.292948 26.16 
" clip-path="url(#p06d346eb02)" style="fill: none; stroke: #b0b0b0; stroke-width: 0.8; stroke-linecap: square"/>
     </g>
     <g id="line2d_4">
      <g>
       <use xlink:href="#me5cffc0590" x="126.292948" y="246.04" style="stroke: #000000; stroke-width: 0.8"/>
      </g>
     </g>
     <g id="text_2">
      <!-- 0.5 -->
      <g transform="translate(118.341385 260.638438) scale(0.1 -0.1)">
       <defs>
        <path id="DejaVuSans-35" d="M 691 4666 
L 3169 4666 
L 3169 4134 
L 1269 4134 
L 1269 2991 
Q 1406 3038 1543 3061 
Q 1681 3084 1819 3084 
Q 2600 3084 3056 2656 
Q 3513 2228 3513 1497 
Q 3513 744 3044 326 
Q 2575 -91 1722 -91 
Q 1428 -91 1123 -41 
Q 819 9 494 109 
L 494 744 
Q 775 591 1075 516 
Q 1375 441 1709 441 
Q 2250 441 2565 725 
Q 2881 1009 2881 1497 
Q 2881 1984 2565 2268 
Q 2250 2553 1709 2553 
Q 1456 2553 1204 2497 
Q 953 2441 691 2322 
L 691 4666 
z
" transform="scale(0.015625)"/>
       </defs>
       <use xlink:href="#DejaVuSans-30"/>
       <use xlink:href="#DejaVuSans-2e" transform="translate(63.623047 0)"/>
       <use xlink:href="#DejaVuSans-35" transform="translate(95.410156 0)"/>
      </g>
     </g>
    </g>
    <g id="xtick_3">
     <g id="line2d_5">
      <path d="M 196.405895 246.04 
L 196.405895 26.16 
" clip-path="url(#p06d346eb02)" style="fill: none; stroke: #b0b0b0; stroke-width: 0.8; stroke-linecap: square"/>
     </g>
     <g id="line2d_6">
      <g>
       <use xlink:href="#me5cffc0590" x="196.405895" y="246.04" style="stroke: #000000; stroke-width: 0.8"/>
      </g>
     </g>
     <g id="text_3">
      <!-- 1.0 -->
      <g transform="translate(188.454333 260.638438) scale(0.1 -0.1)">
       <defs>
        <path id="DejaVuSans-31" d="M 794 531 
L 1825 531 
L 1825 4091 
L 703 3866 
L 703 4441 
L 1819 4666 
L 2450 4666 
L 2450 531 
L 3481 531 
L 3481 0 
L 794 0 
L 794 531 
z
" transform="scale(0.015625)"/>
       </defs>
       <use xlink:href="#DejaVuSans-31"/>
       <use xlink:href="#DejaVuSans-2e" transform="translate(63.623047 0)"/>
       <use xlink:href="#DejaVuSans-30" transform="translate(95.410156 0)"/>
      </g>
     </g>
    </g>
    <g id="xtick_4">
     <g id="line2d_7">
      <path d="M 266.518843 246.04 
L 266.518843 26.16 
" clip-path="url(#p06d346eb02)" style="fill: none; stroke: #b0b0b0; stroke-width: 0.8; stroke-linecap: square"/>
     </g>
     <g id="line2d_8">
      <g>
       <use xlink:href="#me5cffc0590" x="266.518843" y="246.04" style="stroke: #000000; stroke-width: 0.8"/>
      </g>
     </g>
     <g id="text_4">
      <!-- 1.5 -->
      <g transform="translate(258.56728 260.638438) scale(0.1 -0.1)">
       <use xlink:href="#DejaVuSans-31"/>
       <use xlink:href="#DejaVuSans-2e" transform="translate(63.623047 0)"/>
       <use xlink:href="#DejaVuSans-35" transform="translate(95.410156 0)"/>
      </g>
     </g>
    </g>
    <g id="xtick_5">
     <g id="line2d_9">
      <path d="M 336.631791 246.04 
L 336.631791 26.16 
" clip-path="url(#p06d346eb02)" style="fill: none; stroke: #b0b0b0; stroke-width: 0.8; stroke-linecap: square"/>
     </g>
     <g id="line2d_10">
      <g>
       <use xlink:href="#me5cffc0590" x="336.631791" y="246.04" style="stroke: #000000; stroke-width: 0.8"/>
      </g>
     </g>
     <g id="text_5">
      <!-- 2.0 -->
      <g transform="translate(328.680228 260.638438) scale(0.1 -0.1)">
       <defs>
        <path id="DejaVuSans-32" d="M 1228 531 
L 3431 531 
L 3431 0 
L 469 0 
L 469 531 
Q 828 903 1448 1529 
Q 2069 2156 2228 2338 
Q 2531 2678 2651 2914 
Q 2772 3150 2772 3378 
Q 2772 3750 2511 3984 
Q 2250 4219 1831 4219 
Q 1534 4219 1204 4116 
Q 875 4013 500 3803 
L 500 4441 
Q 881 4594 1212 4672 
Q 1544 4750 1819 4750 
Q 2544 4750 2975 4387 
Q 3406 4025 3406 3419 
Q 3406 3131 3298 2873 
Q 3191 2616 2906 2266 
Q 2828 2175 2409 1742 
Q 1991 1309 1228 531 
z
" transform="scale(0.015625)"/>
       </defs>
       <use xlink:href="#DejaVuSans-32"/>
       <use xlink:href="#DejaVuSans-2e" transform="translate(63.623047 0)"/>
       <use xlink:href="#DejaVuSans-30" transform="translate(95.410156 0)"/>
      </g>
     </g>
    </g>
    <g id="xtick_6">
     <g id="line2d_11">
      <path d="M 406.744738 246.04 
L 406.744738 26.16 
" clip-path="url(#p06d346eb02)" style="fill: none; stroke: #b0b0b0; stroke-width: 0.8; stroke-linecap: square"/>
     </g>
     <g id="line2d_12">
      <g>
       <use xlink:href="#me5cffc0590" x="406.744738" y="246.04" style="stroke: #000000; stroke-width: 0.8"/>
      </g>
     </g>
     <g id="text_6">
      <!-- 2.5 -->
      <g transform="translate(398.793176 260.638438) scale(0.1 -0.1)">
       <use xlink:href="#DejaVuSans-32"/>
       <use xlink:href="#DejaVuSans-2e" transform="translate(63.623047 0)"/>
       <use xlink:href="#DejaVuSans-35" transform="translate(95.410156 0)"/>
      </g>
     </g>
    </g>
    <g id="xtick_7">
     <g id="line2d_13">
      <path d="M 476.857686 246.04 
L 476.857686 26.16 
" clip-path="url(#p06d346eb02)" style="fill: none; stroke: #b0b0b0; stroke-width: 0.8; stroke-linecap: square"/>
     </g>
     <g id="line2d_14">
      <g>
       <use xlink:href="#me5cffc0590" x="476.857686" y="246.04" style="stroke: #000000; stroke-width: 0.8"/>
      </g>
     </g>
     <g id="text_7">
      <!-- 3.0 -->
      <g transform="translate(468.906123 260.638438) scale(0.1 -0.1)">
       <defs>
        <path id="DejaVuSans-33" d="M 2597 2516 
Q 3050 2419 3304 2112 
Q 3559 1806 3559 1356 
Q 3559 666 3084 287 
Q 2609 -91 1734 -91 
Q 1441 -91 1130 -33 
Q 819 25 488 141 
L 488 750 
Q 750 597 1062 519 
Q 1375 441 1716 441 
Q 2309 441 2620 675 
Q 2931 909 2931 1356 
Q 2931 1769 2642 2001 
Q 2353 2234 1838 2234 
L 1294 2234 
L 1294 2753 
L 1863 2753 
Q 2328 2753 2575 2939 
Q 2822 3125 2822 3475 
Q 2822 3834 2567 4026 
Q 2313 4219 1838 4219 
Q 1578 4219 1281 4162 
Q 984 4106 628 3988 
L 628 4550 
Q 988 4650 1302 4700 
Q 1616 4750 1894 4750 
Q 2613 4750 3031 4423 
Q 3450 4097 3450 3541 
Q 3450 3153 3228 2886 
Q 3006 2619 2597 2516 
z
" transform="scale(0.015625)"/>
       </defs>
       <use xlink:href="#DejaVuSans-33"/>
       <use xlink:href="#DejaVuSans-2e" transform="translate(63.623047 0)"/>
       <use xlink:href="#DejaVuSans-30" transform="translate(95.410156 0)"/>
      </g>
     </g>
    </g>
    <g id="xtick_8">
     <g id="line2d_15">
      <path d="M 546.970634 246.04 
L 546.970634 26.16 
" clip-path="url(#p06d346eb02)" style="fill: none; stroke: #b0b0b0; stroke-width: 0.8; stroke-linecap: square"/>
     </g>
     <g id="line2d_16">
      <g>
       <use xlink:href="#me5cffc0590" x="546.970634" y="246.04" style="stroke: #000000; stroke-width: 0.8"/>
      </g>
     </g>
     <g id="text_8">
      <!-- 3.5 -->
      <g transform="translate(539.019071 260.638438) scale(0.1 -0.1)">
       <use xlink:href="#DejaVuSans-33"/>
       <use xlink:href="#DejaVuSans-2e" transform="translate(63.623047 0)"/>
       <use xlink:href="#DejaVuSans-35" transform="translate(95.410156 0)"/>
      </g>
     </g>
    </g>
    <g id="text_9">
     <!-- Time (us) -->
     <g transform="translate(287.192344 274.316562) scale(0.1 -0.1)">
      <defs>
       <path id="DejaVuSans-54" d="M -19 4666 
L 3928 4666 
L 3928 4134 
L 2272 4134 
L 2272 0 
L 1638 0 
L 1638 4134 
L -19 4134 
L -19 4666 
z
" transform="scale(0.015625)"/>
       <path id="DejaVuSans-69" d="M 603 3500 
L 1178 3500 
L 1178 0 
L 603 0 
L 603 3500 
z
M 603 4863 
L 1178 4863 
L 1178 4134 
L 603 4134 
L 603 4863 
z
" transform="scale(0.015625)"/>
       <path id="DejaVuSans-6d" d="M 3328 2828 
Q 3544 3216 3844 3400 
Q 4144 3584 4550 3584 
Q 5097 3584 5394 3201 
Q 5691 2819 5691 2113 
L 5691 0 
L 5113 0 
L 5113 2094 
Q 5113 2597 4934 2840 
Q 4756 3084 4391 3084 
Q 3944 3084 3684 2787 
Q 3425 2491 3425 1978 
L 3425 0 
L 2847 0 
L 2847 2094 
Q 2847 2600 2669 2842 
Q 2491 3084 2119 3084 
Q 1678 3084 1418 2786 
Q 1159 2488 1159 1978 
L 1159 0 
L 581 0 
L 581 3500 
L 1159 3500 
L 1159 2956 
Q 1356 3278 1631 3431 
Q 1906 3584 2284 3584 
Q 2666 3584 2933 3390 
Q 3200 3197 3328 2828 
z
" transform="scale(0.015625)"/>
       <path id="DejaVuSans-65" d="M 3597 1894 
L 3597 1613 
L 953 1613 
Q 991 1019 1311 708 
Q 1631 397 2203 397 
Q 2534 397 2845 478 
Q 3156 559 3463 722 
L 3463 178 
Q 3153 47 2828 -22 
Q 2503 -91 2169 -91 
Q 1331 -91 842 396 
Q 353 884 353 1716 
Q 353 2575 817 3079 
Q 1281 3584 2069 3584 
Q 2775 3584 3186 3129 
Q 3597 2675 3597 1894 
z
M 3022 2063 
Q 3016 2534 2758 2815 
Q 2500 3097 2075 3097 
Q 1594 3097 1305 2825 
Q 1016 2553 972 2059 
L 3022 2063 
z
" transform="scale(0.015625)"/>
       <path id="DejaVuSans-20" transform="scale(0.015625)"/>
       <path id="DejaVuSans-28" d="M 1984 4856 
Q 1566 4138 1362 3434 
Q 1159 2731 1159 2009 
Q 1159 1288 1364 580 
Q 1569 -128 1984 -844 
L 1484 -844 
Q 1016 -109 783 600 
Q 550 1309 550 2009 
Q 550 2706 781 3412 
Q 1013 4119 1484 4856 
L 1984 4856 
z
" transform="scale(0.015625)"/>
       <path id="DejaVuSans-75" d="M 544 1381 
L 544 3500 
L 1119 3500 
L 1119 1403 
Q 1119 906 1312 657 
Q 1506 409 1894 409 
Q 2359 409 2629 706 
Q 2900 1003 2900 1516 
L 2900 3500 
L 3475 3500 
L 3475 0 
L 2900 0 
L 2900 538 
Q 2691 219 2414 64 
Q 2138 -91 1772 -91 
Q 1169 -91 856 284 
Q 544 659 544 1381 
z
M 1991 3584 
L 1991 3584 
z
" transform="scale(0.015625)"/>
       <path id="DejaVuSans-73" d="M 2834 3397 
L 2834 2853 
Q 2591 2978 2328 3040 
Q 2066 3103 1784 3103 
Q 1356 3103 1142 2972 
Q 928 2841 928 2578 
Q 928 2378 1081 2264 
Q 1234 2150 1697 2047 
L 1894 2003 
Q 2506 1872 2764 1633 
Q 3022 1394 3022 966 
Q 3022 478 2636 193 
Q 2250 -91 1575 -91 
Q 1294 -91 989 -36 
Q 684 19 347 128 
L 347 722 
Q 666 556 975 473 
Q 1284 391 1588 391 
Q 1994 391 2212 530 
Q 2431 669 2431 922 
Q 2431 1156 2273 1281 
Q 2116 1406 1581 1522 
L 1381 1569 
Q 847 1681 609 1914 
Q 372 2147 372 2553 
Q 372 3047 722 3315 
Q 1072 3584 1716 3584 
Q 2034 3584 2315 3537 
Q 2597 3491 2834 3397 
z
" transform="scale(0.015625)"/>
       <path id="DejaVuSans-29" d="M 513 4856 
L 1013 4856 
Q 1481 4119 1714 3412 
Q 1947 2706 1947 2009 
Q 1947 1309 1714 600 
Q 1481 -109 1013 -844 
L 513 -844 
Q 928 -128 1133 580 
Q 1338 1288 1338 2009 
Q 1338 2731 1133 3434 
Q 928 4138 513 4856 
z
" transform="scale(0.015625)"/>
      </defs>
      <use xlink:href="#DejaVuSans-54"/>
      <use xlink:href="#DejaVuSans-69" transform="translate(57.958984 0)"/>
      <use xlink:href="#DejaVuSans-6d" transform="translate(85.742188 0)"/>
      <use xlink:href="#DejaVuSans-65" transform="translate(183.154297 0)"/>
      <use xlink:href="#DejaVuSans-20" transform="translate(244.677734 0)"/>
      <use xlink:href="#DejaVuSans-28" transform="translate(276.464844 0)"/>
      <use xlink:href="#DejaVuSans-75" transform="translate(315.478516 0)"/>
      <use xlink:href="#DejaVuSans-73" transform="translate(378.857422 0)"/>
      <use xlink:href="#DejaVuSans-29" transform="translate(430.957031 0)"/>
     </g>
    </g>
   </g>
   <g id="matplotlib.axis_2">
    <g id="ytick_1">
     <g id="line2d_17">
      <path d="M 56.18 231.00231 
L 565.2 231.00231 
" clip-path="url(#p06d346eb02)" style="fill: none; stroke: #b0b0b0; stroke-width: 0.8; stroke-linecap: square"/>
     </g>
     <g id="line2d_18">
      <defs>
       <path id="mc567b1c6a0" d="M 0 0 
L -3.5 0 
" style="stroke: #000000; stroke-width: 0.8"/>
      </defs>
      <g>
       <use xlink:href="#mc567b1c6a0" x="56.18" y="231.00231" style="stroke: #000000; stroke-width: 0.8"/>
      </g>
     </g>
     <g id="text_10">
      <!-- −0.6 -->
      <g transform="translate(24.897188 234.801528) scale(0.1 -0.1)">
       <defs>
        <path id="DejaVuSans-2212" d="M 678 2272 
L 4684 2272 
L 4684 1741 
L 678 1741 
L 678 2272 
z
" transform="scale(0.015625)"/>
        <path id="DejaVuSans-36" d="M 2113 2584 
Q 1688 2584 1439 2293 
Q 1191 2003 1191 1497 
Q 1191 994 1439 701 
Q 1688 409 2113 409 
Q 2538 409 2786 701 
Q 3034 994 3034 1497 
Q 3034 2003 2786 2293 
Q 2538 2584 2113 2584 
z
M 3366 4563 
L 3366 3988 
Q 3128 4100 2886 4159 
Q 2644 4219 2406 4219 
Q 1781 4219 1451 3797 
Q 1122 3375 1075 2522 
Q 1259 2794 1537 2939 
Q 1816 3084 2150 3084 
Q 2853 3084 3261 2657 
Q 3669 2231 3669 1497 
Q 3669 778 3244 343 
Q 2819 -91 2113 -91 
Q 1303 -91 875 529 
Q 447 1150 447 2328 
Q 447 3434 972 4092 
Q 1497 4750 2381 4750 
Q 2619 4750 2861 4703 
Q 3103 4656 3366 4563 
z
" transform="scale(0.015625)"/>
       </defs>
       <use xlink:href="#DejaVuSans-2212"/>
       <use xlink:href="#DejaVuSans-30" transform="translate(83.789062 0)"/>
       <use xlink:href="#DejaVuSans-2e" transform="translate(147.412109 0)"/>
       <use xlink:href="#DejaVuSans-36" transform="translate(179.199219 0)"/>
      </g>
     </g>
    </g>
    <g id="ytick_2">
     <g id="line2d_19">
      <path d="M 56.18 197.2153 
L 565.2 197.2153 
" clip-path="url(#p06d346eb02)" style="fill: none; stroke: #b0b0b0; stroke-width: 0.8; stroke-linecap: square"/>
     </g>
     <g id="line2d_20">
      <g>
       <use xlink:href="#mc567b1c6a0" x="56.18" y="197.2153" style="stroke: #000000; stroke-width: 0.8"/>
      </g>
     </g>
     <g id="text_11">
      <!-- −0.4 -->
      <g transform="translate(24.897188 201.014519) scale(0.1 -0.1)">
       <defs>
        <path id="DejaVuSans-34" d="M 2419 4116 
L 825 1625 
L 2419 1625 
L 2419 4116 
z
M 2253 4666 
L 3047 4666 
L 3047 1625 
L 3713 1625 
L 3713 1100 
L 3047 1100 
L 3047 0 
L 2419 0 
L 2419 1100 
L 313 1100 
L 313 1709 
L 2253 4666 
z
" transform="scale(0.015625)"/>
       </defs>
       <use xlink:href="#DejaVuSans-2212"/>
       <use xlink:href="#DejaVuSans-30" transform="translate(83.789062 0)"/>
       <use xlink:href="#DejaVuSans-2e" transform="translate(147.412109 0)"/>
       <use xlink:href="#DejaVuSans-34" transform="translate(179.199219 0)"/>
      </g>
     </g>
    </g>
    <g id="ytick_3">
     <g id="line2d_21">
      <path d="M 56.18 163.428291 
L 565.2 163.428291 
" clip-path="url(#p06d346eb02)" style="fill: none; stroke: #b0b0b0; stroke-width: 0.8; stroke-linecap: square"/>
     </g>
     <g id="line2d_22">
      <g>
       <use xlink:href="#mc567b1c6a0" x="56.18" y="163.428291" style="stroke: #000000; stroke-width: 0.8"/>
      </g>
     </g>
     <g id="text_12">
      <!-- −0.2 -->
      <g transform="translate(24.897188 167.22751) scale(0.1 -0.1)">
       <use xlink:href="#DejaVuSans-2212"/>
       <use xlink:href="#DejaVuSans-30" transform="translate(83.789062 0)"/>
       <use xlink:href="#DejaVuSans-2e" transform="translate(147.412109 0)"/>
       <use xlink:href="#DejaVuSans-32" transform="translate(179.199219 0)"/>
      </g>
     </g>
    </g>
    <g id="ytick_4">
     <g id="line2d_23">
      <path d="M 56.18 129.641282 
L 565.2 129.641282 
" clip-path="url(#p06d346eb02)" style="fill: none; stroke: #b0b0b0; stroke-width: 0.8; stroke-linecap: square"/>
     </g>
     <g id="line2d_24">
      <g>
       <use xlink:href="#mc567b1c6a0" x="56.18" y="129.641282" style="stroke: #000000; stroke-width: 0.8"/>
      </g>
     </g>
     <g id="text_13">
      <!-- 0.0 -->
      <g transform="translate(33.276875 133.440501) scale(0.1 -0.1)">
       <use xlink:href="#DejaVuSans-30"/>
       <use xlink:href="#DejaVuSans-2e" transform="translate(63.623047 0)"/>
       <use xlink:href="#DejaVuSans-30" transform="translate(95.410156 0)"/>
      </g>
     </g>
    </g>
    <g id="ytick_5">
     <g id="line2d_25">
      <path d="M 56.18 95.854273 
L 565.2 95.854273 
" clip-path="url(#p06d346eb02)" style="fill: none; stroke: #b0b0b0; stroke-width: 0.8; stroke-linecap: square"/>
     </g>
     <g id="line2d_26">
      <g>
       <use xlink:href="#mc567b1c6a0" x="56.18" y="95.854273" style="stroke: #000000; stroke-width: 0.8"/>
      </g>
     </g>
     <g id="text_14">
      <!-- 0.2 -->
      <g transform="translate(33.276875 99.653492) scale(0.1 -0.1)">
       <use xlink:href="#DejaVuSans-30"/>
       <use xlink:href="#DejaVuSans-2e" transform="translate(63.623047 0)"/>
       <use xlink:href="#DejaVuSans-32" transform="translate(95.410156 0)"/>
      </g>
     </g>
    </g>
    <g id="ytick_6">
     <g id="line2d_27">
      <path d="M 56.18 62.067264 
L 565.2 62.067264 
" clip-path="url(#p06d346eb02)" style="fill: none; stroke: #b0b0b0; stroke-width: 0.8; stroke-linecap: square"/>
     </g>
     <g id="line2d_28">
      <g>
       <use xlink:href="#mc567b1c6a0" x="56.18" y="62.067264" style="stroke: #000000; stroke-width: 0.8"/>
      </g>
     </g>
     <g id="text_15">
      <!-- 0.4 -->
      <g transform="translate(33.276875 65.866483) scale(0.1 -0.1)">
       <use xlink:href="#DejaVuSans-30"/>
       <use xlink:href="#DejaVuSans-2e" transform="translate(63.623047 0)"/>
       <use xlink:href="#DejaVuSans-34" transform="translate(95.410156 0)"/>
      </g>
     </g>
    </g>
    <g id="ytick_7">
     <g id="line2d_29">
      <path d="M 56.18 28.280255 
L 565.2 28.280255 
" clip-path="url(#p06d346eb02)" style="fill: none; stroke: #b0b0b0; stroke-width: 0.8; stroke-linecap: square"/>
     </g>
     <g id="line2d_30">
      <g>
       <use xlink:href="#mc567b1c6a0" x="56.18" y="28.280255" style="stroke: #000000; stroke-width: 0.8"/>
      </g>
     </g>
     <g id="text_16">
      <!-- 0.6 -->
      <g transform="translate(33.276875 32.079474) scale(0.1 -0.1)">
       <use xlink:href="#DejaVuSans-30"/>
       <use xlink:href="#DejaVuSans-2e" transform="translate(63.623047 0)"/>
       <use xlink:href="#DejaVuSans-36" transform="translate(95.410156 0)"/>
      </g>
     </g>
    </g>
    <g id="text_17">
     <!-- Amplitude -->
     <g transform="translate(18.8175 161.722656) rotate(-90) scale(0.1 -0.1)">
      <defs>
       <path id="DejaVuSans-41" d="M 2188 4044 
L 1331 1722 
L 3047 1722 
L 2188 4044 
z
M 1831 4666 
L 2547 4666 
L 4325 0 
L 3669 0 
L 3244 1197 
L 1141 1197 
L 716 0 
L 50 0 
L 1831 4666 
z
" transform="scale(0.015625)"/>
       <path id="DejaVuSans-70" d="M 1159 525 
L 1159 -1331 
L 581 -1331 
L 581 3500 
L 1159 3500 
L 1159 2969 
Q 1341 3281 1617 3432 
Q 1894 3584 2278 3584 
Q 2916 3584 3314 3078 
Q 3713 2572 3713 1747 
Q 3713 922 3314 415 
Q 2916 -91 2278 -91 
Q 1894 -91 1617 61 
Q 1341 213 1159 525 
z
M 3116 1747 
Q 3116 2381 2855 2742 
Q 2594 3103 2138 3103 
Q 1681 3103 1420 2742 
Q 1159 2381 1159 1747 
Q 1159 1113 1420 752 
Q 1681 391 2138 391 
Q 2594 391 2855 752 
Q 3116 1113 3116 1747 
z
" transform="scale(0.015625)"/>
       <path id="DejaVuSans-6c" d="M 603 4863 
L 1178 4863 
L 1178 0 
L 603 0 
L 603 4863 
z
" transform="scale(0.015625)"/>
       <path id="DejaVuSans-74" d="M 1172 4494 
L 1172 3500 
L 2356 3500 
L 2356 3053 
L 1172 3053 
L 1172 1153 
Q 1172 725 1289 603 
Q 1406 481 1766 481 
L 2356 481 
L 2356 0 
L 1766 0 
Q 1100 0 847 248 
Q 594 497 594 1153 
L 594 3053 
L 172 3053 
L 172 3500 
L 594 3500 
L 594 4494 
L 1172 4494 
z
" transform="scale(0.015625)"/>
       <path id="DejaVuSans-64" d="M 2906 2969 
L 2906 4863 
L 3481 4863 
L 3481 0 
L 2906 0 
L 2906 525 
Q 2725 213 2448 61 
Q 2172 -91 1784 -91 
Q 1150 -91 751 415 
Q 353 922 353 1747 
Q 353 2572 751 3078 
Q 1150 3584 1784 3584 
Q 2172 3584 2448 3432 
Q 2725 3281 2906 2969 
z
M 947 1747 
Q 947 1113 1208 752 
Q 1469 391 1925 391 
Q 2381 391 2643 752 
Q 2906 1113 2906 1747 
Q 2906 2381 2643 2742 
Q 2381 3103 1925 3103 
Q 1469 3103 1208 2742 
Q 947 2381 947 1747 
z
" transform="scale(0.015625)"/>
      </defs>
      <use xlink:href="#DejaVuSans-41"/>
      <use xlink:href="#DejaVuSans-6d" transform="translate(68.408203 0)"/>
      <use xlink:href="#DejaVuSans-70" transform="translate(165.820312 0)"/>
      <use xlink:href="#DejaVuSans-6c" transform="translate(229.296875 0)"/>
      <use xlink:href="#DejaVuSans-69" transform="translate(257.080078 0)"/>
      <use xlink:href="#DejaVuSans-74" transform="translate(284.863281 0)"/>
      <use xlink:href="#DejaVuSans-75" transform="translate(324.072266 0)"/>
      <use xlink:href="#DejaVuSans-64" transform="translate(387.451172 0)"/>
      <use xlink:href="#DejaVuSans-65" transform="translate(450.927734 0)"/>
     </g>
    </g>
   </g>
   <g id="line2d_31">
    <path d="M 56.18 102.65306 
L 58.984518 90.033642 
L 60.386777 84.386673 
L 61.789036 79.526473 
L 63.191295 75.603327 
L 64.593554 72.663231 
L 65.995813 70.653374 
L 67.398072 69.438995 
L 68.800331 68.831616 
L 70.20259 68.62258 
L 75.811625 68.53359 
L 78.616143 68.386197 
L 80.018402 68.636302 
L 81.420661 69.383783 
L 82.82292 70.872779 
L 84.225179 73.348747 
L 85.627438 77.036709 
L 87.029697 82.122232 
L 88.431956 88.732139 
L 89.834215 96.921519 
L 91.236474 106.66127 
L 92.638733 117.834062 
L 95.443251 143.558759 
L 101.052287 198.080316 
L 102.454545 209.696989 
L 103.856804 219.595463 
L 105.259063 227.390353 
L 106.661322 232.775058 
L 108.063581 235.533903 
L 109.46584 235.556227 
L 110.868099 232.841236 
L 112.270358 227.497941 
L 113.672617 219.740199 
L 115.074876 209.872597 
L 116.477135 198.278395 
L 119.281653 171.690578 
L 123.48843 130.368991 
L 124.890689 117.930004 
L 126.292948 106.713555 
L 127.695207 96.934091 
L 129.097466 88.715235 
L 130.499725 82.092367 
L 131.901983 77.013589 
L 133.304242 73.353692 
L 134.706501 70.925495 
L 136.10876 69.500658 
L 137.511019 68.828011 
L 138.913278 68.655959 
L 144.522314 69.040448 
L 148.729091 68.598827 
L 150.13135 68.76209 
L 151.533609 69.429385 
L 152.935868 70.851258 
L 154.338127 73.277494 
L 155.740386 76.935123 
L 157.142645 82.010501 
L 158.544904 88.628802 
L 159.947163 96.84284 
L 161.349421 106.619036 
L 162.75168 117.836226 
L 165.556198 143.661979 
L 171.165234 198.382029 
L 172.567493 210.037071 
L 173.969752 219.964268 
L 175.372011 227.775107 
L 176.77427 233.160183 
L 178.176529 235.901958 
L 179.578788 235.889407 
L 180.981047 233.1233 
L 182.383306 227.716241 
L 183.785565 219.887454 
L 185.187824 209.948111 
L 186.590083 198.288413 
L 189.394601 171.612197 
L 193.601377 130.302035 
L 195.003636 117.898133 
L 196.405895 106.72338 
L 197.808154 96.985381 
L 199.210413 88.801297 
L 200.612672 82.20127 
L 202.014931 77.13006 
L 203.41719 73.461415 
L 204.819449 71.009529 
L 206.221708 69.549703 
L 207.623967 68.83618 
L 209.026226 68.623871 
L 211.830744 68.846768 
L 214.635262 68.974819 
L 218.842039 68.704 
L 220.244298 68.945473 
L 221.646556 69.689917 
L 223.048815 71.180545 
L 224.451074 73.66095 
L 225.853333 77.353862 
L 227.255592 82.443675 
L 228.657851 89.05594 
L 230.06011 97.245851 
L 231.462369 106.983654 
L 232.864628 118.152779 
L 235.669146 143.871915 
L 241.278182 198.432296 
L 242.680441 210.070647 
L 244.0827 219.992635 
L 245.484959 227.81006 
L 246.887218 233.213164 
L 248.289477 235.983195 
L 249.691736 236.0069 
L 251.093994 233.281765 
L 252.496253 227.916266 
L 253.898512 220.125078 
L 255.300771 210.21497 
L 256.70303 198.572506 
L 259.507548 171.887163 
L 263.714325 130.471619 
L 265.116584 118.022614 
L 266.518843 106.805351 
L 267.921102 97.031211 
L 269.323361 88.819865 
L 270.72562 82.202529 
L 272.127879 77.123669 
L 273.530138 73.455679 
L 274.932397 71.010713 
L 276.334656 69.561723 
L 277.736915 68.860592 
L 279.139174 68.660037 
L 281.943691 68.896706 
L 283.34595 69.013203 
L 284.748209 69.013702 
L 288.954986 68.658315 
L 290.357245 68.854313 
L 291.759504 69.548412 
L 293.161763 70.987877 
L 294.564022 73.421015 
L 295.966281 77.075258 
L 297.36854 82.138926 
L 298.770799 88.740063 
L 300.173058 96.934509 
L 301.575317 106.691217 
L 302.977576 117.890604 
L 305.782094 143.686937 
L 311.391129 198.353736 
L 312.793388 209.995647 
L 314.195647 219.911892 
L 315.597906 227.715534 
L 317.000165 233.098377 
L 318.402424 235.843369 
L 319.804683 235.839012 
L 321.206942 233.084604 
L 322.609201 227.690544 
L 324.01146 219.873537 
L 325.413719 209.942429 
L 326.815978 198.285785 
L 329.620496 171.599047 
L 333.827273 130.256668 
L 335.229532 117.848396 
L 336.631791 106.676244 
L 338.03405 96.948636 
L 339.436309 88.782255 
L 340.838567 82.205599 
L 342.240826 77.160937 
L 343.643085 73.519178 
L 345.045344 71.091788 
L 346.447603 69.65179 
L 347.849862 68.951776 
L 349.252121 68.745622 
L 352.056639 68.956743 
L 353.458898 69.056489 
L 354.861157 69.039757 
L 359.067934 68.643983 
L 360.470193 68.833375 
L 361.872452 69.524477 
L 363.274711 70.963633 
L 364.67697 73.397552 
L 366.079229 77.051607 
L 367.481488 82.111986 
L 368.883747 88.705014 
L 370.286006 96.885711 
L 371.688264 106.623426 
L 373.090523 117.800316 
L 375.895041 143.553547 
L 381.504077 198.238644 
L 382.906336 209.917571 
L 384.308595 219.881984 
L 385.710854 227.741901 
L 387.113113 233.185456 
L 388.515372 235.991719 
L 389.917631 236.045455 
L 391.31989 233.342595 
L 392.722149 227.990672 
L 394.124408 220.204106 
L 395.526667 210.290117 
L 396.928926 198.636398 
L 399.733444 171.913799 
L 403.94022 130.440741 
L 405.342479 117.980973 
L 406.744738 106.759505 
L 408.146997 96.987937 
L 409.549256 88.785217 
L 410.951515 82.180947 
L 412.353774 77.117298 
L 413.756033 73.463985 
L 415.158292 71.030507 
L 416.560551 69.587578 
L 417.96281 68.885587 
L 419.365069 68.676711 
L 422.169587 68.877145 
L 423.571846 68.96943 
L 424.974105 68.945129 
L 429.180882 68.537213 
L 430.58314 68.72786 
L 431.985399 69.422412 
L 433.387658 70.86637 
L 434.789917 73.305574 
L 436.192176 76.964758 
L 437.594435 82.029879 
L 438.996694 88.62744 
L 440.398953 96.812894 
L 441.801212 106.556038 
L 443.203471 117.739238 
L 446.007989 143.506434 
L 451.617025 198.197816 
L 453.019284 209.869545 
L 454.421543 219.823838 
L 455.823802 227.672023 
L 457.226061 233.103794 
L 458.62832 235.89972 
L 460.030579 235.945737 
L 461.432837 233.238449 
L 462.835096 227.885519 
L 464.237355 220.101047 
L 465.639614 210.191644 
L 467.041873 198.544291 
L 469.846391 171.837093 
L 474.053168 130.386308 
L 475.455427 117.932175 
L 476.857686 106.714899 
L 478.259945 96.945901 
L 479.662204 88.744183 
L 481.064463 82.139768 
L 482.466722 77.075652 
L 483.868981 73.42272 
L 485.27124 70.991813 
L 486.673499 69.554906 
L 488.075758 68.863293 
L 489.478017 68.669427 
L 492.282534 68.910979 
L 493.684793 69.025992 
L 495.087052 69.02273 
L 499.293829 68.646626 
L 500.696088 68.83462 
L 502.098347 69.521448 
L 503.500606 70.955223 
L 504.902865 73.38503 
L 506.305124 77.038887 
L 507.707383 82.105446 
L 509.109642 88.712797 
L 510.511901 96.916527 
L 511.91416 106.68508 
L 513.316419 117.898216 
L 516.120937 143.724837 
L 521.729972 198.450707 
L 523.132231 210.107218 
L 524.53449 220.038617 
L 525.936749 227.858071 
L 527.339008 233.257022 
L 528.741267 236.017431 
L 530.143526 236.026173 
L 531.545785 233.280429 
L 532.948044 227.88827 
L 534.350303 220.064325 
L 535.752562 210.116141 
L 537.154821 198.432154 
L 539.959339 171.666249 
L 544.166116 130.19356 
L 545.568375 117.753176 
L 546.970634 106.558455 
L 548.372893 96.818238 
L 549.775152 88.648441 
L 551.17741 82.075998 
L 552.579669 77.041318 
L 553.981928 73.413582 
L 555.384187 71.002961 
L 556.786446 69.581687 
L 558.188705 68.901924 
L 559.590964 68.717203 
L 562.395482 68.972044 
L 563.797741 69.09149 
L 565.2 69.09055 
L 565.2 69.09055 
" clip-path="url(#p06d346eb02)" style="fill: none; stroke: #1f77b4; stroke-width: 1.5; stroke-linecap: square"/>
   </g>
   <g id="line2d_32">
    <path d="M 56.18 179.924262 
L 57.582259 191.305872 
L 58.984518 201.347076 
L 60.386777 209.161969 
L 61.789036 214.021538 
L 63.191295 215.428579 
L 64.593554 213.157946 
L 65.995813 207.261254 
L 67.398072 198.035811 
L 68.800331 185.973347 
L 70.20259 171.692525 
L 73.007107 139.214777 
L 75.811625 105.929567 
L 77.213884 90.43423 
L 78.616143 76.332662 
L 80.018402 63.999877 
L 81.420661 53.730037 
L 82.82292 45.734796 
L 84.225179 40.136074 
L 85.627438 36.964034 
L 87.029697 36.154545 
L 88.431956 37.553828 
L 89.834215 40.927285 
L 91.236474 45.974207 
L 92.638733 52.348115 
L 95.443251 67.597848 
L 99.650028 91.673887 
L 102.454545 105.745214 
L 103.856804 111.884672 
L 106.661322 122.589655 
L 112.270358 142.053976 
L 113.672617 147.596399 
L 115.074876 153.697568 
L 116.477135 160.408183 
L 119.281653 175.487389 
L 123.48843 199.628166 
L 124.890689 206.936055 
L 126.292948 213.282825 
L 127.695207 218.299404 
L 129.097466 221.642506 
L 130.499725 223.011976 
L 131.901983 222.172337 
L 133.304242 218.969244 
L 134.706501 213.340944 
L 136.10876 205.328041 
L 137.511019 195.073053 
L 138.913278 182.821535 
L 140.315537 168.908606 
L 143.120055 137.816978 
L 145.924573 105.689474 
L 147.326832 90.52891 
L 148.729091 76.61462 
L 150.13135 64.361167 
L 151.533609 54.103247 
L 152.935868 46.085635 
L 154.338127 40.449708 
L 155.740386 37.234666 
L 157.142645 36.377364 
L 158.544904 37.722461 
L 159.947163 41.03431 
L 161.349421 46.013811 
L 162.75168 52.320199 
L 164.153939 59.588361 
L 171.165234 98.791356 
L 172.567493 105.554998 
L 173.969752 111.723861 
L 176.77427 122.514445 
L 182.383306 142.157117 
L 183.785565 147.720403 
L 185.187824 153.827392 
L 186.590083 160.529642 
L 189.394601 175.564869 
L 193.601377 199.657825 
L 195.003636 206.97231 
L 196.405895 213.337717 
L 197.808154 218.381504 
L 199.210413 221.755169 
L 200.612672 223.152734 
L 202.014931 222.333509 
L 203.41719 219.13947 
L 204.819449 213.507157 
L 206.221708 205.477391 
L 207.623967 195.194365 
L 209.026226 182.90602 
L 210.428485 168.94986 
L 213.233003 137.759778 
L 216.037521 105.526259 
L 217.43978 90.313865 
L 218.842039 76.35233 
L 220.244298 64.060355 
L 221.646556 53.777381 
L 223.048815 45.752744 
L 224.451074 40.131244 
L 225.853333 36.953472 
L 227.255592 36.155026 
L 228.657851 37.576472 
L 230.06011 40.975522 
L 231.462369 46.044617 
L 232.864628 52.433733 
L 235.669146 67.681095 
L 239.875923 91.643658 
L 242.680441 105.584047 
L 244.0827 111.658158 
L 246.887218 122.269056 
L 252.496253 141.78417 
L 253.898512 147.375454 
L 255.300771 153.527843 
L 256.70303 160.286631 
L 259.507548 175.443298 
L 263.714325 199.677526 
L 265.116584 207.023259 
L 266.518843 213.413541 
L 267.921102 218.477282 
L 269.323361 221.867025 
L 270.72562 223.277188 
L 272.127879 222.466842 
L 273.530138 219.277371 
L 274.932397 213.644813 
L 276.334656 205.610002 
L 277.736915 195.317964 
L 279.139174 183.018305 
L 280.541433 169.05078 
L 283.34595 137.847022 
L 286.150468 105.620921 
L 287.552727 90.419394 
L 288.954986 76.470811 
L 290.357245 64.19096 
L 291.759504 53.916255 
L 293.161763 45.893426 
L 294.564022 40.265488 
L 295.966281 37.072271 
L 297.36854 36.24961 
L 298.770799 37.639127 
L 300.173058 41.000166 
L 301.575317 46.02714 
L 302.977576 52.372241 
L 305.782094 67.536083 
L 309.988871 91.431392 
L 312.793388 105.402724 
L 314.195647 111.520151 
L 317.000165 122.263901 
L 322.609201 142.056941 
L 324.01146 147.678581 
L 325.413719 153.836466 
L 326.815978 160.575751 
L 329.620496 175.630726 
L 333.827273 199.641485 
L 335.229532 206.918116 
L 336.631791 213.249563 
L 338.03405 218.267099 
L 339.436309 221.624116 
L 340.838567 223.014528 
L 342.240826 222.195774 
L 343.643085 219.006821 
L 345.045344 213.380888 
L 346.447603 205.355994 
L 347.849862 195.074752 
L 349.252121 182.785114 
L 350.65438 168.826197 
L 353.458898 137.638065 
L 356.263416 105.437718 
L 357.665675 90.258176 
L 359.067934 76.339411 
L 360.470193 64.097119 
L 361.872452 53.866311 
L 363.274711 45.891159 
L 364.67697 40.311343 
L 366.079229 37.163149 
L 367.481488 36.379313 
L 368.883747 37.799391 
L 370.286006 41.182117 
L 371.688264 46.222868 
L 373.090523 52.576136 
L 375.895041 67.75193 
L 380.101818 91.685939 
L 382.906336 105.686183 
L 384.308595 111.807708 
L 387.113113 122.51975 
L 392.722149 142.100978 
L 394.124408 147.66499 
L 395.526667 153.775693 
L 396.928926 160.482754 
L 399.733444 175.525494 
L 403.94022 199.623515 
L 405.342479 206.942458 
L 406.744738 213.316005 
L 408.146997 218.372096 
L 409.549256 221.761535 
L 410.951515 223.176415 
L 412.353774 222.373079 
L 413.756033 219.190089 
L 415.158292 213.560911 
L 416.560551 205.52444 
L 417.96281 195.224722 
L 419.365069 182.911576 
L 420.767328 168.926206 
L 423.571846 137.683964 
L 426.376364 105.435331 
L 427.778623 90.234159 
L 429.180882 76.294674 
L 430.58314 64.031911 
L 431.985399 53.780553 
L 433.387658 45.785034 
L 434.789917 40.185954 
L 436.192176 37.021085 
L 437.594435 36.224927 
L 438.996694 37.638686 
L 440.398953 41.022233 
L 441.801212 46.071276 
L 443.203471 52.439715 
L 446.007989 67.660318 
L 450.214766 91.669818 
L 453.019284 105.715446 
L 454.421543 111.859484 
L 457.226061 122.619448 
L 462.835096 142.280694 
L 464.237355 147.848659 
L 465.639614 153.953346 
L 467.041873 160.6446 
L 469.846391 175.633738 
L 474.053168 199.639578 
L 475.455427 206.933436 
L 476.857686 213.285438 
L 478.259945 218.322561 
L 479.662204 221.694345 
L 481.064463 223.091871 
L 482.466722 222.27118 
L 483.868981 219.071415 
L 485.27124 213.427405 
L 486.673499 205.379823 
L 488.075758 195.074398 
L 489.478017 182.762108 
L 490.880275 168.784495 
L 493.684793 137.575926 
L 496.489311 105.376096 
L 497.89157 90.201421 
L 499.293829 76.28849 
L 500.696088 64.051743 
L 502.098347 53.825401 
L 503.500606 45.85334 
L 504.902865 40.27535 
L 506.305124 37.128114 
L 507.707383 36.344853 
L 509.109642 37.765527 
L 510.511901 41.149047 
L 511.91416 46.19072 
L 513.316419 52.544722 
L 516.120937 67.719135 
L 520.327713 91.634705 
L 523.132231 105.610336 
L 524.53449 111.718038 
L 527.339008 122.406631 
L 532.948044 141.995601 
L 534.350303 147.575976 
L 535.752562 153.70735 
L 537.154821 160.437544 
L 539.959339 175.524442 
L 544.166116 199.646797 
L 545.568375 206.955978 
L 546.970634 213.310806 
L 548.372893 218.341133 
L 549.775152 221.700926 
L 551.17741 223.086363 
L 552.579669 222.25833 
L 553.981928 219.059749 
L 555.384187 213.427635 
L 556.786446 205.402963 
L 558.188705 195.129937 
L 559.590964 182.85648 
L 560.993223 168.920013 
L 563.797741 137.782067 
L 565.2 121.564495 
L 565.2 121.564495 
" clip-path="url(#p06d346eb02)" style="fill: none; stroke: #ff7f0e; stroke-width: 1.5; stroke-linecap: square"/>
   </g>
   <g id="patch_3">
    <path d="M 56.18 246.04 
L 56.18 26.16 
" style="fill: none; stroke: #000000; stroke-width: 0.8; stroke-linejoin: miter; stroke-linecap: square"/>
   </g>
   <g id="patch_4">
    <path d="M 565.2 246.04 
L 565.2 26.16 
" style="fill: none; stroke: #000000; stroke-width: 0.8; stroke-linejoin: miter; stroke-linecap: square"/>
   </g>
   <g id="patch_5">
    <path d="M 56.18 246.04 
L 565.2 246.04 
" style="fill: none; stroke: #000000; stroke-width: 0.8; stroke-linejoin: miter; stroke-linecap: square"/>
   </g>
   <g id="patch_6">
    <path d="M 56.18 26.16 
L 565.2 26.16 
" style="fill: none; stroke: #000000; stroke-width: 0.8; stroke-linejoin: miter; stroke-linecap: square"/>
   </g>
   <g id="text_18">
    <!-- LPF Output I/Q (Time Domain) -->
    <g transform="translate(220.650625 20.16) scale(0.12 -0.12)">
     <defs>
      <path id="DejaVuSans-4c" d="M 628 4666 
L 1259 4666 
L 1259 531 
L 3531 531 
L 3531 0 
L 628 0 
L 628 4666 
z
" transform="scale(0.015625)"/>
      <path id="DejaVuSans-50" d="M 1259 4147 
L 1259 2394 
L 2053 2394 
Q 2494 2394 2734 2622 
Q 2975 2850 2975 3272 
Q 2975 3691 2734 3919 
Q 2494 4147 2053 4147 
L 1259 4147 
z
M 628 4666 
L 2053 4666 
Q 2838 4666 3239 4311 
Q 3641 3956 3641 3272 
Q 3641 2581 3239 2228 
Q 2838 1875 2053 1875 
L 1259 1875 
L 1259 0 
L 628 0 
L 628 4666 
z
" transform="scale(0.015625)"/>
      <path id="DejaVuSans-46" d="M 628 4666 
L 3309 4666 
L 3309 4134 
L 1259 4134 
L 1259 2759 
L 3109 2759 
L 3109 2228 
L 1259 2228 
L 1259 0 
L 628 0 
L 628 4666 
z
" transform="scale(0.015625)"/>
      <path id="DejaVuSans-4f" d="M 2522 4238 
Q 1834 4238 1429 3725 
Q 1025 3213 1025 2328 
Q 1025 1447 1429 934 
Q 1834 422 2522 422 
Q 3209 422 3611 934 
Q 4013 1447 4013 2328 
Q 4013 3213 3611 3725 
Q 3209 4238 2522 4238 
z
M 2522 4750 
Q 3503 4750 4090 4092 
Q 4678 3434 4678 2328 
Q 4678 1225 4090 567 
Q 3503 -91 2522 -91 
Q 1538 -91 948 565 
Q 359 1222 359 2328 
Q 359 3434 948 4092 
Q 1538 4750 2522 4750 
z
" transform="scale(0.015625)"/>
      <path id="DejaVuSans-49" d="M 628 4666 
L 1259 4666 
L 1259 0 
L 628 0 
L 628 4666 
z
" transform="scale(0.015625)"/>
      <path id="DejaVuSans-2f" d="M 1625 4666 
L 2156 4666 
L 531 -594 
L 0 -594 
L 1625 4666 
z
" transform="scale(0.015625)"/>
      <path id="DejaVuSans-51" d="M 2522 4238 
Q 1834 4238 1429 3725 
Q 1025 3213 1025 2328 
Q 1025 1447 1429 934 
Q 1834 422 2522 422 
Q 3209 422 3611 934 
Q 4013 1447 4013 2328 
Q 4013 3213 3611 3725 
Q 3209 4238 2522 4238 
z
M 3406 84 
L 4238 -825 
L 3475 -825 
L 2784 -78 
Q 2681 -84 2626 -87 
Q 2572 -91 2522 -91 
Q 1538 -91 948 567 
Q 359 1225 359 2328 
Q 359 3434 948 4092 
Q 1538 4750 2522 4750 
Q 3503 4750 4090 4092 
Q 4678 3434 4678 2328 
Q 4678 1516 4351 937 
Q 4025 359 3406 84 
z
" transform="scale(0.015625)"/>
      <path id="DejaVuSans-44" d="M 1259 4147 
L 1259 519 
L 2022 519 
Q 2988 519 3436 956 
Q 3884 1394 3884 2338 
Q 3884 3275 3436 3711 
Q 2988 4147 2022 4147 
L 1259 4147 
z
M 628 4666 
L 1925 4666 
Q 3281 4666 3915 4102 
Q 4550 3538 4550 2338 
Q 4550 1131 3912 565 
Q 3275 0 1925 0 
L 628 0 
L 628 4666 
z
" transform="scale(0.015625)"/>
      <path id="DejaVuSans-6f" d="M 1959 3097 
Q 1497 3097 1228 2736 
Q 959 2375 959 1747 
Q 959 1119 1226 758 
Q 1494 397 1959 397 
Q 2419 397 2687 759 
Q 2956 1122 2956 1747 
Q 2956 2369 2687 2733 
Q 2419 3097 1959 3097 
z
M 1959 3584 
Q 2709 3584 3137 3096 
Q 3566 2609 3566 1747 
Q 3566 888 3137 398 
Q 2709 -91 1959 -91 
Q 1206 -91 779 398 
Q 353 888 353 1747 
Q 353 2609 779 3096 
Q 1206 3584 1959 3584 
z
" transform="scale(0.015625)"/>
      <path id="DejaVuSans-61" d="M 2194 1759 
Q 1497 1759 1228 1600 
Q 959 1441 959 1056 
Q 959 750 1161 570 
Q 1363 391 1709 391 
Q 2188 391 2477 730 
Q 2766 1069 2766 1631 
L 2766 1759 
L 2194 1759 
z
M 3341 1997 
L 3341 0 
L 2766 0 
L 2766 531 
Q 2569 213 2275 61 
Q 1981 -91 1556 -91 
Q 1019 -91 701 211 
Q 384 513 384 1019 
Q 384 1609 779 1909 
Q 1175 2209 1959 2209 
L 2766 2209 
L 2766 2266 
Q 2766 2663 2505 2880 
Q 2244 3097 1772 3097 
Q 1472 3097 1187 3025 
Q 903 2953 641 2809 
L 641 3341 
Q 956 3463 1253 3523 
Q 1550 3584 1831 3584 
Q 2591 3584 2966 3190 
Q 3341 2797 3341 1997 
z
" transform="scale(0.015625)"/>
      <path id="DejaVuSans-6e" d="M 3513 2113 
L 3513 0 
L 2938 0 
L 2938 2094 
Q 2938 2591 2744 2837 
Q 2550 3084 2163 3084 
Q 1697 3084 1428 2787 
Q 1159 2491 1159 1978 
L 1159 0 
L 581 0 
L 581 3500 
L 1159 3500 
L 1159 2956 
Q 1366 3272 1645 3428 
Q 1925 3584 2291 3584 
Q 2894 3584 3203 3211 
Q 3513 2838 3513 2113 
z
" transform="scale(0.015625)"/>
     </defs>
     <use xlink:href="#DejaVuSans-4c"/>
     <use xlink:href="#DejaVuSans-50" transform="translate(55.712891 0)"/>
     <use xlink:href="#DejaVuSans-46" transform="translate(116.015625 0)"/>
     <use xlink:href="#DejaVuSans-20" transform="translate(173.535156 0)"/>
     <use xlink:href="#DejaVuSans-4f" transform="translate(205.322266 0)"/>
     <use xlink:href="#DejaVuSans-75" transform="translate(284.033203 0)"/>
     <use xlink:href="#DejaVuSans-74" transform="translate(347.412109 0)"/>
     <use xlink:href="#DejaVuSans-70" transform="translate(386.621094 0)"/>
     <use xlink:href="#DejaVuSans-75" transform="translate(450.097656 0)"/>
     <use xlink:href="#DejaVuSans-74" transform="translate(513.476562 0)"/>
     <use xlink:href="#DejaVuSans-20" transform="translate(552.685547 0)"/>
     <use xlink:href="#DejaVuSans-49" transform="translate(584.472656 0)"/>
     <use xlink:href="#DejaVuSans-2f" transform="translate(613.964844 0)"/>
     <use xlink:href="#DejaVuSans-51" transform="translate(647.65625 0)"/>
     <use xlink:href="#DejaVuSans-20" transform="translate(726.367188 0)"/>
     <use xlink:href="#DejaVuSans-28" transform="translate(758.154297 0)"/>
     <use xlink:href="#DejaVuSans-54" transform="translate(797.167969 0)"/>
     <use xlink:href="#DejaVuSans-69" transform="translate(855.126953 0)"/>
     <use xlink:href="#DejaVuSans-6d" transform="translate(882.910156 0)"/>
     <use xlink:href="#DejaVuSans-65" transform="translate(980.322266 0)"/>
     <use xlink:href="#DejaVuSans-20" transform="translate(1041.845703 0)"/>
     <use xlink:href="#DejaVuSans-44" transform="translate(1073.632812 0)"/>
     <use xlink:href="#DejaVuSans-6f" transform="translate(1150.634766 0)"/>
     <use xlink:href="#DejaVuSans-6d" transform="translate(1211.816406 0)"/>
     <use xlink:href="#DejaVuSans-61" transform="translate(1309.228516 0)"/>
     <use xlink:href="#DejaVuSans-69" transform="translate(1370.507812 0)"/>
     <use xlink:href="#DejaVuSans-6e" transform="translate(1398.291016 0)"/>
     <use xlink:href="#DejaVuSans-29" transform="translate(1461.669922 0)"/>
    </g>
   </g>
   <g id="legend_1">
    <g id="patch_7">
     <path d="M 518.328125 63.51625 
L 558.2 63.51625 
Q 560.2 63.51625 560.2 61.51625 
L 560.2 33.16 
Q 560.2 31.16 558.2 31.16 
L 518.328125 31.16 
Q 516.328125 31.16 516.328125 33.16 
L 516.328125 61.51625 
Q 516.328125 63.51625 518.328125 63.51625 
z
" style="fill: #ffffff; opacity: 0.8; stroke: #cccccc; stroke-linejoin: miter"/>
    </g>
    <g id="line2d_33">
     <path d="M 520.328125 39.258437 
L 530.328125 39.258437 
L 540.328125 39.258437 
" style="fill: none; stroke: #1f77b4; stroke-width: 1.5; stroke-linecap: square"/>
    </g>
    <g id="text_19">
     <!-- I -->
     <g transform="translate(548.328125 42.758437) scale(0.1 -0.1)">
      <use xlink:href="#DejaVuSans-49"/>
     </g>
    </g>
    <g id="line2d_34">
     <path d="M 520.328125 53.936562 
L 530.328125 53.936562 
L 540.328125 53.936562 
" style="fill: none; stroke: #ff7f0e; stroke-width: 1.5; stroke-linecap: square"/>
    </g>
    <g id="text_20">
     <!-- Q -->
     <g transform="translate(548.328125 57.436562) scale(0.1 -0.1)">
      <use xlink:href="#DejaVuSans-51"/>
     </g>
    </g>
   </g>
  </g>
 </g>
 <defs>
  <clipPath id="p06d346eb02">
   <rect x="56.18" y="26.16" width="509.02" height="219.88"/>
  </clipPath>
 </defs>
</svg>
