<?xml version="1.0" encoding="utf-8" standalone="no"?>
<!DOCTYPE svg PUBLIC "-//W3C//DTD SVG 1.1//EN"
  "http://www.w3.org/Graphics/SVG/1.1/DTD/svg11.dtd">
<svg xmlns:xlink="http://www.w3.org/1999/xlink" width="576pt" height="432pt" viewBox="0 0 576 432" xmlns="http://www.w3.org/2000/svg" version="1.1">
 <metadata>
  <rdf:RDF xmlns:dc="http://purl.org/dc/elements/1.1/" xmlns:cc="http://creativecommons.org/ns#" xmlns:rdf="http://www.w3.org/1999/02/22-rdf-syntax-ns#">
   <cc:Work>
    <dc:type rdf:resource="http://purl.org/dc/dcmitype/StillImage"/>
    <dc:date>2026-02-03T21:23:38.278701</dc:date>
    <dc:format>image/svg+xml</dc:format>
    <dc:creator>
     <cc:Agent>
      <dc:title>Matplotlib v3.10.8, https://matplotlib.org/</dc:title>
     </cc:Agent>
    </dc:creator>
   </cc:Work>
  </rdf:RDF>
 </metadata>
 <defs>
  <style type="text/css">*{stroke-linejoin: round; stroke-linecap: butt}</style>
 </defs>
 <g id="figure_1">
  <g id="patch_1">
   <path d="M 0 432 
L 576 432 
L 576 0 
L 0 0 
z
" style="fill: #ffffff"/>
  </g>
  <g id="axes_1">
   <g id="patch_2">
    <path d="M 56.18 179.44 
L 565.2 179.44 
L 565.2 26.16 
L 56.18 26.16 
z
" style="fill: #ffffff"/>
   </g>
   <g id="matplotlib.axis_1">
    <g id="xtick_1">
     <g id="line2d_1">
      <path d="M 56.18 179.44 
L 56.18 26.16 
" clip-path="url(#pffecf69a92)" style="fill: none; stroke: #b0b0b0; stroke-width: 0.8; stroke-linecap: square"/>
     </g>
     <g id="line2d_2">
      <defs>
       <path id="ma075baf4c1" d="M 0 0 
L 0 3.5 
" style="stroke: #000000; stroke-width: 0.8"/>
      </defs>
      <g>
       <use xlink:href="#ma075baf4c1" x="56.18" y="179.44" style="stroke: #000000; stroke-width: 0.8"/>
      </g>
     </g>
     <g id="text_1">
      <!-- 0.0 -->
      <g transform="translate(48.228438 194.038437) scale(0.1 -0.1)">
       <defs>
        <path id="DejaVuSans-30" d="M 2034 4250 
Q 1547 4250 1301 3770 
Q 1056 3291 1056 2328 
Q 1056 1369 1301 889 
Q 1547 409 2034 409 
Q 2525 409 2770 889 
Q 3016 1369 3016 2328 
Q 3016 3291 2770 3770 
Q 2525 4250 2034 4250 
z
M 2034 4750 
Q 2819 4750 3233 4129 
Q 3647 3509 3647 2328 
Q 3647 1150 3233 529 
Q 2819 -91 2034 -91 
Q 1250 -91 836 529 
Q 422 1150 422 2328 
Q 422 3509 836 4129 
Q 1250 4750 2034 4750 
z
" transform="scale(0.015625)"/>
        <path id="DejaVuSans-2e" d="M 684 794 
L 1344 794 
L 1344 0 
L 684 0 
L 684 794 
z
" transform="scale(0.015625)"/>
       </defs>
       <use xlink:href="#DejaVuSans-30"/>
       <use xlink:href="#DejaVuSans-2e" transform="translate(63.623047 0)"/>
       <use xlink:href="#DejaVuSans-30" transform="translate(95.410156 0)"/>
      </g>
     </g>
    </g>
    <g id="xtick_2">
     <g id="line2d_3">
      <path d="M 164.482128 179.44 
L 164.482128 26.16 
" clip-path="url(#pffecf69a92)" style="fill: none; stroke: #b0b0b0; stroke-width: 0.8; stroke-linecap: square"/>
     </g>
     <g id="line2d_4">
      <g>
       <use xlink:href="#ma075baf4c1" x="164.482128" y="179.44" style="stroke: #000000; stroke-width: 0.8"/>
      </g>
     </g>
     <g id="text_2">
      <!-- 0.2 -->
      <g transform="translate(156.530565 194.038437) scale(0.1 -0.1)">
       <defs>
        <path id="DejaVuSans-32" d="M 1228 531 
L 3431 531 
L 3431 0 
L 469 0 
L 469 531 
Q 828 903 1448 1529 
Q 2069 2156 2228 2338 
Q 2531 2678 2651 2914 
Q 2772 3150 2772 3378 
Q 2772 3750 2511 3984 
Q 2250 4219 1831 4219 
Q 1534 4219 1204 4116 
Q 875 4013 500 3803 
L 500 4441 
Q 881 4594 1212 4672 
Q 1544 4750 1819 4750 
Q 2544 4750 2975 4387 
Q 3406 4025 3406 3419 
Q 3406 3131 3298 2873 
Q 3191 2616 2906 2266 
Q 2828 2175 2409 1742 
Q 1991 1309 1228 531 
z
" transform="scale(0.015625)"/>
       </defs>
       <use xlink:href="#DejaVuSans-30"/>
       <use xlink:href="#DejaVuSans-2e" transform="translate(63.623047 0)"/>
       <use xlink:href="#DejaVuSans-32" transform="translate(95.410156 0)"/>
      </g>
     </g>
    </g>
    <g id="xtick_3">
     <g id="line2d_5">
      <path d="M 272.784255 179.44 
L 272.784255 26.16 
" clip-path="url(#pffecf69a92)" style="fill: none; stroke: #b0b0b0; stroke-width: 0.8; stroke-linecap: square"/>
     </g>
     <g id="line2d_6">
      <g>
       <use xlink:href="#ma075baf4c1" x="272.784255" y="179.44" style="stroke: #000000; stroke-width: 0.8"/>
      </g>
     </g>
     <g id="text_3">
      <!-- 0.4 -->
      <g transform="translate(264.832693 194.038437) scale(0.1 -0.1)">
       <defs>
        <path id="DejaVuSans-34" d="M 2419 4116 
L 825 1625 
L 2419 1625 
L 2419 4116 
z
M 2253 4666 
L 3047 4666 
L 3047 1625 
L 3713 1625 
L 3713 1100 
L 3047 1100 
L 3047 0 
L 2419 0 
L 2419 1100 
L 313 1100 
L 313 1709 
L 2253 4666 
z
" transform="scale(0.015625)"/>
       </defs>
       <use xlink:href="#DejaVuSans-30"/>
       <use xlink:href="#DejaVuSans-2e" transform="translate(63.623047 0)"/>
       <use xlink:href="#DejaVuSans-34" transform="translate(95.410156 0)"/>
      </g>
     </g>
    </g>
    <g id="xtick_4">
     <g id="line2d_7">
      <path d="M 381.086383 179.44 
L 381.086383 26.16 
" clip-path="url(#pffecf69a92)" style="fill: none; stroke: #b0b0b0; stroke-width: 0.8; stroke-linecap: square"/>
     </g>
     <g id="line2d_8">
      <g>
       <use xlink:href="#ma075baf4c1" x="381.086383" y="179.44" style="stroke: #000000; stroke-width: 0.8"/>
      </g>
     </g>
     <g id="text_4">
      <!-- 0.6 -->
      <g transform="translate(373.13482 194.038437) scale(0.1 -0.1)">
       <defs>
        <path id="DejaVuSans-36" d="M 2113 2584 
Q 1688 2584 1439 2293 
Q 1191 2003 1191 1497 
Q 1191 994 1439 701 
Q 1688 409 2113 409 
Q 2538 409 2786 701 
Q 3034 994 3034 1497 
Q 3034 2003 2786 2293 
Q 2538 2584 2113 2584 
z
M 3366 4563 
L 3366 3988 
Q 3128 4100 2886 4159 
Q 2644 4219 2406 4219 
Q 1781 4219 1451 3797 
Q 1122 3375 1075 2522 
Q 1259 2794 1537 2939 
Q 1816 3084 2150 3084 
Q 2853 3084 3261 2657 
Q 3669 2231 3669 1497 
Q 3669 778 3244 343 
Q 2819 -91 2113 -91 
Q 1303 -91 875 529 
Q 447 1150 447 2328 
Q 447 3434 972 4092 
Q 1497 4750 2381 4750 
Q 2619 4750 2861 4703 
Q 3103 4656 3366 4563 
z
" transform="scale(0.015625)"/>
       </defs>
       <use xlink:href="#DejaVuSans-30"/>
       <use xlink:href="#DejaVuSans-2e" transform="translate(63.623047 0)"/>
       <use xlink:href="#DejaVuSans-36" transform="translate(95.410156 0)"/>
      </g>
     </g>
    </g>
    <g id="xtick_5">
     <g id="line2d_9">
      <path d="M 489.388511 179.44 
L 489.388511 26.16 
" clip-path="url(#pffecf69a92)" style="fill: none; stroke: #b0b0b0; stroke-width: 0.8; stroke-linecap: square"/>
     </g>
     <g id="line2d_10">
      <g>
       <use xlink:href="#ma075baf4c1" x="489.388511" y="179.44" style="stroke: #000000; stroke-width: 0.8"/>
      </g>
     </g>
     <g id="text_5">
      <!-- 0.8 -->
      <g transform="translate(481.436948 194.038437) scale(0.1 -0.1)">
       <defs>
        <path id="DejaVuSans-38" d="M 2034 2216 
Q 1584 2216 1326 1975 
Q 1069 1734 1069 1313 
Q 1069 891 1326 650 
Q 1584 409 2034 409 
Q 2484 409 2743 651 
Q 3003 894 3003 1313 
Q 3003 1734 2745 1975 
Q 2488 2216 2034 2216 
z
M 1403 2484 
Q 997 2584 770 2862 
Q 544 3141 544 3541 
Q 544 4100 942 4425 
Q 1341 4750 2034 4750 
Q 2731 4750 3128 4425 
Q 3525 4100 3525 3541 
Q 3525 3141 3298 2862 
Q 3072 2584 2669 2484 
Q 3125 2378 3379 2068 
Q 3634 1759 3634 1313 
Q 3634 634 3220 271 
Q 2806 -91 2034 -91 
Q 1263 -91 848 271 
Q 434 634 434 1313 
Q 434 1759 690 2068 
Q 947 2378 1403 2484 
z
M 1172 3481 
Q 1172 3119 1398 2916 
Q 1625 2713 2034 2713 
Q 2441 2713 2670 2916 
Q 2900 3119 2900 3481 
Q 2900 3844 2670 4047 
Q 2441 4250 2034 4250 
Q 1625 4250 1398 4047 
Q 1172 3844 1172 3481 
z
" transform="scale(0.015625)"/>
       </defs>
       <use xlink:href="#DejaVuSans-30"/>
       <use xlink:href="#DejaVuSans-2e" transform="translate(63.623047 0)"/>
       <use xlink:href="#DejaVuSans-38" transform="translate(95.410156 0)"/>
      </g>
     </g>
    </g>
    <g id="text_6">
     <!-- Time (us) -->
     <g transform="translate(287.192344 207.716562) scale(0.1 -0.1)">
      <defs>
       <path id="DejaVuSans-54" d="M -19 4666 
L 3928 4666 
L 3928 4134 
L 2272 4134 
L 2272 0 
L 1638 0 
L 1638 4134 
L -19 4134 
L -19 4666 
z
" transform="scale(0.015625)"/>
       <path id="DejaVuSans-69" d="M 603 3500 
L 1178 3500 
L 1178 0 
L 603 0 
L 603 3500 
z
M 603 4863 
L 1178 4863 
L 1178 4134 
L 603 4134 
L 603 4863 
z
" transform="scale(0.015625)"/>
       <path id="DejaVuSans-6d" d="M 3328 2828 
Q 3544 3216 3844 3400 
Q 4144 3584 4550 3584 
Q 5097 3584 5394 3201 
Q 5691 2819 5691 2113 
L 5691 0 
L 5113 0 
L 5113 2094 
Q 5113 2597 4934 2840 
Q 4756 3084 4391 3084 
Q 3944 3084 3684 2787 
Q 3425 2491 3425 1978 
L 3425 0 
L 2847 0 
L 2847 2094 
Q 2847 2600 2669 2842 
Q 2491 3084 2119 3084 
Q 1678 3084 1418 2786 
Q 1159 2488 1159 1978 
L 1159 0 
L 581 0 
L 581 3500 
L 1159 3500 
L 1159 2956 
Q 1356 3278 1631 3431 
Q 1906 3584 2284 3584 
Q 2666 3584 2933 3390 
Q 3200 3197 3328 2828 
z
" transform="scale(0.015625)"/>
       <path id="DejaVuSans-65" d="M 3597 1894 
L 3597 1613 
L 953 1613 
Q 991 1019 1311 708 
Q 1631 397 2203 397 
Q 2534 397 2845 478 
Q 3156 559 3463 722 
L 3463 178 
Q 3153 47 2828 -22 
Q 2503 -91 2169 -91 
Q 1331 -91 842 396 
Q 353 884 353 1716 
Q 353 2575 817 3079 
Q 1281 3584 2069 3584 
Q 2775 3584 3186 3129 
Q 3597 2675 3597 1894 
z
M 3022 2063 
Q 3016 2534 2758 2815 
Q 2500 3097 2075 3097 
Q 1594 3097 1305 2825 
Q 1016 2553 972 2059 
L 3022 2063 
z
" transform="scale(0.015625)"/>
       <path id="DejaVuSans-20" transform="scale(0.015625)"/>
       <path id="DejaVuSans-28" d="M 1984 4856 
Q 1566 4138 1362 3434 
Q 1159 2731 1159 2009 
Q 1159 1288 1364 580 
Q 1569 -128 1984 -844 
L 1484 -844 
Q 1016 -109 783 600 
Q 550 1309 550 2009 
Q 550 2706 781 3412 
Q 1013 4119 1484 4856 
L 1984 4856 
z
" transform="scale(0.015625)"/>
       <path id="DejaVuSans-75" d="M 544 1381 
L 544 3500 
L 1119 3500 
L 1119 1403 
Q 1119 906 1312 657 
Q 1506 409 1894 409 
Q 2359 409 2629 706 
Q 2900 1003 2900 1516 
L 2900 3500 
L 3475 3500 
L 3475 0 
L 2900 0 
L 2900 538 
Q 2691 219 2414 64 
Q 2138 -91 1772 -91 
Q 1169 -91 856 284 
Q 544 659 544 1381 
z
M 1991 3584 
L 1991 3584 
z
" transform="scale(0.015625)"/>
       <path id="DejaVuSans-73" d="M 2834 3397 
L 2834 2853 
Q 2591 2978 2328 3040 
Q 2066 3103 1784 3103 
Q 1356 3103 1142 2972 
Q 928 2841 928 2578 
Q 928 2378 1081 2264 
Q 1234 2150 1697 2047 
L 1894 2003 
Q 2506 1872 2764 1633 
Q 3022 1394 3022 966 
Q 3022 478 2636 193 
Q 2250 -91 1575 -91 
Q 1294 -91 989 -36 
Q 684 19 347 128 
L 347 722 
Q 666 556 975 473 
Q 1284 391 1588 391 
Q 1994 391 2212 530 
Q 2431 669 2431 922 
Q 2431 1156 2273 1281 
Q 2116 1406 1581 1522 
L 1381 1569 
Q 847 1681 609 1914 
Q 372 2147 372 2553 
Q 372 3047 722 3315 
Q 1072 3584 1716 3584 
Q 2034 3584 2315 3537 
Q 2597 3491 2834 3397 
z
" transform="scale(0.015625)"/>
       <path id="DejaVuSans-29" d="M 513 4856 
L 1013 4856 
Q 1481 4119 1714 3412 
Q 1947 2706 1947 2009 
Q 1947 1309 1714 600 
Q 1481 -109 1013 -844 
L 513 -844 
Q 928 -128 1133 580 
Q 1338 1288 1338 2009 
Q 1338 2731 1133 3434 
Q 928 4138 513 4856 
z
" transform="scale(0.015625)"/>
      </defs>
      <use xlink:href="#DejaVuSans-54"/>
      <use xlink:href="#DejaVuSans-69" transform="translate(57.958984 0)"/>
      <use xlink:href="#DejaVuSans-6d" transform="translate(85.742188 0)"/>
      <use xlink:href="#DejaVuSans-65" transform="translate(183.154297 0)"/>
      <use xlink:href="#DejaVuSans-20" transform="translate(244.677734 0)"/>
      <use xlink:href="#DejaVuSans-28" transform="translate(276.464844 0)"/>
      <use xlink:href="#DejaVuSans-75" transform="translate(315.478516 0)"/>
      <use xlink:href="#DejaVuSans-73" transform="translate(378.857422 0)"/>
      <use xlink:href="#DejaVuSans-29" transform="translate(430.957031 0)"/>
     </g>
    </g>
   </g>
   <g id="matplotlib.axis_2">
    <g id="ytick_1">
     <g id="line2d_11">
      <path d="M 56.18 156.38675 
L 565.2 156.38675 
" clip-path="url(#pffecf69a92)" style="fill: none; stroke: #b0b0b0; stroke-width: 0.8; stroke-linecap: square"/>
     </g>
     <g id="line2d_12">
      <defs>
       <path id="m0f6cc56ff8" d="M 0 0 
L -3.5 0 
" style="stroke: #000000; stroke-width: 0.8"/>
      </defs>
      <g>
       <use xlink:href="#m0f6cc56ff8" x="56.18" y="156.38675" style="stroke: #000000; stroke-width: 0.8"/>
      </g>
     </g>
     <g id="text_7">
      <!-- −1.0 -->
      <g transform="translate(24.897188 160.185968) scale(0.1 -0.1)">
       <defs>
        <path id="DejaVuSans-2212" d="M 678 2272 
L 4684 2272 
L 4684 1741 
L 678 1741 
L 678 2272 
z
" transform="scale(0.015625)"/>
        <path id="DejaVuSans-31" d="M 794 531 
L 1825 531 
L 1825 4091 
L 703 3866 
L 703 4441 
L 1819 4666 
L 2450 4666 
L 2450 531 
L 3481 531 
L 3481 0 
L 794 0 
L 794 531 
z
" transform="scale(0.015625)"/>
       </defs>
       <use xlink:href="#DejaVuSans-2212"/>
       <use xlink:href="#DejaVuSans-31" transform="translate(83.789062 0)"/>
       <use xlink:href="#DejaVuSans-2e" transform="translate(147.412109 0)"/>
       <use xlink:href="#DejaVuSans-30" transform="translate(179.199219 0)"/>
      </g>
     </g>
    </g>
    <g id="ytick_2">
     <g id="line2d_13">
      <path d="M 56.18 129.58637 
L 565.2 129.58637 
" clip-path="url(#pffecf69a92)" style="fill: none; stroke: #b0b0b0; stroke-width: 0.8; stroke-linecap: square"/>
     </g>
     <g id="line2d_14">
      <g>
       <use xlink:href="#m0f6cc56ff8" x="56.18" y="129.58637" style="stroke: #000000; stroke-width: 0.8"/>
      </g>
     </g>
     <g id="text_8">
      <!-- −0.5 -->
      <g transform="translate(24.897188 133.385588) scale(0.1 -0.1)">
       <defs>
        <path id="DejaVuSans-35" d="M 691 4666 
L 3169 4666 
L 3169 4134 
L 1269 4134 
L 1269 2991 
Q 1406 3038 1543 3061 
Q 1681 3084 1819 3084 
Q 2600 3084 3056 2656 
Q 3513 2228 3513 1497 
Q 3513 744 3044 326 
Q 2575 -91 1722 -91 
Q 1428 -91 1123 -41 
Q 819 9 494 109 
L 494 744 
Q 775 591 1075 516 
Q 1375 441 1709 441 
Q 2250 441 2565 725 
Q 2881 1009 2881 1497 
Q 2881 1984 2565 2268 
Q 2250 2553 1709 2553 
Q 1456 2553 1204 2497 
Q 953 2441 691 2322 
L 691 4666 
z
" transform="scale(0.015625)"/>
       </defs>
       <use xlink:href="#DejaVuSans-2212"/>
       <use xlink:href="#DejaVuSans-30" transform="translate(83.789062 0)"/>
       <use xlink:href="#DejaVuSans-2e" transform="translate(147.412109 0)"/>
       <use xlink:href="#DejaVuSans-35" transform="translate(179.199219 0)"/>
      </g>
     </g>
    </g>
    <g id="ytick_3">
     <g id="line2d_15">
      <path d="M 56.18 102.78599 
L 565.2 102.78599 
" clip-path="url(#pffecf69a92)" style="fill: none; stroke: #b0b0b0; stroke-width: 0.8; stroke-linecap: square"/>
     </g>
     <g id="line2d_16">
      <g>
       <use xlink:href="#m0f6cc56ff8" x="56.18" y="102.78599" style="stroke: #000000; stroke-width: 0.8"/>
      </g>
     </g>
     <g id="text_9">
      <!-- 0.0 -->
      <g transform="translate(33.276875 106.585208) scale(0.1 -0.1)">
       <use xlink:href="#DejaVuSans-30"/>
       <use xlink:href="#DejaVuSans-2e" transform="translate(63.623047 0)"/>
       <use xlink:href="#DejaVuSans-30" transform="translate(95.410156 0)"/>
      </g>
     </g>
    </g>
    <g id="ytick_4">
     <g id="line2d_17">
      <path d="M 56.18 75.985609 
L 565.2 75.985609 
" clip-path="url(#pffecf69a92)" style="fill: none; stroke: #b0b0b0; stroke-width: 0.8; stroke-linecap: square"/>
     </g>
     <g id="line2d_18">
      <g>
       <use xlink:href="#m0f6cc56ff8" x="56.18" y="75.985609" style="stroke: #000000; stroke-width: 0.8"/>
      </g>
     </g>
     <g id="text_10">
      <!-- 0.5 -->
      <g transform="translate(33.276875 79.784828) scale(0.1 -0.1)">
       <use xlink:href="#DejaVuSans-30"/>
       <use xlink:href="#DejaVuSans-2e" transform="translate(63.623047 0)"/>
       <use xlink:href="#DejaVuSans-35" transform="translate(95.410156 0)"/>
      </g>
     </g>
    </g>
    <g id="ytick_5">
     <g id="line2d_19">
      <path d="M 56.18 49.185229 
L 565.2 49.185229 
" clip-path="url(#pffecf69a92)" style="fill: none; stroke: #b0b0b0; stroke-width: 0.8; stroke-linecap: square"/>
     </g>
     <g id="line2d_20">
      <g>
       <use xlink:href="#m0f6cc56ff8" x="56.18" y="49.185229" style="stroke: #000000; stroke-width: 0.8"/>
      </g>
     </g>
     <g id="text_11">
      <!-- 1.0 -->
      <g transform="translate(33.276875 52.984448) scale(0.1 -0.1)">
       <use xlink:href="#DejaVuSans-31"/>
       <use xlink:href="#DejaVuSans-2e" transform="translate(63.623047 0)"/>
       <use xlink:href="#DejaVuSans-30" transform="translate(95.410156 0)"/>
      </g>
     </g>
    </g>
    <g id="text_12">
     <!-- Amplitude -->
     <g transform="translate(18.8175 128.422656) rotate(-90) scale(0.1 -0.1)">
      <defs>
       <path id="DejaVuSans-41" d="M 2188 4044 
L 1331 1722 
L 3047 1722 
L 2188 4044 
z
M 1831 4666 
L 2547 4666 
L 4325 0 
L 3669 0 
L 3244 1197 
L 1141 1197 
L 716 0 
L 50 0 
L 1831 4666 
z
" transform="scale(0.015625)"/>
       <path id="DejaVuSans-70" d="M 1159 525 
L 1159 -1331 
L 581 -1331 
L 581 3500 
L 1159 3500 
L 1159 2969 
Q 1341 3281 1617 3432 
Q 1894 3584 2278 3584 
Q 2916 3584 3314 3078 
Q 3713 2572 3713 1747 
Q 3713 922 3314 415 
Q 2916 -91 2278 -91 
Q 1894 -91 1617 61 
Q 1341 213 1159 525 
z
M 3116 1747 
Q 3116 2381 2855 2742 
Q 2594 3103 2138 3103 
Q 1681 3103 1420 2742 
Q 1159 2381 1159 1747 
Q 1159 1113 1420 752 
Q 1681 391 2138 391 
Q 2594 391 2855 752 
Q 3116 1113 3116 1747 
z
" transform="scale(0.015625)"/>
       <path id="DejaVuSans-6c" d="M 603 4863 
L 1178 4863 
L 1178 0 
L 603 0 
L 603 4863 
z
" transform="scale(0.015625)"/>
       <path id="DejaVuSans-74" d="M 1172 4494 
L 1172 3500 
L 2356 3500 
L 2356 3053 
L 1172 3053 
L 1172 1153 
Q 1172 725 1289 603 
Q 1406 481 1766 481 
L 2356 481 
L 2356 0 
L 1766 0 
Q 1100 0 847 248 
Q 594 497 594 1153 
L 594 3053 
L 172 3053 
L 172 3500 
L 594 3500 
L 594 4494 
L 1172 4494 
z
" transform="scale(0.015625)"/>
       <path id="DejaVuSans-64" d="M 2906 2969 
L 2906 4863 
L 3481 4863 
L 3481 0 
L 2906 0 
L 2906 525 
Q 2725 213 2448 61 
Q 2172 -91 1784 -91 
Q 1150 -91 751 415 
Q 353 922 353 1747 
Q 353 2572 751 3078 
Q 1150 3584 1784 3584 
Q 2172 3584 2448 3432 
Q 2725 3281 2906 2969 
z
M 947 1747 
Q 947 1113 1208 752 
Q 1469 391 1925 391 
Q 2381 391 2643 752 
Q 2906 1113 2906 1747 
Q 2906 2381 2643 2742 
Q 2381 3103 1925 3103 
Q 1469 3103 1208 2742 
Q 947 2381 947 1747 
z
" transform="scale(0.015625)"/>
      </defs>
      <use xlink:href="#DejaVuSans-41"/>
      <use xlink:href="#DejaVuSans-6d" transform="translate(68.408203 0)"/>
      <use xlink:href="#DejaVuSans-70" transform="translate(165.820312 0)"/>
      <use xlink:href="#DejaVuSans-6c" transform="translate(229.296875 0)"/>
      <use xlink:href="#DejaVuSans-69" transform="translate(257.080078 0)"/>
      <use xlink:href="#DejaVuSans-74" transform="translate(284.863281 0)"/>
      <use xlink:href="#DejaVuSans-75" transform="translate(324.072266 0)"/>
      <use xlink:href="#DejaVuSans-64" transform="translate(387.451172 0)"/>
      <use xlink:href="#DejaVuSans-65" transform="translate(450.927734 0)"/>
     </g>
    </g>
   </g>
   <g id="line2d_21">
    <path d="M 56.18 85.85707 
L 61.595106 44.465397 
L 67.010213 89.488502 
L 72.425319 156.991252 
L 77.840426 146.821806 
L 83.255532 70.242606 
L 88.670638 38.70052 
L 94.085745 100.963262 
L 99.500851 168.477584 
L 104.915957 141.145355 
L 110.331064 57.369661 
L 115.74617 38.518402 
L 121.161277 112.603984 
L 126.576383 172.472727 
L 131.991489 131.457176 
L 137.406596 49.501434 
L 142.821702 44.988721 
L 148.236809 123.413132 
L 153.651915 170.218589 
L 159.067021 119.572556 
L 164.482128 46.629705 
L 169.897234 57.183678 
L 175.31234 132.192407 
L 180.727447 161.33067 
L 186.142553 105.388954 
L 191.55766 49.116122 
L 196.972766 73.752196 
L 202.387872 138.310192 
L 207.802979 146.615108 
L 213.218085 90.823287 
L 218.633191 56.79655 
L 224.048298 93.065198 
L 229.463404 140.791607 
L 234.878511 127.787999 
L 240.293617 77.814539 
L 245.708723 69.04306 
L 251.12383 113.670436 
L 256.538936 139.088974 
L 261.954043 106.367718 
L 267.369149 67.273173 
L 272.784255 84.918631 
L 278.199362 132.596278 
L 283.614468 134.497425 
L 289.029574 84.695548 
L 294.444681 59.919595 
L 299.859787 102.406062 
L 305.274894 149.083207 
L 310.69 126.629469 
L 316.105106 64.407348 
L 321.520213 57.106196 
L 326.935319 119.969811 
L 332.350426 160.920164 
L 337.765532 115.99612 
L 343.180638 48.490834 
L 348.595745 58.118761 
L 354.010851 135.522743 
L 359.425957 166.669935 
L 364.841064 104.84473 
L 370.25617 37.572878 
L 375.671277 64.414765 
L 381.086383 147.772397 
L 386.501489 166.724827 
L 391.916596 92.949843 
L 397.331702 33.127273 
L 402.746809 74.219952 
L 408.161915 156.102108 
L 413.577021 160.702075 
L 418.992128 82.11189 
L 424.407234 35.061832 
L 429.82234 86.266272 
L 435.237447 159.142535 
L 440.652553 148.545334 
L 446.06766 73.316408 
L 451.482766 44.009692 
L 456.897872 100.344895 
L 462.312979 156.518004 
L 467.728085 131.890584 
L 473.143191 67.629335 
L 478.558298 59.135507 
L 483.973404 114.705102 
L 489.388511 148.730959 
L 494.803617 112.280239 
L 500.218723 64.97712 
L 505.63383 78.09052 
L 511.048936 127.46544 
L 516.464043 136.111485 
L 521.879149 91.957676 
L 527.294255 66.413114 
L 532.709362 99.466486 
L 538.124468 138.349568 
L 543.539574 120.726015 
L 548.954681 72.729695 
L 554.369787 71.067913 
L 559.784894 121.072676 
L 565.2 145.10834 
" clip-path="url(#pffecf69a92)" style="fill: none; stroke: #1f77b4; stroke-width: 1.5; stroke-linecap: square"/>
   </g>
   <g id="patch_3">
    <path d="M 56.18 179.44 
L 56.18 26.16 
" style="fill: none; stroke: #000000; stroke-width: 0.8; stroke-linejoin: miter; stroke-linecap: square"/>
   </g>
   <g id="patch_4">
    <path d="M 565.2 179.44 
L 565.2 26.16 
" style="fill: none; stroke: #000000; stroke-width: 0.8; stroke-linejoin: miter; stroke-linecap: square"/>
   </g>
   <g id="patch_5">
    <path d="M 56.18 179.44 
L 565.2 179.44 
" style="fill: none; stroke: #000000; stroke-width: 0.8; stroke-linejoin: miter; stroke-linecap: square"/>
   </g>
   <g id="patch_6">
    <path d="M 56.18 26.16 
L 565.2 26.16 
" style="fill: none; stroke: #000000; stroke-width: 0.8; stroke-linejoin: miter; stroke-linecap: square"/>
   </g>
   <g id="text_13">
    <!-- Input Signal: 21 MHz + 19 MHz -->
    <g transform="translate(217.285937 20.16) scale(0.12 -0.12)">
     <defs>
      <path id="DejaVuSans-49" d="M 628 4666 
L 1259 4666 
L 1259 0 
L 628 0 
L 628 4666 
z
" transform="scale(0.015625)"/>
      <path id="DejaVuSans-6e" d="M 3513 2113 
L 3513 0 
L 2938 0 
L 2938 2094 
Q 2938 2591 2744 2837 
Q 2550 3084 2163 3084 
Q 1697 3084 1428 2787 
Q 1159 2491 1159 1978 
L 1159 0 
L 581 0 
L 581 3500 
L 1159 3500 
L 1159 2956 
Q 1366 3272 1645 3428 
Q 1925 3584 2291 3584 
Q 2894 3584 3203 3211 
Q 3513 2838 3513 2113 
z
" transform="scale(0.015625)"/>
      <path id="DejaVuSans-53" d="M 3425 4513 
L 3425 3897 
Q 3066 4069 2747 4153 
Q 2428 4238 2131 4238 
Q 1616 4238 1336 4038 
Q 1056 3838 1056 3469 
Q 1056 3159 1242 3001 
Q 1428 2844 1947 2747 
L 2328 2669 
Q 3034 2534 3370 2195 
Q 3706 1856 3706 1288 
Q 3706 609 3251 259 
Q 2797 -91 1919 -91 
Q 1588 -91 1214 -16 
Q 841 59 441 206 
L 441 856 
Q 825 641 1194 531 
Q 1563 422 1919 422 
Q 2459 422 2753 634 
Q 3047 847 3047 1241 
Q 3047 1584 2836 1778 
Q 2625 1972 2144 2069 
L 1759 2144 
Q 1053 2284 737 2584 
Q 422 2884 422 3419 
Q 422 4038 858 4394 
Q 1294 4750 2059 4750 
Q 2388 4750 2728 4690 
Q 3069 4631 3425 4513 
z
" transform="scale(0.015625)"/>
      <path id="DejaVuSans-67" d="M 2906 1791 
Q 2906 2416 2648 2759 
Q 2391 3103 1925 3103 
Q 1463 3103 1205 2759 
Q 947 2416 947 1791 
Q 947 1169 1205 825 
Q 1463 481 1925 481 
Q 2391 481 2648 825 
Q 2906 1169 2906 1791 
z
M 3481 434 
Q 3481 -459 3084 -895 
Q 2688 -1331 1869 -1331 
Q 1566 -1331 1297 -1286 
Q 1028 -1241 775 -1147 
L 775 -588 
Q 1028 -725 1275 -790 
Q 1522 -856 1778 -856 
Q 2344 -856 2625 -561 
Q 2906 -266 2906 331 
L 2906 616 
Q 2728 306 2450 153 
Q 2172 0 1784 0 
Q 1141 0 747 490 
Q 353 981 353 1791 
Q 353 2603 747 3093 
Q 1141 3584 1784 3584 
Q 2172 3584 2450 3431 
Q 2728 3278 2906 2969 
L 2906 3500 
L 3481 3500 
L 3481 434 
z
" transform="scale(0.015625)"/>
      <path id="DejaVuSans-61" d="M 2194 1759 
Q 1497 1759 1228 1600 
Q 959 1441 959 1056 
Q 959 750 1161 570 
Q 1363 391 1709 391 
Q 2188 391 2477 730 
Q 2766 1069 2766 1631 
L 2766 1759 
L 2194 1759 
z
M 3341 1997 
L 3341 0 
L 2766 0 
L 2766 531 
Q 2569 213 2275 61 
Q 1981 -91 1556 -91 
Q 1019 -91 701 211 
Q 384 513 384 1019 
Q 384 1609 779 1909 
Q 1175 2209 1959 2209 
L 2766 2209 
L 2766 2266 
Q 2766 2663 2505 2880 
Q 2244 3097 1772 3097 
Q 1472 3097 1187 3025 
Q 903 2953 641 2809 
L 641 3341 
Q 956 3463 1253 3523 
Q 1550 3584 1831 3584 
Q 2591 3584 2966 3190 
Q 3341 2797 3341 1997 
z
" transform="scale(0.015625)"/>
      <path id="DejaVuSans-3a" d="M 750 794 
L 1409 794 
L 1409 0 
L 750 0 
L 750 794 
z
M 750 3309 
L 1409 3309 
L 1409 2516 
L 750 2516 
L 750 3309 
z
" transform="scale(0.015625)"/>
      <path id="DejaVuSans-4d" d="M 628 4666 
L 1569 4666 
L 2759 1491 
L 3956 4666 
L 4897 4666 
L 4897 0 
L 4281 0 
L 4281 4097 
L 3078 897 
L 2444 897 
L 1241 4097 
L 1241 0 
L 628 0 
L 628 4666 
z
" transform="scale(0.015625)"/>
      <path id="DejaVuSans-48" d="M 628 4666 
L 1259 4666 
L 1259 2753 
L 3553 2753 
L 3553 4666 
L 4184 4666 
L 4184 0 
L 3553 0 
L 3553 2222 
L 1259 2222 
L 1259 0 
L 628 0 
L 628 4666 
z
" transform="scale(0.015625)"/>
      <path id="DejaVuSans-7a" d="M 353 3500 
L 3084 3500 
L 3084 2975 
L 922 459 
L 3084 459 
L 3084 0 
L 275 0 
L 275 525 
L 2438 3041 
L 353 3041 
L 353 3500 
z
" transform="scale(0.015625)"/>
      <path id="DejaVuSans-2b" d="M 2944 4013 
L 2944 2272 
L 4684 2272 
L 4684 1741 
L 2944 1741 
L 2944 0 
L 2419 0 
L 2419 1741 
L 678 1741 
L 678 2272 
L 2419 2272 
L 2419 4013 
L 2944 4013 
z
" transform="scale(0.015625)"/>
      <path id="DejaVuSans-39" d="M 703 97 
L 703 672 
Q 941 559 1184 500 
Q 1428 441 1663 441 
Q 2288 441 2617 861 
Q 2947 1281 2994 2138 
Q 2813 1869 2534 1725 
Q 2256 1581 1919 1581 
Q 1219 1581 811 2004 
Q 403 2428 403 3163 
Q 403 3881 828 4315 
Q 1253 4750 1959 4750 
Q 2769 4750 3195 4129 
Q 3622 3509 3622 2328 
Q 3622 1225 3098 567 
Q 2575 -91 1691 -91 
Q 1453 -91 1209 -44 
Q 966 3 703 97 
z
M 1959 2075 
Q 2384 2075 2632 2365 
Q 2881 2656 2881 3163 
Q 2881 3666 2632 3958 
Q 2384 4250 1959 4250 
Q 1534 4250 1286 3958 
Q 1038 3666 1038 3163 
Q 1038 2656 1286 2365 
Q 1534 2075 1959 2075 
z
" transform="scale(0.015625)"/>
     </defs>
     <use xlink:href="#DejaVuSans-49"/>
     <use xlink:href="#DejaVuSans-6e" transform="translate(29.492188 0)"/>
     <use xlink:href="#DejaVuSans-70" transform="translate(92.871094 0)"/>
     <use xlink:href="#DejaVuSans-75" transform="translate(156.347656 0)"/>
     <use xlink:href="#DejaVuSans-74" transform="translate(219.726562 0)"/>
     <use xlink:href="#DejaVuSans-20" transform="translate(258.935547 0)"/>
     <use xlink:href="#DejaVuSans-53" transform="translate(290.722656 0)"/>
     <use xlink:href="#DejaVuSans-69" transform="translate(354.199219 0)"/>
     <use xlink:href="#DejaVuSans-67" transform="translate(381.982422 0)"/>
     <use xlink:href="#DejaVuSans-6e" transform="translate(445.458984 0)"/>
     <use xlink:href="#DejaVuSans-61" transform="translate(508.837891 0)"/>
     <use xlink:href="#DejaVuSans-6c" transform="translate(570.117188 0)"/>
     <use xlink:href="#DejaVuSans-3a" transform="translate(597.900391 0)"/>
     <use xlink:href="#DejaVuSans-20" transform="translate(631.591797 0)"/>
     <use xlink:href="#DejaVuSans-32" transform="translate(663.378906 0)"/>
     <use xlink:href="#DejaVuSans-31" transform="translate(727.001953 0)"/>
     <use xlink:href="#DejaVuSans-20" transform="translate(790.625 0)"/>
     <use xlink:href="#DejaVuSans-4d" transform="translate(822.412109 0)"/>
     <use xlink:href="#DejaVuSans-48" transform="translate(908.691406 0)"/>
     <use xlink:href="#DejaVuSans-7a" transform="translate(983.886719 0)"/>
     <use xlink:href="#DejaVuSans-20" transform="translate(1036.376953 0)"/>
     <use xlink:href="#DejaVuSans-2b" transform="translate(1068.164062 0)"/>
     <use xlink:href="#DejaVuSans-20" transform="translate(1151.953125 0)"/>
     <use xlink:href="#DejaVuSans-31" transform="translate(1183.740234 0)"/>
     <use xlink:href="#DejaVuSans-39" transform="translate(1247.363281 0)"/>
     <use xlink:href="#DejaVuSans-20" transform="translate(1310.986328 0)"/>
     <use xlink:href="#DejaVuSans-4d" transform="translate(1342.773438 0)"/>
     <use xlink:href="#DejaVuSans-48" transform="translate(1429.052734 0)"/>
     <use xlink:href="#DejaVuSans-7a" transform="translate(1504.248047 0)"/>
    </g>
   </g>
  </g>
  <g id="axes_2">
   <g id="patch_7">
    <path d="M 56.18 390.04 
L 565.2 390.04 
L 565.2 236.76 
L 56.18 236.76 
z
" style="fill: #ffffff"/>
   </g>
   <g id="matplotlib.axis_3">
    <g id="xtick_6">
     <g id="line2d_22">
      <path d="M 107.131758 390.04 
L 107.131758 236.76 
" clip-path="url(#p9cd68d4d9d)" style="fill: none; stroke: #b0b0b0; stroke-width: 0.8; stroke-linecap: square"/>
     </g>
     <g id="line2d_23">
      <g>
       <use xlink:href="#ma075baf4c1" x="107.131758" y="390.04" style="stroke: #000000; stroke-width: 0.8"/>
      </g>
     </g>
     <g id="text_14">
      <!-- −40 -->
      <g transform="translate(96.579414 404.638437) scale(0.1 -0.1)">
       <use xlink:href="#DejaVuSans-2212"/>
       <use xlink:href="#DejaVuSans-34" transform="translate(83.789062 0)"/>
       <use xlink:href="#DejaVuSans-30" transform="translate(147.412109 0)"/>
      </g>
     </g>
    </g>
    <g id="xtick_7">
     <g id="line2d_24">
      <path d="M 209.035273 390.04 
L 209.035273 236.76 
" clip-path="url(#p9cd68d4d9d)" style="fill: none; stroke: #b0b0b0; stroke-width: 0.8; stroke-linecap: square"/>
     </g>
     <g id="line2d_25">
      <g>
       <use xlink:href="#ma075baf4c1" x="209.035273" y="390.04" style="stroke: #000000; stroke-width: 0.8"/>
      </g>
     </g>
     <g id="text_15">
      <!-- −20 -->
      <g transform="translate(198.482929 404.638437) scale(0.1 -0.1)">
       <use xlink:href="#DejaVuSans-2212"/>
       <use xlink:href="#DejaVuSans-32" transform="translate(83.789062 0)"/>
       <use xlink:href="#DejaVuSans-30" transform="translate(147.412109 0)"/>
      </g>
     </g>
    </g>
    <g id="xtick_8">
     <g id="line2d_26">
      <path d="M 310.938788 390.04 
L 310.938788 236.76 
" clip-path="url(#p9cd68d4d9d)" style="fill: none; stroke: #b0b0b0; stroke-width: 0.8; stroke-linecap: square"/>
     </g>
     <g id="line2d_27">
      <g>
       <use xlink:href="#ma075baf4c1" x="310.938788" y="390.04" style="stroke: #000000; stroke-width: 0.8"/>
      </g>
     </g>
     <g id="text_16">
      <!-- 0 -->
      <g transform="translate(307.757538 404.638437) scale(0.1 -0.1)">
       <use xlink:href="#DejaVuSans-30"/>
      </g>
     </g>
    </g>
    <g id="xtick_9">
     <g id="line2d_28">
      <path d="M 412.842303 390.04 
L 412.842303 236.76 
" clip-path="url(#p9cd68d4d9d)" style="fill: none; stroke: #b0b0b0; stroke-width: 0.8; stroke-linecap: square"/>
     </g>
     <g id="line2d_29">
      <g>
       <use xlink:href="#ma075baf4c1" x="412.842303" y="390.04" style="stroke: #000000; stroke-width: 0.8"/>
      </g>
     </g>
     <g id="text_17">
      <!-- 20 -->
      <g transform="translate(406.479803 404.638437) scale(0.1 -0.1)">
       <use xlink:href="#DejaVuSans-32"/>
       <use xlink:href="#DejaVuSans-30" transform="translate(63.623047 0)"/>
      </g>
     </g>
    </g>
    <g id="xtick_10">
     <g id="line2d_30">
      <path d="M 514.745818 390.04 
L 514.745818 236.76 
" clip-path="url(#p9cd68d4d9d)" style="fill: none; stroke: #b0b0b0; stroke-width: 0.8; stroke-linecap: square"/>
     </g>
     <g id="line2d_31">
      <g>
       <use xlink:href="#ma075baf4c1" x="514.745818" y="390.04" style="stroke: #000000; stroke-width: 0.8"/>
      </g>
     </g>
     <g id="text_18">
      <!-- 40 -->
      <g transform="translate(508.383318 404.638437) scale(0.1 -0.1)">
       <use xlink:href="#DejaVuSans-34"/>
       <use xlink:href="#DejaVuSans-30" transform="translate(63.623047 0)"/>
      </g>
     </g>
    </g>
    <g id="text_19">
     <!-- Frequency (MHz) -->
     <g transform="translate(268.67125 418.316562) scale(0.1 -0.1)">
      <defs>
       <path id="DejaVuSans-46" d="M 628 4666 
L 3309 4666 
L 3309 4134 
L 1259 4134 
L 1259 2759 
L 3109 2759 
L 3109 2228 
L 1259 2228 
L 1259 0 
L 628 0 
L 628 4666 
z
" transform="scale(0.015625)"/>
       <path id="DejaVuSans-72" d="M 2631 2963 
Q 2534 3019 2420 3045 
Q 2306 3072 2169 3072 
Q 1681 3072 1420 2755 
Q 1159 2438 1159 1844 
L 1159 0 
L 581 0 
L 581 3500 
L 1159 3500 
L 1159 2956 
Q 1341 3275 1631 3429 
Q 1922 3584 2338 3584 
Q 2397 3584 2469 3576 
Q 2541 3569 2628 3553 
L 2631 2963 
z
" transform="scale(0.015625)"/>
       <path id="DejaVuSans-71" d="M 947 1747 
Q 947 1113 1208 752 
Q 1469 391 1925 391 
Q 2381 391 2643 752 
Q 2906 1113 2906 1747 
Q 2906 2381 2643 2742 
Q 2381 3103 1925 3103 
Q 1469 3103 1208 2742 
Q 947 2381 947 1747 
z
M 2906 525 
Q 2725 213 2448 61 
Q 2172 -91 1784 -91 
Q 1150 -91 751 415 
Q 353 922 353 1747 
Q 353 2572 751 3078 
Q 1150 3584 1784 3584 
Q 2172 3584 2448 3432 
Q 2725 3281 2906 2969 
L 2906 3500 
L 3481 3500 
L 3481 -1331 
L 2906 -1331 
L 2906 525 
z
" transform="scale(0.015625)"/>
       <path id="DejaVuSans-63" d="M 3122 3366 
L 3122 2828 
Q 2878 2963 2633 3030 
Q 2388 3097 2138 3097 
Q 1578 3097 1268 2742 
Q 959 2388 959 1747 
Q 959 1106 1268 751 
Q 1578 397 2138 397 
Q 2388 397 2633 464 
Q 2878 531 3122 666 
L 3122 134 
Q 2881 22 2623 -34 
Q 2366 -91 2075 -91 
Q 1284 -91 818 406 
Q 353 903 353 1747 
Q 353 2603 823 3093 
Q 1294 3584 2113 3584 
Q 2378 3584 2631 3529 
Q 2884 3475 3122 3366 
z
" transform="scale(0.015625)"/>
       <path id="DejaVuSans-79" d="M 2059 -325 
Q 1816 -950 1584 -1140 
Q 1353 -1331 966 -1331 
L 506 -1331 
L 506 -850 
L 844 -850 
Q 1081 -850 1212 -737 
Q 1344 -625 1503 -206 
L 1606 56 
L 191 3500 
L 800 3500 
L 1894 763 
L 2988 3500 
L 3597 3500 
L 2059 -325 
z
" transform="scale(0.015625)"/>
      </defs>
      <use xlink:href="#DejaVuSans-46"/>
      <use xlink:href="#DejaVuSans-72" transform="translate(50.269531 0)"/>
      <use xlink:href="#DejaVuSans-65" transform="translate(89.132812 0)"/>
      <use xlink:href="#DejaVuSans-71" transform="translate(150.65625 0)"/>
      <use xlink:href="#DejaVuSans-75" transform="translate(214.132812 0)"/>
      <use xlink:href="#DejaVuSans-65" transform="translate(277.511719 0)"/>
      <use xlink:href="#DejaVuSans-6e" transform="translate(339.035156 0)"/>
      <use xlink:href="#DejaVuSans-63" transform="translate(402.414062 0)"/>
      <use xlink:href="#DejaVuSans-79" transform="translate(457.394531 0)"/>
      <use xlink:href="#DejaVuSans-20" transform="translate(516.574219 0)"/>
      <use xlink:href="#DejaVuSans-28" transform="translate(548.361328 0)"/>
      <use xlink:href="#DejaVuSans-4d" transform="translate(587.375 0)"/>
      <use xlink:href="#DejaVuSans-48" transform="translate(673.654297 0)"/>
      <use xlink:href="#DejaVuSans-7a" transform="translate(748.849609 0)"/>
      <use xlink:href="#DejaVuSans-29" transform="translate(801.339844 0)"/>
     </g>
    </g>
   </g>
   <g id="matplotlib.axis_4">
    <g id="ytick_6">
     <g id="line2d_32">
      <path d="M 56.18 364.192234 
L 565.2 364.192234 
" clip-path="url(#p9cd68d4d9d)" style="fill: none; stroke: #b0b0b0; stroke-width: 0.8; stroke-linecap: square"/>
     </g>
     <g id="line2d_33">
      <g>
       <use xlink:href="#m0f6cc56ff8" x="56.18" y="364.192234" style="stroke: #000000; stroke-width: 0.8"/>
      </g>
     </g>
     <g id="text_20">
      <!-- −40 -->
      <g transform="translate(28.075313 367.991453) scale(0.1 -0.1)">
       <use xlink:href="#DejaVuSans-2212"/>
       <use xlink:href="#DejaVuSans-34" transform="translate(83.789062 0)"/>
       <use xlink:href="#DejaVuSans-30" transform="translate(147.412109 0)"/>
      </g>
     </g>
    </g>
    <g id="ytick_7">
     <g id="line2d_34">
      <path d="M 56.18 335.711276 
L 565.2 335.711276 
" clip-path="url(#p9cd68d4d9d)" style="fill: none; stroke: #b0b0b0; stroke-width: 0.8; stroke-linecap: square"/>
     </g>
     <g id="line2d_35">
      <g>
       <use xlink:href="#m0f6cc56ff8" x="56.18" y="335.711276" style="stroke: #000000; stroke-width: 0.8"/>
      </g>
     </g>
     <g id="text_21">
      <!-- −20 -->
      <g transform="translate(28.075313 339.510495) scale(0.1 -0.1)">
       <use xlink:href="#DejaVuSans-2212"/>
       <use xlink:href="#DejaVuSans-32" transform="translate(83.789062 0)"/>
       <use xlink:href="#DejaVuSans-30" transform="translate(147.412109 0)"/>
      </g>
     </g>
    </g>
    <g id="ytick_8">
     <g id="line2d_36">
      <path d="M 56.18 307.230319 
L 565.2 307.230319 
" clip-path="url(#p9cd68d4d9d)" style="fill: none; stroke: #b0b0b0; stroke-width: 0.8; stroke-linecap: square"/>
     </g>
     <g id="line2d_37">
      <g>
       <use xlink:href="#m0f6cc56ff8" x="56.18" y="307.230319" style="stroke: #000000; stroke-width: 0.8"/>
      </g>
     </g>
     <g id="text_22">
      <!-- 0 -->
      <g transform="translate(42.8175 311.029537) scale(0.1 -0.1)">
       <use xlink:href="#DejaVuSans-30"/>
      </g>
     </g>
    </g>
    <g id="ytick_9">
     <g id="line2d_38">
      <path d="M 56.18 278.749361 
L 565.2 278.749361 
" clip-path="url(#p9cd68d4d9d)" style="fill: none; stroke: #b0b0b0; stroke-width: 0.8; stroke-linecap: square"/>
     </g>
     <g id="line2d_39">
      <g>
       <use xlink:href="#m0f6cc56ff8" x="56.18" y="278.749361" style="stroke: #000000; stroke-width: 0.8"/>
      </g>
     </g>
     <g id="text_23">
      <!-- 20 -->
      <g transform="translate(36.455 282.54858) scale(0.1 -0.1)">
       <use xlink:href="#DejaVuSans-32"/>
       <use xlink:href="#DejaVuSans-30" transform="translate(63.623047 0)"/>
      </g>
     </g>
    </g>
    <g id="ytick_10">
     <g id="line2d_40">
      <path d="M 56.18 250.268403 
L 565.2 250.268403 
" clip-path="url(#p9cd68d4d9d)" style="fill: none; stroke: #b0b0b0; stroke-width: 0.8; stroke-linecap: square"/>
     </g>
     <g id="line2d_41">
      <g>
       <use xlink:href="#m0f6cc56ff8" x="56.18" y="250.268403" style="stroke: #000000; stroke-width: 0.8"/>
      </g>
     </g>
     <g id="text_24">
      <!-- 40 -->
      <g transform="translate(36.455 254.067622) scale(0.1 -0.1)">
       <use xlink:href="#DejaVuSans-34"/>
       <use xlink:href="#DejaVuSans-30" transform="translate(63.623047 0)"/>
      </g>
     </g>
    </g>
    <g id="text_25">
     <!-- Magnitude (dB) -->
     <g transform="translate(21.995625 351.985156) rotate(-90) scale(0.1 -0.1)">
      <defs>
       <path id="DejaVuSans-42" d="M 1259 2228 
L 1259 519 
L 2272 519 
Q 2781 519 3026 730 
Q 3272 941 3272 1375 
Q 3272 1813 3026 2020 
Q 2781 2228 2272 2228 
L 1259 2228 
z
M 1259 4147 
L 1259 2741 
L 2194 2741 
Q 2656 2741 2882 2914 
Q 3109 3088 3109 3444 
Q 3109 3797 2882 3972 
Q 2656 4147 2194 4147 
L 1259 4147 
z
M 628 4666 
L 2241 4666 
Q 2963 4666 3353 4366 
Q 3744 4066 3744 3513 
Q 3744 3084 3544 2831 
Q 3344 2578 2956 2516 
Q 3422 2416 3680 2098 
Q 3938 1781 3938 1306 
Q 3938 681 3513 340 
Q 3088 0 2303 0 
L 628 0 
L 628 4666 
z
" transform="scale(0.015625)"/>
      </defs>
      <use xlink:href="#DejaVuSans-4d"/>
      <use xlink:href="#DejaVuSans-61" transform="translate(86.279297 0)"/>
      <use xlink:href="#DejaVuSans-67" transform="translate(147.558594 0)"/>
      <use xlink:href="#DejaVuSans-6e" transform="translate(211.035156 0)"/>
      <use xlink:href="#DejaVuSans-69" transform="translate(274.414062 0)"/>
      <use xlink:href="#DejaVuSans-74" transform="translate(302.197266 0)"/>
      <use xlink:href="#DejaVuSans-75" transform="translate(341.40625 0)"/>
      <use xlink:href="#DejaVuSans-64" transform="translate(404.785156 0)"/>
      <use xlink:href="#DejaVuSans-65" transform="translate(468.261719 0)"/>
      <use xlink:href="#DejaVuSans-20" transform="translate(529.785156 0)"/>
      <use xlink:href="#DejaVuSans-28" transform="translate(561.572266 0)"/>
      <use xlink:href="#DejaVuSans-64" transform="translate(600.585938 0)"/>
      <use xlink:href="#DejaVuSans-42" transform="translate(664.0625 0)"/>
      <use xlink:href="#DejaVuSans-29" transform="translate(732.666016 0)"/>
     </g>
    </g>
   </g>
   <g id="line2d_42">
    <path d="M 56.18 344.548441 
L 56.677576 347.117426 
L 57.175152 350.403134 
L 57.672727 340.662737 
L 58.170303 339.566698 
L 58.667879 346.140107 
L 59.165455 356.065834 
L 60.160606 343.61495 
L 60.658182 344.203671 
L 61.155758 346.555795 
L 61.653333 345.128656 
L 62.150909 340.3323 
L 62.648485 340.351088 
L 63.146061 343.955562 
L 63.643636 342.360004 
L 64.141212 346.425374 
L 64.638788 358.047947 
L 65.136364 345.905464 
L 65.633939 341.792364 
L 66.131515 342.0486 
L 67.126667 340.943115 
L 68.121818 343.729863 
L 69.11697 352.449597 
L 69.614545 350.87889 
L 70.112121 348.512802 
L 70.609697 347.063526 
L 71.107273 348.945916 
L 71.604848 371.480121 
L 72.102424 349.915937 
L 72.6 350.093606 
L 73.097576 361.018325 
L 73.595152 345.960722 
L 74.092727 343.686018 
L 74.590303 344.83038 
L 75.087879 350.095205 
L 75.585455 360.031485 
L 76.08303 354.786045 
L 76.580606 344.269413 
L 77.078182 339.033884 
L 77.575758 335.516375 
L 78.073333 336.421335 
L 78.570909 339.98711 
L 79.068485 340.295308 
L 80.063636 347.639154 
L 80.561212 357.15446 
L 81.058788 359.110414 
L 81.556364 350.177409 
L 82.053939 354.755614 
L 82.551515 355.501412 
L 83.049091 341.049535 
L 83.546667 339.199683 
L 84.044242 339.886159 
L 84.541818 341.17964 
L 85.039394 351.003432 
L 85.53697 344.167017 
L 86.034545 339.258883 
L 86.532121 342.891618 
L 87.029697 358.093593 
L 87.527273 360.571253 
L 88.024848 358.971165 
L 88.522424 343.42502 
L 89.02 335.935074 
L 89.517576 334.742399 
L 90.015152 338.157728 
L 91.010303 350.08532 
L 91.507879 350.33612 
L 92.005455 348.995248 
L 92.50303 343.103678 
L 93.000606 342.797202 
L 93.498182 345.891998 
L 93.995758 345.046558 
L 94.493333 342.823119 
L 94.990909 343.184512 
L 95.488485 340.668772 
L 95.986061 336.540424 
L 96.483636 334.249523 
L 96.981212 333.922378 
L 97.478788 337.217839 
L 97.976364 344.718612 
L 98.473939 342.095947 
L 98.971515 338.774357 
L 99.469091 338.183961 
L 99.966667 337.839802 
L 100.464242 338.026468 
L 101.459394 339.786473 
L 101.95697 343.866237 
L 102.454545 357.598244 
L 102.952121 355.326014 
L 103.449697 361.7404 
L 103.947273 356.131688 
L 104.444848 346.2213 
L 104.942424 346.030974 
L 105.44 352.46033 
L 105.937576 352.69905 
L 106.435152 348.843525 
L 106.932727 346.293122 
L 107.430303 345.905167 
L 107.927879 349.744577 
L 108.425455 352.299992 
L 108.92303 348.289784 
L 109.420606 357.470629 
L 109.918182 351.207349 
L 110.415758 342.266936 
L 110.913333 338.490326 
L 111.410909 338.583743 
L 111.908485 343.068029 
L 112.406061 340.72627 
L 112.903636 339.572138 
L 113.401212 342.515672 
L 113.898788 339.142104 
L 114.396364 337.848016 
L 114.893939 342.552375 
L 115.391515 349.270609 
L 115.889091 346.405008 
L 116.386667 347.543118 
L 116.884242 354.402294 
L 117.381818 358.944983 
L 117.879394 351.77719 
L 118.37697 342.717431 
L 118.874545 344.635727 
L 119.372121 363.054561 
L 119.869697 342.837179 
L 120.367273 340.848799 
L 120.864848 344.330153 
L 121.362424 349.960366 
L 121.86 354.224167 
L 122.357576 352.055769 
L 122.855152 347.330028 
L 123.352727 348.130674 
L 123.850303 349.750351 
L 124.347879 346.28398 
L 124.845455 346.629532 
L 125.34303 350.149629 
L 125.840606 350.278384 
L 126.338182 349.840218 
L 126.835758 342.017987 
L 127.333333 336.076742 
L 127.830909 336.551612 
L 128.328485 339.881863 
L 128.826061 339.631098 
L 129.323636 339.122237 
L 129.821212 343.686474 
L 130.318788 346.825516 
L 130.816364 338.623281 
L 131.313939 336.903217 
L 131.811515 338.549613 
L 132.309091 339.039131 
L 132.806667 340.918562 
L 133.304242 346.01303 
L 133.801818 343.958386 
L 134.299394 343.003921 
L 134.79697 342.874402 
L 135.294545 343.161657 
L 135.792121 348.977891 
L 136.289697 362.934722 
L 136.787273 343.393176 
L 137.284848 337.736945 
L 137.782424 339.780721 
L 138.28 353.463793 
L 138.777576 349.778543 
L 139.275152 349.979448 
L 139.772727 354.617004 
L 140.270303 346.668412 
L 140.767879 343.285539 
L 141.265455 343.510929 
L 141.76303 353.397715 
L 142.260606 351.501575 
L 142.758182 344.982323 
L 143.255758 347.908665 
L 143.753333 376.961036 
L 144.250909 342.844702 
L 144.748485 335.241815 
L 145.246061 335.083928 
L 145.743636 340.242442 
L 146.241212 346.603508 
L 146.738788 345.42641 
L 147.236364 350.836313 
L 147.733939 361.199474 
L 148.231515 354.048002 
L 148.729091 354.958942 
L 149.226667 347.989179 
L 149.724242 343.313019 
L 150.221818 343.481528 
L 150.719394 345.961032 
L 151.714545 341.87764 
L 152.212121 343.0523 
L 152.709697 339.962916 
L 153.207273 337.752901 
L 153.704848 340.708664 
L 154.202424 346.544396 
L 154.7 344.465505 
L 155.197576 340.138653 
L 155.695152 340.521438 
L 156.192727 343.477688 
L 156.690303 348.785817 
L 157.187879 360.091058 
L 157.685455 360.012985 
L 158.18303 362.765409 
L 158.680606 344.969243 
L 159.178182 339.688329 
L 159.675758 338.577148 
L 160.173333 338.41348 
L 160.670909 340.571362 
L 161.168485 354.757966 
L 162.163636 335.963024 
L 162.661212 335.995969 
L 163.158788 345.812609 
L 163.656364 349.148707 
L 164.153939 343.997664 
L 164.651515 349.912169 
L 165.646667 340.563017 
L 166.144242 341.853167 
L 166.641818 343.580459 
L 167.63697 348.785208 
L 168.134545 346.957131 
L 168.632121 343.760526 
L 169.129697 341.482198 
L 169.627273 342.210681 
L 170.124848 341.44053 
L 170.622424 337.283149 
L 171.12 336.915472 
L 171.617576 342.599317 
L 172.115152 355.581605 
L 172.612727 352.906595 
L 173.110303 349.386096 
L 173.607879 348.422606 
L 174.105455 350.829835 
L 174.60303 350.603455 
L 175.100606 341.134594 
L 175.598182 340.730063 
L 176.095758 349.466071 
L 176.593333 365.116324 
L 177.090909 356.815953 
L 177.588485 346.318435 
L 178.086061 341.723098 
L 178.583636 339.78781 
L 179.578788 344.641443 
L 180.076364 342.10538 
L 180.573939 344.802878 
L 181.071515 352.038837 
L 181.569091 354.98138 
L 182.066667 363.350787 
L 182.564242 348.756867 
L 183.061818 344.990103 
L 183.559394 357.129864 
L 184.05697 354.801767 
L 184.554545 349.213892 
L 185.052121 354.526656 
L 185.549697 383.072727 
L 186.047273 358.591114 
L 186.544848 349.222375 
L 187.042424 343.428614 
L 187.54 342.306868 
L 188.535152 351.476197 
L 189.032727 361.224965 
L 190.027879 344.05011 
L 190.525455 346.153198 
L 191.520606 364.505661 
L 192.018182 345.555551 
L 192.515758 338.321202 
L 193.013333 337.71218 
L 193.510909 340.959359 
L 194.008485 346.40757 
L 194.506061 347.934679 
L 195.003636 339.841664 
L 195.501212 345.62323 
L 195.998788 361.174059 
L 196.496364 348.163683 
L 196.993939 351.230609 
L 197.491515 355.508623 
L 197.989091 355.040318 
L 198.486667 356.01501 
L 198.984242 358.437579 
L 199.481818 347.715512 
L 199.979394 339.770994 
L 200.47697 338.738421 
L 200.974545 342.892585 
L 201.472121 359.07004 
L 201.969697 328.82359 
L 202.467273 283.817538 
L 202.964848 260.011531 
L 203.462424 247.485265 
L 203.96 243.727273 
L 204.457576 248.148068 
L 204.955152 261.44046 
L 205.452727 286.30032 
L 205.950303 333.263937 
L 206.447879 351.985463 
L 206.945455 351.994396 
L 207.44303 342.932248 
L 207.940606 341.742437 
L 208.438182 345.142253 
L 208.935758 344.179353 
L 209.930909 340.67009 
L 210.428485 342.12359 
L 210.926061 347.289487 
L 211.423636 357.937609 
L 211.921212 348.930597 
L 212.916364 284.008015 
L 213.413939 266.570276 
L 213.911515 258.753262 
L 214.409091 259.236599 
L 214.906667 268.090064 
L 215.404242 286.828605 
L 215.901818 319.635174 
L 216.399394 344.851171 
L 216.89697 346.102634 
L 217.394545 353.809985 
L 217.892121 364.08607 
L 218.389697 344.611103 
L 218.887273 337.715532 
L 219.384848 338.989237 
L 219.882424 343.910178 
L 220.38 343.662485 
L 220.877576 339.618264 
L 221.375152 336.811519 
L 221.872727 337.352336 
L 222.370303 340.498839 
L 222.867879 338.358959 
L 223.365455 338.238047 
L 223.86303 343.294471 
L 224.360606 353.484178 
L 224.858182 352.924248 
L 225.853333 349.835223 
L 226.350909 347.118939 
L 226.848485 347.165708 
L 227.843636 341.328915 
L 228.341212 343.52022 
L 228.838788 349.989723 
L 229.336364 373.182445 
L 229.833939 345.047064 
L 230.331515 340.057188 
L 230.829091 341.822518 
L 231.326667 345.929703 
L 231.824242 347.055836 
L 232.819394 342.501725 
L 233.31697 344.756018 
L 233.814545 349.791298 
L 234.312121 346.655616 
L 234.809697 352.408015 
L 235.307273 355.468598 
L 235.804848 342.088598 
L 236.302424 339.62478 
L 236.8 342.937039 
L 237.297576 347.993872 
L 237.795152 354.397977 
L 238.790303 341.25906 
L 239.287879 341.682397 
L 239.785455 343.453617 
L 240.28303 343.575803 
L 240.780606 344.765012 
L 241.278182 350.679129 
L 241.775758 359.190421 
L 242.273333 353.295505 
L 242.770909 352.216837 
L 243.268485 357.231365 
L 243.766061 356.362313 
L 244.263636 353.394744 
L 245.258788 344.763569 
L 245.756364 345.026263 
L 246.253939 347.717386 
L 246.751515 348.243416 
L 247.249091 346.77586 
L 247.746667 348.651836 
L 248.244242 362.033758 
L 248.741818 354.470195 
L 249.239394 368.73026 
L 249.73697 352.265854 
L 250.234545 354.100115 
L 250.732121 357.658256 
L 251.229697 356.643513 
L 251.727273 354.73521 
L 252.224848 342.731683 
L 252.722424 338.495562 
L 253.22 341.76217 
L 253.717576 356.814386 
L 254.215152 347.714471 
L 254.712727 342.595103 
L 255.210303 341.274528 
L 256.205455 355.490729 
L 256.70303 343.363775 
L 257.698182 339.885012 
L 258.195758 337.418359 
L 258.693333 338.162698 
L 259.190909 345.581233 
L 259.688485 363.222678 
L 260.186061 366.948321 
L 260.683636 353.122309 
L 261.181212 355.728482 
L 261.678788 361.163523 
L 262.176364 355.248348 
L 262.673939 360.436504 
L 263.171515 351.364066 
L 263.669091 350.554094 
L 264.166667 367.05583 
L 264.664242 354.287485 
L 265.161818 350.694615 
L 265.659394 351.696041 
L 266.15697 351.615587 
L 266.654545 346.024857 
L 267.152121 352.908625 
L 267.649697 350.002913 
L 268.147273 342.050694 
L 268.644848 343.24315 
L 269.142424 347.381461 
L 269.64 349.530285 
L 270.137576 352.472693 
L 270.635152 345.760893 
L 271.132727 346.456629 
L 271.630303 357.902009 
L 272.127879 360.115068 
L 272.625455 348.560935 
L 273.12303 346.135294 
L 273.620606 346.67288 
L 274.118182 346.019801 
L 274.615758 342.84335 
L 275.113333 342.94699 
L 275.610909 344.087709 
L 276.108485 341.185394 
L 276.606061 341.892908 
L 277.103636 341.848896 
L 278.098788 358.747758 
L 278.596364 349.673456 
L 279.093939 348.915853 
L 279.591515 343.628069 
L 280.089091 341.857544 
L 280.586667 344.444359 
L 281.084242 349.205722 
L 281.581818 349.171689 
L 282.079394 345.777328 
L 282.57697 350.136595 
L 283.074545 363.04437 
L 283.572121 353.275651 
L 284.069697 351.947793 
L 284.567273 347.121674 
L 285.064848 347.277705 
L 285.562424 353.2224 
L 286.06 351.961489 
L 286.557576 358.540148 
L 287.055152 343.624019 
L 287.552727 340.104589 
L 288.050303 340.594083 
L 289.045455 347.755358 
L 289.54303 343.739888 
L 290.538182 345.048181 
L 291.035758 347.723608 
L 291.533333 351.324102 
L 292.030909 350.735668 
L 293.026061 341.678317 
L 293.523636 340.325815 
L 294.021212 342.469555 
L 294.518788 346.23267 
L 295.016364 343.794294 
L 295.513939 342.242768 
L 296.011515 344.444473 
L 297.006667 354.339403 
L 297.504242 361.240567 
L 298.001818 364.384643 
L 298.499394 369.331058 
L 298.99697 355.840323 
L 299.494545 350.710269 
L 300.987273 339.313276 
L 301.484848 339.033548 
L 302.977576 352.471352 
L 303.475152 353.456526 
L 304.470303 347.649529 
L 304.967879 342.174297 
L 305.465455 343.04171 
L 305.96303 344.824614 
L 306.460606 350.842015 
L 306.958182 349.72253 
L 307.455758 338.669755 
L 307.953333 337.828584 
L 308.450909 342.448506 
L 308.948485 356.780327 
L 309.446061 351.871644 
L 309.943636 342.61084 
L 310.441212 342.258535 
L 310.938788 344.558859 
L 311.436364 342.258535 
L 311.933939 342.61084 
L 312.431515 351.871644 
L 312.929091 356.780327 
L 313.426667 342.448506 
L 313.924242 337.828584 
L 314.421818 338.669755 
L 314.919394 349.72253 
L 315.41697 350.842015 
L 315.914545 344.824614 
L 316.412121 343.04171 
L 316.909697 342.174297 
L 317.407273 347.649529 
L 318.402424 353.456526 
L 318.9 352.471352 
L 319.895152 343.57407 
L 320.392727 339.033548 
L 320.890303 339.313276 
L 322.880606 355.840323 
L 323.378182 369.331058 
L 323.875758 364.384643 
L 324.373333 361.240567 
L 324.870909 354.339403 
L 325.866061 344.444473 
L 326.363636 342.242768 
L 326.861212 343.794294 
L 327.358788 346.23267 
L 327.856364 342.469555 
L 328.353939 340.325815 
L 328.851515 341.678317 
L 329.846667 350.735668 
L 330.344242 351.324102 
L 330.841818 347.723608 
L 331.339394 345.048181 
L 332.334545 343.739888 
L 332.832121 347.755358 
L 333.827273 340.594083 
L 334.324848 340.104589 
L 334.822424 343.624019 
L 335.32 358.540148 
L 335.817576 351.961489 
L 336.315152 353.2224 
L 336.812727 347.277705 
L 337.310303 347.121674 
L 337.807879 351.947793 
L 338.305455 353.275651 
L 338.80303 363.04437 
L 339.300606 350.136595 
L 339.798182 345.777328 
L 340.295758 349.171689 
L 340.793333 349.205722 
L 341.290909 344.444359 
L 341.788485 341.857544 
L 342.286061 343.628069 
L 342.783636 348.915853 
L 343.281212 349.673456 
L 343.778788 358.747758 
L 344.773939 341.848896 
L 345.271515 341.892908 
L 345.769091 341.185394 
L 346.266667 344.087709 
L 346.764242 342.94699 
L 347.261818 342.84335 
L 347.759394 346.019801 
L 348.25697 346.67288 
L 348.754545 346.135294 
L 349.252121 348.560935 
L 349.749697 360.115068 
L 350.247273 357.902009 
L 350.744848 346.456629 
L 351.242424 345.760893 
L 351.74 352.472693 
L 352.237576 349.530285 
L 352.735152 347.381461 
L 353.232727 343.24315 
L 353.730303 342.050694 
L 354.227879 350.002913 
L 354.725455 352.908625 
L 355.22303 346.024857 
L 355.720606 351.615587 
L 356.218182 351.696041 
L 356.715758 350.694615 
L 357.213333 354.287485 
L 357.710909 367.05583 
L 358.208485 350.554094 
L 358.706061 351.364066 
L 359.203636 360.436504 
L 359.701212 355.248348 
L 360.198788 361.163523 
L 360.696364 355.728482 
L 361.193939 353.122309 
L 361.691515 366.948321 
L 362.189091 363.222678 
L 362.686667 345.581233 
L 363.184242 338.162698 
L 363.681818 337.418359 
L 364.179394 339.885012 
L 365.174545 343.363775 
L 365.672121 355.490729 
L 366.667273 341.274528 
L 367.164848 342.595103 
L 367.662424 347.714471 
L 368.16 356.814386 
L 368.657576 341.76217 
L 369.155152 338.495562 
L 369.652727 342.731683 
L 370.150303 354.73521 
L 370.647879 356.643513 
L 371.145455 357.658256 
L 371.64303 354.100115 
L 372.140606 352.265854 
L 372.638182 368.73026 
L 373.135758 354.470195 
L 373.633333 362.033758 
L 374.130909 348.651836 
L 374.628485 346.77586 
L 375.126061 348.243416 
L 375.623636 347.717386 
L 376.121212 345.026263 
L 376.618788 344.763569 
L 377.116364 348.577853 
L 377.613939 353.394744 
L 378.111515 356.362313 
L 378.609091 357.231365 
L 379.106667 352.216837 
L 379.604242 353.295505 
L 380.101818 359.190421 
L 380.599394 350.679129 
L 381.09697 344.765012 
L 381.594545 343.575803 
L 382.092121 343.453617 
L 382.589697 341.682397 
L 383.087273 341.25906 
L 384.082424 354.397977 
L 385.077576 342.937039 
L 385.575152 339.62478 
L 386.072727 342.088598 
L 386.570303 355.468598 
L 387.067879 352.408015 
L 387.565455 346.655616 
L 388.06303 349.791298 
L 388.560606 344.756018 
L 389.058182 342.501725 
L 390.053333 347.055836 
L 390.550909 345.929703 
L 391.048485 341.822518 
L 391.546061 340.057188 
L 392.043636 345.047064 
L 392.541212 373.182445 
L 393.038788 349.989723 
L 393.536364 343.52022 
L 394.033939 341.328915 
L 395.029091 347.165708 
L 395.526667 347.118939 
L 396.024242 349.835223 
L 397.019394 352.924248 
L 397.51697 353.484178 
L 398.014545 343.294471 
L 398.512121 338.238047 
L 399.009697 338.358959 
L 399.507273 340.498839 
L 400.004848 337.352336 
L 400.502424 336.811519 
L 401 339.618264 
L 401.497576 343.662485 
L 401.995152 343.910178 
L 402.492727 338.989237 
L 402.990303 337.715532 
L 403.487879 344.611103 
L 403.985455 364.08607 
L 404.48303 353.809985 
L 404.980606 346.102634 
L 405.478182 344.851171 
L 405.975758 319.635174 
L 406.473333 286.828605 
L 406.970909 268.090064 
L 407.468485 259.236599 
L 407.966061 258.753262 
L 408.463636 266.570276 
L 408.961212 284.008015 
L 409.956364 348.930597 
L 410.453939 357.937609 
L 410.951515 347.289487 
L 411.449091 342.12359 
L 411.946667 340.67009 
L 412.941818 344.179353 
L 413.439394 345.142253 
L 413.93697 341.742437 
L 414.434545 342.932248 
L 414.932121 351.994396 
L 415.429697 351.985463 
L 415.927273 333.263937 
L 416.424848 286.30032 
L 416.922424 261.44046 
L 417.42 248.148068 
L 417.917576 243.727273 
L 418.415152 247.485265 
L 418.912727 260.011531 
L 419.410303 283.817538 
L 419.907879 328.82359 
L 420.405455 359.07004 
L 420.90303 342.892585 
L 421.400606 338.738421 
L 421.898182 339.770994 
L 422.395758 347.715512 
L 422.893333 358.437579 
L 423.390909 356.01501 
L 423.888485 355.040318 
L 424.386061 355.508623 
L 424.883636 351.230609 
L 425.381212 348.163683 
L 425.878788 361.174059 
L 426.376364 345.62323 
L 426.873939 339.841664 
L 427.371515 347.934679 
L 427.869091 346.40757 
L 428.366667 340.959359 
L 428.864242 337.71218 
L 429.361818 338.321202 
L 429.859394 345.555551 
L 430.35697 364.505661 
L 431.352121 346.153198 
L 431.849697 344.05011 
L 432.844848 361.224965 
L 433.342424 351.476197 
L 434.337576 342.306868 
L 434.835152 343.428614 
L 435.332727 349.222375 
L 435.830303 358.591114 
L 436.327879 383.072727 
L 436.825455 354.526656 
L 437.32303 349.213892 
L 437.820606 354.801767 
L 438.318182 357.129864 
L 438.815758 344.990103 
L 439.313333 348.756867 
L 439.810909 363.350787 
L 440.308485 354.98138 
L 440.806061 352.038837 
L 441.303636 344.802878 
L 441.801212 342.10538 
L 442.298788 344.641443 
L 443.293939 339.78781 
L 443.791515 341.723098 
L 444.289091 346.318435 
L 445.284242 365.116324 
L 445.781818 349.466071 
L 446.279394 340.730063 
L 446.77697 341.134594 
L 447.274545 350.603455 
L 447.772121 350.829835 
L 448.269697 348.422606 
L 448.767273 349.386096 
L 449.264848 352.906595 
L 449.762424 355.581605 
L 450.26 342.599317 
L 450.757576 336.915472 
L 451.255152 337.283149 
L 451.752727 341.44053 
L 452.250303 342.210681 
L 452.747879 341.482198 
L 453.245455 343.760526 
L 453.74303 346.957131 
L 454.240606 348.785208 
L 455.733333 341.853167 
L 456.230909 340.563017 
L 457.226061 349.912169 
L 457.723636 343.997664 
L 458.221212 349.148707 
L 458.718788 345.812609 
L 459.216364 335.995969 
L 459.713939 335.963024 
L 460.709091 354.757966 
L 461.206667 340.571362 
L 461.704242 338.41348 
L 462.201818 338.577148 
L 462.699394 339.688329 
L 463.19697 344.969243 
L 463.694545 362.765409 
L 464.192121 360.012985 
L 464.689697 360.091058 
L 465.187273 348.785817 
L 465.684848 343.477688 
L 466.182424 340.521438 
L 466.68 340.138653 
L 467.177576 344.465505 
L 467.675152 346.544396 
L 468.172727 340.708664 
L 468.670303 337.752901 
L 469.167879 339.962916 
L 469.665455 343.0523 
L 470.16303 341.87764 
L 471.158182 345.961032 
L 471.655758 343.481528 
L 472.153333 343.313019 
L 472.650909 347.989179 
L 473.148485 354.958942 
L 473.646061 354.048002 
L 474.143636 361.199474 
L 474.641212 350.836313 
L 475.138788 345.42641 
L 475.636364 346.603508 
L 476.631515 335.083928 
L 477.129091 335.241815 
L 477.626667 342.844702 
L 478.124242 376.961036 
L 478.621818 347.908665 
L 479.119394 344.982323 
L 479.61697 351.501575 
L 480.114545 353.397715 
L 480.612121 343.510929 
L 481.109697 343.285539 
L 481.607273 346.668412 
L 482.104848 354.617004 
L 482.602424 349.979448 
L 483.1 349.778543 
L 483.597576 353.463793 
L 484.095152 339.780721 
L 484.592727 337.736945 
L 485.090303 343.393176 
L 485.587879 362.934722 
L 486.085455 348.977891 
L 486.58303 343.161657 
L 487.080606 342.874402 
L 487.578182 343.003921 
L 488.075758 343.958386 
L 488.573333 346.01303 
L 489.070909 340.918562 
L 489.568485 339.039131 
L 490.066061 338.549613 
L 490.563636 336.903217 
L 491.061212 338.623281 
L 491.558788 346.825516 
L 492.056364 343.686474 
L 492.553939 339.122237 
L 493.051515 339.631098 
L 493.549091 339.881863 
L 494.046667 336.551612 
L 494.544242 336.076742 
L 495.041818 342.017987 
L 495.539394 349.840218 
L 496.03697 350.278384 
L 496.534545 350.149629 
L 497.032121 346.629532 
L 497.529697 346.28398 
L 498.027273 349.750351 
L 498.524848 348.130674 
L 499.022424 347.330028 
L 499.52 352.055769 
L 500.017576 354.224167 
L 500.515152 349.960366 
L 501.012727 344.330153 
L 501.510303 340.848799 
L 502.007879 342.837179 
L 502.505455 363.054561 
L 503.00303 344.635727 
L 503.500606 342.717431 
L 504.495758 358.944983 
L 504.993333 354.402294 
L 505.490909 347.543118 
L 505.988485 346.405008 
L 506.486061 349.270609 
L 506.983636 342.552375 
L 507.481212 337.848016 
L 507.978788 339.142104 
L 508.476364 342.515672 
L 508.973939 339.572138 
L 509.471515 340.72627 
L 509.969091 343.068029 
L 510.466667 338.583743 
L 510.964242 338.490326 
L 511.461818 342.266936 
L 511.959394 351.207349 
L 512.45697 357.470629 
L 512.954545 348.289784 
L 513.452121 352.299992 
L 513.949697 349.744577 
L 514.447273 345.905167 
L 514.944848 346.293122 
L 515.442424 348.843525 
L 515.94 352.69905 
L 516.437576 352.46033 
L 516.935152 346.030974 
L 517.432727 346.2213 
L 517.930303 356.131688 
L 518.427879 361.7404 
L 518.925455 355.326014 
L 519.42303 357.598244 
L 519.920606 343.866237 
L 520.418182 339.786473 
L 521.413333 338.026468 
L 521.910909 337.839802 
L 522.408485 338.183961 
L 522.906061 338.774357 
L 523.901212 344.718612 
L 524.398788 337.217839 
L 524.896364 333.922378 
L 525.393939 334.249523 
L 525.891515 336.540424 
L 526.389091 340.668772 
L 526.886667 343.184512 
L 527.384242 342.823119 
L 527.881818 345.046558 
L 528.379394 345.891998 
L 528.87697 342.797202 
L 529.374545 343.103678 
L 529.872121 348.995248 
L 530.369697 350.33612 
L 530.867273 350.08532 
L 531.364848 344.83114 
L 531.862424 338.157728 
L 532.36 334.742399 
L 532.857576 335.935074 
L 533.355152 343.42502 
L 533.852727 358.971165 
L 534.350303 360.571253 
L 534.847879 358.093593 
L 535.345455 342.891618 
L 535.84303 339.258883 
L 536.340606 344.167017 
L 536.838182 351.003432 
L 537.335758 341.17964 
L 537.833333 339.886159 
L 538.330909 339.199683 
L 538.828485 341.049535 
L 539.326061 355.501412 
L 539.823636 354.755614 
L 540.321212 350.177409 
L 540.818788 359.110414 
L 541.316364 357.15446 
L 541.813939 347.639154 
L 542.809091 340.295308 
L 543.306667 339.98711 
L 543.804242 336.421335 
L 544.301818 335.516375 
L 544.799394 339.033884 
L 545.29697 344.269413 
L 545.794545 354.786045 
L 546.292121 360.031485 
L 546.789697 350.095205 
L 547.287273 344.83038 
L 547.784848 343.686018 
L 548.282424 345.960722 
L 548.78 361.018325 
L 549.277576 350.093606 
L 549.775152 349.915937 
L 550.272727 371.480121 
L 550.770303 348.945916 
L 551.267879 347.063526 
L 551.765455 348.512802 
L 552.26303 350.87889 
L 552.760606 352.449597 
L 553.755758 343.729863 
L 554.750909 340.943115 
L 555.746061 342.0486 
L 556.243636 341.792364 
L 556.741212 345.905464 
L 557.238788 358.047947 
L 557.736364 346.425374 
L 558.233939 342.360004 
L 558.731515 343.955562 
L 559.229091 340.351088 
L 559.726667 340.3323 
L 560.224242 345.128656 
L 560.721818 346.555795 
L 561.219394 344.203671 
L 561.71697 343.61495 
L 562.712121 356.065834 
L 563.209697 346.140107 
L 563.707273 339.566698 
L 564.204848 340.662737 
L 564.702424 350.403134 
L 565.2 347.117426 
L 565.2 347.117426 
" clip-path="url(#p9cd68d4d9d)" style="fill: none; stroke: #1f77b4; stroke-width: 1.5; stroke-linecap: square"/>
   </g>
   <g id="line2d_43">
    <path d="M 417.917576 390.04 
L 417.917576 236.76 
" clip-path="url(#p9cd68d4d9d)" style="fill: none; stroke-dasharray: 3.7,1.6; stroke-dashoffset: 0; stroke: #d62728"/>
   </g>
   <g id="line2d_44">
    <path d="M 203.96 390.04 
L 203.96 236.76 
" clip-path="url(#p9cd68d4d9d)" style="fill: none; stroke-dasharray: 3.7,1.6; stroke-dashoffset: 0; stroke: #d62728"/>
   </g>
   <g id="line2d_45">
    <path d="M 407.966061 390.04 
L 407.966061 236.76 
" clip-path="url(#p9cd68d4d9d)" style="fill: none; stroke-dasharray: 3.7,1.6; stroke-dashoffset: 0; stroke: #d62728"/>
   </g>
   <g id="line2d_46">
    <path d="M 213.911515 390.04 
L 213.911515 236.76 
" clip-path="url(#p9cd68d4d9d)" style="fill: none; stroke-dasharray: 3.7,1.6; stroke-dashoffset: 0; stroke: #d62728"/>
   </g>
   <g id="patch_8">
    <path d="M 56.18 390.04 
L 56.18 236.76 
" style="fill: none; stroke: #000000; stroke-width: 0.8; stroke-linejoin: miter; stroke-linecap: square"/>
   </g>
   <g id="patch_9">
    <path d="M 565.2 390.04 
L 565.2 236.76 
" style="fill: none; stroke: #000000; stroke-width: 0.8; stroke-linejoin: miter; stroke-linecap: square"/>
   </g>
   <g id="patch_10">
    <path d="M 56.18 390.04 
L 565.2 390.04 
" style="fill: none; stroke: #000000; stroke-width: 0.8; stroke-linejoin: miter; stroke-linecap: square"/>
   </g>
   <g id="patch_11">
    <path d="M 56.18 236.76 
L 565.2 236.76 
" style="fill: none; stroke: #000000; stroke-width: 0.8; stroke-linejoin: miter; stroke-linecap: square"/>
   </g>
   <g id="text_26">
    <!-- 21 MHz -->
    <g style="fill: #d62728" transform="translate(423.012752 258.35031) scale(0.08 -0.08)">
     <use xlink:href="#DejaVuSans-32"/>
     <use xlink:href="#DejaVuSans-31" transform="translate(63.623047 0)"/>
     <use xlink:href="#DejaVuSans-20" transform="translate(127.246094 0)"/>
     <use xlink:href="#DejaVuSans-4d" transform="translate(159.033203 0)"/>
     <use xlink:href="#DejaVuSans-48" transform="translate(245.3125 0)"/>
     <use xlink:href="#DejaVuSans-7a" transform="translate(320.507812 0)"/>
    </g>
   </g>
   <g id="text_27">
    <!-- -21 MHz -->
    <g style="fill: #d62728" transform="translate(166.138574 258.35031) scale(0.08 -0.08)">
     <defs>
      <path id="DejaVuSans-2d" d="M 313 2009 
L 1997 2009 
L 1997 1497 
L 313 1497 
L 313 2009 
z
" transform="scale(0.015625)"/>
     </defs>
     <use xlink:href="#DejaVuSans-2d"/>
     <use xlink:href="#DejaVuSans-32" transform="translate(36.083984 0)"/>
     <use xlink:href="#DejaVuSans-31" transform="translate(99.707031 0)"/>
     <use xlink:href="#DejaVuSans-20" transform="translate(163.330078 0)"/>
     <use xlink:href="#DejaVuSans-4d" transform="translate(195.117188 0)"/>
     <use xlink:href="#DejaVuSans-48" transform="translate(281.396484 0)"/>
     <use xlink:href="#DejaVuSans-7a" transform="translate(356.591797 0)"/>
    </g>
   </g>
   <g id="text_28">
    <!-- 19 MHz -->
    <g style="fill: #d62728" transform="translate(373.030885 273.376299) scale(0.08 -0.08)">
     <use xlink:href="#DejaVuSans-31"/>
     <use xlink:href="#DejaVuSans-39" transform="translate(63.623047 0)"/>
     <use xlink:href="#DejaVuSans-20" transform="translate(127.246094 0)"/>
     <use xlink:href="#DejaVuSans-4d" transform="translate(159.033203 0)"/>
     <use xlink:href="#DejaVuSans-48" transform="translate(245.3125 0)"/>
     <use xlink:href="#DejaVuSans-7a" transform="translate(320.507812 0)"/>
    </g>
   </g>
   <g id="text_29">
    <!-- -19 MHz -->
    <g style="fill: #d62728" transform="translate(219.006691 273.376299) scale(0.08 -0.08)">
     <use xlink:href="#DejaVuSans-2d"/>
     <use xlink:href="#DejaVuSans-31" transform="translate(36.083984 0)"/>
     <use xlink:href="#DejaVuSans-39" transform="translate(99.707031 0)"/>
     <use xlink:href="#DejaVuSans-20" transform="translate(163.330078 0)"/>
     <use xlink:href="#DejaVuSans-4d" transform="translate(195.117188 0)"/>
     <use xlink:href="#DejaVuSans-48" transform="translate(281.396484 0)"/>
     <use xlink:href="#DejaVuSans-7a" transform="translate(356.591797 0)"/>
    </g>
   </g>
   <g id="text_30">
    <!-- Input Signal: 21 MHz + 19 MHz -->
    <g transform="translate(217.285937 230.76) scale(0.12 -0.12)">
     <use xlink:href="#DejaVuSans-49"/>
     <use xlink:href="#DejaVuSans-6e" transform="translate(29.492188 0)"/>
     <use xlink:href="#DejaVuSans-70" transform="translate(92.871094 0)"/>
     <use xlink:href="#DejaVuSans-75" transform="translate(156.347656 0)"/>
     <use xlink:href="#DejaVuSans-74" transform="translate(219.726562 0)"/>
     <use xlink:href="#DejaVuSans-20" transform="translate(258.935547 0)"/>
     <use xlink:href="#DejaVuSans-53" transform="translate(290.722656 0)"/>
     <use xlink:href="#DejaVuSans-69" transform="translate(354.199219 0)"/>
     <use xlink:href="#DejaVuSans-67" transform="translate(381.982422 0)"/>
     <use xlink:href="#DejaVuSans-6e" transform="translate(445.458984 0)"/>
     <use xlink:href="#DejaVuSans-61" transform="translate(508.837891 0)"/>
     <use xlink:href="#DejaVuSans-6c" transform="translate(570.117188 0)"/>
     <use xlink:href="#DejaVuSans-3a" transform="translate(597.900391 0)"/>
     <use xlink:href="#DejaVuSans-20" transform="translate(631.591797 0)"/>
     <use xlink:href="#DejaVuSans-32" transform="translate(663.378906 0)"/>
     <use xlink:href="#DejaVuSans-31" transform="translate(727.001953 0)"/>
     <use xlink:href="#DejaVuSans-20" transform="translate(790.625 0)"/>
     <use xlink:href="#DejaVuSans-4d" transform="translate(822.412109 0)"/>
     <use xlink:href="#DejaVuSans-48" transform="translate(908.691406 0)"/>
     <use xlink:href="#DejaVuSans-7a" transform="translate(983.886719 0)"/>
     <use xlink:href="#DejaVuSans-20" transform="translate(1036.376953 0)"/>
     <use xlink:href="#DejaVuSans-2b" transform="translate(1068.164062 0)"/>
     <use xlink:href="#DejaVuSans-20" transform="translate(1151.953125 0)"/>
     <use xlink:href="#DejaVuSans-31" transform="translate(1183.740234 0)"/>
     <use xlink:href="#DejaVuSans-39" transform="translate(1247.363281 0)"/>
     <use xlink:href="#DejaVuSans-20" transform="translate(1310.986328 0)"/>
     <use xlink:href="#DejaVuSans-4d" transform="translate(1342.773438 0)"/>
     <use xlink:href="#DejaVuSans-48" transform="translate(1429.052734 0)"/>
     <use xlink:href="#DejaVuSans-7a" transform="translate(1504.248047 0)"/>
    </g>
   </g>
  </g>
 </g>
 <defs>
  <clipPath id="pffecf69a92">
   <rect x="56.18" y="26.16" width="509.02" height="153.28"/>
  </clipPath>
  <clipPath id="p9cd68d4d9d">
   <rect x="56.18" y="236.76" width="509.02" height="153.28"/>
  </clipPath>
 </defs>
</svg>
