<?xml version="1.0" encoding="utf-8" standalone="no"?>
<!DOCTYPE svg PUBLIC "-//W3C//DTD SVG 1.1//EN"
  "http://www.w3.org/Graphics/SVG/1.1/DTD/svg11.dtd">
<svg xmlns:xlink="http://www.w3.org/1999/xlink" width="576pt" height="288pt" viewBox="0 0 576 288" xmlns="http://www.w3.org/2000/svg" version="1.1">
 <metadata>
  <rdf:RDF xmlns:dc="http://purl.org/dc/elements/1.1/" xmlns:cc="http://creativecommons.org/ns#" xmlns:rdf="http://www.w3.org/1999/02/22-rdf-syntax-ns#">
   <cc:Work>
    <dc:type rdf:resource="http://purl.org/dc/dcmitype/StillImage"/>
    <dc:date>2026-02-05T18:22:16.880449</dc:date>
    <dc:format>image/svg+xml</dc:format>
    <dc:creator>
     <cc:Agent>
      <dc:title>Matplotlib v3.10.8, https://matplotlib.org/</dc:title>
     </cc:Agent>
    </dc:creator>
   </cc:Work>
  </rdf:RDF>
 </metadata>
 <defs>
  <style type="text/css">*{stroke-linejoin: round; stroke-linecap: butt}</style>
 </defs>
 <g id="figure_1">
  <g id="patch_1">
   <path d="M 0 288 
L 576 288 
L 576 0 
L 0 0 
z
" style="fill: #ffffff"/>
  </g>
  <g id="axes_1">
   <g id="patch_2">
    <path d="M 53.03 246.04 
L 565.2 246.04 
L 565.2 26.16 
L 53.03 26.16 
z
" style="fill: #ffffff"/>
   </g>
   <g id="matplotlib.axis_1">
    <g id="xtick_1">
     <g id="line2d_1">
      <path d="M 104.272021 246.04 
L 104.272021 26.16 
" clip-path="url(#pc9dde1d5c1)" style="fill: none; stroke: #b0b0b0; stroke-width: 0.8; stroke-linecap: square"/>
     </g>
     <g id="line2d_2">
      <defs>
       <path id="m8a7736c6c5" d="M 0 0 
L 0 3.5 
" style="stroke: #000000; stroke-width: 0.8"/>
      </defs>
      <g>
       <use xlink:href="#m8a7736c6c5" x="104.272021" y="246.04" style="stroke: #000000; stroke-width: 0.8"/>
      </g>
     </g>
     <g id="text_1">
      <!-- −40 -->
      <g transform="translate(93.719677 260.638438) scale(0.1 -0.1)">
       <defs>
        <path id="DejaVuSans-2212" d="M 678 2272 
L 4684 2272 
L 4684 1741 
L 678 1741 
L 678 2272 
z
" transform="scale(0.015625)"/>
        <path id="DejaVuSans-34" d="M 2419 4116 
L 825 1625 
L 2419 1625 
L 2419 4116 
z
M 2253 4666 
L 3047 4666 
L 3047 1625 
L 3713 1625 
L 3713 1100 
L 3047 1100 
L 3047 0 
L 2419 0 
L 2419 1100 
L 313 1100 
L 313 1709 
L 2253 4666 
z
" transform="scale(0.015625)"/>
        <path id="DejaVuSans-30" d="M 2034 4250 
Q 1547 4250 1301 3770 
Q 1056 3291 1056 2328 
Q 1056 1369 1301 889 
Q 1547 409 2034 409 
Q 2525 409 2770 889 
Q 3016 1369 3016 2328 
Q 3016 3291 2770 3770 
Q 2525 4250 2034 4250 
z
M 2034 4750 
Q 2819 4750 3233 4129 
Q 3647 3509 3647 2328 
Q 3647 1150 3233 529 
Q 2819 -91 2034 -91 
Q 1250 -91 836 529 
Q 422 1150 422 2328 
Q 422 3509 836 4129 
Q 1250 4750 2034 4750 
z
" transform="scale(0.015625)"/>
       </defs>
       <use xlink:href="#DejaVuSans-2212"/>
       <use xlink:href="#DejaVuSans-34" transform="translate(83.789062 0)"/>
       <use xlink:href="#DejaVuSans-30" transform="translate(147.412109 0)"/>
      </g>
     </g>
    </g>
    <g id="xtick_2">
     <g id="line2d_3">
      <path d="M 206.756062 246.04 
L 206.756062 26.16 
" clip-path="url(#pc9dde1d5c1)" style="fill: none; stroke: #b0b0b0; stroke-width: 0.8; stroke-linecap: square"/>
     </g>
     <g id="line2d_4">
      <g>
       <use xlink:href="#m8a7736c6c5" x="206.756062" y="246.04" style="stroke: #000000; stroke-width: 0.8"/>
      </g>
     </g>
     <g id="text_2">
      <!-- −20 -->
      <g transform="translate(196.203718 260.638438) scale(0.1 -0.1)">
       <defs>
        <path id="DejaVuSans-32" d="M 1228 531 
L 3431 531 
L 3431 0 
L 469 0 
L 469 531 
Q 828 903 1448 1529 
Q 2069 2156 2228 2338 
Q 2531 2678 2651 2914 
Q 2772 3150 2772 3378 
Q 2772 3750 2511 3984 
Q 2250 4219 1831 4219 
Q 1534 4219 1204 4116 
Q 875 4013 500 3803 
L 500 4441 
Q 881 4594 1212 4672 
Q 1544 4750 1819 4750 
Q 2544 4750 2975 4387 
Q 3406 4025 3406 3419 
Q 3406 3131 3298 2873 
Q 3191 2616 2906 2266 
Q 2828 2175 2409 1742 
Q 1991 1309 1228 531 
z
" transform="scale(0.015625)"/>
       </defs>
       <use xlink:href="#DejaVuSans-2212"/>
       <use xlink:href="#DejaVuSans-32" transform="translate(83.789062 0)"/>
       <use xlink:href="#DejaVuSans-30" transform="translate(147.412109 0)"/>
      </g>
     </g>
    </g>
    <g id="xtick_3">
     <g id="line2d_5">
      <path d="M 309.240103 246.04 
L 309.240103 26.16 
" clip-path="url(#pc9dde1d5c1)" style="fill: none; stroke: #b0b0b0; stroke-width: 0.8; stroke-linecap: square"/>
     </g>
     <g id="line2d_6">
      <g>
       <use xlink:href="#m8a7736c6c5" x="309.240103" y="246.04" style="stroke: #000000; stroke-width: 0.8"/>
      </g>
     </g>
     <g id="text_3">
      <!-- 0 -->
      <g transform="translate(306.058853 260.638438) scale(0.1 -0.1)">
       <use xlink:href="#DejaVuSans-30"/>
      </g>
     </g>
    </g>
    <g id="xtick_4">
     <g id="line2d_7">
      <path d="M 411.724144 246.04 
L 411.724144 26.16 
" clip-path="url(#pc9dde1d5c1)" style="fill: none; stroke: #b0b0b0; stroke-width: 0.8; stroke-linecap: square"/>
     </g>
     <g id="line2d_8">
      <g>
       <use xlink:href="#m8a7736c6c5" x="411.724144" y="246.04" style="stroke: #000000; stroke-width: 0.8"/>
      </g>
     </g>
     <g id="text_4">
      <!-- 20 -->
      <g transform="translate(405.361644 260.638438) scale(0.1 -0.1)">
       <use xlink:href="#DejaVuSans-32"/>
       <use xlink:href="#DejaVuSans-30" transform="translate(63.623047 0)"/>
      </g>
     </g>
    </g>
    <g id="xtick_5">
     <g id="line2d_9">
      <path d="M 514.208185 246.04 
L 514.208185 26.16 
" clip-path="url(#pc9dde1d5c1)" style="fill: none; stroke: #b0b0b0; stroke-width: 0.8; stroke-linecap: square"/>
     </g>
     <g id="line2d_10">
      <g>
       <use xlink:href="#m8a7736c6c5" x="514.208185" y="246.04" style="stroke: #000000; stroke-width: 0.8"/>
      </g>
     </g>
     <g id="text_5">
      <!-- 40 -->
      <g transform="translate(507.845685 260.638438) scale(0.1 -0.1)">
       <use xlink:href="#DejaVuSans-34"/>
       <use xlink:href="#DejaVuSans-30" transform="translate(63.623047 0)"/>
      </g>
     </g>
    </g>
    <g id="text_6">
     <!-- Frequency (MHz) -->
     <g transform="translate(267.09625 274.316562) scale(0.1 -0.1)">
      <defs>
       <path id="DejaVuSans-46" d="M 628 4666 
L 3309 4666 
L 3309 4134 
L 1259 4134 
L 1259 2759 
L 3109 2759 
L 3109 2228 
L 1259 2228 
L 1259 0 
L 628 0 
L 628 4666 
z
" transform="scale(0.015625)"/>
       <path id="DejaVuSans-72" d="M 2631 2963 
Q 2534 3019 2420 3045 
Q 2306 3072 2169 3072 
Q 1681 3072 1420 2755 
Q 1159 2438 1159 1844 
L 1159 0 
L 581 0 
L 581 3500 
L 1159 3500 
L 1159 2956 
Q 1341 3275 1631 3429 
Q 1922 3584 2338 3584 
Q 2397 3584 2469 3576 
Q 2541 3569 2628 3553 
L 2631 2963 
z
" transform="scale(0.015625)"/>
       <path id="DejaVuSans-65" d="M 3597 1894 
L 3597 1613 
L 953 1613 
Q 991 1019 1311 708 
Q 1631 397 2203 397 
Q 2534 397 2845 478 
Q 3156 559 3463 722 
L 3463 178 
Q 3153 47 2828 -22 
Q 2503 -91 2169 -91 
Q 1331 -91 842 396 
Q 353 884 353 1716 
Q 353 2575 817 3079 
Q 1281 3584 2069 3584 
Q 2775 3584 3186 3129 
Q 3597 2675 3597 1894 
z
M 3022 2063 
Q 3016 2534 2758 2815 
Q 2500 3097 2075 3097 
Q 1594 3097 1305 2825 
Q 1016 2553 972 2059 
L 3022 2063 
z
" transform="scale(0.015625)"/>
       <path id="DejaVuSans-71" d="M 947 1747 
Q 947 1113 1208 752 
Q 1469 391 1925 391 
Q 2381 391 2643 752 
Q 2906 1113 2906 1747 
Q 2906 2381 2643 2742 
Q 2381 3103 1925 3103 
Q 1469 3103 1208 2742 
Q 947 2381 947 1747 
z
M 2906 525 
Q 2725 213 2448 61 
Q 2172 -91 1784 -91 
Q 1150 -91 751 415 
Q 353 922 353 1747 
Q 353 2572 751 3078 
Q 1150 3584 1784 3584 
Q 2172 3584 2448 3432 
Q 2725 3281 2906 2969 
L 2906 3500 
L 3481 3500 
L 3481 -1331 
L 2906 -1331 
L 2906 525 
z
" transform="scale(0.015625)"/>
       <path id="DejaVuSans-75" d="M 544 1381 
L 544 3500 
L 1119 3500 
L 1119 1403 
Q 1119 906 1312 657 
Q 1506 409 1894 409 
Q 2359 409 2629 706 
Q 2900 1003 2900 1516 
L 2900 3500 
L 3475 3500 
L 3475 0 
L 2900 0 
L 2900 538 
Q 2691 219 2414 64 
Q 2138 -91 1772 -91 
Q 1169 -91 856 284 
Q 544 659 544 1381 
z
M 1991 3584 
L 1991 3584 
z
" transform="scale(0.015625)"/>
       <path id="DejaVuSans-6e" d="M 3513 2113 
L 3513 0 
L 2938 0 
L 2938 2094 
Q 2938 2591 2744 2837 
Q 2550 3084 2163 3084 
Q 1697 3084 1428 2787 
Q 1159 2491 1159 1978 
L 1159 0 
L 581 0 
L 581 3500 
L 1159 3500 
L 1159 2956 
Q 1366 3272 1645 3428 
Q 1925 3584 2291 3584 
Q 2894 3584 3203 3211 
Q 3513 2838 3513 2113 
z
" transform="scale(0.015625)"/>
       <path id="DejaVuSans-63" d="M 3122 3366 
L 3122 2828 
Q 2878 2963 2633 3030 
Q 2388 3097 2138 3097 
Q 1578 3097 1268 2742 
Q 959 2388 959 1747 
Q 959 1106 1268 751 
Q 1578 397 2138 397 
Q 2388 397 2633 464 
Q 2878 531 3122 666 
L 3122 134 
Q 2881 22 2623 -34 
Q 2366 -91 2075 -91 
Q 1284 -91 818 406 
Q 353 903 353 1747 
Q 353 2603 823 3093 
Q 1294 3584 2113 3584 
Q 2378 3584 2631 3529 
Q 2884 3475 3122 3366 
z
" transform="scale(0.015625)"/>
       <path id="DejaVuSans-79" d="M 2059 -325 
Q 1816 -950 1584 -1140 
Q 1353 -1331 966 -1331 
L 506 -1331 
L 506 -850 
L 844 -850 
Q 1081 -850 1212 -737 
Q 1344 -625 1503 -206 
L 1606 56 
L 191 3500 
L 800 3500 
L 1894 763 
L 2988 3500 
L 3597 3500 
L 2059 -325 
z
" transform="scale(0.015625)"/>
       <path id="DejaVuSans-20" transform="scale(0.015625)"/>
       <path id="DejaVuSans-28" d="M 1984 4856 
Q 1566 4138 1362 3434 
Q 1159 2731 1159 2009 
Q 1159 1288 1364 580 
Q 1569 -128 1984 -844 
L 1484 -844 
Q 1016 -109 783 600 
Q 550 1309 550 2009 
Q 550 2706 781 3412 
Q 1013 4119 1484 4856 
L 1984 4856 
z
" transform="scale(0.015625)"/>
       <path id="DejaVuSans-4d" d="M 628 4666 
L 1569 4666 
L 2759 1491 
L 3956 4666 
L 4897 4666 
L 4897 0 
L 4281 0 
L 4281 4097 
L 3078 897 
L 2444 897 
L 1241 4097 
L 1241 0 
L 628 0 
L 628 4666 
z
" transform="scale(0.015625)"/>
       <path id="DejaVuSans-48" d="M 628 4666 
L 1259 4666 
L 1259 2753 
L 3553 2753 
L 3553 4666 
L 4184 4666 
L 4184 0 
L 3553 0 
L 3553 2222 
L 1259 2222 
L 1259 0 
L 628 0 
L 628 4666 
z
" transform="scale(0.015625)"/>
       <path id="DejaVuSans-7a" d="M 353 3500 
L 3084 3500 
L 3084 2975 
L 922 459 
L 3084 459 
L 3084 0 
L 275 0 
L 275 525 
L 2438 3041 
L 353 3041 
L 353 3500 
z
" transform="scale(0.015625)"/>
       <path id="DejaVuSans-29" d="M 513 4856 
L 1013 4856 
Q 1481 4119 1714 3412 
Q 1947 2706 1947 2009 
Q 1947 1309 1714 600 
Q 1481 -109 1013 -844 
L 513 -844 
Q 928 -128 1133 580 
Q 1338 1288 1338 2009 
Q 1338 2731 1133 3434 
Q 928 4138 513 4856 
z
" transform="scale(0.015625)"/>
      </defs>
      <use xlink:href="#DejaVuSans-46"/>
      <use xlink:href="#DejaVuSans-72" transform="translate(50.269531 0)"/>
      <use xlink:href="#DejaVuSans-65" transform="translate(89.132812 0)"/>
      <use xlink:href="#DejaVuSans-71" transform="translate(150.65625 0)"/>
      <use xlink:href="#DejaVuSans-75" transform="translate(214.132812 0)"/>
      <use xlink:href="#DejaVuSans-65" transform="translate(277.511719 0)"/>
      <use xlink:href="#DejaVuSans-6e" transform="translate(339.035156 0)"/>
      <use xlink:href="#DejaVuSans-63" transform="translate(402.414062 0)"/>
      <use xlink:href="#DejaVuSans-79" transform="translate(457.394531 0)"/>
      <use xlink:href="#DejaVuSans-20" transform="translate(516.574219 0)"/>
      <use xlink:href="#DejaVuSans-28" transform="translate(548.361328 0)"/>
      <use xlink:href="#DejaVuSans-4d" transform="translate(587.375 0)"/>
      <use xlink:href="#DejaVuSans-48" transform="translate(673.654297 0)"/>
      <use xlink:href="#DejaVuSans-7a" transform="translate(748.849609 0)"/>
      <use xlink:href="#DejaVuSans-29" transform="translate(801.339844 0)"/>
     </g>
    </g>
   </g>
   <g id="matplotlib.axis_2">
    <g id="ytick_1">
     <g id="line2d_11">
      <path d="M 53.03 246.04 
L 565.2 246.04 
" clip-path="url(#pc9dde1d5c1)" style="fill: none; stroke: #b0b0b0; stroke-width: 0.8; stroke-linecap: square"/>
     </g>
     <g id="line2d_12">
      <defs>
       <path id="m764b52ba27" d="M 0 0 
L -3.5 0 
" style="stroke: #000000; stroke-width: 0.8"/>
      </defs>
      <g>
       <use xlink:href="#m764b52ba27" x="53.03" y="246.04" style="stroke: #000000; stroke-width: 0.8"/>
      </g>
     </g>
     <g id="text_7">
      <!-- −80 -->
      <g transform="translate(24.925313 249.839219) scale(0.1 -0.1)">
       <defs>
        <path id="DejaVuSans-38" d="M 2034 2216 
Q 1584 2216 1326 1975 
Q 1069 1734 1069 1313 
Q 1069 891 1326 650 
Q 1584 409 2034 409 
Q 2484 409 2743 651 
Q 3003 894 3003 1313 
Q 3003 1734 2745 1975 
Q 2488 2216 2034 2216 
z
M 1403 2484 
Q 997 2584 770 2862 
Q 544 3141 544 3541 
Q 544 4100 942 4425 
Q 1341 4750 2034 4750 
Q 2731 4750 3128 4425 
Q 3525 4100 3525 3541 
Q 3525 3141 3298 2862 
Q 3072 2584 2669 2484 
Q 3125 2378 3379 2068 
Q 3634 1759 3634 1313 
Q 3634 634 3220 271 
Q 2806 -91 2034 -91 
Q 1263 -91 848 271 
Q 434 634 434 1313 
Q 434 1759 690 2068 
Q 947 2378 1403 2484 
z
M 1172 3481 
Q 1172 3119 1398 2916 
Q 1625 2713 2034 2713 
Q 2441 2713 2670 2916 
Q 2900 3119 2900 3481 
Q 2900 3844 2670 4047 
Q 2441 4250 2034 4250 
Q 1625 4250 1398 4047 
Q 1172 3844 1172 3481 
z
" transform="scale(0.015625)"/>
       </defs>
       <use xlink:href="#DejaVuSans-2212"/>
       <use xlink:href="#DejaVuSans-38" transform="translate(83.789062 0)"/>
       <use xlink:href="#DejaVuSans-30" transform="translate(147.412109 0)"/>
      </g>
     </g>
    </g>
    <g id="ytick_2">
     <g id="line2d_13">
      <path d="M 53.03 219.974677 
L 565.2 219.974677 
" clip-path="url(#pc9dde1d5c1)" style="fill: none; stroke: #b0b0b0; stroke-width: 0.8; stroke-linecap: square"/>
     </g>
     <g id="line2d_14">
      <g>
       <use xlink:href="#m764b52ba27" x="53.03" y="219.974677" style="stroke: #000000; stroke-width: 0.8"/>
      </g>
     </g>
     <g id="text_8">
      <!-- −70 -->
      <g transform="translate(24.925313 223.773896) scale(0.1 -0.1)">
       <defs>
        <path id="DejaVuSans-37" d="M 525 4666 
L 3525 4666 
L 3525 4397 
L 1831 0 
L 1172 0 
L 2766 4134 
L 525 4134 
L 525 4666 
z
" transform="scale(0.015625)"/>
       </defs>
       <use xlink:href="#DejaVuSans-2212"/>
       <use xlink:href="#DejaVuSans-37" transform="translate(83.789062 0)"/>
       <use xlink:href="#DejaVuSans-30" transform="translate(147.412109 0)"/>
      </g>
     </g>
    </g>
    <g id="ytick_3">
     <g id="line2d_15">
      <path d="M 53.03 193.909354 
L 565.2 193.909354 
" clip-path="url(#pc9dde1d5c1)" style="fill: none; stroke: #b0b0b0; stroke-width: 0.8; stroke-linecap: square"/>
     </g>
     <g id="line2d_16">
      <g>
       <use xlink:href="#m764b52ba27" x="53.03" y="193.909354" style="stroke: #000000; stroke-width: 0.8"/>
      </g>
     </g>
     <g id="text_9">
      <!-- −60 -->
      <g transform="translate(24.925313 197.708573) scale(0.1 -0.1)">
       <defs>
        <path id="DejaVuSans-36" d="M 2113 2584 
Q 1688 2584 1439 2293 
Q 1191 2003 1191 1497 
Q 1191 994 1439 701 
Q 1688 409 2113 409 
Q 2538 409 2786 701 
Q 3034 994 3034 1497 
Q 3034 2003 2786 2293 
Q 2538 2584 2113 2584 
z
M 3366 4563 
L 3366 3988 
Q 3128 4100 2886 4159 
Q 2644 4219 2406 4219 
Q 1781 4219 1451 3797 
Q 1122 3375 1075 2522 
Q 1259 2794 1537 2939 
Q 1816 3084 2150 3084 
Q 2853 3084 3261 2657 
Q 3669 2231 3669 1497 
Q 3669 778 3244 343 
Q 2819 -91 2113 -91 
Q 1303 -91 875 529 
Q 447 1150 447 2328 
Q 447 3434 972 4092 
Q 1497 4750 2381 4750 
Q 2619 4750 2861 4703 
Q 3103 4656 3366 4563 
z
" transform="scale(0.015625)"/>
       </defs>
       <use xlink:href="#DejaVuSans-2212"/>
       <use xlink:href="#DejaVuSans-36" transform="translate(83.789062 0)"/>
       <use xlink:href="#DejaVuSans-30" transform="translate(147.412109 0)"/>
      </g>
     </g>
    </g>
    <g id="ytick_4">
     <g id="line2d_17">
      <path d="M 53.03 167.844031 
L 565.2 167.844031 
" clip-path="url(#pc9dde1d5c1)" style="fill: none; stroke: #b0b0b0; stroke-width: 0.8; stroke-linecap: square"/>
     </g>
     <g id="line2d_18">
      <g>
       <use xlink:href="#m764b52ba27" x="53.03" y="167.844031" style="stroke: #000000; stroke-width: 0.8"/>
      </g>
     </g>
     <g id="text_10">
      <!-- −50 -->
      <g transform="translate(24.925313 171.643249) scale(0.1 -0.1)">
       <defs>
        <path id="DejaVuSans-35" d="M 691 4666 
L 3169 4666 
L 3169 4134 
L 1269 4134 
L 1269 2991 
Q 1406 3038 1543 3061 
Q 1681 3084 1819 3084 
Q 2600 3084 3056 2656 
Q 3513 2228 3513 1497 
Q 3513 744 3044 326 
Q 2575 -91 1722 -91 
Q 1428 -91 1123 -41 
Q 819 9 494 109 
L 494 744 
Q 775 591 1075 516 
Q 1375 441 1709 441 
Q 2250 441 2565 725 
Q 2881 1009 2881 1497 
Q 2881 1984 2565 2268 
Q 2250 2553 1709 2553 
Q 1456 2553 1204 2497 
Q 953 2441 691 2322 
L 691 4666 
z
" transform="scale(0.015625)"/>
       </defs>
       <use xlink:href="#DejaVuSans-2212"/>
       <use xlink:href="#DejaVuSans-35" transform="translate(83.789062 0)"/>
       <use xlink:href="#DejaVuSans-30" transform="translate(147.412109 0)"/>
      </g>
     </g>
    </g>
    <g id="ytick_5">
     <g id="line2d_19">
      <path d="M 53.03 141.778708 
L 565.2 141.778708 
" clip-path="url(#pc9dde1d5c1)" style="fill: none; stroke: #b0b0b0; stroke-width: 0.8; stroke-linecap: square"/>
     </g>
     <g id="line2d_20">
      <g>
       <use xlink:href="#m764b52ba27" x="53.03" y="141.778708" style="stroke: #000000; stroke-width: 0.8"/>
      </g>
     </g>
     <g id="text_11">
      <!-- −40 -->
      <g transform="translate(24.925313 145.577926) scale(0.1 -0.1)">
       <use xlink:href="#DejaVuSans-2212"/>
       <use xlink:href="#DejaVuSans-34" transform="translate(83.789062 0)"/>
       <use xlink:href="#DejaVuSans-30" transform="translate(147.412109 0)"/>
      </g>
     </g>
    </g>
    <g id="ytick_6">
     <g id="line2d_21">
      <path d="M 53.03 115.713384 
L 565.2 115.713384 
" clip-path="url(#pc9dde1d5c1)" style="fill: none; stroke: #b0b0b0; stroke-width: 0.8; stroke-linecap: square"/>
     </g>
     <g id="line2d_22">
      <g>
       <use xlink:href="#m764b52ba27" x="53.03" y="115.713384" style="stroke: #000000; stroke-width: 0.8"/>
      </g>
     </g>
     <g id="text_12">
      <!-- −30 -->
      <g transform="translate(24.925313 119.512603) scale(0.1 -0.1)">
       <defs>
        <path id="DejaVuSans-33" d="M 2597 2516 
Q 3050 2419 3304 2112 
Q 3559 1806 3559 1356 
Q 3559 666 3084 287 
Q 2609 -91 1734 -91 
Q 1441 -91 1130 -33 
Q 819 25 488 141 
L 488 750 
Q 750 597 1062 519 
Q 1375 441 1716 441 
Q 2309 441 2620 675 
Q 2931 909 2931 1356 
Q 2931 1769 2642 2001 
Q 2353 2234 1838 2234 
L 1294 2234 
L 1294 2753 
L 1863 2753 
Q 2328 2753 2575 2939 
Q 2822 3125 2822 3475 
Q 2822 3834 2567 4026 
Q 2313 4219 1838 4219 
Q 1578 4219 1281 4162 
Q 984 4106 628 3988 
L 628 4550 
Q 988 4650 1302 4700 
Q 1616 4750 1894 4750 
Q 2613 4750 3031 4423 
Q 3450 4097 3450 3541 
Q 3450 3153 3228 2886 
Q 3006 2619 2597 2516 
z
" transform="scale(0.015625)"/>
       </defs>
       <use xlink:href="#DejaVuSans-2212"/>
       <use xlink:href="#DejaVuSans-33" transform="translate(83.789062 0)"/>
       <use xlink:href="#DejaVuSans-30" transform="translate(147.412109 0)"/>
      </g>
     </g>
    </g>
    <g id="ytick_7">
     <g id="line2d_23">
      <path d="M 53.03 89.648061 
L 565.2 89.648061 
" clip-path="url(#pc9dde1d5c1)" style="fill: none; stroke: #b0b0b0; stroke-width: 0.8; stroke-linecap: square"/>
     </g>
     <g id="line2d_24">
      <g>
       <use xlink:href="#m764b52ba27" x="53.03" y="89.648061" style="stroke: #000000; stroke-width: 0.8"/>
      </g>
     </g>
     <g id="text_13">
      <!-- −20 -->
      <g transform="translate(24.925313 93.44728) scale(0.1 -0.1)">
       <use xlink:href="#DejaVuSans-2212"/>
       <use xlink:href="#DejaVuSans-32" transform="translate(83.789062 0)"/>
       <use xlink:href="#DejaVuSans-30" transform="translate(147.412109 0)"/>
      </g>
     </g>
    </g>
    <g id="ytick_8">
     <g id="line2d_25">
      <path d="M 53.03 63.582738 
L 565.2 63.582738 
" clip-path="url(#pc9dde1d5c1)" style="fill: none; stroke: #b0b0b0; stroke-width: 0.8; stroke-linecap: square"/>
     </g>
     <g id="line2d_26">
      <g>
       <use xlink:href="#m764b52ba27" x="53.03" y="63.582738" style="stroke: #000000; stroke-width: 0.8"/>
      </g>
     </g>
     <g id="text_14">
      <!-- −10 -->
      <g transform="translate(24.925313 67.381957) scale(0.1 -0.1)">
       <defs>
        <path id="DejaVuSans-31" d="M 794 531 
L 1825 531 
L 1825 4091 
L 703 3866 
L 703 4441 
L 1819 4666 
L 2450 4666 
L 2450 531 
L 3481 531 
L 3481 0 
L 794 0 
L 794 531 
z
" transform="scale(0.015625)"/>
       </defs>
       <use xlink:href="#DejaVuSans-2212"/>
       <use xlink:href="#DejaVuSans-31" transform="translate(83.789062 0)"/>
       <use xlink:href="#DejaVuSans-30" transform="translate(147.412109 0)"/>
      </g>
     </g>
    </g>
    <g id="ytick_9">
     <g id="line2d_27">
      <path d="M 53.03 37.517415 
L 565.2 37.517415 
" clip-path="url(#pc9dde1d5c1)" style="fill: none; stroke: #b0b0b0; stroke-width: 0.8; stroke-linecap: square"/>
     </g>
     <g id="line2d_28">
      <g>
       <use xlink:href="#m764b52ba27" x="53.03" y="37.517415" style="stroke: #000000; stroke-width: 0.8"/>
      </g>
     </g>
     <g id="text_15">
      <!-- 0 -->
      <g transform="translate(39.6675 41.316634) scale(0.1 -0.1)">
       <use xlink:href="#DejaVuSans-30"/>
      </g>
     </g>
    </g>
    <g id="text_16">
     <!-- Magnitude (dB) -->
     <g transform="translate(18.845625 174.685156) rotate(-90) scale(0.1 -0.1)">
      <defs>
       <path id="DejaVuSans-61" d="M 2194 1759 
Q 1497 1759 1228 1600 
Q 959 1441 959 1056 
Q 959 750 1161 570 
Q 1363 391 1709 391 
Q 2188 391 2477 730 
Q 2766 1069 2766 1631 
L 2766 1759 
L 2194 1759 
z
M 3341 1997 
L 3341 0 
L 2766 0 
L 2766 531 
Q 2569 213 2275 61 
Q 1981 -91 1556 -91 
Q 1019 -91 701 211 
Q 384 513 384 1019 
Q 384 1609 779 1909 
Q 1175 2209 1959 2209 
L 2766 2209 
L 2766 2266 
Q 2766 2663 2505 2880 
Q 2244 3097 1772 3097 
Q 1472 3097 1187 3025 
Q 903 2953 641 2809 
L 641 3341 
Q 956 3463 1253 3523 
Q 1550 3584 1831 3584 
Q 2591 3584 2966 3190 
Q 3341 2797 3341 1997 
z
" transform="scale(0.015625)"/>
       <path id="DejaVuSans-67" d="M 2906 1791 
Q 2906 2416 2648 2759 
Q 2391 3103 1925 3103 
Q 1463 3103 1205 2759 
Q 947 2416 947 1791 
Q 947 1169 1205 825 
Q 1463 481 1925 481 
Q 2391 481 2648 825 
Q 2906 1169 2906 1791 
z
M 3481 434 
Q 3481 -459 3084 -895 
Q 2688 -1331 1869 -1331 
Q 1566 -1331 1297 -1286 
Q 1028 -1241 775 -1147 
L 775 -588 
Q 1028 -725 1275 -790 
Q 1522 -856 1778 -856 
Q 2344 -856 2625 -561 
Q 2906 -266 2906 331 
L 2906 616 
Q 2728 306 2450 153 
Q 2172 0 1784 0 
Q 1141 0 747 490 
Q 353 981 353 1791 
Q 353 2603 747 3093 
Q 1141 3584 1784 3584 
Q 2172 3584 2450 3431 
Q 2728 3278 2906 2969 
L 2906 3500 
L 3481 3500 
L 3481 434 
z
" transform="scale(0.015625)"/>
       <path id="DejaVuSans-69" d="M 603 3500 
L 1178 3500 
L 1178 0 
L 603 0 
L 603 3500 
z
M 603 4863 
L 1178 4863 
L 1178 4134 
L 603 4134 
L 603 4863 
z
" transform="scale(0.015625)"/>
       <path id="DejaVuSans-74" d="M 1172 4494 
L 1172 3500 
L 2356 3500 
L 2356 3053 
L 1172 3053 
L 1172 1153 
Q 1172 725 1289 603 
Q 1406 481 1766 481 
L 2356 481 
L 2356 0 
L 1766 0 
Q 1100 0 847 248 
Q 594 497 594 1153 
L 594 3053 
L 172 3053 
L 172 3500 
L 594 3500 
L 594 4494 
L 1172 4494 
z
" transform="scale(0.015625)"/>
       <path id="DejaVuSans-64" d="M 2906 2969 
L 2906 4863 
L 3481 4863 
L 3481 0 
L 2906 0 
L 2906 525 
Q 2725 213 2448 61 
Q 2172 -91 1784 -91 
Q 1150 -91 751 415 
Q 353 922 353 1747 
Q 353 2572 751 3078 
Q 1150 3584 1784 3584 
Q 2172 3584 2448 3432 
Q 2725 3281 2906 2969 
z
M 947 1747 
Q 947 1113 1208 752 
Q 1469 391 1925 391 
Q 2381 391 2643 752 
Q 2906 1113 2906 1747 
Q 2906 2381 2643 2742 
Q 2381 3103 1925 3103 
Q 1469 3103 1208 2742 
Q 947 2381 947 1747 
z
" transform="scale(0.015625)"/>
       <path id="DejaVuSans-42" d="M 1259 2228 
L 1259 519 
L 2272 519 
Q 2781 519 3026 730 
Q 3272 941 3272 1375 
Q 3272 1813 3026 2020 
Q 2781 2228 2272 2228 
L 1259 2228 
z
M 1259 4147 
L 1259 2741 
L 2194 2741 
Q 2656 2741 2882 2914 
Q 3109 3088 3109 3444 
Q 3109 3797 2882 3972 
Q 2656 4147 2194 4147 
L 1259 4147 
z
M 628 4666 
L 2241 4666 
Q 2963 4666 3353 4366 
Q 3744 4066 3744 3513 
Q 3744 3084 3544 2831 
Q 3344 2578 2956 2516 
Q 3422 2416 3680 2098 
Q 3938 1781 3938 1306 
Q 3938 681 3513 340 
Q 3088 0 2303 0 
L 628 0 
L 628 4666 
z
" transform="scale(0.015625)"/>
      </defs>
      <use xlink:href="#DejaVuSans-4d"/>
      <use xlink:href="#DejaVuSans-61" transform="translate(86.279297 0)"/>
      <use xlink:href="#DejaVuSans-67" transform="translate(147.558594 0)"/>
      <use xlink:href="#DejaVuSans-6e" transform="translate(211.035156 0)"/>
      <use xlink:href="#DejaVuSans-69" transform="translate(274.414062 0)"/>
      <use xlink:href="#DejaVuSans-74" transform="translate(302.197266 0)"/>
      <use xlink:href="#DejaVuSans-75" transform="translate(341.40625 0)"/>
      <use xlink:href="#DejaVuSans-64" transform="translate(404.785156 0)"/>
      <use xlink:href="#DejaVuSans-65" transform="translate(468.261719 0)"/>
      <use xlink:href="#DejaVuSans-20" transform="translate(529.785156 0)"/>
      <use xlink:href="#DejaVuSans-28" transform="translate(561.572266 0)"/>
      <use xlink:href="#DejaVuSans-64" transform="translate(600.585938 0)"/>
      <use xlink:href="#DejaVuSans-42" transform="translate(664.0625 0)"/>
      <use xlink:href="#DejaVuSans-29" transform="translate(732.666016 0)"/>
     </g>
    </g>
   </g>
   <g id="line2d_29">
    <path d="M 53.03 192.025237 
L 53.280205 158.454842 
L 53.53041 160.276439 
L 53.780616 160.470653 
L 54.030821 148.551493 
L 54.281026 148.71066 
L 54.531231 148.722981 
L 55.031641 139.400579 
L 55.281847 133.773391 
L 55.532052 135.861604 
L 55.782257 142.181131 
L 56.032462 143.570067 
L 56.282667 147.726411 
L 56.532872 165.856852 
L 56.783078 149.475165 
L 57.033283 151.306846 
L 57.283488 172.215741 
L 57.533693 153.80105 
L 57.783898 153.037397 
L 58.034104 146.312092 
L 58.284309 143.116486 
L 58.784719 147.394067 
L 59.034924 153.280781 
L 59.285129 164.213615 
L 59.535335 150.082532 
L 59.78554 146.150614 
L 60.035745 145.739666 
L 60.28595 143.105199 
L 60.536155 147.4866 
L 60.786361 161.714746 
L 61.036566 148.436373 
L 61.286771 150.157818 
L 61.536976 177.905793 
L 61.787181 151.188177 
L 62.037386 143.29503 
L 62.287592 145.377769 
L 62.788002 159.326796 
L 63.288412 151.158223 
L 63.538617 155.027333 
L 64.039028 184.680721 
L 64.289233 158.814982 
L 64.539438 146.97064 
L 64.789643 141.89546 
L 65.039849 142.093353 
L 65.540259 155.076853 
L 65.790464 171.970706 
L 66.040669 166.934732 
L 66.290874 156.62909 
L 66.54108 158.476506 
L 66.791285 151.179314 
L 67.291695 157.358748 
L 67.5419 151.856 
L 68.042311 149.304885 
L 68.792926 138.022696 
L 69.043131 141.608865 
L 69.293337 155.013955 
L 69.543542 153.364616 
L 69.793747 146.472393 
L 70.043952 151.33678 
L 70.794568 172.892926 
L 71.294978 150.623012 
L 71.545183 151.236093 
L 71.795388 161.421489 
L 72.045594 179.371526 
L 72.546004 164.294703 
L 72.796209 163.940621 
L 73.046414 173.013417 
L 73.546825 143.584624 
L 73.79703 141.566511 
L 74.047235 147.497146 
L 74.29744 149.512369 
L 74.547645 148.70343 
L 74.797851 157.868484 
L 75.048056 172.258836 
L 75.298261 177.152843 
L 75.548466 176.662479 
L 76.048876 141.175418 
L 76.299082 139.767023 
L 77.049697 157.471386 
L 77.299902 155.85795 
L 77.550107 159.079968 
L 77.800313 165.218241 
L 78.300723 145.305681 
L 78.550928 139.306842 
L 78.801133 137.986591 
L 79.051339 142.271021 
L 79.551749 157.199603 
L 79.801954 157.521686 
L 80.052159 151.465283 
L 80.302364 158.351375 
L 80.55257 172.007974 
L 80.802775 171.472749 
L 81.303185 146.105815 
L 81.55339 145.359653 
L 81.803596 154.397334 
L 82.053801 187.849888 
L 82.304006 167.356741 
L 82.554211 157.806951 
L 82.804416 155.553898 
L 83.304827 139.588348 
L 83.555032 138.428399 
L 83.805237 147.517738 
L 84.055442 177.042362 
L 84.305647 179.643803 
L 84.555852 205.908818 
L 84.806058 208.104849 
L 85.056263 205.148861 
L 85.306468 165.076809 
L 85.556673 143.475556 
L 85.806878 134.767254 
L 86.057084 140.322323 
L 86.307289 169.560863 
L 86.557494 150.548658 
L 87.057904 140.172581 
L 87.308109 138.978753 
L 87.558315 153.787101 
L 87.80852 156.943418 
L 88.058725 145.854767 
L 88.30893 148.734578 
L 88.559135 143.480563 
L 88.80934 141.964325 
L 89.559956 164.028274 
L 89.810161 161.737924 
L 90.060366 169.152256 
L 90.310572 205.646497 
L 91.061187 159.34338 
L 91.311392 152.23237 
L 91.561597 148.806472 
L 91.811803 153.566165 
L 92.062008 161.816407 
L 92.312213 163.237892 
L 92.562418 163.612953 
L 93.062829 156.147754 
L 93.563239 138.438408 
L 93.813444 136.621657 
L 94.063649 143.398574 
L 94.313854 158.337211 
L 94.56406 162.147512 
L 94.814265 174.936565 
L 95.06447 167.925167 
L 95.314675 156.839825 
L 95.56488 153.652006 
L 95.815085 157.292583 
L 96.315496 139.973483 
L 96.565701 159.662991 
L 96.815906 152.645934 
L 97.066111 141.135147 
L 97.566522 152.395763 
L 97.816727 162.560936 
L 98.066932 207.137362 
L 98.317137 181.423998 
L 98.567342 197.76583 
L 98.817548 162.765616 
L 99.067753 157.270148 
L 99.317958 165.720209 
L 99.568163 168.333775 
L 99.818368 165.172373 
L 100.068574 168.750656 
L 100.568984 149.882552 
L 100.819189 151.279834 
L 101.069394 157.145257 
L 101.319599 170.931873 
L 101.569805 168.219823 
L 101.82001 180.785644 
L 102.070215 162.366421 
L 102.32042 166.281002 
L 102.570625 151.817274 
L 102.82083 146.09854 
L 103.071036 147.144924 
L 103.321241 146.275092 
L 103.571446 150.272618 
L 103.821651 158.940148 
L 104.322062 155.756508 
L 104.572267 157.621708 
L 104.822472 161.215423 
L 105.072677 156.455175 
L 105.322882 147.656929 
L 105.573087 147.816791 
L 106.073498 145.526965 
L 106.323703 146.273583 
L 106.824113 156.569896 
L 107.074319 151.669816 
L 107.324524 154.418213 
L 107.574729 166.577343 
L 107.824934 148.445153 
L 108.075139 141.806951 
L 108.325344 143.729835 
L 108.57555 147.02454 
L 108.825755 146.66943 
L 109.07596 146.522512 
L 109.326165 167.045882 
L 109.826575 137.778486 
L 110.076781 137.7781 
L 110.326986 149.222453 
L 110.577191 154.204296 
L 110.827396 151.308979 
L 111.077601 152.373267 
L 111.327807 147.569998 
L 111.578012 145.47168 
L 112.078422 163.205617 
L 112.328627 154.591928 
L 112.578832 159.552951 
L 112.829038 175.339312 
L 113.079243 150.091299 
L 113.329448 139.167791 
L 113.579653 135.398954 
L 113.829858 139.565557 
L 114.080064 155.468731 
L 114.330269 162.223198 
L 114.580474 148.302985 
L 114.830679 150.098888 
L 115.080884 164.995217 
L 115.331089 156.57852 
L 115.581295 174.900561 
L 116.081705 154.865234 
L 116.33191 153.899882 
L 116.83232 163.408464 
L 117.332731 138.500808 
L 117.582936 139.89402 
L 117.833141 166.849185 
L 118.083346 159.691196 
L 118.333552 147.758125 
L 118.583757 141.70488 
L 118.833962 138.995245 
L 119.084167 139.721469 
L 119.334372 138.384042 
L 119.834783 129.995845 
L 120.084988 129.944839 
L 120.335193 134.926056 
L 120.835603 157.277047 
L 121.336014 182.881285 
L 121.586219 156.938828 
L 121.836424 156.195266 
L 122.086629 158.766774 
L 122.336834 156.434787 
L 122.58704 173.530581 
L 122.837245 152.536637 
L 123.08745 144.914434 
L 123.337655 149.560344 
L 123.838065 177.881525 
L 124.338476 172.732576 
L 124.588681 182.481644 
L 124.838886 153.657258 
L 125.089091 143.931832 
L 125.339297 142.631462 
L 125.589502 147.639559 
L 126.089912 161.332492 
L 126.340117 160.834645 
L 126.590322 176.583363 
L 127.090733 146.241449 
L 127.340938 154.042384 
L 127.591143 152.270704 
L 127.841348 149.359218 
L 128.091553 154.790828 
L 128.591964 137.874189 
L 128.842169 138.073905 
L 129.092374 140.636071 
L 129.592785 143.262356 
L 129.84299 145.301557 
L 130.093195 142.0872 
L 130.3434 140.914123 
L 130.593605 142.397379 
L 130.84381 140.805835 
L 131.344221 152.628266 
L 131.594426 142.00979 
L 131.844631 141.467459 
L 132.595247 152.987476 
L 132.845452 165.827686 
L 133.095657 192.716948 
L 133.345862 173.085125 
L 133.596067 165.941402 
L 133.846273 191.361309 
L 134.096478 172.225504 
L 134.346683 179.684317 
L 134.596888 152.439352 
L 134.847093 141.929095 
L 135.097298 140.943484 
L 136.098119 145.512568 
L 136.348324 149.535375 
L 136.59853 161.238324 
L 136.848735 181.360916 
L 137.09894 170.307245 
L 137.349145 150.958087 
L 137.59935 151.244552 
L 137.849555 168.120161 
L 138.099761 172.502013 
L 138.349966 154.233303 
L 138.600171 157.845609 
L 138.850376 189.324313 
L 139.100581 158.57059 
L 139.350787 151.076214 
L 139.600992 154.927891 
L 140.101402 178.066915 
L 140.351607 174.116183 
L 140.601812 203.843809 
L 140.852018 178.9999 
L 141.102223 173.945569 
L 141.602633 158.447324 
L 141.852838 158.52963 
L 142.353249 166.755662 
L 142.603454 198.516003 
L 142.853659 175.966161 
L 143.103864 169.978308 
L 143.604275 152.695753 
L 143.85448 175.946656 
L 144.104685 145.803742 
L 144.35489 132.561771 
L 144.605095 133.369228 
L 145.105506 156.505913 
L 145.355711 154.827512 
L 145.605916 150.41957 
L 145.856121 153.250562 
L 146.606737 179.682287 
L 147.107147 138.581246 
L 147.357352 136.008428 
L 147.607557 143.134675 
L 148.107968 172.903584 
L 148.358173 169.457052 
L 148.608378 173.561528 
L 148.858583 148.172171 
L 149.108788 139.303841 
L 149.859404 146.507542 
L 150.109609 142.039195 
L 150.359814 143.597343 
L 150.61002 160.181712 
L 150.860225 167.350911 
L 151.11043 150.216969 
L 151.360635 142.974013 
L 151.61084 151.534464 
L 151.861045 168.460988 
L 152.111251 154.505806 
L 152.611661 151.415958 
L 152.861866 144.397491 
L 153.112071 149.529623 
L 153.362277 151.70214 
L 153.612482 147.23856 
L 153.862687 157.428553 
L 154.112892 155.840794 
L 154.363097 170.537419 
L 154.613302 164.852608 
L 154.863508 152.809173 
L 155.113713 153.069427 
L 155.363918 149.116326 
L 155.614123 150.564318 
L 155.864328 165.576996 
L 156.114533 170.139771 
L 156.364739 155.17174 
L 156.614944 164.709428 
L 156.865149 228.841375 
L 157.115354 164.964374 
L 157.365559 155.542468 
L 157.615765 159.98372 
L 157.86597 146.707581 
L 158.116175 141.600199 
L 158.36638 147.669781 
L 158.616585 177.787512 
L 159.116996 151.636993 
L 159.867611 142.318226 
L 160.117816 138.237119 
L 160.368021 140.793471 
L 160.618227 155.251243 
L 160.868432 244.189256 
L 161.118637 164.705784 
L 161.869253 140.772584 
L 162.119458 135.149554 
L 162.369663 135.23947 
L 162.619868 142.383905 
L 162.870073 172.409604 
L 163.370484 145.669715 
L 163.870894 150.255442 
L 164.121099 145.820164 
L 164.371304 145.13902 
L 164.62151 149.336644 
L 164.871715 147.749135 
L 165.12192 142.787002 
L 165.62233 157.801483 
L 165.872535 142.417673 
L 166.122741 143.479021 
L 166.372946 152.229897 
L 166.623151 156.427981 
L 166.873356 155.812957 
L 167.123561 147.405876 
L 167.373766 146.566152 
L 167.623972 159.586523 
L 167.874177 162.044817 
L 168.124382 141.115163 
L 168.374587 134.969104 
L 168.624792 137.16581 
L 168.874998 141.611272 
L 169.125203 149.153779 
L 169.375408 166.681355 
L 169.625613 166.520807 
L 169.875818 159.779699 
L 170.126023 156.118918 
L 170.376229 156.363182 
L 170.626434 162.367129 
L 170.876639 174.838058 
L 171.126844 156.270441 
L 171.377049 150.752064 
L 171.627255 153.919509 
L 172.127665 171.918767 
L 172.87828 199.81285 
L 173.128486 197.099535 
L 173.378691 188.635775 
L 173.628896 188.852409 
L 173.879101 198.771407 
L 174.379511 242.939866 
L 174.629717 233.322333 
L 174.879922 252.253925 
L 175.380332 224.020682 
L 175.630537 229.955149 
L 175.880743 242.510142 
L 176.130948 240.895374 
L 176.381153 232.269272 
L 176.631358 231.382928 
L 176.881563 235.072181 
L 177.131768 242.887238 
L 177.381974 256.926955 
L 177.632179 241.456306 
L 177.882384 237.51145 
L 178.132589 245.83738 
L 178.382794 247.585099 
L 178.633 236.612189 
L 178.883205 231.245499 
L 179.13341 232.952654 
L 179.63382 248.476361 
L 179.884025 261.853032 
L 180.134231 256.867372 
L 180.384436 237.725885 
L 180.884846 221.684072 
L 181.135051 225.452534 
L 181.385256 224.052941 
L 181.635462 221.607854 
L 181.885667 225.859437 
L 182.135872 248.76552 
L 182.386077 237.814144 
L 182.636282 238.782687 
L 182.886488 254.311585 
L 183.136693 247.166515 
L 183.386898 246.763037 
L 183.637103 232.768345 
L 183.887308 233.752447 
L 184.137513 233.207948 
L 184.387719 243.288716 
L 184.637924 259.210251 
L 184.888129 240.696127 
L 185.138334 235.867441 
L 185.388539 224.591842 
L 185.638745 227.404451 
L 185.88895 234.794502 
L 186.38936 217.565087 
L 186.639565 222.263751 
L 186.88977 235.490823 
L 187.139976 225.37869 
L 187.390181 225.867623 
L 187.890591 264.216916 
L 188.140796 240.016753 
L 188.391001 233.474715 
L 188.641207 235.113475 
L 188.891412 254.080466 
L 189.141617 255.486128 
L 189.391822 244.983671 
L 189.642027 255.855974 
L 189.892233 249.709946 
L 190.142438 248.847555 
L 190.392643 252.321453 
L 190.893053 228.207898 
L 191.143258 215.081987 
L 191.393464 208.583188 
L 191.643669 212.603171 
L 192.144079 233.481659 
L 192.394284 232.828988 
L 192.894695 256.154123 
L 193.395105 248.617682 
L 193.64531 228.974503 
L 193.895515 223.66932 
L 194.145721 230.348258 
L 194.395926 254.999694 
L 194.646131 262.41848 
L 194.896336 240.31887 
L 195.146541 255.616258 
L 195.396746 240.037759 
L 195.897157 83.709618 
L 196.147362 51.815935 
L 196.397567 37.517415 
L 196.647772 38.413135 
L 196.897978 54.642851 
L 197.148183 89.038374 
L 197.398388 151.142906 
L 197.648593 243.864092 
L 198.149003 219.837903 
L 198.399209 228.103191 
L 198.649414 250.126517 
L 198.899619 251.356072 
L 199.149824 236.153866 
L 199.650234 260.445155 
L 199.90044 255.831992 
L 200.150645 260.453254 
L 201.151466 225.228518 
L 201.401671 219.068165 
L 201.651876 218.138736 
L 201.902081 223.549768 
L 202.152286 235.622292 
L 202.402491 237.079108 
L 202.902902 216.803733 
L 203.153107 214.098283 
L 203.403312 218.211217 
L 203.653517 227.278668 
L 203.903723 244.701435 
L 204.404133 224.897189 
L 204.654338 224.879804 
L 205.154748 236.547188 
L 205.404954 231.322241 
L 205.655159 235.834234 
L 205.905364 237.92894 
L 206.155569 230.154729 
L 206.405774 230.904732 
L 206.655979 226.850167 
L 206.906185 227.739375 
L 207.15639 238.372992 
L 207.406595 241.914654 
L 207.6568 232.096691 
L 208.157211 224.537285 
L 208.407416 224.111137 
L 208.907826 228.861506 
L 209.158031 225.742965 
L 209.408236 217.041531 
L 209.658442 220.838721 
L 209.908647 240.406055 
L 210.158852 221.069253 
L 210.409057 222.410799 
L 210.909468 242.683002 
L 211.159673 243.201478 
L 211.409878 256.871426 
L 211.660083 261.930209 
L 212.160493 225.36601 
L 212.410699 222.446741 
L 212.660904 222.627781 
L 212.911109 220.193756 
L 213.161314 225.505374 
L 213.411519 255.335349 
L 213.661724 241.315068 
L 213.91193 240.194913 
L 214.162135 233.976862 
L 214.41234 218.437786 
L 214.662545 215.730727 
L 215.162956 222.468614 
L 215.413161 223.823384 
L 215.663366 224.531787 
L 215.913571 225.797276 
L 216.413981 238.425412 
L 216.664187 241.786623 
L 216.914392 233.628279 
L 217.164597 230.245962 
L 217.665007 236.341839 
L 217.915213 235.320143 
L 218.165418 244.979511 
L 218.665828 214.935008 
L 218.916033 218.250962 
L 219.166238 241.379935 
L 219.416444 243.469959 
L 219.916854 219.309013 
L 220.167059 218.618429 
L 220.667469 244.385627 
L 220.917675 236.358402 
L 221.16788 205.690062 
L 221.418085 128.982635 
L 221.66829 88.27885 
L 221.918495 67.415957 
L 222.168701 62.347184 
L 222.418906 72.283327 
L 222.669111 98.790306 
L 222.919316 147.233105 
L 223.169521 220.162521 
L 223.419726 223.35658 
L 223.669932 228.525024 
L 223.920137 250.878546 
L 224.170342 256.459721 
L 224.420547 240.633556 
L 224.670752 239.112727 
L 224.920957 243.736324 
L 225.171163 264.665717 
L 225.671573 235.564661 
L 225.921778 232.622931 
L 226.422189 238.115934 
L 226.922599 264.545977 
L 227.172804 238.51497 
L 227.423009 232.504583 
L 227.673214 237.886626 
L 227.92342 250.886098 
L 228.173625 241.569075 
L 228.42383 243.043442 
L 228.674035 264.604899 
L 228.92424 223.835732 
L 229.174446 215.295495 
L 229.424651 219.991444 
L 229.674856 228.339922 
L 229.925061 229.964581 
L 230.425471 214.87177 
L 230.675677 217.234763 
L 231.176087 233.621579 
L 231.426292 230.283267 
L 231.676497 235.244654 
L 231.926702 244.172909 
L 232.176908 228.091795 
L 232.427113 226.840764 
L 232.677318 242.280446 
L 232.927523 241.580373 
L 233.177728 233.6936 
L 233.427934 232.748583 
L 233.678139 231.012274 
L 234.178549 222.781203 
L 234.428754 228.315441 
L 234.678959 253.595719 
L 235.17937 232.350647 
L 235.429575 235.73523 
L 235.67978 236.527404 
L 235.929985 227.454762 
L 236.180191 223.015343 
L 236.680601 236.564855 
L 236.930806 222.299692 
L 237.181011 217.655605 
L 237.431216 223.329603 
L 237.931627 260.449919 
L 238.181832 262.557248 
L 238.432037 224.856636 
L 238.682242 209.017077 
L 238.932447 203.982997 
L 239.182653 202.113718 
L 239.432858 203.014957 
L 239.683063 209.587439 
L 239.933268 204.168827 
L 240.433679 182.091784 
L 240.683884 178.40222 
L 240.934089 183.737187 
L 241.184294 219.176217 
L 241.434499 183.83576 
L 241.684704 173.007876 
L 241.93491 172.005436 
L 242.185115 172.977127 
L 242.43532 171.176041 
L 243.185936 163.333045 
L 243.436141 174.630663 
L 243.686346 223.980343 
L 243.936551 176.674652 
L 244.186756 170.886185 
L 244.436961 181.729832 
L 244.687167 185.732674 
L 244.937372 158.277399 
L 245.187577 148.162484 
L 245.437782 145.086991 
L 245.687987 155.711425 
L 245.938192 184.511447 
L 246.188398 166.818081 
L 246.438603 181.761877 
L 246.939013 157.156335 
L 247.189218 146.641531 
L 247.439424 143.209677 
L 247.689629 145.711614 
L 247.939834 144.178247 
L 248.690449 133.656819 
L 249.19086 143.592966 
L 249.441065 136.666423 
L 249.69127 136.6249 
L 249.941475 139.904316 
L 250.191681 146.818259 
L 250.441886 165.284075 
L 250.692091 167.590528 
L 250.942296 172.955436 
L 251.192501 189.444095 
L 251.442706 190.593196 
L 251.692912 156.439651 
L 251.943117 144.064287 
L 252.193322 144.174931 
L 252.443527 156.567037 
L 252.693732 177.688077 
L 252.943937 155.653398 
L 253.194143 159.652057 
L 253.444348 194.665618 
L 253.694553 145.598837 
L 253.944758 133.572431 
L 254.194963 130.441259 
L 254.445169 134.29918 
L 255.195784 166.853101 
L 255.445989 166.335861 
L 255.696194 168.700093 
L 255.9464 177.934362 
L 256.196605 176.002603 
L 256.697015 147.949966 
L 256.94722 145.457993 
L 257.197426 153.894816 
L 257.447631 166.536053 
L 257.697836 171.328945 
L 258.198246 153.836108 
L 258.448451 149.792372 
L 258.948862 188.313112 
L 259.199067 170.749618 
L 259.449272 161.035587 
L 259.699477 145.762923 
L 259.949682 142.1746 
L 260.199888 163.646967 
L 260.450093 169.936453 
L 260.700298 162.986408 
L 260.950503 172.049031 
L 261.200708 202.123855 
L 261.450914 162.956018 
L 261.701119 150.905196 
L 261.951324 145.043368 
L 262.201529 144.302153 
L 262.451734 153.250336 
L 262.952145 181.485163 
L 263.20235 183.671886 
L 263.70276 144.63093 
L 263.952965 143.032073 
L 264.20317 147.80015 
L 264.453376 163.181029 
L 264.703581 142.39264 
L 264.953786 136.616181 
L 265.454196 162.173297 
L 265.704402 151.730176 
L 265.954607 153.047952 
L 266.204812 138.562871 
L 266.455017 138.291803 
L 266.705222 160.164238 
L 266.955427 167.302754 
L 267.205633 160.49782 
L 267.706043 178.12539 
L 267.956248 154.548459 
L 268.206453 151.417186 
L 268.456659 158.771832 
L 268.706864 187.06955 
L 268.957069 154.500742 
L 269.207274 140.685452 
L 269.457479 134.909858 
L 269.707684 138.393954 
L 269.95789 153.032996 
L 270.4583 141.535597 
L 270.708505 143.367555 
L 270.95871 152.481894 
L 271.208915 150.864766 
L 271.459121 138.389377 
L 271.709326 135.732198 
L 271.959531 149.995222 
L 272.209736 173.976926 
L 272.459941 148.044572 
L 272.710147 147.479674 
L 272.960352 153.272715 
L 273.210557 162.39914 
L 273.460762 198.601176 
L 273.710967 155.391727 
L 273.961172 154.211853 
L 274.461583 173.569511 
L 274.961993 148.741034 
L 275.212198 147.935596 
L 275.462404 157.957729 
L 275.962814 151.442987 
L 276.213019 153.882713 
L 276.463224 153.751793 
L 277.21384 161.797026 
L 277.71425 140.608785 
L 277.964455 141.466099 
L 278.464866 149.70655 
L 278.965276 163.874509 
L 279.465686 148.82612 
L 279.715892 149.066994 
L 279.966097 160.194094 
L 280.216302 189.023333 
L 280.466507 175.966531 
L 280.716712 169.162863 
L 280.966917 166.184262 
L 281.467328 142.79946 
L 281.717533 138.633086 
L 281.967738 141.395687 
L 282.468149 169.149953 
L 282.968559 143.482054 
L 283.218764 147.245873 
L 283.468969 173.611259 
L 283.719174 159.964755 
L 283.96938 154.83201 
L 284.219585 182.731592 
L 284.46979 161.979638 
L 284.719995 153.807153 
L 284.9702 158.741126 
L 285.220405 166.89539 
L 285.470611 185.230983 
L 285.720816 153.17124 
L 285.971021 148.830465 
L 286.471431 170.840042 
L 286.721637 167.268503 
L 286.971842 154.856895 
L 287.222047 149.883843 
L 287.472252 147.454366 
L 287.722457 151.269712 
L 288.222868 184.980639 
L 288.473073 183.485491 
L 288.723278 173.00812 
L 288.973483 153.923768 
L 289.223688 156.048611 
L 289.473894 169.442111 
L 289.724099 159.974462 
L 289.974304 143.441252 
L 290.224509 139.274092 
L 290.474714 140.579227 
L 290.724919 139.388283 
L 290.975125 141.667636 
L 291.22533 152.304479 
L 291.475535 170.182034 
L 291.72574 203.086961 
L 292.22615 142.952375 
L 292.476356 135.708074 
L 292.726561 139.45209 
L 292.976766 150.713558 
L 293.226971 180.616424 
L 293.477176 179.985021 
L 293.727382 174.945019 
L 294.227792 147.075497 
L 294.477997 146.147872 
L 294.728202 154.952701 
L 294.978407 154.455942 
L 295.228613 156.338009 
L 295.478818 196.482699 
L 295.729023 155.881313 
L 295.979228 146.693754 
L 296.229433 150.810619 
L 296.479638 151.116308 
L 296.729844 143.457464 
L 296.980049 143.933378 
L 297.230254 150.761161 
L 297.480459 142.858127 
L 297.730664 143.329296 
L 297.98087 155.016289 
L 298.231075 158.629103 
L 298.48128 149.113816 
L 298.731485 147.254139 
L 298.98169 150.168525 
L 299.231895 151.340059 
L 299.482101 155.098637 
L 299.732306 155.097583 
L 299.982511 154.017652 
L 300.232716 163.458994 
L 300.482921 183.770237 
L 300.733127 173.965881 
L 300.983332 181.59947 
L 301.233537 158.672891 
L 301.483742 154.014646 
L 301.733947 151.718357 
L 301.984152 153.725233 
L 302.484563 180.910726 
L 302.734768 210.778648 
L 302.984973 167.50756 
L 303.235178 154.516586 
L 303.485383 158.554271 
L 303.735589 168.470077 
L 304.235999 151.881717 
L 304.486204 154.060057 
L 304.736409 168.92089 
L 304.986615 170.86329 
L 305.23682 164.616117 
L 305.487025 153.191501 
L 305.73723 152.506488 
L 306.487846 143.496988 
L 306.738051 145.151338 
L 306.988256 144.884856 
L 307.238461 142.313971 
L 307.488666 143.537479 
L 307.738872 149.165025 
L 307.989077 151.395956 
L 308.239282 155.147777 
L 308.489487 177.736597 
L 308.739692 176.969608 
L 308.989897 169.880665 
L 309.240103 213.774792 
L 309.490308 169.880665 
L 309.740513 176.969608 
L 309.990718 177.736597 
L 310.240923 155.147777 
L 310.991539 143.537479 
L 311.241744 142.313971 
L 311.491949 144.884856 
L 311.742154 145.151338 
L 311.99236 143.496988 
L 312.742975 152.506488 
L 312.99318 153.191501 
L 313.243385 164.616117 
L 313.493591 170.86329 
L 313.743796 168.92089 
L 313.994001 154.060057 
L 314.244206 151.881717 
L 314.744617 168.470077 
L 314.994822 158.554271 
L 315.245027 154.516586 
L 315.495232 167.50756 
L 315.745437 210.778648 
L 315.995642 180.910726 
L 316.496053 153.725233 
L 316.746258 151.718357 
L 316.996463 154.014646 
L 317.246668 158.672891 
L 317.496873 181.59947 
L 317.747079 173.965881 
L 317.997284 183.770237 
L 318.247489 163.458994 
L 318.497694 154.017652 
L 318.747899 155.097583 
L 318.998105 155.098637 
L 319.24831 151.340059 
L 319.498515 150.168525 
L 319.74872 147.254139 
L 319.998925 149.113816 
L 320.24913 158.629103 
L 320.499336 155.016289 
L 320.749541 143.329296 
L 320.999746 142.858127 
L 321.249951 150.761161 
L 321.500156 143.933378 
L 321.750362 143.457464 
L 322.000567 151.116308 
L 322.250772 150.810619 
L 322.500977 146.693754 
L 322.751182 155.881313 
L 323.001387 196.482699 
L 323.251593 156.338009 
L 323.501798 154.455942 
L 323.752003 154.952701 
L 324.002208 146.147872 
L 324.252413 147.075497 
L 324.752824 174.945019 
L 325.003029 179.985021 
L 325.253234 180.616424 
L 325.503439 150.713558 
L 325.753644 139.45209 
L 326.00385 135.708074 
L 326.254055 142.952375 
L 326.50426 164.689243 
L 326.754465 203.086961 
L 327.00467 170.182034 
L 327.505081 141.667636 
L 327.755286 139.388283 
L 328.005491 140.579227 
L 328.255696 139.274092 
L 328.505901 143.441252 
L 329.006312 169.442111 
L 329.256517 156.048611 
L 329.506722 153.923768 
L 329.756927 173.00812 
L 330.007132 183.485491 
L 330.257338 184.980639 
L 331.007953 147.454366 
L 331.258158 149.883843 
L 331.508363 154.856895 
L 331.758569 167.268503 
L 332.008774 170.840042 
L 332.509184 148.830465 
L 332.759389 153.17124 
L 333.009595 185.230983 
L 333.2598 166.89539 
L 333.76021 153.807153 
L 334.010415 161.979638 
L 334.26062 182.731592 
L 334.510826 154.83201 
L 334.761031 159.964755 
L 335.011236 173.611259 
L 335.261441 147.245873 
L 335.511646 143.482054 
L 336.012057 169.149953 
L 336.512467 141.395687 
L 336.762672 138.633086 
L 337.012877 142.79946 
L 337.513288 166.184262 
L 337.763493 169.162863 
L 338.013698 175.966531 
L 338.263903 189.023333 
L 338.514108 160.194094 
L 338.764314 149.066994 
L 339.014519 148.82612 
L 339.514929 163.874509 
L 340.265545 145.41275 
L 340.51575 141.466099 
L 340.765955 140.608785 
L 341.266365 161.797026 
L 341.766776 156.309929 
L 342.016981 153.751793 
L 342.267186 153.882713 
L 342.517391 151.442987 
L 343.017802 157.957729 
L 343.268007 147.935596 
L 343.518212 148.741034 
L 344.018622 173.569511 
L 344.268828 165.969859 
L 344.519033 154.211853 
L 344.769238 155.391727 
L 345.019443 198.601176 
L 345.269648 162.39914 
L 345.770059 147.479674 
L 346.020264 148.044572 
L 346.270469 173.976926 
L 346.770879 135.732198 
L 347.021085 138.389377 
L 347.27129 150.864766 
L 347.521495 152.481894 
L 347.7717 143.367555 
L 348.021905 141.535597 
L 348.522316 153.032996 
L 348.772521 138.393954 
L 349.022726 134.909858 
L 349.272931 140.685452 
L 349.523136 154.500742 
L 349.773341 187.06955 
L 350.023547 158.771832 
L 350.273752 151.417186 
L 350.523957 154.548459 
L 350.774162 178.12539 
L 351.024367 171.083198 
L 351.274573 160.49782 
L 351.524778 167.302754 
L 351.774983 160.164238 
L 352.025188 138.291803 
L 352.275393 138.562871 
L 352.525598 153.047952 
L 352.775804 151.730176 
L 353.026009 162.173297 
L 353.526419 136.616181 
L 353.776624 142.39264 
L 354.02683 163.181029 
L 354.277035 147.80015 
L 354.52724 143.032073 
L 354.777445 144.63093 
L 355.02765 159.065607 
L 355.277855 183.671886 
L 355.528061 181.485163 
L 356.278676 144.302153 
L 356.528881 145.043368 
L 356.779086 150.905196 
L 357.029292 162.956018 
L 357.279497 202.123855 
L 357.529702 172.049031 
L 357.779907 162.986408 
L 358.030112 169.936453 
L 358.280318 163.646967 
L 358.530523 142.1746 
L 358.780728 145.762923 
L 359.531343 188.313112 
L 360.031754 149.792372 
L 360.281959 153.836108 
L 360.782369 171.328945 
L 361.032574 166.536053 
L 361.532985 145.457993 
L 361.78319 147.949966 
L 362.2836 176.002603 
L 362.533806 177.934362 
L 362.784011 168.700093 
L 363.034216 166.335861 
L 363.284421 166.853101 
L 363.534626 158.760071 
L 364.035037 134.29918 
L 364.285242 130.441259 
L 364.535447 133.572431 
L 364.785652 145.598837 
L 365.035857 194.665618 
L 365.286063 159.652057 
L 365.536268 155.653398 
L 365.786473 177.688077 
L 366.286883 144.174931 
L 366.537088 144.064287 
L 366.787294 156.439651 
L 367.037499 190.593196 
L 367.287704 189.444095 
L 367.537909 172.955436 
L 367.788114 167.590528 
L 368.038319 165.284075 
L 368.288525 146.818259 
L 368.53873 139.904316 
L 368.788935 136.6249 
L 369.03914 136.666423 
L 369.289345 143.592966 
L 369.789756 133.656819 
L 370.290166 140.79962 
L 370.540371 144.178247 
L 370.790576 145.711614 
L 371.040782 143.209677 
L 371.290987 146.641531 
L 372.041602 181.761877 
L 372.291808 166.818081 
L 372.542013 184.511447 
L 372.792218 155.711425 
L 373.042423 145.086991 
L 373.292628 148.162484 
L 373.542833 158.277399 
L 373.793039 185.732674 
L 374.043244 181.729832 
L 374.293449 170.886185 
L 374.543654 176.674652 
L 374.793859 223.980343 
L 375.044064 174.630663 
L 375.29427 163.333045 
L 375.544475 165.014542 
L 376.044885 171.176041 
L 376.29509 172.977127 
L 376.545296 172.005436 
L 376.795501 173.007876 
L 377.045706 183.83576 
L 377.295911 219.176217 
L 377.546116 183.737187 
L 377.796321 178.40222 
L 378.046527 182.091784 
L 378.296732 190.933154 
L 378.546937 204.168827 
L 378.797142 209.587439 
L 379.047347 203.014957 
L 379.297553 202.113718 
L 379.547758 203.982997 
L 379.797963 209.017077 
L 380.048168 224.856636 
L 380.298373 262.557248 
L 380.548578 260.449919 
L 381.048989 223.329603 
L 381.299194 217.655605 
L 381.549399 222.299692 
L 381.799604 236.564855 
L 382.300015 223.015343 
L 382.55022 227.454762 
L 382.800425 236.527404 
L 383.05063 235.73523 
L 383.300835 232.350647 
L 383.801246 253.595719 
L 384.051451 228.315441 
L 384.301656 222.781203 
L 384.802066 231.012274 
L 385.052272 232.748583 
L 385.302477 233.6936 
L 385.552682 241.580373 
L 385.802887 242.280446 
L 386.053092 226.840764 
L 386.303298 228.091795 
L 386.553503 244.172909 
L 386.803708 235.244654 
L 387.053913 230.283267 
L 387.304118 233.621579 
L 387.554323 227.264114 
L 387.804529 217.234763 
L 388.054734 214.87177 
L 388.555144 229.964581 
L 388.805349 228.339922 
L 389.30576 215.295495 
L 389.555965 223.835732 
L 389.80617 264.604899 
L 390.056375 243.043442 
L 390.30658 241.569075 
L 390.556786 250.886098 
L 390.806991 237.886626 
L 391.057196 232.504583 
L 391.307401 238.51497 
L 391.557606 264.545977 
L 392.308222 234.980786 
L 392.558427 232.622931 
L 392.808632 235.564661 
L 393.058837 246.544465 
L 393.309043 264.665717 
L 393.559248 243.736324 
L 393.809453 239.112727 
L 394.059658 240.633556 
L 394.309863 256.459721 
L 394.560068 250.878546 
L 394.810274 228.525024 
L 395.310684 220.162521 
L 395.811094 98.790306 
L 396.061299 72.283327 
L 396.311505 62.347184 
L 396.56171 67.415957 
L 396.811915 88.27885 
L 397.06212 128.982635 
L 397.312325 205.690062 
L 397.562531 236.358402 
L 397.812736 244.385627 
L 398.313146 218.618429 
L 398.563351 219.309013 
L 399.063762 243.469959 
L 399.313967 241.379935 
L 399.564172 218.250962 
L 399.814377 214.935008 
L 400.064582 225.955682 
L 400.314787 244.979511 
L 400.564993 235.320143 
L 400.815198 236.341839 
L 401.065403 233.978478 
L 401.315608 230.245962 
L 401.565813 233.628279 
L 401.816019 241.786623 
L 402.066224 238.425412 
L 402.566634 225.797276 
L 403.31725 222.468614 
L 403.81766 215.730727 
L 404.067865 218.437786 
L 404.31807 233.976862 
L 404.568276 240.194913 
L 404.818481 241.315068 
L 405.068686 255.335349 
L 405.318891 225.505374 
L 405.569096 220.193756 
L 405.819301 222.627781 
L 406.069507 222.446741 
L 406.319712 225.36601 
L 406.820122 261.930209 
L 407.070327 256.871426 
L 407.320532 243.201478 
L 407.570738 242.683002 
L 408.071148 222.410799 
L 408.321353 221.069253 
L 408.571558 240.406055 
L 408.821764 220.838721 
L 409.071969 217.041531 
L 409.322174 225.742965 
L 409.572379 228.861506 
L 410.072789 224.111137 
L 410.322995 224.537285 
L 410.5732 227.260201 
L 410.823405 232.096691 
L 411.07361 241.914654 
L 411.323815 238.372992 
L 411.574021 227.739375 
L 411.824226 226.850167 
L 412.074431 230.904732 
L 412.324636 230.154729 
L 412.574841 237.92894 
L 412.825046 235.834234 
L 413.075252 231.322241 
L 413.325457 236.547188 
L 413.825867 224.879804 
L 414.076072 224.897189 
L 414.576483 244.701435 
L 414.826688 227.278668 
L 415.076893 218.211217 
L 415.327098 214.098283 
L 415.577303 216.803733 
L 416.077714 237.079108 
L 416.327919 235.622292 
L 416.578124 223.549768 
L 416.828329 218.138736 
L 417.078534 219.068165 
L 417.82915 238.83701 
L 418.32956 260.453254 
L 418.579766 255.831992 
L 418.829971 260.445155 
L 419.330381 236.153866 
L 419.580586 251.356072 
L 419.830791 250.126517 
L 420.080997 228.103191 
L 420.331202 219.837903 
L 420.831612 243.864092 
L 421.332022 89.038374 
L 421.582228 54.642851 
L 421.832433 38.413135 
L 422.082638 37.517415 
L 422.332843 51.815935 
L 422.583048 83.709618 
L 422.833254 141.050374 
L 423.083459 240.037759 
L 423.333664 255.616258 
L 423.583869 240.31887 
L 423.834074 262.41848 
L 424.084279 254.999694 
L 424.334485 230.348258 
L 424.58469 223.66932 
L 424.834895 228.974503 
L 425.0851 248.617682 
L 425.335305 251.486205 
L 425.585511 256.154123 
L 426.085921 232.828988 
L 426.336126 233.481659 
L 427.086742 208.583188 
L 427.336947 215.081987 
L 428.087562 252.321453 
L 428.337767 248.847555 
L 428.587973 249.709946 
L 428.838178 255.855974 
L 429.088383 244.983671 
L 429.338588 255.486128 
L 429.588793 254.080466 
L 429.838999 235.113475 
L 430.089204 233.474715 
L 430.339409 240.016753 
L 430.589614 264.216916 
L 431.090024 225.867623 
L 431.34023 225.37869 
L 431.590435 235.490823 
L 431.84064 222.263751 
L 432.090845 217.565087 
L 432.591255 234.794502 
L 432.841461 227.404451 
L 433.091666 224.591842 
L 433.341871 235.867441 
L 433.592076 240.696127 
L 433.842281 259.210251 
L 434.342692 233.207948 
L 434.592897 233.752447 
L 434.843102 232.768345 
L 435.093307 246.763037 
L 435.343512 247.166515 
L 435.593718 254.311585 
L 435.843923 238.782687 
L 436.094128 237.814144 
L 436.344333 248.76552 
L 436.594538 225.859437 
L 436.844744 221.607854 
L 437.345154 225.452534 
L 437.595359 221.684072 
L 438.095769 237.725885 
L 438.345975 256.867372 
L 438.59618 261.853032 
L 439.09659 240.524485 
L 439.346795 232.952654 
L 439.597 231.245499 
L 439.847206 236.612189 
L 440.097411 247.585099 
L 440.347616 245.83738 
L 440.597821 237.51145 
L 440.848026 241.456306 
L 441.098232 256.926955 
L 441.598642 235.072181 
L 441.848847 231.382928 
L 442.099052 232.269272 
L 442.349257 240.895374 
L 442.599463 242.510142 
L 442.849668 229.955149 
L 443.099873 224.020682 
L 443.600283 252.253925 
L 443.850489 233.322333 
L 444.100694 242.939866 
L 444.601104 198.771407 
L 444.851309 188.852409 
L 445.101514 188.635775 
L 445.35172 197.099535 
L 445.601925 199.81285 
L 445.85213 187.694736 
L 446.102335 181.364178 
L 446.852951 153.919509 
L 447.103156 150.752064 
L 447.353361 156.270441 
L 447.603566 174.838058 
L 447.853771 162.367129 
L 448.103977 156.363182 
L 448.354182 156.118918 
L 448.604387 159.779699 
L 448.854592 166.520807 
L 449.104797 166.681355 
L 449.355002 149.153779 
L 449.855413 137.16581 
L 450.105618 134.969104 
L 450.355823 141.115163 
L 450.606028 162.044817 
L 450.856234 159.586523 
L 451.106439 146.566152 
L 451.356644 147.405876 
L 451.606849 155.812957 
L 451.857054 156.427981 
L 452.107259 152.229897 
L 452.357465 143.479021 
L 452.60767 142.417673 
L 452.857875 157.801483 
L 453.358285 142.787002 
L 453.60849 147.749135 
L 453.858696 149.336644 
L 454.108901 145.13902 
L 454.359106 145.820164 
L 454.609311 150.255442 
L 455.109722 145.669715 
L 455.359927 155.997627 
L 455.610132 172.409604 
L 455.860337 142.383905 
L 456.110542 135.23947 
L 456.360747 135.149554 
L 456.610953 140.772584 
L 457.361568 164.705784 
L 457.611773 244.189256 
L 457.861979 155.251243 
L 458.112184 140.793471 
L 458.362389 138.237119 
L 459.113004 148.733491 
L 459.36321 151.636993 
L 459.86362 177.787512 
L 460.113825 147.669781 
L 460.36403 141.600199 
L 460.614235 146.707581 
L 460.864441 159.98372 
L 461.114646 155.542468 
L 461.364851 164.964374 
L 461.615056 228.841375 
L 461.865261 164.709428 
L 462.115467 155.17174 
L 462.365672 170.139771 
L 462.615877 165.576996 
L 462.866082 150.564318 
L 463.116287 149.116326 
L 463.366492 153.069427 
L 463.616698 152.809173 
L 463.866903 164.852608 
L 464.117108 170.537419 
L 464.367313 155.840794 
L 464.617518 157.428553 
L 464.867723 147.23856 
L 465.117929 151.70214 
L 465.368134 149.529623 
L 465.618339 144.397491 
L 465.868544 151.415958 
L 466.368955 154.505806 
L 466.61916 168.460988 
L 466.869365 151.534464 
L 467.11957 142.974013 
L 467.369775 150.216969 
L 467.61998 167.350911 
L 467.870186 160.181712 
L 468.120391 143.597343 
L 468.370596 142.039195 
L 468.620801 146.507542 
L 468.871006 143.446169 
L 469.121212 141.968 
L 469.371417 139.303841 
L 469.621622 148.172171 
L 469.871827 173.561528 
L 470.122032 169.457052 
L 470.372237 172.903584 
L 470.872648 143.134675 
L 471.122853 136.008428 
L 471.373058 138.581246 
L 471.873468 179.682287 
L 472.123674 173.512172 
L 472.624084 153.250562 
L 472.874289 150.41957 
L 473.124494 154.827512 
L 473.3747 156.505913 
L 473.87511 133.369228 
L 474.125315 132.561771 
L 474.37552 145.803742 
L 474.625725 175.946656 
L 474.875931 152.695753 
L 475.126136 159.709635 
L 475.626546 175.966161 
L 475.876751 198.516003 
L 476.126957 166.755662 
L 476.627367 158.52963 
L 476.877572 158.447324 
L 477.628188 178.9999 
L 477.878393 203.843809 
L 478.128598 174.116183 
L 478.378803 178.066915 
L 478.879213 154.927891 
L 479.129419 151.076214 
L 479.379624 158.57059 
L 479.629829 189.324313 
L 479.880034 157.845609 
L 480.130239 154.233303 
L 480.380445 172.502013 
L 480.63065 168.120161 
L 480.880855 151.244552 
L 481.13106 150.958087 
L 481.63147 181.360916 
L 482.131881 149.535375 
L 482.382086 145.512568 
L 483.382907 140.943484 
L 483.633112 141.929095 
L 483.883317 152.439352 
L 484.133522 179.684317 
L 484.383727 172.225504 
L 484.633933 191.361309 
L 484.884138 165.941402 
L 485.134343 173.085125 
L 485.384548 192.716948 
L 485.634753 165.827686 
L 485.884958 152.987476 
L 486.135164 146.992708 
L 486.385369 144.978504 
L 486.635574 141.467459 
L 486.885779 142.00979 
L 487.135984 152.628266 
L 487.636395 140.805835 
L 487.8866 142.397379 
L 488.136805 140.914123 
L 488.38701 142.0872 
L 488.637215 145.301557 
L 489.137626 141.984983 
L 489.387831 140.636071 
L 489.638036 138.073905 
L 489.888241 137.874189 
L 490.138447 144.285467 
L 490.388652 154.790828 
L 490.638857 149.359218 
L 491.139267 154.042384 
L 491.389472 146.241449 
L 491.889883 176.583363 
L 492.140088 160.834645 
L 492.390293 161.332492 
L 493.140909 142.631462 
L 493.391114 143.931832 
L 493.641319 153.657258 
L 493.891524 182.481644 
L 494.141729 172.732576 
L 494.64214 177.881525 
L 495.14255 149.560344 
L 495.392755 144.914434 
L 495.64296 152.536637 
L 495.893166 173.530581 
L 496.143371 156.434787 
L 496.393576 158.766774 
L 496.643781 156.195266 
L 496.893986 156.938828 
L 497.144191 182.881285 
L 497.894807 144.166798 
L 498.145012 134.926056 
L 498.395217 129.944839 
L 498.645423 129.995845 
L 499.145833 138.384042 
L 499.396038 139.721469 
L 499.646243 138.995245 
L 499.896448 141.70488 
L 500.146654 147.758125 
L 500.647064 166.849185 
L 500.897269 139.89402 
L 501.147474 138.500808 
L 501.647885 163.408464 
L 502.148295 153.899882 
L 502.3985 154.865234 
L 502.898911 174.900561 
L 503.149116 156.57852 
L 503.399321 164.995217 
L 503.649526 150.098888 
L 503.899731 148.302985 
L 504.149936 162.223198 
L 504.400142 155.468731 
L 504.650347 139.565557 
L 504.900552 135.398954 
L 505.150757 139.167791 
L 505.400962 150.091299 
L 505.651168 175.339312 
L 505.901373 159.552951 
L 506.151578 154.591928 
L 506.401783 163.205617 
L 506.651988 156.152907 
L 506.902193 145.47168 
L 507.152399 147.569998 
L 507.402604 152.373267 
L 507.652809 151.308979 
L 507.903014 154.204296 
L 508.153219 149.222453 
L 508.403425 137.7781 
L 508.65363 137.778486 
L 509.15404 167.045882 
L 509.404245 146.522512 
L 509.65445 146.66943 
L 509.904656 147.02454 
L 510.405066 141.806951 
L 510.655271 148.445153 
L 510.905476 166.577343 
L 511.155681 154.418213 
L 511.405887 151.669816 
L 511.656092 156.569896 
L 511.906297 152.749366 
L 512.156502 146.273583 
L 512.406707 145.526965 
L 512.907118 147.816791 
L 513.157323 147.656929 
L 513.407528 156.455175 
L 513.657733 161.215423 
L 513.907938 157.621708 
L 514.158144 155.756508 
L 514.658554 158.940148 
L 514.908759 150.272618 
L 515.158964 146.275092 
L 515.40917 147.144924 
L 515.659375 146.09854 
L 515.90958 151.817274 
L 516.159785 166.281002 
L 516.40999 162.366421 
L 516.660195 180.785644 
L 516.910401 168.219823 
L 517.160606 170.931873 
L 517.410811 157.145257 
L 517.661016 151.279834 
L 517.911221 149.882552 
L 518.161426 156.832686 
L 518.411632 168.750656 
L 518.661837 165.172373 
L 518.912042 168.333775 
L 519.162247 165.720209 
L 519.412452 157.270148 
L 519.662658 162.765616 
L 519.912863 197.76583 
L 520.163068 181.423998 
L 520.413273 207.137362 
L 520.663478 162.560936 
L 521.163889 145.795953 
L 521.414094 141.135147 
L 521.914504 159.662991 
L 522.164709 139.973483 
L 522.414915 146.55776 
L 522.66512 157.292583 
L 522.915325 153.652006 
L 523.16553 156.839825 
L 523.66594 174.936565 
L 523.916146 162.147512 
L 524.166351 158.337211 
L 524.416556 143.398574 
L 524.666761 136.621657 
L 524.916966 138.438408 
L 525.417377 156.147754 
L 525.917787 163.612953 
L 526.167992 163.237892 
L 526.418197 161.816407 
L 526.918608 148.806472 
L 527.168813 152.23237 
L 527.669223 169.306818 
L 528.169634 205.646497 
L 528.419839 169.152256 
L 528.670044 161.737924 
L 528.920249 164.028274 
L 529.670865 141.964325 
L 529.92107 143.480563 
L 530.171275 148.734578 
L 530.42148 145.854767 
L 530.671685 156.943418 
L 530.921891 153.787101 
L 531.172096 138.978753 
L 531.422301 140.172581 
L 531.672506 144.117231 
L 531.922711 150.548658 
L 532.172916 169.560863 
L 532.423122 140.322323 
L 532.673327 134.767254 
L 532.923532 143.475556 
L 533.173737 165.076809 
L 533.423942 205.148861 
L 533.674148 208.104849 
L 533.924353 205.908818 
L 534.174558 179.643803 
L 534.424763 177.042362 
L 534.674968 147.517738 
L 534.925173 138.428399 
L 535.175379 139.588348 
L 535.675789 155.553898 
L 535.925994 157.806951 
L 536.176199 167.356741 
L 536.426404 187.849888 
L 536.67661 154.397334 
L 536.926815 145.359653 
L 537.17702 146.105815 
L 537.67743 171.472749 
L 537.927636 172.007974 
L 538.177841 158.351375 
L 538.428046 151.465283 
L 538.678251 157.521686 
L 538.928456 157.199603 
L 539.679072 137.986591 
L 539.929277 139.306842 
L 540.179482 145.305681 
L 540.679893 165.218241 
L 540.930098 159.079968 
L 541.180303 155.85795 
L 541.430508 157.471386 
L 541.680713 153.68949 
L 542.181124 139.767023 
L 542.431329 141.175418 
L 542.681534 155.577485 
L 542.931739 176.662479 
L 543.181944 177.152843 
L 543.432149 172.258836 
L 543.93256 148.70343 
L 544.182765 149.512369 
L 544.43297 147.497146 
L 544.683175 141.566511 
L 544.933381 143.584624 
L 545.433791 173.013417 
L 545.683996 163.940621 
L 545.934201 164.294703 
L 546.434612 179.371526 
L 546.935022 151.236093 
L 547.185227 150.623012 
L 547.685638 172.892926 
L 547.935843 168.620992 
L 548.436253 151.33678 
L 548.686458 146.472393 
L 548.936663 153.364616 
L 549.186869 155.013955 
L 549.437074 141.608865 
L 549.687279 138.022696 
L 549.937484 140.061788 
L 550.437894 149.304885 
L 550.938305 151.856 
L 551.18851 157.358748 
L 551.68892 151.179314 
L 551.939126 158.476506 
L 552.189331 156.62909 
L 552.439536 166.934732 
L 552.689741 171.970706 
L 552.939946 155.076853 
L 553.440357 142.093353 
L 553.690562 141.89546 
L 553.940767 146.97064 
L 554.190972 158.814982 
L 554.441177 184.680721 
L 554.941588 155.027333 
L 555.191793 151.158223 
L 555.692203 159.326796 
L 556.192614 145.377769 
L 556.442819 143.29503 
L 556.693024 151.188177 
L 556.943229 177.905793 
L 557.193434 150.157818 
L 557.443639 148.436373 
L 557.693845 161.714746 
L 557.94405 147.4866 
L 558.194255 143.105199 
L 558.44446 145.739666 
L 558.694665 146.150614 
L 558.944871 150.082532 
L 559.195076 164.213615 
L 559.445281 153.280781 
L 559.695486 147.394067 
L 560.195896 143.116486 
L 560.446102 146.312092 
L 560.696307 153.037397 
L 560.946512 153.80105 
L 561.196717 172.215741 
L 561.446922 151.306846 
L 561.697128 149.475165 
L 561.947333 165.856852 
L 562.197538 147.726411 
L 562.447743 143.570067 
L 562.697948 142.181131 
L 562.948153 135.861604 
L 563.198359 133.773391 
L 563.948974 148.722981 
L 564.199179 148.71066 
L 564.449384 148.551493 
L 564.69959 160.470653 
L 564.949795 160.276439 
L 565.2 158.454842 
L 565.2 158.454842 
" clip-path="url(#pc9dde1d5c1)" style="fill: none; stroke: #1f77b4; stroke-width: 1.5; stroke-linecap: square"/>
   </g>
   <g id="line2d_30">
    <path d="M 283.619092 246.04 
L 283.619092 26.16 
" clip-path="url(#pc9dde1d5c1)" style="fill: none; stroke-dasharray: 2,3.3; stroke-dashoffset: 0; stroke: #d62728; stroke-width: 2"/>
   </g>
   <g id="line2d_31">
    <path d="M 334.861113 246.04 
L 334.861113 26.16 
" clip-path="url(#pc9dde1d5c1)" style="fill: none; stroke-dasharray: 2,3.3; stroke-dashoffset: 0; stroke: #d62728; stroke-width: 2"/>
   </g>
   <g id="line2d_32">
    <path d="M 386.103133 246.04 
L 386.103133 26.16 
" clip-path="url(#pc9dde1d5c1)" style="fill: none; stroke-dasharray: 2,3.3; stroke-dashoffset: 0; stroke: #d62728; stroke-width: 2"/>
   </g>
   <g id="line2d_33">
    <path d="M 437.345154 246.04 
L 437.345154 26.16 
" clip-path="url(#pc9dde1d5c1)" style="fill: none; stroke-dasharray: 2,3.3; stroke-dashoffset: 0; stroke: #d62728; stroke-width: 2"/>
   </g>
   <g id="line2d_34">
    <path d="M 488.587174 246.04 
L 488.587174 26.16 
" clip-path="url(#pc9dde1d5c1)" style="fill: none; stroke-dasharray: 2,3.3; stroke-dashoffset: 0; stroke: #d62728; stroke-width: 2"/>
   </g>
   <g id="line2d_35">
    <path d="M 539.829195 246.04 
L 539.829195 26.16 
" clip-path="url(#pc9dde1d5c1)" style="fill: none; stroke-dasharray: 2,3.3; stroke-dashoffset: 0; stroke: #d62728; stroke-width: 2"/>
   </g>
   <g id="patch_3">
    <path d="M 53.03 246.04 
L 53.03 26.16 
" style="fill: none; stroke: #000000; stroke-width: 0.8; stroke-linejoin: miter; stroke-linecap: square"/>
   </g>
   <g id="patch_4">
    <path d="M 565.2 246.04 
L 565.2 26.16 
" style="fill: none; stroke: #000000; stroke-width: 0.8; stroke-linejoin: miter; stroke-linecap: square"/>
   </g>
   <g id="patch_5">
    <path d="M 53.03 246.04 
L 565.2 246.04 
" style="fill: none; stroke: #000000; stroke-width: 0.8; stroke-linejoin: miter; stroke-linecap: square"/>
   </g>
   <g id="patch_6">
    <path d="M 53.03 26.16 
L 565.2 26.16 
" style="fill: none; stroke: #000000; stroke-width: 0.8; stroke-linejoin: miter; stroke-linecap: square"/>
   </g>
   <g id="text_17">
    <!-- Multiple Channels -->
    <g transform="translate(255.616563 20.16) scale(0.12 -0.12)">
     <defs>
      <path id="DejaVuSans-6c" d="M 603 4863 
L 1178 4863 
L 1178 0 
L 603 0 
L 603 4863 
z
" transform="scale(0.015625)"/>
      <path id="DejaVuSans-70" d="M 1159 525 
L 1159 -1331 
L 581 -1331 
L 581 3500 
L 1159 3500 
L 1159 2969 
Q 1341 3281 1617 3432 
Q 1894 3584 2278 3584 
Q 2916 3584 3314 3078 
Q 3713 2572 3713 1747 
Q 3713 922 3314 415 
Q 2916 -91 2278 -91 
Q 1894 -91 1617 61 
Q 1341 213 1159 525 
z
M 3116 1747 
Q 3116 2381 2855 2742 
Q 2594 3103 2138 3103 
Q 1681 3103 1420 2742 
Q 1159 2381 1159 1747 
Q 1159 1113 1420 752 
Q 1681 391 2138 391 
Q 2594 391 2855 752 
Q 3116 1113 3116 1747 
z
" transform="scale(0.015625)"/>
      <path id="DejaVuSans-43" d="M 4122 4306 
L 4122 3641 
Q 3803 3938 3442 4084 
Q 3081 4231 2675 4231 
Q 1875 4231 1450 3742 
Q 1025 3253 1025 2328 
Q 1025 1406 1450 917 
Q 1875 428 2675 428 
Q 3081 428 3442 575 
Q 3803 722 4122 1019 
L 4122 359 
Q 3791 134 3420 21 
Q 3050 -91 2638 -91 
Q 1578 -91 968 557 
Q 359 1206 359 2328 
Q 359 3453 968 4101 
Q 1578 4750 2638 4750 
Q 3056 4750 3426 4639 
Q 3797 4528 4122 4306 
z
" transform="scale(0.015625)"/>
      <path id="DejaVuSans-68" d="M 3513 2113 
L 3513 0 
L 2938 0 
L 2938 2094 
Q 2938 2591 2744 2837 
Q 2550 3084 2163 3084 
Q 1697 3084 1428 2787 
Q 1159 2491 1159 1978 
L 1159 0 
L 581 0 
L 581 4863 
L 1159 4863 
L 1159 2956 
Q 1366 3272 1645 3428 
Q 1925 3584 2291 3584 
Q 2894 3584 3203 3211 
Q 3513 2838 3513 2113 
z
" transform="scale(0.015625)"/>
      <path id="DejaVuSans-73" d="M 2834 3397 
L 2834 2853 
Q 2591 2978 2328 3040 
Q 2066 3103 1784 3103 
Q 1356 3103 1142 2972 
Q 928 2841 928 2578 
Q 928 2378 1081 2264 
Q 1234 2150 1697 2047 
L 1894 2003 
Q 2506 1872 2764 1633 
Q 3022 1394 3022 966 
Q 3022 478 2636 193 
Q 2250 -91 1575 -91 
Q 1294 -91 989 -36 
Q 684 19 347 128 
L 347 722 
Q 666 556 975 473 
Q 1284 391 1588 391 
Q 1994 391 2212 530 
Q 2431 669 2431 922 
Q 2431 1156 2273 1281 
Q 2116 1406 1581 1522 
L 1381 1569 
Q 847 1681 609 1914 
Q 372 2147 372 2553 
Q 372 3047 722 3315 
Q 1072 3584 1716 3584 
Q 2034 3584 2315 3537 
Q 2597 3491 2834 3397 
z
" transform="scale(0.015625)"/>
     </defs>
     <use xlink:href="#DejaVuSans-4d"/>
     <use xlink:href="#DejaVuSans-75" transform="translate(86.279297 0)"/>
     <use xlink:href="#DejaVuSans-6c" transform="translate(149.658203 0)"/>
     <use xlink:href="#DejaVuSans-74" transform="translate(177.441406 0)"/>
     <use xlink:href="#DejaVuSans-69" transform="translate(216.650391 0)"/>
     <use xlink:href="#DejaVuSans-70" transform="translate(244.433594 0)"/>
     <use xlink:href="#DejaVuSans-6c" transform="translate(307.910156 0)"/>
     <use xlink:href="#DejaVuSans-65" transform="translate(335.693359 0)"/>
     <use xlink:href="#DejaVuSans-20" transform="translate(397.216797 0)"/>
     <use xlink:href="#DejaVuSans-43" transform="translate(429.003906 0)"/>
     <use xlink:href="#DejaVuSans-68" transform="translate(498.828125 0)"/>
     <use xlink:href="#DejaVuSans-61" transform="translate(562.207031 0)"/>
     <use xlink:href="#DejaVuSans-6e" transform="translate(623.486328 0)"/>
     <use xlink:href="#DejaVuSans-6e" transform="translate(686.865234 0)"/>
     <use xlink:href="#DejaVuSans-65" transform="translate(750.244141 0)"/>
     <use xlink:href="#DejaVuSans-6c" transform="translate(811.767578 0)"/>
     <use xlink:href="#DejaVuSans-73" transform="translate(839.550781 0)"/>
    </g>
   </g>
  </g>
 </g>
 <defs>
  <clipPath id="pc9dde1d5c1">
   <rect x="53.03" y="26.16" width="512.17" height="219.88"/>
  </clipPath>
 </defs>
</svg>
