<?xml version="1.0" encoding="utf-8" standalone="no"?>
<!DOCTYPE svg PUBLIC "-//W3C//DTD SVG 1.1//EN"
  "http://www.w3.org/Graphics/SVG/1.1/DTD/svg11.dtd">
<svg xmlns:xlink="http://www.w3.org/1999/xlink" width="576pt" height="288pt" viewBox="0 0 576 288" xmlns="http://www.w3.org/2000/svg" version="1.1">
 <metadata>
  <rdf:RDF xmlns:dc="http://purl.org/dc/elements/1.1/" xmlns:cc="http://creativecommons.org/ns#" xmlns:rdf="http://www.w3.org/1999/02/22-rdf-syntax-ns#">
   <cc:Work>
    <dc:type rdf:resource="http://purl.org/dc/dcmitype/StillImage"/>
    <dc:date>2026-02-04T23:45:38.257254</dc:date>
    <dc:format>image/svg+xml</dc:format>
    <dc:creator>
     <cc:Agent>
      <dc:title>Matplotlib v3.10.8, https://matplotlib.org/</dc:title>
     </cc:Agent>
    </dc:creator>
   </cc:Work>
  </rdf:RDF>
 </metadata>
 <defs>
  <style type="text/css">*{stroke-linejoin: round; stroke-linecap: butt}</style>
 </defs>
 <g id="figure_1">
  <g id="patch_1">
   <path d="M 0 288 
L 576 288 
L 576 0 
L 0 0 
z
" style="fill: #ffffff"/>
  </g>
  <g id="axes_1">
   <g id="patch_2">
    <path d="M 53.03 246.04 
L 565.2 246.04 
L 565.2 26.16 
L 53.03 26.16 
z
" style="fill: #ffffff"/>
   </g>
   <g id="matplotlib.axis_1">
    <g id="xtick_1">
     <g id="line2d_1">
      <path d="M 104.272021 246.04 
L 104.272021 26.16 
" clip-path="url(#pd47a0861fd)" style="fill: none; stroke: #b0b0b0; stroke-width: 0.8; stroke-linecap: square"/>
     </g>
     <g id="line2d_2">
      <defs>
       <path id="m524292f7d3" d="M 0 0 
L 0 3.5 
" style="stroke: #000000; stroke-width: 0.8"/>
      </defs>
      <g>
       <use xlink:href="#m524292f7d3" x="104.272021" y="246.04" style="stroke: #000000; stroke-width: 0.8"/>
      </g>
     </g>
     <g id="text_1">
      <!-- −40 -->
      <g transform="translate(93.719677 260.638438) scale(0.1 -0.1)">
       <defs>
        <path id="DejaVuSans-2212" d="M 678 2272 
L 4684 2272 
L 4684 1741 
L 678 1741 
L 678 2272 
z
" transform="scale(0.015625)"/>
        <path id="DejaVuSans-34" d="M 2419 4116 
L 825 1625 
L 2419 1625 
L 2419 4116 
z
M 2253 4666 
L 3047 4666 
L 3047 1625 
L 3713 1625 
L 3713 1100 
L 3047 1100 
L 3047 0 
L 2419 0 
L 2419 1100 
L 313 1100 
L 313 1709 
L 2253 4666 
z
" transform="scale(0.015625)"/>
        <path id="DejaVuSans-30" d="M 2034 4250 
Q 1547 4250 1301 3770 
Q 1056 3291 1056 2328 
Q 1056 1369 1301 889 
Q 1547 409 2034 409 
Q 2525 409 2770 889 
Q 3016 1369 3016 2328 
Q 3016 3291 2770 3770 
Q 2525 4250 2034 4250 
z
M 2034 4750 
Q 2819 4750 3233 4129 
Q 3647 3509 3647 2328 
Q 3647 1150 3233 529 
Q 2819 -91 2034 -91 
Q 1250 -91 836 529 
Q 422 1150 422 2328 
Q 422 3509 836 4129 
Q 1250 4750 2034 4750 
z
" transform="scale(0.015625)"/>
       </defs>
       <use xlink:href="#DejaVuSans-2212"/>
       <use xlink:href="#DejaVuSans-34" transform="translate(83.789062 0)"/>
       <use xlink:href="#DejaVuSans-30" transform="translate(147.412109 0)"/>
      </g>
     </g>
    </g>
    <g id="xtick_2">
     <g id="line2d_3">
      <path d="M 206.756062 246.04 
L 206.756062 26.16 
" clip-path="url(#pd47a0861fd)" style="fill: none; stroke: #b0b0b0; stroke-width: 0.8; stroke-linecap: square"/>
     </g>
     <g id="line2d_4">
      <g>
       <use xlink:href="#m524292f7d3" x="206.756062" y="246.04" style="stroke: #000000; stroke-width: 0.8"/>
      </g>
     </g>
     <g id="text_2">
      <!-- −20 -->
      <g transform="translate(196.203718 260.638438) scale(0.1 -0.1)">
       <defs>
        <path id="DejaVuSans-32" d="M 1228 531 
L 3431 531 
L 3431 0 
L 469 0 
L 469 531 
Q 828 903 1448 1529 
Q 2069 2156 2228 2338 
Q 2531 2678 2651 2914 
Q 2772 3150 2772 3378 
Q 2772 3750 2511 3984 
Q 2250 4219 1831 4219 
Q 1534 4219 1204 4116 
Q 875 4013 500 3803 
L 500 4441 
Q 881 4594 1212 4672 
Q 1544 4750 1819 4750 
Q 2544 4750 2975 4387 
Q 3406 4025 3406 3419 
Q 3406 3131 3298 2873 
Q 3191 2616 2906 2266 
Q 2828 2175 2409 1742 
Q 1991 1309 1228 531 
z
" transform="scale(0.015625)"/>
       </defs>
       <use xlink:href="#DejaVuSans-2212"/>
       <use xlink:href="#DejaVuSans-32" transform="translate(83.789062 0)"/>
       <use xlink:href="#DejaVuSans-30" transform="translate(147.412109 0)"/>
      </g>
     </g>
    </g>
    <g id="xtick_3">
     <g id="line2d_5">
      <path d="M 309.240103 246.04 
L 309.240103 26.16 
" clip-path="url(#pd47a0861fd)" style="fill: none; stroke: #b0b0b0; stroke-width: 0.8; stroke-linecap: square"/>
     </g>
     <g id="line2d_6">
      <g>
       <use xlink:href="#m524292f7d3" x="309.240103" y="246.04" style="stroke: #000000; stroke-width: 0.8"/>
      </g>
     </g>
     <g id="text_3">
      <!-- 0 -->
      <g transform="translate(306.058853 260.638438) scale(0.1 -0.1)">
       <use xlink:href="#DejaVuSans-30"/>
      </g>
     </g>
    </g>
    <g id="xtick_4">
     <g id="line2d_7">
      <path d="M 411.724144 246.04 
L 411.724144 26.16 
" clip-path="url(#pd47a0861fd)" style="fill: none; stroke: #b0b0b0; stroke-width: 0.8; stroke-linecap: square"/>
     </g>
     <g id="line2d_8">
      <g>
       <use xlink:href="#m524292f7d3" x="411.724144" y="246.04" style="stroke: #000000; stroke-width: 0.8"/>
      </g>
     </g>
     <g id="text_4">
      <!-- 20 -->
      <g transform="translate(405.361644 260.638438) scale(0.1 -0.1)">
       <use xlink:href="#DejaVuSans-32"/>
       <use xlink:href="#DejaVuSans-30" transform="translate(63.623047 0)"/>
      </g>
     </g>
    </g>
    <g id="xtick_5">
     <g id="line2d_9">
      <path d="M 514.208185 246.04 
L 514.208185 26.16 
" clip-path="url(#pd47a0861fd)" style="fill: none; stroke: #b0b0b0; stroke-width: 0.8; stroke-linecap: square"/>
     </g>
     <g id="line2d_10">
      <g>
       <use xlink:href="#m524292f7d3" x="514.208185" y="246.04" style="stroke: #000000; stroke-width: 0.8"/>
      </g>
     </g>
     <g id="text_5">
      <!-- 40 -->
      <g transform="translate(507.845685 260.638438) scale(0.1 -0.1)">
       <use xlink:href="#DejaVuSans-34"/>
       <use xlink:href="#DejaVuSans-30" transform="translate(63.623047 0)"/>
      </g>
     </g>
    </g>
    <g id="text_6">
     <!-- Frequency (MHz) -->
     <g transform="translate(267.09625 274.316562) scale(0.1 -0.1)">
      <defs>
       <path id="DejaVuSans-46" d="M 628 4666 
L 3309 4666 
L 3309 4134 
L 1259 4134 
L 1259 2759 
L 3109 2759 
L 3109 2228 
L 1259 2228 
L 1259 0 
L 628 0 
L 628 4666 
z
" transform="scale(0.015625)"/>
       <path id="DejaVuSans-72" d="M 2631 2963 
Q 2534 3019 2420 3045 
Q 2306 3072 2169 3072 
Q 1681 3072 1420 2755 
Q 1159 2438 1159 1844 
L 1159 0 
L 581 0 
L 581 3500 
L 1159 3500 
L 1159 2956 
Q 1341 3275 1631 3429 
Q 1922 3584 2338 3584 
Q 2397 3584 2469 3576 
Q 2541 3569 2628 3553 
L 2631 2963 
z
" transform="scale(0.015625)"/>
       <path id="DejaVuSans-65" d="M 3597 1894 
L 3597 1613 
L 953 1613 
Q 991 1019 1311 708 
Q 1631 397 2203 397 
Q 2534 397 2845 478 
Q 3156 559 3463 722 
L 3463 178 
Q 3153 47 2828 -22 
Q 2503 -91 2169 -91 
Q 1331 -91 842 396 
Q 353 884 353 1716 
Q 353 2575 817 3079 
Q 1281 3584 2069 3584 
Q 2775 3584 3186 3129 
Q 3597 2675 3597 1894 
z
M 3022 2063 
Q 3016 2534 2758 2815 
Q 2500 3097 2075 3097 
Q 1594 3097 1305 2825 
Q 1016 2553 972 2059 
L 3022 2063 
z
" transform="scale(0.015625)"/>
       <path id="DejaVuSans-71" d="M 947 1747 
Q 947 1113 1208 752 
Q 1469 391 1925 391 
Q 2381 391 2643 752 
Q 2906 1113 2906 1747 
Q 2906 2381 2643 2742 
Q 2381 3103 1925 3103 
Q 1469 3103 1208 2742 
Q 947 2381 947 1747 
z
M 2906 525 
Q 2725 213 2448 61 
Q 2172 -91 1784 -91 
Q 1150 -91 751 415 
Q 353 922 353 1747 
Q 353 2572 751 3078 
Q 1150 3584 1784 3584 
Q 2172 3584 2448 3432 
Q 2725 3281 2906 2969 
L 2906 3500 
L 3481 3500 
L 3481 -1331 
L 2906 -1331 
L 2906 525 
z
" transform="scale(0.015625)"/>
       <path id="DejaVuSans-75" d="M 544 1381 
L 544 3500 
L 1119 3500 
L 1119 1403 
Q 1119 906 1312 657 
Q 1506 409 1894 409 
Q 2359 409 2629 706 
Q 2900 1003 2900 1516 
L 2900 3500 
L 3475 3500 
L 3475 0 
L 2900 0 
L 2900 538 
Q 2691 219 2414 64 
Q 2138 -91 1772 -91 
Q 1169 -91 856 284 
Q 544 659 544 1381 
z
M 1991 3584 
L 1991 3584 
z
" transform="scale(0.015625)"/>
       <path id="DejaVuSans-6e" d="M 3513 2113 
L 3513 0 
L 2938 0 
L 2938 2094 
Q 2938 2591 2744 2837 
Q 2550 3084 2163 3084 
Q 1697 3084 1428 2787 
Q 1159 2491 1159 1978 
L 1159 0 
L 581 0 
L 581 3500 
L 1159 3500 
L 1159 2956 
Q 1366 3272 1645 3428 
Q 1925 3584 2291 3584 
Q 2894 3584 3203 3211 
Q 3513 2838 3513 2113 
z
" transform="scale(0.015625)"/>
       <path id="DejaVuSans-63" d="M 3122 3366 
L 3122 2828 
Q 2878 2963 2633 3030 
Q 2388 3097 2138 3097 
Q 1578 3097 1268 2742 
Q 959 2388 959 1747 
Q 959 1106 1268 751 
Q 1578 397 2138 397 
Q 2388 397 2633 464 
Q 2878 531 3122 666 
L 3122 134 
Q 2881 22 2623 -34 
Q 2366 -91 2075 -91 
Q 1284 -91 818 406 
Q 353 903 353 1747 
Q 353 2603 823 3093 
Q 1294 3584 2113 3584 
Q 2378 3584 2631 3529 
Q 2884 3475 3122 3366 
z
" transform="scale(0.015625)"/>
       <path id="DejaVuSans-79" d="M 2059 -325 
Q 1816 -950 1584 -1140 
Q 1353 -1331 966 -1331 
L 506 -1331 
L 506 -850 
L 844 -850 
Q 1081 -850 1212 -737 
Q 1344 -625 1503 -206 
L 1606 56 
L 191 3500 
L 800 3500 
L 1894 763 
L 2988 3500 
L 3597 3500 
L 2059 -325 
z
" transform="scale(0.015625)"/>
       <path id="DejaVuSans-20" transform="scale(0.015625)"/>
       <path id="DejaVuSans-28" d="M 1984 4856 
Q 1566 4138 1362 3434 
Q 1159 2731 1159 2009 
Q 1159 1288 1364 580 
Q 1569 -128 1984 -844 
L 1484 -844 
Q 1016 -109 783 600 
Q 550 1309 550 2009 
Q 550 2706 781 3412 
Q 1013 4119 1484 4856 
L 1984 4856 
z
" transform="scale(0.015625)"/>
       <path id="DejaVuSans-4d" d="M 628 4666 
L 1569 4666 
L 2759 1491 
L 3956 4666 
L 4897 4666 
L 4897 0 
L 4281 0 
L 4281 4097 
L 3078 897 
L 2444 897 
L 1241 4097 
L 1241 0 
L 628 0 
L 628 4666 
z
" transform="scale(0.015625)"/>
       <path id="DejaVuSans-48" d="M 628 4666 
L 1259 4666 
L 1259 2753 
L 3553 2753 
L 3553 4666 
L 4184 4666 
L 4184 0 
L 3553 0 
L 3553 2222 
L 1259 2222 
L 1259 0 
L 628 0 
L 628 4666 
z
" transform="scale(0.015625)"/>
       <path id="DejaVuSans-7a" d="M 353 3500 
L 3084 3500 
L 3084 2975 
L 922 459 
L 3084 459 
L 3084 0 
L 275 0 
L 275 525 
L 2438 3041 
L 353 3041 
L 353 3500 
z
" transform="scale(0.015625)"/>
       <path id="DejaVuSans-29" d="M 513 4856 
L 1013 4856 
Q 1481 4119 1714 3412 
Q 1947 2706 1947 2009 
Q 1947 1309 1714 600 
Q 1481 -109 1013 -844 
L 513 -844 
Q 928 -128 1133 580 
Q 1338 1288 1338 2009 
Q 1338 2731 1133 3434 
Q 928 4138 513 4856 
z
" transform="scale(0.015625)"/>
      </defs>
      <use xlink:href="#DejaVuSans-46"/>
      <use xlink:href="#DejaVuSans-72" transform="translate(50.269531 0)"/>
      <use xlink:href="#DejaVuSans-65" transform="translate(89.132812 0)"/>
      <use xlink:href="#DejaVuSans-71" transform="translate(150.65625 0)"/>
      <use xlink:href="#DejaVuSans-75" transform="translate(214.132812 0)"/>
      <use xlink:href="#DejaVuSans-65" transform="translate(277.511719 0)"/>
      <use xlink:href="#DejaVuSans-6e" transform="translate(339.035156 0)"/>
      <use xlink:href="#DejaVuSans-63" transform="translate(402.414062 0)"/>
      <use xlink:href="#DejaVuSans-79" transform="translate(457.394531 0)"/>
      <use xlink:href="#DejaVuSans-20" transform="translate(516.574219 0)"/>
      <use xlink:href="#DejaVuSans-28" transform="translate(548.361328 0)"/>
      <use xlink:href="#DejaVuSans-4d" transform="translate(587.375 0)"/>
      <use xlink:href="#DejaVuSans-48" transform="translate(673.654297 0)"/>
      <use xlink:href="#DejaVuSans-7a" transform="translate(748.849609 0)"/>
      <use xlink:href="#DejaVuSans-29" transform="translate(801.339844 0)"/>
     </g>
    </g>
   </g>
   <g id="matplotlib.axis_2">
    <g id="ytick_1">
     <g id="line2d_11">
      <path d="M 53.03 246.04 
L 565.2 246.04 
" clip-path="url(#pd47a0861fd)" style="fill: none; stroke: #b0b0b0; stroke-width: 0.8; stroke-linecap: square"/>
     </g>
     <g id="line2d_12">
      <defs>
       <path id="m4b57f95b52" d="M 0 0 
L -3.5 0 
" style="stroke: #000000; stroke-width: 0.8"/>
      </defs>
      <g>
       <use xlink:href="#m4b57f95b52" x="53.03" y="246.04" style="stroke: #000000; stroke-width: 0.8"/>
      </g>
     </g>
     <g id="text_7">
      <!-- −80 -->
      <g transform="translate(24.925313 249.839219) scale(0.1 -0.1)">
       <defs>
        <path id="DejaVuSans-38" d="M 2034 2216 
Q 1584 2216 1326 1975 
Q 1069 1734 1069 1313 
Q 1069 891 1326 650 
Q 1584 409 2034 409 
Q 2484 409 2743 651 
Q 3003 894 3003 1313 
Q 3003 1734 2745 1975 
Q 2488 2216 2034 2216 
z
M 1403 2484 
Q 997 2584 770 2862 
Q 544 3141 544 3541 
Q 544 4100 942 4425 
Q 1341 4750 2034 4750 
Q 2731 4750 3128 4425 
Q 3525 4100 3525 3541 
Q 3525 3141 3298 2862 
Q 3072 2584 2669 2484 
Q 3125 2378 3379 2068 
Q 3634 1759 3634 1313 
Q 3634 634 3220 271 
Q 2806 -91 2034 -91 
Q 1263 -91 848 271 
Q 434 634 434 1313 
Q 434 1759 690 2068 
Q 947 2378 1403 2484 
z
M 1172 3481 
Q 1172 3119 1398 2916 
Q 1625 2713 2034 2713 
Q 2441 2713 2670 2916 
Q 2900 3119 2900 3481 
Q 2900 3844 2670 4047 
Q 2441 4250 2034 4250 
Q 1625 4250 1398 4047 
Q 1172 3844 1172 3481 
z
" transform="scale(0.015625)"/>
       </defs>
       <use xlink:href="#DejaVuSans-2212"/>
       <use xlink:href="#DejaVuSans-38" transform="translate(83.789062 0)"/>
       <use xlink:href="#DejaVuSans-30" transform="translate(147.412109 0)"/>
      </g>
     </g>
    </g>
    <g id="ytick_2">
     <g id="line2d_13">
      <path d="M 53.03 220.133899 
L 565.2 220.133899 
" clip-path="url(#pd47a0861fd)" style="fill: none; stroke: #b0b0b0; stroke-width: 0.8; stroke-linecap: square"/>
     </g>
     <g id="line2d_14">
      <g>
       <use xlink:href="#m4b57f95b52" x="53.03" y="220.133899" style="stroke: #000000; stroke-width: 0.8"/>
      </g>
     </g>
     <g id="text_8">
      <!-- −70 -->
      <g transform="translate(24.925313 223.933117) scale(0.1 -0.1)">
       <defs>
        <path id="DejaVuSans-37" d="M 525 4666 
L 3525 4666 
L 3525 4397 
L 1831 0 
L 1172 0 
L 2766 4134 
L 525 4134 
L 525 4666 
z
" transform="scale(0.015625)"/>
       </defs>
       <use xlink:href="#DejaVuSans-2212"/>
       <use xlink:href="#DejaVuSans-37" transform="translate(83.789062 0)"/>
       <use xlink:href="#DejaVuSans-30" transform="translate(147.412109 0)"/>
      </g>
     </g>
    </g>
    <g id="ytick_3">
     <g id="line2d_15">
      <path d="M 53.03 194.227797 
L 565.2 194.227797 
" clip-path="url(#pd47a0861fd)" style="fill: none; stroke: #b0b0b0; stroke-width: 0.8; stroke-linecap: square"/>
     </g>
     <g id="line2d_16">
      <g>
       <use xlink:href="#m4b57f95b52" x="53.03" y="194.227797" style="stroke: #000000; stroke-width: 0.8"/>
      </g>
     </g>
     <g id="text_9">
      <!-- −60 -->
      <g transform="translate(24.925313 198.027016) scale(0.1 -0.1)">
       <defs>
        <path id="DejaVuSans-36" d="M 2113 2584 
Q 1688 2584 1439 2293 
Q 1191 2003 1191 1497 
Q 1191 994 1439 701 
Q 1688 409 2113 409 
Q 2538 409 2786 701 
Q 3034 994 3034 1497 
Q 3034 2003 2786 2293 
Q 2538 2584 2113 2584 
z
M 3366 4563 
L 3366 3988 
Q 3128 4100 2886 4159 
Q 2644 4219 2406 4219 
Q 1781 4219 1451 3797 
Q 1122 3375 1075 2522 
Q 1259 2794 1537 2939 
Q 1816 3084 2150 3084 
Q 2853 3084 3261 2657 
Q 3669 2231 3669 1497 
Q 3669 778 3244 343 
Q 2819 -91 2113 -91 
Q 1303 -91 875 529 
Q 447 1150 447 2328 
Q 447 3434 972 4092 
Q 1497 4750 2381 4750 
Q 2619 4750 2861 4703 
Q 3103 4656 3366 4563 
z
" transform="scale(0.015625)"/>
       </defs>
       <use xlink:href="#DejaVuSans-2212"/>
       <use xlink:href="#DejaVuSans-36" transform="translate(83.789062 0)"/>
       <use xlink:href="#DejaVuSans-30" transform="translate(147.412109 0)"/>
      </g>
     </g>
    </g>
    <g id="ytick_4">
     <g id="line2d_17">
      <path d="M 53.03 168.321696 
L 565.2 168.321696 
" clip-path="url(#pd47a0861fd)" style="fill: none; stroke: #b0b0b0; stroke-width: 0.8; stroke-linecap: square"/>
     </g>
     <g id="line2d_18">
      <g>
       <use xlink:href="#m4b57f95b52" x="53.03" y="168.321696" style="stroke: #000000; stroke-width: 0.8"/>
      </g>
     </g>
     <g id="text_10">
      <!-- −50 -->
      <g transform="translate(24.925313 172.120914) scale(0.1 -0.1)">
       <defs>
        <path id="DejaVuSans-35" d="M 691 4666 
L 3169 4666 
L 3169 4134 
L 1269 4134 
L 1269 2991 
Q 1406 3038 1543 3061 
Q 1681 3084 1819 3084 
Q 2600 3084 3056 2656 
Q 3513 2228 3513 1497 
Q 3513 744 3044 326 
Q 2575 -91 1722 -91 
Q 1428 -91 1123 -41 
Q 819 9 494 109 
L 494 744 
Q 775 591 1075 516 
Q 1375 441 1709 441 
Q 2250 441 2565 725 
Q 2881 1009 2881 1497 
Q 2881 1984 2565 2268 
Q 2250 2553 1709 2553 
Q 1456 2553 1204 2497 
Q 953 2441 691 2322 
L 691 4666 
z
" transform="scale(0.015625)"/>
       </defs>
       <use xlink:href="#DejaVuSans-2212"/>
       <use xlink:href="#DejaVuSans-35" transform="translate(83.789062 0)"/>
       <use xlink:href="#DejaVuSans-30" transform="translate(147.412109 0)"/>
      </g>
     </g>
    </g>
    <g id="ytick_5">
     <g id="line2d_19">
      <path d="M 53.03 142.415594 
L 565.2 142.415594 
" clip-path="url(#pd47a0861fd)" style="fill: none; stroke: #b0b0b0; stroke-width: 0.8; stroke-linecap: square"/>
     </g>
     <g id="line2d_20">
      <g>
       <use xlink:href="#m4b57f95b52" x="53.03" y="142.415594" style="stroke: #000000; stroke-width: 0.8"/>
      </g>
     </g>
     <g id="text_11">
      <!-- −40 -->
      <g transform="translate(24.925313 146.214813) scale(0.1 -0.1)">
       <use xlink:href="#DejaVuSans-2212"/>
       <use xlink:href="#DejaVuSans-34" transform="translate(83.789062 0)"/>
       <use xlink:href="#DejaVuSans-30" transform="translate(147.412109 0)"/>
      </g>
     </g>
    </g>
    <g id="ytick_6">
     <g id="line2d_21">
      <path d="M 53.03 116.509493 
L 565.2 116.509493 
" clip-path="url(#pd47a0861fd)" style="fill: none; stroke: #b0b0b0; stroke-width: 0.8; stroke-linecap: square"/>
     </g>
     <g id="line2d_22">
      <g>
       <use xlink:href="#m4b57f95b52" x="53.03" y="116.509493" style="stroke: #000000; stroke-width: 0.8"/>
      </g>
     </g>
     <g id="text_12">
      <!-- −30 -->
      <g transform="translate(24.925313 120.308712) scale(0.1 -0.1)">
       <defs>
        <path id="DejaVuSans-33" d="M 2597 2516 
Q 3050 2419 3304 2112 
Q 3559 1806 3559 1356 
Q 3559 666 3084 287 
Q 2609 -91 1734 -91 
Q 1441 -91 1130 -33 
Q 819 25 488 141 
L 488 750 
Q 750 597 1062 519 
Q 1375 441 1716 441 
Q 2309 441 2620 675 
Q 2931 909 2931 1356 
Q 2931 1769 2642 2001 
Q 2353 2234 1838 2234 
L 1294 2234 
L 1294 2753 
L 1863 2753 
Q 2328 2753 2575 2939 
Q 2822 3125 2822 3475 
Q 2822 3834 2567 4026 
Q 2313 4219 1838 4219 
Q 1578 4219 1281 4162 
Q 984 4106 628 3988 
L 628 4550 
Q 988 4650 1302 4700 
Q 1616 4750 1894 4750 
Q 2613 4750 3031 4423 
Q 3450 4097 3450 3541 
Q 3450 3153 3228 2886 
Q 3006 2619 2597 2516 
z
" transform="scale(0.015625)"/>
       </defs>
       <use xlink:href="#DejaVuSans-2212"/>
       <use xlink:href="#DejaVuSans-33" transform="translate(83.789062 0)"/>
       <use xlink:href="#DejaVuSans-30" transform="translate(147.412109 0)"/>
      </g>
     </g>
    </g>
    <g id="ytick_7">
     <g id="line2d_23">
      <path d="M 53.03 90.603391 
L 565.2 90.603391 
" clip-path="url(#pd47a0861fd)" style="fill: none; stroke: #b0b0b0; stroke-width: 0.8; stroke-linecap: square"/>
     </g>
     <g id="line2d_24">
      <g>
       <use xlink:href="#m4b57f95b52" x="53.03" y="90.603391" style="stroke: #000000; stroke-width: 0.8"/>
      </g>
     </g>
     <g id="text_13">
      <!-- −20 -->
      <g transform="translate(24.925313 94.40261) scale(0.1 -0.1)">
       <use xlink:href="#DejaVuSans-2212"/>
       <use xlink:href="#DejaVuSans-32" transform="translate(83.789062 0)"/>
       <use xlink:href="#DejaVuSans-30" transform="translate(147.412109 0)"/>
      </g>
     </g>
    </g>
    <g id="ytick_8">
     <g id="line2d_25">
      <path d="M 53.03 64.69729 
L 565.2 64.69729 
" clip-path="url(#pd47a0861fd)" style="fill: none; stroke: #b0b0b0; stroke-width: 0.8; stroke-linecap: square"/>
     </g>
     <g id="line2d_26">
      <g>
       <use xlink:href="#m4b57f95b52" x="53.03" y="64.69729" style="stroke: #000000; stroke-width: 0.8"/>
      </g>
     </g>
     <g id="text_14">
      <!-- −10 -->
      <g transform="translate(24.925313 68.496509) scale(0.1 -0.1)">
       <defs>
        <path id="DejaVuSans-31" d="M 794 531 
L 1825 531 
L 1825 4091 
L 703 3866 
L 703 4441 
L 1819 4666 
L 2450 4666 
L 2450 531 
L 3481 531 
L 3481 0 
L 794 0 
L 794 531 
z
" transform="scale(0.015625)"/>
       </defs>
       <use xlink:href="#DejaVuSans-2212"/>
       <use xlink:href="#DejaVuSans-31" transform="translate(83.789062 0)"/>
       <use xlink:href="#DejaVuSans-30" transform="translate(147.412109 0)"/>
      </g>
     </g>
    </g>
    <g id="ytick_9">
     <g id="line2d_27">
      <path d="M 53.03 38.791188 
L 565.2 38.791188 
" clip-path="url(#pd47a0861fd)" style="fill: none; stroke: #b0b0b0; stroke-width: 0.8; stroke-linecap: square"/>
     </g>
     <g id="line2d_28">
      <g>
       <use xlink:href="#m4b57f95b52" x="53.03" y="38.791188" style="stroke: #000000; stroke-width: 0.8"/>
      </g>
     </g>
     <g id="text_15">
      <!-- 0 -->
      <g transform="translate(39.6675 42.590407) scale(0.1 -0.1)">
       <use xlink:href="#DejaVuSans-30"/>
      </g>
     </g>
    </g>
    <g id="text_16">
     <!-- Magnitude (dB) -->
     <g transform="translate(18.845625 174.685156) rotate(-90) scale(0.1 -0.1)">
      <defs>
       <path id="DejaVuSans-61" d="M 2194 1759 
Q 1497 1759 1228 1600 
Q 959 1441 959 1056 
Q 959 750 1161 570 
Q 1363 391 1709 391 
Q 2188 391 2477 730 
Q 2766 1069 2766 1631 
L 2766 1759 
L 2194 1759 
z
M 3341 1997 
L 3341 0 
L 2766 0 
L 2766 531 
Q 2569 213 2275 61 
Q 1981 -91 1556 -91 
Q 1019 -91 701 211 
Q 384 513 384 1019 
Q 384 1609 779 1909 
Q 1175 2209 1959 2209 
L 2766 2209 
L 2766 2266 
Q 2766 2663 2505 2880 
Q 2244 3097 1772 3097 
Q 1472 3097 1187 3025 
Q 903 2953 641 2809 
L 641 3341 
Q 956 3463 1253 3523 
Q 1550 3584 1831 3584 
Q 2591 3584 2966 3190 
Q 3341 2797 3341 1997 
z
" transform="scale(0.015625)"/>
       <path id="DejaVuSans-67" d="M 2906 1791 
Q 2906 2416 2648 2759 
Q 2391 3103 1925 3103 
Q 1463 3103 1205 2759 
Q 947 2416 947 1791 
Q 947 1169 1205 825 
Q 1463 481 1925 481 
Q 2391 481 2648 825 
Q 2906 1169 2906 1791 
z
M 3481 434 
Q 3481 -459 3084 -895 
Q 2688 -1331 1869 -1331 
Q 1566 -1331 1297 -1286 
Q 1028 -1241 775 -1147 
L 775 -588 
Q 1028 -725 1275 -790 
Q 1522 -856 1778 -856 
Q 2344 -856 2625 -561 
Q 2906 -266 2906 331 
L 2906 616 
Q 2728 306 2450 153 
Q 2172 0 1784 0 
Q 1141 0 747 490 
Q 353 981 353 1791 
Q 353 2603 747 3093 
Q 1141 3584 1784 3584 
Q 2172 3584 2450 3431 
Q 2728 3278 2906 2969 
L 2906 3500 
L 3481 3500 
L 3481 434 
z
" transform="scale(0.015625)"/>
       <path id="DejaVuSans-69" d="M 603 3500 
L 1178 3500 
L 1178 0 
L 603 0 
L 603 3500 
z
M 603 4863 
L 1178 4863 
L 1178 4134 
L 603 4134 
L 603 4863 
z
" transform="scale(0.015625)"/>
       <path id="DejaVuSans-74" d="M 1172 4494 
L 1172 3500 
L 2356 3500 
L 2356 3053 
L 1172 3053 
L 1172 1153 
Q 1172 725 1289 603 
Q 1406 481 1766 481 
L 2356 481 
L 2356 0 
L 1766 0 
Q 1100 0 847 248 
Q 594 497 594 1153 
L 594 3053 
L 172 3053 
L 172 3500 
L 594 3500 
L 594 4494 
L 1172 4494 
z
" transform="scale(0.015625)"/>
       <path id="DejaVuSans-64" d="M 2906 2969 
L 2906 4863 
L 3481 4863 
L 3481 0 
L 2906 0 
L 2906 525 
Q 2725 213 2448 61 
Q 2172 -91 1784 -91 
Q 1150 -91 751 415 
Q 353 922 353 1747 
Q 353 2572 751 3078 
Q 1150 3584 1784 3584 
Q 2172 3584 2448 3432 
Q 2725 3281 2906 2969 
z
M 947 1747 
Q 947 1113 1208 752 
Q 1469 391 1925 391 
Q 2381 391 2643 752 
Q 2906 1113 2906 1747 
Q 2906 2381 2643 2742 
Q 2381 3103 1925 3103 
Q 1469 3103 1208 2742 
Q 947 2381 947 1747 
z
" transform="scale(0.015625)"/>
       <path id="DejaVuSans-42" d="M 1259 2228 
L 1259 519 
L 2272 519 
Q 2781 519 3026 730 
Q 3272 941 3272 1375 
Q 3272 1813 3026 2020 
Q 2781 2228 2272 2228 
L 1259 2228 
z
M 1259 4147 
L 1259 2741 
L 2194 2741 
Q 2656 2741 2882 2914 
Q 3109 3088 3109 3444 
Q 3109 3797 2882 3972 
Q 2656 4147 2194 4147 
L 1259 4147 
z
M 628 4666 
L 2241 4666 
Q 2963 4666 3353 4366 
Q 3744 4066 3744 3513 
Q 3744 3084 3544 2831 
Q 3344 2578 2956 2516 
Q 3422 2416 3680 2098 
Q 3938 1781 3938 1306 
Q 3938 681 3513 340 
Q 3088 0 2303 0 
L 628 0 
L 628 4666 
z
" transform="scale(0.015625)"/>
      </defs>
      <use xlink:href="#DejaVuSans-4d"/>
      <use xlink:href="#DejaVuSans-61" transform="translate(86.279297 0)"/>
      <use xlink:href="#DejaVuSans-67" transform="translate(147.558594 0)"/>
      <use xlink:href="#DejaVuSans-6e" transform="translate(211.035156 0)"/>
      <use xlink:href="#DejaVuSans-69" transform="translate(274.414062 0)"/>
      <use xlink:href="#DejaVuSans-74" transform="translate(302.197266 0)"/>
      <use xlink:href="#DejaVuSans-75" transform="translate(341.40625 0)"/>
      <use xlink:href="#DejaVuSans-64" transform="translate(404.785156 0)"/>
      <use xlink:href="#DejaVuSans-65" transform="translate(468.261719 0)"/>
      <use xlink:href="#DejaVuSans-20" transform="translate(529.785156 0)"/>
      <use xlink:href="#DejaVuSans-28" transform="translate(561.572266 0)"/>
      <use xlink:href="#DejaVuSans-64" transform="translate(600.585938 0)"/>
      <use xlink:href="#DejaVuSans-42" transform="translate(664.0625 0)"/>
      <use xlink:href="#DejaVuSans-29" transform="translate(732.666016 0)"/>
     </g>
    </g>
   </g>
   <g id="line2d_29">
    <path d="M 53.03 249.642388 
L 53.53041 232.773712 
L 53.780616 234.539688 
L 54.030821 238.280523 
L 54.281026 247.154497 
L 54.781436 221.128235 
L 55.031641 226.8476 
L 55.281847 240.27487 
L 55.782257 244.548498 
L 56.032462 250.702519 
L 56.282667 249.743925 
L 56.532872 267.144932 
L 56.783078 238.061002 
L 57.033283 246.895647 
L 57.283488 241.037401 
L 57.533693 224.204121 
L 57.783898 219.661598 
L 58.534514 227.784143 
L 58.784719 251.837679 
L 59.034924 234.449502 
L 59.285129 225.813345 
L 59.535335 230.430925 
L 59.78554 244.388709 
L 60.28595 218.073745 
L 60.536155 220.138139 
L 60.786361 230.030865 
L 61.036566 227.434979 
L 61.286771 227.105791 
L 61.536976 241.481082 
L 61.787181 274.732158 
L 62.287592 240.757847 
L 62.537797 234.735365 
L 63.038207 278.414666 
L 63.538617 233.811072 
L 63.788823 232.934625 
L 64.039028 234.630123 
L 64.289233 234.981586 
L 64.539438 247.598537 
L 64.789643 224.70192 
L 65.039849 224.600445 
L 65.290054 267.630608 
L 65.540259 233.583519 
L 65.790464 226.122919 
L 66.040669 230.432748 
L 66.201789 289 
M 66.375303 289 
L 66.54108 225.415957 
L 66.791285 221.335104 
L 67.291695 253.265333 
L 67.5419 235.01919 
L 67.792106 234.458564 
L 68.042311 253.59261 
L 68.292516 260.043504 
L 68.542721 286.109442 
L 68.792926 237.087292 
L 69.043131 230.405723 
L 69.293337 234.725687 
L 69.543542 232.35983 
L 69.793747 231.862378 
L 70.294157 256.018242 
L 70.544362 252.019201 
L 70.794568 266.468405 
L 71.044773 246.069915 
L 71.294978 239.492111 
L 71.545183 237.34556 
L 71.795388 228.970169 
L 72.045594 232.907172 
L 72.295799 239.409065 
L 72.546004 237.06036 
L 72.796209 240.170305 
L 73.046414 225.753298 
L 73.296619 226.092601 
L 73.546825 247.97804 
L 73.79703 239.836771 
L 74.047235 225.285475 
L 74.29744 221.424969 
L 75.048056 232.384192 
L 75.298261 239.691534 
L 75.548466 253.646044 
L 75.798671 253.13801 
L 76.048876 224.395801 
L 76.299082 215.895902 
L 76.549287 220.667782 
L 76.799492 236.345403 
L 77.049697 239.979539 
L 77.550107 224.836933 
L 77.800313 229.401717 
L 78.300723 261.420769 
L 78.550928 252.655457 
L 78.801133 231.892907 
L 79.051339 231.329175 
L 79.301544 247.776941 
L 79.551749 227.62563 
L 79.801954 220.773206 
L 80.052159 233.409615 
L 80.302364 230.917029 
L 80.55257 222.422543 
L 80.802775 225.1578 
L 81.05298 240.465402 
L 81.303185 270.144043 
L 81.55339 243.257304 
L 81.803596 231.000835 
L 82.053801 256.571872 
L 82.304006 228.196786 
L 82.554211 223.943671 
L 83.054621 247.200195 
L 83.304827 243.654716 
L 83.555032 234.103194 
L 83.805237 240.917049 
L 84.055442 280.446227 
L 84.305647 271.750661 
L 84.806058 234.772754 
L 85.056263 233.118469 
L 85.306468 250.645747 
L 85.556673 256.415698 
L 86.057084 226.889476 
L 86.307289 219.610846 
L 86.557494 220.556264 
L 86.807699 232.624776 
L 87.057904 257.917025 
L 87.308109 228.837194 
L 87.558315 225.440266 
L 87.80852 239.410083 
L 88.058725 236.957757 
L 88.30893 215.891556 
L 88.559135 214.345241 
L 88.80934 221.687336 
L 89.059546 224.635798 
L 89.309751 225.341764 
L 89.810161 243.020814 
L 90.060366 247.219735 
L 90.310572 266.690408 
L 90.810982 234.146125 
L 91.061187 235.983389 
L 91.561597 271.100874 
L 92.062008 233.417999 
L 92.312213 231.982107 
L 92.562418 233.961109 
L 92.812623 233.845968 
L 93.313034 226.84238 
L 93.563239 234.238651 
L 93.813444 245.645296 
L 94.063649 248.204103 
L 94.313854 246.552994 
L 94.56406 251.762478 
L 94.814265 250.597678 
L 95.06447 239.181028 
L 95.314675 277.216024 
L 95.56488 234.691419 
L 95.815085 222.889554 
L 96.065291 222.333126 
L 96.315496 226.789394 
L 96.565701 234.686068 
L 96.815906 256.416476 
L 97.066111 252.624622 
L 97.566522 229.178155 
L 98.317137 209.480097 
L 98.567342 213.194328 
L 99.067753 229.678664 
L 99.317958 232.57194 
L 99.568163 230.171642 
L 99.818368 234.94639 
L 100.068574 246.040076 
L 100.819189 227.762547 
L 101.319599 218.614256 
L 101.569805 216.467693 
L 101.82001 222.170565 
L 102.070215 234.002047 
L 102.32042 240.265836 
L 102.570625 235.693522 
L 102.82083 242.003767 
L 103.071036 258.241744 
L 103.321241 226.582148 
L 103.571446 218.762264 
L 103.821651 221.156779 
L 104.322062 232.397016 
L 104.572267 233.330251 
L 104.822472 239.705526 
L 105.072677 261.212445 
L 105.322882 233.059714 
L 105.573087 229.286846 
L 105.823293 230.477135 
L 106.073498 226.757555 
L 106.323703 240.169666 
L 106.573908 260.059591 
L 106.824113 233.488688 
L 107.324524 212.142092 
L 107.574729 214.629912 
L 107.824934 235.332346 
L 108.325344 217.243201 
L 108.57555 221.658039 
L 109.07596 246.874959 
L 109.326165 232.964938 
L 109.826575 220.971659 
L 110.076781 221.230038 
L 110.326986 232.739202 
L 110.577191 237.080929 
L 110.827396 224.020312 
L 111.077601 224.229909 
L 111.327807 230.862858 
L 111.578012 247.942547 
L 112.328627 225.022556 
L 112.829038 218.707533 
L 113.079243 219.211729 
L 113.329448 228.638719 
L 113.579653 259.320055 
L 113.829858 247.61256 
L 114.080064 229.984624 
L 114.330269 221.901514 
L 114.580474 220.162 
L 114.830679 226.361167 
L 115.331089 224.304977 
L 115.581295 238.808202 
L 115.8315 259.941882 
L 116.081705 232.454307 
L 116.33191 231.702903 
L 116.582115 233.894687 
L 116.83232 231.541812 
L 117.082526 226.432909 
L 117.332731 229.781591 
L 117.582936 278.68386 
L 117.833141 230.730103 
L 118.083346 224.296652 
L 118.833962 235.066157 
L 119.084167 241.522958 
L 119.334372 240.952539 
L 119.584577 237.836345 
L 120.084988 247.395021 
L 120.585398 226.969813 
L 121.336014 219.783373 
L 121.586219 224.889122 
L 121.836424 221.203837 
L 122.086629 213.814701 
L 122.336834 214.068429 
L 122.837245 222.947878 
L 123.08745 222.089978 
L 123.337655 218.980298 
L 123.58786 240.247498 
L 123.838065 233.322622 
L 124.088271 223.010712 
L 124.338476 229.954523 
L 124.588681 241.900331 
L 124.838886 266.851742 
L 125.339297 233.455757 
L 125.589502 233.166743 
L 125.839707 237.291903 
L 126.089912 257.721992 
L 126.340117 228.753491 
L 126.590322 226.593384 
L 126.840528 237.382175 
L 127.090733 236.482018 
L 127.591143 258.090045 
L 127.841348 230.749201 
L 128.091553 224.469937 
L 128.591964 222.397043 
L 128.842169 226.061099 
L 129.092374 233.724073 
L 129.342579 233.126886 
L 129.592785 226.240988 
L 129.84299 232.914086 
L 130.093195 244.539048 
L 130.3434 233.770214 
L 130.593605 235.139211 
L 130.84381 231.651622 
L 131.094016 226.023647 
L 131.344221 233.242414 
L 131.594426 281.581612 
L 131.844631 234.998994 
L 132.094836 219.263505 
L 132.345042 213.462254 
L 132.595247 213.565462 
L 132.845452 219.112825 
L 133.596067 243.31728 
L 134.096478 223.865574 
L 134.346683 225.044024 
L 134.596888 248.27349 
L 135.097298 234.540435 
L 135.347504 256.917865 
L 135.597709 268.286011 
L 136.348324 225.317919 
L 136.59853 228.9928 
L 136.848735 226.339033 
L 137.09894 221.92978 
L 137.349145 222.616843 
L 137.59935 226.76978 
L 137.849555 228.291069 
L 138.349966 241.768279 
L 138.850376 230.97878 
L 139.100581 232.112409 
L 139.350787 229.711627 
L 139.600992 237.156861 
L 139.851197 261.804385 
L 140.101402 256.859822 
L 140.351607 234.281177 
L 140.601812 227.555824 
L 140.852018 228.630681 
L 141.102223 234.682666 
L 141.352428 267.880324 
L 141.602633 241.517332 
L 141.852838 238.383731 
L 142.103043 249.815155 
L 142.353249 267.864186 
L 142.603454 237.987862 
L 142.853659 223.051464 
L 143.103864 226.103972 
L 143.354069 232.98768 
L 143.604275 235.972993 
L 143.85448 240.762153 
L 144.104685 237.014631 
L 144.35489 226.323554 
L 144.605095 224.497704 
L 144.8553 234.795797 
L 145.105506 284.44556 
L 145.355711 230.531513 
L 145.605916 220.224976 
L 145.856121 226.649401 
L 146.106326 247.34824 
L 146.356532 226.536461 
L 146.606737 226.517675 
L 146.856942 238.329041 
L 147.107147 271.508524 
L 147.357352 235.689643 
L 147.607557 224.582462 
L 147.857763 225.905538 
L 148.608378 238.015469 
L 149.108788 250.723052 
L 149.609199 243.961919 
L 149.859404 265.089146 
L 150.109609 232.84754 
L 150.359814 226.669216 
L 150.61002 231.618912 
L 150.860225 251.0932 
L 151.61084 216.530448 
L 151.861045 220.832574 
L 152.361456 239.245518 
L 152.611661 243.491824 
L 153.112071 228.044556 
L 153.362277 231.069648 
L 153.612482 244.918643 
L 154.363097 216.433212 
L 154.613302 226.407227 
L 154.863508 229.228662 
L 155.113713 222.161466 
L 155.363918 223.910552 
L 155.614123 221.555322 
L 155.864328 221.756987 
L 156.364739 245.217154 
L 156.614944 239.360193 
L 156.865149 228.740736 
L 157.115354 223.256823 
L 157.365559 223.262455 
L 157.615765 227.697848 
L 157.86597 236.460206 
L 158.116175 235.094578 
L 158.36638 226.372056 
L 158.616585 224.608738 
L 159.116996 236.470748 
L 159.617406 213.825782 
L 159.867611 212.615074 
L 160.117816 217.964142 
L 160.368021 232.496349 
L 160.618227 284.516276 
L 160.868432 243.247263 
L 161.118637 240.60562 
L 161.368842 259.638984 
L 161.619047 227.915707 
L 161.869253 223.561556 
L 162.369663 259.917522 
L 162.619868 254.567701 
L 162.870073 241.022357 
L 163.120278 241.097602 
L 163.370484 257.516873 
L 163.620689 248.160483 
L 163.870894 243.518352 
L 164.121099 230.704893 
L 164.371304 239.611495 
L 164.62151 239.655107 
L 164.871715 222.655915 
L 165.12192 223.22184 
L 165.372125 226.598757 
L 165.62233 225.551779 
L 165.872535 230.091523 
L 166.122741 246.826354 
L 166.372946 242.84371 
L 166.623151 244.229878 
L 166.770402 289 
M 166.978202 289 
L 167.123561 245.60269 
L 167.373766 252.864238 
L 167.623972 255.273738 
L 167.874177 248.678184 
L 168.124382 249.974138 
L 168.374587 241.948044 
L 168.624792 227.657661 
L 168.874998 223.021964 
L 169.125203 227.081452 
L 169.375408 225.915702 
L 169.625613 220.554964 
L 169.875818 221.537515 
L 170.126023 229.452366 
L 170.376229 232.070131 
L 170.626434 222.785432 
L 170.876639 218.284569 
L 171.126844 218.253605 
L 171.377049 221.228648 
L 171.87746 224.119582 
L 172.37787 240.346977 
L 172.628075 235.593897 
L 172.87828 222.63256 
L 173.128486 220.285751 
L 173.378691 222.335788 
L 173.879101 232.052102 
L 174.129306 230.226374 
L 174.379511 225.904404 
L 174.879922 233.374466 
L 175.130127 233.645787 
L 175.380332 250.10264 
L 175.630537 220.276622 
L 175.880743 214.698689 
L 176.130948 228.116427 
L 176.631358 241.070456 
L 177.131768 221.382704 
L 177.381974 231.357013 
L 177.632179 246.947179 
L 177.882384 234.375461 
L 178.132589 228.524171 
L 178.382794 229.587157 
L 178.633 241.524512 
L 178.883205 263.662321 
L 179.13341 255.98607 
L 179.383615 263.998605 
L 179.63382 225.686517 
L 179.884025 218.527269 
L 180.134231 225.389738 
L 180.384436 243.702509 
L 180.634641 246.206151 
L 180.884846 245.202992 
L 181.385256 231.089346 
L 181.635462 230.885605 
L 181.885667 240.247233 
L 182.135872 238.287101 
L 182.386077 229.868208 
L 182.636282 231.631856 
L 182.886488 242.741454 
L 183.073618 289 
M 183.201029 289 
L 183.386898 243.954599 
L 183.637103 234.251933 
L 183.887308 239.777289 
L 184.137513 251.594712 
L 184.637924 219.337331 
L 184.888129 213.264598 
L 185.138334 217.556088 
L 185.388539 234.079233 
L 185.638745 259.70495 
L 185.88895 260.068392 
L 186.139155 254.208505 
L 186.639565 248.569575 
L 187.390181 231.017758 
L 187.640386 239.240583 
L 187.890591 261.42081 
L 188.140796 235.19382 
L 188.391001 222.548856 
L 188.641207 218.136154 
L 188.891412 218.97794 
L 189.141617 225.500867 
L 189.642027 245.163717 
L 190.392643 231.995745 
L 190.642848 237.398783 
L 190.893053 255.325403 
L 191.143258 256.052083 
L 191.393464 235.071566 
L 191.643669 229.423606 
L 192.144079 240.523329 
L 192.394284 236.406082 
L 192.644489 236.725722 
L 192.894695 240.904082 
L 193.1449 220.919069 
L 193.395105 213.782217 
L 193.64531 214.017129 
L 193.895515 219.549003 
L 194.145721 236.096279 
L 194.395926 263.373344 
L 194.896336 231.750653 
L 195.146541 231.41786 
L 195.396746 229.04947 
L 195.897157 86.11508 
L 196.147362 54.426952 
L 196.397567 40.218218 
L 196.647772 41.110301 
L 196.897978 57.242615 
L 197.148183 91.417616 
L 197.398388 152.825193 
L 197.648593 269.026443 
L 197.898798 273.612442 
L 198.149003 266.47056 
L 198.399209 267.405757 
L 198.649414 249.296947 
L 198.899619 249.693874 
L 199.149824 234.967729 
L 199.400029 236.144007 
L 199.650234 240.238169 
L 199.90044 233.655872 
L 200.40085 226.722405 
L 200.651055 225.999096 
L 201.151466 228.417498 
L 201.651876 235.869661 
L 201.902081 233.653302 
L 202.152286 233.695415 
L 202.402491 241.081382 
L 202.652697 240.165453 
L 202.902902 232.817922 
L 203.153107 231.481016 
L 203.653517 225.545993 
L 203.903723 229.834665 
L 204.153928 237.703273 
L 204.404133 241.482228 
L 204.654338 261.963232 
L 204.904543 267.149461 
L 205.154748 239.387408 
L 205.404954 231.821896 
L 205.655159 233.763383 
L 205.905364 246.5598 
L 206.405774 233.991455 
L 206.655979 236.329422 
L 206.906185 240.742251 
L 207.15639 235.793207 
L 207.406595 225.79186 
L 207.6568 225.242301 
L 208.157211 238.604694 
L 208.657621 232.589019 
L 208.907826 257.619073 
L 209.158031 235.248174 
L 209.408236 233.659732 
L 209.658442 275.802347 
L 209.908647 230.403258 
L 210.158852 229.379295 
L 210.409057 244.08387 
L 210.659262 226.210773 
L 210.909468 218.911624 
L 211.159673 228.220933 
L 211.332066 289 
M 211.496285 289 
L 211.660083 236.995957 
L 211.910288 231.436348 
L 212.160493 229.760453 
L 212.660904 229.77888 
L 212.911109 224.158268 
L 213.161314 225.418628 
L 213.411519 233.960135 
L 213.661724 236.125083 
L 213.91193 231.357172 
L 214.162135 232.559551 
L 214.662545 252.85212 
L 215.162956 221.852121 
L 215.413161 216.027958 
L 215.663366 223.923613 
L 215.913571 258.005002 
L 216.163776 243.671906 
L 216.413981 275.545923 
L 216.664187 232.996065 
L 216.914392 217.702327 
L 217.164597 214.683261 
L 217.414802 219.347368 
L 217.915213 257.330926 
L 218.165418 237.872445 
L 218.415623 249.824863 
L 218.665828 234.301388 
L 218.916033 232.744129 
L 219.166238 235.21803 
L 219.416444 233.446489 
L 219.666649 227.788866 
L 219.916854 228.906989 
L 220.167059 228.770418 
L 220.417264 219.925802 
L 220.667469 219.976141 
L 220.917675 226.815392 
L 221.16788 207.48113 
L 221.418085 130.933237 
L 221.66829 90.657303 
L 221.918495 69.933944 
L 222.168701 64.891699 
L 222.418906 74.76681 
L 222.669111 101.137631 
L 222.919316 149.504961 
L 223.169521 224.972867 
L 223.419726 228.017329 
L 223.669932 220.920636 
L 223.920137 218.417782 
L 224.170342 223.36076 
L 224.420547 230.948489 
L 224.920957 224.013897 
L 225.421368 253.320533 
L 225.671573 228.013367 
L 226.171983 214.524848 
L 226.422189 211.46004 
L 226.672394 212.818327 
L 227.172804 229.222463 
L 227.423009 243.273962 
L 227.673214 264.301941 
L 227.92342 267.446806 
L 228.173625 243.71991 
L 228.674035 232.300622 
L 229.174446 241.498261 
L 229.424651 243.170468 
L 229.674856 241.103393 
L 230.175266 222.385726 
L 230.425471 221.427742 
L 230.675677 229.947532 
L 230.925882 244.009971 
L 231.176087 241.250937 
L 231.426292 230.383604 
L 231.676497 231.946857 
L 231.926702 243.887566 
L 232.176908 226.753042 
L 232.427113 224.437605 
L 232.677318 233.848636 
L 232.927523 237.396551 
L 233.427934 250.879817 
L 233.678139 223.934131 
L 233.928344 216.283875 
L 234.178549 217.320436 
L 234.678959 235.807287 
L 234.929165 244.553842 
L 235.17937 248.664214 
L 235.429575 245.741299 
L 235.929985 221.826691 
L 236.180191 220.96524 
L 236.430396 224.916042 
L 236.680601 222.877579 
L 236.930806 219.079698 
L 237.431216 230.123867 
L 237.681422 221.858346 
L 237.931627 221.270645 
L 238.181832 228.299733 
L 238.432037 231.438789 
L 238.682242 237.860829 
L 239.182653 224.127981 
L 239.432858 221.922963 
L 239.683063 221.746423 
L 240.183473 232.976051 
L 240.934089 227.991075 
L 241.184294 234.834603 
L 241.434499 226.337205 
L 241.93491 237.995371 
L 242.43532 249.575543 
L 242.685525 223.576647 
L 242.93573 225.113638 
L 243.185936 247.158815 
L 243.436141 244.830018 
L 243.686346 258.245469 
L 243.936551 238.357273 
L 244.186756 249.71453 
L 244.436961 241.05371 
L 244.687167 221.005221 
L 244.937372 214.531748 
L 245.187577 218.821163 
L 245.437782 229.858908 
L 245.938192 218.26624 
L 246.188398 221.198724 
L 246.438603 234.533639 
L 246.688808 279.536696 
L 246.939013 259.10449 
L 247.189218 252.591927 
L 247.439424 242.550301 
L 247.689629 247.119854 
L 248.190039 221.565627 
L 248.440244 218.466462 
L 248.690449 225.409874 
L 248.940655 242.064583 
L 249.19086 266.382006 
L 249.441065 226.945088 
L 249.69127 222.622509 
L 250.191681 260.347002 
L 250.441886 240.099475 
L 250.942296 249.869272 
L 251.192501 236.939154 
L 251.442706 248.054172 
L 251.692912 237.257162 
L 251.943117 253.385143 
L 252.693732 241.583291 
L 252.943937 240.689901 
L 253.194143 247.069958 
L 253.444348 235.785369 
L 253.694553 243.350432 
L 253.944758 242.42443 
L 254.194963 230.51059 
L 254.445169 226.39569 
L 254.695374 229.07901 
L 254.945579 234.040331 
L 255.445989 221.163745 
L 255.9464 231.091728 
L 256.196605 232.956513 
L 256.44681 239.09319 
L 256.697015 271.825352 
L 256.94722 230.871879 
L 257.197426 224.327278 
L 257.447631 229.07324 
L 257.697836 246.337494 
L 257.948041 228.605587 
L 258.198246 224.326914 
L 258.448451 252.581684 
L 258.698657 226.665395 
L 258.948862 220.180742 
L 259.199067 244.713224 
L 259.449272 243.337801 
L 259.949682 247.465034 
L 260.199888 251.965964 
L 260.450093 265.699996 
L 260.700298 236.253653 
L 260.950503 223.983279 
L 261.200708 223.365851 
L 261.450914 234.059575 
L 261.701119 261.002352 
L 261.951324 245.912655 
L 262.201529 238.579064 
L 262.451734 238.377537 
L 262.701939 246.908528 
L 263.20235 279.036268 
L 263.452555 258.152252 
L 263.70276 258.934693 
L 263.952965 229.822072 
L 264.20317 227.267425 
L 264.453376 234.258555 
L 264.703581 237.06787 
L 264.953786 236.303795 
L 265.454196 226.07484 
L 265.704402 226.347523 
L 266.204812 243.942014 
L 266.455017 237.239366 
L 266.705222 237.67293 
L 266.955427 247.234151 
L 267.205633 232.209823 
L 267.455838 234.383742 
L 267.706043 254.903379 
L 267.956248 245.755026 
L 268.206453 261.454593 
L 268.456659 238.136022 
L 268.957069 224.083861 
L 269.207274 229.615209 
L 269.457479 240.53333 
L 269.95789 229.25717 
L 270.208095 230.291915 
L 270.4583 224.830575 
L 270.708505 222.39919 
L 270.95871 227.792155 
L 271.959531 269.300522 
L 272.209736 244.951676 
L 272.459941 258.846435 
L 272.710147 254.635221 
L 272.960352 236.992544 
L 273.210557 227.776652 
L 273.460762 225.880787 
L 273.710967 243.865342 
L 273.961172 245.792759 
L 274.211378 229.877228 
L 274.461583 231.880587 
L 274.711788 231.115424 
L 274.961993 227.955067 
L 275.212198 227.750164 
L 275.462404 230.671656 
L 275.712609 236.937134 
L 275.962814 238.057559 
L 276.213019 235.974685 
L 276.463224 241.842579 
L 276.713429 262.706783 
L 276.859607 289 
M 277.05046 289 
L 277.21384 253.790663 
L 277.464045 231.279838 
L 277.71425 222.719899 
L 277.964455 224.00526 
L 278.21466 233.795964 
L 278.715071 259.269353 
L 278.965276 249.645943 
L 279.215481 227.761218 
L 279.465686 218.774291 
L 279.715892 219.118536 
L 279.966097 223.614082 
L 280.216302 238.575334 
L 280.716712 213.970816 
L 280.966917 217.643902 
L 281.467328 238.019538 
L 281.717533 232.228281 
L 281.967738 244.86466 
L 282.217943 245.783541 
L 282.468149 253.971637 
L 282.718354 224.867185 
L 282.968559 215.208105 
L 283.218764 218.417933 
L 283.468969 235.399877 
L 283.719174 262.124397 
L 284.219585 238.676382 
L 284.9702 220.423049 
L 285.220405 230.572155 
L 285.470611 275.385984 
L 285.720816 242.850092 
L 285.971021 225.796252 
L 286.221226 221.305263 
L 286.471431 227.418228 
L 286.721637 239.528707 
L 286.971842 235.068743 
L 287.222047 220.492617 
L 287.472252 214.614041 
L 287.722457 220.030562 
L 287.972662 245.805733 
L 288.222868 245.894182 
L 288.473073 232.216715 
L 288.723278 237.631862 
L 288.973483 247.69726 
L 289.223688 234.984919 
L 289.473894 231.181228 
L 289.724099 241.139036 
L 289.974304 269.87164 
L 290.224509 233.201569 
L 290.474714 230.261842 
L 290.975125 243.528646 
L 291.22533 226.206526 
L 291.475535 220.297944 
L 291.72574 223.031287 
L 291.975945 223.992424 
L 292.22615 231.089414 
L 292.476356 249.846018 
L 292.726561 230.704279 
L 292.976766 226.41544 
L 293.226971 242.836635 
L 293.477176 241.224273 
L 293.727382 220.443816 
L 293.977587 215.50243 
L 294.227792 217.666674 
L 294.477997 226.157015 
L 294.728202 249.216353 
L 295.228613 225.4762 
L 295.478818 221.259959 
L 295.979228 218.152967 
L 296.229433 217.072961 
L 296.479638 218.869183 
L 296.729844 228.619485 
L 296.980049 233.712858 
L 297.230254 224.647091 
L 297.480459 221.956518 
L 297.730664 225.95311 
L 297.98087 237.47757 
L 298.231075 266.156285 
L 298.48128 259.164977 
L 298.731485 245.702937 
L 298.98169 246.171984 
L 299.231895 258.017736 
L 299.482101 251.687606 
L 299.732306 240.682953 
L 299.982511 238.546634 
L 300.733127 258.136221 
L 300.983332 251.991903 
L 301.233537 236.821252 
L 301.483742 241.766445 
L 301.733947 239.366983 
L 301.984152 218.677637 
L 302.234358 211.334858 
L 302.484563 212.410683 
L 302.734768 218.652613 
L 303.235178 237.704133 
L 303.735589 224.258646 
L 304.235999 208.355151 
L 304.486204 209.854843 
L 304.736409 220.241924 
L 305.23682 255.217394 
L 305.487025 233.149186 
L 305.73723 227.543338 
L 305.987435 227.101616 
L 306.487846 218.218944 
L 306.738051 221.321396 
L 307.238461 234.055078 
L 307.488666 233.830908 
L 308.239282 216.637067 
L 308.489487 215.905336 
L 309.240103 233.271355 
L 309.490308 230.094749 
L 309.990718 215.905336 
L 310.240923 216.637067 
L 310.991539 233.830908 
L 311.241744 234.055078 
L 311.99236 218.218944 
L 312.49277 227.101616 
L 312.742975 227.543338 
L 312.99318 233.149186 
L 313.243385 255.217394 
L 313.743796 220.241924 
L 313.994001 209.854843 
L 314.244206 208.355151 
L 314.494411 214.713009 
L 314.994822 231.969703 
L 315.245027 237.704133 
L 315.995642 212.410683 
L 316.245848 211.334858 
L 316.496053 218.677637 
L 316.746258 239.366983 
L 316.996463 241.766445 
L 317.246668 236.821252 
L 317.496873 251.991903 
L 317.747079 258.136221 
L 318.497694 238.546634 
L 318.747899 240.682953 
L 319.24831 258.017736 
L 319.498515 246.171984 
L 319.74872 245.702937 
L 319.998925 259.164977 
L 320.24913 266.156285 
L 320.499336 237.47757 
L 320.749541 225.95311 
L 320.999746 221.956518 
L 321.249951 224.647091 
L 321.500156 233.712858 
L 321.750362 228.619485 
L 322.000567 218.869183 
L 322.250772 217.072961 
L 322.751182 219.606192 
L 323.001387 221.259959 
L 323.251593 225.4762 
L 323.752003 249.216353 
L 324.002208 226.157015 
L 324.252413 217.666674 
L 324.502618 215.50243 
L 324.752824 220.443816 
L 325.003029 241.224273 
L 325.253234 242.836635 
L 325.503439 226.41544 
L 325.753644 230.704279 
L 326.00385 249.846018 
L 326.254055 231.089414 
L 326.50426 223.992424 
L 326.754465 223.031287 
L 327.00467 220.297944 
L 327.254875 226.206526 
L 327.505081 243.528646 
L 328.005491 230.261842 
L 328.255696 233.201569 
L 328.505901 269.87164 
L 328.756106 241.139036 
L 329.006312 231.181228 
L 329.256517 234.984919 
L 329.506722 247.69726 
L 329.756927 237.631862 
L 330.007132 232.216715 
L 330.257338 245.894182 
L 330.507543 245.805733 
L 330.757748 220.030562 
L 331.007953 214.614041 
L 331.258158 220.492617 
L 331.508363 235.068743 
L 331.758569 239.528707 
L 332.008774 227.418228 
L 332.258979 221.305263 
L 332.509184 225.796252 
L 332.759389 242.850092 
L 333.009595 275.385984 
L 333.2598 230.572155 
L 333.510005 220.423049 
L 333.76021 224.39942 
L 334.510826 249.698935 
L 334.761031 262.124397 
L 335.261441 218.417933 
L 335.511646 215.208105 
L 335.761851 224.867185 
L 336.012057 253.971637 
L 336.262262 245.783541 
L 336.512467 244.86466 
L 336.762672 232.228281 
L 337.012877 238.019538 
L 337.263083 230.351877 
L 337.513288 217.643902 
L 337.763493 213.970816 
L 338.013698 222.946823 
L 338.263903 238.575334 
L 338.514108 223.614082 
L 338.764314 219.118536 
L 339.014519 218.774291 
L 339.264724 227.761218 
L 339.514929 249.645943 
L 339.765134 259.269353 
L 340.51575 224.00526 
L 340.765955 222.719899 
L 341.01616 231.279838 
L 341.266365 253.790663 
L 341.429745 289 
M 341.620598 289 
L 341.766776 262.706783 
L 342.016981 241.842579 
L 342.267186 235.974685 
L 342.517391 238.057559 
L 342.767596 236.937134 
L 343.017802 230.671656 
L 343.268007 227.750164 
L 343.518212 227.955067 
L 343.768417 231.115424 
L 344.018622 231.880587 
L 344.268828 229.877228 
L 344.519033 245.792759 
L 344.769238 243.865342 
L 345.019443 225.880787 
L 345.269648 227.776652 
L 345.519853 236.992544 
L 345.770059 254.635221 
L 346.020264 258.846435 
L 346.270469 244.951676 
L 346.520674 269.300522 
L 347.021085 244.797099 
L 347.27129 238.10808 
L 347.521495 227.792155 
L 347.7717 222.39919 
L 348.021905 224.830575 
L 348.27211 230.291915 
L 348.522316 229.25717 
L 348.772521 233.662376 
L 349.022726 240.53333 
L 349.272931 229.615209 
L 349.523136 224.083861 
L 350.023547 238.136022 
L 350.273752 261.454593 
L 350.523957 245.755026 
L 350.774162 254.903379 
L 351.024367 234.383742 
L 351.274573 232.209823 
L 351.524778 247.234151 
L 351.774983 237.67293 
L 352.025188 237.239366 
L 352.275393 243.942014 
L 352.775804 226.347523 
L 353.026009 226.07484 
L 353.526419 236.303795 
L 353.776624 237.06787 
L 354.02683 234.258555 
L 354.277035 227.267425 
L 354.52724 229.822072 
L 354.777445 258.934693 
L 355.02765 258.152252 
L 355.277855 279.036268 
L 355.528061 267.246444 
L 355.778266 246.908528 
L 356.028471 238.377537 
L 356.278676 238.579064 
L 356.528881 245.912655 
L 356.779086 261.002352 
L 357.029292 234.059575 
L 357.279497 223.365851 
L 357.529702 223.983279 
L 357.779907 236.253653 
L 358.030112 265.699996 
L 358.280318 251.965964 
L 358.530523 247.465034 
L 359.030933 243.337801 
L 359.281138 244.713224 
L 359.531343 220.180742 
L 359.781549 226.665395 
L 360.031754 252.581684 
L 360.281959 224.326914 
L 360.532164 228.605587 
L 360.782369 246.337494 
L 361.032574 229.07324 
L 361.28278 224.327278 
L 361.532985 230.871879 
L 361.78319 271.825352 
L 362.033395 239.09319 
L 362.2836 232.956513 
L 362.533806 231.091728 
L 363.034216 221.163745 
L 363.534626 234.040331 
L 363.784831 229.07901 
L 364.035037 226.39569 
L 364.285242 230.51059 
L 364.535447 242.42443 
L 364.785652 243.350432 
L 365.035857 235.785369 
L 365.286063 247.069958 
L 365.536268 240.689901 
L 365.786473 241.583291 
L 366.286883 249.757353 
L 366.537088 253.385143 
L 366.787294 237.257162 
L 367.037499 248.054172 
L 367.287704 236.939154 
L 367.537909 249.869272 
L 368.038319 240.099475 
L 368.288525 260.347002 
L 368.788935 222.622509 
L 369.03914 226.945088 
L 369.289345 266.382006 
L 369.789756 225.409874 
L 370.039961 218.466462 
L 370.290166 221.565627 
L 370.790576 247.119854 
L 371.040782 242.550301 
L 371.541192 259.10449 
L 371.791397 279.536696 
L 372.041602 234.533639 
L 372.291808 221.198724 
L 372.542013 218.26624 
L 373.042423 229.858908 
L 373.292628 218.821163 
L 373.542833 214.531748 
L 373.793039 221.005221 
L 374.043244 241.05371 
L 374.293449 249.71453 
L 374.543654 238.357273 
L 374.793859 258.245469 
L 375.044064 244.830018 
L 375.29427 247.158815 
L 375.544475 225.113638 
L 375.79468 223.576647 
L 376.044885 249.575543 
L 376.545296 237.995371 
L 377.045706 226.337205 
L 377.295911 234.834603 
L 377.546116 227.991075 
L 377.796321 230.22959 
L 378.046527 231.306642 
L 378.296732 232.976051 
L 378.797142 221.746423 
L 379.047347 221.922963 
L 379.297553 224.127981 
L 379.797963 237.860829 
L 380.048168 231.438789 
L 380.298373 228.299733 
L 380.548578 221.270645 
L 380.798784 221.858346 
L 381.048989 230.123867 
L 381.549399 219.079698 
L 381.799604 222.877579 
L 382.049809 224.916042 
L 382.300015 220.96524 
L 382.55022 221.826691 
L 383.300835 248.664214 
L 383.551041 244.553842 
L 384.301656 217.320436 
L 384.551861 216.283875 
L 384.802066 223.934131 
L 385.052272 250.879817 
L 386.053092 224.437605 
L 386.303298 226.753042 
L 386.553503 243.887566 
L 386.803708 231.946857 
L 387.053913 230.383604 
L 387.304118 241.250937 
L 387.554323 244.009971 
L 388.054734 221.427742 
L 388.304939 222.385726 
L 389.055554 243.170468 
L 389.30576 241.498261 
L 389.555965 237.899334 
L 389.80617 232.300622 
L 390.30658 243.71991 
L 390.556786 267.446806 
L 390.806991 264.301941 
L 391.307401 229.222463 
L 391.807811 212.818327 
L 392.058017 211.46004 
L 392.308222 214.524848 
L 392.558427 219.815508 
L 392.808632 228.013367 
L 393.058837 253.320533 
L 393.559248 224.013897 
L 394.059658 230.948489 
L 394.560068 218.417782 
L 394.810274 220.920636 
L 395.060479 228.017329 
L 395.310684 224.972867 
L 395.811094 101.137631 
L 396.061299 74.76681 
L 396.311505 64.891699 
L 396.56171 69.933944 
L 396.811915 90.657303 
L 397.06212 130.933237 
L 397.312325 207.48113 
L 397.562531 226.815392 
L 397.812736 219.976141 
L 398.062941 219.925802 
L 398.313146 228.770418 
L 398.563351 228.906989 
L 398.813556 227.788866 
L 399.063762 233.446489 
L 399.313967 235.21803 
L 399.564172 232.744129 
L 399.814377 234.301388 
L 400.064582 249.824863 
L 400.314787 237.872445 
L 400.564993 257.330926 
L 401.065403 219.347368 
L 401.315608 214.683261 
L 401.565813 217.702327 
L 401.816019 232.996065 
L 402.066224 275.545923 
L 402.316429 243.671906 
L 402.566634 258.005002 
L 402.816839 223.923613 
L 403.067044 216.027958 
L 403.31725 221.852121 
L 403.81766 252.85212 
L 404.31807 232.559551 
L 404.568276 231.357172 
L 404.818481 236.125083 
L 405.068686 233.960135 
L 405.318891 225.418628 
L 405.569096 224.158268 
L 405.819301 229.77888 
L 406.319712 229.760453 
L 406.569917 231.436348 
L 406.820122 236.995957 
L 406.98392 289 
M 407.148139 289 
L 407.320532 228.220933 
L 407.570738 218.911624 
L 407.820943 226.210773 
L 408.071148 244.08387 
L 408.321353 229.379295 
L 408.571558 230.403258 
L 408.821764 275.802347 
L 409.071969 233.659732 
L 409.322174 235.248174 
L 409.572379 257.619073 
L 409.822584 232.589019 
L 410.322995 238.604694 
L 410.823405 225.242301 
L 411.07361 225.79186 
L 411.323815 235.793207 
L 411.574021 240.742251 
L 411.824226 236.329422 
L 412.074431 233.991455 
L 412.574841 246.5598 
L 412.825046 233.763383 
L 413.075252 231.821896 
L 413.325457 239.387408 
L 413.575662 267.149461 
L 413.825867 261.963232 
L 414.076072 241.482228 
L 414.326277 237.703273 
L 414.576483 229.834665 
L 414.826688 225.545993 
L 415.327098 231.481016 
L 415.577303 232.817922 
L 415.827509 240.165453 
L 416.077714 241.081382 
L 416.327919 233.695415 
L 416.578124 233.653302 
L 416.828329 235.869661 
L 417.32874 228.417498 
L 417.82915 225.999096 
L 418.079355 226.722405 
L 418.579766 233.655872 
L 418.829971 240.238169 
L 419.080176 236.144007 
L 419.330381 234.967729 
L 419.580586 249.693874 
L 419.830791 249.296947 
L 420.080997 267.405757 
L 420.331202 266.47056 
L 420.581407 273.612442 
L 420.831612 269.026443 
L 421.081817 152.825193 
L 421.582228 57.242615 
L 421.832433 41.110301 
L 422.082638 40.218218 
L 422.332843 54.426952 
L 422.583048 86.11508 
L 422.833254 143.01766 
L 423.083459 229.04947 
L 423.333664 231.41786 
L 423.583869 231.750653 
L 423.834074 244.346685 
L 424.084279 263.373344 
L 424.58469 219.549003 
L 424.834895 214.017129 
L 425.0851 213.782217 
L 425.335305 220.919069 
L 425.585511 240.904082 
L 425.835716 236.725722 
L 426.085921 236.406082 
L 426.336126 240.523329 
L 426.586331 236.114674 
L 426.836536 229.423606 
L 427.086742 235.071566 
L 427.336947 256.052083 
L 427.587152 255.325403 
L 427.837357 237.398783 
L 428.087562 231.995745 
L 428.337767 234.578572 
L 428.838178 245.163717 
L 429.088383 238.031846 
L 429.338588 225.500867 
L 429.588793 218.97794 
L 429.838999 218.136154 
L 430.089204 222.548856 
L 430.339409 235.19382 
L 430.589614 261.42081 
L 430.839819 239.240583 
L 431.090024 231.017758 
L 431.34023 233.230835 
L 431.84064 248.569575 
L 432.34105 254.208505 
L 432.591255 260.068392 
L 432.841461 259.70495 
L 433.341871 217.556088 
L 433.592076 213.264598 
L 433.842281 219.337331 
L 434.342692 251.594712 
L 434.592897 239.777289 
L 434.843102 234.251933 
L 435.093307 243.954599 
L 435.279176 289 
M 435.406587 289 
L 435.593718 242.741454 
L 435.843923 231.631856 
L 436.094128 229.868208 
L 436.344333 238.287101 
L 436.594538 240.247233 
L 436.844744 230.885605 
L 437.094949 231.089346 
L 437.595359 245.202992 
L 437.845564 246.206151 
L 438.095769 243.702509 
L 438.345975 225.389738 
L 438.59618 218.527269 
L 438.846385 225.686517 
L 439.09659 263.998605 
L 439.346795 255.98607 
L 439.597 263.662321 
L 439.847206 241.524512 
L 440.097411 229.587157 
L 440.347616 228.524171 
L 440.597821 234.375461 
L 440.848026 246.947179 
L 441.348437 221.382704 
L 441.848847 241.070456 
L 442.349257 228.116427 
L 442.599463 214.698689 
L 442.849668 220.276622 
L 443.099873 250.10264 
L 443.350078 233.645787 
L 443.600283 233.374466 
L 444.100694 225.904404 
L 444.350899 230.226374 
L 444.601104 232.052102 
L 445.101514 222.335788 
L 445.35172 220.285751 
L 445.601925 222.63256 
L 445.85213 235.593897 
L 446.102335 240.346977 
L 446.602745 224.119582 
L 447.103156 221.228648 
L 447.353361 218.253605 
L 447.603566 218.284569 
L 447.853771 222.785432 
L 448.103977 232.070131 
L 448.354182 229.452366 
L 448.604387 221.537515 
L 448.854592 220.554964 
L 449.104797 225.915702 
L 449.355002 227.081452 
L 449.605208 223.021964 
L 449.855413 227.657661 
L 450.355823 249.974138 
L 450.606028 248.678184 
L 450.856234 255.273738 
L 451.106439 252.864238 
L 451.356644 245.60269 
L 451.502003 289 
M 451.709803 289 
L 451.857054 244.229878 
L 452.107259 242.84371 
L 452.357465 246.826354 
L 452.60767 230.091523 
L 452.857875 225.551779 
L 453.10808 226.598757 
L 453.358285 223.22184 
L 453.60849 222.655915 
L 453.858696 239.655107 
L 454.108901 239.611495 
L 454.359106 230.704893 
L 454.609311 243.518352 
L 454.859516 248.160483 
L 455.109722 257.516873 
L 455.359927 241.097602 
L 455.610132 241.022357 
L 455.860337 254.567701 
L 456.110542 259.917522 
L 456.610953 223.561556 
L 456.861158 227.915707 
L 457.111363 259.638984 
L 457.361568 240.60562 
L 457.611773 243.247263 
L 457.861979 284.516276 
L 458.112184 232.496349 
L 458.362389 217.964142 
L 458.612594 212.615074 
L 458.862799 213.825782 
L 459.113004 222.88998 
L 459.36321 236.470748 
L 459.86362 224.608738 
L 460.113825 226.372056 
L 460.36403 235.094578 
L 460.614235 236.460206 
L 460.864441 227.697848 
L 461.114646 223.262455 
L 461.364851 223.256823 
L 461.615056 228.740736 
L 461.865261 239.360193 
L 462.115467 245.217154 
L 462.615877 221.756987 
L 462.866082 221.555322 
L 463.116287 223.910552 
L 463.366492 222.161466 
L 463.616698 229.228662 
L 463.866903 226.407227 
L 464.117108 216.433212 
L 464.367313 220.450772 
L 464.867723 244.918643 
L 465.117929 231.069648 
L 465.368134 228.044556 
L 465.868544 243.491824 
L 466.118749 239.245518 
L 466.61916 220.832574 
L 466.869365 216.530448 
L 467.11957 221.384622 
L 467.61998 251.0932 
L 467.870186 231.618912 
L 468.120391 226.669216 
L 468.370596 232.84754 
L 468.620801 265.089146 
L 468.871006 243.961919 
L 469.371417 250.723052 
L 470.372237 229.422208 
L 470.622443 225.905538 
L 470.872648 224.582462 
L 471.122853 235.689643 
L 471.373058 271.508524 
L 471.623263 238.329041 
L 471.873468 226.517675 
L 472.123674 226.536461 
L 472.373879 247.34824 
L 472.624084 226.649401 
L 472.874289 220.224976 
L 473.124494 230.531513 
L 473.3747 284.44556 
L 473.624905 234.795797 
L 473.87511 224.497704 
L 474.125315 226.323554 
L 474.37552 237.014631 
L 474.625725 240.762153 
L 475.626546 223.051464 
L 475.876751 237.987862 
L 476.126957 267.864186 
L 476.627367 238.383731 
L 476.877572 241.517332 
L 477.127777 267.880324 
L 477.377982 234.682666 
L 477.628188 228.630681 
L 477.878393 227.555824 
L 478.128598 234.281177 
L 478.378803 256.859822 
L 478.629008 261.804385 
L 478.879213 237.156861 
L 479.129419 229.711627 
L 479.379624 232.112409 
L 479.629829 230.97878 
L 480.130239 241.768279 
L 480.63065 228.291069 
L 480.880855 226.76978 
L 481.13106 222.616843 
L 481.381265 221.92978 
L 481.881676 228.9928 
L 482.131881 225.317919 
L 482.382086 227.673062 
L 482.882496 268.286011 
L 483.132702 256.917865 
L 483.382907 234.540435 
L 483.883317 248.27349 
L 484.133522 225.044024 
L 484.383727 223.865574 
L 484.633933 231.275854 
L 484.884138 243.31728 
L 485.634753 219.112825 
L 485.884958 213.565462 
L 486.135164 213.462254 
L 486.385369 219.263505 
L 486.635574 234.998994 
L 486.885779 281.581612 
L 487.135984 233.242414 
L 487.38619 226.023647 
L 487.8866 235.139211 
L 488.136805 233.770214 
L 488.38701 244.539048 
L 488.887421 226.240988 
L 489.137626 233.126886 
L 489.387831 233.724073 
L 489.638036 226.061099 
L 489.888241 222.397043 
L 490.388652 224.469937 
L 490.638857 230.749201 
L 490.889062 258.090045 
L 491.389472 236.482018 
L 491.639678 237.382175 
L 491.889883 226.593384 
L 492.140088 228.753491 
L 492.390293 257.721992 
L 492.640498 237.291903 
L 492.890703 233.166743 
L 493.140909 233.455757 
L 493.391114 246.228262 
L 493.641319 266.851742 
L 493.891524 241.900331 
L 494.391935 223.010712 
L 494.892345 240.247498 
L 495.14255 218.980298 
L 495.392755 222.089978 
L 495.64296 222.947878 
L 496.143371 214.068429 
L 496.393576 213.814701 
L 496.643781 221.203837 
L 496.893986 224.889122 
L 497.144191 219.783373 
L 497.394397 221.17752 
L 497.894807 226.969813 
L 498.395217 247.395021 
L 498.645423 243.658932 
L 498.895628 237.836345 
L 499.145833 240.952539 
L 499.396038 241.522958 
L 499.646243 235.066157 
L 499.896448 232.305394 
L 500.396859 224.296652 
L 500.647064 230.730103 
L 500.897269 278.68386 
L 501.147474 229.781591 
L 501.39768 226.432909 
L 501.647885 231.541812 
L 501.89809 233.894687 
L 502.148295 231.702903 
L 502.3985 232.454307 
L 502.648705 259.941882 
L 503.149116 224.304977 
L 503.649526 226.361167 
L 503.899731 220.162 
L 504.149936 221.901514 
L 504.400142 229.984624 
L 504.900552 259.320055 
L 505.150757 228.638719 
L 505.400962 219.211729 
L 505.651168 218.707533 
L 506.151578 225.022556 
L 506.401783 228.854093 
L 506.902193 247.942547 
L 507.152399 230.862858 
L 507.402604 224.229909 
L 507.652809 224.020312 
L 507.903014 237.080929 
L 508.153219 232.739202 
L 508.403425 221.230038 
L 508.65363 220.971659 
L 509.15404 232.964938 
L 509.404245 246.874959 
L 509.65445 236.82097 
L 509.904656 221.658039 
L 510.154861 217.243201 
L 510.655271 235.332346 
L 510.905476 214.629912 
L 511.155681 212.142092 
L 511.405887 219.827923 
L 511.656092 233.488688 
L 511.906297 260.059591 
L 512.406707 226.757555 
L 512.656913 230.477135 
L 512.907118 229.286846 
L 513.157323 233.059714 
L 513.407528 261.212445 
L 513.657733 239.705526 
L 513.907938 233.330251 
L 514.158144 232.397016 
L 514.408349 228.280212 
L 514.658554 221.156779 
L 514.908759 218.762264 
L 515.158964 226.582148 
L 515.40917 258.241744 
L 515.659375 242.003767 
L 515.90958 235.693522 
L 516.159785 240.265836 
L 516.40999 234.002047 
L 516.660195 222.170565 
L 516.910401 216.467693 
L 517.160606 218.614256 
L 517.661016 227.762547 
L 518.411632 246.040076 
L 518.661837 234.94639 
L 518.912042 230.171642 
L 519.162247 232.57194 
L 519.412452 229.678664 
L 520.163068 209.480097 
L 520.413273 214.098653 
L 521.163889 238.899051 
L 521.414094 252.624622 
L 521.664299 256.416476 
L 521.914504 234.686068 
L 522.414915 222.333126 
L 522.66512 222.889554 
L 522.915325 234.691419 
L 523.16553 277.216024 
L 523.415735 239.181028 
L 523.66594 250.597678 
L 523.916146 251.762478 
L 524.166351 246.552994 
L 524.416556 248.204103 
L 524.666761 245.645296 
L 525.167171 226.84238 
L 525.667582 233.845968 
L 525.917787 233.961109 
L 526.167992 231.982107 
L 526.418197 233.417999 
L 526.918608 271.100874 
L 527.168813 257.287656 
L 527.419018 235.983389 
L 527.669223 234.146125 
L 528.169634 266.690408 
L 528.419839 247.219735 
L 528.670044 243.020814 
L 528.920249 236.448607 
L 529.170454 225.341764 
L 529.42066 224.635798 
L 529.670865 221.687336 
L 529.92107 214.345241 
L 530.171275 215.891556 
L 530.42148 236.957757 
L 530.671685 239.410083 
L 530.921891 225.440266 
L 531.172096 228.837194 
L 531.422301 257.917025 
L 531.672506 232.624776 
L 531.922711 220.556264 
L 532.172916 219.610846 
L 532.423122 226.889476 
L 532.923532 256.415698 
L 533.173737 250.645747 
L 533.423942 233.118469 
L 533.674148 234.772754 
L 534.174558 271.750661 
L 534.424763 280.446227 
L 534.674968 240.917049 
L 534.925173 234.103194 
L 535.175379 243.654716 
L 535.425584 247.200195 
L 535.925994 223.943671 
L 536.176199 228.196786 
L 536.426404 256.571872 
L 536.67661 231.000835 
L 536.926815 243.257304 
L 537.17702 270.144043 
L 537.427225 240.465402 
L 537.67743 225.1578 
L 537.927636 222.422543 
L 538.177841 230.917029 
L 538.428046 233.409615 
L 538.678251 220.773206 
L 538.928456 227.62563 
L 539.178661 247.776941 
L 539.428867 231.329175 
L 539.679072 231.892907 
L 539.929277 252.655457 
L 540.179482 261.420769 
L 540.679893 229.401717 
L 540.930098 224.836933 
L 541.430508 239.979539 
L 541.680713 236.345403 
L 541.930918 220.667782 
L 542.181124 215.895902 
L 542.431329 224.395801 
L 542.681534 253.13801 
L 542.931739 253.646044 
L 543.181944 239.691534 
L 543.432149 232.384192 
L 544.182765 221.424969 
L 544.43297 225.285475 
L 544.933381 247.97804 
L 545.183586 226.092601 
L 545.433791 225.753298 
L 545.683996 240.170305 
L 545.934201 237.06036 
L 546.184406 239.409065 
L 546.684817 228.970169 
L 546.935022 237.34556 
L 547.185227 239.492111 
L 547.435432 246.069915 
L 547.685638 266.468405 
L 547.935843 252.019201 
L 548.186048 256.018242 
L 548.686458 231.862378 
L 548.936663 232.35983 
L 549.186869 234.725687 
L 549.437074 230.405723 
L 549.687279 237.087292 
L 549.937484 286.109442 
L 550.187689 260.043504 
L 550.437894 253.59261 
L 550.6881 234.458564 
L 550.938305 235.01919 
L 551.18851 253.265333 
L 551.68892 221.335104 
L 551.939126 225.415957 
L 552.104903 289 
M 552.278416 289 
L 552.439536 230.432748 
L 552.689741 226.122919 
L 552.939946 233.583519 
L 553.190151 267.630608 
L 553.440357 224.600445 
L 553.690562 224.70192 
L 553.940767 247.598537 
L 554.190972 234.981586 
L 554.441177 234.630123 
L 554.691383 232.934625 
L 554.941588 233.811072 
L 555.441998 278.414666 
L 555.942408 234.735365 
L 556.192614 240.757847 
L 556.693024 274.732158 
L 556.943229 241.481082 
L 557.193434 227.105791 
L 557.443639 227.434979 
L 557.693845 230.030865 
L 557.94405 220.138139 
L 558.194255 218.073745 
L 558.694665 244.388709 
L 558.944871 230.430925 
L 559.195076 225.813345 
L 559.445281 234.449502 
L 559.695486 251.837679 
L 559.945691 227.784143 
L 560.696307 219.661598 
L 560.946512 224.204121 
L 561.196717 241.037401 
L 561.446922 246.895647 
L 561.697128 238.061002 
L 561.947333 267.144932 
L 562.197538 249.743925 
L 562.447743 250.702519 
L 562.697948 244.548498 
L 563.198359 240.27487 
L 563.448564 226.8476 
L 563.698769 221.128235 
L 564.199179 247.154497 
L 564.449384 238.280523 
L 564.69959 234.539688 
L 564.949795 232.773712 
L 565.2 240.337713 
L 565.2 240.337713 
" clip-path="url(#pd47a0861fd)" style="fill: none; stroke: #1f77b4; stroke-width: 1.5; stroke-linecap: square"/>
   </g>
   <g id="line2d_30">
    <path d="M 283.619092 246.04 
L 283.619092 26.16 
" clip-path="url(#pd47a0861fd)" style="fill: none; stroke-dasharray: 2,3.3; stroke-dashoffset: 0; stroke: #d62728; stroke-width: 2"/>
   </g>
   <g id="line2d_31">
    <path d="M 334.861113 246.04 
L 334.861113 26.16 
" clip-path="url(#pd47a0861fd)" style="fill: none; stroke-dasharray: 2,3.3; stroke-dashoffset: 0; stroke: #d62728; stroke-width: 2"/>
   </g>
   <g id="line2d_32">
    <path d="M 386.103133 246.04 
L 386.103133 26.16 
" clip-path="url(#pd47a0861fd)" style="fill: none; stroke-dasharray: 2,3.3; stroke-dashoffset: 0; stroke: #d62728; stroke-width: 2"/>
   </g>
   <g id="line2d_33">
    <path d="M 437.345154 246.04 
L 437.345154 26.16 
" clip-path="url(#pd47a0861fd)" style="fill: none; stroke-dasharray: 2,3.3; stroke-dashoffset: 0; stroke: #d62728; stroke-width: 2"/>
   </g>
   <g id="line2d_34">
    <path d="M 488.587174 246.04 
L 488.587174 26.16 
" clip-path="url(#pd47a0861fd)" style="fill: none; stroke-dasharray: 2,3.3; stroke-dashoffset: 0; stroke: #d62728; stroke-width: 2"/>
   </g>
   <g id="line2d_35">
    <path d="M 539.829195 246.04 
L 539.829195 26.16 
" clip-path="url(#pd47a0861fd)" style="fill: none; stroke-dasharray: 2,3.3; stroke-dashoffset: 0; stroke: #d62728; stroke-width: 2"/>
   </g>
   <g id="patch_3">
    <path d="M 53.03 246.04 
L 53.03 26.16 
" style="fill: none; stroke: #000000; stroke-width: 0.8; stroke-linejoin: miter; stroke-linecap: square"/>
   </g>
   <g id="patch_4">
    <path d="M 565.2 246.04 
L 565.2 26.16 
" style="fill: none; stroke: #000000; stroke-width: 0.8; stroke-linejoin: miter; stroke-linecap: square"/>
   </g>
   <g id="patch_5">
    <path d="M 53.03 246.04 
L 565.2 246.04 
" style="fill: none; stroke: #000000; stroke-width: 0.8; stroke-linejoin: miter; stroke-linecap: square"/>
   </g>
   <g id="patch_6">
    <path d="M 53.03 26.16 
L 565.2 26.16 
" style="fill: none; stroke: #000000; stroke-width: 0.8; stroke-linejoin: miter; stroke-linecap: square"/>
   </g>
   <g id="text_17">
    <!-- Multiple Channels -->
    <g transform="translate(255.616563 20.16) scale(0.12 -0.12)">
     <defs>
      <path id="DejaVuSans-6c" d="M 603 4863 
L 1178 4863 
L 1178 0 
L 603 0 
L 603 4863 
z
" transform="scale(0.015625)"/>
      <path id="DejaVuSans-70" d="M 1159 525 
L 1159 -1331 
L 581 -1331 
L 581 3500 
L 1159 3500 
L 1159 2969 
Q 1341 3281 1617 3432 
Q 1894 3584 2278 3584 
Q 2916 3584 3314 3078 
Q 3713 2572 3713 1747 
Q 3713 922 3314 415 
Q 2916 -91 2278 -91 
Q 1894 -91 1617 61 
Q 1341 213 1159 525 
z
M 3116 1747 
Q 3116 2381 2855 2742 
Q 2594 3103 2138 3103 
Q 1681 3103 1420 2742 
Q 1159 2381 1159 1747 
Q 1159 1113 1420 752 
Q 1681 391 2138 391 
Q 2594 391 2855 752 
Q 3116 1113 3116 1747 
z
" transform="scale(0.015625)"/>
      <path id="DejaVuSans-43" d="M 4122 4306 
L 4122 3641 
Q 3803 3938 3442 4084 
Q 3081 4231 2675 4231 
Q 1875 4231 1450 3742 
Q 1025 3253 1025 2328 
Q 1025 1406 1450 917 
Q 1875 428 2675 428 
Q 3081 428 3442 575 
Q 3803 722 4122 1019 
L 4122 359 
Q 3791 134 3420 21 
Q 3050 -91 2638 -91 
Q 1578 -91 968 557 
Q 359 1206 359 2328 
Q 359 3453 968 4101 
Q 1578 4750 2638 4750 
Q 3056 4750 3426 4639 
Q 3797 4528 4122 4306 
z
" transform="scale(0.015625)"/>
      <path id="DejaVuSans-68" d="M 3513 2113 
L 3513 0 
L 2938 0 
L 2938 2094 
Q 2938 2591 2744 2837 
Q 2550 3084 2163 3084 
Q 1697 3084 1428 2787 
Q 1159 2491 1159 1978 
L 1159 0 
L 581 0 
L 581 4863 
L 1159 4863 
L 1159 2956 
Q 1366 3272 1645 3428 
Q 1925 3584 2291 3584 
Q 2894 3584 3203 3211 
Q 3513 2838 3513 2113 
z
" transform="scale(0.015625)"/>
      <path id="DejaVuSans-73" d="M 2834 3397 
L 2834 2853 
Q 2591 2978 2328 3040 
Q 2066 3103 1784 3103 
Q 1356 3103 1142 2972 
Q 928 2841 928 2578 
Q 928 2378 1081 2264 
Q 1234 2150 1697 2047 
L 1894 2003 
Q 2506 1872 2764 1633 
Q 3022 1394 3022 966 
Q 3022 478 2636 193 
Q 2250 -91 1575 -91 
Q 1294 -91 989 -36 
Q 684 19 347 128 
L 347 722 
Q 666 556 975 473 
Q 1284 391 1588 391 
Q 1994 391 2212 530 
Q 2431 669 2431 922 
Q 2431 1156 2273 1281 
Q 2116 1406 1581 1522 
L 1381 1569 
Q 847 1681 609 1914 
Q 372 2147 372 2553 
Q 372 3047 722 3315 
Q 1072 3584 1716 3584 
Q 2034 3584 2315 3537 
Q 2597 3491 2834 3397 
z
" transform="scale(0.015625)"/>
     </defs>
     <use xlink:href="#DejaVuSans-4d"/>
     <use xlink:href="#DejaVuSans-75" transform="translate(86.279297 0)"/>
     <use xlink:href="#DejaVuSans-6c" transform="translate(149.658203 0)"/>
     <use xlink:href="#DejaVuSans-74" transform="translate(177.441406 0)"/>
     <use xlink:href="#DejaVuSans-69" transform="translate(216.650391 0)"/>
     <use xlink:href="#DejaVuSans-70" transform="translate(244.433594 0)"/>
     <use xlink:href="#DejaVuSans-6c" transform="translate(307.910156 0)"/>
     <use xlink:href="#DejaVuSans-65" transform="translate(335.693359 0)"/>
     <use xlink:href="#DejaVuSans-20" transform="translate(397.216797 0)"/>
     <use xlink:href="#DejaVuSans-43" transform="translate(429.003906 0)"/>
     <use xlink:href="#DejaVuSans-68" transform="translate(498.828125 0)"/>
     <use xlink:href="#DejaVuSans-61" transform="translate(562.207031 0)"/>
     <use xlink:href="#DejaVuSans-6e" transform="translate(623.486328 0)"/>
     <use xlink:href="#DejaVuSans-6e" transform="translate(686.865234 0)"/>
     <use xlink:href="#DejaVuSans-65" transform="translate(750.244141 0)"/>
     <use xlink:href="#DejaVuSans-6c" transform="translate(811.767578 0)"/>
     <use xlink:href="#DejaVuSans-73" transform="translate(839.550781 0)"/>
    </g>
   </g>
  </g>
 </g>
 <defs>
  <clipPath id="pd47a0861fd">
   <rect x="53.03" y="26.16" width="512.17" height="219.88"/>
  </clipPath>
 </defs>
</svg>
