<?xml version="1.0" encoding="utf-8" standalone="no"?>
<!DOCTYPE svg PUBLIC "-//W3C//DTD SVG 1.1//EN"
  "http://www.w3.org/Graphics/SVG/1.1/DTD/svg11.dtd">
<svg xmlns:xlink="http://www.w3.org/1999/xlink" width="576pt" height="288pt" viewBox="0 0 576 288" xmlns="http://www.w3.org/2000/svg" version="1.1">
 <metadata>
  <rdf:RDF xmlns:dc="http://purl.org/dc/elements/1.1/" xmlns:cc="http://creativecommons.org/ns#" xmlns:rdf="http://www.w3.org/1999/02/22-rdf-syntax-ns#">
   <cc:Work>
    <dc:type rdf:resource="http://purl.org/dc/dcmitype/StillImage"/>
    <dc:date>2026-02-04T23:45:44.251264</dc:date>
    <dc:format>image/svg+xml</dc:format>
    <dc:creator>
     <cc:Agent>
      <dc:title>Matplotlib v3.10.8, https://matplotlib.org/</dc:title>
     </cc:Agent>
    </dc:creator>
   </cc:Work>
  </rdf:RDF>
 </metadata>
 <defs>
  <style type="text/css">*{stroke-linejoin: round; stroke-linecap: butt}</style>
 </defs>
 <g id="figure_1">
  <g id="patch_1">
   <path d="M 0 288 
L 576 288 
L 576 0 
L 0 0 
z
" style="fill: #ffffff"/>
  </g>
  <g id="axes_1">
   <g id="patch_2">
    <path d="M 56.18 246.04 
L 565.2 246.04 
L 565.2 26.16 
L 56.18 26.16 
z
" style="fill: #ffffff"/>
   </g>
   <g id="matplotlib.axis_1">
    <g id="xtick_1">
     <g id="line2d_1">
      <path d="M 56.18 246.04 
L 56.18 26.16 
" clip-path="url(#p6930279036)" style="fill: none; stroke: #b0b0b0; stroke-width: 0.8; stroke-linecap: square"/>
     </g>
     <g id="line2d_2">
      <defs>
       <path id="m2ccee6ada6" d="M 0 0 
L 0 3.5 
" style="stroke: #000000; stroke-width: 0.8"/>
      </defs>
      <g>
       <use xlink:href="#m2ccee6ada6" x="56.18" y="246.04" style="stroke: #000000; stroke-width: 0.8"/>
      </g>
     </g>
     <g id="text_1">
      <!-- 0.0 -->
      <g transform="translate(48.228438 260.638438) scale(0.1 -0.1)">
       <defs>
        <path id="DejaVuSans-30" d="M 2034 4250 
Q 1547 4250 1301 3770 
Q 1056 3291 1056 2328 
Q 1056 1369 1301 889 
Q 1547 409 2034 409 
Q 2525 409 2770 889 
Q 3016 1369 3016 2328 
Q 3016 3291 2770 3770 
Q 2525 4250 2034 4250 
z
M 2034 4750 
Q 2819 4750 3233 4129 
Q 3647 3509 3647 2328 
Q 3647 1150 3233 529 
Q 2819 -91 2034 -91 
Q 1250 -91 836 529 
Q 422 1150 422 2328 
Q 422 3509 836 4129 
Q 1250 4750 2034 4750 
z
" transform="scale(0.015625)"/>
        <path id="DejaVuSans-2e" d="M 684 794 
L 1344 794 
L 1344 0 
L 684 0 
L 684 794 
z
" transform="scale(0.015625)"/>
       </defs>
       <use xlink:href="#DejaVuSans-30"/>
       <use xlink:href="#DejaVuSans-2e" transform="translate(63.623047 0)"/>
       <use xlink:href="#DejaVuSans-30" transform="translate(95.410156 0)"/>
      </g>
     </g>
    </g>
    <g id="xtick_2">
     <g id="line2d_3">
      <path d="M 126.292948 246.04 
L 126.292948 26.16 
" clip-path="url(#p6930279036)" style="fill: none; stroke: #b0b0b0; stroke-width: 0.8; stroke-linecap: square"/>
     </g>
     <g id="line2d_4">
      <g>
       <use xlink:href="#m2ccee6ada6" x="126.292948" y="246.04" style="stroke: #000000; stroke-width: 0.8"/>
      </g>
     </g>
     <g id="text_2">
      <!-- 0.5 -->
      <g transform="translate(118.341385 260.638438) scale(0.1 -0.1)">
       <defs>
        <path id="DejaVuSans-35" d="M 691 4666 
L 3169 4666 
L 3169 4134 
L 1269 4134 
L 1269 2991 
Q 1406 3038 1543 3061 
Q 1681 3084 1819 3084 
Q 2600 3084 3056 2656 
Q 3513 2228 3513 1497 
Q 3513 744 3044 326 
Q 2575 -91 1722 -91 
Q 1428 -91 1123 -41 
Q 819 9 494 109 
L 494 744 
Q 775 591 1075 516 
Q 1375 441 1709 441 
Q 2250 441 2565 725 
Q 2881 1009 2881 1497 
Q 2881 1984 2565 2268 
Q 2250 2553 1709 2553 
Q 1456 2553 1204 2497 
Q 953 2441 691 2322 
L 691 4666 
z
" transform="scale(0.015625)"/>
       </defs>
       <use xlink:href="#DejaVuSans-30"/>
       <use xlink:href="#DejaVuSans-2e" transform="translate(63.623047 0)"/>
       <use xlink:href="#DejaVuSans-35" transform="translate(95.410156 0)"/>
      </g>
     </g>
    </g>
    <g id="xtick_3">
     <g id="line2d_5">
      <path d="M 196.405895 246.04 
L 196.405895 26.16 
" clip-path="url(#p6930279036)" style="fill: none; stroke: #b0b0b0; stroke-width: 0.8; stroke-linecap: square"/>
     </g>
     <g id="line2d_6">
      <g>
       <use xlink:href="#m2ccee6ada6" x="196.405895" y="246.04" style="stroke: #000000; stroke-width: 0.8"/>
      </g>
     </g>
     <g id="text_3">
      <!-- 1.0 -->
      <g transform="translate(188.454333 260.638438) scale(0.1 -0.1)">
       <defs>
        <path id="DejaVuSans-31" d="M 794 531 
L 1825 531 
L 1825 4091 
L 703 3866 
L 703 4441 
L 1819 4666 
L 2450 4666 
L 2450 531 
L 3481 531 
L 3481 0 
L 794 0 
L 794 531 
z
" transform="scale(0.015625)"/>
       </defs>
       <use xlink:href="#DejaVuSans-31"/>
       <use xlink:href="#DejaVuSans-2e" transform="translate(63.623047 0)"/>
       <use xlink:href="#DejaVuSans-30" transform="translate(95.410156 0)"/>
      </g>
     </g>
    </g>
    <g id="xtick_4">
     <g id="line2d_7">
      <path d="M 266.518843 246.04 
L 266.518843 26.16 
" clip-path="url(#p6930279036)" style="fill: none; stroke: #b0b0b0; stroke-width: 0.8; stroke-linecap: square"/>
     </g>
     <g id="line2d_8">
      <g>
       <use xlink:href="#m2ccee6ada6" x="266.518843" y="246.04" style="stroke: #000000; stroke-width: 0.8"/>
      </g>
     </g>
     <g id="text_4">
      <!-- 1.5 -->
      <g transform="translate(258.56728 260.638438) scale(0.1 -0.1)">
       <use xlink:href="#DejaVuSans-31"/>
       <use xlink:href="#DejaVuSans-2e" transform="translate(63.623047 0)"/>
       <use xlink:href="#DejaVuSans-35" transform="translate(95.410156 0)"/>
      </g>
     </g>
    </g>
    <g id="xtick_5">
     <g id="line2d_9">
      <path d="M 336.631791 246.04 
L 336.631791 26.16 
" clip-path="url(#p6930279036)" style="fill: none; stroke: #b0b0b0; stroke-width: 0.8; stroke-linecap: square"/>
     </g>
     <g id="line2d_10">
      <g>
       <use xlink:href="#m2ccee6ada6" x="336.631791" y="246.04" style="stroke: #000000; stroke-width: 0.8"/>
      </g>
     </g>
     <g id="text_5">
      <!-- 2.0 -->
      <g transform="translate(328.680228 260.638438) scale(0.1 -0.1)">
       <defs>
        <path id="DejaVuSans-32" d="M 1228 531 
L 3431 531 
L 3431 0 
L 469 0 
L 469 531 
Q 828 903 1448 1529 
Q 2069 2156 2228 2338 
Q 2531 2678 2651 2914 
Q 2772 3150 2772 3378 
Q 2772 3750 2511 3984 
Q 2250 4219 1831 4219 
Q 1534 4219 1204 4116 
Q 875 4013 500 3803 
L 500 4441 
Q 881 4594 1212 4672 
Q 1544 4750 1819 4750 
Q 2544 4750 2975 4387 
Q 3406 4025 3406 3419 
Q 3406 3131 3298 2873 
Q 3191 2616 2906 2266 
Q 2828 2175 2409 1742 
Q 1991 1309 1228 531 
z
" transform="scale(0.015625)"/>
       </defs>
       <use xlink:href="#DejaVuSans-32"/>
       <use xlink:href="#DejaVuSans-2e" transform="translate(63.623047 0)"/>
       <use xlink:href="#DejaVuSans-30" transform="translate(95.410156 0)"/>
      </g>
     </g>
    </g>
    <g id="xtick_6">
     <g id="line2d_11">
      <path d="M 406.744738 246.04 
L 406.744738 26.16 
" clip-path="url(#p6930279036)" style="fill: none; stroke: #b0b0b0; stroke-width: 0.8; stroke-linecap: square"/>
     </g>
     <g id="line2d_12">
      <g>
       <use xlink:href="#m2ccee6ada6" x="406.744738" y="246.04" style="stroke: #000000; stroke-width: 0.8"/>
      </g>
     </g>
     <g id="text_6">
      <!-- 2.5 -->
      <g transform="translate(398.793176 260.638438) scale(0.1 -0.1)">
       <use xlink:href="#DejaVuSans-32"/>
       <use xlink:href="#DejaVuSans-2e" transform="translate(63.623047 0)"/>
       <use xlink:href="#DejaVuSans-35" transform="translate(95.410156 0)"/>
      </g>
     </g>
    </g>
    <g id="xtick_7">
     <g id="line2d_13">
      <path d="M 476.857686 246.04 
L 476.857686 26.16 
" clip-path="url(#p6930279036)" style="fill: none; stroke: #b0b0b0; stroke-width: 0.8; stroke-linecap: square"/>
     </g>
     <g id="line2d_14">
      <g>
       <use xlink:href="#m2ccee6ada6" x="476.857686" y="246.04" style="stroke: #000000; stroke-width: 0.8"/>
      </g>
     </g>
     <g id="text_7">
      <!-- 3.0 -->
      <g transform="translate(468.906123 260.638438) scale(0.1 -0.1)">
       <defs>
        <path id="DejaVuSans-33" d="M 2597 2516 
Q 3050 2419 3304 2112 
Q 3559 1806 3559 1356 
Q 3559 666 3084 287 
Q 2609 -91 1734 -91 
Q 1441 -91 1130 -33 
Q 819 25 488 141 
L 488 750 
Q 750 597 1062 519 
Q 1375 441 1716 441 
Q 2309 441 2620 675 
Q 2931 909 2931 1356 
Q 2931 1769 2642 2001 
Q 2353 2234 1838 2234 
L 1294 2234 
L 1294 2753 
L 1863 2753 
Q 2328 2753 2575 2939 
Q 2822 3125 2822 3475 
Q 2822 3834 2567 4026 
Q 2313 4219 1838 4219 
Q 1578 4219 1281 4162 
Q 984 4106 628 3988 
L 628 4550 
Q 988 4650 1302 4700 
Q 1616 4750 1894 4750 
Q 2613 4750 3031 4423 
Q 3450 4097 3450 3541 
Q 3450 3153 3228 2886 
Q 3006 2619 2597 2516 
z
" transform="scale(0.015625)"/>
       </defs>
       <use xlink:href="#DejaVuSans-33"/>
       <use xlink:href="#DejaVuSans-2e" transform="translate(63.623047 0)"/>
       <use xlink:href="#DejaVuSans-30" transform="translate(95.410156 0)"/>
      </g>
     </g>
    </g>
    <g id="xtick_8">
     <g id="line2d_15">
      <path d="M 546.970634 246.04 
L 546.970634 26.16 
" clip-path="url(#p6930279036)" style="fill: none; stroke: #b0b0b0; stroke-width: 0.8; stroke-linecap: square"/>
     </g>
     <g id="line2d_16">
      <g>
       <use xlink:href="#m2ccee6ada6" x="546.970634" y="246.04" style="stroke: #000000; stroke-width: 0.8"/>
      </g>
     </g>
     <g id="text_8">
      <!-- 3.5 -->
      <g transform="translate(539.019071 260.638438) scale(0.1 -0.1)">
       <use xlink:href="#DejaVuSans-33"/>
       <use xlink:href="#DejaVuSans-2e" transform="translate(63.623047 0)"/>
       <use xlink:href="#DejaVuSans-35" transform="translate(95.410156 0)"/>
      </g>
     </g>
    </g>
    <g id="text_9">
     <!-- Time (us) -->
     <g transform="translate(287.192344 274.316562) scale(0.1 -0.1)">
      <defs>
       <path id="DejaVuSans-54" d="M -19 4666 
L 3928 4666 
L 3928 4134 
L 2272 4134 
L 2272 0 
L 1638 0 
L 1638 4134 
L -19 4134 
L -19 4666 
z
" transform="scale(0.015625)"/>
       <path id="DejaVuSans-69" d="M 603 3500 
L 1178 3500 
L 1178 0 
L 603 0 
L 603 3500 
z
M 603 4863 
L 1178 4863 
L 1178 4134 
L 603 4134 
L 603 4863 
z
" transform="scale(0.015625)"/>
       <path id="DejaVuSans-6d" d="M 3328 2828 
Q 3544 3216 3844 3400 
Q 4144 3584 4550 3584 
Q 5097 3584 5394 3201 
Q 5691 2819 5691 2113 
L 5691 0 
L 5113 0 
L 5113 2094 
Q 5113 2597 4934 2840 
Q 4756 3084 4391 3084 
Q 3944 3084 3684 2787 
Q 3425 2491 3425 1978 
L 3425 0 
L 2847 0 
L 2847 2094 
Q 2847 2600 2669 2842 
Q 2491 3084 2119 3084 
Q 1678 3084 1418 2786 
Q 1159 2488 1159 1978 
L 1159 0 
L 581 0 
L 581 3500 
L 1159 3500 
L 1159 2956 
Q 1356 3278 1631 3431 
Q 1906 3584 2284 3584 
Q 2666 3584 2933 3390 
Q 3200 3197 3328 2828 
z
" transform="scale(0.015625)"/>
       <path id="DejaVuSans-65" d="M 3597 1894 
L 3597 1613 
L 953 1613 
Q 991 1019 1311 708 
Q 1631 397 2203 397 
Q 2534 397 2845 478 
Q 3156 559 3463 722 
L 3463 178 
Q 3153 47 2828 -22 
Q 2503 -91 2169 -91 
Q 1331 -91 842 396 
Q 353 884 353 1716 
Q 353 2575 817 3079 
Q 1281 3584 2069 3584 
Q 2775 3584 3186 3129 
Q 3597 2675 3597 1894 
z
M 3022 2063 
Q 3016 2534 2758 2815 
Q 2500 3097 2075 3097 
Q 1594 3097 1305 2825 
Q 1016 2553 972 2059 
L 3022 2063 
z
" transform="scale(0.015625)"/>
       <path id="DejaVuSans-20" transform="scale(0.015625)"/>
       <path id="DejaVuSans-28" d="M 1984 4856 
Q 1566 4138 1362 3434 
Q 1159 2731 1159 2009 
Q 1159 1288 1364 580 
Q 1569 -128 1984 -844 
L 1484 -844 
Q 1016 -109 783 600 
Q 550 1309 550 2009 
Q 550 2706 781 3412 
Q 1013 4119 1484 4856 
L 1984 4856 
z
" transform="scale(0.015625)"/>
       <path id="DejaVuSans-75" d="M 544 1381 
L 544 3500 
L 1119 3500 
L 1119 1403 
Q 1119 906 1312 657 
Q 1506 409 1894 409 
Q 2359 409 2629 706 
Q 2900 1003 2900 1516 
L 2900 3500 
L 3475 3500 
L 3475 0 
L 2900 0 
L 2900 538 
Q 2691 219 2414 64 
Q 2138 -91 1772 -91 
Q 1169 -91 856 284 
Q 544 659 544 1381 
z
M 1991 3584 
L 1991 3584 
z
" transform="scale(0.015625)"/>
       <path id="DejaVuSans-73" d="M 2834 3397 
L 2834 2853 
Q 2591 2978 2328 3040 
Q 2066 3103 1784 3103 
Q 1356 3103 1142 2972 
Q 928 2841 928 2578 
Q 928 2378 1081 2264 
Q 1234 2150 1697 2047 
L 1894 2003 
Q 2506 1872 2764 1633 
Q 3022 1394 3022 966 
Q 3022 478 2636 193 
Q 2250 -91 1575 -91 
Q 1294 -91 989 -36 
Q 684 19 347 128 
L 347 722 
Q 666 556 975 473 
Q 1284 391 1588 391 
Q 1994 391 2212 530 
Q 2431 669 2431 922 
Q 2431 1156 2273 1281 
Q 2116 1406 1581 1522 
L 1381 1569 
Q 847 1681 609 1914 
Q 372 2147 372 2553 
Q 372 3047 722 3315 
Q 1072 3584 1716 3584 
Q 2034 3584 2315 3537 
Q 2597 3491 2834 3397 
z
" transform="scale(0.015625)"/>
       <path id="DejaVuSans-29" d="M 513 4856 
L 1013 4856 
Q 1481 4119 1714 3412 
Q 1947 2706 1947 2009 
Q 1947 1309 1714 600 
Q 1481 -109 1013 -844 
L 513 -844 
Q 928 -128 1133 580 
Q 1338 1288 1338 2009 
Q 1338 2731 1133 3434 
Q 928 4138 513 4856 
z
" transform="scale(0.015625)"/>
      </defs>
      <use xlink:href="#DejaVuSans-54"/>
      <use xlink:href="#DejaVuSans-69" transform="translate(57.958984 0)"/>
      <use xlink:href="#DejaVuSans-6d" transform="translate(85.742188 0)"/>
      <use xlink:href="#DejaVuSans-65" transform="translate(183.154297 0)"/>
      <use xlink:href="#DejaVuSans-20" transform="translate(244.677734 0)"/>
      <use xlink:href="#DejaVuSans-28" transform="translate(276.464844 0)"/>
      <use xlink:href="#DejaVuSans-75" transform="translate(315.478516 0)"/>
      <use xlink:href="#DejaVuSans-73" transform="translate(378.857422 0)"/>
      <use xlink:href="#DejaVuSans-29" transform="translate(430.957031 0)"/>
     </g>
    </g>
   </g>
   <g id="matplotlib.axis_2">
    <g id="ytick_1">
     <g id="line2d_17">
      <path d="M 56.18 231.322033 
L 565.2 231.322033 
" clip-path="url(#p6930279036)" style="fill: none; stroke: #b0b0b0; stroke-width: 0.8; stroke-linecap: square"/>
     </g>
     <g id="line2d_18">
      <defs>
       <path id="mb8aa9b0857" d="M 0 0 
L -3.5 0 
" style="stroke: #000000; stroke-width: 0.8"/>
      </defs>
      <g>
       <use xlink:href="#mb8aa9b0857" x="56.18" y="231.322033" style="stroke: #000000; stroke-width: 0.8"/>
      </g>
     </g>
     <g id="text_10">
      <!-- −0.6 -->
      <g transform="translate(24.897188 235.121252) scale(0.1 -0.1)">
       <defs>
        <path id="DejaVuSans-2212" d="M 678 2272 
L 4684 2272 
L 4684 1741 
L 678 1741 
L 678 2272 
z
" transform="scale(0.015625)"/>
        <path id="DejaVuSans-36" d="M 2113 2584 
Q 1688 2584 1439 2293 
Q 1191 2003 1191 1497 
Q 1191 994 1439 701 
Q 1688 409 2113 409 
Q 2538 409 2786 701 
Q 3034 994 3034 1497 
Q 3034 2003 2786 2293 
Q 2538 2584 2113 2584 
z
M 3366 4563 
L 3366 3988 
Q 3128 4100 2886 4159 
Q 2644 4219 2406 4219 
Q 1781 4219 1451 3797 
Q 1122 3375 1075 2522 
Q 1259 2794 1537 2939 
Q 1816 3084 2150 3084 
Q 2853 3084 3261 2657 
Q 3669 2231 3669 1497 
Q 3669 778 3244 343 
Q 2819 -91 2113 -91 
Q 1303 -91 875 529 
Q 447 1150 447 2328 
Q 447 3434 972 4092 
Q 1497 4750 2381 4750 
Q 2619 4750 2861 4703 
Q 3103 4656 3366 4563 
z
" transform="scale(0.015625)"/>
       </defs>
       <use xlink:href="#DejaVuSans-2212"/>
       <use xlink:href="#DejaVuSans-30" transform="translate(83.789062 0)"/>
       <use xlink:href="#DejaVuSans-2e" transform="translate(147.412109 0)"/>
       <use xlink:href="#DejaVuSans-36" transform="translate(179.199219 0)"/>
      </g>
     </g>
    </g>
    <g id="ytick_2">
     <g id="line2d_19">
      <path d="M 56.18 200.46822 
L 565.2 200.46822 
" clip-path="url(#p6930279036)" style="fill: none; stroke: #b0b0b0; stroke-width: 0.8; stroke-linecap: square"/>
     </g>
     <g id="line2d_20">
      <g>
       <use xlink:href="#mb8aa9b0857" x="56.18" y="200.46822" style="stroke: #000000; stroke-width: 0.8"/>
      </g>
     </g>
     <g id="text_11">
      <!-- −0.4 -->
      <g transform="translate(24.897188 204.267439) scale(0.1 -0.1)">
       <defs>
        <path id="DejaVuSans-34" d="M 2419 4116 
L 825 1625 
L 2419 1625 
L 2419 4116 
z
M 2253 4666 
L 3047 4666 
L 3047 1625 
L 3713 1625 
L 3713 1100 
L 3047 1100 
L 3047 0 
L 2419 0 
L 2419 1100 
L 313 1100 
L 313 1709 
L 2253 4666 
z
" transform="scale(0.015625)"/>
       </defs>
       <use xlink:href="#DejaVuSans-2212"/>
       <use xlink:href="#DejaVuSans-30" transform="translate(83.789062 0)"/>
       <use xlink:href="#DejaVuSans-2e" transform="translate(147.412109 0)"/>
       <use xlink:href="#DejaVuSans-34" transform="translate(179.199219 0)"/>
      </g>
     </g>
    </g>
    <g id="ytick_3">
     <g id="line2d_21">
      <path d="M 56.18 169.614407 
L 565.2 169.614407 
" clip-path="url(#p6930279036)" style="fill: none; stroke: #b0b0b0; stroke-width: 0.8; stroke-linecap: square"/>
     </g>
     <g id="line2d_22">
      <g>
       <use xlink:href="#mb8aa9b0857" x="56.18" y="169.614407" style="stroke: #000000; stroke-width: 0.8"/>
      </g>
     </g>
     <g id="text_12">
      <!-- −0.2 -->
      <g transform="translate(24.897188 173.413626) scale(0.1 -0.1)">
       <use xlink:href="#DejaVuSans-2212"/>
       <use xlink:href="#DejaVuSans-30" transform="translate(83.789062 0)"/>
       <use xlink:href="#DejaVuSans-2e" transform="translate(147.412109 0)"/>
       <use xlink:href="#DejaVuSans-32" transform="translate(179.199219 0)"/>
      </g>
     </g>
    </g>
    <g id="ytick_4">
     <g id="line2d_23">
      <path d="M 56.18 138.760594 
L 565.2 138.760594 
" clip-path="url(#p6930279036)" style="fill: none; stroke: #b0b0b0; stroke-width: 0.8; stroke-linecap: square"/>
     </g>
     <g id="line2d_24">
      <g>
       <use xlink:href="#mb8aa9b0857" x="56.18" y="138.760594" style="stroke: #000000; stroke-width: 0.8"/>
      </g>
     </g>
     <g id="text_13">
      <!-- 0.0 -->
      <g transform="translate(33.276875 142.559813) scale(0.1 -0.1)">
       <use xlink:href="#DejaVuSans-30"/>
       <use xlink:href="#DejaVuSans-2e" transform="translate(63.623047 0)"/>
       <use xlink:href="#DejaVuSans-30" transform="translate(95.410156 0)"/>
      </g>
     </g>
    </g>
    <g id="ytick_5">
     <g id="line2d_25">
      <path d="M 56.18 107.906781 
L 565.2 107.906781 
" clip-path="url(#p6930279036)" style="fill: none; stroke: #b0b0b0; stroke-width: 0.8; stroke-linecap: square"/>
     </g>
     <g id="line2d_26">
      <g>
       <use xlink:href="#mb8aa9b0857" x="56.18" y="107.906781" style="stroke: #000000; stroke-width: 0.8"/>
      </g>
     </g>
     <g id="text_14">
      <!-- 0.2 -->
      <g transform="translate(33.276875 111.706) scale(0.1 -0.1)">
       <use xlink:href="#DejaVuSans-30"/>
       <use xlink:href="#DejaVuSans-2e" transform="translate(63.623047 0)"/>
       <use xlink:href="#DejaVuSans-32" transform="translate(95.410156 0)"/>
      </g>
     </g>
    </g>
    <g id="ytick_6">
     <g id="line2d_27">
      <path d="M 56.18 77.052968 
L 565.2 77.052968 
" clip-path="url(#p6930279036)" style="fill: none; stroke: #b0b0b0; stroke-width: 0.8; stroke-linecap: square"/>
     </g>
     <g id="line2d_28">
      <g>
       <use xlink:href="#mb8aa9b0857" x="56.18" y="77.052968" style="stroke: #000000; stroke-width: 0.8"/>
      </g>
     </g>
     <g id="text_15">
      <!-- 0.4 -->
      <g transform="translate(33.276875 80.852186) scale(0.1 -0.1)">
       <use xlink:href="#DejaVuSans-30"/>
       <use xlink:href="#DejaVuSans-2e" transform="translate(63.623047 0)"/>
       <use xlink:href="#DejaVuSans-34" transform="translate(95.410156 0)"/>
      </g>
     </g>
    </g>
    <g id="ytick_7">
     <g id="line2d_29">
      <path d="M 56.18 46.199155 
L 565.2 46.199155 
" clip-path="url(#p6930279036)" style="fill: none; stroke: #b0b0b0; stroke-width: 0.8; stroke-linecap: square"/>
     </g>
     <g id="line2d_30">
      <g>
       <use xlink:href="#mb8aa9b0857" x="56.18" y="46.199155" style="stroke: #000000; stroke-width: 0.8"/>
      </g>
     </g>
     <g id="text_16">
      <!-- 0.6 -->
      <g transform="translate(33.276875 49.998373) scale(0.1 -0.1)">
       <use xlink:href="#DejaVuSans-30"/>
       <use xlink:href="#DejaVuSans-2e" transform="translate(63.623047 0)"/>
       <use xlink:href="#DejaVuSans-36" transform="translate(95.410156 0)"/>
      </g>
     </g>
    </g>
    <g id="text_17">
     <!-- Amplitude -->
     <g transform="translate(18.8175 161.722656) rotate(-90) scale(0.1 -0.1)">
      <defs>
       <path id="DejaVuSans-41" d="M 2188 4044 
L 1331 1722 
L 3047 1722 
L 2188 4044 
z
M 1831 4666 
L 2547 4666 
L 4325 0 
L 3669 0 
L 3244 1197 
L 1141 1197 
L 716 0 
L 50 0 
L 1831 4666 
z
" transform="scale(0.015625)"/>
       <path id="DejaVuSans-70" d="M 1159 525 
L 1159 -1331 
L 581 -1331 
L 581 3500 
L 1159 3500 
L 1159 2969 
Q 1341 3281 1617 3432 
Q 1894 3584 2278 3584 
Q 2916 3584 3314 3078 
Q 3713 2572 3713 1747 
Q 3713 922 3314 415 
Q 2916 -91 2278 -91 
Q 1894 -91 1617 61 
Q 1341 213 1159 525 
z
M 3116 1747 
Q 3116 2381 2855 2742 
Q 2594 3103 2138 3103 
Q 1681 3103 1420 2742 
Q 1159 2381 1159 1747 
Q 1159 1113 1420 752 
Q 1681 391 2138 391 
Q 2594 391 2855 752 
Q 3116 1113 3116 1747 
z
" transform="scale(0.015625)"/>
       <path id="DejaVuSans-6c" d="M 603 4863 
L 1178 4863 
L 1178 0 
L 603 0 
L 603 4863 
z
" transform="scale(0.015625)"/>
       <path id="DejaVuSans-74" d="M 1172 4494 
L 1172 3500 
L 2356 3500 
L 2356 3053 
L 1172 3053 
L 1172 1153 
Q 1172 725 1289 603 
Q 1406 481 1766 481 
L 2356 481 
L 2356 0 
L 1766 0 
Q 1100 0 847 248 
Q 594 497 594 1153 
L 594 3053 
L 172 3053 
L 172 3500 
L 594 3500 
L 594 4494 
L 1172 4494 
z
" transform="scale(0.015625)"/>
       <path id="DejaVuSans-64" d="M 2906 2969 
L 2906 4863 
L 3481 4863 
L 3481 0 
L 2906 0 
L 2906 525 
Q 2725 213 2448 61 
Q 2172 -91 1784 -91 
Q 1150 -91 751 415 
Q 353 922 353 1747 
Q 353 2572 751 3078 
Q 1150 3584 1784 3584 
Q 2172 3584 2448 3432 
Q 2725 3281 2906 2969 
z
M 947 1747 
Q 947 1113 1208 752 
Q 1469 391 1925 391 
Q 2381 391 2643 752 
Q 2906 1113 2906 1747 
Q 2906 2381 2643 2742 
Q 2381 3103 1925 3103 
Q 1469 3103 1208 2742 
Q 947 2381 947 1747 
z
" transform="scale(0.015625)"/>
      </defs>
      <use xlink:href="#DejaVuSans-41"/>
      <use xlink:href="#DejaVuSans-6d" transform="translate(68.408203 0)"/>
      <use xlink:href="#DejaVuSans-70" transform="translate(165.820312 0)"/>
      <use xlink:href="#DejaVuSans-6c" transform="translate(229.296875 0)"/>
      <use xlink:href="#DejaVuSans-69" transform="translate(257.080078 0)"/>
      <use xlink:href="#DejaVuSans-74" transform="translate(284.863281 0)"/>
      <use xlink:href="#DejaVuSans-75" transform="translate(324.072266 0)"/>
      <use xlink:href="#DejaVuSans-64" transform="translate(387.451172 0)"/>
      <use xlink:href="#DejaVuSans-65" transform="translate(450.927734 0)"/>
     </g>
    </g>
   </g>
   <g id="line2d_31">
    <path d="M 56.18 112.509562 
L 60.386777 93.661755 
L 61.789036 87.919515 
L 63.191295 82.810725 
L 64.593554 78.52164 
L 65.995813 75.20287 
L 67.398072 72.962024 
L 68.800331 71.859292 
L 70.20259 71.906144 
L 71.604848 73.067243 
L 73.007107 75.265217 
L 74.409366 78.387921 
L 75.811625 82.297507 
L 77.213884 86.840566 
L 80.018402 97.19791 
L 87.029697 124.621987 
L 91.236474 139.753864 
L 106.661322 192.798325 
L 108.063581 196.744274 
L 109.46584 200.148821 
L 110.868099 202.882235 
L 112.270358 204.817059 
L 113.672617 205.833321 
L 115.074876 205.823586 
L 116.477135 204.697583 
L 117.879394 202.386425 
L 119.281653 198.846192 
L 120.683912 194.060892 
L 122.086171 188.044718 
L 123.48843 180.843485 
L 124.890689 172.535319 
L 126.292948 163.230433 
L 129.097466 142.224424 
L 137.511019 75.044997 
L 138.913278 65.792487 
L 140.315537 57.748634 
L 141.717796 51.12735 
L 143.120055 46.115413 
L 144.522314 42.866549 
L 145.924573 41.49624 
L 147.326832 42.07751 
L 148.729091 44.637861 
L 150.13135 49.15741 
L 151.533609 55.568434 
L 152.935868 63.756244 
L 154.338127 73.561464 
L 155.740386 84.78363 
L 158.544904 110.501384 
L 165.556198 180.203426 
L 166.958457 192.610024 
L 168.360716 203.838111 
L 169.762975 213.651064 
L 171.165234 221.84839 
L 172.567493 228.270472 
L 173.969752 232.802127 
L 175.372011 235.374912 
L 176.77427 235.968046 
L 178.176529 234.608061 
L 179.578788 231.367088 
L 180.981047 226.359938 
L 182.383306 219.740068 
L 183.785565 211.694515 
L 185.187824 202.438079 
L 187.992342 181.25118 
L 195.003636 124.496095 
L 196.405895 114.386414 
L 197.808154 105.141758 
L 199.210413 96.899706 
L 200.612672 89.765226 
L 202.014931 83.80991 
L 203.41719 79.072229 
L 204.819449 75.558957 
L 206.221708 73.247429 
L 207.623967 72.088709 
L 209.026226 72.011435 
L 210.428485 72.926114 
L 211.830744 74.729848 
L 213.233003 77.311078 
L 214.635262 80.554355 
L 216.037521 84.344826 
L 218.842039 93.134781 
L 221.646556 102.914016 
L 232.864628 143.914248 
L 242.680441 179.705105 
L 245.484959 189.066638 
L 246.887218 193.28289 
L 248.289477 197.057813 
L 249.691736 200.282295 
L 251.093994 202.842907 
L 252.496253 204.625831 
L 253.898512 205.521166 
L 255.300771 205.42753 
L 256.70303 204.256643 
L 258.105289 201.93793 
L 259.507548 198.422725 
L 260.909807 193.688098 
L 262.312066 187.740044 
L 263.714325 180.615832 
L 265.116584 172.385555 
L 266.518843 163.152542 
L 269.323361 142.253159 
L 277.736915 75.069113 
L 279.139174 65.795559 
L 280.541433 57.733889 
L 281.943691 51.100337 
L 283.34595 46.083072 
L 284.748209 42.836273 
L 286.150468 41.474969 
L 287.552727 42.070974 
L 288.954986 44.650018 
L 290.357245 49.190089 
L 291.759504 55.621249 
L 293.161763 63.826703 
L 294.564022 73.645289 
L 295.966281 84.875234 
L 298.770799 110.589378 
L 305.782094 180.199605 
L 307.184353 192.584885 
L 308.586612 203.794297 
L 309.988871 213.592331 
L 311.391129 221.779223 
L 312.793388 228.195638 
L 314.195647 232.726248 
L 315.597906 235.302087 
L 317.000165 235.90153 
L 318.402424 234.550081 
L 319.804683 231.318742 
L 321.206942 226.321231 
L 322.609201 219.710054 
L 324.01146 211.671503 
L 325.413719 202.419927 
L 328.218237 181.235964 
L 335.229532 124.468393 
L 336.631791 114.357757 
L 338.03405 105.113754 
L 339.436309 96.874071 
L 340.838567 89.743564 
L 342.240826 83.793522 
L 343.643085 79.061955 
L 345.045344 75.555072 
L 346.447603 73.2496 
L 347.849862 72.096014 
L 349.252121 72.022432 
L 350.65438 72.938951 
L 352.056639 74.742403 
L 353.458898 77.321099 
L 354.861157 80.559604 
L 356.263416 84.343196 
L 359.067934 93.114036 
L 361.872452 102.869073 
L 373.090523 143.77044 
L 384.308595 184.363355 
L 387.113113 193.150396 
L 388.515372 196.931962 
L 389.917631 200.16165 
L 391.31989 202.72538 
L 392.722149 204.508857 
L 394.124408 205.401959 
L 395.526667 205.303383 
L 396.928926 204.125259 
L 398.331185 201.797742 
L 399.733444 198.273189 
L 401.135702 193.5299 
L 402.537961 187.575213 
L 403.94022 180.447721 
L 405.342479 172.218689 
L 406.744738 162.992334 
L 409.549256 142.123929 
L 417.96281 75.108715 
L 419.365069 65.854878 
L 420.767328 57.805117 
L 422.169587 51.174407 
L 423.571846 46.150335 
L 424.974105 42.887274 
L 426.376364 41.50125 
L 427.778623 42.065837 
L 429.180882 44.609175 
L 430.58314 49.11214 
L 431.985399 55.507931 
L 433.387658 63.682878 
L 434.789917 73.478672 
L 436.192176 84.695855 
L 438.996694 110.419938 
L 446.007989 180.225929 
L 447.410248 192.659086 
L 448.812507 203.911182 
L 450.214766 213.743551 
L 451.617025 221.953944 
L 453.019284 228.38143 
L 454.421543 232.910099 
L 455.823802 235.471478 
L 457.226061 236.045455 
L 458.62832 234.659931 
L 460.030579 231.388979 
L 461.432837 226.349783 
L 462.835096 219.698407 
L 464.237355 211.624481 
L 465.639614 202.345183 
L 468.444132 181.13615 
L 475.455427 124.470774 
L 476.857686 114.392492 
L 478.259945 105.177998 
L 479.662204 96.962328 
L 481.064463 89.848273 
L 482.466722 83.905802 
L 483.868981 79.17245 
L 485.27124 75.654805 
L 486.673499 73.330755 
L 488.075758 72.152586 
L 489.478017 72.050678 
L 490.880275 72.937622 
L 492.282534 74.712727 
L 493.684793 77.266554 
L 495.087052 80.485483 
L 496.489311 84.256039 
L 499.293829 93.022132 
L 502.098347 102.797357 
L 514.718678 148.916901 
L 523.132231 179.539579 
L 525.936749 188.919999 
L 527.339008 193.151813 
L 528.741267 196.945093 
L 530.143526 200.189447 
L 531.545785 202.770087 
L 532.948044 204.571905 
L 534.350303 205.483923 
L 535.752562 205.404016 
L 537.154821 204.243569 
L 538.55708 201.932106 
L 539.959339 198.421483 
L 541.361598 193.689628 
L 542.763857 187.743633 
L 544.166116 180.621948 
L 545.568375 172.395784 
L 546.970634 163.169372 
L 549.775152 142.292469 
L 558.188705 75.205607 
L 559.590964 65.938694 
L 560.993223 57.877532 
L 562.395482 51.237882 
L 563.797741 46.208013 
L 565.2 42.942791 
L 565.2 42.942791 
" clip-path="url(#p6930279036)" style="fill: none; stroke: #1f77b4; stroke-width: 1.5; stroke-linecap: square"/>
   </g>
   <g id="line2d_32">
    <path d="M 56.18 183.465672 
L 57.582259 191.949935 
L 58.984518 199.617242 
L 60.386777 206.030329 
L 61.789036 210.789816 
L 63.191295 213.557922 
L 64.593554 214.078527 
L 65.995813 212.192188 
L 67.398072 207.84529 
L 68.800331 201.09273 
L 70.20259 192.094268 
L 71.604848 181.104978 
L 73.007107 168.460693 
L 75.811625 139.842141 
L 80.018402 95.370537 
L 81.420661 81.889909 
L 82.82292 69.710533 
L 84.225179 59.129031 
L 85.627438 50.378988 
L 87.029697 43.629466 
L 88.431956 38.986524 
L 89.834215 36.497107 
L 91.236474 36.154545 
L 92.638733 37.90486 
L 94.040992 41.653321 
L 95.443251 47.270599 
L 96.84551 54.598301 
L 98.247769 63.453639 
L 99.650028 73.633271 
L 102.454545 97.068194 
L 106.661322 136.222689 
L 109.46584 161.974627 
L 112.270358 185.072976 
L 113.672617 195.055383 
L 115.074876 203.735559 
L 116.477135 210.959722 
L 117.879394 216.611424 
L 119.281653 220.614918 
L 120.683912 222.937131 
L 122.086171 223.587969 
L 123.48843 222.618994 
L 124.890689 220.120521 
L 126.292948 216.217246 
L 127.695207 211.062753 
L 129.097466 204.833095 
L 130.499725 197.719893 
L 133.304242 181.644718 
L 140.315537 139.43922 
L 143.120055 124.853875 
L 144.522314 118.424755 
L 145.924573 112.625072 
L 147.326832 107.469065 
L 148.729091 102.953177 
L 150.13135 99.059194 
L 151.533609 95.757683 
L 152.935868 93.011555 
L 154.338127 90.779705 
L 155.740386 89.020458 
L 157.142645 87.69481 
L 158.544904 86.769266 
L 159.947163 86.218183 
L 161.349421 86.02556 
L 162.75168 86.186129 
L 164.153939 86.705771 
L 165.556198 87.601168 
L 166.958457 88.898738 
L 168.360716 90.632856 
L 169.762975 92.843439 
L 171.165234 95.573005 
L 172.567493 98.863278 
L 173.969752 102.751569 
L 175.372011 107.266996 
L 176.77427 112.426805 
L 178.176529 118.232934 
L 179.578788 124.668958 
L 182.383306 139.259328 
L 185.187824 155.625377 
L 190.79686 189.60629 
L 192.199118 197.380315 
L 193.601377 204.486322 
L 195.003636 210.731403 
L 196.405895 215.930046 
L 197.808154 219.910168 
L 199.210413 222.518981 
L 200.612672 223.628619 
L 202.014931 223.141149 
L 203.41719 220.992967 
L 204.819449 217.158309 
L 206.221708 211.651701 
L 207.623967 204.529416 
L 209.026226 195.889596 
L 210.428485 185.871266 
L 211.830744 174.652052 
L 214.635262 149.492536 
L 220.244298 95.835166 
L 221.646556 83.443036 
L 223.048815 72.044294 
L 224.451074 61.904659 
L 225.853333 53.262697 
L 227.255592 46.323276 
L 228.657851 41.251796 
L 230.06011 38.169559 
L 231.462369 37.150359 
L 232.864628 38.21834 
L 234.266887 41.34738 
L 235.669146 46.461775 
L 237.071405 53.438436 
L 238.473664 62.110378 
L 239.875923 72.271408 
L 241.278182 83.681963 
L 244.0827 109.166993 
L 249.691736 162.551998 
L 251.093994 174.713253 
L 252.496253 185.884668 
L 253.898512 195.855995 
L 255.300771 204.452097 
L 256.70303 211.53627 
L 258.105289 217.012374 
L 259.507548 220.825693 
L 260.909807 222.962698 
L 262.312066 223.449527 
L 263.714325 222.349512 
L 265.116584 219.75969 
L 266.518843 215.806484 
L 267.921102 210.640797 
L 269.323361 204.432526 
L 270.72562 197.364872 
L 273.530138 181.415697 
L 280.541433 139.407502 
L 283.34595 124.814373 
L 284.748209 118.37245 
L 286.150468 112.559354 
L 287.552727 107.392888 
L 288.954986 102.872229 
L 290.357245 98.980892 
L 291.759504 95.690099 
L 293.161763 92.962412 
L 294.564022 90.755583 
L 295.966281 89.02621 
L 297.36854 87.733281 
L 298.770799 86.841253 
L 300.173058 86.32262 
L 301.575317 86.159862 
L 302.977576 86.346602 
L 304.379835 86.888067 
L 305.782094 87.800659 
L 307.184353 89.11083 
L 308.586612 90.853175 
L 309.988871 93.067909 
L 311.391129 95.797836 
L 312.793388 99.084859 
L 314.195647 102.96637 
L 315.597906 107.47144 
L 317.000165 112.617211 
L 318.402424 118.405516 
L 319.804683 124.819896 
L 322.609201 139.35633 
L 325.413719 155.658061 
L 331.022755 189.515135 
L 332.425014 197.267285 
L 333.827273 204.357467 
L 335.229532 210.593473 
L 336.631791 215.790081 
L 338.03405 219.775055 
L 339.436309 222.395011 
L 340.838567 223.521105 
L 342.240826 223.054132 
L 343.643085 220.92903 
L 345.045344 217.118522 
L 346.447603 211.635694 
L 347.849862 204.535569 
L 349.252121 195.915324 
L 350.65438 185.913368 
L 352.056639 174.707083 
L 354.861157 149.563822 
L 360.470193 95.917364 
L 361.872452 83.527252 
L 363.274711 72.130947 
L 364.67697 61.994066 
L 366.079229 53.354804 
L 367.481488 46.417435 
L 368.883747 41.346617 
L 370.286006 38.262872 
L 371.688264 37.239267 
L 373.090523 38.299392 
L 374.492782 41.416826 
L 375.895041 46.515881 
L 377.2973 53.473838 
L 378.699559 62.124416 
L 380.101818 72.262429 
L 381.504077 83.64954 
L 384.308595 109.09179 
L 389.917631 162.439804 
L 391.31989 174.605536 
L 392.722149 185.786739 
L 394.124408 195.772468 
L 395.526667 204.386615 
L 396.928926 211.491325 
L 398.331185 216.989212 
L 399.733444 220.824307 
L 401.135702 222.981907 
L 402.537961 223.487121 
L 403.94022 222.40244 
L 405.342479 219.824281 
L 406.744738 215.878668 
L 408.146997 210.71633 
L 409.549256 204.507184 
L 410.951515 197.434629 
L 413.756033 181.465059 
L 420.767328 139.37211 
L 423.571846 124.747656 
L 424.974105 118.293921 
L 426.376364 112.472531 
L 427.778623 107.301816 
L 429.180882 102.781264 
L 430.58314 98.894427 
L 431.985399 95.612253 
L 433.387658 92.896706 
L 434.789917 90.704615 
L 436.192176 88.991377 
L 437.594435 87.714564 
L 438.996694 86.837107 
L 440.398953 86.329972 
L 441.801212 86.174252 
L 443.203471 86.362447 
L 444.60573 86.899044 
L 446.007989 87.800186 
L 447.410248 89.092595 
L 448.812507 90.81168 
L 450.214766 92.998969 
L 451.617025 95.698996 
L 453.019284 98.955681 
L 454.421543 102.80855 
L 455.823802 107.288749 
L 457.226061 112.415251 
L 458.62832 118.191312 
L 460.030579 124.601349 
L 462.835096 139.153102 
L 465.639614 155.496232 
L 471.24865 189.453886 
L 472.650909 197.222509 
L 474.053168 204.322576 
L 475.455427 210.561308 
L 476.857686 215.753599 
L 478.259945 219.728012 
L 479.662204 222.332565 
L 481.064463 223.440289 
L 482.466722 222.954151 
L 483.868981 220.811359 
L 485.27124 216.986783 
L 486.673499 211.495341 
L 488.075758 204.393392 
L 489.478017 195.778825 
L 490.880275 185.790068 
L 492.282534 174.603808 
L 495.087052 149.515111 
L 502.098347 83.594044 
L 503.500606 72.199906 
L 504.902865 62.055319 
L 506.305124 53.398589 
L 507.707383 46.434854 
L 509.109642 41.330341 
L 510.511901 38.207733 
L 511.91416 37.142718 
L 513.316419 38.161772 
L 514.718678 41.24143 
L 516.120937 46.308827 
L 517.523196 53.243731 
L 518.925455 61.88184 
L 520.327713 72.019297 
L 521.729972 83.418343 
L 524.53449 108.920272 
L 530.143526 162.479039 
L 531.545785 174.699873 
L 532.948044 185.930715 
L 534.350303 195.957729 
L 535.752562 204.602417 
L 537.154821 211.725193 
L 538.55708 217.22772 
L 539.959339 221.053928 
L 541.361598 223.189875 
L 542.763857 223.662246 
L 544.166116 222.535824 
L 545.568375 219.909877 
L 546.970634 215.913644 
L 548.372893 210.701205 
L 549.775152 204.445729 
L 551.17741 197.333527 
L 553.981928 181.313425 
L 560.993223 139.27692 
L 563.797741 124.712674 
L 565.2 118.285297 
L 565.2 118.285297 
" clip-path="url(#p6930279036)" style="fill: none; stroke: #ff7f0e; stroke-width: 1.5; stroke-linecap: square"/>
   </g>
   <g id="patch_3">
    <path d="M 56.18 246.04 
L 56.18 26.16 
" style="fill: none; stroke: #000000; stroke-width: 0.8; stroke-linejoin: miter; stroke-linecap: square"/>
   </g>
   <g id="patch_4">
    <path d="M 565.2 246.04 
L 565.2 26.16 
" style="fill: none; stroke: #000000; stroke-width: 0.8; stroke-linejoin: miter; stroke-linecap: square"/>
   </g>
   <g id="patch_5">
    <path d="M 56.18 246.04 
L 565.2 246.04 
" style="fill: none; stroke: #000000; stroke-width: 0.8; stroke-linejoin: miter; stroke-linecap: square"/>
   </g>
   <g id="patch_6">
    <path d="M 56.18 26.16 
L 565.2 26.16 
" style="fill: none; stroke: #000000; stroke-width: 0.8; stroke-linejoin: miter; stroke-linecap: square"/>
   </g>
   <g id="text_18">
    <!-- LPF Output I/Q (Time Domain) -->
    <g transform="translate(220.650625 20.16) scale(0.12 -0.12)">
     <defs>
      <path id="DejaVuSans-4c" d="M 628 4666 
L 1259 4666 
L 1259 531 
L 3531 531 
L 3531 0 
L 628 0 
L 628 4666 
z
" transform="scale(0.015625)"/>
      <path id="DejaVuSans-50" d="M 1259 4147 
L 1259 2394 
L 2053 2394 
Q 2494 2394 2734 2622 
Q 2975 2850 2975 3272 
Q 2975 3691 2734 3919 
Q 2494 4147 2053 4147 
L 1259 4147 
z
M 628 4666 
L 2053 4666 
Q 2838 4666 3239 4311 
Q 3641 3956 3641 3272 
Q 3641 2581 3239 2228 
Q 2838 1875 2053 1875 
L 1259 1875 
L 1259 0 
L 628 0 
L 628 4666 
z
" transform="scale(0.015625)"/>
      <path id="DejaVuSans-46" d="M 628 4666 
L 3309 4666 
L 3309 4134 
L 1259 4134 
L 1259 2759 
L 3109 2759 
L 3109 2228 
L 1259 2228 
L 1259 0 
L 628 0 
L 628 4666 
z
" transform="scale(0.015625)"/>
      <path id="DejaVuSans-4f" d="M 2522 4238 
Q 1834 4238 1429 3725 
Q 1025 3213 1025 2328 
Q 1025 1447 1429 934 
Q 1834 422 2522 422 
Q 3209 422 3611 934 
Q 4013 1447 4013 2328 
Q 4013 3213 3611 3725 
Q 3209 4238 2522 4238 
z
M 2522 4750 
Q 3503 4750 4090 4092 
Q 4678 3434 4678 2328 
Q 4678 1225 4090 567 
Q 3503 -91 2522 -91 
Q 1538 -91 948 565 
Q 359 1222 359 2328 
Q 359 3434 948 4092 
Q 1538 4750 2522 4750 
z
" transform="scale(0.015625)"/>
      <path id="DejaVuSans-49" d="M 628 4666 
L 1259 4666 
L 1259 0 
L 628 0 
L 628 4666 
z
" transform="scale(0.015625)"/>
      <path id="DejaVuSans-2f" d="M 1625 4666 
L 2156 4666 
L 531 -594 
L 0 -594 
L 1625 4666 
z
" transform="scale(0.015625)"/>
      <path id="DejaVuSans-51" d="M 2522 4238 
Q 1834 4238 1429 3725 
Q 1025 3213 1025 2328 
Q 1025 1447 1429 934 
Q 1834 422 2522 422 
Q 3209 422 3611 934 
Q 4013 1447 4013 2328 
Q 4013 3213 3611 3725 
Q 3209 4238 2522 4238 
z
M 3406 84 
L 4238 -825 
L 3475 -825 
L 2784 -78 
Q 2681 -84 2626 -87 
Q 2572 -91 2522 -91 
Q 1538 -91 948 567 
Q 359 1225 359 2328 
Q 359 3434 948 4092 
Q 1538 4750 2522 4750 
Q 3503 4750 4090 4092 
Q 4678 3434 4678 2328 
Q 4678 1516 4351 937 
Q 4025 359 3406 84 
z
" transform="scale(0.015625)"/>
      <path id="DejaVuSans-44" d="M 1259 4147 
L 1259 519 
L 2022 519 
Q 2988 519 3436 956 
Q 3884 1394 3884 2338 
Q 3884 3275 3436 3711 
Q 2988 4147 2022 4147 
L 1259 4147 
z
M 628 4666 
L 1925 4666 
Q 3281 4666 3915 4102 
Q 4550 3538 4550 2338 
Q 4550 1131 3912 565 
Q 3275 0 1925 0 
L 628 0 
L 628 4666 
z
" transform="scale(0.015625)"/>
      <path id="DejaVuSans-6f" d="M 1959 3097 
Q 1497 3097 1228 2736 
Q 959 2375 959 1747 
Q 959 1119 1226 758 
Q 1494 397 1959 397 
Q 2419 397 2687 759 
Q 2956 1122 2956 1747 
Q 2956 2369 2687 2733 
Q 2419 3097 1959 3097 
z
M 1959 3584 
Q 2709 3584 3137 3096 
Q 3566 2609 3566 1747 
Q 3566 888 3137 398 
Q 2709 -91 1959 -91 
Q 1206 -91 779 398 
Q 353 888 353 1747 
Q 353 2609 779 3096 
Q 1206 3584 1959 3584 
z
" transform="scale(0.015625)"/>
      <path id="DejaVuSans-61" d="M 2194 1759 
Q 1497 1759 1228 1600 
Q 959 1441 959 1056 
Q 959 750 1161 570 
Q 1363 391 1709 391 
Q 2188 391 2477 730 
Q 2766 1069 2766 1631 
L 2766 1759 
L 2194 1759 
z
M 3341 1997 
L 3341 0 
L 2766 0 
L 2766 531 
Q 2569 213 2275 61 
Q 1981 -91 1556 -91 
Q 1019 -91 701 211 
Q 384 513 384 1019 
Q 384 1609 779 1909 
Q 1175 2209 1959 2209 
L 2766 2209 
L 2766 2266 
Q 2766 2663 2505 2880 
Q 2244 3097 1772 3097 
Q 1472 3097 1187 3025 
Q 903 2953 641 2809 
L 641 3341 
Q 956 3463 1253 3523 
Q 1550 3584 1831 3584 
Q 2591 3584 2966 3190 
Q 3341 2797 3341 1997 
z
" transform="scale(0.015625)"/>
      <path id="DejaVuSans-6e" d="M 3513 2113 
L 3513 0 
L 2938 0 
L 2938 2094 
Q 2938 2591 2744 2837 
Q 2550 3084 2163 3084 
Q 1697 3084 1428 2787 
Q 1159 2491 1159 1978 
L 1159 0 
L 581 0 
L 581 3500 
L 1159 3500 
L 1159 2956 
Q 1366 3272 1645 3428 
Q 1925 3584 2291 3584 
Q 2894 3584 3203 3211 
Q 3513 2838 3513 2113 
z
" transform="scale(0.015625)"/>
     </defs>
     <use xlink:href="#DejaVuSans-4c"/>
     <use xlink:href="#DejaVuSans-50" transform="translate(55.712891 0)"/>
     <use xlink:href="#DejaVuSans-46" transform="translate(116.015625 0)"/>
     <use xlink:href="#DejaVuSans-20" transform="translate(173.535156 0)"/>
     <use xlink:href="#DejaVuSans-4f" transform="translate(205.322266 0)"/>
     <use xlink:href="#DejaVuSans-75" transform="translate(284.033203 0)"/>
     <use xlink:href="#DejaVuSans-74" transform="translate(347.412109 0)"/>
     <use xlink:href="#DejaVuSans-70" transform="translate(386.621094 0)"/>
     <use xlink:href="#DejaVuSans-75" transform="translate(450.097656 0)"/>
     <use xlink:href="#DejaVuSans-74" transform="translate(513.476562 0)"/>
     <use xlink:href="#DejaVuSans-20" transform="translate(552.685547 0)"/>
     <use xlink:href="#DejaVuSans-49" transform="translate(584.472656 0)"/>
     <use xlink:href="#DejaVuSans-2f" transform="translate(613.964844 0)"/>
     <use xlink:href="#DejaVuSans-51" transform="translate(647.65625 0)"/>
     <use xlink:href="#DejaVuSans-20" transform="translate(726.367188 0)"/>
     <use xlink:href="#DejaVuSans-28" transform="translate(758.154297 0)"/>
     <use xlink:href="#DejaVuSans-54" transform="translate(797.167969 0)"/>
     <use xlink:href="#DejaVuSans-69" transform="translate(855.126953 0)"/>
     <use xlink:href="#DejaVuSans-6d" transform="translate(882.910156 0)"/>
     <use xlink:href="#DejaVuSans-65" transform="translate(980.322266 0)"/>
     <use xlink:href="#DejaVuSans-20" transform="translate(1041.845703 0)"/>
     <use xlink:href="#DejaVuSans-44" transform="translate(1073.632812 0)"/>
     <use xlink:href="#DejaVuSans-6f" transform="translate(1150.634766 0)"/>
     <use xlink:href="#DejaVuSans-6d" transform="translate(1211.816406 0)"/>
     <use xlink:href="#DejaVuSans-61" transform="translate(1309.228516 0)"/>
     <use xlink:href="#DejaVuSans-69" transform="translate(1370.507812 0)"/>
     <use xlink:href="#DejaVuSans-6e" transform="translate(1398.291016 0)"/>
     <use xlink:href="#DejaVuSans-29" transform="translate(1461.669922 0)"/>
    </g>
   </g>
   <g id="legend_1">
    <g id="patch_7">
     <path d="M 518.328125 63.51625 
L 558.2 63.51625 
Q 560.2 63.51625 560.2 61.51625 
L 560.2 33.16 
Q 560.2 31.16 558.2 31.16 
L 518.328125 31.16 
Q 516.328125 31.16 516.328125 33.16 
L 516.328125 61.51625 
Q 516.328125 63.51625 518.328125 63.51625 
z
" style="fill: #ffffff; opacity: 0.8; stroke: #cccccc; stroke-linejoin: miter"/>
    </g>
    <g id="line2d_33">
     <path d="M 520.328125 39.258437 
L 530.328125 39.258437 
L 540.328125 39.258437 
" style="fill: none; stroke: #1f77b4; stroke-width: 1.5; stroke-linecap: square"/>
    </g>
    <g id="text_19">
     <!-- I -->
     <g transform="translate(548.328125 42.758437) scale(0.1 -0.1)">
      <use xlink:href="#DejaVuSans-49"/>
     </g>
    </g>
    <g id="line2d_34">
     <path d="M 520.328125 53.936562 
L 530.328125 53.936562 
L 540.328125 53.936562 
" style="fill: none; stroke: #ff7f0e; stroke-width: 1.5; stroke-linecap: square"/>
    </g>
    <g id="text_20">
     <!-- Q -->
     <g transform="translate(548.328125 57.436562) scale(0.1 -0.1)">
      <use xlink:href="#DejaVuSans-51"/>
     </g>
    </g>
   </g>
  </g>
 </g>
 <defs>
  <clipPath id="p6930279036">
   <rect x="56.18" y="26.16" width="509.02" height="219.88"/>
  </clipPath>
 </defs>
</svg>
