<?xml version="1.0" encoding="utf-8" standalone="no"?>
<!DOCTYPE svg PUBLIC "-//W3C//DTD SVG 1.1//EN"
  "http://www.w3.org/Graphics/SVG/1.1/DTD/svg11.dtd">
<svg xmlns:xlink="http://www.w3.org/1999/xlink" width="576pt" height="288pt" viewBox="0 0 576 288" xmlns="http://www.w3.org/2000/svg" version="1.1">
 <metadata>
  <rdf:RDF xmlns:dc="http://purl.org/dc/elements/1.1/" xmlns:cc="http://creativecommons.org/ns#" xmlns:rdf="http://www.w3.org/1999/02/22-rdf-syntax-ns#">
   <cc:Work>
    <dc:type rdf:resource="http://purl.org/dc/dcmitype/StillImage"/>
    <dc:date>2026-02-05T18:22:51.788986</dc:date>
    <dc:format>image/svg+xml</dc:format>
    <dc:creator>
     <cc:Agent>
      <dc:title>Matplotlib v3.10.8, https://matplotlib.org/</dc:title>
     </cc:Agent>
    </dc:creator>
   </cc:Work>
  </rdf:RDF>
 </metadata>
 <defs>
  <style type="text/css">*{stroke-linejoin: round; stroke-linecap: butt}</style>
 </defs>
 <g id="figure_1">
  <g id="patch_1">
   <path d="M 0 288 
L 576 288 
L 576 0 
L 0 0 
z
" style="fill: #ffffff"/>
  </g>
  <g id="axes_1">
   <g id="patch_2">
    <path d="M 56.18 246.04 
L 565.2 246.04 
L 565.2 26.16 
L 56.18 26.16 
z
" style="fill: #ffffff"/>
   </g>
   <g id="matplotlib.axis_1">
    <g id="xtick_1">
     <g id="line2d_1">
      <path d="M 56.18 246.04 
L 56.18 26.16 
" clip-path="url(#p0a52756a45)" style="fill: none; stroke: #b0b0b0; stroke-width: 0.8; stroke-linecap: square"/>
     </g>
     <g id="line2d_2">
      <defs>
       <path id="ma34f132ec9" d="M 0 0 
L 0 3.5 
" style="stroke: #000000; stroke-width: 0.8"/>
      </defs>
      <g>
       <use xlink:href="#ma34f132ec9" x="56.18" y="246.04" style="stroke: #000000; stroke-width: 0.8"/>
      </g>
     </g>
     <g id="text_1">
      <!-- 0.0 -->
      <g transform="translate(48.228438 260.638438) scale(0.1 -0.1)">
       <defs>
        <path id="DejaVuSans-30" d="M 2034 4250 
Q 1547 4250 1301 3770 
Q 1056 3291 1056 2328 
Q 1056 1369 1301 889 
Q 1547 409 2034 409 
Q 2525 409 2770 889 
Q 3016 1369 3016 2328 
Q 3016 3291 2770 3770 
Q 2525 4250 2034 4250 
z
M 2034 4750 
Q 2819 4750 3233 4129 
Q 3647 3509 3647 2328 
Q 3647 1150 3233 529 
Q 2819 -91 2034 -91 
Q 1250 -91 836 529 
Q 422 1150 422 2328 
Q 422 3509 836 4129 
Q 1250 4750 2034 4750 
z
" transform="scale(0.015625)"/>
        <path id="DejaVuSans-2e" d="M 684 794 
L 1344 794 
L 1344 0 
L 684 0 
L 684 794 
z
" transform="scale(0.015625)"/>
       </defs>
       <use xlink:href="#DejaVuSans-30"/>
       <use xlink:href="#DejaVuSans-2e" transform="translate(63.623047 0)"/>
       <use xlink:href="#DejaVuSans-30" transform="translate(95.410156 0)"/>
      </g>
     </g>
    </g>
    <g id="xtick_2">
     <g id="line2d_3">
      <path d="M 126.292948 246.04 
L 126.292948 26.16 
" clip-path="url(#p0a52756a45)" style="fill: none; stroke: #b0b0b0; stroke-width: 0.8; stroke-linecap: square"/>
     </g>
     <g id="line2d_4">
      <g>
       <use xlink:href="#ma34f132ec9" x="126.292948" y="246.04" style="stroke: #000000; stroke-width: 0.8"/>
      </g>
     </g>
     <g id="text_2">
      <!-- 0.5 -->
      <g transform="translate(118.341385 260.638438) scale(0.1 -0.1)">
       <defs>
        <path id="DejaVuSans-35" d="M 691 4666 
L 3169 4666 
L 3169 4134 
L 1269 4134 
L 1269 2991 
Q 1406 3038 1543 3061 
Q 1681 3084 1819 3084 
Q 2600 3084 3056 2656 
Q 3513 2228 3513 1497 
Q 3513 744 3044 326 
Q 2575 -91 1722 -91 
Q 1428 -91 1123 -41 
Q 819 9 494 109 
L 494 744 
Q 775 591 1075 516 
Q 1375 441 1709 441 
Q 2250 441 2565 725 
Q 2881 1009 2881 1497 
Q 2881 1984 2565 2268 
Q 2250 2553 1709 2553 
Q 1456 2553 1204 2497 
Q 953 2441 691 2322 
L 691 4666 
z
" transform="scale(0.015625)"/>
       </defs>
       <use xlink:href="#DejaVuSans-30"/>
       <use xlink:href="#DejaVuSans-2e" transform="translate(63.623047 0)"/>
       <use xlink:href="#DejaVuSans-35" transform="translate(95.410156 0)"/>
      </g>
     </g>
    </g>
    <g id="xtick_3">
     <g id="line2d_5">
      <path d="M 196.405895 246.04 
L 196.405895 26.16 
" clip-path="url(#p0a52756a45)" style="fill: none; stroke: #b0b0b0; stroke-width: 0.8; stroke-linecap: square"/>
     </g>
     <g id="line2d_6">
      <g>
       <use xlink:href="#ma34f132ec9" x="196.405895" y="246.04" style="stroke: #000000; stroke-width: 0.8"/>
      </g>
     </g>
     <g id="text_3">
      <!-- 1.0 -->
      <g transform="translate(188.454333 260.638438) scale(0.1 -0.1)">
       <defs>
        <path id="DejaVuSans-31" d="M 794 531 
L 1825 531 
L 1825 4091 
L 703 3866 
L 703 4441 
L 1819 4666 
L 2450 4666 
L 2450 531 
L 3481 531 
L 3481 0 
L 794 0 
L 794 531 
z
" transform="scale(0.015625)"/>
       </defs>
       <use xlink:href="#DejaVuSans-31"/>
       <use xlink:href="#DejaVuSans-2e" transform="translate(63.623047 0)"/>
       <use xlink:href="#DejaVuSans-30" transform="translate(95.410156 0)"/>
      </g>
     </g>
    </g>
    <g id="xtick_4">
     <g id="line2d_7">
      <path d="M 266.518843 246.04 
L 266.518843 26.16 
" clip-path="url(#p0a52756a45)" style="fill: none; stroke: #b0b0b0; stroke-width: 0.8; stroke-linecap: square"/>
     </g>
     <g id="line2d_8">
      <g>
       <use xlink:href="#ma34f132ec9" x="266.518843" y="246.04" style="stroke: #000000; stroke-width: 0.8"/>
      </g>
     </g>
     <g id="text_4">
      <!-- 1.5 -->
      <g transform="translate(258.56728 260.638438) scale(0.1 -0.1)">
       <use xlink:href="#DejaVuSans-31"/>
       <use xlink:href="#DejaVuSans-2e" transform="translate(63.623047 0)"/>
       <use xlink:href="#DejaVuSans-35" transform="translate(95.410156 0)"/>
      </g>
     </g>
    </g>
    <g id="xtick_5">
     <g id="line2d_9">
      <path d="M 336.631791 246.04 
L 336.631791 26.16 
" clip-path="url(#p0a52756a45)" style="fill: none; stroke: #b0b0b0; stroke-width: 0.8; stroke-linecap: square"/>
     </g>
     <g id="line2d_10">
      <g>
       <use xlink:href="#ma34f132ec9" x="336.631791" y="246.04" style="stroke: #000000; stroke-width: 0.8"/>
      </g>
     </g>
     <g id="text_5">
      <!-- 2.0 -->
      <g transform="translate(328.680228 260.638438) scale(0.1 -0.1)">
       <defs>
        <path id="DejaVuSans-32" d="M 1228 531 
L 3431 531 
L 3431 0 
L 469 0 
L 469 531 
Q 828 903 1448 1529 
Q 2069 2156 2228 2338 
Q 2531 2678 2651 2914 
Q 2772 3150 2772 3378 
Q 2772 3750 2511 3984 
Q 2250 4219 1831 4219 
Q 1534 4219 1204 4116 
Q 875 4013 500 3803 
L 500 4441 
Q 881 4594 1212 4672 
Q 1544 4750 1819 4750 
Q 2544 4750 2975 4387 
Q 3406 4025 3406 3419 
Q 3406 3131 3298 2873 
Q 3191 2616 2906 2266 
Q 2828 2175 2409 1742 
Q 1991 1309 1228 531 
z
" transform="scale(0.015625)"/>
       </defs>
       <use xlink:href="#DejaVuSans-32"/>
       <use xlink:href="#DejaVuSans-2e" transform="translate(63.623047 0)"/>
       <use xlink:href="#DejaVuSans-30" transform="translate(95.410156 0)"/>
      </g>
     </g>
    </g>
    <g id="xtick_6">
     <g id="line2d_11">
      <path d="M 406.744738 246.04 
L 406.744738 26.16 
" clip-path="url(#p0a52756a45)" style="fill: none; stroke: #b0b0b0; stroke-width: 0.8; stroke-linecap: square"/>
     </g>
     <g id="line2d_12">
      <g>
       <use xlink:href="#ma34f132ec9" x="406.744738" y="246.04" style="stroke: #000000; stroke-width: 0.8"/>
      </g>
     </g>
     <g id="text_6">
      <!-- 2.5 -->
      <g transform="translate(398.793176 260.638438) scale(0.1 -0.1)">
       <use xlink:href="#DejaVuSans-32"/>
       <use xlink:href="#DejaVuSans-2e" transform="translate(63.623047 0)"/>
       <use xlink:href="#DejaVuSans-35" transform="translate(95.410156 0)"/>
      </g>
     </g>
    </g>
    <g id="xtick_7">
     <g id="line2d_13">
      <path d="M 476.857686 246.04 
L 476.857686 26.16 
" clip-path="url(#p0a52756a45)" style="fill: none; stroke: #b0b0b0; stroke-width: 0.8; stroke-linecap: square"/>
     </g>
     <g id="line2d_14">
      <g>
       <use xlink:href="#ma34f132ec9" x="476.857686" y="246.04" style="stroke: #000000; stroke-width: 0.8"/>
      </g>
     </g>
     <g id="text_7">
      <!-- 3.0 -->
      <g transform="translate(468.906123 260.638438) scale(0.1 -0.1)">
       <defs>
        <path id="DejaVuSans-33" d="M 2597 2516 
Q 3050 2419 3304 2112 
Q 3559 1806 3559 1356 
Q 3559 666 3084 287 
Q 2609 -91 1734 -91 
Q 1441 -91 1130 -33 
Q 819 25 488 141 
L 488 750 
Q 750 597 1062 519 
Q 1375 441 1716 441 
Q 2309 441 2620 675 
Q 2931 909 2931 1356 
Q 2931 1769 2642 2001 
Q 2353 2234 1838 2234 
L 1294 2234 
L 1294 2753 
L 1863 2753 
Q 2328 2753 2575 2939 
Q 2822 3125 2822 3475 
Q 2822 3834 2567 4026 
Q 2313 4219 1838 4219 
Q 1578 4219 1281 4162 
Q 984 4106 628 3988 
L 628 4550 
Q 988 4650 1302 4700 
Q 1616 4750 1894 4750 
Q 2613 4750 3031 4423 
Q 3450 4097 3450 3541 
Q 3450 3153 3228 2886 
Q 3006 2619 2597 2516 
z
" transform="scale(0.015625)"/>
       </defs>
       <use xlink:href="#DejaVuSans-33"/>
       <use xlink:href="#DejaVuSans-2e" transform="translate(63.623047 0)"/>
       <use xlink:href="#DejaVuSans-30" transform="translate(95.410156 0)"/>
      </g>
     </g>
    </g>
    <g id="xtick_8">
     <g id="line2d_15">
      <path d="M 546.970634 246.04 
L 546.970634 26.16 
" clip-path="url(#p0a52756a45)" style="fill: none; stroke: #b0b0b0; stroke-width: 0.8; stroke-linecap: square"/>
     </g>
     <g id="line2d_16">
      <g>
       <use xlink:href="#ma34f132ec9" x="546.970634" y="246.04" style="stroke: #000000; stroke-width: 0.8"/>
      </g>
     </g>
     <g id="text_8">
      <!-- 3.5 -->
      <g transform="translate(539.019071 260.638438) scale(0.1 -0.1)">
       <use xlink:href="#DejaVuSans-33"/>
       <use xlink:href="#DejaVuSans-2e" transform="translate(63.623047 0)"/>
       <use xlink:href="#DejaVuSans-35" transform="translate(95.410156 0)"/>
      </g>
     </g>
    </g>
    <g id="text_9">
     <!-- Time (us) -->
     <g transform="translate(287.192344 274.316562) scale(0.1 -0.1)">
      <defs>
       <path id="DejaVuSans-54" d="M -19 4666 
L 3928 4666 
L 3928 4134 
L 2272 4134 
L 2272 0 
L 1638 0 
L 1638 4134 
L -19 4134 
L -19 4666 
z
" transform="scale(0.015625)"/>
       <path id="DejaVuSans-69" d="M 603 3500 
L 1178 3500 
L 1178 0 
L 603 0 
L 603 3500 
z
M 603 4863 
L 1178 4863 
L 1178 4134 
L 603 4134 
L 603 4863 
z
" transform="scale(0.015625)"/>
       <path id="DejaVuSans-6d" d="M 3328 2828 
Q 3544 3216 3844 3400 
Q 4144 3584 4550 3584 
Q 5097 3584 5394 3201 
Q 5691 2819 5691 2113 
L 5691 0 
L 5113 0 
L 5113 2094 
Q 5113 2597 4934 2840 
Q 4756 3084 4391 3084 
Q 3944 3084 3684 2787 
Q 3425 2491 3425 1978 
L 3425 0 
L 2847 0 
L 2847 2094 
Q 2847 2600 2669 2842 
Q 2491 3084 2119 3084 
Q 1678 3084 1418 2786 
Q 1159 2488 1159 1978 
L 1159 0 
L 581 0 
L 581 3500 
L 1159 3500 
L 1159 2956 
Q 1356 3278 1631 3431 
Q 1906 3584 2284 3584 
Q 2666 3584 2933 3390 
Q 3200 3197 3328 2828 
z
" transform="scale(0.015625)"/>
       <path id="DejaVuSans-65" d="M 3597 1894 
L 3597 1613 
L 953 1613 
Q 991 1019 1311 708 
Q 1631 397 2203 397 
Q 2534 397 2845 478 
Q 3156 559 3463 722 
L 3463 178 
Q 3153 47 2828 -22 
Q 2503 -91 2169 -91 
Q 1331 -91 842 396 
Q 353 884 353 1716 
Q 353 2575 817 3079 
Q 1281 3584 2069 3584 
Q 2775 3584 3186 3129 
Q 3597 2675 3597 1894 
z
M 3022 2063 
Q 3016 2534 2758 2815 
Q 2500 3097 2075 3097 
Q 1594 3097 1305 2825 
Q 1016 2553 972 2059 
L 3022 2063 
z
" transform="scale(0.015625)"/>
       <path id="DejaVuSans-20" transform="scale(0.015625)"/>
       <path id="DejaVuSans-28" d="M 1984 4856 
Q 1566 4138 1362 3434 
Q 1159 2731 1159 2009 
Q 1159 1288 1364 580 
Q 1569 -128 1984 -844 
L 1484 -844 
Q 1016 -109 783 600 
Q 550 1309 550 2009 
Q 550 2706 781 3412 
Q 1013 4119 1484 4856 
L 1984 4856 
z
" transform="scale(0.015625)"/>
       <path id="DejaVuSans-75" d="M 544 1381 
L 544 3500 
L 1119 3500 
L 1119 1403 
Q 1119 906 1312 657 
Q 1506 409 1894 409 
Q 2359 409 2629 706 
Q 2900 1003 2900 1516 
L 2900 3500 
L 3475 3500 
L 3475 0 
L 2900 0 
L 2900 538 
Q 2691 219 2414 64 
Q 2138 -91 1772 -91 
Q 1169 -91 856 284 
Q 544 659 544 1381 
z
M 1991 3584 
L 1991 3584 
z
" transform="scale(0.015625)"/>
       <path id="DejaVuSans-73" d="M 2834 3397 
L 2834 2853 
Q 2591 2978 2328 3040 
Q 2066 3103 1784 3103 
Q 1356 3103 1142 2972 
Q 928 2841 928 2578 
Q 928 2378 1081 2264 
Q 1234 2150 1697 2047 
L 1894 2003 
Q 2506 1872 2764 1633 
Q 3022 1394 3022 966 
Q 3022 478 2636 193 
Q 2250 -91 1575 -91 
Q 1294 -91 989 -36 
Q 684 19 347 128 
L 347 722 
Q 666 556 975 473 
Q 1284 391 1588 391 
Q 1994 391 2212 530 
Q 2431 669 2431 922 
Q 2431 1156 2273 1281 
Q 2116 1406 1581 1522 
L 1381 1569 
Q 847 1681 609 1914 
Q 372 2147 372 2553 
Q 372 3047 722 3315 
Q 1072 3584 1716 3584 
Q 2034 3584 2315 3537 
Q 2597 3491 2834 3397 
z
" transform="scale(0.015625)"/>
       <path id="DejaVuSans-29" d="M 513 4856 
L 1013 4856 
Q 1481 4119 1714 3412 
Q 1947 2706 1947 2009 
Q 1947 1309 1714 600 
Q 1481 -109 1013 -844 
L 513 -844 
Q 928 -128 1133 580 
Q 1338 1288 1338 2009 
Q 1338 2731 1133 3434 
Q 928 4138 513 4856 
z
" transform="scale(0.015625)"/>
      </defs>
      <use xlink:href="#DejaVuSans-54"/>
      <use xlink:href="#DejaVuSans-69" transform="translate(57.958984 0)"/>
      <use xlink:href="#DejaVuSans-6d" transform="translate(85.742188 0)"/>
      <use xlink:href="#DejaVuSans-65" transform="translate(183.154297 0)"/>
      <use xlink:href="#DejaVuSans-20" transform="translate(244.677734 0)"/>
      <use xlink:href="#DejaVuSans-28" transform="translate(276.464844 0)"/>
      <use xlink:href="#DejaVuSans-75" transform="translate(315.478516 0)"/>
      <use xlink:href="#DejaVuSans-73" transform="translate(378.857422 0)"/>
      <use xlink:href="#DejaVuSans-29" transform="translate(430.957031 0)"/>
     </g>
    </g>
   </g>
   <g id="matplotlib.axis_2">
    <g id="ytick_1">
     <g id="line2d_17">
      <path d="M 56.18 231.505488 
L 565.2 231.505488 
" clip-path="url(#p0a52756a45)" style="fill: none; stroke: #b0b0b0; stroke-width: 0.8; stroke-linecap: square"/>
     </g>
     <g id="line2d_18">
      <defs>
       <path id="m3bd5c8404d" d="M 0 0 
L -3.5 0 
" style="stroke: #000000; stroke-width: 0.8"/>
      </defs>
      <g>
       <use xlink:href="#m3bd5c8404d" x="56.18" y="231.505488" style="stroke: #000000; stroke-width: 0.8"/>
      </g>
     </g>
     <g id="text_10">
      <!-- −0.6 -->
      <g transform="translate(24.897188 235.304707) scale(0.1 -0.1)">
       <defs>
        <path id="DejaVuSans-2212" d="M 678 2272 
L 4684 2272 
L 4684 1741 
L 678 1741 
L 678 2272 
z
" transform="scale(0.015625)"/>
        <path id="DejaVuSans-36" d="M 2113 2584 
Q 1688 2584 1439 2293 
Q 1191 2003 1191 1497 
Q 1191 994 1439 701 
Q 1688 409 2113 409 
Q 2538 409 2786 701 
Q 3034 994 3034 1497 
Q 3034 2003 2786 2293 
Q 2538 2584 2113 2584 
z
M 3366 4563 
L 3366 3988 
Q 3128 4100 2886 4159 
Q 2644 4219 2406 4219 
Q 1781 4219 1451 3797 
Q 1122 3375 1075 2522 
Q 1259 2794 1537 2939 
Q 1816 3084 2150 3084 
Q 2853 3084 3261 2657 
Q 3669 2231 3669 1497 
Q 3669 778 3244 343 
Q 2819 -91 2113 -91 
Q 1303 -91 875 529 
Q 447 1150 447 2328 
Q 447 3434 972 4092 
Q 1497 4750 2381 4750 
Q 2619 4750 2861 4703 
Q 3103 4656 3366 4563 
z
" transform="scale(0.015625)"/>
       </defs>
       <use xlink:href="#DejaVuSans-2212"/>
       <use xlink:href="#DejaVuSans-30" transform="translate(83.789062 0)"/>
       <use xlink:href="#DejaVuSans-2e" transform="translate(147.412109 0)"/>
       <use xlink:href="#DejaVuSans-36" transform="translate(179.199219 0)"/>
      </g>
     </g>
    </g>
    <g id="ytick_2">
     <g id="line2d_19">
      <path d="M 56.18 200.598946 
L 565.2 200.598946 
" clip-path="url(#p0a52756a45)" style="fill: none; stroke: #b0b0b0; stroke-width: 0.8; stroke-linecap: square"/>
     </g>
     <g id="line2d_20">
      <g>
       <use xlink:href="#m3bd5c8404d" x="56.18" y="200.598946" style="stroke: #000000; stroke-width: 0.8"/>
      </g>
     </g>
     <g id="text_11">
      <!-- −0.4 -->
      <g transform="translate(24.897188 204.398165) scale(0.1 -0.1)">
       <defs>
        <path id="DejaVuSans-34" d="M 2419 4116 
L 825 1625 
L 2419 1625 
L 2419 4116 
z
M 2253 4666 
L 3047 4666 
L 3047 1625 
L 3713 1625 
L 3713 1100 
L 3047 1100 
L 3047 0 
L 2419 0 
L 2419 1100 
L 313 1100 
L 313 1709 
L 2253 4666 
z
" transform="scale(0.015625)"/>
       </defs>
       <use xlink:href="#DejaVuSans-2212"/>
       <use xlink:href="#DejaVuSans-30" transform="translate(83.789062 0)"/>
       <use xlink:href="#DejaVuSans-2e" transform="translate(147.412109 0)"/>
       <use xlink:href="#DejaVuSans-34" transform="translate(179.199219 0)"/>
      </g>
     </g>
    </g>
    <g id="ytick_3">
     <g id="line2d_21">
      <path d="M 56.18 169.692404 
L 565.2 169.692404 
" clip-path="url(#p0a52756a45)" style="fill: none; stroke: #b0b0b0; stroke-width: 0.8; stroke-linecap: square"/>
     </g>
     <g id="line2d_22">
      <g>
       <use xlink:href="#m3bd5c8404d" x="56.18" y="169.692404" style="stroke: #000000; stroke-width: 0.8"/>
      </g>
     </g>
     <g id="text_12">
      <!-- −0.2 -->
      <g transform="translate(24.897188 173.491623) scale(0.1 -0.1)">
       <use xlink:href="#DejaVuSans-2212"/>
       <use xlink:href="#DejaVuSans-30" transform="translate(83.789062 0)"/>
       <use xlink:href="#DejaVuSans-2e" transform="translate(147.412109 0)"/>
       <use xlink:href="#DejaVuSans-32" transform="translate(179.199219 0)"/>
      </g>
     </g>
    </g>
    <g id="ytick_4">
     <g id="line2d_23">
      <path d="M 56.18 138.785862 
L 565.2 138.785862 
" clip-path="url(#p0a52756a45)" style="fill: none; stroke: #b0b0b0; stroke-width: 0.8; stroke-linecap: square"/>
     </g>
     <g id="line2d_24">
      <g>
       <use xlink:href="#m3bd5c8404d" x="56.18" y="138.785862" style="stroke: #000000; stroke-width: 0.8"/>
      </g>
     </g>
     <g id="text_13">
      <!-- 0.0 -->
      <g transform="translate(33.276875 142.585081) scale(0.1 -0.1)">
       <use xlink:href="#DejaVuSans-30"/>
       <use xlink:href="#DejaVuSans-2e" transform="translate(63.623047 0)"/>
       <use xlink:href="#DejaVuSans-30" transform="translate(95.410156 0)"/>
      </g>
     </g>
    </g>
    <g id="ytick_5">
     <g id="line2d_25">
      <path d="M 56.18 107.87932 
L 565.2 107.87932 
" clip-path="url(#p0a52756a45)" style="fill: none; stroke: #b0b0b0; stroke-width: 0.8; stroke-linecap: square"/>
     </g>
     <g id="line2d_26">
      <g>
       <use xlink:href="#m3bd5c8404d" x="56.18" y="107.87932" style="stroke: #000000; stroke-width: 0.8"/>
      </g>
     </g>
     <g id="text_14">
      <!-- 0.2 -->
      <g transform="translate(33.276875 111.678539) scale(0.1 -0.1)">
       <use xlink:href="#DejaVuSans-30"/>
       <use xlink:href="#DejaVuSans-2e" transform="translate(63.623047 0)"/>
       <use xlink:href="#DejaVuSans-32" transform="translate(95.410156 0)"/>
      </g>
     </g>
    </g>
    <g id="ytick_6">
     <g id="line2d_27">
      <path d="M 56.18 76.972778 
L 565.2 76.972778 
" clip-path="url(#p0a52756a45)" style="fill: none; stroke: #b0b0b0; stroke-width: 0.8; stroke-linecap: square"/>
     </g>
     <g id="line2d_28">
      <g>
       <use xlink:href="#m3bd5c8404d" x="56.18" y="76.972778" style="stroke: #000000; stroke-width: 0.8"/>
      </g>
     </g>
     <g id="text_15">
      <!-- 0.4 -->
      <g transform="translate(33.276875 80.771997) scale(0.1 -0.1)">
       <use xlink:href="#DejaVuSans-30"/>
       <use xlink:href="#DejaVuSans-2e" transform="translate(63.623047 0)"/>
       <use xlink:href="#DejaVuSans-34" transform="translate(95.410156 0)"/>
      </g>
     </g>
    </g>
    <g id="ytick_7">
     <g id="line2d_29">
      <path d="M 56.18 46.066236 
L 565.2 46.066236 
" clip-path="url(#p0a52756a45)" style="fill: none; stroke: #b0b0b0; stroke-width: 0.8; stroke-linecap: square"/>
     </g>
     <g id="line2d_30">
      <g>
       <use xlink:href="#m3bd5c8404d" x="56.18" y="46.066236" style="stroke: #000000; stroke-width: 0.8"/>
      </g>
     </g>
     <g id="text_16">
      <!-- 0.6 -->
      <g transform="translate(33.276875 49.865455) scale(0.1 -0.1)">
       <use xlink:href="#DejaVuSans-30"/>
       <use xlink:href="#DejaVuSans-2e" transform="translate(63.623047 0)"/>
       <use xlink:href="#DejaVuSans-36" transform="translate(95.410156 0)"/>
      </g>
     </g>
    </g>
    <g id="text_17">
     <!-- Amplitude -->
     <g transform="translate(18.8175 161.722656) rotate(-90) scale(0.1 -0.1)">
      <defs>
       <path id="DejaVuSans-41" d="M 2188 4044 
L 1331 1722 
L 3047 1722 
L 2188 4044 
z
M 1831 4666 
L 2547 4666 
L 4325 0 
L 3669 0 
L 3244 1197 
L 1141 1197 
L 716 0 
L 50 0 
L 1831 4666 
z
" transform="scale(0.015625)"/>
       <path id="DejaVuSans-70" d="M 1159 525 
L 1159 -1331 
L 581 -1331 
L 581 3500 
L 1159 3500 
L 1159 2969 
Q 1341 3281 1617 3432 
Q 1894 3584 2278 3584 
Q 2916 3584 3314 3078 
Q 3713 2572 3713 1747 
Q 3713 922 3314 415 
Q 2916 -91 2278 -91 
Q 1894 -91 1617 61 
Q 1341 213 1159 525 
z
M 3116 1747 
Q 3116 2381 2855 2742 
Q 2594 3103 2138 3103 
Q 1681 3103 1420 2742 
Q 1159 2381 1159 1747 
Q 1159 1113 1420 752 
Q 1681 391 2138 391 
Q 2594 391 2855 752 
Q 3116 1113 3116 1747 
z
" transform="scale(0.015625)"/>
       <path id="DejaVuSans-6c" d="M 603 4863 
L 1178 4863 
L 1178 0 
L 603 0 
L 603 4863 
z
" transform="scale(0.015625)"/>
       <path id="DejaVuSans-74" d="M 1172 4494 
L 1172 3500 
L 2356 3500 
L 2356 3053 
L 1172 3053 
L 1172 1153 
Q 1172 725 1289 603 
Q 1406 481 1766 481 
L 2356 481 
L 2356 0 
L 1766 0 
Q 1100 0 847 248 
Q 594 497 594 1153 
L 594 3053 
L 172 3053 
L 172 3500 
L 594 3500 
L 594 4494 
L 1172 4494 
z
" transform="scale(0.015625)"/>
       <path id="DejaVuSans-64" d="M 2906 2969 
L 2906 4863 
L 3481 4863 
L 3481 0 
L 2906 0 
L 2906 525 
Q 2725 213 2448 61 
Q 2172 -91 1784 -91 
Q 1150 -91 751 415 
Q 353 922 353 1747 
Q 353 2572 751 3078 
Q 1150 3584 1784 3584 
Q 2172 3584 2448 3432 
Q 2725 3281 2906 2969 
z
M 947 1747 
Q 947 1113 1208 752 
Q 1469 391 1925 391 
Q 2381 391 2643 752 
Q 2906 1113 2906 1747 
Q 2906 2381 2643 2742 
Q 2381 3103 1925 3103 
Q 1469 3103 1208 2742 
Q 947 2381 947 1747 
z
" transform="scale(0.015625)"/>
      </defs>
      <use xlink:href="#DejaVuSans-41"/>
      <use xlink:href="#DejaVuSans-6d" transform="translate(68.408203 0)"/>
      <use xlink:href="#DejaVuSans-70" transform="translate(165.820312 0)"/>
      <use xlink:href="#DejaVuSans-6c" transform="translate(229.296875 0)"/>
      <use xlink:href="#DejaVuSans-69" transform="translate(257.080078 0)"/>
      <use xlink:href="#DejaVuSans-74" transform="translate(284.863281 0)"/>
      <use xlink:href="#DejaVuSans-75" transform="translate(324.072266 0)"/>
      <use xlink:href="#DejaVuSans-64" transform="translate(387.451172 0)"/>
      <use xlink:href="#DejaVuSans-65" transform="translate(450.927734 0)"/>
     </g>
    </g>
   </g>
   <g id="line2d_31">
    <path d="M 56.18 113.173016 
L 60.386777 94.067327 
L 61.789036 88.218291 
L 63.191295 83.001912 
L 64.593554 78.609903 
L 65.995813 75.197572 
L 67.398072 72.876192 
L 68.800331 71.708398 
L 70.20259 71.706837 
L 71.604848 72.836132 
L 73.007107 75.017813 
L 74.409366 78.137803 
L 75.811625 82.05577 
L 77.213884 86.615561 
L 80.018402 97.020748 
L 87.029697 124.565931 
L 91.236474 139.751666 
L 105.259063 188.526124 
L 106.661322 192.881578 
L 108.063581 196.820514 
L 109.46584 200.217191 
L 110.868099 202.943039 
L 112.270358 204.871797 
L 113.672617 205.884601 
L 115.074876 205.874905 
L 116.477135 204.753006 
L 117.879394 202.450184 
L 119.281653 198.922253 
L 120.683912 194.152517 
L 122.086171 188.154075 
L 123.48843 180.971345 
L 124.890689 172.680872 
L 126.292948 163.391236 
L 129.097466 142.402484 
L 137.511019 75.129445 
L 138.913278 65.846937 
L 140.315537 57.773471 
L 141.717796 51.125098 
L 143.120055 46.090644 
L 144.522314 42.825648 
L 145.924573 41.447036 
L 147.326832 42.02879 
L 148.729091 44.598812 
L 150.13135 49.137014 
L 151.533609 55.57487 
L 152.935868 63.796332 
L 154.338127 73.640187 
L 155.740386 84.903782 
L 158.544904 110.703098 
L 165.556198 180.502691 
L 166.958457 192.90095 
L 168.360716 204.111613 
L 169.762975 213.89932 
L 171.165234 222.065305 
L 172.567493 228.452007 
L 173.969752 232.946473 
L 175.372011 235.482501 
L 176.77427 236.041397 
L 178.176529 234.651476 
L 179.578788 231.386229 
L 180.981047 226.361319 
L 182.383306 219.730504 
L 183.785565 211.680581 
L 185.187824 202.425607 
L 187.992342 181.254234 
L 195.003636 124.541076 
L 196.405895 114.43069 
L 197.808154 105.181226 
L 199.210413 96.930624 
L 200.612672 89.784566 
L 202.014931 83.815639 
L 203.41719 79.063482 
L 204.819449 75.536094 
L 206.221708 73.211976 
L 207.623967 72.043194 
L 209.026226 71.959134 
L 210.428485 72.870735 
L 211.830744 74.675175 
L 213.233003 77.260615 
L 214.635262 80.510994 
L 216.037521 84.31057 
L 218.842039 93.120267 
L 221.646556 102.913331 
L 235.669146 154.054472 
L 242.680441 179.564569 
L 245.484959 188.978258 
L 246.887218 193.231233 
L 248.289477 197.048217 
L 249.691736 200.318294 
L 251.093994 202.925969 
L 252.496253 204.755214 
L 253.898512 205.69392 
L 255.300771 205.63864 
L 256.70303 204.499309 
L 258.105289 202.203954 
L 259.507548 198.702996 
L 260.909807 193.973116 
L 262.312066 188.02047 
L 263.714325 180.882998 
L 265.116584 172.631909 
L 266.518843 163.371995 
L 269.323361 142.407379 
L 277.736915 75.045752 
L 279.139174 65.754464 
L 280.541433 57.678779 
L 281.943691 51.034593 
L 283.34595 46.009695 
L 284.748209 42.757936 
L 286.150468 41.394136 
L 287.552727 41.990057 
L 288.954986 44.571546 
L 290.357245 49.11685 
L 291.759504 55.556378 
L 293.161763 63.773682 
L 294.564022 73.607864 
L 295.966281 84.857231 
L 298.770799 110.620653 
L 305.782094 180.370217 
L 307.184353 192.774744 
L 308.586612 203.997282 
L 309.988871 213.801506 
L 311.391129 221.987331 
L 312.793388 228.395656 
L 314.195647 232.911942 
L 315.597906 235.468519 
L 317.000165 236.045455 
L 318.402424 234.670194 
L 319.804683 231.415746 
L 321.206942 226.397711 
L 322.609201 219.770161 
L 324.01146 211.720484 
L 325.413719 202.463531 
L 328.218237 181.28485 
L 335.229532 124.556835 
L 336.631791 114.443842 
L 338.03405 105.1909 
L 339.436309 96.935487 
L 340.838567 89.782973 
L 342.240826 83.805861 
L 343.643085 79.043976 
L 345.045344 75.505778 
L 346.447603 73.170465 
L 347.849862 71.990961 
L 349.252121 71.897569 
L 350.65438 72.802085 
L 352.056639 74.602379 
L 353.458898 77.187024 
L 354.861157 80.440027 
L 356.263416 84.245339 
L 359.067934 93.072883 
L 361.872452 102.885016 
L 378.699559 164.270998 
L 382.906336 179.512455 
L 385.710854 188.953053 
L 387.113113 193.21726 
L 388.515372 197.041488 
L 389.917631 200.313229 
L 391.31989 202.915862 
L 392.722149 204.732858 
L 394.124408 205.65233 
L 395.526667 205.571798 
L 396.928926 204.402867 
L 398.331185 202.075815 
L 399.733444 198.543717 
L 401.135702 193.786085 
L 402.537961 187.811834 
L 403.94022 180.661346 
L 405.342479 172.407735 
L 406.744738 163.156981 
L 409.549256 142.246267 
L 417.96281 75.203502 
L 419.365069 65.958289 
L 420.767328 57.919174 
L 422.169587 51.300253 
L 423.571846 46.288227 
L 424.974105 43.036586 
L 426.376364 41.660508 
L 427.778623 42.232752 
L 429.180882 44.780705 
L 430.58314 49.284565 
L 431.985399 55.676966 
L 433.387658 63.843827 
L 434.789917 73.626621 
L 436.192176 84.825919 
L 438.996694 110.50116 
L 446.007989 180.160056 
L 447.410248 192.572462 
L 448.812507 203.810726 
L 450.214766 213.637499 
L 451.617025 221.851392 
L 453.019284 228.291775 
L 454.421543 232.842422 
L 455.823802 235.433891 
L 457.226061 236.044489 
L 458.62832 234.700007 
L 460.030579 231.472009 
L 461.432837 226.474951 
L 462.835096 219.862132 
L 464.237355 211.820605 
L 465.639614 202.565346 
L 468.444132 181.373392 
L 475.455427 124.577114 
L 476.857686 114.456104 
L 478.259945 105.199397 
L 479.662204 96.944708 
L 481.064463 89.797196 
L 482.466722 83.828742 
L 483.868981 79.078213 
L 485.27124 75.55289 
L 486.673499 73.230714 
L 488.075758 72.063416 
L 489.478017 71.980311 
L 490.880275 72.892517 
L 492.282534 74.697615 
L 493.684793 77.284315 
L 495.087052 80.53717 
L 496.489311 84.341013 
L 499.293829 93.166181 
L 502.098347 102.984177 
L 524.53449 184.389022 
L 527.339008 193.171843 
L 528.741267 196.961742 
L 530.143526 200.205948 
L 531.545785 202.789218 
L 532.948044 204.595725 
L 534.350303 205.513556 
L 535.752562 205.439498 
L 537.154821 204.283791 
L 538.55708 201.974859 
L 539.959339 198.463619 
L 541.361598 193.727319 
L 542.763857 187.77272 
L 544.166116 180.638355 
L 545.568375 172.395951 
L 546.970634 163.150673 
L 549.775152 142.233585 
L 558.188705 75.117108 
L 559.590964 65.868529 
L 560.993223 57.83179 
L 562.395482 51.221233 
L 563.797741 46.22329 
L 565.2 42.990723 
L 565.2 42.990723 
" clip-path="url(#p0a52756a45)" style="fill: none; stroke: #1f77b4; stroke-width: 1.5; stroke-linecap: square"/>
   </g>
   <g id="line2d_32">
    <path d="M 56.18 184.0105 
L 57.582259 192.437655 
L 58.984518 200.032015 
L 60.386777 206.361421 
L 61.789036 211.032226 
L 63.191295 213.712536 
L 64.593554 214.151786 
L 65.995813 212.195318 
L 67.398072 207.793171 
L 68.800331 201.002507 
L 70.20259 191.983845 
L 71.604848 180.991517 
L 73.007107 168.359265 
L 75.811625 139.796526 
L 80.018402 95.426332 
L 81.420661 81.969161 
L 82.82292 69.803896 
L 84.225179 59.226237 
L 85.627438 50.469955 
L 87.029697 43.705317 
L 88.431956 39.040406 
L 89.834215 36.524755 
L 91.236474 36.154545 
L 92.638733 37.878604 
L 94.040992 41.604678 
L 95.443251 47.205357 
L 96.84551 54.523439 
L 98.247769 63.376533 
L 99.650028 73.560899 
L 102.454545 97.021279 
L 106.661322 136.225423 
L 109.46584 161.996241 
L 112.270358 185.092597 
L 113.672617 195.066494 
L 115.074876 203.734396 
L 116.477135 210.943927 
L 117.879394 216.580228 
L 119.281653 220.569139 
L 120.683912 222.878999 
L 122.086171 223.5208 
L 123.48843 222.546759 
L 124.890689 220.047349 
L 126.292948 216.146929 
L 127.695207 210.998301 
L 129.097466 204.77639 
L 130.499725 197.671474 
L 133.304242 181.609004 
L 140.315537 139.375507 
L 143.120055 124.760411 
L 144.522314 118.317343 
L 145.924573 112.506481 
L 147.326832 107.343517 
L 148.729091 102.826044 
L 150.13135 98.936579 
L 151.533609 95.645918 
L 152.935868 92.916673 
L 154.338127 90.706927 
L 155.740386 88.973743 
L 157.142645 87.676514 
L 158.544904 86.779935 
L 159.947163 86.256513 
L 161.349421 86.088499 
L 162.75168 86.269139 
L 164.153939 86.803214 
L 165.556198 87.706772 
L 166.958457 89.006116 
L 168.360716 90.736024 
L 169.762975 92.93729 
L 171.165234 95.653704 
L 172.567493 98.928537 
L 173.969752 102.800796 
L 175.372011 107.301305 
L 176.77427 112.448887 
L 178.176529 118.246809 
L 179.578788 124.679629 
L 182.383306 139.280488 
L 185.187824 155.678405 
L 190.79686 189.756794 
L 192.199118 197.554162 
L 193.601377 204.680296 
L 195.003636 210.941123 
L 196.405895 216.1502 
L 197.808154 220.134785 
L 199.210413 222.74172 
L 200.612672 223.843061 
L 202.014931 223.341086 
L 203.41719 221.172663 
L 204.819449 217.312733 
L 206.221708 211.776728 
L 207.623967 204.621968 
L 209.026226 195.947746 
L 210.428485 185.894281 
L 211.830744 174.640379 
L 214.635262 149.417115 
L 220.244298 95.675146 
L 221.646556 83.272362 
L 223.048815 71.866729 
L 224.451074 61.723398 
L 225.853333 53.080265 
L 227.255592 46.141486 
L 228.657851 41.0718 
L 230.06011 37.991981 
L 231.462369 36.975491 
L 232.864628 38.046399 
L 234.266887 41.178792 
L 235.669146 46.297455 
L 237.071405 53.280039 
L 238.473664 61.960483 
L 239.875923 72.133611 
L 241.278182 83.560861 
L 244.0827 109.096222 
L 249.691736 162.651619 
L 251.093994 174.864897 
L 252.496253 186.08849 
L 253.898512 196.109774 
L 255.300771 204.751132 
L 256.70303 211.873457 
L 258.105289 217.378472 
L 259.507548 221.209759 
L 260.909807 223.352669 
L 262.312066 223.832913 
L 263.714325 222.714143 
L 265.116584 220.094467 
L 266.518843 216.102066 
L 267.921102 210.890178 
L 269.323361 204.63145 
L 270.72562 197.512051 
L 273.530138 181.467178 
L 280.541433 139.356047 
L 283.34595 124.781154 
L 284.748209 118.355009 
L 286.150468 112.558701 
L 287.552727 107.407347 
L 288.954986 102.897616 
L 290.357245 99.0109 
L 291.759504 95.716857 
L 293.161763 92.977182 
L 294.564022 90.749528 
L 295.966281 88.991186 
L 297.36854 87.662586 
L 298.770799 86.730277 
L 300.173058 86.169346 
L 301.575317 85.965186 
L 302.977576 86.114439 
L 304.379835 86.625238 
L 305.782094 87.516571 
L 307.184353 88.81697 
L 308.586612 90.562439 
L 309.988871 92.793839 
L 311.391129 95.553797 
L 312.793388 98.883219 
L 314.195647 102.817735 
L 315.597906 107.383995 
L 317.000165 112.596213 
L 318.402424 118.452966 
L 319.804683 124.934416 
L 322.609201 139.587912 
L 325.413719 155.966208 
L 331.022755 189.816046 
L 332.425014 197.535638 
L 333.827273 204.584559 
L 335.229532 210.773226 
L 336.631791 215.919253 
L 338.03405 219.853273 
L 339.436309 222.42462 
L 340.838567 223.506862 
L 342.240826 223.002759 
L 343.643085 220.84867 
L 345.045344 217.018121 
L 346.447603 211.524371 
L 347.849862 204.422002 
L 349.252121 195.8072 
L 350.65438 185.816922 
L 352.056639 174.626769 
L 354.861157 149.521176 
L 361.872452 83.529584 
L 363.274711 72.125971 
L 364.67697 61.976395 
L 366.079229 53.319956 
L 367.481488 46.362168 
L 368.883747 41.269172 
L 370.286006 38.163101 
L 371.688264 37.118657 
L 373.090523 38.160979 
L 374.492782 41.26501 
L 375.895041 46.356168 
L 377.2973 53.312522 
L 378.699559 61.968225 
L 380.101818 72.118157 
L 381.504077 83.523699 
L 384.308595 109.019632 
L 389.917631 162.511142 
L 391.31989 174.712602 
L 392.722149 185.926909 
L 394.124408 195.942042 
L 395.526667 204.581014 
L 396.928926 211.70531 
L 398.331185 217.217124 
L 399.733444 221.060318 
L 401.135702 223.220264 
L 402.537961 223.722377 
L 403.94022 222.629664 
L 405.342479 220.039232 
L 406.744738 216.077926 
L 408.146997 210.897373 
L 409.549256 204.668409 
L 410.951515 197.575315 
L 413.756033 181.565497 
L 420.767328 139.392037 
L 423.571846 124.739602 
L 424.974105 118.27069 
L 426.376364 112.432653 
L 427.778623 107.243527 
L 429.180882 102.702766 
L 430.58314 98.794199 
L 431.985399 95.489391 
L 433.387658 92.751254 
L 434.789917 90.537858 
L 436.192176 88.806052 
L 437.594435 87.514975 
L 438.996694 86.629106 
L 440.398953 86.120809 
L 441.801212 85.972276 
L 443.203471 86.176701 
L 444.60573 86.738748 
L 446.007989 87.674164 
L 447.410248 89.0087 
L 448.812507 90.776241 
L 450.214766 93.016328 
L 451.617025 95.771174 
L 453.019284 99.082198 
L 454.421543 102.98643 
L 455.823802 107.512712 
L 457.226061 112.678067 
L 458.62832 118.484314 
L 460.030579 124.915043 
L 462.835096 139.479684 
L 465.639614 155.803844 
L 471.24865 189.684613 
L 472.650909 197.436789 
L 474.053168 204.524087 
L 475.455427 210.754131 
L 476.857686 215.941656 
L 478.259945 219.914536 
L 479.662204 222.519656 
L 481.064463 223.628604 
L 482.466722 223.14274 
L 483.868981 220.997665 
L 485.27124 217.166803 
L 486.673499 211.663923 
L 488.075758 204.544638 
L 489.478017 195.906571 
L 490.880275 185.888375 
L 492.282534 174.667441 
L 495.087052 149.498511 
L 500.696088 95.797487 
L 502.098347 83.388796 
L 503.500606 71.970922 
L 504.902865 61.809436 
L 506.305124 53.142844 
L 507.707383 46.176105 
L 509.109642 41.074927 
L 510.511901 37.961187 
L 511.91416 36.909543 
L 513.316419 37.945299 
L 514.718678 41.043752 
L 516.120937 46.130811 
L 517.523196 53.085097 
L 518.925455 61.741309 
L 520.327713 71.894786 
L 521.729972 83.307209 
L 524.53449 108.827079 
L 530.143526 162.39576 
L 531.545785 174.618316 
L 532.948044 185.852755 
L 534.350303 195.886356 
L 535.752562 204.54162 
L 537.154821 211.679756 
L 538.55708 217.202942 
L 539.959339 221.055277 
L 541.361598 223.222603 
L 542.763857 223.730994 
L 544.166116 222.644233 
L 545.568375 220.060248 
L 546.970634 216.106679 
L 548.372893 210.935841 
L 549.775152 204.719095 
L 551.17741 197.641031 
L 553.981928 181.669714 
L 560.993223 139.61824 
L 563.797741 125.007052 
L 565.2 118.553533 
L 565.2 118.553533 
" clip-path="url(#p0a52756a45)" style="fill: none; stroke: #ff7f0e; stroke-width: 1.5; stroke-linecap: square"/>
   </g>
   <g id="patch_3">
    <path d="M 56.18 246.04 
L 56.18 26.16 
" style="fill: none; stroke: #000000; stroke-width: 0.8; stroke-linejoin: miter; stroke-linecap: square"/>
   </g>
   <g id="patch_4">
    <path d="M 565.2 246.04 
L 565.2 26.16 
" style="fill: none; stroke: #000000; stroke-width: 0.8; stroke-linejoin: miter; stroke-linecap: square"/>
   </g>
   <g id="patch_5">
    <path d="M 56.18 246.04 
L 565.2 246.04 
" style="fill: none; stroke: #000000; stroke-width: 0.8; stroke-linejoin: miter; stroke-linecap: square"/>
   </g>
   <g id="patch_6">
    <path d="M 56.18 26.16 
L 565.2 26.16 
" style="fill: none; stroke: #000000; stroke-width: 0.8; stroke-linejoin: miter; stroke-linecap: square"/>
   </g>
   <g id="text_18">
    <!-- LPF Output I/Q (Time Domain) -->
    <g transform="translate(220.650625 20.16) scale(0.12 -0.12)">
     <defs>
      <path id="DejaVuSans-4c" d="M 628 4666 
L 1259 4666 
L 1259 531 
L 3531 531 
L 3531 0 
L 628 0 
L 628 4666 
z
" transform="scale(0.015625)"/>
      <path id="DejaVuSans-50" d="M 1259 4147 
L 1259 2394 
L 2053 2394 
Q 2494 2394 2734 2622 
Q 2975 2850 2975 3272 
Q 2975 3691 2734 3919 
Q 2494 4147 2053 4147 
L 1259 4147 
z
M 628 4666 
L 2053 4666 
Q 2838 4666 3239 4311 
Q 3641 3956 3641 3272 
Q 3641 2581 3239 2228 
Q 2838 1875 2053 1875 
L 1259 1875 
L 1259 0 
L 628 0 
L 628 4666 
z
" transform="scale(0.015625)"/>
      <path id="DejaVuSans-46" d="M 628 4666 
L 3309 4666 
L 3309 4134 
L 1259 4134 
L 1259 2759 
L 3109 2759 
L 3109 2228 
L 1259 2228 
L 1259 0 
L 628 0 
L 628 4666 
z
" transform="scale(0.015625)"/>
      <path id="DejaVuSans-4f" d="M 2522 4238 
Q 1834 4238 1429 3725 
Q 1025 3213 1025 2328 
Q 1025 1447 1429 934 
Q 1834 422 2522 422 
Q 3209 422 3611 934 
Q 4013 1447 4013 2328 
Q 4013 3213 3611 3725 
Q 3209 4238 2522 4238 
z
M 2522 4750 
Q 3503 4750 4090 4092 
Q 4678 3434 4678 2328 
Q 4678 1225 4090 567 
Q 3503 -91 2522 -91 
Q 1538 -91 948 565 
Q 359 1222 359 2328 
Q 359 3434 948 4092 
Q 1538 4750 2522 4750 
z
" transform="scale(0.015625)"/>
      <path id="DejaVuSans-49" d="M 628 4666 
L 1259 4666 
L 1259 0 
L 628 0 
L 628 4666 
z
" transform="scale(0.015625)"/>
      <path id="DejaVuSans-2f" d="M 1625 4666 
L 2156 4666 
L 531 -594 
L 0 -594 
L 1625 4666 
z
" transform="scale(0.015625)"/>
      <path id="DejaVuSans-51" d="M 2522 4238 
Q 1834 4238 1429 3725 
Q 1025 3213 1025 2328 
Q 1025 1447 1429 934 
Q 1834 422 2522 422 
Q 3209 422 3611 934 
Q 4013 1447 4013 2328 
Q 4013 3213 3611 3725 
Q 3209 4238 2522 4238 
z
M 3406 84 
L 4238 -825 
L 3475 -825 
L 2784 -78 
Q 2681 -84 2626 -87 
Q 2572 -91 2522 -91 
Q 1538 -91 948 567 
Q 359 1225 359 2328 
Q 359 3434 948 4092 
Q 1538 4750 2522 4750 
Q 3503 4750 4090 4092 
Q 4678 3434 4678 2328 
Q 4678 1516 4351 937 
Q 4025 359 3406 84 
z
" transform="scale(0.015625)"/>
      <path id="DejaVuSans-44" d="M 1259 4147 
L 1259 519 
L 2022 519 
Q 2988 519 3436 956 
Q 3884 1394 3884 2338 
Q 3884 3275 3436 3711 
Q 2988 4147 2022 4147 
L 1259 4147 
z
M 628 4666 
L 1925 4666 
Q 3281 4666 3915 4102 
Q 4550 3538 4550 2338 
Q 4550 1131 3912 565 
Q 3275 0 1925 0 
L 628 0 
L 628 4666 
z
" transform="scale(0.015625)"/>
      <path id="DejaVuSans-6f" d="M 1959 3097 
Q 1497 3097 1228 2736 
Q 959 2375 959 1747 
Q 959 1119 1226 758 
Q 1494 397 1959 397 
Q 2419 397 2687 759 
Q 2956 1122 2956 1747 
Q 2956 2369 2687 2733 
Q 2419 3097 1959 3097 
z
M 1959 3584 
Q 2709 3584 3137 3096 
Q 3566 2609 3566 1747 
Q 3566 888 3137 398 
Q 2709 -91 1959 -91 
Q 1206 -91 779 398 
Q 353 888 353 1747 
Q 353 2609 779 3096 
Q 1206 3584 1959 3584 
z
" transform="scale(0.015625)"/>
      <path id="DejaVuSans-61" d="M 2194 1759 
Q 1497 1759 1228 1600 
Q 959 1441 959 1056 
Q 959 750 1161 570 
Q 1363 391 1709 391 
Q 2188 391 2477 730 
Q 2766 1069 2766 1631 
L 2766 1759 
L 2194 1759 
z
M 3341 1997 
L 3341 0 
L 2766 0 
L 2766 531 
Q 2569 213 2275 61 
Q 1981 -91 1556 -91 
Q 1019 -91 701 211 
Q 384 513 384 1019 
Q 384 1609 779 1909 
Q 1175 2209 1959 2209 
L 2766 2209 
L 2766 2266 
Q 2766 2663 2505 2880 
Q 2244 3097 1772 3097 
Q 1472 3097 1187 3025 
Q 903 2953 641 2809 
L 641 3341 
Q 956 3463 1253 3523 
Q 1550 3584 1831 3584 
Q 2591 3584 2966 3190 
Q 3341 2797 3341 1997 
z
" transform="scale(0.015625)"/>
      <path id="DejaVuSans-6e" d="M 3513 2113 
L 3513 0 
L 2938 0 
L 2938 2094 
Q 2938 2591 2744 2837 
Q 2550 3084 2163 3084 
Q 1697 3084 1428 2787 
Q 1159 2491 1159 1978 
L 1159 0 
L 581 0 
L 581 3500 
L 1159 3500 
L 1159 2956 
Q 1366 3272 1645 3428 
Q 1925 3584 2291 3584 
Q 2894 3584 3203 3211 
Q 3513 2838 3513 2113 
z
" transform="scale(0.015625)"/>
     </defs>
     <use xlink:href="#DejaVuSans-4c"/>
     <use xlink:href="#DejaVuSans-50" transform="translate(55.712891 0)"/>
     <use xlink:href="#DejaVuSans-46" transform="translate(116.015625 0)"/>
     <use xlink:href="#DejaVuSans-20" transform="translate(173.535156 0)"/>
     <use xlink:href="#DejaVuSans-4f" transform="translate(205.322266 0)"/>
     <use xlink:href="#DejaVuSans-75" transform="translate(284.033203 0)"/>
     <use xlink:href="#DejaVuSans-74" transform="translate(347.412109 0)"/>
     <use xlink:href="#DejaVuSans-70" transform="translate(386.621094 0)"/>
     <use xlink:href="#DejaVuSans-75" transform="translate(450.097656 0)"/>
     <use xlink:href="#DejaVuSans-74" transform="translate(513.476562 0)"/>
     <use xlink:href="#DejaVuSans-20" transform="translate(552.685547 0)"/>
     <use xlink:href="#DejaVuSans-49" transform="translate(584.472656 0)"/>
     <use xlink:href="#DejaVuSans-2f" transform="translate(613.964844 0)"/>
     <use xlink:href="#DejaVuSans-51" transform="translate(647.65625 0)"/>
     <use xlink:href="#DejaVuSans-20" transform="translate(726.367188 0)"/>
     <use xlink:href="#DejaVuSans-28" transform="translate(758.154297 0)"/>
     <use xlink:href="#DejaVuSans-54" transform="translate(797.167969 0)"/>
     <use xlink:href="#DejaVuSans-69" transform="translate(855.126953 0)"/>
     <use xlink:href="#DejaVuSans-6d" transform="translate(882.910156 0)"/>
     <use xlink:href="#DejaVuSans-65" transform="translate(980.322266 0)"/>
     <use xlink:href="#DejaVuSans-20" transform="translate(1041.845703 0)"/>
     <use xlink:href="#DejaVuSans-44" transform="translate(1073.632812 0)"/>
     <use xlink:href="#DejaVuSans-6f" transform="translate(1150.634766 0)"/>
     <use xlink:href="#DejaVuSans-6d" transform="translate(1211.816406 0)"/>
     <use xlink:href="#DejaVuSans-61" transform="translate(1309.228516 0)"/>
     <use xlink:href="#DejaVuSans-69" transform="translate(1370.507812 0)"/>
     <use xlink:href="#DejaVuSans-6e" transform="translate(1398.291016 0)"/>
     <use xlink:href="#DejaVuSans-29" transform="translate(1461.669922 0)"/>
    </g>
   </g>
   <g id="legend_1">
    <g id="patch_7">
     <path d="M 518.328125 63.51625 
L 558.2 63.51625 
Q 560.2 63.51625 560.2 61.51625 
L 560.2 33.16 
Q 560.2 31.16 558.2 31.16 
L 518.328125 31.16 
Q 516.328125 31.16 516.328125 33.16 
L 516.328125 61.51625 
Q 516.328125 63.51625 518.328125 63.51625 
z
" style="fill: #ffffff; opacity: 0.8; stroke: #cccccc; stroke-linejoin: miter"/>
    </g>
    <g id="line2d_33">
     <path d="M 520.328125 39.258437 
L 530.328125 39.258437 
L 540.328125 39.258437 
" style="fill: none; stroke: #1f77b4; stroke-width: 1.5; stroke-linecap: square"/>
    </g>
    <g id="text_19">
     <!-- I -->
     <g transform="translate(548.328125 42.758437) scale(0.1 -0.1)">
      <use xlink:href="#DejaVuSans-49"/>
     </g>
    </g>
    <g id="line2d_34">
     <path d="M 520.328125 53.936562 
L 530.328125 53.936562 
L 540.328125 53.936562 
" style="fill: none; stroke: #ff7f0e; stroke-width: 1.5; stroke-linecap: square"/>
    </g>
    <g id="text_20">
     <!-- Q -->
     <g transform="translate(548.328125 57.436562) scale(0.1 -0.1)">
      <use xlink:href="#DejaVuSans-51"/>
     </g>
    </g>
   </g>
  </g>
 </g>
 <defs>
  <clipPath id="p0a52756a45">
   <rect x="56.18" y="26.16" width="509.02" height="219.88"/>
  </clipPath>
 </defs>
</svg>
