<?xml version="1.0" encoding="utf-8" standalone="no"?>
<!DOCTYPE svg PUBLIC "-//W3C//DTD SVG 1.1//EN"
  "http://www.w3.org/Graphics/SVG/1.1/DTD/svg11.dtd">
<!-- Created with matplotlib (https://matplotlib.org/) -->
<svg height="360pt" version="1.1" viewBox="0 0 720 360" width="720pt" xmlns="http://www.w3.org/2000/svg" xmlns:xlink="http://www.w3.org/1999/xlink">
 <defs>
  <style type="text/css">
*{stroke-linecap:butt;stroke-linejoin:round;}
  </style>
 </defs>
 <g id="figure_1">
  <g id="patch_1">
   <path d="M 0 360 
L 720 360 
L 720 0 
L 0 0 
z
" style="fill:#ffffff;"/>
  </g>
  <g id="axes_1">
   <g id="patch_2">
    <path d="M 59.33 143.44 
L 709.2 143.44 
L 709.2 25.44 
L 59.33 25.44 
z
" style="fill:#ffffff;"/>
   </g>
   <g id="matplotlib.axis_1">
    <g id="xtick_1">
     <g id="line2d_1">
      <path clip-path="url(#p1579956315)" d="M 59.33 143.44 
L 59.33 25.44 
" style="fill:none;stroke:#b0b0b0;stroke-linecap:square;stroke-width:0.8;"/>
     </g>
     <g id="line2d_2">
      <defs>
       <path d="M 0 0 
L 0 3.5 
" id="m54f03798ae" style="stroke:#000000;stroke-width:0.8;"/>
      </defs>
      <g>
       <use style="stroke:#000000;stroke-width:0.8;" x="59.33" xlink:href="#m54f03798ae" y="143.44"/>
      </g>
     </g>
     <g id="text_1">
      <!-- 0 Hz -->
      <defs>
       <path d="M 31.78125 66.40625 
Q 24.171875 66.40625 20.328125 58.90625 
Q 16.5 51.421875 16.5 36.375 
Q 16.5 21.390625 20.328125 13.890625 
Q 24.171875 6.390625 31.78125 6.390625 
Q 39.453125 6.390625 43.28125 13.890625 
Q 47.125 21.390625 47.125 36.375 
Q 47.125 51.421875 43.28125 58.90625 
Q 39.453125 66.40625 31.78125 66.40625 
z
M 31.78125 74.21875 
Q 44.046875 74.21875 50.515625 64.515625 
Q 56.984375 54.828125 56.984375 36.375 
Q 56.984375 17.96875 50.515625 8.265625 
Q 44.046875 -1.421875 31.78125 -1.421875 
Q 19.53125 -1.421875 13.0625 8.265625 
Q 6.59375 17.96875 6.59375 36.375 
Q 6.59375 54.828125 13.0625 64.515625 
Q 19.53125 74.21875 31.78125 74.21875 
z
" id="DejaVuSans-48"/>
       <path id="DejaVuSans-32"/>
       <path d="M 9.8125 72.90625 
L 19.671875 72.90625 
L 19.671875 43.015625 
L 55.515625 43.015625 
L 55.515625 72.90625 
L 65.375 72.90625 
L 65.375 0 
L 55.515625 0 
L 55.515625 34.71875 
L 19.671875 34.71875 
L 19.671875 0 
L 9.8125 0 
z
" id="DejaVuSans-72"/>
       <path d="M 5.515625 54.6875 
L 48.1875 54.6875 
L 48.1875 46.484375 
L 14.40625 7.171875 
L 48.1875 7.171875 
L 48.1875 0 
L 4.296875 0 
L 4.296875 8.203125 
L 38.09375 47.515625 
L 5.515625 47.515625 
z
" id="DejaVuSans-122"/>
      </defs>
      <g transform="translate(48.175313 158.038438)scale(0.1 -0.1)">
       <use xlink:href="#DejaVuSans-48"/>
       <use x="63.623047" xlink:href="#DejaVuSans-32"/>
       <use x="95.410156" xlink:href="#DejaVuSans-72"/>
       <use x="170.605469" xlink:href="#DejaVuSans-122"/>
      </g>
     </g>
    </g>
    <g id="xtick_2">
     <g id="line2d_3">
      <path clip-path="url(#p1579956315)" d="M 194.719583 143.44 
L 194.719583 25.44 
" style="fill:none;stroke:#b0b0b0;stroke-linecap:square;stroke-width:0.8;"/>
     </g>
     <g id="line2d_4">
      <g>
       <use style="stroke:#000000;stroke-width:0.8;" x="194.719583" xlink:href="#m54f03798ae" y="143.44"/>
      </g>
     </g>
     <g id="text_2">
      <!-- 5 kHz -->
      <defs>
       <path d="M 10.796875 72.90625 
L 49.515625 72.90625 
L 49.515625 64.59375 
L 19.828125 64.59375 
L 19.828125 46.734375 
Q 21.96875 47.46875 24.109375 47.828125 
Q 26.265625 48.1875 28.421875 48.1875 
Q 40.625 48.1875 47.75 41.5 
Q 54.890625 34.8125 54.890625 23.390625 
Q 54.890625 11.625 47.5625 5.09375 
Q 40.234375 -1.421875 26.90625 -1.421875 
Q 22.3125 -1.421875 17.546875 -0.640625 
Q 12.796875 0.140625 7.71875 1.703125 
L 7.71875 11.625 
Q 12.109375 9.234375 16.796875 8.0625 
Q 21.484375 6.890625 26.703125 6.890625 
Q 35.15625 6.890625 40.078125 11.328125 
Q 45.015625 15.765625 45.015625 23.390625 
Q 45.015625 31 40.078125 35.4375 
Q 35.15625 39.890625 26.703125 39.890625 
Q 22.75 39.890625 18.8125 39.015625 
Q 14.890625 38.140625 10.796875 36.28125 
z
" id="DejaVuSans-53"/>
       <path d="M 9.078125 75.984375 
L 18.109375 75.984375 
L 18.109375 31.109375 
L 44.921875 54.6875 
L 56.390625 54.6875 
L 27.390625 29.109375 
L 57.625 0 
L 45.90625 0 
L 18.109375 26.703125 
L 18.109375 0 
L 9.078125 0 
z
" id="DejaVuSans-107"/>
      </defs>
      <g transform="translate(180.669583 158.038438)scale(0.1 -0.1)">
       <use xlink:href="#DejaVuSans-53"/>
       <use x="63.623047" xlink:href="#DejaVuSans-32"/>
       <use x="95.410156" xlink:href="#DejaVuSans-107"/>
       <use x="153.320312" xlink:href="#DejaVuSans-72"/>
       <use x="228.515625" xlink:href="#DejaVuSans-122"/>
      </g>
     </g>
    </g>
    <g id="xtick_3">
     <g id="line2d_5">
      <path clip-path="url(#p1579956315)" d="M 330.109167 143.44 
L 330.109167 25.44 
" style="fill:none;stroke:#b0b0b0;stroke-linecap:square;stroke-width:0.8;"/>
     </g>
     <g id="line2d_6">
      <g>
       <use style="stroke:#000000;stroke-width:0.8;" x="330.109167" xlink:href="#m54f03798ae" y="143.44"/>
      </g>
     </g>
     <g id="text_3">
      <!-- 10 kHz -->
      <defs>
       <path d="M 12.40625 8.296875 
L 28.515625 8.296875 
L 28.515625 63.921875 
L 10.984375 60.40625 
L 10.984375 69.390625 
L 28.421875 72.90625 
L 38.28125 72.90625 
L 38.28125 8.296875 
L 54.390625 8.296875 
L 54.390625 0 
L 12.40625 0 
z
" id="DejaVuSans-49"/>
      </defs>
      <g transform="translate(312.877917 158.038438)scale(0.1 -0.1)">
       <use xlink:href="#DejaVuSans-49"/>
       <use x="63.623047" xlink:href="#DejaVuSans-48"/>
       <use x="127.246094" xlink:href="#DejaVuSans-32"/>
       <use x="159.033203" xlink:href="#DejaVuSans-107"/>
       <use x="216.943359" xlink:href="#DejaVuSans-72"/>
       <use x="292.138672" xlink:href="#DejaVuSans-122"/>
      </g>
     </g>
    </g>
    <g id="xtick_4">
     <g id="line2d_7">
      <path clip-path="url(#p1579956315)" d="M 465.49875 143.44 
L 465.49875 25.44 
" style="fill:none;stroke:#b0b0b0;stroke-linecap:square;stroke-width:0.8;"/>
     </g>
     <g id="line2d_8">
      <g>
       <use style="stroke:#000000;stroke-width:0.8;" x="465.49875" xlink:href="#m54f03798ae" y="143.44"/>
      </g>
     </g>
     <g id="text_4">
      <!-- 15 kHz -->
      <g transform="translate(448.2675 158.038438)scale(0.1 -0.1)">
       <use xlink:href="#DejaVuSans-49"/>
       <use x="63.623047" xlink:href="#DejaVuSans-53"/>
       <use x="127.246094" xlink:href="#DejaVuSans-32"/>
       <use x="159.033203" xlink:href="#DejaVuSans-107"/>
       <use x="216.943359" xlink:href="#DejaVuSans-72"/>
       <use x="292.138672" xlink:href="#DejaVuSans-122"/>
      </g>
     </g>
    </g>
    <g id="xtick_5">
     <g id="line2d_9">
      <path clip-path="url(#p1579956315)" d="M 600.888333 143.44 
L 600.888333 25.44 
" style="fill:none;stroke:#b0b0b0;stroke-linecap:square;stroke-width:0.8;"/>
     </g>
     <g id="line2d_10">
      <g>
       <use style="stroke:#000000;stroke-width:0.8;" x="600.888333" xlink:href="#m54f03798ae" y="143.44"/>
      </g>
     </g>
     <g id="text_5">
      <!-- 20 kHz -->
      <defs>
       <path d="M 19.1875 8.296875 
L 53.609375 8.296875 
L 53.609375 0 
L 7.328125 0 
L 7.328125 8.296875 
Q 12.9375 14.109375 22.625 23.890625 
Q 32.328125 33.6875 34.8125 36.53125 
Q 39.546875 41.84375 41.421875 45.53125 
Q 43.3125 49.21875 43.3125 52.78125 
Q 43.3125 58.59375 39.234375 62.25 
Q 35.15625 65.921875 28.609375 65.921875 
Q 23.96875 65.921875 18.8125 64.3125 
Q 13.671875 62.703125 7.8125 59.421875 
L 7.8125 69.390625 
Q 13.765625 71.78125 18.9375 73 
Q 24.125 74.21875 28.421875 74.21875 
Q 39.75 74.21875 46.484375 68.546875 
Q 53.21875 62.890625 53.21875 53.421875 
Q 53.21875 48.921875 51.53125 44.890625 
Q 49.859375 40.875 45.40625 35.40625 
Q 44.1875 33.984375 37.640625 27.21875 
Q 31.109375 20.453125 19.1875 8.296875 
z
" id="DejaVuSans-50"/>
      </defs>
      <g transform="translate(583.657083 158.038438)scale(0.1 -0.1)">
       <use xlink:href="#DejaVuSans-50"/>
       <use x="63.623047" xlink:href="#DejaVuSans-48"/>
       <use x="127.246094" xlink:href="#DejaVuSans-32"/>
       <use x="159.033203" xlink:href="#DejaVuSans-107"/>
       <use x="216.943359" xlink:href="#DejaVuSans-72"/>
       <use x="292.138672" xlink:href="#DejaVuSans-122"/>
      </g>
     </g>
    </g>
    <g id="text_6">
     <!-- Frequency -->
     <defs>
      <path d="M 9.8125 72.90625 
L 51.703125 72.90625 
L 51.703125 64.59375 
L 19.671875 64.59375 
L 19.671875 43.109375 
L 48.578125 43.109375 
L 48.578125 34.8125 
L 19.671875 34.8125 
L 19.671875 0 
L 9.8125 0 
z
" id="DejaVuSans-70"/>
      <path d="M 41.109375 46.296875 
Q 39.59375 47.171875 37.8125 47.578125 
Q 36.03125 48 33.890625 48 
Q 26.265625 48 22.1875 43.046875 
Q 18.109375 38.09375 18.109375 28.8125 
L 18.109375 0 
L 9.078125 0 
L 9.078125 54.6875 
L 18.109375 54.6875 
L 18.109375 46.1875 
Q 20.953125 51.171875 25.484375 53.578125 
Q 30.03125 56 36.53125 56 
Q 37.453125 56 38.578125 55.875 
Q 39.703125 55.765625 41.0625 55.515625 
z
" id="DejaVuSans-114"/>
      <path d="M 56.203125 29.59375 
L 56.203125 25.203125 
L 14.890625 25.203125 
Q 15.484375 15.921875 20.484375 11.0625 
Q 25.484375 6.203125 34.421875 6.203125 
Q 39.59375 6.203125 44.453125 7.46875 
Q 49.3125 8.734375 54.109375 11.28125 
L 54.109375 2.78125 
Q 49.265625 0.734375 44.1875 -0.34375 
Q 39.109375 -1.421875 33.890625 -1.421875 
Q 20.796875 -1.421875 13.15625 6.1875 
Q 5.515625 13.8125 5.515625 26.8125 
Q 5.515625 40.234375 12.765625 48.109375 
Q 20.015625 56 32.328125 56 
Q 43.359375 56 49.78125 48.890625 
Q 56.203125 41.796875 56.203125 29.59375 
z
M 47.21875 32.234375 
Q 47.125 39.59375 43.09375 43.984375 
Q 39.0625 48.390625 32.421875 48.390625 
Q 24.90625 48.390625 20.390625 44.140625 
Q 15.875 39.890625 15.1875 32.171875 
z
" id="DejaVuSans-101"/>
      <path d="M 14.796875 27.296875 
Q 14.796875 17.390625 18.875 11.75 
Q 22.953125 6.109375 30.078125 6.109375 
Q 37.203125 6.109375 41.296875 11.75 
Q 45.40625 17.390625 45.40625 27.296875 
Q 45.40625 37.203125 41.296875 42.84375 
Q 37.203125 48.484375 30.078125 48.484375 
Q 22.953125 48.484375 18.875 42.84375 
Q 14.796875 37.203125 14.796875 27.296875 
z
M 45.40625 8.203125 
Q 42.578125 3.328125 38.25 0.953125 
Q 33.9375 -1.421875 27.875 -1.421875 
Q 17.96875 -1.421875 11.734375 6.484375 
Q 5.515625 14.40625 5.515625 27.296875 
Q 5.515625 40.1875 11.734375 48.09375 
Q 17.96875 56 27.875 56 
Q 33.9375 56 38.25 53.625 
Q 42.578125 51.265625 45.40625 46.390625 
L 45.40625 54.6875 
L 54.390625 54.6875 
L 54.390625 -20.796875 
L 45.40625 -20.796875 
z
" id="DejaVuSans-113"/>
      <path d="M 8.5 21.578125 
L 8.5 54.6875 
L 17.484375 54.6875 
L 17.484375 21.921875 
Q 17.484375 14.15625 20.5 10.265625 
Q 23.53125 6.390625 29.59375 6.390625 
Q 36.859375 6.390625 41.078125 11.03125 
Q 45.3125 15.671875 45.3125 23.6875 
L 45.3125 54.6875 
L 54.296875 54.6875 
L 54.296875 0 
L 45.3125 0 
L 45.3125 8.40625 
Q 42.046875 3.421875 37.71875 1 
Q 33.40625 -1.421875 27.6875 -1.421875 
Q 18.265625 -1.421875 13.375 4.4375 
Q 8.5 10.296875 8.5 21.578125 
z
M 31.109375 56 
z
" id="DejaVuSans-117"/>
      <path d="M 54.890625 33.015625 
L 54.890625 0 
L 45.90625 0 
L 45.90625 32.71875 
Q 45.90625 40.484375 42.875 44.328125 
Q 39.84375 48.1875 33.796875 48.1875 
Q 26.515625 48.1875 22.3125 43.546875 
Q 18.109375 38.921875 18.109375 30.90625 
L 18.109375 0 
L 9.078125 0 
L 9.078125 54.6875 
L 18.109375 54.6875 
L 18.109375 46.1875 
Q 21.34375 51.125 25.703125 53.5625 
Q 30.078125 56 35.796875 56 
Q 45.21875 56 50.046875 50.171875 
Q 54.890625 44.34375 54.890625 33.015625 
z
" id="DejaVuSans-110"/>
      <path d="M 48.78125 52.59375 
L 48.78125 44.1875 
Q 44.96875 46.296875 41.140625 47.34375 
Q 37.3125 48.390625 33.40625 48.390625 
Q 24.65625 48.390625 19.8125 42.84375 
Q 14.984375 37.3125 14.984375 27.296875 
Q 14.984375 17.28125 19.8125 11.734375 
Q 24.65625 6.203125 33.40625 6.203125 
Q 37.3125 6.203125 41.140625 7.25 
Q 44.96875 8.296875 48.78125 10.40625 
L 48.78125 2.09375 
Q 45.015625 0.34375 40.984375 -0.53125 
Q 36.96875 -1.421875 32.421875 -1.421875 
Q 20.0625 -1.421875 12.78125 6.34375 
Q 5.515625 14.109375 5.515625 27.296875 
Q 5.515625 40.671875 12.859375 48.328125 
Q 20.21875 56 33.015625 56 
Q 37.15625 56 41.109375 55.140625 
Q 45.0625 54.296875 48.78125 52.59375 
z
" id="DejaVuSans-99"/>
      <path d="M 32.171875 -5.078125 
Q 28.375 -14.84375 24.75 -17.8125 
Q 21.140625 -20.796875 15.09375 -20.796875 
L 7.90625 -20.796875 
L 7.90625 -13.28125 
L 13.1875 -13.28125 
Q 16.890625 -13.28125 18.9375 -11.515625 
Q 21 -9.765625 23.484375 -3.21875 
L 25.09375 0.875 
L 2.984375 54.6875 
L 12.5 54.6875 
L 29.59375 11.921875 
L 46.6875 54.6875 
L 56.203125 54.6875 
z
" id="DejaVuSans-121"/>
     </defs>
     <g transform="translate(357.967344 171.716563)scale(0.1 -0.1)">
      <use xlink:href="#DejaVuSans-70"/>
      <use x="57.410156" xlink:href="#DejaVuSans-114"/>
      <use x="98.492188" xlink:href="#DejaVuSans-101"/>
      <use x="160.015625" xlink:href="#DejaVuSans-113"/>
      <use x="223.492188" xlink:href="#DejaVuSans-117"/>
      <use x="286.871094" xlink:href="#DejaVuSans-101"/>
      <use x="348.394531" xlink:href="#DejaVuSans-110"/>
      <use x="411.773438" xlink:href="#DejaVuSans-99"/>
      <use x="466.753906" xlink:href="#DejaVuSans-121"/>
     </g>
    </g>
   </g>
   <g id="matplotlib.axis_2">
    <g id="ytick_1">
     <g id="line2d_11">
      <path clip-path="url(#p1579956315)" d="M 59.33 117.217778 
L 709.2 117.217778 
" style="fill:none;stroke:#b0b0b0;stroke-linecap:square;stroke-width:0.8;"/>
     </g>
     <g id="line2d_12">
      <defs>
       <path d="M 0 0 
L -3.5 0 
" id="m02c4ccf5db" style="stroke:#000000;stroke-width:0.8;"/>
      </defs>
      <g>
       <use style="stroke:#000000;stroke-width:0.8;" x="59.33" xlink:href="#m02c4ccf5db" y="117.217778"/>
      </g>
     </g>
     <g id="text_7">
      <!-- −100 -->
      <defs>
       <path d="M 10.59375 35.5 
L 73.1875 35.5 
L 73.1875 27.203125 
L 10.59375 27.203125 
z
" id="DejaVuSans-8722"/>
      </defs>
      <g transform="translate(24.862813 121.016997)scale(0.1 -0.1)">
       <use xlink:href="#DejaVuSans-8722"/>
       <use x="83.789062" xlink:href="#DejaVuSans-49"/>
       <use x="147.412109" xlink:href="#DejaVuSans-48"/>
       <use x="211.035156" xlink:href="#DejaVuSans-48"/>
      </g>
     </g>
    </g>
    <g id="ytick_2">
     <g id="line2d_13">
      <path clip-path="url(#p1579956315)" d="M 59.33 73.514074 
L 709.2 73.514074 
" style="fill:none;stroke:#b0b0b0;stroke-linecap:square;stroke-width:0.8;"/>
     </g>
     <g id="line2d_14">
      <g>
       <use style="stroke:#000000;stroke-width:0.8;" x="59.33" xlink:href="#m02c4ccf5db" y="73.514074"/>
      </g>
     </g>
     <g id="text_8">
      <!-- −50 -->
      <g transform="translate(31.225313 77.313293)scale(0.1 -0.1)">
       <use xlink:href="#DejaVuSans-8722"/>
       <use x="83.789062" xlink:href="#DejaVuSans-53"/>
       <use x="147.412109" xlink:href="#DejaVuSans-48"/>
      </g>
     </g>
    </g>
    <g id="ytick_3">
     <g id="line2d_15">
      <path clip-path="url(#p1579956315)" d="M 59.33 29.81037 
L 709.2 29.81037 
" style="fill:none;stroke:#b0b0b0;stroke-linecap:square;stroke-width:0.8;"/>
     </g>
     <g id="line2d_16">
      <g>
       <use style="stroke:#000000;stroke-width:0.8;" x="59.33" xlink:href="#m02c4ccf5db" y="29.81037"/>
      </g>
     </g>
     <g id="text_9">
      <!-- 0 -->
      <g transform="translate(45.9675 33.609589)scale(0.1 -0.1)">
       <use xlink:href="#DejaVuSans-48"/>
      </g>
     </g>
    </g>
    <g id="text_10">
     <!-- Attenuation (dB) -->
     <defs>
      <path d="M 34.1875 63.1875 
L 20.796875 26.90625 
L 47.609375 26.90625 
z
M 28.609375 72.90625 
L 39.796875 72.90625 
L 67.578125 0 
L 57.328125 0 
L 50.6875 18.703125 
L 17.828125 18.703125 
L 11.1875 0 
L 0.78125 0 
z
" id="DejaVuSans-65"/>
      <path d="M 18.3125 70.21875 
L 18.3125 54.6875 
L 36.8125 54.6875 
L 36.8125 47.703125 
L 18.3125 47.703125 
L 18.3125 18.015625 
Q 18.3125 11.328125 20.140625 9.421875 
Q 21.96875 7.515625 27.59375 7.515625 
L 36.8125 7.515625 
L 36.8125 0 
L 27.59375 0 
Q 17.1875 0 13.234375 3.875 
Q 9.28125 7.765625 9.28125 18.015625 
L 9.28125 47.703125 
L 2.6875 47.703125 
L 2.6875 54.6875 
L 9.28125 54.6875 
L 9.28125 70.21875 
z
" id="DejaVuSans-116"/>
      <path d="M 34.28125 27.484375 
Q 23.390625 27.484375 19.1875 25 
Q 14.984375 22.515625 14.984375 16.5 
Q 14.984375 11.71875 18.140625 8.90625 
Q 21.296875 6.109375 26.703125 6.109375 
Q 34.1875 6.109375 38.703125 11.40625 
Q 43.21875 16.703125 43.21875 25.484375 
L 43.21875 27.484375 
z
M 52.203125 31.203125 
L 52.203125 0 
L 43.21875 0 
L 43.21875 8.296875 
Q 40.140625 3.328125 35.546875 0.953125 
Q 30.953125 -1.421875 24.3125 -1.421875 
Q 15.921875 -1.421875 10.953125 3.296875 
Q 6 8.015625 6 15.921875 
Q 6 25.140625 12.171875 29.828125 
Q 18.359375 34.515625 30.609375 34.515625 
L 43.21875 34.515625 
L 43.21875 35.40625 
Q 43.21875 41.609375 39.140625 45 
Q 35.0625 48.390625 27.6875 48.390625 
Q 23 48.390625 18.546875 47.265625 
Q 14.109375 46.140625 10.015625 43.890625 
L 10.015625 52.203125 
Q 14.9375 54.109375 19.578125 55.046875 
Q 24.21875 56 28.609375 56 
Q 40.484375 56 46.34375 49.84375 
Q 52.203125 43.703125 52.203125 31.203125 
z
" id="DejaVuSans-97"/>
      <path d="M 9.421875 54.6875 
L 18.40625 54.6875 
L 18.40625 0 
L 9.421875 0 
z
M 9.421875 75.984375 
L 18.40625 75.984375 
L 18.40625 64.59375 
L 9.421875 64.59375 
z
" id="DejaVuSans-105"/>
      <path d="M 30.609375 48.390625 
Q 23.390625 48.390625 19.1875 42.75 
Q 14.984375 37.109375 14.984375 27.296875 
Q 14.984375 17.484375 19.15625 11.84375 
Q 23.34375 6.203125 30.609375 6.203125 
Q 37.796875 6.203125 41.984375 11.859375 
Q 46.1875 17.53125 46.1875 27.296875 
Q 46.1875 37.015625 41.984375 42.703125 
Q 37.796875 48.390625 30.609375 48.390625 
z
M 30.609375 56 
Q 42.328125 56 49.015625 48.375 
Q 55.71875 40.765625 55.71875 27.296875 
Q 55.71875 13.875 49.015625 6.21875 
Q 42.328125 -1.421875 30.609375 -1.421875 
Q 18.84375 -1.421875 12.171875 6.21875 
Q 5.515625 13.875 5.515625 27.296875 
Q 5.515625 40.765625 12.171875 48.375 
Q 18.84375 56 30.609375 56 
z
" id="DejaVuSans-111"/>
      <path d="M 31 75.875 
Q 24.46875 64.65625 21.28125 53.65625 
Q 18.109375 42.671875 18.109375 31.390625 
Q 18.109375 20.125 21.3125 9.0625 
Q 24.515625 -2 31 -13.1875 
L 23.1875 -13.1875 
Q 15.875 -1.703125 12.234375 9.375 
Q 8.59375 20.453125 8.59375 31.390625 
Q 8.59375 42.28125 12.203125 53.3125 
Q 15.828125 64.359375 23.1875 75.875 
z
" id="DejaVuSans-40"/>
      <path d="M 45.40625 46.390625 
L 45.40625 75.984375 
L 54.390625 75.984375 
L 54.390625 0 
L 45.40625 0 
L 45.40625 8.203125 
Q 42.578125 3.328125 38.25 0.953125 
Q 33.9375 -1.421875 27.875 -1.421875 
Q 17.96875 -1.421875 11.734375 6.484375 
Q 5.515625 14.40625 5.515625 27.296875 
Q 5.515625 40.1875 11.734375 48.09375 
Q 17.96875 56 27.875 56 
Q 33.9375 56 38.25 53.625 
Q 42.578125 51.265625 45.40625 46.390625 
z
M 14.796875 27.296875 
Q 14.796875 17.390625 18.875 11.75 
Q 22.953125 6.109375 30.078125 6.109375 
Q 37.203125 6.109375 41.296875 11.75 
Q 45.40625 17.390625 45.40625 27.296875 
Q 45.40625 37.203125 41.296875 42.84375 
Q 37.203125 48.484375 30.078125 48.484375 
Q 22.953125 48.484375 18.875 42.84375 
Q 14.796875 37.203125 14.796875 27.296875 
z
" id="DejaVuSans-100"/>
      <path d="M 19.671875 34.8125 
L 19.671875 8.109375 
L 35.5 8.109375 
Q 43.453125 8.109375 47.28125 11.40625 
Q 51.125 14.703125 51.125 21.484375 
Q 51.125 28.328125 47.28125 31.5625 
Q 43.453125 34.8125 35.5 34.8125 
z
M 19.671875 64.796875 
L 19.671875 42.828125 
L 34.28125 42.828125 
Q 41.5 42.828125 45.03125 45.53125 
Q 48.578125 48.25 48.578125 53.8125 
Q 48.578125 59.328125 45.03125 62.0625 
Q 41.5 64.796875 34.28125 64.796875 
z
M 9.8125 72.90625 
L 35.015625 72.90625 
Q 46.296875 72.90625 52.390625 68.21875 
Q 58.5 63.53125 58.5 54.890625 
Q 58.5 48.1875 55.375 44.234375 
Q 52.25 40.28125 46.1875 39.3125 
Q 53.46875 37.75 57.5 32.78125 
Q 61.53125 27.828125 61.53125 20.40625 
Q 61.53125 10.640625 54.890625 5.3125 
Q 48.25 0 35.984375 0 
L 9.8125 0 
z
" id="DejaVuSans-66"/>
      <path d="M 8.015625 75.875 
L 15.828125 75.875 
Q 23.140625 64.359375 26.78125 53.3125 
Q 30.421875 42.28125 30.421875 31.390625 
Q 30.421875 20.453125 26.78125 9.375 
Q 23.140625 -1.703125 15.828125 -13.1875 
L 8.015625 -13.1875 
Q 14.5 -2 17.703125 9.0625 
Q 20.90625 20.125 20.90625 31.390625 
Q 20.90625 42.671875 17.703125 53.65625 
Q 14.5 64.65625 8.015625 75.875 
z
" id="DejaVuSans-41"/>
     </defs>
     <g transform="translate(18.783125 125.930625)rotate(-90)scale(0.1 -0.1)">
      <use xlink:href="#DejaVuSans-65"/>
      <use x="68.392578" xlink:href="#DejaVuSans-116"/>
      <use x="107.601562" xlink:href="#DejaVuSans-116"/>
      <use x="146.810547" xlink:href="#DejaVuSans-101"/>
      <use x="208.333984" xlink:href="#DejaVuSans-110"/>
      <use x="271.712891" xlink:href="#DejaVuSans-117"/>
      <use x="335.091797" xlink:href="#DejaVuSans-97"/>
      <use x="396.371094" xlink:href="#DejaVuSans-116"/>
      <use x="435.580078" xlink:href="#DejaVuSans-105"/>
      <use x="463.363281" xlink:href="#DejaVuSans-111"/>
      <use x="524.544922" xlink:href="#DejaVuSans-110"/>
      <use x="587.923828" xlink:href="#DejaVuSans-32"/>
      <use x="619.710938" xlink:href="#DejaVuSans-40"/>
      <use x="658.724609" xlink:href="#DejaVuSans-100"/>
      <use x="722.201172" xlink:href="#DejaVuSans-66"/>
      <use x="790.804688" xlink:href="#DejaVuSans-41"/>
     </g>
    </g>
   </g>
   <g id="line2d_17">
    <path clip-path="url(#p1579956315)" d="M 59.33 29.794581 
L 224.414107 29.910782 
L 232.501801 30.151666 
L 239.162255 30.554558 
L 245.346962 31.149408 
L 251.055922 31.926377 
L 256.289136 32.859479 
L 261.52235 34.028986 
L 266.279817 35.318071 
L 271.037284 36.842548 
L 275.319004 38.433677 
L 279.600725 40.250954 
L 283.882445 42.315396 
L 287.688419 44.378285 
L 291.494392 46.678073 
L 295.300366 49.241622 
L 298.630593 51.727686 
L 301.96082 54.47095 
L 305.291047 57.509441 
L 308.145527 60.387027 
L 311.000007 63.562224 
L 313.854488 67.095299 
L 316.233221 70.375001 
L 318.611955 74.038695 
L 320.514941 77.322176 
L 322.417928 81.018306 
L 324.320915 85.283033 
L 325.748155 89.023017 
L 327.175395 93.490682 
L 328.126889 97.127649 
L 329.078382 101.724589 
L 329.554129 104.680637 
L 330.029876 108.506997 
L 330.505622 114.341932 
L 330.981369 134.275036 
L 331.457116 117.590139 
L 331.932862 112.976974 
L 332.408609 110.844953 
L 332.884356 109.725739 
L 333.360102 109.18906 
L 333.835849 109.055867 
L 334.311596 109.242198 
L 334.787343 109.711863 
L 335.263089 110.460577 
L 335.738836 111.514114 
L 336.214583 112.938759 
L 336.690329 114.87466 
L 337.166076 117.6387 
L 337.641823 122.155626 
L 338.11757 134.793556 
L 338.593316 125.998186 
L 339.069063 119.808996 
L 339.54481 116.606703 
L 340.020556 114.510995 
L 340.496303 113.01124 
L 341.447796 111.046418 
L 342.39929 109.935282 
L 343.350783 109.397688 
L 344.302277 109.312156 
L 345.25377 109.631642 
L 346.205264 110.359985 
L 347.156757 111.555524 
L 348.10825 113.366872 
L 348.583997 114.600718 
L 349.059744 116.158742 
L 349.53549 118.204842 
L 350.011237 121.098622 
L 350.486984 125.921395 
L 350.962731 142.690723 
L 351.438477 127.862874 
L 351.914224 122.145721 
L 352.389971 118.988589 
L 352.865717 116.832469 
L 353.817211 113.9604 
L 354.768704 112.114012 
L 355.720198 110.866177 
L 356.671691 110.032269 
L 357.623184 109.518589 
L 358.574678 109.274763 
L 359.526171 109.275403 
L 360.477665 109.512734 
L 361.429158 109.994749 
L 362.380652 110.747711 
L 363.332145 111.824645 
L 364.283638 113.326418 
L 365.235132 115.457767 
L 365.710878 116.890234 
L 366.186625 118.71468 
L 366.662372 121.180189 
L 367.138119 124.918265 
L 367.613865 132.67979 
L 368.089612 134.576194 
L 368.565359 125.586091 
L 369.041105 121.626416 
L 369.516852 119.081285 
L 370.468346 115.777707 
L 371.419839 113.64328 
L 372.371332 112.145662 
L 373.322826 111.065966 
L 374.274319 110.294192 
L 375.225813 109.76895 
L 376.177306 109.454506 
L 377.128799 109.330717 
L 378.080293 109.388388 
L 379.031786 109.627435 
L 379.98328 110.056946 
L 380.934773 110.697194 
L 381.886266 111.584565 
L 382.83776 112.782279 
L 383.789253 114.405047 
L 384.740747 116.684904 
L 385.216493 118.222283 
L 385.69224 120.201233 
L 386.167987 122.937531 
L 386.643734 127.31857 
L 387.11948 138.973475 
L 388.070974 125.05051 
L 388.54672 121.617938 
L 389.022467 119.296555 
L 389.97396 116.177696 
L 390.925454 114.101562 
L 391.876947 112.60797 
L 392.828441 111.499989 
L 393.779934 110.676088 
L 394.731428 110.078211 
L 395.682921 109.671372 
L 396.634414 109.434416 
L 397.585908 109.355511 
L 398.537401 109.42997 
L 399.488895 109.659484 
L 400.440388 110.052443 
L 401.391881 110.625473 
L 402.343375 111.406842 
L 403.294868 112.443365 
L 404.246362 113.815097 
L 405.197855 115.67038 
L 406.149348 118.327235 
L 406.625095 120.182137 
L 407.100842 122.688288 
L 407.576589 126.507667 
L 408.052335 134.645513 
L 408.528082 135.254469 
L 409.003829 126.724177 
L 409.479575 122.834406 
L 409.955322 120.303658 
L 410.906816 116.974861 
L 411.858309 114.779998 
L 412.809802 113.197958 
L 413.761296 112.012668 
L 414.712789 111.11438 
L 415.664283 110.440602 
L 417.091523 109.771924 
L 418.518763 109.453291 
L 419.946003 109.453023 
L 421.373243 109.76823 
L 422.324736 110.164619 
L 423.27623 110.727461 
L 424.227723 111.482753 
L 425.179217 112.472477 
L 426.13071 113.766669 
L 427.082204 115.491058 
L 428.033697 117.902322 
L 428.509444 119.536362 
L 428.98519 121.662834 
L 429.460937 124.672626 
L 429.936684 129.79019 
L 430.41243 155.32182 
L 430.888177 130.340434 
L 431.363924 124.959212 
L 431.839671 121.866599 
L 432.791164 118.048422 
L 433.742657 115.61977 
L 434.694151 113.890266 
L 435.645644 112.595223 
L 436.597138 111.605466 
L 437.548631 110.84898 
L 438.975871 110.061207 
L 440.403111 109.619347 
L 441.830351 109.482449 
L 443.257592 109.637371 
L 444.684832 110.094338 
L 446.112072 110.890544 
L 447.063565 111.646103 
L 448.015059 112.626256 
L 448.966552 113.897458 
L 449.918045 115.577371 
L 450.869539 117.901556 
L 451.345286 119.458202 
L 451.821032 121.456906 
L 452.296779 124.218929 
L 452.772526 128.654101 
L 453.248272 140.75146 
L 454.199766 126.170782 
L 454.675512 122.759163 
L 455.151259 120.438937 
L 456.102753 117.298114 
L 457.054246 115.180723 
L 458.005739 113.630772 
L 458.957233 112.452272 
L 459.908726 111.543531 
L 461.335966 110.563903 
L 462.763206 109.950443 
L 464.190447 109.645948 
L 465.617687 109.624896 
L 467.044927 109.884567 
L 468.472167 110.444217 
L 469.899407 111.351672 
L 470.8509 112.194054 
L 471.802394 113.280849 
L 472.753887 114.694644 
L 473.705381 116.587561 
L 474.656874 119.286109 
L 475.132621 121.170797 
L 475.608367 123.725886 
L 476.084114 127.656127 
L 476.559861 136.355342 
L 477.035608 135.291079 
L 477.511354 127.302023 
L 477.987101 123.513927 
L 478.462848 121.019886 
L 479.414341 117.707085 
L 480.365835 115.49759 
L 481.317328 113.884701 
L 482.268821 112.656521 
L 483.220315 111.704703 
L 484.647555 110.665924 
L 486.074795 109.994744 
L 487.502035 109.630193 
L 488.929275 109.543478 
L 490.356515 109.72798 
L 491.783755 110.197172 
L 493.210996 110.988917 
L 494.162489 111.731173 
L 495.113982 112.687532 
L 496.065476 113.920145 
L 497.016969 115.537236 
L 497.968463 117.750419 
L 498.444209 119.213946 
L 498.919956 121.065508 
L 499.395703 123.559162 
L 499.871449 127.343291 
L 500.347196 135.306256 
L 500.822943 136.477166 
L 501.29869 127.73865 
L 501.774436 123.803225 
L 502.250183 121.247194 
L 503.201676 117.880042 
L 504.15317 115.647036 
L 505.104663 114.021904 
L 506.056157 112.786768 
L 507.00765 111.830806 
L 508.43489 110.788485 
L 509.86213 110.114978 
L 511.28937 109.747739 
L 512.716611 109.656475 
L 514.143851 109.832696 
L 515.571091 110.287092 
L 516.998331 111.052856 
L 517.949824 111.767523 
L 518.901318 112.682902 
L 519.852811 113.852697 
L 520.804305 115.368107 
L 521.755798 117.400394 
L 522.707291 120.330424 
L 523.183038 122.418412 
L 523.658785 125.337617 
L 524.134531 130.169641 
L 524.610278 146.534094 
L 525.086025 132.056952 
L 525.561772 126.320493 
L 526.037518 123.119187 
L 526.513265 120.903927 
L 527.464758 117.873779 
L 528.416252 115.818156 
L 529.367745 114.309606 
L 530.319239 113.161197 
L 531.270732 112.274875 
L 532.697972 111.317691 
L 534.125212 110.714495 
L 535.552452 110.407308 
L 536.979693 110.367935 
L 538.406933 110.588694 
L 539.834173 111.08023 
L 541.261413 111.874885 
L 542.688653 113.038021 
L 543.640146 114.076798 
L 544.59164 115.400038 
L 545.543133 117.125181 
L 546.494627 119.486659 
L 546.970373 121.057912 
L 547.44612 123.066864 
L 547.921867 125.830723 
L 548.397613 130.242263 
L 548.87336 142.001438 
L 549.824854 127.949193 
L 550.3006 124.525019 
L 550.776347 122.203091 
L 551.72784 119.065891 
L 552.679334 116.951748 
L 553.630827 115.401196 
L 554.582321 114.216922 
L 555.533814 113.296453 
L 556.961054 112.28667 
L 558.388294 111.625973 
L 559.815534 111.254354 
L 561.242775 111.142366 
L 562.670015 111.281349 
L 564.097255 111.680892 
L 565.524495 112.371741 
L 566.951735 113.416198 
L 567.903228 114.364482 
L 568.854722 115.583447 
L 569.806215 117.181395 
L 570.757709 119.369692 
L 571.233455 120.818252 
L 571.709202 122.652453 
L 572.184949 125.124322 
L 572.660695 128.872376 
L 573.136442 136.631811 
L 573.612189 137.778764 
L 574.087936 129.229858 
L 574.563682 125.286098 
L 575.039429 122.710765 
L 575.990922 119.297735 
L 576.942416 117.014031 
L 577.893909 115.334384 
L 578.845403 114.041164 
L 579.796896 113.023662 
L 581.224136 111.882676 
L 582.651376 111.102863 
L 584.078616 110.621371 
L 585.505857 110.407135 
L 586.933097 110.450118 
L 588.360337 110.758122 
L 589.787577 111.358923 
L 590.73907 111.948385 
L 591.690564 112.72005 
L 592.642057 113.717449 
L 593.593551 115.011954 
L 594.545044 116.730587 
L 595.496537 119.131638 
L 595.972284 120.759787 
L 596.448031 122.880978 
L 596.923777 125.888639 
L 597.399524 131.017161 
L 597.875271 152.22991 
L 598.351018 131.403012 
L 598.826764 126.050984 
L 599.302511 122.954835 
L 600.254004 119.11014 
L 601.205498 116.645263 
L 602.156991 114.87384 
L 603.108485 113.532125 
L 604.059978 112.491112 
L 605.487218 111.343595 
L 606.914458 110.579342 
L 608.341698 110.127798 
L 609.768939 109.95298 
L 611.196179 110.040848 
L 612.623419 110.395003 
L 614.050659 111.037635 
L 615.477899 112.016383 
L 616.429392 112.897733 
L 617.380886 114.012843 
L 618.332379 115.436925 
L 619.283873 117.305179 
L 620.235366 119.897089 
L 620.711113 121.654301 
L 621.186859 123.955938 
L 621.662606 127.270735 
L 622.138353 133.193444 
L 622.6141 142.564818 
L 623.089846 130.689923 
L 623.565593 126.133139 
L 624.04134 123.345358 
L 624.992833 119.818972 
L 625.944327 117.559568 
L 626.89582 115.95757 
L 627.847313 114.770291 
L 628.798807 113.876848 
L 629.7503 113.208832 
L 631.17754 112.54213 
L 632.60478 112.207765 
L 634.03202 112.161815 
L 635.459261 112.384227 
L 636.886501 112.872531 
L 638.313741 113.640974 
L 639.740981 114.724509 
L 641.168221 116.190428 
L 642.119714 117.439485 
L 643.071208 118.980057 
L 644.022701 120.929551 
L 644.974195 123.521074 
L 645.449941 125.20725 
L 645.925688 127.325303 
L 646.401435 130.169811 
L 646.877182 134.472889 
L 647.352928 141.645609 
L 647.828675 137.534832 
L 648.304422 132.321312 
L 648.780168 129.238324 
L 649.255915 127.119533 
L 650.207408 124.288337 
L 651.158902 122.437577 
L 652.110395 121.130405 
L 653.061889 120.172476 
L 654.013382 119.459326 
L 655.440622 118.716187 
L 656.867862 118.254788 
L 658.295102 117.999878 
L 660.198089 117.915078 
L 662.101076 118.107506 
L 663.528316 118.467686 
L 664.955556 119.077354 
L 665.90705 119.671321 
L 666.858543 120.469589 
L 667.810037 121.54781 
L 668.76153 123.035385 
L 669.713023 125.186074 
L 670.18877 126.672199 
L 670.664517 128.616199 
L 671.140264 131.320303 
L 672.091757 139.148122 
L 673.04325 130.55666 
L 673.518997 127.650959 
L 674.47049 123.752246 
L 675.421984 121.108728 
L 676.373477 119.129204 
L 677.324971 117.57077 
L 678.752211 115.771076 
L 680.179451 114.439983 
L 681.606691 113.471534 
L 683.033931 112.810267 
L 684.461171 112.429018 
L 685.888411 112.320264 
L 687.315652 112.494079 
L 688.742892 112.981289 
L 689.694385 113.508981 
L 690.645878 114.233209 
L 691.597372 115.202563 
L 692.548865 116.498197 
L 693.500359 118.268581 
L 694.451852 120.829316 
L 694.927599 122.628574 
L 695.403346 125.066339 
L 695.879092 128.772378 
L 696.354839 136.292263 
L 696.830586 137.078108 
L 697.306332 128.956026 
L 697.782079 125.036463 
L 698.257826 122.45514 
L 699.209319 119.015967 
L 700.160813 116.70611 
L 701.112306 115.004927 
L 702.063799 113.695754 
L 703.015293 112.668039 
L 704.442533 111.522228 
L 705.869773 110.749443 
L 707.297013 110.285757 
L 708.724253 110.098793 
L 708.724253 110.098793 
" style="fill:none;stroke:#1f77b4;stroke-linecap:square;stroke-width:1.5;"/>
   </g>
   <g id="patch_3">
    <path d="M 59.33 143.44 
L 59.33 25.44 
" style="fill:none;stroke:#000000;stroke-linecap:square;stroke-linejoin:miter;stroke-width:0.8;"/>
   </g>
   <g id="patch_4">
    <path d="M 709.2 143.44 
L 709.2 25.44 
" style="fill:none;stroke:#000000;stroke-linecap:square;stroke-linejoin:miter;stroke-width:0.8;"/>
   </g>
   <g id="patch_5">
    <path d="M 59.33 143.44 
L 709.2 143.44 
" style="fill:none;stroke:#000000;stroke-linecap:square;stroke-linejoin:miter;stroke-width:0.8;"/>
   </g>
   <g id="patch_6">
    <path d="M 59.33 25.44 
L 709.2 25.44 
" style="fill:none;stroke:#000000;stroke-linecap:square;stroke-linejoin:miter;stroke-width:0.8;"/>
   </g>
   <g id="text_11">
    <!-- After Decimation - Full Range -->
    <defs>
     <path d="M 37.109375 75.984375 
L 37.109375 68.5 
L 28.515625 68.5 
Q 23.6875 68.5 21.796875 66.546875 
Q 19.921875 64.59375 19.921875 59.515625 
L 19.921875 54.6875 
L 34.71875 54.6875 
L 34.71875 47.703125 
L 19.921875 47.703125 
L 19.921875 0 
L 10.890625 0 
L 10.890625 47.703125 
L 2.296875 47.703125 
L 2.296875 54.6875 
L 10.890625 54.6875 
L 10.890625 58.5 
Q 10.890625 67.625 15.140625 71.796875 
Q 19.390625 75.984375 28.609375 75.984375 
z
" id="DejaVuSans-102"/>
     <path d="M 19.671875 64.796875 
L 19.671875 8.109375 
L 31.59375 8.109375 
Q 46.6875 8.109375 53.6875 14.9375 
Q 60.6875 21.78125 60.6875 36.53125 
Q 60.6875 51.171875 53.6875 57.984375 
Q 46.6875 64.796875 31.59375 64.796875 
z
M 9.8125 72.90625 
L 30.078125 72.90625 
Q 51.265625 72.90625 61.171875 64.09375 
Q 71.09375 55.28125 71.09375 36.53125 
Q 71.09375 17.671875 61.125 8.828125 
Q 51.171875 0 30.078125 0 
L 9.8125 0 
z
" id="DejaVuSans-68"/>
     <path d="M 52 44.1875 
Q 55.375 50.25 60.0625 53.125 
Q 64.75 56 71.09375 56 
Q 79.640625 56 84.28125 50.015625 
Q 88.921875 44.046875 88.921875 33.015625 
L 88.921875 0 
L 79.890625 0 
L 79.890625 32.71875 
Q 79.890625 40.578125 77.09375 44.375 
Q 74.3125 48.1875 68.609375 48.1875 
Q 61.625 48.1875 57.5625 43.546875 
Q 53.515625 38.921875 53.515625 30.90625 
L 53.515625 0 
L 44.484375 0 
L 44.484375 32.71875 
Q 44.484375 40.625 41.703125 44.40625 
Q 38.921875 48.1875 33.109375 48.1875 
Q 26.21875 48.1875 22.15625 43.53125 
Q 18.109375 38.875 18.109375 30.90625 
L 18.109375 0 
L 9.078125 0 
L 9.078125 54.6875 
L 18.109375 54.6875 
L 18.109375 46.1875 
Q 21.1875 51.21875 25.484375 53.609375 
Q 29.78125 56 35.6875 56 
Q 41.65625 56 45.828125 52.96875 
Q 50 49.953125 52 44.1875 
z
" id="DejaVuSans-109"/>
     <path d="M 4.890625 31.390625 
L 31.203125 31.390625 
L 31.203125 23.390625 
L 4.890625 23.390625 
z
" id="DejaVuSans-45"/>
     <path d="M 9.421875 75.984375 
L 18.40625 75.984375 
L 18.40625 0 
L 9.421875 0 
z
" id="DejaVuSans-108"/>
     <path d="M 44.390625 34.1875 
Q 47.5625 33.109375 50.5625 29.59375 
Q 53.5625 26.078125 56.59375 19.921875 
L 66.609375 0 
L 56 0 
L 46.6875 18.703125 
Q 43.0625 26.03125 39.671875 28.421875 
Q 36.28125 30.8125 30.421875 30.8125 
L 19.671875 30.8125 
L 19.671875 0 
L 9.8125 0 
L 9.8125 72.90625 
L 32.078125 72.90625 
Q 44.578125 72.90625 50.734375 67.671875 
Q 56.890625 62.453125 56.890625 51.90625 
Q 56.890625 45.015625 53.6875 40.46875 
Q 50.484375 35.9375 44.390625 34.1875 
z
M 19.671875 64.796875 
L 19.671875 38.921875 
L 32.078125 38.921875 
Q 39.203125 38.921875 42.84375 42.21875 
Q 46.484375 45.515625 46.484375 51.90625 
Q 46.484375 58.296875 42.84375 61.546875 
Q 39.203125 64.796875 32.078125 64.796875 
z
" id="DejaVuSans-82"/>
     <path d="M 45.40625 27.984375 
Q 45.40625 37.75 41.375 43.109375 
Q 37.359375 48.484375 30.078125 48.484375 
Q 22.859375 48.484375 18.828125 43.109375 
Q 14.796875 37.75 14.796875 27.984375 
Q 14.796875 18.265625 18.828125 12.890625 
Q 22.859375 7.515625 30.078125 7.515625 
Q 37.359375 7.515625 41.375 12.890625 
Q 45.40625 18.265625 45.40625 27.984375 
z
M 54.390625 6.78125 
Q 54.390625 -7.171875 48.1875 -13.984375 
Q 42 -20.796875 29.203125 -20.796875 
Q 24.46875 -20.796875 20.265625 -20.09375 
Q 16.0625 -19.390625 12.109375 -17.921875 
L 12.109375 -9.1875 
Q 16.0625 -11.328125 19.921875 -12.34375 
Q 23.78125 -13.375 27.78125 -13.375 
Q 36.625 -13.375 41.015625 -8.765625 
Q 45.40625 -4.15625 45.40625 5.171875 
L 45.40625 9.625 
Q 42.625 4.78125 38.28125 2.390625 
Q 33.9375 0 27.875 0 
Q 17.828125 0 11.671875 7.65625 
Q 5.515625 15.328125 5.515625 27.984375 
Q 5.515625 40.671875 11.671875 48.328125 
Q 17.828125 56 27.875 56 
Q 33.9375 56 38.28125 53.609375 
Q 42.625 51.21875 45.40625 46.390625 
L 45.40625 54.6875 
L 54.390625 54.6875 
z
" id="DejaVuSans-103"/>
    </defs>
    <g transform="translate(295.7275 19.44)scale(0.12 -0.12)">
     <use xlink:href="#DejaVuSans-65"/>
     <use x="68.361328" xlink:href="#DejaVuSans-102"/>
     <use x="103.550781" xlink:href="#DejaVuSans-116"/>
     <use x="142.759766" xlink:href="#DejaVuSans-101"/>
     <use x="204.283203" xlink:href="#DejaVuSans-114"/>
     <use x="245.396484" xlink:href="#DejaVuSans-32"/>
     <use x="277.183594" xlink:href="#DejaVuSans-68"/>
     <use x="354.185547" xlink:href="#DejaVuSans-101"/>
     <use x="415.708984" xlink:href="#DejaVuSans-99"/>
     <use x="470.689453" xlink:href="#DejaVuSans-105"/>
     <use x="498.472656" xlink:href="#DejaVuSans-109"/>
     <use x="595.884766" xlink:href="#DejaVuSans-97"/>
     <use x="657.164062" xlink:href="#DejaVuSans-116"/>
     <use x="696.373047" xlink:href="#DejaVuSans-105"/>
     <use x="724.15625" xlink:href="#DejaVuSans-111"/>
     <use x="785.337891" xlink:href="#DejaVuSans-110"/>
     <use x="848.716797" xlink:href="#DejaVuSans-32"/>
     <use x="880.503906" xlink:href="#DejaVuSans-45"/>
     <use x="916.587891" xlink:href="#DejaVuSans-32"/>
     <use x="948.375" xlink:href="#DejaVuSans-70"/>
     <use x="1005.816406" xlink:href="#DejaVuSans-117"/>
     <use x="1069.195312" xlink:href="#DejaVuSans-108"/>
     <use x="1096.978516" xlink:href="#DejaVuSans-108"/>
     <use x="1124.761719" xlink:href="#DejaVuSans-32"/>
     <use x="1156.548828" xlink:href="#DejaVuSans-82"/>
     <use x="1226" xlink:href="#DejaVuSans-97"/>
     <use x="1287.279297" xlink:href="#DejaVuSans-110"/>
     <use x="1350.658203" xlink:href="#DejaVuSans-103"/>
     <use x="1414.134766" xlink:href="#DejaVuSans-101"/>
    </g>
   </g>
  </g>
  <g id="axes_2">
   <g id="patch_7">
    <path d="M 59.33 318.04 
L 709.2 318.04 
L 709.2 200.04 
L 59.33 200.04 
z
" style="fill:#ffffff;"/>
   </g>
   <g id="matplotlib.axis_3">
    <g id="xtick_6">
     <g id="line2d_18">
      <path clip-path="url(#pa1429a549f)" d="M 59.33 318.04 
L 59.33 200.04 
" style="fill:none;stroke:#b0b0b0;stroke-linecap:square;stroke-width:0.8;"/>
     </g>
     <g id="line2d_19">
      <g>
       <use style="stroke:#000000;stroke-width:0.8;" x="59.33" xlink:href="#m54f03798ae" y="318.04"/>
      </g>
     </g>
     <g id="text_12">
      <!-- 0 Hz -->
      <g transform="translate(48.175313 332.638438)scale(0.1 -0.1)">
       <use xlink:href="#DejaVuSans-48"/>
       <use x="63.623047" xlink:href="#DejaVuSans-32"/>
       <use x="95.410156" xlink:href="#DejaVuSans-72"/>
       <use x="170.605469" xlink:href="#DejaVuSans-122"/>
      </g>
     </g>
    </g>
    <g id="xtick_7">
     <g id="line2d_20">
      <path clip-path="url(#pa1429a549f)" d="M 149.589722 318.04 
L 149.589722 200.04 
" style="fill:none;stroke:#b0b0b0;stroke-linecap:square;stroke-width:0.8;"/>
     </g>
     <g id="line2d_21">
      <g>
       <use style="stroke:#000000;stroke-width:0.8;" x="149.589722" xlink:href="#m54f03798ae" y="318.04"/>
      </g>
     </g>
     <g id="text_13">
      <!-- 1 kHz -->
      <g transform="translate(135.539722 332.638438)scale(0.1 -0.1)">
       <use xlink:href="#DejaVuSans-49"/>
       <use x="63.623047" xlink:href="#DejaVuSans-32"/>
       <use x="95.410156" xlink:href="#DejaVuSans-107"/>
       <use x="153.320312" xlink:href="#DejaVuSans-72"/>
       <use x="228.515625" xlink:href="#DejaVuSans-122"/>
      </g>
     </g>
    </g>
    <g id="xtick_8">
     <g id="line2d_22">
      <path clip-path="url(#pa1429a549f)" d="M 239.849444 318.04 
L 239.849444 200.04 
" style="fill:none;stroke:#b0b0b0;stroke-linecap:square;stroke-width:0.8;"/>
     </g>
     <g id="line2d_23">
      <g>
       <use style="stroke:#000000;stroke-width:0.8;" x="239.849444" xlink:href="#m54f03798ae" y="318.04"/>
      </g>
     </g>
     <g id="text_14">
      <!-- 2 kHz -->
      <g transform="translate(225.799444 332.638438)scale(0.1 -0.1)">
       <use xlink:href="#DejaVuSans-50"/>
       <use x="63.623047" xlink:href="#DejaVuSans-32"/>
       <use x="95.410156" xlink:href="#DejaVuSans-107"/>
       <use x="153.320312" xlink:href="#DejaVuSans-72"/>
       <use x="228.515625" xlink:href="#DejaVuSans-122"/>
      </g>
     </g>
    </g>
    <g id="xtick_9">
     <g id="line2d_24">
      <path clip-path="url(#pa1429a549f)" d="M 330.109167 318.04 
L 330.109167 200.04 
" style="fill:none;stroke:#b0b0b0;stroke-linecap:square;stroke-width:0.8;"/>
     </g>
     <g id="line2d_25">
      <g>
       <use style="stroke:#000000;stroke-width:0.8;" x="330.109167" xlink:href="#m54f03798ae" y="318.04"/>
      </g>
     </g>
     <g id="text_15">
      <!-- 3 kHz -->
      <defs>
       <path d="M 40.578125 39.3125 
Q 47.65625 37.796875 51.625 33 
Q 55.609375 28.21875 55.609375 21.1875 
Q 55.609375 10.40625 48.1875 4.484375 
Q 40.765625 -1.421875 27.09375 -1.421875 
Q 22.515625 -1.421875 17.65625 -0.515625 
Q 12.796875 0.390625 7.625 2.203125 
L 7.625 11.71875 
Q 11.71875 9.328125 16.59375 8.109375 
Q 21.484375 6.890625 26.8125 6.890625 
Q 36.078125 6.890625 40.9375 10.546875 
Q 45.796875 14.203125 45.796875 21.1875 
Q 45.796875 27.640625 41.28125 31.265625 
Q 36.765625 34.90625 28.71875 34.90625 
L 20.21875 34.90625 
L 20.21875 43.015625 
L 29.109375 43.015625 
Q 36.375 43.015625 40.234375 45.921875 
Q 44.09375 48.828125 44.09375 54.296875 
Q 44.09375 59.90625 40.109375 62.90625 
Q 36.140625 65.921875 28.71875 65.921875 
Q 24.65625 65.921875 20.015625 65.03125 
Q 15.375 64.15625 9.8125 62.3125 
L 9.8125 71.09375 
Q 15.4375 72.65625 20.34375 73.4375 
Q 25.25 74.21875 29.59375 74.21875 
Q 40.828125 74.21875 47.359375 69.109375 
Q 53.90625 64.015625 53.90625 55.328125 
Q 53.90625 49.265625 50.4375 45.09375 
Q 46.96875 40.921875 40.578125 39.3125 
z
" id="DejaVuSans-51"/>
      </defs>
      <g transform="translate(316.059167 332.638438)scale(0.1 -0.1)">
       <use xlink:href="#DejaVuSans-51"/>
       <use x="63.623047" xlink:href="#DejaVuSans-32"/>
       <use x="95.410156" xlink:href="#DejaVuSans-107"/>
       <use x="153.320312" xlink:href="#DejaVuSans-72"/>
       <use x="228.515625" xlink:href="#DejaVuSans-122"/>
      </g>
     </g>
    </g>
    <g id="xtick_10">
     <g id="line2d_26">
      <path clip-path="url(#pa1429a549f)" d="M 420.368889 318.04 
L 420.368889 200.04 
" style="fill:none;stroke:#b0b0b0;stroke-linecap:square;stroke-width:0.8;"/>
     </g>
     <g id="line2d_27">
      <g>
       <use style="stroke:#000000;stroke-width:0.8;" x="420.368889" xlink:href="#m54f03798ae" y="318.04"/>
      </g>
     </g>
     <g id="text_16">
      <!-- 4 kHz -->
      <defs>
       <path d="M 37.796875 64.3125 
L 12.890625 25.390625 
L 37.796875 25.390625 
z
M 35.203125 72.90625 
L 47.609375 72.90625 
L 47.609375 25.390625 
L 58.015625 25.390625 
L 58.015625 17.1875 
L 47.609375 17.1875 
L 47.609375 0 
L 37.796875 0 
L 37.796875 17.1875 
L 4.890625 17.1875 
L 4.890625 26.703125 
z
" id="DejaVuSans-52"/>
      </defs>
      <g transform="translate(406.318889 332.638438)scale(0.1 -0.1)">
       <use xlink:href="#DejaVuSans-52"/>
       <use x="63.623047" xlink:href="#DejaVuSans-32"/>
       <use x="95.410156" xlink:href="#DejaVuSans-107"/>
       <use x="153.320312" xlink:href="#DejaVuSans-72"/>
       <use x="228.515625" xlink:href="#DejaVuSans-122"/>
      </g>
     </g>
    </g>
    <g id="xtick_11">
     <g id="line2d_28">
      <path clip-path="url(#pa1429a549f)" d="M 510.628611 318.04 
L 510.628611 200.04 
" style="fill:none;stroke:#b0b0b0;stroke-linecap:square;stroke-width:0.8;"/>
     </g>
     <g id="line2d_29">
      <g>
       <use style="stroke:#000000;stroke-width:0.8;" x="510.628611" xlink:href="#m54f03798ae" y="318.04"/>
      </g>
     </g>
     <g id="text_17">
      <!-- 5 kHz -->
      <g transform="translate(496.578611 332.638438)scale(0.1 -0.1)">
       <use xlink:href="#DejaVuSans-53"/>
       <use x="63.623047" xlink:href="#DejaVuSans-32"/>
       <use x="95.410156" xlink:href="#DejaVuSans-107"/>
       <use x="153.320312" xlink:href="#DejaVuSans-72"/>
       <use x="228.515625" xlink:href="#DejaVuSans-122"/>
      </g>
     </g>
    </g>
    <g id="xtick_12">
     <g id="line2d_30">
      <path clip-path="url(#pa1429a549f)" d="M 600.888333 318.04 
L 600.888333 200.04 
" style="fill:none;stroke:#b0b0b0;stroke-linecap:square;stroke-width:0.8;"/>
     </g>
     <g id="line2d_31">
      <g>
       <use style="stroke:#000000;stroke-width:0.8;" x="600.888333" xlink:href="#m54f03798ae" y="318.04"/>
      </g>
     </g>
     <g id="text_18">
      <!-- 6 kHz -->
      <defs>
       <path d="M 33.015625 40.375 
Q 26.375 40.375 22.484375 35.828125 
Q 18.609375 31.296875 18.609375 23.390625 
Q 18.609375 15.53125 22.484375 10.953125 
Q 26.375 6.390625 33.015625 6.390625 
Q 39.65625 6.390625 43.53125 10.953125 
Q 47.40625 15.53125 47.40625 23.390625 
Q 47.40625 31.296875 43.53125 35.828125 
Q 39.65625 40.375 33.015625 40.375 
z
M 52.59375 71.296875 
L 52.59375 62.3125 
Q 48.875 64.0625 45.09375 64.984375 
Q 41.3125 65.921875 37.59375 65.921875 
Q 27.828125 65.921875 22.671875 59.328125 
Q 17.53125 52.734375 16.796875 39.40625 
Q 19.671875 43.65625 24.015625 45.921875 
Q 28.375 48.1875 33.59375 48.1875 
Q 44.578125 48.1875 50.953125 41.515625 
Q 57.328125 34.859375 57.328125 23.390625 
Q 57.328125 12.15625 50.6875 5.359375 
Q 44.046875 -1.421875 33.015625 -1.421875 
Q 20.359375 -1.421875 13.671875 8.265625 
Q 6.984375 17.96875 6.984375 36.375 
Q 6.984375 53.65625 15.1875 63.9375 
Q 23.390625 74.21875 37.203125 74.21875 
Q 40.921875 74.21875 44.703125 73.484375 
Q 48.484375 72.75 52.59375 71.296875 
z
" id="DejaVuSans-54"/>
      </defs>
      <g transform="translate(586.838333 332.638438)scale(0.1 -0.1)">
       <use xlink:href="#DejaVuSans-54"/>
       <use x="63.623047" xlink:href="#DejaVuSans-32"/>
       <use x="95.410156" xlink:href="#DejaVuSans-107"/>
       <use x="153.320312" xlink:href="#DejaVuSans-72"/>
       <use x="228.515625" xlink:href="#DejaVuSans-122"/>
      </g>
     </g>
    </g>
    <g id="xtick_13">
     <g id="line2d_32">
      <path clip-path="url(#pa1429a549f)" d="M 691.148056 318.04 
L 691.148056 200.04 
" style="fill:none;stroke:#b0b0b0;stroke-linecap:square;stroke-width:0.8;"/>
     </g>
     <g id="line2d_33">
      <g>
       <use style="stroke:#000000;stroke-width:0.8;" x="691.148056" xlink:href="#m54f03798ae" y="318.04"/>
      </g>
     </g>
     <g id="text_19">
      <!-- 7 kHz -->
      <defs>
       <path d="M 8.203125 72.90625 
L 55.078125 72.90625 
L 55.078125 68.703125 
L 28.609375 0 
L 18.3125 0 
L 43.21875 64.59375 
L 8.203125 64.59375 
z
" id="DejaVuSans-55"/>
      </defs>
      <g transform="translate(677.098056 332.638438)scale(0.1 -0.1)">
       <use xlink:href="#DejaVuSans-55"/>
       <use x="63.623047" xlink:href="#DejaVuSans-32"/>
       <use x="95.410156" xlink:href="#DejaVuSans-107"/>
       <use x="153.320312" xlink:href="#DejaVuSans-72"/>
       <use x="228.515625" xlink:href="#DejaVuSans-122"/>
      </g>
     </g>
    </g>
    <g id="text_20">
     <!-- Frequency -->
     <g transform="translate(357.967344 346.316563)scale(0.1 -0.1)">
      <use xlink:href="#DejaVuSans-70"/>
      <use x="57.410156" xlink:href="#DejaVuSans-114"/>
      <use x="98.492188" xlink:href="#DejaVuSans-101"/>
      <use x="160.015625" xlink:href="#DejaVuSans-113"/>
      <use x="223.492188" xlink:href="#DejaVuSans-117"/>
      <use x="286.871094" xlink:href="#DejaVuSans-101"/>
      <use x="348.394531" xlink:href="#DejaVuSans-110"/>
      <use x="411.773438" xlink:href="#DejaVuSans-99"/>
      <use x="466.753906" xlink:href="#DejaVuSans-121"/>
     </g>
    </g>
   </g>
   <g id="matplotlib.axis_4">
    <g id="ytick_4">
     <g id="line2d_34">
      <path clip-path="url(#pa1429a549f)" d="M 59.33 298.373333 
L 709.2 298.373333 
" style="fill:none;stroke:#b0b0b0;stroke-linecap:square;stroke-width:0.8;"/>
     </g>
     <g id="line2d_35">
      <g>
       <use style="stroke:#000000;stroke-width:0.8;" x="59.33" xlink:href="#m02c4ccf5db" y="298.373333"/>
      </g>
     </g>
     <g id="text_21">
      <!-- −0.1 -->
      <defs>
       <path d="M 10.6875 12.40625 
L 21 12.40625 
L 21 0 
L 10.6875 0 
z
" id="DejaVuSans-46"/>
      </defs>
      <g transform="translate(28.047188 302.172552)scale(0.1 -0.1)">
       <use xlink:href="#DejaVuSans-8722"/>
       <use x="83.789062" xlink:href="#DejaVuSans-48"/>
       <use x="147.412109" xlink:href="#DejaVuSans-46"/>
       <use x="179.199219" xlink:href="#DejaVuSans-49"/>
      </g>
     </g>
    </g>
    <g id="ytick_5">
     <g id="line2d_36">
      <path clip-path="url(#pa1429a549f)" d="M 59.33 259.04 
L 709.2 259.04 
" style="fill:none;stroke:#b0b0b0;stroke-linecap:square;stroke-width:0.8;"/>
     </g>
     <g id="line2d_37">
      <g>
       <use style="stroke:#000000;stroke-width:0.8;" x="59.33" xlink:href="#m02c4ccf5db" y="259.04"/>
      </g>
     </g>
     <g id="text_22">
      <!-- 0.0 -->
      <g transform="translate(36.426875 262.839219)scale(0.1 -0.1)">
       <use xlink:href="#DejaVuSans-48"/>
       <use x="63.623047" xlink:href="#DejaVuSans-46"/>
       <use x="95.410156" xlink:href="#DejaVuSans-48"/>
      </g>
     </g>
    </g>
    <g id="ytick_6">
     <g id="line2d_38">
      <path clip-path="url(#pa1429a549f)" d="M 59.33 219.706667 
L 709.2 219.706667 
" style="fill:none;stroke:#b0b0b0;stroke-linecap:square;stroke-width:0.8;"/>
     </g>
     <g id="line2d_39">
      <g>
       <use style="stroke:#000000;stroke-width:0.8;" x="59.33" xlink:href="#m02c4ccf5db" y="219.706667"/>
      </g>
     </g>
     <g id="text_23">
      <!-- 0.1 -->
      <g transform="translate(36.426875 223.505885)scale(0.1 -0.1)">
       <use xlink:href="#DejaVuSans-48"/>
       <use x="63.623047" xlink:href="#DejaVuSans-46"/>
       <use x="95.410156" xlink:href="#DejaVuSans-49"/>
      </g>
     </g>
    </g>
    <g id="text_24">
     <!-- Attenuation (dB) -->
     <g transform="translate(21.9675 300.530625)rotate(-90)scale(0.1 -0.1)">
      <use xlink:href="#DejaVuSans-65"/>
      <use x="68.392578" xlink:href="#DejaVuSans-116"/>
      <use x="107.601562" xlink:href="#DejaVuSans-116"/>
      <use x="146.810547" xlink:href="#DejaVuSans-101"/>
      <use x="208.333984" xlink:href="#DejaVuSans-110"/>
      <use x="271.712891" xlink:href="#DejaVuSans-117"/>
      <use x="335.091797" xlink:href="#DejaVuSans-97"/>
      <use x="396.371094" xlink:href="#DejaVuSans-116"/>
      <use x="435.580078" xlink:href="#DejaVuSans-105"/>
      <use x="463.363281" xlink:href="#DejaVuSans-111"/>
      <use x="524.544922" xlink:href="#DejaVuSans-110"/>
      <use x="587.923828" xlink:href="#DejaVuSans-32"/>
      <use x="619.710938" xlink:href="#DejaVuSans-40"/>
      <use x="658.724609" xlink:href="#DejaVuSans-100"/>
      <use x="722.201172" xlink:href="#DejaVuSans-66"/>
      <use x="790.804688" xlink:href="#DejaVuSans-41"/>
     </g>
    </g>
   </g>
   <g id="line2d_40">
    <path clip-path="url(#pa1429a549f)" d="M 59.33 251.934576 
L 65.673289 252.080075 
L 72.016579 252.508664 
L 78.359868 253.20379 
L 84.703158 254.138583 
L 91.046447 255.276874 
L 98.975559 256.918116 
L 113.24796 260.175952 
L 124.348716 262.635894 
L 132.277828 264.173232 
L 138.621118 265.198417 
L 144.964407 265.998558 
L 151.307696 266.543505 
L 157.650986 266.813558 
L 163.994275 266.800359 
L 170.337565 266.507335 
L 176.680854 265.949662 
L 183.024143 265.153748 
L 189.367433 264.156248 
L 197.296545 262.695888 
L 227.427169 256.854441 
L 233.770459 255.956352 
L 240.113748 255.289392 
L 246.457038 254.890537 
L 251.214505 254.783566 
L 255.971972 254.849099 
L 260.729439 255.089811 
L 265.486906 255.504258 
L 271.830195 256.316865 
L 278.173485 257.403535 
L 284.516774 258.72787 
L 292.445886 260.644939 
L 303.546642 263.614307 
L 317.819043 267.406785 
L 325.748155 269.248334 
L 332.091445 270.484117 
L 338.434734 271.456245 
L 343.192201 271.989993 
L 347.949668 272.344404 
L 352.707135 272.513831 
L 357.464602 272.49756 
L 362.222069 272.299938 
L 368.565359 271.771276 
L 374.908648 270.973145 
L 381.251938 269.955373 
L 390.766872 268.155177 
L 408.210918 264.772018 
L 414.554207 263.775604 
L 420.897496 263.022123 
L 425.654963 262.654312 
L 430.41243 262.479733 
L 435.169898 262.514632 
L 439.927365 262.769511 
L 444.684832 263.248611 
L 449.442299 263.949523 
L 454.199766 264.862987 
L 458.957233 265.972848 
L 465.300522 267.717695 
L 471.643812 269.698681 
L 482.744568 273.457657 
L 492.259502 276.604973 
L 498.602792 278.46269 
L 503.360259 279.650768 
L 508.117726 280.615975 
L 512.875193 281.322266 
L 517.63266 281.741349 
L 522.390127 281.854542 
L 527.147594 281.654552 
L 531.905061 281.147153 
L 536.662528 280.3527 
L 541.419995 279.307449 
L 547.763285 277.618243 
L 562.035686 273.545796 
L 566.793153 272.505358 
L 569.964797 272.021032 
L 573.136442 271.76084 
L 576.308087 271.777123 
L 579.479732 272.125401 
L 582.651376 272.864218 
L 584.237199 273.399159 
L 585.823021 274.05497 
L 587.408843 274.839742 
L 588.994666 275.761719 
L 590.580488 276.829292 
L 592.16631 278.050996 
L 593.752133 279.435501 
L 595.337955 280.991603 
L 596.923777 282.728224 
L 598.5096 284.654399 
L 600.095422 286.77927 
L 601.681245 289.112085 
L 603.267067 291.662184 
L 604.852889 294.438996 
L 606.438712 297.452034 
L 608.024534 300.710884 
L 611.196179 308.004707 
L 614.367823 316.398428 
L 617.539468 325.970811 
L 620.711113 336.801234 
L 623.882757 348.969509 
L 626.700718 361 
L 626.700718 361 
" style="fill:none;stroke:#1f77b4;stroke-linecap:square;stroke-width:1.5;"/>
   </g>
   <g id="patch_8">
    <path d="M 59.33 318.04 
L 59.33 200.04 
" style="fill:none;stroke:#000000;stroke-linecap:square;stroke-linejoin:miter;stroke-width:0.8;"/>
   </g>
   <g id="patch_9">
    <path d="M 709.2 318.04 
L 709.2 200.04 
" style="fill:none;stroke:#000000;stroke-linecap:square;stroke-linejoin:miter;stroke-width:0.8;"/>
   </g>
   <g id="patch_10">
    <path d="M 59.33 318.04 
L 709.2 318.04 
" style="fill:none;stroke:#000000;stroke-linecap:square;stroke-linejoin:miter;stroke-width:0.8;"/>
   </g>
   <g id="patch_11">
    <path d="M 59.33 200.04 
L 709.2 200.04 
" style="fill:none;stroke:#000000;stroke-linecap:square;stroke-linejoin:miter;stroke-width:0.8;"/>
   </g>
   <g id="text_25">
    <!-- After Decimation - Pass Band -->
    <defs>
     <path d="M 19.671875 64.796875 
L 19.671875 37.40625 
L 32.078125 37.40625 
Q 38.96875 37.40625 42.71875 40.96875 
Q 46.484375 44.53125 46.484375 51.125 
Q 46.484375 57.671875 42.71875 61.234375 
Q 38.96875 64.796875 32.078125 64.796875 
z
M 9.8125 72.90625 
L 32.078125 72.90625 
Q 44.34375 72.90625 50.609375 67.359375 
Q 56.890625 61.8125 56.890625 51.125 
Q 56.890625 40.328125 50.609375 34.8125 
Q 44.34375 29.296875 32.078125 29.296875 
L 19.671875 29.296875 
L 19.671875 0 
L 9.8125 0 
z
" id="DejaVuSans-80"/>
     <path d="M 44.28125 53.078125 
L 44.28125 44.578125 
Q 40.484375 46.53125 36.375 47.5 
Q 32.28125 48.484375 27.875 48.484375 
Q 21.1875 48.484375 17.84375 46.4375 
Q 14.5 44.390625 14.5 40.28125 
Q 14.5 37.15625 16.890625 35.375 
Q 19.28125 33.59375 26.515625 31.984375 
L 29.59375 31.296875 
Q 39.15625 29.25 43.1875 25.515625 
Q 47.21875 21.78125 47.21875 15.09375 
Q 47.21875 7.46875 41.1875 3.015625 
Q 35.15625 -1.421875 24.609375 -1.421875 
Q 20.21875 -1.421875 15.453125 -0.5625 
Q 10.6875 0.296875 5.421875 2 
L 5.421875 11.28125 
Q 10.40625 8.6875 15.234375 7.390625 
Q 20.0625 6.109375 24.8125 6.109375 
Q 31.15625 6.109375 34.5625 8.28125 
Q 37.984375 10.453125 37.984375 14.40625 
Q 37.984375 18.0625 35.515625 20.015625 
Q 33.0625 21.96875 24.703125 23.78125 
L 21.578125 24.515625 
Q 13.234375 26.265625 9.515625 29.90625 
Q 5.8125 33.546875 5.8125 39.890625 
Q 5.8125 47.609375 11.28125 51.796875 
Q 16.75 56 26.8125 56 
Q 31.78125 56 36.171875 55.265625 
Q 40.578125 54.546875 44.28125 53.078125 
z
" id="DejaVuSans-115"/>
    </defs>
    <g transform="translate(296.510312 194.04)scale(0.12 -0.12)">
     <use xlink:href="#DejaVuSans-65"/>
     <use x="68.361328" xlink:href="#DejaVuSans-102"/>
     <use x="103.550781" xlink:href="#DejaVuSans-116"/>
     <use x="142.759766" xlink:href="#DejaVuSans-101"/>
     <use x="204.283203" xlink:href="#DejaVuSans-114"/>
     <use x="245.396484" xlink:href="#DejaVuSans-32"/>
     <use x="277.183594" xlink:href="#DejaVuSans-68"/>
     <use x="354.185547" xlink:href="#DejaVuSans-101"/>
     <use x="415.708984" xlink:href="#DejaVuSans-99"/>
     <use x="470.689453" xlink:href="#DejaVuSans-105"/>
     <use x="498.472656" xlink:href="#DejaVuSans-109"/>
     <use x="595.884766" xlink:href="#DejaVuSans-97"/>
     <use x="657.164062" xlink:href="#DejaVuSans-116"/>
     <use x="696.373047" xlink:href="#DejaVuSans-105"/>
     <use x="724.15625" xlink:href="#DejaVuSans-111"/>
     <use x="785.337891" xlink:href="#DejaVuSans-110"/>
     <use x="848.716797" xlink:href="#DejaVuSans-32"/>
     <use x="880.503906" xlink:href="#DejaVuSans-45"/>
     <use x="916.587891" xlink:href="#DejaVuSans-32"/>
     <use x="948.375" xlink:href="#DejaVuSans-80"/>
     <use x="1008.615234" xlink:href="#DejaVuSans-97"/>
     <use x="1069.894531" xlink:href="#DejaVuSans-115"/>
     <use x="1121.994141" xlink:href="#DejaVuSans-115"/>
     <use x="1174.09375" xlink:href="#DejaVuSans-32"/>
     <use x="1205.880859" xlink:href="#DejaVuSans-66"/>
     <use x="1274.484375" xlink:href="#DejaVuSans-97"/>
     <use x="1335.763672" xlink:href="#DejaVuSans-110"/>
     <use x="1399.142578" xlink:href="#DejaVuSans-100"/>
    </g>
   </g>
  </g>
 </g>
 <defs>
  <clipPath id="p1579956315">
   <rect height="118" width="649.87" x="59.33" y="25.44"/>
  </clipPath>
  <clipPath id="pa1429a549f">
   <rect height="118" width="649.87" x="59.33" y="200.04"/>
  </clipPath>
 </defs>
</svg>
