<?xml version="1.0" encoding="utf-8" standalone="no"?>
<!DOCTYPE svg PUBLIC "-//W3C//DTD SVG 1.1//EN"
  "http://www.w3.org/Graphics/SVG/1.1/DTD/svg11.dtd">
<!-- Created with matplotlib (https://matplotlib.org/) -->
<svg height="360pt" version="1.1" viewBox="0 0 720 360" width="720pt" xmlns="http://www.w3.org/2000/svg" xmlns:xlink="http://www.w3.org/1999/xlink">
 <defs>
  <style type="text/css">
*{stroke-linecap:butt;stroke-linejoin:round;}
  </style>
 </defs>
 <g id="figure_1">
  <g id="patch_1">
   <path d="M 0 360 
L 720 360 
L 720 0 
L 0 0 
z
" style="fill:#ffffff;"/>
  </g>
  <g id="axes_1">
   <g id="patch_2">
    <path d="M 59.33 143.44 
L 709.2 143.44 
L 709.2 25.44 
L 59.33 25.44 
z
" style="fill:#ffffff;"/>
   </g>
   <g id="matplotlib.axis_1">
    <g id="xtick_1">
     <g id="line2d_1">
      <path clip-path="url(#pc93a556b5d)" d="M 59.33 143.44 
L 59.33 25.44 
" style="fill:none;stroke:#b0b0b0;stroke-linecap:square;stroke-width:0.8;"/>
     </g>
     <g id="line2d_2">
      <defs>
       <path d="M 0 0 
L 0 3.5 
" id="med6b46b1c9" style="stroke:#000000;stroke-width:0.8;"/>
      </defs>
      <g>
       <use style="stroke:#000000;stroke-width:0.8;" x="59.33" xlink:href="#med6b46b1c9" y="143.44"/>
      </g>
     </g>
     <g id="text_1">
      <!-- 0 Hz -->
      <defs>
       <path d="M 31.78125 66.40625 
Q 24.171875 66.40625 20.328125 58.90625 
Q 16.5 51.421875 16.5 36.375 
Q 16.5 21.390625 20.328125 13.890625 
Q 24.171875 6.390625 31.78125 6.390625 
Q 39.453125 6.390625 43.28125 13.890625 
Q 47.125 21.390625 47.125 36.375 
Q 47.125 51.421875 43.28125 58.90625 
Q 39.453125 66.40625 31.78125 66.40625 
z
M 31.78125 74.21875 
Q 44.046875 74.21875 50.515625 64.515625 
Q 56.984375 54.828125 56.984375 36.375 
Q 56.984375 17.96875 50.515625 8.265625 
Q 44.046875 -1.421875 31.78125 -1.421875 
Q 19.53125 -1.421875 13.0625 8.265625 
Q 6.59375 17.96875 6.59375 36.375 
Q 6.59375 54.828125 13.0625 64.515625 
Q 19.53125 74.21875 31.78125 74.21875 
z
" id="DejaVuSans-48"/>
       <path id="DejaVuSans-32"/>
       <path d="M 9.8125 72.90625 
L 19.671875 72.90625 
L 19.671875 43.015625 
L 55.515625 43.015625 
L 55.515625 72.90625 
L 65.375 72.90625 
L 65.375 0 
L 55.515625 0 
L 55.515625 34.71875 
L 19.671875 34.71875 
L 19.671875 0 
L 9.8125 0 
z
" id="DejaVuSans-72"/>
       <path d="M 5.515625 54.6875 
L 48.1875 54.6875 
L 48.1875 46.484375 
L 14.40625 7.171875 
L 48.1875 7.171875 
L 48.1875 0 
L 4.296875 0 
L 4.296875 8.203125 
L 38.09375 47.515625 
L 5.515625 47.515625 
z
" id="DejaVuSans-122"/>
      </defs>
      <g transform="translate(48.175313 158.038438)scale(0.1 -0.1)">
       <use xlink:href="#DejaVuSans-48"/>
       <use x="63.623047" xlink:href="#DejaVuSans-32"/>
       <use x="95.410156" xlink:href="#DejaVuSans-72"/>
       <use x="170.605469" xlink:href="#DejaVuSans-122"/>
      </g>
     </g>
    </g>
    <g id="xtick_2">
     <g id="line2d_3">
      <path clip-path="url(#pc93a556b5d)" d="M 194.719583 143.44 
L 194.719583 25.44 
" style="fill:none;stroke:#b0b0b0;stroke-linecap:square;stroke-width:0.8;"/>
     </g>
     <g id="line2d_4">
      <g>
       <use style="stroke:#000000;stroke-width:0.8;" x="194.719583" xlink:href="#med6b46b1c9" y="143.44"/>
      </g>
     </g>
     <g id="text_2">
      <!-- 5 kHz -->
      <defs>
       <path d="M 10.796875 72.90625 
L 49.515625 72.90625 
L 49.515625 64.59375 
L 19.828125 64.59375 
L 19.828125 46.734375 
Q 21.96875 47.46875 24.109375 47.828125 
Q 26.265625 48.1875 28.421875 48.1875 
Q 40.625 48.1875 47.75 41.5 
Q 54.890625 34.8125 54.890625 23.390625 
Q 54.890625 11.625 47.5625 5.09375 
Q 40.234375 -1.421875 26.90625 -1.421875 
Q 22.3125 -1.421875 17.546875 -0.640625 
Q 12.796875 0.140625 7.71875 1.703125 
L 7.71875 11.625 
Q 12.109375 9.234375 16.796875 8.0625 
Q 21.484375 6.890625 26.703125 6.890625 
Q 35.15625 6.890625 40.078125 11.328125 
Q 45.015625 15.765625 45.015625 23.390625 
Q 45.015625 31 40.078125 35.4375 
Q 35.15625 39.890625 26.703125 39.890625 
Q 22.75 39.890625 18.8125 39.015625 
Q 14.890625 38.140625 10.796875 36.28125 
z
" id="DejaVuSans-53"/>
       <path d="M 9.078125 75.984375 
L 18.109375 75.984375 
L 18.109375 31.109375 
L 44.921875 54.6875 
L 56.390625 54.6875 
L 27.390625 29.109375 
L 57.625 0 
L 45.90625 0 
L 18.109375 26.703125 
L 18.109375 0 
L 9.078125 0 
z
" id="DejaVuSans-107"/>
      </defs>
      <g transform="translate(180.669583 158.038438)scale(0.1 -0.1)">
       <use xlink:href="#DejaVuSans-53"/>
       <use x="63.623047" xlink:href="#DejaVuSans-32"/>
       <use x="95.410156" xlink:href="#DejaVuSans-107"/>
       <use x="153.320312" xlink:href="#DejaVuSans-72"/>
       <use x="228.515625" xlink:href="#DejaVuSans-122"/>
      </g>
     </g>
    </g>
    <g id="xtick_3">
     <g id="line2d_5">
      <path clip-path="url(#pc93a556b5d)" d="M 330.109167 143.44 
L 330.109167 25.44 
" style="fill:none;stroke:#b0b0b0;stroke-linecap:square;stroke-width:0.8;"/>
     </g>
     <g id="line2d_6">
      <g>
       <use style="stroke:#000000;stroke-width:0.8;" x="330.109167" xlink:href="#med6b46b1c9" y="143.44"/>
      </g>
     </g>
     <g id="text_3">
      <!-- 10 kHz -->
      <defs>
       <path d="M 12.40625 8.296875 
L 28.515625 8.296875 
L 28.515625 63.921875 
L 10.984375 60.40625 
L 10.984375 69.390625 
L 28.421875 72.90625 
L 38.28125 72.90625 
L 38.28125 8.296875 
L 54.390625 8.296875 
L 54.390625 0 
L 12.40625 0 
z
" id="DejaVuSans-49"/>
      </defs>
      <g transform="translate(312.877917 158.038438)scale(0.1 -0.1)">
       <use xlink:href="#DejaVuSans-49"/>
       <use x="63.623047" xlink:href="#DejaVuSans-48"/>
       <use x="127.246094" xlink:href="#DejaVuSans-32"/>
       <use x="159.033203" xlink:href="#DejaVuSans-107"/>
       <use x="216.943359" xlink:href="#DejaVuSans-72"/>
       <use x="292.138672" xlink:href="#DejaVuSans-122"/>
      </g>
     </g>
    </g>
    <g id="xtick_4">
     <g id="line2d_7">
      <path clip-path="url(#pc93a556b5d)" d="M 465.49875 143.44 
L 465.49875 25.44 
" style="fill:none;stroke:#b0b0b0;stroke-linecap:square;stroke-width:0.8;"/>
     </g>
     <g id="line2d_8">
      <g>
       <use style="stroke:#000000;stroke-width:0.8;" x="465.49875" xlink:href="#med6b46b1c9" y="143.44"/>
      </g>
     </g>
     <g id="text_4">
      <!-- 15 kHz -->
      <g transform="translate(448.2675 158.038438)scale(0.1 -0.1)">
       <use xlink:href="#DejaVuSans-49"/>
       <use x="63.623047" xlink:href="#DejaVuSans-53"/>
       <use x="127.246094" xlink:href="#DejaVuSans-32"/>
       <use x="159.033203" xlink:href="#DejaVuSans-107"/>
       <use x="216.943359" xlink:href="#DejaVuSans-72"/>
       <use x="292.138672" xlink:href="#DejaVuSans-122"/>
      </g>
     </g>
    </g>
    <g id="xtick_5">
     <g id="line2d_9">
      <path clip-path="url(#pc93a556b5d)" d="M 600.888333 143.44 
L 600.888333 25.44 
" style="fill:none;stroke:#b0b0b0;stroke-linecap:square;stroke-width:0.8;"/>
     </g>
     <g id="line2d_10">
      <g>
       <use style="stroke:#000000;stroke-width:0.8;" x="600.888333" xlink:href="#med6b46b1c9" y="143.44"/>
      </g>
     </g>
     <g id="text_5">
      <!-- 20 kHz -->
      <defs>
       <path d="M 19.1875 8.296875 
L 53.609375 8.296875 
L 53.609375 0 
L 7.328125 0 
L 7.328125 8.296875 
Q 12.9375 14.109375 22.625 23.890625 
Q 32.328125 33.6875 34.8125 36.53125 
Q 39.546875 41.84375 41.421875 45.53125 
Q 43.3125 49.21875 43.3125 52.78125 
Q 43.3125 58.59375 39.234375 62.25 
Q 35.15625 65.921875 28.609375 65.921875 
Q 23.96875 65.921875 18.8125 64.3125 
Q 13.671875 62.703125 7.8125 59.421875 
L 7.8125 69.390625 
Q 13.765625 71.78125 18.9375 73 
Q 24.125 74.21875 28.421875 74.21875 
Q 39.75 74.21875 46.484375 68.546875 
Q 53.21875 62.890625 53.21875 53.421875 
Q 53.21875 48.921875 51.53125 44.890625 
Q 49.859375 40.875 45.40625 35.40625 
Q 44.1875 33.984375 37.640625 27.21875 
Q 31.109375 20.453125 19.1875 8.296875 
z
" id="DejaVuSans-50"/>
      </defs>
      <g transform="translate(583.657083 158.038438)scale(0.1 -0.1)">
       <use xlink:href="#DejaVuSans-50"/>
       <use x="63.623047" xlink:href="#DejaVuSans-48"/>
       <use x="127.246094" xlink:href="#DejaVuSans-32"/>
       <use x="159.033203" xlink:href="#DejaVuSans-107"/>
       <use x="216.943359" xlink:href="#DejaVuSans-72"/>
       <use x="292.138672" xlink:href="#DejaVuSans-122"/>
      </g>
     </g>
    </g>
    <g id="text_6">
     <!-- Frequency -->
     <defs>
      <path d="M 9.8125 72.90625 
L 51.703125 72.90625 
L 51.703125 64.59375 
L 19.671875 64.59375 
L 19.671875 43.109375 
L 48.578125 43.109375 
L 48.578125 34.8125 
L 19.671875 34.8125 
L 19.671875 0 
L 9.8125 0 
z
" id="DejaVuSans-70"/>
      <path d="M 41.109375 46.296875 
Q 39.59375 47.171875 37.8125 47.578125 
Q 36.03125 48 33.890625 48 
Q 26.265625 48 22.1875 43.046875 
Q 18.109375 38.09375 18.109375 28.8125 
L 18.109375 0 
L 9.078125 0 
L 9.078125 54.6875 
L 18.109375 54.6875 
L 18.109375 46.1875 
Q 20.953125 51.171875 25.484375 53.578125 
Q 30.03125 56 36.53125 56 
Q 37.453125 56 38.578125 55.875 
Q 39.703125 55.765625 41.0625 55.515625 
z
" id="DejaVuSans-114"/>
      <path d="M 56.203125 29.59375 
L 56.203125 25.203125 
L 14.890625 25.203125 
Q 15.484375 15.921875 20.484375 11.0625 
Q 25.484375 6.203125 34.421875 6.203125 
Q 39.59375 6.203125 44.453125 7.46875 
Q 49.3125 8.734375 54.109375 11.28125 
L 54.109375 2.78125 
Q 49.265625 0.734375 44.1875 -0.34375 
Q 39.109375 -1.421875 33.890625 -1.421875 
Q 20.796875 -1.421875 13.15625 6.1875 
Q 5.515625 13.8125 5.515625 26.8125 
Q 5.515625 40.234375 12.765625 48.109375 
Q 20.015625 56 32.328125 56 
Q 43.359375 56 49.78125 48.890625 
Q 56.203125 41.796875 56.203125 29.59375 
z
M 47.21875 32.234375 
Q 47.125 39.59375 43.09375 43.984375 
Q 39.0625 48.390625 32.421875 48.390625 
Q 24.90625 48.390625 20.390625 44.140625 
Q 15.875 39.890625 15.1875 32.171875 
z
" id="DejaVuSans-101"/>
      <path d="M 14.796875 27.296875 
Q 14.796875 17.390625 18.875 11.75 
Q 22.953125 6.109375 30.078125 6.109375 
Q 37.203125 6.109375 41.296875 11.75 
Q 45.40625 17.390625 45.40625 27.296875 
Q 45.40625 37.203125 41.296875 42.84375 
Q 37.203125 48.484375 30.078125 48.484375 
Q 22.953125 48.484375 18.875 42.84375 
Q 14.796875 37.203125 14.796875 27.296875 
z
M 45.40625 8.203125 
Q 42.578125 3.328125 38.25 0.953125 
Q 33.9375 -1.421875 27.875 -1.421875 
Q 17.96875 -1.421875 11.734375 6.484375 
Q 5.515625 14.40625 5.515625 27.296875 
Q 5.515625 40.1875 11.734375 48.09375 
Q 17.96875 56 27.875 56 
Q 33.9375 56 38.25 53.625 
Q 42.578125 51.265625 45.40625 46.390625 
L 45.40625 54.6875 
L 54.390625 54.6875 
L 54.390625 -20.796875 
L 45.40625 -20.796875 
z
" id="DejaVuSans-113"/>
      <path d="M 8.5 21.578125 
L 8.5 54.6875 
L 17.484375 54.6875 
L 17.484375 21.921875 
Q 17.484375 14.15625 20.5 10.265625 
Q 23.53125 6.390625 29.59375 6.390625 
Q 36.859375 6.390625 41.078125 11.03125 
Q 45.3125 15.671875 45.3125 23.6875 
L 45.3125 54.6875 
L 54.296875 54.6875 
L 54.296875 0 
L 45.3125 0 
L 45.3125 8.40625 
Q 42.046875 3.421875 37.71875 1 
Q 33.40625 -1.421875 27.6875 -1.421875 
Q 18.265625 -1.421875 13.375 4.4375 
Q 8.5 10.296875 8.5 21.578125 
z
M 31.109375 56 
z
" id="DejaVuSans-117"/>
      <path d="M 54.890625 33.015625 
L 54.890625 0 
L 45.90625 0 
L 45.90625 32.71875 
Q 45.90625 40.484375 42.875 44.328125 
Q 39.84375 48.1875 33.796875 48.1875 
Q 26.515625 48.1875 22.3125 43.546875 
Q 18.109375 38.921875 18.109375 30.90625 
L 18.109375 0 
L 9.078125 0 
L 9.078125 54.6875 
L 18.109375 54.6875 
L 18.109375 46.1875 
Q 21.34375 51.125 25.703125 53.5625 
Q 30.078125 56 35.796875 56 
Q 45.21875 56 50.046875 50.171875 
Q 54.890625 44.34375 54.890625 33.015625 
z
" id="DejaVuSans-110"/>
      <path d="M 48.78125 52.59375 
L 48.78125 44.1875 
Q 44.96875 46.296875 41.140625 47.34375 
Q 37.3125 48.390625 33.40625 48.390625 
Q 24.65625 48.390625 19.8125 42.84375 
Q 14.984375 37.3125 14.984375 27.296875 
Q 14.984375 17.28125 19.8125 11.734375 
Q 24.65625 6.203125 33.40625 6.203125 
Q 37.3125 6.203125 41.140625 7.25 
Q 44.96875 8.296875 48.78125 10.40625 
L 48.78125 2.09375 
Q 45.015625 0.34375 40.984375 -0.53125 
Q 36.96875 -1.421875 32.421875 -1.421875 
Q 20.0625 -1.421875 12.78125 6.34375 
Q 5.515625 14.109375 5.515625 27.296875 
Q 5.515625 40.671875 12.859375 48.328125 
Q 20.21875 56 33.015625 56 
Q 37.15625 56 41.109375 55.140625 
Q 45.0625 54.296875 48.78125 52.59375 
z
" id="DejaVuSans-99"/>
      <path d="M 32.171875 -5.078125 
Q 28.375 -14.84375 24.75 -17.8125 
Q 21.140625 -20.796875 15.09375 -20.796875 
L 7.90625 -20.796875 
L 7.90625 -13.28125 
L 13.1875 -13.28125 
Q 16.890625 -13.28125 18.9375 -11.515625 
Q 21 -9.765625 23.484375 -3.21875 
L 25.09375 0.875 
L 2.984375 54.6875 
L 12.5 54.6875 
L 29.59375 11.921875 
L 46.6875 54.6875 
L 56.203125 54.6875 
z
" id="DejaVuSans-121"/>
     </defs>
     <g transform="translate(357.967344 171.716563)scale(0.1 -0.1)">
      <use xlink:href="#DejaVuSans-70"/>
      <use x="57.410156" xlink:href="#DejaVuSans-114"/>
      <use x="98.492188" xlink:href="#DejaVuSans-101"/>
      <use x="160.015625" xlink:href="#DejaVuSans-113"/>
      <use x="223.492188" xlink:href="#DejaVuSans-117"/>
      <use x="286.871094" xlink:href="#DejaVuSans-101"/>
      <use x="348.394531" xlink:href="#DejaVuSans-110"/>
      <use x="411.773438" xlink:href="#DejaVuSans-99"/>
      <use x="466.753906" xlink:href="#DejaVuSans-121"/>
     </g>
    </g>
   </g>
   <g id="matplotlib.axis_2">
    <g id="ytick_1">
     <g id="line2d_11">
      <path clip-path="url(#pc93a556b5d)" d="M 59.33 117.217778 
L 709.2 117.217778 
" style="fill:none;stroke:#b0b0b0;stroke-linecap:square;stroke-width:0.8;"/>
     </g>
     <g id="line2d_12">
      <defs>
       <path d="M 0 0 
L -3.5 0 
" id="m889d1c568c" style="stroke:#000000;stroke-width:0.8;"/>
      </defs>
      <g>
       <use style="stroke:#000000;stroke-width:0.8;" x="59.33" xlink:href="#m889d1c568c" y="117.217778"/>
      </g>
     </g>
     <g id="text_7">
      <!-- −100 -->
      <defs>
       <path d="M 10.59375 35.5 
L 73.1875 35.5 
L 73.1875 27.203125 
L 10.59375 27.203125 
z
" id="DejaVuSans-8722"/>
      </defs>
      <g transform="translate(24.862813 121.016997)scale(0.1 -0.1)">
       <use xlink:href="#DejaVuSans-8722"/>
       <use x="83.789062" xlink:href="#DejaVuSans-49"/>
       <use x="147.412109" xlink:href="#DejaVuSans-48"/>
       <use x="211.035156" xlink:href="#DejaVuSans-48"/>
      </g>
     </g>
    </g>
    <g id="ytick_2">
     <g id="line2d_13">
      <path clip-path="url(#pc93a556b5d)" d="M 59.33 73.514074 
L 709.2 73.514074 
" style="fill:none;stroke:#b0b0b0;stroke-linecap:square;stroke-width:0.8;"/>
     </g>
     <g id="line2d_14">
      <g>
       <use style="stroke:#000000;stroke-width:0.8;" x="59.33" xlink:href="#m889d1c568c" y="73.514074"/>
      </g>
     </g>
     <g id="text_8">
      <!-- −50 -->
      <g transform="translate(31.225313 77.313293)scale(0.1 -0.1)">
       <use xlink:href="#DejaVuSans-8722"/>
       <use x="83.789062" xlink:href="#DejaVuSans-53"/>
       <use x="147.412109" xlink:href="#DejaVuSans-48"/>
      </g>
     </g>
    </g>
    <g id="ytick_3">
     <g id="line2d_15">
      <path clip-path="url(#pc93a556b5d)" d="M 59.33 29.81037 
L 709.2 29.81037 
" style="fill:none;stroke:#b0b0b0;stroke-linecap:square;stroke-width:0.8;"/>
     </g>
     <g id="line2d_16">
      <g>
       <use style="stroke:#000000;stroke-width:0.8;" x="59.33" xlink:href="#m889d1c568c" y="29.81037"/>
      </g>
     </g>
     <g id="text_9">
      <!-- 0 -->
      <g transform="translate(45.9675 33.609589)scale(0.1 -0.1)">
       <use xlink:href="#DejaVuSans-48"/>
      </g>
     </g>
    </g>
    <g id="text_10">
     <!-- Attenuation (dB) -->
     <defs>
      <path d="M 34.1875 63.1875 
L 20.796875 26.90625 
L 47.609375 26.90625 
z
M 28.609375 72.90625 
L 39.796875 72.90625 
L 67.578125 0 
L 57.328125 0 
L 50.6875 18.703125 
L 17.828125 18.703125 
L 11.1875 0 
L 0.78125 0 
z
" id="DejaVuSans-65"/>
      <path d="M 18.3125 70.21875 
L 18.3125 54.6875 
L 36.8125 54.6875 
L 36.8125 47.703125 
L 18.3125 47.703125 
L 18.3125 18.015625 
Q 18.3125 11.328125 20.140625 9.421875 
Q 21.96875 7.515625 27.59375 7.515625 
L 36.8125 7.515625 
L 36.8125 0 
L 27.59375 0 
Q 17.1875 0 13.234375 3.875 
Q 9.28125 7.765625 9.28125 18.015625 
L 9.28125 47.703125 
L 2.6875 47.703125 
L 2.6875 54.6875 
L 9.28125 54.6875 
L 9.28125 70.21875 
z
" id="DejaVuSans-116"/>
      <path d="M 34.28125 27.484375 
Q 23.390625 27.484375 19.1875 25 
Q 14.984375 22.515625 14.984375 16.5 
Q 14.984375 11.71875 18.140625 8.90625 
Q 21.296875 6.109375 26.703125 6.109375 
Q 34.1875 6.109375 38.703125 11.40625 
Q 43.21875 16.703125 43.21875 25.484375 
L 43.21875 27.484375 
z
M 52.203125 31.203125 
L 52.203125 0 
L 43.21875 0 
L 43.21875 8.296875 
Q 40.140625 3.328125 35.546875 0.953125 
Q 30.953125 -1.421875 24.3125 -1.421875 
Q 15.921875 -1.421875 10.953125 3.296875 
Q 6 8.015625 6 15.921875 
Q 6 25.140625 12.171875 29.828125 
Q 18.359375 34.515625 30.609375 34.515625 
L 43.21875 34.515625 
L 43.21875 35.40625 
Q 43.21875 41.609375 39.140625 45 
Q 35.0625 48.390625 27.6875 48.390625 
Q 23 48.390625 18.546875 47.265625 
Q 14.109375 46.140625 10.015625 43.890625 
L 10.015625 52.203125 
Q 14.9375 54.109375 19.578125 55.046875 
Q 24.21875 56 28.609375 56 
Q 40.484375 56 46.34375 49.84375 
Q 52.203125 43.703125 52.203125 31.203125 
z
" id="DejaVuSans-97"/>
      <path d="M 9.421875 54.6875 
L 18.40625 54.6875 
L 18.40625 0 
L 9.421875 0 
z
M 9.421875 75.984375 
L 18.40625 75.984375 
L 18.40625 64.59375 
L 9.421875 64.59375 
z
" id="DejaVuSans-105"/>
      <path d="M 30.609375 48.390625 
Q 23.390625 48.390625 19.1875 42.75 
Q 14.984375 37.109375 14.984375 27.296875 
Q 14.984375 17.484375 19.15625 11.84375 
Q 23.34375 6.203125 30.609375 6.203125 
Q 37.796875 6.203125 41.984375 11.859375 
Q 46.1875 17.53125 46.1875 27.296875 
Q 46.1875 37.015625 41.984375 42.703125 
Q 37.796875 48.390625 30.609375 48.390625 
z
M 30.609375 56 
Q 42.328125 56 49.015625 48.375 
Q 55.71875 40.765625 55.71875 27.296875 
Q 55.71875 13.875 49.015625 6.21875 
Q 42.328125 -1.421875 30.609375 -1.421875 
Q 18.84375 -1.421875 12.171875 6.21875 
Q 5.515625 13.875 5.515625 27.296875 
Q 5.515625 40.765625 12.171875 48.375 
Q 18.84375 56 30.609375 56 
z
" id="DejaVuSans-111"/>
      <path d="M 31 75.875 
Q 24.46875 64.65625 21.28125 53.65625 
Q 18.109375 42.671875 18.109375 31.390625 
Q 18.109375 20.125 21.3125 9.0625 
Q 24.515625 -2 31 -13.1875 
L 23.1875 -13.1875 
Q 15.875 -1.703125 12.234375 9.375 
Q 8.59375 20.453125 8.59375 31.390625 
Q 8.59375 42.28125 12.203125 53.3125 
Q 15.828125 64.359375 23.1875 75.875 
z
" id="DejaVuSans-40"/>
      <path d="M 45.40625 46.390625 
L 45.40625 75.984375 
L 54.390625 75.984375 
L 54.390625 0 
L 45.40625 0 
L 45.40625 8.203125 
Q 42.578125 3.328125 38.25 0.953125 
Q 33.9375 -1.421875 27.875 -1.421875 
Q 17.96875 -1.421875 11.734375 6.484375 
Q 5.515625 14.40625 5.515625 27.296875 
Q 5.515625 40.1875 11.734375 48.09375 
Q 17.96875 56 27.875 56 
Q 33.9375 56 38.25 53.625 
Q 42.578125 51.265625 45.40625 46.390625 
z
M 14.796875 27.296875 
Q 14.796875 17.390625 18.875 11.75 
Q 22.953125 6.109375 30.078125 6.109375 
Q 37.203125 6.109375 41.296875 11.75 
Q 45.40625 17.390625 45.40625 27.296875 
Q 45.40625 37.203125 41.296875 42.84375 
Q 37.203125 48.484375 30.078125 48.484375 
Q 22.953125 48.484375 18.875 42.84375 
Q 14.796875 37.203125 14.796875 27.296875 
z
" id="DejaVuSans-100"/>
      <path d="M 19.671875 34.8125 
L 19.671875 8.109375 
L 35.5 8.109375 
Q 43.453125 8.109375 47.28125 11.40625 
Q 51.125 14.703125 51.125 21.484375 
Q 51.125 28.328125 47.28125 31.5625 
Q 43.453125 34.8125 35.5 34.8125 
z
M 19.671875 64.796875 
L 19.671875 42.828125 
L 34.28125 42.828125 
Q 41.5 42.828125 45.03125 45.53125 
Q 48.578125 48.25 48.578125 53.8125 
Q 48.578125 59.328125 45.03125 62.0625 
Q 41.5 64.796875 34.28125 64.796875 
z
M 9.8125 72.90625 
L 35.015625 72.90625 
Q 46.296875 72.90625 52.390625 68.21875 
Q 58.5 63.53125 58.5 54.890625 
Q 58.5 48.1875 55.375 44.234375 
Q 52.25 40.28125 46.1875 39.3125 
Q 53.46875 37.75 57.5 32.78125 
Q 61.53125 27.828125 61.53125 20.40625 
Q 61.53125 10.640625 54.890625 5.3125 
Q 48.25 0 35.984375 0 
L 9.8125 0 
z
" id="DejaVuSans-66"/>
      <path d="M 8.015625 75.875 
L 15.828125 75.875 
Q 23.140625 64.359375 26.78125 53.3125 
Q 30.421875 42.28125 30.421875 31.390625 
Q 30.421875 20.453125 26.78125 9.375 
Q 23.140625 -1.703125 15.828125 -13.1875 
L 8.015625 -13.1875 
Q 14.5 -2 17.703125 9.0625 
Q 20.90625 20.125 20.90625 31.390625 
Q 20.90625 42.671875 17.703125 53.65625 
Q 14.5 64.65625 8.015625 75.875 
z
" id="DejaVuSans-41"/>
     </defs>
     <g transform="translate(18.783125 125.930625)rotate(-90)scale(0.1 -0.1)">
      <use xlink:href="#DejaVuSans-65"/>
      <use x="68.392578" xlink:href="#DejaVuSans-116"/>
      <use x="107.601562" xlink:href="#DejaVuSans-116"/>
      <use x="146.810547" xlink:href="#DejaVuSans-101"/>
      <use x="208.333984" xlink:href="#DejaVuSans-110"/>
      <use x="271.712891" xlink:href="#DejaVuSans-117"/>
      <use x="335.091797" xlink:href="#DejaVuSans-97"/>
      <use x="396.371094" xlink:href="#DejaVuSans-116"/>
      <use x="435.580078" xlink:href="#DejaVuSans-105"/>
      <use x="463.363281" xlink:href="#DejaVuSans-111"/>
      <use x="524.544922" xlink:href="#DejaVuSans-110"/>
      <use x="587.923828" xlink:href="#DejaVuSans-32"/>
      <use x="619.710938" xlink:href="#DejaVuSans-40"/>
      <use x="658.724609" xlink:href="#DejaVuSans-100"/>
      <use x="722.201172" xlink:href="#DejaVuSans-66"/>
      <use x="790.804688" xlink:href="#DejaVuSans-41"/>
     </g>
    </g>
   </g>
   <g id="line2d_17">
    <path clip-path="url(#pc93a556b5d)" d="M 59.33 29.792688 
L 223.93836 29.909346 
L 231.550307 30.152134 
L 238.210761 30.587873 
L 243.919722 31.180466 
L 249.152936 31.936117 
L 254.386149 32.923059 
L 259.143616 34.042748 
L 263.901083 35.394179 
L 268.182804 36.825056 
L 272.464524 38.475464 
L 276.746245 40.362923 
L 281.027965 42.507658 
L 284.833939 44.649404 
L 288.639912 47.033732 
L 292.445886 49.685545 
L 296.251859 52.635986 
L 299.582086 55.493725 
L 302.912313 58.645157 
L 306.24254 62.135756 
L 309.09702 65.443876 
L 311.951501 69.099698 
L 314.330234 72.465296 
L 316.708968 76.186427 
L 319.087701 80.35481 
L 320.990688 84.10651 
L 322.893675 88.357564 
L 324.320915 91.996134 
L 325.748155 96.194583 
L 327.175395 101.277971 
L 328.126889 105.525769 
L 329.078382 111.199422 
L 329.554129 115.218779 
L 330.029876 121.454966 
L 330.505622 182.463769 
L 330.981369 123.500738 
L 331.457116 119.325565 
L 331.932862 117.379229 
L 332.408609 116.377652 
L 332.884356 115.922871 
L 333.360102 115.842341 
L 333.835849 116.049262 
L 334.311596 116.497935 
L 334.787343 117.166354 
L 335.738836 119.155167 
L 336.690329 122.161634 
L 337.166076 124.196926 
L 337.641823 126.780926 
L 338.11757 130.276455 
L 338.593316 135.767842 
L 339.069063 153.149264 
L 339.54481 139.37216 
L 340.020556 134.624611 
L 340.496303 132.603769 
L 340.97205 131.799369 
L 341.447796 131.848814 
L 341.923543 132.731881 
L 342.39929 134.742376 
L 342.875037 139.077556 
L 343.350783 169.606763 
L 343.82653 137.998761 
L 344.302277 132.161059 
L 344.778023 128.631961 
L 345.729517 124.082842 
L 346.68101 121.093912 
L 347.632504 118.943554 
L 348.583997 117.34327 
L 349.53549 116.147078 
L 350.486984 115.271477 
L 351.438477 114.665725 
L 352.389971 114.298819 
L 353.341464 114.153354 
L 354.292958 114.222808 
L 355.244451 114.511065 
L 356.195944 115.034039 
L 357.147438 115.824293 
L 358.098931 116.941417 
L 359.050425 118.496103 
L 360.001918 120.714393 
L 360.477665 122.219696 
L 360.953411 124.160716 
L 361.429158 126.841858 
L 361.904905 131.104707 
L 362.380652 141.913902 
L 363.807892 125.744817 
L 364.283638 123.388941 
L 365.235132 120.237423 
L 366.186625 118.146538 
L 367.138119 116.644486 
L 368.089612 115.529146 
L 369.041105 114.695268 
L 369.992599 114.081281 
L 371.419839 113.491382 
L 372.847079 113.230919 
L 374.274319 113.25415 
L 375.701559 113.5356 
L 377.128799 114.063216 
L 378.55604 114.835251 
L 379.98328 115.859204 
L 381.41052 117.152246 
L 382.83776 118.743101 
L 384.265 120.675787 
L 385.69224 123.016117 
L 387.11948 125.862404 
L 388.54672 129.360917 
L 389.97396 133.713198 
L 391.401201 139.051205 
L 392.828441 144.352893 
L 393.304187 145.357826 
L 393.779934 145.590564 
L 394.255681 145.032024 
L 394.731428 143.883012 
L 397.585908 135.271463 
L 398.537401 133.15815 
L 399.488895 131.448441 
L 400.440388 130.083778 
L 401.391881 129.017778 
L 402.343375 128.217527 
L 403.294868 127.662139 
L 404.246362 127.341622 
L 405.197855 127.256886 
L 406.149348 127.42151 
L 407.100842 127.866434 
L 408.052335 128.650504 
L 409.003829 129.885129 
L 409.955322 131.800576 
L 410.431069 133.16504 
L 410.906816 134.978809 
L 411.382562 137.562128 
L 411.858309 141.821979 
L 412.334056 153.706421 
L 413.285549 138.889302 
L 413.761296 135.328681 
L 414.712789 130.982054 
L 415.664283 128.183152 
L 416.615776 126.143568 
L 417.567269 124.571569 
L 418.518763 123.326702 
L 419.946003 121.910576 
L 421.373243 120.912472 
L 422.800483 120.254323 
L 424.227723 119.894036 
L 425.654963 119.811372 
L 427.082204 120.002211 
L 428.509444 120.477258 
L 429.936684 121.264385 
L 431.363924 122.415871 
L 432.315417 123.429571 
L 433.266911 124.690502 
L 434.218404 126.270769 
L 435.169898 128.295074 
L 436.121391 131.008735 
L 436.597138 132.781755 
L 437.072884 135.015945 
L 437.548631 138.041106 
L 438.024378 142.798099 
L 438.500124 155.788166 
L 438.975871 146.93488 
L 439.451618 140.953202 
L 439.927365 137.931636 
L 440.403111 136.014796 
L 440.878858 134.701953 
L 441.354605 133.787611 
L 441.830351 133.171317 
L 442.306098 132.801151 
L 442.781845 132.652769 
L 443.257592 132.721404 
L 443.733338 133.020452 
L 444.209085 133.585645 
L 444.684832 134.487856 
L 445.160578 135.866084 
L 445.636325 138.024074 
L 446.112072 141.820925 
L 446.587818 152.533234 
L 447.539312 138.304721 
L 448.015059 134.381104 
L 448.966552 129.414872 
L 449.918045 126.050024 
L 450.869539 123.470117 
L 452.296779 120.452557 
L 453.724019 118.085948 
L 455.151259 116.16199 
L 456.578499 114.567834 
L 458.481486 112.84041 
L 460.384473 111.478193 
L 462.28746 110.418153 
L 464.190447 109.618914 
L 466.093433 109.052341 
L 467.99642 108.698969 
L 469.899407 108.545311 
L 471.802394 108.582136 
L 473.705381 108.803227 
L 476.084114 109.332316 
L 478.462848 110.135783 
L 480.841581 111.2036 
L 483.220315 112.514132 
L 486.550542 114.655894 
L 490.356515 117.141313 
L 492.259502 118.133385 
L 493.686742 118.658674 
L 495.113982 118.954567 
L 496.541223 119.016078 
L 497.968463 118.871805 
L 499.871449 118.453612 
L 505.58041 117.003165 
L 507.483397 116.816178 
L 508.910637 116.853269 
L 510.337877 117.075813 
L 511.765117 117.521139 
L 513.192357 118.241906 
L 514.143851 118.914592 
L 515.095344 119.783994 
L 516.046837 120.909892 
L 516.998331 122.393194 
L 517.949824 124.42541 
L 518.425571 125.764459 
L 518.901318 127.445709 
L 519.377064 129.673147 
L 519.852811 132.924924 
L 520.328558 138.888604 
L 520.804305 150.471491 
L 521.280051 136.135139 
L 521.755798 131.434133 
L 522.231545 128.544047 
L 523.183038 124.826122 
L 524.134531 122.37345 
L 525.086025 120.572416 
L 526.037518 119.179126 
L 526.989012 118.071869 
L 528.416252 116.803385 
L 529.843492 115.894116 
L 531.270732 115.271587 
L 532.697972 114.894612 
L 534.125212 114.74034 
L 535.552452 114.798407 
L 536.979693 115.068544 
L 538.406933 115.560402 
L 539.834173 116.295486 
L 541.261413 117.312143 
L 542.688653 118.676479 
L 543.640146 119.834321 
L 544.59164 121.256825 
L 545.543133 123.044463 
L 546.494627 125.387333 
L 547.44612 128.718595 
L 547.921867 131.094158 
L 548.397613 134.471356 
L 548.87336 140.445344 
L 549.349107 154.408615 
L 549.824854 138.627065 
L 550.3006 134.010674 
L 550.776347 131.282787 
L 551.252094 129.383693 
L 552.203587 126.843522 
L 553.155081 125.230481 
L 554.106574 124.175626 
L 555.058067 123.521004 
L 556.009561 123.192998 
L 556.961054 123.162834 
L 557.912548 123.434257 
L 558.864041 124.045158 
L 559.815534 125.084716 
L 560.767028 126.745705 
L 561.242775 127.934239 
L 561.718521 129.502397 
L 562.194268 131.685963 
L 562.670015 135.070288 
L 563.145761 142.035441 
L 563.621508 145.64139 
L 564.097255 135.682916 
L 564.573001 131.341657 
L 565.048748 128.490479 
L 566.000242 124.624343 
L 566.951735 121.933723 
L 567.903228 119.865207 
L 569.330469 117.462798 
L 570.757709 115.607545 
L 572.184949 114.132059 
L 573.612189 112.945999 
L 575.039429 111.99591 
L 576.942416 111.040742 
L 578.845403 110.401476 
L 580.748389 110.056934 
L 582.651376 110.004654 
L 584.078616 110.165891 
L 585.505857 110.514467 
L 586.933097 111.074646 
L 588.360337 111.885606 
L 589.787577 113.0121 
L 590.73907 113.9914 
L 591.690564 115.2162 
L 592.642057 116.781349 
L 593.593551 118.864434 
L 594.545044 121.862461 
L 595.020791 124.006581 
L 595.496537 127.028521 
L 595.972284 132.141835 
L 596.448031 151.9536 
L 596.923777 132.735453 
L 597.399524 127.366591 
L 597.875271 124.277229 
L 598.826764 120.457259 
L 599.778258 118.017347 
L 600.729751 116.267255 
L 601.681245 114.942193 
L 602.632738 113.912703 
L 604.059978 112.772187 
L 605.487218 112.001606 
L 606.914458 111.528883 
L 608.341698 111.315759 
L 609.768939 111.344711 
L 611.196179 111.61388 
L 612.623419 112.136528 
L 614.050659 112.944695 
L 615.477899 114.099448 
L 616.429392 115.114994 
L 617.380886 116.39231 
L 618.332379 118.032183 
L 619.283873 120.227761 
L 620.235366 123.425199 
L 620.711113 125.753909 
L 621.186859 129.129986 
L 621.662606 135.27513 
L 622.138353 143.332186 
L 622.6141 132.0448 
L 623.089846 127.595613 
L 623.565593 124.838139 
L 624.517086 121.310967 
L 625.46858 119.018387 
L 626.420073 117.364557 
L 627.371567 116.109904 
L 628.32306 115.133889 
L 629.7503 114.048376 
L 631.17754 113.303549 
L 632.60478 112.823321 
L 634.03202 112.561285 
L 635.459261 112.487391 
L 637.362247 112.647463 
L 639.265234 113.074917 
L 641.168221 113.74965 
L 643.071208 114.658444 
L 644.974195 115.791763 
L 647.352928 117.511048 
L 649.731662 119.546321 
L 652.110395 121.860985 
L 655.440622 125.433039 
L 659.246596 129.488074 
L 660.673836 130.76473 
L 662.101076 131.748831 
L 663.05257 132.185413 
L 664.004063 132.415204 
L 664.955556 132.426653 
L 665.90705 132.226177 
L 666.858543 131.837403 
L 668.285783 130.981011 
L 670.664517 129.156896 
L 674.47049 126.214308 
L 676.849224 124.718097 
L 678.752211 123.779235 
L 680.655198 123.081839 
L 682.558184 122.627538 
L 684.461171 122.414745 
L 686.364158 122.441313 
L 688.267145 122.705866 
L 690.170132 123.208489 
L 692.073119 123.951183 
L 693.976105 124.938444 
L 695.879092 126.178495 
L 697.782079 127.686271 
L 699.685066 129.490859 
L 701.588053 131.654406 
L 703.015293 133.594551 
L 704.442533 135.951897 
L 705.394026 137.898778 
L 706.34552 140.373149 
L 707.297013 143.883661 
L 707.77276 146.457816 
L 708.248507 150.333036 
L 708.724253 158.573963 
L 708.724253 158.573963 
" style="fill:none;stroke:#1f77b4;stroke-linecap:square;stroke-width:1.5;"/>
   </g>
   <g id="patch_3">
    <path d="M 59.33 143.44 
L 59.33 25.44 
" style="fill:none;stroke:#000000;stroke-linecap:square;stroke-linejoin:miter;stroke-width:0.8;"/>
   </g>
   <g id="patch_4">
    <path d="M 709.2 143.44 
L 709.2 25.44 
" style="fill:none;stroke:#000000;stroke-linecap:square;stroke-linejoin:miter;stroke-width:0.8;"/>
   </g>
   <g id="patch_5">
    <path d="M 59.33 143.44 
L 709.2 143.44 
" style="fill:none;stroke:#000000;stroke-linecap:square;stroke-linejoin:miter;stroke-width:0.8;"/>
   </g>
   <g id="patch_6">
    <path d="M 59.33 25.44 
L 709.2 25.44 
" style="fill:none;stroke:#000000;stroke-linecap:square;stroke-linejoin:miter;stroke-width:0.8;"/>
   </g>
   <g id="text_11">
    <!-- After Decimation - Full Range -->
    <defs>
     <path d="M 37.109375 75.984375 
L 37.109375 68.5 
L 28.515625 68.5 
Q 23.6875 68.5 21.796875 66.546875 
Q 19.921875 64.59375 19.921875 59.515625 
L 19.921875 54.6875 
L 34.71875 54.6875 
L 34.71875 47.703125 
L 19.921875 47.703125 
L 19.921875 0 
L 10.890625 0 
L 10.890625 47.703125 
L 2.296875 47.703125 
L 2.296875 54.6875 
L 10.890625 54.6875 
L 10.890625 58.5 
Q 10.890625 67.625 15.140625 71.796875 
Q 19.390625 75.984375 28.609375 75.984375 
z
" id="DejaVuSans-102"/>
     <path d="M 19.671875 64.796875 
L 19.671875 8.109375 
L 31.59375 8.109375 
Q 46.6875 8.109375 53.6875 14.9375 
Q 60.6875 21.78125 60.6875 36.53125 
Q 60.6875 51.171875 53.6875 57.984375 
Q 46.6875 64.796875 31.59375 64.796875 
z
M 9.8125 72.90625 
L 30.078125 72.90625 
Q 51.265625 72.90625 61.171875 64.09375 
Q 71.09375 55.28125 71.09375 36.53125 
Q 71.09375 17.671875 61.125 8.828125 
Q 51.171875 0 30.078125 0 
L 9.8125 0 
z
" id="DejaVuSans-68"/>
     <path d="M 52 44.1875 
Q 55.375 50.25 60.0625 53.125 
Q 64.75 56 71.09375 56 
Q 79.640625 56 84.28125 50.015625 
Q 88.921875 44.046875 88.921875 33.015625 
L 88.921875 0 
L 79.890625 0 
L 79.890625 32.71875 
Q 79.890625 40.578125 77.09375 44.375 
Q 74.3125 48.1875 68.609375 48.1875 
Q 61.625 48.1875 57.5625 43.546875 
Q 53.515625 38.921875 53.515625 30.90625 
L 53.515625 0 
L 44.484375 0 
L 44.484375 32.71875 
Q 44.484375 40.625 41.703125 44.40625 
Q 38.921875 48.1875 33.109375 48.1875 
Q 26.21875 48.1875 22.15625 43.53125 
Q 18.109375 38.875 18.109375 30.90625 
L 18.109375 0 
L 9.078125 0 
L 9.078125 54.6875 
L 18.109375 54.6875 
L 18.109375 46.1875 
Q 21.1875 51.21875 25.484375 53.609375 
Q 29.78125 56 35.6875 56 
Q 41.65625 56 45.828125 52.96875 
Q 50 49.953125 52 44.1875 
z
" id="DejaVuSans-109"/>
     <path d="M 4.890625 31.390625 
L 31.203125 31.390625 
L 31.203125 23.390625 
L 4.890625 23.390625 
z
" id="DejaVuSans-45"/>
     <path d="M 9.421875 75.984375 
L 18.40625 75.984375 
L 18.40625 0 
L 9.421875 0 
z
" id="DejaVuSans-108"/>
     <path d="M 44.390625 34.1875 
Q 47.5625 33.109375 50.5625 29.59375 
Q 53.5625 26.078125 56.59375 19.921875 
L 66.609375 0 
L 56 0 
L 46.6875 18.703125 
Q 43.0625 26.03125 39.671875 28.421875 
Q 36.28125 30.8125 30.421875 30.8125 
L 19.671875 30.8125 
L 19.671875 0 
L 9.8125 0 
L 9.8125 72.90625 
L 32.078125 72.90625 
Q 44.578125 72.90625 50.734375 67.671875 
Q 56.890625 62.453125 56.890625 51.90625 
Q 56.890625 45.015625 53.6875 40.46875 
Q 50.484375 35.9375 44.390625 34.1875 
z
M 19.671875 64.796875 
L 19.671875 38.921875 
L 32.078125 38.921875 
Q 39.203125 38.921875 42.84375 42.21875 
Q 46.484375 45.515625 46.484375 51.90625 
Q 46.484375 58.296875 42.84375 61.546875 
Q 39.203125 64.796875 32.078125 64.796875 
z
" id="DejaVuSans-82"/>
     <path d="M 45.40625 27.984375 
Q 45.40625 37.75 41.375 43.109375 
Q 37.359375 48.484375 30.078125 48.484375 
Q 22.859375 48.484375 18.828125 43.109375 
Q 14.796875 37.75 14.796875 27.984375 
Q 14.796875 18.265625 18.828125 12.890625 
Q 22.859375 7.515625 30.078125 7.515625 
Q 37.359375 7.515625 41.375 12.890625 
Q 45.40625 18.265625 45.40625 27.984375 
z
M 54.390625 6.78125 
Q 54.390625 -7.171875 48.1875 -13.984375 
Q 42 -20.796875 29.203125 -20.796875 
Q 24.46875 -20.796875 20.265625 -20.09375 
Q 16.0625 -19.390625 12.109375 -17.921875 
L 12.109375 -9.1875 
Q 16.0625 -11.328125 19.921875 -12.34375 
Q 23.78125 -13.375 27.78125 -13.375 
Q 36.625 -13.375 41.015625 -8.765625 
Q 45.40625 -4.15625 45.40625 5.171875 
L 45.40625 9.625 
Q 42.625 4.78125 38.28125 2.390625 
Q 33.9375 0 27.875 0 
Q 17.828125 0 11.671875 7.65625 
Q 5.515625 15.328125 5.515625 27.984375 
Q 5.515625 40.671875 11.671875 48.328125 
Q 17.828125 56 27.875 56 
Q 33.9375 56 38.28125 53.609375 
Q 42.625 51.21875 45.40625 46.390625 
L 45.40625 54.6875 
L 54.390625 54.6875 
z
" id="DejaVuSans-103"/>
    </defs>
    <g transform="translate(295.7275 19.44)scale(0.12 -0.12)">
     <use xlink:href="#DejaVuSans-65"/>
     <use x="68.361328" xlink:href="#DejaVuSans-102"/>
     <use x="103.550781" xlink:href="#DejaVuSans-116"/>
     <use x="142.759766" xlink:href="#DejaVuSans-101"/>
     <use x="204.283203" xlink:href="#DejaVuSans-114"/>
     <use x="245.396484" xlink:href="#DejaVuSans-32"/>
     <use x="277.183594" xlink:href="#DejaVuSans-68"/>
     <use x="354.185547" xlink:href="#DejaVuSans-101"/>
     <use x="415.708984" xlink:href="#DejaVuSans-99"/>
     <use x="470.689453" xlink:href="#DejaVuSans-105"/>
     <use x="498.472656" xlink:href="#DejaVuSans-109"/>
     <use x="595.884766" xlink:href="#DejaVuSans-97"/>
     <use x="657.164062" xlink:href="#DejaVuSans-116"/>
     <use x="696.373047" xlink:href="#DejaVuSans-105"/>
     <use x="724.15625" xlink:href="#DejaVuSans-111"/>
     <use x="785.337891" xlink:href="#DejaVuSans-110"/>
     <use x="848.716797" xlink:href="#DejaVuSans-32"/>
     <use x="880.503906" xlink:href="#DejaVuSans-45"/>
     <use x="916.587891" xlink:href="#DejaVuSans-32"/>
     <use x="948.375" xlink:href="#DejaVuSans-70"/>
     <use x="1005.816406" xlink:href="#DejaVuSans-117"/>
     <use x="1069.195312" xlink:href="#DejaVuSans-108"/>
     <use x="1096.978516" xlink:href="#DejaVuSans-108"/>
     <use x="1124.761719" xlink:href="#DejaVuSans-32"/>
     <use x="1156.548828" xlink:href="#DejaVuSans-82"/>
     <use x="1226" xlink:href="#DejaVuSans-97"/>
     <use x="1287.279297" xlink:href="#DejaVuSans-110"/>
     <use x="1350.658203" xlink:href="#DejaVuSans-103"/>
     <use x="1414.134766" xlink:href="#DejaVuSans-101"/>
    </g>
   </g>
  </g>
  <g id="axes_2">
   <g id="patch_7">
    <path d="M 59.33 318.04 
L 709.2 318.04 
L 709.2 200.04 
L 59.33 200.04 
z
" style="fill:#ffffff;"/>
   </g>
   <g id="matplotlib.axis_3">
    <g id="xtick_6">
     <g id="line2d_18">
      <path clip-path="url(#p74546a5b41)" d="M 59.33 318.04 
L 59.33 200.04 
" style="fill:none;stroke:#b0b0b0;stroke-linecap:square;stroke-width:0.8;"/>
     </g>
     <g id="line2d_19">
      <g>
       <use style="stroke:#000000;stroke-width:0.8;" x="59.33" xlink:href="#med6b46b1c9" y="318.04"/>
      </g>
     </g>
     <g id="text_12">
      <!-- 0 Hz -->
      <g transform="translate(48.175313 332.638438)scale(0.1 -0.1)">
       <use xlink:href="#DejaVuSans-48"/>
       <use x="63.623047" xlink:href="#DejaVuSans-32"/>
       <use x="95.410156" xlink:href="#DejaVuSans-72"/>
       <use x="170.605469" xlink:href="#DejaVuSans-122"/>
      </g>
     </g>
    </g>
    <g id="xtick_7">
     <g id="line2d_20">
      <path clip-path="url(#p74546a5b41)" d="M 149.589722 318.04 
L 149.589722 200.04 
" style="fill:none;stroke:#b0b0b0;stroke-linecap:square;stroke-width:0.8;"/>
     </g>
     <g id="line2d_21">
      <g>
       <use style="stroke:#000000;stroke-width:0.8;" x="149.589722" xlink:href="#med6b46b1c9" y="318.04"/>
      </g>
     </g>
     <g id="text_13">
      <!-- 1 kHz -->
      <g transform="translate(135.539722 332.638438)scale(0.1 -0.1)">
       <use xlink:href="#DejaVuSans-49"/>
       <use x="63.623047" xlink:href="#DejaVuSans-32"/>
       <use x="95.410156" xlink:href="#DejaVuSans-107"/>
       <use x="153.320312" xlink:href="#DejaVuSans-72"/>
       <use x="228.515625" xlink:href="#DejaVuSans-122"/>
      </g>
     </g>
    </g>
    <g id="xtick_8">
     <g id="line2d_22">
      <path clip-path="url(#p74546a5b41)" d="M 239.849444 318.04 
L 239.849444 200.04 
" style="fill:none;stroke:#b0b0b0;stroke-linecap:square;stroke-width:0.8;"/>
     </g>
     <g id="line2d_23">
      <g>
       <use style="stroke:#000000;stroke-width:0.8;" x="239.849444" xlink:href="#med6b46b1c9" y="318.04"/>
      </g>
     </g>
     <g id="text_14">
      <!-- 2 kHz -->
      <g transform="translate(225.799444 332.638438)scale(0.1 -0.1)">
       <use xlink:href="#DejaVuSans-50"/>
       <use x="63.623047" xlink:href="#DejaVuSans-32"/>
       <use x="95.410156" xlink:href="#DejaVuSans-107"/>
       <use x="153.320312" xlink:href="#DejaVuSans-72"/>
       <use x="228.515625" xlink:href="#DejaVuSans-122"/>
      </g>
     </g>
    </g>
    <g id="xtick_9">
     <g id="line2d_24">
      <path clip-path="url(#p74546a5b41)" d="M 330.109167 318.04 
L 330.109167 200.04 
" style="fill:none;stroke:#b0b0b0;stroke-linecap:square;stroke-width:0.8;"/>
     </g>
     <g id="line2d_25">
      <g>
       <use style="stroke:#000000;stroke-width:0.8;" x="330.109167" xlink:href="#med6b46b1c9" y="318.04"/>
      </g>
     </g>
     <g id="text_15">
      <!-- 3 kHz -->
      <defs>
       <path d="M 40.578125 39.3125 
Q 47.65625 37.796875 51.625 33 
Q 55.609375 28.21875 55.609375 21.1875 
Q 55.609375 10.40625 48.1875 4.484375 
Q 40.765625 -1.421875 27.09375 -1.421875 
Q 22.515625 -1.421875 17.65625 -0.515625 
Q 12.796875 0.390625 7.625 2.203125 
L 7.625 11.71875 
Q 11.71875 9.328125 16.59375 8.109375 
Q 21.484375 6.890625 26.8125 6.890625 
Q 36.078125 6.890625 40.9375 10.546875 
Q 45.796875 14.203125 45.796875 21.1875 
Q 45.796875 27.640625 41.28125 31.265625 
Q 36.765625 34.90625 28.71875 34.90625 
L 20.21875 34.90625 
L 20.21875 43.015625 
L 29.109375 43.015625 
Q 36.375 43.015625 40.234375 45.921875 
Q 44.09375 48.828125 44.09375 54.296875 
Q 44.09375 59.90625 40.109375 62.90625 
Q 36.140625 65.921875 28.71875 65.921875 
Q 24.65625 65.921875 20.015625 65.03125 
Q 15.375 64.15625 9.8125 62.3125 
L 9.8125 71.09375 
Q 15.4375 72.65625 20.34375 73.4375 
Q 25.25 74.21875 29.59375 74.21875 
Q 40.828125 74.21875 47.359375 69.109375 
Q 53.90625 64.015625 53.90625 55.328125 
Q 53.90625 49.265625 50.4375 45.09375 
Q 46.96875 40.921875 40.578125 39.3125 
z
" id="DejaVuSans-51"/>
      </defs>
      <g transform="translate(316.059167 332.638438)scale(0.1 -0.1)">
       <use xlink:href="#DejaVuSans-51"/>
       <use x="63.623047" xlink:href="#DejaVuSans-32"/>
       <use x="95.410156" xlink:href="#DejaVuSans-107"/>
       <use x="153.320312" xlink:href="#DejaVuSans-72"/>
       <use x="228.515625" xlink:href="#DejaVuSans-122"/>
      </g>
     </g>
    </g>
    <g id="xtick_10">
     <g id="line2d_26">
      <path clip-path="url(#p74546a5b41)" d="M 420.368889 318.04 
L 420.368889 200.04 
" style="fill:none;stroke:#b0b0b0;stroke-linecap:square;stroke-width:0.8;"/>
     </g>
     <g id="line2d_27">
      <g>
       <use style="stroke:#000000;stroke-width:0.8;" x="420.368889" xlink:href="#med6b46b1c9" y="318.04"/>
      </g>
     </g>
     <g id="text_16">
      <!-- 4 kHz -->
      <defs>
       <path d="M 37.796875 64.3125 
L 12.890625 25.390625 
L 37.796875 25.390625 
z
M 35.203125 72.90625 
L 47.609375 72.90625 
L 47.609375 25.390625 
L 58.015625 25.390625 
L 58.015625 17.1875 
L 47.609375 17.1875 
L 47.609375 0 
L 37.796875 0 
L 37.796875 17.1875 
L 4.890625 17.1875 
L 4.890625 26.703125 
z
" id="DejaVuSans-52"/>
      </defs>
      <g transform="translate(406.318889 332.638438)scale(0.1 -0.1)">
       <use xlink:href="#DejaVuSans-52"/>
       <use x="63.623047" xlink:href="#DejaVuSans-32"/>
       <use x="95.410156" xlink:href="#DejaVuSans-107"/>
       <use x="153.320312" xlink:href="#DejaVuSans-72"/>
       <use x="228.515625" xlink:href="#DejaVuSans-122"/>
      </g>
     </g>
    </g>
    <g id="xtick_11">
     <g id="line2d_28">
      <path clip-path="url(#p74546a5b41)" d="M 510.628611 318.04 
L 510.628611 200.04 
" style="fill:none;stroke:#b0b0b0;stroke-linecap:square;stroke-width:0.8;"/>
     </g>
     <g id="line2d_29">
      <g>
       <use style="stroke:#000000;stroke-width:0.8;" x="510.628611" xlink:href="#med6b46b1c9" y="318.04"/>
      </g>
     </g>
     <g id="text_17">
      <!-- 5 kHz -->
      <g transform="translate(496.578611 332.638438)scale(0.1 -0.1)">
       <use xlink:href="#DejaVuSans-53"/>
       <use x="63.623047" xlink:href="#DejaVuSans-32"/>
       <use x="95.410156" xlink:href="#DejaVuSans-107"/>
       <use x="153.320312" xlink:href="#DejaVuSans-72"/>
       <use x="228.515625" xlink:href="#DejaVuSans-122"/>
      </g>
     </g>
    </g>
    <g id="xtick_12">
     <g id="line2d_30">
      <path clip-path="url(#p74546a5b41)" d="M 600.888333 318.04 
L 600.888333 200.04 
" style="fill:none;stroke:#b0b0b0;stroke-linecap:square;stroke-width:0.8;"/>
     </g>
     <g id="line2d_31">
      <g>
       <use style="stroke:#000000;stroke-width:0.8;" x="600.888333" xlink:href="#med6b46b1c9" y="318.04"/>
      </g>
     </g>
     <g id="text_18">
      <!-- 6 kHz -->
      <defs>
       <path d="M 33.015625 40.375 
Q 26.375 40.375 22.484375 35.828125 
Q 18.609375 31.296875 18.609375 23.390625 
Q 18.609375 15.53125 22.484375 10.953125 
Q 26.375 6.390625 33.015625 6.390625 
Q 39.65625 6.390625 43.53125 10.953125 
Q 47.40625 15.53125 47.40625 23.390625 
Q 47.40625 31.296875 43.53125 35.828125 
Q 39.65625 40.375 33.015625 40.375 
z
M 52.59375 71.296875 
L 52.59375 62.3125 
Q 48.875 64.0625 45.09375 64.984375 
Q 41.3125 65.921875 37.59375 65.921875 
Q 27.828125 65.921875 22.671875 59.328125 
Q 17.53125 52.734375 16.796875 39.40625 
Q 19.671875 43.65625 24.015625 45.921875 
Q 28.375 48.1875 33.59375 48.1875 
Q 44.578125 48.1875 50.953125 41.515625 
Q 57.328125 34.859375 57.328125 23.390625 
Q 57.328125 12.15625 50.6875 5.359375 
Q 44.046875 -1.421875 33.015625 -1.421875 
Q 20.359375 -1.421875 13.671875 8.265625 
Q 6.984375 17.96875 6.984375 36.375 
Q 6.984375 53.65625 15.1875 63.9375 
Q 23.390625 74.21875 37.203125 74.21875 
Q 40.921875 74.21875 44.703125 73.484375 
Q 48.484375 72.75 52.59375 71.296875 
z
" id="DejaVuSans-54"/>
      </defs>
      <g transform="translate(586.838333 332.638438)scale(0.1 -0.1)">
       <use xlink:href="#DejaVuSans-54"/>
       <use x="63.623047" xlink:href="#DejaVuSans-32"/>
       <use x="95.410156" xlink:href="#DejaVuSans-107"/>
       <use x="153.320312" xlink:href="#DejaVuSans-72"/>
       <use x="228.515625" xlink:href="#DejaVuSans-122"/>
      </g>
     </g>
    </g>
    <g id="xtick_13">
     <g id="line2d_32">
      <path clip-path="url(#p74546a5b41)" d="M 691.148056 318.04 
L 691.148056 200.04 
" style="fill:none;stroke:#b0b0b0;stroke-linecap:square;stroke-width:0.8;"/>
     </g>
     <g id="line2d_33">
      <g>
       <use style="stroke:#000000;stroke-width:0.8;" x="691.148056" xlink:href="#med6b46b1c9" y="318.04"/>
      </g>
     </g>
     <g id="text_19">
      <!-- 7 kHz -->
      <defs>
       <path d="M 8.203125 72.90625 
L 55.078125 72.90625 
L 55.078125 68.703125 
L 28.609375 0 
L 18.3125 0 
L 43.21875 64.59375 
L 8.203125 64.59375 
z
" id="DejaVuSans-55"/>
      </defs>
      <g transform="translate(677.098056 332.638438)scale(0.1 -0.1)">
       <use xlink:href="#DejaVuSans-55"/>
       <use x="63.623047" xlink:href="#DejaVuSans-32"/>
       <use x="95.410156" xlink:href="#DejaVuSans-107"/>
       <use x="153.320312" xlink:href="#DejaVuSans-72"/>
       <use x="228.515625" xlink:href="#DejaVuSans-122"/>
      </g>
     </g>
    </g>
    <g id="text_20">
     <!-- Frequency -->
     <g transform="translate(357.967344 346.316563)scale(0.1 -0.1)">
      <use xlink:href="#DejaVuSans-70"/>
      <use x="57.410156" xlink:href="#DejaVuSans-114"/>
      <use x="98.492188" xlink:href="#DejaVuSans-101"/>
      <use x="160.015625" xlink:href="#DejaVuSans-113"/>
      <use x="223.492188" xlink:href="#DejaVuSans-117"/>
      <use x="286.871094" xlink:href="#DejaVuSans-101"/>
      <use x="348.394531" xlink:href="#DejaVuSans-110"/>
      <use x="411.773438" xlink:href="#DejaVuSans-99"/>
      <use x="466.753906" xlink:href="#DejaVuSans-121"/>
     </g>
    </g>
   </g>
   <g id="matplotlib.axis_4">
    <g id="ytick_4">
     <g id="line2d_34">
      <path clip-path="url(#p74546a5b41)" d="M 59.33 298.373333 
L 709.2 298.373333 
" style="fill:none;stroke:#b0b0b0;stroke-linecap:square;stroke-width:0.8;"/>
     </g>
     <g id="line2d_35">
      <g>
       <use style="stroke:#000000;stroke-width:0.8;" x="59.33" xlink:href="#m889d1c568c" y="298.373333"/>
      </g>
     </g>
     <g id="text_21">
      <!-- −0.1 -->
      <defs>
       <path d="M 10.6875 12.40625 
L 21 12.40625 
L 21 0 
L 10.6875 0 
z
" id="DejaVuSans-46"/>
      </defs>
      <g transform="translate(28.047188 302.172552)scale(0.1 -0.1)">
       <use xlink:href="#DejaVuSans-8722"/>
       <use x="83.789062" xlink:href="#DejaVuSans-48"/>
       <use x="147.412109" xlink:href="#DejaVuSans-46"/>
       <use x="179.199219" xlink:href="#DejaVuSans-49"/>
      </g>
     </g>
    </g>
    <g id="ytick_5">
     <g id="line2d_36">
      <path clip-path="url(#p74546a5b41)" d="M 59.33 259.04 
L 709.2 259.04 
" style="fill:none;stroke:#b0b0b0;stroke-linecap:square;stroke-width:0.8;"/>
     </g>
     <g id="line2d_37">
      <g>
       <use style="stroke:#000000;stroke-width:0.8;" x="59.33" xlink:href="#m889d1c568c" y="259.04"/>
      </g>
     </g>
     <g id="text_22">
      <!-- 0.0 -->
      <g transform="translate(36.426875 262.839219)scale(0.1 -0.1)">
       <use xlink:href="#DejaVuSans-48"/>
       <use x="63.623047" xlink:href="#DejaVuSans-46"/>
       <use x="95.410156" xlink:href="#DejaVuSans-48"/>
      </g>
     </g>
    </g>
    <g id="ytick_6">
     <g id="line2d_38">
      <path clip-path="url(#p74546a5b41)" d="M 59.33 219.706667 
L 709.2 219.706667 
" style="fill:none;stroke:#b0b0b0;stroke-linecap:square;stroke-width:0.8;"/>
     </g>
     <g id="line2d_39">
      <g>
       <use style="stroke:#000000;stroke-width:0.8;" x="59.33" xlink:href="#m889d1c568c" y="219.706667"/>
      </g>
     </g>
     <g id="text_23">
      <!-- 0.1 -->
      <g transform="translate(36.426875 223.505885)scale(0.1 -0.1)">
       <use xlink:href="#DejaVuSans-48"/>
       <use x="63.623047" xlink:href="#DejaVuSans-46"/>
       <use x="95.410156" xlink:href="#DejaVuSans-49"/>
      </g>
     </g>
    </g>
    <g id="text_24">
     <!-- Attenuation (dB) -->
     <g transform="translate(21.9675 300.530625)rotate(-90)scale(0.1 -0.1)">
      <use xlink:href="#DejaVuSans-65"/>
      <use x="68.392578" xlink:href="#DejaVuSans-116"/>
      <use x="107.601562" xlink:href="#DejaVuSans-116"/>
      <use x="146.810547" xlink:href="#DejaVuSans-101"/>
      <use x="208.333984" xlink:href="#DejaVuSans-110"/>
      <use x="271.712891" xlink:href="#DejaVuSans-117"/>
      <use x="335.091797" xlink:href="#DejaVuSans-97"/>
      <use x="396.371094" xlink:href="#DejaVuSans-116"/>
      <use x="435.580078" xlink:href="#DejaVuSans-105"/>
      <use x="463.363281" xlink:href="#DejaVuSans-111"/>
      <use x="524.544922" xlink:href="#DejaVuSans-110"/>
      <use x="587.923828" xlink:href="#DejaVuSans-32"/>
      <use x="619.710938" xlink:href="#DejaVuSans-40"/>
      <use x="658.724609" xlink:href="#DejaVuSans-100"/>
      <use x="722.201172" xlink:href="#DejaVuSans-66"/>
      <use x="790.804688" xlink:href="#DejaVuSans-41"/>
     </g>
    </g>
   </g>
   <g id="line2d_40">
    <path clip-path="url(#p74546a5b41)" d="M 59.33 251.082815 
L 65.673289 251.213303 
L 72.016579 251.600957 
L 78.359868 252.234441 
L 84.703158 253.095148 
L 91.046447 254.157608 
L 98.975559 255.720474 
L 108.490493 257.841078 
L 133.863651 263.682734 
L 141.792762 265.212532 
L 148.136052 266.230495 
L 154.479341 267.025748 
L 160.822631 267.569041 
L 167.16592 267.839554 
L 173.509209 267.826054 
L 179.852499 267.527764 
L 186.195788 266.954866 
L 192.539078 266.128599 
L 198.882367 265.080915 
L 206.811479 263.524542 
L 217.912235 261.069276 
L 232.184636 257.920019 
L 240.113748 256.419484 
L 246.457038 255.449658 
L 252.800327 254.741527 
L 257.557794 254.408039 
L 262.315261 254.259374 
L 267.072728 254.304924 
L 271.830195 254.549545 
L 276.587662 254.993306 
L 281.345129 255.63135 
L 286.102596 256.453882 
L 292.445886 257.811633 
L 298.789175 259.42367 
L 306.718287 261.703936 
L 332.091445 269.327777 
L 338.434734 270.893837 
L 343.192201 271.886342 
L 347.949668 272.695668 
L 352.707135 273.302526 
L 357.464602 273.693103 
L 362.222069 273.859616 
L 366.979536 273.800691 
L 371.737003 273.521579 
L 376.49447 273.034176 
L 381.251938 272.356845 
L 387.595227 271.201373 
L 395.524339 269.456734 
L 417.725852 264.282508 
L 424.069141 263.158188 
L 428.826608 262.526042 
L 433.584075 262.110503 
L 438.341542 261.937227 
L 443.099009 262.024812 
L 447.856476 262.383933 
L 452.613943 263.016678 
L 457.37141 263.916105 
L 462.128878 265.066063 
L 466.886345 266.441274 
L 473.229634 268.565301 
L 481.158746 271.538866 
L 495.431147 277.016429 
L 501.774436 279.152668 
L 506.531903 280.509597 
L 511.28937 281.596387 
L 516.046837 282.367367 
L 519.218482 282.687969 
L 522.390127 282.844878 
L 525.561772 282.833579 
L 528.733416 282.652732 
L 531.905061 282.304449 
L 535.076706 281.794563 
L 539.834173 280.749275 
L 544.59164 279.414164 
L 550.934929 277.312822 
L 562.035686 273.471107 
L 566.793153 272.127172 
L 569.964797 271.459591 
L 573.136442 271.043137 
L 576.308087 270.941083 
L 579.479732 271.220576 
L 581.065554 271.525391 
L 582.651376 271.952412 
L 584.237199 272.511016 
L 585.823021 273.210779 
L 587.408843 274.061459 
L 588.994666 275.072995 
L 590.580488 276.255495 
L 592.16631 277.619226 
L 593.752133 279.174605 
L 595.337955 280.932193 
L 596.923777 282.902681 
L 598.5096 285.096884 
L 600.095422 287.525731 
L 601.681245 290.200255 
L 603.267067 293.131584 
L 604.852889 296.330934 
L 606.438712 299.809599 
L 608.024534 303.578939 
L 609.610356 307.650377 
L 612.782001 316.745489 
L 615.953646 327.187204 
L 619.12529 339.068243 
L 622.296935 352.481538 
L 624.130674 361 
L 624.130674 361 
" style="fill:none;stroke:#1f77b4;stroke-linecap:square;stroke-width:1.5;"/>
   </g>
   <g id="patch_8">
    <path d="M 59.33 318.04 
L 59.33 200.04 
" style="fill:none;stroke:#000000;stroke-linecap:square;stroke-linejoin:miter;stroke-width:0.8;"/>
   </g>
   <g id="patch_9">
    <path d="M 709.2 318.04 
L 709.2 200.04 
" style="fill:none;stroke:#000000;stroke-linecap:square;stroke-linejoin:miter;stroke-width:0.8;"/>
   </g>
   <g id="patch_10">
    <path d="M 59.33 318.04 
L 709.2 318.04 
" style="fill:none;stroke:#000000;stroke-linecap:square;stroke-linejoin:miter;stroke-width:0.8;"/>
   </g>
   <g id="patch_11">
    <path d="M 59.33 200.04 
L 709.2 200.04 
" style="fill:none;stroke:#000000;stroke-linecap:square;stroke-linejoin:miter;stroke-width:0.8;"/>
   </g>
   <g id="text_25">
    <!-- After Decimation - Pass Band -->
    <defs>
     <path d="M 19.671875 64.796875 
L 19.671875 37.40625 
L 32.078125 37.40625 
Q 38.96875 37.40625 42.71875 40.96875 
Q 46.484375 44.53125 46.484375 51.125 
Q 46.484375 57.671875 42.71875 61.234375 
Q 38.96875 64.796875 32.078125 64.796875 
z
M 9.8125 72.90625 
L 32.078125 72.90625 
Q 44.34375 72.90625 50.609375 67.359375 
Q 56.890625 61.8125 56.890625 51.125 
Q 56.890625 40.328125 50.609375 34.8125 
Q 44.34375 29.296875 32.078125 29.296875 
L 19.671875 29.296875 
L 19.671875 0 
L 9.8125 0 
z
" id="DejaVuSans-80"/>
     <path d="M 44.28125 53.078125 
L 44.28125 44.578125 
Q 40.484375 46.53125 36.375 47.5 
Q 32.28125 48.484375 27.875 48.484375 
Q 21.1875 48.484375 17.84375 46.4375 
Q 14.5 44.390625 14.5 40.28125 
Q 14.5 37.15625 16.890625 35.375 
Q 19.28125 33.59375 26.515625 31.984375 
L 29.59375 31.296875 
Q 39.15625 29.25 43.1875 25.515625 
Q 47.21875 21.78125 47.21875 15.09375 
Q 47.21875 7.46875 41.1875 3.015625 
Q 35.15625 -1.421875 24.609375 -1.421875 
Q 20.21875 -1.421875 15.453125 -0.5625 
Q 10.6875 0.296875 5.421875 2 
L 5.421875 11.28125 
Q 10.40625 8.6875 15.234375 7.390625 
Q 20.0625 6.109375 24.8125 6.109375 
Q 31.15625 6.109375 34.5625 8.28125 
Q 37.984375 10.453125 37.984375 14.40625 
Q 37.984375 18.0625 35.515625 20.015625 
Q 33.0625 21.96875 24.703125 23.78125 
L 21.578125 24.515625 
Q 13.234375 26.265625 9.515625 29.90625 
Q 5.8125 33.546875 5.8125 39.890625 
Q 5.8125 47.609375 11.28125 51.796875 
Q 16.75 56 26.8125 56 
Q 31.78125 56 36.171875 55.265625 
Q 40.578125 54.546875 44.28125 53.078125 
z
" id="DejaVuSans-115"/>
    </defs>
    <g transform="translate(296.510312 194.04)scale(0.12 -0.12)">
     <use xlink:href="#DejaVuSans-65"/>
     <use x="68.361328" xlink:href="#DejaVuSans-102"/>
     <use x="103.550781" xlink:href="#DejaVuSans-116"/>
     <use x="142.759766" xlink:href="#DejaVuSans-101"/>
     <use x="204.283203" xlink:href="#DejaVuSans-114"/>
     <use x="245.396484" xlink:href="#DejaVuSans-32"/>
     <use x="277.183594" xlink:href="#DejaVuSans-68"/>
     <use x="354.185547" xlink:href="#DejaVuSans-101"/>
     <use x="415.708984" xlink:href="#DejaVuSans-99"/>
     <use x="470.689453" xlink:href="#DejaVuSans-105"/>
     <use x="498.472656" xlink:href="#DejaVuSans-109"/>
     <use x="595.884766" xlink:href="#DejaVuSans-97"/>
     <use x="657.164062" xlink:href="#DejaVuSans-116"/>
     <use x="696.373047" xlink:href="#DejaVuSans-105"/>
     <use x="724.15625" xlink:href="#DejaVuSans-111"/>
     <use x="785.337891" xlink:href="#DejaVuSans-110"/>
     <use x="848.716797" xlink:href="#DejaVuSans-32"/>
     <use x="880.503906" xlink:href="#DejaVuSans-45"/>
     <use x="916.587891" xlink:href="#DejaVuSans-32"/>
     <use x="948.375" xlink:href="#DejaVuSans-80"/>
     <use x="1008.615234" xlink:href="#DejaVuSans-97"/>
     <use x="1069.894531" xlink:href="#DejaVuSans-115"/>
     <use x="1121.994141" xlink:href="#DejaVuSans-115"/>
     <use x="1174.09375" xlink:href="#DejaVuSans-32"/>
     <use x="1205.880859" xlink:href="#DejaVuSans-66"/>
     <use x="1274.484375" xlink:href="#DejaVuSans-97"/>
     <use x="1335.763672" xlink:href="#DejaVuSans-110"/>
     <use x="1399.142578" xlink:href="#DejaVuSans-100"/>
    </g>
   </g>
  </g>
 </g>
 <defs>
  <clipPath id="pc93a556b5d">
   <rect height="118" width="649.87" x="59.33" y="25.44"/>
  </clipPath>
  <clipPath id="p74546a5b41">
   <rect height="118" width="649.87" x="59.33" y="200.04"/>
  </clipPath>
 </defs>
</svg>
