<?xml version="1.0" encoding="utf-8" standalone="no"?>
<!DOCTYPE svg PUBLIC "-//W3C//DTD SVG 1.1//EN"
  "http://www.w3.org/Graphics/SVG/1.1/DTD/svg11.dtd">
<!-- Created with matplotlib (https://matplotlib.org/) -->
<svg height="345.6pt" version="1.1" viewBox="0 0 460.8 345.6" width="460.8pt" xmlns="http://www.w3.org/2000/svg" xmlns:xlink="http://www.w3.org/1999/xlink">
 <defs>
  <style type="text/css">
*{stroke-linecap:butt;stroke-linejoin:round;}
  </style>
 </defs>
 <g id="figure_1">
  <g id="patch_1">
   <path d="M 0 345.6 
L 460.8 345.6 
L 460.8 0 
L 0 0 
z
" style="fill:#ffffff;"/>
  </g>
  <g id="axes_1">
   <g id="patch_2">
    <path d="M 57.6 307.584 
L 414.72 307.584 
L 414.72 41.472 
L 57.6 41.472 
z
" style="fill:#ffffff;"/>
   </g>
   <g id="matplotlib.axis_1">
    <g id="xtick_1">
     <g id="line2d_1">
      <defs>
       <path d="M 0 0 
L 0 3.5 
" id="me46430c7ff" style="stroke:#000000;stroke-width:0.8;"/>
      </defs>
      <g>
       <use style="stroke:#000000;stroke-width:0.8;" x="57.6" xlink:href="#me46430c7ff" y="307.584"/>
      </g>
     </g>
     <g id="text_1">
      <!-- 0.000 -->
      <defs>
       <path d="M 31.78125 66.40625 
Q 24.171875 66.40625 20.328125 58.90625 
Q 16.5 51.421875 16.5 36.375 
Q 16.5 21.390625 20.328125 13.890625 
Q 24.171875 6.390625 31.78125 6.390625 
Q 39.453125 6.390625 43.28125 13.890625 
Q 47.125 21.390625 47.125 36.375 
Q 47.125 51.421875 43.28125 58.90625 
Q 39.453125 66.40625 31.78125 66.40625 
z
M 31.78125 74.21875 
Q 44.046875 74.21875 50.515625 64.515625 
Q 56.984375 54.828125 56.984375 36.375 
Q 56.984375 17.96875 50.515625 8.265625 
Q 44.046875 -1.421875 31.78125 -1.421875 
Q 19.53125 -1.421875 13.0625 8.265625 
Q 6.59375 17.96875 6.59375 36.375 
Q 6.59375 54.828125 13.0625 64.515625 
Q 19.53125 74.21875 31.78125 74.21875 
z
" id="DejaVuSans-48"/>
       <path d="M 10.6875 12.40625 
L 21 12.40625 
L 21 0 
L 10.6875 0 
z
" id="DejaVuSans-46"/>
      </defs>
      <g transform="translate(43.285938 322.182437)scale(0.1 -0.1)">
       <use xlink:href="#DejaVuSans-48"/>
       <use x="63.623047" xlink:href="#DejaVuSans-46"/>
       <use x="95.410156" xlink:href="#DejaVuSans-48"/>
       <use x="159.033203" xlink:href="#DejaVuSans-48"/>
       <use x="222.65625" xlink:href="#DejaVuSans-48"/>
      </g>
     </g>
    </g>
    <g id="xtick_2">
     <g id="line2d_2">
      <g>
       <use style="stroke:#000000;stroke-width:0.8;" x="102.24" xlink:href="#me46430c7ff" y="307.584"/>
      </g>
     </g>
     <g id="text_2">
      <!-- 0.025 -->
      <defs>
       <path d="M 19.1875 8.296875 
L 53.609375 8.296875 
L 53.609375 0 
L 7.328125 0 
L 7.328125 8.296875 
Q 12.9375 14.109375 22.625 23.890625 
Q 32.328125 33.6875 34.8125 36.53125 
Q 39.546875 41.84375 41.421875 45.53125 
Q 43.3125 49.21875 43.3125 52.78125 
Q 43.3125 58.59375 39.234375 62.25 
Q 35.15625 65.921875 28.609375 65.921875 
Q 23.96875 65.921875 18.8125 64.3125 
Q 13.671875 62.703125 7.8125 59.421875 
L 7.8125 69.390625 
Q 13.765625 71.78125 18.9375 73 
Q 24.125 74.21875 28.421875 74.21875 
Q 39.75 74.21875 46.484375 68.546875 
Q 53.21875 62.890625 53.21875 53.421875 
Q 53.21875 48.921875 51.53125 44.890625 
Q 49.859375 40.875 45.40625 35.40625 
Q 44.1875 33.984375 37.640625 27.21875 
Q 31.109375 20.453125 19.1875 8.296875 
z
" id="DejaVuSans-50"/>
       <path d="M 10.796875 72.90625 
L 49.515625 72.90625 
L 49.515625 64.59375 
L 19.828125 64.59375 
L 19.828125 46.734375 
Q 21.96875 47.46875 24.109375 47.828125 
Q 26.265625 48.1875 28.421875 48.1875 
Q 40.625 48.1875 47.75 41.5 
Q 54.890625 34.8125 54.890625 23.390625 
Q 54.890625 11.625 47.5625 5.09375 
Q 40.234375 -1.421875 26.90625 -1.421875 
Q 22.3125 -1.421875 17.546875 -0.640625 
Q 12.796875 0.140625 7.71875 1.703125 
L 7.71875 11.625 
Q 12.109375 9.234375 16.796875 8.0625 
Q 21.484375 6.890625 26.703125 6.890625 
Q 35.15625 6.890625 40.078125 11.328125 
Q 45.015625 15.765625 45.015625 23.390625 
Q 45.015625 31 40.078125 35.4375 
Q 35.15625 39.890625 26.703125 39.890625 
Q 22.75 39.890625 18.8125 39.015625 
Q 14.890625 38.140625 10.796875 36.28125 
z
" id="DejaVuSans-53"/>
      </defs>
      <g transform="translate(87.925938 322.182437)scale(0.1 -0.1)">
       <use xlink:href="#DejaVuSans-48"/>
       <use x="63.623047" xlink:href="#DejaVuSans-46"/>
       <use x="95.410156" xlink:href="#DejaVuSans-48"/>
       <use x="159.033203" xlink:href="#DejaVuSans-50"/>
       <use x="222.65625" xlink:href="#DejaVuSans-53"/>
      </g>
     </g>
    </g>
    <g id="xtick_3">
     <g id="line2d_3">
      <g>
       <use style="stroke:#000000;stroke-width:0.8;" x="146.88" xlink:href="#me46430c7ff" y="307.584"/>
      </g>
     </g>
     <g id="text_3">
      <!-- 0.050 -->
      <g transform="translate(132.565937 322.182437)scale(0.1 -0.1)">
       <use xlink:href="#DejaVuSans-48"/>
       <use x="63.623047" xlink:href="#DejaVuSans-46"/>
       <use x="95.410156" xlink:href="#DejaVuSans-48"/>
       <use x="159.033203" xlink:href="#DejaVuSans-53"/>
       <use x="222.65625" xlink:href="#DejaVuSans-48"/>
      </g>
     </g>
    </g>
    <g id="xtick_4">
     <g id="line2d_4">
      <g>
       <use style="stroke:#000000;stroke-width:0.8;" x="191.52" xlink:href="#me46430c7ff" y="307.584"/>
      </g>
     </g>
     <g id="text_4">
      <!-- 0.075 -->
      <defs>
       <path d="M 8.203125 72.90625 
L 55.078125 72.90625 
L 55.078125 68.703125 
L 28.609375 0 
L 18.3125 0 
L 43.21875 64.59375 
L 8.203125 64.59375 
z
" id="DejaVuSans-55"/>
      </defs>
      <g transform="translate(177.205938 322.182437)scale(0.1 -0.1)">
       <use xlink:href="#DejaVuSans-48"/>
       <use x="63.623047" xlink:href="#DejaVuSans-46"/>
       <use x="95.410156" xlink:href="#DejaVuSans-48"/>
       <use x="159.033203" xlink:href="#DejaVuSans-55"/>
       <use x="222.65625" xlink:href="#DejaVuSans-53"/>
      </g>
     </g>
    </g>
    <g id="xtick_5">
     <g id="line2d_5">
      <g>
       <use style="stroke:#000000;stroke-width:0.8;" x="236.16" xlink:href="#me46430c7ff" y="307.584"/>
      </g>
     </g>
     <g id="text_5">
      <!-- 0.100 -->
      <defs>
       <path d="M 12.40625 8.296875 
L 28.515625 8.296875 
L 28.515625 63.921875 
L 10.984375 60.40625 
L 10.984375 69.390625 
L 28.421875 72.90625 
L 38.28125 72.90625 
L 38.28125 8.296875 
L 54.390625 8.296875 
L 54.390625 0 
L 12.40625 0 
z
" id="DejaVuSans-49"/>
      </defs>
      <g transform="translate(221.845937 322.182437)scale(0.1 -0.1)">
       <use xlink:href="#DejaVuSans-48"/>
       <use x="63.623047" xlink:href="#DejaVuSans-46"/>
       <use x="95.410156" xlink:href="#DejaVuSans-49"/>
       <use x="159.033203" xlink:href="#DejaVuSans-48"/>
       <use x="222.65625" xlink:href="#DejaVuSans-48"/>
      </g>
     </g>
    </g>
    <g id="xtick_6">
     <g id="line2d_6">
      <g>
       <use style="stroke:#000000;stroke-width:0.8;" x="280.8" xlink:href="#me46430c7ff" y="307.584"/>
      </g>
     </g>
     <g id="text_6">
      <!-- 0.125 -->
      <g transform="translate(266.485938 322.182437)scale(0.1 -0.1)">
       <use xlink:href="#DejaVuSans-48"/>
       <use x="63.623047" xlink:href="#DejaVuSans-46"/>
       <use x="95.410156" xlink:href="#DejaVuSans-49"/>
       <use x="159.033203" xlink:href="#DejaVuSans-50"/>
       <use x="222.65625" xlink:href="#DejaVuSans-53"/>
      </g>
     </g>
    </g>
    <g id="xtick_7">
     <g id="line2d_7">
      <g>
       <use style="stroke:#000000;stroke-width:0.8;" x="325.44" xlink:href="#me46430c7ff" y="307.584"/>
      </g>
     </g>
     <g id="text_7">
      <!-- 0.150 -->
      <g transform="translate(311.125938 322.182437)scale(0.1 -0.1)">
       <use xlink:href="#DejaVuSans-48"/>
       <use x="63.623047" xlink:href="#DejaVuSans-46"/>
       <use x="95.410156" xlink:href="#DejaVuSans-49"/>
       <use x="159.033203" xlink:href="#DejaVuSans-53"/>
       <use x="222.65625" xlink:href="#DejaVuSans-48"/>
      </g>
     </g>
    </g>
    <g id="xtick_8">
     <g id="line2d_8">
      <g>
       <use style="stroke:#000000;stroke-width:0.8;" x="370.08" xlink:href="#me46430c7ff" y="307.584"/>
      </g>
     </g>
     <g id="text_8">
      <!-- 0.175 -->
      <g transform="translate(355.765938 322.182437)scale(0.1 -0.1)">
       <use xlink:href="#DejaVuSans-48"/>
       <use x="63.623047" xlink:href="#DejaVuSans-46"/>
       <use x="95.410156" xlink:href="#DejaVuSans-49"/>
       <use x="159.033203" xlink:href="#DejaVuSans-55"/>
       <use x="222.65625" xlink:href="#DejaVuSans-53"/>
      </g>
     </g>
    </g>
    <g id="xtick_9">
     <g id="line2d_9">
      <g>
       <use style="stroke:#000000;stroke-width:0.8;" x="414.72" xlink:href="#me46430c7ff" y="307.584"/>
      </g>
     </g>
     <g id="text_9">
      <!-- 0.200 -->
      <g transform="translate(400.405938 322.182437)scale(0.1 -0.1)">
       <use xlink:href="#DejaVuSans-48"/>
       <use x="63.623047" xlink:href="#DejaVuSans-46"/>
       <use x="95.410156" xlink:href="#DejaVuSans-50"/>
       <use x="159.033203" xlink:href="#DejaVuSans-48"/>
       <use x="222.65625" xlink:href="#DejaVuSans-48"/>
      </g>
     </g>
    </g>
   </g>
   <g id="matplotlib.axis_2">
    <g id="ytick_1">
     <g id="line2d_10">
      <defs>
       <path d="M 0 0 
L -3.5 0 
" id="m242a759f36" style="stroke:#000000;stroke-width:0.8;"/>
      </defs>
      <g>
       <use style="stroke:#000000;stroke-width:0.8;" x="57.6" xlink:href="#m242a759f36" y="307.584"/>
      </g>
     </g>
     <g id="text_10">
      <!-- −120 -->
      <defs>
       <path d="M 10.59375 35.5 
L 73.1875 35.5 
L 73.1875 27.203125 
L 10.59375 27.203125 
z
" id="DejaVuSans-8722"/>
      </defs>
      <g transform="translate(23.132812 311.383219)scale(0.1 -0.1)">
       <use xlink:href="#DejaVuSans-8722"/>
       <use x="83.789062" xlink:href="#DejaVuSans-49"/>
       <use x="147.412109" xlink:href="#DejaVuSans-50"/>
       <use x="211.035156" xlink:href="#DejaVuSans-48"/>
      </g>
     </g>
    </g>
    <g id="ytick_2">
     <g id="line2d_11">
      <g>
       <use style="stroke:#000000;stroke-width:0.8;" x="57.6" xlink:href="#m242a759f36" y="263.598545"/>
      </g>
     </g>
     <g id="text_11">
      <!-- −100 -->
      <g transform="translate(23.132812 267.397764)scale(0.1 -0.1)">
       <use xlink:href="#DejaVuSans-8722"/>
       <use x="83.789062" xlink:href="#DejaVuSans-49"/>
       <use x="147.412109" xlink:href="#DejaVuSans-48"/>
       <use x="211.035156" xlink:href="#DejaVuSans-48"/>
      </g>
     </g>
    </g>
    <g id="ytick_3">
     <g id="line2d_12">
      <g>
       <use style="stroke:#000000;stroke-width:0.8;" x="57.6" xlink:href="#m242a759f36" y="219.613091"/>
      </g>
     </g>
     <g id="text_12">
      <!-- −80 -->
      <defs>
       <path d="M 31.78125 34.625 
Q 24.75 34.625 20.71875 30.859375 
Q 16.703125 27.09375 16.703125 20.515625 
Q 16.703125 13.921875 20.71875 10.15625 
Q 24.75 6.390625 31.78125 6.390625 
Q 38.8125 6.390625 42.859375 10.171875 
Q 46.921875 13.96875 46.921875 20.515625 
Q 46.921875 27.09375 42.890625 30.859375 
Q 38.875 34.625 31.78125 34.625 
z
M 21.921875 38.8125 
Q 15.578125 40.375 12.03125 44.71875 
Q 8.5 49.078125 8.5 55.328125 
Q 8.5 64.0625 14.71875 69.140625 
Q 20.953125 74.21875 31.78125 74.21875 
Q 42.671875 74.21875 48.875 69.140625 
Q 55.078125 64.0625 55.078125 55.328125 
Q 55.078125 49.078125 51.53125 44.71875 
Q 48 40.375 41.703125 38.8125 
Q 48.828125 37.15625 52.796875 32.3125 
Q 56.78125 27.484375 56.78125 20.515625 
Q 56.78125 9.90625 50.3125 4.234375 
Q 43.84375 -1.421875 31.78125 -1.421875 
Q 19.734375 -1.421875 13.25 4.234375 
Q 6.78125 9.90625 6.78125 20.515625 
Q 6.78125 27.484375 10.78125 32.3125 
Q 14.796875 37.15625 21.921875 38.8125 
z
M 18.3125 54.390625 
Q 18.3125 48.734375 21.84375 45.5625 
Q 25.390625 42.390625 31.78125 42.390625 
Q 38.140625 42.390625 41.71875 45.5625 
Q 45.3125 48.734375 45.3125 54.390625 
Q 45.3125 60.0625 41.71875 63.234375 
Q 38.140625 66.40625 31.78125 66.40625 
Q 25.390625 66.40625 21.84375 63.234375 
Q 18.3125 60.0625 18.3125 54.390625 
z
" id="DejaVuSans-56"/>
      </defs>
      <g transform="translate(29.495313 223.41231)scale(0.1 -0.1)">
       <use xlink:href="#DejaVuSans-8722"/>
       <use x="83.789062" xlink:href="#DejaVuSans-56"/>
       <use x="147.412109" xlink:href="#DejaVuSans-48"/>
      </g>
     </g>
    </g>
    <g id="ytick_4">
     <g id="line2d_13">
      <g>
       <use style="stroke:#000000;stroke-width:0.8;" x="57.6" xlink:href="#m242a759f36" y="175.627636"/>
      </g>
     </g>
     <g id="text_13">
      <!-- −60 -->
      <defs>
       <path d="M 33.015625 40.375 
Q 26.375 40.375 22.484375 35.828125 
Q 18.609375 31.296875 18.609375 23.390625 
Q 18.609375 15.53125 22.484375 10.953125 
Q 26.375 6.390625 33.015625 6.390625 
Q 39.65625 6.390625 43.53125 10.953125 
Q 47.40625 15.53125 47.40625 23.390625 
Q 47.40625 31.296875 43.53125 35.828125 
Q 39.65625 40.375 33.015625 40.375 
z
M 52.59375 71.296875 
L 52.59375 62.3125 
Q 48.875 64.0625 45.09375 64.984375 
Q 41.3125 65.921875 37.59375 65.921875 
Q 27.828125 65.921875 22.671875 59.328125 
Q 17.53125 52.734375 16.796875 39.40625 
Q 19.671875 43.65625 24.015625 45.921875 
Q 28.375 48.1875 33.59375 48.1875 
Q 44.578125 48.1875 50.953125 41.515625 
Q 57.328125 34.859375 57.328125 23.390625 
Q 57.328125 12.15625 50.6875 5.359375 
Q 44.046875 -1.421875 33.015625 -1.421875 
Q 20.359375 -1.421875 13.671875 8.265625 
Q 6.984375 17.96875 6.984375 36.375 
Q 6.984375 53.65625 15.1875 63.9375 
Q 23.390625 74.21875 37.203125 74.21875 
Q 40.921875 74.21875 44.703125 73.484375 
Q 48.484375 72.75 52.59375 71.296875 
z
" id="DejaVuSans-54"/>
      </defs>
      <g transform="translate(29.495313 179.426855)scale(0.1 -0.1)">
       <use xlink:href="#DejaVuSans-8722"/>
       <use x="83.789062" xlink:href="#DejaVuSans-54"/>
       <use x="147.412109" xlink:href="#DejaVuSans-48"/>
      </g>
     </g>
    </g>
    <g id="ytick_5">
     <g id="line2d_14">
      <g>
       <use style="stroke:#000000;stroke-width:0.8;" x="57.6" xlink:href="#m242a759f36" y="131.642182"/>
      </g>
     </g>
     <g id="text_14">
      <!-- −40 -->
      <defs>
       <path d="M 37.796875 64.3125 
L 12.890625 25.390625 
L 37.796875 25.390625 
z
M 35.203125 72.90625 
L 47.609375 72.90625 
L 47.609375 25.390625 
L 58.015625 25.390625 
L 58.015625 17.1875 
L 47.609375 17.1875 
L 47.609375 0 
L 37.796875 0 
L 37.796875 17.1875 
L 4.890625 17.1875 
L 4.890625 26.703125 
z
" id="DejaVuSans-52"/>
      </defs>
      <g transform="translate(29.495313 135.441401)scale(0.1 -0.1)">
       <use xlink:href="#DejaVuSans-8722"/>
       <use x="83.789062" xlink:href="#DejaVuSans-52"/>
       <use x="147.412109" xlink:href="#DejaVuSans-48"/>
      </g>
     </g>
    </g>
    <g id="ytick_6">
     <g id="line2d_15">
      <g>
       <use style="stroke:#000000;stroke-width:0.8;" x="57.6" xlink:href="#m242a759f36" y="87.656727"/>
      </g>
     </g>
     <g id="text_15">
      <!-- −20 -->
      <g transform="translate(29.495313 91.455946)scale(0.1 -0.1)">
       <use xlink:href="#DejaVuSans-8722"/>
       <use x="83.789062" xlink:href="#DejaVuSans-50"/>
       <use x="147.412109" xlink:href="#DejaVuSans-48"/>
      </g>
     </g>
    </g>
    <g id="ytick_7">
     <g id="line2d_16">
      <g>
       <use style="stroke:#000000;stroke-width:0.8;" x="57.6" xlink:href="#m242a759f36" y="43.671273"/>
      </g>
     </g>
     <g id="text_16">
      <!-- 0 -->
      <g transform="translate(44.2375 47.470491)scale(0.1 -0.1)">
       <use xlink:href="#DejaVuSans-48"/>
      </g>
     </g>
    </g>
   </g>
   <g id="line2d_17">
    <path clip-path="url(#p12d6b4298a)" d="M 57.6 43.671273 
L 58.471875 43.794027 
L 59.34375 44.162763 
L 60.215625 44.778915 
L 61.0875 45.6449 
L 62.177344 47.084065 
L 63.267187 48.928232 
L 64.357031 51.189541 
L 65.664844 54.475851 
L 66.972656 58.419772 
L 68.280469 63.065714 
L 69.588281 68.470824 
L 71.114063 75.83592 
L 72.639844 84.492722 
L 74.165625 94.660469 
L 75.473438 104.814378 
L 76.78125 116.598057 
L 78.089062 130.442985 
L 79.396875 147.032669 
L 80.486719 163.779711 
L 81.576562 184.461972 
L 82.448437 205.400242 
L 83.320312 233.002761 
L 83.974219 261.781084 
L 84.410156 288.558471 
L 84.846094 328.699641 
L 84.969754 346.6 
M 86.051085 346.6 
L 86.371875 310.931523 
L 86.807812 281.251354 
L 87.461719 252.305864 
L 88.115625 232.46303 
L 88.9875 213.497701 
L 89.859375 199.658095 
L 90.73125 189.139713 
L 91.603125 180.984507 
L 92.475 174.625178 
L 93.346875 169.700514 
L 94.21875 165.968837 
L 95.090625 163.263072 
L 95.744531 161.834861 
L 96.398438 160.880531 
L 97.052344 160.372344 
L 97.488281 160.270939 
L 97.924219 160.353883 
L 98.360156 160.617624 
L 99.014062 161.346894 
L 99.667969 162.47272 
L 100.321875 163.994935 
L 101.19375 166.649337 
L 102.065625 170.040095 
L 103.155469 175.376963 
L 104.245312 182.052357 
L 105.335156 190.258297 
L 106.425 200.289164 
L 107.514844 212.606801 
L 108.604687 227.974338 
L 109.476562 243.351447 
L 110.348437 262.832096 
L 111.002344 281.61904 
L 111.65625 306.440544 
L 112.092187 328.819133 
L 112.355933 346.6 
M 114.481297 346.6 
L 114.925781 321.001284 
L 115.579688 295.003671 
L 116.233594 276.342429 
L 117.105469 257.897181 
L 117.977344 244.041793 
L 118.849219 233.253421 
L 119.721094 224.696339 
L 120.592969 217.864499 
L 121.464844 212.43047 
L 122.336719 208.172563 
L 123.208594 204.936196 
L 124.080469 202.611962 
L 124.734375 201.419905 
L 125.388281 200.673471 
L 125.824219 200.414709 
L 126.260156 200.342556 
L 126.696094 200.454303 
L 127.132031 200.748187 
L 127.785937 201.528897 
L 128.439844 202.718581 
L 129.09375 204.322683 
L 129.965625 207.124589 
L 130.8375 210.721233 
L 131.709375 215.171919 
L 132.799219 222.068957 
L 133.889062 230.682218 
L 134.978906 241.394292 
L 136.06875 254.823085 
L 136.940625 268.215849 
L 137.8125 284.976442 
L 138.684375 306.912713 
L 139.338281 329.018697 
L 139.736527 346.6 
M 142.925912 346.6 
L 143.479687 324.86351 
L 144.351562 300.660249 
L 145.223437 283.207649 
L 146.095313 269.872611 
L 146.967187 259.359357 
L 148.057031 249.099757 
L 149.146875 241.27582 
L 150.01875 236.423266 
L 150.890625 232.633151 
L 151.7625 229.786018 
L 152.634375 227.797207 
L 153.288281 226.832631 
L 153.942187 226.300058 
L 154.378125 226.178992 
L 154.814063 226.242339 
L 155.25 226.488771 
L 155.903906 227.201 
L 156.557812 228.326715 
L 157.211719 229.872845 
L 158.083594 232.609611 
L 158.955469 236.159153 
L 159.827344 240.586414 
L 160.917187 247.499186 
L 162.007031 256.199043 
L 163.096875 267.105087 
L 163.96875 277.864384 
L 164.840625 291.034658 
L 165.7125 307.576939 
L 166.584375 329.298956 
L 167.11253 346.6 
M 171.366739 346.6 
L 171.815625 332.835209 
L 172.6875 312.292624 
L 173.559375 296.930359 
L 174.43125 284.940831 
L 175.521094 273.273397 
L 176.610938 264.331314 
L 177.700781 257.497231 
L 178.572656 253.285938 
L 179.444531 250.04651 
L 180.316406 247.686541 
L 180.970313 246.453893 
L 181.624219 245.659792 
L 182.278125 245.29069 
L 182.714062 245.276356 
L 183.15 245.445715 
L 183.585938 245.798328 
L 184.239844 246.672083 
L 184.89375 247.964728 
L 185.547656 249.686413 
L 186.419531 252.676877 
L 187.291406 256.511806 
L 188.163281 261.268907 
L 189.253125 268.683435 
L 190.342969 278.03318 
L 191.432812 289.824529 
L 192.304688 301.567699 
L 193.176562 316.136869 
L 194.048437 334.828005 
L 194.489531 346.6 
M 199.815146 346.6 
L 200.5875 328.593806 
L 201.459375 313.11742 
L 202.33125 301.015285 
L 203.421094 289.209171 
L 204.510937 280.130667 
L 205.600781 273.162366 
L 206.472656 268.845248 
L 207.344531 265.501342 
L 208.216406 263.038218 
L 208.870312 261.729055 
L 209.524219 260.859159 
L 210.178125 260.414969 
L 210.614062 260.350965 
L 211.05 260.470962 
L 211.485937 260.774518 
L 212.139844 261.57525 
L 212.79375 262.795542 
L 213.447656 264.445533 
L 214.319531 267.341417 
L 215.191406 271.082899 
L 216.063281 275.747669 
L 216.935156 281.445526 
L 218.025 290.262682 
L 219.114844 301.401159 
L 219.986719 312.478671 
L 220.858594 326.162754 
L 221.730469 343.5652 
L 221.859014 346.6 
M 228.263526 346.6 
L 228.923437 333.583588 
L 229.795312 319.874059 
L 230.885156 306.619736 
L 231.975 296.448725 
L 233.064844 288.599577 
L 234.154687 282.612247 
L 235.026562 278.962579 
L 235.898437 276.214647 
L 236.770312 274.297434 
L 237.424219 273.374844 
L 238.078125 272.878366 
L 238.514062 272.779726 
L 238.95 272.865263 
L 239.385937 273.134533 
L 240.039844 273.884164 
L 240.69375 275.05374 
L 241.347656 276.653398 
L 242.219531 279.482755 
L 243.091406 283.158372 
L 243.963281 287.757927 
L 244.835156 293.391209 
L 245.925 302.128533 
L 247.014844 313.188144 
L 247.886719 324.203248 
L 248.758594 337.82552 
L 249.227175 346.6 
M 256.720379 346.6 
L 257.477344 334.0744 
L 258.349219 322.513397 
L 259.439062 311.155633 
L 260.528906 302.377451 
L 261.61875 295.620447 
L 262.490625 291.430919 
L 263.3625 288.189662 
L 264.234375 285.811905 
L 264.888281 284.558953 
L 265.542188 283.740812 
L 266.196094 283.345666 
L 266.632031 283.313643 
L 267.067969 283.465574 
L 267.503906 283.80146 
L 268.157812 284.652409 
L 268.811719 285.926372 
L 269.465625 287.635174 
L 270.3375 290.62079 
L 271.209375 294.469994 
L 272.08125 299.26758 
L 272.953125 305.133143 
L 274.042969 314.23134 
L 274.914844 323.236309 
L 275.786719 334.204483 
L 276.588836 346.6 
M 285.180434 346.6 
L 286.03125 334.645078 
L 287.121094 322.622073 
L 288.210938 313.329222 
L 289.300781 306.149069 
L 290.172656 301.664237 
L 291.044531 298.154163 
L 291.916406 295.526394 
L 292.570312 294.094734 
L 293.224219 293.103176 
L 293.878125 292.53815 
L 294.314062 292.394044 
L 294.75 292.434299 
L 295.185938 292.658471 
L 295.839844 293.340794 
L 296.49375 294.443469 
L 297.147656 295.976626 
L 298.019531 298.717935 
L 298.891406 302.306202 
L 299.763281 306.819096 
L 300.635156 312.366399 
L 301.725 320.997192 
L 302.596875 329.544087 
L 303.46875 339.936142 
L 303.945186 346.6 
M 313.649951 346.6 
L 314.585156 335.297596 
L 315.675 324.963476 
L 316.764844 316.952839 
L 317.854688 310.805615 
L 318.726562 307.029163 
L 319.598437 304.155439 
L 320.470313 302.113412 
L 321.124219 301.097849 
L 321.778125 300.508935 
L 322.214063 300.348969 
L 322.65 300.373415 
L 323.085938 300.58183 
L 323.739844 301.240613 
L 324.39375 302.319862 
L 325.047656 303.829706 
L 325.919531 306.540105 
L 326.791406 310.09766 
L 327.663281 314.580038 
L 328.535156 320.097018 
L 329.407031 326.803568 
L 330.278906 334.921781 
L 331.293007 346.6 
M 342.128208 346.6 
L 343.139063 336.034261 
L 344.228906 327.128225 
L 345.31875 320.244462 
L 346.190625 315.954308 
L 347.0625 312.613109 
L 347.934375 310.136087 
L 348.588281 308.809125 
L 349.242188 307.917348 
L 349.896094 307.448938 
L 350.332031 307.368275 
L 350.767969 307.47173 
L 351.203906 307.759301 
L 351.857813 308.538079 
L 352.511719 309.74023 
L 353.165625 311.377575 
L 354.0375 314.268464 
L 354.909375 318.023562 
L 355.78125 322.727655 
L 356.653125 328.500333 
L 357.525 335.510814 
L 358.396875 344.003083 
L 358.632462 346.6 
M 370.617242 346.6 
L 371.692969 336.857752 
L 372.782813 329.187815 
L 373.872656 323.312546 
L 374.744531 319.720874 
L 375.616406 317.011995 
L 376.488281 315.121066 
L 377.142188 314.212773 
L 377.796094 313.72791 
L 378.232031 313.636315 
L 378.667969 313.728864 
L 379.103906 314.005558 
L 379.757812 314.768072 
L 380.411719 315.954021 
L 381.065625 317.575226 
L 381.9375 320.444691 
L 382.809375 324.178473 
L 383.68125 328.861357 
L 384.553125 334.612932 
L 385.425 341.602416 
L 385.958176 346.6 
M 399.122738 346.6 
L 400.028906 339.306709 
L 401.11875 332.370662 
L 401.990625 328.038914 
L 402.8625 324.656328 
L 403.734375 322.138124 
L 404.388281 320.780409 
L 405.042188 319.857991 
L 405.696094 319.359053 
L 406.132031 319.258101 
L 406.567969 319.341316 
L 407.003906 319.608696 
L 407.657812 320.35728 
L 408.311719 321.529347 
L 408.965625 323.136717 
L 409.8375 325.987809 
L 410.709375 329.7033 
L 411.58125 334.367977 
L 412.453125 340.101426 
L 413.269902 346.6 
L 413.269902 346.6 
" style="fill:none;stroke:#1f77b4;stroke-linecap:square;stroke-width:1.5;"/>
   </g>
   <g id="line2d_18">
    <path clip-path="url(#p12d6b4298a)" d="M 85.5 307.584 
L 85.5 43.671273 
" style="fill:none;stroke:#008000;stroke-dasharray:6.4,1.6,1,1.6;stroke-dashoffset:0;"/>
   </g>
   <g id="patch_3">
    <path d="M 57.6 307.584 
L 57.6 41.472 
" style="fill:none;stroke:#000000;stroke-linecap:square;stroke-linejoin:miter;stroke-width:0.8;"/>
   </g>
   <g id="patch_4">
    <path d="M 414.72 307.584 
L 414.72 41.472 
" style="fill:none;stroke:#000000;stroke-linecap:square;stroke-linejoin:miter;stroke-width:0.8;"/>
   </g>
   <g id="patch_5">
    <path d="M 57.6 307.584 
L 414.72 307.584 
" style="fill:none;stroke:#000000;stroke-linecap:square;stroke-linejoin:miter;stroke-width:0.8;"/>
   </g>
   <g id="patch_6">
    <path d="M 57.6 41.472 
L 414.72 41.472 
" style="fill:none;stroke:#000000;stroke-linecap:square;stroke-linejoin:miter;stroke-width:0.8;"/>
   </g>
  </g>
 </g>
 <defs>
  <clipPath id="p12d6b4298a">
   <rect height="266.112" width="357.12" x="57.6" y="41.472"/>
  </clipPath>
 </defs>
</svg>
