<?xml version="1.0" encoding="utf-8" standalone="no"?>
<!DOCTYPE svg PUBLIC "-//W3C//DTD SVG 1.1//EN"
  "http://www.w3.org/Graphics/SVG/1.1/DTD/svg11.dtd">
<!-- Created with matplotlib (https://matplotlib.org/) -->
<svg height="288pt" version="1.1" viewBox="0 0 720 288" width="720pt" xmlns="http://www.w3.org/2000/svg" xmlns:xlink="http://www.w3.org/1999/xlink">
 <defs>
  <style type="text/css">
*{stroke-linecap:butt;stroke-linejoin:round;}
  </style>
 </defs>
 <g id="figure_1">
  <g id="patch_1">
   <path d="M 0 288 
L 720 288 
L 720 0 
L 0 0 
z
" style="fill:#ffffff;"/>
  </g>
  <g id="axes_1">
   <g id="patch_2">
    <path d="M 59.24 246.04 
L 698.175 246.04 
L 698.175 26.88 
L 59.24 26.88 
z
" style="fill:#ffffff;"/>
   </g>
   <g id="matplotlib.axis_1">
    <g id="xtick_1">
     <g id="line2d_1">
      <path clip-path="url(#p63838e02fc)" d="M 59.24 246.04 
L 59.24 26.88 
" style="fill:none;stroke:#b0b0b0;stroke-linecap:square;stroke-width:0.8;"/>
     </g>
     <g id="line2d_2">
      <defs>
       <path d="M 0 0 
L 0 3.5 
" id="m0256047831" style="stroke:#000000;stroke-width:0.8;"/>
      </defs>
      <g>
       <use style="stroke:#000000;stroke-width:0.8;" x="59.24" xlink:href="#m0256047831" y="246.04"/>
      </g>
     </g>
     <g id="text_1">
      <!-- 0.00 -->
      <defs>
       <path d="M 31.78125 66.40625 
Q 24.171875 66.40625 20.328125 58.90625 
Q 16.5 51.421875 16.5 36.375 
Q 16.5 21.390625 20.328125 13.890625 
Q 24.171875 6.390625 31.78125 6.390625 
Q 39.453125 6.390625 43.28125 13.890625 
Q 47.125 21.390625 47.125 36.375 
Q 47.125 51.421875 43.28125 58.90625 
Q 39.453125 66.40625 31.78125 66.40625 
z
M 31.78125 74.21875 
Q 44.046875 74.21875 50.515625 64.515625 
Q 56.984375 54.828125 56.984375 36.375 
Q 56.984375 17.96875 50.515625 8.265625 
Q 44.046875 -1.421875 31.78125 -1.421875 
Q 19.53125 -1.421875 13.0625 8.265625 
Q 6.59375 17.96875 6.59375 36.375 
Q 6.59375 54.828125 13.0625 64.515625 
Q 19.53125 74.21875 31.78125 74.21875 
z
" id="DejaVuSans-48"/>
       <path d="M 10.6875 12.40625 
L 21 12.40625 
L 21 0 
L 10.6875 0 
z
" id="DejaVuSans-46"/>
      </defs>
      <g transform="translate(48.107188 260.638438)scale(0.1 -0.1)">
       <use xlink:href="#DejaVuSans-48"/>
       <use x="63.623047" xlink:href="#DejaVuSans-46"/>
       <use x="95.410156" xlink:href="#DejaVuSans-48"/>
       <use x="159.033203" xlink:href="#DejaVuSans-48"/>
      </g>
     </g>
    </g>
    <g id="xtick_2">
     <g id="line2d_3">
      <path clip-path="url(#p63838e02fc)" d="M 187.027 246.04 
L 187.027 26.88 
" style="fill:none;stroke:#b0b0b0;stroke-linecap:square;stroke-width:0.8;"/>
     </g>
     <g id="line2d_4">
      <g>
       <use style="stroke:#000000;stroke-width:0.8;" x="187.027" xlink:href="#m0256047831" y="246.04"/>
      </g>
     </g>
     <g id="text_2">
      <!-- 0.01 -->
      <defs>
       <path d="M 12.40625 8.296875 
L 28.515625 8.296875 
L 28.515625 63.921875 
L 10.984375 60.40625 
L 10.984375 69.390625 
L 28.421875 72.90625 
L 38.28125 72.90625 
L 38.28125 8.296875 
L 54.390625 8.296875 
L 54.390625 0 
L 12.40625 0 
z
" id="DejaVuSans-49"/>
      </defs>
      <g transform="translate(175.894188 260.638438)scale(0.1 -0.1)">
       <use xlink:href="#DejaVuSans-48"/>
       <use x="63.623047" xlink:href="#DejaVuSans-46"/>
       <use x="95.410156" xlink:href="#DejaVuSans-48"/>
       <use x="159.033203" xlink:href="#DejaVuSans-49"/>
      </g>
     </g>
    </g>
    <g id="xtick_3">
     <g id="line2d_5">
      <path clip-path="url(#p63838e02fc)" d="M 314.814 246.04 
L 314.814 26.88 
" style="fill:none;stroke:#b0b0b0;stroke-linecap:square;stroke-width:0.8;"/>
     </g>
     <g id="line2d_6">
      <g>
       <use style="stroke:#000000;stroke-width:0.8;" x="314.814" xlink:href="#m0256047831" y="246.04"/>
      </g>
     </g>
     <g id="text_3">
      <!-- 0.02 -->
      <defs>
       <path d="M 19.1875 8.296875 
L 53.609375 8.296875 
L 53.609375 0 
L 7.328125 0 
L 7.328125 8.296875 
Q 12.9375 14.109375 22.625 23.890625 
Q 32.328125 33.6875 34.8125 36.53125 
Q 39.546875 41.84375 41.421875 45.53125 
Q 43.3125 49.21875 43.3125 52.78125 
Q 43.3125 58.59375 39.234375 62.25 
Q 35.15625 65.921875 28.609375 65.921875 
Q 23.96875 65.921875 18.8125 64.3125 
Q 13.671875 62.703125 7.8125 59.421875 
L 7.8125 69.390625 
Q 13.765625 71.78125 18.9375 73 
Q 24.125 74.21875 28.421875 74.21875 
Q 39.75 74.21875 46.484375 68.546875 
Q 53.21875 62.890625 53.21875 53.421875 
Q 53.21875 48.921875 51.53125 44.890625 
Q 49.859375 40.875 45.40625 35.40625 
Q 44.1875 33.984375 37.640625 27.21875 
Q 31.109375 20.453125 19.1875 8.296875 
z
" id="DejaVuSans-50"/>
      </defs>
      <g transform="translate(303.681188 260.638438)scale(0.1 -0.1)">
       <use xlink:href="#DejaVuSans-48"/>
       <use x="63.623047" xlink:href="#DejaVuSans-46"/>
       <use x="95.410156" xlink:href="#DejaVuSans-48"/>
       <use x="159.033203" xlink:href="#DejaVuSans-50"/>
      </g>
     </g>
    </g>
    <g id="xtick_4">
     <g id="line2d_7">
      <path clip-path="url(#p63838e02fc)" d="M 442.601 246.04 
L 442.601 26.88 
" style="fill:none;stroke:#b0b0b0;stroke-linecap:square;stroke-width:0.8;"/>
     </g>
     <g id="line2d_8">
      <g>
       <use style="stroke:#000000;stroke-width:0.8;" x="442.601" xlink:href="#m0256047831" y="246.04"/>
      </g>
     </g>
     <g id="text_4">
      <!-- 0.03 -->
      <defs>
       <path d="M 40.578125 39.3125 
Q 47.65625 37.796875 51.625 33 
Q 55.609375 28.21875 55.609375 21.1875 
Q 55.609375 10.40625 48.1875 4.484375 
Q 40.765625 -1.421875 27.09375 -1.421875 
Q 22.515625 -1.421875 17.65625 -0.515625 
Q 12.796875 0.390625 7.625 2.203125 
L 7.625 11.71875 
Q 11.71875 9.328125 16.59375 8.109375 
Q 21.484375 6.890625 26.8125 6.890625 
Q 36.078125 6.890625 40.9375 10.546875 
Q 45.796875 14.203125 45.796875 21.1875 
Q 45.796875 27.640625 41.28125 31.265625 
Q 36.765625 34.90625 28.71875 34.90625 
L 20.21875 34.90625 
L 20.21875 43.015625 
L 29.109375 43.015625 
Q 36.375 43.015625 40.234375 45.921875 
Q 44.09375 48.828125 44.09375 54.296875 
Q 44.09375 59.90625 40.109375 62.90625 
Q 36.140625 65.921875 28.71875 65.921875 
Q 24.65625 65.921875 20.015625 65.03125 
Q 15.375 64.15625 9.8125 62.3125 
L 9.8125 71.09375 
Q 15.4375 72.65625 20.34375 73.4375 
Q 25.25 74.21875 29.59375 74.21875 
Q 40.828125 74.21875 47.359375 69.109375 
Q 53.90625 64.015625 53.90625 55.328125 
Q 53.90625 49.265625 50.4375 45.09375 
Q 46.96875 40.921875 40.578125 39.3125 
z
" id="DejaVuSans-51"/>
      </defs>
      <g transform="translate(431.468187 260.638438)scale(0.1 -0.1)">
       <use xlink:href="#DejaVuSans-48"/>
       <use x="63.623047" xlink:href="#DejaVuSans-46"/>
       <use x="95.410156" xlink:href="#DejaVuSans-48"/>
       <use x="159.033203" xlink:href="#DejaVuSans-51"/>
      </g>
     </g>
    </g>
    <g id="xtick_5">
     <g id="line2d_9">
      <path clip-path="url(#p63838e02fc)" d="M 570.388 246.04 
L 570.388 26.88 
" style="fill:none;stroke:#b0b0b0;stroke-linecap:square;stroke-width:0.8;"/>
     </g>
     <g id="line2d_10">
      <g>
       <use style="stroke:#000000;stroke-width:0.8;" x="570.388" xlink:href="#m0256047831" y="246.04"/>
      </g>
     </g>
     <g id="text_5">
      <!-- 0.04 -->
      <defs>
       <path d="M 37.796875 64.3125 
L 12.890625 25.390625 
L 37.796875 25.390625 
z
M 35.203125 72.90625 
L 47.609375 72.90625 
L 47.609375 25.390625 
L 58.015625 25.390625 
L 58.015625 17.1875 
L 47.609375 17.1875 
L 47.609375 0 
L 37.796875 0 
L 37.796875 17.1875 
L 4.890625 17.1875 
L 4.890625 26.703125 
z
" id="DejaVuSans-52"/>
      </defs>
      <g transform="translate(559.255188 260.638438)scale(0.1 -0.1)">
       <use xlink:href="#DejaVuSans-48"/>
       <use x="63.623047" xlink:href="#DejaVuSans-46"/>
       <use x="95.410156" xlink:href="#DejaVuSans-48"/>
       <use x="159.033203" xlink:href="#DejaVuSans-52"/>
      </g>
     </g>
    </g>
    <g id="xtick_6">
     <g id="line2d_11">
      <path clip-path="url(#p63838e02fc)" d="M 698.175 246.04 
L 698.175 26.88 
" style="fill:none;stroke:#b0b0b0;stroke-linecap:square;stroke-width:0.8;"/>
     </g>
     <g id="line2d_12">
      <g>
       <use style="stroke:#000000;stroke-width:0.8;" x="698.175" xlink:href="#m0256047831" y="246.04"/>
      </g>
     </g>
     <g id="text_6">
      <!-- 0.05 -->
      <defs>
       <path d="M 10.796875 72.90625 
L 49.515625 72.90625 
L 49.515625 64.59375 
L 19.828125 64.59375 
L 19.828125 46.734375 
Q 21.96875 47.46875 24.109375 47.828125 
Q 26.265625 48.1875 28.421875 48.1875 
Q 40.625 48.1875 47.75 41.5 
Q 54.890625 34.8125 54.890625 23.390625 
Q 54.890625 11.625 47.5625 5.09375 
Q 40.234375 -1.421875 26.90625 -1.421875 
Q 22.3125 -1.421875 17.546875 -0.640625 
Q 12.796875 0.140625 7.71875 1.703125 
L 7.71875 11.625 
Q 12.109375 9.234375 16.796875 8.0625 
Q 21.484375 6.890625 26.703125 6.890625 
Q 35.15625 6.890625 40.078125 11.328125 
Q 45.015625 15.765625 45.015625 23.390625 
Q 45.015625 31 40.078125 35.4375 
Q 35.15625 39.890625 26.703125 39.890625 
Q 22.75 39.890625 18.8125 39.015625 
Q 14.890625 38.140625 10.796875 36.28125 
z
" id="DejaVuSans-53"/>
      </defs>
      <g transform="translate(687.042188 260.638438)scale(0.1 -0.1)">
       <use xlink:href="#DejaVuSans-48"/>
       <use x="63.623047" xlink:href="#DejaVuSans-46"/>
       <use x="95.410156" xlink:href="#DejaVuSans-48"/>
       <use x="159.033203" xlink:href="#DejaVuSans-53"/>
      </g>
     </g>
    </g>
    <g id="text_7">
     <!-- Normalized frequency -->
     <defs>
      <path d="M 9.8125 72.90625 
L 23.09375 72.90625 
L 55.421875 11.921875 
L 55.421875 72.90625 
L 64.984375 72.90625 
L 64.984375 0 
L 51.703125 0 
L 19.390625 60.984375 
L 19.390625 0 
L 9.8125 0 
z
" id="DejaVuSans-78"/>
      <path d="M 30.609375 48.390625 
Q 23.390625 48.390625 19.1875 42.75 
Q 14.984375 37.109375 14.984375 27.296875 
Q 14.984375 17.484375 19.15625 11.84375 
Q 23.34375 6.203125 30.609375 6.203125 
Q 37.796875 6.203125 41.984375 11.859375 
Q 46.1875 17.53125 46.1875 27.296875 
Q 46.1875 37.015625 41.984375 42.703125 
Q 37.796875 48.390625 30.609375 48.390625 
z
M 30.609375 56 
Q 42.328125 56 49.015625 48.375 
Q 55.71875 40.765625 55.71875 27.296875 
Q 55.71875 13.875 49.015625 6.21875 
Q 42.328125 -1.421875 30.609375 -1.421875 
Q 18.84375 -1.421875 12.171875 6.21875 
Q 5.515625 13.875 5.515625 27.296875 
Q 5.515625 40.765625 12.171875 48.375 
Q 18.84375 56 30.609375 56 
z
" id="DejaVuSans-111"/>
      <path d="M 41.109375 46.296875 
Q 39.59375 47.171875 37.8125 47.578125 
Q 36.03125 48 33.890625 48 
Q 26.265625 48 22.1875 43.046875 
Q 18.109375 38.09375 18.109375 28.8125 
L 18.109375 0 
L 9.078125 0 
L 9.078125 54.6875 
L 18.109375 54.6875 
L 18.109375 46.1875 
Q 20.953125 51.171875 25.484375 53.578125 
Q 30.03125 56 36.53125 56 
Q 37.453125 56 38.578125 55.875 
Q 39.703125 55.765625 41.0625 55.515625 
z
" id="DejaVuSans-114"/>
      <path d="M 52 44.1875 
Q 55.375 50.25 60.0625 53.125 
Q 64.75 56 71.09375 56 
Q 79.640625 56 84.28125 50.015625 
Q 88.921875 44.046875 88.921875 33.015625 
L 88.921875 0 
L 79.890625 0 
L 79.890625 32.71875 
Q 79.890625 40.578125 77.09375 44.375 
Q 74.3125 48.1875 68.609375 48.1875 
Q 61.625 48.1875 57.5625 43.546875 
Q 53.515625 38.921875 53.515625 30.90625 
L 53.515625 0 
L 44.484375 0 
L 44.484375 32.71875 
Q 44.484375 40.625 41.703125 44.40625 
Q 38.921875 48.1875 33.109375 48.1875 
Q 26.21875 48.1875 22.15625 43.53125 
Q 18.109375 38.875 18.109375 30.90625 
L 18.109375 0 
L 9.078125 0 
L 9.078125 54.6875 
L 18.109375 54.6875 
L 18.109375 46.1875 
Q 21.1875 51.21875 25.484375 53.609375 
Q 29.78125 56 35.6875 56 
Q 41.65625 56 45.828125 52.96875 
Q 50 49.953125 52 44.1875 
z
" id="DejaVuSans-109"/>
      <path d="M 34.28125 27.484375 
Q 23.390625 27.484375 19.1875 25 
Q 14.984375 22.515625 14.984375 16.5 
Q 14.984375 11.71875 18.140625 8.90625 
Q 21.296875 6.109375 26.703125 6.109375 
Q 34.1875 6.109375 38.703125 11.40625 
Q 43.21875 16.703125 43.21875 25.484375 
L 43.21875 27.484375 
z
M 52.203125 31.203125 
L 52.203125 0 
L 43.21875 0 
L 43.21875 8.296875 
Q 40.140625 3.328125 35.546875 0.953125 
Q 30.953125 -1.421875 24.3125 -1.421875 
Q 15.921875 -1.421875 10.953125 3.296875 
Q 6 8.015625 6 15.921875 
Q 6 25.140625 12.171875 29.828125 
Q 18.359375 34.515625 30.609375 34.515625 
L 43.21875 34.515625 
L 43.21875 35.40625 
Q 43.21875 41.609375 39.140625 45 
Q 35.0625 48.390625 27.6875 48.390625 
Q 23 48.390625 18.546875 47.265625 
Q 14.109375 46.140625 10.015625 43.890625 
L 10.015625 52.203125 
Q 14.9375 54.109375 19.578125 55.046875 
Q 24.21875 56 28.609375 56 
Q 40.484375 56 46.34375 49.84375 
Q 52.203125 43.703125 52.203125 31.203125 
z
" id="DejaVuSans-97"/>
      <path d="M 9.421875 75.984375 
L 18.40625 75.984375 
L 18.40625 0 
L 9.421875 0 
z
" id="DejaVuSans-108"/>
      <path d="M 9.421875 54.6875 
L 18.40625 54.6875 
L 18.40625 0 
L 9.421875 0 
z
M 9.421875 75.984375 
L 18.40625 75.984375 
L 18.40625 64.59375 
L 9.421875 64.59375 
z
" id="DejaVuSans-105"/>
      <path d="M 5.515625 54.6875 
L 48.1875 54.6875 
L 48.1875 46.484375 
L 14.40625 7.171875 
L 48.1875 7.171875 
L 48.1875 0 
L 4.296875 0 
L 4.296875 8.203125 
L 38.09375 47.515625 
L 5.515625 47.515625 
z
" id="DejaVuSans-122"/>
      <path d="M 56.203125 29.59375 
L 56.203125 25.203125 
L 14.890625 25.203125 
Q 15.484375 15.921875 20.484375 11.0625 
Q 25.484375 6.203125 34.421875 6.203125 
Q 39.59375 6.203125 44.453125 7.46875 
Q 49.3125 8.734375 54.109375 11.28125 
L 54.109375 2.78125 
Q 49.265625 0.734375 44.1875 -0.34375 
Q 39.109375 -1.421875 33.890625 -1.421875 
Q 20.796875 -1.421875 13.15625 6.1875 
Q 5.515625 13.8125 5.515625 26.8125 
Q 5.515625 40.234375 12.765625 48.109375 
Q 20.015625 56 32.328125 56 
Q 43.359375 56 49.78125 48.890625 
Q 56.203125 41.796875 56.203125 29.59375 
z
M 47.21875 32.234375 
Q 47.125 39.59375 43.09375 43.984375 
Q 39.0625 48.390625 32.421875 48.390625 
Q 24.90625 48.390625 20.390625 44.140625 
Q 15.875 39.890625 15.1875 32.171875 
z
" id="DejaVuSans-101"/>
      <path d="M 45.40625 46.390625 
L 45.40625 75.984375 
L 54.390625 75.984375 
L 54.390625 0 
L 45.40625 0 
L 45.40625 8.203125 
Q 42.578125 3.328125 38.25 0.953125 
Q 33.9375 -1.421875 27.875 -1.421875 
Q 17.96875 -1.421875 11.734375 6.484375 
Q 5.515625 14.40625 5.515625 27.296875 
Q 5.515625 40.1875 11.734375 48.09375 
Q 17.96875 56 27.875 56 
Q 33.9375 56 38.25 53.625 
Q 42.578125 51.265625 45.40625 46.390625 
z
M 14.796875 27.296875 
Q 14.796875 17.390625 18.875 11.75 
Q 22.953125 6.109375 30.078125 6.109375 
Q 37.203125 6.109375 41.296875 11.75 
Q 45.40625 17.390625 45.40625 27.296875 
Q 45.40625 37.203125 41.296875 42.84375 
Q 37.203125 48.484375 30.078125 48.484375 
Q 22.953125 48.484375 18.875 42.84375 
Q 14.796875 37.203125 14.796875 27.296875 
z
" id="DejaVuSans-100"/>
      <path id="DejaVuSans-32"/>
      <path d="M 37.109375 75.984375 
L 37.109375 68.5 
L 28.515625 68.5 
Q 23.6875 68.5 21.796875 66.546875 
Q 19.921875 64.59375 19.921875 59.515625 
L 19.921875 54.6875 
L 34.71875 54.6875 
L 34.71875 47.703125 
L 19.921875 47.703125 
L 19.921875 0 
L 10.890625 0 
L 10.890625 47.703125 
L 2.296875 47.703125 
L 2.296875 54.6875 
L 10.890625 54.6875 
L 10.890625 58.5 
Q 10.890625 67.625 15.140625 71.796875 
Q 19.390625 75.984375 28.609375 75.984375 
z
" id="DejaVuSans-102"/>
      <path d="M 14.796875 27.296875 
Q 14.796875 17.390625 18.875 11.75 
Q 22.953125 6.109375 30.078125 6.109375 
Q 37.203125 6.109375 41.296875 11.75 
Q 45.40625 17.390625 45.40625 27.296875 
Q 45.40625 37.203125 41.296875 42.84375 
Q 37.203125 48.484375 30.078125 48.484375 
Q 22.953125 48.484375 18.875 42.84375 
Q 14.796875 37.203125 14.796875 27.296875 
z
M 45.40625 8.203125 
Q 42.578125 3.328125 38.25 0.953125 
Q 33.9375 -1.421875 27.875 -1.421875 
Q 17.96875 -1.421875 11.734375 6.484375 
Q 5.515625 14.40625 5.515625 27.296875 
Q 5.515625 40.1875 11.734375 48.09375 
Q 17.96875 56 27.875 56 
Q 33.9375 56 38.25 53.625 
Q 42.578125 51.265625 45.40625 46.390625 
L 45.40625 54.6875 
L 54.390625 54.6875 
L 54.390625 -20.796875 
L 45.40625 -20.796875 
z
" id="DejaVuSans-113"/>
      <path d="M 8.5 21.578125 
L 8.5 54.6875 
L 17.484375 54.6875 
L 17.484375 21.921875 
Q 17.484375 14.15625 20.5 10.265625 
Q 23.53125 6.390625 29.59375 6.390625 
Q 36.859375 6.390625 41.078125 11.03125 
Q 45.3125 15.671875 45.3125 23.6875 
L 45.3125 54.6875 
L 54.296875 54.6875 
L 54.296875 0 
L 45.3125 0 
L 45.3125 8.40625 
Q 42.046875 3.421875 37.71875 1 
Q 33.40625 -1.421875 27.6875 -1.421875 
Q 18.265625 -1.421875 13.375 4.4375 
Q 8.5 10.296875 8.5 21.578125 
z
M 31.109375 56 
z
" id="DejaVuSans-117"/>
      <path d="M 54.890625 33.015625 
L 54.890625 0 
L 45.90625 0 
L 45.90625 32.71875 
Q 45.90625 40.484375 42.875 44.328125 
Q 39.84375 48.1875 33.796875 48.1875 
Q 26.515625 48.1875 22.3125 43.546875 
Q 18.109375 38.921875 18.109375 30.90625 
L 18.109375 0 
L 9.078125 0 
L 9.078125 54.6875 
L 18.109375 54.6875 
L 18.109375 46.1875 
Q 21.34375 51.125 25.703125 53.5625 
Q 30.078125 56 35.796875 56 
Q 45.21875 56 50.046875 50.171875 
Q 54.890625 44.34375 54.890625 33.015625 
z
" id="DejaVuSans-110"/>
      <path d="M 48.78125 52.59375 
L 48.78125 44.1875 
Q 44.96875 46.296875 41.140625 47.34375 
Q 37.3125 48.390625 33.40625 48.390625 
Q 24.65625 48.390625 19.8125 42.84375 
Q 14.984375 37.3125 14.984375 27.296875 
Q 14.984375 17.28125 19.8125 11.734375 
Q 24.65625 6.203125 33.40625 6.203125 
Q 37.3125 6.203125 41.140625 7.25 
Q 44.96875 8.296875 48.78125 10.40625 
L 48.78125 2.09375 
Q 45.015625 0.34375 40.984375 -0.53125 
Q 36.96875 -1.421875 32.421875 -1.421875 
Q 20.0625 -1.421875 12.78125 6.34375 
Q 5.515625 14.109375 5.515625 27.296875 
Q 5.515625 40.671875 12.859375 48.328125 
Q 20.21875 56 33.015625 56 
Q 37.15625 56 41.109375 55.140625 
Q 45.0625 54.296875 48.78125 52.59375 
z
" id="DejaVuSans-99"/>
      <path d="M 32.171875 -5.078125 
Q 28.375 -14.84375 24.75 -17.8125 
Q 21.140625 -20.796875 15.09375 -20.796875 
L 7.90625 -20.796875 
L 7.90625 -13.28125 
L 13.1875 -13.28125 
Q 16.890625 -13.28125 18.9375 -11.515625 
Q 21 -9.765625 23.484375 -3.21875 
L 25.09375 0.875 
L 2.984375 54.6875 
L 12.5 54.6875 
L 29.59375 11.921875 
L 46.6875 54.6875 
L 56.203125 54.6875 
z
" id="DejaVuSans-121"/>
     </defs>
     <g transform="translate(323.686406 274.316562)scale(0.1 -0.1)">
      <use xlink:href="#DejaVuSans-78"/>
      <use x="74.804688" xlink:href="#DejaVuSans-111"/>
      <use x="135.986328" xlink:href="#DejaVuSans-114"/>
      <use x="175.349609" xlink:href="#DejaVuSans-109"/>
      <use x="272.761719" xlink:href="#DejaVuSans-97"/>
      <use x="334.041016" xlink:href="#DejaVuSans-108"/>
      <use x="361.824219" xlink:href="#DejaVuSans-105"/>
      <use x="389.607422" xlink:href="#DejaVuSans-122"/>
      <use x="442.097656" xlink:href="#DejaVuSans-101"/>
      <use x="503.621094" xlink:href="#DejaVuSans-100"/>
      <use x="567.097656" xlink:href="#DejaVuSans-32"/>
      <use x="598.884766" xlink:href="#DejaVuSans-102"/>
      <use x="634.089844" xlink:href="#DejaVuSans-114"/>
      <use x="672.953125" xlink:href="#DejaVuSans-101"/>
      <use x="734.476562" xlink:href="#DejaVuSans-113"/>
      <use x="797.953125" xlink:href="#DejaVuSans-117"/>
      <use x="861.332031" xlink:href="#DejaVuSans-101"/>
      <use x="922.855469" xlink:href="#DejaVuSans-110"/>
      <use x="986.234375" xlink:href="#DejaVuSans-99"/>
      <use x="1041.214844" xlink:href="#DejaVuSans-121"/>
     </g>
    </g>
   </g>
   <g id="matplotlib.axis_2">
    <g id="ytick_1">
     <g id="line2d_13">
      <path clip-path="url(#p63838e02fc)" d="M 59.24 246.04 
L 698.175 246.04 
" style="fill:none;stroke:#b0b0b0;stroke-linecap:square;stroke-width:0.8;"/>
     </g>
     <g id="line2d_14">
      <defs>
       <path d="M 0 0 
L -3.5 0 
" id="mfffbc75483" style="stroke:#000000;stroke-width:0.8;"/>
      </defs>
      <g>
       <use style="stroke:#000000;stroke-width:0.8;" x="59.24" xlink:href="#mfffbc75483" y="246.04"/>
      </g>
     </g>
     <g id="text_8">
      <!-- −120 -->
      <defs>
       <path d="M 10.59375 35.5 
L 73.1875 35.5 
L 73.1875 27.203125 
L 10.59375 27.203125 
z
" id="DejaVuSans-8722"/>
      </defs>
      <g transform="translate(24.772813 249.839219)scale(0.1 -0.1)">
       <use xlink:href="#DejaVuSans-8722"/>
       <use x="83.789062" xlink:href="#DejaVuSans-49"/>
       <use x="147.412109" xlink:href="#DejaVuSans-50"/>
       <use x="211.035156" xlink:href="#DejaVuSans-48"/>
      </g>
     </g>
    </g>
    <g id="ytick_2">
     <g id="line2d_15">
      <path clip-path="url(#p63838e02fc)" d="M 59.24 210.9744 
L 698.175 210.9744 
" style="fill:none;stroke:#b0b0b0;stroke-linecap:square;stroke-width:0.8;"/>
     </g>
     <g id="line2d_16">
      <g>
       <use style="stroke:#000000;stroke-width:0.8;" x="59.24" xlink:href="#mfffbc75483" y="210.9744"/>
      </g>
     </g>
     <g id="text_9">
      <!-- −100 -->
      <g transform="translate(24.772813 214.773619)scale(0.1 -0.1)">
       <use xlink:href="#DejaVuSans-8722"/>
       <use x="83.789062" xlink:href="#DejaVuSans-49"/>
       <use x="147.412109" xlink:href="#DejaVuSans-48"/>
       <use x="211.035156" xlink:href="#DejaVuSans-48"/>
      </g>
     </g>
    </g>
    <g id="ytick_3">
     <g id="line2d_17">
      <path clip-path="url(#p63838e02fc)" d="M 59.24 175.9088 
L 698.175 175.9088 
" style="fill:none;stroke:#b0b0b0;stroke-linecap:square;stroke-width:0.8;"/>
     </g>
     <g id="line2d_18">
      <g>
       <use style="stroke:#000000;stroke-width:0.8;" x="59.24" xlink:href="#mfffbc75483" y="175.9088"/>
      </g>
     </g>
     <g id="text_10">
      <!-- −80 -->
      <defs>
       <path d="M 31.78125 34.625 
Q 24.75 34.625 20.71875 30.859375 
Q 16.703125 27.09375 16.703125 20.515625 
Q 16.703125 13.921875 20.71875 10.15625 
Q 24.75 6.390625 31.78125 6.390625 
Q 38.8125 6.390625 42.859375 10.171875 
Q 46.921875 13.96875 46.921875 20.515625 
Q 46.921875 27.09375 42.890625 30.859375 
Q 38.875 34.625 31.78125 34.625 
z
M 21.921875 38.8125 
Q 15.578125 40.375 12.03125 44.71875 
Q 8.5 49.078125 8.5 55.328125 
Q 8.5 64.0625 14.71875 69.140625 
Q 20.953125 74.21875 31.78125 74.21875 
Q 42.671875 74.21875 48.875 69.140625 
Q 55.078125 64.0625 55.078125 55.328125 
Q 55.078125 49.078125 51.53125 44.71875 
Q 48 40.375 41.703125 38.8125 
Q 48.828125 37.15625 52.796875 32.3125 
Q 56.78125 27.484375 56.78125 20.515625 
Q 56.78125 9.90625 50.3125 4.234375 
Q 43.84375 -1.421875 31.78125 -1.421875 
Q 19.734375 -1.421875 13.25 4.234375 
Q 6.78125 9.90625 6.78125 20.515625 
Q 6.78125 27.484375 10.78125 32.3125 
Q 14.796875 37.15625 21.921875 38.8125 
z
M 18.3125 54.390625 
Q 18.3125 48.734375 21.84375 45.5625 
Q 25.390625 42.390625 31.78125 42.390625 
Q 38.140625 42.390625 41.71875 45.5625 
Q 45.3125 48.734375 45.3125 54.390625 
Q 45.3125 60.0625 41.71875 63.234375 
Q 38.140625 66.40625 31.78125 66.40625 
Q 25.390625 66.40625 21.84375 63.234375 
Q 18.3125 60.0625 18.3125 54.390625 
z
" id="DejaVuSans-56"/>
      </defs>
      <g transform="translate(31.135313 179.708019)scale(0.1 -0.1)">
       <use xlink:href="#DejaVuSans-8722"/>
       <use x="83.789062" xlink:href="#DejaVuSans-56"/>
       <use x="147.412109" xlink:href="#DejaVuSans-48"/>
      </g>
     </g>
    </g>
    <g id="ytick_4">
     <g id="line2d_19">
      <path clip-path="url(#p63838e02fc)" d="M 59.24 140.8432 
L 698.175 140.8432 
" style="fill:none;stroke:#b0b0b0;stroke-linecap:square;stroke-width:0.8;"/>
     </g>
     <g id="line2d_20">
      <g>
       <use style="stroke:#000000;stroke-width:0.8;" x="59.24" xlink:href="#mfffbc75483" y="140.8432"/>
      </g>
     </g>
     <g id="text_11">
      <!-- −60 -->
      <defs>
       <path d="M 33.015625 40.375 
Q 26.375 40.375 22.484375 35.828125 
Q 18.609375 31.296875 18.609375 23.390625 
Q 18.609375 15.53125 22.484375 10.953125 
Q 26.375 6.390625 33.015625 6.390625 
Q 39.65625 6.390625 43.53125 10.953125 
Q 47.40625 15.53125 47.40625 23.390625 
Q 47.40625 31.296875 43.53125 35.828125 
Q 39.65625 40.375 33.015625 40.375 
z
M 52.59375 71.296875 
L 52.59375 62.3125 
Q 48.875 64.0625 45.09375 64.984375 
Q 41.3125 65.921875 37.59375 65.921875 
Q 27.828125 65.921875 22.671875 59.328125 
Q 17.53125 52.734375 16.796875 39.40625 
Q 19.671875 43.65625 24.015625 45.921875 
Q 28.375 48.1875 33.59375 48.1875 
Q 44.578125 48.1875 50.953125 41.515625 
Q 57.328125 34.859375 57.328125 23.390625 
Q 57.328125 12.15625 50.6875 5.359375 
Q 44.046875 -1.421875 33.015625 -1.421875 
Q 20.359375 -1.421875 13.671875 8.265625 
Q 6.984375 17.96875 6.984375 36.375 
Q 6.984375 53.65625 15.1875 63.9375 
Q 23.390625 74.21875 37.203125 74.21875 
Q 40.921875 74.21875 44.703125 73.484375 
Q 48.484375 72.75 52.59375 71.296875 
z
" id="DejaVuSans-54"/>
      </defs>
      <g transform="translate(31.135313 144.642419)scale(0.1 -0.1)">
       <use xlink:href="#DejaVuSans-8722"/>
       <use x="83.789062" xlink:href="#DejaVuSans-54"/>
       <use x="147.412109" xlink:href="#DejaVuSans-48"/>
      </g>
     </g>
    </g>
    <g id="ytick_5">
     <g id="line2d_21">
      <path clip-path="url(#p63838e02fc)" d="M 59.24 105.7776 
L 698.175 105.7776 
" style="fill:none;stroke:#b0b0b0;stroke-linecap:square;stroke-width:0.8;"/>
     </g>
     <g id="line2d_22">
      <g>
       <use style="stroke:#000000;stroke-width:0.8;" x="59.24" xlink:href="#mfffbc75483" y="105.7776"/>
      </g>
     </g>
     <g id="text_12">
      <!-- −40 -->
      <g transform="translate(31.135313 109.576819)scale(0.1 -0.1)">
       <use xlink:href="#DejaVuSans-8722"/>
       <use x="83.789062" xlink:href="#DejaVuSans-52"/>
       <use x="147.412109" xlink:href="#DejaVuSans-48"/>
      </g>
     </g>
    </g>
    <g id="ytick_6">
     <g id="line2d_23">
      <path clip-path="url(#p63838e02fc)" d="M 59.24 70.712 
L 698.175 70.712 
" style="fill:none;stroke:#b0b0b0;stroke-linecap:square;stroke-width:0.8;"/>
     </g>
     <g id="line2d_24">
      <g>
       <use style="stroke:#000000;stroke-width:0.8;" x="59.24" xlink:href="#mfffbc75483" y="70.712"/>
      </g>
     </g>
     <g id="text_13">
      <!-- −20 -->
      <g transform="translate(31.135313 74.511219)scale(0.1 -0.1)">
       <use xlink:href="#DejaVuSans-8722"/>
       <use x="83.789062" xlink:href="#DejaVuSans-50"/>
       <use x="147.412109" xlink:href="#DejaVuSans-48"/>
      </g>
     </g>
    </g>
    <g id="ytick_7">
     <g id="line2d_25">
      <path clip-path="url(#p63838e02fc)" d="M 59.24 35.6464 
L 698.175 35.6464 
" style="fill:none;stroke:#b0b0b0;stroke-linecap:square;stroke-width:0.8;"/>
     </g>
     <g id="line2d_26">
      <g>
       <use style="stroke:#000000;stroke-width:0.8;" x="59.24" xlink:href="#mfffbc75483" y="35.6464"/>
      </g>
     </g>
     <g id="text_14">
      <!-- 0 -->
      <g transform="translate(45.8775 39.445619)scale(0.1 -0.1)">
       <use xlink:href="#DejaVuSans-48"/>
      </g>
     </g>
    </g>
    <g id="text_15">
     <!-- 4th Order -->
     <defs>
      <path d="M 18.3125 70.21875 
L 18.3125 54.6875 
L 36.8125 54.6875 
L 36.8125 47.703125 
L 18.3125 47.703125 
L 18.3125 18.015625 
Q 18.3125 11.328125 20.140625 9.421875 
Q 21.96875 7.515625 27.59375 7.515625 
L 36.8125 7.515625 
L 36.8125 0 
L 27.59375 0 
Q 17.1875 0 13.234375 3.875 
Q 9.28125 7.765625 9.28125 18.015625 
L 9.28125 47.703125 
L 2.6875 47.703125 
L 2.6875 54.6875 
L 9.28125 54.6875 
L 9.28125 70.21875 
z
" id="DejaVuSans-116"/>
      <path d="M 54.890625 33.015625 
L 54.890625 0 
L 45.90625 0 
L 45.90625 32.71875 
Q 45.90625 40.484375 42.875 44.328125 
Q 39.84375 48.1875 33.796875 48.1875 
Q 26.515625 48.1875 22.3125 43.546875 
Q 18.109375 38.921875 18.109375 30.90625 
L 18.109375 0 
L 9.078125 0 
L 9.078125 75.984375 
L 18.109375 75.984375 
L 18.109375 46.1875 
Q 21.34375 51.125 25.703125 53.5625 
Q 30.078125 56 35.796875 56 
Q 45.21875 56 50.046875 50.171875 
Q 54.890625 44.34375 54.890625 33.015625 
z
" id="DejaVuSans-104"/>
      <path d="M 39.40625 66.21875 
Q 28.65625 66.21875 22.328125 58.203125 
Q 16.015625 50.203125 16.015625 36.375 
Q 16.015625 22.609375 22.328125 14.59375 
Q 28.65625 6.59375 39.40625 6.59375 
Q 50.140625 6.59375 56.421875 14.59375 
Q 62.703125 22.609375 62.703125 36.375 
Q 62.703125 50.203125 56.421875 58.203125 
Q 50.140625 66.21875 39.40625 66.21875 
z
M 39.40625 74.21875 
Q 54.734375 74.21875 63.90625 63.9375 
Q 73.09375 53.65625 73.09375 36.375 
Q 73.09375 19.140625 63.90625 8.859375 
Q 54.734375 -1.421875 39.40625 -1.421875 
Q 24.03125 -1.421875 14.8125 8.828125 
Q 5.609375 19.09375 5.609375 36.375 
Q 5.609375 53.65625 14.8125 63.9375 
Q 24.03125 74.21875 39.40625 74.21875 
z
" id="DejaVuSans-79"/>
     </defs>
     <g transform="translate(18.693125 160.569375)rotate(-90)scale(0.1 -0.1)">
      <use xlink:href="#DejaVuSans-52"/>
      <use x="63.623047" xlink:href="#DejaVuSans-116"/>
      <use x="102.832031" xlink:href="#DejaVuSans-104"/>
      <use x="166.210938" xlink:href="#DejaVuSans-32"/>
      <use x="197.998047" xlink:href="#DejaVuSans-79"/>
      <use x="276.708984" xlink:href="#DejaVuSans-114"/>
      <use x="316.072266" xlink:href="#DejaVuSans-100"/>
      <use x="379.548828" xlink:href="#DejaVuSans-101"/>
      <use x="441.072266" xlink:href="#DejaVuSans-114"/>
     </g>
    </g>
   </g>
   <g id="line2d_27">
    <path clip-path="url(#p63838e02fc)" d="M 59.24 35.6464 
L 279.185886 35.757772 
L 497.571873 36.089376 
L 698.79896 36.591528 
L 698.79896 36.591528 
" style="fill:none;stroke:#1f77b4;stroke-linecap:square;stroke-width:1.5;"/>
   </g>
   <g id="line2d_28">
    <path clip-path="url(#p63838e02fc)" d="M 59.24 35.6464 
L 157.513694 35.757553 
L 255.787388 36.091453 
L 354.061082 36.649437 
L 450.774875 37.419523 
L 547.488669 38.411865 
L 642.642563 39.608994 
L 698.79896 40.420164 
L 698.79896 40.420164 
" style="fill:none;stroke:#ff7f0e;stroke-linecap:square;stroke-width:1.5;"/>
   </g>
   <g id="line2d_29">
    <path clip-path="url(#p63838e02fc)" d="M 59.24 35.6464 
L 107.596897 35.759432 
L 155.953794 36.098944 
L 204.310691 36.666193 
L 251.107688 37.433968 
L 297.904685 38.419725 
L 344.701682 39.627021 
L 391.498679 41.060308 
L 436.735776 42.665732 
L 481.972874 44.493261 
L 525.650071 46.474992 
L 569.327268 48.67747 
L 611.444565 51.018222 
L 653.561863 53.580785 
L 694.11926 56.267445 
L 698.79896 56.591733 
L 698.79896 56.591733 
" style="fill:none;stroke:#2ca02c;stroke-linecap:square;stroke-width:1.5;"/>
   </g>
   <g id="line2d_30">
    <path clip-path="url(#p63838e02fc)" d="M 59.24 35.6464 
L 82.638499 35.753515 
L 106.036997 36.075225 
L 129.435496 36.612632 
L 152.833994 37.367592 
L 176.232493 38.342746 
L 199.630991 39.541565 
L 223.02949 40.968411 
L 246.427988 42.628612 
L 268.266587 44.394296 
L 290.105186 46.374953 
L 311.943784 48.577727 
L 333.782383 51.010913 
L 354.061082 53.484986 
L 374.33978 56.174854 
L 394.618479 59.090674 
L 414.897178 62.244115 
L 433.615977 65.377491 
L 452.334775 68.736939 
L 471.053574 72.336432 
L 488.212473 75.860564 
L 505.371372 79.614234 
L 520.970371 83.239678 
L 536.56937 87.082685 
L 552.168369 91.159663 
L 566.207468 95.044627 
L 580.246567 99.150467 
L 594.285667 103.495686 
L 606.764866 107.576393 
L 619.244065 111.880776 
L 631.723264 116.429226 
L 642.642563 120.627985 
L 653.561863 125.050445 
L 664.481162 129.718301 
L 675.400461 134.65702 
L 684.759861 139.128507 
L 694.11926 143.843462 
L 698.79896 146.300294 
L 698.79896 146.300294 
" style="fill:none;stroke:#d62728;stroke-linecap:square;stroke-width:1.5;"/>
   </g>
   <g id="line2d_31">
    <path clip-path="url(#p63838e02fc)" d="M 174.2483 38.79521 
L 199.8057 38.79521 
" style="fill:none;stroke:#bf00bf;stroke-dasharray:6.4,1.6,1,1.6;stroke-dashoffset:0;"/>
   </g>
   <g id="line2d_32">
    <path clip-path="url(#p63838e02fc)" d="M 59.24 35.6464 
L 71.719199 35.768636 
L 84.198398 36.135817 
L 96.677598 36.749372 
L 109.156797 37.611708 
L 121.635996 38.726263 
L 132.555295 39.911929 
L 143.474595 41.297922 
L 154.393894 42.88877 
L 165.313193 44.689824 
L 176.232493 46.707355 
L 187.151792 48.948665 
L 198.071091 51.422223 
L 208.990391 54.137838 
L 219.90969 57.106871 
L 229.269089 59.863385 
L 238.628489 62.825255 
L 247.987888 66.003353 
L 257.347288 69.410123 
L 266.706687 73.059869 
L 276.066086 76.969111 
L 285.425486 81.157044 
L 293.224985 84.875958 
L 301.024485 88.818999 
L 308.823984 93.003551 
L 316.623484 97.4498 
L 324.422983 102.181353 
L 332.222483 107.226062 
L 338.462083 111.509374 
L 344.701682 116.03421 
L 350.941282 120.823951 
L 357.180881 125.906155 
L 363.420481 131.313611 
L 369.660081 137.085762 
L 374.33978 141.682705 
L 379.01948 146.535843 
L 383.69918 151.673846 
L 388.378879 157.130922 
L 393.058579 162.948351 
L 397.738279 169.176575 
L 402.417979 175.878145 
L 407.097678 183.131931 
L 410.217478 188.323481 
L 413.337278 193.84234 
L 416.457078 199.733981 
L 419.576877 206.054381 
L 422.696677 212.873528 
L 425.816477 220.280531 
L 428.936277 228.391299 
L 432.056077 237.360496 
L 435.175876 247.401027 
L 438.295676 258.817542 
L 439.855576 265.176254 
L 441.415476 272.068146 
L 442.975376 279.594505 
L 444.72283 289 
M 473.469869 289 
L 474.173374 285.527158 
L 475.733274 278.594764 
L 477.293174 272.297039 
L 478.853074 266.532711 
L 481.972874 256.305697 
L 485.092673 247.455762 
L 488.212473 239.678407 
L 491.332273 232.760877 
L 494.452073 226.548657 
L 497.571873 220.925991 
L 500.691672 215.803922 
L 503.811472 211.112618 
L 506.931272 206.796256 
L 510.051072 202.809523 
L 513.170872 199.115131 
L 516.290671 195.682039 
L 519.410471 192.484132 
L 524.090171 188.080631 
L 528.769871 184.095174 
L 533.44957 180.477899 
L 538.12927 177.188123 
L 542.80897 174.192249 
L 547.488669 171.462236 
L 552.168369 168.974462 
L 556.848069 166.708871 
L 561.527769 164.648312 
L 566.207468 162.778029 
L 572.447068 160.558493 
L 578.686667 158.628995 
L 584.926267 156.968066 
L 591.165867 155.557716 
L 597.405466 154.382824 
L 603.645066 153.430669 
L 609.884666 152.690563 
L 616.124265 152.153562 
L 622.363865 151.812242 
L 628.603464 151.660517 
L 634.843064 151.693501 
L 641.082664 151.907395 
L 648.882163 152.425009 
L 656.681663 153.217627 
L 664.481162 154.284076 
L 672.280662 155.625338 
L 680.080161 157.244574 
L 686.319761 158.74367 
L 692.55936 160.427982 
L 698.79896 162.302466 
L 698.79896 162.302466 
" style="fill:none;stroke:#9467bd;stroke-linecap:square;stroke-width:1.5;"/>
   </g>
   <g id="line2d_33">
    <path clip-path="url(#p63838e02fc)" d="M 59.24 35.6464 
L 65.4796 35.768726 
L 71.719199 36.136176 
L 77.958799 36.750178 
L 84.198398 37.613142 
L 90.437998 38.728503 
L 96.677598 40.100791 
L 102.917197 41.735719 
L 109.156797 43.640301 
L 115.396396 45.823005 
L 121.635996 48.293945 
L 127.875596 51.065122 
L 134.115195 54.150739 
L 138.794895 56.681295 
L 143.474595 59.406306 
L 148.154294 62.335099 
L 152.833994 65.478306 
L 157.513694 68.848092 
L 162.193394 72.458426 
L 166.873093 76.325433 
L 171.552793 80.467824 
L 176.232493 84.907458 
L 180.912192 89.670057 
L 185.591892 94.786152 
L 190.271592 100.292334 
L 194.951292 106.232951 
L 199.630991 112.662452 
L 202.750791 117.253214 
L 205.870591 122.115387 
L 208.990391 127.277726 
L 212.11019 132.774534 
L 215.22999 138.647194 
L 218.34979 144.946265 
L 221.46959 151.734423 
L 224.58939 159.090677 
L 227.709189 167.116612 
L 230.828989 175.945915 
L 233.948789 185.759555 
L 237.068589 196.811136 
L 238.628489 202.910664 
L 240.188389 209.471932 
L 241.748289 216.573718 
L 243.308188 224.317357 
L 244.868088 232.836271 
L 246.427988 242.311146 
L 247.987888 252.995279 
L 249.547788 265.259623 
L 251.107688 279.679247 
L 251.9367 289 
M 266.384769 289 
L 266.706687 285.626245 
L 268.266587 272.397622 
L 269.826487 261.325154 
L 271.386387 251.83392 
L 272.946287 243.553116 
L 274.506187 236.229591 
L 276.066086 229.682813 
L 277.625986 223.779509 
L 279.185886 218.418497 
L 280.745786 213.521152 
L 282.305686 209.02517 
L 285.425486 201.045637 
L 288.545286 194.176213 
L 291.665085 188.205006 
L 294.784885 182.97842 
L 297.904685 178.381674 
L 301.024485 174.326849 
L 304.144285 170.745217 
L 307.264084 167.582134 
L 310.383884 164.793541 
L 313.503684 162.34349 
L 316.623484 160.202372 
L 319.743284 158.345604 
L 322.863083 156.752653 
L 325.982883 155.406297 
L 329.102683 154.292055 
L 332.222483 153.397744 
L 335.342283 152.713138 
L 338.462083 152.229691 
L 341.581882 151.940329 
L 344.701682 151.839279 
L 347.821482 151.921933 
L 350.941282 152.184754 
L 354.061082 152.625193 
L 357.180881 153.241638 
L 360.300681 154.033378 
L 363.420481 155.000584 
L 366.540281 156.144313 
L 369.660081 157.466523 
L 372.77988 158.970107 
L 375.89968 160.658953 
L 379.01948 162.538015 
L 382.13928 164.613421 
L 385.25908 166.892601 
L 388.378879 169.384458 
L 391.498679 172.099582 
L 394.618479 175.050523 
L 397.738279 178.252135 
L 400.858079 181.722017 
L 403.977878 185.481087 
L 407.097678 189.554317 
L 410.217478 193.971716 
L 413.337278 198.769637 
L 416.457078 203.992553 
L 419.576877 209.695533 
L 422.696677 215.947737 
L 425.816477 222.837531 
L 428.936277 230.48015 
L 432.056077 239.02966 
L 435.175876 248.698434 
L 436.735776 254.042625 
L 438.295676 259.790654 
L 439.855576 266.004891 
L 441.415476 272.764026 
L 442.975376 280.169307 
L 444.645456 289 
M 473.577845 289 
L 474.173374 286.10196 
L 475.733274 279.290644 
L 477.293174 273.125675 
L 478.853074 267.505823 
L 480.412974 262.352416 
L 483.532773 253.207634 
L 486.652573 245.320961 
L 489.772373 238.439742 
L 492.892173 232.384011 
L 496.011973 227.021131 
L 499.131772 222.250627 
L 502.251572 217.994661 
L 505.371372 214.191793 
L 508.491172 210.792773 
L 511.610972 207.757606 
L 514.730771 205.053461 
L 517.850571 202.653148 
L 520.970371 200.533993 
L 524.090171 198.676986 
L 527.209971 197.06613 
L 530.329771 195.687945 
L 533.44957 194.531072 
L 536.56937 193.585974 
L 539.68917 192.844686 
L 542.80897 192.300633 
L 545.92877 191.948475 
L 549.048569 191.783992 
L 552.168369 191.803998 
L 555.288169 192.006268 
L 558.407969 192.389504 
L 561.527769 192.953298 
L 564.647568 193.698131 
L 567.767368 194.625378 
L 570.887168 195.737336 
L 574.006968 197.037268 
L 577.126768 198.529467 
L 580.246567 200.219348 
L 583.366367 202.113563 
L 586.486167 204.22015 
L 589.605967 206.548722 
L 592.725767 209.110715 
L 595.845566 211.919685 
L 598.965366 214.991705 
L 602.085166 218.345862 
L 605.204966 222.00491 
L 608.324766 225.996114 
L 611.444565 230.352385 
L 614.564365 235.113797 
L 617.684165 240.329681 
L 620.803965 246.061555 
L 623.923765 252.387341 
L 627.043564 259.407595 
L 630.163364 267.255035 
L 633.283164 276.109715 
L 636.402964 286.22437 
L 637.170769 289 
M 680.962821 289 
L 683.199961 282.412787 
L 686.319761 274.347092 
L 689.439561 267.289024 
L 692.55936 261.058576 
L 695.67916 255.523073 
L 698.79896 250.582001 
L 698.79896 250.582001 
" style="fill:none;stroke:#8c564b;stroke-linecap:square;stroke-width:1.5;"/>
   </g>
   <g id="line2d_34">
    <path clip-path="url(#p63838e02fc)" d="M 159.073594 151.839279 
L 558.407969 151.839279 
" style="fill:none;stroke:#bf00bf;stroke-dasharray:6.4,1.6,1,1.6;stroke-dashoffset:0;"/>
   </g>
   <g id="line2d_35">
    <path clip-path="url(#p63838e02fc)" d="M 174.2483 94.786152 
L 199.8057 94.786152 
" style="fill:none;stroke:#bf00bf;stroke-dasharray:6.4,1.6,1,1.6;stroke-dashoffset:0;"/>
   </g>
   <g id="line2d_36">
    <path clip-path="url(#p63838e02fc)" d="M 258.907188 246.04 
L 258.907188 18.915857 
" style="fill:none;stroke:#008000;stroke-dasharray:6.4,1.6,1,1.6;stroke-dashoffset:0;"/>
   </g>
   <g id="patch_3">
    <path d="M 59.24 246.04 
L 59.24 26.88 
" style="fill:none;stroke:#000000;stroke-linecap:square;stroke-linejoin:miter;stroke-width:0.8;"/>
   </g>
   <g id="patch_4">
    <path d="M 698.175 246.04 
L 698.175 26.88 
" style="fill:none;stroke:#000000;stroke-linecap:square;stroke-linejoin:miter;stroke-width:0.8;"/>
   </g>
   <g id="patch_5">
    <path d="M 59.24 246.04 
L 698.175 246.04 
" style="fill:none;stroke:#000000;stroke-linecap:square;stroke-linejoin:miter;stroke-width:0.8;"/>
   </g>
   <g id="patch_6">
    <path d="M 59.24 26.88 
L 698.175 26.88 
" style="fill:none;stroke:#000000;stroke-linecap:square;stroke-linejoin:miter;stroke-width:0.8;"/>
   </g>
   <g id="text_16">
    <g id="patch_7">
     <path d="M 208.5844 44.874898 
L 249.304713 44.874898 
L 249.304713 27.196773 
L 208.5844 27.196773 
z
" style="fill:#ffffff;opacity:0.8;stroke:#000000;stroke-linejoin:miter;"/>
    </g>
    <!-- -1.8dB -->
    <defs>
     <path d="M 4.890625 31.390625 
L 31.203125 31.390625 
L 31.203125 23.390625 
L 4.890625 23.390625 
z
" id="DejaVuSans-45"/>
     <path d="M 19.671875 34.8125 
L 19.671875 8.109375 
L 35.5 8.109375 
Q 43.453125 8.109375 47.28125 11.40625 
Q 51.125 14.703125 51.125 21.484375 
Q 51.125 28.328125 47.28125 31.5625 
Q 43.453125 34.8125 35.5 34.8125 
z
M 19.671875 64.796875 
L 19.671875 42.828125 
L 34.28125 42.828125 
Q 41.5 42.828125 45.03125 45.53125 
Q 48.578125 48.25 48.578125 53.8125 
Q 48.578125 59.328125 45.03125 62.0625 
Q 41.5 64.796875 34.28125 64.796875 
z
M 9.8125 72.90625 
L 35.015625 72.90625 
Q 46.296875 72.90625 52.390625 68.21875 
Q 58.5 63.53125 58.5 54.890625 
Q 58.5 48.1875 55.375 44.234375 
Q 52.25 40.28125 46.1875 39.3125 
Q 53.46875 37.75 57.5 32.78125 
Q 61.53125 27.828125 61.53125 20.40625 
Q 61.53125 10.640625 54.890625 5.3125 
Q 48.25 0 35.984375 0 
L 9.8125 0 
z
" id="DejaVuSans-66"/>
    </defs>
    <g transform="translate(212.5844 38.79521)scale(0.1 -0.1)">
     <use xlink:href="#DejaVuSans-45"/>
     <use x="36.083984" xlink:href="#DejaVuSans-49"/>
     <use x="99.707031" xlink:href="#DejaVuSans-46"/>
     <use x="131.494141" xlink:href="#DejaVuSans-56"/>
     <use x="195.117188" xlink:href="#DejaVuSans-100"/>
     <use x="258.59375" xlink:href="#DejaVuSans-66"/>
    </g>
   </g>
   <g id="text_17">
    <g id="patch_8">
     <path d="M 574.374688 157.918966 
L 621.4575 157.918966 
L 621.4575 140.240841 
L 574.374688 140.240841 
z
" style="fill:#ffffff;opacity:0.8;stroke:#000000;stroke-linejoin:miter;"/>
    </g>
    <!-- -66.3dB -->
    <g transform="translate(578.374688 151.839279)scale(0.1 -0.1)">
     <use xlink:href="#DejaVuSans-45"/>
     <use x="36.083984" xlink:href="#DejaVuSans-54"/>
     <use x="99.707031" xlink:href="#DejaVuSans-54"/>
     <use x="163.330078" xlink:href="#DejaVuSans-46"/>
     <use x="195.117188" xlink:href="#DejaVuSans-51"/>
     <use x="258.740234" xlink:href="#DejaVuSans-100"/>
     <use x="322.216797" xlink:href="#DejaVuSans-66"/>
    </g>
   </g>
   <g id="text_18">
    <g id="patch_9">
     <path d="M 208.5844 100.865839 
L 255.667213 100.865839 
L 255.667213 83.187714 
L 208.5844 83.187714 
z
" style="fill:#ffffff;opacity:0.8;stroke:#000000;stroke-linejoin:miter;"/>
    </g>
    <!-- -33.7dB -->
    <defs>
     <path d="M 8.203125 72.90625 
L 55.078125 72.90625 
L 55.078125 68.703125 
L 28.609375 0 
L 18.3125 0 
L 43.21875 64.59375 
L 8.203125 64.59375 
z
" id="DejaVuSans-55"/>
    </defs>
    <g transform="translate(212.5844 94.786152)scale(0.1 -0.1)">
     <use xlink:href="#DejaVuSans-45"/>
     <use x="36.083984" xlink:href="#DejaVuSans-51"/>
     <use x="99.707031" xlink:href="#DejaVuSans-51"/>
     <use x="163.330078" xlink:href="#DejaVuSans-46"/>
     <use x="195.117188" xlink:href="#DejaVuSans-55"/>
     <use x="258.740234" xlink:href="#DejaVuSans-100"/>
     <use x="322.216797" xlink:href="#DejaVuSans-66"/>
    </g>
   </g>
   <g id="text_19">
    <!-- Moving Average Filter Response - Passband -->
    <defs>
     <path d="M 9.8125 72.90625 
L 24.515625 72.90625 
L 43.109375 23.296875 
L 61.8125 72.90625 
L 76.515625 72.90625 
L 76.515625 0 
L 66.890625 0 
L 66.890625 64.015625 
L 48.09375 14.015625 
L 38.1875 14.015625 
L 19.390625 64.015625 
L 19.390625 0 
L 9.8125 0 
z
" id="DejaVuSans-77"/>
     <path d="M 2.984375 54.6875 
L 12.5 54.6875 
L 29.59375 8.796875 
L 46.6875 54.6875 
L 56.203125 54.6875 
L 35.6875 0 
L 23.484375 0 
z
" id="DejaVuSans-118"/>
     <path d="M 45.40625 27.984375 
Q 45.40625 37.75 41.375 43.109375 
Q 37.359375 48.484375 30.078125 48.484375 
Q 22.859375 48.484375 18.828125 43.109375 
Q 14.796875 37.75 14.796875 27.984375 
Q 14.796875 18.265625 18.828125 12.890625 
Q 22.859375 7.515625 30.078125 7.515625 
Q 37.359375 7.515625 41.375 12.890625 
Q 45.40625 18.265625 45.40625 27.984375 
z
M 54.390625 6.78125 
Q 54.390625 -7.171875 48.1875 -13.984375 
Q 42 -20.796875 29.203125 -20.796875 
Q 24.46875 -20.796875 20.265625 -20.09375 
Q 16.0625 -19.390625 12.109375 -17.921875 
L 12.109375 -9.1875 
Q 16.0625 -11.328125 19.921875 -12.34375 
Q 23.78125 -13.375 27.78125 -13.375 
Q 36.625 -13.375 41.015625 -8.765625 
Q 45.40625 -4.15625 45.40625 5.171875 
L 45.40625 9.625 
Q 42.625 4.78125 38.28125 2.390625 
Q 33.9375 0 27.875 0 
Q 17.828125 0 11.671875 7.65625 
Q 5.515625 15.328125 5.515625 27.984375 
Q 5.515625 40.671875 11.671875 48.328125 
Q 17.828125 56 27.875 56 
Q 33.9375 56 38.28125 53.609375 
Q 42.625 51.21875 45.40625 46.390625 
L 45.40625 54.6875 
L 54.390625 54.6875 
z
" id="DejaVuSans-103"/>
     <path d="M 34.1875 63.1875 
L 20.796875 26.90625 
L 47.609375 26.90625 
z
M 28.609375 72.90625 
L 39.796875 72.90625 
L 67.578125 0 
L 57.328125 0 
L 50.6875 18.703125 
L 17.828125 18.703125 
L 11.1875 0 
L 0.78125 0 
z
" id="DejaVuSans-65"/>
     <path d="M 9.8125 72.90625 
L 51.703125 72.90625 
L 51.703125 64.59375 
L 19.671875 64.59375 
L 19.671875 43.109375 
L 48.578125 43.109375 
L 48.578125 34.8125 
L 19.671875 34.8125 
L 19.671875 0 
L 9.8125 0 
z
" id="DejaVuSans-70"/>
     <path d="M 44.390625 34.1875 
Q 47.5625 33.109375 50.5625 29.59375 
Q 53.5625 26.078125 56.59375 19.921875 
L 66.609375 0 
L 56 0 
L 46.6875 18.703125 
Q 43.0625 26.03125 39.671875 28.421875 
Q 36.28125 30.8125 30.421875 30.8125 
L 19.671875 30.8125 
L 19.671875 0 
L 9.8125 0 
L 9.8125 72.90625 
L 32.078125 72.90625 
Q 44.578125 72.90625 50.734375 67.671875 
Q 56.890625 62.453125 56.890625 51.90625 
Q 56.890625 45.015625 53.6875 40.46875 
Q 50.484375 35.9375 44.390625 34.1875 
z
M 19.671875 64.796875 
L 19.671875 38.921875 
L 32.078125 38.921875 
Q 39.203125 38.921875 42.84375 42.21875 
Q 46.484375 45.515625 46.484375 51.90625 
Q 46.484375 58.296875 42.84375 61.546875 
Q 39.203125 64.796875 32.078125 64.796875 
z
" id="DejaVuSans-82"/>
     <path d="M 44.28125 53.078125 
L 44.28125 44.578125 
Q 40.484375 46.53125 36.375 47.5 
Q 32.28125 48.484375 27.875 48.484375 
Q 21.1875 48.484375 17.84375 46.4375 
Q 14.5 44.390625 14.5 40.28125 
Q 14.5 37.15625 16.890625 35.375 
Q 19.28125 33.59375 26.515625 31.984375 
L 29.59375 31.296875 
Q 39.15625 29.25 43.1875 25.515625 
Q 47.21875 21.78125 47.21875 15.09375 
Q 47.21875 7.46875 41.1875 3.015625 
Q 35.15625 -1.421875 24.609375 -1.421875 
Q 20.21875 -1.421875 15.453125 -0.5625 
Q 10.6875 0.296875 5.421875 2 
L 5.421875 11.28125 
Q 10.40625 8.6875 15.234375 7.390625 
Q 20.0625 6.109375 24.8125 6.109375 
Q 31.15625 6.109375 34.5625 8.28125 
Q 37.984375 10.453125 37.984375 14.40625 
Q 37.984375 18.0625 35.515625 20.015625 
Q 33.0625 21.96875 24.703125 23.78125 
L 21.578125 24.515625 
Q 13.234375 26.265625 9.515625 29.90625 
Q 5.8125 33.546875 5.8125 39.890625 
Q 5.8125 47.609375 11.28125 51.796875 
Q 16.75 56 26.8125 56 
Q 31.78125 56 36.171875 55.265625 
Q 40.578125 54.546875 44.28125 53.078125 
z
" id="DejaVuSans-115"/>
     <path d="M 18.109375 8.203125 
L 18.109375 -20.796875 
L 9.078125 -20.796875 
L 9.078125 54.6875 
L 18.109375 54.6875 
L 18.109375 46.390625 
Q 20.953125 51.265625 25.265625 53.625 
Q 29.59375 56 35.59375 56 
Q 45.5625 56 51.78125 48.09375 
Q 58.015625 40.1875 58.015625 27.296875 
Q 58.015625 14.40625 51.78125 6.484375 
Q 45.5625 -1.421875 35.59375 -1.421875 
Q 29.59375 -1.421875 25.265625 0.953125 
Q 20.953125 3.328125 18.109375 8.203125 
z
M 48.6875 27.296875 
Q 48.6875 37.203125 44.609375 42.84375 
Q 40.53125 48.484375 33.40625 48.484375 
Q 26.265625 48.484375 22.1875 42.84375 
Q 18.109375 37.203125 18.109375 27.296875 
Q 18.109375 17.390625 22.1875 11.75 
Q 26.265625 6.109375 33.40625 6.109375 
Q 40.53125 6.109375 44.609375 11.75 
Q 48.6875 17.390625 48.6875 27.296875 
z
" id="DejaVuSans-112"/>
     <path d="M 19.671875 64.796875 
L 19.671875 37.40625 
L 32.078125 37.40625 
Q 38.96875 37.40625 42.71875 40.96875 
Q 46.484375 44.53125 46.484375 51.125 
Q 46.484375 57.671875 42.71875 61.234375 
Q 38.96875 64.796875 32.078125 64.796875 
z
M 9.8125 72.90625 
L 32.078125 72.90625 
Q 44.34375 72.90625 50.609375 67.359375 
Q 56.890625 61.8125 56.890625 51.125 
Q 56.890625 40.328125 50.609375 34.8125 
Q 44.34375 29.296875 32.078125 29.296875 
L 19.671875 29.296875 
L 19.671875 0 
L 9.8125 0 
z
" id="DejaVuSans-80"/>
     <path d="M 48.6875 27.296875 
Q 48.6875 37.203125 44.609375 42.84375 
Q 40.53125 48.484375 33.40625 48.484375 
Q 26.265625 48.484375 22.1875 42.84375 
Q 18.109375 37.203125 18.109375 27.296875 
Q 18.109375 17.390625 22.1875 11.75 
Q 26.265625 6.109375 33.40625 6.109375 
Q 40.53125 6.109375 44.609375 11.75 
Q 48.6875 17.390625 48.6875 27.296875 
z
M 18.109375 46.390625 
Q 20.953125 51.265625 25.265625 53.625 
Q 29.59375 56 35.59375 56 
Q 45.5625 56 51.78125 48.09375 
Q 58.015625 40.1875 58.015625 27.296875 
Q 58.015625 14.40625 51.78125 6.484375 
Q 45.5625 -1.421875 35.59375 -1.421875 
Q 29.59375 -1.421875 25.265625 0.953125 
Q 20.953125 3.328125 18.109375 8.203125 
L 18.109375 0 
L 9.078125 0 
L 9.078125 75.984375 
L 18.109375 75.984375 
z
" id="DejaVuSans-98"/>
    </defs>
    <g transform="translate(248.640625 20.88)scale(0.12 -0.12)">
     <use xlink:href="#DejaVuSans-77"/>
     <use x="86.279297" xlink:href="#DejaVuSans-111"/>
     <use x="147.460938" xlink:href="#DejaVuSans-118"/>
     <use x="206.640625" xlink:href="#DejaVuSans-105"/>
     <use x="234.423828" xlink:href="#DejaVuSans-110"/>
     <use x="297.802734" xlink:href="#DejaVuSans-103"/>
     <use x="361.279297" xlink:href="#DejaVuSans-32"/>
     <use x="393.066406" xlink:href="#DejaVuSans-65"/>
     <use x="455.599609" xlink:href="#DejaVuSans-118"/>
     <use x="514.779297" xlink:href="#DejaVuSans-101"/>
     <use x="576.302734" xlink:href="#DejaVuSans-114"/>
     <use x="617.416016" xlink:href="#DejaVuSans-97"/>
     <use x="678.695312" xlink:href="#DejaVuSans-103"/>
     <use x="742.171875" xlink:href="#DejaVuSans-101"/>
     <use x="803.695312" xlink:href="#DejaVuSans-32"/>
     <use x="835.482422" xlink:href="#DejaVuSans-70"/>
     <use x="885.751953" xlink:href="#DejaVuSans-105"/>
     <use x="913.535156" xlink:href="#DejaVuSans-108"/>
     <use x="941.318359" xlink:href="#DejaVuSans-116"/>
     <use x="980.527344" xlink:href="#DejaVuSans-101"/>
     <use x="1042.050781" xlink:href="#DejaVuSans-114"/>
     <use x="1083.164062" xlink:href="#DejaVuSans-32"/>
     <use x="1114.951172" xlink:href="#DejaVuSans-82"/>
     <use x="1179.933594" xlink:href="#DejaVuSans-101"/>
     <use x="1241.457031" xlink:href="#DejaVuSans-115"/>
     <use x="1293.556641" xlink:href="#DejaVuSans-112"/>
     <use x="1357.033203" xlink:href="#DejaVuSans-111"/>
     <use x="1418.214844" xlink:href="#DejaVuSans-110"/>
     <use x="1481.59375" xlink:href="#DejaVuSans-115"/>
     <use x="1533.693359" xlink:href="#DejaVuSans-101"/>
     <use x="1595.216797" xlink:href="#DejaVuSans-32"/>
     <use x="1627.003906" xlink:href="#DejaVuSans-45"/>
     <use x="1663.087891" xlink:href="#DejaVuSans-32"/>
     <use x="1694.875" xlink:href="#DejaVuSans-80"/>
     <use x="1750.677734" xlink:href="#DejaVuSans-97"/>
     <use x="1811.957031" xlink:href="#DejaVuSans-115"/>
     <use x="1864.056641" xlink:href="#DejaVuSans-115"/>
     <use x="1916.15625" xlink:href="#DejaVuSans-98"/>
     <use x="1979.632812" xlink:href="#DejaVuSans-97"/>
     <use x="2040.912109" xlink:href="#DejaVuSans-110"/>
     <use x="2104.291016" xlink:href="#DejaVuSans-100"/>
    </g>
   </g>
   <g id="legend_1">
    <g id="patch_10">
     <path d="M 597.220313 241.04 
L 691.175 241.04 
Q 693.175 241.04 693.175 239.04 
L 693.175 151.97125 
Q 693.175 149.97125 691.175 149.97125 
L 597.220313 149.97125 
Q 595.220313 149.97125 595.220313 151.97125 
L 595.220313 239.04 
Q 595.220313 241.04 597.220313 241.04 
z
" style="fill:#ffffff;opacity:0.8;stroke:#cccccc;stroke-linejoin:miter;"/>
    </g>
    <g id="line2d_37">
     <path d="M 599.220313 158.069687 
L 619.220313 158.069687 
" style="fill:none;stroke:#1f77b4;stroke-linecap:square;stroke-width:1.5;"/>
    </g>
    <g id="line2d_38"/>
    <g id="text_20">
     <!-- Length = 2 -->
     <defs>
      <path d="M 9.8125 72.90625 
L 19.671875 72.90625 
L 19.671875 8.296875 
L 55.171875 8.296875 
L 55.171875 0 
L 9.8125 0 
z
" id="DejaVuSans-76"/>
      <path d="M 10.59375 45.40625 
L 73.1875 45.40625 
L 73.1875 37.203125 
L 10.59375 37.203125 
z
M 10.59375 25.484375 
L 73.1875 25.484375 
L 73.1875 17.1875 
L 10.59375 17.1875 
z
" id="DejaVuSans-61"/>
     </defs>
     <g transform="translate(627.220313 161.569687)scale(0.1 -0.1)">
      <use xlink:href="#DejaVuSans-76"/>
      <use x="53.962891" xlink:href="#DejaVuSans-101"/>
      <use x="115.486328" xlink:href="#DejaVuSans-110"/>
      <use x="178.865234" xlink:href="#DejaVuSans-103"/>
      <use x="242.341797" xlink:href="#DejaVuSans-116"/>
      <use x="281.550781" xlink:href="#DejaVuSans-104"/>
      <use x="344.929688" xlink:href="#DejaVuSans-32"/>
      <use x="376.716797" xlink:href="#DejaVuSans-61"/>
      <use x="460.505859" xlink:href="#DejaVuSans-32"/>
      <use x="492.292969" xlink:href="#DejaVuSans-50"/>
     </g>
    </g>
    <g id="line2d_39">
     <path d="M 599.220313 172.747813 
L 619.220313 172.747813 
" style="fill:none;stroke:#ff7f0e;stroke-linecap:square;stroke-width:1.5;"/>
    </g>
    <g id="line2d_40"/>
    <g id="text_21">
     <!-- Length = 4 -->
     <g transform="translate(627.220313 176.247813)scale(0.1 -0.1)">
      <use xlink:href="#DejaVuSans-76"/>
      <use x="53.962891" xlink:href="#DejaVuSans-101"/>
      <use x="115.486328" xlink:href="#DejaVuSans-110"/>
      <use x="178.865234" xlink:href="#DejaVuSans-103"/>
      <use x="242.341797" xlink:href="#DejaVuSans-116"/>
      <use x="281.550781" xlink:href="#DejaVuSans-104"/>
      <use x="344.929688" xlink:href="#DejaVuSans-32"/>
      <use x="376.716797" xlink:href="#DejaVuSans-61"/>
      <use x="460.505859" xlink:href="#DejaVuSans-32"/>
      <use x="492.292969" xlink:href="#DejaVuSans-52"/>
     </g>
    </g>
    <g id="line2d_41">
     <path d="M 599.220313 187.425938 
L 619.220313 187.425938 
" style="fill:none;stroke:#2ca02c;stroke-linecap:square;stroke-width:1.5;"/>
    </g>
    <g id="line2d_42"/>
    <g id="text_22">
     <!-- Length = 8 -->
     <g transform="translate(627.220313 190.925938)scale(0.1 -0.1)">
      <use xlink:href="#DejaVuSans-76"/>
      <use x="53.962891" xlink:href="#DejaVuSans-101"/>
      <use x="115.486328" xlink:href="#DejaVuSans-110"/>
      <use x="178.865234" xlink:href="#DejaVuSans-103"/>
      <use x="242.341797" xlink:href="#DejaVuSans-116"/>
      <use x="281.550781" xlink:href="#DejaVuSans-104"/>
      <use x="344.929688" xlink:href="#DejaVuSans-32"/>
      <use x="376.716797" xlink:href="#DejaVuSans-61"/>
      <use x="460.505859" xlink:href="#DejaVuSans-32"/>
      <use x="492.292969" xlink:href="#DejaVuSans-56"/>
     </g>
    </g>
    <g id="line2d_43">
     <path d="M 599.220313 202.104062 
L 619.220313 202.104062 
" style="fill:none;stroke:#d62728;stroke-linecap:square;stroke-width:1.5;"/>
    </g>
    <g id="line2d_44"/>
    <g id="text_23">
     <!-- Length = 16 -->
     <g transform="translate(627.220313 205.604062)scale(0.1 -0.1)">
      <use xlink:href="#DejaVuSans-76"/>
      <use x="53.962891" xlink:href="#DejaVuSans-101"/>
      <use x="115.486328" xlink:href="#DejaVuSans-110"/>
      <use x="178.865234" xlink:href="#DejaVuSans-103"/>
      <use x="242.341797" xlink:href="#DejaVuSans-116"/>
      <use x="281.550781" xlink:href="#DejaVuSans-104"/>
      <use x="344.929688" xlink:href="#DejaVuSans-32"/>
      <use x="376.716797" xlink:href="#DejaVuSans-61"/>
      <use x="460.505859" xlink:href="#DejaVuSans-32"/>
      <use x="492.292969" xlink:href="#DejaVuSans-49"/>
      <use x="555.916016" xlink:href="#DejaVuSans-54"/>
     </g>
    </g>
    <g id="line2d_45">
     <path d="M 599.220313 216.782188 
L 619.220313 216.782188 
" style="fill:none;stroke:#9467bd;stroke-linecap:square;stroke-width:1.5;"/>
    </g>
    <g id="line2d_46"/>
    <g id="text_24">
     <!-- Length = 32 -->
     <g transform="translate(627.220313 220.282188)scale(0.1 -0.1)">
      <use xlink:href="#DejaVuSans-76"/>
      <use x="53.962891" xlink:href="#DejaVuSans-101"/>
      <use x="115.486328" xlink:href="#DejaVuSans-110"/>
      <use x="178.865234" xlink:href="#DejaVuSans-103"/>
      <use x="242.341797" xlink:href="#DejaVuSans-116"/>
      <use x="281.550781" xlink:href="#DejaVuSans-104"/>
      <use x="344.929688" xlink:href="#DejaVuSans-32"/>
      <use x="376.716797" xlink:href="#DejaVuSans-61"/>
      <use x="460.505859" xlink:href="#DejaVuSans-32"/>
      <use x="492.292969" xlink:href="#DejaVuSans-51"/>
      <use x="555.916016" xlink:href="#DejaVuSans-50"/>
     </g>
    </g>
    <g id="line2d_47">
     <path d="M 599.220313 231.460312 
L 619.220313 231.460312 
" style="fill:none;stroke:#8c564b;stroke-linecap:square;stroke-width:1.5;"/>
    </g>
    <g id="line2d_48"/>
    <g id="text_25">
     <!-- Length = 64 -->
     <g transform="translate(627.220313 234.960312)scale(0.1 -0.1)">
      <use xlink:href="#DejaVuSans-76"/>
      <use x="53.962891" xlink:href="#DejaVuSans-101"/>
      <use x="115.486328" xlink:href="#DejaVuSans-110"/>
      <use x="178.865234" xlink:href="#DejaVuSans-103"/>
      <use x="242.341797" xlink:href="#DejaVuSans-116"/>
      <use x="281.550781" xlink:href="#DejaVuSans-104"/>
      <use x="344.929688" xlink:href="#DejaVuSans-32"/>
      <use x="376.716797" xlink:href="#DejaVuSans-61"/>
      <use x="460.505859" xlink:href="#DejaVuSans-32"/>
      <use x="492.292969" xlink:href="#DejaVuSans-54"/>
      <use x="555.916016" xlink:href="#DejaVuSans-52"/>
     </g>
    </g>
   </g>
  </g>
 </g>
 <defs>
  <clipPath id="p63838e02fc">
   <rect height="219.16" width="638.935" x="59.24" y="26.88"/>
  </clipPath>
 </defs>
</svg>
