<?xml version="1.0" encoding="utf-8" standalone="no"?>
<!DOCTYPE svg PUBLIC "-//W3C//DTD SVG 1.1//EN"
  "http://www.w3.org/Graphics/SVG/1.1/DTD/svg11.dtd">
<!-- Created with matplotlib (https://matplotlib.org/) -->
<svg height="288pt" version="1.1" viewBox="0 0 720 288" width="720pt" xmlns="http://www.w3.org/2000/svg" xmlns:xlink="http://www.w3.org/1999/xlink">
 <defs>
  <style type="text/css">
*{stroke-linecap:butt;stroke-linejoin:round;}
  </style>
 </defs>
 <g id="figure_1">
  <g id="patch_1">
   <path d="M 0 288 
L 720 288 
L 720 0 
L 0 0 
z
" style="fill:#ffffff;"/>
  </g>
  <g id="axes_1">
   <g id="patch_2">
    <path d="M 45.16 260.12 
L 709.2 260.12 
L 709.2 26.88 
L 45.16 26.88 
z
" style="fill:#ffffff;"/>
   </g>
   <g id="matplotlib.axis_1">
    <g id="xtick_1">
     <g id="line2d_1">
      <path clip-path="url(#p4a72f44ba1)" d="M 45.16 260.12 
L 45.16 26.88 
" style="fill:none;stroke:#b0b0b0;stroke-linecap:square;stroke-width:0.8;"/>
     </g>
     <g id="line2d_2">
      <defs>
       <path d="M 0 0 
L 0 3.5 
" id="mea597e930e" style="stroke:#000000;stroke-width:0.8;"/>
      </defs>
      <g>
       <use style="stroke:#000000;stroke-width:0.8;" x="45.16" xlink:href="#mea597e930e" y="260.12"/>
      </g>
     </g>
     <g id="text_1">
      <!-- 0.00 -->
      <defs>
       <path d="M 31.78125 66.40625 
Q 24.171875 66.40625 20.328125 58.90625 
Q 16.5 51.421875 16.5 36.375 
Q 16.5 21.390625 20.328125 13.890625 
Q 24.171875 6.390625 31.78125 6.390625 
Q 39.453125 6.390625 43.28125 13.890625 
Q 47.125 21.390625 47.125 36.375 
Q 47.125 51.421875 43.28125 58.90625 
Q 39.453125 66.40625 31.78125 66.40625 
z
M 31.78125 74.21875 
Q 44.046875 74.21875 50.515625 64.515625 
Q 56.984375 54.828125 56.984375 36.375 
Q 56.984375 17.96875 50.515625 8.265625 
Q 44.046875 -1.421875 31.78125 -1.421875 
Q 19.53125 -1.421875 13.0625 8.265625 
Q 6.59375 17.96875 6.59375 36.375 
Q 6.59375 54.828125 13.0625 64.515625 
Q 19.53125 74.21875 31.78125 74.21875 
z
" id="DejaVuSans-48"/>
       <path d="M 10.6875 12.40625 
L 21 12.40625 
L 21 0 
L 10.6875 0 
z
" id="DejaVuSans-46"/>
      </defs>
      <g transform="translate(34.027187 274.718437)scale(0.1 -0.1)">
       <use xlink:href="#DejaVuSans-48"/>
       <use x="63.623047" xlink:href="#DejaVuSans-46"/>
       <use x="95.410156" xlink:href="#DejaVuSans-48"/>
       <use x="159.033203" xlink:href="#DejaVuSans-48"/>
      </g>
     </g>
    </g>
    <g id="xtick_2">
     <g id="line2d_3">
      <path clip-path="url(#p4a72f44ba1)" d="M 361.369524 260.12 
L 361.369524 26.88 
" style="fill:none;stroke:#b0b0b0;stroke-linecap:square;stroke-width:0.8;"/>
     </g>
     <g id="line2d_4">
      <g>
       <use style="stroke:#000000;stroke-width:0.8;" x="361.369524" xlink:href="#mea597e930e" y="260.12"/>
      </g>
     </g>
     <g id="text_2">
      <!-- 0.05 -->
      <defs>
       <path d="M 10.796875 72.90625 
L 49.515625 72.90625 
L 49.515625 64.59375 
L 19.828125 64.59375 
L 19.828125 46.734375 
Q 21.96875 47.46875 24.109375 47.828125 
Q 26.265625 48.1875 28.421875 48.1875 
Q 40.625 48.1875 47.75 41.5 
Q 54.890625 34.8125 54.890625 23.390625 
Q 54.890625 11.625 47.5625 5.09375 
Q 40.234375 -1.421875 26.90625 -1.421875 
Q 22.3125 -1.421875 17.546875 -0.640625 
Q 12.796875 0.140625 7.71875 1.703125 
L 7.71875 11.625 
Q 12.109375 9.234375 16.796875 8.0625 
Q 21.484375 6.890625 26.703125 6.890625 
Q 35.15625 6.890625 40.078125 11.328125 
Q 45.015625 15.765625 45.015625 23.390625 
Q 45.015625 31 40.078125 35.4375 
Q 35.15625 39.890625 26.703125 39.890625 
Q 22.75 39.890625 18.8125 39.015625 
Q 14.890625 38.140625 10.796875 36.28125 
z
" id="DejaVuSans-53"/>
      </defs>
      <g transform="translate(350.236711 274.718437)scale(0.1 -0.1)">
       <use xlink:href="#DejaVuSans-48"/>
       <use x="63.623047" xlink:href="#DejaVuSans-46"/>
       <use x="95.410156" xlink:href="#DejaVuSans-48"/>
       <use x="159.033203" xlink:href="#DejaVuSans-53"/>
      </g>
     </g>
    </g>
    <g id="xtick_3">
     <g id="line2d_5">
      <path clip-path="url(#p4a72f44ba1)" d="M 677.579048 260.12 
L 677.579048 26.88 
" style="fill:none;stroke:#b0b0b0;stroke-linecap:square;stroke-width:0.8;"/>
     </g>
     <g id="line2d_6">
      <g>
       <use style="stroke:#000000;stroke-width:0.8;" x="677.579048" xlink:href="#mea597e930e" y="260.12"/>
      </g>
     </g>
     <g id="text_3">
      <!-- 0.10 -->
      <defs>
       <path d="M 12.40625 8.296875 
L 28.515625 8.296875 
L 28.515625 63.921875 
L 10.984375 60.40625 
L 10.984375 69.390625 
L 28.421875 72.90625 
L 38.28125 72.90625 
L 38.28125 8.296875 
L 54.390625 8.296875 
L 54.390625 0 
L 12.40625 0 
z
" id="DejaVuSans-49"/>
      </defs>
      <g transform="translate(666.446235 274.718437)scale(0.1 -0.1)">
       <use xlink:href="#DejaVuSans-48"/>
       <use x="63.623047" xlink:href="#DejaVuSans-46"/>
       <use x="95.410156" xlink:href="#DejaVuSans-49"/>
       <use x="159.033203" xlink:href="#DejaVuSans-48"/>
      </g>
     </g>
    </g>
   </g>
   <g id="matplotlib.axis_2">
    <g id="ytick_1">
     <g id="line2d_7">
      <path clip-path="url(#p4a72f44ba1)" d="M 45.16 260.12 
L 709.2 260.12 
" style="fill:none;stroke:#b0b0b0;stroke-linecap:square;stroke-width:0.8;"/>
     </g>
     <g id="line2d_8">
      <defs>
       <path d="M 0 0 
L -3.5 0 
" id="m3187b610c9" style="stroke:#000000;stroke-width:0.8;"/>
      </defs>
      <g>
       <use style="stroke:#000000;stroke-width:0.8;" x="45.16" xlink:href="#m3187b610c9" y="260.12"/>
      </g>
     </g>
     <g id="text_4">
      <!-- −120 -->
      <defs>
       <path d="M 10.59375 35.5 
L 73.1875 35.5 
L 73.1875 27.203125 
L 10.59375 27.203125 
z
" id="DejaVuSans-8722"/>
       <path d="M 19.1875 8.296875 
L 53.609375 8.296875 
L 53.609375 0 
L 7.328125 0 
L 7.328125 8.296875 
Q 12.9375 14.109375 22.625 23.890625 
Q 32.328125 33.6875 34.8125 36.53125 
Q 39.546875 41.84375 41.421875 45.53125 
Q 43.3125 49.21875 43.3125 52.78125 
Q 43.3125 58.59375 39.234375 62.25 
Q 35.15625 65.921875 28.609375 65.921875 
Q 23.96875 65.921875 18.8125 64.3125 
Q 13.671875 62.703125 7.8125 59.421875 
L 7.8125 69.390625 
Q 13.765625 71.78125 18.9375 73 
Q 24.125 74.21875 28.421875 74.21875 
Q 39.75 74.21875 46.484375 68.546875 
Q 53.21875 62.890625 53.21875 53.421875 
Q 53.21875 48.921875 51.53125 44.890625 
Q 49.859375 40.875 45.40625 35.40625 
Q 44.1875 33.984375 37.640625 27.21875 
Q 31.109375 20.453125 19.1875 8.296875 
z
" id="DejaVuSans-50"/>
      </defs>
      <g transform="translate(10.692812 263.919219)scale(0.1 -0.1)">
       <use xlink:href="#DejaVuSans-8722"/>
       <use x="83.789062" xlink:href="#DejaVuSans-49"/>
       <use x="147.412109" xlink:href="#DejaVuSans-50"/>
       <use x="211.035156" xlink:href="#DejaVuSans-48"/>
      </g>
     </g>
    </g>
    <g id="ytick_2">
     <g id="line2d_9">
      <path clip-path="url(#p4a72f44ba1)" d="M 45.16 221.246667 
L 709.2 221.246667 
" style="fill:none;stroke:#b0b0b0;stroke-linecap:square;stroke-width:0.8;"/>
     </g>
     <g id="line2d_10">
      <g>
       <use style="stroke:#000000;stroke-width:0.8;" x="45.16" xlink:href="#m3187b610c9" y="221.246667"/>
      </g>
     </g>
     <g id="text_5">
      <!-- −100 -->
      <g transform="translate(10.692812 225.045885)scale(0.1 -0.1)">
       <use xlink:href="#DejaVuSans-8722"/>
       <use x="83.789062" xlink:href="#DejaVuSans-49"/>
       <use x="147.412109" xlink:href="#DejaVuSans-48"/>
       <use x="211.035156" xlink:href="#DejaVuSans-48"/>
      </g>
     </g>
    </g>
    <g id="ytick_3">
     <g id="line2d_11">
      <path clip-path="url(#p4a72f44ba1)" d="M 45.16 182.373333 
L 709.2 182.373333 
" style="fill:none;stroke:#b0b0b0;stroke-linecap:square;stroke-width:0.8;"/>
     </g>
     <g id="line2d_12">
      <g>
       <use style="stroke:#000000;stroke-width:0.8;" x="45.16" xlink:href="#m3187b610c9" y="182.373333"/>
      </g>
     </g>
     <g id="text_6">
      <!-- −80 -->
      <defs>
       <path d="M 31.78125 34.625 
Q 24.75 34.625 20.71875 30.859375 
Q 16.703125 27.09375 16.703125 20.515625 
Q 16.703125 13.921875 20.71875 10.15625 
Q 24.75 6.390625 31.78125 6.390625 
Q 38.8125 6.390625 42.859375 10.171875 
Q 46.921875 13.96875 46.921875 20.515625 
Q 46.921875 27.09375 42.890625 30.859375 
Q 38.875 34.625 31.78125 34.625 
z
M 21.921875 38.8125 
Q 15.578125 40.375 12.03125 44.71875 
Q 8.5 49.078125 8.5 55.328125 
Q 8.5 64.0625 14.71875 69.140625 
Q 20.953125 74.21875 31.78125 74.21875 
Q 42.671875 74.21875 48.875 69.140625 
Q 55.078125 64.0625 55.078125 55.328125 
Q 55.078125 49.078125 51.53125 44.71875 
Q 48 40.375 41.703125 38.8125 
Q 48.828125 37.15625 52.796875 32.3125 
Q 56.78125 27.484375 56.78125 20.515625 
Q 56.78125 9.90625 50.3125 4.234375 
Q 43.84375 -1.421875 31.78125 -1.421875 
Q 19.734375 -1.421875 13.25 4.234375 
Q 6.78125 9.90625 6.78125 20.515625 
Q 6.78125 27.484375 10.78125 32.3125 
Q 14.796875 37.15625 21.921875 38.8125 
z
M 18.3125 54.390625 
Q 18.3125 48.734375 21.84375 45.5625 
Q 25.390625 42.390625 31.78125 42.390625 
Q 38.140625 42.390625 41.71875 45.5625 
Q 45.3125 48.734375 45.3125 54.390625 
Q 45.3125 60.0625 41.71875 63.234375 
Q 38.140625 66.40625 31.78125 66.40625 
Q 25.390625 66.40625 21.84375 63.234375 
Q 18.3125 60.0625 18.3125 54.390625 
z
" id="DejaVuSans-56"/>
      </defs>
      <g transform="translate(17.055312 186.172552)scale(0.1 -0.1)">
       <use xlink:href="#DejaVuSans-8722"/>
       <use x="83.789062" xlink:href="#DejaVuSans-56"/>
       <use x="147.412109" xlink:href="#DejaVuSans-48"/>
      </g>
     </g>
    </g>
    <g id="ytick_4">
     <g id="line2d_13">
      <path clip-path="url(#p4a72f44ba1)" d="M 45.16 143.5 
L 709.2 143.5 
" style="fill:none;stroke:#b0b0b0;stroke-linecap:square;stroke-width:0.8;"/>
     </g>
     <g id="line2d_14">
      <g>
       <use style="stroke:#000000;stroke-width:0.8;" x="45.16" xlink:href="#m3187b610c9" y="143.5"/>
      </g>
     </g>
     <g id="text_7">
      <!-- −60 -->
      <defs>
       <path d="M 33.015625 40.375 
Q 26.375 40.375 22.484375 35.828125 
Q 18.609375 31.296875 18.609375 23.390625 
Q 18.609375 15.53125 22.484375 10.953125 
Q 26.375 6.390625 33.015625 6.390625 
Q 39.65625 6.390625 43.53125 10.953125 
Q 47.40625 15.53125 47.40625 23.390625 
Q 47.40625 31.296875 43.53125 35.828125 
Q 39.65625 40.375 33.015625 40.375 
z
M 52.59375 71.296875 
L 52.59375 62.3125 
Q 48.875 64.0625 45.09375 64.984375 
Q 41.3125 65.921875 37.59375 65.921875 
Q 27.828125 65.921875 22.671875 59.328125 
Q 17.53125 52.734375 16.796875 39.40625 
Q 19.671875 43.65625 24.015625 45.921875 
Q 28.375 48.1875 33.59375 48.1875 
Q 44.578125 48.1875 50.953125 41.515625 
Q 57.328125 34.859375 57.328125 23.390625 
Q 57.328125 12.15625 50.6875 5.359375 
Q 44.046875 -1.421875 33.015625 -1.421875 
Q 20.359375 -1.421875 13.671875 8.265625 
Q 6.984375 17.96875 6.984375 36.375 
Q 6.984375 53.65625 15.1875 63.9375 
Q 23.390625 74.21875 37.203125 74.21875 
Q 40.921875 74.21875 44.703125 73.484375 
Q 48.484375 72.75 52.59375 71.296875 
z
" id="DejaVuSans-54"/>
      </defs>
      <g transform="translate(17.055312 147.299219)scale(0.1 -0.1)">
       <use xlink:href="#DejaVuSans-8722"/>
       <use x="83.789062" xlink:href="#DejaVuSans-54"/>
       <use x="147.412109" xlink:href="#DejaVuSans-48"/>
      </g>
     </g>
    </g>
    <g id="ytick_5">
     <g id="line2d_15">
      <path clip-path="url(#p4a72f44ba1)" d="M 45.16 104.626667 
L 709.2 104.626667 
" style="fill:none;stroke:#b0b0b0;stroke-linecap:square;stroke-width:0.8;"/>
     </g>
     <g id="line2d_16">
      <g>
       <use style="stroke:#000000;stroke-width:0.8;" x="45.16" xlink:href="#m3187b610c9" y="104.626667"/>
      </g>
     </g>
     <g id="text_8">
      <!-- −40 -->
      <defs>
       <path d="M 37.796875 64.3125 
L 12.890625 25.390625 
L 37.796875 25.390625 
z
M 35.203125 72.90625 
L 47.609375 72.90625 
L 47.609375 25.390625 
L 58.015625 25.390625 
L 58.015625 17.1875 
L 47.609375 17.1875 
L 47.609375 0 
L 37.796875 0 
L 37.796875 17.1875 
L 4.890625 17.1875 
L 4.890625 26.703125 
z
" id="DejaVuSans-52"/>
      </defs>
      <g transform="translate(17.055312 108.425885)scale(0.1 -0.1)">
       <use xlink:href="#DejaVuSans-8722"/>
       <use x="83.789062" xlink:href="#DejaVuSans-52"/>
       <use x="147.412109" xlink:href="#DejaVuSans-48"/>
      </g>
     </g>
    </g>
    <g id="ytick_6">
     <g id="line2d_17">
      <path clip-path="url(#p4a72f44ba1)" d="M 45.16 65.753333 
L 709.2 65.753333 
" style="fill:none;stroke:#b0b0b0;stroke-linecap:square;stroke-width:0.8;"/>
     </g>
     <g id="line2d_18">
      <g>
       <use style="stroke:#000000;stroke-width:0.8;" x="45.16" xlink:href="#m3187b610c9" y="65.753333"/>
      </g>
     </g>
     <g id="text_9">
      <!-- −20 -->
      <g transform="translate(17.055312 69.552552)scale(0.1 -0.1)">
       <use xlink:href="#DejaVuSans-8722"/>
       <use x="83.789062" xlink:href="#DejaVuSans-50"/>
       <use x="147.412109" xlink:href="#DejaVuSans-48"/>
      </g>
     </g>
    </g>
   </g>
   <g id="line2d_19">
    <path clip-path="url(#p4a72f44ba1)" d="M 45.970794 210.517765 
L 46.781587 198.81574 
L 47.592381 191.970508 
L 48.403175 187.113755 
L 49.213968 183.346581 
L 50.024762 180.268592 
L 51.646349 175.411935 
L 53.267937 171.644884 
L 54.889524 168.567046 
L 56.511111 165.964838 
L 58.132698 163.710772 
L 60.565079 160.809993 
L 62.99746 158.335525 
L 65.429841 156.178025 
L 68.673016 153.673314 
L 71.91619 151.493032 
L 75.159365 149.562779 
L 79.213333 147.424698 
L 83.267302 145.52782 
L 88.132063 143.502222 
L 93.807619 141.411511 
L 99.483175 139.552612 
L 105.969524 137.653516 
L 113.266667 135.746757 
L 121.374603 133.855941 
L 130.293333 131.997572 
L 140.833651 130.040122 
L 152.184762 128.163148 
L 165.15746 126.251855 
L 179.751746 124.339622 
L 195.967619 122.4507 
L 213.805079 120.602144 
L 234.074921 118.735023 
L 255.966349 116.942818 
L 281.100952 115.116069 
L 308.667937 113.3415 
L 339.478095 111.586899 
L 373.531429 109.874994 
L 411.63873 108.188782 
L 453.8 106.55257 
L 500.015238 104.984298 
L 551.095238 103.47441 
L 607.850794 102.021224 
L 671.092698 100.628568 
L 709.2 99.886021 
L 709.2 99.886021 
" style="fill:none;stroke:#ff0000;stroke-linecap:square;stroke-width:2;"/>
   </g>
   <g id="line2d_20">
    <path clip-path="url(#p4a72f44ba1)" d="M 45.16 191.583505 
L 47.592381 191.706714 
L 50.024762 192.08183 
L 52.457143 192.726158 
L 54.889524 193.671636 
L 56.511111 194.493999 
L 58.132698 195.49549 
L 59.754286 196.707317 
L 61.375873 198.173345 
L 62.99746 199.957112 
L 64.619048 202.154706 
L 66.240635 204.920478 
L 67.051429 206.593451 
L 67.862222 208.524861 
L 68.673016 210.79099 
L 69.48381 213.508813 
L 70.294603 216.871243 
L 71.105397 221.231401 
L 71.91619 227.350555 
L 72.726984 237.452496 
L 73.537778 268.774544 
L 74.348571 243.195802 
L 75.159365 229.474302 
L 75.970159 221.84174 
L 76.780952 216.48505 
L 77.591746 212.331404 
L 78.40254 208.924249 
L 80.024127 203.498416 
L 81.645714 199.226396 
L 83.267302 195.680454 
L 84.888889 192.635119 
L 86.510476 189.956776 
L 88.942857 186.447493 
L 91.375238 183.391984 
L 93.807619 180.676648 
L 97.050794 177.45946 
L 100.293968 174.598248 
L 103.537143 172.015174 
L 107.591111 169.09656 
L 111.645079 166.454718 
L 116.509841 163.57735 
L 121.374603 160.959541 
L 127.050159 158.172404 
L 132.725714 155.622271 
L 139.212063 152.947769 
L 146.509206 150.193051 
L 154.617143 147.393822 
L 162.725079 144.824194 
L 171.64381 142.220167 
L 181.373333 139.604084 
L 191.913651 136.9939 
L 203.264762 134.403944 
L 216.23746 131.68224 
L 230.020952 129.027212 
L 244.615238 126.442811 
L 260.831111 123.805741 
L 277.857778 121.265785 
L 296.506032 118.716964 
L 315.965079 116.284059 
L 337.045714 113.8781 
L 358.937143 111.603889 
L 382.450159 109.388697 
L 406.773968 107.320457 
L 432.719365 105.340949 
L 459.475556 103.522134 
L 487.853333 101.817207 
L 517.852698 100.241546 
L 549.473651 98.806575 
L 583.526984 97.490227 
L 620.012698 96.308538 
L 659.741587 95.250013 
L 703.524444 94.310971 
L 709.2 94.204247 
L 709.2 94.204247 
" style="fill:none;stroke:#008000;stroke-linecap:square;stroke-width:2;"/>
   </g>
   <g id="line2d_21">
    <path clip-path="url(#p4a72f44ba1)" d="M 45.970794 275.067888 
L 46.781587 263.38861 
L 47.592381 256.58136 
L 48.403175 251.777925 
L 49.213968 248.079551 
L 50.024762 245.086035 
L 50.835556 242.584029 
L 52.457143 238.591029 
L 54.07873 235.52076 
L 55.700317 233.089586 
L 57.321905 231.139284 
L 58.943492 229.574536 
L 60.565079 228.335686 
L 62.186667 227.38549 
L 63.808254 226.702306 
L 65.429841 226.276669 
L 67.051429 226.109952 
L 68.673016 226.214686 
L 70.294603 226.61662 
L 71.91619 227.35926 
L 73.537778 228.512712 
L 75.159365 230.191154 
L 75.970159 231.28336 
L 76.780952 232.590154 
L 77.591746 234.163166 
L 78.40254 236.07762 
L 79.213333 238.449008 
L 80.024127 241.46779 
L 80.834921 245.482079 
L 81.645714 251.239697 
L 82.456508 260.907044 
L 83.226869 289 
M 83.317682 289 
L 84.078095 266.74543 
L 84.888889 252.507234 
L 85.699683 244.525831 
L 86.510476 238.860107 
L 87.32127 234.415543 
L 88.132063 230.7287 
L 89.753651 224.766819 
L 91.375238 219.982488 
L 92.996825 215.94369 
L 94.618413 212.422563 
L 97.050794 207.82947 
L 99.483175 203.833079 
L 101.915556 200.274416 
L 104.347937 197.052781 
L 107.591111 193.166852 
L 110.834286 189.651105 
L 114.07746 186.431216 
L 118.131429 182.743392 
L 122.185397 179.362296 
L 127.050159 175.636028 
L 131.914921 172.208607 
L 136.779683 169.030935 
L 142.455238 165.590124 
L 148.130794 162.393592 
L 154.617143 158.995141 
L 161.914286 155.449011 
L 169.211429 152.153756 
L 177.319365 148.744681 
L 186.238095 145.258773 
L 195.156825 142.011878 
L 204.886349 138.706359 
L 215.426667 135.368329 
L 226.777778 132.020532 
L 238.939683 128.683078 
L 251.101587 125.574047 
L 264.074286 122.482798 
L 277.857778 119.428476 
L 292.452063 116.430707 
L 307.046349 113.658165 
L 322.451429 110.961357 
L 337.856508 108.489506 
L 353.261587 106.234292 
L 369.47746 104.086995 
L 385.693333 102.164687 
L 401.909206 100.458848 
L 418.935873 98.889291 
L 436.773333 97.472552 
L 455.421587 96.218886 
L 474.880635 95.131311 
L 495.96127 94.172541 
L 519.474286 93.327238 
L 546.230476 92.594138 
L 577.040635 91.977655 
L 614.337143 91.461829 
L 661.363175 91.045192 
L 709.2 90.784011 
L 709.2 90.784011 
" style="fill:none;stroke:#0000ff;stroke-linecap:square;stroke-width:2;"/>
   </g>
   <g id="line2d_22">
    <path clip-path="url(#p4a72f44ba1)" d="M 45.16 256.216949 
L 46.781587 256.399567 
L 48.403175 256.956716 
L 50.024762 257.918097 
L 51.646349 259.340091 
L 53.267937 261.319609 
L 54.07873 262.566548 
L 54.889524 264.024021 
L 55.700317 265.73527 
L 56.511111 267.762008 
L 57.321905 270.196316 
L 58.132698 273.184092 
L 58.943492 276.976832 
L 59.754286 282.066365 
L 60.496461 289 
M 63.431297 289 
L 63.808254 284.450672 
L 64.619048 278.295238 
L 65.429841 273.816466 
L 66.240635 270.317597 
L 67.051429 267.469444 
L 67.862222 265.090673 
L 69.48381 261.339703 
L 71.105397 258.561689 
L 72.726984 256.518342 
L 74.348571 255.092797 
L 75.159365 254.595178 
L 75.970159 254.239182 
L 76.780952 254.027529 
L 77.591746 253.966444 
L 78.40254 254.066208 
L 79.213333 254.34212 
L 80.024127 254.816085 
L 80.834921 255.51919 
L 81.645714 256.495988 
L 82.456508 257.811972 
L 83.267302 259.567421 
L 84.078095 261.92543 
L 84.888889 265.176012 
L 85.699683 269.911755 
L 86.510476 277.679806 
L 87.015526 289 
M 88.315285 289 
L 88.942857 274.359614 
L 89.753651 264.962668 
L 90.564444 258.466006 
L 91.375238 253.404109 
L 92.996825 245.584115 
L 94.618413 239.492255 
L 96.24 234.413297 
L 97.861587 230.00782 
L 99.483175 226.087003 
L 101.915556 220.871128 
L 104.347937 216.248713 
L 106.780317 212.07357 
L 110.023492 207.042449 
L 113.266667 202.490841 
L 116.509841 198.320062 
L 119.753016 194.461097 
L 123.806984 190.000205 
L 127.860952 185.875752 
L 131.914921 182.034134 
L 136.779683 177.740671 
L 141.644444 173.741899 
L 147.32 169.394029 
L 152.995556 165.339515 
L 158.671111 161.538361 
L 165.15746 157.46386 
L 171.64381 153.640807 
L 178.940952 149.602631 
L 186.238095 145.809139 
L 194.346032 141.846927 
L 202.453968 138.120701 
L 211.372698 134.264489 
L 221.102222 130.317337 
L 230.831746 126.614814 
L 241.372063 122.85601 
L 251.912381 119.341194 
L 262.452698 116.057821 
L 272.993016 112.998828 
L 283.533333 110.161659 
L 294.073651 107.547102 
L 304.613968 105.157848 
L 315.154286 102.996773 
L 325.694603 101.065089 
L 336.234921 99.360673 
L 346.775238 97.8769 
L 358.126349 96.512448 
L 369.47746 95.370443 
L 381.639365 94.366096 
L 395.422857 93.461945 
L 410.827937 92.690846 
L 427.854603 92.064992 
L 448.124444 91.543987 
L 474.069841 91.113253 
L 508.123175 90.785689 
L 558.392381 90.546719 
L 644.336508 90.391342 
L 709.2 90.344784 
L 709.2 90.344784 
" style="fill:none;stroke:#bf00bf;stroke-linecap:square;stroke-width:2;"/>
   </g>
   <g id="line2d_23">
    <path clip-path="url(#p4a72f44ba1)" d="M 148.941587 260.12 
L 148.941587 26.88 
" style="fill:none;stroke:#008000;stroke-dasharray:6.4,1.6,1,1.6;stroke-dashoffset:0;"/>
   </g>
   <g id="patch_3">
    <path d="M 45.16 260.12 
L 45.16 26.88 
" style="fill:none;stroke:#000000;stroke-linecap:square;stroke-linejoin:miter;stroke-width:0.8;"/>
   </g>
   <g id="patch_4">
    <path d="M 709.2 260.12 
L 709.2 26.88 
" style="fill:none;stroke:#000000;stroke-linecap:square;stroke-linejoin:miter;stroke-width:0.8;"/>
   </g>
   <g id="patch_5">
    <path d="M 45.16 260.12 
L 709.2 260.12 
" style="fill:none;stroke:#000000;stroke-linecap:square;stroke-linejoin:miter;stroke-width:0.8;"/>
   </g>
   <g id="patch_6">
    <path d="M 45.16 26.88 
L 709.2 26.88 
" style="fill:none;stroke:#000000;stroke-linecap:square;stroke-linejoin:miter;stroke-width:0.8;"/>
   </g>
   <g id="text_10">
    <!-- Noise Slopes for a 64x Oversampling Rate Convertor -->
    <defs>
     <path d="M 9.8125 72.90625 
L 23.09375 72.90625 
L 55.421875 11.921875 
L 55.421875 72.90625 
L 64.984375 72.90625 
L 64.984375 0 
L 51.703125 0 
L 19.390625 60.984375 
L 19.390625 0 
L 9.8125 0 
z
" id="DejaVuSans-78"/>
     <path d="M 30.609375 48.390625 
Q 23.390625 48.390625 19.1875 42.75 
Q 14.984375 37.109375 14.984375 27.296875 
Q 14.984375 17.484375 19.15625 11.84375 
Q 23.34375 6.203125 30.609375 6.203125 
Q 37.796875 6.203125 41.984375 11.859375 
Q 46.1875 17.53125 46.1875 27.296875 
Q 46.1875 37.015625 41.984375 42.703125 
Q 37.796875 48.390625 30.609375 48.390625 
z
M 30.609375 56 
Q 42.328125 56 49.015625 48.375 
Q 55.71875 40.765625 55.71875 27.296875 
Q 55.71875 13.875 49.015625 6.21875 
Q 42.328125 -1.421875 30.609375 -1.421875 
Q 18.84375 -1.421875 12.171875 6.21875 
Q 5.515625 13.875 5.515625 27.296875 
Q 5.515625 40.765625 12.171875 48.375 
Q 18.84375 56 30.609375 56 
z
" id="DejaVuSans-111"/>
     <path d="M 9.421875 54.6875 
L 18.40625 54.6875 
L 18.40625 0 
L 9.421875 0 
z
M 9.421875 75.984375 
L 18.40625 75.984375 
L 18.40625 64.59375 
L 9.421875 64.59375 
z
" id="DejaVuSans-105"/>
     <path d="M 44.28125 53.078125 
L 44.28125 44.578125 
Q 40.484375 46.53125 36.375 47.5 
Q 32.28125 48.484375 27.875 48.484375 
Q 21.1875 48.484375 17.84375 46.4375 
Q 14.5 44.390625 14.5 40.28125 
Q 14.5 37.15625 16.890625 35.375 
Q 19.28125 33.59375 26.515625 31.984375 
L 29.59375 31.296875 
Q 39.15625 29.25 43.1875 25.515625 
Q 47.21875 21.78125 47.21875 15.09375 
Q 47.21875 7.46875 41.1875 3.015625 
Q 35.15625 -1.421875 24.609375 -1.421875 
Q 20.21875 -1.421875 15.453125 -0.5625 
Q 10.6875 0.296875 5.421875 2 
L 5.421875 11.28125 
Q 10.40625 8.6875 15.234375 7.390625 
Q 20.0625 6.109375 24.8125 6.109375 
Q 31.15625 6.109375 34.5625 8.28125 
Q 37.984375 10.453125 37.984375 14.40625 
Q 37.984375 18.0625 35.515625 20.015625 
Q 33.0625 21.96875 24.703125 23.78125 
L 21.578125 24.515625 
Q 13.234375 26.265625 9.515625 29.90625 
Q 5.8125 33.546875 5.8125 39.890625 
Q 5.8125 47.609375 11.28125 51.796875 
Q 16.75 56 26.8125 56 
Q 31.78125 56 36.171875 55.265625 
Q 40.578125 54.546875 44.28125 53.078125 
z
" id="DejaVuSans-115"/>
     <path d="M 56.203125 29.59375 
L 56.203125 25.203125 
L 14.890625 25.203125 
Q 15.484375 15.921875 20.484375 11.0625 
Q 25.484375 6.203125 34.421875 6.203125 
Q 39.59375 6.203125 44.453125 7.46875 
Q 49.3125 8.734375 54.109375 11.28125 
L 54.109375 2.78125 
Q 49.265625 0.734375 44.1875 -0.34375 
Q 39.109375 -1.421875 33.890625 -1.421875 
Q 20.796875 -1.421875 13.15625 6.1875 
Q 5.515625 13.8125 5.515625 26.8125 
Q 5.515625 40.234375 12.765625 48.109375 
Q 20.015625 56 32.328125 56 
Q 43.359375 56 49.78125 48.890625 
Q 56.203125 41.796875 56.203125 29.59375 
z
M 47.21875 32.234375 
Q 47.125 39.59375 43.09375 43.984375 
Q 39.0625 48.390625 32.421875 48.390625 
Q 24.90625 48.390625 20.390625 44.140625 
Q 15.875 39.890625 15.1875 32.171875 
z
" id="DejaVuSans-101"/>
     <path id="DejaVuSans-32"/>
     <path d="M 53.515625 70.515625 
L 53.515625 60.890625 
Q 47.90625 63.578125 42.921875 64.890625 
Q 37.9375 66.21875 33.296875 66.21875 
Q 25.25 66.21875 20.875 63.09375 
Q 16.5 59.96875 16.5 54.203125 
Q 16.5 49.359375 19.40625 46.890625 
Q 22.3125 44.4375 30.421875 42.921875 
L 36.375 41.703125 
Q 47.40625 39.59375 52.65625 34.296875 
Q 57.90625 29 57.90625 20.125 
Q 57.90625 9.515625 50.796875 4.046875 
Q 43.703125 -1.421875 29.984375 -1.421875 
Q 24.8125 -1.421875 18.96875 -0.25 
Q 13.140625 0.921875 6.890625 3.21875 
L 6.890625 13.375 
Q 12.890625 10.015625 18.65625 8.296875 
Q 24.421875 6.59375 29.984375 6.59375 
Q 38.421875 6.59375 43.015625 9.90625 
Q 47.609375 13.234375 47.609375 19.390625 
Q 47.609375 24.75 44.3125 27.78125 
Q 41.015625 30.8125 33.5 32.328125 
L 27.484375 33.5 
Q 16.453125 35.6875 11.515625 40.375 
Q 6.59375 45.0625 6.59375 53.421875 
Q 6.59375 63.09375 13.40625 68.65625 
Q 20.21875 74.21875 32.171875 74.21875 
Q 37.3125 74.21875 42.625 73.28125 
Q 47.953125 72.359375 53.515625 70.515625 
z
" id="DejaVuSans-83"/>
     <path d="M 9.421875 75.984375 
L 18.40625 75.984375 
L 18.40625 0 
L 9.421875 0 
z
" id="DejaVuSans-108"/>
     <path d="M 18.109375 8.203125 
L 18.109375 -20.796875 
L 9.078125 -20.796875 
L 9.078125 54.6875 
L 18.109375 54.6875 
L 18.109375 46.390625 
Q 20.953125 51.265625 25.265625 53.625 
Q 29.59375 56 35.59375 56 
Q 45.5625 56 51.78125 48.09375 
Q 58.015625 40.1875 58.015625 27.296875 
Q 58.015625 14.40625 51.78125 6.484375 
Q 45.5625 -1.421875 35.59375 -1.421875 
Q 29.59375 -1.421875 25.265625 0.953125 
Q 20.953125 3.328125 18.109375 8.203125 
z
M 48.6875 27.296875 
Q 48.6875 37.203125 44.609375 42.84375 
Q 40.53125 48.484375 33.40625 48.484375 
Q 26.265625 48.484375 22.1875 42.84375 
Q 18.109375 37.203125 18.109375 27.296875 
Q 18.109375 17.390625 22.1875 11.75 
Q 26.265625 6.109375 33.40625 6.109375 
Q 40.53125 6.109375 44.609375 11.75 
Q 48.6875 17.390625 48.6875 27.296875 
z
" id="DejaVuSans-112"/>
     <path d="M 37.109375 75.984375 
L 37.109375 68.5 
L 28.515625 68.5 
Q 23.6875 68.5 21.796875 66.546875 
Q 19.921875 64.59375 19.921875 59.515625 
L 19.921875 54.6875 
L 34.71875 54.6875 
L 34.71875 47.703125 
L 19.921875 47.703125 
L 19.921875 0 
L 10.890625 0 
L 10.890625 47.703125 
L 2.296875 47.703125 
L 2.296875 54.6875 
L 10.890625 54.6875 
L 10.890625 58.5 
Q 10.890625 67.625 15.140625 71.796875 
Q 19.390625 75.984375 28.609375 75.984375 
z
" id="DejaVuSans-102"/>
     <path d="M 41.109375 46.296875 
Q 39.59375 47.171875 37.8125 47.578125 
Q 36.03125 48 33.890625 48 
Q 26.265625 48 22.1875 43.046875 
Q 18.109375 38.09375 18.109375 28.8125 
L 18.109375 0 
L 9.078125 0 
L 9.078125 54.6875 
L 18.109375 54.6875 
L 18.109375 46.1875 
Q 20.953125 51.171875 25.484375 53.578125 
Q 30.03125 56 36.53125 56 
Q 37.453125 56 38.578125 55.875 
Q 39.703125 55.765625 41.0625 55.515625 
z
" id="DejaVuSans-114"/>
     <path d="M 34.28125 27.484375 
Q 23.390625 27.484375 19.1875 25 
Q 14.984375 22.515625 14.984375 16.5 
Q 14.984375 11.71875 18.140625 8.90625 
Q 21.296875 6.109375 26.703125 6.109375 
Q 34.1875 6.109375 38.703125 11.40625 
Q 43.21875 16.703125 43.21875 25.484375 
L 43.21875 27.484375 
z
M 52.203125 31.203125 
L 52.203125 0 
L 43.21875 0 
L 43.21875 8.296875 
Q 40.140625 3.328125 35.546875 0.953125 
Q 30.953125 -1.421875 24.3125 -1.421875 
Q 15.921875 -1.421875 10.953125 3.296875 
Q 6 8.015625 6 15.921875 
Q 6 25.140625 12.171875 29.828125 
Q 18.359375 34.515625 30.609375 34.515625 
L 43.21875 34.515625 
L 43.21875 35.40625 
Q 43.21875 41.609375 39.140625 45 
Q 35.0625 48.390625 27.6875 48.390625 
Q 23 48.390625 18.546875 47.265625 
Q 14.109375 46.140625 10.015625 43.890625 
L 10.015625 52.203125 
Q 14.9375 54.109375 19.578125 55.046875 
Q 24.21875 56 28.609375 56 
Q 40.484375 56 46.34375 49.84375 
Q 52.203125 43.703125 52.203125 31.203125 
z
" id="DejaVuSans-97"/>
     <path d="M 54.890625 54.6875 
L 35.109375 28.078125 
L 55.90625 0 
L 45.3125 0 
L 29.390625 21.484375 
L 13.484375 0 
L 2.875 0 
L 24.125 28.609375 
L 4.6875 54.6875 
L 15.28125 54.6875 
L 29.78125 35.203125 
L 44.28125 54.6875 
z
" id="DejaVuSans-120"/>
     <path d="M 39.40625 66.21875 
Q 28.65625 66.21875 22.328125 58.203125 
Q 16.015625 50.203125 16.015625 36.375 
Q 16.015625 22.609375 22.328125 14.59375 
Q 28.65625 6.59375 39.40625 6.59375 
Q 50.140625 6.59375 56.421875 14.59375 
Q 62.703125 22.609375 62.703125 36.375 
Q 62.703125 50.203125 56.421875 58.203125 
Q 50.140625 66.21875 39.40625 66.21875 
z
M 39.40625 74.21875 
Q 54.734375 74.21875 63.90625 63.9375 
Q 73.09375 53.65625 73.09375 36.375 
Q 73.09375 19.140625 63.90625 8.859375 
Q 54.734375 -1.421875 39.40625 -1.421875 
Q 24.03125 -1.421875 14.8125 8.828125 
Q 5.609375 19.09375 5.609375 36.375 
Q 5.609375 53.65625 14.8125 63.9375 
Q 24.03125 74.21875 39.40625 74.21875 
z
" id="DejaVuSans-79"/>
     <path d="M 2.984375 54.6875 
L 12.5 54.6875 
L 29.59375 8.796875 
L 46.6875 54.6875 
L 56.203125 54.6875 
L 35.6875 0 
L 23.484375 0 
z
" id="DejaVuSans-118"/>
     <path d="M 52 44.1875 
Q 55.375 50.25 60.0625 53.125 
Q 64.75 56 71.09375 56 
Q 79.640625 56 84.28125 50.015625 
Q 88.921875 44.046875 88.921875 33.015625 
L 88.921875 0 
L 79.890625 0 
L 79.890625 32.71875 
Q 79.890625 40.578125 77.09375 44.375 
Q 74.3125 48.1875 68.609375 48.1875 
Q 61.625 48.1875 57.5625 43.546875 
Q 53.515625 38.921875 53.515625 30.90625 
L 53.515625 0 
L 44.484375 0 
L 44.484375 32.71875 
Q 44.484375 40.625 41.703125 44.40625 
Q 38.921875 48.1875 33.109375 48.1875 
Q 26.21875 48.1875 22.15625 43.53125 
Q 18.109375 38.875 18.109375 30.90625 
L 18.109375 0 
L 9.078125 0 
L 9.078125 54.6875 
L 18.109375 54.6875 
L 18.109375 46.1875 
Q 21.1875 51.21875 25.484375 53.609375 
Q 29.78125 56 35.6875 56 
Q 41.65625 56 45.828125 52.96875 
Q 50 49.953125 52 44.1875 
z
" id="DejaVuSans-109"/>
     <path d="M 54.890625 33.015625 
L 54.890625 0 
L 45.90625 0 
L 45.90625 32.71875 
Q 45.90625 40.484375 42.875 44.328125 
Q 39.84375 48.1875 33.796875 48.1875 
Q 26.515625 48.1875 22.3125 43.546875 
Q 18.109375 38.921875 18.109375 30.90625 
L 18.109375 0 
L 9.078125 0 
L 9.078125 54.6875 
L 18.109375 54.6875 
L 18.109375 46.1875 
Q 21.34375 51.125 25.703125 53.5625 
Q 30.078125 56 35.796875 56 
Q 45.21875 56 50.046875 50.171875 
Q 54.890625 44.34375 54.890625 33.015625 
z
" id="DejaVuSans-110"/>
     <path d="M 45.40625 27.984375 
Q 45.40625 37.75 41.375 43.109375 
Q 37.359375 48.484375 30.078125 48.484375 
Q 22.859375 48.484375 18.828125 43.109375 
Q 14.796875 37.75 14.796875 27.984375 
Q 14.796875 18.265625 18.828125 12.890625 
Q 22.859375 7.515625 30.078125 7.515625 
Q 37.359375 7.515625 41.375 12.890625 
Q 45.40625 18.265625 45.40625 27.984375 
z
M 54.390625 6.78125 
Q 54.390625 -7.171875 48.1875 -13.984375 
Q 42 -20.796875 29.203125 -20.796875 
Q 24.46875 -20.796875 20.265625 -20.09375 
Q 16.0625 -19.390625 12.109375 -17.921875 
L 12.109375 -9.1875 
Q 16.0625 -11.328125 19.921875 -12.34375 
Q 23.78125 -13.375 27.78125 -13.375 
Q 36.625 -13.375 41.015625 -8.765625 
Q 45.40625 -4.15625 45.40625 5.171875 
L 45.40625 9.625 
Q 42.625 4.78125 38.28125 2.390625 
Q 33.9375 0 27.875 0 
Q 17.828125 0 11.671875 7.65625 
Q 5.515625 15.328125 5.515625 27.984375 
Q 5.515625 40.671875 11.671875 48.328125 
Q 17.828125 56 27.875 56 
Q 33.9375 56 38.28125 53.609375 
Q 42.625 51.21875 45.40625 46.390625 
L 45.40625 54.6875 
L 54.390625 54.6875 
z
" id="DejaVuSans-103"/>
     <path d="M 44.390625 34.1875 
Q 47.5625 33.109375 50.5625 29.59375 
Q 53.5625 26.078125 56.59375 19.921875 
L 66.609375 0 
L 56 0 
L 46.6875 18.703125 
Q 43.0625 26.03125 39.671875 28.421875 
Q 36.28125 30.8125 30.421875 30.8125 
L 19.671875 30.8125 
L 19.671875 0 
L 9.8125 0 
L 9.8125 72.90625 
L 32.078125 72.90625 
Q 44.578125 72.90625 50.734375 67.671875 
Q 56.890625 62.453125 56.890625 51.90625 
Q 56.890625 45.015625 53.6875 40.46875 
Q 50.484375 35.9375 44.390625 34.1875 
z
M 19.671875 64.796875 
L 19.671875 38.921875 
L 32.078125 38.921875 
Q 39.203125 38.921875 42.84375 42.21875 
Q 46.484375 45.515625 46.484375 51.90625 
Q 46.484375 58.296875 42.84375 61.546875 
Q 39.203125 64.796875 32.078125 64.796875 
z
" id="DejaVuSans-82"/>
     <path d="M 18.3125 70.21875 
L 18.3125 54.6875 
L 36.8125 54.6875 
L 36.8125 47.703125 
L 18.3125 47.703125 
L 18.3125 18.015625 
Q 18.3125 11.328125 20.140625 9.421875 
Q 21.96875 7.515625 27.59375 7.515625 
L 36.8125 7.515625 
L 36.8125 0 
L 27.59375 0 
Q 17.1875 0 13.234375 3.875 
Q 9.28125 7.765625 9.28125 18.015625 
L 9.28125 47.703125 
L 2.6875 47.703125 
L 2.6875 54.6875 
L 9.28125 54.6875 
L 9.28125 70.21875 
z
" id="DejaVuSans-116"/>
     <path d="M 64.40625 67.28125 
L 64.40625 56.890625 
Q 59.421875 61.53125 53.78125 63.8125 
Q 48.140625 66.109375 41.796875 66.109375 
Q 29.296875 66.109375 22.65625 58.46875 
Q 16.015625 50.828125 16.015625 36.375 
Q 16.015625 21.96875 22.65625 14.328125 
Q 29.296875 6.6875 41.796875 6.6875 
Q 48.140625 6.6875 53.78125 8.984375 
Q 59.421875 11.28125 64.40625 15.921875 
L 64.40625 5.609375 
Q 59.234375 2.09375 53.4375 0.328125 
Q 47.65625 -1.421875 41.21875 -1.421875 
Q 24.65625 -1.421875 15.125 8.703125 
Q 5.609375 18.84375 5.609375 36.375 
Q 5.609375 53.953125 15.125 64.078125 
Q 24.65625 74.21875 41.21875 74.21875 
Q 47.75 74.21875 53.53125 72.484375 
Q 59.328125 70.75 64.40625 67.28125 
z
" id="DejaVuSans-67"/>
    </defs>
    <g transform="translate(218.848438 20.88)scale(0.12 -0.12)">
     <use xlink:href="#DejaVuSans-78"/>
     <use x="74.804688" xlink:href="#DejaVuSans-111"/>
     <use x="135.986328" xlink:href="#DejaVuSans-105"/>
     <use x="163.769531" xlink:href="#DejaVuSans-115"/>
     <use x="215.869141" xlink:href="#DejaVuSans-101"/>
     <use x="277.392578" xlink:href="#DejaVuSans-32"/>
     <use x="309.179688" xlink:href="#DejaVuSans-83"/>
     <use x="372.65625" xlink:href="#DejaVuSans-108"/>
     <use x="400.439453" xlink:href="#DejaVuSans-111"/>
     <use x="461.621094" xlink:href="#DejaVuSans-112"/>
     <use x="525.097656" xlink:href="#DejaVuSans-101"/>
     <use x="586.621094" xlink:href="#DejaVuSans-115"/>
     <use x="638.720703" xlink:href="#DejaVuSans-32"/>
     <use x="670.507812" xlink:href="#DejaVuSans-102"/>
     <use x="705.712891" xlink:href="#DejaVuSans-111"/>
     <use x="766.894531" xlink:href="#DejaVuSans-114"/>
     <use x="808.007812" xlink:href="#DejaVuSans-32"/>
     <use x="839.794922" xlink:href="#DejaVuSans-97"/>
     <use x="901.074219" xlink:href="#DejaVuSans-32"/>
     <use x="932.861328" xlink:href="#DejaVuSans-54"/>
     <use x="996.484375" xlink:href="#DejaVuSans-52"/>
     <use x="1060.107422" xlink:href="#DejaVuSans-120"/>
     <use x="1119.287109" xlink:href="#DejaVuSans-32"/>
     <use x="1151.074219" xlink:href="#DejaVuSans-79"/>
     <use x="1229.785156" xlink:href="#DejaVuSans-118"/>
     <use x="1288.964844" xlink:href="#DejaVuSans-101"/>
     <use x="1350.488281" xlink:href="#DejaVuSans-114"/>
     <use x="1391.601562" xlink:href="#DejaVuSans-115"/>
     <use x="1443.701172" xlink:href="#DejaVuSans-97"/>
     <use x="1504.980469" xlink:href="#DejaVuSans-109"/>
     <use x="1602.392578" xlink:href="#DejaVuSans-112"/>
     <use x="1665.869141" xlink:href="#DejaVuSans-108"/>
     <use x="1693.652344" xlink:href="#DejaVuSans-105"/>
     <use x="1721.435547" xlink:href="#DejaVuSans-110"/>
     <use x="1784.814453" xlink:href="#DejaVuSans-103"/>
     <use x="1848.291016" xlink:href="#DejaVuSans-32"/>
     <use x="1880.078125" xlink:href="#DejaVuSans-82"/>
     <use x="1947.310547" xlink:href="#DejaVuSans-97"/>
     <use x="2008.589844" xlink:href="#DejaVuSans-116"/>
     <use x="2047.798828" xlink:href="#DejaVuSans-101"/>
     <use x="2109.322266" xlink:href="#DejaVuSans-32"/>
     <use x="2141.109375" xlink:href="#DejaVuSans-67"/>
     <use x="2210.933594" xlink:href="#DejaVuSans-111"/>
     <use x="2272.115234" xlink:href="#DejaVuSans-110"/>
     <use x="2335.494141" xlink:href="#DejaVuSans-118"/>
     <use x="2394.673828" xlink:href="#DejaVuSans-101"/>
     <use x="2456.197266" xlink:href="#DejaVuSans-114"/>
     <use x="2497.310547" xlink:href="#DejaVuSans-116"/>
     <use x="2536.519531" xlink:href="#DejaVuSans-111"/>
     <use x="2597.701172" xlink:href="#DejaVuSans-114"/>
    </g>
   </g>
   <g id="legend_1">
    <g id="patch_7">
     <path d="M 596.296875 255.12 
L 702.2 255.12 
Q 704.2 255.12 704.2 253.12 
L 704.2 195.4075 
Q 704.2 193.4075 702.2 193.4075 
L 596.296875 193.4075 
Q 594.296875 193.4075 594.296875 195.4075 
L 594.296875 253.12 
Q 594.296875 255.12 596.296875 255.12 
z
" style="fill:#ffffff;opacity:0.8;stroke:#cccccc;stroke-linejoin:miter;"/>
    </g>
    <g id="line2d_24">
     <path d="M 598.296875 201.505937 
L 618.296875 201.505937 
" style="fill:none;stroke:#ff0000;stroke-linecap:square;stroke-width:2;"/>
    </g>
    <g id="line2d_25"/>
    <g id="text_11">
     <!-- PSD 1st Order -->
     <defs>
      <path d="M 19.671875 64.796875 
L 19.671875 37.40625 
L 32.078125 37.40625 
Q 38.96875 37.40625 42.71875 40.96875 
Q 46.484375 44.53125 46.484375 51.125 
Q 46.484375 57.671875 42.71875 61.234375 
Q 38.96875 64.796875 32.078125 64.796875 
z
M 9.8125 72.90625 
L 32.078125 72.90625 
Q 44.34375 72.90625 50.609375 67.359375 
Q 56.890625 61.8125 56.890625 51.125 
Q 56.890625 40.328125 50.609375 34.8125 
Q 44.34375 29.296875 32.078125 29.296875 
L 19.671875 29.296875 
L 19.671875 0 
L 9.8125 0 
z
" id="DejaVuSans-80"/>
      <path d="M 19.671875 64.796875 
L 19.671875 8.109375 
L 31.59375 8.109375 
Q 46.6875 8.109375 53.6875 14.9375 
Q 60.6875 21.78125 60.6875 36.53125 
Q 60.6875 51.171875 53.6875 57.984375 
Q 46.6875 64.796875 31.59375 64.796875 
z
M 9.8125 72.90625 
L 30.078125 72.90625 
Q 51.265625 72.90625 61.171875 64.09375 
Q 71.09375 55.28125 71.09375 36.53125 
Q 71.09375 17.671875 61.125 8.828125 
Q 51.171875 0 30.078125 0 
L 9.8125 0 
z
" id="DejaVuSans-68"/>
      <path d="M 45.40625 46.390625 
L 45.40625 75.984375 
L 54.390625 75.984375 
L 54.390625 0 
L 45.40625 0 
L 45.40625 8.203125 
Q 42.578125 3.328125 38.25 0.953125 
Q 33.9375 -1.421875 27.875 -1.421875 
Q 17.96875 -1.421875 11.734375 6.484375 
Q 5.515625 14.40625 5.515625 27.296875 
Q 5.515625 40.1875 11.734375 48.09375 
Q 17.96875 56 27.875 56 
Q 33.9375 56 38.25 53.625 
Q 42.578125 51.265625 45.40625 46.390625 
z
M 14.796875 27.296875 
Q 14.796875 17.390625 18.875 11.75 
Q 22.953125 6.109375 30.078125 6.109375 
Q 37.203125 6.109375 41.296875 11.75 
Q 45.40625 17.390625 45.40625 27.296875 
Q 45.40625 37.203125 41.296875 42.84375 
Q 37.203125 48.484375 30.078125 48.484375 
Q 22.953125 48.484375 18.875 42.84375 
Q 14.796875 37.203125 14.796875 27.296875 
z
" id="DejaVuSans-100"/>
     </defs>
     <g transform="translate(626.296875 205.005937)scale(0.1 -0.1)">
      <use xlink:href="#DejaVuSans-80"/>
      <use x="60.302734" xlink:href="#DejaVuSans-83"/>
      <use x="123.779297" xlink:href="#DejaVuSans-68"/>
      <use x="200.78125" xlink:href="#DejaVuSans-32"/>
      <use x="232.568359" xlink:href="#DejaVuSans-49"/>
      <use x="296.191406" xlink:href="#DejaVuSans-115"/>
      <use x="348.291016" xlink:href="#DejaVuSans-116"/>
      <use x="387.5" xlink:href="#DejaVuSans-32"/>
      <use x="419.287109" xlink:href="#DejaVuSans-79"/>
      <use x="497.998047" xlink:href="#DejaVuSans-114"/>
      <use x="537.361328" xlink:href="#DejaVuSans-100"/>
      <use x="600.837891" xlink:href="#DejaVuSans-101"/>
      <use x="662.361328" xlink:href="#DejaVuSans-114"/>
     </g>
    </g>
    <g id="line2d_26">
     <path d="M 598.296875 216.184062 
L 618.296875 216.184062 
" style="fill:none;stroke:#008000;stroke-linecap:square;stroke-width:2;"/>
    </g>
    <g id="line2d_27"/>
    <g id="text_12">
     <!-- PSD 2nd Order -->
     <g transform="translate(626.296875 219.684062)scale(0.1 -0.1)">
      <use xlink:href="#DejaVuSans-80"/>
      <use x="60.302734" xlink:href="#DejaVuSans-83"/>
      <use x="123.779297" xlink:href="#DejaVuSans-68"/>
      <use x="200.78125" xlink:href="#DejaVuSans-32"/>
      <use x="232.568359" xlink:href="#DejaVuSans-50"/>
      <use x="296.191406" xlink:href="#DejaVuSans-110"/>
      <use x="359.570312" xlink:href="#DejaVuSans-100"/>
      <use x="423.046875" xlink:href="#DejaVuSans-32"/>
      <use x="454.833984" xlink:href="#DejaVuSans-79"/>
      <use x="533.544922" xlink:href="#DejaVuSans-114"/>
      <use x="572.908203" xlink:href="#DejaVuSans-100"/>
      <use x="636.384766" xlink:href="#DejaVuSans-101"/>
      <use x="697.908203" xlink:href="#DejaVuSans-114"/>
     </g>
    </g>
    <g id="line2d_28">
     <path d="M 598.296875 230.862188 
L 618.296875 230.862188 
" style="fill:none;stroke:#0000ff;stroke-linecap:square;stroke-width:2;"/>
    </g>
    <g id="line2d_29"/>
    <g id="text_13">
     <!-- PSD 3rd Order -->
     <defs>
      <path d="M 40.578125 39.3125 
Q 47.65625 37.796875 51.625 33 
Q 55.609375 28.21875 55.609375 21.1875 
Q 55.609375 10.40625 48.1875 4.484375 
Q 40.765625 -1.421875 27.09375 -1.421875 
Q 22.515625 -1.421875 17.65625 -0.515625 
Q 12.796875 0.390625 7.625 2.203125 
L 7.625 11.71875 
Q 11.71875 9.328125 16.59375 8.109375 
Q 21.484375 6.890625 26.8125 6.890625 
Q 36.078125 6.890625 40.9375 10.546875 
Q 45.796875 14.203125 45.796875 21.1875 
Q 45.796875 27.640625 41.28125 31.265625 
Q 36.765625 34.90625 28.71875 34.90625 
L 20.21875 34.90625 
L 20.21875 43.015625 
L 29.109375 43.015625 
Q 36.375 43.015625 40.234375 45.921875 
Q 44.09375 48.828125 44.09375 54.296875 
Q 44.09375 59.90625 40.109375 62.90625 
Q 36.140625 65.921875 28.71875 65.921875 
Q 24.65625 65.921875 20.015625 65.03125 
Q 15.375 64.15625 9.8125 62.3125 
L 9.8125 71.09375 
Q 15.4375 72.65625 20.34375 73.4375 
Q 25.25 74.21875 29.59375 74.21875 
Q 40.828125 74.21875 47.359375 69.109375 
Q 53.90625 64.015625 53.90625 55.328125 
Q 53.90625 49.265625 50.4375 45.09375 
Q 46.96875 40.921875 40.578125 39.3125 
z
" id="DejaVuSans-51"/>
     </defs>
     <g transform="translate(626.296875 234.362188)scale(0.1 -0.1)">
      <use xlink:href="#DejaVuSans-80"/>
      <use x="60.302734" xlink:href="#DejaVuSans-83"/>
      <use x="123.779297" xlink:href="#DejaVuSans-68"/>
      <use x="200.78125" xlink:href="#DejaVuSans-32"/>
      <use x="232.568359" xlink:href="#DejaVuSans-51"/>
      <use x="296.191406" xlink:href="#DejaVuSans-114"/>
      <use x="335.554688" xlink:href="#DejaVuSans-100"/>
      <use x="399.03125" xlink:href="#DejaVuSans-32"/>
      <use x="430.818359" xlink:href="#DejaVuSans-79"/>
      <use x="509.529297" xlink:href="#DejaVuSans-114"/>
      <use x="548.892578" xlink:href="#DejaVuSans-100"/>
      <use x="612.369141" xlink:href="#DejaVuSans-101"/>
      <use x="673.892578" xlink:href="#DejaVuSans-114"/>
     </g>
    </g>
    <g id="line2d_30">
     <path d="M 598.296875 245.540312 
L 618.296875 245.540312 
" style="fill:none;stroke:#bf00bf;stroke-linecap:square;stroke-width:2;"/>
    </g>
    <g id="line2d_31"/>
    <g id="text_14">
     <!-- PSD 4rd Order -->
     <g transform="translate(626.296875 249.040312)scale(0.1 -0.1)">
      <use xlink:href="#DejaVuSans-80"/>
      <use x="60.302734" xlink:href="#DejaVuSans-83"/>
      <use x="123.779297" xlink:href="#DejaVuSans-68"/>
      <use x="200.78125" xlink:href="#DejaVuSans-32"/>
      <use x="232.568359" xlink:href="#DejaVuSans-52"/>
      <use x="296.191406" xlink:href="#DejaVuSans-114"/>
      <use x="335.554688" xlink:href="#DejaVuSans-100"/>
      <use x="399.03125" xlink:href="#DejaVuSans-32"/>
      <use x="430.818359" xlink:href="#DejaVuSans-79"/>
      <use x="509.529297" xlink:href="#DejaVuSans-114"/>
      <use x="548.892578" xlink:href="#DejaVuSans-100"/>
      <use x="612.369141" xlink:href="#DejaVuSans-101"/>
      <use x="673.892578" xlink:href="#DejaVuSans-114"/>
     </g>
    </g>
   </g>
  </g>
 </g>
 <defs>
  <clipPath id="p4a72f44ba1">
   <rect height="233.24" width="664.04" x="45.16" y="26.88"/>
  </clipPath>
 </defs>
</svg>
