<?xml version="1.0" encoding="utf-8" standalone="no"?>
<!DOCTYPE svg PUBLIC "-//W3C//DTD SVG 1.1//EN"
  "http://www.w3.org/Graphics/SVG/1.1/DTD/svg11.dtd">
<!-- Created with matplotlib (https://matplotlib.org/) -->
<svg height="360pt" version="1.1" viewBox="0 0 720 360" width="720pt" xmlns="http://www.w3.org/2000/svg" xmlns:xlink="http://www.w3.org/1999/xlink">
 <defs>
  <style type="text/css">
*{stroke-linecap:butt;stroke-linejoin:round;}
  </style>
 </defs>
 <g id="figure_1">
  <g id="patch_1">
   <path d="M 0 360 
L 720 360 
L 720 0 
L 0 0 
z
" style="fill:#ffffff;"/>
  </g>
  <g id="axes_1">
   <g id="patch_2">
    <path d="M 45.16 332.12 
L 660.27 332.12 
L 660.27 26.88 
L 45.16 26.88 
z
" style="fill:#ffffff;"/>
   </g>
   <g id="matplotlib.axis_1">
    <g id="xtick_1">
     <g id="line2d_1">
      <path clip-path="url(#p1e1c33b49d)" d="M 45.16 332.12 
L 45.16 26.88 
" style="fill:none;stroke:#b0b0b0;stroke-linecap:square;stroke-width:0.8;"/>
     </g>
     <g id="line2d_2">
      <defs>
       <path d="M 0 0 
L 0 3.5 
" id="md81e34b16c" style="stroke:#000000;stroke-width:0.8;"/>
      </defs>
      <g>
       <use style="stroke:#000000;stroke-width:0.8;" x="45.16" xlink:href="#md81e34b16c" y="332.12"/>
      </g>
     </g>
     <g id="text_1">
      <!-- 0.00 -->
      <defs>
       <path d="M 31.78125 66.40625 
Q 24.171875 66.40625 20.328125 58.90625 
Q 16.5 51.421875 16.5 36.375 
Q 16.5 21.390625 20.328125 13.890625 
Q 24.171875 6.390625 31.78125 6.390625 
Q 39.453125 6.390625 43.28125 13.890625 
Q 47.125 21.390625 47.125 36.375 
Q 47.125 51.421875 43.28125 58.90625 
Q 39.453125 66.40625 31.78125 66.40625 
z
M 31.78125 74.21875 
Q 44.046875 74.21875 50.515625 64.515625 
Q 56.984375 54.828125 56.984375 36.375 
Q 56.984375 17.96875 50.515625 8.265625 
Q 44.046875 -1.421875 31.78125 -1.421875 
Q 19.53125 -1.421875 13.0625 8.265625 
Q 6.59375 17.96875 6.59375 36.375 
Q 6.59375 54.828125 13.0625 64.515625 
Q 19.53125 74.21875 31.78125 74.21875 
z
" id="DejaVuSans-48"/>
       <path d="M 10.6875 12.40625 
L 21 12.40625 
L 21 0 
L 10.6875 0 
z
" id="DejaVuSans-46"/>
      </defs>
      <g transform="translate(34.027187 346.718437)scale(0.1 -0.1)">
       <use xlink:href="#DejaVuSans-48"/>
       <use x="63.623047" xlink:href="#DejaVuSans-46"/>
       <use x="95.410156" xlink:href="#DejaVuSans-48"/>
       <use x="159.033203" xlink:href="#DejaVuSans-48"/>
      </g>
     </g>
    </g>
    <g id="xtick_2">
     <g id="line2d_3">
      <path clip-path="url(#p1e1c33b49d)" d="M 557.751667 332.12 
L 557.751667 26.88 
" style="fill:none;stroke:#b0b0b0;stroke-linecap:square;stroke-width:0.8;"/>
     </g>
     <g id="line2d_4">
      <g>
       <use style="stroke:#000000;stroke-width:0.8;" x="557.751667" xlink:href="#md81e34b16c" y="332.12"/>
      </g>
     </g>
     <g id="text_2">
      <!-- 0.05 -->
      <defs>
       <path d="M 10.796875 72.90625 
L 49.515625 72.90625 
L 49.515625 64.59375 
L 19.828125 64.59375 
L 19.828125 46.734375 
Q 21.96875 47.46875 24.109375 47.828125 
Q 26.265625 48.1875 28.421875 48.1875 
Q 40.625 48.1875 47.75 41.5 
Q 54.890625 34.8125 54.890625 23.390625 
Q 54.890625 11.625 47.5625 5.09375 
Q 40.234375 -1.421875 26.90625 -1.421875 
Q 22.3125 -1.421875 17.546875 -0.640625 
Q 12.796875 0.140625 7.71875 1.703125 
L 7.71875 11.625 
Q 12.109375 9.234375 16.796875 8.0625 
Q 21.484375 6.890625 26.703125 6.890625 
Q 35.15625 6.890625 40.078125 11.328125 
Q 45.015625 15.765625 45.015625 23.390625 
Q 45.015625 31 40.078125 35.4375 
Q 35.15625 39.890625 26.703125 39.890625 
Q 22.75 39.890625 18.8125 39.015625 
Q 14.890625 38.140625 10.796875 36.28125 
z
" id="DejaVuSans-53"/>
      </defs>
      <g transform="translate(546.618854 346.718437)scale(0.1 -0.1)">
       <use xlink:href="#DejaVuSans-48"/>
       <use x="63.623047" xlink:href="#DejaVuSans-46"/>
       <use x="95.410156" xlink:href="#DejaVuSans-48"/>
       <use x="159.033203" xlink:href="#DejaVuSans-53"/>
      </g>
     </g>
    </g>
   </g>
   <g id="matplotlib.axis_2">
    <g id="ytick_1">
     <g id="line2d_5">
      <path clip-path="url(#p1e1c33b49d)" d="M 45.16 308.64 
L 660.27 308.64 
" style="fill:none;stroke:#b0b0b0;stroke-linecap:square;stroke-width:0.8;"/>
     </g>
     <g id="line2d_6">
      <defs>
       <path d="M 0 0 
L -3.5 0 
" id="mcc68570420" style="stroke:#000000;stroke-width:0.8;"/>
      </defs>
      <g>
       <use style="stroke:#000000;stroke-width:0.8;" x="45.16" xlink:href="#mcc68570420" y="308.64"/>
      </g>
     </g>
     <g id="text_3">
      <!-- −120 -->
      <defs>
       <path d="M 10.59375 35.5 
L 73.1875 35.5 
L 73.1875 27.203125 
L 10.59375 27.203125 
z
" id="DejaVuSans-8722"/>
       <path d="M 12.40625 8.296875 
L 28.515625 8.296875 
L 28.515625 63.921875 
L 10.984375 60.40625 
L 10.984375 69.390625 
L 28.421875 72.90625 
L 38.28125 72.90625 
L 38.28125 8.296875 
L 54.390625 8.296875 
L 54.390625 0 
L 12.40625 0 
z
" id="DejaVuSans-49"/>
       <path d="M 19.1875 8.296875 
L 53.609375 8.296875 
L 53.609375 0 
L 7.328125 0 
L 7.328125 8.296875 
Q 12.9375 14.109375 22.625 23.890625 
Q 32.328125 33.6875 34.8125 36.53125 
Q 39.546875 41.84375 41.421875 45.53125 
Q 43.3125 49.21875 43.3125 52.78125 
Q 43.3125 58.59375 39.234375 62.25 
Q 35.15625 65.921875 28.609375 65.921875 
Q 23.96875 65.921875 18.8125 64.3125 
Q 13.671875 62.703125 7.8125 59.421875 
L 7.8125 69.390625 
Q 13.765625 71.78125 18.9375 73 
Q 24.125 74.21875 28.421875 74.21875 
Q 39.75 74.21875 46.484375 68.546875 
Q 53.21875 62.890625 53.21875 53.421875 
Q 53.21875 48.921875 51.53125 44.890625 
Q 49.859375 40.875 45.40625 35.40625 
Q 44.1875 33.984375 37.640625 27.21875 
Q 31.109375 20.453125 19.1875 8.296875 
z
" id="DejaVuSans-50"/>
      </defs>
      <g transform="translate(10.692812 312.439219)scale(0.1 -0.1)">
       <use xlink:href="#DejaVuSans-8722"/>
       <use x="83.789062" xlink:href="#DejaVuSans-49"/>
       <use x="147.412109" xlink:href="#DejaVuSans-50"/>
       <use x="211.035156" xlink:href="#DejaVuSans-48"/>
      </g>
     </g>
    </g>
    <g id="ytick_2">
     <g id="line2d_7">
      <path clip-path="url(#p1e1c33b49d)" d="M 45.16 261.68 
L 660.27 261.68 
" style="fill:none;stroke:#b0b0b0;stroke-linecap:square;stroke-width:0.8;"/>
     </g>
     <g id="line2d_8">
      <g>
       <use style="stroke:#000000;stroke-width:0.8;" x="45.16" xlink:href="#mcc68570420" y="261.68"/>
      </g>
     </g>
     <g id="text_4">
      <!-- −100 -->
      <g transform="translate(10.692812 265.479219)scale(0.1 -0.1)">
       <use xlink:href="#DejaVuSans-8722"/>
       <use x="83.789062" xlink:href="#DejaVuSans-49"/>
       <use x="147.412109" xlink:href="#DejaVuSans-48"/>
       <use x="211.035156" xlink:href="#DejaVuSans-48"/>
      </g>
     </g>
    </g>
    <g id="ytick_3">
     <g id="line2d_9">
      <path clip-path="url(#p1e1c33b49d)" d="M 45.16 214.72 
L 660.27 214.72 
" style="fill:none;stroke:#b0b0b0;stroke-linecap:square;stroke-width:0.8;"/>
     </g>
     <g id="line2d_10">
      <g>
       <use style="stroke:#000000;stroke-width:0.8;" x="45.16" xlink:href="#mcc68570420" y="214.72"/>
      </g>
     </g>
     <g id="text_5">
      <!-- −80 -->
      <defs>
       <path d="M 31.78125 34.625 
Q 24.75 34.625 20.71875 30.859375 
Q 16.703125 27.09375 16.703125 20.515625 
Q 16.703125 13.921875 20.71875 10.15625 
Q 24.75 6.390625 31.78125 6.390625 
Q 38.8125 6.390625 42.859375 10.171875 
Q 46.921875 13.96875 46.921875 20.515625 
Q 46.921875 27.09375 42.890625 30.859375 
Q 38.875 34.625 31.78125 34.625 
z
M 21.921875 38.8125 
Q 15.578125 40.375 12.03125 44.71875 
Q 8.5 49.078125 8.5 55.328125 
Q 8.5 64.0625 14.71875 69.140625 
Q 20.953125 74.21875 31.78125 74.21875 
Q 42.671875 74.21875 48.875 69.140625 
Q 55.078125 64.0625 55.078125 55.328125 
Q 55.078125 49.078125 51.53125 44.71875 
Q 48 40.375 41.703125 38.8125 
Q 48.828125 37.15625 52.796875 32.3125 
Q 56.78125 27.484375 56.78125 20.515625 
Q 56.78125 9.90625 50.3125 4.234375 
Q 43.84375 -1.421875 31.78125 -1.421875 
Q 19.734375 -1.421875 13.25 4.234375 
Q 6.78125 9.90625 6.78125 20.515625 
Q 6.78125 27.484375 10.78125 32.3125 
Q 14.796875 37.15625 21.921875 38.8125 
z
M 18.3125 54.390625 
Q 18.3125 48.734375 21.84375 45.5625 
Q 25.390625 42.390625 31.78125 42.390625 
Q 38.140625 42.390625 41.71875 45.5625 
Q 45.3125 48.734375 45.3125 54.390625 
Q 45.3125 60.0625 41.71875 63.234375 
Q 38.140625 66.40625 31.78125 66.40625 
Q 25.390625 66.40625 21.84375 63.234375 
Q 18.3125 60.0625 18.3125 54.390625 
z
" id="DejaVuSans-56"/>
      </defs>
      <g transform="translate(17.055312 218.519219)scale(0.1 -0.1)">
       <use xlink:href="#DejaVuSans-8722"/>
       <use x="83.789062" xlink:href="#DejaVuSans-56"/>
       <use x="147.412109" xlink:href="#DejaVuSans-48"/>
      </g>
     </g>
    </g>
    <g id="ytick_4">
     <g id="line2d_11">
      <path clip-path="url(#p1e1c33b49d)" d="M 45.16 167.76 
L 660.27 167.76 
" style="fill:none;stroke:#b0b0b0;stroke-linecap:square;stroke-width:0.8;"/>
     </g>
     <g id="line2d_12">
      <g>
       <use style="stroke:#000000;stroke-width:0.8;" x="45.16" xlink:href="#mcc68570420" y="167.76"/>
      </g>
     </g>
     <g id="text_6">
      <!-- −60 -->
      <defs>
       <path d="M 33.015625 40.375 
Q 26.375 40.375 22.484375 35.828125 
Q 18.609375 31.296875 18.609375 23.390625 
Q 18.609375 15.53125 22.484375 10.953125 
Q 26.375 6.390625 33.015625 6.390625 
Q 39.65625 6.390625 43.53125 10.953125 
Q 47.40625 15.53125 47.40625 23.390625 
Q 47.40625 31.296875 43.53125 35.828125 
Q 39.65625 40.375 33.015625 40.375 
z
M 52.59375 71.296875 
L 52.59375 62.3125 
Q 48.875 64.0625 45.09375 64.984375 
Q 41.3125 65.921875 37.59375 65.921875 
Q 27.828125 65.921875 22.671875 59.328125 
Q 17.53125 52.734375 16.796875 39.40625 
Q 19.671875 43.65625 24.015625 45.921875 
Q 28.375 48.1875 33.59375 48.1875 
Q 44.578125 48.1875 50.953125 41.515625 
Q 57.328125 34.859375 57.328125 23.390625 
Q 57.328125 12.15625 50.6875 5.359375 
Q 44.046875 -1.421875 33.015625 -1.421875 
Q 20.359375 -1.421875 13.671875 8.265625 
Q 6.984375 17.96875 6.984375 36.375 
Q 6.984375 53.65625 15.1875 63.9375 
Q 23.390625 74.21875 37.203125 74.21875 
Q 40.921875 74.21875 44.703125 73.484375 
Q 48.484375 72.75 52.59375 71.296875 
z
" id="DejaVuSans-54"/>
      </defs>
      <g transform="translate(17.055312 171.559219)scale(0.1 -0.1)">
       <use xlink:href="#DejaVuSans-8722"/>
       <use x="83.789062" xlink:href="#DejaVuSans-54"/>
       <use x="147.412109" xlink:href="#DejaVuSans-48"/>
      </g>
     </g>
    </g>
    <g id="ytick_5">
     <g id="line2d_13">
      <path clip-path="url(#p1e1c33b49d)" d="M 45.16 120.8 
L 660.27 120.8 
" style="fill:none;stroke:#b0b0b0;stroke-linecap:square;stroke-width:0.8;"/>
     </g>
     <g id="line2d_14">
      <g>
       <use style="stroke:#000000;stroke-width:0.8;" x="45.16" xlink:href="#mcc68570420" y="120.8"/>
      </g>
     </g>
     <g id="text_7">
      <!-- −40 -->
      <defs>
       <path d="M 37.796875 64.3125 
L 12.890625 25.390625 
L 37.796875 25.390625 
z
M 35.203125 72.90625 
L 47.609375 72.90625 
L 47.609375 25.390625 
L 58.015625 25.390625 
L 58.015625 17.1875 
L 47.609375 17.1875 
L 47.609375 0 
L 37.796875 0 
L 37.796875 17.1875 
L 4.890625 17.1875 
L 4.890625 26.703125 
z
" id="DejaVuSans-52"/>
      </defs>
      <g transform="translate(17.055312 124.599219)scale(0.1 -0.1)">
       <use xlink:href="#DejaVuSans-8722"/>
       <use x="83.789062" xlink:href="#DejaVuSans-52"/>
       <use x="147.412109" xlink:href="#DejaVuSans-48"/>
      </g>
     </g>
    </g>
    <g id="ytick_6">
     <g id="line2d_15">
      <path clip-path="url(#p1e1c33b49d)" d="M 45.16 73.84 
L 660.27 73.84 
" style="fill:none;stroke:#b0b0b0;stroke-linecap:square;stroke-width:0.8;"/>
     </g>
     <g id="line2d_16">
      <g>
       <use style="stroke:#000000;stroke-width:0.8;" x="45.16" xlink:href="#mcc68570420" y="73.84"/>
      </g>
     </g>
     <g id="text_8">
      <!-- −20 -->
      <g transform="translate(17.055312 77.639219)scale(0.1 -0.1)">
       <use xlink:href="#DejaVuSans-8722"/>
       <use x="83.789062" xlink:href="#DejaVuSans-50"/>
       <use x="147.412109" xlink:href="#DejaVuSans-48"/>
      </g>
     </g>
    </g>
   </g>
   <g id="line2d_17">
    <path clip-path="url(#p1e1c33b49d)" d="M 45.16 320.793417 
L 46.411444 324.013849 
L 47.662889 314.967509 
L 48.914333 321.374766 
L 50.165778 334.36346 
L 51.417222 338.143231 
L 52.668667 320.054137 
L 53.920111 313.932351 
L 55.171556 313.254193 
L 56.423 323.187023 
L 57.674445 326.902033 
L 58.925889 315.990316 
L 60.177334 316.3534 
L 61.428778 324.894481 
L 62.680223 341.186581 
L 63.250672 361 
M 64.502638 361 
L 65.183112 332.810679 
L 66.434556 328.796954 
L 67.686001 342.811807 
L 68.318457 361 
M 75.105249 361 
L 75.194668 358.370271 
L 76.446112 346.940529 
L 77.697557 339.476541 
L 78.949001 344.52149 
L 80.200446 350.650522 
L 81.45189 342.478974 
L 82.703335 325.914784 
L 83.954779 320.858577 
L 85.206224 326.091283 
L 86.457668 319.996737 
L 87.709113 315.655766 
L 88.960557 313.413129 
L 90.212002 318.69858 
L 91.463446 320.032809 
L 92.714891 304.462691 
L 93.966335 307.704693 
L 95.21778 323.070388 
L 96.469224 55.153314 
L 97.720669 41.016958 
L 98.972113 55.153271 
L 100.223558 309.581508 
L 101.475002 308.122817 
L 102.726447 304.339841 
L 103.977891 341.836293 
L 105.229336 328.354863 
L 106.48078 335.53471 
L 107.369574 361 
M 108.261048 361 
L 108.983669 346.80169 
L 110.235114 328.949437 
L 111.486558 332.902932 
L 112.738003 352.282596 
L 112.943353 361 
M 115.153813 361 
L 115.240892 357.678845 
L 116.492336 346.805354 
L 117.743781 343.791191 
L 118.016277 361 
M 119.721646 361 
L 120.24667 316.316962 
L 121.498114 302.071202 
L 122.749559 305.025769 
L 124.001003 310.60367 
L 125.252448 313.393077 
L 126.503892 299.083395 
L 127.755337 286.346262 
L 129.006781 287.739701 
L 130.258226 284.652261 
L 131.50967 290.656212 
L 132.761115 285.355526 
L 134.012559 273.178286 
L 135.264004 279.817023 
L 136.515448 281.528529 
L 137.766893 268.606386 
L 139.018337 266.263649 
L 140.269782 268.098783 
L 141.521226 269.442927 
L 142.772671 261.724207 
L 144.024115 262.976721 
L 145.27556 263.501888 
L 146.527004 256.491636 
L 147.778449 255.702281 
L 150.281338 268.896149 
L 151.532782 262.667922 
L 152.784227 263.152387 
L 154.035671 268.183953 
L 155.287116 273.692448 
L 156.53856 267.149322 
L 157.790005 263.335994 
L 159.041449 288.902116 
L 160.292894 261.040525 
L 161.544338 251.607574 
L 162.795783 252.670477 
L 164.047227 243.871033 
L 165.298672 242.147795 
L 166.550116 254.219019 
L 167.801561 262.767771 
L 169.053005 262.455073 
L 170.30445 247.550834 
L 171.555894 247.779111 
L 172.807339 235.134962 
L 174.058783 228.619014 
L 175.310228 226.258102 
L 176.561672 245.001512 
L 177.813117 238.634063 
L 179.064561 241.270888 
L 180.316006 224.3971 
L 181.56745 217.517147 
L 182.818895 235.493371 
L 184.070339 238.354161 
L 185.321784 237.032037 
L 186.573228 256.85764 
L 187.824673 237.249657 
L 189.076117 226.692231 
L 190.327562 239.115016 
L 191.579006 242.006992 
L 192.830451 234.018047 
L 194.081895 250.20384 
L 195.33334 229.175392 
L 196.584784 236.901507 
L 197.836229 242.722742 
L 199.087673 247.320819 
L 200.339118 222.78223 
L 201.590562 234.707465 
L 202.842007 210.623446 
L 204.093451 211.550049 
L 205.344896 223.02246 
L 206.59634 226.632133 
L 207.847785 233.707675 
L 209.099229 213.872556 
L 210.350674 217.118209 
L 211.602118 203.138276 
L 212.853563 214.128936 
L 214.105007 213.736401 
L 215.356452 203.54792 
L 216.607896 214.489479 
L 217.859341 215.543024 
L 219.110785 229.370122 
L 220.36223 224.290547 
L 221.613674 226.893772 
L 222.865119 211.710968 
L 224.116563 206.191115 
L 225.368008 215.371319 
L 226.619452 254.940487 
L 227.870897 209.480104 
L 229.122341 198.49176 
L 230.373786 196.520846 
L 231.62523 227.584134 
L 232.876675 201.879461 
L 234.128119 220.798703 
L 235.379564 273.007076 
L 236.631008 258.811256 
L 237.882453 208.696657 
L 239.133897 198.911547 
L 240.385342 241.332769 
L 241.636786 204.822245 
L 242.888231 221.76376 
L 244.139675 221.359601 
L 245.39112 208.937429 
L 246.642564 200.906365 
L 247.894009 203.203795 
L 249.145453 230.002755 
L 250.396898 218.686892 
L 251.648342 192.921302 
L 252.899787 191.243013 
L 254.151231 211.438512 
L 255.402676 216.246912 
L 256.65412 180.564667 
L 257.905565 178.449938 
L 259.157009 185.207485 
L 260.408454 193.793233 
L 261.659898 207.37734 
L 262.911343 187.557731 
L 264.162787 190.965097 
L 265.414232 201.27294 
L 266.665676 207.20063 
L 267.917121 180.716793 
L 269.168565 179.894887 
L 270.42001 190.455198 
L 271.671454 182.642742 
L 272.922899 190.98498 
L 274.174343 188.085749 
L 275.425788 183.288423 
L 276.677232 208.471832 
L 277.928677 181.230072 
L 279.180121 176.141328 
L 280.431566 167.99251 
L 281.68301 173.880228 
L 282.934455 181.311505 
L 284.185899 177.049032 
L 285.437344 222.94005 
L 286.688788 178.111261 
L 287.940233 178.857505 
L 289.191677 204.636799 
L 290.443122 169.479497 
L 291.694566 180.935035 
L 292.946011 182.641428 
L 294.197455 178.947153 
L 295.4489 176.801848 
L 296.700344 184.852213 
L 297.951789 172.037527 
L 299.203233 190.059949 
L 300.454678 189.120192 
L 301.706122 176.953874 
L 302.957567 170.194833 
L 304.209011 169.82254 
L 305.460456 181.304417 
L 306.7119 182.046126 
L 307.963345 186.380478 
L 309.214789 182.255088 
L 310.466234 163.361567 
L 311.717678 159.42956 
L 312.969123 164.357683 
L 314.220567 180.983382 
L 315.472012 176.199936 
L 316.723456 181.114892 
L 317.974901 182.601476 
L 319.226345 174.112001 
L 320.47779 184.786345 
L 321.729234 176.189539 
L 322.980679 171.869157 
L 324.232123 166.996676 
L 325.483568 160.414249 
L 326.735012 163.212817 
L 327.986457 196.405305 
L 329.237901 181.360567 
L 330.489346 179.109643 
L 331.74079 170.689059 
L 332.992235 176.602351 
L 334.243679 191.116015 
L 335.495124 172.920957 
L 336.746568 152.373565 
L 337.998013 169.264349 
L 339.249457 178.980412 
L 340.500902 173.370766 
L 341.752346 169.352874 
L 343.003791 169.923374 
L 344.255235 178.775543 
L 345.50668 167.102093 
L 348.009569 153.873579 
L 349.261013 163.115835 
L 350.512458 193.94542 
L 351.763902 168.939186 
L 353.015347 161.153682 
L 354.266791 163.716581 
L 355.518236 155.704797 
L 356.76968 151.413373 
L 358.021125 153.608985 
L 359.272569 153.821553 
L 360.524014 150.834669 
L 361.775458 150.590238 
L 363.026903 147.50672 
L 364.278347 149.745094 
L 365.529792 150.185921 
L 366.781236 149.066138 
L 368.032681 161.361672 
L 369.284125 166.558417 
L 370.53557 158.583016 
L 371.787014 175.737125 
L 373.038459 165.453893 
L 374.289903 148.012062 
L 375.541348 150.170199 
L 376.792792 176.366093 
L 378.044237 152.506022 
L 379.295681 152.888381 
L 380.547126 175.489806 
L 383.050015 146.963983 
L 384.301459 148.365682 
L 385.552904 152.010246 
L 386.804348 157.226029 
L 388.055793 169.54729 
L 389.307237 148.659376 
L 390.558682 156.274655 
L 391.810126 174.258789 
L 393.061571 151.154426 
L 394.313015 148.537229 
L 395.56446 152.734861 
L 396.815904 154.770999 
L 398.067349 156.427491 
L 399.318793 160.267597 
L 400.570238 164.67124 
L 401.821682 169.791339 
L 403.073127 159.725378 
L 404.324571 172.048099 
L 405.576016 177.069376 
L 406.82746 164.234218 
L 408.078905 160.385238 
L 409.330349 153.022782 
L 410.581794 157.479919 
L 411.833238 157.357731 
L 413.084683 147.866306 
L 414.336127 163.894716 
L 415.587572 176.431762 
L 416.839016 159.437205 
L 418.090461 160.475506 
L 419.341905 160.777261 
L 421.844794 138.395664 
L 423.096239 144.043253 
L 424.347683 143.430194 
L 425.599128 134.916383 
L 426.850572 136.308328 
L 428.102017 151.34334 
L 429.353461 164.084472 
L 430.604906 147.995559 
L 431.85635 147.190003 
L 433.107795 149.779989 
L 434.359239 159.575132 
L 435.610684 172.200402 
L 436.862128 187.71553 
L 438.113573 141.61246 
L 439.365017 136.919344 
L 440.616462 152.247027 
L 441.867906 154.892975 
L 443.119351 137.730085 
L 444.370795 136.864045 
L 445.62224 136.870637 
L 446.873684 163.539975 
L 448.125129 144.653279 
L 449.376573 144.917779 
L 450.628018 155.773808 
L 451.879462 181.908933 
L 453.130907 179.672802 
L 454.382351 153.303502 
L 455.633796 146.855804 
L 456.88524 125.112119 
L 458.136685 142.434928 
L 459.388129 148.83173 
L 460.639574 146.27941 
L 461.891018 134.97912 
L 463.142463 136.716458 
L 464.393907 163.771308 
L 465.645352 168.691224 
L 466.896796 134.404312 
L 468.148241 125.686381 
L 469.399685 134.874924 
L 470.65113 135.08229 
L 471.902574 142.425038 
L 473.154019 171.195796 
L 474.405463 154.749524 
L 475.656908 151.072187 
L 478.159797 125.407607 
L 479.411241 131.700868 
L 480.662686 141.218434 
L 481.91413 146.949302 
L 483.165575 132.117437 
L 484.417019 143.757638 
L 485.668464 157.423605 
L 486.919908 149.723006 
L 488.171353 144.78978 
L 489.422797 157.635894 
L 490.674242 178.460714 
L 491.925686 147.635284 
L 493.177131 138.353183 
L 494.428575 146.365474 
L 495.68002 137.25999 
L 496.931464 139.196345 
L 498.182909 138.178159 
L 499.434353 176.461689 
L 500.685798 160.462843 
L 501.937242 140.829305 
L 503.188687 138.850822 
L 504.440131 140.387703 
L 505.691576 130.73763 
L 506.94302 138.128411 
L 508.194465 132.221333 
L 509.445909 122.901306 
L 510.697354 120.538943 
L 511.948798 121.278024 
L 513.200243 135.335577 
L 514.451687 171.122483 
L 515.703132 172.661491 
L 518.206021 148.470376 
L 519.457465 140.435529 
L 520.70891 142.050773 
L 521.960354 128.58067 
L 523.211799 129.888116 
L 524.463243 153.132198 
L 525.714687 142.316172 
L 526.966132 173.237917 
L 528.217576 127.696555 
L 529.469021 128.158179 
L 530.720465 132.860592 
L 531.97191 151.172195 
L 533.223354 150.15895 
L 534.474799 135.885265 
L 535.726243 138.70264 
L 536.977688 131.758648 
L 538.229132 140.084114 
L 539.480577 150.387242 
L 540.732021 147.785291 
L 541.983466 150.807635 
L 543.23491 156.178334 
L 544.486355 132.035152 
L 545.737799 121.310544 
L 546.989244 119.689107 
L 548.240688 123.662965 
L 549.492133 130.699432 
L 550.743577 134.588642 
L 551.995022 136.384621 
L 553.246466 135.273249 
L 554.497911 158.354303 
L 555.749355 147.677403 
L 557.0008 158.96944 
L 558.252244 157.04993 
L 559.503689 146.367583 
L 560.755133 150.76278 
L 562.006578 129.563578 
L 563.258022 145.680767 
L 564.509467 145.549837 
L 565.760911 152.106769 
L 567.012356 131.419338 
L 568.2638 139.465627 
L 569.515245 142.396535 
L 570.766689 123.357117 
L 572.018134 124.297714 
L 573.269578 133.315916 
L 574.521023 128.098548 
L 575.772467 143.321788 
L 577.023912 134.993677 
L 578.275356 150.86571 
L 579.526801 142.209508 
L 580.778245 137.531413 
L 582.02969 135.997874 
L 583.281134 145.476676 
L 584.532579 146.860189 
L 585.784023 130.413466 
L 587.035468 139.489828 
L 588.286912 167.797286 
L 589.538357 157.780635 
L 590.789801 126.890601 
L 592.041246 142.92044 
L 593.29269 120.787344 
L 594.544135 117.256326 
L 595.795579 136.234311 
L 597.047024 143.559035 
L 598.298468 137.950829 
L 599.549913 157.509822 
L 600.801357 132.980874 
L 602.052802 134.903825 
L 603.304246 120.63796 
L 604.555691 121.250751 
L 605.807135 153.120142 
L 607.05858 123.510503 
L 608.310024 126.403443 
L 609.561469 136.489452 
L 610.812913 132.931573 
L 612.064358 160.516431 
L 613.315802 178.20964 
L 614.567247 146.422492 
L 615.818691 145.259454 
L 617.070136 132.092774 
L 618.32158 147.31896 
L 619.573025 120.267685 
L 620.824469 131.95738 
L 622.075914 136.221826 
L 623.327358 127.114389 
L 624.578803 132.234132 
L 625.830247 123.006228 
L 627.081692 118.073045 
L 628.333136 136.903693 
L 629.584581 122.359765 
L 630.836025 119.450547 
L 632.08747 129.83254 
L 633.338914 120.186695 
L 634.590359 131.918972 
L 635.841803 149.273801 
L 637.093248 137.134898 
L 638.344692 120.93273 
L 639.596137 150.860889 
L 640.847581 129.445172 
L 642.099026 183.897604 
L 643.35047 126.675252 
L 644.601915 116.862814 
L 645.853359 127.18478 
L 647.104804 127.311603 
L 648.356248 118.32353 
L 649.607693 123.148026 
L 650.859137 154.63177 
L 652.110582 128.584253 
L 653.362026 145.626326 
L 654.613471 115.325621 
L 655.864915 107.002026 
L 657.11636 111.987576 
L 658.367804 119.025029 
L 659.619249 117.533442 
L 660.870693 124.110132 
L 660.870693 124.110132 
" style="fill:none;stroke:#0000ff;stroke-linecap:square;stroke-width:1.5;"/>
   </g>
   <g id="line2d_18">
    <path clip-path="url(#p1e1c33b49d)" d="M 45.16 303.925013 
L 47.662889 304.124935 
L 50.165778 304.733903 
L 52.668667 305.78114 
L 53.920111 306.484964 
L 55.171556 307.32141 
L 56.423 308.303233 
L 57.674445 309.446852 
L 58.925889 310.773575 
L 60.177334 312.311423 
L 61.428778 314.097965 
L 62.680223 316.184888 
L 63.931667 318.645741 
L 65.183112 321.589937 
L 66.434556 325.190243 
L 67.686001 329.743165 
L 68.937445 335.824756 
L 70.18889 344.810785 
L 71.381928 361 
M 73.589427 361 
L 73.943223 351.52705 
L 75.194668 339.410599 
L 76.446112 331.855757 
L 77.697557 326.375963 
L 78.949001 322.098816 
L 80.200446 318.615369 
L 81.45189 315.701288 
L 82.703335 313.220645 
L 83.954779 311.085315 
L 85.206224 309.235396 
L 86.457668 307.628823 
L 87.709113 306.235471 
L 88.960557 305.033615 
L 90.212002 304.007738 
L 91.463446 303.147151 
L 92.714891 302.445124 
L 93.966335 301.89839 
L 95.21778 301.50692 
L 96.469224 301.273931 
L 97.720669 301.20615 
L 98.972113 301.31435 
L 100.223558 301.614268 
L 101.475002 302.128073 
L 102.726447 302.88669 
L 103.977891 303.933568 
L 105.229336 305.331004 
L 106.48078 307.171355 
L 107.732225 309.598415 
L 108.983669 312.852391 
L 110.235114 317.378753 
L 111.486558 324.154584 
L 112.738003 336.129715 
L 113.420251 361 
M 114.591487 361 
L 115.240892 338.61838 
L 116.492336 322.1958 
L 117.743781 312.515657 
L 118.995225 305.461935 
L 120.24667 299.824003 
L 121.498114 295.07685 
L 122.749559 290.94451 
L 124.001003 287.263713 
L 126.503892 280.871226 
L 129.006781 275.390967 
L 131.50967 270.552086 
L 134.012559 266.192456 
L 136.515448 262.206918 
L 140.269782 256.777528 
L 144.024115 251.865671 
L 147.778449 247.362486 
L 151.532782 243.192296 
L 155.287116 239.300081 
L 160.292894 234.472643 
L 165.298672 229.993074 
L 170.30445 225.806837 
L 175.310228 221.872239 
L 181.56745 217.258643 
L 187.824673 212.937405 
L 194.081895 208.869405 
L 201.590562 204.278561 
L 209.099229 199.964608 
L 216.607896 195.893146 
L 225.368008 191.412573 
L 234.128119 187.188031 
L 242.888231 183.190091 
L 252.899787 178.867502 
L 262.911343 174.779267 
L 274.174343 170.429451 
L 285.437344 166.315856 
L 297.951789 161.993183 
L 310.466234 157.905514 
L 324.232123 153.654261 
L 337.998013 149.636961 
L 353.015347 145.499289 
L 368.032681 141.598982 
L 383.050015 137.922391 
L 398.067349 134.460306 
L 414.336127 130.945635 
L 430.604906 127.673879 
L 446.873684 124.645785 
L 461.891018 122.069239 
L 476.908352 119.705112 
L 491.925686 117.554985 
L 506.94302 115.61841 
L 521.960354 113.892005 
L 538.229132 112.250894 
L 554.497911 110.835049 
L 572.018134 109.542106 
L 590.789801 108.395049 
L 610.812913 107.405841 
L 632.08747 106.575334 
L 657.11636 105.829902 
L 660.870693 105.73598 
L 660.870693 105.73598 
" style="fill:none;stroke:#bf00bf;stroke-linecap:square;stroke-width:2;"/>
   </g>
   <g id="line2d_19">
    <path clip-path="url(#p1e1c33b49d)" d="M 125.252448 361 
L 125.252448 26.88 
" style="fill:none;stroke:#008000;stroke-dasharray:6.4,1.6,1,1.6;stroke-dashoffset:0;"/>
   </g>
   <g id="patch_3">
    <path d="M 45.16 332.12 
L 45.16 26.88 
" style="fill:none;stroke:#000000;stroke-linecap:square;stroke-linejoin:miter;stroke-width:0.8;"/>
   </g>
   <g id="patch_4">
    <path d="M 660.27 332.12 
L 660.27 26.88 
" style="fill:none;stroke:#000000;stroke-linecap:square;stroke-linejoin:miter;stroke-width:0.8;"/>
   </g>
   <g id="patch_5">
    <path d="M 45.16 332.12 
L 660.27 332.12 
" style="fill:none;stroke:#000000;stroke-linecap:square;stroke-linejoin:miter;stroke-width:0.8;"/>
   </g>
   <g id="patch_6">
    <path d="M 45.16 26.88 
L 660.27 26.88 
" style="fill:none;stroke:#000000;stroke-linecap:square;stroke-linejoin:miter;stroke-width:0.8;"/>
   </g>
   <g id="text_9">
    <!-- SNR = 102.8dB @ OSR = 64 -->
    <defs>
     <path d="M 53.515625 70.515625 
L 53.515625 60.890625 
Q 47.90625 63.578125 42.921875 64.890625 
Q 37.9375 66.21875 33.296875 66.21875 
Q 25.25 66.21875 20.875 63.09375 
Q 16.5 59.96875 16.5 54.203125 
Q 16.5 49.359375 19.40625 46.890625 
Q 22.3125 44.4375 30.421875 42.921875 
L 36.375 41.703125 
Q 47.40625 39.59375 52.65625 34.296875 
Q 57.90625 29 57.90625 20.125 
Q 57.90625 9.515625 50.796875 4.046875 
Q 43.703125 -1.421875 29.984375 -1.421875 
Q 24.8125 -1.421875 18.96875 -0.25 
Q 13.140625 0.921875 6.890625 3.21875 
L 6.890625 13.375 
Q 12.890625 10.015625 18.65625 8.296875 
Q 24.421875 6.59375 29.984375 6.59375 
Q 38.421875 6.59375 43.015625 9.90625 
Q 47.609375 13.234375 47.609375 19.390625 
Q 47.609375 24.75 44.3125 27.78125 
Q 41.015625 30.8125 33.5 32.328125 
L 27.484375 33.5 
Q 16.453125 35.6875 11.515625 40.375 
Q 6.59375 45.0625 6.59375 53.421875 
Q 6.59375 63.09375 13.40625 68.65625 
Q 20.21875 74.21875 32.171875 74.21875 
Q 37.3125 74.21875 42.625 73.28125 
Q 47.953125 72.359375 53.515625 70.515625 
z
" id="DejaVuSans-83"/>
     <path d="M 9.8125 72.90625 
L 23.09375 72.90625 
L 55.421875 11.921875 
L 55.421875 72.90625 
L 64.984375 72.90625 
L 64.984375 0 
L 51.703125 0 
L 19.390625 60.984375 
L 19.390625 0 
L 9.8125 0 
z
" id="DejaVuSans-78"/>
     <path d="M 44.390625 34.1875 
Q 47.5625 33.109375 50.5625 29.59375 
Q 53.5625 26.078125 56.59375 19.921875 
L 66.609375 0 
L 56 0 
L 46.6875 18.703125 
Q 43.0625 26.03125 39.671875 28.421875 
Q 36.28125 30.8125 30.421875 30.8125 
L 19.671875 30.8125 
L 19.671875 0 
L 9.8125 0 
L 9.8125 72.90625 
L 32.078125 72.90625 
Q 44.578125 72.90625 50.734375 67.671875 
Q 56.890625 62.453125 56.890625 51.90625 
Q 56.890625 45.015625 53.6875 40.46875 
Q 50.484375 35.9375 44.390625 34.1875 
z
M 19.671875 64.796875 
L 19.671875 38.921875 
L 32.078125 38.921875 
Q 39.203125 38.921875 42.84375 42.21875 
Q 46.484375 45.515625 46.484375 51.90625 
Q 46.484375 58.296875 42.84375 61.546875 
Q 39.203125 64.796875 32.078125 64.796875 
z
" id="DejaVuSans-82"/>
     <path id="DejaVuSans-32"/>
     <path d="M 10.59375 45.40625 
L 73.1875 45.40625 
L 73.1875 37.203125 
L 10.59375 37.203125 
z
M 10.59375 25.484375 
L 73.1875 25.484375 
L 73.1875 17.1875 
L 10.59375 17.1875 
z
" id="DejaVuSans-61"/>
     <path d="M 45.40625 46.390625 
L 45.40625 75.984375 
L 54.390625 75.984375 
L 54.390625 0 
L 45.40625 0 
L 45.40625 8.203125 
Q 42.578125 3.328125 38.25 0.953125 
Q 33.9375 -1.421875 27.875 -1.421875 
Q 17.96875 -1.421875 11.734375 6.484375 
Q 5.515625 14.40625 5.515625 27.296875 
Q 5.515625 40.1875 11.734375 48.09375 
Q 17.96875 56 27.875 56 
Q 33.9375 56 38.25 53.625 
Q 42.578125 51.265625 45.40625 46.390625 
z
M 14.796875 27.296875 
Q 14.796875 17.390625 18.875 11.75 
Q 22.953125 6.109375 30.078125 6.109375 
Q 37.203125 6.109375 41.296875 11.75 
Q 45.40625 17.390625 45.40625 27.296875 
Q 45.40625 37.203125 41.296875 42.84375 
Q 37.203125 48.484375 30.078125 48.484375 
Q 22.953125 48.484375 18.875 42.84375 
Q 14.796875 37.203125 14.796875 27.296875 
z
" id="DejaVuSans-100"/>
     <path d="M 19.671875 34.8125 
L 19.671875 8.109375 
L 35.5 8.109375 
Q 43.453125 8.109375 47.28125 11.40625 
Q 51.125 14.703125 51.125 21.484375 
Q 51.125 28.328125 47.28125 31.5625 
Q 43.453125 34.8125 35.5 34.8125 
z
M 19.671875 64.796875 
L 19.671875 42.828125 
L 34.28125 42.828125 
Q 41.5 42.828125 45.03125 45.53125 
Q 48.578125 48.25 48.578125 53.8125 
Q 48.578125 59.328125 45.03125 62.0625 
Q 41.5 64.796875 34.28125 64.796875 
z
M 9.8125 72.90625 
L 35.015625 72.90625 
Q 46.296875 72.90625 52.390625 68.21875 
Q 58.5 63.53125 58.5 54.890625 
Q 58.5 48.1875 55.375 44.234375 
Q 52.25 40.28125 46.1875 39.3125 
Q 53.46875 37.75 57.5 32.78125 
Q 61.53125 27.828125 61.53125 20.40625 
Q 61.53125 10.640625 54.890625 5.3125 
Q 48.25 0 35.984375 0 
L 9.8125 0 
z
" id="DejaVuSans-66"/>
     <path d="M 37.203125 26.21875 
Q 37.203125 19.234375 40.671875 15.25 
Q 44.140625 11.28125 50.203125 11.28125 
Q 56.203125 11.28125 59.640625 15.28125 
Q 63.09375 19.28125 63.09375 26.21875 
Q 63.09375 33.0625 59.578125 37.078125 
Q 56.0625 41.109375 50.09375 41.109375 
Q 44.1875 41.109375 40.6875 37.109375 
Q 37.203125 33.109375 37.203125 26.21875 
z
M 63.8125 11.625 
Q 60.890625 7.859375 57.109375 6.078125 
Q 53.328125 4.296875 48.296875 4.296875 
Q 39.890625 4.296875 34.640625 10.375 
Q 29.390625 16.453125 29.390625 26.21875 
Q 29.390625 35.984375 34.65625 42.078125 
Q 39.9375 48.1875 48.296875 48.1875 
Q 53.328125 48.1875 57.125 46.359375 
Q 60.9375 44.53125 63.8125 40.828125 
L 63.8125 47.21875 
L 70.796875 47.21875 
L 70.796875 11.28125 
Q 77.9375 12.359375 81.953125 17.796875 
Q 85.984375 23.25 85.984375 31.890625 
Q 85.984375 37.109375 84.4375 41.703125 
Q 82.90625 46.296875 79.78125 50.203125 
Q 74.703125 56.59375 67.40625 59.984375 
Q 60.109375 63.375 51.515625 63.375 
Q 45.515625 63.375 39.984375 61.78125 
Q 34.46875 60.203125 29.78125 57.078125 
Q 22.125 52.09375 17.796875 44.015625 
Q 13.484375 35.9375 13.484375 26.515625 
Q 13.484375 18.75 16.28125 11.953125 
Q 19.09375 5.171875 24.421875 0 
Q 29.546875 -5.078125 36.28125 -7.734375 
Q 43.015625 -10.40625 50.6875 -10.40625 
Q 56.984375 -10.40625 63.0625 -8.28125 
Q 69.140625 -6.15625 74.21875 -2.203125 
L 78.609375 -7.625 
Q 72.515625 -12.359375 65.3125 -14.875 
Q 58.109375 -17.390625 50.6875 -17.390625 
Q 41.65625 -17.390625 33.640625 -14.1875 
Q 25.640625 -10.984375 19.390625 -4.890625 
Q 13.140625 1.21875 9.859375 9.25 
Q 6.59375 17.28125 6.59375 26.515625 
Q 6.59375 35.40625 9.90625 43.453125 
Q 13.234375 51.515625 19.390625 57.625 
Q 25.6875 63.8125 33.9375 67.109375 
Q 42.1875 70.40625 51.421875 70.40625 
Q 61.765625 70.40625 70.625 66.15625 
Q 79.5 61.921875 85.5 54.109375 
Q 89.15625 49.3125 91.078125 43.703125 
Q 93.015625 38.09375 93.015625 32.078125 
Q 93.015625 19.234375 85.25 11.8125 
Q 77.484375 4.390625 63.8125 4.109375 
z
" id="DejaVuSans-64"/>
     <path d="M 39.40625 66.21875 
Q 28.65625 66.21875 22.328125 58.203125 
Q 16.015625 50.203125 16.015625 36.375 
Q 16.015625 22.609375 22.328125 14.59375 
Q 28.65625 6.59375 39.40625 6.59375 
Q 50.140625 6.59375 56.421875 14.59375 
Q 62.703125 22.609375 62.703125 36.375 
Q 62.703125 50.203125 56.421875 58.203125 
Q 50.140625 66.21875 39.40625 66.21875 
z
M 39.40625 74.21875 
Q 54.734375 74.21875 63.90625 63.9375 
Q 73.09375 53.65625 73.09375 36.375 
Q 73.09375 19.140625 63.90625 8.859375 
Q 54.734375 -1.421875 39.40625 -1.421875 
Q 24.03125 -1.421875 14.8125 8.828125 
Q 5.609375 19.09375 5.609375 36.375 
Q 5.609375 53.65625 14.8125 63.9375 
Q 24.03125 74.21875 39.40625 74.21875 
z
" id="DejaVuSans-79"/>
    </defs>
    <g transform="translate(557.751667 53.119375)scale(0.1 -0.1)">
     <use xlink:href="#DejaVuSans-83"/>
     <use x="63.476562" xlink:href="#DejaVuSans-78"/>
     <use x="138.28125" xlink:href="#DejaVuSans-82"/>
     <use x="207.763672" xlink:href="#DejaVuSans-32"/>
     <use x="239.550781" xlink:href="#DejaVuSans-61"/>
     <use x="323.339844" xlink:href="#DejaVuSans-32"/>
     <use x="355.126953" xlink:href="#DejaVuSans-49"/>
     <use x="418.75" xlink:href="#DejaVuSans-48"/>
     <use x="482.373047" xlink:href="#DejaVuSans-50"/>
     <use x="545.996094" xlink:href="#DejaVuSans-46"/>
     <use x="577.783203" xlink:href="#DejaVuSans-56"/>
     <use x="641.40625" xlink:href="#DejaVuSans-100"/>
     <use x="704.882812" xlink:href="#DejaVuSans-66"/>
     <use x="773.486328" xlink:href="#DejaVuSans-32"/>
     <use x="805.273438" xlink:href="#DejaVuSans-64"/>
     <use x="905.273438" xlink:href="#DejaVuSans-32"/>
     <use x="937.060547" xlink:href="#DejaVuSans-79"/>
     <use x="1015.771484" xlink:href="#DejaVuSans-83"/>
     <use x="1079.248047" xlink:href="#DejaVuSans-82"/>
     <use x="1148.730469" xlink:href="#DejaVuSans-32"/>
     <use x="1180.517578" xlink:href="#DejaVuSans-61"/>
     <use x="1264.306641" xlink:href="#DejaVuSans-32"/>
     <use x="1296.09375" xlink:href="#DejaVuSans-54"/>
     <use x="1359.716797" xlink:href="#DejaVuSans-52"/>
    </g>
   </g>
   <g id="text_10">
    <!-- Output Spectrum - 64x Oversampling Rate, 4th Order -->
    <defs>
     <path d="M 8.5 21.578125 
L 8.5 54.6875 
L 17.484375 54.6875 
L 17.484375 21.921875 
Q 17.484375 14.15625 20.5 10.265625 
Q 23.53125 6.390625 29.59375 6.390625 
Q 36.859375 6.390625 41.078125 11.03125 
Q 45.3125 15.671875 45.3125 23.6875 
L 45.3125 54.6875 
L 54.296875 54.6875 
L 54.296875 0 
L 45.3125 0 
L 45.3125 8.40625 
Q 42.046875 3.421875 37.71875 1 
Q 33.40625 -1.421875 27.6875 -1.421875 
Q 18.265625 -1.421875 13.375 4.4375 
Q 8.5 10.296875 8.5 21.578125 
z
M 31.109375 56 
z
" id="DejaVuSans-117"/>
     <path d="M 18.3125 70.21875 
L 18.3125 54.6875 
L 36.8125 54.6875 
L 36.8125 47.703125 
L 18.3125 47.703125 
L 18.3125 18.015625 
Q 18.3125 11.328125 20.140625 9.421875 
Q 21.96875 7.515625 27.59375 7.515625 
L 36.8125 7.515625 
L 36.8125 0 
L 27.59375 0 
Q 17.1875 0 13.234375 3.875 
Q 9.28125 7.765625 9.28125 18.015625 
L 9.28125 47.703125 
L 2.6875 47.703125 
L 2.6875 54.6875 
L 9.28125 54.6875 
L 9.28125 70.21875 
z
" id="DejaVuSans-116"/>
     <path d="M 18.109375 8.203125 
L 18.109375 -20.796875 
L 9.078125 -20.796875 
L 9.078125 54.6875 
L 18.109375 54.6875 
L 18.109375 46.390625 
Q 20.953125 51.265625 25.265625 53.625 
Q 29.59375 56 35.59375 56 
Q 45.5625 56 51.78125 48.09375 
Q 58.015625 40.1875 58.015625 27.296875 
Q 58.015625 14.40625 51.78125 6.484375 
Q 45.5625 -1.421875 35.59375 -1.421875 
Q 29.59375 -1.421875 25.265625 0.953125 
Q 20.953125 3.328125 18.109375 8.203125 
z
M 48.6875 27.296875 
Q 48.6875 37.203125 44.609375 42.84375 
Q 40.53125 48.484375 33.40625 48.484375 
Q 26.265625 48.484375 22.1875 42.84375 
Q 18.109375 37.203125 18.109375 27.296875 
Q 18.109375 17.390625 22.1875 11.75 
Q 26.265625 6.109375 33.40625 6.109375 
Q 40.53125 6.109375 44.609375 11.75 
Q 48.6875 17.390625 48.6875 27.296875 
z
" id="DejaVuSans-112"/>
     <path d="M 56.203125 29.59375 
L 56.203125 25.203125 
L 14.890625 25.203125 
Q 15.484375 15.921875 20.484375 11.0625 
Q 25.484375 6.203125 34.421875 6.203125 
Q 39.59375 6.203125 44.453125 7.46875 
Q 49.3125 8.734375 54.109375 11.28125 
L 54.109375 2.78125 
Q 49.265625 0.734375 44.1875 -0.34375 
Q 39.109375 -1.421875 33.890625 -1.421875 
Q 20.796875 -1.421875 13.15625 6.1875 
Q 5.515625 13.8125 5.515625 26.8125 
Q 5.515625 40.234375 12.765625 48.109375 
Q 20.015625 56 32.328125 56 
Q 43.359375 56 49.78125 48.890625 
Q 56.203125 41.796875 56.203125 29.59375 
z
M 47.21875 32.234375 
Q 47.125 39.59375 43.09375 43.984375 
Q 39.0625 48.390625 32.421875 48.390625 
Q 24.90625 48.390625 20.390625 44.140625 
Q 15.875 39.890625 15.1875 32.171875 
z
" id="DejaVuSans-101"/>
     <path d="M 48.78125 52.59375 
L 48.78125 44.1875 
Q 44.96875 46.296875 41.140625 47.34375 
Q 37.3125 48.390625 33.40625 48.390625 
Q 24.65625 48.390625 19.8125 42.84375 
Q 14.984375 37.3125 14.984375 27.296875 
Q 14.984375 17.28125 19.8125 11.734375 
Q 24.65625 6.203125 33.40625 6.203125 
Q 37.3125 6.203125 41.140625 7.25 
Q 44.96875 8.296875 48.78125 10.40625 
L 48.78125 2.09375 
Q 45.015625 0.34375 40.984375 -0.53125 
Q 36.96875 -1.421875 32.421875 -1.421875 
Q 20.0625 -1.421875 12.78125 6.34375 
Q 5.515625 14.109375 5.515625 27.296875 
Q 5.515625 40.671875 12.859375 48.328125 
Q 20.21875 56 33.015625 56 
Q 37.15625 56 41.109375 55.140625 
Q 45.0625 54.296875 48.78125 52.59375 
z
" id="DejaVuSans-99"/>
     <path d="M 41.109375 46.296875 
Q 39.59375 47.171875 37.8125 47.578125 
Q 36.03125 48 33.890625 48 
Q 26.265625 48 22.1875 43.046875 
Q 18.109375 38.09375 18.109375 28.8125 
L 18.109375 0 
L 9.078125 0 
L 9.078125 54.6875 
L 18.109375 54.6875 
L 18.109375 46.1875 
Q 20.953125 51.171875 25.484375 53.578125 
Q 30.03125 56 36.53125 56 
Q 37.453125 56 38.578125 55.875 
Q 39.703125 55.765625 41.0625 55.515625 
z
" id="DejaVuSans-114"/>
     <path d="M 52 44.1875 
Q 55.375 50.25 60.0625 53.125 
Q 64.75 56 71.09375 56 
Q 79.640625 56 84.28125 50.015625 
Q 88.921875 44.046875 88.921875 33.015625 
L 88.921875 0 
L 79.890625 0 
L 79.890625 32.71875 
Q 79.890625 40.578125 77.09375 44.375 
Q 74.3125 48.1875 68.609375 48.1875 
Q 61.625 48.1875 57.5625 43.546875 
Q 53.515625 38.921875 53.515625 30.90625 
L 53.515625 0 
L 44.484375 0 
L 44.484375 32.71875 
Q 44.484375 40.625 41.703125 44.40625 
Q 38.921875 48.1875 33.109375 48.1875 
Q 26.21875 48.1875 22.15625 43.53125 
Q 18.109375 38.875 18.109375 30.90625 
L 18.109375 0 
L 9.078125 0 
L 9.078125 54.6875 
L 18.109375 54.6875 
L 18.109375 46.1875 
Q 21.1875 51.21875 25.484375 53.609375 
Q 29.78125 56 35.6875 56 
Q 41.65625 56 45.828125 52.96875 
Q 50 49.953125 52 44.1875 
z
" id="DejaVuSans-109"/>
     <path d="M 4.890625 31.390625 
L 31.203125 31.390625 
L 31.203125 23.390625 
L 4.890625 23.390625 
z
" id="DejaVuSans-45"/>
     <path d="M 54.890625 54.6875 
L 35.109375 28.078125 
L 55.90625 0 
L 45.3125 0 
L 29.390625 21.484375 
L 13.484375 0 
L 2.875 0 
L 24.125 28.609375 
L 4.6875 54.6875 
L 15.28125 54.6875 
L 29.78125 35.203125 
L 44.28125 54.6875 
z
" id="DejaVuSans-120"/>
     <path d="M 2.984375 54.6875 
L 12.5 54.6875 
L 29.59375 8.796875 
L 46.6875 54.6875 
L 56.203125 54.6875 
L 35.6875 0 
L 23.484375 0 
z
" id="DejaVuSans-118"/>
     <path d="M 44.28125 53.078125 
L 44.28125 44.578125 
Q 40.484375 46.53125 36.375 47.5 
Q 32.28125 48.484375 27.875 48.484375 
Q 21.1875 48.484375 17.84375 46.4375 
Q 14.5 44.390625 14.5 40.28125 
Q 14.5 37.15625 16.890625 35.375 
Q 19.28125 33.59375 26.515625 31.984375 
L 29.59375 31.296875 
Q 39.15625 29.25 43.1875 25.515625 
Q 47.21875 21.78125 47.21875 15.09375 
Q 47.21875 7.46875 41.1875 3.015625 
Q 35.15625 -1.421875 24.609375 -1.421875 
Q 20.21875 -1.421875 15.453125 -0.5625 
Q 10.6875 0.296875 5.421875 2 
L 5.421875 11.28125 
Q 10.40625 8.6875 15.234375 7.390625 
Q 20.0625 6.109375 24.8125 6.109375 
Q 31.15625 6.109375 34.5625 8.28125 
Q 37.984375 10.453125 37.984375 14.40625 
Q 37.984375 18.0625 35.515625 20.015625 
Q 33.0625 21.96875 24.703125 23.78125 
L 21.578125 24.515625 
Q 13.234375 26.265625 9.515625 29.90625 
Q 5.8125 33.546875 5.8125 39.890625 
Q 5.8125 47.609375 11.28125 51.796875 
Q 16.75 56 26.8125 56 
Q 31.78125 56 36.171875 55.265625 
Q 40.578125 54.546875 44.28125 53.078125 
z
" id="DejaVuSans-115"/>
     <path d="M 34.28125 27.484375 
Q 23.390625 27.484375 19.1875 25 
Q 14.984375 22.515625 14.984375 16.5 
Q 14.984375 11.71875 18.140625 8.90625 
Q 21.296875 6.109375 26.703125 6.109375 
Q 34.1875 6.109375 38.703125 11.40625 
Q 43.21875 16.703125 43.21875 25.484375 
L 43.21875 27.484375 
z
M 52.203125 31.203125 
L 52.203125 0 
L 43.21875 0 
L 43.21875 8.296875 
Q 40.140625 3.328125 35.546875 0.953125 
Q 30.953125 -1.421875 24.3125 -1.421875 
Q 15.921875 -1.421875 10.953125 3.296875 
Q 6 8.015625 6 15.921875 
Q 6 25.140625 12.171875 29.828125 
Q 18.359375 34.515625 30.609375 34.515625 
L 43.21875 34.515625 
L 43.21875 35.40625 
Q 43.21875 41.609375 39.140625 45 
Q 35.0625 48.390625 27.6875 48.390625 
Q 23 48.390625 18.546875 47.265625 
Q 14.109375 46.140625 10.015625 43.890625 
L 10.015625 52.203125 
Q 14.9375 54.109375 19.578125 55.046875 
Q 24.21875 56 28.609375 56 
Q 40.484375 56 46.34375 49.84375 
Q 52.203125 43.703125 52.203125 31.203125 
z
" id="DejaVuSans-97"/>
     <path d="M 9.421875 75.984375 
L 18.40625 75.984375 
L 18.40625 0 
L 9.421875 0 
z
" id="DejaVuSans-108"/>
     <path d="M 9.421875 54.6875 
L 18.40625 54.6875 
L 18.40625 0 
L 9.421875 0 
z
M 9.421875 75.984375 
L 18.40625 75.984375 
L 18.40625 64.59375 
L 9.421875 64.59375 
z
" id="DejaVuSans-105"/>
     <path d="M 54.890625 33.015625 
L 54.890625 0 
L 45.90625 0 
L 45.90625 32.71875 
Q 45.90625 40.484375 42.875 44.328125 
Q 39.84375 48.1875 33.796875 48.1875 
Q 26.515625 48.1875 22.3125 43.546875 
Q 18.109375 38.921875 18.109375 30.90625 
L 18.109375 0 
L 9.078125 0 
L 9.078125 54.6875 
L 18.109375 54.6875 
L 18.109375 46.1875 
Q 21.34375 51.125 25.703125 53.5625 
Q 30.078125 56 35.796875 56 
Q 45.21875 56 50.046875 50.171875 
Q 54.890625 44.34375 54.890625 33.015625 
z
" id="DejaVuSans-110"/>
     <path d="M 45.40625 27.984375 
Q 45.40625 37.75 41.375 43.109375 
Q 37.359375 48.484375 30.078125 48.484375 
Q 22.859375 48.484375 18.828125 43.109375 
Q 14.796875 37.75 14.796875 27.984375 
Q 14.796875 18.265625 18.828125 12.890625 
Q 22.859375 7.515625 30.078125 7.515625 
Q 37.359375 7.515625 41.375 12.890625 
Q 45.40625 18.265625 45.40625 27.984375 
z
M 54.390625 6.78125 
Q 54.390625 -7.171875 48.1875 -13.984375 
Q 42 -20.796875 29.203125 -20.796875 
Q 24.46875 -20.796875 20.265625 -20.09375 
Q 16.0625 -19.390625 12.109375 -17.921875 
L 12.109375 -9.1875 
Q 16.0625 -11.328125 19.921875 -12.34375 
Q 23.78125 -13.375 27.78125 -13.375 
Q 36.625 -13.375 41.015625 -8.765625 
Q 45.40625 -4.15625 45.40625 5.171875 
L 45.40625 9.625 
Q 42.625 4.78125 38.28125 2.390625 
Q 33.9375 0 27.875 0 
Q 17.828125 0 11.671875 7.65625 
Q 5.515625 15.328125 5.515625 27.984375 
Q 5.515625 40.671875 11.671875 48.328125 
Q 17.828125 56 27.875 56 
Q 33.9375 56 38.28125 53.609375 
Q 42.625 51.21875 45.40625 46.390625 
L 45.40625 54.6875 
L 54.390625 54.6875 
z
" id="DejaVuSans-103"/>
     <path d="M 11.71875 12.40625 
L 22.015625 12.40625 
L 22.015625 4 
L 14.015625 -11.625 
L 7.71875 -11.625 
L 11.71875 4 
z
" id="DejaVuSans-44"/>
     <path d="M 54.890625 33.015625 
L 54.890625 0 
L 45.90625 0 
L 45.90625 32.71875 
Q 45.90625 40.484375 42.875 44.328125 
Q 39.84375 48.1875 33.796875 48.1875 
Q 26.515625 48.1875 22.3125 43.546875 
Q 18.109375 38.921875 18.109375 30.90625 
L 18.109375 0 
L 9.078125 0 
L 9.078125 75.984375 
L 18.109375 75.984375 
L 18.109375 46.1875 
Q 21.34375 51.125 25.703125 53.5625 
Q 30.078125 56 35.796875 56 
Q 45.21875 56 50.046875 50.171875 
Q 54.890625 44.34375 54.890625 33.015625 
z
" id="DejaVuSans-104"/>
    </defs>
    <g transform="translate(191.579375 20.88)scale(0.12 -0.12)">
     <use xlink:href="#DejaVuSans-79"/>
     <use x="78.710938" xlink:href="#DejaVuSans-117"/>
     <use x="142.089844" xlink:href="#DejaVuSans-116"/>
     <use x="181.298828" xlink:href="#DejaVuSans-112"/>
     <use x="244.775391" xlink:href="#DejaVuSans-117"/>
     <use x="308.154297" xlink:href="#DejaVuSans-116"/>
     <use x="347.363281" xlink:href="#DejaVuSans-32"/>
     <use x="379.150391" xlink:href="#DejaVuSans-83"/>
     <use x="442.626953" xlink:href="#DejaVuSans-112"/>
     <use x="506.103516" xlink:href="#DejaVuSans-101"/>
     <use x="567.626953" xlink:href="#DejaVuSans-99"/>
     <use x="622.607422" xlink:href="#DejaVuSans-116"/>
     <use x="661.816406" xlink:href="#DejaVuSans-114"/>
     <use x="702.929688" xlink:href="#DejaVuSans-117"/>
     <use x="766.308594" xlink:href="#DejaVuSans-109"/>
     <use x="863.720703" xlink:href="#DejaVuSans-32"/>
     <use x="895.507812" xlink:href="#DejaVuSans-45"/>
     <use x="931.591797" xlink:href="#DejaVuSans-32"/>
     <use x="963.378906" xlink:href="#DejaVuSans-54"/>
     <use x="1027.001953" xlink:href="#DejaVuSans-52"/>
     <use x="1090.625" xlink:href="#DejaVuSans-120"/>
     <use x="1149.804688" xlink:href="#DejaVuSans-32"/>
     <use x="1181.591797" xlink:href="#DejaVuSans-79"/>
     <use x="1260.302734" xlink:href="#DejaVuSans-118"/>
     <use x="1319.482422" xlink:href="#DejaVuSans-101"/>
     <use x="1381.005859" xlink:href="#DejaVuSans-114"/>
     <use x="1422.119141" xlink:href="#DejaVuSans-115"/>
     <use x="1474.21875" xlink:href="#DejaVuSans-97"/>
     <use x="1535.498047" xlink:href="#DejaVuSans-109"/>
     <use x="1632.910156" xlink:href="#DejaVuSans-112"/>
     <use x="1696.386719" xlink:href="#DejaVuSans-108"/>
     <use x="1724.169922" xlink:href="#DejaVuSans-105"/>
     <use x="1751.953125" xlink:href="#DejaVuSans-110"/>
     <use x="1815.332031" xlink:href="#DejaVuSans-103"/>
     <use x="1878.808594" xlink:href="#DejaVuSans-32"/>
     <use x="1910.595703" xlink:href="#DejaVuSans-82"/>
     <use x="1977.828125" xlink:href="#DejaVuSans-97"/>
     <use x="2039.107422" xlink:href="#DejaVuSans-116"/>
     <use x="2078.316406" xlink:href="#DejaVuSans-101"/>
     <use x="2139.839844" xlink:href="#DejaVuSans-44"/>
     <use x="2171.626953" xlink:href="#DejaVuSans-32"/>
     <use x="2203.414062" xlink:href="#DejaVuSans-52"/>
     <use x="2267.037109" xlink:href="#DejaVuSans-116"/>
     <use x="2306.246094" xlink:href="#DejaVuSans-104"/>
     <use x="2369.625" xlink:href="#DejaVuSans-32"/>
     <use x="2401.412109" xlink:href="#DejaVuSans-79"/>
     <use x="2480.123047" xlink:href="#DejaVuSans-114"/>
     <use x="2519.486328" xlink:href="#DejaVuSans-100"/>
     <use x="2582.962891" xlink:href="#DejaVuSans-101"/>
     <use x="2644.486328" xlink:href="#DejaVuSans-114"/>
    </g>
   </g>
   <g id="legend_1">
    <g id="patch_7">
     <path d="M 551.354375 327.12 
L 653.27 327.12 
Q 655.27 327.12 655.27 325.12 
L 655.27 296.76375 
Q 655.27 294.76375 653.27 294.76375 
L 551.354375 294.76375 
Q 549.354375 294.76375 549.354375 296.76375 
L 549.354375 325.12 
Q 549.354375 327.12 551.354375 327.12 
z
" style="fill:#ffffff;opacity:0.8;stroke:#cccccc;stroke-linejoin:miter;"/>
    </g>
    <g id="line2d_20">
     <path d="M 553.354375 302.862188 
L 573.354375 302.862188 
" style="fill:none;stroke:#0000ff;stroke-linecap:square;stroke-width:1.5;"/>
    </g>
    <g id="line2d_21"/>
    <g id="text_11">
     <!-- Simulation -->
     <defs>
      <path d="M 30.609375 48.390625 
Q 23.390625 48.390625 19.1875 42.75 
Q 14.984375 37.109375 14.984375 27.296875 
Q 14.984375 17.484375 19.15625 11.84375 
Q 23.34375 6.203125 30.609375 6.203125 
Q 37.796875 6.203125 41.984375 11.859375 
Q 46.1875 17.53125 46.1875 27.296875 
Q 46.1875 37.015625 41.984375 42.703125 
Q 37.796875 48.390625 30.609375 48.390625 
z
M 30.609375 56 
Q 42.328125 56 49.015625 48.375 
Q 55.71875 40.765625 55.71875 27.296875 
Q 55.71875 13.875 49.015625 6.21875 
Q 42.328125 -1.421875 30.609375 -1.421875 
Q 18.84375 -1.421875 12.171875 6.21875 
Q 5.515625 13.875 5.515625 27.296875 
Q 5.515625 40.765625 12.171875 48.375 
Q 18.84375 56 30.609375 56 
z
" id="DejaVuSans-111"/>
     </defs>
     <g transform="translate(581.354375 306.362188)scale(0.1 -0.1)">
      <use xlink:href="#DejaVuSans-83"/>
      <use x="63.476562" xlink:href="#DejaVuSans-105"/>
      <use x="91.259766" xlink:href="#DejaVuSans-109"/>
      <use x="188.671875" xlink:href="#DejaVuSans-117"/>
      <use x="252.050781" xlink:href="#DejaVuSans-108"/>
      <use x="279.833984" xlink:href="#DejaVuSans-97"/>
      <use x="341.113281" xlink:href="#DejaVuSans-116"/>
      <use x="380.322266" xlink:href="#DejaVuSans-105"/>
      <use x="408.105469" xlink:href="#DejaVuSans-111"/>
      <use x="469.287109" xlink:href="#DejaVuSans-110"/>
     </g>
    </g>
    <g id="line2d_22">
     <path d="M 553.354375 317.540313 
L 573.354375 317.540313 
" style="fill:none;stroke:#bf00bf;stroke-linecap:square;stroke-width:2;"/>
    </g>
    <g id="line2d_23"/>
    <g id="text_12">
     <!-- Expected PSD -->
     <defs>
      <path d="M 9.8125 72.90625 
L 55.90625 72.90625 
L 55.90625 64.59375 
L 19.671875 64.59375 
L 19.671875 43.015625 
L 54.390625 43.015625 
L 54.390625 34.71875 
L 19.671875 34.71875 
L 19.671875 8.296875 
L 56.78125 8.296875 
L 56.78125 0 
L 9.8125 0 
z
" id="DejaVuSans-69"/>
      <path d="M 19.671875 64.796875 
L 19.671875 37.40625 
L 32.078125 37.40625 
Q 38.96875 37.40625 42.71875 40.96875 
Q 46.484375 44.53125 46.484375 51.125 
Q 46.484375 57.671875 42.71875 61.234375 
Q 38.96875 64.796875 32.078125 64.796875 
z
M 9.8125 72.90625 
L 32.078125 72.90625 
Q 44.34375 72.90625 50.609375 67.359375 
Q 56.890625 61.8125 56.890625 51.125 
Q 56.890625 40.328125 50.609375 34.8125 
Q 44.34375 29.296875 32.078125 29.296875 
L 19.671875 29.296875 
L 19.671875 0 
L 9.8125 0 
z
" id="DejaVuSans-80"/>
      <path d="M 19.671875 64.796875 
L 19.671875 8.109375 
L 31.59375 8.109375 
Q 46.6875 8.109375 53.6875 14.9375 
Q 60.6875 21.78125 60.6875 36.53125 
Q 60.6875 51.171875 53.6875 57.984375 
Q 46.6875 64.796875 31.59375 64.796875 
z
M 9.8125 72.90625 
L 30.078125 72.90625 
Q 51.265625 72.90625 61.171875 64.09375 
Q 71.09375 55.28125 71.09375 36.53125 
Q 71.09375 17.671875 61.125 8.828125 
Q 51.171875 0 30.078125 0 
L 9.8125 0 
z
" id="DejaVuSans-68"/>
     </defs>
     <g transform="translate(581.354375 321.040313)scale(0.1 -0.1)">
      <use xlink:href="#DejaVuSans-69"/>
      <use x="63.183594" xlink:href="#DejaVuSans-120"/>
      <use x="122.363281" xlink:href="#DejaVuSans-112"/>
      <use x="185.839844" xlink:href="#DejaVuSans-101"/>
      <use x="247.363281" xlink:href="#DejaVuSans-99"/>
      <use x="302.34375" xlink:href="#DejaVuSans-116"/>
      <use x="341.552734" xlink:href="#DejaVuSans-101"/>
      <use x="403.076172" xlink:href="#DejaVuSans-100"/>
      <use x="466.552734" xlink:href="#DejaVuSans-32"/>
      <use x="498.339844" xlink:href="#DejaVuSans-80"/>
      <use x="558.642578" xlink:href="#DejaVuSans-83"/>
      <use x="622.119141" xlink:href="#DejaVuSans-68"/>
     </g>
    </g>
   </g>
  </g>
 </g>
 <defs>
  <clipPath id="p1e1c33b49d">
   <rect height="305.24" width="615.11" x="45.16" y="26.88"/>
  </clipPath>
 </defs>
</svg>
