<?xml version="1.0" encoding="utf-8" standalone="no"?>
<!DOCTYPE svg PUBLIC "-//W3C//DTD SVG 1.1//EN"
  "http://www.w3.org/Graphics/SVG/1.1/DTD/svg11.dtd">
<!-- Created with matplotlib (https://matplotlib.org/) -->
<svg height="576pt" version="1.1" viewBox="0 0 720 576" width="720pt" xmlns="http://www.w3.org/2000/svg" xmlns:xlink="http://www.w3.org/1999/xlink">
 <defs>
  <style type="text/css">
*{stroke-linecap:butt;stroke-linejoin:round;}
  </style>
 </defs>
 <g id="figure_1">
  <g id="patch_1">
   <path d="M 0 576 
L 720 576 
L 720 0 
L 0 0 
z
" style="fill:#ffffff;"/>
  </g>
  <g id="axes_1">
   <g id="patch_2">
    <path d="M 46.64 132.76 
L 709.2 132.76 
L 709.2 26.88 
L 46.64 26.88 
z
" style="fill:#ffffff;"/>
   </g>
   <g id="matplotlib.axis_1">
    <g id="xtick_1">
     <g id="line2d_1">
      <defs>
       <path d="M 0 0 
L 0 3.5 
" id="m616f85e458" style="stroke:#000000;stroke-width:0.8;"/>
      </defs>
      <g>
       <use style="stroke:#000000;stroke-width:0.8;" x="46.64" xlink:href="#m616f85e458" y="132.76"/>
      </g>
     </g>
     <g id="text_1">
      <!-- 0 -->
      <defs>
       <path d="M 31.78125 66.40625 
Q 24.171875 66.40625 20.328125 58.90625 
Q 16.5 51.421875 16.5 36.375 
Q 16.5 21.390625 20.328125 13.890625 
Q 24.171875 6.390625 31.78125 6.390625 
Q 39.453125 6.390625 43.28125 13.890625 
Q 47.125 21.390625 47.125 36.375 
Q 47.125 51.421875 43.28125 58.90625 
Q 39.453125 66.40625 31.78125 66.40625 
z
M 31.78125 74.21875 
Q 44.046875 74.21875 50.515625 64.515625 
Q 56.984375 54.828125 56.984375 36.375 
Q 56.984375 17.96875 50.515625 8.265625 
Q 44.046875 -1.421875 31.78125 -1.421875 
Q 19.53125 -1.421875 13.0625 8.265625 
Q 6.59375 17.96875 6.59375 36.375 
Q 6.59375 54.828125 13.0625 64.515625 
Q 19.53125 74.21875 31.78125 74.21875 
z
" id="DejaVuSans-48"/>
      </defs>
      <g transform="translate(43.45875 147.358438)scale(0.1 -0.1)">
       <use xlink:href="#DejaVuSans-48"/>
      </g>
     </g>
    </g>
    <g id="xtick_2">
     <g id="line2d_2">
      <g>
       <use style="stroke:#000000;stroke-width:0.8;" x="135.574228" xlink:href="#m616f85e458" y="132.76"/>
      </g>
     </g>
     <g id="text_2">
      <!-- 20 -->
      <defs>
       <path d="M 19.1875 8.296875 
L 53.609375 8.296875 
L 53.609375 0 
L 7.328125 0 
L 7.328125 8.296875 
Q 12.9375 14.109375 22.625 23.890625 
Q 32.328125 33.6875 34.8125 36.53125 
Q 39.546875 41.84375 41.421875 45.53125 
Q 43.3125 49.21875 43.3125 52.78125 
Q 43.3125 58.59375 39.234375 62.25 
Q 35.15625 65.921875 28.609375 65.921875 
Q 23.96875 65.921875 18.8125 64.3125 
Q 13.671875 62.703125 7.8125 59.421875 
L 7.8125 69.390625 
Q 13.765625 71.78125 18.9375 73 
Q 24.125 74.21875 28.421875 74.21875 
Q 39.75 74.21875 46.484375 68.546875 
Q 53.21875 62.890625 53.21875 53.421875 
Q 53.21875 48.921875 51.53125 44.890625 
Q 49.859375 40.875 45.40625 35.40625 
Q 44.1875 33.984375 37.640625 27.21875 
Q 31.109375 20.453125 19.1875 8.296875 
z
" id="DejaVuSans-50"/>
      </defs>
      <g transform="translate(129.211728 147.358438)scale(0.1 -0.1)">
       <use xlink:href="#DejaVuSans-50"/>
       <use x="63.623047" xlink:href="#DejaVuSans-48"/>
      </g>
     </g>
    </g>
    <g id="xtick_3">
     <g id="line2d_3">
      <g>
       <use style="stroke:#000000;stroke-width:0.8;" x="224.508456" xlink:href="#m616f85e458" y="132.76"/>
      </g>
     </g>
     <g id="text_3">
      <!-- 40 -->
      <defs>
       <path d="M 37.796875 64.3125 
L 12.890625 25.390625 
L 37.796875 25.390625 
z
M 35.203125 72.90625 
L 47.609375 72.90625 
L 47.609375 25.390625 
L 58.015625 25.390625 
L 58.015625 17.1875 
L 47.609375 17.1875 
L 47.609375 0 
L 37.796875 0 
L 37.796875 17.1875 
L 4.890625 17.1875 
L 4.890625 26.703125 
z
" id="DejaVuSans-52"/>
      </defs>
      <g transform="translate(218.145956 147.358438)scale(0.1 -0.1)">
       <use xlink:href="#DejaVuSans-52"/>
       <use x="63.623047" xlink:href="#DejaVuSans-48"/>
      </g>
     </g>
    </g>
    <g id="xtick_4">
     <g id="line2d_4">
      <g>
       <use style="stroke:#000000;stroke-width:0.8;" x="313.442685" xlink:href="#m616f85e458" y="132.76"/>
      </g>
     </g>
     <g id="text_4">
      <!-- 60 -->
      <defs>
       <path d="M 33.015625 40.375 
Q 26.375 40.375 22.484375 35.828125 
Q 18.609375 31.296875 18.609375 23.390625 
Q 18.609375 15.53125 22.484375 10.953125 
Q 26.375 6.390625 33.015625 6.390625 
Q 39.65625 6.390625 43.53125 10.953125 
Q 47.40625 15.53125 47.40625 23.390625 
Q 47.40625 31.296875 43.53125 35.828125 
Q 39.65625 40.375 33.015625 40.375 
z
M 52.59375 71.296875 
L 52.59375 62.3125 
Q 48.875 64.0625 45.09375 64.984375 
Q 41.3125 65.921875 37.59375 65.921875 
Q 27.828125 65.921875 22.671875 59.328125 
Q 17.53125 52.734375 16.796875 39.40625 
Q 19.671875 43.65625 24.015625 45.921875 
Q 28.375 48.1875 33.59375 48.1875 
Q 44.578125 48.1875 50.953125 41.515625 
Q 57.328125 34.859375 57.328125 23.390625 
Q 57.328125 12.15625 50.6875 5.359375 
Q 44.046875 -1.421875 33.015625 -1.421875 
Q 20.359375 -1.421875 13.671875 8.265625 
Q 6.984375 17.96875 6.984375 36.375 
Q 6.984375 53.65625 15.1875 63.9375 
Q 23.390625 74.21875 37.203125 74.21875 
Q 40.921875 74.21875 44.703125 73.484375 
Q 48.484375 72.75 52.59375 71.296875 
z
" id="DejaVuSans-54"/>
      </defs>
      <g transform="translate(307.080185 147.358438)scale(0.1 -0.1)">
       <use xlink:href="#DejaVuSans-54"/>
       <use x="63.623047" xlink:href="#DejaVuSans-48"/>
      </g>
     </g>
    </g>
    <g id="xtick_5">
     <g id="line2d_5">
      <g>
       <use style="stroke:#000000;stroke-width:0.8;" x="402.376913" xlink:href="#m616f85e458" y="132.76"/>
      </g>
     </g>
     <g id="text_5">
      <!-- 80 -->
      <defs>
       <path d="M 31.78125 34.625 
Q 24.75 34.625 20.71875 30.859375 
Q 16.703125 27.09375 16.703125 20.515625 
Q 16.703125 13.921875 20.71875 10.15625 
Q 24.75 6.390625 31.78125 6.390625 
Q 38.8125 6.390625 42.859375 10.171875 
Q 46.921875 13.96875 46.921875 20.515625 
Q 46.921875 27.09375 42.890625 30.859375 
Q 38.875 34.625 31.78125 34.625 
z
M 21.921875 38.8125 
Q 15.578125 40.375 12.03125 44.71875 
Q 8.5 49.078125 8.5 55.328125 
Q 8.5 64.0625 14.71875 69.140625 
Q 20.953125 74.21875 31.78125 74.21875 
Q 42.671875 74.21875 48.875 69.140625 
Q 55.078125 64.0625 55.078125 55.328125 
Q 55.078125 49.078125 51.53125 44.71875 
Q 48 40.375 41.703125 38.8125 
Q 48.828125 37.15625 52.796875 32.3125 
Q 56.78125 27.484375 56.78125 20.515625 
Q 56.78125 9.90625 50.3125 4.234375 
Q 43.84375 -1.421875 31.78125 -1.421875 
Q 19.734375 -1.421875 13.25 4.234375 
Q 6.78125 9.90625 6.78125 20.515625 
Q 6.78125 27.484375 10.78125 32.3125 
Q 14.796875 37.15625 21.921875 38.8125 
z
M 18.3125 54.390625 
Q 18.3125 48.734375 21.84375 45.5625 
Q 25.390625 42.390625 31.78125 42.390625 
Q 38.140625 42.390625 41.71875 45.5625 
Q 45.3125 48.734375 45.3125 54.390625 
Q 45.3125 60.0625 41.71875 63.234375 
Q 38.140625 66.40625 31.78125 66.40625 
Q 25.390625 66.40625 21.84375 63.234375 
Q 18.3125 60.0625 18.3125 54.390625 
z
" id="DejaVuSans-56"/>
      </defs>
      <g transform="translate(396.014413 147.358438)scale(0.1 -0.1)">
       <use xlink:href="#DejaVuSans-56"/>
       <use x="63.623047" xlink:href="#DejaVuSans-48"/>
      </g>
     </g>
    </g>
    <g id="xtick_6">
     <g id="line2d_6">
      <g>
       <use style="stroke:#000000;stroke-width:0.8;" x="491.311141" xlink:href="#m616f85e458" y="132.76"/>
      </g>
     </g>
     <g id="text_6">
      <!-- 100 -->
      <defs>
       <path d="M 12.40625 8.296875 
L 28.515625 8.296875 
L 28.515625 63.921875 
L 10.984375 60.40625 
L 10.984375 69.390625 
L 28.421875 72.90625 
L 38.28125 72.90625 
L 38.28125 8.296875 
L 54.390625 8.296875 
L 54.390625 0 
L 12.40625 0 
z
" id="DejaVuSans-49"/>
      </defs>
      <g transform="translate(481.767391 147.358438)scale(0.1 -0.1)">
       <use xlink:href="#DejaVuSans-49"/>
       <use x="63.623047" xlink:href="#DejaVuSans-48"/>
       <use x="127.246094" xlink:href="#DejaVuSans-48"/>
      </g>
     </g>
    </g>
    <g id="xtick_7">
     <g id="line2d_7">
      <g>
       <use style="stroke:#000000;stroke-width:0.8;" x="580.245369" xlink:href="#m616f85e458" y="132.76"/>
      </g>
     </g>
     <g id="text_7">
      <!-- 120 -->
      <g transform="translate(570.701619 147.358438)scale(0.1 -0.1)">
       <use xlink:href="#DejaVuSans-49"/>
       <use x="63.623047" xlink:href="#DejaVuSans-50"/>
       <use x="127.246094" xlink:href="#DejaVuSans-48"/>
      </g>
     </g>
    </g>
    <g id="xtick_8">
     <g id="line2d_8">
      <g>
       <use style="stroke:#000000;stroke-width:0.8;" x="669.179597" xlink:href="#m616f85e458" y="132.76"/>
      </g>
     </g>
     <g id="text_8">
      <!-- 140 -->
      <g transform="translate(659.635847 147.358438)scale(0.1 -0.1)">
       <use xlink:href="#DejaVuSans-49"/>
       <use x="63.623047" xlink:href="#DejaVuSans-52"/>
       <use x="127.246094" xlink:href="#DejaVuSans-48"/>
      </g>
     </g>
    </g>
   </g>
   <g id="matplotlib.axis_2">
    <g id="ytick_1">
     <g id="line2d_9">
      <defs>
       <path d="M 0 0 
L -3.5 0 
" id="meb5ab7cb90" style="stroke:#000000;stroke-width:0.8;"/>
      </defs>
      <g>
       <use style="stroke:#000000;stroke-width:0.8;" x="46.64" xlink:href="#meb5ab7cb90" y="123.936667"/>
      </g>
     </g>
     <g id="text_9">
      <!-- −1.0 -->
      <defs>
       <path d="M 10.59375 35.5 
L 73.1875 35.5 
L 73.1875 27.203125 
L 10.59375 27.203125 
z
" id="DejaVuSans-8722"/>
       <path d="M 10.6875 12.40625 
L 21 12.40625 
L 21 0 
L 10.6875 0 
z
" id="DejaVuSans-46"/>
      </defs>
      <g transform="translate(15.357187 127.735885)scale(0.1 -0.1)">
       <use xlink:href="#DejaVuSans-8722"/>
       <use x="83.789062" xlink:href="#DejaVuSans-49"/>
       <use x="147.412109" xlink:href="#DejaVuSans-46"/>
       <use x="179.199219" xlink:href="#DejaVuSans-48"/>
      </g>
     </g>
    </g>
    <g id="ytick_2">
     <g id="line2d_10">
      <g>
       <use style="stroke:#000000;stroke-width:0.8;" x="46.64" xlink:href="#meb5ab7cb90" y="101.878333"/>
      </g>
     </g>
     <g id="text_10">
      <!-- −0.5 -->
      <defs>
       <path d="M 10.796875 72.90625 
L 49.515625 72.90625 
L 49.515625 64.59375 
L 19.828125 64.59375 
L 19.828125 46.734375 
Q 21.96875 47.46875 24.109375 47.828125 
Q 26.265625 48.1875 28.421875 48.1875 
Q 40.625 48.1875 47.75 41.5 
Q 54.890625 34.8125 54.890625 23.390625 
Q 54.890625 11.625 47.5625 5.09375 
Q 40.234375 -1.421875 26.90625 -1.421875 
Q 22.3125 -1.421875 17.546875 -0.640625 
Q 12.796875 0.140625 7.71875 1.703125 
L 7.71875 11.625 
Q 12.109375 9.234375 16.796875 8.0625 
Q 21.484375 6.890625 26.703125 6.890625 
Q 35.15625 6.890625 40.078125 11.328125 
Q 45.015625 15.765625 45.015625 23.390625 
Q 45.015625 31 40.078125 35.4375 
Q 35.15625 39.890625 26.703125 39.890625 
Q 22.75 39.890625 18.8125 39.015625 
Q 14.890625 38.140625 10.796875 36.28125 
z
" id="DejaVuSans-53"/>
      </defs>
      <g transform="translate(15.357187 105.677552)scale(0.1 -0.1)">
       <use xlink:href="#DejaVuSans-8722"/>
       <use x="83.789062" xlink:href="#DejaVuSans-48"/>
       <use x="147.412109" xlink:href="#DejaVuSans-46"/>
       <use x="179.199219" xlink:href="#DejaVuSans-53"/>
      </g>
     </g>
    </g>
    <g id="ytick_3">
     <g id="line2d_11">
      <g>
       <use style="stroke:#000000;stroke-width:0.8;" x="46.64" xlink:href="#meb5ab7cb90" y="79.82"/>
      </g>
     </g>
     <g id="text_11">
      <!-- 0.0 -->
      <g transform="translate(23.736875 83.619219)scale(0.1 -0.1)">
       <use xlink:href="#DejaVuSans-48"/>
       <use x="63.623047" xlink:href="#DejaVuSans-46"/>
       <use x="95.410156" xlink:href="#DejaVuSans-48"/>
      </g>
     </g>
    </g>
    <g id="ytick_4">
     <g id="line2d_12">
      <g>
       <use style="stroke:#000000;stroke-width:0.8;" x="46.64" xlink:href="#meb5ab7cb90" y="57.761667"/>
      </g>
     </g>
     <g id="text_12">
      <!-- 0.5 -->
      <g transform="translate(23.736875 61.560885)scale(0.1 -0.1)">
       <use xlink:href="#DejaVuSans-48"/>
       <use x="63.623047" xlink:href="#DejaVuSans-46"/>
       <use x="95.410156" xlink:href="#DejaVuSans-53"/>
      </g>
     </g>
    </g>
    <g id="ytick_5">
     <g id="line2d_13">
      <g>
       <use style="stroke:#000000;stroke-width:0.8;" x="46.64" xlink:href="#meb5ab7cb90" y="35.703333"/>
      </g>
     </g>
     <g id="text_13">
      <!-- 1.0 -->
      <g transform="translate(23.736875 39.502552)scale(0.1 -0.1)">
       <use xlink:href="#DejaVuSans-49"/>
       <use x="63.623047" xlink:href="#DejaVuSans-46"/>
       <use x="95.410156" xlink:href="#DejaVuSans-48"/>
      </g>
     </g>
    </g>
    <g id="text_14">
     <!-- 1st Order -->
     <defs>
      <path d="M 44.28125 53.078125 
L 44.28125 44.578125 
Q 40.484375 46.53125 36.375 47.5 
Q 32.28125 48.484375 27.875 48.484375 
Q 21.1875 48.484375 17.84375 46.4375 
Q 14.5 44.390625 14.5 40.28125 
Q 14.5 37.15625 16.890625 35.375 
Q 19.28125 33.59375 26.515625 31.984375 
L 29.59375 31.296875 
Q 39.15625 29.25 43.1875 25.515625 
Q 47.21875 21.78125 47.21875 15.09375 
Q 47.21875 7.46875 41.1875 3.015625 
Q 35.15625 -1.421875 24.609375 -1.421875 
Q 20.21875 -1.421875 15.453125 -0.5625 
Q 10.6875 0.296875 5.421875 2 
L 5.421875 11.28125 
Q 10.40625 8.6875 15.234375 7.390625 
Q 20.0625 6.109375 24.8125 6.109375 
Q 31.15625 6.109375 34.5625 8.28125 
Q 37.984375 10.453125 37.984375 14.40625 
Q 37.984375 18.0625 35.515625 20.015625 
Q 33.0625 21.96875 24.703125 23.78125 
L 21.578125 24.515625 
Q 13.234375 26.265625 9.515625 29.90625 
Q 5.8125 33.546875 5.8125 39.890625 
Q 5.8125 47.609375 11.28125 51.796875 
Q 16.75 56 26.8125 56 
Q 31.78125 56 36.171875 55.265625 
Q 40.578125 54.546875 44.28125 53.078125 
z
" id="DejaVuSans-115"/>
      <path d="M 18.3125 70.21875 
L 18.3125 54.6875 
L 36.8125 54.6875 
L 36.8125 47.703125 
L 18.3125 47.703125 
L 18.3125 18.015625 
Q 18.3125 11.328125 20.140625 9.421875 
Q 21.96875 7.515625 27.59375 7.515625 
L 36.8125 7.515625 
L 36.8125 0 
L 27.59375 0 
Q 17.1875 0 13.234375 3.875 
Q 9.28125 7.765625 9.28125 18.015625 
L 9.28125 47.703125 
L 2.6875 47.703125 
L 2.6875 54.6875 
L 9.28125 54.6875 
L 9.28125 70.21875 
z
" id="DejaVuSans-116"/>
      <path id="DejaVuSans-32"/>
      <path d="M 39.40625 66.21875 
Q 28.65625 66.21875 22.328125 58.203125 
Q 16.015625 50.203125 16.015625 36.375 
Q 16.015625 22.609375 22.328125 14.59375 
Q 28.65625 6.59375 39.40625 6.59375 
Q 50.140625 6.59375 56.421875 14.59375 
Q 62.703125 22.609375 62.703125 36.375 
Q 62.703125 50.203125 56.421875 58.203125 
Q 50.140625 66.21875 39.40625 66.21875 
z
M 39.40625 74.21875 
Q 54.734375 74.21875 63.90625 63.9375 
Q 73.09375 53.65625 73.09375 36.375 
Q 73.09375 19.140625 63.90625 8.859375 
Q 54.734375 -1.421875 39.40625 -1.421875 
Q 24.03125 -1.421875 14.8125 8.828125 
Q 5.609375 19.09375 5.609375 36.375 
Q 5.609375 53.65625 14.8125 63.9375 
Q 24.03125 74.21875 39.40625 74.21875 
z
" id="DejaVuSans-79"/>
      <path d="M 41.109375 46.296875 
Q 39.59375 47.171875 37.8125 47.578125 
Q 36.03125 48 33.890625 48 
Q 26.265625 48 22.1875 43.046875 
Q 18.109375 38.09375 18.109375 28.8125 
L 18.109375 0 
L 9.078125 0 
L 9.078125 54.6875 
L 18.109375 54.6875 
L 18.109375 46.1875 
Q 20.953125 51.171875 25.484375 53.578125 
Q 30.03125 56 36.53125 56 
Q 37.453125 56 38.578125 55.875 
Q 39.703125 55.765625 41.0625 55.515625 
z
" id="DejaVuSans-114"/>
      <path d="M 45.40625 46.390625 
L 45.40625 75.984375 
L 54.390625 75.984375 
L 54.390625 0 
L 45.40625 0 
L 45.40625 8.203125 
Q 42.578125 3.328125 38.25 0.953125 
Q 33.9375 -1.421875 27.875 -1.421875 
Q 17.96875 -1.421875 11.734375 6.484375 
Q 5.515625 14.40625 5.515625 27.296875 
Q 5.515625 40.1875 11.734375 48.09375 
Q 17.96875 56 27.875 56 
Q 33.9375 56 38.25 53.625 
Q 42.578125 51.265625 45.40625 46.390625 
z
M 14.796875 27.296875 
Q 14.796875 17.390625 18.875 11.75 
Q 22.953125 6.109375 30.078125 6.109375 
Q 37.203125 6.109375 41.296875 11.75 
Q 45.40625 17.390625 45.40625 27.296875 
Q 45.40625 37.203125 41.296875 42.84375 
Q 37.203125 48.484375 30.078125 48.484375 
Q 22.953125 48.484375 18.875 42.84375 
Q 14.796875 37.203125 14.796875 27.296875 
z
" id="DejaVuSans-100"/>
      <path d="M 56.203125 29.59375 
L 56.203125 25.203125 
L 14.890625 25.203125 
Q 15.484375 15.921875 20.484375 11.0625 
Q 25.484375 6.203125 34.421875 6.203125 
Q 39.59375 6.203125 44.453125 7.46875 
Q 49.3125 8.734375 54.109375 11.28125 
L 54.109375 2.78125 
Q 49.265625 0.734375 44.1875 -0.34375 
Q 39.109375 -1.421875 33.890625 -1.421875 
Q 20.796875 -1.421875 13.15625 6.1875 
Q 5.515625 13.8125 5.515625 26.8125 
Q 5.515625 40.234375 12.765625 48.109375 
Q 20.015625 56 32.328125 56 
Q 43.359375 56 49.78125 48.890625 
Q 56.203125 41.796875 56.203125 29.59375 
z
M 47.21875 32.234375 
Q 47.125 39.59375 43.09375 43.984375 
Q 39.0625 48.390625 32.421875 48.390625 
Q 24.90625 48.390625 20.390625 44.140625 
Q 15.875 39.890625 15.1875 32.171875 
z
" id="DejaVuSans-101"/>
     </defs>
     <g transform="translate(9.2775 103.365313)rotate(-90)scale(0.1 -0.1)">
      <use xlink:href="#DejaVuSans-49"/>
      <use x="63.623047" xlink:href="#DejaVuSans-115"/>
      <use x="115.722656" xlink:href="#DejaVuSans-116"/>
      <use x="154.931641" xlink:href="#DejaVuSans-32"/>
      <use x="186.71875" xlink:href="#DejaVuSans-79"/>
      <use x="265.429688" xlink:href="#DejaVuSans-114"/>
      <use x="304.792969" xlink:href="#DejaVuSans-100"/>
      <use x="368.269531" xlink:href="#DejaVuSans-101"/>
      <use x="429.792969" xlink:href="#DejaVuSans-114"/>
     </g>
    </g>
   </g>
   <g id="line2d_14">
    <path clip-path="url(#p69f95af919)" d="M 46.64 79.82 
L 709.2 79.82 
L 709.2 79.82 
" style="fill:none;stroke:#ff0000;stroke-linecap:square;stroke-width:1.5;"/>
   </g>
   <g id="line2d_15">
    <path clip-path="url(#p69f95af919)" d="M 46.64 35.703333 
L 46.64 123.936667 
L 51.086711 123.936667 
L 51.086711 35.703333 
L 55.533423 35.703333 
L 55.533423 123.936667 
L 59.980134 123.936667 
L 59.980134 35.703333 
L 64.426846 35.703333 
L 64.426846 123.936667 
L 68.873557 123.936667 
L 68.873557 35.703333 
L 73.320268 35.703333 
L 73.320268 123.936667 
L 77.76698 123.936667 
L 77.76698 35.703333 
L 82.213691 35.703333 
L 82.213691 123.936667 
L 86.660403 123.936667 
L 86.660403 35.703333 
L 91.107114 35.703333 
L 91.107114 123.936667 
L 95.553826 123.936667 
L 95.553826 35.703333 
L 100.000537 35.703333 
L 100.000537 123.936667 
L 104.447248 123.936667 
L 104.447248 35.703333 
L 108.89396 35.703333 
L 108.89396 123.936667 
L 113.340671 123.936667 
L 113.340671 35.703333 
L 117.787383 35.703333 
L 117.787383 123.936667 
L 122.234094 123.936667 
L 122.234094 35.703333 
L 126.680805 35.703333 
L 126.680805 123.936667 
L 131.127517 123.936667 
L 131.127517 35.703333 
L 135.574228 35.703333 
L 135.574228 123.936667 
L 140.02094 123.936667 
L 140.02094 35.703333 
L 144.467651 35.703333 
L 144.467651 123.936667 
L 148.914362 123.936667 
L 148.914362 35.703333 
L 153.361074 35.703333 
L 153.361074 123.936667 
L 157.807785 123.936667 
L 157.807785 35.703333 
L 162.254497 35.703333 
L 162.254497 123.936667 
L 166.701208 123.936667 
L 166.701208 35.703333 
L 171.147919 35.703333 
L 171.147919 123.936667 
L 175.594631 123.936667 
L 175.594631 35.703333 
L 180.041342 35.703333 
L 180.041342 123.936667 
L 184.488054 123.936667 
L 184.488054 35.703333 
L 188.934765 35.703333 
L 188.934765 123.936667 
L 193.381477 123.936667 
L 193.381477 35.703333 
L 197.828188 35.703333 
L 197.828188 123.936667 
L 202.274899 123.936667 
L 202.274899 35.703333 
L 206.721611 35.703333 
L 206.721611 123.936667 
L 211.168322 123.936667 
L 211.168322 35.703333 
L 215.615034 35.703333 
L 215.615034 123.936667 
L 220.061745 123.936667 
L 220.061745 35.703333 
L 224.508456 35.703333 
L 224.508456 123.936667 
L 228.955168 123.936667 
L 228.955168 35.703333 
L 233.401879 35.703333 
L 233.401879 123.936667 
L 237.848591 123.936667 
L 237.848591 35.703333 
L 242.295302 35.703333 
L 242.295302 123.936667 
L 246.742013 123.936667 
L 246.742013 35.703333 
L 251.188725 35.703333 
L 251.188725 123.936667 
L 255.635436 123.936667 
L 255.635436 35.703333 
L 260.082148 35.703333 
L 260.082148 123.936667 
L 264.528859 123.936667 
L 264.528859 35.703333 
L 268.97557 35.703333 
L 268.97557 123.936667 
L 273.422282 123.936667 
L 273.422282 35.703333 
L 277.868993 35.703333 
L 277.868993 123.936667 
L 282.315705 123.936667 
L 282.315705 35.703333 
L 286.762416 35.703333 
L 286.762416 123.936667 
L 291.209128 123.936667 
L 291.209128 35.703333 
L 295.655839 35.703333 
L 295.655839 123.936667 
L 300.10255 123.936667 
L 300.10255 35.703333 
L 304.549262 35.703333 
L 304.549262 123.936667 
L 308.995973 123.936667 
L 308.995973 35.703333 
L 313.442685 35.703333 
L 313.442685 123.936667 
L 317.889396 123.936667 
L 317.889396 35.703333 
L 322.336107 35.703333 
L 322.336107 123.936667 
L 326.782819 123.936667 
L 326.782819 35.703333 
L 331.22953 35.703333 
L 331.22953 123.936667 
L 335.676242 123.936667 
L 335.676242 35.703333 
L 340.122953 35.703333 
L 340.122953 123.936667 
L 344.569664 123.936667 
L 344.569664 35.703333 
L 349.016376 35.703333 
L 349.016376 123.936667 
L 353.463087 123.936667 
L 353.463087 35.703333 
L 357.909799 35.703333 
L 357.909799 123.936667 
L 362.35651 123.936667 
L 362.35651 35.703333 
L 366.803221 35.703333 
L 366.803221 123.936667 
L 371.249933 123.936667 
L 371.249933 35.703333 
L 375.696644 35.703333 
L 375.696644 123.936667 
L 380.143356 123.936667 
L 380.143356 35.703333 
L 384.590067 35.703333 
L 384.590067 123.936667 
L 389.036779 123.936667 
L 389.036779 35.703333 
L 393.48349 35.703333 
L 393.48349 123.936667 
L 397.930201 123.936667 
L 397.930201 35.703333 
L 402.376913 35.703333 
L 402.376913 123.936667 
L 406.823624 123.936667 
L 406.823624 35.703333 
L 411.270336 35.703333 
L 411.270336 123.936667 
L 415.717047 123.936667 
L 415.717047 35.703333 
L 420.163758 35.703333 
L 420.163758 123.936667 
L 424.61047 123.936667 
L 424.61047 35.703333 
L 429.057181 35.703333 
L 429.057181 123.936667 
L 433.503893 123.936667 
L 433.503893 35.703333 
L 437.950604 35.703333 
L 437.950604 123.936667 
L 442.397315 123.936667 
L 442.397315 35.703333 
L 446.844027 35.703333 
L 446.844027 123.936667 
L 451.290738 123.936667 
L 451.290738 35.703333 
L 455.73745 35.703333 
L 455.73745 123.936667 
L 460.184161 123.936667 
L 460.184161 35.703333 
L 464.630872 35.703333 
L 464.630872 123.936667 
L 469.077584 123.936667 
L 469.077584 35.703333 
L 473.524295 35.703333 
L 473.524295 123.936667 
L 477.971007 123.936667 
L 477.971007 35.703333 
L 482.417718 35.703333 
L 482.417718 123.936667 
L 486.86443 123.936667 
L 486.86443 35.703333 
L 491.311141 35.703333 
L 491.311141 123.936667 
L 495.757852 123.936667 
L 495.757852 35.703333 
L 500.204564 35.703333 
L 500.204564 123.936667 
L 504.651275 123.936667 
L 504.651275 35.703333 
L 509.097987 35.703333 
L 509.097987 123.936667 
L 513.544698 123.936667 
L 513.544698 35.703333 
L 517.991409 35.703333 
L 517.991409 123.936667 
L 522.438121 123.936667 
L 522.438121 35.703333 
L 526.884832 35.703333 
L 526.884832 123.936667 
L 531.331544 123.936667 
L 531.331544 35.703333 
L 535.778255 35.703333 
L 535.778255 123.936667 
L 540.224966 123.936667 
L 540.224966 35.703333 
L 544.671678 35.703333 
L 544.671678 123.936667 
L 549.118389 123.936667 
L 549.118389 35.703333 
L 553.565101 35.703333 
L 553.565101 123.936667 
L 558.011812 123.936667 
L 558.011812 35.703333 
L 562.458523 35.703333 
L 562.458523 123.936667 
L 566.905235 123.936667 
L 566.905235 35.703333 
L 571.351946 35.703333 
L 571.351946 123.936667 
L 575.798658 123.936667 
L 575.798658 35.703333 
L 580.245369 35.703333 
L 580.245369 123.936667 
L 584.692081 123.936667 
L 584.692081 35.703333 
L 589.138792 35.703333 
L 589.138792 123.936667 
L 593.585503 123.936667 
L 593.585503 35.703333 
L 598.032215 35.703333 
L 598.032215 123.936667 
L 602.478926 123.936667 
L 602.478926 35.703333 
L 606.925638 35.703333 
L 606.925638 123.936667 
L 611.372349 123.936667 
L 611.372349 35.703333 
L 615.81906 35.703333 
L 615.81906 123.936667 
L 620.265772 123.936667 
L 620.265772 35.703333 
L 624.712483 35.703333 
L 624.712483 123.936667 
L 629.159195 123.936667 
L 629.159195 35.703333 
L 633.605906 35.703333 
L 633.605906 123.936667 
L 638.052617 123.936667 
L 638.052617 35.703333 
L 642.499329 35.703333 
L 642.499329 123.936667 
L 646.94604 123.936667 
L 646.94604 35.703333 
L 651.392752 35.703333 
L 651.392752 123.936667 
L 655.839463 123.936667 
L 655.839463 35.703333 
L 660.286174 35.703333 
L 660.286174 123.936667 
L 664.732886 123.936667 
L 664.732886 35.703333 
L 669.179597 35.703333 
L 669.179597 123.936667 
L 673.626309 123.936667 
L 673.626309 35.703333 
L 678.07302 35.703333 
L 678.07302 123.936667 
L 682.519732 123.936667 
L 682.519732 35.703333 
L 686.966443 35.703333 
L 686.966443 123.936667 
L 691.413154 123.936667 
L 691.413154 35.703333 
L 695.859866 35.703333 
L 695.859866 123.936667 
L 700.306577 123.936667 
L 700.306577 35.703333 
L 704.753289 35.703333 
L 704.753289 123.936667 
L 709.2 123.936667 
L 709.2 123.936667 
" style="fill:none;stroke:#008000;stroke-linecap:square;stroke-width:1.5;"/>
   </g>
   <g id="patch_3">
    <path d="M 46.64 132.76 
L 46.64 26.88 
" style="fill:none;stroke:#000000;stroke-linecap:square;stroke-linejoin:miter;stroke-width:0.8;"/>
   </g>
   <g id="patch_4">
    <path d="M 709.2 132.76 
L 709.2 26.88 
" style="fill:none;stroke:#000000;stroke-linecap:square;stroke-linejoin:miter;stroke-width:0.8;"/>
   </g>
   <g id="patch_5">
    <path d="M 46.64 132.76 
L 709.2 132.76 
" style="fill:none;stroke:#000000;stroke-linecap:square;stroke-linejoin:miter;stroke-width:0.8;"/>
   </g>
   <g id="patch_6">
    <path d="M 46.64 26.88 
L 709.2 26.88 
" style="fill:none;stroke:#000000;stroke-linecap:square;stroke-linejoin:miter;stroke-width:0.8;"/>
   </g>
   <g id="text_15">
    <!-- Sigma-Delta Modulator with 16x Oversampling Rate, Increasing Order -->
    <defs>
     <path d="M 53.515625 70.515625 
L 53.515625 60.890625 
Q 47.90625 63.578125 42.921875 64.890625 
Q 37.9375 66.21875 33.296875 66.21875 
Q 25.25 66.21875 20.875 63.09375 
Q 16.5 59.96875 16.5 54.203125 
Q 16.5 49.359375 19.40625 46.890625 
Q 22.3125 44.4375 30.421875 42.921875 
L 36.375 41.703125 
Q 47.40625 39.59375 52.65625 34.296875 
Q 57.90625 29 57.90625 20.125 
Q 57.90625 9.515625 50.796875 4.046875 
Q 43.703125 -1.421875 29.984375 -1.421875 
Q 24.8125 -1.421875 18.96875 -0.25 
Q 13.140625 0.921875 6.890625 3.21875 
L 6.890625 13.375 
Q 12.890625 10.015625 18.65625 8.296875 
Q 24.421875 6.59375 29.984375 6.59375 
Q 38.421875 6.59375 43.015625 9.90625 
Q 47.609375 13.234375 47.609375 19.390625 
Q 47.609375 24.75 44.3125 27.78125 
Q 41.015625 30.8125 33.5 32.328125 
L 27.484375 33.5 
Q 16.453125 35.6875 11.515625 40.375 
Q 6.59375 45.0625 6.59375 53.421875 
Q 6.59375 63.09375 13.40625 68.65625 
Q 20.21875 74.21875 32.171875 74.21875 
Q 37.3125 74.21875 42.625 73.28125 
Q 47.953125 72.359375 53.515625 70.515625 
z
" id="DejaVuSans-83"/>
     <path d="M 9.421875 54.6875 
L 18.40625 54.6875 
L 18.40625 0 
L 9.421875 0 
z
M 9.421875 75.984375 
L 18.40625 75.984375 
L 18.40625 64.59375 
L 9.421875 64.59375 
z
" id="DejaVuSans-105"/>
     <path d="M 45.40625 27.984375 
Q 45.40625 37.75 41.375 43.109375 
Q 37.359375 48.484375 30.078125 48.484375 
Q 22.859375 48.484375 18.828125 43.109375 
Q 14.796875 37.75 14.796875 27.984375 
Q 14.796875 18.265625 18.828125 12.890625 
Q 22.859375 7.515625 30.078125 7.515625 
Q 37.359375 7.515625 41.375 12.890625 
Q 45.40625 18.265625 45.40625 27.984375 
z
M 54.390625 6.78125 
Q 54.390625 -7.171875 48.1875 -13.984375 
Q 42 -20.796875 29.203125 -20.796875 
Q 24.46875 -20.796875 20.265625 -20.09375 
Q 16.0625 -19.390625 12.109375 -17.921875 
L 12.109375 -9.1875 
Q 16.0625 -11.328125 19.921875 -12.34375 
Q 23.78125 -13.375 27.78125 -13.375 
Q 36.625 -13.375 41.015625 -8.765625 
Q 45.40625 -4.15625 45.40625 5.171875 
L 45.40625 9.625 
Q 42.625 4.78125 38.28125 2.390625 
Q 33.9375 0 27.875 0 
Q 17.828125 0 11.671875 7.65625 
Q 5.515625 15.328125 5.515625 27.984375 
Q 5.515625 40.671875 11.671875 48.328125 
Q 17.828125 56 27.875 56 
Q 33.9375 56 38.28125 53.609375 
Q 42.625 51.21875 45.40625 46.390625 
L 45.40625 54.6875 
L 54.390625 54.6875 
z
" id="DejaVuSans-103"/>
     <path d="M 52 44.1875 
Q 55.375 50.25 60.0625 53.125 
Q 64.75 56 71.09375 56 
Q 79.640625 56 84.28125 50.015625 
Q 88.921875 44.046875 88.921875 33.015625 
L 88.921875 0 
L 79.890625 0 
L 79.890625 32.71875 
Q 79.890625 40.578125 77.09375 44.375 
Q 74.3125 48.1875 68.609375 48.1875 
Q 61.625 48.1875 57.5625 43.546875 
Q 53.515625 38.921875 53.515625 30.90625 
L 53.515625 0 
L 44.484375 0 
L 44.484375 32.71875 
Q 44.484375 40.625 41.703125 44.40625 
Q 38.921875 48.1875 33.109375 48.1875 
Q 26.21875 48.1875 22.15625 43.53125 
Q 18.109375 38.875 18.109375 30.90625 
L 18.109375 0 
L 9.078125 0 
L 9.078125 54.6875 
L 18.109375 54.6875 
L 18.109375 46.1875 
Q 21.1875 51.21875 25.484375 53.609375 
Q 29.78125 56 35.6875 56 
Q 41.65625 56 45.828125 52.96875 
Q 50 49.953125 52 44.1875 
z
" id="DejaVuSans-109"/>
     <path d="M 34.28125 27.484375 
Q 23.390625 27.484375 19.1875 25 
Q 14.984375 22.515625 14.984375 16.5 
Q 14.984375 11.71875 18.140625 8.90625 
Q 21.296875 6.109375 26.703125 6.109375 
Q 34.1875 6.109375 38.703125 11.40625 
Q 43.21875 16.703125 43.21875 25.484375 
L 43.21875 27.484375 
z
M 52.203125 31.203125 
L 52.203125 0 
L 43.21875 0 
L 43.21875 8.296875 
Q 40.140625 3.328125 35.546875 0.953125 
Q 30.953125 -1.421875 24.3125 -1.421875 
Q 15.921875 -1.421875 10.953125 3.296875 
Q 6 8.015625 6 15.921875 
Q 6 25.140625 12.171875 29.828125 
Q 18.359375 34.515625 30.609375 34.515625 
L 43.21875 34.515625 
L 43.21875 35.40625 
Q 43.21875 41.609375 39.140625 45 
Q 35.0625 48.390625 27.6875 48.390625 
Q 23 48.390625 18.546875 47.265625 
Q 14.109375 46.140625 10.015625 43.890625 
L 10.015625 52.203125 
Q 14.9375 54.109375 19.578125 55.046875 
Q 24.21875 56 28.609375 56 
Q 40.484375 56 46.34375 49.84375 
Q 52.203125 43.703125 52.203125 31.203125 
z
" id="DejaVuSans-97"/>
     <path d="M 4.890625 31.390625 
L 31.203125 31.390625 
L 31.203125 23.390625 
L 4.890625 23.390625 
z
" id="DejaVuSans-45"/>
     <path d="M 19.671875 64.796875 
L 19.671875 8.109375 
L 31.59375 8.109375 
Q 46.6875 8.109375 53.6875 14.9375 
Q 60.6875 21.78125 60.6875 36.53125 
Q 60.6875 51.171875 53.6875 57.984375 
Q 46.6875 64.796875 31.59375 64.796875 
z
M 9.8125 72.90625 
L 30.078125 72.90625 
Q 51.265625 72.90625 61.171875 64.09375 
Q 71.09375 55.28125 71.09375 36.53125 
Q 71.09375 17.671875 61.125 8.828125 
Q 51.171875 0 30.078125 0 
L 9.8125 0 
z
" id="DejaVuSans-68"/>
     <path d="M 9.421875 75.984375 
L 18.40625 75.984375 
L 18.40625 0 
L 9.421875 0 
z
" id="DejaVuSans-108"/>
     <path d="M 9.8125 72.90625 
L 24.515625 72.90625 
L 43.109375 23.296875 
L 61.8125 72.90625 
L 76.515625 72.90625 
L 76.515625 0 
L 66.890625 0 
L 66.890625 64.015625 
L 48.09375 14.015625 
L 38.1875 14.015625 
L 19.390625 64.015625 
L 19.390625 0 
L 9.8125 0 
z
" id="DejaVuSans-77"/>
     <path d="M 30.609375 48.390625 
Q 23.390625 48.390625 19.1875 42.75 
Q 14.984375 37.109375 14.984375 27.296875 
Q 14.984375 17.484375 19.15625 11.84375 
Q 23.34375 6.203125 30.609375 6.203125 
Q 37.796875 6.203125 41.984375 11.859375 
Q 46.1875 17.53125 46.1875 27.296875 
Q 46.1875 37.015625 41.984375 42.703125 
Q 37.796875 48.390625 30.609375 48.390625 
z
M 30.609375 56 
Q 42.328125 56 49.015625 48.375 
Q 55.71875 40.765625 55.71875 27.296875 
Q 55.71875 13.875 49.015625 6.21875 
Q 42.328125 -1.421875 30.609375 -1.421875 
Q 18.84375 -1.421875 12.171875 6.21875 
Q 5.515625 13.875 5.515625 27.296875 
Q 5.515625 40.765625 12.171875 48.375 
Q 18.84375 56 30.609375 56 
z
" id="DejaVuSans-111"/>
     <path d="M 8.5 21.578125 
L 8.5 54.6875 
L 17.484375 54.6875 
L 17.484375 21.921875 
Q 17.484375 14.15625 20.5 10.265625 
Q 23.53125 6.390625 29.59375 6.390625 
Q 36.859375 6.390625 41.078125 11.03125 
Q 45.3125 15.671875 45.3125 23.6875 
L 45.3125 54.6875 
L 54.296875 54.6875 
L 54.296875 0 
L 45.3125 0 
L 45.3125 8.40625 
Q 42.046875 3.421875 37.71875 1 
Q 33.40625 -1.421875 27.6875 -1.421875 
Q 18.265625 -1.421875 13.375 4.4375 
Q 8.5 10.296875 8.5 21.578125 
z
M 31.109375 56 
z
" id="DejaVuSans-117"/>
     <path d="M 4.203125 54.6875 
L 13.1875 54.6875 
L 24.421875 12.015625 
L 35.59375 54.6875 
L 46.1875 54.6875 
L 57.421875 12.015625 
L 68.609375 54.6875 
L 77.59375 54.6875 
L 63.28125 0 
L 52.6875 0 
L 40.921875 44.828125 
L 29.109375 0 
L 18.5 0 
z
" id="DejaVuSans-119"/>
     <path d="M 54.890625 33.015625 
L 54.890625 0 
L 45.90625 0 
L 45.90625 32.71875 
Q 45.90625 40.484375 42.875 44.328125 
Q 39.84375 48.1875 33.796875 48.1875 
Q 26.515625 48.1875 22.3125 43.546875 
Q 18.109375 38.921875 18.109375 30.90625 
L 18.109375 0 
L 9.078125 0 
L 9.078125 75.984375 
L 18.109375 75.984375 
L 18.109375 46.1875 
Q 21.34375 51.125 25.703125 53.5625 
Q 30.078125 56 35.796875 56 
Q 45.21875 56 50.046875 50.171875 
Q 54.890625 44.34375 54.890625 33.015625 
z
" id="DejaVuSans-104"/>
     <path d="M 54.890625 54.6875 
L 35.109375 28.078125 
L 55.90625 0 
L 45.3125 0 
L 29.390625 21.484375 
L 13.484375 0 
L 2.875 0 
L 24.125 28.609375 
L 4.6875 54.6875 
L 15.28125 54.6875 
L 29.78125 35.203125 
L 44.28125 54.6875 
z
" id="DejaVuSans-120"/>
     <path d="M 2.984375 54.6875 
L 12.5 54.6875 
L 29.59375 8.796875 
L 46.6875 54.6875 
L 56.203125 54.6875 
L 35.6875 0 
L 23.484375 0 
z
" id="DejaVuSans-118"/>
     <path d="M 18.109375 8.203125 
L 18.109375 -20.796875 
L 9.078125 -20.796875 
L 9.078125 54.6875 
L 18.109375 54.6875 
L 18.109375 46.390625 
Q 20.953125 51.265625 25.265625 53.625 
Q 29.59375 56 35.59375 56 
Q 45.5625 56 51.78125 48.09375 
Q 58.015625 40.1875 58.015625 27.296875 
Q 58.015625 14.40625 51.78125 6.484375 
Q 45.5625 -1.421875 35.59375 -1.421875 
Q 29.59375 -1.421875 25.265625 0.953125 
Q 20.953125 3.328125 18.109375 8.203125 
z
M 48.6875 27.296875 
Q 48.6875 37.203125 44.609375 42.84375 
Q 40.53125 48.484375 33.40625 48.484375 
Q 26.265625 48.484375 22.1875 42.84375 
Q 18.109375 37.203125 18.109375 27.296875 
Q 18.109375 17.390625 22.1875 11.75 
Q 26.265625 6.109375 33.40625 6.109375 
Q 40.53125 6.109375 44.609375 11.75 
Q 48.6875 17.390625 48.6875 27.296875 
z
" id="DejaVuSans-112"/>
     <path d="M 54.890625 33.015625 
L 54.890625 0 
L 45.90625 0 
L 45.90625 32.71875 
Q 45.90625 40.484375 42.875 44.328125 
Q 39.84375 48.1875 33.796875 48.1875 
Q 26.515625 48.1875 22.3125 43.546875 
Q 18.109375 38.921875 18.109375 30.90625 
L 18.109375 0 
L 9.078125 0 
L 9.078125 54.6875 
L 18.109375 54.6875 
L 18.109375 46.1875 
Q 21.34375 51.125 25.703125 53.5625 
Q 30.078125 56 35.796875 56 
Q 45.21875 56 50.046875 50.171875 
Q 54.890625 44.34375 54.890625 33.015625 
z
" id="DejaVuSans-110"/>
     <path d="M 44.390625 34.1875 
Q 47.5625 33.109375 50.5625 29.59375 
Q 53.5625 26.078125 56.59375 19.921875 
L 66.609375 0 
L 56 0 
L 46.6875 18.703125 
Q 43.0625 26.03125 39.671875 28.421875 
Q 36.28125 30.8125 30.421875 30.8125 
L 19.671875 30.8125 
L 19.671875 0 
L 9.8125 0 
L 9.8125 72.90625 
L 32.078125 72.90625 
Q 44.578125 72.90625 50.734375 67.671875 
Q 56.890625 62.453125 56.890625 51.90625 
Q 56.890625 45.015625 53.6875 40.46875 
Q 50.484375 35.9375 44.390625 34.1875 
z
M 19.671875 64.796875 
L 19.671875 38.921875 
L 32.078125 38.921875 
Q 39.203125 38.921875 42.84375 42.21875 
Q 46.484375 45.515625 46.484375 51.90625 
Q 46.484375 58.296875 42.84375 61.546875 
Q 39.203125 64.796875 32.078125 64.796875 
z
" id="DejaVuSans-82"/>
     <path d="M 11.71875 12.40625 
L 22.015625 12.40625 
L 22.015625 4 
L 14.015625 -11.625 
L 7.71875 -11.625 
L 11.71875 4 
z
" id="DejaVuSans-44"/>
     <path d="M 9.8125 72.90625 
L 19.671875 72.90625 
L 19.671875 0 
L 9.8125 0 
z
" id="DejaVuSans-73"/>
     <path d="M 48.78125 52.59375 
L 48.78125 44.1875 
Q 44.96875 46.296875 41.140625 47.34375 
Q 37.3125 48.390625 33.40625 48.390625 
Q 24.65625 48.390625 19.8125 42.84375 
Q 14.984375 37.3125 14.984375 27.296875 
Q 14.984375 17.28125 19.8125 11.734375 
Q 24.65625 6.203125 33.40625 6.203125 
Q 37.3125 6.203125 41.140625 7.25 
Q 44.96875 8.296875 48.78125 10.40625 
L 48.78125 2.09375 
Q 45.015625 0.34375 40.984375 -0.53125 
Q 36.96875 -1.421875 32.421875 -1.421875 
Q 20.0625 -1.421875 12.78125 6.34375 
Q 5.515625 14.109375 5.515625 27.296875 
Q 5.515625 40.671875 12.859375 48.328125 
Q 20.21875 56 33.015625 56 
Q 37.15625 56 41.109375 55.140625 
Q 45.0625 54.296875 48.78125 52.59375 
z
" id="DejaVuSans-99"/>
    </defs>
    <g transform="translate(167.860938 20.88)scale(0.12 -0.12)">
     <use xlink:href="#DejaVuSans-83"/>
     <use x="63.476562" xlink:href="#DejaVuSans-105"/>
     <use x="91.259766" xlink:href="#DejaVuSans-103"/>
     <use x="154.736328" xlink:href="#DejaVuSans-109"/>
     <use x="252.148438" xlink:href="#DejaVuSans-97"/>
     <use x="313.427734" xlink:href="#DejaVuSans-45"/>
     <use x="349.511719" xlink:href="#DejaVuSans-68"/>
     <use x="426.513672" xlink:href="#DejaVuSans-101"/>
     <use x="488.037109" xlink:href="#DejaVuSans-108"/>
     <use x="515.820312" xlink:href="#DejaVuSans-116"/>
     <use x="555.029297" xlink:href="#DejaVuSans-97"/>
     <use x="616.308594" xlink:href="#DejaVuSans-32"/>
     <use x="648.095703" xlink:href="#DejaVuSans-77"/>
     <use x="734.375" xlink:href="#DejaVuSans-111"/>
     <use x="795.556641" xlink:href="#DejaVuSans-100"/>
     <use x="859.033203" xlink:href="#DejaVuSans-117"/>
     <use x="922.412109" xlink:href="#DejaVuSans-108"/>
     <use x="950.195312" xlink:href="#DejaVuSans-97"/>
     <use x="1011.474609" xlink:href="#DejaVuSans-116"/>
     <use x="1050.683594" xlink:href="#DejaVuSans-111"/>
     <use x="1111.865234" xlink:href="#DejaVuSans-114"/>
     <use x="1152.978516" xlink:href="#DejaVuSans-32"/>
     <use x="1184.765625" xlink:href="#DejaVuSans-119"/>
     <use x="1266.552734" xlink:href="#DejaVuSans-105"/>
     <use x="1294.335938" xlink:href="#DejaVuSans-116"/>
     <use x="1333.544922" xlink:href="#DejaVuSans-104"/>
     <use x="1396.923828" xlink:href="#DejaVuSans-32"/>
     <use x="1428.710938" xlink:href="#DejaVuSans-49"/>
     <use x="1492.333984" xlink:href="#DejaVuSans-54"/>
     <use x="1555.957031" xlink:href="#DejaVuSans-120"/>
     <use x="1615.136719" xlink:href="#DejaVuSans-32"/>
     <use x="1646.923828" xlink:href="#DejaVuSans-79"/>
     <use x="1725.634766" xlink:href="#DejaVuSans-118"/>
     <use x="1784.814453" xlink:href="#DejaVuSans-101"/>
     <use x="1846.337891" xlink:href="#DejaVuSans-114"/>
     <use x="1887.451172" xlink:href="#DejaVuSans-115"/>
     <use x="1939.550781" xlink:href="#DejaVuSans-97"/>
     <use x="2000.830078" xlink:href="#DejaVuSans-109"/>
     <use x="2098.242188" xlink:href="#DejaVuSans-112"/>
     <use x="2161.71875" xlink:href="#DejaVuSans-108"/>
     <use x="2189.501953" xlink:href="#DejaVuSans-105"/>
     <use x="2217.285156" xlink:href="#DejaVuSans-110"/>
     <use x="2280.664062" xlink:href="#DejaVuSans-103"/>
     <use x="2344.140625" xlink:href="#DejaVuSans-32"/>
     <use x="2375.927734" xlink:href="#DejaVuSans-82"/>
     <use x="2443.160156" xlink:href="#DejaVuSans-97"/>
     <use x="2504.439453" xlink:href="#DejaVuSans-116"/>
     <use x="2543.648438" xlink:href="#DejaVuSans-101"/>
     <use x="2605.171875" xlink:href="#DejaVuSans-44"/>
     <use x="2636.958984" xlink:href="#DejaVuSans-32"/>
     <use x="2668.746094" xlink:href="#DejaVuSans-73"/>
     <use x="2698.238281" xlink:href="#DejaVuSans-110"/>
     <use x="2761.617188" xlink:href="#DejaVuSans-99"/>
     <use x="2816.597656" xlink:href="#DejaVuSans-114"/>
     <use x="2855.460938" xlink:href="#DejaVuSans-101"/>
     <use x="2916.984375" xlink:href="#DejaVuSans-97"/>
     <use x="2978.263672" xlink:href="#DejaVuSans-115"/>
     <use x="3030.363281" xlink:href="#DejaVuSans-105"/>
     <use x="3058.146484" xlink:href="#DejaVuSans-110"/>
     <use x="3121.525391" xlink:href="#DejaVuSans-103"/>
     <use x="3185.001953" xlink:href="#DejaVuSans-32"/>
     <use x="3216.789062" xlink:href="#DejaVuSans-79"/>
     <use x="3295.5" xlink:href="#DejaVuSans-114"/>
     <use x="3334.863281" xlink:href="#DejaVuSans-100"/>
     <use x="3398.339844" xlink:href="#DejaVuSans-101"/>
     <use x="3459.863281" xlink:href="#DejaVuSans-114"/>
    </g>
   </g>
  </g>
  <g id="axes_2">
   <g id="patch_7">
    <path d="M 46.64 266.52 
L 709.2 266.52 
L 709.2 160.64 
L 46.64 160.64 
z
" style="fill:#ffffff;"/>
   </g>
   <g id="matplotlib.axis_3">
    <g id="xtick_9">
     <g id="line2d_16">
      <g>
       <use style="stroke:#000000;stroke-width:0.8;" x="46.64" xlink:href="#m616f85e458" y="266.52"/>
      </g>
     </g>
     <g id="text_16">
      <!-- 0 -->
      <g transform="translate(43.45875 281.118438)scale(0.1 -0.1)">
       <use xlink:href="#DejaVuSans-48"/>
      </g>
     </g>
    </g>
    <g id="xtick_10">
     <g id="line2d_17">
      <g>
       <use style="stroke:#000000;stroke-width:0.8;" x="135.574228" xlink:href="#m616f85e458" y="266.52"/>
      </g>
     </g>
     <g id="text_17">
      <!-- 20 -->
      <g transform="translate(129.211728 281.118438)scale(0.1 -0.1)">
       <use xlink:href="#DejaVuSans-50"/>
       <use x="63.623047" xlink:href="#DejaVuSans-48"/>
      </g>
     </g>
    </g>
    <g id="xtick_11">
     <g id="line2d_18">
      <g>
       <use style="stroke:#000000;stroke-width:0.8;" x="224.508456" xlink:href="#m616f85e458" y="266.52"/>
      </g>
     </g>
     <g id="text_18">
      <!-- 40 -->
      <g transform="translate(218.145956 281.118438)scale(0.1 -0.1)">
       <use xlink:href="#DejaVuSans-52"/>
       <use x="63.623047" xlink:href="#DejaVuSans-48"/>
      </g>
     </g>
    </g>
    <g id="xtick_12">
     <g id="line2d_19">
      <g>
       <use style="stroke:#000000;stroke-width:0.8;" x="313.442685" xlink:href="#m616f85e458" y="266.52"/>
      </g>
     </g>
     <g id="text_19">
      <!-- 60 -->
      <g transform="translate(307.080185 281.118438)scale(0.1 -0.1)">
       <use xlink:href="#DejaVuSans-54"/>
       <use x="63.623047" xlink:href="#DejaVuSans-48"/>
      </g>
     </g>
    </g>
    <g id="xtick_13">
     <g id="line2d_20">
      <g>
       <use style="stroke:#000000;stroke-width:0.8;" x="402.376913" xlink:href="#m616f85e458" y="266.52"/>
      </g>
     </g>
     <g id="text_20">
      <!-- 80 -->
      <g transform="translate(396.014413 281.118438)scale(0.1 -0.1)">
       <use xlink:href="#DejaVuSans-56"/>
       <use x="63.623047" xlink:href="#DejaVuSans-48"/>
      </g>
     </g>
    </g>
    <g id="xtick_14">
     <g id="line2d_21">
      <g>
       <use style="stroke:#000000;stroke-width:0.8;" x="491.311141" xlink:href="#m616f85e458" y="266.52"/>
      </g>
     </g>
     <g id="text_21">
      <!-- 100 -->
      <g transform="translate(481.767391 281.118438)scale(0.1 -0.1)">
       <use xlink:href="#DejaVuSans-49"/>
       <use x="63.623047" xlink:href="#DejaVuSans-48"/>
       <use x="127.246094" xlink:href="#DejaVuSans-48"/>
      </g>
     </g>
    </g>
    <g id="xtick_15">
     <g id="line2d_22">
      <g>
       <use style="stroke:#000000;stroke-width:0.8;" x="580.245369" xlink:href="#m616f85e458" y="266.52"/>
      </g>
     </g>
     <g id="text_22">
      <!-- 120 -->
      <g transform="translate(570.701619 281.118438)scale(0.1 -0.1)">
       <use xlink:href="#DejaVuSans-49"/>
       <use x="63.623047" xlink:href="#DejaVuSans-50"/>
       <use x="127.246094" xlink:href="#DejaVuSans-48"/>
      </g>
     </g>
    </g>
    <g id="xtick_16">
     <g id="line2d_23">
      <g>
       <use style="stroke:#000000;stroke-width:0.8;" x="669.179597" xlink:href="#m616f85e458" y="266.52"/>
      </g>
     </g>
     <g id="text_23">
      <!-- 140 -->
      <g transform="translate(659.635847 281.118438)scale(0.1 -0.1)">
       <use xlink:href="#DejaVuSans-49"/>
       <use x="63.623047" xlink:href="#DejaVuSans-52"/>
       <use x="127.246094" xlink:href="#DejaVuSans-48"/>
      </g>
     </g>
    </g>
   </g>
   <g id="matplotlib.axis_4">
    <g id="ytick_6">
     <g id="line2d_24">
      <g>
       <use style="stroke:#000000;stroke-width:0.8;" x="46.64" xlink:href="#meb5ab7cb90" y="257.696667"/>
      </g>
     </g>
     <g id="text_24">
      <!-- −1.0 -->
      <g transform="translate(15.357187 261.495885)scale(0.1 -0.1)">
       <use xlink:href="#DejaVuSans-8722"/>
       <use x="83.789062" xlink:href="#DejaVuSans-49"/>
       <use x="147.412109" xlink:href="#DejaVuSans-46"/>
       <use x="179.199219" xlink:href="#DejaVuSans-48"/>
      </g>
     </g>
    </g>
    <g id="ytick_7">
     <g id="line2d_25">
      <g>
       <use style="stroke:#000000;stroke-width:0.8;" x="46.64" xlink:href="#meb5ab7cb90" y="235.638333"/>
      </g>
     </g>
     <g id="text_25">
      <!-- −0.5 -->
      <g transform="translate(15.357187 239.437552)scale(0.1 -0.1)">
       <use xlink:href="#DejaVuSans-8722"/>
       <use x="83.789062" xlink:href="#DejaVuSans-48"/>
       <use x="147.412109" xlink:href="#DejaVuSans-46"/>
       <use x="179.199219" xlink:href="#DejaVuSans-53"/>
      </g>
     </g>
    </g>
    <g id="ytick_8">
     <g id="line2d_26">
      <g>
       <use style="stroke:#000000;stroke-width:0.8;" x="46.64" xlink:href="#meb5ab7cb90" y="213.58"/>
      </g>
     </g>
     <g id="text_26">
      <!-- 0.0 -->
      <g transform="translate(23.736875 217.379219)scale(0.1 -0.1)">
       <use xlink:href="#DejaVuSans-48"/>
       <use x="63.623047" xlink:href="#DejaVuSans-46"/>
       <use x="95.410156" xlink:href="#DejaVuSans-48"/>
      </g>
     </g>
    </g>
    <g id="ytick_9">
     <g id="line2d_27">
      <g>
       <use style="stroke:#000000;stroke-width:0.8;" x="46.64" xlink:href="#meb5ab7cb90" y="191.521667"/>
      </g>
     </g>
     <g id="text_27">
      <!-- 0.5 -->
      <g transform="translate(23.736875 195.320885)scale(0.1 -0.1)">
       <use xlink:href="#DejaVuSans-48"/>
       <use x="63.623047" xlink:href="#DejaVuSans-46"/>
       <use x="95.410156" xlink:href="#DejaVuSans-53"/>
      </g>
     </g>
    </g>
    <g id="ytick_10">
     <g id="line2d_28">
      <g>
       <use style="stroke:#000000;stroke-width:0.8;" x="46.64" xlink:href="#meb5ab7cb90" y="169.463333"/>
      </g>
     </g>
     <g id="text_28">
      <!-- 1.0 -->
      <g transform="translate(23.736875 173.262552)scale(0.1 -0.1)">
       <use xlink:href="#DejaVuSans-49"/>
       <use x="63.623047" xlink:href="#DejaVuSans-46"/>
       <use x="95.410156" xlink:href="#DejaVuSans-48"/>
      </g>
     </g>
    </g>
    <g id="text_29">
     <!-- 2nd Order -->
     <g transform="translate(9.2775 238.903438)rotate(-90)scale(0.1 -0.1)">
      <use xlink:href="#DejaVuSans-50"/>
      <use x="63.623047" xlink:href="#DejaVuSans-110"/>
      <use x="127.001953" xlink:href="#DejaVuSans-100"/>
      <use x="190.478516" xlink:href="#DejaVuSans-32"/>
      <use x="222.265625" xlink:href="#DejaVuSans-79"/>
      <use x="300.976562" xlink:href="#DejaVuSans-114"/>
      <use x="340.339844" xlink:href="#DejaVuSans-100"/>
      <use x="403.816406" xlink:href="#DejaVuSans-101"/>
      <use x="465.339844" xlink:href="#DejaVuSans-114"/>
     </g>
    </g>
   </g>
   <g id="line2d_29">
    <path clip-path="url(#pf7d4a43aab)" d="M 46.64 213.58 
L 709.2 213.58 
L 709.2 213.58 
" style="fill:none;stroke:#ff0000;stroke-linecap:square;stroke-width:1.5;"/>
   </g>
   <g id="line2d_30">
    <path clip-path="url(#pf7d4a43aab)" d="M 46.64 169.463333 
L 46.64 257.696667 
L 55.533423 257.696667 
L 55.533423 169.463333 
L 64.426846 169.463333 
L 64.426846 257.696667 
L 73.320268 257.696667 
L 73.320268 169.463333 
L 82.213691 169.463333 
L 82.213691 257.696667 
L 91.107114 257.696667 
L 91.107114 169.463333 
L 100.000537 169.463333 
L 100.000537 257.696667 
L 108.89396 257.696667 
L 108.89396 169.463333 
L 117.787383 169.463333 
L 117.787383 257.696667 
L 126.680805 257.696667 
L 126.680805 169.463333 
L 135.574228 169.463333 
L 135.574228 257.696667 
L 140.02094 257.696667 
L 140.02094 169.463333 
L 144.467651 169.463333 
L 144.467651 257.696667 
L 153.361074 257.696667 
L 153.361074 169.463333 
L 162.254497 169.463333 
L 162.254497 257.696667 
L 171.147919 257.696667 
L 171.147919 169.463333 
L 180.041342 169.463333 
L 180.041342 257.696667 
L 188.934765 257.696667 
L 188.934765 169.463333 
L 197.828188 169.463333 
L 197.828188 257.696667 
L 202.274899 257.696667 
L 202.274899 169.463333 
L 206.721611 169.463333 
L 206.721611 257.696667 
L 215.615034 257.696667 
L 215.615034 169.463333 
L 224.508456 169.463333 
L 224.508456 257.696667 
L 233.401879 257.696667 
L 233.401879 169.463333 
L 242.295302 169.463333 
L 242.295302 257.696667 
L 246.742013 257.696667 
L 246.742013 169.463333 
L 251.188725 169.463333 
L 251.188725 257.696667 
L 260.082148 257.696667 
L 260.082148 169.463333 
L 268.97557 169.463333 
L 268.97557 257.696667 
L 277.868993 257.696667 
L 277.868993 169.463333 
L 286.762416 169.463333 
L 286.762416 257.696667 
L 291.209128 257.696667 
L 291.209128 169.463333 
L 295.655839 169.463333 
L 295.655839 257.696667 
L 304.549262 257.696667 
L 304.549262 169.463333 
L 313.442685 169.463333 
L 313.442685 257.696667 
L 317.889396 257.696667 
L 317.889396 169.463333 
L 322.336107 169.463333 
L 322.336107 257.696667 
L 331.22953 257.696667 
L 331.22953 169.463333 
L 340.122953 169.463333 
L 340.122953 257.696667 
L 344.569664 257.696667 
L 344.569664 169.463333 
L 349.016376 169.463333 
L 349.016376 257.696667 
L 357.909799 257.696667 
L 357.909799 169.463333 
L 366.803221 169.463333 
L 366.803221 257.696667 
L 371.249933 257.696667 
L 371.249933 169.463333 
L 375.696644 169.463333 
L 375.696644 257.696667 
L 384.590067 257.696667 
L 384.590067 169.463333 
L 393.48349 169.463333 
L 393.48349 257.696667 
L 397.930201 257.696667 
L 397.930201 169.463333 
L 402.376913 169.463333 
L 402.376913 257.696667 
L 411.270336 257.696667 
L 411.270336 169.463333 
L 420.163758 169.463333 
L 420.163758 257.696667 
L 424.61047 257.696667 
L 424.61047 169.463333 
L 429.057181 169.463333 
L 429.057181 257.696667 
L 433.503893 257.696667 
L 433.503893 169.463333 
L 437.950604 169.463333 
L 437.950604 257.696667 
L 446.844027 257.696667 
L 446.844027 169.463333 
L 455.73745 169.463333 
L 455.73745 257.696667 
L 460.184161 257.696667 
L 460.184161 169.463333 
L 464.630872 169.463333 
L 464.630872 257.696667 
L 469.077584 257.696667 
L 469.077584 169.463333 
L 473.524295 169.463333 
L 473.524295 257.696667 
L 482.417718 257.696667 
L 482.417718 169.463333 
L 491.311141 169.463333 
L 491.311141 257.696667 
L 495.757852 257.696667 
L 495.757852 169.463333 
L 500.204564 169.463333 
L 500.204564 257.696667 
L 504.651275 257.696667 
L 504.651275 169.463333 
L 509.097987 169.463333 
L 509.097987 257.696667 
L 517.991409 257.696667 
L 517.991409 169.463333 
L 526.884832 169.463333 
L 526.884832 257.696667 
L 531.331544 257.696667 
L 531.331544 169.463333 
L 535.778255 169.463333 
L 535.778255 257.696667 
L 540.224966 257.696667 
L 540.224966 169.463333 
L 544.671678 169.463333 
L 544.671678 257.696667 
L 549.118389 257.696667 
L 549.118389 169.463333 
L 553.565101 169.463333 
L 553.565101 257.696667 
L 558.011812 257.696667 
L 558.011812 169.463333 
L 562.458523 169.463333 
L 562.458523 257.696667 
L 571.351946 257.696667 
L 571.351946 169.463333 
L 580.245369 169.463333 
L 580.245369 257.696667 
L 584.692081 257.696667 
L 584.692081 169.463333 
L 589.138792 169.463333 
L 589.138792 257.696667 
L 593.585503 257.696667 
L 593.585503 169.463333 
L 598.032215 169.463333 
L 598.032215 257.696667 
L 602.478926 257.696667 
L 602.478926 169.463333 
L 606.925638 169.463333 
L 606.925638 257.696667 
L 611.372349 257.696667 
L 611.372349 169.463333 
L 615.81906 169.463333 
L 615.81906 257.696667 
L 620.265772 257.696667 
L 620.265772 169.463333 
L 624.712483 169.463333 
L 624.712483 257.696667 
L 629.159195 257.696667 
L 629.159195 169.463333 
L 633.605906 169.463333 
L 633.605906 257.696667 
L 638.052617 257.696667 
L 638.052617 169.463333 
L 642.499329 169.463333 
L 642.499329 257.696667 
L 646.94604 257.696667 
L 646.94604 169.463333 
L 651.392752 169.463333 
L 651.392752 257.696667 
L 655.839463 257.696667 
L 655.839463 169.463333 
L 660.286174 169.463333 
L 660.286174 257.696667 
L 664.732886 257.696667 
L 664.732886 169.463333 
L 669.179597 169.463333 
L 669.179597 257.696667 
L 673.626309 257.696667 
L 673.626309 169.463333 
L 678.07302 169.463333 
L 678.07302 257.696667 
L 682.519732 257.696667 
L 682.519732 169.463333 
L 686.966443 169.463333 
L 686.966443 257.696667 
L 691.413154 257.696667 
L 691.413154 169.463333 
L 695.859866 169.463333 
L 695.859866 257.696667 
L 700.306577 257.696667 
L 700.306577 169.463333 
L 704.753289 169.463333 
L 704.753289 257.696667 
L 709.2 257.696667 
L 709.2 257.696667 
" style="fill:none;stroke:#008000;stroke-linecap:square;stroke-width:1.5;"/>
   </g>
   <g id="patch_8">
    <path d="M 46.64 266.52 
L 46.64 160.64 
" style="fill:none;stroke:#000000;stroke-linecap:square;stroke-linejoin:miter;stroke-width:0.8;"/>
   </g>
   <g id="patch_9">
    <path d="M 709.2 266.52 
L 709.2 160.64 
" style="fill:none;stroke:#000000;stroke-linecap:square;stroke-linejoin:miter;stroke-width:0.8;"/>
   </g>
   <g id="patch_10">
    <path d="M 46.64 266.52 
L 709.2 266.52 
" style="fill:none;stroke:#000000;stroke-linecap:square;stroke-linejoin:miter;stroke-width:0.8;"/>
   </g>
   <g id="patch_11">
    <path d="M 46.64 160.64 
L 709.2 160.64 
" style="fill:none;stroke:#000000;stroke-linecap:square;stroke-linejoin:miter;stroke-width:0.8;"/>
   </g>
  </g>
  <g id="axes_3">
   <g id="patch_12">
    <path d="M 46.64 400.28 
L 709.2 400.28 
L 709.2 294.4 
L 46.64 294.4 
z
" style="fill:#ffffff;"/>
   </g>
   <g id="matplotlib.axis_5">
    <g id="xtick_17">
     <g id="line2d_31">
      <g>
       <use style="stroke:#000000;stroke-width:0.8;" x="46.64" xlink:href="#m616f85e458" y="400.28"/>
      </g>
     </g>
     <g id="text_30">
      <!-- 0 -->
      <g transform="translate(43.45875 414.878438)scale(0.1 -0.1)">
       <use xlink:href="#DejaVuSans-48"/>
      </g>
     </g>
    </g>
    <g id="xtick_18">
     <g id="line2d_32">
      <g>
       <use style="stroke:#000000;stroke-width:0.8;" x="135.574228" xlink:href="#m616f85e458" y="400.28"/>
      </g>
     </g>
     <g id="text_31">
      <!-- 20 -->
      <g transform="translate(129.211728 414.878438)scale(0.1 -0.1)">
       <use xlink:href="#DejaVuSans-50"/>
       <use x="63.623047" xlink:href="#DejaVuSans-48"/>
      </g>
     </g>
    </g>
    <g id="xtick_19">
     <g id="line2d_33">
      <g>
       <use style="stroke:#000000;stroke-width:0.8;" x="224.508456" xlink:href="#m616f85e458" y="400.28"/>
      </g>
     </g>
     <g id="text_32">
      <!-- 40 -->
      <g transform="translate(218.145956 414.878438)scale(0.1 -0.1)">
       <use xlink:href="#DejaVuSans-52"/>
       <use x="63.623047" xlink:href="#DejaVuSans-48"/>
      </g>
     </g>
    </g>
    <g id="xtick_20">
     <g id="line2d_34">
      <g>
       <use style="stroke:#000000;stroke-width:0.8;" x="313.442685" xlink:href="#m616f85e458" y="400.28"/>
      </g>
     </g>
     <g id="text_33">
      <!-- 60 -->
      <g transform="translate(307.080185 414.878438)scale(0.1 -0.1)">
       <use xlink:href="#DejaVuSans-54"/>
       <use x="63.623047" xlink:href="#DejaVuSans-48"/>
      </g>
     </g>
    </g>
    <g id="xtick_21">
     <g id="line2d_35">
      <g>
       <use style="stroke:#000000;stroke-width:0.8;" x="402.376913" xlink:href="#m616f85e458" y="400.28"/>
      </g>
     </g>
     <g id="text_34">
      <!-- 80 -->
      <g transform="translate(396.014413 414.878438)scale(0.1 -0.1)">
       <use xlink:href="#DejaVuSans-56"/>
       <use x="63.623047" xlink:href="#DejaVuSans-48"/>
      </g>
     </g>
    </g>
    <g id="xtick_22">
     <g id="line2d_36">
      <g>
       <use style="stroke:#000000;stroke-width:0.8;" x="491.311141" xlink:href="#m616f85e458" y="400.28"/>
      </g>
     </g>
     <g id="text_35">
      <!-- 100 -->
      <g transform="translate(481.767391 414.878438)scale(0.1 -0.1)">
       <use xlink:href="#DejaVuSans-49"/>
       <use x="63.623047" xlink:href="#DejaVuSans-48"/>
       <use x="127.246094" xlink:href="#DejaVuSans-48"/>
      </g>
     </g>
    </g>
    <g id="xtick_23">
     <g id="line2d_37">
      <g>
       <use style="stroke:#000000;stroke-width:0.8;" x="580.245369" xlink:href="#m616f85e458" y="400.28"/>
      </g>
     </g>
     <g id="text_36">
      <!-- 120 -->
      <g transform="translate(570.701619 414.878438)scale(0.1 -0.1)">
       <use xlink:href="#DejaVuSans-49"/>
       <use x="63.623047" xlink:href="#DejaVuSans-50"/>
       <use x="127.246094" xlink:href="#DejaVuSans-48"/>
      </g>
     </g>
    </g>
    <g id="xtick_24">
     <g id="line2d_38">
      <g>
       <use style="stroke:#000000;stroke-width:0.8;" x="669.179597" xlink:href="#m616f85e458" y="400.28"/>
      </g>
     </g>
     <g id="text_37">
      <!-- 140 -->
      <g transform="translate(659.635847 414.878438)scale(0.1 -0.1)">
       <use xlink:href="#DejaVuSans-49"/>
       <use x="63.623047" xlink:href="#DejaVuSans-52"/>
       <use x="127.246094" xlink:href="#DejaVuSans-48"/>
      </g>
     </g>
    </g>
   </g>
   <g id="matplotlib.axis_6">
    <g id="ytick_11">
     <g id="line2d_39">
      <g>
       <use style="stroke:#000000;stroke-width:0.8;" x="46.64" xlink:href="#meb5ab7cb90" y="391.456667"/>
      </g>
     </g>
     <g id="text_38">
      <!-- −1.0 -->
      <g transform="translate(15.357187 395.255885)scale(0.1 -0.1)">
       <use xlink:href="#DejaVuSans-8722"/>
       <use x="83.789062" xlink:href="#DejaVuSans-49"/>
       <use x="147.412109" xlink:href="#DejaVuSans-46"/>
       <use x="179.199219" xlink:href="#DejaVuSans-48"/>
      </g>
     </g>
    </g>
    <g id="ytick_12">
     <g id="line2d_40">
      <g>
       <use style="stroke:#000000;stroke-width:0.8;" x="46.64" xlink:href="#meb5ab7cb90" y="369.398333"/>
      </g>
     </g>
     <g id="text_39">
      <!-- −0.5 -->
      <g transform="translate(15.357187 373.197552)scale(0.1 -0.1)">
       <use xlink:href="#DejaVuSans-8722"/>
       <use x="83.789062" xlink:href="#DejaVuSans-48"/>
       <use x="147.412109" xlink:href="#DejaVuSans-46"/>
       <use x="179.199219" xlink:href="#DejaVuSans-53"/>
      </g>
     </g>
    </g>
    <g id="ytick_13">
     <g id="line2d_41">
      <g>
       <use style="stroke:#000000;stroke-width:0.8;" x="46.64" xlink:href="#meb5ab7cb90" y="347.34"/>
      </g>
     </g>
     <g id="text_40">
      <!-- 0.0 -->
      <g transform="translate(23.736875 351.139219)scale(0.1 -0.1)">
       <use xlink:href="#DejaVuSans-48"/>
       <use x="63.623047" xlink:href="#DejaVuSans-46"/>
       <use x="95.410156" xlink:href="#DejaVuSans-48"/>
      </g>
     </g>
    </g>
    <g id="ytick_14">
     <g id="line2d_42">
      <g>
       <use style="stroke:#000000;stroke-width:0.8;" x="46.64" xlink:href="#meb5ab7cb90" y="325.281667"/>
      </g>
     </g>
     <g id="text_41">
      <!-- 0.5 -->
      <g transform="translate(23.736875 329.080885)scale(0.1 -0.1)">
       <use xlink:href="#DejaVuSans-48"/>
       <use x="63.623047" xlink:href="#DejaVuSans-46"/>
       <use x="95.410156" xlink:href="#DejaVuSans-53"/>
      </g>
     </g>
    </g>
    <g id="ytick_15">
     <g id="line2d_43">
      <g>
       <use style="stroke:#000000;stroke-width:0.8;" x="46.64" xlink:href="#meb5ab7cb90" y="303.223333"/>
      </g>
     </g>
     <g id="text_42">
      <!-- 1.0 -->
      <g transform="translate(23.736875 307.022552)scale(0.1 -0.1)">
       <use xlink:href="#DejaVuSans-49"/>
       <use x="63.623047" xlink:href="#DejaVuSans-46"/>
       <use x="95.410156" xlink:href="#DejaVuSans-48"/>
      </g>
     </g>
    </g>
    <g id="text_43">
     <!-- 3rd Order -->
     <defs>
      <path d="M 40.578125 39.3125 
Q 47.65625 37.796875 51.625 33 
Q 55.609375 28.21875 55.609375 21.1875 
Q 55.609375 10.40625 48.1875 4.484375 
Q 40.765625 -1.421875 27.09375 -1.421875 
Q 22.515625 -1.421875 17.65625 -0.515625 
Q 12.796875 0.390625 7.625 2.203125 
L 7.625 11.71875 
Q 11.71875 9.328125 16.59375 8.109375 
Q 21.484375 6.890625 26.8125 6.890625 
Q 36.078125 6.890625 40.9375 10.546875 
Q 45.796875 14.203125 45.796875 21.1875 
Q 45.796875 27.640625 41.28125 31.265625 
Q 36.765625 34.90625 28.71875 34.90625 
L 20.21875 34.90625 
L 20.21875 43.015625 
L 29.109375 43.015625 
Q 36.375 43.015625 40.234375 45.921875 
Q 44.09375 48.828125 44.09375 54.296875 
Q 44.09375 59.90625 40.109375 62.90625 
Q 36.140625 65.921875 28.71875 65.921875 
Q 24.65625 65.921875 20.015625 65.03125 
Q 15.375 64.15625 9.8125 62.3125 
L 9.8125 71.09375 
Q 15.4375 72.65625 20.34375 73.4375 
Q 25.25 74.21875 29.59375 74.21875 
Q 40.828125 74.21875 47.359375 69.109375 
Q 53.90625 64.015625 53.90625 55.328125 
Q 53.90625 49.265625 50.4375 45.09375 
Q 46.96875 40.921875 40.578125 39.3125 
z
" id="DejaVuSans-51"/>
     </defs>
     <g transform="translate(9.2775 371.462656)rotate(-90)scale(0.1 -0.1)">
      <use xlink:href="#DejaVuSans-51"/>
      <use x="63.623047" xlink:href="#DejaVuSans-114"/>
      <use x="102.986328" xlink:href="#DejaVuSans-100"/>
      <use x="166.462891" xlink:href="#DejaVuSans-32"/>
      <use x="198.25" xlink:href="#DejaVuSans-79"/>
      <use x="276.960938" xlink:href="#DejaVuSans-114"/>
      <use x="316.324219" xlink:href="#DejaVuSans-100"/>
      <use x="379.800781" xlink:href="#DejaVuSans-101"/>
      <use x="441.324219" xlink:href="#DejaVuSans-114"/>
     </g>
    </g>
   </g>
   <g id="line2d_44">
    <path clip-path="url(#p6497d9e8be)" d="M 46.64 347.34 
L 709.2 347.34 
L 709.2 347.34 
" style="fill:none;stroke:#ff0000;stroke-linecap:square;stroke-width:1.5;"/>
   </g>
   <g id="line2d_45">
    <path clip-path="url(#p6497d9e8be)" d="M 46.64 303.223333 
L 46.64 391.456667 
L 55.533423 391.456667 
L 55.533423 303.223333 
L 59.980134 303.223333 
L 59.980134 391.456667 
L 64.426846 391.456667 
L 64.426846 303.223333 
L 73.320268 303.223333 
L 73.320268 391.456667 
L 77.76698 391.456667 
L 77.76698 303.223333 
L 82.213691 303.223333 
L 82.213691 391.456667 
L 91.107114 391.456667 
L 91.107114 303.223333 
L 100.000537 303.223333 
L 100.000537 391.456667 
L 108.89396 391.456667 
L 108.89396 303.223333 
L 117.787383 303.223333 
L 117.787383 391.456667 
L 126.680805 391.456667 
L 126.680805 303.223333 
L 135.574228 303.223333 
L 135.574228 391.456667 
L 144.467651 391.456667 
L 144.467651 303.223333 
L 153.361074 303.223333 
L 153.361074 391.456667 
L 162.254497 391.456667 
L 162.254497 303.223333 
L 171.147919 303.223333 
L 171.147919 391.456667 
L 180.041342 391.456667 
L 180.041342 303.223333 
L 188.934765 303.223333 
L 188.934765 391.456667 
L 197.828188 391.456667 
L 197.828188 303.223333 
L 206.721611 303.223333 
L 206.721611 391.456667 
L 215.615034 391.456667 
L 215.615034 303.223333 
L 224.508456 303.223333 
L 224.508456 391.456667 
L 233.401879 391.456667 
L 233.401879 303.223333 
L 242.295302 303.223333 
L 242.295302 391.456667 
L 251.188725 391.456667 
L 251.188725 303.223333 
L 260.082148 303.223333 
L 260.082148 391.456667 
L 268.97557 391.456667 
L 268.97557 303.223333 
L 277.868993 303.223333 
L 277.868993 391.456667 
L 286.762416 391.456667 
L 286.762416 303.223333 
L 295.655839 303.223333 
L 295.655839 391.456667 
L 304.549262 391.456667 
L 304.549262 303.223333 
L 313.442685 303.223333 
L 313.442685 391.456667 
L 322.336107 391.456667 
L 322.336107 303.223333 
L 331.22953 303.223333 
L 331.22953 391.456667 
L 340.122953 391.456667 
L 340.122953 303.223333 
L 349.016376 303.223333 
L 349.016376 391.456667 
L 357.909799 391.456667 
L 357.909799 303.223333 
L 366.803221 303.223333 
L 366.803221 391.456667 
L 375.696644 391.456667 
L 375.696644 303.223333 
L 384.590067 303.223333 
L 384.590067 391.456667 
L 393.48349 391.456667 
L 393.48349 303.223333 
L 402.376913 303.223333 
L 402.376913 391.456667 
L 411.270336 391.456667 
L 411.270336 303.223333 
L 420.163758 303.223333 
L 420.163758 391.456667 
L 429.057181 391.456667 
L 429.057181 303.223333 
L 437.950604 303.223333 
L 437.950604 391.456667 
L 446.844027 391.456667 
L 446.844027 303.223333 
L 455.73745 303.223333 
L 455.73745 391.456667 
L 464.630872 391.456667 
L 464.630872 303.223333 
L 473.524295 303.223333 
L 473.524295 391.456667 
L 482.417718 391.456667 
L 482.417718 303.223333 
L 491.311141 303.223333 
L 491.311141 391.456667 
L 500.204564 391.456667 
L 500.204564 303.223333 
L 509.097987 303.223333 
L 509.097987 391.456667 
L 517.991409 391.456667 
L 517.991409 303.223333 
L 526.884832 303.223333 
L 526.884832 391.456667 
L 535.778255 391.456667 
L 535.778255 303.223333 
L 544.671678 303.223333 
L 544.671678 391.456667 
L 553.565101 391.456667 
L 553.565101 303.223333 
L 562.458523 303.223333 
L 562.458523 391.456667 
L 571.351946 391.456667 
L 571.351946 303.223333 
L 580.245369 303.223333 
L 580.245369 391.456667 
L 589.138792 391.456667 
L 589.138792 303.223333 
L 598.032215 303.223333 
L 598.032215 391.456667 
L 606.925638 391.456667 
L 606.925638 303.223333 
L 615.81906 303.223333 
L 615.81906 391.456667 
L 624.712483 391.456667 
L 624.712483 303.223333 
L 633.605906 303.223333 
L 633.605906 391.456667 
L 642.499329 391.456667 
L 642.499329 303.223333 
L 651.392752 303.223333 
L 651.392752 391.456667 
L 660.286174 391.456667 
L 660.286174 303.223333 
L 669.179597 303.223333 
L 669.179597 391.456667 
L 678.07302 391.456667 
L 678.07302 303.223333 
L 686.966443 303.223333 
L 686.966443 391.456667 
L 695.859866 391.456667 
L 695.859866 303.223333 
L 704.753289 303.223333 
L 704.753289 391.456667 
L 709.2 391.456667 
L 709.2 391.456667 
" style="fill:none;stroke:#008000;stroke-linecap:square;stroke-width:1.5;"/>
   </g>
   <g id="patch_13">
    <path d="M 46.64 400.28 
L 46.64 294.4 
" style="fill:none;stroke:#000000;stroke-linecap:square;stroke-linejoin:miter;stroke-width:0.8;"/>
   </g>
   <g id="patch_14">
    <path d="M 709.2 400.28 
L 709.2 294.4 
" style="fill:none;stroke:#000000;stroke-linecap:square;stroke-linejoin:miter;stroke-width:0.8;"/>
   </g>
   <g id="patch_15">
    <path d="M 46.64 400.28 
L 709.2 400.28 
" style="fill:none;stroke:#000000;stroke-linecap:square;stroke-linejoin:miter;stroke-width:0.8;"/>
   </g>
   <g id="patch_16">
    <path d="M 46.64 294.4 
L 709.2 294.4 
" style="fill:none;stroke:#000000;stroke-linecap:square;stroke-linejoin:miter;stroke-width:0.8;"/>
   </g>
  </g>
  <g id="axes_4">
   <g id="patch_17">
    <path d="M 46.64 534.04 
L 709.2 534.04 
L 709.2 428.16 
L 46.64 428.16 
z
" style="fill:#ffffff;"/>
   </g>
   <g id="matplotlib.axis_7">
    <g id="xtick_25">
     <g id="line2d_46">
      <g>
       <use style="stroke:#000000;stroke-width:0.8;" x="46.64" xlink:href="#m616f85e458" y="534.04"/>
      </g>
     </g>
     <g id="text_44">
      <!-- 0 -->
      <g transform="translate(43.45875 548.638438)scale(0.1 -0.1)">
       <use xlink:href="#DejaVuSans-48"/>
      </g>
     </g>
    </g>
    <g id="xtick_26">
     <g id="line2d_47">
      <g>
       <use style="stroke:#000000;stroke-width:0.8;" x="135.574228" xlink:href="#m616f85e458" y="534.04"/>
      </g>
     </g>
     <g id="text_45">
      <!-- 20 -->
      <g transform="translate(129.211728 548.638438)scale(0.1 -0.1)">
       <use xlink:href="#DejaVuSans-50"/>
       <use x="63.623047" xlink:href="#DejaVuSans-48"/>
      </g>
     </g>
    </g>
    <g id="xtick_27">
     <g id="line2d_48">
      <g>
       <use style="stroke:#000000;stroke-width:0.8;" x="224.508456" xlink:href="#m616f85e458" y="534.04"/>
      </g>
     </g>
     <g id="text_46">
      <!-- 40 -->
      <g transform="translate(218.145956 548.638438)scale(0.1 -0.1)">
       <use xlink:href="#DejaVuSans-52"/>
       <use x="63.623047" xlink:href="#DejaVuSans-48"/>
      </g>
     </g>
    </g>
    <g id="xtick_28">
     <g id="line2d_49">
      <g>
       <use style="stroke:#000000;stroke-width:0.8;" x="313.442685" xlink:href="#m616f85e458" y="534.04"/>
      </g>
     </g>
     <g id="text_47">
      <!-- 60 -->
      <g transform="translate(307.080185 548.638438)scale(0.1 -0.1)">
       <use xlink:href="#DejaVuSans-54"/>
       <use x="63.623047" xlink:href="#DejaVuSans-48"/>
      </g>
     </g>
    </g>
    <g id="xtick_29">
     <g id="line2d_50">
      <g>
       <use style="stroke:#000000;stroke-width:0.8;" x="402.376913" xlink:href="#m616f85e458" y="534.04"/>
      </g>
     </g>
     <g id="text_48">
      <!-- 80 -->
      <g transform="translate(396.014413 548.638438)scale(0.1 -0.1)">
       <use xlink:href="#DejaVuSans-56"/>
       <use x="63.623047" xlink:href="#DejaVuSans-48"/>
      </g>
     </g>
    </g>
    <g id="xtick_30">
     <g id="line2d_51">
      <g>
       <use style="stroke:#000000;stroke-width:0.8;" x="491.311141" xlink:href="#m616f85e458" y="534.04"/>
      </g>
     </g>
     <g id="text_49">
      <!-- 100 -->
      <g transform="translate(481.767391 548.638438)scale(0.1 -0.1)">
       <use xlink:href="#DejaVuSans-49"/>
       <use x="63.623047" xlink:href="#DejaVuSans-48"/>
       <use x="127.246094" xlink:href="#DejaVuSans-48"/>
      </g>
     </g>
    </g>
    <g id="xtick_31">
     <g id="line2d_52">
      <g>
       <use style="stroke:#000000;stroke-width:0.8;" x="580.245369" xlink:href="#m616f85e458" y="534.04"/>
      </g>
     </g>
     <g id="text_50">
      <!-- 120 -->
      <g transform="translate(570.701619 548.638438)scale(0.1 -0.1)">
       <use xlink:href="#DejaVuSans-49"/>
       <use x="63.623047" xlink:href="#DejaVuSans-50"/>
       <use x="127.246094" xlink:href="#DejaVuSans-48"/>
      </g>
     </g>
    </g>
    <g id="xtick_32">
     <g id="line2d_53">
      <g>
       <use style="stroke:#000000;stroke-width:0.8;" x="669.179597" xlink:href="#m616f85e458" y="534.04"/>
      </g>
     </g>
     <g id="text_51">
      <!-- 140 -->
      <g transform="translate(659.635847 548.638438)scale(0.1 -0.1)">
       <use xlink:href="#DejaVuSans-49"/>
       <use x="63.623047" xlink:href="#DejaVuSans-52"/>
       <use x="127.246094" xlink:href="#DejaVuSans-48"/>
      </g>
     </g>
    </g>
    <g id="text_52">
     <!-- Sample Number -->
     <defs>
      <path d="M 9.8125 72.90625 
L 23.09375 72.90625 
L 55.421875 11.921875 
L 55.421875 72.90625 
L 64.984375 72.90625 
L 64.984375 0 
L 51.703125 0 
L 19.390625 60.984375 
L 19.390625 0 
L 9.8125 0 
z
" id="DejaVuSans-78"/>
      <path d="M 48.6875 27.296875 
Q 48.6875 37.203125 44.609375 42.84375 
Q 40.53125 48.484375 33.40625 48.484375 
Q 26.265625 48.484375 22.1875 42.84375 
Q 18.109375 37.203125 18.109375 27.296875 
Q 18.109375 17.390625 22.1875 11.75 
Q 26.265625 6.109375 33.40625 6.109375 
Q 40.53125 6.109375 44.609375 11.75 
Q 48.6875 17.390625 48.6875 27.296875 
z
M 18.109375 46.390625 
Q 20.953125 51.265625 25.265625 53.625 
Q 29.59375 56 35.59375 56 
Q 45.5625 56 51.78125 48.09375 
Q 58.015625 40.1875 58.015625 27.296875 
Q 58.015625 14.40625 51.78125 6.484375 
Q 45.5625 -1.421875 35.59375 -1.421875 
Q 29.59375 -1.421875 25.265625 0.953125 
Q 20.953125 3.328125 18.109375 8.203125 
L 18.109375 0 
L 9.078125 0 
L 9.078125 75.984375 
L 18.109375 75.984375 
z
" id="DejaVuSans-98"/>
     </defs>
     <g transform="translate(337.496562 562.316563)scale(0.1 -0.1)">
      <use xlink:href="#DejaVuSans-83"/>
      <use x="63.476562" xlink:href="#DejaVuSans-97"/>
      <use x="124.755859" xlink:href="#DejaVuSans-109"/>
      <use x="222.167969" xlink:href="#DejaVuSans-112"/>
      <use x="285.644531" xlink:href="#DejaVuSans-108"/>
      <use x="313.427734" xlink:href="#DejaVuSans-101"/>
      <use x="374.951172" xlink:href="#DejaVuSans-32"/>
      <use x="406.738281" xlink:href="#DejaVuSans-78"/>
      <use x="481.542969" xlink:href="#DejaVuSans-117"/>
      <use x="544.921875" xlink:href="#DejaVuSans-109"/>
      <use x="642.333984" xlink:href="#DejaVuSans-98"/>
      <use x="705.810547" xlink:href="#DejaVuSans-101"/>
      <use x="767.333984" xlink:href="#DejaVuSans-114"/>
     </g>
    </g>
   </g>
   <g id="matplotlib.axis_8">
    <g id="ytick_16">
     <g id="line2d_54">
      <g>
       <use style="stroke:#000000;stroke-width:0.8;" x="46.64" xlink:href="#meb5ab7cb90" y="525.216667"/>
      </g>
     </g>
     <g id="text_53">
      <!-- −1.0 -->
      <g transform="translate(15.357187 529.015885)scale(0.1 -0.1)">
       <use xlink:href="#DejaVuSans-8722"/>
       <use x="83.789062" xlink:href="#DejaVuSans-49"/>
       <use x="147.412109" xlink:href="#DejaVuSans-46"/>
       <use x="179.199219" xlink:href="#DejaVuSans-48"/>
      </g>
     </g>
    </g>
    <g id="ytick_17">
     <g id="line2d_55">
      <g>
       <use style="stroke:#000000;stroke-width:0.8;" x="46.64" xlink:href="#meb5ab7cb90" y="503.158333"/>
      </g>
     </g>
     <g id="text_54">
      <!-- −0.5 -->
      <g transform="translate(15.357187 506.957552)scale(0.1 -0.1)">
       <use xlink:href="#DejaVuSans-8722"/>
       <use x="83.789062" xlink:href="#DejaVuSans-48"/>
       <use x="147.412109" xlink:href="#DejaVuSans-46"/>
       <use x="179.199219" xlink:href="#DejaVuSans-53"/>
      </g>
     </g>
    </g>
    <g id="ytick_18">
     <g id="line2d_56">
      <g>
       <use style="stroke:#000000;stroke-width:0.8;" x="46.64" xlink:href="#meb5ab7cb90" y="481.1"/>
      </g>
     </g>
     <g id="text_55">
      <!-- 0.0 -->
      <g transform="translate(23.736875 484.899219)scale(0.1 -0.1)">
       <use xlink:href="#DejaVuSans-48"/>
       <use x="63.623047" xlink:href="#DejaVuSans-46"/>
       <use x="95.410156" xlink:href="#DejaVuSans-48"/>
      </g>
     </g>
    </g>
    <g id="ytick_19">
     <g id="line2d_57">
      <g>
       <use style="stroke:#000000;stroke-width:0.8;" x="46.64" xlink:href="#meb5ab7cb90" y="459.041667"/>
      </g>
     </g>
     <g id="text_56">
      <!-- 0.5 -->
      <g transform="translate(23.736875 462.840885)scale(0.1 -0.1)">
       <use xlink:href="#DejaVuSans-48"/>
       <use x="63.623047" xlink:href="#DejaVuSans-46"/>
       <use x="95.410156" xlink:href="#DejaVuSans-53"/>
      </g>
     </g>
    </g>
    <g id="ytick_20">
     <g id="line2d_58">
      <g>
       <use style="stroke:#000000;stroke-width:0.8;" x="46.64" xlink:href="#meb5ab7cb90" y="436.983333"/>
      </g>
     </g>
     <g id="text_57">
      <!-- 1.0 -->
      <g transform="translate(23.736875 440.782552)scale(0.1 -0.1)">
       <use xlink:href="#DejaVuSans-49"/>
       <use x="63.623047" xlink:href="#DejaVuSans-46"/>
       <use x="95.410156" xlink:href="#DejaVuSans-48"/>
      </g>
     </g>
    </g>
    <g id="text_58">
     <!-- 4th Order -->
     <g transform="translate(9.2775 505.209375)rotate(-90)scale(0.1 -0.1)">
      <use xlink:href="#DejaVuSans-52"/>
      <use x="63.623047" xlink:href="#DejaVuSans-116"/>
      <use x="102.832031" xlink:href="#DejaVuSans-104"/>
      <use x="166.210938" xlink:href="#DejaVuSans-32"/>
      <use x="197.998047" xlink:href="#DejaVuSans-79"/>
      <use x="276.708984" xlink:href="#DejaVuSans-114"/>
      <use x="316.072266" xlink:href="#DejaVuSans-100"/>
      <use x="379.548828" xlink:href="#DejaVuSans-101"/>
      <use x="441.072266" xlink:href="#DejaVuSans-114"/>
     </g>
    </g>
   </g>
   <g id="line2d_59">
    <path clip-path="url(#pa974b2a4a4)" d="M 46.64 481.1 
L 709.2 481.1 
L 709.2 481.1 
" style="fill:none;stroke:#ff0000;stroke-linecap:square;stroke-width:1.5;"/>
   </g>
   <g id="line2d_60">
    <path clip-path="url(#pa974b2a4a4)" d="M 46.64 436.983333 
L 46.64 525.216667 
L 55.533423 525.216667 
L 55.533423 436.983333 
L 59.980134 436.983333 
L 59.980134 525.216667 
L 64.426846 525.216667 
L 64.426846 436.983333 
L 73.320268 436.983333 
L 73.320268 525.216667 
L 77.76698 525.216667 
L 77.76698 436.983333 
L 82.213691 436.983333 
L 82.213691 525.216667 
L 91.107114 525.216667 
L 91.107114 436.983333 
L 100.000537 436.983333 
L 100.000537 525.216667 
L 108.89396 525.216667 
L 108.89396 436.983333 
L 113.340671 436.983333 
L 113.340671 525.216667 
L 117.787383 525.216667 
L 117.787383 436.983333 
L 126.680805 436.983333 
L 126.680805 525.216667 
L 131.127517 525.216667 
L 131.127517 436.983333 
L 135.574228 436.983333 
L 135.574228 525.216667 
L 144.467651 525.216667 
L 144.467651 436.983333 
L 153.361074 436.983333 
L 153.361074 525.216667 
L 162.254497 525.216667 
L 162.254497 436.983333 
L 171.147919 436.983333 
L 171.147919 525.216667 
L 180.041342 525.216667 
L 180.041342 436.983333 
L 188.934765 436.983333 
L 188.934765 525.216667 
L 197.828188 525.216667 
L 197.828188 436.983333 
L 206.721611 436.983333 
L 206.721611 525.216667 
L 215.615034 525.216667 
L 215.615034 436.983333 
L 224.508456 436.983333 
L 224.508456 525.216667 
L 233.401879 525.216667 
L 233.401879 436.983333 
L 242.295302 436.983333 
L 242.295302 525.216667 
L 251.188725 525.216667 
L 251.188725 436.983333 
L 260.082148 436.983333 
L 260.082148 525.216667 
L 264.528859 525.216667 
L 264.528859 436.983333 
L 268.97557 436.983333 
L 268.97557 525.216667 
L 277.868993 525.216667 
L 277.868993 436.983333 
L 282.315705 436.983333 
L 282.315705 525.216667 
L 286.762416 525.216667 
L 286.762416 436.983333 
L 295.655839 436.983333 
L 295.655839 525.216667 
L 300.10255 525.216667 
L 300.10255 436.983333 
L 304.549262 436.983333 
L 304.549262 525.216667 
L 313.442685 525.216667 
L 313.442685 436.983333 
L 317.889396 436.983333 
L 317.889396 525.216667 
L 322.336107 525.216667 
L 322.336107 436.983333 
L 331.22953 436.983333 
L 331.22953 525.216667 
L 335.676242 525.216667 
L 335.676242 436.983333 
L 340.122953 436.983333 
L 340.122953 525.216667 
L 349.016376 525.216667 
L 349.016376 436.983333 
L 357.909799 436.983333 
L 357.909799 525.216667 
L 366.803221 525.216667 
L 366.803221 436.983333 
L 375.696644 436.983333 
L 375.696644 525.216667 
L 384.590067 525.216667 
L 384.590067 436.983333 
L 393.48349 436.983333 
L 393.48349 525.216667 
L 402.376913 525.216667 
L 402.376913 436.983333 
L 411.270336 436.983333 
L 411.270336 525.216667 
L 415.717047 525.216667 
L 415.717047 436.983333 
L 420.163758 436.983333 
L 420.163758 525.216667 
L 429.057181 525.216667 
L 429.057181 436.983333 
L 433.503893 436.983333 
L 433.503893 525.216667 
L 437.950604 525.216667 
L 437.950604 436.983333 
L 446.844027 436.983333 
L 446.844027 525.216667 
L 451.290738 525.216667 
L 451.290738 436.983333 
L 455.73745 436.983333 
L 455.73745 525.216667 
L 464.630872 525.216667 
L 464.630872 436.983333 
L 473.524295 436.983333 
L 473.524295 525.216667 
L 482.417718 525.216667 
L 482.417718 436.983333 
L 491.311141 436.983333 
L 491.311141 525.216667 
L 500.204564 525.216667 
L 500.204564 436.983333 
L 509.097987 436.983333 
L 509.097987 525.216667 
L 517.991409 525.216667 
L 517.991409 436.983333 
L 526.884832 436.983333 
L 526.884832 525.216667 
L 531.331544 525.216667 
L 531.331544 436.983333 
L 535.778255 436.983333 
L 535.778255 525.216667 
L 544.671678 525.216667 
L 544.671678 436.983333 
L 553.565101 436.983333 
L 553.565101 525.216667 
L 562.458523 525.216667 
L 562.458523 436.983333 
L 571.351946 436.983333 
L 571.351946 525.216667 
L 580.245369 525.216667 
L 580.245369 436.983333 
L 589.138792 436.983333 
L 589.138792 525.216667 
L 598.032215 525.216667 
L 598.032215 436.983333 
L 606.925638 436.983333 
L 606.925638 525.216667 
L 611.372349 525.216667 
L 611.372349 436.983333 
L 615.81906 436.983333 
L 615.81906 525.216667 
L 624.712483 525.216667 
L 624.712483 436.983333 
L 633.605906 436.983333 
L 633.605906 525.216667 
L 642.499329 525.216667 
L 642.499329 436.983333 
L 651.392752 436.983333 
L 651.392752 525.216667 
L 660.286174 525.216667 
L 660.286174 436.983333 
L 669.179597 436.983333 
L 669.179597 525.216667 
L 673.626309 525.216667 
L 673.626309 436.983333 
L 678.07302 436.983333 
L 678.07302 525.216667 
L 686.966443 525.216667 
L 686.966443 436.983333 
L 695.859866 436.983333 
L 695.859866 525.216667 
L 704.753289 525.216667 
L 704.753289 436.983333 
L 709.2 436.983333 
L 709.2 436.983333 
" style="fill:none;stroke:#008000;stroke-linecap:square;stroke-width:1.5;"/>
   </g>
   <g id="patch_18">
    <path d="M 46.64 534.04 
L 46.64 428.16 
" style="fill:none;stroke:#000000;stroke-linecap:square;stroke-linejoin:miter;stroke-width:0.8;"/>
   </g>
   <g id="patch_19">
    <path d="M 709.2 534.04 
L 709.2 428.16 
" style="fill:none;stroke:#000000;stroke-linecap:square;stroke-linejoin:miter;stroke-width:0.8;"/>
   </g>
   <g id="patch_20">
    <path d="M 46.64 534.04 
L 709.2 534.04 
" style="fill:none;stroke:#000000;stroke-linecap:square;stroke-linejoin:miter;stroke-width:0.8;"/>
   </g>
   <g id="patch_21">
    <path d="M 46.64 428.16 
L 709.2 428.16 
" style="fill:none;stroke:#000000;stroke-linecap:square;stroke-linejoin:miter;stroke-width:0.8;"/>
   </g>
  </g>
 </g>
 <defs>
  <clipPath id="p69f95af919">
   <rect height="105.88" width="662.56" x="46.64" y="26.88"/>
  </clipPath>
  <clipPath id="pf7d4a43aab">
   <rect height="105.88" width="662.56" x="46.64" y="160.64"/>
  </clipPath>
  <clipPath id="p6497d9e8be">
   <rect height="105.88" width="662.56" x="46.64" y="294.4"/>
  </clipPath>
  <clipPath id="pa974b2a4a4">
   <rect height="105.88" width="662.56" x="46.64" y="428.16"/>
  </clipPath>
 </defs>
</svg>
