<?xml version="1.0" encoding="utf-8" standalone="no"?>
<!DOCTYPE svg PUBLIC "-//W3C//DTD SVG 1.1//EN"
  "http://www.w3.org/Graphics/SVG/1.1/DTD/svg11.dtd">
<!-- Created with matplotlib (https://matplotlib.org/) -->
<svg height="216pt" version="1.1" viewBox="0 0 720 216" width="720pt" xmlns="http://www.w3.org/2000/svg" xmlns:xlink="http://www.w3.org/1999/xlink">
 <defs>
  <style type="text/css">
*{stroke-linecap:butt;stroke-linejoin:round;}
  </style>
 </defs>
 <g id="figure_1">
  <g id="patch_1">
   <path d="M 0 216 
L 720 216 
L 720 0 
L 0 0 
z
" style="fill:#ffffff;"/>
  </g>
  <g id="axes_1">
   <g id="patch_2">
    <path d="M 42.01 174.04 
L 709.2 174.04 
L 709.2 26.88 
L 42.01 26.88 
z
" style="fill:#ffffff;"/>
   </g>
   <g id="matplotlib.axis_1">
    <g id="xtick_1">
     <g id="line2d_1">
      <defs>
       <path d="M 0 0 
L 0 3.5 
" id="md5a863e61e" style="stroke:#000000;stroke-width:0.8;"/>
      </defs>
      <g>
       <use style="stroke:#000000;stroke-width:0.8;" x="42.01" xlink:href="#md5a863e61e" y="174.04"/>
      </g>
     </g>
     <g id="text_1">
      <!-- 0 -->
      <defs>
       <path d="M 31.78125 66.40625 
Q 24.171875 66.40625 20.328125 58.90625 
Q 16.5 51.421875 16.5 36.375 
Q 16.5 21.390625 20.328125 13.890625 
Q 24.171875 6.390625 31.78125 6.390625 
Q 39.453125 6.390625 43.28125 13.890625 
Q 47.125 21.390625 47.125 36.375 
Q 47.125 51.421875 43.28125 58.90625 
Q 39.453125 66.40625 31.78125 66.40625 
z
M 31.78125 74.21875 
Q 44.046875 74.21875 50.515625 64.515625 
Q 56.984375 54.828125 56.984375 36.375 
Q 56.984375 17.96875 50.515625 8.265625 
Q 44.046875 -1.421875 31.78125 -1.421875 
Q 19.53125 -1.421875 13.0625 8.265625 
Q 6.59375 17.96875 6.59375 36.375 
Q 6.59375 54.828125 13.0625 64.515625 
Q 19.53125 74.21875 31.78125 74.21875 
z
" id="DejaVuSans-48"/>
      </defs>
      <g transform="translate(38.82875 188.638438)scale(0.1 -0.1)">
       <use xlink:href="#DejaVuSans-48"/>
      </g>
     </g>
    </g>
    <g id="xtick_2">
     <g id="line2d_2">
      <g>
       <use style="stroke:#000000;stroke-width:0.8;" x="131.565705" xlink:href="#md5a863e61e" y="174.04"/>
      </g>
     </g>
     <g id="text_2">
      <!-- 20 -->
      <defs>
       <path d="M 19.1875 8.296875 
L 53.609375 8.296875 
L 53.609375 0 
L 7.328125 0 
L 7.328125 8.296875 
Q 12.9375 14.109375 22.625 23.890625 
Q 32.328125 33.6875 34.8125 36.53125 
Q 39.546875 41.84375 41.421875 45.53125 
Q 43.3125 49.21875 43.3125 52.78125 
Q 43.3125 58.59375 39.234375 62.25 
Q 35.15625 65.921875 28.609375 65.921875 
Q 23.96875 65.921875 18.8125 64.3125 
Q 13.671875 62.703125 7.8125 59.421875 
L 7.8125 69.390625 
Q 13.765625 71.78125 18.9375 73 
Q 24.125 74.21875 28.421875 74.21875 
Q 39.75 74.21875 46.484375 68.546875 
Q 53.21875 62.890625 53.21875 53.421875 
Q 53.21875 48.921875 51.53125 44.890625 
Q 49.859375 40.875 45.40625 35.40625 
Q 44.1875 33.984375 37.640625 27.21875 
Q 31.109375 20.453125 19.1875 8.296875 
z
" id="DejaVuSans-50"/>
      </defs>
      <g transform="translate(125.203205 188.638438)scale(0.1 -0.1)">
       <use xlink:href="#DejaVuSans-50"/>
       <use x="63.623047" xlink:href="#DejaVuSans-48"/>
      </g>
     </g>
    </g>
    <g id="xtick_3">
     <g id="line2d_3">
      <g>
       <use style="stroke:#000000;stroke-width:0.8;" x="221.121409" xlink:href="#md5a863e61e" y="174.04"/>
      </g>
     </g>
     <g id="text_3">
      <!-- 40 -->
      <defs>
       <path d="M 37.796875 64.3125 
L 12.890625 25.390625 
L 37.796875 25.390625 
z
M 35.203125 72.90625 
L 47.609375 72.90625 
L 47.609375 25.390625 
L 58.015625 25.390625 
L 58.015625 17.1875 
L 47.609375 17.1875 
L 47.609375 0 
L 37.796875 0 
L 37.796875 17.1875 
L 4.890625 17.1875 
L 4.890625 26.703125 
z
" id="DejaVuSans-52"/>
      </defs>
      <g transform="translate(214.758909 188.638438)scale(0.1 -0.1)">
       <use xlink:href="#DejaVuSans-52"/>
       <use x="63.623047" xlink:href="#DejaVuSans-48"/>
      </g>
     </g>
    </g>
    <g id="xtick_4">
     <g id="line2d_4">
      <g>
       <use style="stroke:#000000;stroke-width:0.8;" x="310.677114" xlink:href="#md5a863e61e" y="174.04"/>
      </g>
     </g>
     <g id="text_4">
      <!-- 60 -->
      <defs>
       <path d="M 33.015625 40.375 
Q 26.375 40.375 22.484375 35.828125 
Q 18.609375 31.296875 18.609375 23.390625 
Q 18.609375 15.53125 22.484375 10.953125 
Q 26.375 6.390625 33.015625 6.390625 
Q 39.65625 6.390625 43.53125 10.953125 
Q 47.40625 15.53125 47.40625 23.390625 
Q 47.40625 31.296875 43.53125 35.828125 
Q 39.65625 40.375 33.015625 40.375 
z
M 52.59375 71.296875 
L 52.59375 62.3125 
Q 48.875 64.0625 45.09375 64.984375 
Q 41.3125 65.921875 37.59375 65.921875 
Q 27.828125 65.921875 22.671875 59.328125 
Q 17.53125 52.734375 16.796875 39.40625 
Q 19.671875 43.65625 24.015625 45.921875 
Q 28.375 48.1875 33.59375 48.1875 
Q 44.578125 48.1875 50.953125 41.515625 
Q 57.328125 34.859375 57.328125 23.390625 
Q 57.328125 12.15625 50.6875 5.359375 
Q 44.046875 -1.421875 33.015625 -1.421875 
Q 20.359375 -1.421875 13.671875 8.265625 
Q 6.984375 17.96875 6.984375 36.375 
Q 6.984375 53.65625 15.1875 63.9375 
Q 23.390625 74.21875 37.203125 74.21875 
Q 40.921875 74.21875 44.703125 73.484375 
Q 48.484375 72.75 52.59375 71.296875 
z
" id="DejaVuSans-54"/>
      </defs>
      <g transform="translate(304.314614 188.638438)scale(0.1 -0.1)">
       <use xlink:href="#DejaVuSans-54"/>
       <use x="63.623047" xlink:href="#DejaVuSans-48"/>
      </g>
     </g>
    </g>
    <g id="xtick_5">
     <g id="line2d_5">
      <g>
       <use style="stroke:#000000;stroke-width:0.8;" x="400.232819" xlink:href="#md5a863e61e" y="174.04"/>
      </g>
     </g>
     <g id="text_5">
      <!-- 80 -->
      <defs>
       <path d="M 31.78125 34.625 
Q 24.75 34.625 20.71875 30.859375 
Q 16.703125 27.09375 16.703125 20.515625 
Q 16.703125 13.921875 20.71875 10.15625 
Q 24.75 6.390625 31.78125 6.390625 
Q 38.8125 6.390625 42.859375 10.171875 
Q 46.921875 13.96875 46.921875 20.515625 
Q 46.921875 27.09375 42.890625 30.859375 
Q 38.875 34.625 31.78125 34.625 
z
M 21.921875 38.8125 
Q 15.578125 40.375 12.03125 44.71875 
Q 8.5 49.078125 8.5 55.328125 
Q 8.5 64.0625 14.71875 69.140625 
Q 20.953125 74.21875 31.78125 74.21875 
Q 42.671875 74.21875 48.875 69.140625 
Q 55.078125 64.0625 55.078125 55.328125 
Q 55.078125 49.078125 51.53125 44.71875 
Q 48 40.375 41.703125 38.8125 
Q 48.828125 37.15625 52.796875 32.3125 
Q 56.78125 27.484375 56.78125 20.515625 
Q 56.78125 9.90625 50.3125 4.234375 
Q 43.84375 -1.421875 31.78125 -1.421875 
Q 19.734375 -1.421875 13.25 4.234375 
Q 6.78125 9.90625 6.78125 20.515625 
Q 6.78125 27.484375 10.78125 32.3125 
Q 14.796875 37.15625 21.921875 38.8125 
z
M 18.3125 54.390625 
Q 18.3125 48.734375 21.84375 45.5625 
Q 25.390625 42.390625 31.78125 42.390625 
Q 38.140625 42.390625 41.71875 45.5625 
Q 45.3125 48.734375 45.3125 54.390625 
Q 45.3125 60.0625 41.71875 63.234375 
Q 38.140625 66.40625 31.78125 66.40625 
Q 25.390625 66.40625 21.84375 63.234375 
Q 18.3125 60.0625 18.3125 54.390625 
z
" id="DejaVuSans-56"/>
      </defs>
      <g transform="translate(393.870319 188.638438)scale(0.1 -0.1)">
       <use xlink:href="#DejaVuSans-56"/>
       <use x="63.623047" xlink:href="#DejaVuSans-48"/>
      </g>
     </g>
    </g>
    <g id="xtick_6">
     <g id="line2d_6">
      <g>
       <use style="stroke:#000000;stroke-width:0.8;" x="489.788523" xlink:href="#md5a863e61e" y="174.04"/>
      </g>
     </g>
     <g id="text_6">
      <!-- 100 -->
      <defs>
       <path d="M 12.40625 8.296875 
L 28.515625 8.296875 
L 28.515625 63.921875 
L 10.984375 60.40625 
L 10.984375 69.390625 
L 28.421875 72.90625 
L 38.28125 72.90625 
L 38.28125 8.296875 
L 54.390625 8.296875 
L 54.390625 0 
L 12.40625 0 
z
" id="DejaVuSans-49"/>
      </defs>
      <g transform="translate(480.244773 188.638438)scale(0.1 -0.1)">
       <use xlink:href="#DejaVuSans-49"/>
       <use x="63.623047" xlink:href="#DejaVuSans-48"/>
       <use x="127.246094" xlink:href="#DejaVuSans-48"/>
      </g>
     </g>
    </g>
    <g id="xtick_7">
     <g id="line2d_7">
      <g>
       <use style="stroke:#000000;stroke-width:0.8;" x="579.344228" xlink:href="#md5a863e61e" y="174.04"/>
      </g>
     </g>
     <g id="text_7">
      <!-- 120 -->
      <g transform="translate(569.800478 188.638438)scale(0.1 -0.1)">
       <use xlink:href="#DejaVuSans-49"/>
       <use x="63.623047" xlink:href="#DejaVuSans-50"/>
       <use x="127.246094" xlink:href="#DejaVuSans-48"/>
      </g>
     </g>
    </g>
    <g id="xtick_8">
     <g id="line2d_8">
      <g>
       <use style="stroke:#000000;stroke-width:0.8;" x="668.899933" xlink:href="#md5a863e61e" y="174.04"/>
      </g>
     </g>
     <g id="text_8">
      <!-- 140 -->
      <g transform="translate(659.356183 188.638438)scale(0.1 -0.1)">
       <use xlink:href="#DejaVuSans-49"/>
       <use x="63.623047" xlink:href="#DejaVuSans-52"/>
       <use x="127.246094" xlink:href="#DejaVuSans-48"/>
      </g>
     </g>
    </g>
    <g id="text_9">
     <!-- Sample Number -->
     <defs>
      <path d="M 53.515625 70.515625 
L 53.515625 60.890625 
Q 47.90625 63.578125 42.921875 64.890625 
Q 37.9375 66.21875 33.296875 66.21875 
Q 25.25 66.21875 20.875 63.09375 
Q 16.5 59.96875 16.5 54.203125 
Q 16.5 49.359375 19.40625 46.890625 
Q 22.3125 44.4375 30.421875 42.921875 
L 36.375 41.703125 
Q 47.40625 39.59375 52.65625 34.296875 
Q 57.90625 29 57.90625 20.125 
Q 57.90625 9.515625 50.796875 4.046875 
Q 43.703125 -1.421875 29.984375 -1.421875 
Q 24.8125 -1.421875 18.96875 -0.25 
Q 13.140625 0.921875 6.890625 3.21875 
L 6.890625 13.375 
Q 12.890625 10.015625 18.65625 8.296875 
Q 24.421875 6.59375 29.984375 6.59375 
Q 38.421875 6.59375 43.015625 9.90625 
Q 47.609375 13.234375 47.609375 19.390625 
Q 47.609375 24.75 44.3125 27.78125 
Q 41.015625 30.8125 33.5 32.328125 
L 27.484375 33.5 
Q 16.453125 35.6875 11.515625 40.375 
Q 6.59375 45.0625 6.59375 53.421875 
Q 6.59375 63.09375 13.40625 68.65625 
Q 20.21875 74.21875 32.171875 74.21875 
Q 37.3125 74.21875 42.625 73.28125 
Q 47.953125 72.359375 53.515625 70.515625 
z
" id="DejaVuSans-83"/>
      <path d="M 34.28125 27.484375 
Q 23.390625 27.484375 19.1875 25 
Q 14.984375 22.515625 14.984375 16.5 
Q 14.984375 11.71875 18.140625 8.90625 
Q 21.296875 6.109375 26.703125 6.109375 
Q 34.1875 6.109375 38.703125 11.40625 
Q 43.21875 16.703125 43.21875 25.484375 
L 43.21875 27.484375 
z
M 52.203125 31.203125 
L 52.203125 0 
L 43.21875 0 
L 43.21875 8.296875 
Q 40.140625 3.328125 35.546875 0.953125 
Q 30.953125 -1.421875 24.3125 -1.421875 
Q 15.921875 -1.421875 10.953125 3.296875 
Q 6 8.015625 6 15.921875 
Q 6 25.140625 12.171875 29.828125 
Q 18.359375 34.515625 30.609375 34.515625 
L 43.21875 34.515625 
L 43.21875 35.40625 
Q 43.21875 41.609375 39.140625 45 
Q 35.0625 48.390625 27.6875 48.390625 
Q 23 48.390625 18.546875 47.265625 
Q 14.109375 46.140625 10.015625 43.890625 
L 10.015625 52.203125 
Q 14.9375 54.109375 19.578125 55.046875 
Q 24.21875 56 28.609375 56 
Q 40.484375 56 46.34375 49.84375 
Q 52.203125 43.703125 52.203125 31.203125 
z
" id="DejaVuSans-97"/>
      <path d="M 52 44.1875 
Q 55.375 50.25 60.0625 53.125 
Q 64.75 56 71.09375 56 
Q 79.640625 56 84.28125 50.015625 
Q 88.921875 44.046875 88.921875 33.015625 
L 88.921875 0 
L 79.890625 0 
L 79.890625 32.71875 
Q 79.890625 40.578125 77.09375 44.375 
Q 74.3125 48.1875 68.609375 48.1875 
Q 61.625 48.1875 57.5625 43.546875 
Q 53.515625 38.921875 53.515625 30.90625 
L 53.515625 0 
L 44.484375 0 
L 44.484375 32.71875 
Q 44.484375 40.625 41.703125 44.40625 
Q 38.921875 48.1875 33.109375 48.1875 
Q 26.21875 48.1875 22.15625 43.53125 
Q 18.109375 38.875 18.109375 30.90625 
L 18.109375 0 
L 9.078125 0 
L 9.078125 54.6875 
L 18.109375 54.6875 
L 18.109375 46.1875 
Q 21.1875 51.21875 25.484375 53.609375 
Q 29.78125 56 35.6875 56 
Q 41.65625 56 45.828125 52.96875 
Q 50 49.953125 52 44.1875 
z
" id="DejaVuSans-109"/>
      <path d="M 18.109375 8.203125 
L 18.109375 -20.796875 
L 9.078125 -20.796875 
L 9.078125 54.6875 
L 18.109375 54.6875 
L 18.109375 46.390625 
Q 20.953125 51.265625 25.265625 53.625 
Q 29.59375 56 35.59375 56 
Q 45.5625 56 51.78125 48.09375 
Q 58.015625 40.1875 58.015625 27.296875 
Q 58.015625 14.40625 51.78125 6.484375 
Q 45.5625 -1.421875 35.59375 -1.421875 
Q 29.59375 -1.421875 25.265625 0.953125 
Q 20.953125 3.328125 18.109375 8.203125 
z
M 48.6875 27.296875 
Q 48.6875 37.203125 44.609375 42.84375 
Q 40.53125 48.484375 33.40625 48.484375 
Q 26.265625 48.484375 22.1875 42.84375 
Q 18.109375 37.203125 18.109375 27.296875 
Q 18.109375 17.390625 22.1875 11.75 
Q 26.265625 6.109375 33.40625 6.109375 
Q 40.53125 6.109375 44.609375 11.75 
Q 48.6875 17.390625 48.6875 27.296875 
z
" id="DejaVuSans-112"/>
      <path d="M 9.421875 75.984375 
L 18.40625 75.984375 
L 18.40625 0 
L 9.421875 0 
z
" id="DejaVuSans-108"/>
      <path d="M 56.203125 29.59375 
L 56.203125 25.203125 
L 14.890625 25.203125 
Q 15.484375 15.921875 20.484375 11.0625 
Q 25.484375 6.203125 34.421875 6.203125 
Q 39.59375 6.203125 44.453125 7.46875 
Q 49.3125 8.734375 54.109375 11.28125 
L 54.109375 2.78125 
Q 49.265625 0.734375 44.1875 -0.34375 
Q 39.109375 -1.421875 33.890625 -1.421875 
Q 20.796875 -1.421875 13.15625 6.1875 
Q 5.515625 13.8125 5.515625 26.8125 
Q 5.515625 40.234375 12.765625 48.109375 
Q 20.015625 56 32.328125 56 
Q 43.359375 56 49.78125 48.890625 
Q 56.203125 41.796875 56.203125 29.59375 
z
M 47.21875 32.234375 
Q 47.125 39.59375 43.09375 43.984375 
Q 39.0625 48.390625 32.421875 48.390625 
Q 24.90625 48.390625 20.390625 44.140625 
Q 15.875 39.890625 15.1875 32.171875 
z
" id="DejaVuSans-101"/>
      <path id="DejaVuSans-32"/>
      <path d="M 9.8125 72.90625 
L 23.09375 72.90625 
L 55.421875 11.921875 
L 55.421875 72.90625 
L 64.984375 72.90625 
L 64.984375 0 
L 51.703125 0 
L 19.390625 60.984375 
L 19.390625 0 
L 9.8125 0 
z
" id="DejaVuSans-78"/>
      <path d="M 8.5 21.578125 
L 8.5 54.6875 
L 17.484375 54.6875 
L 17.484375 21.921875 
Q 17.484375 14.15625 20.5 10.265625 
Q 23.53125 6.390625 29.59375 6.390625 
Q 36.859375 6.390625 41.078125 11.03125 
Q 45.3125 15.671875 45.3125 23.6875 
L 45.3125 54.6875 
L 54.296875 54.6875 
L 54.296875 0 
L 45.3125 0 
L 45.3125 8.40625 
Q 42.046875 3.421875 37.71875 1 
Q 33.40625 -1.421875 27.6875 -1.421875 
Q 18.265625 -1.421875 13.375 4.4375 
Q 8.5 10.296875 8.5 21.578125 
z
M 31.109375 56 
z
" id="DejaVuSans-117"/>
      <path d="M 48.6875 27.296875 
Q 48.6875 37.203125 44.609375 42.84375 
Q 40.53125 48.484375 33.40625 48.484375 
Q 26.265625 48.484375 22.1875 42.84375 
Q 18.109375 37.203125 18.109375 27.296875 
Q 18.109375 17.390625 22.1875 11.75 
Q 26.265625 6.109375 33.40625 6.109375 
Q 40.53125 6.109375 44.609375 11.75 
Q 48.6875 17.390625 48.6875 27.296875 
z
M 18.109375 46.390625 
Q 20.953125 51.265625 25.265625 53.625 
Q 29.59375 56 35.59375 56 
Q 45.5625 56 51.78125 48.09375 
Q 58.015625 40.1875 58.015625 27.296875 
Q 58.015625 14.40625 51.78125 6.484375 
Q 45.5625 -1.421875 35.59375 -1.421875 
Q 29.59375 -1.421875 25.265625 0.953125 
Q 20.953125 3.328125 18.109375 8.203125 
L 18.109375 0 
L 9.078125 0 
L 9.078125 75.984375 
L 18.109375 75.984375 
z
" id="DejaVuSans-98"/>
      <path d="M 41.109375 46.296875 
Q 39.59375 47.171875 37.8125 47.578125 
Q 36.03125 48 33.890625 48 
Q 26.265625 48 22.1875 43.046875 
Q 18.109375 38.09375 18.109375 28.8125 
L 18.109375 0 
L 9.078125 0 
L 9.078125 54.6875 
L 18.109375 54.6875 
L 18.109375 46.1875 
Q 20.953125 51.171875 25.484375 53.578125 
Q 30.03125 56 36.53125 56 
Q 37.453125 56 38.578125 55.875 
Q 39.703125 55.765625 41.0625 55.515625 
z
" id="DejaVuSans-114"/>
     </defs>
     <g transform="translate(335.181563 202.316563)scale(0.1 -0.1)">
      <use xlink:href="#DejaVuSans-83"/>
      <use x="63.476562" xlink:href="#DejaVuSans-97"/>
      <use x="124.755859" xlink:href="#DejaVuSans-109"/>
      <use x="222.167969" xlink:href="#DejaVuSans-112"/>
      <use x="285.644531" xlink:href="#DejaVuSans-108"/>
      <use x="313.427734" xlink:href="#DejaVuSans-101"/>
      <use x="374.951172" xlink:href="#DejaVuSans-32"/>
      <use x="406.738281" xlink:href="#DejaVuSans-78"/>
      <use x="481.542969" xlink:href="#DejaVuSans-117"/>
      <use x="544.921875" xlink:href="#DejaVuSans-109"/>
      <use x="642.333984" xlink:href="#DejaVuSans-98"/>
      <use x="705.810547" xlink:href="#DejaVuSans-101"/>
      <use x="767.333984" xlink:href="#DejaVuSans-114"/>
     </g>
    </g>
   </g>
   <g id="matplotlib.axis_2">
    <g id="ytick_1">
     <g id="line2d_9">
      <defs>
       <path d="M 0 0 
L -3.5 0 
" id="mcaf491a1b7" style="stroke:#000000;stroke-width:0.8;"/>
      </defs>
      <g>
       <use style="stroke:#000000;stroke-width:0.8;" x="42.01" xlink:href="#mcaf491a1b7" y="161.776667"/>
      </g>
     </g>
     <g id="text_10">
      <!-- −1.0 -->
      <defs>
       <path d="M 10.59375 35.5 
L 73.1875 35.5 
L 73.1875 27.203125 
L 10.59375 27.203125 
z
" id="DejaVuSans-8722"/>
       <path d="M 10.6875 12.40625 
L 21 12.40625 
L 21 0 
L 10.6875 0 
z
" id="DejaVuSans-46"/>
      </defs>
      <g transform="translate(10.727188 165.575885)scale(0.1 -0.1)">
       <use xlink:href="#DejaVuSans-8722"/>
       <use x="83.789062" xlink:href="#DejaVuSans-49"/>
       <use x="147.412109" xlink:href="#DejaVuSans-46"/>
       <use x="179.199219" xlink:href="#DejaVuSans-48"/>
      </g>
     </g>
    </g>
    <g id="ytick_2">
     <g id="line2d_10">
      <g>
       <use style="stroke:#000000;stroke-width:0.8;" x="42.01" xlink:href="#mcaf491a1b7" y="131.118333"/>
      </g>
     </g>
     <g id="text_11">
      <!-- −0.5 -->
      <defs>
       <path d="M 10.796875 72.90625 
L 49.515625 72.90625 
L 49.515625 64.59375 
L 19.828125 64.59375 
L 19.828125 46.734375 
Q 21.96875 47.46875 24.109375 47.828125 
Q 26.265625 48.1875 28.421875 48.1875 
Q 40.625 48.1875 47.75 41.5 
Q 54.890625 34.8125 54.890625 23.390625 
Q 54.890625 11.625 47.5625 5.09375 
Q 40.234375 -1.421875 26.90625 -1.421875 
Q 22.3125 -1.421875 17.546875 -0.640625 
Q 12.796875 0.140625 7.71875 1.703125 
L 7.71875 11.625 
Q 12.109375 9.234375 16.796875 8.0625 
Q 21.484375 6.890625 26.703125 6.890625 
Q 35.15625 6.890625 40.078125 11.328125 
Q 45.015625 15.765625 45.015625 23.390625 
Q 45.015625 31 40.078125 35.4375 
Q 35.15625 39.890625 26.703125 39.890625 
Q 22.75 39.890625 18.8125 39.015625 
Q 14.890625 38.140625 10.796875 36.28125 
z
" id="DejaVuSans-53"/>
      </defs>
      <g transform="translate(10.727188 134.917552)scale(0.1 -0.1)">
       <use xlink:href="#DejaVuSans-8722"/>
       <use x="83.789062" xlink:href="#DejaVuSans-48"/>
       <use x="147.412109" xlink:href="#DejaVuSans-46"/>
       <use x="179.199219" xlink:href="#DejaVuSans-53"/>
      </g>
     </g>
    </g>
    <g id="ytick_3">
     <g id="line2d_11">
      <g>
       <use style="stroke:#000000;stroke-width:0.8;" x="42.01" xlink:href="#mcaf491a1b7" y="100.46"/>
      </g>
     </g>
     <g id="text_12">
      <!-- 0.0 -->
      <g transform="translate(19.106875 104.259219)scale(0.1 -0.1)">
       <use xlink:href="#DejaVuSans-48"/>
       <use x="63.623047" xlink:href="#DejaVuSans-46"/>
       <use x="95.410156" xlink:href="#DejaVuSans-48"/>
      </g>
     </g>
    </g>
    <g id="ytick_4">
     <g id="line2d_12">
      <g>
       <use style="stroke:#000000;stroke-width:0.8;" x="42.01" xlink:href="#mcaf491a1b7" y="69.801667"/>
      </g>
     </g>
     <g id="text_13">
      <!-- 0.5 -->
      <g transform="translate(19.106875 73.600885)scale(0.1 -0.1)">
       <use xlink:href="#DejaVuSans-48"/>
       <use x="63.623047" xlink:href="#DejaVuSans-46"/>
       <use x="95.410156" xlink:href="#DejaVuSans-53"/>
      </g>
     </g>
    </g>
    <g id="ytick_5">
     <g id="line2d_13">
      <g>
       <use style="stroke:#000000;stroke-width:0.8;" x="42.01" xlink:href="#mcaf491a1b7" y="39.143333"/>
      </g>
     </g>
     <g id="text_14">
      <!-- 1.0 -->
      <g transform="translate(19.106875 42.942552)scale(0.1 -0.1)">
       <use xlink:href="#DejaVuSans-49"/>
       <use x="63.623047" xlink:href="#DejaVuSans-46"/>
       <use x="95.410156" xlink:href="#DejaVuSans-48"/>
      </g>
     </g>
    </g>
   </g>
   <g id="line2d_14">
    <path clip-path="url(#p64777cfdef)" d="M 42.01 100.46 
L 42.01 96.473827 
L 46.487785 96.473827 
L 46.487785 92.555328 
L 50.96557 92.555328 
L 50.96557 88.771027 
L 55.443356 88.771027 
L 55.443356 85.18517 
L 59.921141 85.18517 
L 59.921141 81.858635 
L 64.398926 81.858635 
L 64.398926 78.847896 
L 68.876711 78.847896 
L 68.876711 76.204067 
L 73.354497 76.204067 
L 73.354497 73.972032 
L 77.832282 73.972032 
L 77.832282 72.189685 
L 82.310067 72.189685 
L 82.310067 70.887285 
L 86.787852 70.887285 
L 86.787852 70.086942 
L 91.265638 70.086942 
L 91.265638 69.802244 
L 95.743423 69.802244 
L 95.743423 70.038024 
L 100.221208 70.038024 
L 100.221208 70.79028 
L 104.698993 70.79028 
L 104.698993 72.046241 
L 109.176779 72.046241 
L 109.176779 73.784583 
L 113.654564 73.784583 
L 113.654564 75.975795 
L 118.132349 75.975795 
L 118.132349 78.582677 
L 122.610134 78.582677 
L 122.610134 81.560972 
L 127.087919 81.560972 
L 127.087919 84.860116 
L 131.565705 84.860116 
L 131.565705 88.4241 
L 136.04349 88.4241 
L 136.04349 92.192419 
L 140.521275 92.192419 
L 140.521275 96.101096 
L 144.99906 96.101096 
L 144.99906 100.083775 
L 149.476846 100.083775 
L 149.476846 104.072841 
L 153.954631 104.072841 
L 153.954631 108.000572 
L 158.432416 108.000572 
L 158.432416 111.800286 
L 162.910201 111.800286 
L 162.910201 115.407475 
L 167.387987 115.407475 
L 167.387987 118.760901 
L 171.865772 118.760901 
L 171.865772 121.803631 
L 176.343557 121.803631 
L 176.343557 124.484009 
L 180.821342 124.484009 
L 180.821342 126.75653 
L 185.299128 126.75653 
L 185.299128 128.582613 
L 189.776913 128.582613 
L 189.776913 129.931258 
L 194.254698 129.931258 
L 194.254698 130.779567 
L 198.732483 130.779567 
L 198.732483 131.113139 
L 203.210268 131.113139 
L 203.210268 130.926312 
L 207.688054 130.926312 
L 207.688054 130.222256 
L 212.165839 130.222256 
L 212.165839 129.012925 
L 216.643624 129.012925 
L 216.643624 127.318849 
L 221.121409 127.318849 
L 221.121409 125.168789 
L 225.599195 125.168789 
L 225.599195 122.599247 
L 230.07698 122.599247 
L 230.07698 119.653845 
L 234.554765 119.653845 
L 234.554765 116.382589 
L 239.03255 116.382589 
L 239.03255 112.841014 
L 243.510336 112.841014 
L 243.510336 109.089246 
L 247.988121 109.089246 
L 247.988121 105.190979 
L 252.465906 105.190979 
L 252.465906 101.212393 
L 256.943691 101.212393 
L 256.943691 97.221034 
L 261.421477 97.221034 
L 261.421477 93.284664 
L 265.899262 93.284664 
L 265.899262 89.470109 
L 270.377047 89.470109 
L 270.377047 85.84213 
L 274.854832 85.84213 
L 274.854832 82.46232 
L 279.332617 82.46232 
L 279.332617 79.388057 
L 283.810403 79.388057 
L 283.810403 76.671534 
L 288.288188 76.671534 
L 288.288188 74.358869 
L 292.765973 74.358869 
L 292.765973 72.489324 
L 297.243758 72.489324 
L 297.243758 71.094639 
L 301.721544 71.094639 
L 301.721544 70.198491 
L 306.199329 70.198491 
L 306.199329 69.816094 
L 310.677114 69.816094 
L 310.677114 69.95394 
L 315.154899 69.95394 
L 315.154899 70.60969 
L 319.632685 70.60969 
L 319.632685 71.77221 
L 324.11047 71.77221 
L 324.11047 73.421764 
L 328.588255 73.421764 
L 328.588255 75.530347 
L 333.06604 75.530347 
L 333.06604 78.062163 
L 337.543826 78.062163 
L 337.543826 80.974228 
L 342.021611 80.974228 
L 342.021611 84.217104 
L 346.499396 84.217104 
L 346.499396 87.735736 
L 350.977181 87.735736 
L 350.977181 91.470389 
L 355.454966 91.470389 
L 355.454966 95.357659 
L 359.932752 95.357659 
L 359.932752 99.331552 
L 364.410537 99.331552 
L 364.410537 103.324602 
L 368.888322 103.324602 
L 368.888322 107.26902 
L 373.366107 107.26902 
L 373.366107 111.097841 
L 377.843893 111.097841 
L 377.843893 114.746063 
L 382.321678 114.746063 
L 382.321678 118.151749 
L 386.799463 118.151749 
L 386.799463 121.257082 
L 391.277248 121.257082 
L 391.277248 124.009341 
L 395.755034 124.009341 
L 395.755034 126.361802 
L 400.232819 126.361802 
L 400.232819 128.274527 
L 404.710604 128.274527 
L 404.710604 129.715043 
L 409.188389 129.715043 
L 409.188389 130.658895 
L 413.666174 130.658895 
L 413.666174 131.090058 
L 422.621745 131.001213 
L 422.621745 130.393869 
L 427.09953 130.393869 
L 427.09953 129.278335 
L 431.577315 129.278335 
L 431.577315 127.673551 
L 436.055101 127.673551 
L 436.055101 125.606762 
L 440.532886 125.606762 
L 440.532886 123.113054 
L 445.010671 123.113054 
L 445.010671 120.234764 
L 449.488456 120.234764 
L 449.488456 117.020757 
L 453.966242 117.020757 
L 453.966242 113.525597 
L 458.444027 113.525597 
L 458.444027 109.808622 
L 462.921812 109.808622 
L 462.921812 105.932935 
L 467.399597 105.932935 
L 467.399597 101.964333 
L 471.877383 101.964333 
L 471.877383 97.970192 
L 476.355168 97.970192 
L 476.355168 94.018321 
L 480.832953 94.018321 
L 480.832953 90.175811 
L 485.310738 90.175811 
L 485.310738 86.507896 
L 489.788523 86.507896 
L 489.788523 83.076846 
L 494.266309 83.076846 
L 494.266309 79.940911 
L 498.744094 79.940911 
L 498.744094 77.15333 
L 503.221879 77.15333 
L 503.221879 74.761428 
L 507.699664 74.761428 
L 507.699664 72.805811 
L 512.17745 72.805811 
L 512.17745 71.319681 
L 516.655235 71.319681 
L 516.655235 70.328268 
L 521.13302 70.328268 
L 521.13302 69.848403 
L 530.088591 69.888232 
L 530.088591 70.447081 
L 534.566376 70.447081 
L 534.566376 71.51546 
L 539.044161 71.51546 
L 539.044161 73.075232 
L 543.521946 73.075232 
L 543.521946 75.099916 
L 547.999732 75.099916 
L 547.999732 77.555141 
L 552.477517 77.555141 
L 552.477517 80.399222 
L 556.955302 80.399222 
L 556.955302 83.583876 
L 561.433087 83.583876 
L 561.433087 87.055037 
L 565.910872 87.055037 
L 565.910872 90.753775 
L 570.388658 90.753775 
L 570.388658 94.617296 
L 574.866443 94.617296 
L 574.866443 98.580008 
L 579.344228 98.580008 
L 579.344228 102.574638 
L 583.822013 102.574638 
L 583.822013 106.533367 
L 588.299799 106.533367 
L 588.299799 110.388988 
L 592.777584 110.388988 
L 592.777584 114.076045 
L 597.255369 114.076045 
L 597.255369 117.531941 
L 601.733154 117.531941 
L 601.733154 120.698006 
L 606.21094 120.698006 
L 606.21094 123.520489 
L 610.688725 123.520489 
L 610.688725 125.951473 
L 615.16651 125.951473 
L 615.16651 127.949686 
L 619.644295 127.949686 
L 619.644295 129.481206 
L 624.122081 129.481206 
L 624.122081 130.520032 
L 628.599866 130.520032 
L 628.599866 131.048526 
L 637.555436 131.057718 
L 637.555436 130.54745 
L 642.033221 130.54745 
L 642.033221 129.526387 
L 646.511007 129.526387 
L 646.511007 128.011861 
L 650.988792 128.011861 
L 650.988792 126.029587 
L 655.466577 126.029587 
L 655.466577 123.613216 
L 659.944362 123.613216 
L 659.944362 120.803771 
L 664.422148 120.803771 
L 664.422148 117.648949 
L 668.899933 117.648949 
L 668.899933 114.20231 
L 673.377718 114.20231 
L 673.377718 110.522367 
L 677.855503 110.522367 
L 677.855503 106.671594 
L 682.333289 106.671594 
L 682.333289 102.715367 
L 686.811074 102.715367 
L 686.811074 98.72085 
L 691.288859 98.72085 
L 691.288859 94.755859 
L 695.766644 94.755859 
L 695.766644 90.887708 
L 700.24443 90.887708 
L 700.24443 87.182065 
L 704.722215 87.182065 
L 704.722215 83.701843 
L 709.2 83.701843 
L 709.2 83.701843 
" style="fill:none;stroke:#ff0000;stroke-linecap:square;stroke-width:1.5;"/>
   </g>
   <g id="line2d_15">
    <path clip-path="url(#p64777cfdef)" d="M 42.01 39.143333 
L 42.01 161.776667 
L 46.487785 161.776667 
L 46.487785 39.143333 
L 50.96557 39.143333 
L 50.96557 161.776667 
L 55.443356 161.776667 
L 55.443356 39.143333 
L 64.398926 39.143333 
L 64.398926 161.776667 
L 68.876711 161.776667 
L 68.876711 39.143333 
L 77.832282 39.143333 
L 77.832282 161.776667 
L 82.310067 161.776667 
L 82.310067 39.143333 
L 95.743423 39.143333 
L 95.743423 161.776667 
L 100.221208 161.776667 
L 100.221208 39.143333 
L 113.654564 39.143333 
L 113.654564 161.776667 
L 118.132349 161.776667 
L 118.132349 39.143333 
L 127.087919 39.143333 
L 127.087919 161.776667 
L 131.565705 161.776667 
L 131.565705 39.143333 
L 136.04349 39.143333 
L 136.04349 161.776667 
L 140.521275 161.776667 
L 140.521275 39.143333 
L 144.99906 39.143333 
L 144.99906 161.776667 
L 149.476846 161.776667 
L 149.476846 39.143333 
L 153.954631 39.143333 
L 153.954631 161.776667 
L 158.432416 161.776667 
L 158.432416 39.143333 
L 162.910201 39.143333 
L 162.910201 161.776667 
L 171.865772 161.776667 
L 171.865772 39.143333 
L 176.343557 39.143333 
L 176.343557 161.776667 
L 189.776913 161.776667 
L 189.776913 39.143333 
L 194.254698 39.143333 
L 194.254698 161.776667 
L 207.688054 161.776667 
L 207.688054 39.143333 
L 212.165839 39.143333 
L 212.165839 161.776667 
L 221.121409 161.776667 
L 221.121409 39.143333 
L 225.599195 39.143333 
L 225.599195 161.776667 
L 234.554765 161.776667 
L 234.554765 39.143333 
L 239.03255 39.143333 
L 239.03255 161.776667 
L 243.510336 161.776667 
L 243.510336 39.143333 
L 247.988121 39.143333 
L 247.988121 161.776667 
L 256.943691 161.776667 
L 256.943691 39.143333 
L 265.899262 39.143333 
L 265.899262 161.776667 
L 270.377047 161.776667 
L 270.377047 39.143333 
L 279.332617 39.143333 
L 279.332617 161.776667 
L 283.810403 161.776667 
L 283.810403 39.143333 
L 292.765973 39.143333 
L 292.765973 161.776667 
L 297.243758 161.776667 
L 297.243758 39.143333 
L 310.677114 39.143333 
L 310.677114 161.776667 
L 315.154899 161.776667 
L 315.154899 39.143333 
L 328.588255 39.143333 
L 328.588255 161.776667 
L 333.06604 161.776667 
L 333.06604 39.143333 
L 342.021611 39.143333 
L 342.021611 161.776667 
L 346.499396 161.776667 
L 346.499396 39.143333 
L 350.977181 39.143333 
L 350.977181 161.776667 
L 355.454966 161.776667 
L 355.454966 39.143333 
L 359.932752 39.143333 
L 359.932752 161.776667 
L 364.410537 161.776667 
L 364.410537 39.143333 
L 368.888322 39.143333 
L 368.888322 161.776667 
L 373.366107 161.776667 
L 373.366107 39.143333 
L 377.843893 39.143333 
L 377.843893 161.776667 
L 386.799463 161.776667 
L 386.799463 39.143333 
L 391.277248 39.143333 
L 391.277248 161.776667 
L 404.710604 161.776667 
L 404.710604 39.143333 
L 409.188389 39.143333 
L 409.188389 161.776667 
L 422.621745 161.776667 
L 422.621745 39.143333 
L 427.09953 39.143333 
L 427.09953 161.776667 
L 436.055101 161.776667 
L 436.055101 39.143333 
L 440.532886 39.143333 
L 440.532886 161.776667 
L 449.488456 161.776667 
L 449.488456 39.143333 
L 453.966242 39.143333 
L 453.966242 161.776667 
L 458.444027 161.776667 
L 458.444027 39.143333 
L 462.921812 39.143333 
L 462.921812 161.776667 
L 471.877383 161.776667 
L 471.877383 39.143333 
L 480.832953 39.143333 
L 480.832953 161.776667 
L 485.310738 161.776667 
L 485.310738 39.143333 
L 489.788523 39.143333 
L 489.788523 161.776667 
L 494.266309 161.776667 
L 494.266309 39.143333 
L 507.699664 39.143333 
L 507.699664 161.776667 
L 512.17745 161.776667 
L 512.17745 39.143333 
L 525.610805 39.143333 
L 525.610805 161.776667 
L 530.088591 161.776667 
L 530.088591 39.143333 
L 539.044161 39.143333 
L 539.044161 161.776667 
L 543.521946 161.776667 
L 543.521946 39.143333 
L 556.955302 39.143333 
L 556.955302 161.776667 
L 561.433087 161.776667 
L 561.433087 39.143333 
L 565.910872 39.143333 
L 565.910872 161.776667 
L 570.388658 161.776667 
L 570.388658 39.143333 
L 574.866443 39.143333 
L 574.866443 161.776667 
L 579.344228 161.776667 
L 579.344228 39.143333 
L 583.822013 39.143333 
L 583.822013 161.776667 
L 588.299799 161.776667 
L 588.299799 39.143333 
L 592.777584 39.143333 
L 592.777584 161.776667 
L 601.733154 161.776667 
L 601.733154 39.143333 
L 606.21094 39.143333 
L 606.21094 161.776667 
L 615.16651 161.776667 
L 615.16651 39.143333 
L 619.644295 39.143333 
L 619.644295 161.776667 
L 633.077651 161.776667 
L 633.077651 39.143333 
L 637.555436 39.143333 
L 637.555436 161.776667 
L 650.988792 161.776667 
L 650.988792 39.143333 
L 655.466577 39.143333 
L 655.466577 161.776667 
L 664.422148 161.776667 
L 664.422148 39.143333 
L 668.899933 39.143333 
L 668.899933 161.776667 
L 673.377718 161.776667 
L 673.377718 39.143333 
L 677.855503 39.143333 
L 677.855503 161.776667 
L 686.811074 161.776667 
L 686.811074 39.143333 
L 695.766644 39.143333 
L 695.766644 161.776667 
L 700.24443 161.776667 
L 700.24443 39.143333 
L 704.722215 39.143333 
L 704.722215 161.776667 
L 709.2 161.776667 
L 709.2 161.776667 
" style="fill:none;stroke:#008000;stroke-linecap:square;stroke-width:1.5;"/>
   </g>
   <g id="patch_3">
    <path d="M 42.01 174.04 
L 42.01 26.88 
" style="fill:none;stroke:#000000;stroke-linecap:square;stroke-linejoin:miter;stroke-width:0.8;"/>
   </g>
   <g id="patch_4">
    <path d="M 709.2 174.04 
L 709.2 26.88 
" style="fill:none;stroke:#000000;stroke-linecap:square;stroke-linejoin:miter;stroke-width:0.8;"/>
   </g>
   <g id="patch_5">
    <path d="M 42.01 174.04 
L 709.2 174.04 
" style="fill:none;stroke:#000000;stroke-linecap:square;stroke-linejoin:miter;stroke-width:0.8;"/>
   </g>
   <g id="patch_6">
    <path d="M 42.01 26.88 
L 709.2 26.88 
" style="fill:none;stroke:#000000;stroke-linecap:square;stroke-linejoin:miter;stroke-width:0.8;"/>
   </g>
   <g id="text_15">
    <!-- Sigma-Delta Modulator - 16x Oversampling Rate, 1st Order -->
    <defs>
     <path d="M 9.421875 54.6875 
L 18.40625 54.6875 
L 18.40625 0 
L 9.421875 0 
z
M 9.421875 75.984375 
L 18.40625 75.984375 
L 18.40625 64.59375 
L 9.421875 64.59375 
z
" id="DejaVuSans-105"/>
     <path d="M 45.40625 27.984375 
Q 45.40625 37.75 41.375 43.109375 
Q 37.359375 48.484375 30.078125 48.484375 
Q 22.859375 48.484375 18.828125 43.109375 
Q 14.796875 37.75 14.796875 27.984375 
Q 14.796875 18.265625 18.828125 12.890625 
Q 22.859375 7.515625 30.078125 7.515625 
Q 37.359375 7.515625 41.375 12.890625 
Q 45.40625 18.265625 45.40625 27.984375 
z
M 54.390625 6.78125 
Q 54.390625 -7.171875 48.1875 -13.984375 
Q 42 -20.796875 29.203125 -20.796875 
Q 24.46875 -20.796875 20.265625 -20.09375 
Q 16.0625 -19.390625 12.109375 -17.921875 
L 12.109375 -9.1875 
Q 16.0625 -11.328125 19.921875 -12.34375 
Q 23.78125 -13.375 27.78125 -13.375 
Q 36.625 -13.375 41.015625 -8.765625 
Q 45.40625 -4.15625 45.40625 5.171875 
L 45.40625 9.625 
Q 42.625 4.78125 38.28125 2.390625 
Q 33.9375 0 27.875 0 
Q 17.828125 0 11.671875 7.65625 
Q 5.515625 15.328125 5.515625 27.984375 
Q 5.515625 40.671875 11.671875 48.328125 
Q 17.828125 56 27.875 56 
Q 33.9375 56 38.28125 53.609375 
Q 42.625 51.21875 45.40625 46.390625 
L 45.40625 54.6875 
L 54.390625 54.6875 
z
" id="DejaVuSans-103"/>
     <path d="M 4.890625 31.390625 
L 31.203125 31.390625 
L 31.203125 23.390625 
L 4.890625 23.390625 
z
" id="DejaVuSans-45"/>
     <path d="M 19.671875 64.796875 
L 19.671875 8.109375 
L 31.59375 8.109375 
Q 46.6875 8.109375 53.6875 14.9375 
Q 60.6875 21.78125 60.6875 36.53125 
Q 60.6875 51.171875 53.6875 57.984375 
Q 46.6875 64.796875 31.59375 64.796875 
z
M 9.8125 72.90625 
L 30.078125 72.90625 
Q 51.265625 72.90625 61.171875 64.09375 
Q 71.09375 55.28125 71.09375 36.53125 
Q 71.09375 17.671875 61.125 8.828125 
Q 51.171875 0 30.078125 0 
L 9.8125 0 
z
" id="DejaVuSans-68"/>
     <path d="M 18.3125 70.21875 
L 18.3125 54.6875 
L 36.8125 54.6875 
L 36.8125 47.703125 
L 18.3125 47.703125 
L 18.3125 18.015625 
Q 18.3125 11.328125 20.140625 9.421875 
Q 21.96875 7.515625 27.59375 7.515625 
L 36.8125 7.515625 
L 36.8125 0 
L 27.59375 0 
Q 17.1875 0 13.234375 3.875 
Q 9.28125 7.765625 9.28125 18.015625 
L 9.28125 47.703125 
L 2.6875 47.703125 
L 2.6875 54.6875 
L 9.28125 54.6875 
L 9.28125 70.21875 
z
" id="DejaVuSans-116"/>
     <path d="M 9.8125 72.90625 
L 24.515625 72.90625 
L 43.109375 23.296875 
L 61.8125 72.90625 
L 76.515625 72.90625 
L 76.515625 0 
L 66.890625 0 
L 66.890625 64.015625 
L 48.09375 14.015625 
L 38.1875 14.015625 
L 19.390625 64.015625 
L 19.390625 0 
L 9.8125 0 
z
" id="DejaVuSans-77"/>
     <path d="M 30.609375 48.390625 
Q 23.390625 48.390625 19.1875 42.75 
Q 14.984375 37.109375 14.984375 27.296875 
Q 14.984375 17.484375 19.15625 11.84375 
Q 23.34375 6.203125 30.609375 6.203125 
Q 37.796875 6.203125 41.984375 11.859375 
Q 46.1875 17.53125 46.1875 27.296875 
Q 46.1875 37.015625 41.984375 42.703125 
Q 37.796875 48.390625 30.609375 48.390625 
z
M 30.609375 56 
Q 42.328125 56 49.015625 48.375 
Q 55.71875 40.765625 55.71875 27.296875 
Q 55.71875 13.875 49.015625 6.21875 
Q 42.328125 -1.421875 30.609375 -1.421875 
Q 18.84375 -1.421875 12.171875 6.21875 
Q 5.515625 13.875 5.515625 27.296875 
Q 5.515625 40.765625 12.171875 48.375 
Q 18.84375 56 30.609375 56 
z
" id="DejaVuSans-111"/>
     <path d="M 45.40625 46.390625 
L 45.40625 75.984375 
L 54.390625 75.984375 
L 54.390625 0 
L 45.40625 0 
L 45.40625 8.203125 
Q 42.578125 3.328125 38.25 0.953125 
Q 33.9375 -1.421875 27.875 -1.421875 
Q 17.96875 -1.421875 11.734375 6.484375 
Q 5.515625 14.40625 5.515625 27.296875 
Q 5.515625 40.1875 11.734375 48.09375 
Q 17.96875 56 27.875 56 
Q 33.9375 56 38.25 53.625 
Q 42.578125 51.265625 45.40625 46.390625 
z
M 14.796875 27.296875 
Q 14.796875 17.390625 18.875 11.75 
Q 22.953125 6.109375 30.078125 6.109375 
Q 37.203125 6.109375 41.296875 11.75 
Q 45.40625 17.390625 45.40625 27.296875 
Q 45.40625 37.203125 41.296875 42.84375 
Q 37.203125 48.484375 30.078125 48.484375 
Q 22.953125 48.484375 18.875 42.84375 
Q 14.796875 37.203125 14.796875 27.296875 
z
" id="DejaVuSans-100"/>
     <path d="M 54.890625 54.6875 
L 35.109375 28.078125 
L 55.90625 0 
L 45.3125 0 
L 29.390625 21.484375 
L 13.484375 0 
L 2.875 0 
L 24.125 28.609375 
L 4.6875 54.6875 
L 15.28125 54.6875 
L 29.78125 35.203125 
L 44.28125 54.6875 
z
" id="DejaVuSans-120"/>
     <path d="M 39.40625 66.21875 
Q 28.65625 66.21875 22.328125 58.203125 
Q 16.015625 50.203125 16.015625 36.375 
Q 16.015625 22.609375 22.328125 14.59375 
Q 28.65625 6.59375 39.40625 6.59375 
Q 50.140625 6.59375 56.421875 14.59375 
Q 62.703125 22.609375 62.703125 36.375 
Q 62.703125 50.203125 56.421875 58.203125 
Q 50.140625 66.21875 39.40625 66.21875 
z
M 39.40625 74.21875 
Q 54.734375 74.21875 63.90625 63.9375 
Q 73.09375 53.65625 73.09375 36.375 
Q 73.09375 19.140625 63.90625 8.859375 
Q 54.734375 -1.421875 39.40625 -1.421875 
Q 24.03125 -1.421875 14.8125 8.828125 
Q 5.609375 19.09375 5.609375 36.375 
Q 5.609375 53.65625 14.8125 63.9375 
Q 24.03125 74.21875 39.40625 74.21875 
z
" id="DejaVuSans-79"/>
     <path d="M 2.984375 54.6875 
L 12.5 54.6875 
L 29.59375 8.796875 
L 46.6875 54.6875 
L 56.203125 54.6875 
L 35.6875 0 
L 23.484375 0 
z
" id="DejaVuSans-118"/>
     <path d="M 44.28125 53.078125 
L 44.28125 44.578125 
Q 40.484375 46.53125 36.375 47.5 
Q 32.28125 48.484375 27.875 48.484375 
Q 21.1875 48.484375 17.84375 46.4375 
Q 14.5 44.390625 14.5 40.28125 
Q 14.5 37.15625 16.890625 35.375 
Q 19.28125 33.59375 26.515625 31.984375 
L 29.59375 31.296875 
Q 39.15625 29.25 43.1875 25.515625 
Q 47.21875 21.78125 47.21875 15.09375 
Q 47.21875 7.46875 41.1875 3.015625 
Q 35.15625 -1.421875 24.609375 -1.421875 
Q 20.21875 -1.421875 15.453125 -0.5625 
Q 10.6875 0.296875 5.421875 2 
L 5.421875 11.28125 
Q 10.40625 8.6875 15.234375 7.390625 
Q 20.0625 6.109375 24.8125 6.109375 
Q 31.15625 6.109375 34.5625 8.28125 
Q 37.984375 10.453125 37.984375 14.40625 
Q 37.984375 18.0625 35.515625 20.015625 
Q 33.0625 21.96875 24.703125 23.78125 
L 21.578125 24.515625 
Q 13.234375 26.265625 9.515625 29.90625 
Q 5.8125 33.546875 5.8125 39.890625 
Q 5.8125 47.609375 11.28125 51.796875 
Q 16.75 56 26.8125 56 
Q 31.78125 56 36.171875 55.265625 
Q 40.578125 54.546875 44.28125 53.078125 
z
" id="DejaVuSans-115"/>
     <path d="M 54.890625 33.015625 
L 54.890625 0 
L 45.90625 0 
L 45.90625 32.71875 
Q 45.90625 40.484375 42.875 44.328125 
Q 39.84375 48.1875 33.796875 48.1875 
Q 26.515625 48.1875 22.3125 43.546875 
Q 18.109375 38.921875 18.109375 30.90625 
L 18.109375 0 
L 9.078125 0 
L 9.078125 54.6875 
L 18.109375 54.6875 
L 18.109375 46.1875 
Q 21.34375 51.125 25.703125 53.5625 
Q 30.078125 56 35.796875 56 
Q 45.21875 56 50.046875 50.171875 
Q 54.890625 44.34375 54.890625 33.015625 
z
" id="DejaVuSans-110"/>
     <path d="M 44.390625 34.1875 
Q 47.5625 33.109375 50.5625 29.59375 
Q 53.5625 26.078125 56.59375 19.921875 
L 66.609375 0 
L 56 0 
L 46.6875 18.703125 
Q 43.0625 26.03125 39.671875 28.421875 
Q 36.28125 30.8125 30.421875 30.8125 
L 19.671875 30.8125 
L 19.671875 0 
L 9.8125 0 
L 9.8125 72.90625 
L 32.078125 72.90625 
Q 44.578125 72.90625 50.734375 67.671875 
Q 56.890625 62.453125 56.890625 51.90625 
Q 56.890625 45.015625 53.6875 40.46875 
Q 50.484375 35.9375 44.390625 34.1875 
z
M 19.671875 64.796875 
L 19.671875 38.921875 
L 32.078125 38.921875 
Q 39.203125 38.921875 42.84375 42.21875 
Q 46.484375 45.515625 46.484375 51.90625 
Q 46.484375 58.296875 42.84375 61.546875 
Q 39.203125 64.796875 32.078125 64.796875 
z
" id="DejaVuSans-82"/>
     <path d="M 11.71875 12.40625 
L 22.015625 12.40625 
L 22.015625 4 
L 14.015625 -11.625 
L 7.71875 -11.625 
L 11.71875 4 
z
" id="DejaVuSans-44"/>
    </defs>
    <g transform="translate(197.790313 20.88)scale(0.12 -0.12)">
     <use xlink:href="#DejaVuSans-83"/>
     <use x="63.476562" xlink:href="#DejaVuSans-105"/>
     <use x="91.259766" xlink:href="#DejaVuSans-103"/>
     <use x="154.736328" xlink:href="#DejaVuSans-109"/>
     <use x="252.148438" xlink:href="#DejaVuSans-97"/>
     <use x="313.427734" xlink:href="#DejaVuSans-45"/>
     <use x="349.511719" xlink:href="#DejaVuSans-68"/>
     <use x="426.513672" xlink:href="#DejaVuSans-101"/>
     <use x="488.037109" xlink:href="#DejaVuSans-108"/>
     <use x="515.820312" xlink:href="#DejaVuSans-116"/>
     <use x="555.029297" xlink:href="#DejaVuSans-97"/>
     <use x="616.308594" xlink:href="#DejaVuSans-32"/>
     <use x="648.095703" xlink:href="#DejaVuSans-77"/>
     <use x="734.375" xlink:href="#DejaVuSans-111"/>
     <use x="795.556641" xlink:href="#DejaVuSans-100"/>
     <use x="859.033203" xlink:href="#DejaVuSans-117"/>
     <use x="922.412109" xlink:href="#DejaVuSans-108"/>
     <use x="950.195312" xlink:href="#DejaVuSans-97"/>
     <use x="1011.474609" xlink:href="#DejaVuSans-116"/>
     <use x="1050.683594" xlink:href="#DejaVuSans-111"/>
     <use x="1111.865234" xlink:href="#DejaVuSans-114"/>
     <use x="1152.978516" xlink:href="#DejaVuSans-32"/>
     <use x="1184.765625" xlink:href="#DejaVuSans-45"/>
     <use x="1220.849609" xlink:href="#DejaVuSans-32"/>
     <use x="1252.636719" xlink:href="#DejaVuSans-49"/>
     <use x="1316.259766" xlink:href="#DejaVuSans-54"/>
     <use x="1379.882812" xlink:href="#DejaVuSans-120"/>
     <use x="1439.0625" xlink:href="#DejaVuSans-32"/>
     <use x="1470.849609" xlink:href="#DejaVuSans-79"/>
     <use x="1549.560547" xlink:href="#DejaVuSans-118"/>
     <use x="1608.740234" xlink:href="#DejaVuSans-101"/>
     <use x="1670.263672" xlink:href="#DejaVuSans-114"/>
     <use x="1711.376953" xlink:href="#DejaVuSans-115"/>
     <use x="1763.476562" xlink:href="#DejaVuSans-97"/>
     <use x="1824.755859" xlink:href="#DejaVuSans-109"/>
     <use x="1922.167969" xlink:href="#DejaVuSans-112"/>
     <use x="1985.644531" xlink:href="#DejaVuSans-108"/>
     <use x="2013.427734" xlink:href="#DejaVuSans-105"/>
     <use x="2041.210938" xlink:href="#DejaVuSans-110"/>
     <use x="2104.589844" xlink:href="#DejaVuSans-103"/>
     <use x="2168.066406" xlink:href="#DejaVuSans-32"/>
     <use x="2199.853516" xlink:href="#DejaVuSans-82"/>
     <use x="2267.085938" xlink:href="#DejaVuSans-97"/>
     <use x="2328.365234" xlink:href="#DejaVuSans-116"/>
     <use x="2367.574219" xlink:href="#DejaVuSans-101"/>
     <use x="2429.097656" xlink:href="#DejaVuSans-44"/>
     <use x="2460.884766" xlink:href="#DejaVuSans-32"/>
     <use x="2492.671875" xlink:href="#DejaVuSans-49"/>
     <use x="2556.294922" xlink:href="#DejaVuSans-115"/>
     <use x="2608.394531" xlink:href="#DejaVuSans-116"/>
     <use x="2647.603516" xlink:href="#DejaVuSans-32"/>
     <use x="2679.390625" xlink:href="#DejaVuSans-79"/>
     <use x="2758.101562" xlink:href="#DejaVuSans-114"/>
     <use x="2797.464844" xlink:href="#DejaVuSans-100"/>
     <use x="2860.941406" xlink:href="#DejaVuSans-101"/>
     <use x="2922.464844" xlink:href="#DejaVuSans-114"/>
    </g>
   </g>
  </g>
 </g>
 <defs>
  <clipPath id="p64777cfdef">
   <rect height="147.16" width="667.19" x="42.01" y="26.88"/>
  </clipPath>
 </defs>
</svg>
