<?xml version="1.0" encoding="UTF-8" standalone="no"?>
<!DOCTYPE svg PUBLIC "-//W3C//DTD SVG 1.1//EN"
 "http://www.w3.org/Graphics/SVG/1.1/DTD/svg11.dtd">
<!-- Generated by graphviz version 2.38.0 (20140413.2041)
 -->
<!-- Title: add_const_design Pages: 1 -->
<svg width="715pt" height="149pt"
 viewBox="0.00 0.00 715.33 149.00" xmlns="http://www.w3.org/2000/svg" xmlns:xlink="http://www.w3.org/1999/xlink">
<g id="graph0" class="graph" transform="scale(1 1) rotate(0) translate(4 145)">
<title>add_const_design</title>
<polygon fill="white" stroke="none" points="-4,4 -4,-145 711.329,-145 711.329,4 -4,4"/>
<text text-anchor="middle" x="353.664" y="-7.8" font-family="Times,serif" font-size="14.00">add_const_design</text>
<!-- n5 -->
<g id="node1" class="node"><title>n5</title>
<polygon fill="none" stroke="black" points="54,-87.5442 54,-102.456 38.1838,-113 15.8162,-113 3.55271e-15,-102.456 0,-87.5442 15.8162,-77 38.1838,-77 54,-87.5442"/>
<text text-anchor="middle" x="27" y="-91.3" font-family="Times,serif" font-size="14.00">a</text>
</g>
<!-- c12 -->
<g id="node5" class="node"><title>c12</title>
<polygon fill="none" stroke="black" points="90,-45 90,-91 185,-91 185,-45 90,-45"/>
<text text-anchor="middle" x="103" y="-75.8" font-family="Times,serif" font-size="14.00">A</text>
<polyline fill="none" stroke="black" points="90,-68 116,-68 "/>
<text text-anchor="middle" x="103" y="-52.8" font-family="Times,serif" font-size="14.00">B</text>
<polyline fill="none" stroke="black" points="116,-45 116,-91 "/>
<text text-anchor="middle" x="137.5" y="-71.8" font-family="Times,serif" font-size="14.00">$2</text>
<text text-anchor="middle" x="137.5" y="-56.8" font-family="Times,serif" font-size="14.00">$add</text>
<polyline fill="none" stroke="black" points="159,-45 159,-91 "/>
<text text-anchor="middle" x="172" y="-64.3" font-family="Times,serif" font-size="14.00">Y</text>
</g>
<!-- n5&#45;&gt;c12 -->
<g id="edge6" class="edge"><title>n5:e&#45;&gt;c12:p9:w</title>
<path fill="none" stroke="black" stroke-width="3" d="M54,-95C67.2708,-95 71.1628,-86.2073 80.0372,-82.0857"/>
<polygon fill="black" stroke="black" stroke-width="3" points="80.9294,-85.4749 90,-80 79.495,-78.6234 80.9294,-85.4749"/>
</g>
<!-- n6 -->
<g id="node2" class="node"><title>n6</title>
<polygon fill="none" stroke="black" points="54,-33.5442 54,-48.4558 38.1838,-59 15.8162,-59 3.55271e-15,-48.4558 0,-33.5442 15.8162,-23 38.1838,-23 54,-33.5442"/>
<text text-anchor="middle" x="27" y="-37.3" font-family="Times,serif" font-size="14.00">b</text>
</g>
<!-- n6&#45;&gt;c12 -->
<g id="edge7" class="edge"><title>n6:e&#45;&gt;c12:p10:w</title>
<path fill="none" stroke="black" stroke-width="3" d="M54,-41C67.2708,-41 71.1628,-49.7927 80.0372,-53.9143"/>
<polygon fill="black" stroke="black" stroke-width="3" points="79.495,-57.3766 90,-56 80.9294,-50.5251 79.495,-57.3766"/>
</g>
<!-- n7 -->
<g id="node3" class="node"><title>n7</title>
<polygon fill="none" stroke="black" points="405,-115.544 405,-130.456 389.184,-141 366.816,-141 351,-130.456 351,-115.544 366.816,-105 389.184,-105 405,-115.544"/>
<text text-anchor="middle" x="378" y="-119.3" font-family="Times,serif" font-size="14.00">clk</text>
</g>
<!-- c17 -->
<g id="node7" class="node"><title>c17</title>
<polygon fill="none" stroke="black" points="441,-88 441,-134 550,-134 550,-88 441,-88"/>
<text text-anchor="middle" x="463" y="-118.8" font-family="Times,serif" font-size="14.00">CLK</text>
<polyline fill="none" stroke="black" points="441,-111 485,-111 "/>
<text text-anchor="middle" x="463" y="-95.8" font-family="Times,serif" font-size="14.00">D</text>
<polyline fill="none" stroke="black" points="485,-88 485,-134 "/>
<text text-anchor="middle" x="504.5" y="-114.8" font-family="Times,serif" font-size="14.00">$12</text>
<text text-anchor="middle" x="504.5" y="-99.8" font-family="Times,serif" font-size="14.00">$dff</text>
<polyline fill="none" stroke="black" points="524,-88 524,-134 "/>
<text text-anchor="middle" x="537" y="-107.3" font-family="Times,serif" font-size="14.00">Q</text>
</g>
<!-- n7&#45;&gt;c17 -->
<g id="edge8" class="edge"><title>n7:e&#45;&gt;c17:p14:w</title>
<path fill="none" stroke="black" d="M405,-123C417,-123 422.25,-123 430.875,-123"/>
<polygon fill="black" stroke="black" points="431,-126.5 441,-123 431,-119.5 431,-126.5"/>
</g>
<!-- n8 -->
<g id="node4" class="node"><title>n8</title>
<polygon fill="none" stroke="black" points="673.664,-103.544 673.664,-118.456 657.848,-129 635.481,-129 619.664,-118.456 619.664,-103.544 635.481,-93 657.848,-93 673.664,-103.544"/>
<text text-anchor="middle" x="646.664" y="-107.3" font-family="Times,serif" font-size="14.00">z</text>
</g>
<!-- c13 -->
<g id="node6" class="node"><title>c13</title>
<polygon fill="none" stroke="black" points="221,-49 221,-87 315,-87 315,-49 221,-49"/>
<text text-anchor="middle" x="234" y="-64.3" font-family="Times,serif" font-size="14.00">A</text>
<polyline fill="none" stroke="black" points="247,-49 247,-87 "/>
<text text-anchor="middle" x="268" y="-71.8" font-family="Times,serif" font-size="14.00">$3</text>
<text text-anchor="middle" x="268" y="-56.8" font-family="Times,serif" font-size="14.00">$pos</text>
<polyline fill="none" stroke="black" points="289,-49 289,-87 "/>
<text text-anchor="middle" x="302" y="-64.3" font-family="Times,serif" font-size="14.00">Y</text>
</g>
<!-- c12&#45;&gt;c13 -->
<g id="edge2" class="edge"><title>c12:p11:e&#45;&gt;c13:p9:w</title>
<path fill="none" stroke="black" stroke-width="3" d="M185,-68C197,-68 202.25,-68 210.875,-68"/>
<polygon fill="black" stroke="black" stroke-width="3" points="211,-71.5001 221,-68 211,-64.5001 211,-71.5001"/>
</g>
<!-- n4 -->
<g id="node10" class="node"><title>n4</title>
<ellipse fill="black" stroke="black" cx="378" cy="-68" rx="1.8" ry="1.8"/>
</g>
<!-- c13&#45;&gt;n4 -->
<g id="edge3" class="edge"><title>c13:p11:e&#45;&gt;n4:w</title>
<path fill="none" stroke="black" stroke-width="3" d="M315,-68C337.917,-68 346.063,-68 364.825,-68"/>
<polygon fill="black" stroke="black" stroke-width="3" points="365,-71.5001 375,-68 365,-64.5001 365,-71.5001"/>
</g>
<!-- c17&#45;&gt;n8 -->
<g id="edge9" class="edge"><title>c17:p16:e&#45;&gt;n8:w</title>
<path fill="none" stroke="black" stroke-width="3" d="M550,-111C576.822,-111 585.964,-111 608.504,-111"/>
<polygon fill="black" stroke="black" stroke-width="3" points="608.664,-114.5 618.664,-111 608.664,-107.5 608.664,-114.5"/>
</g>
<!-- x0 -->
<g id="node8" class="node"><title>x0</title>
<path fill="none" stroke="black" d="M510.5,-69C510.5,-69 480.5,-69 480.5,-69 474.5,-69 468.5,-63 468.5,-57 468.5,-57 468.5,-45 468.5,-45 468.5,-39 474.5,-33 480.5,-33 480.5,-33 510.5,-33 510.5,-33 516.5,-33 522.5,-39 522.5,-45 522.5,-45 522.5,-57 522.5,-57 522.5,-63 516.5,-69 510.5,-69"/>
<text text-anchor="middle" x="495.5" y="-47.3" font-family="Times,serif" font-size="14.00">BUF</text>
</g>
<!-- n2 -->
<g id="node9" class="node"><title>n2</title>
<polygon fill="none" stroke="black" points="646.664,-69 585.835,-51 646.664,-33 707.494,-51 646.664,-69"/>
<text text-anchor="middle" x="646.664" y="-47.3" font-family="Times,serif" font-size="14.00">$0\z[3:0]</text>
</g>
<!-- x0&#45;&gt;n2 -->
<g id="edge1" class="edge"><title>x0:e:e&#45;&gt;n2:w</title>
<path fill="none" stroke="black" stroke-width="3" d="M523.5,-51C547.589,-51 556.01,-51 575.937,-51"/>
<polygon fill="black" stroke="black" stroke-width="3" points="576,-54.5001 586,-51 576,-47.5001 576,-54.5001"/>
</g>
<!-- n4&#45;&gt;c17 -->
<g id="edge4" class="edge"><title>n4:e&#45;&gt;c17:p15:w</title>
<path fill="none" stroke="black" stroke-width="3" d="M381,-68C407.264,-68 410.523,-91.7344 431.035,-97.668"/>
<polygon fill="black" stroke="black" stroke-width="3" points="430.624,-101.144 441,-99 431.552,-94.2058 430.624,-101.144"/>
</g>
<!-- n4&#45;&gt;x0 -->
<g id="edge5" class="edge"><title>n4:e&#45;&gt;x0:w:w</title>
<path fill="none" stroke="black" stroke-width="3" d="M381,-68C416.507,-68 426.521,-54.0381 457.248,-51.4202"/>
<polygon fill="black" stroke="black" stroke-width="3" points="457.652,-54.9067 467.5,-51 457.365,-47.9126 457.652,-54.9067"/>
</g>
</g>
</svg>
