<?xml version="1.0" encoding="UTF-8" standalone="no"?>
<!DOCTYPE svg PUBLIC "-//W3C//DTD SVG 1.1//EN"
 "http://www.w3.org/Graphics/SVG/1.1/DTD/svg11.dtd">
<!-- Generated by graphviz version 2.38.0 (20140413.2041)
 -->
<!-- Title: add_const_design Pages: 1 -->
<svg width="428pt" height="154pt"
 viewBox="0.00 0.00 428.00 154.00" xmlns="http://www.w3.org/2000/svg" xmlns:xlink="http://www.w3.org/1999/xlink">
<g id="graph0" class="graph" transform="scale(1 1) rotate(0) translate(4 150)">
<title>add_const_design</title>
<polygon fill="white" stroke="none" points="-4,4 -4,-150 424,-150 424,4 -4,4"/>
<text text-anchor="middle" x="210" y="-7.8" font-family="Times,serif" font-size="14.00">add_const_design</text>
<!-- n3 -->
<g id="node1" class="node"><title>n3</title>
<polygon fill="none" stroke="black" points="54,-87.5442 54,-102.456 38.1838,-113 15.8162,-113 3.55271e-15,-102.456 0,-87.5442 15.8162,-77 38.1838,-77 54,-87.5442"/>
<text text-anchor="middle" x="27" y="-91.3" font-family="Times,serif" font-size="14.00">a</text>
</g>
<!-- c10 -->
<g id="node5" class="node"><title>c10</title>
<polygon fill="none" stroke="black" points="90,-45 90,-91 185,-91 185,-45 90,-45"/>
<text text-anchor="middle" x="103" y="-75.8" font-family="Times,serif" font-size="14.00">A</text>
<polyline fill="none" stroke="black" points="90,-68 116,-68 "/>
<text text-anchor="middle" x="103" y="-52.8" font-family="Times,serif" font-size="14.00">B</text>
<polyline fill="none" stroke="black" points="116,-45 116,-91 "/>
<text text-anchor="middle" x="137.5" y="-71.8" font-family="Times,serif" font-size="14.00">$2</text>
<text text-anchor="middle" x="137.5" y="-56.8" font-family="Times,serif" font-size="14.00">$add</text>
<polyline fill="none" stroke="black" points="159,-45 159,-91 "/>
<text text-anchor="middle" x="172" y="-64.3" font-family="Times,serif" font-size="14.00">Y</text>
</g>
<!-- n3&#45;&gt;c10 -->
<g id="edge2" class="edge"><title>n3:e&#45;&gt;c10:p7:w</title>
<path fill="none" stroke="black" stroke-width="3" d="M54,-95C67.2708,-95 71.1628,-86.2073 80.0372,-82.0857"/>
<polygon fill="black" stroke="black" stroke-width="3" points="80.9294,-85.4749 90,-80 79.495,-78.6234 80.9294,-85.4749"/>
</g>
<!-- n4 -->
<g id="node2" class="node"><title>n4</title>
<polygon fill="none" stroke="black" points="54,-33.5442 54,-48.4558 38.1838,-59 15.8162,-59 3.55271e-15,-48.4558 0,-33.5442 15.8162,-23 38.1838,-23 54,-33.5442"/>
<text text-anchor="middle" x="27" y="-37.3" font-family="Times,serif" font-size="14.00">b</text>
</g>
<!-- n4&#45;&gt;c10 -->
<g id="edge3" class="edge"><title>n4:e&#45;&gt;c10:p8:w</title>
<path fill="none" stroke="black" stroke-width="3" d="M54,-41C67.2708,-41 71.1628,-49.7927 80.0372,-53.9143"/>
<polygon fill="black" stroke="black" stroke-width="3" points="79.495,-57.3766 90,-56 80.9294,-50.5251 79.495,-57.3766"/>
</g>
<!-- n5 -->
<g id="node3" class="node"><title>n5</title>
<polygon fill="none" stroke="black" points="164.5,-120.544 164.5,-135.456 148.684,-146 126.316,-146 110.5,-135.456 110.5,-120.544 126.316,-110 148.684,-110 164.5,-120.544"/>
<text text-anchor="middle" x="137.5" y="-124.3" font-family="Times,serif" font-size="14.00">clk</text>
</g>
<!-- c14 -->
<g id="node6" class="node"><title>c14</title>
<polygon fill="none" stroke="black" points="221,-75 221,-121 330,-121 330,-75 221,-75"/>
<text text-anchor="middle" x="243" y="-105.8" font-family="Times,serif" font-size="14.00">CLK</text>
<polyline fill="none" stroke="black" points="221,-98 265,-98 "/>
<text text-anchor="middle" x="243" y="-82.8" font-family="Times,serif" font-size="14.00">D</text>
<polyline fill="none" stroke="black" points="265,-75 265,-121 "/>
<text text-anchor="middle" x="284.5" y="-101.8" font-family="Times,serif" font-size="14.00">$12</text>
<text text-anchor="middle" x="284.5" y="-86.8" font-family="Times,serif" font-size="14.00">$dff</text>
<polyline fill="none" stroke="black" points="304,-75 304,-121 "/>
<text text-anchor="middle" x="317" y="-94.3" font-family="Times,serif" font-size="14.00">Q</text>
</g>
<!-- n5&#45;&gt;c14 -->
<g id="edge4" class="edge"><title>n5:e&#45;&gt;c14:p11:w</title>
<path fill="none" stroke="black" d="M165.5,-128C187.582,-128 193.498,-114.947 210.78,-111.072"/>
<polygon fill="black" stroke="black" points="211.42,-114.524 221,-110 210.689,-107.562 211.42,-114.524"/>
</g>
<!-- n6 -->
<g id="node4" class="node"><title>n6</title>
<polygon fill="none" stroke="black" points="420,-90.5442 420,-105.456 404.184,-116 381.816,-116 366,-105.456 366,-90.5442 381.816,-80 404.184,-80 420,-90.5442"/>
<text text-anchor="middle" x="393" y="-94.3" font-family="Times,serif" font-size="14.00">z</text>
</g>
<!-- c10&#45;&gt;c14 -->
<g id="edge1" class="edge"><title>c10:p9:e&#45;&gt;c14:p12:w</title>
<path fill="none" stroke="black" stroke-width="3" d="M185,-68C198.836,-68 202.104,-78.7677 211.151,-83.6468"/>
<polygon fill="black" stroke="black" stroke-width="3" points="210.46,-87.0803 221,-86 212.087,-80.2719 210.46,-87.0803"/>
</g>
<!-- c14&#45;&gt;n6 -->
<g id="edge5" class="edge"><title>c14:p13:e&#45;&gt;n6:w</title>
<path fill="none" stroke="black" stroke-width="3" d="M330,-98C342,-98 347.25,-98 355.875,-98"/>
<polygon fill="black" stroke="black" stroke-width="3" points="356,-101.5 366,-98 356,-94.5001 356,-101.5"/>
</g>
</g>
</svg>
