<?xml version="1.0" encoding="UTF-8" standalone="no"?>
<!DOCTYPE svg PUBLIC "-//W3C//DTD SVG 1.1//EN"
 "http://www.w3.org/Graphics/SVG/1.1/DTD/svg11.dtd">
<!-- Generated by graphviz version 2.38.0 (20140413.2041)
 -->
<!-- Title: add_ff_design Pages: 1 -->
<svg width="493pt" height="235pt"
 viewBox="0.00 0.00 492.88 234.52" xmlns="http://www.w3.org/2000/svg" xmlns:xlink="http://www.w3.org/1999/xlink">
<g id="graph0" class="graph" transform="scale(1 1) rotate(0) translate(4 230.516)">
<title>add_ff_design</title>
<polygon fill="white" stroke="none" points="-4,4 -4,-230.516 488.882,-230.516 488.882,4 -4,4"/>
<text text-anchor="middle" x="242.441" y="-7.8" font-family="Times,serif" font-size="14.00">add_ff_design</text>
<!-- n5 -->
<g id="node1" class="node"><title>n5</title>
<polygon fill="none" stroke="black" points="61.4711,-201.06 61.4711,-215.971 45.6549,-226.516 23.2874,-226.516 7.47113,-215.971 7.47113,-201.06 23.2874,-190.516 45.6549,-190.516 61.4711,-201.06"/>
<text text-anchor="middle" x="34.4711" y="-204.816" font-family="Times,serif" font-size="14.00">a</text>
</g>
<!-- c13 -->
<g id="node6" class="node"><title>c13</title>
<polygon fill="none" stroke="black" points="120.442,-158.516 120.442,-204.516 215.442,-204.516 215.442,-158.516 120.442,-158.516"/>
<text text-anchor="middle" x="133.442" y="-189.316" font-family="Times,serif" font-size="14.00">A</text>
<polyline fill="none" stroke="black" points="120.442,-181.516 146.442,-181.516 "/>
<text text-anchor="middle" x="133.442" y="-166.316" font-family="Times,serif" font-size="14.00">B</text>
<polyline fill="none" stroke="black" points="146.442,-158.516 146.442,-204.516 "/>
<text text-anchor="middle" x="167.942" y="-185.316" font-family="Times,serif" font-size="14.00">$3</text>
<text text-anchor="middle" x="167.942" y="-170.316" font-family="Times,serif" font-size="14.00">$add</text>
<polyline fill="none" stroke="black" points="189.442,-158.516 189.442,-204.516 "/>
<text text-anchor="middle" x="202.442" y="-177.816" font-family="Times,serif" font-size="14.00">Y</text>
</g>
<!-- n5&#45;&gt;c13 -->
<g id="edge3" class="edge"><title>n5:e&#45;&gt;c13:p10:w</title>
<path fill="none" stroke="black" stroke-width="3" d="M62.4711,-208.516C84.585,-208.516 91.1554,-197.638 108.655,-194.409"/>
<polygon fill="black" stroke="black" stroke-width="3" points="109.283,-197.868 118.942,-193.516 108.677,-190.894 109.283,-197.868"/>
</g>
<!-- n6 -->
<g id="node2" class="node"><title>n6</title>
<polygon fill="none" stroke="black" points="61.4711,-147.06 61.4711,-161.971 45.6549,-172.516 23.2874,-172.516 7.47113,-161.971 7.47113,-147.06 23.2874,-136.516 45.6549,-136.516 61.4711,-147.06"/>
<text text-anchor="middle" x="34.4711" y="-150.816" font-family="Times,serif" font-size="14.00">b</text>
</g>
<!-- n6&#45;&gt;c13 -->
<g id="edge4" class="edge"><title>n6:e&#45;&gt;c13:p11:w</title>
<path fill="none" stroke="black" stroke-width="3" d="M62.4711,-154.516C84.585,-154.516 91.1554,-165.393 108.655,-168.622"/>
<polygon fill="black" stroke="black" stroke-width="3" points="108.677,-172.137 118.942,-169.516 109.283,-165.163 108.677,-172.137"/>
</g>
<!-- n7 -->
<g id="node3" class="node"><title>n7</title>
<polygon fill="none" stroke="black" points="194.942,-114.06 194.942,-128.971 179.126,-139.516 156.758,-139.516 140.942,-128.971 140.942,-114.06 156.758,-103.516 179.126,-103.516 194.942,-114.06"/>
<text text-anchor="middle" x="167.942" y="-117.816" font-family="Times,serif" font-size="14.00">clk</text>
</g>
<!-- p0 -->
<g id="node8" class="node"><title>p0</title>
<path fill="none" stroke="black" d="M376.942,-112.516C376.942,-112.516 278.942,-112.516 278.942,-112.516 272.942,-112.516 266.942,-106.516 266.942,-100.516 266.942,-100.516 266.942,-86.5156 266.942,-86.5156 266.942,-80.5156 272.942,-74.5156 278.942,-74.5156 278.942,-74.5156 376.942,-74.5156 376.942,-74.5156 382.942,-74.5156 388.942,-80.5156 388.942,-86.5156 388.942,-86.5156 388.942,-100.516 388.942,-100.516 388.942,-106.516 382.942,-112.516 376.942,-112.516"/>
<text text-anchor="middle" x="327.942" y="-97.3156" font-family="Times,serif" font-size="14.00">PROC $1</text>
<text text-anchor="middle" x="327.942" y="-82.3156" font-family="Times,serif" font-size="14.00">add_ff_design.v:11</text>
</g>
<!-- n7&#45;&gt;p0 -->
<g id="edge5" class="edge"><title>n7:e&#45;&gt;p0:w</title>
<path fill="none" stroke="black" d="M195.942,-121.516C226.153,-121.516 231.963,-99.3056 256.836,-94.4472"/>
<polygon fill="black" stroke="black" points="257.306,-97.9188 266.942,-93.5156 256.663,-90.9484 257.306,-97.9188"/>
</g>
<!-- n8 -->
<g id="node4" class="node"><title>n8</title>
<polygon fill="none" stroke="black" points="68.9134,-34.0598 68.9134,-48.9714 48.7376,-59.5156 20.2047,-59.5156 0.0288429,-48.9714 0.0288429,-34.0598 20.2047,-23.5156 48.7376,-23.5156 68.9134,-34.0598"/>
<text text-anchor="middle" x="34.4711" y="-37.8156" font-family="Times,serif" font-size="14.00">reset_</text>
</g>
<!-- c14 -->
<g id="node7" class="node"><title>c14</title>
<polygon fill="none" stroke="black" points="104.942,-46.5156 104.942,-84.5156 230.942,-84.5156 230.942,-46.5156 104.942,-46.5156"/>
<text text-anchor="middle" x="117.942" y="-61.8156" font-family="Times,serif" font-size="14.00">A</text>
<polyline fill="none" stroke="black" points="130.942,-46.5156 130.942,-84.5156 "/>
<text text-anchor="middle" x="167.942" y="-69.3156" font-family="Times,serif" font-size="14.00">$2</text>
<text text-anchor="middle" x="167.942" y="-54.3156" font-family="Times,serif" font-size="14.00">$logic_not</text>
<polyline fill="none" stroke="black" points="204.942,-46.5156 204.942,-84.5156 "/>
<text text-anchor="middle" x="217.942" y="-61.8156" font-family="Times,serif" font-size="14.00">Y</text>
</g>
<!-- n8&#45;&gt;c14 -->
<g id="edge6" class="edge"><title>n8:e&#45;&gt;c14:p10:w</title>
<path fill="none" stroke="black" d="M68.9423,-41.5156C84.1156,-41.5156 85.7851,-56.4585 95.2615,-62.7625"/>
<polygon fill="black" stroke="black" points="94.3662,-66.1466 104.942,-65.5156 96.2811,-59.4136 94.3662,-66.1466"/>
</g>
<!-- n8&#45;&gt;p0 -->
<g id="edge7" class="edge"><title>n8:e&#45;&gt;p0:w</title>
<path fill="none" stroke="black" d="M68.9423,-41.5156C85.0958,-41.5156 88.8271,-37.6294 104.942,-36.5156 160.809,-32.6545 181.898,-9.48416 230.942,-36.5156 253.493,-48.945 241.743,-82.1073 257.009,-91.1884"/>
<polygon fill="black" stroke="black" points="256.407,-94.6422 266.942,-93.5156 258.004,-87.8267 256.407,-94.6422"/>
</g>
<!-- n9 -->
<g id="node5" class="node"><title>n9</title>
<polygon fill="none" stroke="black" points="478.942,-86.0598 478.942,-100.971 463.126,-111.516 440.758,-111.516 424.942,-100.971 424.942,-86.0598 440.758,-75.5156 463.126,-75.5156 478.942,-86.0598"/>
<text text-anchor="middle" x="451.942" y="-89.8156" font-family="Times,serif" font-size="14.00">z</text>
</g>
<!-- n9&#45;&gt;p0 -->
<g id="edge9" class="edge"><title>n9:e&#45;&gt;p0:w</title>
<path fill="none" stroke="black" stroke-width="3" d="M479.942,-93.5156C487.955,-93.5156 484.732,-105.977 478.942,-111.516 450.035,-139.167 428.944,-112.293 388.942,-112.516 334.721,-112.817 306.278,-149.835 266.942,-112.516 264.258,-109.969 262.113,-106.014 261.257,-102.371"/>
<polygon fill="black" stroke="black" stroke-width="3" points="264.359,-103.991 265.942,-93.5156 258.172,-100.717 264.359,-103.991"/>
</g>
<!-- c13&#45;&gt;p0 -->
<g id="edge1" class="edge"><title>c13:p12:e&#45;&gt;p0:w</title>
<path fill="none" stroke="black" stroke-width="3" d="M216.942,-181.516C257.884,-181.516 228.455,-108.618 256.752,-95.519"/>
<polygon fill="black" stroke="black" stroke-width="3" points="257.805,-98.8789 266.942,-93.5156 256.455,-92.0104 257.805,-98.8789"/>
</g>
<!-- c14&#45;&gt;p0 -->
<g id="edge2" class="edge"><title>c14:p12:e&#45;&gt;p0:w</title>
<path fill="none" stroke="black" d="M230.942,-65.5156C247.095,-65.5156 247.493,-83.2959 257.245,-90.5191"/>
<polygon fill="black" stroke="black" points="256.355,-93.9071 266.942,-93.5156 258.421,-87.2191 256.355,-93.9071"/>
</g>
<!-- p0&#45;&gt;n9 -->
<g id="edge8" class="edge"><title>p0:e&#45;&gt;n9:w</title>
<path fill="none" stroke="black" stroke-width="3" d="M388.942,-93.5156C400.942,-93.5156 406.192,-93.5156 414.817,-93.5156"/>
<polygon fill="black" stroke="black" stroke-width="3" points="414.942,-97.0157 424.942,-93.5156 414.942,-90.0157 414.942,-97.0157"/>
</g>
</g>
</svg>
