<?xml version="1.0" encoding="UTF-8" standalone="no"?>
<!DOCTYPE svg PUBLIC "-//W3C//DTD SVG 1.1//EN"
 "http://www.w3.org/Graphics/SVG/1.1/DTD/svg11.dtd">
<!-- Generated by graphviz version 2.38.0 (20140413.2041)
 -->
<!-- Title: add_const_design Pages: 1 -->
<svg width="716pt" height="154pt"
 viewBox="0.00 0.00 716.33 154.00" xmlns="http://www.w3.org/2000/svg" xmlns:xlink="http://www.w3.org/1999/xlink">
<g id="graph0" class="graph" transform="scale(1 1) rotate(0) translate(4 150)">
<title>add_const_design</title>
<polygon fill="white" stroke="none" points="-4,4 -4,-150 712.329,-150 712.329,4 -4,4"/>
<text text-anchor="middle" x="354.164" y="-7.8" font-family="Times,serif" font-size="14.00">add_const_design</text>
<!-- n5 -->
<g id="node1" class="node"><title>n5</title>
<polygon fill="none" stroke="black" points="54,-120.544 54,-135.456 38.1838,-146 15.8162,-146 3.55271e-15,-135.456 0,-120.544 15.8162,-110 38.1838,-110 54,-120.544"/>
<text text-anchor="middle" x="27" y="-124.3" font-family="Times,serif" font-size="14.00">a</text>
</g>
<!-- c12 -->
<g id="node5" class="node"><title>c12</title>
<polygon fill="none" stroke="black" points="90,-78 90,-124 185,-124 185,-78 90,-78"/>
<text text-anchor="middle" x="103" y="-108.8" font-family="Times,serif" font-size="14.00">A</text>
<polyline fill="none" stroke="black" points="90,-101 116,-101 "/>
<text text-anchor="middle" x="103" y="-85.8" font-family="Times,serif" font-size="14.00">B</text>
<polyline fill="none" stroke="black" points="116,-78 116,-124 "/>
<text text-anchor="middle" x="137.5" y="-104.8" font-family="Times,serif" font-size="14.00">$2</text>
<text text-anchor="middle" x="137.5" y="-89.8" font-family="Times,serif" font-size="14.00">$add</text>
<polyline fill="none" stroke="black" points="159,-78 159,-124 "/>
<text text-anchor="middle" x="172" y="-97.3" font-family="Times,serif" font-size="14.00">Y</text>
</g>
<!-- n5&#45;&gt;c12 -->
<g id="edge6" class="edge"><title>n5:e&#45;&gt;c12:p9:w</title>
<path fill="none" stroke="black" stroke-width="3" d="M54,-128C67.2708,-128 71.1628,-119.207 80.0372,-115.086"/>
<polygon fill="black" stroke="black" stroke-width="3" points="80.9294,-118.475 90,-113 79.495,-111.623 80.9294,-118.475"/>
</g>
<!-- n6 -->
<g id="node2" class="node"><title>n6</title>
<polygon fill="none" stroke="black" points="54,-66.5442 54,-81.4558 38.1838,-92 15.8162,-92 3.55271e-15,-81.4558 0,-66.5442 15.8162,-56 38.1838,-56 54,-66.5442"/>
<text text-anchor="middle" x="27" y="-70.3" font-family="Times,serif" font-size="14.00">b</text>
</g>
<!-- n6&#45;&gt;c12 -->
<g id="edge7" class="edge"><title>n6:e&#45;&gt;c12:p10:w</title>
<path fill="none" stroke="black" stroke-width="3" d="M54,-74C67.2708,-74 71.1628,-82.7927 80.0372,-86.9143"/>
<polygon fill="black" stroke="black" stroke-width="3" points="79.495,-90.3766 90,-89 80.9294,-83.5251 79.495,-90.3766"/>
</g>
<!-- n7 -->
<g id="node3" class="node"><title>n7</title>
<polygon fill="none" stroke="black" points="406,-118.544 406,-133.456 390.184,-144 367.816,-144 352,-133.456 352,-118.544 367.816,-108 390.184,-108 406,-118.544"/>
<text text-anchor="middle" x="379" y="-122.3" font-family="Times,serif" font-size="14.00">clk</text>
</g>
<!-- c17 -->
<g id="node8" class="node"><title>c17</title>
<polygon fill="none" stroke="black" points="442,-91 442,-137 551,-137 551,-91 442,-91"/>
<text text-anchor="middle" x="464" y="-121.8" font-family="Times,serif" font-size="14.00">CLK</text>
<polyline fill="none" stroke="black" points="442,-114 486,-114 "/>
<text text-anchor="middle" x="464" y="-98.8" font-family="Times,serif" font-size="14.00">D</text>
<polyline fill="none" stroke="black" points="486,-91 486,-137 "/>
<text text-anchor="middle" x="505.5" y="-117.8" font-family="Times,serif" font-size="14.00">$12</text>
<text text-anchor="middle" x="505.5" y="-102.8" font-family="Times,serif" font-size="14.00">$dff</text>
<polyline fill="none" stroke="black" points="525,-91 525,-137 "/>
<text text-anchor="middle" x="538" y="-110.3" font-family="Times,serif" font-size="14.00">Q</text>
</g>
<!-- n7&#45;&gt;c17 -->
<g id="edge8" class="edge"><title>n7:e&#45;&gt;c17:p14:w</title>
<path fill="none" stroke="black" d="M406,-126C418,-126 423.25,-126 431.875,-126"/>
<polygon fill="black" stroke="black" points="432,-129.5 442,-126 432,-122.5 432,-129.5"/>
</g>
<!-- n8 -->
<g id="node4" class="node"><title>n8</title>
<polygon fill="none" stroke="black" points="674.664,-106.544 674.664,-121.456 658.848,-132 636.481,-132 620.664,-121.456 620.664,-106.544 636.481,-96 658.848,-96 674.664,-106.544"/>
<text text-anchor="middle" x="647.664" y="-110.3" font-family="Times,serif" font-size="14.00">z</text>
</g>
<!-- c13 -->
<g id="node7" class="node"><title>c13</title>
<polygon fill="none" stroke="black" points="221,-48 221,-94 316,-94 316,-48 221,-48"/>
<text text-anchor="middle" x="234" y="-78.8" font-family="Times,serif" font-size="14.00">A</text>
<polyline fill="none" stroke="black" points="221,-71 247,-71 "/>
<text text-anchor="middle" x="234" y="-55.8" font-family="Times,serif" font-size="14.00">B</text>
<polyline fill="none" stroke="black" points="247,-48 247,-94 "/>
<text text-anchor="middle" x="268.5" y="-74.8" font-family="Times,serif" font-size="14.00">$3</text>
<text text-anchor="middle" x="268.5" y="-59.8" font-family="Times,serif" font-size="14.00">$add</text>
<polyline fill="none" stroke="black" points="290,-48 290,-94 "/>
<text text-anchor="middle" x="303" y="-67.3" font-family="Times,serif" font-size="14.00">Y</text>
</g>
<!-- c12&#45;&gt;c13 -->
<g id="edge2" class="edge"><title>c12:p11:e&#45;&gt;c13:p9:w</title>
<path fill="none" stroke="black" stroke-width="3" d="M185,-101C198.836,-101 202.104,-90.2323 211.151,-85.3532"/>
<polygon fill="black" stroke="black" stroke-width="3" points="212.087,-88.7281 221,-83 210.46,-81.9197 212.087,-88.7281"/>
</g>
<!-- v0 -->
<g id="node6" class="node"><title>v0</title>
<ellipse fill="none" stroke="black" cx="137.5" cy="-41" rx="34.394" ry="18"/>
<text text-anchor="middle" x="137.5" y="-37.3" font-family="Times,serif" font-size="14.00">4&#39;0000</text>
</g>
<!-- v0&#45;&gt;c13 -->
<g id="edge10" class="edge"><title>v0:e&#45;&gt;c13:p10:w</title>
<path fill="none" stroke="black" stroke-width="3" d="M173.5,-41C192.196,-41 197.019,-53.3442 210.946,-57.5876"/>
<polygon fill="black" stroke="black" stroke-width="3" points="210.61,-61.0746 221,-59 211.584,-54.1427 210.61,-61.0746"/>
</g>
<!-- n4 -->
<g id="node11" class="node"><title>n4</title>
<ellipse fill="black" stroke="black" cx="379" cy="-71" rx="1.8" ry="1.8"/>
</g>
<!-- c13&#45;&gt;n4 -->
<g id="edge3" class="edge"><title>c13:p11:e&#45;&gt;n4:w</title>
<path fill="none" stroke="black" stroke-width="3" d="M316,-71C338.917,-71 347.063,-71 365.825,-71"/>
<polygon fill="black" stroke="black" stroke-width="3" points="366,-74.5001 376,-71 366,-67.5001 366,-74.5001"/>
</g>
<!-- c17&#45;&gt;n8 -->
<g id="edge9" class="edge"><title>c17:p16:e&#45;&gt;n8:w</title>
<path fill="none" stroke="black" stroke-width="3" d="M551,-114C577.822,-114 586.964,-114 609.504,-114"/>
<polygon fill="black" stroke="black" stroke-width="3" points="609.664,-117.5 619.664,-114 609.664,-110.5 609.664,-117.5"/>
</g>
<!-- x1 -->
<g id="node9" class="node"><title>x1</title>
<path fill="none" stroke="black" d="M511.5,-72C511.5,-72 481.5,-72 481.5,-72 475.5,-72 469.5,-66 469.5,-60 469.5,-60 469.5,-48 469.5,-48 469.5,-42 475.5,-36 481.5,-36 481.5,-36 511.5,-36 511.5,-36 517.5,-36 523.5,-42 523.5,-48 523.5,-48 523.5,-60 523.5,-60 523.5,-66 517.5,-72 511.5,-72"/>
<text text-anchor="middle" x="496.5" y="-50.3" font-family="Times,serif" font-size="14.00">BUF</text>
</g>
<!-- n2 -->
<g id="node10" class="node"><title>n2</title>
<polygon fill="none" stroke="black" points="647.664,-72 586.835,-54 647.664,-36 708.494,-54 647.664,-72"/>
<text text-anchor="middle" x="647.664" y="-50.3" font-family="Times,serif" font-size="14.00">$0\z[3:0]</text>
</g>
<!-- x1&#45;&gt;n2 -->
<g id="edge1" class="edge"><title>x1:e:e&#45;&gt;n2:w</title>
<path fill="none" stroke="black" stroke-width="3" d="M524.5,-54C548.589,-54 557.01,-54 576.937,-54"/>
<polygon fill="black" stroke="black" stroke-width="3" points="577,-57.5001 587,-54 577,-50.5001 577,-57.5001"/>
</g>
<!-- n4&#45;&gt;c17 -->
<g id="edge4" class="edge"><title>n4:e&#45;&gt;c17:p15:w</title>
<path fill="none" stroke="black" stroke-width="3" d="M382,-71C408.264,-71 411.523,-94.7344 432.035,-100.668"/>
<polygon fill="black" stroke="black" stroke-width="3" points="431.624,-104.144 442,-102 432.552,-97.2058 431.624,-104.144"/>
</g>
<!-- n4&#45;&gt;x1 -->
<g id="edge5" class="edge"><title>n4:e&#45;&gt;x1:w:w</title>
<path fill="none" stroke="black" stroke-width="3" d="M382,-71C417.507,-71 427.521,-57.0381 458.248,-54.4202"/>
<polygon fill="black" stroke="black" stroke-width="3" points="458.652,-57.9067 468.5,-54 458.365,-50.9126 458.652,-57.9067"/>
</g>
</g>
</svg>
