<?xml version="1.0" encoding="UTF-8" standalone="no"?>
<!DOCTYPE svg PUBLIC "-//W3C//DTD SVG 1.1//EN"
 "http://www.w3.org/Graphics/SVG/1.1/DTD/svg11.dtd">
<!-- Generated by graphviz version 2.38.0 (20140413.2041)
 -->
<!-- Title: check_fails_design Pages: 1 -->
<svg width="705pt" height="555pt"
 viewBox="0.00 0.00 705.03 555.00" xmlns="http://www.w3.org/2000/svg" xmlns:xlink="http://www.w3.org/1999/xlink">
<g id="graph0" class="graph" transform="scale(1 1) rotate(0) translate(4 551)">
<title>check_fails_design</title>
<polygon fill="white" stroke="none" points="-4,4 -4,-551 701.028,-551 701.028,4 -4,4"/>
<text text-anchor="middle" x="348.514" y="-7.8" font-family="Times,serif" font-size="14.00">check_fails_design</text>
<!-- n3 -->
<g id="node1" class="node"><title>n3</title>
<polygon fill="none" stroke="black" points="86.7452,-206.544 86.7452,-221.456 70.929,-232 48.5615,-232 32.7452,-221.456 32.7452,-206.544 48.5615,-196 70.929,-196 86.7452,-206.544"/>
<text text-anchor="middle" x="59.7452" y="-210.3" font-family="Times,serif" font-size="14.00">a</text>
</g>
<!-- c19 -->
<g id="node14" class="node"><title>c19</title>
<polygon fill="none" stroke="black" points="162.49,-186 162.49,-232 257.49,-232 257.49,-186 162.49,-186"/>
<text text-anchor="middle" x="175.49" y="-216.8" font-family="Times,serif" font-size="14.00">A</text>
<polyline fill="none" stroke="black" points="162.49,-209 188.49,-209 "/>
<text text-anchor="middle" x="175.49" y="-193.8" font-family="Times,serif" font-size="14.00">B</text>
<polyline fill="none" stroke="black" points="188.49,-186 188.49,-232 "/>
<text text-anchor="middle" x="209.99" y="-212.8" font-family="Times,serif" font-size="14.00">$4</text>
<text text-anchor="middle" x="209.99" y="-197.8" font-family="Times,serif" font-size="14.00">$and</text>
<polyline fill="none" stroke="black" points="231.49,-186 231.49,-232 "/>
<text text-anchor="middle" x="244.49" y="-205.3" font-family="Times,serif" font-size="14.00">Y</text>
</g>
<!-- n3&#45;&gt;c19 -->
<g id="edge10" class="edge"><title>n3:e&#45;&gt;c19:p17:w</title>
<path fill="none" stroke="black" d="M87.7452,-214C117.509,-214 125.847,-200.515 150.924,-197.566"/>
<polygon fill="black" stroke="black" points="151.203,-201.056 160.99,-197 150.81,-194.067 151.203,-201.056"/>
</g>
<!-- c20 -->
<g id="node15" class="node"><title>c20</title>
<polygon fill="none" stroke="black" points="162.49,-446 162.49,-492 257.49,-492 257.49,-446 162.49,-446"/>
<text text-anchor="middle" x="175.49" y="-476.8" font-family="Times,serif" font-size="14.00">A</text>
<polyline fill="none" stroke="black" points="162.49,-469 188.49,-469 "/>
<text text-anchor="middle" x="175.49" y="-453.8" font-family="Times,serif" font-size="14.00">B</text>
<polyline fill="none" stroke="black" points="188.49,-446 188.49,-492 "/>
<text text-anchor="middle" x="209.99" y="-472.8" font-family="Times,serif" font-size="14.00">$7</text>
<text text-anchor="middle" x="209.99" y="-457.8" font-family="Times,serif" font-size="14.00">$and</text>
<polyline fill="none" stroke="black" points="231.49,-446 231.49,-492 "/>
<text text-anchor="middle" x="244.49" y="-465.3" font-family="Times,serif" font-size="14.00">Y</text>
</g>
<!-- n3&#45;&gt;c20 -->
<g id="edge11" class="edge"><title>n3:e&#45;&gt;c20:p17:w</title>
<path fill="none" stroke="black" d="M87.7452,-214C140.51,-214 109.291,-426.685 151.229,-454.102"/>
<polygon fill="black" stroke="black" points="150.408,-457.509 160.99,-457 152.4,-450.798 150.408,-457.509"/>
</g>
<!-- c22 -->
<g id="node17" class="node"><title>c22</title>
<polygon fill="none" stroke="black" points="166.49,-381 166.49,-427 253.49,-427 253.49,-381 166.49,-381"/>
<text text-anchor="middle" x="179.49" y="-411.8" font-family="Times,serif" font-size="14.00">A</text>
<polyline fill="none" stroke="black" points="166.49,-404 192.49,-404 "/>
<text text-anchor="middle" x="179.49" y="-388.8" font-family="Times,serif" font-size="14.00">B</text>
<polyline fill="none" stroke="black" points="192.49,-381 192.49,-427 "/>
<text text-anchor="middle" x="209.99" y="-407.8" font-family="Times,serif" font-size="14.00">$6</text>
<text text-anchor="middle" x="209.99" y="-392.8" font-family="Times,serif" font-size="14.00">$or</text>
<polyline fill="none" stroke="black" points="227.49,-381 227.49,-427 "/>
<text text-anchor="middle" x="240.49" y="-400.3" font-family="Times,serif" font-size="14.00">Y</text>
</g>
<!-- n3&#45;&gt;c22 -->
<g id="edge12" class="edge"><title>n3:e&#45;&gt;c22:p17:w</title>
<path fill="none" stroke="black" d="M87.7452,-214C170.279,-214 86.6003,-377.032 154.85,-391.042"/>
<polygon fill="black" stroke="black" points="154.706,-394.544 164.99,-392 155.364,-387.575 154.706,-394.544"/>
</g>
<!-- c26 -->
<g id="node18" class="node"><title>c26</title>
<polygon fill="none" stroke="black" points="155.49,-316 155.49,-362 264.49,-362 264.49,-316 155.49,-316"/>
<text text-anchor="middle" x="177.49" y="-346.8" font-family="Times,serif" font-size="14.00">CLK</text>
<polyline fill="none" stroke="black" points="155.49,-339 199.49,-339 "/>
<text text-anchor="middle" x="177.49" y="-323.8" font-family="Times,serif" font-size="14.00">D</text>
<polyline fill="none" stroke="black" points="199.49,-316 199.49,-362 "/>
<text text-anchor="middle" x="218.99" y="-342.8" font-family="Times,serif" font-size="14.00">$16</text>
<text text-anchor="middle" x="218.99" y="-327.8" font-family="Times,serif" font-size="14.00">$dff</text>
<polyline fill="none" stroke="black" points="238.49,-316 238.49,-362 "/>
<text text-anchor="middle" x="251.49" y="-335.3" font-family="Times,serif" font-size="14.00">Q</text>
</g>
<!-- n3&#45;&gt;c26 -->
<g id="edge13" class="edge"><title>n3:e&#45;&gt;c26:p24:w</title>
<path fill="none" stroke="black" d="M87.7452,-214C142.527,-214 102.85,-312.903 145.455,-325.652"/>
<polygon fill="black" stroke="black" points="145.114,-329.138 155.49,-327 146.045,-322.2 145.114,-329.138"/>
</g>
<!-- c27 -->
<g id="node19" class="node"><title>c27</title>
<polygon fill="none" stroke="black" points="155.49,-251 155.49,-297 264.49,-297 264.49,-251 155.49,-251"/>
<text text-anchor="middle" x="177.49" y="-281.8" font-family="Times,serif" font-size="14.00">CLK</text>
<polyline fill="none" stroke="black" points="155.49,-274 199.49,-274 "/>
<text text-anchor="middle" x="177.49" y="-258.8" font-family="Times,serif" font-size="14.00">D</text>
<polyline fill="none" stroke="black" points="199.49,-251 199.49,-297 "/>
<text text-anchor="middle" x="218.99" y="-277.8" font-family="Times,serif" font-size="14.00">$17</text>
<text text-anchor="middle" x="218.99" y="-262.8" font-family="Times,serif" font-size="14.00">$dff</text>
<polyline fill="none" stroke="black" points="238.49,-251 238.49,-297 "/>
<text text-anchor="middle" x="251.49" y="-270.3" font-family="Times,serif" font-size="14.00">Q</text>
</g>
<!-- n3&#45;&gt;c27 -->
<g id="edge14" class="edge"><title>n3:e&#45;&gt;c27:p24:w</title>
<path fill="none" stroke="black" d="M87.7452,-214C120.898,-214 119.377,-252.745 145.487,-260.615"/>
<polygon fill="black" stroke="black" points="145.105,-264.096 155.49,-262 146.065,-257.162 145.105,-264.096"/>
</g>
<!-- x0 -->
<g id="node20" class="node"><title>x0</title>
<path fill="none" stroke="black" d="M224.99,-113C224.99,-113 194.99,-113 194.99,-113 188.99,-113 182.99,-107 182.99,-101 182.99,-101 182.99,-89 182.99,-89 182.99,-83 188.99,-77 194.99,-77 194.99,-77 224.99,-77 224.99,-77 230.99,-77 236.99,-83 236.99,-89 236.99,-89 236.99,-101 236.99,-101 236.99,-107 230.99,-113 224.99,-113"/>
<text text-anchor="middle" x="209.99" y="-91.3" font-family="Times,serif" font-size="14.00">BUF</text>
</g>
<!-- n3&#45;&gt;x0 -->
<g id="edge15" class="edge"><title>n3:e&#45;&gt;x0:w:w</title>
<path fill="none" stroke="black" d="M87.7452,-214C151.522,-214 118.651,-107.66 171.857,-96.0288"/>
<polygon fill="black" stroke="black" points="172.395,-99.4922 181.99,-95 171.688,-92.528 172.395,-99.4922"/>
</g>
<!-- x3 -->
<g id="node23" class="node"><title>x3</title>
<path fill="none" stroke="black" d="M224.99,-59C224.99,-59 194.99,-59 194.99,-59 188.99,-59 182.99,-53 182.99,-47 182.99,-47 182.99,-35 182.99,-35 182.99,-29 188.99,-23 194.99,-23 194.99,-23 224.99,-23 224.99,-23 230.99,-23 236.99,-29 236.99,-35 236.99,-35 236.99,-47 236.99,-47 236.99,-53 230.99,-59 224.99,-59"/>
<text text-anchor="middle" x="209.99" y="-37.3" font-family="Times,serif" font-size="14.00">BUF</text>
</g>
<!-- n3&#45;&gt;x3 -->
<g id="edge16" class="edge"><title>n3:e&#45;&gt;x3:w:w</title>
<path fill="none" stroke="black" d="M87.7452,-214C171.541,-214 101.071,-55.5478 171.61,-41.9308"/>
<polygon fill="black" stroke="black" points="172.343,-45.3792 181.99,-41 171.718,-38.4072 172.343,-45.3792"/>
</g>
<!-- x4 -->
<g id="node24" class="node"><title>x4</title>
<path fill="none" stroke="black" d="M224.99,-167C224.99,-167 194.99,-167 194.99,-167 188.99,-167 182.99,-161 182.99,-155 182.99,-155 182.99,-143 182.99,-143 182.99,-137 188.99,-131 194.99,-131 194.99,-131 224.99,-131 224.99,-131 230.99,-131 236.99,-137 236.99,-143 236.99,-143 236.99,-155 236.99,-155 236.99,-161 230.99,-167 224.99,-167"/>
<text text-anchor="middle" x="209.99" y="-145.3" font-family="Times,serif" font-size="14.00">BUF</text>
</g>
<!-- n3&#45;&gt;x4 -->
<g id="edge17" class="edge"><title>n3:e&#45;&gt;x4:w:w</title>
<path fill="none" stroke="black" d="M87.7452,-214C134.951,-214 131.89,-158.055 171.83,-149.969"/>
<polygon fill="black" stroke="black" points="172.368,-153.434 181.99,-149 171.703,-146.466 172.368,-153.434"/>
</g>
<!-- n4 -->
<g id="node2" class="node"><title>n4</title>
<polygon fill="none" stroke="black" points="377.125,-87.5442 377.125,-102.456 361.309,-113 338.941,-113 323.125,-102.456 323.125,-87.5442 338.941,-77 361.309,-77 377.125,-87.5442"/>
<text text-anchor="middle" x="350.125" y="-91.3" font-family="Times,serif" font-size="14.00">b</text>
</g>
<!-- n5 -->
<g id="node3" class="node"><title>n5</title>
<polygon fill="none" stroke="black" points="86.7452,-310.544 86.7452,-325.456 70.929,-336 48.5615,-336 32.7452,-325.456 32.7452,-310.544 48.5615,-300 70.929,-300 86.7452,-310.544"/>
<text text-anchor="middle" x="59.7452" y="-314.3" font-family="Times,serif" font-size="14.00">clk</text>
</g>
<!-- n5&#45;&gt;c26 -->
<g id="edge19" class="edge"><title>n5:e&#45;&gt;c26:p23:w</title>
<path fill="none" stroke="black" d="M87.7452,-318C117.443,-318 121.406,-343.947 145.273,-349.826"/>
<polygon fill="black" stroke="black" points="145.156,-353.335 155.49,-351 145.956,-346.381 145.156,-353.335"/>
</g>
<!-- n5&#45;&gt;c27 -->
<g id="edge20" class="edge"><title>n5:e&#45;&gt;c27:p23:w</title>
<path fill="none" stroke="black" d="M87.7452,-318C117.272,-318 121.519,-292.839 145.318,-287.139"/>
<polygon fill="black" stroke="black" points="145.942,-290.591 155.49,-286 145.163,-283.634 145.942,-290.591"/>
</g>
<!-- n6 -->
<g id="node4" class="node"><title>n6</title>
<polygon fill="none" stroke="black" points="647.394,-214 597.625,-196 647.394,-178 697.163,-196 647.394,-214"/>
<text text-anchor="middle" x="647.394" y="-192.3" font-family="Times,serif" font-size="14.00">comb2</text>
</g>
<!-- n7 -->
<g id="node5" class="node"><title>n7</title>
<polygon fill="none" stroke="black" points="350.125,-547 300.356,-529 350.125,-511 399.894,-529 350.125,-547"/>
<text text-anchor="middle" x="350.125" y="-525.3" font-family="Times,serif" font-size="14.00">comb3</text>
</g>
<!-- n8 -->
<g id="node6" class="node"><title>n8</title>
<polygon fill="none" stroke="black" points="59.7452,-463 -0.246232,-445 59.7452,-427 119.737,-445 59.7452,-463"/>
<text text-anchor="middle" x="59.7452" y="-441.3" font-family="Times,serif" font-size="14.00">undriven</text>
</g>
<!-- n8&#45;&gt;c20 -->
<g id="edge23" class="edge"><title>n8:e&#45;&gt;c20:p16:w</title>
<path fill="none" stroke="black" d="M119.49,-445C139.902,-445 138.125,-470.156 151.256,-478.411"/>
<polygon fill="black" stroke="black" points="150.427,-481.812 160.99,-481 152.226,-475.047 150.427,-481.812"/>
</g>
<!-- n8&#45;&gt;c22 -->
<g id="edge24" class="edge"><title>n8:e&#45;&gt;c22:p16:w</title>
<path fill="none" stroke="black" d="M119.49,-445C139.537,-445 141.106,-424.735 155.089,-418.086"/>
<polygon fill="black" stroke="black" points="155.927,-421.486 164.99,-416 154.484,-414.636 155.927,-421.486"/>
</g>
<!-- n9 -->
<g id="node7" class="node"><title>n9</title>
<polygon fill="none" stroke="black" points="377.125,-311.544 377.125,-326.456 361.309,-337 338.941,-337 323.125,-326.456 323.125,-311.544 338.941,-301 361.309,-301 377.125,-311.544"/>
<text text-anchor="middle" x="350.125" y="-315.3" font-family="Times,serif" font-size="14.00">z0</text>
</g>
<!-- n10 -->
<g id="node8" class="node"><title>n10</title>
<polygon fill="none" stroke="black" points="377.125,-33.5442 377.125,-48.4558 361.309,-59 338.941,-59 323.125,-48.4558 323.125,-33.5442 338.941,-23 361.309,-23 377.125,-33.5442"/>
<text text-anchor="middle" x="350.125" y="-37.3" font-family="Times,serif" font-size="14.00">z1</text>
</g>
<!-- n11 -->
<g id="node9" class="node"><title>n11</title>
<polygon fill="none" stroke="black" points="377.125,-198.544 377.125,-213.456 361.309,-224 338.941,-224 323.125,-213.456 323.125,-198.544 338.941,-188 361.309,-188 377.125,-198.544"/>
<text text-anchor="middle" x="350.125" y="-202.3" font-family="Times,serif" font-size="14.00">z2</text>
</g>
<!-- c21 -->
<g id="node16" class="node"><title>c21</title>
<polygon fill="none" stroke="black" points="435.759,-233 435.759,-271 561.759,-271 561.759,-233 435.759,-233"/>
<text text-anchor="middle" x="448.759" y="-248.3" font-family="Times,serif" font-size="14.00">A</text>
<polyline fill="none" stroke="black" points="461.759,-233 461.759,-271 "/>
<text text-anchor="middle" x="498.759" y="-255.8" font-family="Times,serif" font-size="14.00">$3</text>
<text text-anchor="middle" x="498.759" y="-240.8" font-family="Times,serif" font-size="14.00">$logic_not</text>
<polyline fill="none" stroke="black" points="535.759,-233 535.759,-271 "/>
<text text-anchor="middle" x="548.759" y="-248.3" font-family="Times,serif" font-size="14.00">Y</text>
</g>
<!-- n11&#45;&gt;c21 -->
<g id="edge3" class="edge"><title>n11:e&#45;&gt;c21:p16:w</title>
<path fill="none" stroke="black" d="M378.125,-206C407.058,-206 404.282,-241.85 425.783,-250.253"/>
<polygon fill="black" stroke="black" points="425.306,-253.723 435.759,-252 426.513,-246.827 425.306,-253.723"/>
</g>
<!-- x1 -->
<g id="node21" class="node"><title>x1</title>
<path fill="none" stroke="black" d="M513.759,-214C513.759,-214 483.759,-214 483.759,-214 477.759,-214 471.759,-208 471.759,-202 471.759,-202 471.759,-190 471.759,-190 471.759,-184 477.759,-178 483.759,-178 483.759,-178 513.759,-178 513.759,-178 519.759,-178 525.759,-184 525.759,-190 525.759,-190 525.759,-202 525.759,-202 525.759,-208 519.759,-214 513.759,-214"/>
<text text-anchor="middle" x="498.759" y="-192.3" font-family="Times,serif" font-size="14.00">BUF</text>
</g>
<!-- n11&#45;&gt;x1 -->
<g id="edge4" class="edge"><title>n11:e&#45;&gt;x1:w:w</title>
<path fill="none" stroke="black" d="M378.125,-206C415.976,-206 427.429,-197.645 460.743,-196.209"/>
<polygon fill="black" stroke="black" points="460.835,-199.708 470.759,-196 460.689,-192.709 460.835,-199.708"/>
</g>
<!-- n12 -->
<g id="node10" class="node"><title>n12</title>
<polygon fill="none" stroke="black" points="86.7452,-521.544 86.7452,-536.456 70.929,-547 48.5615,-547 32.7452,-536.456 32.7452,-521.544 48.5615,-511 70.929,-511 86.7452,-521.544"/>
<text text-anchor="middle" x="59.7452" y="-525.3" font-family="Times,serif" font-size="14.00">z3</text>
</g>
<!-- x2 -->
<g id="node22" class="node"><title>x2</title>
<path fill="none" stroke="black" d="M224.99,-547C224.99,-547 194.99,-547 194.99,-547 188.99,-547 182.99,-541 182.99,-535 182.99,-535 182.99,-523 182.99,-523 182.99,-517 188.99,-511 194.99,-511 194.99,-511 224.99,-511 224.99,-511 230.99,-511 236.99,-517 236.99,-523 236.99,-523 236.99,-535 236.99,-535 236.99,-541 230.99,-547 224.99,-547"/>
<text text-anchor="middle" x="209.99" y="-525.3" font-family="Times,serif" font-size="14.00">BUF</text>
</g>
<!-- n12&#45;&gt;x2 -->
<g id="edge5" class="edge"><title>n12:e&#45;&gt;x2:w:w</title>
<path fill="none" stroke="black" d="M87.7452,-529C126.032,-529 138.072,-529 171.848,-529"/>
<polygon fill="black" stroke="black" points="171.99,-532.5 181.99,-529 171.99,-525.5 171.99,-532.5"/>
</g>
<!-- n13 -->
<g id="node11" class="node"><title>n13</title>
<polygon fill="none" stroke="black" points="377.125,-396.544 377.125,-411.456 361.309,-422 338.941,-422 323.125,-411.456 323.125,-396.544 338.941,-386 361.309,-386 377.125,-396.544"/>
<text text-anchor="middle" x="350.125" y="-400.3" font-family="Times,serif" font-size="14.00">z4</text>
</g>
<!-- n14 -->
<g id="node12" class="node"><title>n14</title>
<polygon fill="none" stroke="black" points="377.125,-461.544 377.125,-476.456 361.309,-487 338.941,-487 323.125,-476.456 323.125,-461.544 338.941,-451 361.309,-451 377.125,-461.544"/>
<text text-anchor="middle" x="350.125" y="-465.3" font-family="Times,serif" font-size="14.00">z5</text>
</g>
<!-- n15 -->
<g id="node13" class="node"><title>n15</title>
<polygon fill="none" stroke="black" points="377.125,-141.544 377.125,-156.456 361.309,-167 338.941,-167 323.125,-156.456 323.125,-141.544 338.941,-131 361.309,-131 377.125,-141.544"/>
<text text-anchor="middle" x="350.125" y="-145.3" font-family="Times,serif" font-size="14.00">z6</text>
</g>
<!-- c19&#45;&gt;n11 -->
<g id="edge2" class="edge"><title>c19:p18:e&#45;&gt;n11:w</title>
<path fill="none" stroke="black" d="M258.99,-209C283.351,-209 291.814,-206.744 311.952,-206.145"/>
<polygon fill="black" stroke="black" points="312.176,-209.642 322.125,-206 312.076,-202.643 312.176,-209.642"/>
</g>
<!-- c20&#45;&gt;n14 -->
<g id="edge7" class="edge"><title>c20:p18:e&#45;&gt;n14:w</title>
<path fill="none" stroke="black" d="M258.99,-469C283.324,-469 291.831,-469 311.96,-469"/>
<polygon fill="black" stroke="black" points="312.125,-472.5 322.125,-469 312.125,-465.5 312.125,-472.5"/>
</g>
<!-- c21&#45;&gt;c19 -->
<g id="edge9" class="edge"><title>c21:p18:e&#45;&gt;c19:p16:w</title>
<path fill="none" stroke="black" d="M562.759,-252C571.437,-252 568.051,-265.523 561.759,-271.5 521.16,-310.071 491.542,-276.428 435.759,-271.5 358.742,-264.696 341.16,-250.984 264.49,-241 241.826,-238.049 178.184,-248.629 161.99,-232.5 161.65,-232.161 161.319,-231.784 161.003,-231.379"/>
<polygon fill="black" stroke="black" points="164.503,-230.996 160.99,-221 157.503,-231.004 164.503,-230.996"/>
</g>
<!-- c22&#45;&gt;n13 -->
<g id="edge6" class="edge"><title>c22:p18:e&#45;&gt;n13:w</title>
<path fill="none" stroke="black" d="M254.99,-404C281.098,-404 290.073,-404 311.897,-404"/>
<polygon fill="black" stroke="black" points="312.125,-407.5 322.125,-404 312.125,-400.5 312.125,-407.5"/>
</g>
<!-- c26&#45;&gt;n9 -->
<g id="edge25" class="edge"><title>c26:p25:e&#45;&gt;n9:w</title>
<path fill="none" stroke="black" d="M264.49,-339C287.791,-339 293.584,-324.229 311.961,-320.075"/>
<polygon fill="black" stroke="black" points="312.549,-323.533 322.125,-319 311.812,-316.572 312.549,-323.533"/>
</g>
<!-- c27&#45;&gt;n9 -->
<g id="edge26" class="edge"><title>c27:p25:e&#45;&gt;n9:w</title>
<path fill="none" stroke="black" d="M264.49,-274C293.18,-274 290.805,-309.071 312.214,-317.291"/>
<polygon fill="black" stroke="black" points="311.676,-320.75 322.125,-319 312.865,-313.852 311.676,-320.75"/>
</g>
<!-- x0&#45;&gt;n4 -->
<g id="edge18" class="edge"><title>x0:e:e&#45;&gt;n4:w</title>
<path fill="none" stroke="black" d="M237.99,-95C271.732,-95 282.639,-95 311.92,-95"/>
<polygon fill="black" stroke="black" points="312.125,-98.5001 322.125,-95 312.125,-91.5001 312.125,-98.5001"/>
</g>
<!-- x1&#45;&gt;n6 -->
<g id="edge21" class="edge"><title>x1:e:e&#45;&gt;n6:w</title>
<path fill="none" stroke="black" d="M526.759,-196C554.617,-196 564.03,-196 587.565,-196"/>
<polygon fill="black" stroke="black" points="587.759,-199.5 597.759,-196 587.759,-192.5 587.759,-199.5"/>
</g>
<!-- x2&#45;&gt;n7 -->
<g id="edge22" class="edge"><title>x2:e:e&#45;&gt;n7:w</title>
<path fill="none" stroke="black" d="M237.99,-529C262.079,-529 270.501,-529 290.428,-529"/>
<polygon fill="black" stroke="black" points="290.49,-532.5 300.49,-529 290.49,-525.5 290.49,-532.5"/>
</g>
<!-- x3&#45;&gt;n10 -->
<g id="edge1" class="edge"><title>x3:e:e&#45;&gt;n10:w</title>
<path fill="none" stroke="black" d="M237.99,-41C271.732,-41 282.639,-41 311.92,-41"/>
<polygon fill="black" stroke="black" points="312.125,-44.5001 322.125,-41 312.125,-37.5001 312.125,-44.5001"/>
</g>
<!-- x4&#45;&gt;n15 -->
<g id="edge8" class="edge"><title>x4:e:e&#45;&gt;n15:w</title>
<path fill="none" stroke="black" d="M237.99,-149C271.732,-149 282.639,-149 311.92,-149"/>
<polygon fill="black" stroke="black" points="312.125,-152.5 322.125,-149 312.125,-145.5 312.125,-152.5"/>
</g>
</g>
</svg>
