<?xml version="1.0" encoding="UTF-8" standalone="no"?>
<!DOCTYPE svg PUBLIC "-//W3C//DTD SVG 1.1//EN"
 "http://www.w3.org/Graphics/SVG/1.1/DTD/svg11.dtd">
<!-- Generated by graphviz version 2.38.0 (20140413.2041)
 -->
<!-- Title: check_fails_design Pages: 1 -->
<svg width="926pt" height="728pt"
 viewBox="0.00 0.00 926.33 727.57" xmlns="http://www.w3.org/2000/svg" xmlns:xlink="http://www.w3.org/1999/xlink">
<g id="graph0" class="graph" transform="scale(1 1) rotate(0) translate(4 723.569)">
<title>check_fails_design</title>
<polygon fill="white" stroke="none" points="-4,4 -4,-723.569 922.332,-723.569 922.332,4 -4,4"/>
<text text-anchor="middle" x="459.166" y="-7.8" font-family="Times,serif" font-size="14.00">check_fails_design</text>
<!-- n9 -->
<g id="node1" class="node"><title>n9</title>
<polygon fill="none" stroke="black" points="86.7452,-506.044 86.7452,-520.956 70.929,-531.5 48.5615,-531.5 32.7452,-520.956 32.7452,-506.044 48.5615,-495.5 70.929,-495.5 86.7452,-506.044"/>
<text text-anchor="middle" x="59.7452" y="-509.8" font-family="Times,serif" font-size="14.00">a</text>
</g>
<!-- c25 -->
<g id="node14" class="node"><title>c25</title>
<polygon fill="none" stroke="black" points="162.49,-502.5 162.49,-548.5 257.49,-548.5 257.49,-502.5 162.49,-502.5"/>
<text text-anchor="middle" x="175.49" y="-533.3" font-family="Times,serif" font-size="14.00">A</text>
<polyline fill="none" stroke="black" points="162.49,-525.5 188.49,-525.5 "/>
<text text-anchor="middle" x="175.49" y="-510.3" font-family="Times,serif" font-size="14.00">B</text>
<polyline fill="none" stroke="black" points="188.49,-502.5 188.49,-548.5 "/>
<text text-anchor="middle" x="209.99" y="-529.3" font-family="Times,serif" font-size="14.00">$4</text>
<text text-anchor="middle" x="209.99" y="-514.3" font-family="Times,serif" font-size="14.00">$and</text>
<polyline fill="none" stroke="black" points="231.49,-502.5 231.49,-548.5 "/>
<text text-anchor="middle" x="244.49" y="-521.8" font-family="Times,serif" font-size="14.00">Y</text>
</g>
<!-- n9&#45;&gt;c25 -->
<g id="edge35" class="edge"><title>n9:e&#45;&gt;c25:p23:w</title>
<path fill="none" stroke="black" d="M87.7452,-513.5C116.611,-513.5 126.28,-513.5 150.796,-513.5"/>
<polygon fill="black" stroke="black" points="150.99,-517 160.99,-513.5 150.99,-510 150.99,-517"/>
</g>
<!-- x0 -->
<g id="node20" class="node"><title>x0</title>
<path fill="none" stroke="black" d="M224.99,-483.5C224.99,-483.5 194.99,-483.5 194.99,-483.5 188.99,-483.5 182.99,-477.5 182.99,-471.5 182.99,-471.5 182.99,-459.5 182.99,-459.5 182.99,-453.5 188.99,-447.5 194.99,-447.5 194.99,-447.5 224.99,-447.5 224.99,-447.5 230.99,-447.5 236.99,-453.5 236.99,-459.5 236.99,-459.5 236.99,-471.5 236.99,-471.5 236.99,-477.5 230.99,-483.5 224.99,-483.5"/>
<text text-anchor="middle" x="209.99" y="-461.8" font-family="Times,serif" font-size="14.00">BUF</text>
</g>
<!-- n9&#45;&gt;x0 -->
<g id="edge36" class="edge"><title>n9:e&#45;&gt;x0:w:w</title>
<path fill="none" stroke="black" d="M87.7452,-513.5C131.079,-513.5 134.662,-472.707 171.785,-466.333"/>
<polygon fill="black" stroke="black" points="172.308,-469.802 181.99,-465.5 171.739,-462.825 172.308,-469.802"/>
</g>
<!-- x9 -->
<g id="node29" class="node"><title>x9</title>
<path fill="none" stroke="black" d="M224.99,-603.5C224.99,-603.5 194.99,-603.5 194.99,-603.5 188.99,-603.5 182.99,-597.5 182.99,-591.5 182.99,-591.5 182.99,-579.5 182.99,-579.5 182.99,-573.5 188.99,-567.5 194.99,-567.5 194.99,-567.5 224.99,-567.5 224.99,-567.5 230.99,-567.5 236.99,-573.5 236.99,-579.5 236.99,-579.5 236.99,-591.5 236.99,-591.5 236.99,-597.5 230.99,-603.5 224.99,-603.5"/>
<text text-anchor="middle" x="209.99" y="-581.8" font-family="Times,serif" font-size="14.00">BUF</text>
</g>
<!-- n9&#45;&gt;x9 -->
<g id="edge37" class="edge"><title>n9:e&#45;&gt;x9:w:w</title>
<path fill="none" stroke="black" d="M87.7452,-513.5C136.853,-513.5 130.509,-575.993 172.035,-584.537"/>
<polygon fill="black" stroke="black" points="171.7,-588.02 181.99,-585.5 172.374,-581.053 171.7,-588.02"/>
</g>
<!-- n10 -->
<g id="node2" class="node"><title>n10</title>
<polygon fill="none" stroke="black" points="86.7452,-218.044 86.7452,-232.956 70.929,-243.5 48.5615,-243.5 32.7452,-232.956 32.7452,-218.044 48.5615,-207.5 70.929,-207.5 86.7452,-218.044"/>
<text text-anchor="middle" x="59.7452" y="-221.8" font-family="Times,serif" font-size="14.00">b</text>
</g>
<!-- c26 -->
<g id="node15" class="node"><title>c26</title>
<polygon fill="none" stroke="black" points="162.49,-262.5 162.49,-308.5 257.49,-308.5 257.49,-262.5 162.49,-262.5"/>
<text text-anchor="middle" x="175.49" y="-293.3" font-family="Times,serif" font-size="14.00">A</text>
<polyline fill="none" stroke="black" points="162.49,-285.5 188.49,-285.5 "/>
<text text-anchor="middle" x="175.49" y="-270.3" font-family="Times,serif" font-size="14.00">B</text>
<polyline fill="none" stroke="black" points="188.49,-262.5 188.49,-308.5 "/>
<text text-anchor="middle" x="209.99" y="-289.3" font-family="Times,serif" font-size="14.00">$7</text>
<text text-anchor="middle" x="209.99" y="-274.3" font-family="Times,serif" font-size="14.00">$and</text>
<polyline fill="none" stroke="black" points="231.49,-262.5 231.49,-308.5 "/>
<text text-anchor="middle" x="244.49" y="-281.8" font-family="Times,serif" font-size="14.00">Y</text>
</g>
<!-- n10&#45;&gt;c26 -->
<g id="edge1" class="edge"><title>n10:e&#45;&gt;c26:p23:w</title>
<path fill="none" stroke="black" d="M87.7452,-225.5C122.865,-225.5 122.552,-264.583 150.752,-272.216"/>
<polygon fill="black" stroke="black" points="150.633,-275.729 160.99,-273.5 151.504,-268.783 150.633,-275.729"/>
</g>
<!-- c28 -->
<g id="node17" class="node"><title>c28</title>
<polygon fill="none" stroke="black" points="166.49,-382.5 166.49,-428.5 253.49,-428.5 253.49,-382.5 166.49,-382.5"/>
<text text-anchor="middle" x="179.49" y="-413.3" font-family="Times,serif" font-size="14.00">A</text>
<polyline fill="none" stroke="black" points="166.49,-405.5 192.49,-405.5 "/>
<text text-anchor="middle" x="179.49" y="-390.3" font-family="Times,serif" font-size="14.00">B</text>
<polyline fill="none" stroke="black" points="192.49,-382.5 192.49,-428.5 "/>
<text text-anchor="middle" x="209.99" y="-409.3" font-family="Times,serif" font-size="14.00">$6</text>
<text text-anchor="middle" x="209.99" y="-394.3" font-family="Times,serif" font-size="14.00">$or</text>
<polyline fill="none" stroke="black" points="227.49,-382.5 227.49,-428.5 "/>
<text text-anchor="middle" x="240.49" y="-401.8" font-family="Times,serif" font-size="14.00">Y</text>
</g>
<!-- n10&#45;&gt;c28 -->
<g id="edge2" class="edge"><title>n10:e&#45;&gt;c28:p23:w</title>
<path fill="none" stroke="black" d="M87.7452,-225.5C166.235,-225.5 90.2946,-378.745 154.909,-392.513"/>
<polygon fill="black" stroke="black" points="154.697,-396.009 164.99,-393.5 155.379,-389.043 154.697,-396.009"/>
</g>
<!-- c32 -->
<g id="node18" class="node"><title>c32</title>
<polygon fill="none" stroke="black" points="155.49,-23.5 155.49,-69.5 264.49,-69.5 264.49,-23.5 155.49,-23.5"/>
<text text-anchor="middle" x="177.49" y="-54.3" font-family="Times,serif" font-size="14.00">CLK</text>
<polyline fill="none" stroke="black" points="155.49,-46.5 199.49,-46.5 "/>
<text text-anchor="middle" x="177.49" y="-31.3" font-family="Times,serif" font-size="14.00">D</text>
<polyline fill="none" stroke="black" points="199.49,-23.5 199.49,-69.5 "/>
<text text-anchor="middle" x="218.99" y="-50.3" font-family="Times,serif" font-size="14.00">$16</text>
<text text-anchor="middle" x="218.99" y="-35.3" font-family="Times,serif" font-size="14.00">$dff</text>
<polyline fill="none" stroke="black" points="238.49,-23.5 238.49,-69.5 "/>
<text text-anchor="middle" x="251.49" y="-42.8" font-family="Times,serif" font-size="14.00">Q</text>
</g>
<!-- n10&#45;&gt;c32 -->
<g id="edge3" class="edge"><title>n10:e&#45;&gt;c32:p30:w</title>
<path fill="none" stroke="black" d="M87.7452,-225.5C129.086,-225.5 113.665,-64.5507 145.693,-38.1449"/>
<polygon fill="black" stroke="black" points="147.338,-41.2672 155.49,-34.5 144.898,-34.7065 147.338,-41.2672"/>
</g>
<!-- c33 -->
<g id="node19" class="node"><title>c33</title>
<polygon fill="none" stroke="black" points="155.49,-88.5 155.49,-134.5 264.49,-134.5 264.49,-88.5 155.49,-88.5"/>
<text text-anchor="middle" x="177.49" y="-119.3" font-family="Times,serif" font-size="14.00">CLK</text>
<polyline fill="none" stroke="black" points="155.49,-111.5 199.49,-111.5 "/>
<text text-anchor="middle" x="177.49" y="-96.3" font-family="Times,serif" font-size="14.00">D</text>
<polyline fill="none" stroke="black" points="199.49,-88.5 199.49,-134.5 "/>
<text text-anchor="middle" x="218.99" y="-115.3" font-family="Times,serif" font-size="14.00">$17</text>
<text text-anchor="middle" x="218.99" y="-100.3" font-family="Times,serif" font-size="14.00">$dff</text>
<polyline fill="none" stroke="black" points="238.49,-88.5 238.49,-134.5 "/>
<text text-anchor="middle" x="251.49" y="-107.8" font-family="Times,serif" font-size="14.00">Q</text>
</g>
<!-- n10&#45;&gt;c33 -->
<g id="edge4" class="edge"><title>n10:e&#45;&gt;c33:p30:w</title>
<path fill="none" stroke="black" d="M87.7452,-225.5C147.601,-225.5 98.45,-113.833 145.531,-100.747"/>
<polygon fill="black" stroke="black" points="146.003,-104.215 155.49,-99.5 145.133,-97.2697 146.003,-104.215"/>
</g>
<!-- x1 -->
<g id="node21" class="node"><title>x1</title>
<path fill="none" stroke="black" d="M224.99,-363.5C224.99,-363.5 194.99,-363.5 194.99,-363.5 188.99,-363.5 182.99,-357.5 182.99,-351.5 182.99,-351.5 182.99,-339.5 182.99,-339.5 182.99,-333.5 188.99,-327.5 194.99,-327.5 194.99,-327.5 224.99,-327.5 224.99,-327.5 230.99,-327.5 236.99,-333.5 236.99,-339.5 236.99,-339.5 236.99,-351.5 236.99,-351.5 236.99,-357.5 230.99,-363.5 224.99,-363.5"/>
<text text-anchor="middle" x="209.99" y="-341.8" font-family="Times,serif" font-size="14.00">BUF</text>
</g>
<!-- n10&#45;&gt;x1 -->
<g id="edge6" class="edge"><title>n10:e&#45;&gt;x1:w:w</title>
<path fill="none" stroke="black" d="M87.7452,-225.5C151.852,-225.5 118.375,-332.734 171.809,-344.463"/>
<polygon fill="black" stroke="black" points="171.687,-347.968 181.99,-345.5 172.397,-341.004 171.687,-347.968"/>
</g>
<!-- x8 -->
<g id="node28" class="node"><title>x8</title>
<path fill="none" stroke="black" d="M224.99,-189.5C224.99,-189.5 194.99,-189.5 194.99,-189.5 188.99,-189.5 182.99,-183.5 182.99,-177.5 182.99,-177.5 182.99,-165.5 182.99,-165.5 182.99,-159.5 188.99,-153.5 194.99,-153.5 194.99,-153.5 224.99,-153.5 224.99,-153.5 230.99,-153.5 236.99,-159.5 236.99,-165.5 236.99,-165.5 236.99,-177.5 236.99,-177.5 236.99,-183.5 230.99,-189.5 224.99,-189.5"/>
<text text-anchor="middle" x="209.99" y="-167.8" font-family="Times,serif" font-size="14.00">BUF</text>
</g>
<!-- n10&#45;&gt;x8 -->
<g id="edge7" class="edge"><title>n10:e&#45;&gt;x8:w:w</title>
<path fill="none" stroke="black" d="M87.7452,-225.5C132.249,-225.5 133.767,-179.608 171.554,-172.437"/>
<polygon fill="black" stroke="black" points="172.344,-175.881 181.99,-171.5 171.717,-168.909 172.344,-175.881"/>
</g>
<!-- x10 -->
<g id="node30" class="node"><title>x10</title>
<path fill="none" stroke="black" d="M224.99,-243.5C224.99,-243.5 194.99,-243.5 194.99,-243.5 188.99,-243.5 182.99,-237.5 182.99,-231.5 182.99,-231.5 182.99,-219.5 182.99,-219.5 182.99,-213.5 188.99,-207.5 194.99,-207.5 194.99,-207.5 224.99,-207.5 224.99,-207.5 230.99,-207.5 236.99,-213.5 236.99,-219.5 236.99,-219.5 236.99,-231.5 236.99,-231.5 236.99,-237.5 230.99,-243.5 224.99,-243.5"/>
<text text-anchor="middle" x="209.99" y="-221.8" font-family="Times,serif" font-size="14.00">BUF</text>
</g>
<!-- n10&#45;&gt;x10 -->
<g id="edge5" class="edge"><title>n10:e&#45;&gt;x10:w:w</title>
<path fill="none" stroke="black" d="M87.7452,-225.5C126.032,-225.5 138.072,-225.5 171.848,-225.5"/>
<polygon fill="black" stroke="black" points="171.99,-229 181.99,-225.5 171.99,-222 171.99,-229"/>
</g>
<!-- n11 -->
<g id="node3" class="node"><title>n11</title>
<polygon fill="none" stroke="black" points="86.7452,-83.0442 86.7452,-97.9558 70.929,-108.5 48.5615,-108.5 32.7452,-97.9558 32.7452,-83.0442 48.5615,-72.5 70.929,-72.5 86.7452,-83.0442"/>
<text text-anchor="middle" x="59.7452" y="-86.8" font-family="Times,serif" font-size="14.00">clk</text>
</g>
<!-- n11&#45;&gt;c32 -->
<g id="edge8" class="edge"><title>n11:e&#45;&gt;c32:p29:w</title>
<path fill="none" stroke="black" d="M87.7452,-90.5C117.272,-90.5 121.519,-65.3394 145.318,-59.6389"/>
<polygon fill="black" stroke="black" points="145.942,-63.091 155.49,-58.5 145.163,-56.1345 145.942,-63.091"/>
</g>
<!-- n11&#45;&gt;c33 -->
<g id="edge9" class="edge"><title>n11:e&#45;&gt;c33:p29:w</title>
<path fill="none" stroke="black" d="M87.7452,-90.5C117.443,-90.5 121.406,-116.447 145.273,-122.326"/>
<polygon fill="black" stroke="black" points="145.156,-125.835 155.49,-123.5 145.956,-118.881 145.156,-125.835"/>
</g>
<!-- n12 -->
<g id="node4" class="node"><title>n12</title>
<polygon fill="none" stroke="black" points="520.322,-510.5 470.553,-492.5 520.322,-474.5 570.091,-492.5 520.322,-510.5"/>
<text text-anchor="middle" x="520.322" y="-488.8" font-family="Times,serif" font-size="14.00">comb2</text>
</g>
<!-- x3 -->
<g id="node23" class="node"><title>x3</title>
<path fill="none" stroke="black" d="M647.956,-510.5C647.956,-510.5 617.956,-510.5 617.956,-510.5 611.956,-510.5 605.956,-504.5 605.956,-498.5 605.956,-498.5 605.956,-486.5 605.956,-486.5 605.956,-480.5 611.956,-474.5 617.956,-474.5 617.956,-474.5 647.956,-474.5 647.956,-474.5 653.956,-474.5 659.956,-480.5 659.956,-486.5 659.956,-486.5 659.956,-498.5 659.956,-498.5 659.956,-504.5 653.956,-510.5 647.956,-510.5"/>
<text text-anchor="middle" x="632.956" y="-488.8" font-family="Times,serif" font-size="14.00">BUF</text>
</g>
<!-- n12&#45;&gt;x3 -->
<g id="edge11" class="edge"><title>n12:e&#45;&gt;x3:w:w</title>
<path fill="none" stroke="black" d="M569.956,-492.5C581.956,-492.5 587.206,-492.5 595.831,-492.5"/>
<polygon fill="black" stroke="black" points="595.956,-496 605.956,-492.5 595.956,-489 595.956,-496"/>
</g>
<!-- n13 -->
<g id="node5" class="node"><title>n13</title>
<polygon fill="none" stroke="black" points="367.589,-657.5 317.82,-639.5 367.589,-621.5 417.358,-639.5 367.589,-657.5"/>
<text text-anchor="middle" x="367.589" y="-635.8" font-family="Times,serif" font-size="14.00">comb3</text>
</g>
<!-- x5 -->
<g id="node25" class="node"><title>x5</title>
<path fill="none" stroke="black" d="M535.322,-657.5C535.322,-657.5 505.322,-657.5 505.322,-657.5 499.322,-657.5 493.322,-651.5 493.322,-645.5 493.322,-645.5 493.322,-633.5 493.322,-633.5 493.322,-627.5 499.322,-621.5 505.322,-621.5 505.322,-621.5 535.322,-621.5 535.322,-621.5 541.322,-621.5 547.322,-627.5 547.322,-633.5 547.322,-633.5 547.322,-645.5 547.322,-645.5 547.322,-651.5 541.322,-657.5 535.322,-657.5"/>
<text text-anchor="middle" x="520.322" y="-635.8" font-family="Times,serif" font-size="14.00">BUF</text>
</g>
<!-- n13&#45;&gt;x5 -->
<g id="edge13" class="edge"><title>n13:e&#45;&gt;x5:w:w</title>
<path fill="none" stroke="black" d="M418.589,-639.5C447.647,-639.5 457.38,-639.5 482.06,-639.5"/>
<polygon fill="black" stroke="black" points="482.322,-643 492.322,-639.5 482.322,-636 482.322,-643"/>
</g>
<!-- n14 -->
<g id="node6" class="node"><title>n14</title>
<polygon fill="none" stroke="black" points="59.7452,-375.5 -0.246232,-357.5 59.7452,-339.5 119.737,-357.5 59.7452,-375.5"/>
<text text-anchor="middle" x="59.7452" y="-353.8" font-family="Times,serif" font-size="14.00">undriven</text>
</g>
<!-- n14&#45;&gt;c26 -->
<g id="edge14" class="edge"><title>n14:e&#45;&gt;c26:p22:w</title>
<path fill="none" stroke="black" d="M119.49,-357.5C147.861,-357.5 133.532,-311.562 151.228,-300.078"/>
<polygon fill="black" stroke="black" points="152.216,-303.437 160.99,-297.5 150.428,-296.669 152.216,-303.437"/>
</g>
<!-- n14&#45;&gt;c28 -->
<g id="edge15" class="edge"><title>n14:e&#45;&gt;c28:p22:w</title>
<path fill="none" stroke="black" d="M119.49,-357.5C148.905,-357.5 135.909,-403.849 155.053,-415.074"/>
<polygon fill="black" stroke="black" points="154.446,-418.528 164.99,-417.5 156.106,-411.728 154.446,-418.528"/>
</g>
<!-- n15 -->
<g id="node7" class="node"><title>n15</title>
<polygon fill="none" stroke="black" points="394.589,-72.0442 394.589,-86.9558 378.773,-97.5 356.405,-97.5 340.589,-86.9558 340.589,-72.0442 356.405,-61.5 378.773,-61.5 394.589,-72.0442"/>
<text text-anchor="middle" x="367.589" y="-75.8" font-family="Times,serif" font-size="14.00">z0</text>
</g>
<!-- n16 -->
<g id="node8" class="node"><title>n16</title>
<polygon fill="none" stroke="black" points="394.589,-341.044 394.589,-355.956 378.773,-366.5 356.405,-366.5 340.589,-355.956 340.589,-341.044 356.405,-330.5 378.773,-330.5 394.589,-341.044"/>
<text text-anchor="middle" x="367.589" y="-344.8" font-family="Times,serif" font-size="14.00">z1</text>
</g>
<!-- n17 -->
<g id="node9" class="node"><title>n17</title>
<polygon fill="none" stroke="black" points="749.956,-485.044 749.956,-499.956 734.14,-510.5 711.773,-510.5 695.956,-499.956 695.956,-485.044 711.773,-474.5 734.14,-474.5 749.956,-485.044"/>
<text text-anchor="middle" x="722.956" y="-488.8" font-family="Times,serif" font-size="14.00">z2</text>
</g>
<!-- c27 -->
<g id="node16" class="node"><title>c27</title>
<polygon fill="none" stroke="black" points="785.956,-496.5 785.956,-534.5 911.956,-534.5 911.956,-496.5 785.956,-496.5"/>
<text text-anchor="middle" x="798.956" y="-511.8" font-family="Times,serif" font-size="14.00">A</text>
<polyline fill="none" stroke="black" points="811.956,-496.5 811.956,-534.5 "/>
<text text-anchor="middle" x="848.956" y="-519.3" font-family="Times,serif" font-size="14.00">$3</text>
<text text-anchor="middle" x="848.956" y="-504.3" font-family="Times,serif" font-size="14.00">$logic_not</text>
<polyline fill="none" stroke="black" points="885.956,-496.5 885.956,-534.5 "/>
<text text-anchor="middle" x="898.956" y="-511.8" font-family="Times,serif" font-size="14.00">Y</text>
</g>
<!-- n17&#45;&gt;c27 -->
<g id="edge21" class="edge"><title>n17:e&#45;&gt;c27:p22:w</title>
<path fill="none" stroke="black" d="M749.956,-492.5C764.79,-492.5 766.83,-506.538 776.066,-512.68"/>
<polygon fill="black" stroke="black" points="775.38,-516.123 785.956,-515.5 777.3,-509.392 775.38,-516.123"/>
</g>
<!-- n18 -->
<g id="node10" class="node"><title>n18</title>
<polygon fill="none" stroke="black" points="659.956,-632.044 659.956,-646.956 644.14,-657.5 621.773,-657.5 605.956,-646.956 605.956,-632.044 621.773,-621.5 644.14,-621.5 659.956,-632.044"/>
<text text-anchor="middle" x="632.956" y="-635.8" font-family="Times,serif" font-size="14.00">z3</text>
</g>
<!-- n19 -->
<g id="node11" class="node"><title>n19</title>
<polygon fill="none" stroke="black" points="547.322,-398.044 547.322,-412.956 531.506,-423.5 509.138,-423.5 493.322,-412.956 493.322,-398.044 509.138,-387.5 531.506,-387.5 547.322,-398.044"/>
<text text-anchor="middle" x="520.322" y="-401.8" font-family="Times,serif" font-size="14.00">z4</text>
</g>
<!-- n20 -->
<g id="node12" class="node"><title>n20</title>
<polygon fill="none" stroke="black" points="547.322,-278.044 547.322,-292.956 531.506,-303.5 509.138,-303.5 493.322,-292.956 493.322,-278.044 509.138,-267.5 531.506,-267.5 547.322,-278.044"/>
<text text-anchor="middle" x="520.322" y="-281.8" font-family="Times,serif" font-size="14.00">z5</text>
</g>
<!-- n21 -->
<g id="node13" class="node"><title>n21</title>
<polygon fill="none" stroke="black" points="394.589,-164.044 394.589,-178.956 378.773,-189.5 356.405,-189.5 340.589,-178.956 340.589,-164.044 356.405,-153.5 378.773,-153.5 394.589,-164.044"/>
<text text-anchor="middle" x="367.589" y="-167.8" font-family="Times,serif" font-size="14.00">z6</text>
</g>
<!-- x2 -->
<g id="node22" class="node"><title>x2</title>
<path fill="none" stroke="black" d="M382.589,-510.5C382.589,-510.5 352.589,-510.5 352.589,-510.5 346.589,-510.5 340.589,-504.5 340.589,-498.5 340.589,-498.5 340.589,-486.5 340.589,-486.5 340.589,-480.5 346.589,-474.5 352.589,-474.5 352.589,-474.5 382.589,-474.5 382.589,-474.5 388.589,-474.5 394.589,-480.5 394.589,-486.5 394.589,-486.5 394.589,-498.5 394.589,-498.5 394.589,-504.5 388.589,-510.5 382.589,-510.5"/>
<text text-anchor="middle" x="367.589" y="-488.8" font-family="Times,serif" font-size="14.00">BUF</text>
</g>
<!-- c25&#45;&gt;x2 -->
<g id="edge28" class="edge"><title>c25:p24:e&#45;&gt;x2:w:w</title>
<path fill="none" stroke="black" d="M258.99,-525.5C294.069,-525.5 299.972,-498.397 329.581,-493.316"/>
<polygon fill="black" stroke="black" points="329.906,-496.801 339.589,-492.5 329.338,-489.824 329.906,-496.801"/>
</g>
<!-- x7 -->
<g id="node27" class="node"><title>x7</title>
<path fill="none" stroke="black" d="M382.589,-303.5C382.589,-303.5 352.589,-303.5 352.589,-303.5 346.589,-303.5 340.589,-297.5 340.589,-291.5 340.589,-291.5 340.589,-279.5 340.589,-279.5 340.589,-273.5 346.589,-267.5 352.589,-267.5 352.589,-267.5 382.589,-267.5 382.589,-267.5 388.589,-267.5 394.589,-273.5 394.589,-279.5 394.589,-279.5 394.589,-291.5 394.589,-291.5 394.589,-297.5 388.589,-303.5 382.589,-303.5"/>
<text text-anchor="middle" x="367.589" y="-281.8" font-family="Times,serif" font-size="14.00">BUF</text>
</g>
<!-- c26&#45;&gt;x7 -->
<g id="edge29" class="edge"><title>c26:p24:e&#45;&gt;x7:w:w</title>
<path fill="none" stroke="black" d="M258.99,-285.5C291.174,-285.5 301.671,-285.5 329.45,-285.5"/>
<polygon fill="black" stroke="black" points="329.589,-289 339.589,-285.5 329.589,-282 329.589,-289"/>
</g>
<!-- c27&#45;&gt;c25 -->
<g id="edge30" class="edge"><title>c27:p24:e&#45;&gt;c25:p22:w</title>
<path fill="none" stroke="black" d="M912.956,-515.5C921.634,-515.5 918.21,-528.983 911.956,-535 822.911,-620.669 757.522,-538.5 633.956,-538.5 519.322,-538.5 519.322,-538.5 519.322,-538.5 402.859,-538.5 373.93,-546.666 257.49,-549 236.272,-549.425 177.633,-563.342 161.99,-549 161.518,-548.567 161.067,-548.062 160.651,-547.51"/>
<polygon fill="black" stroke="black" points="164.15,-547.613 160.99,-537.5 157.154,-547.376 164.15,-547.613"/>
</g>
<!-- x6 -->
<g id="node26" class="node"><title>x6</title>
<path fill="none" stroke="black" d="M382.589,-423.5C382.589,-423.5 352.589,-423.5 352.589,-423.5 346.589,-423.5 340.589,-417.5 340.589,-411.5 340.589,-411.5 340.589,-399.5 340.589,-399.5 340.589,-393.5 346.589,-387.5 352.589,-387.5 352.589,-387.5 382.589,-387.5 382.589,-387.5 388.589,-387.5 394.589,-393.5 394.589,-399.5 394.589,-399.5 394.589,-411.5 394.589,-411.5 394.589,-417.5 388.589,-423.5 382.589,-423.5"/>
<text text-anchor="middle" x="367.589" y="-401.8" font-family="Times,serif" font-size="14.00">BUF</text>
</g>
<!-- c28&#45;&gt;x6 -->
<g id="edge34" class="edge"><title>c28:p24:e&#45;&gt;x6:w:w</title>
<path fill="none" stroke="black" d="M254.99,-405.5C288.918,-405.5 299.885,-405.5 329.328,-405.5"/>
<polygon fill="black" stroke="black" points="329.589,-409 339.589,-405.5 329.589,-402 329.589,-409"/>
</g>
<!-- c32&#45;&gt;n15 -->
<g id="edge16" class="edge"><title>c32:p31:e&#45;&gt;n15:w</title>
<path fill="none" stroke="black" d="M264.49,-46.5C297.245,-46.5 302.334,-73.1373 329.47,-78.548"/>
<polygon fill="black" stroke="black" points="329.305,-82.0478 339.589,-79.5 329.961,-75.0786 329.305,-82.0478"/>
</g>
<!-- c33&#45;&gt;n15 -->
<g id="edge17" class="edge"><title>c33:p31:e&#45;&gt;n15:w</title>
<path fill="none" stroke="black" d="M264.49,-111.5C297.087,-111.5 302.445,-85.6699 329.508,-80.4232"/>
<polygon fill="black" stroke="black" points="329.95,-83.8975 339.589,-79.5 329.311,-76.9266 329.95,-83.8975"/>
</g>
<!-- x0&#45;&gt;n16 -->
<g id="edge18" class="edge"><title>x0:e:e&#45;&gt;n16:w</title>
<path fill="none" stroke="black" d="M237.99,-465.5C303.228,-465.5 274.239,-360.514 329.539,-349.442"/>
<polygon fill="black" stroke="black" points="329.959,-352.918 339.589,-348.5 329.306,-345.948 329.959,-352.918"/>
</g>
<!-- x1&#45;&gt;n16 -->
<g id="edge19" class="edge"><title>x1:e:e&#45;&gt;n16:w</title>
<path fill="none" stroke="black" d="M237.99,-345.5C279.459,-345.5 292.34,-348.028 329.119,-348.443"/>
<polygon fill="black" stroke="black" points="329.57,-351.945 339.589,-348.5 329.608,-344.945 329.57,-351.945"/>
</g>
<!-- x2&#45;&gt;n12 -->
<g id="edge10" class="edge"><title>x2:e:e&#45;&gt;n12:w</title>
<path fill="none" stroke="black" d="M395.589,-492.5C425.315,-492.5 435.186,-492.5 460.568,-492.5"/>
<polygon fill="black" stroke="black" points="460.687,-496 470.687,-492.5 460.687,-489 460.687,-496"/>
</g>
<!-- x3&#45;&gt;n17 -->
<g id="edge20" class="edge"><title>x3:e:e&#45;&gt;n17:w</title>
<path fill="none" stroke="black" d="M659.956,-492.5C671.956,-492.5 677.206,-492.5 685.831,-492.5"/>
<polygon fill="black" stroke="black" points="685.956,-496 695.956,-492.5 685.956,-489 685.956,-496"/>
</g>
<!-- x4 -->
<g id="node24" class="node"><title>x4</title>
<path fill="none" stroke="black" d="M224.99,-657.5C224.99,-657.5 194.99,-657.5 194.99,-657.5 188.99,-657.5 182.99,-651.5 182.99,-645.5 182.99,-645.5 182.99,-633.5 182.99,-633.5 182.99,-627.5 188.99,-621.5 194.99,-621.5 194.99,-621.5 224.99,-621.5 224.99,-621.5 230.99,-621.5 236.99,-627.5 236.99,-633.5 236.99,-633.5 236.99,-645.5 236.99,-645.5 236.99,-651.5 230.99,-657.5 224.99,-657.5"/>
<text text-anchor="middle" x="209.99" y="-635.8" font-family="Times,serif" font-size="14.00">BUF</text>
</g>
<!-- x4&#45;&gt;n13 -->
<g id="edge12" class="edge"><title>x4:e:e&#45;&gt;n13:w</title>
<path fill="none" stroke="black" d="M237.99,-639.5C269.239,-639.5 279.523,-639.5 306.349,-639.5"/>
<polygon fill="black" stroke="black" points="306.589,-643 316.589,-639.5 306.589,-636 306.589,-643"/>
</g>
<!-- x5&#45;&gt;n18 -->
<g id="edge22" class="edge"><title>x5:e:e&#45;&gt;n18:w</title>
<path fill="none" stroke="black" d="M548.322,-639.5C570.135,-639.5 578.017,-639.5 595.694,-639.5"/>
<polygon fill="black" stroke="black" points="595.956,-643 605.956,-639.5 595.956,-636 595.956,-643"/>
</g>
<!-- x6&#45;&gt;n19 -->
<g id="edge23" class="edge"><title>x6:e:e&#45;&gt;n19:w</title>
<path fill="none" stroke="black" d="M395.589,-405.5C434.887,-405.5 447.244,-405.5 481.911,-405.5"/>
<polygon fill="black" stroke="black" points="482.322,-409 492.322,-405.5 482.322,-402 482.322,-409"/>
</g>
<!-- x7&#45;&gt;n20 -->
<g id="edge25" class="edge"><title>x7:e:e&#45;&gt;n20:w</title>
<path fill="none" stroke="black" d="M395.589,-285.5C434.887,-285.5 447.244,-285.5 481.911,-285.5"/>
<polygon fill="black" stroke="black" points="482.322,-289 492.322,-285.5 482.322,-282 482.322,-289"/>
</g>
<!-- x8&#45;&gt;n21 -->
<g id="edge26" class="edge"><title>x8:e:e&#45;&gt;n21:w</title>
<path fill="none" stroke="black" d="M237.99,-171.5C279.441,-171.5 292.354,-171.5 329.123,-171.5"/>
<polygon fill="black" stroke="black" points="329.589,-175 339.589,-171.5 329.589,-168 329.589,-175"/>
</g>
<!-- n2 -->
<g id="node32" class="node"><title>n2</title>
<polygon fill="none" stroke="black" points="367.589,-603.5 300.392,-585.5 367.589,-567.5 434.786,-585.5 367.589,-603.5"/>
<text text-anchor="middle" x="367.589" y="-581.8" font-family="Times,serif" font-size="14.00">$0\z0[0:0]</text>
</g>
<!-- x9&#45;&gt;n2 -->
<g id="edge24" class="edge"><title>x9:e:e&#45;&gt;n2:w</title>
<path fill="none" stroke="black" d="M237.99,-585.5C262.079,-585.5 270.501,-585.5 290.428,-585.5"/>
<polygon fill="black" stroke="black" points="290.49,-589 300.49,-585.5 290.49,-582 290.49,-589"/>
</g>
<!-- n3 -->
<g id="node33" class="node"><title>n3</title>
<polygon fill="none" stroke="black" points="367.589,-243.5 300.392,-225.5 367.589,-207.5 434.786,-225.5 367.589,-243.5"/>
<text text-anchor="middle" x="367.589" y="-221.8" font-family="Times,serif" font-size="14.00">$1\z0[0:0]</text>
</g>
<!-- x10&#45;&gt;n3 -->
<g id="edge27" class="edge"><title>x10:e:e&#45;&gt;n3:w</title>
<path fill="none" stroke="black" d="M237.99,-225.5C262.079,-225.5 270.501,-225.5 290.428,-225.5"/>
<polygon fill="black" stroke="black" points="290.49,-229 300.49,-225.5 290.49,-222 290.49,-229"/>
</g>
<!-- x11 -->
<g id="node31" class="node"><title>x11</title>
<path fill="none" stroke="black" d="M224.99,-711.5C224.99,-711.5 194.99,-711.5 194.99,-711.5 188.99,-711.5 182.99,-705.5 182.99,-699.5 182.99,-699.5 182.99,-687.5 182.99,-687.5 182.99,-681.5 188.99,-675.5 194.99,-675.5 194.99,-675.5 224.99,-675.5 224.99,-675.5 230.99,-675.5 236.99,-681.5 236.99,-687.5 236.99,-687.5 236.99,-699.5 236.99,-699.5 236.99,-705.5 230.99,-711.5 224.99,-711.5"/>
<text text-anchor="middle" x="209.99" y="-689.8" font-family="Times,serif" font-size="14.00">BUF</text>
</g>
<!-- n7 -->
<g id="node34" class="node"><title>n7</title>
<ellipse fill="black" stroke="black" cx="59.7452" cy="-693.5" rx="1.8" ry="1.8"/>
</g>
<!-- x11&#45;&gt;n7 -->
<g id="edge31" class="edge"><title>x11:e:e&#45;&gt;n7:w</title>
<path fill="none" stroke="black" d="M237.99,-693.5C246.003,-693.5 242.811,-705.994 236.99,-711.5 219.556,-727.993 206.941,-713.043 182.99,-711.5 130.85,-708.142 19.3869,-695.678 46.6927,-693.751"/>
<polygon fill="black" stroke="black" points="46.8357,-697.249 56.7452,-693.5 46.661,-690.251 46.8357,-697.249"/>
</g>
<!-- n7&#45;&gt;x4 -->
<g id="edge33" class="edge"><title>n7:e&#45;&gt;x4:w:w</title>
<path fill="none" stroke="black" d="M62.7452,-693.5C117.401,-693.5 123.259,-645.841 172.006,-640.07"/>
<polygon fill="black" stroke="black" points="172.206,-643.564 181.99,-639.5 171.807,-636.576 172.206,-643.564"/>
</g>
<!-- n7&#45;&gt;x11 -->
<g id="edge32" class="edge"><title>n7:e&#45;&gt;x11:w:w</title>
<path fill="none" stroke="black" d="M62.7452,-693.5C112.224,-693.5 127.058,-693.5 171.935,-693.5"/>
<polygon fill="black" stroke="black" points="171.99,-697 181.99,-693.5 171.99,-690 171.99,-697"/>
</g>
</g>
</svg>
