<?xml version="1.0" encoding="UTF-8" standalone="no"?>
<!DOCTYPE svg PUBLIC "-//W3C//DTD SVG 1.1//EN"
 "http://www.w3.org/Graphics/SVG/1.1/DTD/svg11.dtd">
<!-- Generated by graphviz version 2.38.0 (20140413.2041)
 -->
<!-- Title: check_fails_design Pages: 1 -->
<svg width="953pt" height="707pt"
 viewBox="0.00 0.00 953.06 707.00" xmlns="http://www.w3.org/2000/svg" xmlns:xlink="http://www.w3.org/1999/xlink">
<g id="graph0" class="graph" transform="scale(1 1) rotate(0) translate(4 703)">
<title>check_fails_design</title>
<polygon fill="white" stroke="none" points="-4,4 -4,-703 949.063,-703 949.063,4 -4,4"/>
<text text-anchor="middle" x="472.532" y="-7.8" font-family="Times,serif" font-size="14.00">check_fails_design</text>
<!-- n9 -->
<g id="node1" class="node"><title>n9</title>
<polygon fill="none" stroke="black" points="86.7452,-506.044 86.7452,-520.956 70.929,-531.5 48.5615,-531.5 32.7452,-520.956 32.7452,-506.044 48.5615,-495.5 70.929,-495.5 86.7452,-506.044"/>
<text text-anchor="middle" x="59.7452" y="-509.8" font-family="Times,serif" font-size="14.00">a</text>
</g>
<!-- c25 -->
<g id="node14" class="node"><title>c25</title>
<polygon fill="none" stroke="black" points="162.49,-502.5 162.49,-548.5 257.49,-548.5 257.49,-502.5 162.49,-502.5"/>
<text text-anchor="middle" x="175.49" y="-533.3" font-family="Times,serif" font-size="14.00">A</text>
<polyline fill="none" stroke="black" points="162.49,-525.5 188.49,-525.5 "/>
<text text-anchor="middle" x="175.49" y="-510.3" font-family="Times,serif" font-size="14.00">B</text>
<polyline fill="none" stroke="black" points="188.49,-502.5 188.49,-548.5 "/>
<text text-anchor="middle" x="209.99" y="-529.3" font-family="Times,serif" font-size="14.00">$4</text>
<text text-anchor="middle" x="209.99" y="-514.3" font-family="Times,serif" font-size="14.00">$and</text>
<polyline fill="none" stroke="black" points="231.49,-502.5 231.49,-548.5 "/>
<text text-anchor="middle" x="244.49" y="-521.8" font-family="Times,serif" font-size="14.00">Y</text>
</g>
<!-- n9&#45;&gt;c25 -->
<g id="edge34" class="edge"><title>n9:e&#45;&gt;c25:p23:w</title>
<path fill="none" stroke="black" d="M87.7452,-513.5C116.611,-513.5 126.28,-513.5 150.796,-513.5"/>
<polygon fill="black" stroke="black" points="150.99,-517 160.99,-513.5 150.99,-510 150.99,-517"/>
</g>
<!-- x0 -->
<g id="node21" class="node"><title>x0</title>
<path fill="none" stroke="black" d="M224.99,-483.5C224.99,-483.5 194.99,-483.5 194.99,-483.5 188.99,-483.5 182.99,-477.5 182.99,-471.5 182.99,-471.5 182.99,-459.5 182.99,-459.5 182.99,-453.5 188.99,-447.5 194.99,-447.5 194.99,-447.5 224.99,-447.5 224.99,-447.5 230.99,-447.5 236.99,-453.5 236.99,-459.5 236.99,-459.5 236.99,-471.5 236.99,-471.5 236.99,-477.5 230.99,-483.5 224.99,-483.5"/>
<text text-anchor="middle" x="209.99" y="-461.8" font-family="Times,serif" font-size="14.00">BUF</text>
</g>
<!-- n9&#45;&gt;x0 -->
<g id="edge35" class="edge"><title>n9:e&#45;&gt;x0:w:w</title>
<path fill="none" stroke="black" d="M87.7452,-513.5C131.079,-513.5 134.662,-472.707 171.785,-466.333"/>
<polygon fill="black" stroke="black" points="172.308,-469.802 181.99,-465.5 171.739,-462.825 172.308,-469.802"/>
</g>
<!-- x9 -->
<g id="node30" class="node"><title>x9</title>
<path fill="none" stroke="black" d="M224.99,-603.5C224.99,-603.5 194.99,-603.5 194.99,-603.5 188.99,-603.5 182.99,-597.5 182.99,-591.5 182.99,-591.5 182.99,-579.5 182.99,-579.5 182.99,-573.5 188.99,-567.5 194.99,-567.5 194.99,-567.5 224.99,-567.5 224.99,-567.5 230.99,-567.5 236.99,-573.5 236.99,-579.5 236.99,-579.5 236.99,-591.5 236.99,-591.5 236.99,-597.5 230.99,-603.5 224.99,-603.5"/>
<text text-anchor="middle" x="209.99" y="-581.8" font-family="Times,serif" font-size="14.00">BUF</text>
</g>
<!-- n9&#45;&gt;x9 -->
<g id="edge36" class="edge"><title>n9:e&#45;&gt;x9:w:w</title>
<path fill="none" stroke="black" d="M87.7452,-513.5C136.853,-513.5 130.509,-575.993 172.035,-584.537"/>
<polygon fill="black" stroke="black" points="171.7,-588.02 181.99,-585.5 172.374,-581.053 171.7,-588.02"/>
</g>
<!-- n10 -->
<g id="node2" class="node"><title>n10</title>
<polygon fill="none" stroke="black" points="86.7452,-218.044 86.7452,-232.956 70.929,-243.5 48.5615,-243.5 32.7452,-232.956 32.7452,-218.044 48.5615,-207.5 70.929,-207.5 86.7452,-218.044"/>
<text text-anchor="middle" x="59.7452" y="-221.8" font-family="Times,serif" font-size="14.00">b</text>
</g>
<!-- c26 -->
<g id="node15" class="node"><title>c26</title>
<polygon fill="none" stroke="black" points="162.49,-262.5 162.49,-308.5 257.49,-308.5 257.49,-262.5 162.49,-262.5"/>
<text text-anchor="middle" x="175.49" y="-293.3" font-family="Times,serif" font-size="14.00">A</text>
<polyline fill="none" stroke="black" points="162.49,-285.5 188.49,-285.5 "/>
<text text-anchor="middle" x="175.49" y="-270.3" font-family="Times,serif" font-size="14.00">B</text>
<polyline fill="none" stroke="black" points="188.49,-262.5 188.49,-308.5 "/>
<text text-anchor="middle" x="209.99" y="-289.3" font-family="Times,serif" font-size="14.00">$7</text>
<text text-anchor="middle" x="209.99" y="-274.3" font-family="Times,serif" font-size="14.00">$and</text>
<polyline fill="none" stroke="black" points="231.49,-262.5 231.49,-308.5 "/>
<text text-anchor="middle" x="244.49" y="-281.8" font-family="Times,serif" font-size="14.00">Y</text>
</g>
<!-- n10&#45;&gt;c26 -->
<g id="edge1" class="edge"><title>n10:e&#45;&gt;c26:p23:w</title>
<path fill="none" stroke="black" d="M87.7452,-225.5C122.865,-225.5 122.552,-264.583 150.752,-272.216"/>
<polygon fill="black" stroke="black" points="150.633,-275.729 160.99,-273.5 151.504,-268.783 150.633,-275.729"/>
</g>
<!-- c29 -->
<g id="node18" class="node"><title>c29</title>
<polygon fill="none" stroke="black" points="166.49,-382.5 166.49,-428.5 253.49,-428.5 253.49,-382.5 166.49,-382.5"/>
<text text-anchor="middle" x="179.49" y="-413.3" font-family="Times,serif" font-size="14.00">A</text>
<polyline fill="none" stroke="black" points="166.49,-405.5 192.49,-405.5 "/>
<text text-anchor="middle" x="179.49" y="-390.3" font-family="Times,serif" font-size="14.00">B</text>
<polyline fill="none" stroke="black" points="192.49,-382.5 192.49,-428.5 "/>
<text text-anchor="middle" x="209.99" y="-409.3" font-family="Times,serif" font-size="14.00">$6</text>
<text text-anchor="middle" x="209.99" y="-394.3" font-family="Times,serif" font-size="14.00">$or</text>
<polyline fill="none" stroke="black" points="227.49,-382.5 227.49,-428.5 "/>
<text text-anchor="middle" x="240.49" y="-401.8" font-family="Times,serif" font-size="14.00">Y</text>
</g>
<!-- n10&#45;&gt;c29 -->
<g id="edge2" class="edge"><title>n10:e&#45;&gt;c29:p23:w</title>
<path fill="none" stroke="black" d="M87.7452,-225.5C166.235,-225.5 90.2946,-378.745 154.909,-392.513"/>
<polygon fill="black" stroke="black" points="154.697,-396.009 164.99,-393.5 155.379,-389.043 154.697,-396.009"/>
</g>
<!-- c33 -->
<g id="node19" class="node"><title>c33</title>
<polygon fill="none" stroke="black" points="155.49,-23.5 155.49,-69.5 264.49,-69.5 264.49,-23.5 155.49,-23.5"/>
<text text-anchor="middle" x="177.49" y="-54.3" font-family="Times,serif" font-size="14.00">CLK</text>
<polyline fill="none" stroke="black" points="155.49,-46.5 199.49,-46.5 "/>
<text text-anchor="middle" x="177.49" y="-31.3" font-family="Times,serif" font-size="14.00">D</text>
<polyline fill="none" stroke="black" points="199.49,-23.5 199.49,-69.5 "/>
<text text-anchor="middle" x="218.99" y="-50.3" font-family="Times,serif" font-size="14.00">$16</text>
<text text-anchor="middle" x="218.99" y="-35.3" font-family="Times,serif" font-size="14.00">$dff</text>
<polyline fill="none" stroke="black" points="238.49,-23.5 238.49,-69.5 "/>
<text text-anchor="middle" x="251.49" y="-42.8" font-family="Times,serif" font-size="14.00">Q</text>
</g>
<!-- n10&#45;&gt;c33 -->
<g id="edge3" class="edge"><title>n10:e&#45;&gt;c33:p31:w</title>
<path fill="none" stroke="black" d="M87.7452,-225.5C129.086,-225.5 113.665,-64.5507 145.693,-38.1449"/>
<polygon fill="black" stroke="black" points="147.338,-41.2672 155.49,-34.5 144.898,-34.7065 147.338,-41.2672"/>
</g>
<!-- c34 -->
<g id="node20" class="node"><title>c34</title>
<polygon fill="none" stroke="black" points="155.49,-88.5 155.49,-134.5 264.49,-134.5 264.49,-88.5 155.49,-88.5"/>
<text text-anchor="middle" x="177.49" y="-119.3" font-family="Times,serif" font-size="14.00">CLK</text>
<polyline fill="none" stroke="black" points="155.49,-111.5 199.49,-111.5 "/>
<text text-anchor="middle" x="177.49" y="-96.3" font-family="Times,serif" font-size="14.00">D</text>
<polyline fill="none" stroke="black" points="199.49,-88.5 199.49,-134.5 "/>
<text text-anchor="middle" x="218.99" y="-115.3" font-family="Times,serif" font-size="14.00">$17</text>
<text text-anchor="middle" x="218.99" y="-100.3" font-family="Times,serif" font-size="14.00">$dff</text>
<polyline fill="none" stroke="black" points="238.49,-88.5 238.49,-134.5 "/>
<text text-anchor="middle" x="251.49" y="-107.8" font-family="Times,serif" font-size="14.00">Q</text>
</g>
<!-- n10&#45;&gt;c34 -->
<g id="edge4" class="edge"><title>n10:e&#45;&gt;c34:p31:w</title>
<path fill="none" stroke="black" d="M87.7452,-225.5C147.601,-225.5 98.45,-113.833 145.531,-100.747"/>
<polygon fill="black" stroke="black" points="146.003,-104.215 155.49,-99.5 145.133,-97.2697 146.003,-104.215"/>
</g>
<!-- x1 -->
<g id="node22" class="node"><title>x1</title>
<path fill="none" stroke="black" d="M224.99,-363.5C224.99,-363.5 194.99,-363.5 194.99,-363.5 188.99,-363.5 182.99,-357.5 182.99,-351.5 182.99,-351.5 182.99,-339.5 182.99,-339.5 182.99,-333.5 188.99,-327.5 194.99,-327.5 194.99,-327.5 224.99,-327.5 224.99,-327.5 230.99,-327.5 236.99,-333.5 236.99,-339.5 236.99,-339.5 236.99,-351.5 236.99,-351.5 236.99,-357.5 230.99,-363.5 224.99,-363.5"/>
<text text-anchor="middle" x="209.99" y="-341.8" font-family="Times,serif" font-size="14.00">BUF</text>
</g>
<!-- n10&#45;&gt;x1 -->
<g id="edge6" class="edge"><title>n10:e&#45;&gt;x1:w:w</title>
<path fill="none" stroke="black" d="M87.7452,-225.5C151.852,-225.5 118.375,-332.734 171.809,-344.463"/>
<polygon fill="black" stroke="black" points="171.687,-347.968 181.99,-345.5 172.397,-341.004 171.687,-347.968"/>
</g>
<!-- x8 -->
<g id="node29" class="node"><title>x8</title>
<path fill="none" stroke="black" d="M224.99,-189.5C224.99,-189.5 194.99,-189.5 194.99,-189.5 188.99,-189.5 182.99,-183.5 182.99,-177.5 182.99,-177.5 182.99,-165.5 182.99,-165.5 182.99,-159.5 188.99,-153.5 194.99,-153.5 194.99,-153.5 224.99,-153.5 224.99,-153.5 230.99,-153.5 236.99,-159.5 236.99,-165.5 236.99,-165.5 236.99,-177.5 236.99,-177.5 236.99,-183.5 230.99,-189.5 224.99,-189.5"/>
<text text-anchor="middle" x="209.99" y="-167.8" font-family="Times,serif" font-size="14.00">BUF</text>
</g>
<!-- n10&#45;&gt;x8 -->
<g id="edge7" class="edge"><title>n10:e&#45;&gt;x8:w:w</title>
<path fill="none" stroke="black" d="M87.7452,-225.5C132.249,-225.5 133.767,-179.608 171.554,-172.437"/>
<polygon fill="black" stroke="black" points="172.344,-175.881 181.99,-171.5 171.717,-168.909 172.344,-175.881"/>
</g>
<!-- x10 -->
<g id="node31" class="node"><title>x10</title>
<path fill="none" stroke="black" d="M224.99,-243.5C224.99,-243.5 194.99,-243.5 194.99,-243.5 188.99,-243.5 182.99,-237.5 182.99,-231.5 182.99,-231.5 182.99,-219.5 182.99,-219.5 182.99,-213.5 188.99,-207.5 194.99,-207.5 194.99,-207.5 224.99,-207.5 224.99,-207.5 230.99,-207.5 236.99,-213.5 236.99,-219.5 236.99,-219.5 236.99,-231.5 236.99,-231.5 236.99,-237.5 230.99,-243.5 224.99,-243.5"/>
<text text-anchor="middle" x="209.99" y="-221.8" font-family="Times,serif" font-size="14.00">BUF</text>
</g>
<!-- n10&#45;&gt;x10 -->
<g id="edge5" class="edge"><title>n10:e&#45;&gt;x10:w:w</title>
<path fill="none" stroke="black" d="M87.7452,-225.5C126.032,-225.5 138.072,-225.5 171.848,-225.5"/>
<polygon fill="black" stroke="black" points="171.99,-229 181.99,-225.5 171.99,-222 171.99,-229"/>
</g>
<!-- n11 -->
<g id="node3" class="node"><title>n11</title>
<polygon fill="none" stroke="black" points="86.7452,-84.0442 86.7452,-98.9558 70.929,-109.5 48.5615,-109.5 32.7452,-98.9558 32.7452,-84.0442 48.5615,-73.5 70.929,-73.5 86.7452,-84.0442"/>
<text text-anchor="middle" x="59.7452" y="-87.8" font-family="Times,serif" font-size="14.00">clk</text>
</g>
<!-- n11&#45;&gt;c33 -->
<g id="edge8" class="edge"><title>n11:e&#45;&gt;c33:p30:w</title>
<path fill="none" stroke="black" d="M87.7452,-91.5C117.443,-91.5 121.406,-65.5531 145.273,-59.6745"/>
<polygon fill="black" stroke="black" points="145.956,-63.1192 155.49,-58.5 145.156,-56.165 145.956,-63.1192"/>
</g>
<!-- n11&#45;&gt;c34 -->
<g id="edge9" class="edge"><title>n11:e&#45;&gt;c34:p30:w</title>
<path fill="none" stroke="black" d="M87.7452,-91.5C117.272,-91.5 121.519,-116.661 145.318,-122.361"/>
<polygon fill="black" stroke="black" points="145.163,-125.866 155.49,-123.5 145.942,-118.909 145.163,-125.866"/>
</g>
<!-- n12 -->
<g id="node4" class="node"><title>n12</title>
<polygon fill="none" stroke="black" points="533.687,-510.5 483.918,-492.5 533.687,-474.5 583.457,-492.5 533.687,-510.5"/>
<text text-anchor="middle" x="533.687" y="-488.8" font-family="Times,serif" font-size="14.00">comb2</text>
</g>
<!-- x3 -->
<g id="node24" class="node"><title>x3</title>
<path fill="none" stroke="black" d="M674.687,-510.5C674.687,-510.5 644.687,-510.5 644.687,-510.5 638.687,-510.5 632.687,-504.5 632.687,-498.5 632.687,-498.5 632.687,-486.5 632.687,-486.5 632.687,-480.5 638.687,-474.5 644.687,-474.5 644.687,-474.5 674.687,-474.5 674.687,-474.5 680.687,-474.5 686.687,-480.5 686.687,-486.5 686.687,-486.5 686.687,-498.5 686.687,-498.5 686.687,-504.5 680.687,-510.5 674.687,-510.5"/>
<text text-anchor="middle" x="659.687" y="-488.8" font-family="Times,serif" font-size="14.00">BUF</text>
</g>
<!-- n12&#45;&gt;x3 -->
<g id="edge11" class="edge"><title>n12:e&#45;&gt;x3:w:w</title>
<path fill="none" stroke="black" d="M584.687,-492.5C602.187,-492.5 608.921,-492.5 622.552,-492.5"/>
<polygon fill="black" stroke="black" points="622.687,-496 632.687,-492.5 622.687,-489 622.687,-496"/>
</g>
<!-- n13 -->
<g id="node5" class="node"><title>n13</title>
<polygon fill="none" stroke="black" points="59.7452,-672.5 9.97587,-654.5 59.7452,-636.5 109.515,-654.5 59.7452,-672.5"/>
<text text-anchor="middle" x="59.7452" y="-650.8" font-family="Times,serif" font-size="14.00">comb3</text>
</g>
<!-- x5 -->
<g id="node26" class="node"><title>x5</title>
<path fill="none" stroke="black" d="M224.99,-696.5C224.99,-696.5 194.99,-696.5 194.99,-696.5 188.99,-696.5 182.99,-690.5 182.99,-684.5 182.99,-684.5 182.99,-672.5 182.99,-672.5 182.99,-666.5 188.99,-660.5 194.99,-660.5 194.99,-660.5 224.99,-660.5 224.99,-660.5 230.99,-660.5 236.99,-666.5 236.99,-672.5 236.99,-672.5 236.99,-684.5 236.99,-684.5 236.99,-690.5 230.99,-696.5 224.99,-696.5"/>
<text text-anchor="middle" x="209.99" y="-674.8" font-family="Times,serif" font-size="14.00">BUF</text>
</g>
<!-- n13&#45;&gt;x5 -->
<g id="edge13" class="edge"><title>n13:e&#45;&gt;x5:w:w</title>
<path fill="none" stroke="black" d="M110.745,-654.5C140.504,-654.5 147.264,-673.537 171.992,-677.701"/>
<polygon fill="black" stroke="black" points="171.744,-681.193 181.99,-678.5 172.301,-674.215 171.744,-681.193"/>
</g>
<!-- n14 -->
<g id="node6" class="node"><title>n14</title>
<polygon fill="none" stroke="black" points="59.7452,-375.5 -0.246232,-357.5 59.7452,-339.5 119.737,-357.5 59.7452,-375.5"/>
<text text-anchor="middle" x="59.7452" y="-353.8" font-family="Times,serif" font-size="14.00">undriven</text>
</g>
<!-- n14&#45;&gt;c26 -->
<g id="edge14" class="edge"><title>n14:e&#45;&gt;c26:p22:w</title>
<path fill="none" stroke="black" d="M119.49,-357.5C147.861,-357.5 133.532,-311.562 151.228,-300.078"/>
<polygon fill="black" stroke="black" points="152.216,-303.437 160.99,-297.5 150.428,-296.669 152.216,-303.437"/>
</g>
<!-- n14&#45;&gt;c29 -->
<g id="edge15" class="edge"><title>n14:e&#45;&gt;c29:p22:w</title>
<path fill="none" stroke="black" d="M119.49,-357.5C148.905,-357.5 135.909,-403.849 155.053,-415.074"/>
<polygon fill="black" stroke="black" points="154.446,-418.528 164.99,-417.5 156.106,-411.728 154.446,-418.528"/>
</g>
<!-- n15 -->
<g id="node7" class="node"><title>n15</title>
<polygon fill="none" stroke="black" points="394.589,-71.0442 394.589,-85.9558 378.773,-96.5 356.405,-96.5 340.589,-85.9558 340.589,-71.0442 356.405,-60.5 378.773,-60.5 394.589,-71.0442"/>
<text text-anchor="middle" x="367.589" y="-74.8" font-family="Times,serif" font-size="14.00">z0</text>
</g>
<!-- n16 -->
<g id="node8" class="node"><title>n16</title>
<polygon fill="none" stroke="black" points="394.589,-341.044 394.589,-355.956 378.773,-366.5 356.405,-366.5 340.589,-355.956 340.589,-341.044 356.405,-330.5 378.773,-330.5 394.589,-341.044"/>
<text text-anchor="middle" x="367.589" y="-344.8" font-family="Times,serif" font-size="14.00">z1</text>
</g>
<!-- n17 -->
<g id="node9" class="node"><title>n17</title>
<polygon fill="none" stroke="black" points="776.687,-485.044 776.687,-499.956 760.871,-510.5 738.504,-510.5 722.687,-499.956 722.687,-485.044 738.504,-474.5 760.871,-474.5 776.687,-485.044"/>
<text text-anchor="middle" x="749.687" y="-488.8" font-family="Times,serif" font-size="14.00">z2</text>
</g>
<!-- c27 -->
<g id="node16" class="node"><title>c27</title>
<polygon fill="none" stroke="black" points="812.687,-496.5 812.687,-534.5 938.687,-534.5 938.687,-496.5 812.687,-496.5"/>
<text text-anchor="middle" x="825.687" y="-511.8" font-family="Times,serif" font-size="14.00">A</text>
<polyline fill="none" stroke="black" points="838.687,-496.5 838.687,-534.5 "/>
<text text-anchor="middle" x="875.687" y="-519.3" font-family="Times,serif" font-size="14.00">$3</text>
<text text-anchor="middle" x="875.687" y="-504.3" font-family="Times,serif" font-size="14.00">$logic_not</text>
<polyline fill="none" stroke="black" points="912.687,-496.5 912.687,-534.5 "/>
<text text-anchor="middle" x="925.687" y="-511.8" font-family="Times,serif" font-size="14.00">Y</text>
</g>
<!-- n17&#45;&gt;c27 -->
<g id="edge21" class="edge"><title>n17:e&#45;&gt;c27:p22:w</title>
<path fill="none" stroke="black" d="M776.687,-492.5C791.521,-492.5 793.561,-506.538 802.798,-512.68"/>
<polygon fill="black" stroke="black" points="802.111,-516.123 812.687,-515.5 804.031,-509.392 802.111,-516.123"/>
</g>
<!-- n18 -->
<g id="node10" class="node"><title>n18</title>
<polygon fill="none" stroke="black" points="394.589,-672.044 394.589,-686.956 378.773,-697.5 356.405,-697.5 340.589,-686.956 340.589,-672.044 356.405,-661.5 378.773,-661.5 394.589,-672.044"/>
<text text-anchor="middle" x="367.589" y="-675.8" font-family="Times,serif" font-size="14.00">z3</text>
</g>
<!-- c28 -->
<g id="node17" class="node"><title>c28</title>
<polygon fill="none" stroke="black" points="470.687,-660.5 470.687,-698.5 596.687,-698.5 596.687,-660.5 470.687,-660.5"/>
<text text-anchor="middle" x="483.687" y="-675.8" font-family="Times,serif" font-size="14.00">A</text>
<polyline fill="none" stroke="black" points="496.687,-660.5 496.687,-698.5 "/>
<text text-anchor="middle" x="533.687" y="-683.3" font-family="Times,serif" font-size="14.00">$5</text>
<text text-anchor="middle" x="533.687" y="-668.3" font-family="Times,serif" font-size="14.00">$logic_not</text>
<polyline fill="none" stroke="black" points="570.687,-660.5 570.687,-698.5 "/>
<text text-anchor="middle" x="583.687" y="-675.8" font-family="Times,serif" font-size="14.00">Y</text>
</g>
<!-- n18&#45;&gt;c28 -->
<g id="edge23" class="edge"><title>n18:e&#45;&gt;c28:p22:w</title>
<path fill="none" stroke="black" d="M395.589,-679.5C425.315,-679.5 435.186,-679.5 460.568,-679.5"/>
<polygon fill="black" stroke="black" points="460.687,-683 470.687,-679.5 460.687,-676 460.687,-683"/>
</g>
<!-- n19 -->
<g id="node11" class="node"><title>n19</title>
<polygon fill="none" stroke="black" points="560.687,-398.044 560.687,-412.956 544.871,-423.5 522.504,-423.5 506.687,-412.956 506.687,-398.044 522.504,-387.5 544.871,-387.5 560.687,-398.044"/>
<text text-anchor="middle" x="533.687" y="-401.8" font-family="Times,serif" font-size="14.00">z4</text>
</g>
<!-- n20 -->
<g id="node12" class="node"><title>n20</title>
<polygon fill="none" stroke="black" points="560.687,-278.044 560.687,-292.956 544.871,-303.5 522.504,-303.5 506.687,-292.956 506.687,-278.044 522.504,-267.5 544.871,-267.5 560.687,-278.044"/>
<text text-anchor="middle" x="533.687" y="-281.8" font-family="Times,serif" font-size="14.00">z5</text>
</g>
<!-- n21 -->
<g id="node13" class="node"><title>n21</title>
<polygon fill="none" stroke="black" points="394.589,-164.044 394.589,-178.956 378.773,-189.5 356.405,-189.5 340.589,-178.956 340.589,-164.044 356.405,-153.5 378.773,-153.5 394.589,-164.044"/>
<text text-anchor="middle" x="367.589" y="-167.8" font-family="Times,serif" font-size="14.00">z6</text>
</g>
<!-- x2 -->
<g id="node23" class="node"><title>x2</title>
<path fill="none" stroke="black" d="M382.589,-510.5C382.589,-510.5 352.589,-510.5 352.589,-510.5 346.589,-510.5 340.589,-504.5 340.589,-498.5 340.589,-498.5 340.589,-486.5 340.589,-486.5 340.589,-480.5 346.589,-474.5 352.589,-474.5 352.589,-474.5 382.589,-474.5 382.589,-474.5 388.589,-474.5 394.589,-480.5 394.589,-486.5 394.589,-486.5 394.589,-498.5 394.589,-498.5 394.589,-504.5 388.589,-510.5 382.589,-510.5"/>
<text text-anchor="middle" x="367.589" y="-488.8" font-family="Times,serif" font-size="14.00">BUF</text>
</g>
<!-- c25&#45;&gt;x2 -->
<g id="edge29" class="edge"><title>c25:p24:e&#45;&gt;x2:w:w</title>
<path fill="none" stroke="black" d="M258.99,-525.5C294.069,-525.5 299.972,-498.397 329.581,-493.316"/>
<polygon fill="black" stroke="black" points="329.906,-496.801 339.589,-492.5 329.338,-489.824 329.906,-496.801"/>
</g>
<!-- x7 -->
<g id="node28" class="node"><title>x7</title>
<path fill="none" stroke="black" d="M382.589,-303.5C382.589,-303.5 352.589,-303.5 352.589,-303.5 346.589,-303.5 340.589,-297.5 340.589,-291.5 340.589,-291.5 340.589,-279.5 340.589,-279.5 340.589,-273.5 346.589,-267.5 352.589,-267.5 352.589,-267.5 382.589,-267.5 382.589,-267.5 388.589,-267.5 394.589,-273.5 394.589,-279.5 394.589,-279.5 394.589,-291.5 394.589,-291.5 394.589,-297.5 388.589,-303.5 382.589,-303.5"/>
<text text-anchor="middle" x="367.589" y="-281.8" font-family="Times,serif" font-size="14.00">BUF</text>
</g>
<!-- c26&#45;&gt;x7 -->
<g id="edge30" class="edge"><title>c26:p24:e&#45;&gt;x7:w:w</title>
<path fill="none" stroke="black" d="M258.99,-285.5C291.174,-285.5 301.671,-285.5 329.45,-285.5"/>
<polygon fill="black" stroke="black" points="329.589,-289 339.589,-285.5 329.589,-282 329.589,-289"/>
</g>
<!-- c27&#45;&gt;c25 -->
<g id="edge31" class="edge"><title>c27:p24:e&#45;&gt;c25:p22:w</title>
<path fill="none" stroke="black" d="M939.687,-515.5C948.365,-515.5 944.941,-528.983 938.687,-535 849.642,-620.669 784.253,-538.5 660.687,-538.5 532.687,-538.5 532.687,-538.5 532.687,-538.5 410.289,-538.5 379.867,-546.666 257.49,-549 236.272,-549.405 177.633,-563.342 161.99,-549 161.518,-548.567 161.067,-548.062 160.651,-547.51"/>
<polygon fill="black" stroke="black" points="164.15,-547.613 160.99,-537.5 157.154,-547.376 164.15,-547.613"/>
</g>
<!-- x4 -->
<g id="node25" class="node"><title>x4</title>
<path fill="none" stroke="black" d="M674.687,-673.5C674.687,-673.5 644.687,-673.5 644.687,-673.5 638.687,-673.5 632.687,-667.5 632.687,-661.5 632.687,-661.5 632.687,-649.5 632.687,-649.5 632.687,-643.5 638.687,-637.5 644.687,-637.5 644.687,-637.5 674.687,-637.5 674.687,-637.5 680.687,-637.5 686.687,-643.5 686.687,-649.5 686.687,-649.5 686.687,-661.5 686.687,-661.5 686.687,-667.5 680.687,-673.5 674.687,-673.5"/>
<text text-anchor="middle" x="659.687" y="-651.8" font-family="Times,serif" font-size="14.00">BUF</text>
</g>
<!-- c28&#45;&gt;x4 -->
<g id="edge32" class="edge"><title>c28:p24:e&#45;&gt;x4:w:w</title>
<path fill="none" stroke="black" d="M596.687,-679.5C611.861,-679.5 613.53,-664.557 623.007,-658.253"/>
<polygon fill="black" stroke="black" points="624.026,-661.602 632.687,-655.5 622.111,-654.869 624.026,-661.602"/>
</g>
<!-- x6 -->
<g id="node27" class="node"><title>x6</title>
<path fill="none" stroke="black" d="M382.589,-423.5C382.589,-423.5 352.589,-423.5 352.589,-423.5 346.589,-423.5 340.589,-417.5 340.589,-411.5 340.589,-411.5 340.589,-399.5 340.589,-399.5 340.589,-393.5 346.589,-387.5 352.589,-387.5 352.589,-387.5 382.589,-387.5 382.589,-387.5 388.589,-387.5 394.589,-393.5 394.589,-399.5 394.589,-399.5 394.589,-411.5 394.589,-411.5 394.589,-417.5 388.589,-423.5 382.589,-423.5"/>
<text text-anchor="middle" x="367.589" y="-401.8" font-family="Times,serif" font-size="14.00">BUF</text>
</g>
<!-- c29&#45;&gt;x6 -->
<g id="edge33" class="edge"><title>c29:p24:e&#45;&gt;x6:w:w</title>
<path fill="none" stroke="black" d="M254.99,-405.5C288.918,-405.5 299.885,-405.5 329.328,-405.5"/>
<polygon fill="black" stroke="black" points="329.589,-409 339.589,-405.5 329.589,-402 329.589,-409"/>
</g>
<!-- c33&#45;&gt;n15 -->
<g id="edge16" class="edge"><title>c33:p32:e&#45;&gt;n15:w</title>
<path fill="none" stroke="black" d="M264.49,-46.5C297.087,-46.5 302.445,-72.3301 329.508,-77.5768"/>
<polygon fill="black" stroke="black" points="329.311,-81.0734 339.589,-78.5 329.95,-74.1025 329.311,-81.0734"/>
</g>
<!-- c34&#45;&gt;n15 -->
<g id="edge17" class="edge"><title>c34:p32:e&#45;&gt;n15:w</title>
<path fill="none" stroke="black" d="M264.49,-111.5C297.245,-111.5 302.334,-84.8627 329.47,-79.452"/>
<polygon fill="black" stroke="black" points="329.961,-82.9214 339.589,-78.5 329.305,-75.9522 329.961,-82.9214"/>
</g>
<!-- x0&#45;&gt;n16 -->
<g id="edge18" class="edge"><title>x0:e:e&#45;&gt;n16:w</title>
<path fill="none" stroke="black" d="M237.99,-465.5C303.228,-465.5 274.239,-360.514 329.539,-349.442"/>
<polygon fill="black" stroke="black" points="329.959,-352.918 339.589,-348.5 329.306,-345.948 329.959,-352.918"/>
</g>
<!-- x1&#45;&gt;n16 -->
<g id="edge19" class="edge"><title>x1:e:e&#45;&gt;n16:w</title>
<path fill="none" stroke="black" d="M237.99,-345.5C279.459,-345.5 292.34,-348.028 329.119,-348.443"/>
<polygon fill="black" stroke="black" points="329.57,-351.945 339.589,-348.5 329.608,-344.945 329.57,-351.945"/>
</g>
<!-- x2&#45;&gt;n12 -->
<g id="edge10" class="edge"><title>x2:e:e&#45;&gt;n12:w</title>
<path fill="none" stroke="black" d="M395.589,-492.5C430.67,-492.5 441.907,-492.5 472.518,-492.5"/>
<polygon fill="black" stroke="black" points="472.687,-496 482.687,-492.5 472.687,-489 472.687,-496"/>
</g>
<!-- x3&#45;&gt;n17 -->
<g id="edge20" class="edge"><title>x3:e:e&#45;&gt;n17:w</title>
<path fill="none" stroke="black" d="M686.687,-492.5C698.687,-492.5 703.937,-492.5 712.562,-492.5"/>
<polygon fill="black" stroke="black" points="712.687,-496 722.687,-492.5 712.687,-489 712.687,-496"/>
</g>
<!-- x4&#45;&gt;n13 -->
<g id="edge12" class="edge"><title>x4:e:e&#45;&gt;n13:w</title>
<path fill="none" stroke="black" d="M687.687,-655.5C695.7,-655.5 692.508,-667.994 686.687,-673.5 669.253,-689.993 655.724,-680.231 632.687,-673.5 614.463,-668.175 614.912,-655.825 596.687,-650.5 542.935,-634.795 526.687,-650.411 470.687,-650.5 330.599,-650.722 292.345,-621.576 155.49,-651.5 133.491,-656.31 131.386,-667.725 109.38,-672.5 66.1048,-681.89 41.914,-702.931 9.74522,-672.5 7.38061,-670.263 5.44985,-666.873 4.52791,-663.636"/>
<polygon fill="black" stroke="black" points="7.73169,-665.046 8.74522,-654.5 1.37618,-662.112 7.73169,-665.046"/>
</g>
<!-- x5&#45;&gt;n18 -->
<g id="edge22" class="edge"><title>x5:e:e&#45;&gt;n18:w</title>
<path fill="none" stroke="black" d="M237.99,-678.5C279.443,-678.5 292.353,-679.343 329.122,-679.481"/>
<polygon fill="black" stroke="black" points="329.583,-682.982 339.589,-679.5 329.595,-675.982 329.583,-682.982"/>
</g>
<!-- x6&#45;&gt;n19 -->
<g id="edge24" class="edge"><title>x6:e:e&#45;&gt;n19:w</title>
<path fill="none" stroke="black" d="M395.589,-405.5C440.985,-405.5 454.795,-405.5 495.626,-405.5"/>
<polygon fill="black" stroke="black" points="495.687,-409 505.687,-405.5 495.687,-402 495.687,-409"/>
</g>
<!-- x7&#45;&gt;n20 -->
<g id="edge26" class="edge"><title>x7:e:e&#45;&gt;n20:w</title>
<path fill="none" stroke="black" d="M395.589,-285.5C440.985,-285.5 454.795,-285.5 495.626,-285.5"/>
<polygon fill="black" stroke="black" points="495.687,-289 505.687,-285.5 495.687,-282 495.687,-289"/>
</g>
<!-- x8&#45;&gt;n21 -->
<g id="edge27" class="edge"><title>x8:e:e&#45;&gt;n21:w</title>
<path fill="none" stroke="black" d="M237.99,-171.5C279.441,-171.5 292.354,-171.5 329.123,-171.5"/>
<polygon fill="black" stroke="black" points="329.589,-175 339.589,-171.5 329.589,-168 329.589,-175"/>
</g>
<!-- n2 -->
<g id="node32" class="node"><title>n2</title>
<polygon fill="none" stroke="black" points="367.589,-603.5 300.392,-585.5 367.589,-567.5 434.786,-585.5 367.589,-603.5"/>
<text text-anchor="middle" x="367.589" y="-581.8" font-family="Times,serif" font-size="14.00">$0\z0[0:0]</text>
</g>
<!-- x9&#45;&gt;n2 -->
<g id="edge25" class="edge"><title>x9:e:e&#45;&gt;n2:w</title>
<path fill="none" stroke="black" d="M237.99,-585.5C262.079,-585.5 270.501,-585.5 290.428,-585.5"/>
<polygon fill="black" stroke="black" points="290.49,-589 300.49,-585.5 290.49,-582 290.49,-589"/>
</g>
<!-- n3 -->
<g id="node33" class="node"><title>n3</title>
<polygon fill="none" stroke="black" points="367.589,-243.5 300.392,-225.5 367.589,-207.5 434.786,-225.5 367.589,-243.5"/>
<text text-anchor="middle" x="367.589" y="-221.8" font-family="Times,serif" font-size="14.00">$1\z0[0:0]</text>
</g>
<!-- x10&#45;&gt;n3 -->
<g id="edge28" class="edge"><title>x10:e:e&#45;&gt;n3:w</title>
<path fill="none" stroke="black" d="M237.99,-225.5C262.079,-225.5 270.501,-225.5 290.428,-225.5"/>
<polygon fill="black" stroke="black" points="290.49,-229 300.49,-225.5 290.49,-222 290.49,-229"/>
</g>
</g>
</svg>
