<?xml version="1.0" encoding="UTF-8" standalone="no"?>
<!DOCTYPE svg PUBLIC "-//W3C//DTD SVG 1.1//EN"
 "http://www.w3.org/Graphics/SVG/1.1/DTD/svg11.dtd">
<!-- Generated by graphviz version 2.38.0 (20140413.2041)
 -->
<!-- Title: check_fails_design Pages: 1 -->
<svg width="606pt" height="643pt"
 viewBox="0.00 0.00 605.76 643.00" xmlns="http://www.w3.org/2000/svg" xmlns:xlink="http://www.w3.org/1999/xlink">
<g id="graph0" class="graph" transform="scale(1 1) rotate(0) translate(4 639)">
<title>check_fails_design</title>
<polygon fill="white" stroke="none" points="-4,4 -4,-639 601.759,-639 601.759,4 -4,4"/>
<text text-anchor="middle" x="298.88" y="-7.8" font-family="Times,serif" font-size="14.00">check_fails_design</text>
<!-- n2 -->
<g id="node1" class="node"><title>n2</title>
<polygon fill="none" stroke="black" points="54,-168.544 54,-183.456 38.1838,-194 15.8162,-194 3.55271e-15,-183.456 0,-168.544 15.8162,-158 38.1838,-158 54,-168.544"/>
<text text-anchor="middle" x="27" y="-172.3" font-family="Times,serif" font-size="14.00">a</text>
</g>
<!-- c20 -->
<g id="node16" class="node"><title>c20</title>
<polygon fill="none" stroke="black" points="90,-305 90,-397 217,-397 217,-305 90,-305"/>
<text text-anchor="middle" x="104" y="-381.8" font-family="Times,serif" font-size="14.00">I0</text>
<polyline fill="none" stroke="black" points="90,-374 118,-374 "/>
<text text-anchor="middle" x="104" y="-358.8" font-family="Times,serif" font-size="14.00">I1</text>
<polyline fill="none" stroke="black" points="90,-351 118,-351 "/>
<text text-anchor="middle" x="104" y="-335.8" font-family="Times,serif" font-size="14.00">I2</text>
<polyline fill="none" stroke="black" points="90,-328 118,-328 "/>
<text text-anchor="middle" x="104" y="-312.8" font-family="Times,serif" font-size="14.00">I3</text>
<polyline fill="none" stroke="black" points="118,-305 118,-397 "/>
<text text-anchor="middle" x="154.5" y="-354.8" font-family="Times,serif" font-size="14.00">$88</text>
<text text-anchor="middle" x="154.5" y="-339.8" font-family="Times,serif" font-size="14.00">SB_LUT4</text>
<polyline fill="none" stroke="black" points="191,-305 191,-397 "/>
<text text-anchor="middle" x="204" y="-347.3" font-family="Times,serif" font-size="14.00">O</text>
</g>
<!-- n2&#45;&gt;c20 -->
<g id="edge8" class="edge"><title>n2:e&#45;&gt;c20:p17:w</title>
<path fill="none" stroke="black" d="M54,-176C124.278,-176 27.1435,-322.262 79.7647,-337.688"/>
<polygon fill="black" stroke="black" points="79.6361,-341.2 90,-339 80.5262,-334.257 79.6361,-341.2"/>
</g>
<!-- c24 -->
<g id="node17" class="node"><title>c24</title>
<polygon fill="none" stroke="black" points="95,-240 95,-286 212,-286 212,-240 95,-240"/>
<text text-anchor="middle" x="108" y="-270.8" font-family="Times,serif" font-size="14.00">C</text>
<polyline fill="none" stroke="black" points="95,-263 121,-263 "/>
<text text-anchor="middle" x="108" y="-247.8" font-family="Times,serif" font-size="14.00">D</text>
<polyline fill="none" stroke="black" points="121,-240 121,-286 "/>
<text text-anchor="middle" x="153.5" y="-266.8" font-family="Times,serif" font-size="14.00">$71</text>
<text text-anchor="middle" x="153.5" y="-251.8" font-family="Times,serif" font-size="14.00">SB_DFF</text>
<polyline fill="none" stroke="black" points="186,-240 186,-286 "/>
<text text-anchor="middle" x="199" y="-259.3" font-family="Times,serif" font-size="14.00">Q</text>
</g>
<!-- n2&#45;&gt;c24 -->
<g id="edge9" class="edge"><title>n2:e&#45;&gt;c24:p22:w</title>
<path fill="none" stroke="black" d="M54,-176C87.5532,-176 62.7884,-235.491 83.5845,-248.505"/>
<polygon fill="black" stroke="black" points="82.9482,-251.954 93.5,-251 84.6566,-245.165 82.9482,-251.954"/>
</g>
<!-- x2 -->
<g id="node18" class="node"><title>x2</title>
<path fill="none" stroke="black" d="M168.5,-113C168.5,-113 138.5,-113 138.5,-113 132.5,-113 126.5,-107 126.5,-101 126.5,-101 126.5,-89 126.5,-89 126.5,-83 132.5,-77 138.5,-77 138.5,-77 168.5,-77 168.5,-77 174.5,-77 180.5,-83 180.5,-89 180.5,-89 180.5,-101 180.5,-101 180.5,-107 174.5,-113 168.5,-113"/>
<text text-anchor="middle" x="153.5" y="-91.3" font-family="Times,serif" font-size="14.00">BUF</text>
</g>
<!-- n2&#45;&gt;x2 -->
<g id="edge12" class="edge"><title>n2:e&#45;&gt;x2:w:w</title>
<path fill="none" stroke="black" d="M54,-176C82.8444,-176 70.2483,-143.021 90,-122 100.817,-110.488 104.35,-100.178 115.369,-96.4646"/>
<polygon fill="black" stroke="black" points="116.104,-99.8949 125.5,-95 115.102,-92.9669 116.104,-99.8949"/>
</g>
<!-- x8 -->
<g id="node24" class="node"><title>x8</title>
<path fill="none" stroke="black" d="M168.5,-59C168.5,-59 138.5,-59 138.5,-59 132.5,-59 126.5,-53 126.5,-47 126.5,-47 126.5,-35 126.5,-35 126.5,-29 132.5,-23 138.5,-23 138.5,-23 168.5,-23 168.5,-23 174.5,-23 180.5,-29 180.5,-35 180.5,-35 180.5,-47 180.5,-47 180.5,-53 174.5,-59 168.5,-59"/>
<text text-anchor="middle" x="153.5" y="-37.3" font-family="Times,serif" font-size="14.00">BUF</text>
</g>
<!-- n2&#45;&gt;x8 -->
<g id="edge13" class="edge"><title>n2:e&#45;&gt;x8:w:w</title>
<path fill="none" stroke="black" d="M54,-176C104.596,-176 60.554,-109.145 90,-68 99.2832,-55.0285 103.778,-45.4499 115.508,-42.2031"/>
<polygon fill="black" stroke="black" points="115.99,-45.6704 125.5,-41 115.153,-38.7206 115.99,-45.6704"/>
</g>
<!-- x11 -->
<g id="node27" class="node"><title>x11</title>
<path fill="none" stroke="black" d="M168.5,-221C168.5,-221 138.5,-221 138.5,-221 132.5,-221 126.5,-215 126.5,-209 126.5,-209 126.5,-197 126.5,-197 126.5,-191 132.5,-185 138.5,-185 138.5,-185 168.5,-185 168.5,-185 174.5,-185 180.5,-191 180.5,-197 180.5,-197 180.5,-209 180.5,-209 180.5,-215 174.5,-221 168.5,-221"/>
<text text-anchor="middle" x="153.5" y="-199.3" font-family="Times,serif" font-size="14.00">BUF</text>
</g>
<!-- n2&#45;&gt;x11 -->
<g id="edge10" class="edge"><title>n2:e&#45;&gt;x11:w:w</title>
<path fill="none" stroke="black" d="M54,-176C84.2528,-176 90.3886,-197.417 115.366,-202.102"/>
<polygon fill="black" stroke="black" points="115.23,-205.603 125.5,-203 115.848,-198.631 115.23,-205.603"/>
</g>
<!-- x14 -->
<g id="node30" class="node"><title>x14</title>
<path fill="none" stroke="black" d="M168.5,-167C168.5,-167 138.5,-167 138.5,-167 132.5,-167 126.5,-161 126.5,-155 126.5,-155 126.5,-143 126.5,-143 126.5,-137 132.5,-131 138.5,-131 138.5,-131 168.5,-131 168.5,-131 174.5,-131 180.5,-137 180.5,-143 180.5,-143 180.5,-155 180.5,-155 180.5,-161 174.5,-167 168.5,-167"/>
<text text-anchor="middle" x="153.5" y="-145.3" font-family="Times,serif" font-size="14.00">BUF</text>
</g>
<!-- n2&#45;&gt;x14 -->
<g id="edge11" class="edge"><title>n2:e&#45;&gt;x14:w:w</title>
<path fill="none" stroke="black" d="M54,-176C84.2528,-176 90.3886,-154.583 115.366,-149.898"/>
<polygon fill="black" stroke="black" points="115.848,-153.369 125.5,-149 115.23,-146.397 115.848,-153.369"/>
</g>
<!-- n3 -->
<g id="node2" class="node"><title>n3</title>
<polygon fill="none" stroke="black" points="339.745,-87.5442 339.745,-102.456 323.929,-113 301.561,-113 285.745,-102.456 285.745,-87.5442 301.561,-77 323.929,-77 339.745,-87.5442"/>
<text text-anchor="middle" x="312.745" y="-91.3" font-family="Times,serif" font-size="14.00">b</text>
</g>
<!-- n4 -->
<g id="node3" class="node"><title>n4</title>
<polygon fill="none" stroke="black" points="54,-267.544 54,-282.456 38.1838,-293 15.8162,-293 3.55271e-15,-282.456 0,-267.544 15.8162,-257 38.1838,-257 54,-267.544"/>
<text text-anchor="middle" x="27" y="-271.3" font-family="Times,serif" font-size="14.00">clk</text>
</g>
<!-- n4&#45;&gt;c24 -->
<g id="edge15" class="edge"><title>n4:e&#45;&gt;c24:p21:w</title>
<path fill="none" stroke="black" d="M54,-275C67.5781,-275 73.2799,-275 83.289,-275"/>
<polygon fill="black" stroke="black" points="83.5,-278.5 93.5,-275 83.5,-271.5 83.5,-278.5"/>
</g>
<!-- n5 -->
<g id="node4" class="node"><title>n5</title>
<polygon fill="none" stroke="black" points="548.125,-352 498.356,-334 548.125,-316 597.894,-334 548.125,-352"/>
<text text-anchor="middle" x="548.125" y="-330.3" font-family="Times,serif" font-size="14.00">comb2</text>
</g>
<!-- n6 -->
<g id="node5" class="node"><title>n6</title>
<polygon fill="none" stroke="black" points="312.745,-473 262.976,-455 312.745,-437 362.515,-455 312.745,-473"/>
<text text-anchor="middle" x="312.745" y="-451.3" font-family="Times,serif" font-size="14.00">comb3</text>
</g>
<!-- n7 -->
<g id="node6" class="node"><title>n7</title>
<polygon fill="none" stroke="black" points="312.745,-527 252.754,-509 312.745,-491 372.737,-509 312.745,-527"/>
<text text-anchor="middle" x="312.745" y="-505.3" font-family="Times,serif" font-size="14.00">undriven</text>
</g>
<!-- n8 -->
<g id="node7" class="node"><title>n8</title>
<polygon fill="none" stroke="black" points="339.745,-255.544 339.745,-270.456 323.929,-281 301.561,-281 285.745,-270.456 285.745,-255.544 301.561,-245 323.929,-245 339.745,-255.544"/>
<text text-anchor="middle" x="312.745" y="-259.3" font-family="Times,serif" font-size="14.00">z0</text>
</g>
<!-- n9 -->
<g id="node8" class="node"><title>n9</title>
<polygon fill="none" stroke="black" points="339.745,-33.5442 339.745,-48.4558 323.929,-59 301.561,-59 285.745,-48.4558 285.745,-33.5442 301.561,-23 323.929,-23 339.745,-33.5442"/>
<text text-anchor="middle" x="312.745" y="-37.3" font-family="Times,serif" font-size="14.00">z1</text>
</g>
<!-- n10 -->
<g id="node9" class="node"><title>n10</title>
<polygon fill="none" stroke="black" points="339.745,-326.544 339.745,-341.456 323.929,-352 301.561,-352 285.745,-341.456 285.745,-326.544 301.561,-316 323.929,-316 339.745,-326.544"/>
<text text-anchor="middle" x="312.745" y="-330.3" font-family="Times,serif" font-size="14.00">z2</text>
</g>
<!-- n10&#45;&gt;c20 -->
<g id="edge2" class="edge"><title>n10:e&#45;&gt;c20:p18:w</title>
<path fill="none" stroke="black" d="M340.745,-334C348.758,-334 345.566,-346.494 339.745,-352 322.31,-368.493 308.657,-359.146 285.745,-352 250.292,-340.943 252.453,-315.557 217,-304.5 203.476,-300.282 99.9422,-294.926 89.5,-304.5 89.0273,-304.933 88.577,-305.438 88.1609,-305.99"/>
<polygon fill="black" stroke="black" points="84.6633,-306.124 88.5,-316 91.6593,-305.887 84.6633,-306.124"/>
</g>
<!-- x3 -->
<g id="node19" class="node"><title>x3</title>
<path fill="none" stroke="black" d="M450.49,-352C450.49,-352 420.49,-352 420.49,-352 414.49,-352 408.49,-346 408.49,-340 408.49,-340 408.49,-328 408.49,-328 408.49,-322 414.49,-316 420.49,-316 420.49,-316 450.49,-316 450.49,-316 456.49,-316 462.49,-322 462.49,-328 462.49,-328 462.49,-340 462.49,-340 462.49,-346 456.49,-352 450.49,-352"/>
<text text-anchor="middle" x="435.49" y="-330.3" font-family="Times,serif" font-size="14.00">BUF</text>
</g>
<!-- n10&#45;&gt;x3 -->
<g id="edge3" class="edge"><title>n10:e&#45;&gt;x3:w:w</title>
<path fill="none" stroke="black" d="M340.745,-334C367.208,-334 376.227,-334 398.466,-334"/>
<polygon fill="black" stroke="black" points="398.49,-337.5 408.49,-334 398.49,-330.5 398.49,-337.5"/>
</g>
<!-- n11 -->
<g id="node10" class="node"><title>n11</title>
<polygon fill="none" stroke="black" points="339.745,-555.544 339.745,-570.456 323.929,-581 301.561,-581 285.745,-570.456 285.745,-555.544 301.561,-545 323.929,-545 339.745,-555.544"/>
<text text-anchor="middle" x="312.745" y="-559.3" font-family="Times,serif" font-size="14.00">z3</text>
</g>
<!-- n12 -->
<g id="node11" class="node"><title>n12</title>
<polygon fill="none" stroke="black" points="339.745,-195.544 339.745,-210.456 323.929,-221 301.561,-221 285.745,-210.456 285.745,-195.544 301.561,-185 323.929,-185 339.745,-195.544"/>
<text text-anchor="middle" x="312.745" y="-199.3" font-family="Times,serif" font-size="14.00">z4</text>
</g>
<!-- n13 -->
<g id="node12" class="node"><title>n13</title>
<polygon fill="none" stroke="black" points="339.745,-609.544 339.745,-624.456 323.929,-635 301.561,-635 285.745,-624.456 285.745,-609.544 301.561,-599 323.929,-599 339.745,-609.544"/>
<text text-anchor="middle" x="312.745" y="-613.3" font-family="Times,serif" font-size="14.00">z5</text>
</g>
<!-- n14 -->
<g id="node13" class="node"><title>n14</title>
<polygon fill="none" stroke="black" points="339.745,-141.544 339.745,-156.456 323.929,-167 301.561,-167 285.745,-156.456 285.745,-141.544 301.561,-131 323.929,-131 339.745,-141.544"/>
<text text-anchor="middle" x="312.745" y="-145.3" font-family="Times,serif" font-size="14.00">z6</text>
</g>
<!-- v0 -->
<g id="node14" class="node"><title>v0</title>
<ellipse fill="none" stroke="black" cx="27" cy="-401" rx="27" ry="18"/>
<text text-anchor="middle" x="27" y="-397.3" font-family="Times,serif" font-size="14.00">1&#39;0</text>
</g>
<!-- v0&#45;&gt;c20 -->
<g id="edge21" class="edge"><title>v0:e&#45;&gt;c20:p15:w</title>
<path fill="none" stroke="black" d="M54,-401C67.2708,-401 71.1628,-392.207 80.0372,-388.086"/>
<polygon fill="black" stroke="black" points="80.9294,-391.475 90,-386 79.495,-384.623 80.9294,-391.475"/>
</g>
<!-- v1 -->
<g id="node15" class="node"><title>v1</title>
<ellipse fill="none" stroke="black" cx="27" cy="-347" rx="27" ry="18"/>
<text text-anchor="middle" x="27" y="-343.3" font-family="Times,serif" font-size="14.00">1&#39;0</text>
</g>
<!-- v1&#45;&gt;c20 -->
<g id="edge22" class="edge"><title>v1:e&#45;&gt;c20:p16:w</title>
<path fill="none" stroke="black" d="M54,-347C67.4054,-347 71.1228,-356.379 79.987,-360.775"/>
<polygon fill="black" stroke="black" points="79.4789,-364.248 90,-363 80.9972,-357.414 79.4789,-364.248"/>
</g>
<!-- c20&#45;&gt;n10 -->
<g id="edge1" class="edge"><title>c20:p19:e&#45;&gt;n10:w</title>
<path fill="none" stroke="black" d="M217,-351C244.283,-351 251.96,-337.868 274.495,-334.687"/>
<polygon fill="black" stroke="black" points="275.002,-338.161 284.745,-334 274.533,-331.177 275.002,-338.161"/>
</g>
<!-- c24&#45;&gt;n8 -->
<g id="edge19" class="edge"><title>c24:p23:e&#45;&gt;n8:w</title>
<path fill="none" stroke="black" d="M213.5,-263C241.454,-263 250.899,-263 274.515,-263"/>
<polygon fill="black" stroke="black" points="274.745,-266.5 284.745,-263 274.745,-259.5 274.745,-266.5"/>
</g>
<!-- x2&#45;&gt;n3 -->
<g id="edge14" class="edge"><title>x2:e:e&#45;&gt;n3:w</title>
<path fill="none" stroke="black" d="M181.5,-95C223.802,-95 236.856,-95 274.588,-95"/>
<polygon fill="black" stroke="black" points="274.745,-98.5001 284.745,-95 274.745,-91.5001 274.745,-98.5001"/>
</g>
<!-- x3&#45;&gt;n5 -->
<g id="edge16" class="edge"><title>x3:e:e&#45;&gt;n5:w</title>
<path fill="none" stroke="black" d="M462.49,-334C474.49,-334 479.74,-334 488.365,-334"/>
<polygon fill="black" stroke="black" points="488.49,-337.5 498.49,-334 488.49,-330.5 488.49,-337.5"/>
</g>
<!-- v4 -->
<g id="node20" class="node"><title>v4</title>
<ellipse fill="none" stroke="black" cx="27" cy="-455" rx="27" ry="18"/>
<text text-anchor="middle" x="27" y="-451.3" font-family="Times,serif" font-size="14.00">1&#39;x</text>
</g>
<!-- x5 -->
<g id="node21" class="node"><title>x5</title>
<path fill="none" stroke="black" d="M168.5,-473C168.5,-473 138.5,-473 138.5,-473 132.5,-473 126.5,-467 126.5,-461 126.5,-461 126.5,-449 126.5,-449 126.5,-443 132.5,-437 138.5,-437 138.5,-437 168.5,-437 168.5,-437 174.5,-437 180.5,-443 180.5,-449 180.5,-449 180.5,-461 180.5,-461 180.5,-467 174.5,-473 168.5,-473"/>
<text text-anchor="middle" x="153.5" y="-451.3" font-family="Times,serif" font-size="14.00">BUF</text>
</g>
<!-- v4&#45;&gt;x5 -->
<g id="edge24" class="edge"><title>v4:e&#45;&gt;x5:w:w</title>
<path fill="none" stroke="black" d="M54,-455C82.0538,-455 91.5329,-455 115.233,-455"/>
<polygon fill="black" stroke="black" points="115.5,-458.5 125.5,-455 115.5,-451.5 115.5,-458.5"/>
</g>
<!-- x5&#45;&gt;n6 -->
<g id="edge17" class="edge"><title>x5:e:e&#45;&gt;n6:w</title>
<path fill="none" stroke="black" d="M181.5,-455C213.542,-455 223.994,-455 251.65,-455"/>
<polygon fill="black" stroke="black" points="251.745,-458.5 261.745,-455 251.745,-451.5 251.745,-458.5"/>
</g>
<!-- v6 -->
<g id="node22" class="node"><title>v6</title>
<ellipse fill="none" stroke="black" cx="27" cy="-509" rx="27" ry="18"/>
<text text-anchor="middle" x="27" y="-505.3" font-family="Times,serif" font-size="14.00">1&#39;x</text>
</g>
<!-- x7 -->
<g id="node23" class="node"><title>x7</title>
<path fill="none" stroke="black" d="M168.5,-527C168.5,-527 138.5,-527 138.5,-527 132.5,-527 126.5,-521 126.5,-515 126.5,-515 126.5,-503 126.5,-503 126.5,-497 132.5,-491 138.5,-491 138.5,-491 168.5,-491 168.5,-491 174.5,-491 180.5,-497 180.5,-503 180.5,-503 180.5,-515 180.5,-515 180.5,-521 174.5,-527 168.5,-527"/>
<text text-anchor="middle" x="153.5" y="-505.3" font-family="Times,serif" font-size="14.00">BUF</text>
</g>
<!-- v6&#45;&gt;x7 -->
<g id="edge25" class="edge"><title>v6:e&#45;&gt;x7:w:w</title>
<path fill="none" stroke="black" d="M54,-509C82.0538,-509 91.5329,-509 115.233,-509"/>
<polygon fill="black" stroke="black" points="115.5,-512.5 125.5,-509 115.5,-505.5 115.5,-512.5"/>
</g>
<!-- x7&#45;&gt;n7 -->
<g id="edge18" class="edge"><title>x7:e:e&#45;&gt;n7:w</title>
<path fill="none" stroke="black" d="M181.5,-509C209.554,-509 219.033,-509 242.733,-509"/>
<polygon fill="black" stroke="black" points="243,-512.5 253,-509 243,-505.5 243,-512.5"/>
</g>
<!-- x8&#45;&gt;n9 -->
<g id="edge20" class="edge"><title>x8:e:e&#45;&gt;n9:w</title>
<path fill="none" stroke="black" d="M181.5,-41C223.802,-41 236.856,-41 274.588,-41"/>
<polygon fill="black" stroke="black" points="274.745,-44.5001 284.745,-41 274.745,-37.5001 274.745,-44.5001"/>
</g>
<!-- v9 -->
<g id="node25" class="node"><title>v9</title>
<ellipse fill="none" stroke="black" cx="27" cy="-563" rx="27" ry="18"/>
<text text-anchor="middle" x="27" y="-559.3" font-family="Times,serif" font-size="14.00">1&#39;x</text>
</g>
<!-- x10 -->
<g id="node26" class="node"><title>x10</title>
<path fill="none" stroke="black" d="M168.5,-581C168.5,-581 138.5,-581 138.5,-581 132.5,-581 126.5,-575 126.5,-569 126.5,-569 126.5,-557 126.5,-557 126.5,-551 132.5,-545 138.5,-545 138.5,-545 168.5,-545 168.5,-545 174.5,-545 180.5,-551 180.5,-557 180.5,-557 180.5,-569 180.5,-569 180.5,-575 174.5,-581 168.5,-581"/>
<text text-anchor="middle" x="153.5" y="-559.3" font-family="Times,serif" font-size="14.00">BUF</text>
</g>
<!-- v9&#45;&gt;x10 -->
<g id="edge26" class="edge"><title>v9:e&#45;&gt;x10:w:w</title>
<path fill="none" stroke="black" d="M54,-563C82.0538,-563 91.5329,-563 115.233,-563"/>
<polygon fill="black" stroke="black" points="115.5,-566.5 125.5,-563 115.5,-559.5 115.5,-566.5"/>
</g>
<!-- x10&#45;&gt;n11 -->
<g id="edge4" class="edge"><title>x10:e:e&#45;&gt;n11:w</title>
<path fill="none" stroke="black" d="M181.5,-563C223.802,-563 236.856,-563 274.588,-563"/>
<polygon fill="black" stroke="black" points="274.745,-566.5 284.745,-563 274.745,-559.5 274.745,-566.5"/>
</g>
<!-- x11&#45;&gt;n12 -->
<g id="edge5" class="edge"><title>x11:e:e&#45;&gt;n12:w</title>
<path fill="none" stroke="black" d="M181.5,-203C223.802,-203 236.856,-203 274.588,-203"/>
<polygon fill="black" stroke="black" points="274.745,-206.5 284.745,-203 274.745,-199.5 274.745,-206.5"/>
</g>
<!-- v12 -->
<g id="node28" class="node"><title>v12</title>
<ellipse fill="none" stroke="black" cx="27" cy="-617" rx="27" ry="18"/>
<text text-anchor="middle" x="27" y="-613.3" font-family="Times,serif" font-size="14.00">1&#39;0</text>
</g>
<!-- x13 -->
<g id="node29" class="node"><title>x13</title>
<path fill="none" stroke="black" d="M168.5,-635C168.5,-635 138.5,-635 138.5,-635 132.5,-635 126.5,-629 126.5,-623 126.5,-623 126.5,-611 126.5,-611 126.5,-605 132.5,-599 138.5,-599 138.5,-599 168.5,-599 168.5,-599 174.5,-599 180.5,-605 180.5,-611 180.5,-611 180.5,-623 180.5,-623 180.5,-629 174.5,-635 168.5,-635"/>
<text text-anchor="middle" x="153.5" y="-613.3" font-family="Times,serif" font-size="14.00">BUF</text>
</g>
<!-- v12&#45;&gt;x13 -->
<g id="edge23" class="edge"><title>v12:e&#45;&gt;x13:w:w</title>
<path fill="none" stroke="black" d="M54,-617C82.0538,-617 91.5329,-617 115.233,-617"/>
<polygon fill="black" stroke="black" points="115.5,-620.5 125.5,-617 115.5,-613.5 115.5,-620.5"/>
</g>
<!-- x13&#45;&gt;n13 -->
<g id="edge6" class="edge"><title>x13:e:e&#45;&gt;n13:w</title>
<path fill="none" stroke="black" d="M181.5,-617C223.802,-617 236.856,-617 274.588,-617"/>
<polygon fill="black" stroke="black" points="274.745,-620.5 284.745,-617 274.745,-613.5 274.745,-620.5"/>
</g>
<!-- x14&#45;&gt;n14 -->
<g id="edge7" class="edge"><title>x14:e:e&#45;&gt;n14:w</title>
<path fill="none" stroke="black" d="M181.5,-149C223.802,-149 236.856,-149 274.588,-149"/>
<polygon fill="black" stroke="black" points="274.745,-152.5 284.745,-149 274.745,-145.5 274.745,-152.5"/>
</g>
</g>
</svg>
