<?xml version="1.0" encoding="UTF-8" standalone="no"?>
<!DOCTYPE svg PUBLIC "-//W3C//DTD SVG 1.1//EN"
 "http://www.w3.org/Graphics/SVG/1.1/DTD/svg11.dtd">
<!-- Generated by graphviz version 2.38.0 (20140413.2041)
 -->
<!-- Title: hier_design Pages: 1 -->
<svg width="749pt" height="126pt"
 viewBox="0.00 0.00 749.00 126.00" xmlns="http://www.w3.org/2000/svg" xmlns:xlink="http://www.w3.org/1999/xlink">
<g id="graph0" class="graph" transform="scale(1 1) rotate(0) translate(4 122)">
<title>hier_design</title>
<polygon fill="white" stroke="none" points="-4,4 -4,-122 745,-122 745,4 -4,4"/>
<text text-anchor="middle" x="370.5" y="-7.8" font-family="Times,serif" font-size="14.00">hier_design</text>
<!-- n2 -->
<g id="node1" class="node"><title>n2</title>
<polygon fill="none" stroke="black" points="54,-33.5442 54,-48.4558 38.1838,-59 15.8162,-59 3.55271e-15,-48.4558 0,-33.5442 15.8162,-23 38.1838,-23 54,-33.5442"/>
<text text-anchor="middle" x="27" y="-37.3" font-family="Times,serif" font-size="14.00">a</text>
</g>
<!-- c8 -->
<g id="node5" class="node"><title>c8</title>
<polygon fill="none" stroke="black" points="90,-30 90,-76 234,-76 234,-30 90,-30"/>
<text text-anchor="middle" x="106.5" y="-60.8" font-family="Times,serif" font-size="14.00">clk</text>
<polyline fill="none" stroke="black" points="90,-53 123,-53 "/>
<text text-anchor="middle" x="106.5" y="-37.8" font-family="Times,serif" font-size="14.00">in</text>
<polyline fill="none" stroke="black" points="123,-30 123,-76 "/>
<text text-anchor="middle" x="161.5" y="-56.8" font-family="Times,serif" font-size="14.00">u_a_to_i0</text>
<text text-anchor="middle" x="161.5" y="-41.8" font-family="Times,serif" font-size="14.00">sub_design</text>
<polyline fill="none" stroke="black" points="200,-30 200,-76 "/>
<text text-anchor="middle" x="217" y="-49.3" font-family="Times,serif" font-size="14.00">out</text>
</g>
<!-- n2&#45;&gt;c8 -->
<g id="edge1" class="edge"><title>n2:e&#45;&gt;c8:p6:w</title>
<path fill="none" stroke="black" d="M54,-41C66,-41 71.25,-41 79.875,-41"/>
<polygon fill="black" stroke="black" points="80,-44.5001 90,-41 80,-37.5001 80,-44.5001"/>
</g>
<!-- n3 -->
<g id="node2" class="node"><title>n3</title>
<polygon fill="none" stroke="black" points="54,-92.5442 54,-107.456 38.1838,-118 15.8162,-118 3.55271e-15,-107.456 0,-92.5442 15.8162,-82 38.1838,-82 54,-92.5442"/>
<text text-anchor="middle" x="27" y="-96.3" font-family="Times,serif" font-size="14.00">clk</text>
</g>
<!-- n3&#45;&gt;c8 -->
<g id="edge2" class="edge"><title>n3:e&#45;&gt;c8:p3:w</title>
<path fill="none" stroke="black" d="M54,-100C72.1312,-100 69.8332,-76.8945 80.3035,-68.23"/>
<polygon fill="black" stroke="black" points="81.6187,-71.481 90,-65 79.4064,-64.8398 81.6187,-71.481"/>
</g>
<!-- c9 -->
<g id="node6" class="node"><title>c9</title>
<polygon fill="none" stroke="black" points="360,-57 360,-103 651,-103 651,-57 360,-57"/>
<text text-anchor="middle" x="376.5" y="-87.8" font-family="Times,serif" font-size="14.00">clk</text>
<polyline fill="none" stroke="black" points="360,-80 393,-80 "/>
<text text-anchor="middle" x="376.5" y="-64.8" font-family="Times,serif" font-size="14.00">in</text>
<polyline fill="none" stroke="black" points="393,-57 393,-103 "/>
<text text-anchor="middle" x="505" y="-83.8" font-family="Times,serif" font-size="14.00">u_i0_to_z</text>
<text text-anchor="middle" x="505" y="-68.8" font-family="Times,serif" font-size="14.00">$paramod\sub_design\INSERT_FF=1</text>
<polyline fill="none" stroke="black" points="617,-57 617,-103 "/>
<text text-anchor="middle" x="634" y="-76.3" font-family="Times,serif" font-size="14.00">out</text>
</g>
<!-- n3&#45;&gt;c9 -->
<g id="edge3" class="edge"><title>n3:e&#45;&gt;c9:p3:w</title>
<path fill="none" stroke="black" d="M54,-100C186.592,-100 222.166,-92.4011 349.831,-92.0152"/>
<polygon fill="black" stroke="black" points="350.005,-95.5151 360,-92 349.995,-88.5151 350.005,-95.5151"/>
</g>
<!-- n4 -->
<g id="node3" class="node"><title>n4</title>
<polygon fill="none" stroke="black" points="297,-74 270,-56 297,-38 324,-56 297,-74"/>
<text text-anchor="middle" x="297" y="-52.3" font-family="Times,serif" font-size="14.00">i0</text>
</g>
<!-- n4&#45;&gt;c9 -->
<g id="edge5" class="edge"><title>n4:e&#45;&gt;c9:p6:w</title>
<path fill="none" stroke="black" d="M324,-56C336.781,-56 341.179,-62.8914 349.9,-66.2294"/>
<polygon fill="black" stroke="black" points="349.546,-69.7206 360,-68 350.755,-62.8257 349.546,-69.7206"/>
</g>
<!-- n5 -->
<g id="node4" class="node"><title>n5</title>
<polygon fill="none" stroke="black" points="741,-72.5442 741,-87.4558 725.184,-98 702.816,-98 687,-87.4558 687,-72.5442 702.816,-62 725.184,-62 741,-72.5442"/>
<text text-anchor="middle" x="714" y="-76.3" font-family="Times,serif" font-size="14.00">z</text>
</g>
<!-- c8&#45;&gt;n4 -->
<g id="edge4" class="edge"><title>c8:p7:e&#45;&gt;n4:w</title>
<path fill="none" stroke="black" d="M234,-53C246.042,-53 251.24,-54.6875 259.859,-55.5312"/>
<polygon fill="black" stroke="black" points="259.849,-59.0344 270,-56 260.172,-52.0419 259.849,-59.0344"/>
</g>
<!-- c9&#45;&gt;n5 -->
<g id="edge6" class="edge"><title>c9:p7:e&#45;&gt;n5:w</title>
<path fill="none" stroke="black" d="M651,-80C663,-80 668.25,-80 676.875,-80"/>
<polygon fill="black" stroke="black" points="677,-83.5001 687,-80 677,-76.5001 677,-83.5001"/>
</g>
</g>
</svg>
