<?xml version="1.0" encoding="UTF-8" standalone="no"?>
<!DOCTYPE svg PUBLIC "-//W3C//DTD SVG 1.1//EN"
 "http://www.w3.org/Graphics/SVG/1.1/DTD/svg11.dtd">
<!-- Generated by graphviz version 2.38.0 (20140413.2041)
 -->
<!-- Title: hier_design Pages: 1 -->
<svg width="1965pt" height="175pt"
 viewBox="0.00 0.00 1965.49 175.00" xmlns="http://www.w3.org/2000/svg" xmlns:xlink="http://www.w3.org/1999/xlink">
<g id="graph0" class="graph" transform="scale(1 1) rotate(0) translate(4 171)">
<title>hier_design</title>
<polygon fill="white" stroke="none" points="-4,4 -4,-171 1961.49,-171 1961.49,4 -4,4"/>
<text text-anchor="middle" x="978.746" y="-7.8" font-family="Times,serif" font-size="14.00">hier_design</text>
<!-- n3 -->
<g id="node1" class="node"><title>n3</title>
<polygon fill="none" stroke="black" points="54,-33.5442 54,-48.4558 38.1838,-59 15.8162,-59 3.55271e-15,-48.4558 0,-33.5442 15.8162,-23 38.1838,-23 54,-33.5442"/>
<text text-anchor="middle" x="27" y="-37.3" font-family="Times,serif" font-size="14.00">a</text>
</g>
<!-- x1 -->
<g id="node14" class="node"><title>x1</title>
<path fill="none" stroke="black" d="M132,-59C132,-59 102,-59 102,-59 96,-59 90,-53 90,-47 90,-47 90,-35 90,-35 90,-29 96,-23 102,-23 102,-23 132,-23 132,-23 138,-23 144,-29 144,-35 144,-35 144,-47 144,-47 144,-53 138,-59 132,-59"/>
<text text-anchor="middle" x="117" y="-37.3" font-family="Times,serif" font-size="14.00">BUF</text>
</g>
<!-- n3&#45;&gt;x1 -->
<g id="edge10" class="edge"><title>n3:e&#45;&gt;x1:w:w</title>
<path fill="none" stroke="black" d="M54,-41C66,-41 71.25,-41 79.875,-41"/>
<polygon fill="black" stroke="black" points="80,-44.5001 90,-41 80,-37.5001 80,-44.5001"/>
</g>
<!-- n4 -->
<g id="node2" class="node"><title>n4</title>
<polygon fill="none" stroke="black" points="811.382,-114.544 811.382,-129.456 795.565,-140 773.198,-140 757.382,-129.456 757.382,-114.544 773.198,-104 795.565,-104 811.382,-114.544"/>
<text text-anchor="middle" x="784.382" y="-118.3" font-family="Times,serif" font-size="14.00">clk</text>
</g>
<!-- x0 -->
<g id="node13" class="node"><title>x0</title>
<path fill="none" stroke="black" d="M889.382,-113C889.382,-113 859.382,-113 859.382,-113 853.382,-113 847.382,-107 847.382,-101 847.382,-101 847.382,-89 847.382,-89 847.382,-83 853.382,-77 859.382,-77 859.382,-77 889.382,-77 889.382,-77 895.382,-77 901.382,-83 901.382,-89 901.382,-89 901.382,-101 901.382,-101 901.382,-107 895.382,-113 889.382,-113"/>
<text text-anchor="middle" x="874.382" y="-91.3" font-family="Times,serif" font-size="14.00">BUF</text>
</g>
<!-- n4&#45;&gt;x0 -->
<g id="edge11" class="edge"><title>n4:e&#45;&gt;x0:w:w</title>
<path fill="none" stroke="black" d="M811.382,-122C827.319,-122 828.016,-104.855 837.763,-97.8895"/>
<polygon fill="black" stroke="black" points="838.811,-101.229 847.382,-95 836.797,-94.5249 838.811,-101.229"/>
</g>
<!-- x4 -->
<g id="node17" class="node"><title>x4</title>
<path fill="none" stroke="black" d="M889.382,-167C889.382,-167 859.382,-167 859.382,-167 853.382,-167 847.382,-161 847.382,-155 847.382,-155 847.382,-143 847.382,-143 847.382,-137 853.382,-131 859.382,-131 859.382,-131 889.382,-131 889.382,-131 895.382,-131 901.382,-137 901.382,-143 901.382,-143 901.382,-155 901.382,-155 901.382,-161 895.382,-167 889.382,-167"/>
<text text-anchor="middle" x="874.382" y="-145.3" font-family="Times,serif" font-size="14.00">BUF</text>
</g>
<!-- n4&#45;&gt;x4 -->
<g id="edge12" class="edge"><title>n4:e&#45;&gt;x4:w:w</title>
<path fill="none" stroke="black" d="M811.382,-122C827.319,-122 828.016,-139.145 837.763,-146.111"/>
<polygon fill="black" stroke="black" points="836.797,-149.475 847.382,-149 838.811,-142.771 836.797,-149.475"/>
</g>
<!-- n5 -->
<g id="node3" class="node"><title>n5</title>
<polygon fill="none" stroke="black" points="784.382,-59 757.382,-41 784.382,-23 811.382,-41 784.382,-59"/>
<text text-anchor="middle" x="784.382" y="-37.3" font-family="Times,serif" font-size="14.00">i0</text>
</g>
<!-- x5 -->
<g id="node18" class="node"><title>x5</title>
<path fill="none" stroke="black" d="M889.382,-59C889.382,-59 859.382,-59 859.382,-59 853.382,-59 847.382,-53 847.382,-47 847.382,-47 847.382,-35 847.382,-35 847.382,-29 853.382,-23 859.382,-23 859.382,-23 889.382,-23 889.382,-23 895.382,-23 901.382,-29 901.382,-35 901.382,-35 901.382,-47 901.382,-47 901.382,-53 895.382,-59 889.382,-59"/>
<text text-anchor="middle" x="874.382" y="-37.3" font-family="Times,serif" font-size="14.00">BUF</text>
</g>
<!-- n5&#45;&gt;x5 -->
<g id="edge14" class="edge"><title>n5:e&#45;&gt;x5:w:w</title>
<path fill="none" stroke="black" d="M811.382,-41C823.382,-41 828.632,-41 837.257,-41"/>
<polygon fill="black" stroke="black" points="837.382,-44.5001 847.382,-41 837.382,-37.5001 837.382,-44.5001"/>
</g>
<!-- n6 -->
<g id="node4" class="node"><title>n6</title>
<polygon fill="none" stroke="black" points="1021.02,-113 937.238,-95 1021.02,-77 1104.81,-95 1021.02,-113"/>
<text text-anchor="middle" x="1021.02" y="-91.3" font-family="Times,serif" font-size="14.00">u_a_to_i0.clk</text>
</g>
<!-- n7 -->
<g id="node5" class="node"><title>n7</title>
<polygon fill="none" stroke="black" points="258.128,-59 179.871,-41 258.128,-23 336.385,-41 258.128,-59"/>
<text text-anchor="middle" x="258.128" y="-37.3" font-family="Times,serif" font-size="14.00">u_a_to_i0.in</text>
</g>
<!-- x3 -->
<g id="node16" class="node"><title>x3</title>
<path fill="none" stroke="black" d="M414.257,-59C414.257,-59 384.257,-59 384.257,-59 378.257,-59 372.257,-53 372.257,-47 372.257,-47 372.257,-35 372.257,-35 372.257,-29 378.257,-23 384.257,-23 384.257,-23 414.257,-23 414.257,-23 420.257,-23 426.257,-29 426.257,-35 426.257,-35 426.257,-47 426.257,-47 426.257,-53 420.257,-59 414.257,-59"/>
<text text-anchor="middle" x="399.257" y="-37.3" font-family="Times,serif" font-size="14.00">BUF</text>
</g>
<!-- n7&#45;&gt;x3 -->
<g id="edge17" class="edge"><title>n7:e&#45;&gt;x3:w:w</title>
<path fill="none" stroke="black" d="M336.257,-41C348.257,-41 353.507,-41 362.132,-41"/>
<polygon fill="black" stroke="black" points="362.257,-44.5001 372.257,-41 362.257,-37.5001 362.257,-44.5001"/>
</g>
<!-- n8 -->
<g id="node6" class="node"><title>n8</title>
<polygon fill="none" stroke="black" points="546.819,-59 462.194,-41 546.819,-23 631.444,-41 546.819,-59"/>
<text text-anchor="middle" x="546.819" y="-37.3" font-family="Times,serif" font-size="14.00">u_a_to_i0.out</text>
</g>
<!-- x2 -->
<g id="node15" class="node"><title>x2</title>
<path fill="none" stroke="black" d="M709.382,-59C709.382,-59 679.382,-59 679.382,-59 673.382,-59 667.382,-53 667.382,-47 667.382,-47 667.382,-35 667.382,-35 667.382,-29 673.382,-23 679.382,-23 679.382,-23 709.382,-23 709.382,-23 715.382,-23 721.382,-29 721.382,-35 721.382,-35 721.382,-47 721.382,-47 721.382,-53 715.382,-59 709.382,-59"/>
<text text-anchor="middle" x="694.382" y="-37.3" font-family="Times,serif" font-size="14.00">BUF</text>
</g>
<!-- n8&#45;&gt;x2 -->
<g id="edge19" class="edge"><title>n8:e&#45;&gt;x2:w:w</title>
<path fill="none" stroke="black" d="M631.382,-41C643.382,-41 648.632,-41 657.257,-41"/>
<polygon fill="black" stroke="black" points="657.382,-44.5001 667.382,-41 657.382,-37.5001 657.382,-44.5001"/>
</g>
<!-- n9 -->
<g id="node7" class="node"><title>n9</title>
<polygon fill="none" stroke="black" points="1021.02,-167 937.238,-149 1021.02,-131 1104.81,-149 1021.02,-167"/>
<text text-anchor="middle" x="1021.02" y="-145.3" font-family="Times,serif" font-size="14.00">u_i0_to_z.clk</text>
</g>
<!-- c17 -->
<g id="node12" class="node"><title>c17</title>
<polygon fill="none" stroke="black" points="1140.67,-96 1140.67,-142 1249.67,-142 1249.67,-96 1140.67,-96"/>
<text text-anchor="middle" x="1162.67" y="-126.8" font-family="Times,serif" font-size="14.00">CLK</text>
<polyline fill="none" stroke="black" points="1140.67,-119 1184.67,-119 "/>
<text text-anchor="middle" x="1162.67" y="-103.8" font-family="Times,serif" font-size="14.00">D</text>
<polyline fill="none" stroke="black" points="1184.67,-96 1184.67,-142 "/>
<text text-anchor="middle" x="1204.17" y="-122.8" font-family="Times,serif" font-size="14.00">$10</text>
<text text-anchor="middle" x="1204.17" y="-107.8" font-family="Times,serif" font-size="14.00">$dff</text>
<polyline fill="none" stroke="black" points="1223.67,-96 1223.67,-142 "/>
<text text-anchor="middle" x="1236.67" y="-115.3" font-family="Times,serif" font-size="14.00">Q</text>
</g>
<!-- n9&#45;&gt;c17 -->
<g id="edge21" class="edge"><title>n9:e&#45;&gt;c17:p14:w</title>
<path fill="none" stroke="black" d="M1104.67,-149C1118.5,-149 1121.77,-138.232 1130.82,-133.353"/>
<polygon fill="black" stroke="black" points="1131.76,-136.728 1140.67,-131 1130.13,-129.92 1131.76,-136.728"/>
</g>
<!-- n10 -->
<g id="node8" class="node"><title>n10</title>
<polygon fill="none" stroke="black" points="1021.02,-59 942.768,-41 1021.02,-23 1099.28,-41 1021.02,-59"/>
<text text-anchor="middle" x="1021.02" y="-37.3" font-family="Times,serif" font-size="14.00">u_i0_to_z.in</text>
</g>
<!-- n10&#45;&gt;c17 -->
<g id="edge2" class="edge"><title>n10:e&#45;&gt;c17:p15:w</title>
<path fill="none" stroke="black" d="M1100.02,-41C1130.44,-41 1111.98,-92.4376 1130.94,-104.493"/>
<polygon fill="black" stroke="black" points="1130.11,-107.894 1140.67,-107 1131.86,-101.116 1130.11,-107.894"/>
</g>
<!-- x8 -->
<g id="node21" class="node"><title>x8</title>
<path fill="none" stroke="black" d="M1210.17,-59C1210.17,-59 1180.17,-59 1180.17,-59 1174.17,-59 1168.17,-53 1168.17,-47 1168.17,-47 1168.17,-35 1168.17,-35 1168.17,-29 1174.17,-23 1180.17,-23 1180.17,-23 1210.17,-23 1210.17,-23 1216.17,-23 1222.17,-29 1222.17,-35 1222.17,-35 1222.17,-47 1222.17,-47 1222.17,-53 1216.17,-59 1210.17,-59"/>
<text text-anchor="middle" x="1195.17" y="-37.3" font-family="Times,serif" font-size="14.00">BUF</text>
</g>
<!-- n10&#45;&gt;x8 -->
<g id="edge3" class="edge"><title>n10:e&#45;&gt;x8:w:w</title>
<path fill="none" stroke="black" d="M1100.02,-41C1126.14,-41 1135.11,-41 1156.94,-41"/>
<polygon fill="black" stroke="black" points="1157.17,-44.5001 1167.17,-41 1157.17,-37.5001 1157.17,-44.5001"/>
</g>
<!-- n11 -->
<g id="node9" class="node"><title>n11</title>
<polygon fill="none" stroke="black" points="1692.93,-137 1608.31,-119 1692.93,-101 1777.56,-119 1692.93,-137"/>
<text text-anchor="middle" x="1692.93" y="-115.3" font-family="Times,serif" font-size="14.00">u_i0_to_z.out</text>
</g>
<!-- x6 -->
<g id="node19" class="node"><title>x6</title>
<path fill="none" stroke="black" d="M1855.49,-137C1855.49,-137 1825.49,-137 1825.49,-137 1819.49,-137 1813.49,-131 1813.49,-125 1813.49,-125 1813.49,-113 1813.49,-113 1813.49,-107 1819.49,-101 1825.49,-101 1825.49,-101 1855.49,-101 1855.49,-101 1861.49,-101 1867.49,-107 1867.49,-113 1867.49,-113 1867.49,-125 1867.49,-125 1867.49,-131 1861.49,-137 1855.49,-137"/>
<text text-anchor="middle" x="1840.49" y="-115.3" font-family="Times,serif" font-size="14.00">BUF</text>
</g>
<!-- n11&#45;&gt;x6 -->
<g id="edge5" class="edge"><title>n11:e&#45;&gt;x6:w:w</title>
<path fill="none" stroke="black" d="M1777.49,-119C1789.49,-119 1794.74,-119 1803.37,-119"/>
<polygon fill="black" stroke="black" points="1803.49,-122.5 1813.49,-119 1803.49,-115.5 1803.49,-122.5"/>
</g>
<!-- n12 -->
<g id="node10" class="node"><title>n12</title>
<polygon fill="none" stroke="black" points="1384.02,-137 1285.82,-119 1384.02,-101 1482.22,-119 1384.02,-137"/>
<text text-anchor="middle" x="1384.02" y="-115.3" font-family="Times,serif" font-size="14.00">u_i0_to_z.out_ff</text>
</g>
<!-- x7 -->
<g id="node20" class="node"><title>x7</title>
<path fill="none" stroke="black" d="M1560.37,-137C1560.37,-137 1530.37,-137 1530.37,-137 1524.37,-137 1518.37,-131 1518.37,-125 1518.37,-125 1518.37,-113 1518.37,-113 1518.37,-107 1524.37,-101 1530.37,-101 1530.37,-101 1560.37,-101 1560.37,-101 1566.37,-101 1572.37,-107 1572.37,-113 1572.37,-113 1572.37,-125 1572.37,-125 1572.37,-131 1566.37,-137 1560.37,-137"/>
<text text-anchor="middle" x="1545.37" y="-115.3" font-family="Times,serif" font-size="14.00">BUF</text>
</g>
<!-- n12&#45;&gt;x7 -->
<g id="edge7" class="edge"><title>n12:e&#45;&gt;x7:w:w</title>
<path fill="none" stroke="black" d="M1482.37,-119C1494.37,-119 1499.62,-119 1508.24,-119"/>
<polygon fill="black" stroke="black" points="1508.37,-122.5 1518.37,-119 1508.37,-115.5 1508.37,-122.5"/>
</g>
<!-- n13 -->
<g id="node11" class="node"><title>n13</title>
<polygon fill="none" stroke="black" points="1957.49,-111.544 1957.49,-126.456 1941.68,-137 1919.31,-137 1903.49,-126.456 1903.49,-111.544 1919.31,-101 1941.68,-101 1957.49,-111.544"/>
<text text-anchor="middle" x="1930.49" y="-115.3" font-family="Times,serif" font-size="14.00">z</text>
</g>
<!-- c17&#45;&gt;n12 -->
<g id="edge6" class="edge"><title>c17:p16:e&#45;&gt;n12:w</title>
<path fill="none" stroke="black" d="M1249.67,-119C1261.67,-119 1266.92,-119 1275.54,-119"/>
<polygon fill="black" stroke="black" points="1275.67,-122.5 1285.67,-119 1275.67,-115.5 1275.67,-122.5"/>
</g>
<!-- x0&#45;&gt;n6 -->
<g id="edge15" class="edge"><title>x0:e:e&#45;&gt;n6:w</title>
<path fill="none" stroke="black" d="M901.382,-95C913.382,-95 918.632,-95 927.257,-95"/>
<polygon fill="black" stroke="black" points="927.382,-98.5001 937.382,-95 927.382,-91.5001 927.382,-98.5001"/>
</g>
<!-- x1&#45;&gt;n7 -->
<g id="edge16" class="edge"><title>x1:e:e&#45;&gt;n7:w</title>
<path fill="none" stroke="black" d="M144,-41C156,-41 161.25,-41 169.875,-41"/>
<polygon fill="black" stroke="black" points="170,-44.5001 180,-41 170,-37.5001 170,-44.5001"/>
</g>
<!-- x2&#45;&gt;n5 -->
<g id="edge13" class="edge"><title>x2:e:e&#45;&gt;n5:w</title>
<path fill="none" stroke="black" d="M721.382,-41C733.382,-41 738.632,-41 747.257,-41"/>
<polygon fill="black" stroke="black" points="747.382,-44.5001 757.382,-41 747.382,-37.5001 747.382,-44.5001"/>
</g>
<!-- x3&#45;&gt;n8 -->
<g id="edge18" class="edge"><title>x3:e:e&#45;&gt;n8:w</title>
<path fill="none" stroke="black" d="M426.257,-41C438.257,-41 443.507,-41 452.132,-41"/>
<polygon fill="black" stroke="black" points="452.257,-44.5001 462.257,-41 452.257,-37.5001 452.257,-44.5001"/>
</g>
<!-- x4&#45;&gt;n9 -->
<g id="edge20" class="edge"><title>x4:e:e&#45;&gt;n9:w</title>
<path fill="none" stroke="black" d="M901.382,-149C913.382,-149 918.632,-149 927.257,-149"/>
<polygon fill="black" stroke="black" points="927.382,-152.5 937.382,-149 927.382,-145.5 927.382,-152.5"/>
</g>
<!-- x5&#45;&gt;n10 -->
<g id="edge1" class="edge"><title>x5:e:e&#45;&gt;n10:w</title>
<path fill="none" stroke="black" d="M901.382,-41C915.494,-41 921.337,-41 931.832,-41"/>
<polygon fill="black" stroke="black" points="932.025,-44.5001 942.025,-41 932.025,-37.5001 932.025,-44.5001"/>
</g>
<!-- x6&#45;&gt;n13 -->
<g id="edge8" class="edge"><title>x6:e:e&#45;&gt;n13:w</title>
<path fill="none" stroke="black" d="M1867.49,-119C1879.49,-119 1884.74,-119 1893.37,-119"/>
<polygon fill="black" stroke="black" points="1893.49,-122.5 1903.49,-119 1893.49,-115.5 1893.49,-122.5"/>
</g>
<!-- x7&#45;&gt;n11 -->
<g id="edge4" class="edge"><title>x7:e:e&#45;&gt;n11:w</title>
<path fill="none" stroke="black" d="M1572.37,-119C1584.37,-119 1589.62,-119 1598.24,-119"/>
<polygon fill="black" stroke="black" points="1598.37,-122.5 1608.37,-119 1598.37,-115.5 1598.37,-122.5"/>
</g>
<!-- n2 -->
<g id="node22" class="node"><title>n2</title>
<polygon fill="none" stroke="black" points="1384.02,-59 1298.55,-41 1384.02,-23 1469.48,-41 1384.02,-59"/>
<text text-anchor="middle" x="1384.02" y="-37.3" font-family="Times,serif" font-size="14.00">$0\out_ff[0:0]</text>
</g>
<!-- x8&#45;&gt;n2 -->
<g id="edge9" class="edge"><title>x8:e:e&#45;&gt;n2:w</title>
<path fill="none" stroke="black" d="M1223.17,-41C1252.27,-41 1262.02,-41 1286.74,-41"/>
<polygon fill="black" stroke="black" points="1287.02,-44.5001 1297.02,-41 1287.02,-37.5001 1287.02,-44.5001"/>
</g>
</g>
</svg>
