<?xml version="1.0" encoding="UTF-8" standalone="no"?>
<!DOCTYPE svg PUBLIC "-//W3C//DTD SVG 1.1//EN"
 "http://www.w3.org/Graphics/SVG/1.1/DTD/svg11.dtd">
<!-- Generated by graphviz version 2.38.0 (20140413.2041)
 -->
<!-- Title: hier_design Pages: 1 -->
<svg width="225pt" height="229pt"
 viewBox="0.00 0.00 225.00 229.00" xmlns="http://www.w3.org/2000/svg" xmlns:xlink="http://www.w3.org/1999/xlink">
<g id="graph0" class="graph" transform="scale(1 1) rotate(0) translate(4 225)">
<title>hier_design</title>
<polygon fill="white" stroke="none" points="-4,4 -4,-225 221,-225 221,4 -4,4"/>
<text text-anchor="middle" x="108.5" y="-7.8" font-family="Times,serif" font-size="14.00">hier_design</text>
<!-- n2 -->
<g id="node1" class="node"><title>n2</title>
<polygon fill="none" stroke="black" points="54,-195.544 54,-210.456 38.1838,-221 15.8162,-221 3.55271e-15,-210.456 0,-195.544 15.8162,-185 38.1838,-185 54,-195.544"/>
<text text-anchor="middle" x="27" y="-199.3" font-family="Times,serif" font-size="14.00">a</text>
</g>
<!-- c9 -->
<g id="node5" class="node"><title>c9</title>
<polygon fill="none" stroke="black" points="90,-132.5 90,-201.5 217,-201.5 217,-132.5 90,-132.5"/>
<text text-anchor="middle" x="105" y="-186.3" font-family="Times,serif" font-size="14.00">$1</text>
<polyline fill="none" stroke="black" points="90,-178.5 120,-178.5 "/>
<text text-anchor="middle" x="105" y="-163.3" font-family="Times,serif" font-size="14.00">$2</text>
<polyline fill="none" stroke="black" points="90,-155.5 120,-155.5 "/>
<text text-anchor="middle" x="105" y="-140.3" font-family="Times,serif" font-size="14.00">$3</text>
<polyline fill="none" stroke="black" points="120,-132.5 120,-201.5 "/>
<text text-anchor="middle" x="158.5" y="-170.8" font-family="Times,serif" font-size="14.00">u_a_to_i0</text>
<text text-anchor="middle" x="158.5" y="-155.8" font-family="Times,serif" font-size="14.00">sub_design</text>
<polyline fill="none" stroke="black" points="197,-132.5 197,-201.5 "/>
<text text-anchor="middle" x="207" y="-163.3" font-family="Times,serif" font-size="14.00"> </text>
</g>
<!-- n2&#45;&gt;c9 -->
<g id="edge1" class="edge"><title>n2:e&#45;&gt;c9:p7:w</title>
<path fill="none" stroke="black" d="M54,-203C72.3848,-203 69.7223,-179.234 80.2143,-170.322"/>
<polygon fill="black" stroke="black" points="81.656,-173.529 90,-167 79.4056,-166.901 81.656,-173.529"/>
</g>
<!-- n3 -->
<g id="node2" class="node"><title>n3</title>
<polygon fill="none" stroke="black" points="54,-141.544 54,-156.456 38.1838,-167 15.8162,-167 3.55271e-15,-156.456 0,-141.544 15.8162,-131 38.1838,-131 54,-141.544"/>
<text text-anchor="middle" x="27" y="-145.3" font-family="Times,serif" font-size="14.00">clk</text>
</g>
<!-- n3&#45;&gt;c9 -->
<g id="edge3" class="edge"><title>n3:e&#45;&gt;c9:p6:w</title>
<path fill="none" stroke="black" d="M54,-149C74.0818,-149 68.9614,-177.117 80.3799,-186.783"/>
<polygon fill="black" stroke="black" points="79.4062,-190.148 90,-190 81.6263,-183.509 79.4062,-190.148"/>
</g>
<!-- c10 -->
<g id="node6" class="node"><title>c10</title>
<polygon fill="none" stroke="black" points="90,-44.5 90,-113.5 217,-113.5 217,-44.5 90,-44.5"/>
<text text-anchor="middle" x="105" y="-98.3" font-family="Times,serif" font-size="14.00">$1</text>
<polyline fill="none" stroke="black" points="90,-90.5 120,-90.5 "/>
<text text-anchor="middle" x="105" y="-75.3" font-family="Times,serif" font-size="14.00">$2</text>
<polyline fill="none" stroke="black" points="90,-67.5 120,-67.5 "/>
<text text-anchor="middle" x="105" y="-52.3" font-family="Times,serif" font-size="14.00">$3</text>
<polyline fill="none" stroke="black" points="120,-44.5 120,-113.5 "/>
<text text-anchor="middle" x="158.5" y="-82.8" font-family="Times,serif" font-size="14.00">u_i0_to_z</text>
<text text-anchor="middle" x="158.5" y="-67.8" font-family="Times,serif" font-size="14.00">sub_design</text>
<polyline fill="none" stroke="black" points="197,-44.5 197,-113.5 "/>
<text text-anchor="middle" x="207" y="-75.3" font-family="Times,serif" font-size="14.00"> </text>
</g>
<!-- n3&#45;&gt;c10 -->
<g id="edge2" class="edge"><title>n3:e&#45;&gt;c10:p6:w</title>
<path fill="none" stroke="black" d="M54,-149C76.2011,-149 67.8346,-115.54 80.4833,-105.084"/>
<polygon fill="black" stroke="black" points="81.5659,-108.412 90,-102 79.408,-101.753 81.5659,-108.412"/>
</g>
<!-- n4 -->
<g id="node3" class="node"><title>n4</title>
<polygon fill="none" stroke="black" points="27,-113 3.55271e-15,-95 27,-77 54,-95 27,-113"/>
<text text-anchor="middle" x="27" y="-91.3" font-family="Times,serif" font-size="14.00">i0</text>
</g>
<!-- n4&#45;&gt;c9 -->
<g id="edge5" class="edge"><title>n4:e&#45;&gt;c9:p8:w</title>
<path fill="none" stroke="black" d="M54,-95C76.8011,-95 67.5158,-129.884 80.2899,-140.785"/>
<polygon fill="black" stroke="black" points="79.4067,-144.179 90,-144 81.607,-137.534 79.4067,-144.179"/>
</g>
<!-- n4&#45;&gt;c10 -->
<g id="edge4" class="edge"><title>n4:e&#45;&gt;c10:p7:w</title>
<path fill="none" stroke="black" d="M54,-95C67.4054,-95 71.1228,-85.6211 79.987,-81.2247"/>
<polygon fill="black" stroke="black" points="80.9972,-84.5857 90,-79 79.4789,-77.7523 80.9972,-84.5857"/>
</g>
<!-- n5 -->
<g id="node4" class="node"><title>n5</title>
<polygon fill="none" stroke="black" points="54,-33.5442 54,-48.4558 38.1838,-59 15.8162,-59 3.55271e-15,-48.4558 0,-33.5442 15.8162,-23 38.1838,-23 54,-33.5442"/>
<text text-anchor="middle" x="27" y="-37.3" font-family="Times,serif" font-size="14.00">z</text>
</g>
<!-- n5&#45;&gt;c10 -->
<g id="edge6" class="edge"><title>n5:e&#45;&gt;c10:p8:w</title>
<path fill="none" stroke="black" d="M54,-41C67.2708,-41 71.1628,-49.7927 80.0372,-53.9143"/>
<polygon fill="black" stroke="black" points="79.495,-57.3766 90,-56 80.9294,-50.5251 79.495,-57.3766"/>
</g>
</g>
</svg>
