<?xml version="1.0" encoding="UTF-8" standalone="no"?>
<!DOCTYPE svg PUBLIC "-//W3C//DTD SVG 1.1//EN"
 "http://www.w3.org/Graphics/SVG/1.1/DTD/svg11.dtd">
<!-- Generated by graphviz version 2.38.0 (20140413.2041)
 -->
<!-- Title: merge_design Pages: 1 -->
<svg width="702pt" height="267pt"
 viewBox="0.00 0.00 701.60 267.00" xmlns="http://www.w3.org/2000/svg" xmlns:xlink="http://www.w3.org/1999/xlink">
<g id="graph0" class="graph" transform="scale(1 1) rotate(0) translate(4 263)">
<title>merge_design</title>
<polygon fill="white" stroke="none" points="-4,4 -4,-263 697.6,-263 697.6,4 -4,4"/>
<text text-anchor="middle" x="346.8" y="-7.8" font-family="Times,serif" font-size="14.00">merge_design</text>
<!-- n5 -->
<g id="node1" class="node"><title>n5</title>
<polygon fill="none" stroke="black" points="54,-137.544 54,-152.456 38.1838,-163 15.8162,-163 3.55271e-15,-152.456 0,-137.544 15.8162,-127 38.1838,-127 54,-137.544"/>
<text text-anchor="middle" x="27" y="-141.3" font-family="Times,serif" font-size="14.00">a</text>
</g>
<!-- c14 -->
<g id="node7" class="node"><title>c14</title>
<polygon fill="none" stroke="black" points="90,-95 90,-141 185,-141 185,-95 90,-95"/>
<text text-anchor="middle" x="103" y="-125.8" font-family="Times,serif" font-size="14.00">A</text>
<polyline fill="none" stroke="black" points="90,-118 116,-118 "/>
<text text-anchor="middle" x="103" y="-102.8" font-family="Times,serif" font-size="14.00">B</text>
<polyline fill="none" stroke="black" points="116,-95 116,-141 "/>
<text text-anchor="middle" x="137.5" y="-121.8" font-family="Times,serif" font-size="14.00">$3</text>
<text text-anchor="middle" x="137.5" y="-106.8" font-family="Times,serif" font-size="14.00">$add</text>
<polyline fill="none" stroke="black" points="159,-95 159,-141 "/>
<text text-anchor="middle" x="172" y="-114.3" font-family="Times,serif" font-size="14.00">Y</text>
</g>
<!-- n5&#45;&gt;c14 -->
<g id="edge7" class="edge"><title>n5:e&#45;&gt;c14:p11:w</title>
<path fill="none" stroke="black" stroke-width="3" d="M54,-145C67.2708,-145 71.1628,-136.207 80.0372,-132.086"/>
<polygon fill="black" stroke="black" stroke-width="3" points="80.9294,-135.475 90,-130 79.495,-128.623 80.9294,-135.475"/>
</g>
<!-- n6 -->
<g id="node2" class="node"><title>n6</title>
<polygon fill="none" stroke="black" points="54,-83.5442 54,-98.4558 38.1838,-109 15.8162,-109 3.55271e-15,-98.4558 0,-83.5442 15.8162,-73 38.1838,-73 54,-83.5442"/>
<text text-anchor="middle" x="27" y="-87.3" font-family="Times,serif" font-size="14.00">b</text>
</g>
<!-- n6&#45;&gt;c14 -->
<g id="edge8" class="edge"><title>n6:e&#45;&gt;c14:p12:w</title>
<path fill="none" stroke="black" stroke-width="3" d="M54,-91C67.2708,-91 71.1628,-99.7927 80.0372,-103.914"/>
<polygon fill="black" stroke="black" stroke-width="3" points="79.495,-107.377 90,-106 80.9294,-100.525 79.495,-107.377"/>
</g>
<!-- n7 -->
<g id="node3" class="node"><title>n7</title>
<polygon fill="none" stroke="black" points="425.1,-179.544 425.1,-194.456 409.284,-205 386.916,-205 371.1,-194.456 371.1,-179.544 386.916,-169 409.284,-169 425.1,-179.544"/>
<text text-anchor="middle" x="398.1" y="-183.3" font-family="Times,serif" font-size="14.00">clk</text>
</g>
<!-- c20 -->
<g id="node10" class="node"><title>c20</title>
<polygon fill="none" stroke="black" points="481.6,-171.5 481.6,-240.5 603.6,-240.5 603.6,-171.5 481.6,-171.5"/>
<text text-anchor="middle" x="507.1" y="-225.3" font-family="Times,serif" font-size="14.00">ARST</text>
<polyline fill="none" stroke="black" points="481.6,-217.5 532.6,-217.5 "/>
<text text-anchor="middle" x="507.1" y="-202.3" font-family="Times,serif" font-size="14.00">CLK</text>
<polyline fill="none" stroke="black" points="481.6,-194.5 532.6,-194.5 "/>
<text text-anchor="middle" x="507.1" y="-179.3" font-family="Times,serif" font-size="14.00">D</text>
<polyline fill="none" stroke="black" points="532.6,-171.5 532.6,-240.5 "/>
<text text-anchor="middle" x="555.1" y="-209.8" font-family="Times,serif" font-size="14.00">$15</text>
<text text-anchor="middle" x="555.1" y="-194.8" font-family="Times,serif" font-size="14.00">$adff</text>
<polyline fill="none" stroke="black" points="577.6,-171.5 577.6,-240.5 "/>
<text text-anchor="middle" x="590.6" y="-202.3" font-family="Times,serif" font-size="14.00">Q</text>
</g>
<!-- n7&#45;&gt;c20 -->
<g id="edge9" class="edge"><title>n7:e&#45;&gt;c20:p17:w</title>
<path fill="none" stroke="black" d="M426.1,-187C448.302,-187 454.031,-200.778 471.343,-204.868"/>
<polygon fill="black" stroke="black" points="471.276,-208.382 481.6,-206 472.044,-201.424 471.276,-208.382"/>
</g>
<!-- c21 -->
<g id="node11" class="node"><title>c21</title>
<polygon fill="none" stroke="black" points="481.6,-83.5 481.6,-152.5 603.6,-152.5 603.6,-83.5 481.6,-83.5"/>
<text text-anchor="middle" x="507.1" y="-137.3" font-family="Times,serif" font-size="14.00">ARST</text>
<polyline fill="none" stroke="black" points="481.6,-129.5 532.6,-129.5 "/>
<text text-anchor="middle" x="507.1" y="-114.3" font-family="Times,serif" font-size="14.00">CLK</text>
<polyline fill="none" stroke="black" points="481.6,-106.5 532.6,-106.5 "/>
<text text-anchor="middle" x="507.1" y="-91.3" font-family="Times,serif" font-size="14.00">D</text>
<polyline fill="none" stroke="black" points="532.6,-83.5 532.6,-152.5 "/>
<text text-anchor="middle" x="555.1" y="-121.8" font-family="Times,serif" font-size="14.00">$16</text>
<text text-anchor="middle" x="555.1" y="-106.8" font-family="Times,serif" font-size="14.00">$adff</text>
<polyline fill="none" stroke="black" points="577.6,-83.5 577.6,-152.5 "/>
<text text-anchor="middle" x="590.6" y="-114.3" font-family="Times,serif" font-size="14.00">Q</text>
</g>
<!-- n7&#45;&gt;c21 -->
<g id="edge10" class="edge"><title>n7:e&#45;&gt;c21:p17:w</title>
<path fill="none" stroke="black" d="M426.1,-187C461.613,-187 446.181,-130.819 471.743,-119.846"/>
<polygon fill="black" stroke="black" points="472.415,-123.281 481.6,-118 471.127,-116.4 472.415,-123.281"/>
</g>
<!-- n8 -->
<g id="node4" class="node"><title>n8</title>
<polygon fill="none" stroke="black" points="432.542,-233.544 432.542,-248.456 412.366,-259 383.834,-259 363.658,-248.456 363.658,-233.544 383.834,-223 412.366,-223 432.542,-233.544"/>
<text text-anchor="middle" x="398.1" y="-237.3" font-family="Times,serif" font-size="14.00">reset_</text>
</g>
<!-- n8&#45;&gt;c20 -->
<g id="edge11" class="edge"><title>n8:e&#45;&gt;c20:p16:w</title>
<path fill="none" stroke="black" d="M434.1,-241C451.962,-241 457.83,-232.925 471.382,-230.023"/>
<polygon fill="black" stroke="black" points="471.998,-233.479 481.6,-229 471.301,-226.514 471.998,-233.479"/>
</g>
<!-- n8&#45;&gt;c21 -->
<g id="edge12" class="edge"><title>n8:e&#45;&gt;c21:p16:w</title>
<path fill="none" stroke="black" d="M434.1,-241C479.267,-241 440.075,-156.733 471.402,-142.908"/>
<polygon fill="black" stroke="black" points="472.414,-146.28 481.6,-141 471.127,-139.399 472.414,-146.28"/>
</g>
<!-- n9 -->
<g id="node5" class="node"><title>n9</title>
<polygon fill="none" stroke="black" points="693.6,-198.544 693.6,-213.456 677.784,-224 655.416,-224 639.6,-213.456 639.6,-198.544 655.416,-188 677.784,-188 693.6,-198.544"/>
<text text-anchor="middle" x="666.6" y="-202.3" font-family="Times,serif" font-size="14.00">z0</text>
</g>
<!-- n10 -->
<g id="node6" class="node"><title>n10</title>
<polygon fill="none" stroke="black" points="693.6,-110.544 693.6,-125.456 677.784,-136 655.416,-136 639.6,-125.456 639.6,-110.544 655.416,-100 677.784,-100 693.6,-110.544"/>
<text text-anchor="middle" x="666.6" y="-114.3" font-family="Times,serif" font-size="14.00">z1</text>
</g>
<!-- n2 -->
<g id="node13" class="node"><title>n2</title>
<ellipse fill="black" stroke="black" cx="222.8" cy="-118" rx="1.8" ry="1.8"/>
</g>
<!-- c14&#45;&gt;n2 -->
<g id="edge2" class="edge"><title>c14:p13:e&#45;&gt;n2:w</title>
<path fill="none" stroke="black" stroke-width="3" d="M185,-118C197,-118 202.25,-118 210.875,-118"/>
<polygon fill="black" stroke="black" stroke-width="3" points="211,-121.5 221,-118 211,-114.5 211,-121.5"/>
</g>
<!-- v0 -->
<g id="node8" class="node"><title>v0</title>
<ellipse fill="none" stroke="black" cx="287.6" cy="-41" rx="27" ry="18"/>
<text text-anchor="middle" x="287.6" y="-37.3" font-family="Times,serif" font-size="14.00">1&#39;1</text>
</g>
<!-- c15 -->
<g id="node9" class="node"><title>c15</title>
<polygon fill="none" stroke="black" points="350.6,-60 350.6,-106 445.6,-106 445.6,-60 350.6,-60"/>
<text text-anchor="middle" x="363.6" y="-90.8" font-family="Times,serif" font-size="14.00">A</text>
<polyline fill="none" stroke="black" points="350.6,-83 376.6,-83 "/>
<text text-anchor="middle" x="363.6" y="-67.8" font-family="Times,serif" font-size="14.00">B</text>
<polyline fill="none" stroke="black" points="376.6,-60 376.6,-106 "/>
<text text-anchor="middle" x="398.1" y="-86.8" font-family="Times,serif" font-size="14.00">$6</text>
<text text-anchor="middle" x="398.1" y="-71.8" font-family="Times,serif" font-size="14.00">$add</text>
<polyline fill="none" stroke="black" points="419.6,-60 419.6,-106 "/>
<text text-anchor="middle" x="432.6" y="-79.3" font-family="Times,serif" font-size="14.00">Y</text>
</g>
<!-- v0&#45;&gt;c15 -->
<g id="edge14" class="edge"><title>v0:e&#45;&gt;c15:p12:w</title>
<path fill="none" stroke="black" d="M314.6,-41C331.359,-41 330.971,-60.4257 341.032,-68.0138"/>
<polygon fill="black" stroke="black" points="340.011,-71.3615 350.6,-71 342.097,-64.6795 340.011,-71.3615"/>
</g>
<!-- c15&#45;&gt;c21 -->
<g id="edge5" class="edge"><title>c15:p13:e&#45;&gt;c21:p18:w</title>
<path fill="none" stroke="black" stroke-width="3" d="M445.6,-83C458.381,-83 462.779,-89.8914 471.5,-93.2294"/>
<polygon fill="black" stroke="black" stroke-width="3" points="471.146,-96.7206 481.6,-95 472.355,-89.8257 471.146,-96.7206"/>
</g>
<!-- c20&#45;&gt;n9 -->
<g id="edge13" class="edge"><title>c20:p19:e&#45;&gt;n9:w</title>
<path fill="none" stroke="black" stroke-width="3" d="M603.6,-206C615.6,-206 620.85,-206 629.475,-206"/>
<polygon fill="black" stroke="black" stroke-width="3" points="629.6,-209.5 639.6,-206 629.6,-202.5 629.6,-209.5"/>
</g>
<!-- c21&#45;&gt;n10 -->
<g id="edge1" class="edge"><title>c21:p19:e&#45;&gt;n10:w</title>
<path fill="none" stroke="black" stroke-width="3" d="M603.6,-118C615.6,-118 620.85,-118 629.475,-118"/>
<polygon fill="black" stroke="black" stroke-width="3" points="629.6,-121.5 639.6,-118 629.6,-114.5 629.6,-121.5"/>
</g>
<!-- x1 -->
<g id="node12" class="node"><title>x1</title>
<path fill="none" stroke="black" d="M302.6,-113C302.6,-113 272.6,-113 272.6,-113 266.6,-113 260.6,-107 260.6,-101 260.6,-101 260.6,-89 260.6,-89 260.6,-83 266.6,-77 272.6,-77 272.6,-77 302.6,-77 302.6,-77 308.6,-77 314.6,-83 314.6,-89 314.6,-89 314.6,-101 314.6,-101 314.6,-107 308.6,-113 302.6,-113"/>
<text text-anchor="middle" x="287.6" y="-91.3" font-family="Times,serif" font-size="14.00">BUF</text>
</g>
<!-- x1&#45;&gt;c15 -->
<g id="edge6" class="edge"><title>x1:e:e&#45;&gt;c15:p11:w</title>
<path fill="none" stroke="black" stroke-width="3" d="M314.6,-95C326.6,-95 331.85,-95 340.475,-95"/>
<polygon fill="black" stroke="black" stroke-width="3" points="340.6,-98.5001 350.6,-95 340.6,-91.5001 340.6,-98.5001"/>
</g>
<!-- n2&#45;&gt;c20 -->
<g id="edge3" class="edge"><title>n2:e&#45;&gt;c20:p18:w</title>
<path fill="none" stroke="black" stroke-width="3" d="M224.6,-118C249.595,-118 422.371,-150.771 445.6,-160 459.385,-165.477 462.015,-176.434 471.56,-180.966"/>
<polygon fill="black" stroke="black" stroke-width="3" points="471.104,-184.445 481.6,-183 472.494,-177.584 471.104,-184.445"/>
</g>
<!-- n2&#45;&gt;x1 -->
<g id="edge4" class="edge"><title>n2:e&#45;&gt;x1:w:w</title>
<path fill="none" stroke="black" stroke-width="3" d="M224.6,-118C239.433,-118 241.474,-103.962 250.71,-97.8203"/>
<polygon fill="black" stroke="black" stroke-width="3" points="251.943,-101.108 260.6,-95 250.024,-94.3766 251.943,-101.108"/>
</g>
</g>
</svg>
