<?xml version="1.0" encoding="UTF-8" standalone="no"?>
<!DOCTYPE svg PUBLIC "-//W3C//DTD SVG 1.1//EN"
 "http://www.w3.org/Graphics/SVG/1.1/DTD/svg11.dtd">
<!-- Generated by graphviz version 2.38.0 (20140413.2041)
 -->
<!-- Title: merge_design Pages: 1 -->
<svg width="572pt" height="273pt"
 viewBox="0.00 0.00 572.00 273.00" xmlns="http://www.w3.org/2000/svg" xmlns:xlink="http://www.w3.org/1999/xlink">
<g id="graph0" class="graph" transform="scale(1 1) rotate(0) translate(4 269)">
<title>merge_design</title>
<polygon fill="white" stroke="none" points="-4,4 -4,-269 568,-269 568,4 -4,4"/>
<text text-anchor="middle" x="282" y="-7.8" font-family="Times,serif" font-size="14.00">merge_design</text>
<!-- n5 -->
<g id="node1" class="node"><title>n5</title>
<polygon fill="none" stroke="black" points="54,-161.544 54,-176.456 38.1838,-187 15.8162,-187 3.55271e-15,-176.456 0,-161.544 15.8162,-151 38.1838,-151 54,-161.544"/>
<text text-anchor="middle" x="27" y="-165.3" font-family="Times,serif" font-size="14.00">a</text>
</g>
<!-- c14 -->
<g id="node7" class="node"><title>c14</title>
<polygon fill="none" stroke="black" points="90,-143 90,-189 185,-189 185,-143 90,-143"/>
<text text-anchor="middle" x="103" y="-173.8" font-family="Times,serif" font-size="14.00">A</text>
<polyline fill="none" stroke="black" points="90,-166 116,-166 "/>
<text text-anchor="middle" x="103" y="-150.8" font-family="Times,serif" font-size="14.00">B</text>
<polyline fill="none" stroke="black" points="116,-143 116,-189 "/>
<text text-anchor="middle" x="137.5" y="-169.8" font-family="Times,serif" font-size="14.00">$3</text>
<text text-anchor="middle" x="137.5" y="-154.8" font-family="Times,serif" font-size="14.00">$add</text>
<polyline fill="none" stroke="black" points="159,-143 159,-189 "/>
<text text-anchor="middle" x="172" y="-162.3" font-family="Times,serif" font-size="14.00">Y</text>
</g>
<!-- n5&#45;&gt;c14 -->
<g id="edge5" class="edge"><title>n5:e&#45;&gt;c14:p11:w</title>
<path fill="none" stroke="black" stroke-width="3" d="M54,-169C66.4982,-169 71.2566,-174.169 80.0058,-176.672"/>
<polygon fill="black" stroke="black" stroke-width="3" points="79.6261,-180.152 90,-178 80.5482,-173.213 79.6261,-180.152"/>
</g>
<!-- c15 -->
<g id="node8" class="node"><title>c15</title>
<polygon fill="none" stroke="black" points="90,-78 90,-124 185,-124 185,-78 90,-78"/>
<text text-anchor="middle" x="103" y="-108.8" font-family="Times,serif" font-size="14.00">A</text>
<polyline fill="none" stroke="black" points="90,-101 116,-101 "/>
<text text-anchor="middle" x="103" y="-85.8" font-family="Times,serif" font-size="14.00">B</text>
<polyline fill="none" stroke="black" points="116,-78 116,-124 "/>
<text text-anchor="middle" x="137.5" y="-104.8" font-family="Times,serif" font-size="14.00">$5</text>
<text text-anchor="middle" x="137.5" y="-89.8" font-family="Times,serif" font-size="14.00">$add</text>
<polyline fill="none" stroke="black" points="159,-78 159,-124 "/>
<text text-anchor="middle" x="172" y="-97.3" font-family="Times,serif" font-size="14.00">Y</text>
</g>
<!-- n5&#45;&gt;c15 -->
<g id="edge6" class="edge"><title>n5:e&#45;&gt;c15:p11:w</title>
<path fill="none" stroke="black" stroke-width="3" d="M54,-169C79.4273,-169 65.8868,-127.643 80.3544,-116.011"/>
<polygon fill="black" stroke="black" stroke-width="3" points="81.4971,-119.321 90,-113 79.4113,-112.639 81.4971,-119.321"/>
</g>
<!-- n6 -->
<g id="node2" class="node"><title>n6</title>
<polygon fill="none" stroke="black" points="54,-98.5442 54,-113.456 38.1838,-124 15.8162,-124 3.55271e-15,-113.456 0,-98.5442 15.8162,-88 38.1838,-88 54,-98.5442"/>
<text text-anchor="middle" x="27" y="-102.3" font-family="Times,serif" font-size="14.00">b</text>
</g>
<!-- n6&#45;&gt;c14 -->
<g id="edge7" class="edge"><title>n6:e&#45;&gt;c14:p12:w</title>
<path fill="none" stroke="black" stroke-width="3" d="M54,-106C76.5,-106 67.6758,-140.172 80.387,-150.851"/>
<polygon fill="black" stroke="black" stroke-width="3" points="79.4073,-154.213 90,-154 81.5867,-147.561 79.4073,-154.213"/>
</g>
<!-- n6&#45;&gt;c15 -->
<g id="edge8" class="edge"><title>n6:e&#45;&gt;c15:p12:w</title>
<path fill="none" stroke="black" stroke-width="3" d="M54,-106C67.6854,-106 71.1518,-95.8305 80.2067,-91.2225"/>
<polygon fill="black" stroke="black" stroke-width="3" points="81.0226,-94.6264 90,-89 79.4734,-87.8 81.0226,-94.6264"/>
</g>
<!-- n7 -->
<g id="node3" class="node"><title>n7</title>
<polygon fill="none" stroke="black" points="295.5,-185.544 295.5,-200.456 279.684,-211 257.316,-211 241.5,-200.456 241.5,-185.544 257.316,-175 279.684,-175 295.5,-185.544"/>
<text text-anchor="middle" x="268.5" y="-189.3" font-family="Times,serif" font-size="14.00">clk</text>
</g>
<!-- c21 -->
<g id="node11" class="node"><title>c21</title>
<polygon fill="none" stroke="black" points="352,-177.5 352,-246.5 474,-246.5 474,-177.5 352,-177.5"/>
<text text-anchor="middle" x="377.5" y="-231.3" font-family="Times,serif" font-size="14.00">ARST</text>
<polyline fill="none" stroke="black" points="352,-223.5 403,-223.5 "/>
<text text-anchor="middle" x="377.5" y="-208.3" font-family="Times,serif" font-size="14.00">CLK</text>
<polyline fill="none" stroke="black" points="352,-200.5 403,-200.5 "/>
<text text-anchor="middle" x="377.5" y="-185.3" font-family="Times,serif" font-size="14.00">D</text>
<polyline fill="none" stroke="black" points="403,-177.5 403,-246.5 "/>
<text text-anchor="middle" x="425.5" y="-215.8" font-family="Times,serif" font-size="14.00">$15</text>
<text text-anchor="middle" x="425.5" y="-200.8" font-family="Times,serif" font-size="14.00">$adff</text>
<polyline fill="none" stroke="black" points="448,-177.5 448,-246.5 "/>
<text text-anchor="middle" x="461" y="-208.3" font-family="Times,serif" font-size="14.00">Q</text>
</g>
<!-- n7&#45;&gt;c21 -->
<g id="edge9" class="edge"><title>n7:e&#45;&gt;c21:p18:w</title>
<path fill="none" stroke="black" d="M296.5,-193C318.702,-193 324.431,-206.778 341.743,-210.868"/>
<polygon fill="black" stroke="black" points="341.676,-214.382 352,-212 342.444,-207.424 341.676,-214.382"/>
</g>
<!-- c22 -->
<g id="node12" class="node"><title>c22</title>
<polygon fill="none" stroke="black" points="352,-89.5 352,-158.5 474,-158.5 474,-89.5 352,-89.5"/>
<text text-anchor="middle" x="377.5" y="-143.3" font-family="Times,serif" font-size="14.00">ARST</text>
<polyline fill="none" stroke="black" points="352,-135.5 403,-135.5 "/>
<text text-anchor="middle" x="377.5" y="-120.3" font-family="Times,serif" font-size="14.00">CLK</text>
<polyline fill="none" stroke="black" points="352,-112.5 403,-112.5 "/>
<text text-anchor="middle" x="377.5" y="-97.3" font-family="Times,serif" font-size="14.00">D</text>
<polyline fill="none" stroke="black" points="403,-89.5 403,-158.5 "/>
<text text-anchor="middle" x="425.5" y="-127.8" font-family="Times,serif" font-size="14.00">$16</text>
<text text-anchor="middle" x="425.5" y="-112.8" font-family="Times,serif" font-size="14.00">$adff</text>
<polyline fill="none" stroke="black" points="448,-89.5 448,-158.5 "/>
<text text-anchor="middle" x="461" y="-120.3" font-family="Times,serif" font-size="14.00">Q</text>
</g>
<!-- n7&#45;&gt;c22 -->
<g id="edge10" class="edge"><title>n7:e&#45;&gt;c22:p18:w</title>
<path fill="none" stroke="black" d="M296.5,-193C332.013,-193 316.581,-136.819 342.143,-125.846"/>
<polygon fill="black" stroke="black" points="342.815,-129.281 352,-124 341.527,-122.4 342.815,-129.281"/>
</g>
<!-- n8 -->
<g id="node4" class="node"><title>n8</title>
<polygon fill="none" stroke="black" points="302.942,-239.544 302.942,-254.456 282.766,-265 254.234,-265 234.058,-254.456 234.058,-239.544 254.234,-229 282.766,-229 302.942,-239.544"/>
<text text-anchor="middle" x="268.5" y="-243.3" font-family="Times,serif" font-size="14.00">reset_</text>
</g>
<!-- n8&#45;&gt;c21 -->
<g id="edge11" class="edge"><title>n8:e&#45;&gt;c21:p17:w</title>
<path fill="none" stroke="black" d="M304.5,-247C322.362,-247 328.23,-238.925 341.782,-236.023"/>
<polygon fill="black" stroke="black" points="342.398,-239.479 352,-235 341.701,-232.514 342.398,-239.479"/>
</g>
<!-- n8&#45;&gt;c22 -->
<g id="edge12" class="edge"><title>n8:e&#45;&gt;c22:p17:w</title>
<path fill="none" stroke="black" d="M304.5,-247C349.667,-247 310.475,-162.733 341.802,-148.908"/>
<polygon fill="black" stroke="black" points="342.814,-152.28 352,-147 341.527,-145.399 342.814,-152.28"/>
</g>
<!-- n9 -->
<g id="node5" class="node"><title>n9</title>
<polygon fill="none" stroke="black" points="564,-204.544 564,-219.456 548.184,-230 525.816,-230 510,-219.456 510,-204.544 525.816,-194 548.184,-194 564,-204.544"/>
<text text-anchor="middle" x="537" y="-208.3" font-family="Times,serif" font-size="14.00">z0</text>
</g>
<!-- n10 -->
<g id="node6" class="node"><title>n10</title>
<polygon fill="none" stroke="black" points="564,-116.544 564,-131.456 548.184,-142 525.816,-142 510,-131.456 510,-116.544 525.816,-106 548.184,-106 564,-116.544"/>
<text text-anchor="middle" x="537" y="-120.3" font-family="Times,serif" font-size="14.00">z1</text>
</g>
<!-- c14&#45;&gt;c21 -->
<g id="edge2" class="edge"><title>c14:p13:e&#45;&gt;c21:p19:w</title>
<path fill="none" stroke="black" stroke-width="3" d="M185,-166C243.222,-166 260.114,-149.672 316,-166 330.238,-170.16 332.613,-181.858 342.025,-186.777"/>
<polygon fill="black" stroke="black" stroke-width="3" points="341.478,-190.241 352,-189 343.001,-183.409 341.478,-190.241"/>
</g>
<!-- c16 -->
<g id="node10" class="node"><title>c16</title>
<polygon fill="none" stroke="black" points="221,-66 221,-112 316,-112 316,-66 221,-66"/>
<text text-anchor="middle" x="234" y="-96.8" font-family="Times,serif" font-size="14.00">A</text>
<polyline fill="none" stroke="black" points="221,-89 247,-89 "/>
<text text-anchor="middle" x="234" y="-73.8" font-family="Times,serif" font-size="14.00">B</text>
<polyline fill="none" stroke="black" points="247,-66 247,-112 "/>
<text text-anchor="middle" x="268.5" y="-92.8" font-family="Times,serif" font-size="14.00">$6</text>
<text text-anchor="middle" x="268.5" y="-77.8" font-family="Times,serif" font-size="14.00">$add</text>
<polyline fill="none" stroke="black" points="290,-66 290,-112 "/>
<text text-anchor="middle" x="303" y="-85.3" font-family="Times,serif" font-size="14.00">Y</text>
</g>
<!-- c15&#45;&gt;c16 -->
<g id="edge4" class="edge"><title>c15:p13:e&#45;&gt;c16:p11:w</title>
<path fill="none" stroke="black" stroke-width="3" d="M185,-101C197,-101 202.25,-101 210.875,-101"/>
<polygon fill="black" stroke="black" stroke-width="3" points="211,-104.5 221,-101 211,-97.5001 211,-104.5"/>
</g>
<!-- v0 -->
<g id="node9" class="node"><title>v0</title>
<ellipse fill="none" stroke="black" cx="137.5" cy="-41" rx="27" ry="18"/>
<text text-anchor="middle" x="137.5" y="-37.3" font-family="Times,serif" font-size="14.00">1&#39;1</text>
</g>
<!-- v0&#45;&gt;c16 -->
<g id="edge14" class="edge"><title>v0:e&#45;&gt;c16:p12:w</title>
<path fill="none" stroke="black" d="M165.5,-41C191.111,-41 191.907,-68.317 211.12,-75.3596"/>
<polygon fill="black" stroke="black" points="210.562,-78.8147 221,-77 211.708,-71.9093 210.562,-78.8147"/>
</g>
<!-- c16&#45;&gt;c22 -->
<g id="edge3" class="edge"><title>c16:p13:e&#45;&gt;c22:p19:w</title>
<path fill="none" stroke="black" stroke-width="3" d="M316,-89C328.781,-89 333.179,-95.8914 341.9,-99.2294"/>
<polygon fill="black" stroke="black" stroke-width="3" points="341.546,-102.721 352,-101 342.755,-95.8257 341.546,-102.721"/>
</g>
<!-- c21&#45;&gt;n9 -->
<g id="edge13" class="edge"><title>c21:p20:e&#45;&gt;n9:w</title>
<path fill="none" stroke="black" stroke-width="3" d="M474,-212C486,-212 491.25,-212 499.875,-212"/>
<polygon fill="black" stroke="black" stroke-width="3" points="500,-215.5 510,-212 500,-208.5 500,-215.5"/>
</g>
<!-- c22&#45;&gt;n10 -->
<g id="edge1" class="edge"><title>c22:p20:e&#45;&gt;n10:w</title>
<path fill="none" stroke="black" stroke-width="3" d="M474,-124C486,-124 491.25,-124 499.875,-124"/>
<polygon fill="black" stroke="black" stroke-width="3" points="500,-127.5 510,-124 500,-120.5 500,-127.5"/>
</g>
</g>
</svg>
