<?xml version="1.0" encoding="UTF-8" standalone="no"?>
<!DOCTYPE svg PUBLIC "-//W3C//DTD SVG 1.1//EN"
 "http://www.w3.org/Graphics/SVG/1.1/DTD/svg11.dtd">
<!-- Generated by graphviz version 2.38.0 (20140413.2041)
 -->
<!-- Title: my_design Pages: 1 -->
<svg width="4934pt" height="740pt"
 viewBox="0.00 0.00 4933.73 740.00" xmlns="http://www.w3.org/2000/svg" xmlns:xlink="http://www.w3.org/1999/xlink">
<g id="graph0" class="graph" transform="scale(1 1) rotate(0) translate(4 736)">
<title>my_design</title>
<polygon fill="white" stroke="none" points="-4,4 -4,-736 4929.73,-736 4929.73,4 -4,4"/>
<text text-anchor="middle" x="2462.86" y="-7.8" font-family="Times,serif" font-size="14.00">my_design</text>
<!-- n6 -->
<g id="node1" class="node"><title>n6</title>
<polygon fill="none" stroke="black" points="54,-87.5442 54,-102.456 38.1838,-113 15.8162,-113 3.55271e-15,-102.456 0,-87.5442 15.8162,-77 38.1838,-77 54,-87.5442"/>
<text text-anchor="middle" x="27" y="-91.3" font-family="Times,serif" font-size="14.00">a</text>
</g>
<!-- c28 -->
<g id="node20" class="node"><title>c28</title>
<polygon fill="none" stroke="black" points="90,-45 90,-91 185,-91 185,-45 90,-45"/>
<text text-anchor="middle" x="103" y="-75.8" font-family="Times,serif" font-size="14.00">A</text>
<polyline fill="none" stroke="black" points="90,-68 116,-68 "/>
<text text-anchor="middle" x="103" y="-52.8" font-family="Times,serif" font-size="14.00">B</text>
<polyline fill="none" stroke="black" points="116,-45 116,-91 "/>
<text text-anchor="middle" x="137.5" y="-71.8" font-family="Times,serif" font-size="14.00">$3</text>
<text text-anchor="middle" x="137.5" y="-56.8" font-family="Times,serif" font-size="14.00">$add</text>
<polyline fill="none" stroke="black" points="159,-45 159,-91 "/>
<text text-anchor="middle" x="172" y="-64.3" font-family="Times,serif" font-size="14.00">Y</text>
</g>
<!-- n6&#45;&gt;c28 -->
<g id="edge34" class="edge"><title>n6:e&#45;&gt;c28:p25:w</title>
<path fill="none" stroke="black" stroke-width="3" d="M54,-95C67.2708,-95 71.1628,-86.2073 80.0372,-82.0857"/>
<polygon fill="black" stroke="black" stroke-width="3" points="80.9294,-85.4749 90,-80 79.495,-78.6234 80.9294,-85.4749"/>
</g>
<!-- n7 -->
<g id="node2" class="node"><title>n7</title>
<polygon fill="none" stroke="black" points="54,-33.5442 54,-48.4558 38.1838,-59 15.8162,-59 3.55271e-15,-48.4558 0,-33.5442 15.8162,-23 38.1838,-23 54,-33.5442"/>
<text text-anchor="middle" x="27" y="-37.3" font-family="Times,serif" font-size="14.00">b</text>
</g>
<!-- n7&#45;&gt;c28 -->
<g id="edge35" class="edge"><title>n7:e&#45;&gt;c28:p26:w</title>
<path fill="none" stroke="black" stroke-width="3" d="M54,-41C67.2708,-41 71.1628,-49.7927 80.0372,-53.9143"/>
<polygon fill="black" stroke="black" stroke-width="3" points="79.495,-57.3766 90,-56 80.9294,-50.5251 79.495,-57.3766"/>
</g>
<!-- n8 -->
<g id="node3" class="node"><title>n8</title>
<polygon fill="none" stroke="black" points="293.727,-335.544 293.727,-350.456 277.911,-361 255.543,-361 239.727,-350.456 239.727,-335.544 255.543,-325 277.911,-325 293.727,-335.544"/>
<text text-anchor="middle" x="266.727" y="-339.3" font-family="Times,serif" font-size="14.00">clk</text>
</g>
<!-- c34 -->
<g id="node22" class="node"><title>c34</title>
<polygon fill="none" stroke="black" points="451.954,-80.5 451.954,-149.5 573.954,-149.5 573.954,-80.5 451.954,-80.5"/>
<text text-anchor="middle" x="477.454" y="-134.3" font-family="Times,serif" font-size="14.00">ARST</text>
<polyline fill="none" stroke="black" points="451.954,-126.5 502.954,-126.5 "/>
<text text-anchor="middle" x="477.454" y="-111.3" font-family="Times,serif" font-size="14.00">CLK</text>
<polyline fill="none" stroke="black" points="451.954,-103.5 502.954,-103.5 "/>
<text text-anchor="middle" x="477.454" y="-88.3" font-family="Times,serif" font-size="14.00">D</text>
<polyline fill="none" stroke="black" points="502.954,-80.5 502.954,-149.5 "/>
<text text-anchor="middle" x="525.454" y="-118.8" font-family="Times,serif" font-size="14.00">$6</text>
<text text-anchor="middle" x="525.454" y="-103.8" font-family="Times,serif" font-size="14.00">$adff</text>
<polyline fill="none" stroke="black" points="547.954,-80.5 547.954,-149.5 "/>
<text text-anchor="middle" x="560.954" y="-111.3" font-family="Times,serif" font-size="14.00">Q</text>
</g>
<!-- n8&#45;&gt;c34 -->
<g id="edge36" class="edge"><title>n8:e&#45;&gt;c34:p31:w</title>
<path fill="none" stroke="black" d="M294.727,-343C379.92,-343 291.978,-222.783 348.454,-159 379.008,-124.493 398.494,-116.117 440.92,-115.11"/>
<polygon fill="black" stroke="black" points="440.993,-118.61 450.954,-115 440.916,-111.61 440.993,-118.61"/>
</g>
<!-- c46 -->
<g id="node30" class="node"><title>c46</title>
<polygon fill="none" stroke="black" points="348.454,-448.5 348.454,-609.5 677.454,-609.5 677.454,-448.5 348.454,-448.5"/>
<text text-anchor="middle" x="428.954" y="-594.3" font-family="Times,serif" font-size="14.00">CLOCK_ENABLE</text>
<polyline fill="none" stroke="black" points="348.454,-586.5 509.454,-586.5 "/>
<text text-anchor="middle" x="428.954" y="-571.3" font-family="Times,serif" font-size="14.00">D_OUT_0</text>
<polyline fill="none" stroke="black" points="348.454,-563.5 509.454,-563.5 "/>
<text text-anchor="middle" x="428.954" y="-548.3" font-family="Times,serif" font-size="14.00">D_OUT_1</text>
<polyline fill="none" stroke="black" points="348.454,-540.5 509.454,-540.5 "/>
<text text-anchor="middle" x="428.954" y="-525.3" font-family="Times,serif" font-size="14.00">INPUT_CLK</text>
<polyline fill="none" stroke="black" points="348.454,-517.5 509.454,-517.5 "/>
<text text-anchor="middle" x="428.954" y="-502.3" font-family="Times,serif" font-size="14.00">LATCH_INPUT_VALUE</text>
<polyline fill="none" stroke="black" points="348.454,-494.5 509.454,-494.5 "/>
<text text-anchor="middle" x="428.954" y="-479.3" font-family="Times,serif" font-size="14.00">OUTPUT_CLK</text>
<polyline fill="none" stroke="black" points="348.454,-471.5 509.454,-471.5 "/>
<text text-anchor="middle" x="428.954" y="-456.3" font-family="Times,serif" font-size="14.00">OUTPUT_ENABLE</text>
<polyline fill="none" stroke="black" points="509.454,-448.5 509.454,-609.5 "/>
<text text-anchor="middle" x="538.954" y="-532.8" font-family="Times,serif" font-size="14.00">u_sb_in</text>
<text text-anchor="middle" x="538.954" y="-517.8" font-family="Times,serif" font-size="14.00">SB_IO</text>
<polyline fill="none" stroke="black" points="568.454,-448.5 568.454,-609.5 "/>
<text text-anchor="middle" x="622.954" y="-579.3" font-family="Times,serif" font-size="14.00">D_IN_0</text>
<polyline fill="none" stroke="black" points="568.454,-556.5 677.454,-556.5 "/>
<text text-anchor="middle" x="622.954" y="-525.8" font-family="Times,serif" font-size="14.00">D_IN_1</text>
<polyline fill="none" stroke="black" points="568.454,-502.5 677.454,-502.5 "/>
<text text-anchor="middle" x="622.954" y="-471.8" font-family="Times,serif" font-size="14.00">PACKAGE_PIN</text>
</g>
<!-- n8&#45;&gt;c46 -->
<g id="edge37" class="edge"><title>n8:e&#45;&gt;c46:p39:w</title>
<path fill="none" stroke="black" d="M294.727,-343C377.076,-343 272.202,-513.359 338.462,-527.999"/>
<polygon fill="black" stroke="black" points="338.155,-531.486 348.454,-529 338.853,-524.521 338.155,-531.486"/>
</g>
<!-- n8&#45;&gt;c46 -->
<g id="edge38" class="edge"><title>n8:e&#45;&gt;c46:p41:w</title>
<path fill="none" stroke="black" d="M294.727,-343C357.599,-343 290.352,-467.59 338.483,-481.703"/>
<polygon fill="black" stroke="black" points="338.086,-485.181 348.454,-483 338.989,-478.24 338.086,-485.181"/>
</g>
<!-- c48 -->
<g id="node31" class="node"><title>c48</title>
<polygon fill="none" stroke="black" points="1155.14,-331 1155.14,-377 1340.14,-377 1340.14,-331 1155.14,-331"/>
<text text-anchor="middle" x="1168.14" y="-361.8" font-family="Times,serif" font-size="14.00">C</text>
<polyline fill="none" stroke="black" points="1155.14,-354 1181.14,-354 "/>
<text text-anchor="middle" x="1168.14" y="-338.8" font-family="Times,serif" font-size="14.00">D</text>
<polyline fill="none" stroke="black" points="1181.14,-331 1181.14,-377 "/>
<text text-anchor="middle" x="1247.64" y="-357.8" font-family="Times,serif" font-size="14.00">u_sb_in2sb_internal0</text>
<text text-anchor="middle" x="1247.64" y="-342.8" font-family="Times,serif" font-size="14.00">SB_DFF</text>
<polyline fill="none" stroke="black" points="1314.14,-331 1314.14,-377 "/>
<text text-anchor="middle" x="1327.14" y="-350.3" font-family="Times,serif" font-size="14.00">Q</text>
</g>
<!-- n8&#45;&gt;c48 -->
<g id="edge39" class="edge"><title>n8:e&#45;&gt;c48:p47:w</title>
<path fill="none" stroke="black" d="M294.727,-343C318.672,-343 324.538,-345.828 348.454,-347 702.58,-364.349 793.946,-365.97 1143.48,-366"/>
<polygon fill="black" stroke="black" points="1143.64,-369.499 1153.64,-366 1143.64,-362.499 1143.64,-369.499"/>
</g>
<!-- c49 -->
<g id="node37" class="node"><title>c49</title>
<polygon fill="none" stroke="black" points="4479.16,-275.5 4479.16,-436.5 4815.16,-436.5 4815.16,-275.5 4479.16,-275.5"/>
<text text-anchor="middle" x="4559.66" y="-421.3" font-family="Times,serif" font-size="14.00">CLOCK_ENABLE</text>
<polyline fill="none" stroke="black" points="4479.16,-413.5 4640.16,-413.5 "/>
<text text-anchor="middle" x="4559.66" y="-398.3" font-family="Times,serif" font-size="14.00">D_OUT_0</text>
<polyline fill="none" stroke="black" points="4479.16,-390.5 4640.16,-390.5 "/>
<text text-anchor="middle" x="4559.66" y="-375.3" font-family="Times,serif" font-size="14.00">D_OUT_1</text>
<polyline fill="none" stroke="black" points="4479.16,-367.5 4640.16,-367.5 "/>
<text text-anchor="middle" x="4559.66" y="-352.3" font-family="Times,serif" font-size="14.00">INPUT_CLK</text>
<polyline fill="none" stroke="black" points="4479.16,-344.5 4640.16,-344.5 "/>
<text text-anchor="middle" x="4559.66" y="-329.3" font-family="Times,serif" font-size="14.00">LATCH_INPUT_VALUE</text>
<polyline fill="none" stroke="black" points="4479.16,-321.5 4640.16,-321.5 "/>
<text text-anchor="middle" x="4559.66" y="-306.3" font-family="Times,serif" font-size="14.00">OUTPUT_CLK</text>
<polyline fill="none" stroke="black" points="4479.16,-298.5 4640.16,-298.5 "/>
<text text-anchor="middle" x="4559.66" y="-283.3" font-family="Times,serif" font-size="14.00">OUTPUT_ENABLE</text>
<polyline fill="none" stroke="black" points="4640.16,-275.5 4640.16,-436.5 "/>
<text text-anchor="middle" x="4673.16" y="-359.8" font-family="Times,serif" font-size="14.00">u_sb_out</text>
<text text-anchor="middle" x="4673.16" y="-344.8" font-family="Times,serif" font-size="14.00">SB_IO</text>
<polyline fill="none" stroke="black" points="4706.16,-275.5 4706.16,-436.5 "/>
<text text-anchor="middle" x="4760.66" y="-406.3" font-family="Times,serif" font-size="14.00">D_IN_0</text>
<polyline fill="none" stroke="black" points="4706.16,-383.5 4815.16,-383.5 "/>
<text text-anchor="middle" x="4760.66" y="-352.8" font-family="Times,serif" font-size="14.00">D_IN_1</text>
<polyline fill="none" stroke="black" points="4706.16,-329.5 4815.16,-329.5 "/>
<text text-anchor="middle" x="4760.66" y="-298.8" font-family="Times,serif" font-size="14.00">PACKAGE_PIN</text>
</g>
<!-- n8&#45;&gt;c49 -->
<g id="edge40" class="edge"><title>n8:e&#45;&gt;c49:p39:w</title>
<path fill="none" stroke="black" d="M294.727,-343C338.67,-343 310.328,-281.849 348.454,-260 452.587,-200.324 767.992,-236 888.013,-236 888.013,-236 888.013,-236 3305.67,-236 3826.48,-236 3953.22,-354.423 4468.84,-355.984"/>
<polygon fill="black" stroke="black" points="4469.15,-359.485 4479.16,-356 4469.16,-352.485 4469.15,-359.485"/>
</g>
<!-- n8&#45;&gt;c49 -->
<g id="edge41" class="edge"><title>n8:e&#45;&gt;c49:p41:w</title>
<path fill="none" stroke="black" d="M294.727,-343C327.346,-343 318.313,-305.472 348.454,-293 459.314,-247.127 768.037,-274 888.013,-274 888.013,-274 888.013,-274 3305.67,-274 3558.45,-274 4203.67,-202.115 4443.16,-283 4458.11,-288.05 4459.43,-301.941 4469.15,-307.577"/>
<polygon fill="black" stroke="black" points="4468.62,-311.05 4479.16,-310 4470.26,-304.246 4468.62,-311.05"/>
</g>
<!-- x14 -->
<g id="node41" class="node"><title>x14</title>
<path fill="none" stroke="black" d="M527.954,-338C527.954,-338 497.954,-338 497.954,-338 491.954,-338 485.954,-332 485.954,-326 485.954,-326 485.954,-314 485.954,-314 485.954,-308 491.954,-302 497.954,-302 497.954,-302 527.954,-302 527.954,-302 533.954,-302 539.954,-308 539.954,-314 539.954,-314 539.954,-326 539.954,-326 539.954,-332 533.954,-338 527.954,-338"/>
<text text-anchor="middle" x="512.954" y="-316.3" font-family="Times,serif" font-size="14.00">BUF</text>
</g>
<!-- n8&#45;&gt;x14 -->
<g id="edge42" class="edge"><title>n8:e&#45;&gt;x14:w:w</title>
<path fill="none" stroke="black" d="M294.727,-343C376.395,-343 398.05,-321.848 474.796,-320.113"/>
<polygon fill="black" stroke="black" points="474.994,-323.611 484.954,-320 474.916,-316.611 474.994,-323.611"/>
</g>
<!-- x18 -->
<g id="node45" class="node"><title>x18</title>
<path fill="none" stroke="black" d="M527.954,-430C527.954,-430 497.954,-430 497.954,-430 491.954,-430 485.954,-424 485.954,-418 485.954,-418 485.954,-406 485.954,-406 485.954,-400 491.954,-394 497.954,-394 497.954,-394 527.954,-394 527.954,-394 533.954,-394 539.954,-400 539.954,-406 539.954,-406 539.954,-418 539.954,-418 539.954,-424 533.954,-430 527.954,-430"/>
<text text-anchor="middle" x="512.954" y="-408.3" font-family="Times,serif" font-size="14.00">BUF</text>
</g>
<!-- n8&#45;&gt;x18 -->
<g id="edge43" class="edge"><title>n8:e&#45;&gt;x18:w:w</title>
<path fill="none" stroke="black" d="M294.727,-343C323.72,-343 321.941,-368.266 348.454,-380 402.207,-403.79 420.566,-411.173 474.785,-411.933"/>
<polygon fill="black" stroke="black" points="474.931,-415.434 484.954,-412 474.977,-408.434 474.931,-415.434"/>
</g>
<!-- n9 -->
<g id="node4" class="node"><title>n9</title>
<polygon fill="none" stroke="black" points="301.169,-155.544 301.169,-170.456 280.993,-181 252.461,-181 232.285,-170.456 232.285,-155.544 252.461,-145 280.993,-145 301.169,-155.544"/>
<text text-anchor="middle" x="266.727" y="-159.3" font-family="Times,serif" font-size="14.00">reset_</text>
</g>
<!-- c29 -->
<g id="node21" class="node"><title>c29</title>
<polygon fill="none" stroke="black" points="449.954,-169 449.954,-207 575.954,-207 575.954,-169 449.954,-169"/>
<text text-anchor="middle" x="462.954" y="-184.3" font-family="Times,serif" font-size="14.00">A</text>
<polyline fill="none" stroke="black" points="475.954,-169 475.954,-207 "/>
<text text-anchor="middle" x="512.954" y="-191.8" font-family="Times,serif" font-size="14.00">$2</text>
<text text-anchor="middle" x="512.954" y="-176.8" font-family="Times,serif" font-size="14.00">$logic_not</text>
<polyline fill="none" stroke="black" points="549.954,-169 549.954,-207 "/>
<text text-anchor="middle" x="562.954" y="-184.3" font-family="Times,serif" font-size="14.00">Y</text>
</g>
<!-- n9&#45;&gt;c29 -->
<g id="edge44" class="edge"><title>n9:e&#45;&gt;c29:p25:w</title>
<path fill="none" stroke="black" d="M302.727,-163C365.183,-163 381.363,-185.433 438.938,-187.799"/>
<polygon fill="black" stroke="black" points="438.886,-191.298 448.954,-188 439.026,-184.3 438.886,-191.298"/>
</g>
<!-- n9&#45;&gt;c34 -->
<g id="edge45" class="edge"><title>n9:e&#45;&gt;c34:p30:w</title>
<path fill="none" stroke="black" d="M302.727,-163C366.013,-163 382.459,-140.567 440.805,-138.201"/>
<polygon fill="black" stroke="black" points="441.025,-141.698 450.954,-138 440.887,-134.699 441.025,-141.698"/>
</g>
<!-- n10 -->
<g id="node5" class="node"><title>n10</title>
<polygon fill="none" stroke="black" points="921.235,-467.544 921.235,-482.456 902.36,-493 875.666,-493 856.791,-482.456 856.791,-467.544 875.666,-457 902.36,-457 921.235,-467.544"/>
<text text-anchor="middle" x="889.013" y="-471.3" font-family="Times,serif" font-size="14.00">sb_in</text>
</g>
<!-- n11 -->
<g id="node6" class="node"><title>n11</title>
<polygon fill="none" stroke="black" points="889.013,-601 791.652,-583 889.013,-565 986.374,-583 889.013,-601"/>
<text text-anchor="middle" x="889.013" y="-579.3" font-family="Times,serif" font-size="14.00">sb_in_from_pad</text>
</g>
<!-- n11&#45;&gt;c48 -->
<g id="edge3" class="edge"><title>n11:e&#45;&gt;c48:p32:w</title>
<path fill="none" stroke="black" d="M988.013,-583C1024.09,-583 1040.76,-583.106 1064.57,-556 1130.17,-481.325 1056.19,-351.532 1143.44,-342.498"/>
<polygon fill="black" stroke="black" points="1143.82,-345.984 1153.64,-342 1143.48,-338.992 1143.82,-345.984"/>
</g>
<!-- n12 -->
<g id="node7" class="node"><title>n12</title>
<polygon fill="none" stroke="black" points="1506.99,-372 1430.91,-354 1506.99,-336 1583.07,-354 1506.99,-372"/>
<text text-anchor="middle" x="1506.99" y="-350.3" font-family="Times,serif" font-size="14.00">sb_internal0</text>
</g>
<!-- x15 -->
<g id="node42" class="node"><title>x15</title>
<path fill="none" stroke="black" d="M1661.28,-372C1661.28,-372 1631.28,-372 1631.28,-372 1625.28,-372 1619.28,-366 1619.28,-360 1619.28,-360 1619.28,-348 1619.28,-348 1619.28,-342 1625.28,-336 1631.28,-336 1631.28,-336 1661.28,-336 1661.28,-336 1667.28,-336 1673.28,-342 1673.28,-348 1673.28,-348 1673.28,-360 1673.28,-360 1673.28,-366 1667.28,-372 1661.28,-372"/>
<text text-anchor="middle" x="1646.28" y="-350.3" font-family="Times,serif" font-size="14.00">BUF</text>
</g>
<!-- n12&#45;&gt;x15 -->
<g id="edge5" class="edge"><title>n12:e&#45;&gt;x15:w:w</title>
<path fill="none" stroke="black" d="M1583.28,-354C1595.28,-354 1600.53,-354 1609.16,-354"/>
<polygon fill="black" stroke="black" points="1609.28,-357.5 1619.28,-354 1609.28,-350.5 1609.28,-357.5"/>
</g>
<!-- n13 -->
<g id="node8" class="node"><title>n13</title>
<polygon fill="none" stroke="black" points="2728.78,-372 2652.7,-354 2728.78,-336 2804.86,-354 2728.78,-372"/>
<text text-anchor="middle" x="2728.78" y="-350.3" font-family="Times,serif" font-size="14.00">sb_internal1</text>
</g>
<!-- x19 -->
<g id="node46" class="node"><title>x19</title>
<path fill="none" stroke="black" d="M2883.07,-372C2883.07,-372 2853.07,-372 2853.07,-372 2847.07,-372 2841.07,-366 2841.07,-360 2841.07,-360 2841.07,-348 2841.07,-348 2841.07,-342 2847.07,-336 2853.07,-336 2853.07,-336 2883.07,-336 2883.07,-336 2889.07,-336 2895.07,-342 2895.07,-348 2895.07,-348 2895.07,-360 2895.07,-360 2895.07,-366 2889.07,-372 2883.07,-372"/>
<text text-anchor="middle" x="2868.07" y="-350.3" font-family="Times,serif" font-size="14.00">BUF</text>
</g>
<!-- n13&#45;&gt;x19 -->
<g id="edge7" class="edge"><title>n13:e&#45;&gt;x19:w:w</title>
<path fill="none" stroke="black" d="M2805.07,-354C2817.07,-354 2822.32,-354 2830.94,-354"/>
<polygon fill="black" stroke="black" points="2831.07,-357.5 2841.07,-354 2831.07,-350.5 2831.07,-357.5"/>
</g>
<!-- n14 -->
<g id="node9" class="node"><title>n14</title>
<polygon fill="none" stroke="black" points="4925.52,-294.544 4925.52,-309.456 4903.8,-320 4873.09,-320 4851.37,-309.456 4851.37,-294.544 4873.09,-284 4903.8,-284 4925.52,-294.544"/>
<text text-anchor="middle" x="4888.44" y="-298.3" font-family="Times,serif" font-size="14.00">sb_out</text>
</g>
<!-- n15 -->
<g id="node10" class="node"><title>n15</title>
<polygon fill="none" stroke="black" points="4354.92,-420 4266.44,-402 4354.92,-384 4443.4,-402 4354.92,-420"/>
<text text-anchor="middle" x="4354.92" y="-398.3" font-family="Times,serif" font-size="14.00">sb_out_to_pad</text>
</g>
<!-- n15&#45;&gt;c49 -->
<g id="edge10" class="edge"><title>n15:e&#45;&gt;c49:p37:w</title>
<path fill="none" stroke="black" d="M4443.16,-402C4455.16,-402 4460.41,-402 4469.03,-402"/>
<polygon fill="black" stroke="black" points="4469.16,-405.5 4479.16,-402 4469.16,-398.5 4469.16,-405.5"/>
</g>
<!-- n15&#45;&gt;c49 -->
<g id="edge11" class="edge"><title>n15:e&#45;&gt;c49:p38:w</title>
<path fill="none" stroke="black" d="M4443.16,-402C4457.99,-402 4460.03,-387.962 4469.27,-381.82"/>
<polygon fill="black" stroke="black" points="4470.5,-385.108 4479.16,-379 4468.58,-378.377 4470.5,-385.108"/>
</g>
<!-- n16 -->
<g id="node11" class="node"><title>n16</title>
<polygon fill="none" stroke="black" points="312.682,-706.544 312.682,-721.456 285.762,-732 247.692,-732 220.772,-721.456 220.772,-706.544 247.692,-696 285.762,-696 312.682,-706.544"/>
<text text-anchor="middle" x="266.727" y="-710.3" font-family="Times,serif" font-size="14.00">sb_out_z</text>
</g>
<!-- n17 -->
<g id="node12" class="node"><title>n17</title>
<polygon fill="none" stroke="black" points="889.013,-338 713.395,-320 889.013,-302 1064.63,-320 889.013,-338"/>
<text text-anchor="middle" x="889.013" y="-316.3" font-family="Times,serif" font-size="14.00">u_sb_internal02sb_internal1.clk</text>
</g>
<!-- n18 -->
<g id="node13" class="node"><title>n18</title>
<polygon fill="none" stroke="black" points="1879.33,-372 1709.24,-354 1879.33,-336 2049.41,-354 1879.33,-372"/>
<text text-anchor="middle" x="1879.33" y="-350.3" font-family="Times,serif" font-size="14.00">u_sb_internal02sb_internal1.in</text>
</g>
<!-- x17 -->
<g id="node44" class="node"><title>x17</title>
<path fill="none" stroke="black" d="M2127.37,-372C2127.37,-372 2097.37,-372 2097.37,-372 2091.37,-372 2085.37,-366 2085.37,-360 2085.37,-360 2085.37,-348 2085.37,-348 2085.37,-342 2091.37,-336 2097.37,-336 2097.37,-336 2127.37,-336 2127.37,-336 2133.37,-336 2139.37,-342 2139.37,-348 2139.37,-348 2139.37,-360 2139.37,-360 2139.37,-366 2133.37,-372 2127.37,-372"/>
<text text-anchor="middle" x="2112.37" y="-350.3" font-family="Times,serif" font-size="14.00">BUF</text>
</g>
<!-- n18&#45;&gt;x17 -->
<g id="edge15" class="edge"><title>n18:e&#45;&gt;x17:w:w</title>
<path fill="none" stroke="black" d="M2049.37,-354C2061.37,-354 2066.62,-354 2075.25,-354"/>
<polygon fill="black" stroke="black" points="2075.37,-357.5 2085.37,-354 2075.37,-350.5 2075.37,-357.5"/>
</g>
<!-- n19 -->
<g id="node14" class="node"><title>n19</title>
<polygon fill="none" stroke="black" points="2350.93,-372 2175.31,-354 2350.93,-336 2526.55,-354 2350.93,-372"/>
<text text-anchor="middle" x="2350.93" y="-350.3" font-family="Times,serif" font-size="14.00">u_sb_internal02sb_internal1.out</text>
</g>
<!-- x16 -->
<g id="node43" class="node"><title>x16</title>
<path fill="none" stroke="black" d="M2604.49,-372C2604.49,-372 2574.49,-372 2574.49,-372 2568.49,-372 2562.49,-366 2562.49,-360 2562.49,-360 2562.49,-348 2562.49,-348 2562.49,-342 2568.49,-336 2574.49,-336 2574.49,-336 2604.49,-336 2604.49,-336 2610.49,-336 2616.49,-342 2616.49,-348 2616.49,-348 2616.49,-360 2616.49,-360 2616.49,-366 2610.49,-372 2604.49,-372"/>
<text text-anchor="middle" x="2589.49" y="-350.3" font-family="Times,serif" font-size="14.00">BUF</text>
</g>
<!-- n19&#45;&gt;x16 -->
<g id="edge17" class="edge"><title>n19:e&#45;&gt;x16:w:w</title>
<path fill="none" stroke="black" d="M2526.49,-354C2538.49,-354 2543.74,-354 2552.36,-354"/>
<polygon fill="black" stroke="black" points="2552.49,-357.5 2562.49,-354 2552.49,-350.5 2552.49,-357.5"/>
</g>
<!-- n20 -->
<g id="node15" class="node"><title>n20</title>
<polygon fill="none" stroke="black" points="1247.64,-432 1100.51,-414 1247.64,-396 1394.77,-414 1247.64,-432"/>
<text text-anchor="middle" x="1247.64" y="-410.3" font-family="Times,serif" font-size="14.00">u_sb_internal12sb_out.clk</text>
</g>
<!-- c35 -->
<g id="node23" class="node"><title>c35</title>
<polygon fill="none" stroke="black" points="3250.17,-379 3250.17,-425 3359.17,-425 3359.17,-379 3250.17,-379"/>
<text text-anchor="middle" x="3272.17" y="-409.8" font-family="Times,serif" font-size="14.00">CLK</text>
<polyline fill="none" stroke="black" points="3250.17,-402 3294.17,-402 "/>
<text text-anchor="middle" x="3272.17" y="-386.8" font-family="Times,serif" font-size="14.00">D</text>
<polyline fill="none" stroke="black" points="3294.17,-379 3294.17,-425 "/>
<text text-anchor="middle" x="3313.67" y="-405.8" font-family="Times,serif" font-size="14.00">$5</text>
<text text-anchor="middle" x="3313.67" y="-390.8" font-family="Times,serif" font-size="14.00">$dff</text>
<polyline fill="none" stroke="black" points="3333.17,-379 3333.17,-425 "/>
<text text-anchor="middle" x="3346.17" y="-398.3" font-family="Times,serif" font-size="14.00">Q</text>
</g>
<!-- n20&#45;&gt;c35 -->
<g id="edge20" class="edge"><title>n20:e&#45;&gt;c35:p31:w</title>
<path fill="none" stroke="black" d="M1394.7,-414C1506.07,-414 1533.91,-414 1645.28,-414 1645.28,-414 1645.28,-414 2869.07,-414 3034.97,-414 3079,-414 3239.91,-414"/>
<polygon fill="black" stroke="black" points="3240.17,-417.5 3250.17,-414 3240.17,-410.5 3240.17,-417.5"/>
</g>
<!-- n21 -->
<g id="node16" class="node"><title>n21</title>
<polygon fill="none" stroke="black" points="3072.62,-372 2931.02,-354 3072.62,-336 3214.22,-354 3072.62,-372"/>
<text text-anchor="middle" x="3072.62" y="-350.3" font-family="Times,serif" font-size="14.00">u_sb_internal12sb_out.in</text>
</g>
<!-- n21&#45;&gt;c35 -->
<g id="edge22" class="edge"><title>n21:e&#45;&gt;c35:p32:w</title>
<path fill="none" stroke="black" d="M3214.17,-354C3232.55,-354 3229.89,-377.766 3240.38,-386.678"/>
<polygon fill="black" stroke="black" points="3239.57,-390.099 3250.17,-390 3241.83,-383.471 3239.57,-390.099"/>
</g>
<!-- x22 -->
<g id="node49" class="node"><title>x22</title>
<path fill="none" stroke="black" d="M3319.67,-360C3319.67,-360 3289.67,-360 3289.67,-360 3283.67,-360 3277.67,-354 3277.67,-348 3277.67,-348 3277.67,-336 3277.67,-336 3277.67,-330 3283.67,-324 3289.67,-324 3289.67,-324 3319.67,-324 3319.67,-324 3325.67,-324 3331.67,-330 3331.67,-336 3331.67,-336 3331.67,-348 3331.67,-348 3331.67,-354 3325.67,-360 3319.67,-360"/>
<text text-anchor="middle" x="3304.67" y="-338.3" font-family="Times,serif" font-size="14.00">BUF</text>
</g>
<!-- n21&#45;&gt;x22 -->
<g id="edge23" class="edge"><title>n21:e&#45;&gt;x22:w:w</title>
<path fill="none" stroke="black" d="M3214.17,-354C3238.7,-354 3246.41,-344.976 3266.48,-342.579"/>
<polygon fill="black" stroke="black" points="3266.88,-346.061 3276.67,-342 3266.49,-339.073 3266.88,-346.061"/>
</g>
<!-- n22 -->
<g id="node17" class="node"><title>n22</title>
<polygon fill="none" stroke="black" points="3992.7,-420 3844.73,-402 3992.7,-384 4140.67,-402 3992.7,-420"/>
<text text-anchor="middle" x="3992.7" y="-398.3" font-family="Times,serif" font-size="14.00">u_sb_internal12sb_out.out</text>
</g>
<!-- x20 -->
<g id="node47" class="node"><title>x20</title>
<path fill="none" stroke="black" d="M4218.68,-420C4218.68,-420 4188.68,-420 4188.68,-420 4182.68,-420 4176.68,-414 4176.68,-408 4176.68,-408 4176.68,-396 4176.68,-396 4176.68,-390 4182.68,-384 4188.68,-384 4188.68,-384 4218.68,-384 4218.68,-384 4224.68,-384 4230.68,-390 4230.68,-396 4230.68,-396 4230.68,-408 4230.68,-408 4230.68,-414 4224.68,-420 4218.68,-420"/>
<text text-anchor="middle" x="4203.68" y="-398.3" font-family="Times,serif" font-size="14.00">BUF</text>
</g>
<!-- n22&#45;&gt;x20 -->
<g id="edge25" class="edge"><title>n22:e&#45;&gt;x20:w:w</title>
<path fill="none" stroke="black" d="M4140.68,-402C4152.68,-402 4157.93,-402 4166.56,-402"/>
<polygon fill="black" stroke="black" points="4166.68,-405.5 4176.68,-402 4166.68,-398.5 4166.68,-405.5"/>
</g>
<!-- n23 -->
<g id="node18" class="node"><title>n23</title>
<polygon fill="none" stroke="black" points="3556.94,-420 3395.4,-402 3556.94,-384 3718.48,-402 3556.94,-420"/>
<text text-anchor="middle" x="3556.94" y="-398.3" font-family="Times,serif" font-size="14.00">u_sb_internal12sb_out.out_ff</text>
</g>
<!-- x21 -->
<g id="node48" class="node"><title>x21</title>
<path fill="none" stroke="black" d="M3796.71,-420C3796.71,-420 3766.71,-420 3766.71,-420 3760.71,-420 3754.71,-414 3754.71,-408 3754.71,-408 3754.71,-396 3754.71,-396 3754.71,-390 3760.71,-384 3766.71,-384 3766.71,-384 3796.71,-384 3796.71,-384 3802.71,-384 3808.71,-390 3808.71,-396 3808.71,-396 3808.71,-408 3808.71,-408 3808.71,-414 3802.71,-420 3796.71,-420"/>
<text text-anchor="middle" x="3781.71" y="-398.3" font-family="Times,serif" font-size="14.00">BUF</text>
</g>
<!-- n23&#45;&gt;x21 -->
<g id="edge27" class="edge"><title>n23:e&#45;&gt;x21:w:w</title>
<path fill="none" stroke="black" d="M3718.71,-402C3730.71,-402 3735.96,-402 3744.59,-402"/>
<polygon fill="black" stroke="black" points="3744.71,-405.5 3754.71,-402 3744.71,-398.5 3744.71,-405.5"/>
</g>
<!-- n24 -->
<g id="node19" class="node"><title>n24</title>
<polygon fill="none" stroke="black" points="916.013,-107.544 916.013,-122.456 900.197,-133 877.829,-133 862.013,-122.456 862.013,-107.544 877.829,-97 900.197,-97 916.013,-107.544"/>
<text text-anchor="middle" x="889.013" y="-111.3" font-family="Times,serif" font-size="14.00">z</text>
</g>
<!-- n3 -->
<g id="node51" class="node"><title>n3</title>
<ellipse fill="black" stroke="black" cx="266.727" cy="-68" rx="1.8" ry="1.8"/>
</g>
<!-- c28&#45;&gt;n3 -->
<g id="edge29" class="edge"><title>c28:p27:e&#45;&gt;n3:w</title>
<path fill="none" stroke="black" stroke-width="3" d="M185,-68C216.299,-68 226.6,-68 253.47,-68"/>
<polygon fill="black" stroke="black" stroke-width="3" points="253.727,-71.5001 263.727,-68 253.727,-64.5001 253.727,-71.5001"/>
</g>
<!-- n4 -->
<g id="node52" class="node"><title>n4</title>
<polygon fill="none" stroke="black" points="889.013,-206 845.611,-188 889.013,-170 932.415,-188 889.013,-206"/>
<text text-anchor="middle" x="889.013" y="-184.3" font-family="Times,serif" font-size="14.00">$2_Y</text>
</g>
<!-- c29&#45;&gt;n4 -->
<g id="edge32" class="edge"><title>c29:p27:e&#45;&gt;n4:w</title>
<path fill="none" stroke="black" d="M576.954,-188C692.17,-188 723.505,-188 833.806,-188"/>
<polygon fill="black" stroke="black" points="834.013,-191.5 844.013,-188 834.013,-184.5 834.013,-191.5"/>
</g>
<!-- c34&#45;&gt;n24 -->
<g id="edge28" class="edge"><title>c34:p33:e&#45;&gt;n24:w</title>
<path fill="none" stroke="black" stroke-width="3" d="M574.954,-115C698.615,-115 732.066,-115 850.794,-115"/>
<polygon fill="black" stroke="black" stroke-width="3" points="851.013,-118.5 861.013,-115 851.013,-111.5 851.013,-118.5"/>
</g>
<!-- c35&#45;&gt;n23 -->
<g id="edge26" class="edge"><title>c35:p33:e&#45;&gt;n23:w</title>
<path fill="none" stroke="black" d="M3359.17,-402C3371.17,-402 3376.42,-402 3385.04,-402"/>
<polygon fill="black" stroke="black" points="3385.17,-405.5 3395.17,-402 3385.17,-398.5 3385.17,-405.5"/>
</g>
<!-- v0 -->
<g id="node24" class="node"><title>v0</title>
<ellipse fill="none" stroke="black" cx="266.727" cy="-660" rx="27" ry="18"/>
<text text-anchor="middle" x="266.727" y="-656.3" font-family="Times,serif" font-size="14.00">1&#39;0</text>
</g>
<!-- v0&#45;&gt;c46 -->
<g id="edge46" class="edge"><title>v0:e&#45;&gt;c46:p36:w</title>
<path fill="none" stroke="black" d="M294.727,-660C327.201,-660 315.525,-610.821 338.342,-600.063"/>
<polygon fill="black" stroke="black" points="339.355,-603.428 348.454,-598 337.956,-596.569 339.355,-603.428"/>
</g>
<!-- v1 -->
<g id="node25" class="node"><title>v1</title>
<ellipse fill="none" stroke="black" cx="889.013" cy="-529" rx="27" ry="18"/>
</g>
<!-- v2 -->
<g id="node26" class="node"><title>v2</title>
<ellipse fill="none" stroke="black" cx="266.727" cy="-606" rx="27" ry="18"/>
<text text-anchor="middle" x="266.727" y="-602.3" font-family="Times,serif" font-size="14.00">1&#39;0</text>
</g>
<!-- v2&#45;&gt;c46 -->
<g id="edge50" class="edge"><title>v2:e&#45;&gt;c46:p37:w</title>
<path fill="none" stroke="black" d="M294.727,-606C318.419,-606 320.709,-583.106 338.382,-576.667"/>
<polygon fill="black" stroke="black" points="339.16,-580.086 348.454,-575 338.017,-573.18 339.16,-580.086"/>
</g>
<!-- v3 -->
<g id="node27" class="node"><title>v3</title>
<ellipse fill="none" stroke="black" cx="266.727" cy="-552" rx="27" ry="18"/>
<text text-anchor="middle" x="266.727" y="-548.3" font-family="Times,serif" font-size="14.00">1&#39;0</text>
</g>
<!-- v3&#45;&gt;c46 -->
<g id="edge51" class="edge"><title>v3:e&#45;&gt;c46:p38:w</title>
<path fill="none" stroke="black" d="M294.727,-552C314.875,-552 322.273,-552 338.436,-552"/>
<polygon fill="black" stroke="black" points="338.454,-555.5 348.454,-552 338.454,-548.5 338.454,-555.5"/>
</g>
<!-- v4 -->
<g id="node28" class="node"><title>v4</title>
<ellipse fill="none" stroke="black" cx="266.727" cy="-498" rx="27" ry="18"/>
<text text-anchor="middle" x="266.727" y="-494.3" font-family="Times,serif" font-size="14.00">1&#39;1</text>
</g>
<!-- v4&#45;&gt;c46 -->
<g id="edge52" class="edge"><title>v4:e&#45;&gt;c46:p40:w</title>
<path fill="none" stroke="black" d="M294.727,-498C315.097,-498 322.155,-503.695 338.364,-505.475"/>
<polygon fill="black" stroke="black" points="338.286,-508.976 348.454,-506 338.649,-501.985 338.286,-508.976"/>
</g>
<!-- v5 -->
<g id="node29" class="node"><title>v5</title>
<ellipse fill="none" stroke="black" cx="266.727" cy="-444" rx="27" ry="18"/>
<text text-anchor="middle" x="266.727" y="-440.3" font-family="Times,serif" font-size="14.00">1&#39;0</text>
</g>
<!-- v5&#45;&gt;c46 -->
<g id="edge53" class="edge"><title>v5:e&#45;&gt;c46:p42:w</title>
<path fill="none" stroke="black" d="M294.727,-444C315.749,-444 321.808,-455.391 338.154,-458.95"/>
<polygon fill="black" stroke="black" points="338.151,-462.468 348.454,-460 338.86,-455.504 338.151,-462.468"/>
</g>
<!-- c46&#45;&gt;n10 -->
<g id="edge1" class="edge"><title>c46:p45:e&#45;&gt;n10:w</title>
<path fill="none" stroke="black" d="M677.454,-475C753.249,-475 774.751,-475 845.668,-475"/>
<polygon fill="black" stroke="black" points="846.013,-478.5 856.013,-475 846.013,-471.5 846.013,-478.5"/>
</g>
<!-- c46&#45;&gt;n11 -->
<g id="edge2" class="edge"><title>c46:p43:e&#45;&gt;n11:w</title>
<path fill="none" stroke="black" d="M677.454,-583C723.963,-583 738.043,-583 779.991,-583"/>
<polygon fill="black" stroke="black" points="780.013,-586.5 790.013,-583 780.013,-579.5 780.013,-586.5"/>
</g>
<!-- c46&#45;&gt;v1 -->
<g id="edge47" class="edge"><title>c46:p44:e&#45;&gt;v1:w</title>
<path fill="none" stroke="black" d="M677.454,-530C755.532,-530 777.565,-529.084 850.826,-529.005"/>
<polygon fill="black" stroke="black" points="851.015,-532.505 861.013,-529 851.011,-525.505 851.015,-532.505"/>
</g>
<!-- c48&#45;&gt;n12 -->
<g id="edge4" class="edge"><title>c48:p33:e&#45;&gt;n12:w</title>
<path fill="none" stroke="black" d="M1341.64,-354C1377.51,-354 1389,-354 1420.3,-354"/>
<polygon fill="black" stroke="black" points="1420.7,-357.5 1430.7,-354 1420.7,-350.5 1420.7,-357.5"/>
</g>
<!-- v6 -->
<g id="node32" class="node"><title>v6</title>
<ellipse fill="none" stroke="black" cx="4354.92" cy="-456" rx="27" ry="18"/>
<text text-anchor="middle" x="4354.92" y="-452.3" font-family="Times,serif" font-size="14.00">1&#39;0</text>
</g>
<!-- v6&#45;&gt;c49 -->
<g id="edge54" class="edge"><title>v6:e&#45;&gt;c49:p36:w</title>
<path fill="none" stroke="black" d="M4382.92,-456C4424.17,-456 4432.92,-429.877 4468.84,-425.592"/>
<polygon fill="black" stroke="black" points="4469.38,-429.067 4479.16,-425 4468.98,-422.078 4469.38,-429.067"/>
</g>
<!-- v7 -->
<g id="node33" class="node"><title>v7</title>
<ellipse fill="none" stroke="black" cx="4888.44" cy="-410" rx="27" ry="18"/>
</g>
<!-- v8 -->
<g id="node34" class="node"><title>v8</title>
<ellipse fill="none" stroke="black" cx="4888.44" cy="-356" rx="27" ry="18"/>
</g>
<!-- v9 -->
<g id="node35" class="node"><title>v9</title>
<ellipse fill="none" stroke="black" cx="4354.92" cy="-310" rx="27" ry="18"/>
<text text-anchor="middle" x="4354.92" y="-306.3" font-family="Times,serif" font-size="14.00">1&#39;0</text>
</g>
<!-- v9&#45;&gt;c49 -->
<g id="edge57" class="edge"><title>v9:e&#45;&gt;c49:p40:w</title>
<path fill="none" stroke="black" d="M4382.92,-310C4423.29,-310 4433.58,-329.381 4469.02,-332.561"/>
<polygon fill="black" stroke="black" points="4469.02,-336.064 4479.16,-333 4469.32,-329.071 4469.02,-336.064"/>
</g>
<!-- v10 -->
<g id="node36" class="node"><title>v10</title>
<ellipse fill="none" stroke="black" cx="4354.92" cy="-218" rx="27" ry="18"/>
<text text-anchor="middle" x="4354.92" y="-214.3" font-family="Times,serif" font-size="14.00">1&#39;1</text>
</g>
<!-- v10&#45;&gt;c49 -->
<g id="edge48" class="edge"><title>v10:e&#45;&gt;c49:p42:w</title>
<path fill="none" stroke="black" d="M4382.92,-218C4413.24,-218 4418.91,-231.806 4443.16,-250 4458.21,-261.296 4457.36,-278.957 4469.23,-284.94"/>
<polygon fill="black" stroke="black" points="4468.66,-288.396 4479.16,-287 4470.08,-281.542 4468.66,-288.396"/>
</g>
<!-- c49&#45;&gt;n14 -->
<g id="edge8" class="edge"><title>c49:p45:e&#45;&gt;n14:w</title>
<path fill="none" stroke="black" d="M4815.16,-302C4827.16,-302 4832.41,-302 4841.03,-302"/>
<polygon fill="black" stroke="black" points="4841.16,-305.5 4851.16,-302 4841.16,-298.5 4841.16,-305.5"/>
</g>
<!-- c49&#45;&gt;v7 -->
<g id="edge55" class="edge"><title>c49:p43:e&#45;&gt;v7:w</title>
<path fill="none" stroke="black" d="M4815.16,-410C4831.36,-410 4837.78,-410 4850.15,-410"/>
<polygon fill="black" stroke="black" points="4850.44,-413.5 4860.44,-410 4850.44,-406.5 4850.44,-413.5"/>
</g>
<!-- c49&#45;&gt;v8 -->
<g id="edge56" class="edge"><title>c49:p44:e&#45;&gt;v8:w</title>
<path fill="none" stroke="black" d="M4815.16,-357C4831.36,-357 4837.77,-356.352 4850.15,-356.1"/>
<polygon fill="black" stroke="black" points="4850.48,-359.597 4860.44,-356 4850.41,-352.597 4850.48,-359.597"/>
</g>
<!-- v11 -->
<g id="node38" class="node"><title>v11</title>
<ellipse fill="none" stroke="black" cx="27" cy="-714" rx="27" ry="18"/>
<text text-anchor="middle" x="27" y="-710.3" font-family="Times,serif" font-size="14.00">1&#39;z</text>
</g>
<!-- x12 -->
<g id="node39" class="node"><title>x12</title>
<path fill="none" stroke="black" d="M152.5,-732C152.5,-732 122.5,-732 122.5,-732 116.5,-732 110.5,-726 110.5,-720 110.5,-720 110.5,-708 110.5,-708 110.5,-702 116.5,-696 122.5,-696 122.5,-696 152.5,-696 152.5,-696 158.5,-696 164.5,-702 164.5,-708 164.5,-708 164.5,-720 164.5,-720 164.5,-726 158.5,-732 152.5,-732"/>
<text text-anchor="middle" x="137.5" y="-710.3" font-family="Times,serif" font-size="14.00">BUF</text>
</g>
<!-- v11&#45;&gt;x12 -->
<g id="edge49" class="edge"><title>v11:e&#45;&gt;x12:w:w</title>
<path fill="none" stroke="black" d="M54,-714C74.8125,-714 82.4546,-714 99.1513,-714"/>
<polygon fill="black" stroke="black" points="99.5,-717.5 109.5,-714 99.5,-710.5 99.5,-717.5"/>
</g>
<!-- x12&#45;&gt;n16 -->
<g id="edge12" class="edge"><title>x12:e:e&#45;&gt;n16:w</title>
<path fill="none" stroke="black" d="M165.5,-714C186.312,-714 193.955,-714 210.651,-714"/>
<polygon fill="black" stroke="black" points="211,-717.5 221,-714 211,-710.5 211,-717.5"/>
</g>
<!-- x13 -->
<g id="node40" class="node"><title>x13</title>
<path fill="none" stroke="black" d="M527.954,-62C527.954,-62 497.954,-62 497.954,-62 491.954,-62 485.954,-56 485.954,-50 485.954,-50 485.954,-38 485.954,-38 485.954,-32 491.954,-26 497.954,-26 497.954,-26 527.954,-26 527.954,-26 533.954,-26 539.954,-32 539.954,-38 539.954,-38 539.954,-50 539.954,-50 539.954,-56 533.954,-62 527.954,-62"/>
<text text-anchor="middle" x="512.954" y="-40.3" font-family="Times,serif" font-size="14.00">BUF</text>
</g>
<!-- n2 -->
<g id="node50" class="node"><title>n2</title>
<polygon fill="none" stroke="black" points="889.013,-62 828.184,-44 889.013,-26 949.842,-44 889.013,-62"/>
<text text-anchor="middle" x="889.013" y="-40.3" font-family="Times,serif" font-size="14.00">$0\z[7:0]</text>
</g>
<!-- x13&#45;&gt;n2 -->
<g id="edge18" class="edge"><title>x13:e:e&#45;&gt;n2:w</title>
<path fill="none" stroke="black" stroke-width="3" d="M540.954,-44C664.615,-44 698.066,-44 816.794,-44"/>
<polygon fill="black" stroke="black" stroke-width="3" points="817.013,-47.5001 827.013,-44 817.013,-40.5001 817.013,-47.5001"/>
</g>
<!-- x14&#45;&gt;n17 -->
<g id="edge13" class="edge"><title>x14:e:e&#45;&gt;n17:w</title>
<path fill="none" stroke="black" d="M540.954,-320C614.027,-320 634.864,-320 703.04,-320"/>
<polygon fill="black" stroke="black" points="703.454,-323.5 713.454,-320 703.454,-316.5 703.454,-323.5"/>
</g>
<!-- x15&#45;&gt;n18 -->
<g id="edge14" class="edge"><title>x15:e:e&#45;&gt;n18:w</title>
<path fill="none" stroke="black" d="M1673.28,-354C1685.28,-354 1690.53,-354 1699.16,-354"/>
<polygon fill="black" stroke="black" points="1699.28,-357.5 1709.28,-354 1699.28,-350.5 1699.28,-357.5"/>
</g>
<!-- x16&#45;&gt;n13 -->
<g id="edge6" class="edge"><title>x16:e:e&#45;&gt;n13:w</title>
<path fill="none" stroke="black" d="M2616.49,-354C2628.49,-354 2633.74,-354 2642.36,-354"/>
<polygon fill="black" stroke="black" points="2642.49,-357.5 2652.49,-354 2642.49,-350.5 2642.49,-357.5"/>
</g>
<!-- x17&#45;&gt;n19 -->
<g id="edge16" class="edge"><title>x17:e:e&#45;&gt;n19:w</title>
<path fill="none" stroke="black" d="M2139.37,-354C2151.37,-354 2156.62,-354 2165.25,-354"/>
<polygon fill="black" stroke="black" points="2165.37,-357.5 2175.37,-354 2165.37,-350.5 2165.37,-357.5"/>
</g>
<!-- x18&#45;&gt;n20 -->
<g id="edge19" class="edge"><title>x18:e:e&#45;&gt;n20:w</title>
<path fill="none" stroke="black" d="M540.954,-412C786.274,-412 850.116,-413.946 1090.47,-413.999"/>
<polygon fill="black" stroke="black" points="1090.57,-417.499 1100.57,-414 1090.57,-410.499 1090.57,-417.499"/>
</g>
<!-- x19&#45;&gt;n21 -->
<g id="edge21" class="edge"><title>x19:e:e&#45;&gt;n21:w</title>
<path fill="none" stroke="black" d="M2895.07,-354C2907.07,-354 2912.32,-354 2920.94,-354"/>
<polygon fill="black" stroke="black" points="2921.07,-357.5 2931.07,-354 2921.07,-350.5 2921.07,-357.5"/>
</g>
<!-- x20&#45;&gt;n15 -->
<g id="edge9" class="edge"><title>x20:e:e&#45;&gt;n15:w</title>
<path fill="none" stroke="black" d="M4230.68,-402C4242.68,-402 4247.93,-402 4256.56,-402"/>
<polygon fill="black" stroke="black" points="4256.68,-405.5 4266.68,-402 4256.68,-398.5 4256.68,-405.5"/>
</g>
<!-- x21&#45;&gt;n22 -->
<g id="edge24" class="edge"><title>x21:e:e&#45;&gt;n22:w</title>
<path fill="none" stroke="black" d="M3808.71,-402C3820.71,-402 3825.96,-402 3834.59,-402"/>
<polygon fill="black" stroke="black" points="3834.71,-405.5 3844.71,-402 3834.71,-398.5 3834.71,-405.5"/>
</g>
<!-- n5 -->
<g id="node53" class="node"><title>n5</title>
<polygon fill="none" stroke="black" points="3556.94,-360 3471.48,-342 3556.94,-324 3642.4,-342 3556.94,-360"/>
<text text-anchor="middle" x="3556.94" y="-338.3" font-family="Times,serif" font-size="14.00">$0\out_ff[0:0]</text>
</g>
<!-- x22&#45;&gt;n5 -->
<g id="edge33" class="edge"><title>x22:e:e&#45;&gt;n5:w</title>
<path fill="none" stroke="black" d="M3332.67,-342C3390.1,-342 3406.99,-342 3459.67,-342"/>
<polygon fill="black" stroke="black" points="3459.94,-345.5 3469.94,-342 3459.94,-338.5 3459.94,-345.5"/>
</g>
<!-- n3&#45;&gt;c34 -->
<g id="edge30" class="edge"><title>n3:e&#45;&gt;c34:p32:w</title>
<path fill="none" stroke="black" stroke-width="3" d="M269.727,-68C347.484,-68 367.98,-89.9818 440.817,-91.8709"/>
<polygon fill="black" stroke="black" stroke-width="3" points="440.91,-95.3722 450.954,-92 440.999,-88.3728 440.91,-95.3722"/>
</g>
<!-- n3&#45;&gt;x13 -->
<g id="edge31" class="edge"><title>n3:e&#45;&gt;x13:w:w</title>
<path fill="none" stroke="black" stroke-width="3" d="M269.727,-68C362.499,-68 386.966,-45.703 474.802,-44.0917"/>
<polygon fill="black" stroke="black" stroke-width="3" points="474.986,-47.5903 484.954,-44 474.923,-40.5906 474.986,-47.5903"/>
</g>
</g>
</svg>
