<?xml version="1.0" encoding="UTF-8" standalone="no"?>
<!DOCTYPE svg PUBLIC "-//W3C//DTD SVG 1.1//EN"
 "http://www.w3.org/Graphics/SVG/1.1/DTD/svg11.dtd">
<!-- Generated by graphviz version 2.38.0 (20140413.2041)
 -->
<!-- Title: my_design Pages: 1 -->
<svg width="3963pt" height="737pt"
 viewBox="0.00 0.00 3963.04 737.00" xmlns="http://www.w3.org/2000/svg" xmlns:xlink="http://www.w3.org/1999/xlink">
<g id="graph0" class="graph" transform="scale(1 1) rotate(0) translate(4 733)">
<title>my_design</title>
<polygon fill="white" stroke="none" points="-4,4 -4,-733 3959.04,-733 3959.04,4 -4,4"/>
<text text-anchor="middle" x="1977.52" y="-7.8" font-family="Times,serif" font-size="14.00">my_design</text>
<!-- n6 -->
<g id="node1" class="node"><title>n6</title>
<polygon fill="none" stroke="black" points="947.227,-213.544 947.227,-228.456 931.411,-239 909.044,-239 893.227,-228.456 893.227,-213.544 909.044,-203 931.411,-203 947.227,-213.544"/>
<text text-anchor="middle" x="920.227" y="-217.3" font-family="Times,serif" font-size="14.00">a</text>
</g>
<!-- c29 -->
<g id="node21" class="node"><title>c29</title>
<polygon fill="none" stroke="black" points="1131.79,-171 1131.79,-217 1226.79,-217 1226.79,-171 1131.79,-171"/>
<text text-anchor="middle" x="1144.79" y="-201.8" font-family="Times,serif" font-size="14.00">A</text>
<polyline fill="none" stroke="black" points="1131.79,-194 1157.79,-194 "/>
<text text-anchor="middle" x="1144.79" y="-178.8" font-family="Times,serif" font-size="14.00">B</text>
<polyline fill="none" stroke="black" points="1157.79,-171 1157.79,-217 "/>
<text text-anchor="middle" x="1179.29" y="-197.8" font-family="Times,serif" font-size="14.00">$3</text>
<text text-anchor="middle" x="1179.29" y="-182.8" font-family="Times,serif" font-size="14.00">$add</text>
<polyline fill="none" stroke="black" points="1200.79,-171 1200.79,-217 "/>
<text text-anchor="middle" x="1213.79" y="-190.3" font-family="Times,serif" font-size="14.00">Y</text>
</g>
<!-- n6&#45;&gt;c29 -->
<g id="edge34" class="edge"><title>n6:e&#45;&gt;c29:p26:w</title>
<path fill="none" stroke="black" stroke-width="3" d="M948.227,-221C1026.56,-221 1048.11,-207.261 1121.57,-206.081"/>
<polygon fill="black" stroke="black" stroke-width="3" points="1121.81,-209.579 1131.79,-206 1121.76,-202.579 1121.81,-209.579"/>
</g>
<!-- n7 -->
<g id="node2" class="node"><title>n7</title>
<polygon fill="none" stroke="black" points="947.227,-159.544 947.227,-174.456 931.411,-185 909.044,-185 893.227,-174.456 893.227,-159.544 909.044,-149 931.411,-149 947.227,-159.544"/>
<text text-anchor="middle" x="920.227" y="-163.3" font-family="Times,serif" font-size="14.00">b</text>
</g>
<!-- n7&#45;&gt;c29 -->
<g id="edge35" class="edge"><title>n7:e&#45;&gt;c29:p27:w</title>
<path fill="none" stroke="black" stroke-width="3" d="M948.227,-167C1026.56,-167 1048.11,-180.739 1121.57,-181.919"/>
<polygon fill="black" stroke="black" stroke-width="3" points="1121.76,-185.421 1131.79,-182 1121.81,-178.421 1121.76,-185.421"/>
</g>
<!-- n8 -->
<g id="node3" class="node"><title>n8</title>
<polygon fill="none" stroke="black" points="1366.08,-390.544 1366.08,-405.456 1350.26,-416 1327.89,-416 1312.08,-405.456 1312.08,-390.544 1327.89,-380 1350.26,-380 1366.08,-390.544"/>
<text text-anchor="middle" x="1339.08" y="-394.3" font-family="Times,serif" font-size="14.00">clk</text>
</g>
<!-- c35 -->
<g id="node23" class="node"><title>c35</title>
<polygon fill="none" stroke="black" points="1554.87,-135.5 1554.87,-204.5 1676.87,-204.5 1676.87,-135.5 1554.87,-135.5"/>
<text text-anchor="middle" x="1580.37" y="-189.3" font-family="Times,serif" font-size="14.00">ARST</text>
<polyline fill="none" stroke="black" points="1554.87,-181.5 1605.87,-181.5 "/>
<text text-anchor="middle" x="1580.37" y="-166.3" font-family="Times,serif" font-size="14.00">CLK</text>
<polyline fill="none" stroke="black" points="1554.87,-158.5 1605.87,-158.5 "/>
<text text-anchor="middle" x="1580.37" y="-143.3" font-family="Times,serif" font-size="14.00">D</text>
<polyline fill="none" stroke="black" points="1605.87,-135.5 1605.87,-204.5 "/>
<text text-anchor="middle" x="1628.37" y="-173.8" font-family="Times,serif" font-size="14.00">$6</text>
<text text-anchor="middle" x="1628.37" y="-158.8" font-family="Times,serif" font-size="14.00">$adff</text>
<polyline fill="none" stroke="black" points="1650.87,-135.5 1650.87,-204.5 "/>
<text text-anchor="middle" x="1663.87" y="-166.3" font-family="Times,serif" font-size="14.00">Q</text>
</g>
<!-- n8&#45;&gt;c35 -->
<g id="edge36" class="edge"><title>n8:e&#45;&gt;c35:p32:w</title>
<path fill="none" stroke="black" d="M1367.08,-398C1457.03,-398 1387,-276.834 1451.37,-214 1484.28,-181.872 1501.67,-171.486 1543.6,-170.153"/>
<polygon fill="black" stroke="black" points="1543.92,-173.649 1553.87,-170 1543.82,-166.649 1543.92,-173.649"/>
</g>
<!-- c47 -->
<g id="node31" class="node"><title>c47</title>
<polygon fill="none" stroke="black" points="1451.37,-499.5 1451.37,-660.5 1780.37,-660.5 1780.37,-499.5 1451.37,-499.5"/>
<text text-anchor="middle" x="1531.87" y="-645.3" font-family="Times,serif" font-size="14.00">CLOCK_ENABLE</text>
<polyline fill="none" stroke="black" points="1451.37,-637.5 1612.37,-637.5 "/>
<text text-anchor="middle" x="1531.87" y="-622.3" font-family="Times,serif" font-size="14.00">D_OUT_0</text>
<polyline fill="none" stroke="black" points="1451.37,-614.5 1612.37,-614.5 "/>
<text text-anchor="middle" x="1531.87" y="-599.3" font-family="Times,serif" font-size="14.00">D_OUT_1</text>
<polyline fill="none" stroke="black" points="1451.37,-591.5 1612.37,-591.5 "/>
<text text-anchor="middle" x="1531.87" y="-576.3" font-family="Times,serif" font-size="14.00">INPUT_CLK</text>
<polyline fill="none" stroke="black" points="1451.37,-568.5 1612.37,-568.5 "/>
<text text-anchor="middle" x="1531.87" y="-553.3" font-family="Times,serif" font-size="14.00">LATCH_INPUT_VALUE</text>
<polyline fill="none" stroke="black" points="1451.37,-545.5 1612.37,-545.5 "/>
<text text-anchor="middle" x="1531.87" y="-530.3" font-family="Times,serif" font-size="14.00">OUTPUT_CLK</text>
<polyline fill="none" stroke="black" points="1451.37,-522.5 1612.37,-522.5 "/>
<text text-anchor="middle" x="1531.87" y="-507.3" font-family="Times,serif" font-size="14.00">OUTPUT_ENABLE</text>
<polyline fill="none" stroke="black" points="1612.37,-499.5 1612.37,-660.5 "/>
<text text-anchor="middle" x="1641.87" y="-583.8" font-family="Times,serif" font-size="14.00">u_sb_in</text>
<text text-anchor="middle" x="1641.87" y="-568.8" font-family="Times,serif" font-size="14.00">SB_IO</text>
<polyline fill="none" stroke="black" points="1671.37,-499.5 1671.37,-660.5 "/>
<text text-anchor="middle" x="1725.87" y="-630.3" font-family="Times,serif" font-size="14.00">D_IN_0</text>
<polyline fill="none" stroke="black" points="1671.37,-607.5 1780.37,-607.5 "/>
<text text-anchor="middle" x="1725.87" y="-576.8" font-family="Times,serif" font-size="14.00">D_IN_1</text>
<polyline fill="none" stroke="black" points="1671.37,-553.5 1780.37,-553.5 "/>
<text text-anchor="middle" x="1725.87" y="-522.8" font-family="Times,serif" font-size="14.00">PACKAGE_PIN</text>
</g>
<!-- n8&#45;&gt;c47 -->
<g id="edge37" class="edge"><title>n8:e&#45;&gt;c47:p40:w</title>
<path fill="none" stroke="black" d="M1367.08,-398C1404.87,-398 1398.67,-434.09 1415.37,-468 1436.74,-511.429 1404.58,-570.438 1441.18,-578.958"/>
<polygon fill="black" stroke="black" points="1441.06,-582.465 1451.37,-580 1441.77,-575.501 1441.06,-582.465"/>
</g>
<!-- n8&#45;&gt;c47 -->
<g id="edge38" class="edge"><title>n8:e&#45;&gt;c47:p42:w</title>
<path fill="none" stroke="black" d="M1367.08,-398C1404.87,-398 1395.56,-435.81 1415.37,-468 1430.76,-493.011 1421.09,-525.041 1441.21,-532.431"/>
<polygon fill="black" stroke="black" points="1440.95,-535.932 1451.37,-534 1442.02,-529.014 1440.95,-535.932"/>
</g>
<!-- c49 -->
<g id="node32" class="node"><title>c49</title>
<polygon fill="none" stroke="black" points="2203.48,-447 2203.48,-493 2388.48,-493 2388.48,-447 2203.48,-447"/>
<text text-anchor="middle" x="2216.48" y="-477.8" font-family="Times,serif" font-size="14.00">C</text>
<polyline fill="none" stroke="black" points="2203.48,-470 2229.48,-470 "/>
<text text-anchor="middle" x="2216.48" y="-454.8" font-family="Times,serif" font-size="14.00">D</text>
<polyline fill="none" stroke="black" points="2229.48,-447 2229.48,-493 "/>
<text text-anchor="middle" x="2295.98" y="-473.8" font-family="Times,serif" font-size="14.00">u_sb_in2sb_internal0</text>
<text text-anchor="middle" x="2295.98" y="-458.8" font-family="Times,serif" font-size="14.00">SB_DFF</text>
<polyline fill="none" stroke="black" points="2362.48,-447 2362.48,-493 "/>
<text text-anchor="middle" x="2375.48" y="-466.3" font-family="Times,serif" font-size="14.00">Q</text>
</g>
<!-- n8&#45;&gt;c49 -->
<g id="edge39" class="edge"><title>n8:e&#45;&gt;c49:p48:w</title>
<path fill="none" stroke="black" d="M1367.08,-398C1411.57,-398 1408.93,-438.647 1451.37,-452 1607.81,-501.221 2019.7,-482.762 2193.39,-482.022"/>
<polygon fill="black" stroke="black" points="2193.49,-485.522 2203.48,-482 2193.48,-478.522 2193.49,-485.522"/>
</g>
<!-- c50 -->
<g id="node38" class="node"><title>c50</title>
<polygon fill="none" stroke="black" points="3508.47,-275.5 3508.47,-436.5 3844.47,-436.5 3844.47,-275.5 3508.47,-275.5"/>
<text text-anchor="middle" x="3588.97" y="-421.3" font-family="Times,serif" font-size="14.00">CLOCK_ENABLE</text>
<polyline fill="none" stroke="black" points="3508.47,-413.5 3669.47,-413.5 "/>
<text text-anchor="middle" x="3588.97" y="-398.3" font-family="Times,serif" font-size="14.00">D_OUT_0</text>
<polyline fill="none" stroke="black" points="3508.47,-390.5 3669.47,-390.5 "/>
<text text-anchor="middle" x="3588.97" y="-375.3" font-family="Times,serif" font-size="14.00">D_OUT_1</text>
<polyline fill="none" stroke="black" points="3508.47,-367.5 3669.47,-367.5 "/>
<text text-anchor="middle" x="3588.97" y="-352.3" font-family="Times,serif" font-size="14.00">INPUT_CLK</text>
<polyline fill="none" stroke="black" points="3508.47,-344.5 3669.47,-344.5 "/>
<text text-anchor="middle" x="3588.97" y="-329.3" font-family="Times,serif" font-size="14.00">LATCH_INPUT_VALUE</text>
<polyline fill="none" stroke="black" points="3508.47,-321.5 3669.47,-321.5 "/>
<text text-anchor="middle" x="3588.97" y="-306.3" font-family="Times,serif" font-size="14.00">OUTPUT_CLK</text>
<polyline fill="none" stroke="black" points="3508.47,-298.5 3669.47,-298.5 "/>
<text text-anchor="middle" x="3588.97" y="-283.3" font-family="Times,serif" font-size="14.00">OUTPUT_ENABLE</text>
<polyline fill="none" stroke="black" points="3669.47,-275.5 3669.47,-436.5 "/>
<text text-anchor="middle" x="3702.47" y="-359.8" font-family="Times,serif" font-size="14.00">u_sb_out</text>
<text text-anchor="middle" x="3702.47" y="-344.8" font-family="Times,serif" font-size="14.00">SB_IO</text>
<polyline fill="none" stroke="black" points="3735.47,-275.5 3735.47,-436.5 "/>
<text text-anchor="middle" x="3789.97" y="-406.3" font-family="Times,serif" font-size="14.00">D_IN_0</text>
<polyline fill="none" stroke="black" points="3735.47,-383.5 3844.47,-383.5 "/>
<text text-anchor="middle" x="3789.97" y="-352.8" font-family="Times,serif" font-size="14.00">D_IN_1</text>
<polyline fill="none" stroke="black" points="3735.47,-329.5 3844.47,-329.5 "/>
<text text-anchor="middle" x="3789.97" y="-298.8" font-family="Times,serif" font-size="14.00">PACKAGE_PIN</text>
</g>
<!-- n8&#45;&gt;c50 -->
<g id="edge40" class="edge"><title>n8:e&#45;&gt;c50:p40:w</title>
<path fill="none" stroke="black" d="M1367.08,-398C1420.91,-398 1402.27,-333.092 1451.37,-311 1560.82,-261.75 1870.9,-287 1990.93,-287 1990.93,-287 1990.93,-287 2296.98,-287 2832.87,-287 2967.46,-355.127 3498.25,-355.992"/>
<polygon fill="black" stroke="black" points="3498.47,-359.492 3508.47,-356 3498.48,-352.492 3498.47,-359.492"/>
</g>
<!-- n8&#45;&gt;c50 -->
<g id="edge41" class="edge"><title>n8:e&#45;&gt;c50:p42:w</title>
<path fill="none" stroke="black" d="M1367.08,-398C1411.57,-398 1408.9,-357.253 1451.37,-344 1565.9,-308.26 1870.95,-325 1990.93,-325 1990.93,-325 1990.93,-325 2296.98,-325 2741.38,-325 2851.7,-292.335 3296,-283 3374.41,-281.352 3398.06,-258.197 3472.47,-283 3487.45,-287.99 3488.75,-301.916 3498.46,-307.569"/>
<polygon fill="black" stroke="black" points="3497.93,-311.041 3508.47,-310 3499.58,-304.239 3497.93,-311.041"/>
</g>
<!-- x14 -->
<g id="node42" class="node"><title>x14</title>
<path fill="none" stroke="black" d="M1630.87,-389C1630.87,-389 1600.87,-389 1600.87,-389 1594.87,-389 1588.87,-383 1588.87,-377 1588.87,-377 1588.87,-365 1588.87,-365 1588.87,-359 1594.87,-353 1600.87,-353 1600.87,-353 1630.87,-353 1630.87,-353 1636.87,-353 1642.87,-359 1642.87,-365 1642.87,-365 1642.87,-377 1642.87,-377 1642.87,-383 1636.87,-389 1630.87,-389"/>
<text text-anchor="middle" x="1615.87" y="-367.3" font-family="Times,serif" font-size="14.00">BUF</text>
</g>
<!-- n8&#45;&gt;x14 -->
<g id="edge42" class="edge"><title>n8:e&#45;&gt;x14:w:w</title>
<path fill="none" stroke="black" d="M1367.08,-398C1462.46,-398 1487.29,-372.865 1577.71,-371.098"/>
<polygon fill="black" stroke="black" points="1577.9,-374.596 1587.87,-371 1577.83,-367.597 1577.9,-374.596"/>
</g>
<!-- x18 -->
<g id="node46" class="node"><title>x18</title>
<path fill="none" stroke="black" d="M1630.87,-443C1630.87,-443 1600.87,-443 1600.87,-443 1594.87,-443 1588.87,-437 1588.87,-431 1588.87,-431 1588.87,-419 1588.87,-419 1588.87,-413 1594.87,-407 1600.87,-407 1600.87,-407 1630.87,-407 1630.87,-407 1636.87,-407 1642.87,-413 1642.87,-419 1642.87,-419 1642.87,-431 1642.87,-431 1642.87,-437 1636.87,-443 1630.87,-443"/>
<text text-anchor="middle" x="1615.87" y="-421.3" font-family="Times,serif" font-size="14.00">BUF</text>
</g>
<!-- n8&#45;&gt;x18 -->
<g id="edge43" class="edge"><title>n8:e&#45;&gt;x18:w:w</title>
<path fill="none" stroke="black" d="M1367.08,-398C1462.46,-398 1487.29,-423.135 1577.71,-424.902"/>
<polygon fill="black" stroke="black" points="1577.83,-428.403 1587.87,-425 1577.9,-421.404 1577.83,-428.403"/>
</g>
<!-- n9 -->
<g id="node4" class="node"><title>n9</title>
<polygon fill="none" stroke="black" points="1373.52,-118.544 1373.52,-133.456 1353.34,-144 1324.81,-144 1304.63,-133.456 1304.63,-118.544 1324.81,-108 1353.34,-108 1373.52,-118.544"/>
<text text-anchor="middle" x="1339.08" y="-122.3" font-family="Times,serif" font-size="14.00">reset_</text>
</g>
<!-- c30 -->
<g id="node22" class="node"><title>c30</title>
<polygon fill="none" stroke="black" points="1552.87,-78 1552.87,-116 1678.87,-116 1678.87,-78 1552.87,-78"/>
<text text-anchor="middle" x="1565.87" y="-93.3" font-family="Times,serif" font-size="14.00">A</text>
<polyline fill="none" stroke="black" points="1578.87,-78 1578.87,-116 "/>
<text text-anchor="middle" x="1615.87" y="-100.8" font-family="Times,serif" font-size="14.00">$2</text>
<text text-anchor="middle" x="1615.87" y="-85.8" font-family="Times,serif" font-size="14.00">$logic_not</text>
<polyline fill="none" stroke="black" points="1652.87,-78 1652.87,-116 "/>
<text text-anchor="middle" x="1665.87" y="-93.3" font-family="Times,serif" font-size="14.00">Y</text>
</g>
<!-- n9&#45;&gt;c30 -->
<g id="edge44" class="edge"><title>n9:e&#45;&gt;c30:p26:w</title>
<path fill="none" stroke="black" d="M1375.08,-126C1451.12,-126 1470.54,-99.5469 1541.5,-97.1703"/>
<polygon fill="black" stroke="black" points="1541.93,-100.664 1551.87,-97 1541.81,-93.6648 1541.93,-100.664"/>
</g>
<!-- n9&#45;&gt;c35 -->
<g id="edge45" class="edge"><title>n9:e&#45;&gt;c35:p31:w</title>
<path fill="none" stroke="black" d="M1375.08,-126C1456.45,-126 1468.14,-187.617 1543.8,-192.671"/>
<polygon fill="black" stroke="black" points="1543.76,-196.172 1553.87,-193 1543.99,-189.175 1543.76,-196.172"/>
</g>
<!-- n10 -->
<g id="node5" class="node"><title>n10</title>
<polygon fill="none" stroke="black" points="2024.15,-518.544 2024.15,-533.456 2005.27,-544 1978.58,-544 1959.7,-533.456 1959.7,-518.544 1978.58,-508 2005.27,-508 2024.15,-518.544"/>
<text text-anchor="middle" x="1991.93" y="-522.3" font-family="Times,serif" font-size="14.00">sb_in</text>
</g>
<!-- n11 -->
<g id="node6" class="node"><title>n11</title>
<polygon fill="none" stroke="black" points="1991.93,-652 1894.56,-634 1991.93,-616 2089.29,-634 1991.93,-652"/>
<text text-anchor="middle" x="1991.93" y="-630.3" font-family="Times,serif" font-size="14.00">sb_in_from_pad</text>
</g>
<!-- n11&#45;&gt;c49 -->
<g id="edge3" class="edge"><title>n11:e&#45;&gt;c49:p33:w</title>
<path fill="none" stroke="black" d="M2090.93,-634C2127.01,-634 2143.31,-633.78 2167.48,-607 2210.55,-559.298 2143.77,-468.997 2193.26,-458.921"/>
<polygon fill="black" stroke="black" points="2193.84,-462.383 2203.48,-458 2193.21,-455.411 2193.84,-462.383"/>
</g>
<!-- n12 -->
<g id="node7" class="node"><title>n12</title>
<polygon fill="none" stroke="black" points="2586.26,-488 2515.71,-470 2586.26,-452 2656.81,-470 2586.26,-488"/>
<text text-anchor="middle" x="2586.26" y="-466.3" font-family="Times,serif" font-size="14.00">sb_internal</text>
</g>
<!-- n13 -->
<g id="node8" class="node"><title>n13</title>
<polygon fill="none" stroke="black" points="76.2901,-59 0.209371,-41 76.2901,-23 152.371,-41 76.2901,-59"/>
<text text-anchor="middle" x="76.2901" y="-37.3" font-family="Times,serif" font-size="14.00">sb_internal0</text>
</g>
<!-- x15 -->
<g id="node43" class="node"><title>x15</title>
<path fill="none" stroke="black" d="M230.58,-59C230.58,-59 200.58,-59 200.58,-59 194.58,-59 188.58,-53 188.58,-47 188.58,-47 188.58,-35 188.58,-35 188.58,-29 194.58,-23 200.58,-23 200.58,-23 230.58,-23 230.58,-23 236.58,-23 242.58,-29 242.58,-35 242.58,-35 242.58,-47 242.58,-47 242.58,-53 236.58,-59 230.58,-59"/>
<text text-anchor="middle" x="215.58" y="-37.3" font-family="Times,serif" font-size="14.00">BUF</text>
</g>
<!-- n13&#45;&gt;x15 -->
<g id="edge5" class="edge"><title>n13:e&#45;&gt;x15:w:w</title>
<path fill="none" stroke="black" d="M152.58,-41C164.58,-41 169.83,-41 178.455,-41"/>
<polygon fill="black" stroke="black" points="178.58,-44.5001 188.58,-41 178.58,-37.5001 178.58,-44.5001"/>
</g>
<!-- n14 -->
<g id="node9" class="node"><title>n14</title>
<polygon fill="none" stroke="black" points="1339.08,-59 1263,-41 1339.08,-23 1415.16,-41 1339.08,-59"/>
<text text-anchor="middle" x="1339.08" y="-37.3" font-family="Times,serif" font-size="14.00">sb_internal1</text>
</g>
<!-- x19 -->
<g id="node47" class="node"><title>x19</title>
<path fill="none" stroke="black" d="M1630.87,-59C1630.87,-59 1600.87,-59 1600.87,-59 1594.87,-59 1588.87,-53 1588.87,-47 1588.87,-47 1588.87,-35 1588.87,-35 1588.87,-29 1594.87,-23 1600.87,-23 1600.87,-23 1630.87,-23 1630.87,-23 1636.87,-23 1642.87,-29 1642.87,-35 1642.87,-35 1642.87,-47 1642.87,-47 1642.87,-53 1636.87,-59 1630.87,-59"/>
<text text-anchor="middle" x="1615.87" y="-37.3" font-family="Times,serif" font-size="14.00">BUF</text>
</g>
<!-- n14&#45;&gt;x19 -->
<g id="edge7" class="edge"><title>n14:e&#45;&gt;x19:w:w</title>
<path fill="none" stroke="black" d="M1415.37,-41C1488.44,-41 1509.28,-41 1577.45,-41"/>
<polygon fill="black" stroke="black" points="1577.87,-44.5001 1587.87,-41 1577.87,-37.5001 1577.87,-44.5001"/>
</g>
<!-- n15 -->
<g id="node10" class="node"><title>n15</title>
<polygon fill="none" stroke="black" points="3954.83,-294.544 3954.83,-309.456 3933.12,-320 3902.4,-320 3880.69,-309.456 3880.69,-294.544 3902.4,-284 3933.12,-284 3954.83,-294.544"/>
<text text-anchor="middle" x="3917.76" y="-298.3" font-family="Times,serif" font-size="14.00">sb_out</text>
</g>
<!-- n16 -->
<g id="node11" class="node"><title>n16</title>
<polygon fill="none" stroke="black" points="3384.24,-420 3295.76,-402 3384.24,-384 3472.71,-402 3384.24,-420"/>
<text text-anchor="middle" x="3384.24" y="-398.3" font-family="Times,serif" font-size="14.00">sb_out_to_pad</text>
</g>
<!-- n16&#45;&gt;c50 -->
<g id="edge10" class="edge"><title>n16:e&#45;&gt;c50:p38:w</title>
<path fill="none" stroke="black" d="M3472.47,-402C3484.47,-402 3489.72,-402 3498.35,-402"/>
<polygon fill="black" stroke="black" points="3498.47,-405.5 3508.47,-402 3498.47,-398.5 3498.47,-405.5"/>
</g>
<!-- n16&#45;&gt;c50 -->
<g id="edge11" class="edge"><title>n16:e&#45;&gt;c50:p39:w</title>
<path fill="none" stroke="black" d="M3472.47,-402C3487.31,-402 3489.35,-387.962 3498.58,-381.82"/>
<polygon fill="black" stroke="black" points="3499.82,-385.108 3508.47,-379 3497.9,-378.377 3499.82,-385.108"/>
</g>
<!-- n17 -->
<g id="node12" class="node"><title>n17</title>
<polygon fill="none" stroke="black" points="494.579,-87.5442 494.579,-102.456 467.659,-113 429.589,-113 402.669,-102.456 402.669,-87.5442 429.589,-77 467.659,-77 494.579,-87.5442"/>
<text text-anchor="middle" x="448.624" y="-91.3" font-family="Times,serif" font-size="14.00">sb_out_z</text>
</g>
<!-- n18 -->
<g id="node13" class="node"><title>n18</title>
<polygon fill="none" stroke="black" points="1991.93,-389 1816.31,-371 1991.93,-353 2167.54,-371 1991.93,-389"/>
<text text-anchor="middle" x="1991.93" y="-367.3" font-family="Times,serif" font-size="14.00">u_sb_internal02sb_internal1.clk</text>
</g>
<!-- n19 -->
<g id="node14" class="node"><title>n19</title>
<polygon fill="none" stroke="black" points="448.624,-59 278.536,-41 448.624,-23 618.712,-41 448.624,-59"/>
<text text-anchor="middle" x="448.624" y="-37.3" font-family="Times,serif" font-size="14.00">u_sb_internal02sb_internal1.in</text>
</g>
<!-- x17 -->
<g id="node45" class="node"><title>x17</title>
<path fill="none" stroke="black" d="M696.668,-59C696.668,-59 666.668,-59 666.668,-59 660.668,-59 654.668,-53 654.668,-47 654.668,-47 654.668,-35 654.668,-35 654.668,-29 660.668,-23 666.668,-23 666.668,-23 696.668,-23 696.668,-23 702.668,-23 708.668,-29 708.668,-35 708.668,-35 708.668,-47 708.668,-47 708.668,-53 702.668,-59 696.668,-59"/>
<text text-anchor="middle" x="681.668" y="-37.3" font-family="Times,serif" font-size="14.00">BUF</text>
</g>
<!-- n19&#45;&gt;x17 -->
<g id="edge15" class="edge"><title>n19:e&#45;&gt;x17:w:w</title>
<path fill="none" stroke="black" d="M618.668,-41C630.668,-41 635.918,-41 644.543,-41"/>
<polygon fill="black" stroke="black" points="644.668,-44.5001 654.668,-41 644.668,-37.5001 644.668,-44.5001"/>
</g>
<!-- n20 -->
<g id="node15" class="node"><title>n20</title>
<polygon fill="none" stroke="black" points="920.227,-59 744.609,-41 920.227,-23 1095.85,-41 920.227,-59"/>
<text text-anchor="middle" x="920.227" y="-37.3" font-family="Times,serif" font-size="14.00">u_sb_internal02sb_internal1.out</text>
</g>
<!-- x16 -->
<g id="node44" class="node"><title>x16</title>
<path fill="none" stroke="black" d="M1194.29,-59C1194.29,-59 1164.29,-59 1164.29,-59 1158.29,-59 1152.29,-53 1152.29,-47 1152.29,-47 1152.29,-35 1152.29,-35 1152.29,-29 1158.29,-23 1164.29,-23 1164.29,-23 1194.29,-23 1194.29,-23 1200.29,-23 1206.29,-29 1206.29,-35 1206.29,-35 1206.29,-47 1206.29,-47 1206.29,-53 1200.29,-59 1194.29,-59"/>
<text text-anchor="middle" x="1179.29" y="-37.3" font-family="Times,serif" font-size="14.00">BUF</text>
</g>
<!-- n20&#45;&gt;x16 -->
<g id="edge18" class="edge"><title>n20:e&#45;&gt;x16:w:w</title>
<path fill="none" stroke="black" d="M1095.79,-41C1116.6,-41 1124.24,-41 1140.94,-41"/>
<polygon fill="black" stroke="black" points="1141.29,-44.5001 1151.29,-41 1141.29,-37.5001 1141.29,-44.5001"/>
</g>
<!-- n21 -->
<g id="node16" class="node"><title>n21</title>
<polygon fill="none" stroke="black" points="1991.93,-443 1844.8,-425 1991.93,-407 2139.06,-425 1991.93,-443"/>
<text text-anchor="middle" x="1991.93" y="-421.3" font-family="Times,serif" font-size="14.00">u_sb_internal12sb_out.clk</text>
</g>
<!-- c36 -->
<g id="node24" class="node"><title>c36</title>
<polygon fill="none" stroke="black" points="2241.48,-379 2241.48,-425 2350.48,-425 2350.48,-379 2241.48,-379"/>
<text text-anchor="middle" x="2263.48" y="-409.8" font-family="Times,serif" font-size="14.00">CLK</text>
<polyline fill="none" stroke="black" points="2241.48,-402 2285.48,-402 "/>
<text text-anchor="middle" x="2263.48" y="-386.8" font-family="Times,serif" font-size="14.00">D</text>
<polyline fill="none" stroke="black" points="2285.48,-379 2285.48,-425 "/>
<text text-anchor="middle" x="2304.98" y="-405.8" font-family="Times,serif" font-size="14.00">$5</text>
<text text-anchor="middle" x="2304.98" y="-390.8" font-family="Times,serif" font-size="14.00">$dff</text>
<polyline fill="none" stroke="black" points="2324.48,-379 2324.48,-425 "/>
<text text-anchor="middle" x="2337.48" y="-398.3" font-family="Times,serif" font-size="14.00">Q</text>
</g>
<!-- n21&#45;&gt;c36 -->
<g id="edge20" class="edge"><title>n21:e&#45;&gt;c36:p32:w</title>
<path fill="none" stroke="black" d="M2139.93,-425C2180.99,-425 2193.28,-415.731 2229.63,-414.21"/>
<polygon fill="black" stroke="black" points="2230.06,-417.702 2239.98,-414 2229.92,-410.703 2230.06,-417.702"/>
</g>
<!-- n22 -->
<g id="node17" class="node"><title>n22</title>
<polygon fill="none" stroke="black" points="1991.93,-60 1850.33,-42 1991.93,-24 2133.53,-42 1991.93,-60"/>
<text text-anchor="middle" x="1991.93" y="-38.3" font-family="Times,serif" font-size="14.00">u_sb_internal12sb_out.in</text>
</g>
<!-- n22&#45;&gt;c36 -->
<g id="edge22" class="edge"><title>n22:e&#45;&gt;c36:p33:w</title>
<path fill="none" stroke="black" d="M2134.93,-42C2292.86,-42 2088.03,-374.543 2229.66,-389.481"/>
<polygon fill="black" stroke="black" points="2229.82,-392.993 2239.98,-390 2230.17,-386.002 2229.82,-392.993"/>
</g>
<!-- x22 -->
<g id="node50" class="node"><title>x22</title>
<path fill="none" stroke="black" d="M2310.98,-60C2310.98,-60 2280.98,-60 2280.98,-60 2274.98,-60 2268.98,-54 2268.98,-48 2268.98,-48 2268.98,-36 2268.98,-36 2268.98,-30 2274.98,-24 2280.98,-24 2280.98,-24 2310.98,-24 2310.98,-24 2316.98,-24 2322.98,-30 2322.98,-36 2322.98,-36 2322.98,-48 2322.98,-48 2322.98,-54 2316.98,-60 2310.98,-60"/>
<text text-anchor="middle" x="2295.98" y="-38.3" font-family="Times,serif" font-size="14.00">BUF</text>
</g>
<!-- n22&#45;&gt;x22 -->
<g id="edge23" class="edge"><title>n22:e&#45;&gt;x22:w:w</title>
<path fill="none" stroke="black" d="M2134.93,-42C2190.48,-42 2206.89,-42 2257.71,-42"/>
<polygon fill="black" stroke="black" points="2257.98,-45.5001 2267.98,-42 2257.98,-38.5001 2257.98,-45.5001"/>
</g>
<!-- n23 -->
<g id="node18" class="node"><title>n23</title>
<polygon fill="none" stroke="black" points="3022.01,-420 2874.04,-402 3022.01,-384 3169.98,-402 3022.01,-420"/>
<text text-anchor="middle" x="3022.01" y="-398.3" font-family="Times,serif" font-size="14.00">u_sb_internal12sb_out.out</text>
</g>
<!-- x20 -->
<g id="node48" class="node"><title>x20</title>
<path fill="none" stroke="black" d="M3248,-420C3248,-420 3218,-420 3218,-420 3212,-420 3206,-414 3206,-408 3206,-408 3206,-396 3206,-396 3206,-390 3212,-384 3218,-384 3218,-384 3248,-384 3248,-384 3254,-384 3260,-390 3260,-396 3260,-396 3260,-408 3260,-408 3260,-414 3254,-420 3248,-420"/>
<text text-anchor="middle" x="3233" y="-398.3" font-family="Times,serif" font-size="14.00">BUF</text>
</g>
<!-- n23&#45;&gt;x20 -->
<g id="edge25" class="edge"><title>n23:e&#45;&gt;x20:w:w</title>
<path fill="none" stroke="black" d="M3170,-402C3182,-402 3187.25,-402 3195.87,-402"/>
<polygon fill="black" stroke="black" points="3196,-405.5 3206,-402 3196,-398.5 3196,-405.5"/>
</g>
<!-- n24 -->
<g id="node19" class="node"><title>n24</title>
<polygon fill="none" stroke="black" points="2586.26,-420 2424.71,-402 2586.26,-384 2747.8,-402 2586.26,-420"/>
<text text-anchor="middle" x="2586.26" y="-398.3" font-family="Times,serif" font-size="14.00">u_sb_internal12sb_out.out_ff</text>
</g>
<!-- x21 -->
<g id="node49" class="node"><title>x21</title>
<path fill="none" stroke="black" d="M2826.03,-420C2826.03,-420 2796.03,-420 2796.03,-420 2790.03,-420 2784.03,-414 2784.03,-408 2784.03,-408 2784.03,-396 2784.03,-396 2784.03,-390 2790.03,-384 2796.03,-384 2796.03,-384 2826.03,-384 2826.03,-384 2832.03,-384 2838.03,-390 2838.03,-396 2838.03,-396 2838.03,-408 2838.03,-408 2838.03,-414 2832.03,-420 2826.03,-420"/>
<text text-anchor="middle" x="2811.03" y="-398.3" font-family="Times,serif" font-size="14.00">BUF</text>
</g>
<!-- n24&#45;&gt;x21 -->
<g id="edge27" class="edge"><title>n24:e&#45;&gt;x21:w:w</title>
<path fill="none" stroke="black" d="M2748.03,-402C2760.03,-402 2765.28,-402 2773.9,-402"/>
<polygon fill="black" stroke="black" points="2774.03,-405.5 2784.03,-402 2774.03,-398.5 2774.03,-405.5"/>
</g>
<!-- n25 -->
<g id="node20" class="node"><title>n25</title>
<polygon fill="none" stroke="black" points="2018.93,-162.544 2018.93,-177.456 2003.11,-188 1980.74,-188 1964.93,-177.456 1964.93,-162.544 1980.74,-152 2003.11,-152 2018.93,-162.544"/>
<text text-anchor="middle" x="1991.93" y="-166.3" font-family="Times,serif" font-size="14.00">z</text>
</g>
<!-- n3 -->
<g id="node52" class="node"><title>n3</title>
<ellipse fill="black" stroke="black" cx="1339.08" cy="-194" rx="1.8" ry="1.8"/>
</g>
<!-- c29&#45;&gt;n3 -->
<g id="edge29" class="edge"><title>c29:p28:e&#45;&gt;n3:w</title>
<path fill="none" stroke="black" stroke-width="3" d="M1226.79,-194C1271.75,-194 1285.5,-194 1325.83,-194"/>
<polygon fill="black" stroke="black" stroke-width="3" points="1326.08,-197.5 1336.08,-194 1326.08,-190.5 1326.08,-197.5"/>
</g>
<!-- n4 -->
<g id="node53" class="node"><title>n4</title>
<polygon fill="none" stroke="black" points="1991.93,-115 1948.52,-97 1991.93,-79 2035.33,-97 1991.93,-115"/>
<text text-anchor="middle" x="1991.93" y="-93.3" font-family="Times,serif" font-size="14.00">$2_Y</text>
</g>
<!-- c30&#45;&gt;n4 -->
<g id="edge32" class="edge"><title>c30:p28:e&#45;&gt;n4:w</title>
<path fill="none" stroke="black" d="M1679.87,-97C1795.08,-97 1826.42,-97 1936.72,-97"/>
<polygon fill="black" stroke="black" points="1936.93,-100.5 1946.93,-97 1936.93,-93.5001 1936.93,-100.5"/>
</g>
<!-- c35&#45;&gt;n25 -->
<g id="edge28" class="edge"><title>c35:p34:e&#45;&gt;n25:w</title>
<path fill="none" stroke="black" stroke-width="3" d="M1677.87,-170C1801.53,-170 1834.98,-170 1953.71,-170"/>
<polygon fill="black" stroke="black" stroke-width="3" points="1953.93,-173.5 1963.93,-170 1953.93,-166.5 1953.93,-173.5"/>
</g>
<!-- c36&#45;&gt;n24 -->
<g id="edge26" class="edge"><title>c36:p34:e&#45;&gt;n24:w</title>
<path fill="none" stroke="black" d="M2351.98,-402C2380.56,-402 2390.13,-402 2414.39,-402"/>
<polygon fill="black" stroke="black" points="2414.48,-405.5 2424.48,-402 2414.48,-398.5 2414.48,-405.5"/>
</g>
<!-- v0 -->
<g id="node25" class="node"><title>v0</title>
<ellipse fill="none" stroke="black" cx="1339.08" cy="-711" rx="27" ry="18"/>
<text text-anchor="middle" x="1339.08" y="-707.3" font-family="Times,serif" font-size="14.00">1&#39;0</text>
</g>
<!-- v0&#45;&gt;c47 -->
<g id="edge46" class="edge"><title>v0:e&#45;&gt;c47:p37:w</title>
<path fill="none" stroke="black" d="M1367.08,-711C1391.67,-711 1395.65,-698.696 1415.37,-684 1429.9,-673.164 1429.85,-656.831 1441.29,-651.087"/>
<polygon fill="black" stroke="black" points="1442.28,-654.456 1451.37,-649 1440.86,-647.601 1442.28,-654.456"/>
</g>
<!-- v1 -->
<g id="node26" class="node"><title>v1</title>
<ellipse fill="none" stroke="black" cx="1991.93" cy="-580" rx="27" ry="18"/>
</g>
<!-- v2 -->
<g id="node27" class="node"><title>v2</title>
<ellipse fill="none" stroke="black" cx="1339.08" cy="-657" rx="27" ry="18"/>
<text text-anchor="middle" x="1339.08" y="-653.3" font-family="Times,serif" font-size="14.00">1&#39;0</text>
</g>
<!-- v2&#45;&gt;c47 -->
<g id="edge50" class="edge"><title>v2:e&#45;&gt;c47:p38:w</title>
<path fill="none" stroke="black" d="M1367.08,-657C1403.25,-657 1410.3,-631.54 1441.02,-626.766"/>
<polygon fill="black" stroke="black" points="1441.65,-630.229 1451.37,-626 1441.14,-623.248 1441.65,-630.229"/>
</g>
<!-- v3 -->
<g id="node28" class="node"><title>v3</title>
<ellipse fill="none" stroke="black" cx="1339.08" cy="-603" rx="27" ry="18"/>
<text text-anchor="middle" x="1339.08" y="-599.3" font-family="Times,serif" font-size="14.00">1&#39;0</text>
</g>
<!-- v3&#45;&gt;c47 -->
<g id="edge51" class="edge"><title>v3:e&#45;&gt;c47:p39:w</title>
<path fill="none" stroke="black" d="M1367.08,-603C1400.88,-603 1411.81,-603 1441.14,-603"/>
<polygon fill="black" stroke="black" points="1441.37,-606.5 1451.37,-603 1441.37,-599.5 1441.37,-606.5"/>
</g>
<!-- v4 -->
<g id="node29" class="node"><title>v4</title>
<ellipse fill="none" stroke="black" cx="1339.08" cy="-549" rx="27" ry="18"/>
<text text-anchor="middle" x="1339.08" y="-545.3" font-family="Times,serif" font-size="14.00">1&#39;1</text>
</g>
<!-- v4&#45;&gt;c47 -->
<g id="edge52" class="edge"><title>v4:e&#45;&gt;c47:p41:w</title>
<path fill="none" stroke="black" d="M1367.08,-549C1401.03,-549 1411.7,-555.514 1441.11,-556.786"/>
<polygon fill="black" stroke="black" points="1441.3,-560.291 1451.37,-557 1441.44,-553.292 1441.3,-560.291"/>
</g>
<!-- v5 -->
<g id="node30" class="node"><title>v5</title>
<ellipse fill="none" stroke="black" cx="1339.08" cy="-495" rx="27" ry="18"/>
<text text-anchor="middle" x="1339.08" y="-491.3" font-family="Times,serif" font-size="14.00">1&#39;0</text>
</g>
<!-- v5&#45;&gt;c47 -->
<g id="edge53" class="edge"><title>v5:e&#45;&gt;c47:p43:w</title>
<path fill="none" stroke="black" d="M1367.08,-495C1401.48,-495 1411.38,-508.028 1441,-510.572"/>
<polygon fill="black" stroke="black" points="1441.23,-514.084 1451.37,-511 1441.52,-507.09 1441.23,-514.084"/>
</g>
<!-- c47&#45;&gt;n10 -->
<g id="edge1" class="edge"><title>c47:p46:e&#45;&gt;n10:w</title>
<path fill="none" stroke="black" d="M1780.37,-526C1856.16,-526 1877.66,-526 1948.58,-526"/>
<polygon fill="black" stroke="black" points="1948.93,-529.5 1958.93,-526 1948.93,-522.5 1948.93,-529.5"/>
</g>
<!-- c47&#45;&gt;n11 -->
<g id="edge2" class="edge"><title>c47:p44:e&#45;&gt;n11:w</title>
<path fill="none" stroke="black" d="M1780.37,-634C1826.88,-634 1840.96,-634 1882.9,-634"/>
<polygon fill="black" stroke="black" points="1882.93,-637.5 1892.93,-634 1882.93,-630.5 1882.93,-637.5"/>
</g>
<!-- c47&#45;&gt;v1 -->
<g id="edge47" class="edge"><title>c47:p45:e&#45;&gt;v1:w</title>
<path fill="none" stroke="black" d="M1780.37,-581C1858.44,-581 1880.48,-580.084 1953.74,-580.005"/>
<polygon fill="black" stroke="black" points="1953.93,-583.505 1963.93,-580 1953.92,-576.505 1953.93,-583.505"/>
</g>
<!-- c49&#45;&gt;n12 -->
<g id="edge4" class="edge"><title>c49:p34:e&#45;&gt;n12:w</title>
<path fill="none" stroke="black" d="M2388.48,-470C2440.89,-470 2456.45,-470 2504.25,-470"/>
<polygon fill="black" stroke="black" points="2504.26,-473.5 2514.26,-470 2504.26,-466.5 2504.26,-473.5"/>
</g>
<!-- v6 -->
<g id="node33" class="node"><title>v6</title>
<ellipse fill="none" stroke="black" cx="3384.24" cy="-456" rx="27" ry="18"/>
<text text-anchor="middle" x="3384.24" y="-452.3" font-family="Times,serif" font-size="14.00">1&#39;0</text>
</g>
<!-- v6&#45;&gt;c50 -->
<g id="edge54" class="edge"><title>v6:e&#45;&gt;c50:p37:w</title>
<path fill="none" stroke="black" d="M3412.24,-456C3453.49,-456 3462.23,-429.877 3498.15,-425.592"/>
<polygon fill="black" stroke="black" points="3498.69,-429.067 3508.47,-425 3498.29,-422.078 3498.69,-429.067"/>
</g>
<!-- v7 -->
<g id="node34" class="node"><title>v7</title>
<ellipse fill="none" stroke="black" cx="3917.76" cy="-410" rx="27" ry="18"/>
</g>
<!-- v8 -->
<g id="node35" class="node"><title>v8</title>
<ellipse fill="none" stroke="black" cx="3917.76" cy="-356" rx="27" ry="18"/>
</g>
<!-- v9 -->
<g id="node36" class="node"><title>v9</title>
<ellipse fill="none" stroke="black" cx="3384.24" cy="-310" rx="27" ry="18"/>
<text text-anchor="middle" x="3384.24" y="-306.3" font-family="Times,serif" font-size="14.00">1&#39;0</text>
</g>
<!-- v9&#45;&gt;c50 -->
<g id="edge57" class="edge"><title>v9:e&#45;&gt;c50:p41:w</title>
<path fill="none" stroke="black" d="M3412.24,-310C3452.61,-310 3462.9,-329.381 3498.33,-332.561"/>
<polygon fill="black" stroke="black" points="3498.33,-336.064 3508.47,-333 3498.64,-329.071 3498.33,-336.064"/>
</g>
<!-- v10 -->
<g id="node37" class="node"><title>v10</title>
<ellipse fill="none" stroke="black" cx="3384.24" cy="-218" rx="27" ry="18"/>
<text text-anchor="middle" x="3384.24" y="-214.3" font-family="Times,serif" font-size="14.00">1&#39;1</text>
</g>
<!-- v10&#45;&gt;c50 -->
<g id="edge48" class="edge"><title>v10:e&#45;&gt;c50:p43:w</title>
<path fill="none" stroke="black" d="M3412.24,-218C3442.55,-218 3448.23,-231.806 3472.47,-250 3487.53,-261.296 3486.67,-278.957 3498.54,-284.94"/>
<polygon fill="black" stroke="black" points="3497.97,-288.396 3508.47,-287 3499.39,-281.542 3497.97,-288.396"/>
</g>
<!-- c50&#45;&gt;n15 -->
<g id="edge8" class="edge"><title>c50:p46:e&#45;&gt;n15:w</title>
<path fill="none" stroke="black" d="M3844.47,-302C3856.47,-302 3861.72,-302 3870.35,-302"/>
<polygon fill="black" stroke="black" points="3870.47,-305.5 3880.47,-302 3870.47,-298.5 3870.47,-305.5"/>
</g>
<!-- c50&#45;&gt;v7 -->
<g id="edge55" class="edge"><title>c50:p44:e&#45;&gt;v7:w</title>
<path fill="none" stroke="black" d="M3844.47,-410C3860.67,-410 3867.09,-410 3879.47,-410"/>
<polygon fill="black" stroke="black" points="3879.76,-413.5 3889.76,-410 3879.76,-406.5 3879.76,-413.5"/>
</g>
<!-- c50&#45;&gt;v8 -->
<g id="edge56" class="edge"><title>c50:p45:e&#45;&gt;v8:w</title>
<path fill="none" stroke="black" d="M3844.47,-357C3860.67,-357 3867.09,-356.352 3879.47,-356.1"/>
<polygon fill="black" stroke="black" points="3879.79,-359.597 3889.76,-356 3879.73,-352.597 3879.79,-359.597"/>
</g>
<!-- v11 -->
<g id="node39" class="node"><title>v11</title>
<ellipse fill="none" stroke="black" cx="76.2901" cy="-95" rx="27" ry="18"/>
<text text-anchor="middle" x="76.2901" y="-91.3" font-family="Times,serif" font-size="14.00">1&#39;z</text>
</g>
<!-- x12 -->
<g id="node40" class="node"><title>x12</title>
<path fill="none" stroke="black" d="M230.58,-113C230.58,-113 200.58,-113 200.58,-113 194.58,-113 188.58,-107 188.58,-101 188.58,-101 188.58,-89 188.58,-89 188.58,-83 194.58,-77 200.58,-77 200.58,-77 230.58,-77 230.58,-77 236.58,-77 242.58,-83 242.58,-89 242.58,-89 242.58,-101 242.58,-101 242.58,-107 236.58,-113 230.58,-113"/>
<text text-anchor="middle" x="215.58" y="-91.3" font-family="Times,serif" font-size="14.00">BUF</text>
</g>
<!-- v11&#45;&gt;x12 -->
<g id="edge49" class="edge"><title>v11:e&#45;&gt;x12:w:w</title>
<path fill="none" stroke="black" d="M104.29,-95C138.094,-95 149.021,-95 178.356,-95"/>
<polygon fill="black" stroke="black" points="178.58,-98.5001 188.58,-95 178.58,-91.5001 178.58,-98.5001"/>
</g>
<!-- x12&#45;&gt;n17 -->
<g id="edge12" class="edge"><title>x12:e:e&#45;&gt;n17:w</title>
<path fill="none" stroke="black" d="M242.58,-95C309.677,-95 329.006,-95 391.252,-95"/>
<polygon fill="black" stroke="black" points="391.624,-98.5001 401.624,-95 391.624,-91.5001 391.624,-98.5001"/>
</g>
<!-- x13 -->
<g id="node41" class="node"><title>x13</title>
<path fill="none" stroke="black" d="M1630.87,-259C1630.87,-259 1600.87,-259 1600.87,-259 1594.87,-259 1588.87,-253 1588.87,-247 1588.87,-247 1588.87,-235 1588.87,-235 1588.87,-229 1594.87,-223 1600.87,-223 1600.87,-223 1630.87,-223 1630.87,-223 1636.87,-223 1642.87,-229 1642.87,-235 1642.87,-235 1642.87,-247 1642.87,-247 1642.87,-253 1636.87,-259 1630.87,-259"/>
<text text-anchor="middle" x="1615.87" y="-237.3" font-family="Times,serif" font-size="14.00">BUF</text>
</g>
<!-- n2 -->
<g id="node51" class="node"><title>n2</title>
<polygon fill="none" stroke="black" points="1991.93,-259 1931.1,-241 1991.93,-223 2052.75,-241 1991.93,-259"/>
<text text-anchor="middle" x="1991.93" y="-237.3" font-family="Times,serif" font-size="14.00">$0\z[7:0]</text>
</g>
<!-- x13&#45;&gt;n2 -->
<g id="edge16" class="edge"><title>x13:e:e&#45;&gt;n2:w</title>
<path fill="none" stroke="black" stroke-width="3" d="M1643.87,-241C1767.53,-241 1800.98,-241 1919.71,-241"/>
<polygon fill="black" stroke="black" stroke-width="3" points="1919.93,-244.5 1929.93,-241 1919.93,-237.5 1919.93,-244.5"/>
</g>
<!-- x14&#45;&gt;n18 -->
<g id="edge13" class="edge"><title>x14:e:e&#45;&gt;n18:w</title>
<path fill="none" stroke="black" d="M1643.87,-371C1716.94,-371 1737.78,-371 1805.95,-371"/>
<polygon fill="black" stroke="black" points="1806.37,-374.5 1816.37,-371 1806.37,-367.5 1806.37,-374.5"/>
</g>
<!-- x15&#45;&gt;n19 -->
<g id="edge14" class="edge"><title>x15:e:e&#45;&gt;n19:w</title>
<path fill="none" stroke="black" d="M242.58,-41C254.58,-41 259.83,-41 268.455,-41"/>
<polygon fill="black" stroke="black" points="268.58,-44.5001 278.58,-41 268.58,-37.5001 268.58,-44.5001"/>
</g>
<!-- x16&#45;&gt;n14 -->
<g id="edge6" class="edge"><title>x16:e:e&#45;&gt;n14:w</title>
<path fill="none" stroke="black" d="M1207.29,-41C1228.1,-41 1235.74,-41 1252.44,-41"/>
<polygon fill="black" stroke="black" points="1252.79,-44.5001 1262.79,-41 1252.79,-37.5001 1252.79,-44.5001"/>
</g>
<!-- x17&#45;&gt;n20 -->
<g id="edge17" class="edge"><title>x17:e:e&#45;&gt;n20:w</title>
<path fill="none" stroke="black" d="M708.668,-41C720.668,-41 725.918,-41 734.543,-41"/>
<polygon fill="black" stroke="black" points="734.668,-44.5001 744.668,-41 734.668,-37.5001 734.668,-44.5001"/>
</g>
<!-- x18&#45;&gt;n21 -->
<g id="edge19" class="edge"><title>x18:e:e&#45;&gt;n21:w</title>
<path fill="none" stroke="black" d="M1643.87,-425C1729.31,-425 1753.17,-425 1833.8,-425"/>
<polygon fill="black" stroke="black" points="1833.93,-428.5 1843.93,-425 1833.93,-421.5 1833.93,-428.5"/>
</g>
<!-- x19&#45;&gt;n22 -->
<g id="edge21" class="edge"><title>x19:e:e&#45;&gt;n22:w</title>
<path fill="none" stroke="black" d="M1643.87,-41C1731.53,-41 1755.95,-41.9253 1838.8,-41.9958"/>
<polygon fill="black" stroke="black" points="1838.92,-45.4957 1848.93,-42 1838.93,-38.4957 1838.92,-45.4957"/>
</g>
<!-- x20&#45;&gt;n16 -->
<g id="edge9" class="edge"><title>x20:e:e&#45;&gt;n16:w</title>
<path fill="none" stroke="black" d="M3260,-402C3272,-402 3277.25,-402 3285.87,-402"/>
<polygon fill="black" stroke="black" points="3286,-405.5 3296,-402 3286,-398.5 3286,-405.5"/>
</g>
<!-- x21&#45;&gt;n23 -->
<g id="edge24" class="edge"><title>x21:e:e&#45;&gt;n23:w</title>
<path fill="none" stroke="black" d="M2838.03,-402C2850.03,-402 2855.28,-402 2863.9,-402"/>
<polygon fill="black" stroke="black" points="2864.03,-405.5 2874.03,-402 2864.03,-398.5 2864.03,-405.5"/>
</g>
<!-- n5 -->
<g id="node54" class="node"><title>n5</title>
<polygon fill="none" stroke="black" points="2586.26,-60 2500.79,-42 2586.26,-24 2671.72,-42 2586.26,-60"/>
<text text-anchor="middle" x="2586.26" y="-38.3" font-family="Times,serif" font-size="14.00">$0\out_ff[0:0]</text>
</g>
<!-- x22&#45;&gt;n5 -->
<g id="edge33" class="edge"><title>x22:e:e&#45;&gt;n5:w</title>
<path fill="none" stroke="black" d="M2323.98,-42C2398.38,-42 2419.49,-42 2489.1,-42"/>
<polygon fill="black" stroke="black" points="2489.26,-45.5001 2499.26,-42 2489.26,-38.5001 2489.26,-45.5001"/>
</g>
<!-- n3&#45;&gt;c35 -->
<g id="edge30" class="edge"><title>n3:e&#45;&gt;c35:p33:w</title>
<path fill="none" stroke="black" stroke-width="3" d="M1342.08,-194C1435.01,-194 1455.98,-150.335 1543.71,-147.18"/>
<polygon fill="black" stroke="black" stroke-width="3" points="1543.93,-150.676 1553.87,-147 1543.81,-143.678 1543.93,-150.676"/>
</g>
<!-- n3&#45;&gt;x13 -->
<g id="edge31" class="edge"><title>n3:e&#45;&gt;x13:w:w</title>
<path fill="none" stroke="black" stroke-width="3" d="M1342.08,-194C1394.54,-194 1517.27,-235.827 1577.69,-240.565"/>
<polygon fill="black" stroke="black" stroke-width="3" points="1577.73,-244.07 1587.87,-241 1578.03,-237.076 1577.73,-244.07"/>
</g>
</g>
</svg>
