<?xml version="1.0" encoding="UTF-8" standalone="no"?>
<!DOCTYPE svg PUBLIC "-//W3C//DTD SVG 1.1//EN"
 "http://www.w3.org/Graphics/SVG/1.1/DTD/svg11.dtd">
<!-- Generated by graphviz version 2.38.0 (20140413.2041)
 -->
<!-- Title: my_design Pages: 1 -->
<svg width="2728pt" height="608pt"
 viewBox="0.00 0.00 2728.01 608.00" xmlns="http://www.w3.org/2000/svg" xmlns:xlink="http://www.w3.org/1999/xlink">
<g id="graph0" class="graph" transform="scale(1 1) rotate(0) translate(4 604)">
<title>my_design</title>
<polygon fill="white" stroke="none" points="-4,4 -4,-604 2724.01,-604 2724.01,4 -4,4"/>
<text text-anchor="middle" x="1360.01" y="-7.8" font-family="Times,serif" font-size="14.00">my_design</text>
<!-- n5 -->
<g id="node1" class="node"><title>n5</title>
<polygon fill="none" stroke="black" points="61.4711,-440.544 61.4711,-455.456 45.6549,-466 23.2874,-466 7.47113,-455.456 7.47113,-440.544 23.2874,-430 45.6549,-430 61.4711,-440.544"/>
<text text-anchor="middle" x="34.4711" y="-444.3" font-family="Times,serif" font-size="14.00">a</text>
</g>
<!-- c20 -->
<g id="node13" class="node"><title>c20</title>
<polygon fill="none" stroke="black" points="120.442,-404 120.442,-450 215.442,-450 215.442,-404 120.442,-404"/>
<text text-anchor="middle" x="133.442" y="-434.8" font-family="Times,serif" font-size="14.00">A</text>
<polyline fill="none" stroke="black" points="120.442,-427 146.442,-427 "/>
<text text-anchor="middle" x="133.442" y="-411.8" font-family="Times,serif" font-size="14.00">B</text>
<polyline fill="none" stroke="black" points="146.442,-404 146.442,-450 "/>
<text text-anchor="middle" x="167.942" y="-430.8" font-family="Times,serif" font-size="14.00">$3</text>
<text text-anchor="middle" x="167.942" y="-415.8" font-family="Times,serif" font-size="14.00">$add</text>
<polyline fill="none" stroke="black" points="189.442,-404 189.442,-450 "/>
<text text-anchor="middle" x="202.442" y="-423.3" font-family="Times,serif" font-size="14.00">Y</text>
</g>
<!-- n5&#45;&gt;c20 -->
<g id="edge16" class="edge"><title>n5:e&#45;&gt;c20:p17:w</title>
<path fill="none" stroke="black" stroke-width="3" d="M62.4711,-448C84.1136,-448 91.4168,-441.474 108.802,-439.536"/>
<polygon fill="black" stroke="black" stroke-width="3" points="109.141,-443.023 118.942,-439 108.771,-436.033 109.141,-443.023"/>
</g>
<!-- n6 -->
<g id="node2" class="node"><title>n6</title>
<polygon fill="none" stroke="black" points="61.4711,-386.544 61.4711,-401.456 45.6549,-412 23.2874,-412 7.47113,-401.456 7.47113,-386.544 23.2874,-376 45.6549,-376 61.4711,-386.544"/>
<text text-anchor="middle" x="34.4711" y="-390.3" font-family="Times,serif" font-size="14.00">b</text>
</g>
<!-- n6&#45;&gt;c20 -->
<g id="edge17" class="edge"><title>n6:e&#45;&gt;c20:p18:w</title>
<path fill="none" stroke="black" stroke-width="3" d="M62.4711,-394C85.4831,-394 90.8727,-409.509 108.928,-413.871"/>
<polygon fill="black" stroke="black" stroke-width="3" points="108.613,-417.357 118.942,-415 109.397,-410.402 108.613,-417.357"/>
</g>
<!-- n7 -->
<g id="node3" class="node"><title>n7</title>
<polygon fill="none" stroke="black" points="194.942,-303.544 194.942,-318.456 179.126,-329 156.758,-329 140.942,-318.456 140.942,-303.544 156.758,-293 179.126,-293 194.942,-303.544"/>
<text text-anchor="middle" x="167.942" y="-307.3" font-family="Times,serif" font-size="14.00">clk</text>
</g>
<!-- c32 -->
<g id="node21" class="node"><title>c32</title>
<polygon fill="none" stroke="black" points="266.942,-45.5 266.942,-206.5 595.942,-206.5 595.942,-45.5 266.942,-45.5"/>
<text text-anchor="middle" x="347.442" y="-191.3" font-family="Times,serif" font-size="14.00">CLOCK_ENABLE</text>
<polyline fill="none" stroke="black" points="266.942,-183.5 427.942,-183.5 "/>
<text text-anchor="middle" x="347.442" y="-168.3" font-family="Times,serif" font-size="14.00">D_OUT_0</text>
<polyline fill="none" stroke="black" points="266.942,-160.5 427.942,-160.5 "/>
<text text-anchor="middle" x="347.442" y="-145.3" font-family="Times,serif" font-size="14.00">D_OUT_1</text>
<polyline fill="none" stroke="black" points="266.942,-137.5 427.942,-137.5 "/>
<text text-anchor="middle" x="347.442" y="-122.3" font-family="Times,serif" font-size="14.00">INPUT_CLK</text>
<polyline fill="none" stroke="black" points="266.942,-114.5 427.942,-114.5 "/>
<text text-anchor="middle" x="347.442" y="-99.3" font-family="Times,serif" font-size="14.00">LATCH_INPUT_VALUE</text>
<polyline fill="none" stroke="black" points="266.942,-91.5 427.942,-91.5 "/>
<text text-anchor="middle" x="347.442" y="-76.3" font-family="Times,serif" font-size="14.00">OUTPUT_CLK</text>
<polyline fill="none" stroke="black" points="266.942,-68.5 427.942,-68.5 "/>
<text text-anchor="middle" x="347.442" y="-53.3" font-family="Times,serif" font-size="14.00">OUTPUT_ENABLE</text>
<polyline fill="none" stroke="black" points="427.942,-45.5 427.942,-206.5 "/>
<text text-anchor="middle" x="457.442" y="-129.8" font-family="Times,serif" font-size="14.00">u_sb_in</text>
<text text-anchor="middle" x="457.442" y="-114.8" font-family="Times,serif" font-size="14.00">SB_IO</text>
<polyline fill="none" stroke="black" points="486.942,-45.5 486.942,-206.5 "/>
<text text-anchor="middle" x="541.442" y="-176.3" font-family="Times,serif" font-size="14.00">D_IN_0</text>
<polyline fill="none" stroke="black" points="486.942,-153.5 595.942,-153.5 "/>
<text text-anchor="middle" x="541.442" y="-122.8" font-family="Times,serif" font-size="14.00">D_IN_1</text>
<polyline fill="none" stroke="black" points="486.942,-99.5 595.942,-99.5 "/>
<text text-anchor="middle" x="541.442" y="-68.8" font-family="Times,serif" font-size="14.00">PACKAGE_PIN</text>
</g>
<!-- n7&#45;&gt;c32 -->
<g id="edge18" class="edge"><title>n7:e&#45;&gt;c32:p25:w</title>
<path fill="none" stroke="black" d="M195.942,-311C215.589,-311 220.359,-300.552 230.942,-284 267.693,-226.521 202.495,-136.162 256.735,-126.792"/>
<polygon fill="black" stroke="black" points="257.243,-130.263 266.942,-126 256.701,-123.284 257.243,-130.263"/>
</g>
<!-- n7&#45;&gt;c32 -->
<g id="edge19" class="edge"><title>n7:e&#45;&gt;c32:p27:w</title>
<path fill="none" stroke="black" d="M195.942,-311C215.589,-311 220.771,-300.808 230.942,-284 252.82,-247.847 226.076,-106.165 257.151,-83.1632"/>
<polygon fill="black" stroke="black" points="258.502,-86.4047 266.942,-80 256.351,-79.7436 258.502,-86.4047"/>
</g>
<!-- c36 -->
<g id="node22" class="node"><title>c36</title>
<polygon fill="none" stroke="black" points="862.804,-198 862.804,-244 1047.8,-244 1047.8,-198 862.804,-198"/>
<text text-anchor="middle" x="875.804" y="-228.8" font-family="Times,serif" font-size="14.00">C</text>
<polyline fill="none" stroke="black" points="862.804,-221 888.804,-221 "/>
<text text-anchor="middle" x="875.804" y="-205.8" font-family="Times,serif" font-size="14.00">D</text>
<polyline fill="none" stroke="black" points="888.804,-198 888.804,-244 "/>
<text text-anchor="middle" x="955.304" y="-224.8" font-family="Times,serif" font-size="14.00">u_sb_in2sb_internal0</text>
<text text-anchor="middle" x="955.304" y="-209.8" font-family="Times,serif" font-size="14.00">SB_DFF</text>
<polyline fill="none" stroke="black" points="1021.8,-198 1021.8,-244 "/>
<text text-anchor="middle" x="1034.8" y="-217.3" font-family="Times,serif" font-size="14.00">Q</text>
</g>
<!-- n7&#45;&gt;c36 -->
<g id="edge20" class="edge"><title>n7:e&#45;&gt;c36:p33:w</title>
<path fill="none" stroke="black" d="M195.942,-311C235.056,-311 230.04,-271.965 266.942,-259 388.935,-216.138 713.874,-232.161 852.734,-232.969"/>
<polygon fill="black" stroke="black" points="852.793,-236.469 862.804,-233 852.814,-229.469 852.793,-236.469"/>
</g>
<!-- c39 -->
<g id="node23" class="node"><title>c39</title>
<polygon fill="none" stroke="black" points="1272.38,-236 1272.38,-282 1509.38,-282 1509.38,-236 1272.38,-236"/>
<text text-anchor="middle" x="1288.88" y="-266.8" font-family="Times,serif" font-size="14.00">clk</text>
<polyline fill="none" stroke="black" points="1272.38,-259 1305.38,-259 "/>
<text text-anchor="middle" x="1288.88" y="-243.8" font-family="Times,serif" font-size="14.00">in</text>
<polyline fill="none" stroke="black" points="1305.38,-236 1305.38,-282 "/>
<text text-anchor="middle" x="1390.38" y="-262.8" font-family="Times,serif" font-size="14.00">u_sb_internal02sb_internal1</text>
<text text-anchor="middle" x="1390.38" y="-247.8" font-family="Times,serif" font-size="14.00">sub_design</text>
<polyline fill="none" stroke="black" points="1475.38,-236 1475.38,-282 "/>
<text text-anchor="middle" x="1492.38" y="-255.3" font-family="Times,serif" font-size="14.00">out</text>
</g>
<!-- n7&#45;&gt;c39 -->
<g id="edge21" class="edge"><title>n7:e&#45;&gt;c39:p7:w</title>
<path fill="none" stroke="black" d="M195.942,-311C228.105,-311 235.023,-300.956 266.942,-297 470.74,-271.738 523.015,-273 728.373,-273 728.373,-273 728.373,-273 956.304,-273 1093.36,-273 1130.12,-271.096 1262.28,-271.004"/>
<polygon fill="black" stroke="black" points="1262.38,-274.504 1272.38,-271 1262.38,-267.504 1262.38,-274.504"/>
</g>
<!-- c40 -->
<g id="node24" class="node"><title>c40</title>
<polygon fill="none" stroke="black" points="1733.96,-274 1733.96,-320 2024.96,-320 2024.96,-274 1733.96,-274"/>
<text text-anchor="middle" x="1750.46" y="-304.8" font-family="Times,serif" font-size="14.00">clk</text>
<polyline fill="none" stroke="black" points="1733.96,-297 1766.96,-297 "/>
<text text-anchor="middle" x="1750.46" y="-281.8" font-family="Times,serif" font-size="14.00">in</text>
<polyline fill="none" stroke="black" points="1766.96,-274 1766.96,-320 "/>
<text text-anchor="middle" x="1878.96" y="-300.8" font-family="Times,serif" font-size="14.00">u_sb_internal12sb_out</text>
<text text-anchor="middle" x="1878.96" y="-285.8" font-family="Times,serif" font-size="14.00">$paramod\sub_design\INSERT_FF=1</text>
<polyline fill="none" stroke="black" points="1990.96,-274 1990.96,-320 "/>
<text text-anchor="middle" x="2007.96" y="-293.3" font-family="Times,serif" font-size="14.00">out</text>
</g>
<!-- n7&#45;&gt;c40 -->
<g id="edge22" class="edge"><title>n7:e&#45;&gt;c40:p7:w</title>
<path fill="none" stroke="black" d="M195.942,-311C432.578,-311 491.737,-311 728.373,-311 728.373,-311 728.373,-311 1391.88,-311 1540.51,-311 1580.16,-309.089 1723.89,-309.003"/>
<polygon fill="black" stroke="black" points="1723.96,-312.503 1733.96,-309 1723.96,-305.503 1723.96,-312.503"/>
</g>
<!-- c41 -->
<g id="node30" class="node"><title>c41</title>
<polygon fill="none" stroke="black" points="2273.44,-360.5 2273.44,-521.5 2609.44,-521.5 2609.44,-360.5 2273.44,-360.5"/>
<text text-anchor="middle" x="2353.94" y="-506.3" font-family="Times,serif" font-size="14.00">CLOCK_ENABLE</text>
<polyline fill="none" stroke="black" points="2273.44,-498.5 2434.44,-498.5 "/>
<text text-anchor="middle" x="2353.94" y="-483.3" font-family="Times,serif" font-size="14.00">D_OUT_0</text>
<polyline fill="none" stroke="black" points="2273.44,-475.5 2434.44,-475.5 "/>
<text text-anchor="middle" x="2353.94" y="-460.3" font-family="Times,serif" font-size="14.00">D_OUT_1</text>
<polyline fill="none" stroke="black" points="2273.44,-452.5 2434.44,-452.5 "/>
<text text-anchor="middle" x="2353.94" y="-437.3" font-family="Times,serif" font-size="14.00">INPUT_CLK</text>
<polyline fill="none" stroke="black" points="2273.44,-429.5 2434.44,-429.5 "/>
<text text-anchor="middle" x="2353.94" y="-414.3" font-family="Times,serif" font-size="14.00">LATCH_INPUT_VALUE</text>
<polyline fill="none" stroke="black" points="2273.44,-406.5 2434.44,-406.5 "/>
<text text-anchor="middle" x="2353.94" y="-391.3" font-family="Times,serif" font-size="14.00">OUTPUT_CLK</text>
<polyline fill="none" stroke="black" points="2273.44,-383.5 2434.44,-383.5 "/>
<text text-anchor="middle" x="2353.94" y="-368.3" font-family="Times,serif" font-size="14.00">OUTPUT_ENABLE</text>
<polyline fill="none" stroke="black" points="2434.44,-360.5 2434.44,-521.5 "/>
<text text-anchor="middle" x="2467.44" y="-444.8" font-family="Times,serif" font-size="14.00">u_sb_out</text>
<text text-anchor="middle" x="2467.44" y="-429.8" font-family="Times,serif" font-size="14.00">SB_IO</text>
<polyline fill="none" stroke="black" points="2500.44,-360.5 2500.44,-521.5 "/>
<text text-anchor="middle" x="2554.94" y="-491.3" font-family="Times,serif" font-size="14.00">D_IN_0</text>
<polyline fill="none" stroke="black" points="2500.44,-468.5 2609.44,-468.5 "/>
<text text-anchor="middle" x="2554.94" y="-437.8" font-family="Times,serif" font-size="14.00">D_IN_1</text>
<polyline fill="none" stroke="black" points="2500.44,-414.5 2609.44,-414.5 "/>
<text text-anchor="middle" x="2554.94" y="-383.8" font-family="Times,serif" font-size="14.00">PACKAGE_PIN</text>
</g>
<!-- n7&#45;&gt;c41 -->
<g id="edge23" class="edge"><title>n7:e&#45;&gt;c41:p25:w</title>
<path fill="none" stroke="black" d="M195.942,-311C235.056,-311 230.913,-347.776 266.942,-363 458.53,-443.956 520.383,-441 728.373,-441 728.373,-441 728.373,-441 1880.46,-441 2051.71,-441 2097.03,-441 2263.36,-441"/>
<polygon fill="black" stroke="black" points="2263.44,-444.5 2273.44,-441 2263.44,-437.5 2263.44,-444.5"/>
</g>
<!-- n7&#45;&gt;c41 -->
<g id="edge24" class="edge"><title>n7:e&#45;&gt;c41:p27:w</title>
<path fill="none" stroke="black" d="M195.942,-311C228.194,-311 234.958,-321.851 266.942,-326 470.571,-352.416 523.038,-349 728.373,-349 728.373,-349 728.373,-349 1880.46,-349 2039.35,-349 2088.1,-313.768 2237.44,-368 2252.28,-373.387 2253.66,-387.083 2263.41,-392.622"/>
<polygon fill="black" stroke="black" points="2262.9,-396.098 2273.44,-395 2264.52,-389.287 2262.9,-396.098"/>
</g>
<!-- p11 -->
<g id="node31" class="node"><title>p11</title>
<path fill="none" stroke="black" d="M471.442,-507C471.442,-507 391.442,-507 391.442,-507 385.442,-507 379.442,-501 379.442,-495 379.442,-495 379.442,-481 379.442,-481 379.442,-475 385.442,-469 391.442,-469 391.442,-469 471.442,-469 471.442,-469 477.442,-469 483.442,-475 483.442,-481 483.442,-481 483.442,-495 483.442,-495 483.442,-501 477.442,-507 471.442,-507"/>
<text text-anchor="middle" x="431.442" y="-491.8" font-family="Times,serif" font-size="14.00">PROC $1</text>
<text text-anchor="middle" x="431.442" y="-476.8" font-family="Times,serif" font-size="14.00">my_design.v:36</text>
</g>
<!-- n7&#45;&gt;p11 -->
<g id="edge25" class="edge"><title>n7:e&#45;&gt;p11:w</title>
<path fill="none" stroke="black" d="M195.942,-311C267.299,-311 212.377,-409.018 266.942,-455 303.76,-486.026 323.897,-487.884 368.268,-487.993"/>
<polygon fill="black" stroke="black" points="368.44,-491.493 378.442,-488 368.445,-484.493 368.44,-491.493"/>
</g>
<!-- n8 -->
<g id="node4" class="node"><title>n8</title>
<polygon fill="none" stroke="black" points="68.9134,-511.544 68.9134,-526.456 48.7376,-537 20.2047,-537 0.0288429,-526.456 0.0288429,-511.544 20.2047,-501 48.7376,-501 68.9134,-511.544"/>
<text text-anchor="middle" x="34.4711" y="-515.3" font-family="Times,serif" font-size="14.00">reset_</text>
</g>
<!-- c21 -->
<g id="node14" class="node"><title>c21</title>
<polygon fill="none" stroke="black" points="104.942,-469 104.942,-507 230.942,-507 230.942,-469 104.942,-469"/>
<text text-anchor="middle" x="117.942" y="-484.3" font-family="Times,serif" font-size="14.00">A</text>
<polyline fill="none" stroke="black" points="130.942,-469 130.942,-507 "/>
<text text-anchor="middle" x="167.942" y="-491.8" font-family="Times,serif" font-size="14.00">$2</text>
<text text-anchor="middle" x="167.942" y="-476.8" font-family="Times,serif" font-size="14.00">$logic_not</text>
<polyline fill="none" stroke="black" points="204.942,-469 204.942,-507 "/>
<text text-anchor="middle" x="217.942" y="-484.3" font-family="Times,serif" font-size="14.00">Y</text>
</g>
<!-- n8&#45;&gt;c21 -->
<g id="edge26" class="edge"><title>n8:e&#45;&gt;c21:p17:w</title>
<path fill="none" stroke="black" d="M68.9423,-519C85.9329,-519 85.2179,-498.927 95.2922,-491.086"/>
<polygon fill="black" stroke="black" points="96.4834,-494.379 104.942,-488 94.3513,-487.712 96.4834,-494.379"/>
</g>
<!-- n8&#45;&gt;p11 -->
<g id="edge27" class="edge"><title>n8:e&#45;&gt;p11:w</title>
<path fill="none" stroke="black" d="M68.9423,-519C140.948,-519 159.32,-524.421 230.942,-517 293.893,-510.478 309.985,-490.29 368.296,-488.179"/>
<polygon fill="black" stroke="black" points="368.506,-491.676 378.442,-488 368.382,-484.677 368.506,-491.676"/>
</g>
<!-- n9 -->
<g id="node5" class="node"><title>n9</title>
<polygon fill="none" stroke="black" points="761.595,-64.5442 761.595,-79.4558 742.72,-90 716.026,-90 697.151,-79.4558 697.151,-64.5442 716.026,-54 742.72,-54 761.595,-64.5442"/>
<text text-anchor="middle" x="729.373" y="-68.3" font-family="Times,serif" font-size="14.00">sb_in</text>
</g>
<!-- n10 -->
<g id="node6" class="node"><title>n10</title>
<polygon fill="none" stroke="black" points="729.373,-203 632.012,-185 729.373,-167 826.734,-185 729.373,-203"/>
<text text-anchor="middle" x="729.373" y="-181.3" font-family="Times,serif" font-size="14.00">sb_in_from_pad</text>
</g>
<!-- n10&#45;&gt;c36 -->
<g id="edge2" class="edge"><title>n10:e&#45;&gt;c36:p34:w</title>
<path fill="none" stroke="black" d="M826.804,-185C841.977,-185 843.646,-199.943 853.123,-206.247"/>
<polygon fill="black" stroke="black" points="852.228,-209.631 862.804,-209 854.142,-202.898 852.228,-209.631"/>
</g>
<!-- n11 -->
<g id="node7" class="node"><title>n11</title>
<polygon fill="none" stroke="black" points="1160.09,-242 1084.01,-224 1160.09,-206 1236.17,-224 1160.09,-242"/>
<text text-anchor="middle" x="1160.09" y="-220.3" font-family="Times,serif" font-size="14.00">sb_internal0</text>
</g>
<!-- n11&#45;&gt;c39 -->
<g id="edge4" class="edge"><title>n11:e&#45;&gt;c39:p37:w</title>
<path fill="none" stroke="black" d="M1236.38,-224C1251.22,-224 1253.26,-238.038 1262.49,-244.18"/>
<polygon fill="black" stroke="black" points="1261.81,-247.623 1272.38,-247 1263.73,-240.892 1261.81,-247.623"/>
</g>
<!-- n12 -->
<g id="node8" class="node"><title>n12</title>
<polygon fill="none" stroke="black" points="1621.67,-280 1545.59,-262 1621.67,-244 1697.75,-262 1621.67,-280"/>
<text text-anchor="middle" x="1621.67" y="-258.3" font-family="Times,serif" font-size="14.00">sb_internal1</text>
</g>
<!-- n12&#45;&gt;c40 -->
<g id="edge6" class="edge"><title>n12:e&#45;&gt;c40:p37:w</title>
<path fill="none" stroke="black" d="M1697.96,-262C1712.8,-262 1714.84,-276.038 1724.07,-282.18"/>
<polygon fill="black" stroke="black" points="1723.39,-285.623 1733.96,-285 1725.31,-278.892 1723.39,-285.623"/>
</g>
<!-- n13 -->
<g id="node9" class="node"><title>n13</title>
<polygon fill="none" stroke="black" points="2719.8,-379.544 2719.8,-394.456 2698.08,-405 2667.37,-405 2645.66,-394.456 2645.66,-379.544 2667.37,-369 2698.08,-369 2719.8,-379.544"/>
<text text-anchor="middle" x="2682.73" y="-383.3" font-family="Times,serif" font-size="14.00">sb_out</text>
</g>
<!-- n14 -->
<g id="node10" class="node"><title>n14</title>
<polygon fill="none" stroke="black" points="2149.2,-505 2060.72,-487 2149.2,-469 2237.68,-487 2149.2,-505"/>
<text text-anchor="middle" x="2149.2" y="-483.3" font-family="Times,serif" font-size="14.00">sb_out_to_pad</text>
</g>
<!-- n14&#45;&gt;c41 -->
<g id="edge9" class="edge"><title>n14:e&#45;&gt;c41:p23:w</title>
<path fill="none" stroke="black" d="M2237.44,-487C2249.44,-487 2254.69,-487 2263.32,-487"/>
<polygon fill="black" stroke="black" points="2263.44,-490.5 2273.44,-487 2263.44,-483.5 2263.44,-490.5"/>
</g>
<!-- n14&#45;&gt;c41 -->
<g id="edge10" class="edge"><title>n14:e&#45;&gt;c41:p24:w</title>
<path fill="none" stroke="black" d="M2237.44,-487C2252.28,-487 2254.32,-472.962 2263.55,-466.82"/>
<polygon fill="black" stroke="black" points="2264.79,-470.108 2273.44,-464 2262.87,-463.377 2264.79,-470.108"/>
</g>
<!-- n15 -->
<g id="node11" class="node"><title>n15</title>
<polygon fill="none" stroke="black" points="477.397,-574.544 477.397,-589.456 450.478,-600 412.407,-600 385.487,-589.456 385.487,-574.544 412.407,-564 450.478,-564 477.397,-574.544"/>
<text text-anchor="middle" x="431.442" y="-578.3" font-family="Times,serif" font-size="14.00">sb_out_z</text>
</g>
<!-- n16 -->
<g id="node12" class="node"><title>n16</title>
<polygon fill="none" stroke="black" points="756.373,-480.544 756.373,-495.456 740.557,-506 718.189,-506 702.373,-495.456 702.373,-480.544 718.189,-470 740.557,-470 756.373,-480.544"/>
<text text-anchor="middle" x="729.373" y="-484.3" font-family="Times,serif" font-size="14.00">z</text>
</g>
<!-- n16&#45;&gt;p11 -->
<g id="edge13" class="edge"><title>n16:e&#45;&gt;p11:w</title>
<path fill="none" stroke="black" stroke-width="3" d="M757.373,-488C765.385,-488 762.183,-500.483 756.373,-506 668.405,-589.523 604.745,-506.778 483.442,-507 437.22,-507.085 412.974,-538.814 379.442,-507 376.758,-504.454 374.613,-500.499 373.757,-496.855"/>
<polygon fill="black" stroke="black" stroke-width="3" points="376.859,-498.476 378.442,-488 370.672,-495.202 376.859,-498.476"/>
</g>
<!-- c20&#45;&gt;p11 -->
<g id="edge14" class="edge"><title>c20:p19:e&#45;&gt;p11:w</title>
<path fill="none" stroke="black" stroke-width="3" d="M216.942,-427C242.412,-427 243.475,-445.102 266.942,-455 311.306,-473.71 324.928,-486.201 368.373,-487.821"/>
<polygon fill="black" stroke="black" stroke-width="3" points="368.382,-491.321 378.442,-488 368.506,-484.322 368.382,-491.321"/>
</g>
<!-- c21&#45;&gt;p11 -->
<g id="edge15" class="edge"><title>c21:p19:e&#45;&gt;p11:w</title>
<path fill="none" stroke="black" d="M230.942,-488C292.913,-488 310.947,-488 368.112,-488"/>
<polygon fill="black" stroke="black" points="368.442,-491.5 378.442,-488 368.442,-484.5 368.442,-491.5"/>
</g>
<!-- v0 -->
<g id="node15" class="node"><title>v0</title>
<ellipse fill="none" stroke="black" cx="167.942" cy="-257" rx="27" ry="18"/>
<text text-anchor="middle" x="167.942" y="-253.3" font-family="Times,serif" font-size="14.00">1&#39;0</text>
</g>
<!-- v0&#45;&gt;c32 -->
<g id="edge29" class="edge"><title>v0:e&#45;&gt;c32:p22:w</title>
<path fill="none" stroke="black" d="M195.942,-257C215.589,-257 216.097,-242.868 230.942,-230 244.643,-218.124 245.114,-202.441 256.778,-196.977"/>
<polygon fill="black" stroke="black" points="257.795,-200.345 266.942,-195 256.458,-193.474 257.795,-200.345"/>
</g>
<!-- v1 -->
<g id="node16" class="node"><title>v1</title>
<ellipse fill="none" stroke="black" cx="729.373" cy="-127" rx="27" ry="18"/>
</g>
<!-- v2 -->
<g id="node17" class="node"><title>v2</title>
<ellipse fill="none" stroke="black" cx="167.942" cy="-203" rx="27" ry="18"/>
<text text-anchor="middle" x="167.942" y="-199.3" font-family="Times,serif" font-size="14.00">1&#39;0</text>
</g>
<!-- v2&#45;&gt;c32 -->
<g id="edge33" class="edge"><title>v2:e&#45;&gt;c32:p23:w</title>
<path fill="none" stroke="black" d="M195.942,-203C226.608,-203 231.657,-178.41 256.719,-173.031"/>
<polygon fill="black" stroke="black" points="257.344,-176.486 266.942,-172 256.641,-169.522 257.344,-176.486"/>
</g>
<!-- v3 -->
<g id="node18" class="node"><title>v3</title>
<ellipse fill="none" stroke="black" cx="167.942" cy="-149" rx="27" ry="18"/>
<text text-anchor="middle" x="167.942" y="-145.3" font-family="Times,serif" font-size="14.00">1&#39;0</text>
</g>
<!-- v3&#45;&gt;c32 -->
<g id="edge34" class="edge"><title>v3:e&#45;&gt;c32:p24:w</title>
<path fill="none" stroke="black" d="M195.942,-149C223.8,-149 233.213,-149 256.747,-149"/>
<polygon fill="black" stroke="black" points="256.942,-152.5 266.942,-149 256.942,-145.5 256.942,-152.5"/>
</g>
<!-- v4 -->
<g id="node19" class="node"><title>v4</title>
<ellipse fill="none" stroke="black" cx="167.942" cy="-95" rx="27" ry="18"/>
<text text-anchor="middle" x="167.942" y="-91.3" font-family="Times,serif" font-size="14.00">1&#39;1</text>
</g>
<!-- v4&#45;&gt;c32 -->
<g id="edge35" class="edge"><title>v4:e&#45;&gt;c32:p26:w</title>
<path fill="none" stroke="black" d="M195.942,-95C223.976,-95 233.098,-101.235 256.7,-102.696"/>
<polygon fill="black" stroke="black" points="256.843,-106.202 266.942,-103 257.05,-99.2049 256.843,-106.202"/>
</g>
<!-- v5 -->
<g id="node20" class="node"><title>v5</title>
<ellipse fill="none" stroke="black" cx="167.942" cy="-41" rx="27" ry="18"/>
<text text-anchor="middle" x="167.942" y="-37.3" font-family="Times,serif" font-size="14.00">1&#39;0</text>
</g>
<!-- v5&#45;&gt;c32 -->
<g id="edge36" class="edge"><title>v5:e&#45;&gt;c32:p28:w</title>
<path fill="none" stroke="black" d="M195.942,-41C224.625,-41 232.832,-53.5803 256.876,-56.4306"/>
<polygon fill="black" stroke="black" points="256.761,-59.9295 266.942,-57 257.156,-52.9407 256.761,-59.9295"/>
</g>
<!-- c32&#45;&gt;n9 -->
<g id="edge28" class="edge"><title>c32:p31:e&#45;&gt;n9:w</title>
<path fill="none" stroke="black" d="M595.942,-72C636.917,-72 649.681,-72 686.027,-72"/>
<polygon fill="black" stroke="black" points="686.373,-75.5001 696.373,-72 686.373,-68.5001 686.373,-75.5001"/>
</g>
<!-- c32&#45;&gt;n10 -->
<g id="edge1" class="edge"><title>c32:p29:e&#45;&gt;n10:w</title>
<path fill="none" stroke="black" d="M595.942,-180C608.057,-180 613.163,-182.812 621.774,-184.219"/>
<polygon fill="black" stroke="black" points="621.703,-187.724 631.942,-185 622.24,-180.744 621.703,-187.724"/>
</g>
<!-- c32&#45;&gt;v1 -->
<g id="edge30" class="edge"><title>c32:p30:e&#45;&gt;v1:w</title>
<path fill="none" stroke="black" d="M595.942,-127C639.14,-127 652.47,-127 691.001,-127"/>
<polygon fill="black" stroke="black" points="691.373,-130.5 701.373,-127 691.373,-123.5 691.373,-130.5"/>
</g>
<!-- c36&#45;&gt;n11 -->
<g id="edge3" class="edge"><title>c36:p35:e&#45;&gt;n11:w</title>
<path fill="none" stroke="black" d="M1047.8,-221C1059.85,-221 1065.04,-222.688 1073.66,-223.531"/>
<polygon fill="black" stroke="black" points="1073.65,-227.034 1083.8,-224 1073.98,-220.042 1073.65,-227.034"/>
</g>
<!-- c39&#45;&gt;n12 -->
<g id="edge5" class="edge"><title>c39:p38:e&#45;&gt;n12:w</title>
<path fill="none" stroke="black" d="M1509.38,-259C1521.43,-259 1526.62,-260.688 1535.24,-261.531"/>
<polygon fill="black" stroke="black" points="1535.23,-265.034 1545.38,-262 1535.56,-258.042 1535.23,-265.034"/>
</g>
<!-- c40&#45;&gt;n14 -->
<g id="edge8" class="edge"><title>c40:p38:e&#45;&gt;n14:w</title>
<path fill="none" stroke="black" d="M2024.96,-297C2107.05,-297 1986.78,-470.313 2050.68,-485.884"/>
<polygon fill="black" stroke="black" points="2050.64,-489.4 2060.96,-487 2051.4,-482.441 2050.64,-489.4"/>
</g>
<!-- v6 -->
<g id="node25" class="node"><title>v6</title>
<ellipse fill="none" stroke="black" cx="2149.2" cy="-541" rx="27" ry="18"/>
<text text-anchor="middle" x="2149.2" y="-537.3" font-family="Times,serif" font-size="14.00">1&#39;0</text>
</g>
<!-- v6&#45;&gt;c41 -->
<g id="edge37" class="edge"><title>v6:e&#45;&gt;c41:p22:w</title>
<path fill="none" stroke="black" d="M2177.2,-541C2218.45,-541 2227.2,-514.877 2263.12,-510.592"/>
<polygon fill="black" stroke="black" points="2263.66,-514.067 2273.44,-510 2263.26,-507.078 2263.66,-514.067"/>
</g>
<!-- v7 -->
<g id="node26" class="node"><title>v7</title>
<ellipse fill="none" stroke="black" cx="2682.73" cy="-495" rx="27" ry="18"/>
</g>
<!-- v8 -->
<g id="node27" class="node"><title>v8</title>
<ellipse fill="none" stroke="black" cx="2682.73" cy="-441" rx="27" ry="18"/>
</g>
<!-- v9 -->
<g id="node28" class="node"><title>v9</title>
<ellipse fill="none" stroke="black" cx="2149.2" cy="-395" rx="27" ry="18"/>
<text text-anchor="middle" x="2149.2" y="-391.3" font-family="Times,serif" font-size="14.00">1&#39;0</text>
</g>
<!-- v9&#45;&gt;c41 -->
<g id="edge40" class="edge"><title>v9:e&#45;&gt;c41:p26:w</title>
<path fill="none" stroke="black" d="M2177.2,-395C2217.57,-395 2227.87,-414.381 2263.3,-417.561"/>
<polygon fill="black" stroke="black" points="2263.3,-421.064 2273.44,-418 2263.6,-414.071 2263.3,-421.064"/>
</g>
<!-- v10 -->
<g id="node29" class="node"><title>v10</title>
<ellipse fill="none" stroke="black" cx="2149.2" cy="-303" rx="27" ry="18"/>
<text text-anchor="middle" x="2149.2" y="-299.3" font-family="Times,serif" font-size="14.00">1&#39;1</text>
</g>
<!-- v10&#45;&gt;c41 -->
<g id="edge31" class="edge"><title>v10:e&#45;&gt;c41:p28:w</title>
<path fill="none" stroke="black" d="M2177.2,-303C2207.52,-303 2213.19,-316.806 2237.44,-335 2252.5,-346.296 2251.64,-363.957 2263.51,-369.94"/>
<polygon fill="black" stroke="black" points="2262.94,-373.396 2273.44,-372 2264.36,-366.542 2262.94,-373.396"/>
</g>
<!-- c41&#45;&gt;n13 -->
<g id="edge7" class="edge"><title>c41:p31:e&#45;&gt;n13:w</title>
<path fill="none" stroke="black" d="M2609.44,-387C2621.44,-387 2626.69,-387 2635.32,-387"/>
<polygon fill="black" stroke="black" points="2635.44,-390.5 2645.44,-387 2635.44,-383.5 2635.44,-390.5"/>
</g>
<!-- c41&#45;&gt;v7 -->
<g id="edge38" class="edge"><title>c41:p29:e&#45;&gt;v7:w</title>
<path fill="none" stroke="black" d="M2609.44,-495C2625.64,-495 2632.06,-495 2644.44,-495"/>
<polygon fill="black" stroke="black" points="2644.73,-498.5 2654.73,-495 2644.73,-491.5 2644.73,-498.5"/>
</g>
<!-- c41&#45;&gt;v8 -->
<g id="edge39" class="edge"><title>c41:p30:e&#45;&gt;v8:w</title>
<path fill="none" stroke="black" d="M2609.44,-442C2625.64,-442 2632.06,-441.352 2644.44,-441.1"/>
<polygon fill="black" stroke="black" points="2644.76,-444.597 2654.73,-441 2644.69,-437.597 2644.76,-444.597"/>
</g>
<!-- p11&#45;&gt;n16 -->
<g id="edge12" class="edge"><title>p11:e&#45;&gt;n16:w</title>
<path fill="none" stroke="black" stroke-width="3" d="M484.442,-488C577.372,-488 603.123,-488 691.198,-488"/>
<polygon fill="black" stroke="black" stroke-width="3" points="691.373,-491.5 701.373,-488 691.373,-484.5 691.373,-491.5"/>
</g>
<!-- v12 -->
<g id="node32" class="node"><title>v12</title>
<ellipse fill="none" stroke="black" cx="34.4711" cy="-582" rx="27" ry="18"/>
<text text-anchor="middle" x="34.4711" y="-578.3" font-family="Times,serif" font-size="14.00">1&#39;z</text>
</g>
<!-- x13 -->
<g id="node33" class="node"><title>x13</title>
<path fill="none" stroke="black" d="M182.942,-600C182.942,-600 152.942,-600 152.942,-600 146.942,-600 140.942,-594 140.942,-588 140.942,-588 140.942,-576 140.942,-576 140.942,-570 146.942,-564 152.942,-564 152.942,-564 182.942,-564 182.942,-564 188.942,-564 194.942,-570 194.942,-576 194.942,-576 194.942,-588 194.942,-588 194.942,-594 188.942,-600 182.942,-600"/>
<text text-anchor="middle" x="167.942" y="-578.3" font-family="Times,serif" font-size="14.00">BUF</text>
</g>
<!-- v12&#45;&gt;x13 -->
<g id="edge32" class="edge"><title>v12:e&#45;&gt;x13:w:w</title>
<path fill="none" stroke="black" d="M62.4711,-582C93.2713,-582 103.408,-582 129.849,-582"/>
<polygon fill="black" stroke="black" points="129.942,-585.5 139.942,-582 129.942,-578.5 129.942,-585.5"/>
</g>
<!-- x13&#45;&gt;n15 -->
<g id="edge11" class="edge"><title>x13:e:e&#45;&gt;n15:w</title>
<path fill="none" stroke="black" d="M195.942,-582C276.284,-582 298.841,-582 374.442,-582"/>
<polygon fill="black" stroke="black" points="374.442,-585.5 384.442,-582 374.442,-578.5 374.442,-585.5"/>
</g>
</g>
</svg>
