<?xml version="1.0" encoding="UTF-8" standalone="no"?>
<!DOCTYPE svg PUBLIC "-//W3C//DTD SVG 1.1//EN"
 "http://www.w3.org/Graphics/SVG/1.1/DTD/svg11.dtd">
<!-- Generated by graphviz version 2.38.0 (20140413.2041)
 -->
<!-- Title: my_design Pages: 1 -->
<svg width="2810pt" height="733pt"
 viewBox="0.00 0.00 2809.52 733.00" xmlns="http://www.w3.org/2000/svg" xmlns:xlink="http://www.w3.org/1999/xlink">
<g id="graph0" class="graph" transform="scale(1 1) rotate(0) translate(4 729)">
<title>my_design</title>
<polygon fill="white" stroke="none" points="-4,4 -4,-729 2805.52,-729 2805.52,4 -4,4"/>
<text text-anchor="middle" x="1400.76" y="-7.8" font-family="Times,serif" font-size="14.00">my_design</text>
<!-- n5 -->
<g id="node1" class="node"><title>n5</title>
<polygon fill="none" stroke="black" points="54,-113.544 54,-128.456 38.1838,-139 15.8162,-139 3.55271e-15,-128.456 0,-113.544 15.8162,-103 38.1838,-103 54,-113.544"/>
<text text-anchor="middle" x="27" y="-117.3" font-family="Times,serif" font-size="14.00">a</text>
</g>
<!-- c20 -->
<g id="node13" class="node"><title>c20</title>
<polygon fill="none" stroke="black" points="90,-71 90,-117 185,-117 185,-71 90,-71"/>
<text text-anchor="middle" x="103" y="-101.8" font-family="Times,serif" font-size="14.00">A</text>
<polyline fill="none" stroke="black" points="90,-94 116,-94 "/>
<text text-anchor="middle" x="103" y="-78.8" font-family="Times,serif" font-size="14.00">B</text>
<polyline fill="none" stroke="black" points="116,-71 116,-117 "/>
<text text-anchor="middle" x="137.5" y="-97.8" font-family="Times,serif" font-size="14.00">$3</text>
<text text-anchor="middle" x="137.5" y="-82.8" font-family="Times,serif" font-size="14.00">$add</text>
<polyline fill="none" stroke="black" points="159,-71 159,-117 "/>
<text text-anchor="middle" x="172" y="-90.3" font-family="Times,serif" font-size="14.00">Y</text>
</g>
<!-- n5&#45;&gt;c20 -->
<g id="edge18" class="edge"><title>n5:e&#45;&gt;c20:p17:w</title>
<path fill="none" stroke="black" stroke-width="3" d="M54,-121C67.2708,-121 71.1628,-112.207 80.0372,-108.086"/>
<polygon fill="black" stroke="black" stroke-width="3" points="80.9294,-111.475 90,-106 79.495,-104.623 80.9294,-111.475"/>
</g>
<!-- n6 -->
<g id="node2" class="node"><title>n6</title>
<polygon fill="none" stroke="black" points="54,-59.5442 54,-74.4558 38.1838,-85 15.8162,-85 3.55271e-15,-74.4558 0,-59.5442 15.8162,-49 38.1838,-49 54,-59.5442"/>
<text text-anchor="middle" x="27" y="-63.3" font-family="Times,serif" font-size="14.00">b</text>
</g>
<!-- n6&#45;&gt;c20 -->
<g id="edge19" class="edge"><title>n6:e&#45;&gt;c20:p18:w</title>
<path fill="none" stroke="black" stroke-width="3" d="M54,-67C67.2708,-67 71.1628,-75.7927 80.0372,-79.9143"/>
<polygon fill="black" stroke="black" stroke-width="3" points="79.495,-83.3766 90,-82 80.9294,-76.5251 79.495,-83.3766"/>
</g>
<!-- n7 -->
<g id="node3" class="node"><title>n7</title>
<polygon fill="none" stroke="black" points="293.727,-348.544 293.727,-363.456 277.911,-374 255.543,-374 239.727,-363.456 239.727,-348.544 255.543,-338 277.911,-338 293.727,-348.544"/>
<text text-anchor="middle" x="266.727" y="-352.3" font-family="Times,serif" font-size="14.00">clk</text>
</g>
<!-- c26 -->
<g id="node15" class="node"><title>c26</title>
<polygon fill="none" stroke="black" points="451.954,-135.5 451.954,-204.5 573.954,-204.5 573.954,-135.5 451.954,-135.5"/>
<text text-anchor="middle" x="477.454" y="-189.3" font-family="Times,serif" font-size="14.00">ARST</text>
<polyline fill="none" stroke="black" points="451.954,-181.5 502.954,-181.5 "/>
<text text-anchor="middle" x="477.454" y="-166.3" font-family="Times,serif" font-size="14.00">CLK</text>
<polyline fill="none" stroke="black" points="451.954,-158.5 502.954,-158.5 "/>
<text text-anchor="middle" x="477.454" y="-143.3" font-family="Times,serif" font-size="14.00">D</text>
<polyline fill="none" stroke="black" points="502.954,-135.5 502.954,-204.5 "/>
<text text-anchor="middle" x="525.454" y="-173.8" font-family="Times,serif" font-size="14.00">$6</text>
<text text-anchor="middle" x="525.454" y="-158.8" font-family="Times,serif" font-size="14.00">$adff</text>
<polyline fill="none" stroke="black" points="547.954,-135.5 547.954,-204.5 "/>
<text text-anchor="middle" x="560.954" y="-166.3" font-family="Times,serif" font-size="14.00">Q</text>
</g>
<!-- n7&#45;&gt;c26 -->
<g id="edge20" class="edge"><title>n7:e&#45;&gt;c26:p23:w</title>
<path fill="none" stroke="black" d="M294.727,-356C360.131,-356 303.906,-266.886 348.454,-219 380.428,-184.63 397.901,-171.815 440.773,-170.183"/>
<polygon fill="black" stroke="black" points="441.019,-173.679 450.954,-170 440.893,-166.68 441.019,-173.679"/>
</g>
<!-- c37 -->
<g id="node22" class="node"><title>c37</title>
<polygon fill="none" stroke="black" points="348.454,-441.5 348.454,-602.5 677.454,-602.5 677.454,-441.5 348.454,-441.5"/>
<text text-anchor="middle" x="428.954" y="-587.3" font-family="Times,serif" font-size="14.00">CLOCK_ENABLE</text>
<polyline fill="none" stroke="black" points="348.454,-579.5 509.454,-579.5 "/>
<text text-anchor="middle" x="428.954" y="-564.3" font-family="Times,serif" font-size="14.00">D_OUT_0</text>
<polyline fill="none" stroke="black" points="348.454,-556.5 509.454,-556.5 "/>
<text text-anchor="middle" x="428.954" y="-541.3" font-family="Times,serif" font-size="14.00">D_OUT_1</text>
<polyline fill="none" stroke="black" points="348.454,-533.5 509.454,-533.5 "/>
<text text-anchor="middle" x="428.954" y="-518.3" font-family="Times,serif" font-size="14.00">INPUT_CLK</text>
<polyline fill="none" stroke="black" points="348.454,-510.5 509.454,-510.5 "/>
<text text-anchor="middle" x="428.954" y="-495.3" font-family="Times,serif" font-size="14.00">LATCH_INPUT_VALUE</text>
<polyline fill="none" stroke="black" points="348.454,-487.5 509.454,-487.5 "/>
<text text-anchor="middle" x="428.954" y="-472.3" font-family="Times,serif" font-size="14.00">OUTPUT_CLK</text>
<polyline fill="none" stroke="black" points="348.454,-464.5 509.454,-464.5 "/>
<text text-anchor="middle" x="428.954" y="-449.3" font-family="Times,serif" font-size="14.00">OUTPUT_ENABLE</text>
<polyline fill="none" stroke="black" points="509.454,-441.5 509.454,-602.5 "/>
<text text-anchor="middle" x="538.954" y="-525.8" font-family="Times,serif" font-size="14.00">u_sb_in</text>
<text text-anchor="middle" x="538.954" y="-510.8" font-family="Times,serif" font-size="14.00">SB_IO</text>
<polyline fill="none" stroke="black" points="568.454,-441.5 568.454,-602.5 "/>
<text text-anchor="middle" x="622.954" y="-572.3" font-family="Times,serif" font-size="14.00">D_IN_0</text>
<polyline fill="none" stroke="black" points="568.454,-549.5 677.454,-549.5 "/>
<text text-anchor="middle" x="622.954" y="-518.8" font-family="Times,serif" font-size="14.00">D_IN_1</text>
<polyline fill="none" stroke="black" points="568.454,-495.5 677.454,-495.5 "/>
<text text-anchor="middle" x="622.954" y="-464.8" font-family="Times,serif" font-size="14.00">PACKAGE_PIN</text>
</g>
<!-- n7&#45;&gt;c37 -->
<g id="edge21" class="edge"><title>n7:e&#45;&gt;c37:p30:w</title>
<path fill="none" stroke="black" d="M294.727,-356C368.486,-356 280.381,-506.185 338.333,-520.851"/>
<polygon fill="black" stroke="black" points="338.123,-524.35 348.454,-522 338.913,-517.395 338.123,-524.35"/>
</g>
<!-- n7&#45;&gt;c37 -->
<g id="edge22" class="edge"><title>n7:e&#45;&gt;c37:p32:w</title>
<path fill="none" stroke="black" d="M294.727,-356C349.281,-356 297.869,-460.592 338.35,-474.483"/>
<polygon fill="black" stroke="black" points="338.045,-477.976 348.454,-476 339.085,-471.054 338.045,-477.976"/>
</g>
<!-- c39 -->
<g id="node23" class="node"><title>c39</title>
<polygon fill="none" stroke="black" points="944.315,-300 944.315,-346 1129.32,-346 1129.32,-300 944.315,-300"/>
<text text-anchor="middle" x="957.315" y="-330.8" font-family="Times,serif" font-size="14.00">C</text>
<polyline fill="none" stroke="black" points="944.315,-323 970.315,-323 "/>
<text text-anchor="middle" x="957.315" y="-307.8" font-family="Times,serif" font-size="14.00">D</text>
<polyline fill="none" stroke="black" points="970.315,-300 970.315,-346 "/>
<text text-anchor="middle" x="1036.82" y="-326.8" font-family="Times,serif" font-size="14.00">u_sb_in2sb_internal0</text>
<text text-anchor="middle" x="1036.82" y="-311.8" font-family="Times,serif" font-size="14.00">SB_DFF</text>
<polyline fill="none" stroke="black" points="1103.32,-300 1103.32,-346 "/>
<text text-anchor="middle" x="1116.32" y="-319.3" font-family="Times,serif" font-size="14.00">Q</text>
</g>
<!-- n7&#45;&gt;c39 -->
<g id="edge23" class="edge"><title>n7:e&#45;&gt;c39:p38:w</title>
<path fill="none" stroke="black" d="M294.727,-356C580.199,-356 653.744,-335.489 934.249,-335.009"/>
<polygon fill="black" stroke="black" points="934.318,-338.509 944.315,-335 934.312,-331.509 934.318,-338.509"/>
</g>
<!-- c42 -->
<g id="node24" class="node"><title>c42</title>
<polygon fill="none" stroke="black" points="1353.9,-338 1353.9,-384 1590.9,-384 1590.9,-338 1353.9,-338"/>
<text text-anchor="middle" x="1370.4" y="-368.8" font-family="Times,serif" font-size="14.00">clk</text>
<polyline fill="none" stroke="black" points="1353.9,-361 1386.9,-361 "/>
<text text-anchor="middle" x="1370.4" y="-345.8" font-family="Times,serif" font-size="14.00">in</text>
<polyline fill="none" stroke="black" points="1386.9,-338 1386.9,-384 "/>
<text text-anchor="middle" x="1471.9" y="-364.8" font-family="Times,serif" font-size="14.00">u_sb_internal02sb_internal1</text>
<text text-anchor="middle" x="1471.9" y="-349.8" font-family="Times,serif" font-size="14.00">sub_design</text>
<polyline fill="none" stroke="black" points="1556.9,-338 1556.9,-384 "/>
<text text-anchor="middle" x="1573.9" y="-357.3" font-family="Times,serif" font-size="14.00">out</text>
</g>
<!-- n7&#45;&gt;c42 -->
<g id="edge24" class="edge"><title>n7:e&#45;&gt;c42:p7:w</title>
<path fill="none" stroke="black" d="M294.727,-356C318.709,-356 324.518,-359.525 348.454,-361 553.24,-373.623 604.71,-375 809.885,-375 809.885,-375 809.885,-375 1037.82,-375 1174.87,-375 1211.64,-373.096 1343.79,-373.004"/>
<polygon fill="black" stroke="black" points="1343.9,-376.504 1353.9,-373 1343.89,-369.504 1343.9,-376.504"/>
</g>
<!-- c43 -->
<g id="node25" class="node"><title>c43</title>
<polygon fill="none" stroke="black" points="1815.48,-356 1815.48,-402 2106.48,-402 2106.48,-356 1815.48,-356"/>
<text text-anchor="middle" x="1831.98" y="-386.8" font-family="Times,serif" font-size="14.00">clk</text>
<polyline fill="none" stroke="black" points="1815.48,-379 1848.48,-379 "/>
<text text-anchor="middle" x="1831.98" y="-363.8" font-family="Times,serif" font-size="14.00">in</text>
<polyline fill="none" stroke="black" points="1848.48,-356 1848.48,-402 "/>
<text text-anchor="middle" x="1960.48" y="-382.8" font-family="Times,serif" font-size="14.00">u_sb_internal12sb_out</text>
<text text-anchor="middle" x="1960.48" y="-367.8" font-family="Times,serif" font-size="14.00">$paramod\sub_design\INSERT_FF=1</text>
<polyline fill="none" stroke="black" points="2072.48,-356 2072.48,-402 "/>
<text text-anchor="middle" x="2089.48" y="-375.3" font-family="Times,serif" font-size="14.00">out</text>
</g>
<!-- n7&#45;&gt;c43 -->
<g id="edge25" class="edge"><title>n7:e&#45;&gt;c43:p7:w</title>
<path fill="none" stroke="black" d="M294.727,-356C321.255,-356 322.81,-375.209 348.454,-382 547.147,-434.621 604.342,-413 809.885,-413 809.885,-413 809.885,-413 1473.4,-413 1622.32,-413 1661.39,-391.977 1805.38,-391.033"/>
<polygon fill="black" stroke="black" points="1805.49,-394.533 1815.48,-391 1805.46,-387.533 1805.49,-394.533"/>
</g>
<!-- c44 -->
<g id="node31" class="node"><title>c44</title>
<polygon fill="none" stroke="black" points="2354.95,-252.5 2354.95,-413.5 2690.95,-413.5 2690.95,-252.5 2354.95,-252.5"/>
<text text-anchor="middle" x="2435.45" y="-398.3" font-family="Times,serif" font-size="14.00">CLOCK_ENABLE</text>
<polyline fill="none" stroke="black" points="2354.95,-390.5 2515.95,-390.5 "/>
<text text-anchor="middle" x="2435.45" y="-375.3" font-family="Times,serif" font-size="14.00">D_OUT_0</text>
<polyline fill="none" stroke="black" points="2354.95,-367.5 2515.95,-367.5 "/>
<text text-anchor="middle" x="2435.45" y="-352.3" font-family="Times,serif" font-size="14.00">D_OUT_1</text>
<polyline fill="none" stroke="black" points="2354.95,-344.5 2515.95,-344.5 "/>
<text text-anchor="middle" x="2435.45" y="-329.3" font-family="Times,serif" font-size="14.00">INPUT_CLK</text>
<polyline fill="none" stroke="black" points="2354.95,-321.5 2515.95,-321.5 "/>
<text text-anchor="middle" x="2435.45" y="-306.3" font-family="Times,serif" font-size="14.00">LATCH_INPUT_VALUE</text>
<polyline fill="none" stroke="black" points="2354.95,-298.5 2515.95,-298.5 "/>
<text text-anchor="middle" x="2435.45" y="-283.3" font-family="Times,serif" font-size="14.00">OUTPUT_CLK</text>
<polyline fill="none" stroke="black" points="2354.95,-275.5 2515.95,-275.5 "/>
<text text-anchor="middle" x="2435.45" y="-260.3" font-family="Times,serif" font-size="14.00">OUTPUT_ENABLE</text>
<polyline fill="none" stroke="black" points="2515.95,-252.5 2515.95,-413.5 "/>
<text text-anchor="middle" x="2548.95" y="-336.8" font-family="Times,serif" font-size="14.00">u_sb_out</text>
<text text-anchor="middle" x="2548.95" y="-321.8" font-family="Times,serif" font-size="14.00">SB_IO</text>
<polyline fill="none" stroke="black" points="2581.95,-252.5 2581.95,-413.5 "/>
<text text-anchor="middle" x="2636.45" y="-383.3" font-family="Times,serif" font-size="14.00">D_IN_0</text>
<polyline fill="none" stroke="black" points="2581.95,-360.5 2690.95,-360.5 "/>
<text text-anchor="middle" x="2636.45" y="-329.8" font-family="Times,serif" font-size="14.00">D_IN_1</text>
<polyline fill="none" stroke="black" points="2581.95,-306.5 2690.95,-306.5 "/>
<text text-anchor="middle" x="2636.45" y="-275.8" font-family="Times,serif" font-size="14.00">PACKAGE_PIN</text>
</g>
<!-- n7&#45;&gt;c44 -->
<g id="edge26" class="edge"><title>n7:e&#45;&gt;c44:p30:w</title>
<path fill="none" stroke="black" d="M294.727,-356C344.789,-356 306.113,-283.71 348.454,-257 435.298,-202.218 707.206,-233 809.885,-233 809.885,-233 809.885,-233 1037.82,-233 1621.46,-233 1766.18,-331.832 2344.68,-332.99"/>
<polygon fill="black" stroke="black" points="2344.95,-336.49 2354.95,-333 2344.96,-329.49 2344.95,-336.49"/>
</g>
<!-- n7&#45;&gt;c44 -->
<g id="edge27" class="edge"><title>n7:e&#45;&gt;c44:p32:w</title>
<path fill="none" stroke="black" d="M294.727,-356C319.773,-356 324.048,-344.622 348.454,-339 550.46,-292.472 602.589,-271 809.885,-271 809.885,-271 809.885,-271 1037.82,-271 1528.8,-271 1651.5,-262.444 2142.48,-260 2220.91,-259.609 2244.54,-235.197 2318.95,-260 2333.93,-264.99 2335.23,-278.916 2344.94,-284.569"/>
<polygon fill="black" stroke="black" points="2344.41,-288.041 2354.95,-287 2346.06,-281.239 2344.41,-288.041"/>
</g>
<!-- n8 -->
<g id="node4" class="node"><title>n8</title>
<polygon fill="none" stroke="black" points="301.169,-181.544 301.169,-196.456 280.993,-207 252.461,-207 232.285,-196.456 232.285,-181.544 252.461,-171 280.993,-171 301.169,-181.544"/>
<text text-anchor="middle" x="266.727" y="-185.3" font-family="Times,serif" font-size="14.00">reset_</text>
</g>
<!-- c21 -->
<g id="node14" class="node"><title>c21</title>
<polygon fill="none" stroke="black" points="449.954,-78 449.954,-116 575.954,-116 575.954,-78 449.954,-78"/>
<text text-anchor="middle" x="462.954" y="-93.3" font-family="Times,serif" font-size="14.00">A</text>
<polyline fill="none" stroke="black" points="475.954,-78 475.954,-116 "/>
<text text-anchor="middle" x="512.954" y="-100.8" font-family="Times,serif" font-size="14.00">$2</text>
<text text-anchor="middle" x="512.954" y="-85.8" font-family="Times,serif" font-size="14.00">$logic_not</text>
<polyline fill="none" stroke="black" points="549.954,-78 549.954,-116 "/>
<text text-anchor="middle" x="562.954" y="-93.3" font-family="Times,serif" font-size="14.00">Y</text>
</g>
<!-- n8&#45;&gt;c21 -->
<g id="edge28" class="edge"><title>n8:e&#45;&gt;c21:p17:w</title>
<path fill="none" stroke="black" d="M302.727,-189C337.325,-189 320.134,-145.875 348.454,-126 383.534,-101.381 399.837,-97.5075 438.592,-97.0526"/>
<polygon fill="black" stroke="black" points="438.972,-100.551 448.954,-97 438.936,-93.5509 438.972,-100.551"/>
</g>
<!-- n8&#45;&gt;c26 -->
<g id="edge29" class="edge"><title>n8:e&#45;&gt;c26:p22:w</title>
<path fill="none" stroke="black" d="M302.727,-189C365.154,-189 383.182,-192.589 440.926,-192.968"/>
<polygon fill="black" stroke="black" points="440.943,-196.468 450.954,-193 440.965,-189.468 440.943,-196.468"/>
</g>
<!-- n9 -->
<g id="node5" class="node"><title>n9</title>
<polygon fill="none" stroke="black" points="843.107,-460.544 843.107,-475.456 824.231,-486 797.538,-486 778.663,-475.456 778.663,-460.544 797.538,-450 824.231,-450 843.107,-460.544"/>
<text text-anchor="middle" x="810.885" y="-464.3" font-family="Times,serif" font-size="14.00">sb_in</text>
</g>
<!-- n10 -->
<g id="node6" class="node"><title>n10</title>
<polygon fill="none" stroke="black" points="810.885,-594 713.523,-576 810.885,-558 908.246,-576 810.885,-594"/>
<text text-anchor="middle" x="810.885" y="-572.3" font-family="Times,serif" font-size="14.00">sb_in_from_pad</text>
</g>
<!-- n10&#45;&gt;c39 -->
<g id="edge2" class="edge"><title>n10:e&#45;&gt;c39:p24:w</title>
<path fill="none" stroke="black" d="M908.315,-576C963.799,-576 895.263,-345.027 934.275,-314.351"/>
<polygon fill="black" stroke="black" points="935.938,-317.486 944.315,-311 933.722,-310.846 935.938,-317.486"/>
</g>
<!-- n11 -->
<g id="node7" class="node"><title>n11</title>
<polygon fill="none" stroke="black" points="1241.61,-344 1165.52,-326 1241.61,-308 1317.69,-326 1241.61,-344"/>
<text text-anchor="middle" x="1241.61" y="-322.3" font-family="Times,serif" font-size="14.00">sb_internal0</text>
</g>
<!-- n11&#45;&gt;c42 -->
<g id="edge4" class="edge"><title>n11:e&#45;&gt;c42:p40:w</title>
<path fill="none" stroke="black" d="M1317.9,-326C1332.73,-326 1334.77,-340.038 1344.01,-346.18"/>
<polygon fill="black" stroke="black" points="1343.32,-349.623 1353.9,-349 1345.24,-342.892 1343.32,-349.623"/>
</g>
<!-- n12 -->
<g id="node8" class="node"><title>n12</title>
<polygon fill="none" stroke="black" points="1703.19,-382 1627.1,-364 1703.19,-346 1779.27,-364 1703.19,-382"/>
<text text-anchor="middle" x="1703.19" y="-360.3" font-family="Times,serif" font-size="14.00">sb_internal1</text>
</g>
<!-- n12&#45;&gt;c43 -->
<g id="edge6" class="edge"><title>n12:e&#45;&gt;c43:p40:w</title>
<path fill="none" stroke="black" d="M1779.48,-364C1791.52,-364 1796.72,-365.688 1805.33,-366.531"/>
<polygon fill="black" stroke="black" points="1805.32,-370.034 1815.48,-367 1805.65,-363.042 1805.32,-370.034"/>
</g>
<!-- n13 -->
<g id="node9" class="node"><title>n13</title>
<polygon fill="none" stroke="black" points="2801.31,-271.544 2801.31,-286.456 2779.59,-297 2748.88,-297 2727.17,-286.456 2727.17,-271.544 2748.88,-261 2779.59,-261 2801.31,-271.544"/>
<text text-anchor="middle" x="2764.24" y="-275.3" font-family="Times,serif" font-size="14.00">sb_out</text>
</g>
<!-- n14 -->
<g id="node10" class="node"><title>n14</title>
<polygon fill="none" stroke="black" points="2230.71,-397 2142.24,-379 2230.71,-361 2319.19,-379 2230.71,-397"/>
<text text-anchor="middle" x="2230.71" y="-375.3" font-family="Times,serif" font-size="14.00">sb_out_to_pad</text>
</g>
<!-- n14&#45;&gt;c44 -->
<g id="edge9" class="edge"><title>n14:e&#45;&gt;c44:p28:w</title>
<path fill="none" stroke="black" d="M2318.95,-379C2330.95,-379 2336.2,-379 2344.83,-379"/>
<polygon fill="black" stroke="black" points="2344.95,-382.5 2354.95,-379 2344.95,-375.5 2344.95,-382.5"/>
</g>
<!-- n14&#45;&gt;c44 -->
<g id="edge10" class="edge"><title>n14:e&#45;&gt;c44:p29:w</title>
<path fill="none" stroke="black" d="M2318.95,-379C2333.79,-379 2335.83,-364.962 2345.06,-358.82"/>
<polygon fill="black" stroke="black" points="2346.3,-362.108 2354.95,-356 2344.38,-355.377 2346.3,-362.108"/>
</g>
<!-- n15 -->
<g id="node11" class="node"><title>n15</title>
<polygon fill="none" stroke="black" points="312.682,-699.544 312.682,-714.456 285.762,-725 247.692,-725 220.772,-714.456 220.772,-699.544 247.692,-689 285.762,-689 312.682,-699.544"/>
<text text-anchor="middle" x="266.727" y="-703.3" font-family="Times,serif" font-size="14.00">sb_out_z</text>
</g>
<!-- n16 -->
<g id="node12" class="node"><title>n16</title>
<polygon fill="none" stroke="black" points="837.885,-162.544 837.885,-177.456 822.068,-188 799.701,-188 783.885,-177.456 783.885,-162.544 799.701,-152 822.068,-152 837.885,-162.544"/>
<text text-anchor="middle" x="810.885" y="-166.3" font-family="Times,serif" font-size="14.00">z</text>
</g>
<!-- n3 -->
<g id="node36" class="node"><title>n3</title>
<ellipse fill="black" stroke="black" cx="266.727" cy="-94" rx="1.8" ry="1.8"/>
</g>
<!-- c20&#45;&gt;n3 -->
<g id="edge14" class="edge"><title>c20:p19:e&#45;&gt;n3:w</title>
<path fill="none" stroke="black" stroke-width="3" d="M185,-94C216.299,-94 226.6,-94 253.47,-94"/>
<polygon fill="black" stroke="black" stroke-width="3" points="253.727,-97.5001 263.727,-94 253.727,-90.5001 253.727,-97.5001"/>
</g>
<!-- n4 -->
<g id="node37" class="node"><title>n4</title>
<polygon fill="none" stroke="black" points="810.885,-115 767.483,-97 810.885,-79 854.286,-97 810.885,-115"/>
<text text-anchor="middle" x="810.885" y="-93.3" font-family="Times,serif" font-size="14.00">$2_Y</text>
</g>
<!-- c21&#45;&gt;n4 -->
<g id="edge17" class="edge"><title>c21:p19:e&#45;&gt;n4:w</title>
<path fill="none" stroke="black" d="M576.954,-97C657.479,-97 680.088,-97 755.862,-97"/>
<polygon fill="black" stroke="black" points="755.885,-100.5 765.885,-97 755.885,-93.5001 755.885,-100.5"/>
</g>
<!-- c26&#45;&gt;n16 -->
<g id="edge12" class="edge"><title>c26:p25:e&#45;&gt;n16:w</title>
<path fill="none" stroke="black" stroke-width="3" d="M574.954,-170C663.938,-170 688.661,-170 772.876,-170"/>
<polygon fill="black" stroke="black" stroke-width="3" points="772.885,-173.5 782.885,-170 772.885,-166.5 772.885,-173.5"/>
</g>
<!-- v0 -->
<g id="node16" class="node"><title>v0</title>
<ellipse fill="none" stroke="black" cx="266.727" cy="-653" rx="27" ry="18"/>
<text text-anchor="middle" x="266.727" y="-649.3" font-family="Times,serif" font-size="14.00">1&#39;0</text>
</g>
<!-- v0&#45;&gt;c37 -->
<g id="edge31" class="edge"><title>v0:e&#45;&gt;c37:p27:w</title>
<path fill="none" stroke="black" d="M294.727,-653C327.201,-653 315.525,-603.821 338.342,-593.063"/>
<polygon fill="black" stroke="black" points="339.355,-596.428 348.454,-591 337.956,-589.569 339.355,-596.428"/>
</g>
<!-- v1 -->
<g id="node17" class="node"><title>v1</title>
<ellipse fill="none" stroke="black" cx="810.885" cy="-522" rx="27" ry="18"/>
</g>
<!-- v2 -->
<g id="node18" class="node"><title>v2</title>
<ellipse fill="none" stroke="black" cx="266.727" cy="-599" rx="27" ry="18"/>
<text text-anchor="middle" x="266.727" y="-595.3" font-family="Times,serif" font-size="14.00">1&#39;0</text>
</g>
<!-- v2&#45;&gt;c37 -->
<g id="edge35" class="edge"><title>v2:e&#45;&gt;c37:p28:w</title>
<path fill="none" stroke="black" d="M294.727,-599C318.419,-599 320.709,-576.106 338.382,-569.667"/>
<polygon fill="black" stroke="black" points="339.16,-573.086 348.454,-568 338.017,-566.18 339.16,-573.086"/>
</g>
<!-- v3 -->
<g id="node19" class="node"><title>v3</title>
<ellipse fill="none" stroke="black" cx="266.727" cy="-545" rx="27" ry="18"/>
<text text-anchor="middle" x="266.727" y="-541.3" font-family="Times,serif" font-size="14.00">1&#39;0</text>
</g>
<!-- v3&#45;&gt;c37 -->
<g id="edge36" class="edge"><title>v3:e&#45;&gt;c37:p29:w</title>
<path fill="none" stroke="black" d="M294.727,-545C314.875,-545 322.273,-545 338.436,-545"/>
<polygon fill="black" stroke="black" points="338.454,-548.5 348.454,-545 338.454,-541.5 338.454,-548.5"/>
</g>
<!-- v4 -->
<g id="node20" class="node"><title>v4</title>
<ellipse fill="none" stroke="black" cx="266.727" cy="-491" rx="27" ry="18"/>
<text text-anchor="middle" x="266.727" y="-487.3" font-family="Times,serif" font-size="14.00">1&#39;1</text>
</g>
<!-- v4&#45;&gt;c37 -->
<g id="edge37" class="edge"><title>v4:e&#45;&gt;c37:p31:w</title>
<path fill="none" stroke="black" d="M294.727,-491C315.097,-491 322.155,-496.695 338.364,-498.475"/>
<polygon fill="black" stroke="black" points="338.286,-501.976 348.454,-499 338.649,-494.985 338.286,-501.976"/>
</g>
<!-- v5 -->
<g id="node21" class="node"><title>v5</title>
<ellipse fill="none" stroke="black" cx="266.727" cy="-437" rx="27" ry="18"/>
<text text-anchor="middle" x="266.727" y="-433.3" font-family="Times,serif" font-size="14.00">1&#39;0</text>
</g>
<!-- v5&#45;&gt;c37 -->
<g id="edge38" class="edge"><title>v5:e&#45;&gt;c37:p33:w</title>
<path fill="none" stroke="black" d="M294.727,-437C315.749,-437 321.808,-448.391 338.154,-451.95"/>
<polygon fill="black" stroke="black" points="338.151,-455.468 348.454,-453 338.86,-448.504 338.151,-455.468"/>
</g>
<!-- c37&#45;&gt;n9 -->
<g id="edge30" class="edge"><title>c37:p36:e&#45;&gt;n9:w</title>
<path fill="none" stroke="black" d="M677.454,-468C718.428,-468 731.193,-468 767.539,-468"/>
<polygon fill="black" stroke="black" points="767.885,-471.5 777.885,-468 767.885,-464.5 767.885,-471.5"/>
</g>
<!-- c37&#45;&gt;n10 -->
<g id="edge1" class="edge"><title>c37:p34:e&#45;&gt;n10:w</title>
<path fill="none" stroke="black" d="M677.454,-576C689.454,-576 694.704,-576 703.329,-576"/>
<polygon fill="black" stroke="black" points="703.454,-579.5 713.454,-576 703.454,-572.5 703.454,-579.5"/>
</g>
<!-- c37&#45;&gt;v1 -->
<g id="edge32" class="edge"><title>c37:p35:e&#45;&gt;v1:w</title>
<path fill="none" stroke="black" d="M677.454,-523C720.653,-523 733.98,-522.15 772.512,-522.017"/>
<polygon fill="black" stroke="black" points="772.891,-525.517 782.885,-522 772.879,-518.517 772.891,-525.517"/>
</g>
<!-- c39&#45;&gt;n11 -->
<g id="edge3" class="edge"><title>c39:p25:e&#45;&gt;n11:w</title>
<path fill="none" stroke="black" d="M1129.32,-323C1141.36,-323 1146.55,-324.688 1155.17,-325.531"/>
<polygon fill="black" stroke="black" points="1155.16,-329.034 1165.32,-326 1155.49,-322.042 1155.16,-329.034"/>
</g>
<!-- c42&#45;&gt;n12 -->
<g id="edge5" class="edge"><title>c42:p41:e&#45;&gt;n12:w</title>
<path fill="none" stroke="black" d="M1590.9,-361C1602.94,-361 1608.14,-362.688 1616.75,-363.531"/>
<polygon fill="black" stroke="black" points="1616.74,-367.034 1626.9,-364 1617.07,-360.042 1616.74,-367.034"/>
</g>
<!-- c43&#45;&gt;n14 -->
<g id="edge8" class="edge"><title>c43:p41:e&#45;&gt;n14:w</title>
<path fill="none" stroke="black" d="M2106.48,-379C2118.48,-379 2123.73,-379 2132.35,-379"/>
<polygon fill="black" stroke="black" points="2132.48,-382.5 2142.48,-379 2132.48,-375.5 2132.48,-382.5"/>
</g>
<!-- v6 -->
<g id="node26" class="node"><title>v6</title>
<ellipse fill="none" stroke="black" cx="2230.71" cy="-433" rx="27" ry="18"/>
<text text-anchor="middle" x="2230.71" y="-429.3" font-family="Times,serif" font-size="14.00">1&#39;0</text>
</g>
<!-- v6&#45;&gt;c44 -->
<g id="edge39" class="edge"><title>v6:e&#45;&gt;c44:p27:w</title>
<path fill="none" stroke="black" d="M2258.71,-433C2299.97,-433 2308.71,-406.877 2344.63,-402.592"/>
<polygon fill="black" stroke="black" points="2345.17,-406.067 2354.95,-402 2344.77,-399.078 2345.17,-406.067"/>
</g>
<!-- v7 -->
<g id="node27" class="node"><title>v7</title>
<ellipse fill="none" stroke="black" cx="2764.24" cy="-387" rx="27" ry="18"/>
</g>
<!-- v8 -->
<g id="node28" class="node"><title>v8</title>
<ellipse fill="none" stroke="black" cx="2764.24" cy="-333" rx="27" ry="18"/>
</g>
<!-- v9 -->
<g id="node29" class="node"><title>v9</title>
<ellipse fill="none" stroke="black" cx="2230.71" cy="-287" rx="27" ry="18"/>
<text text-anchor="middle" x="2230.71" y="-283.3" font-family="Times,serif" font-size="14.00">1&#39;0</text>
</g>
<!-- v9&#45;&gt;c44 -->
<g id="edge42" class="edge"><title>v9:e&#45;&gt;c44:p31:w</title>
<path fill="none" stroke="black" d="M2258.71,-287C2299.08,-287 2309.38,-306.381 2344.81,-309.561"/>
<polygon fill="black" stroke="black" points="2344.81,-313.064 2354.95,-310 2345.11,-306.071 2344.81,-313.064"/>
</g>
<!-- v10 -->
<g id="node30" class="node"><title>v10</title>
<ellipse fill="none" stroke="black" cx="2230.71" cy="-195" rx="27" ry="18"/>
<text text-anchor="middle" x="2230.71" y="-191.3" font-family="Times,serif" font-size="14.00">1&#39;1</text>
</g>
<!-- v10&#45;&gt;c44 -->
<g id="edge33" class="edge"><title>v10:e&#45;&gt;c44:p33:w</title>
<path fill="none" stroke="black" d="M2258.71,-195C2289.03,-195 2294.7,-208.806 2318.95,-227 2334.01,-238.296 2333.15,-255.957 2345.02,-261.94"/>
<polygon fill="black" stroke="black" points="2344.45,-265.396 2354.95,-264 2345.87,-258.542 2344.45,-265.396"/>
</g>
<!-- c44&#45;&gt;n13 -->
<g id="edge7" class="edge"><title>c44:p36:e&#45;&gt;n13:w</title>
<path fill="none" stroke="black" d="M2690.95,-279C2702.95,-279 2708.2,-279 2716.83,-279"/>
<polygon fill="black" stroke="black" points="2716.95,-282.5 2726.95,-279 2716.95,-275.5 2716.95,-282.5"/>
</g>
<!-- c44&#45;&gt;v7 -->
<g id="edge40" class="edge"><title>c44:p34:e&#45;&gt;v7:w</title>
<path fill="none" stroke="black" d="M2690.95,-387C2707.15,-387 2713.57,-387 2725.95,-387"/>
<polygon fill="black" stroke="black" points="2726.24,-390.5 2736.24,-387 2726.24,-383.5 2726.24,-390.5"/>
</g>
<!-- c44&#45;&gt;v8 -->
<g id="edge41" class="edge"><title>c44:p35:e&#45;&gt;v8:w</title>
<path fill="none" stroke="black" d="M2690.95,-334C2707.15,-334 2713.57,-333.352 2725.95,-333.1"/>
<polygon fill="black" stroke="black" points="2726.27,-336.597 2736.24,-333 2726.21,-329.597 2726.27,-336.597"/>
</g>
<!-- v11 -->
<g id="node32" class="node"><title>v11</title>
<ellipse fill="none" stroke="black" cx="27" cy="-707" rx="27" ry="18"/>
<text text-anchor="middle" x="27" y="-703.3" font-family="Times,serif" font-size="14.00">1&#39;z</text>
</g>
<!-- x12 -->
<g id="node33" class="node"><title>x12</title>
<path fill="none" stroke="black" d="M152.5,-725C152.5,-725 122.5,-725 122.5,-725 116.5,-725 110.5,-719 110.5,-713 110.5,-713 110.5,-701 110.5,-701 110.5,-695 116.5,-689 122.5,-689 122.5,-689 152.5,-689 152.5,-689 158.5,-689 164.5,-695 164.5,-701 164.5,-701 164.5,-713 164.5,-713 164.5,-719 158.5,-725 152.5,-725"/>
<text text-anchor="middle" x="137.5" y="-703.3" font-family="Times,serif" font-size="14.00">BUF</text>
</g>
<!-- v11&#45;&gt;x12 -->
<g id="edge34" class="edge"><title>v11:e&#45;&gt;x12:w:w</title>
<path fill="none" stroke="black" d="M54,-707C74.8125,-707 82.4546,-707 99.1513,-707"/>
<polygon fill="black" stroke="black" points="99.5,-710.5 109.5,-707 99.5,-703.5 99.5,-710.5"/>
</g>
<!-- x12&#45;&gt;n15 -->
<g id="edge11" class="edge"><title>x12:e:e&#45;&gt;n15:w</title>
<path fill="none" stroke="black" d="M165.5,-707C186.312,-707 193.955,-707 210.651,-707"/>
<polygon fill="black" stroke="black" points="211,-710.5 221,-707 211,-703.5 211,-710.5"/>
</g>
<!-- x13 -->
<g id="node34" class="node"><title>x13</title>
<path fill="none" stroke="black" d="M527.954,-59C527.954,-59 497.954,-59 497.954,-59 491.954,-59 485.954,-53 485.954,-47 485.954,-47 485.954,-35 485.954,-35 485.954,-29 491.954,-23 497.954,-23 497.954,-23 527.954,-23 527.954,-23 533.954,-23 539.954,-29 539.954,-35 539.954,-35 539.954,-47 539.954,-47 539.954,-53 533.954,-59 527.954,-59"/>
<text text-anchor="middle" x="512.954" y="-37.3" font-family="Times,serif" font-size="14.00">BUF</text>
</g>
<!-- n2 -->
<g id="node35" class="node"><title>n2</title>
<polygon fill="none" stroke="black" points="810.885,-59 750.055,-41 810.885,-23 871.714,-41 810.885,-59"/>
<text text-anchor="middle" x="810.885" y="-37.3" font-family="Times,serif" font-size="14.00">$0\z[7:0]</text>
</g>
<!-- x13&#45;&gt;n2 -->
<g id="edge13" class="edge"><title>x13:e:e&#45;&gt;n2:w</title>
<path fill="none" stroke="black" stroke-width="3" d="M540.954,-41C629.938,-41 654.661,-41 738.876,-41"/>
<polygon fill="black" stroke="black" stroke-width="3" points="738.885,-44.5001 748.885,-41 738.885,-37.5001 738.885,-44.5001"/>
</g>
<!-- n3&#45;&gt;c26 -->
<g id="edge15" class="edge"><title>n3:e&#45;&gt;c26:p24:w</title>
<path fill="none" stroke="black" stroke-width="3" d="M269.727,-94C307.332,-94 312.455,-114.129 348.454,-125 389.573,-137.417 402.392,-145.637 440.647,-146.846"/>
<polygon fill="black" stroke="black" stroke-width="3" points="440.903,-150.35 450.954,-147 441.008,-143.35 440.903,-150.35"/>
</g>
<!-- n3&#45;&gt;x13 -->
<g id="edge16" class="edge"><title>n3:e&#45;&gt;x13:w:w</title>
<path fill="none" stroke="black" stroke-width="3" d="M269.727,-94C306.576,-94 312.817,-77.3708 348.454,-68 404.875,-53.164 421.286,-42.2913 474.881,-41.1073"/>
<polygon fill="black" stroke="black" stroke-width="3" points="474.992,-44.6064 484.954,-41 474.917,-37.6068 474.992,-44.6064"/>
</g>
</g>
</svg>
