<?xml version="1.0" encoding="UTF-8" standalone="no"?>
<!DOCTYPE svg PUBLIC "-//W3C//DTD SVG 1.1//EN"
 "http://www.w3.org/Graphics/SVG/1.1/DTD/svg11.dtd">
<!-- Generated by graphviz version 2.38.0 (20140413.2041)
 -->
<!-- Title: my_design Pages: 1 -->
<svg width="687pt" height="1201pt"
 viewBox="0.00 0.00 686.75 1201.00" xmlns="http://www.w3.org/2000/svg" xmlns:xlink="http://www.w3.org/1999/xlink">
<g id="graph0" class="graph" transform="scale(1 1) rotate(0) translate(4 1197)">
<title>my_design</title>
<polygon fill="white" stroke="none" points="-4,4 -4,-1197 682.748,-1197 682.748,4 -4,4"/>
<text text-anchor="middle" x="339.374" y="-7.8" font-family="Times,serif" font-size="14.00">my_design</text>
<!-- n5 -->
<g id="node1" class="node"><title>n5</title>
<polygon fill="none" stroke="black" points="61.4711,-1031.54 61.4711,-1046.46 45.6549,-1057 23.2874,-1057 7.47113,-1046.46 7.47113,-1031.54 23.2874,-1021 45.6549,-1021 61.4711,-1031.54"/>
<text text-anchor="middle" x="34.4711" y="-1035.3" font-family="Times,serif" font-size="14.00">a</text>
</g>
<!-- c20 -->
<g id="node13" class="node"><title>c20</title>
<polygon fill="none" stroke="black" points="154.873,-996 154.873,-1042 249.873,-1042 249.873,-996 154.873,-996"/>
<text text-anchor="middle" x="167.873" y="-1026.8" font-family="Times,serif" font-size="14.00">A</text>
<polyline fill="none" stroke="black" points="154.873,-1019 180.873,-1019 "/>
<text text-anchor="middle" x="167.873" y="-1003.8" font-family="Times,serif" font-size="14.00">B</text>
<polyline fill="none" stroke="black" points="180.873,-996 180.873,-1042 "/>
<text text-anchor="middle" x="202.373" y="-1022.8" font-family="Times,serif" font-size="14.00">$3</text>
<text text-anchor="middle" x="202.373" y="-1007.8" font-family="Times,serif" font-size="14.00">$add</text>
<polyline fill="none" stroke="black" points="223.873,-996 223.873,-1042 "/>
<text text-anchor="middle" x="236.873" y="-1015.3" font-family="Times,serif" font-size="14.00">Y</text>
</g>
<!-- n5&#45;&gt;c20 -->
<g id="edge16" class="edge"><title>n5:e&#45;&gt;c20:p17:w</title>
<path fill="none" stroke="black" stroke-width="3" d="M62.4711,-1039C99.3843,-1039 110.809,-1032.37 143.142,-1031.18"/>
<polygon fill="black" stroke="black" stroke-width="3" points="143.437,-1034.68 153.373,-1031 143.312,-1027.68 143.437,-1034.68"/>
</g>
<!-- n6 -->
<g id="node2" class="node"><title>n6</title>
<polygon fill="none" stroke="black" points="61.4711,-977.544 61.4711,-992.456 45.6549,-1003 23.2874,-1003 7.47113,-992.456 7.47113,-977.544 23.2874,-967 45.6549,-967 61.4711,-977.544"/>
<text text-anchor="middle" x="34.4711" y="-981.3" font-family="Times,serif" font-size="14.00">b</text>
</g>
<!-- n6&#45;&gt;c20 -->
<g id="edge17" class="edge"><title>n6:e&#45;&gt;c20:p18:w</title>
<path fill="none" stroke="black" stroke-width="3" d="M62.4711,-985C100.466,-985 110.221,-1003.38 143.362,-1006.54"/>
<polygon fill="black" stroke="black" stroke-width="3" points="143.223,-1010.04 153.373,-1007 143.544,-1003.05 143.223,-1010.04"/>
</g>
<!-- n7 -->
<g id="node3" class="node"><title>n7</title>
<polygon fill="none" stroke="black" points="229.373,-519.544 229.373,-534.456 213.557,-545 191.189,-545 175.373,-534.456 175.373,-519.544 191.189,-509 213.557,-509 229.373,-519.544"/>
<text text-anchor="middle" x="202.373" y="-523.3" font-family="Times,serif" font-size="14.00">clk</text>
</g>
<!-- c32 -->
<g id="node21" class="node"><title>c32</title>
<polygon fill="none" stroke="black" points="339.304,-659 339.304,-889 579.304,-889 579.304,-659 339.304,-659"/>
<text text-anchor="middle" x="419.804" y="-873.8" font-family="Times,serif" font-size="14.00">CLOCK_ENABLE</text>
<polyline fill="none" stroke="black" points="339.304,-866 500.304,-866 "/>
<text text-anchor="middle" x="419.804" y="-850.8" font-family="Times,serif" font-size="14.00">D_IN_0</text>
<polyline fill="none" stroke="black" points="339.304,-843 500.304,-843 "/>
<text text-anchor="middle" x="419.804" y="-827.8" font-family="Times,serif" font-size="14.00">D_IN_1</text>
<polyline fill="none" stroke="black" points="339.304,-820 500.304,-820 "/>
<text text-anchor="middle" x="419.804" y="-804.8" font-family="Times,serif" font-size="14.00">D_OUT_0</text>
<polyline fill="none" stroke="black" points="339.304,-797 500.304,-797 "/>
<text text-anchor="middle" x="419.804" y="-781.8" font-family="Times,serif" font-size="14.00">D_OUT_1</text>
<polyline fill="none" stroke="black" points="339.304,-774 500.304,-774 "/>
<text text-anchor="middle" x="419.804" y="-758.8" font-family="Times,serif" font-size="14.00">INPUT_CLK</text>
<polyline fill="none" stroke="black" points="339.304,-751 500.304,-751 "/>
<text text-anchor="middle" x="419.804" y="-735.8" font-family="Times,serif" font-size="14.00">LATCH_INPUT_VALUE</text>
<polyline fill="none" stroke="black" points="339.304,-728 500.304,-728 "/>
<text text-anchor="middle" x="419.804" y="-712.8" font-family="Times,serif" font-size="14.00">OUTPUT_CLK</text>
<polyline fill="none" stroke="black" points="339.304,-705 500.304,-705 "/>
<text text-anchor="middle" x="419.804" y="-689.8" font-family="Times,serif" font-size="14.00">OUTPUT_ENABLE</text>
<polyline fill="none" stroke="black" points="339.304,-682 500.304,-682 "/>
<text text-anchor="middle" x="419.804" y="-666.8" font-family="Times,serif" font-size="14.00">PACKAGE_PIN</text>
<polyline fill="none" stroke="black" points="500.304,-659 500.304,-889 "/>
<text text-anchor="middle" x="529.804" y="-777.8" font-family="Times,serif" font-size="14.00">u_sb_in</text>
<text text-anchor="middle" x="529.804" y="-762.8" font-family="Times,serif" font-size="14.00">SB_IO</text>
<polyline fill="none" stroke="black" points="559.304,-659 559.304,-889 "/>
<text text-anchor="middle" x="569.304" y="-770.3" font-family="Times,serif" font-size="14.00"> </text>
</g>
<!-- n7&#45;&gt;c32 -->
<g id="edge18" class="edge"><title>n7:e&#45;&gt;c32:p27:w</title>
<path fill="none" stroke="black" d="M230.373,-527C263.482,-527 278.691,-528.496 299.804,-554 327.32,-587.24 297.149,-734.728 328.376,-758.702"/>
<polygon fill="black" stroke="black" points="327.71,-762.168 338.304,-762 329.917,-755.525 327.71,-762.168"/>
</g>
<!-- n7&#45;&gt;c32 -->
<g id="edge19" class="edge"><title>n7:e&#45;&gt;c32:p29:w</title>
<path fill="none" stroke="black" d="M230.373,-527C263.482,-527 278.056,-529.035 299.804,-554 345.945,-606.969 272.499,-705.344 328.215,-715.199"/>
<polygon fill="black" stroke="black" points="328.058,-718.697 338.304,-716 328.612,-711.719 328.058,-718.697"/>
</g>
<!-- c36 -->
<g id="node22" class="node"><title>c36</title>
<polygon fill="none" stroke="black" points="367.804,-526.5 367.804,-595.5 550.804,-595.5 550.804,-526.5 367.804,-526.5"/>
<text text-anchor="middle" x="382.804" y="-580.3" font-family="Times,serif" font-size="14.00">$1</text>
<polyline fill="none" stroke="black" points="367.804,-572.5 397.804,-572.5 "/>
<text text-anchor="middle" x="382.804" y="-557.3" font-family="Times,serif" font-size="14.00">$2</text>
<polyline fill="none" stroke="black" points="367.804,-549.5 397.804,-549.5 "/>
<text text-anchor="middle" x="382.804" y="-534.3" font-family="Times,serif" font-size="14.00">$3</text>
<polyline fill="none" stroke="black" points="397.804,-526.5 397.804,-595.5 "/>
<text text-anchor="middle" x="464.304" y="-564.8" font-family="Times,serif" font-size="14.00">u_sb_in2sb_internal0</text>
<text text-anchor="middle" x="464.304" y="-549.8" font-family="Times,serif" font-size="14.00">SB_DFF</text>
<polyline fill="none" stroke="black" points="530.804,-526.5 530.804,-595.5 "/>
<text text-anchor="middle" x="540.804" y="-557.3" font-family="Times,serif" font-size="14.00"> </text>
</g>
<!-- n7&#45;&gt;c36 -->
<g id="edge20" class="edge"><title>n7:e&#45;&gt;c36:p34:w</title>
<path fill="none" stroke="black" d="M230.373,-527C289.12,-527 302.576,-557.258 356.193,-560.685"/>
<polygon fill="black" stroke="black" points="356.199,-564.187 366.304,-561 356.417,-557.19 356.199,-564.187"/>
</g>
<!-- c37 -->
<g id="node23" class="node"><title>c37</title>
<polygon fill="none" stroke="black" points="349.304,-438.5 349.304,-507.5 569.304,-507.5 569.304,-438.5 349.304,-438.5"/>
<text text-anchor="middle" x="364.304" y="-492.3" font-family="Times,serif" font-size="14.00">$1</text>
<polyline fill="none" stroke="black" points="349.304,-484.5 379.304,-484.5 "/>
<text text-anchor="middle" x="364.304" y="-469.3" font-family="Times,serif" font-size="14.00">$2</text>
<polyline fill="none" stroke="black" points="349.304,-461.5 379.304,-461.5 "/>
<text text-anchor="middle" x="364.304" y="-446.3" font-family="Times,serif" font-size="14.00">$3</text>
<polyline fill="none" stroke="black" points="379.304,-438.5 379.304,-507.5 "/>
<text text-anchor="middle" x="464.304" y="-476.8" font-family="Times,serif" font-size="14.00">u_sb_internal02sb_internal1</text>
<text text-anchor="middle" x="464.304" y="-461.8" font-family="Times,serif" font-size="14.00">sub_design</text>
<polyline fill="none" stroke="black" points="549.304,-438.5 549.304,-507.5 "/>
<text text-anchor="middle" x="559.304" y="-469.3" font-family="Times,serif" font-size="14.00"> </text>
</g>
<!-- n7&#45;&gt;c37 -->
<g id="edge21" class="edge"><title>n7:e&#45;&gt;c37:p33:w</title>
<path fill="none" stroke="black" d="M230.373,-527C280.968,-527 292.645,-499.98 338.072,-496.392"/>
<polygon fill="black" stroke="black" points="338.445,-499.88 348.304,-496 338.177,-492.885 338.445,-499.88"/>
</g>
<!-- c38 -->
<g id="node24" class="node"><title>c38</title>
<polygon fill="none" stroke="black" points="364.304,-350.5 364.304,-419.5 554.304,-419.5 554.304,-350.5 364.304,-350.5"/>
<text text-anchor="middle" x="379.304" y="-404.3" font-family="Times,serif" font-size="14.00">$1</text>
<polyline fill="none" stroke="black" points="364.304,-396.5 394.304,-396.5 "/>
<text text-anchor="middle" x="379.304" y="-381.3" font-family="Times,serif" font-size="14.00">$2</text>
<polyline fill="none" stroke="black" points="364.304,-373.5 394.304,-373.5 "/>
<text text-anchor="middle" x="379.304" y="-358.3" font-family="Times,serif" font-size="14.00">$3</text>
<polyline fill="none" stroke="black" points="394.304,-350.5 394.304,-419.5 "/>
<text text-anchor="middle" x="464.304" y="-388.8" font-family="Times,serif" font-size="14.00">u_sb_internal12sb_out</text>
<text text-anchor="middle" x="464.304" y="-373.8" font-family="Times,serif" font-size="14.00">sub_design</text>
<polyline fill="none" stroke="black" points="534.304,-350.5 534.304,-419.5 "/>
<text text-anchor="middle" x="544.304" y="-381.3" font-family="Times,serif" font-size="14.00"> </text>
</g>
<!-- n7&#45;&gt;c38 -->
<g id="edge22" class="edge"><title>n7:e&#45;&gt;c38:p33:w</title>
<path fill="none" stroke="black" d="M230.373,-527C263.482,-527 275.269,-522.232 299.804,-500 333.743,-469.245 316.849,-417.008 352.927,-409.034"/>
<polygon fill="black" stroke="black" points="353.7,-412.474 363.304,-408 353.006,-405.509 353.7,-412.474"/>
</g>
<!-- c39 -->
<g id="node30" class="node"><title>c39</title>
<polygon fill="none" stroke="black" points="335.804,-80 335.804,-310 582.804,-310 582.804,-80 335.804,-80"/>
<text text-anchor="middle" x="416.304" y="-294.8" font-family="Times,serif" font-size="14.00">CLOCK_ENABLE</text>
<polyline fill="none" stroke="black" points="335.804,-287 496.804,-287 "/>
<text text-anchor="middle" x="416.304" y="-271.8" font-family="Times,serif" font-size="14.00">D_IN_0</text>
<polyline fill="none" stroke="black" points="335.804,-264 496.804,-264 "/>
<text text-anchor="middle" x="416.304" y="-248.8" font-family="Times,serif" font-size="14.00">D_IN_1</text>
<polyline fill="none" stroke="black" points="335.804,-241 496.804,-241 "/>
<text text-anchor="middle" x="416.304" y="-225.8" font-family="Times,serif" font-size="14.00">D_OUT_0</text>
<polyline fill="none" stroke="black" points="335.804,-218 496.804,-218 "/>
<text text-anchor="middle" x="416.304" y="-202.8" font-family="Times,serif" font-size="14.00">D_OUT_1</text>
<polyline fill="none" stroke="black" points="335.804,-195 496.804,-195 "/>
<text text-anchor="middle" x="416.304" y="-179.8" font-family="Times,serif" font-size="14.00">INPUT_CLK</text>
<polyline fill="none" stroke="black" points="335.804,-172 496.804,-172 "/>
<text text-anchor="middle" x="416.304" y="-156.8" font-family="Times,serif" font-size="14.00">LATCH_INPUT_VALUE</text>
<polyline fill="none" stroke="black" points="335.804,-149 496.804,-149 "/>
<text text-anchor="middle" x="416.304" y="-133.8" font-family="Times,serif" font-size="14.00">OUTPUT_CLK</text>
<polyline fill="none" stroke="black" points="335.804,-126 496.804,-126 "/>
<text text-anchor="middle" x="416.304" y="-110.8" font-family="Times,serif" font-size="14.00">OUTPUT_ENABLE</text>
<polyline fill="none" stroke="black" points="335.804,-103 496.804,-103 "/>
<text text-anchor="middle" x="416.304" y="-87.8" font-family="Times,serif" font-size="14.00">PACKAGE_PIN</text>
<polyline fill="none" stroke="black" points="496.804,-80 496.804,-310 "/>
<text text-anchor="middle" x="529.804" y="-198.8" font-family="Times,serif" font-size="14.00">u_sb_out</text>
<text text-anchor="middle" x="529.804" y="-183.8" font-family="Times,serif" font-size="14.00">SB_IO</text>
<polyline fill="none" stroke="black" points="562.804,-80 562.804,-310 "/>
<text text-anchor="middle" x="572.804" y="-191.3" font-family="Times,serif" font-size="14.00"> </text>
</g>
<!-- n7&#45;&gt;c39 -->
<g id="edge23" class="edge"><title>n7:e&#45;&gt;c39:p27:w</title>
<path fill="none" stroke="black" d="M230.373,-527C263.482,-527 279.596,-526.227 299.804,-500 340.794,-446.801 272.813,-209.941 325.791,-185.108"/>
<polygon fill="black" stroke="black" points="326.739,-188.485 335.804,-183 325.297,-181.635 326.739,-188.485"/>
</g>
<!-- n7&#45;&gt;c39 -->
<g id="edge24" class="edge"><title>n7:e&#45;&gt;c39:p29:w</title>
<path fill="none" stroke="black" d="M230.373,-527C263.482,-527 279.783,-526.37 299.804,-500 346.62,-438.338 262.905,-163.341 325.911,-138.758"/>
<polygon fill="black" stroke="black" points="326.57,-142.196 335.804,-137 325.345,-135.304 326.57,-142.196"/>
</g>
<!-- p11 -->
<g id="node31" class="node"><title>p11</title>
<path fill="none" stroke="black" d="M499.304,-1064C499.304,-1064 419.304,-1064 419.304,-1064 413.304,-1064 407.304,-1058 407.304,-1052 407.304,-1052 407.304,-1038 407.304,-1038 407.304,-1032 413.304,-1026 419.304,-1026 419.304,-1026 499.304,-1026 499.304,-1026 505.304,-1026 511.304,-1032 511.304,-1038 511.304,-1038 511.304,-1052 511.304,-1052 511.304,-1058 505.304,-1064 499.304,-1064"/>
<text text-anchor="middle" x="459.304" y="-1048.8" font-family="Times,serif" font-size="14.00">PROC $1</text>
<text text-anchor="middle" x="459.304" y="-1033.8" font-family="Times,serif" font-size="14.00">my_design.v:36</text>
</g>
<!-- n7&#45;&gt;p11 -->
<g id="edge25" class="edge"><title>n7:e&#45;&gt;p11:w</title>
<path fill="none" stroke="black" d="M230.373,-527C470.068,-527 171.844,-1030.43 396.305,-1044.69"/>
<polygon fill="black" stroke="black" points="396.2,-1048.19 406.304,-1045 396.416,-1041.19 396.2,-1048.19"/>
</g>
<!-- n8 -->
<g id="node4" class="node"><title>n8</title>
<polygon fill="none" stroke="black" points="68.9134,-1102.54 68.9134,-1117.46 48.7376,-1128 20.2047,-1128 0.0288429,-1117.46 0.0288429,-1102.54 20.2047,-1092 48.7376,-1092 68.9134,-1102.54"/>
<text text-anchor="middle" x="34.4711" y="-1106.3" font-family="Times,serif" font-size="14.00">reset_</text>
</g>
<!-- c21 -->
<g id="node14" class="node"><title>c21</title>
<polygon fill="none" stroke="black" points="139.373,-1100 139.373,-1138 265.373,-1138 265.373,-1100 139.373,-1100"/>
<text text-anchor="middle" x="152.373" y="-1115.3" font-family="Times,serif" font-size="14.00">A</text>
<polyline fill="none" stroke="black" points="165.373,-1100 165.373,-1138 "/>
<text text-anchor="middle" x="202.373" y="-1122.8" font-family="Times,serif" font-size="14.00">$2</text>
<text text-anchor="middle" x="202.373" y="-1107.8" font-family="Times,serif" font-size="14.00">$logic_not</text>
<polyline fill="none" stroke="black" points="239.373,-1100 239.373,-1138 "/>
<text text-anchor="middle" x="252.373" y="-1115.3" font-family="Times,serif" font-size="14.00">Y</text>
</g>
<!-- n8&#45;&gt;c21 -->
<g id="edge26" class="edge"><title>n8:e&#45;&gt;c21:p17:w</title>
<path fill="none" stroke="black" d="M68.9423,-1110C96.4121,-1110 105.241,-1117.01 128.342,-1118.66"/>
<polygon fill="black" stroke="black" points="128.26,-1122.16 138.373,-1119 128.498,-1115.16 128.26,-1122.16"/>
</g>
<!-- n8&#45;&gt;p11 -->
<g id="edge27" class="edge"><title>n8:e&#45;&gt;p11:w</title>
<path fill="none" stroke="black" d="M68.9423,-1110C87.0339,-1110 87.7608,-1096.67 104.942,-1091 166.263,-1070.78 322.919,-1047.32 396.129,-1045.16"/>
<polygon fill="black" stroke="black" points="396.36,-1048.66 406.304,-1045 396.25,-1041.66 396.36,-1048.66"/>
</g>
<!-- n9 -->
<g id="node5" class="node"><title>n9</title>
<polygon fill="none" stroke="black" points="234.595,-627.544 234.595,-642.456 215.72,-653 189.026,-653 170.151,-642.456 170.151,-627.544 189.026,-617 215.72,-617 234.595,-627.544"/>
<text text-anchor="middle" x="202.373" y="-631.3" font-family="Times,serif" font-size="14.00">sb_in</text>
</g>
<!-- n9&#45;&gt;c32 -->
<g id="edge28" class="edge"><title>n9:e&#45;&gt;c32:p31:w</title>
<path fill="none" stroke="black" d="M235.373,-635C280.106,-635 288.819,-664.997 328.205,-669.45"/>
<polygon fill="black" stroke="black" points="328.128,-672.951 338.304,-670 328.509,-665.961 328.128,-672.951"/>
</g>
<!-- n10 -->
<g id="node6" class="node"><title>n10</title>
<polygon fill="none" stroke="black" points="202.373,-599 105.012,-581 202.373,-563 299.734,-581 202.373,-599"/>
<text text-anchor="middle" x="202.373" y="-577.3" font-family="Times,serif" font-size="14.00">sb_in_from_pad</text>
</g>
<!-- n10&#45;&gt;c32 -->
<g id="edge1" class="edge"><title>n10:e&#45;&gt;c32:p23:w</title>
<path fill="none" stroke="black" d="M299.804,-581C357.568,-581 286.511,-822.825 328.676,-852.108"/>
<polygon fill="black" stroke="black" points="327.719,-855.475 338.304,-855 329.733,-848.771 327.719,-855.475"/>
</g>
<!-- n10&#45;&gt;c36 -->
<g id="edge2" class="edge"><title>n10:e&#45;&gt;c36:p35:w</title>
<path fill="none" stroke="black" d="M299.804,-581C331.288,-581 331.494,-546.592 356.38,-539.334"/>
<polygon fill="black" stroke="black" points="356.859,-542.801 366.304,-538 355.926,-535.864 356.859,-542.801"/>
</g>
<!-- n11 -->
<g id="node7" class="node"><title>n11</title>
<polygon fill="none" stroke="black" points="202.373,-491 126.292,-473 202.373,-455 278.454,-473 202.373,-491"/>
<text text-anchor="middle" x="202.373" y="-469.3" font-family="Times,serif" font-size="14.00">sb_internal0</text>
</g>
<!-- n11&#45;&gt;c36 -->
<g id="edge3" class="edge"><title>n11:e&#45;&gt;c36:p33:w</title>
<path fill="none" stroke="black" d="M279.373,-473C338.363,-473 307.794,-571.373 356.289,-582.901"/>
<polygon fill="black" stroke="black" points="355.982,-586.389 366.304,-584 356.745,-579.43 355.982,-586.389"/>
</g>
<!-- n11&#45;&gt;c37 -->
<g id="edge4" class="edge"><title>n11:e&#45;&gt;c37:p34:w</title>
<path fill="none" stroke="black" d="M279.373,-473C306.299,-473 315.476,-473 338.103,-473"/>
<polygon fill="black" stroke="black" points="338.304,-476.5 348.304,-473 338.304,-469.5 338.304,-476.5"/>
</g>
<!-- n12 -->
<g id="node8" class="node"><title>n12</title>
<polygon fill="none" stroke="black" points="202.373,-437 126.292,-419 202.373,-401 278.454,-419 202.373,-437"/>
<text text-anchor="middle" x="202.373" y="-415.3" font-family="Times,serif" font-size="14.00">sb_internal1</text>
</g>
<!-- n12&#45;&gt;c37 -->
<g id="edge5" class="edge"><title>n12:e&#45;&gt;c37:p35:w</title>
<path fill="none" stroke="black" d="M279.373,-419C309.29,-419 313.949,-443.59 338.341,-448.969"/>
<polygon fill="black" stroke="black" points="337.996,-452.452 348.304,-450 338.717,-445.489 337.996,-452.452"/>
</g>
<!-- n12&#45;&gt;c38 -->
<g id="edge6" class="edge"><title>n12:e&#45;&gt;c38:p34:w</title>
<path fill="none" stroke="black" d="M279.373,-419C316.004,-419 322.142,-390.835 353.294,-385.774"/>
<polygon fill="black" stroke="black" points="353.603,-389.261 363.304,-385 353.064,-382.281 353.603,-389.261"/>
</g>
<!-- n13 -->
<g id="node9" class="node"><title>n13</title>
<polygon fill="none" stroke="black" points="239.444,-33.5442 239.444,-48.4558 217.728,-59 187.017,-59 165.301,-48.4558 165.301,-33.5442 187.017,-23 217.728,-23 239.444,-33.5442"/>
<text text-anchor="middle" x="202.373" y="-37.3" font-family="Times,serif" font-size="14.00">sb_out</text>
</g>
<!-- n13&#45;&gt;c39 -->
<g id="edge7" class="edge"><title>n13:e&#45;&gt;c39:p31:w</title>
<path fill="none" stroke="black" d="M240.373,-41C269.385,-41 274.308,-54.1553 299.804,-68 312.839,-75.0786 315.891,-85.135 325.656,-89.1959"/>
<polygon fill="black" stroke="black" points="325.345,-92.6956 335.804,-91 326.571,-85.8036 325.345,-92.6956"/>
</g>
<!-- n14 -->
<g id="node10" class="node"><title>n14</title>
<polygon fill="none" stroke="black" points="202.373,-221 113.894,-203 202.373,-185 290.852,-203 202.373,-221"/>
<text text-anchor="middle" x="202.373" y="-199.3" font-family="Times,serif" font-size="14.00">sb_out_to_pad</text>
</g>
<!-- n14&#45;&gt;c38 -->
<g id="edge8" class="edge"><title>n14:e&#45;&gt;c38:p35:w</title>
<path fill="none" stroke="black" d="M292.373,-203C365.974,-203 293.726,-346.852 353.084,-360.9"/>
<polygon fill="black" stroke="black" points="352.986,-364.409 363.304,-362 353.736,-357.45 352.986,-364.409"/>
</g>
<!-- n14&#45;&gt;c39 -->
<g id="edge9" class="edge"><title>n14:e&#45;&gt;c39:p25:w</title>
<path fill="none" stroke="black" d="M292.373,-203C311.195,-203 313.04,-221.516 326.027,-227.881"/>
<polygon fill="black" stroke="black" points="325.289,-231.303 335.804,-230 326.772,-224.461 325.289,-231.303"/>
</g>
<!-- n14&#45;&gt;c39 -->
<g id="edge10" class="edge"><title>n14:e&#45;&gt;c39:p26:w</title>
<path fill="none" stroke="black" d="M292.373,-203C307.82,-203 313.918,-205.54 325.567,-206.572"/>
<polygon fill="black" stroke="black" points="325.666,-210.079 335.804,-207 325.959,-203.085 325.666,-210.079"/>
</g>
<!-- n15 -->
<g id="node11" class="node"><title>n15</title>
<polygon fill="none" stroke="black" points="505.259,-1167.54 505.259,-1182.46 478.339,-1193 440.268,-1193 413.348,-1182.46 413.348,-1167.54 440.268,-1157 478.339,-1157 505.259,-1167.54"/>
<text text-anchor="middle" x="459.304" y="-1171.3" font-family="Times,serif" font-size="14.00">sb_out_z</text>
</g>
<!-- n16 -->
<g id="node12" class="node"><title>n16</title>
<polygon fill="none" stroke="black" points="672.804,-1037.54 672.804,-1052.46 656.987,-1063 634.62,-1063 618.804,-1052.46 618.804,-1037.54 634.62,-1027 656.987,-1027 672.804,-1037.54"/>
<text text-anchor="middle" x="645.804" y="-1041.3" font-family="Times,serif" font-size="14.00">z</text>
</g>
<!-- n16&#45;&gt;p11 -->
<g id="edge13" class="edge"><title>n16:e&#45;&gt;p11:w</title>
<path fill="none" stroke="black" stroke-width="3" d="M673.804,-1045C681.816,-1045 678.607,-1057.48 672.804,-1063 620.812,-1112.49 583.082,-1063.78 511.304,-1064 465.082,-1064.14 440.836,-1095.81 407.304,-1064 404.62,-1061.45 402.474,-1057.5 401.618,-1053.85"/>
<polygon fill="black" stroke="black" stroke-width="3" points="404.72,-1055.48 406.304,-1045 398.533,-1052.2 404.72,-1055.48"/>
</g>
<!-- c20&#45;&gt;p11 -->
<g id="edge14" class="edge"><title>c20:p19:e&#45;&gt;p11:w</title>
<path fill="none" stroke="black" stroke-width="3" d="M251.373,-1019C317.648,-1019 334.789,-1042.43 396.074,-1044.81"/>
<polygon fill="black" stroke="black" stroke-width="3" points="396.239,-1048.31 406.304,-1045 396.372,-1041.31 396.239,-1048.31"/>
</g>
<!-- c21&#45;&gt;p11 -->
<g id="edge15" class="edge"><title>c21:p19:e&#45;&gt;p11:w</title>
<path fill="none" stroke="black" d="M266.373,-1119C333.153,-1119 335.846,-1052.32 396.117,-1045.55"/>
<polygon fill="black" stroke="black" points="396.508,-1049.04 406.304,-1045 396.129,-1042.05 396.508,-1049.04"/>
</g>
<!-- v0 -->
<g id="node15" class="node"><title>v0</title>
<ellipse fill="none" stroke="black" cx="202.373" cy="-959" rx="27" ry="18"/>
<text text-anchor="middle" x="202.373" y="-955.3" font-family="Times,serif" font-size="14.00">1&#39;0</text>
</g>
<!-- v0&#45;&gt;c32 -->
<g id="edge29" class="edge"><title>v0:e&#45;&gt;c32:p22:w</title>
<path fill="none" stroke="black" d="M230.373,-959C263.482,-959 273.671,-952.33 299.804,-932 319.796,-916.447 312.092,-887.745 328.236,-879.981"/>
<polygon fill="black" stroke="black" points="329.167,-883.365 338.304,-878 327.816,-876.496 329.167,-883.365"/>
</g>
<!-- v1 -->
<g id="node16" class="node"><title>v1</title>
<ellipse fill="none" stroke="black" cx="202.373" cy="-905" rx="27" ry="18"/>
</g>
<!-- v1&#45;&gt;c32 -->
<g id="edge30" class="edge"><title>v1:e&#45;&gt;c32:p24:w</title>
<path fill="none" stroke="black" d="M230.373,-905C263.482,-905 272.903,-897.302 299.804,-878 318.08,-864.886 313.944,-841.154 328.219,-834.058"/>
<polygon fill="black" stroke="black" points="329.205,-837.429 338.304,-832 327.806,-830.57 329.205,-837.429"/>
</g>
<!-- v2 -->
<g id="node17" class="node"><title>v2</title>
<ellipse fill="none" stroke="black" cx="202.373" cy="-851" rx="27" ry="18"/>
<text text-anchor="middle" x="202.373" y="-847.3" font-family="Times,serif" font-size="14.00">1&#39;0</text>
</g>
<!-- v2&#45;&gt;c32 -->
<g id="edge33" class="edge"><title>v2:e&#45;&gt;c32:p25:w</title>
<path fill="none" stroke="black" d="M230.373,-851C263.482,-851 268.949,-836.01 299.804,-824 313.173,-818.796 317.943,-812.568 328.146,-810.092"/>
<polygon fill="black" stroke="black" points="328.735,-813.549 338.304,-809 327.987,-806.589 328.735,-813.549"/>
</g>
<!-- v3 -->
<g id="node18" class="node"><title>v3</title>
<ellipse fill="none" stroke="black" cx="202.373" cy="-797" rx="27" ry="18"/>
<text text-anchor="middle" x="202.373" y="-793.3" font-family="Times,serif" font-size="14.00">1&#39;0</text>
</g>
<!-- v3&#45;&gt;c32 -->
<g id="edge34" class="edge"><title>v3:e&#45;&gt;c32:p26:w</title>
<path fill="none" stroke="black" d="M230.373,-797C275.012,-797 288.177,-787.572 328.144,-786.173"/>
<polygon fill="black" stroke="black" points="328.365,-789.67 338.304,-786 328.245,-782.671 328.365,-789.67"/>
</g>
<!-- v4 -->
<g id="node19" class="node"><title>v4</title>
<ellipse fill="none" stroke="black" cx="202.373" cy="-743" rx="27" ry="18"/>
<text text-anchor="middle" x="202.373" y="-739.3" font-family="Times,serif" font-size="14.00">1&#39;1</text>
</g>
<!-- v4&#45;&gt;c32 -->
<g id="edge35" class="edge"><title>v4:e&#45;&gt;c32:p28:w</title>
<path fill="none" stroke="black" d="M230.373,-743C274.812,-743 288.332,-739.572 328.182,-739.063"/>
<polygon fill="black" stroke="black" points="328.326,-742.562 338.304,-739 328.282,-735.562 328.326,-742.562"/>
</g>
<!-- v5 -->
<g id="node20" class="node"><title>v5</title>
<ellipse fill="none" stroke="black" cx="202.373" cy="-689" rx="27" ry="18"/>
<text text-anchor="middle" x="202.373" y="-685.3" font-family="Times,serif" font-size="14.00">1&#39;0</text>
</g>
<!-- v5&#45;&gt;c32 -->
<g id="edge36" class="edge"><title>v5:e&#45;&gt;c32:p30:w</title>
<path fill="none" stroke="black" d="M230.373,-689C274.812,-689 288.332,-692.428 328.182,-692.937"/>
<polygon fill="black" stroke="black" points="328.282,-696.438 338.304,-693 328.326,-689.438 328.282,-696.438"/>
</g>
<!-- v6 -->
<g id="node25" class="node"><title>v6</title>
<ellipse fill="none" stroke="black" cx="202.373" cy="-365" rx="27" ry="18"/>
<text text-anchor="middle" x="202.373" y="-361.3" font-family="Times,serif" font-size="14.00">1&#39;0</text>
</g>
<!-- v6&#45;&gt;c39 -->
<g id="edge37" class="edge"><title>v6:e&#45;&gt;c39:p22:w</title>
<path fill="none" stroke="black" d="M230.373,-365C263.482,-365 272.442,-356.644 299.804,-338 315.795,-327.104 313.902,-307.841 325.726,-301.27"/>
<polygon fill="black" stroke="black" points="326.817,-304.612 335.804,-299 325.279,-297.783 326.817,-304.612"/>
</g>
<!-- v7 -->
<g id="node26" class="node"><title>v7</title>
<ellipse fill="none" stroke="black" cx="202.373" cy="-311" rx="27" ry="18"/>
</g>
<!-- v7&#45;&gt;c39 -->
<g id="edge38" class="edge"><title>v7:e&#45;&gt;c39:p23:w</title>
<path fill="none" stroke="black" d="M230.373,-311C252.07,-311 298.001,-283.963 325.567,-277.415"/>
<polygon fill="black" stroke="black" points="326.377,-280.837 335.804,-276 325.418,-273.903 326.377,-280.837"/>
</g>
<!-- v8 -->
<g id="node27" class="node"><title>v8</title>
<ellipse fill="none" stroke="black" cx="202.373" cy="-257" rx="27" ry="18"/>
</g>
<!-- v8&#45;&gt;c39 -->
<g id="edge39" class="edge"><title>v8:e&#45;&gt;c39:p24:w</title>
<path fill="none" stroke="black" d="M230.373,-257C273.601,-257 286.877,-253.601 325.425,-253.069"/>
<polygon fill="black" stroke="black" points="325.827,-256.567 335.804,-253 325.78,-249.567 325.827,-256.567"/>
</g>
<!-- v9 -->
<g id="node28" class="node"><title>v9</title>
<ellipse fill="none" stroke="black" cx="202.373" cy="-149" rx="27" ry="18"/>
<text text-anchor="middle" x="202.373" y="-145.3" font-family="Times,serif" font-size="14.00">1&#39;0</text>
</g>
<!-- v9&#45;&gt;c39 -->
<g id="edge40" class="edge"><title>v9:e&#45;&gt;c39:p28:w</title>
<path fill="none" stroke="black" d="M230.373,-149C273.805,-149 286.721,-158.348 325.385,-159.809"/>
<polygon fill="black" stroke="black" points="325.741,-163.316 335.804,-160 325.869,-156.317 325.741,-163.316"/>
</g>
<!-- v10 -->
<g id="node29" class="node"><title>v10</title>
<ellipse fill="none" stroke="black" cx="202.373" cy="-95" rx="27" ry="18"/>
<text text-anchor="middle" x="202.373" y="-91.3" font-family="Times,serif" font-size="14.00">1&#39;1</text>
</g>
<!-- v10&#45;&gt;c39 -->
<g id="edge31" class="edge"><title>v10:e&#45;&gt;c39:p30:w</title>
<path fill="none" stroke="black" d="M230.373,-95C274.452,-95 286.47,-111.284 325.79,-113.702"/>
<polygon fill="black" stroke="black" points="325.704,-117.2 335.804,-114 325.912,-110.204 325.704,-117.2"/>
</g>
<!-- p11&#45;&gt;n16 -->
<g id="edge12" class="edge"><title>p11:e&#45;&gt;n16:w</title>
<path fill="none" stroke="black" stroke-width="3" d="M512.304,-1045C555.939,-1045 569.405,-1045 608.326,-1045"/>
<polygon fill="black" stroke="black" stroke-width="3" points="608.804,-1048.5 618.804,-1045 608.804,-1041.5 608.804,-1048.5"/>
</g>
<!-- v12 -->
<g id="node32" class="node"><title>v12</title>
<ellipse fill="none" stroke="black" cx="34.4711" cy="-1175" rx="27" ry="18"/>
<text text-anchor="middle" x="34.4711" y="-1171.3" font-family="Times,serif" font-size="14.00">1&#39;z</text>
</g>
<!-- x13 -->
<g id="node33" class="node"><title>x13</title>
<path fill="none" stroke="black" d="M217.373,-1193C217.373,-1193 187.373,-1193 187.373,-1193 181.373,-1193 175.373,-1187 175.373,-1181 175.373,-1181 175.373,-1169 175.373,-1169 175.373,-1163 181.373,-1157 187.373,-1157 187.373,-1157 217.373,-1157 217.373,-1157 223.373,-1157 229.373,-1163 229.373,-1169 229.373,-1169 229.373,-1181 229.373,-1181 229.373,-1187 223.373,-1193 217.373,-1193"/>
<text text-anchor="middle" x="202.373" y="-1171.3" font-family="Times,serif" font-size="14.00">BUF</text>
</g>
<!-- v12&#45;&gt;x13 -->
<g id="edge32" class="edge"><title>v12:e&#45;&gt;x13:w:w</title>
<path fill="none" stroke="black" d="M62.4711,-1175C108.611,-1175 122.647,-1175 164.147,-1175"/>
<polygon fill="black" stroke="black" points="164.373,-1178.5 174.373,-1175 164.373,-1171.5 164.373,-1178.5"/>
</g>
<!-- x13&#45;&gt;n15 -->
<g id="edge11" class="edge"><title>x13:e:e&#45;&gt;n15:w</title>
<path fill="none" stroke="black" d="M230.373,-1175C307.757,-1175 329.596,-1175 402.207,-1175"/>
<polygon fill="black" stroke="black" points="402.304,-1178.5 412.304,-1175 402.304,-1171.5 402.304,-1178.5"/>
</g>
</g>
</svg>
