<?xml version="1.0" encoding="UTF-8" standalone="no"?>
<!DOCTYPE svg PUBLIC "-//W3C//DTD SVG 1.1//EN"
 "http://www.w3.org/Graphics/SVG/1.1/DTD/svg11.dtd">
<!-- Generated by graphviz version 2.38.0 (20140413.2041)
 -->
<!-- Title: my_design Pages: 1 -->
<svg width="1883pt" height="790pt"
 viewBox="0.00 0.00 1883.43 790.00" xmlns="http://www.w3.org/2000/svg" xmlns:xlink="http://www.w3.org/1999/xlink">
<g id="graph0" class="graph" transform="scale(1 1) rotate(0) translate(4 786)">
<title>my_design</title>
<polygon fill="white" stroke="none" points="-4,4 -4,-786 1879.43,-786 1879.43,4 -4,4"/>
<text text-anchor="middle" x="937.716" y="-7.8" font-family="Times,serif" font-size="14.00">my_design</text>
<!-- n5 -->
<g id="node1" class="node"><title>n5</title>
<polygon fill="none" stroke="black" points="61.4711,-702.544 61.4711,-717.456 45.6549,-728 23.2874,-728 7.47113,-717.456 7.47113,-702.544 23.2874,-692 45.6549,-692 61.4711,-702.544"/>
<text text-anchor="middle" x="34.4711" y="-706.3" font-family="Times,serif" font-size="14.00">a</text>
</g>
<!-- c21 -->
<g id="node14" class="node"><title>c21</title>
<polygon fill="none" stroke="black" points="133.732,-660 133.732,-706 228.732,-706 228.732,-660 133.732,-660"/>
<text text-anchor="middle" x="146.732" y="-690.8" font-family="Times,serif" font-size="14.00">A</text>
<polyline fill="none" stroke="black" points="133.732,-683 159.732,-683 "/>
<text text-anchor="middle" x="146.732" y="-667.8" font-family="Times,serif" font-size="14.00">B</text>
<polyline fill="none" stroke="black" points="159.732,-660 159.732,-706 "/>
<text text-anchor="middle" x="181.232" y="-686.8" font-family="Times,serif" font-size="14.00">$3</text>
<text text-anchor="middle" x="181.232" y="-671.8" font-family="Times,serif" font-size="14.00">$add</text>
<polyline fill="none" stroke="black" points="202.732,-660 202.732,-706 "/>
<text text-anchor="middle" x="215.732" y="-679.3" font-family="Times,serif" font-size="14.00">Y</text>
</g>
<!-- n5&#45;&gt;c21 -->
<g id="edge16" class="edge"><title>n5:e&#45;&gt;c21:p18:w</title>
<path fill="none" stroke="black" stroke-width="3" d="M62.4711,-710C90.4683,-710 98.6857,-698.31 122.047,-695.57"/>
<polygon fill="black" stroke="black" stroke-width="3" points="122.443,-699.053 132.232,-695 122.052,-692.064 122.443,-699.053"/>
</g>
<!-- n6 -->
<g id="node2" class="node"><title>n6</title>
<polygon fill="none" stroke="black" points="61.4711,-648.544 61.4711,-663.456 45.6549,-674 23.2874,-674 7.47113,-663.456 7.47113,-648.544 23.2874,-638 45.6549,-638 61.4711,-648.544"/>
<text text-anchor="middle" x="34.4711" y="-652.3" font-family="Times,serif" font-size="14.00">b</text>
</g>
<!-- n6&#45;&gt;c21 -->
<g id="edge17" class="edge"><title>n6:e&#45;&gt;c21:p19:w</title>
<path fill="none" stroke="black" stroke-width="3" d="M62.4711,-656C90.4683,-656 98.6857,-667.69 122.047,-670.43"/>
<polygon fill="black" stroke="black" stroke-width="3" points="122.052,-673.936 132.232,-671 122.443,-666.947 122.052,-673.936"/>
</g>
<!-- n7 -->
<g id="node3" class="node"><title>n7</title>
<polygon fill="none" stroke="black" points="208.232,-245.544 208.232,-260.456 192.416,-271 170.049,-271 154.232,-260.456 154.232,-245.544 170.049,-235 192.416,-235 208.232,-245.544"/>
<text text-anchor="middle" x="181.232" y="-249.3" font-family="Times,serif" font-size="14.00">clk</text>
</g>
<!-- c33 -->
<g id="node22" class="node"><title>c33</title>
<polygon fill="none" stroke="black" points="293.522,-317.5 293.522,-478.5 622.522,-478.5 622.522,-317.5 293.522,-317.5"/>
<text text-anchor="middle" x="374.022" y="-463.3" font-family="Times,serif" font-size="14.00">CLOCK_ENABLE</text>
<polyline fill="none" stroke="black" points="293.522,-455.5 454.522,-455.5 "/>
<text text-anchor="middle" x="374.022" y="-440.3" font-family="Times,serif" font-size="14.00">D_OUT_0</text>
<polyline fill="none" stroke="black" points="293.522,-432.5 454.522,-432.5 "/>
<text text-anchor="middle" x="374.022" y="-417.3" font-family="Times,serif" font-size="14.00">D_OUT_1</text>
<polyline fill="none" stroke="black" points="293.522,-409.5 454.522,-409.5 "/>
<text text-anchor="middle" x="374.022" y="-394.3" font-family="Times,serif" font-size="14.00">INPUT_CLK</text>
<polyline fill="none" stroke="black" points="293.522,-386.5 454.522,-386.5 "/>
<text text-anchor="middle" x="374.022" y="-371.3" font-family="Times,serif" font-size="14.00">LATCH_INPUT_VALUE</text>
<polyline fill="none" stroke="black" points="293.522,-363.5 454.522,-363.5 "/>
<text text-anchor="middle" x="374.022" y="-348.3" font-family="Times,serif" font-size="14.00">OUTPUT_CLK</text>
<polyline fill="none" stroke="black" points="293.522,-340.5 454.522,-340.5 "/>
<text text-anchor="middle" x="374.022" y="-325.3" font-family="Times,serif" font-size="14.00">OUTPUT_ENABLE</text>
<polyline fill="none" stroke="black" points="454.522,-317.5 454.522,-478.5 "/>
<text text-anchor="middle" x="484.022" y="-401.8" font-family="Times,serif" font-size="14.00">u_sb_in</text>
<text text-anchor="middle" x="484.022" y="-386.8" font-family="Times,serif" font-size="14.00">SB_IO</text>
<polyline fill="none" stroke="black" points="513.522,-317.5 513.522,-478.5 "/>
<text text-anchor="middle" x="568.022" y="-448.3" font-family="Times,serif" font-size="14.00">D_IN_0</text>
<polyline fill="none" stroke="black" points="513.522,-425.5 622.522,-425.5 "/>
<text text-anchor="middle" x="568.022" y="-394.8" font-family="Times,serif" font-size="14.00">D_IN_1</text>
<polyline fill="none" stroke="black" points="513.522,-371.5 622.522,-371.5 "/>
<text text-anchor="middle" x="568.022" y="-340.8" font-family="Times,serif" font-size="14.00">PACKAGE_PIN</text>
</g>
<!-- n7&#45;&gt;c33 -->
<g id="edge18" class="edge"><title>n7:e&#45;&gt;c33:p26:w</title>
<path fill="none" stroke="black" d="M209.232,-253C234.736,-253 242.027,-263.743 257.522,-284 287.408,-323.07 247.274,-387.506 283.311,-396.855"/>
<polygon fill="black" stroke="black" points="283.195,-400.364 293.522,-398 283.975,-393.407 283.195,-400.364"/>
</g>
<!-- n7&#45;&gt;c33 -->
<g id="edge19" class="edge"><title>n7:e&#45;&gt;c33:p28:w</title>
<path fill="none" stroke="black" d="M209.232,-253C234.736,-253 240.26,-265.226 257.522,-284 277.956,-306.222 263.717,-342.205 283.627,-350.333"/>
<polygon fill="black" stroke="black" points="283.08,-353.79 293.522,-352 284.243,-346.887 283.08,-353.79"/>
</g>
<!-- c37 -->
<g id="node23" class="node"><title>c37</title>
<polygon fill="none" stroke="black" points="942.384,-375 942.384,-421 1127.38,-421 1127.38,-375 942.384,-375"/>
<text text-anchor="middle" x="955.384" y="-405.8" font-family="Times,serif" font-size="14.00">C</text>
<polyline fill="none" stroke="black" points="942.384,-398 968.384,-398 "/>
<text text-anchor="middle" x="955.384" y="-382.8" font-family="Times,serif" font-size="14.00">D</text>
<polyline fill="none" stroke="black" points="968.384,-375 968.384,-421 "/>
<text text-anchor="middle" x="1034.88" y="-401.8" font-family="Times,serif" font-size="14.00">u_sb_in2sb_internal0</text>
<text text-anchor="middle" x="1034.88" y="-386.8" font-family="Times,serif" font-size="14.00">SB_DFF</text>
<polyline fill="none" stroke="black" points="1101.38,-375 1101.38,-421 "/>
<text text-anchor="middle" x="1114.38" y="-394.3" font-family="Times,serif" font-size="14.00">Q</text>
</g>
<!-- n7&#45;&gt;c37 -->
<g id="edge20" class="edge"><title>n7:e&#45;&gt;c37:p34:w</title>
<path fill="none" stroke="black" d="M209.232,-253C246.908,-253 256.044,-258.158 293.522,-262 417.883,-274.748 741.194,-261.849 853.384,-317 901.032,-340.423 886.438,-401.417 930.829,-409.183"/>
<polygon fill="black" stroke="black" points="930.633,-412.678 940.884,-410 931.2,-405.701 930.633,-412.678"/>
</g>
<!-- c40 -->
<g id="node24" class="node"><title>c40</title>
<polygon fill="none" stroke="black" points="339.522,-176 339.522,-222 576.522,-222 576.522,-176 339.522,-176"/>
<text text-anchor="middle" x="356.022" y="-206.8" font-family="Times,serif" font-size="14.00">clk</text>
<polyline fill="none" stroke="black" points="339.522,-199 372.522,-199 "/>
<text text-anchor="middle" x="356.022" y="-183.8" font-family="Times,serif" font-size="14.00">in</text>
<polyline fill="none" stroke="black" points="372.522,-176 372.522,-222 "/>
<text text-anchor="middle" x="457.522" y="-202.8" font-family="Times,serif" font-size="14.00">u_sb_internal02sb_internal1</text>
<text text-anchor="middle" x="457.522" y="-187.8" font-family="Times,serif" font-size="14.00">sub_design</text>
<polyline fill="none" stroke="black" points="542.522,-176 542.522,-222 "/>
<text text-anchor="middle" x="559.522" y="-195.3" font-family="Times,serif" font-size="14.00">out</text>
</g>
<!-- n7&#45;&gt;c40 -->
<g id="edge21" class="edge"><title>n7:e&#45;&gt;c40:p7:w</title>
<path fill="none" stroke="black" d="M209.232,-253C265.911,-253 276.656,-215.778 327.952,-211.416"/>
<polygon fill="black" stroke="black" points="328.175,-214.91 338.022,-211 327.886,-207.916 328.175,-214.91"/>
</g>
<!-- c41 -->
<g id="node25" class="node"><title>c41</title>
<polygon fill="none" stroke="black" points="889.384,-202 889.384,-248 1180.38,-248 1180.38,-202 889.384,-202"/>
<text text-anchor="middle" x="905.884" y="-232.8" font-family="Times,serif" font-size="14.00">clk</text>
<polyline fill="none" stroke="black" points="889.384,-225 922.384,-225 "/>
<text text-anchor="middle" x="905.884" y="-209.8" font-family="Times,serif" font-size="14.00">in</text>
<polyline fill="none" stroke="black" points="922.384,-202 922.384,-248 "/>
<text text-anchor="middle" x="1034.38" y="-228.8" font-family="Times,serif" font-size="14.00">u_sb_internal12sb_out</text>
<text text-anchor="middle" x="1034.38" y="-213.8" font-family="Times,serif" font-size="14.00">$paramod\sub_design\INSERT_FF=1</text>
<polyline fill="none" stroke="black" points="1146.38,-202 1146.38,-248 "/>
<text text-anchor="middle" x="1163.38" y="-221.3" font-family="Times,serif" font-size="14.00">out</text>
</g>
<!-- n7&#45;&gt;c41 -->
<g id="edge22" class="edge"><title>n7:e&#45;&gt;c41:p7:w</title>
<path fill="none" stroke="black" d="M209.232,-253C508.21,-253 585.288,-237.357 879.282,-237.006"/>
<polygon fill="black" stroke="black" points="879.386,-240.506 889.384,-237 879.382,-233.506 879.386,-240.506"/>
</g>
<!-- c42 -->
<g id="node31" class="node"><title>c42</title>
<polygon fill="none" stroke="black" points="1428.86,-98.5 1428.86,-259.5 1764.86,-259.5 1764.86,-98.5 1428.86,-98.5"/>
<text text-anchor="middle" x="1509.36" y="-244.3" font-family="Times,serif" font-size="14.00">CLOCK_ENABLE</text>
<polyline fill="none" stroke="black" points="1428.86,-236.5 1589.86,-236.5 "/>
<text text-anchor="middle" x="1509.36" y="-221.3" font-family="Times,serif" font-size="14.00">D_OUT_0</text>
<polyline fill="none" stroke="black" points="1428.86,-213.5 1589.86,-213.5 "/>
<text text-anchor="middle" x="1509.36" y="-198.3" font-family="Times,serif" font-size="14.00">D_OUT_1</text>
<polyline fill="none" stroke="black" points="1428.86,-190.5 1589.86,-190.5 "/>
<text text-anchor="middle" x="1509.36" y="-175.3" font-family="Times,serif" font-size="14.00">INPUT_CLK</text>
<polyline fill="none" stroke="black" points="1428.86,-167.5 1589.86,-167.5 "/>
<text text-anchor="middle" x="1509.36" y="-152.3" font-family="Times,serif" font-size="14.00">LATCH_INPUT_VALUE</text>
<polyline fill="none" stroke="black" points="1428.86,-144.5 1589.86,-144.5 "/>
<text text-anchor="middle" x="1509.36" y="-129.3" font-family="Times,serif" font-size="14.00">OUTPUT_CLK</text>
<polyline fill="none" stroke="black" points="1428.86,-121.5 1589.86,-121.5 "/>
<text text-anchor="middle" x="1509.36" y="-106.3" font-family="Times,serif" font-size="14.00">OUTPUT_ENABLE</text>
<polyline fill="none" stroke="black" points="1589.86,-98.5 1589.86,-259.5 "/>
<text text-anchor="middle" x="1622.86" y="-182.8" font-family="Times,serif" font-size="14.00">u_sb_out</text>
<text text-anchor="middle" x="1622.86" y="-167.8" font-family="Times,serif" font-size="14.00">SB_IO</text>
<polyline fill="none" stroke="black" points="1655.86,-98.5 1655.86,-259.5 "/>
<text text-anchor="middle" x="1710.36" y="-229.3" font-family="Times,serif" font-size="14.00">D_IN_0</text>
<polyline fill="none" stroke="black" points="1655.86,-206.5 1764.86,-206.5 "/>
<text text-anchor="middle" x="1710.36" y="-175.8" font-family="Times,serif" font-size="14.00">D_IN_1</text>
<polyline fill="none" stroke="black" points="1655.86,-152.5 1764.86,-152.5 "/>
<text text-anchor="middle" x="1710.36" y="-121.8" font-family="Times,serif" font-size="14.00">PACKAGE_PIN</text>
</g>
<!-- n7&#45;&gt;c42 -->
<g id="edge23" class="edge"><title>n7:e&#45;&gt;c42:p26:w</title>
<path fill="none" stroke="black" d="M209.232,-253C236.82,-253 238.368,-233.854 257.522,-214 276.037,-194.809 269.671,-177.926 293.522,-166 424.308,-100.607 476.305,-164.821 622.522,-166 977.518,-168.861 1068.71,-178.808 1418.7,-178.997"/>
<polygon fill="black" stroke="black" points="1418.86,-182.497 1428.86,-179 1418.86,-175.497 1418.86,-182.497"/>
</g>
<!-- n7&#45;&gt;c42 -->
<g id="edge24" class="edge"><title>n7:e&#45;&gt;c42:p28:w</title>
<path fill="none" stroke="black" d="M209.232,-253C236.82,-253 238.368,-233.854 257.522,-214 276.037,-194.809 270.071,-178.694 293.522,-166 654.996,29.6518 805.574,-119.34 1216.38,-106 1294.78,-103.454 1318.45,-81.1968 1392.86,-106 1407.83,-110.99 1409.14,-124.916 1418.85,-130.569"/>
<polygon fill="black" stroke="black" points="1418.32,-134.041 1428.86,-133 1419.97,-127.239 1418.32,-134.041"/>
</g>
<!-- p11 -->
<g id="node32" class="node"><title>p11</title>
<path fill="none" stroke="black" d="M498.022,-626C498.022,-626 418.022,-626 418.022,-626 412.022,-626 406.022,-620 406.022,-614 406.022,-614 406.022,-600 406.022,-600 406.022,-594 412.022,-588 418.022,-588 418.022,-588 498.022,-588 498.022,-588 504.022,-588 510.022,-594 510.022,-600 510.022,-600 510.022,-614 510.022,-614 510.022,-620 504.022,-626 498.022,-626"/>
<text text-anchor="middle" x="458.022" y="-610.8" font-family="Times,serif" font-size="14.00">PROC $1</text>
<text text-anchor="middle" x="458.022" y="-595.8" font-family="Times,serif" font-size="14.00">my_design.v:36</text>
</g>
<!-- n7&#45;&gt;p11 -->
<g id="edge25" class="edge"><title>n7:e&#45;&gt;p11:w</title>
<path fill="none" stroke="black" d="M209.232,-253C332.188,-253 277.697,-456.36 293.522,-488 324.36,-549.657 331.839,-601.684 394.866,-606.618"/>
<polygon fill="black" stroke="black" points="394.898,-610.121 405.022,-607 395.161,-603.126 394.898,-610.121"/>
</g>
<!-- n8 -->
<g id="node4" class="node"><title>n8</title>
<polygon fill="none" stroke="black" points="68.9134,-577.544 68.9134,-592.456 48.7376,-603 20.2047,-603 0.0288429,-592.456 0.0288429,-577.544 20.2047,-567 48.7376,-567 68.9134,-577.544"/>
<text text-anchor="middle" x="34.4711" y="-581.3" font-family="Times,serif" font-size="14.00">reset_</text>
</g>
<!-- c22 -->
<g id="node15" class="node"><title>c22</title>
<polygon fill="none" stroke="black" points="118.232,-564 118.232,-602 244.232,-602 244.232,-564 118.232,-564"/>
<text text-anchor="middle" x="131.232" y="-579.3" font-family="Times,serif" font-size="14.00">A</text>
<polyline fill="none" stroke="black" points="144.232,-564 144.232,-602 "/>
<text text-anchor="middle" x="181.232" y="-586.8" font-family="Times,serif" font-size="14.00">$2</text>
<text text-anchor="middle" x="181.232" y="-571.8" font-family="Times,serif" font-size="14.00">$logic_not</text>
<polyline fill="none" stroke="black" points="218.232,-564 218.232,-602 "/>
<text text-anchor="middle" x="231.232" y="-579.3" font-family="Times,serif" font-size="14.00">Y</text>
</g>
<!-- n8&#45;&gt;c22 -->
<g id="edge26" class="edge"><title>n8:e&#45;&gt;c22:p18:w</title>
<path fill="none" stroke="black" d="M68.9423,-585C86.5631,-585 93.3151,-583.654 107.03,-583.171"/>
<polygon fill="black" stroke="black" points="107.292,-586.667 117.232,-583 107.175,-579.668 107.292,-586.667"/>
</g>
<!-- n8&#45;&gt;p11 -->
<g id="edge27" class="edge"><title>n8:e&#45;&gt;p11:w</title>
<path fill="none" stroke="black" d="M68.9423,-585C88.9423,-585 85.9686,-605.675 104.942,-612 228.148,-653.069 269.458,-609.426 394.662,-607.096"/>
<polygon fill="black" stroke="black" points="395.055,-610.593 405.022,-607 394.99,-603.593 395.055,-610.593"/>
</g>
<!-- n9 -->
<g id="node5" class="node"><title>n9</title>
<polygon fill="none" stroke="black" points="788.175,-336.544 788.175,-351.456 769.3,-362 742.606,-362 723.731,-351.456 723.731,-336.544 742.606,-326 769.3,-326 788.175,-336.544"/>
<text text-anchor="middle" x="755.953" y="-340.3" font-family="Times,serif" font-size="14.00">sb_in</text>
</g>
<!-- n10 -->
<g id="node6" class="node"><title>n10</title>
<polygon fill="none" stroke="black" points="755.953,-470 658.592,-452 755.953,-434 853.314,-452 755.953,-470"/>
<text text-anchor="middle" x="755.953" y="-448.3" font-family="Times,serif" font-size="14.00">sb_in_from_pad</text>
</g>
<!-- n10&#45;&gt;c37 -->
<g id="edge2" class="edge"><title>n10:e&#45;&gt;c37:p35:w</title>
<path fill="none" stroke="black" d="M853.384,-452C898.289,-452 893.365,-395.91 930.485,-387.146"/>
<polygon fill="black" stroke="black" points="931.327,-390.574 940.884,-386 930.561,-383.616 931.327,-390.574"/>
</g>
<!-- n11 -->
<g id="node7" class="node"><title>n11</title>
<polygon fill="none" stroke="black" points="1304.62,-416 1234.07,-398 1304.62,-380 1375.17,-398 1304.62,-416"/>
<text text-anchor="middle" x="1304.62" y="-394.3" font-family="Times,serif" font-size="14.00">sb_internal</text>
</g>
<!-- n12 -->
<g id="node8" class="node"><title>n12</title>
<polygon fill="none" stroke="black" points="181.232,-205 105.152,-187 181.232,-169 257.313,-187 181.232,-205"/>
<text text-anchor="middle" x="181.232" y="-183.3" font-family="Times,serif" font-size="14.00">sb_internal0</text>
</g>
<!-- n12&#45;&gt;c40 -->
<g id="edge4" class="edge"><title>n12:e&#45;&gt;c40:p38:w</title>
<path fill="none" stroke="black" d="M257.522,-187C289.666,-187 300.151,-187 327.895,-187"/>
<polygon fill="black" stroke="black" points="328.022,-190.5 338.022,-187 328.022,-183.5 328.022,-190.5"/>
</g>
<!-- n13 -->
<g id="node9" class="node"><title>n13</title>
<polygon fill="none" stroke="black" points="755.953,-220 679.872,-202 755.953,-184 832.034,-202 755.953,-220"/>
<text text-anchor="middle" x="755.953" y="-198.3" font-family="Times,serif" font-size="14.00">sb_internal1</text>
</g>
<!-- n13&#45;&gt;c41 -->
<g id="edge6" class="edge"><title>n13:e&#45;&gt;c41:p38:w</title>
<path fill="none" stroke="black" d="M832.953,-202C854.712,-202 861.805,-209.977 879.21,-212.345"/>
<polygon fill="black" stroke="black" points="879.179,-215.85 889.384,-213 879.629,-208.865 879.179,-215.85"/>
</g>
<!-- n14 -->
<g id="node10" class="node"><title>n14</title>
<polygon fill="none" stroke="black" points="1875.22,-117.544 1875.22,-132.456 1853.5,-143 1822.79,-143 1801.08,-132.456 1801.08,-117.544 1822.79,-107 1853.5,-107 1875.22,-117.544"/>
<text text-anchor="middle" x="1838.15" y="-121.3" font-family="Times,serif" font-size="14.00">sb_out</text>
</g>
<!-- n15 -->
<g id="node11" class="node"><title>n15</title>
<polygon fill="none" stroke="black" points="1304.62,-243 1216.14,-225 1304.62,-207 1393.1,-225 1304.62,-243"/>
<text text-anchor="middle" x="1304.62" y="-221.3" font-family="Times,serif" font-size="14.00">sb_out_to_pad</text>
</g>
<!-- n15&#45;&gt;c42 -->
<g id="edge9" class="edge"><title>n15:e&#45;&gt;c42:p24:w</title>
<path fill="none" stroke="black" d="M1392.86,-225C1404.86,-225 1410.11,-225 1418.74,-225"/>
<polygon fill="black" stroke="black" points="1418.86,-228.5 1428.86,-225 1418.86,-221.5 1418.86,-228.5"/>
</g>
<!-- n15&#45;&gt;c42 -->
<g id="edge10" class="edge"><title>n15:e&#45;&gt;c42:p25:w</title>
<path fill="none" stroke="black" d="M1392.86,-225C1407.7,-225 1409.74,-210.962 1418.97,-204.82"/>
<polygon fill="black" stroke="black" points="1420.21,-208.108 1428.86,-202 1418.29,-201.377 1420.21,-208.108"/>
</g>
<!-- n16 -->
<g id="node12" class="node"><title>n16</title>
<polygon fill="none" stroke="black" points="503.978,-756.544 503.978,-771.456 477.058,-782 438.987,-782 412.067,-771.456 412.067,-756.544 438.987,-746 477.058,-746 503.978,-756.544"/>
<text text-anchor="middle" x="458.022" y="-760.3" font-family="Times,serif" font-size="14.00">sb_out_z</text>
</g>
<!-- n17 -->
<g id="node13" class="node"><title>n17</title>
<polygon fill="none" stroke="black" points="782.953,-599.544 782.953,-614.456 767.137,-625 744.769,-625 728.953,-614.456 728.953,-599.544 744.769,-589 767.137,-589 782.953,-599.544"/>
<text text-anchor="middle" x="755.953" y="-603.3" font-family="Times,serif" font-size="14.00">z</text>
</g>
<!-- n17&#45;&gt;p11 -->
<g id="edge13" class="edge"><title>n17:e&#45;&gt;p11:w</title>
<path fill="none" stroke="black" stroke-width="3" d="M783.953,-607C791.965,-607 788.764,-619.483 782.953,-625 694.985,-708.523 631.326,-625.778 510.022,-626 463.8,-626.085 439.554,-657.814 406.022,-626 403.339,-623.454 401.193,-619.499 400.337,-615.855"/>
<polygon fill="black" stroke="black" stroke-width="3" points="403.439,-617.476 405.022,-607 397.252,-614.202 403.439,-617.476"/>
</g>
<!-- c21&#45;&gt;p11 -->
<g id="edge14" class="edge"><title>c21:p20:e&#45;&gt;p11:w</title>
<path fill="none" stroke="black" stroke-width="3" d="M230.232,-683C311.468,-683 319.738,-613.107 394.989,-607.373"/>
<polygon fill="black" stroke="black" stroke-width="3" points="395.159,-610.869 405.022,-607 394.899,-603.874 395.159,-610.869"/>
</g>
<!-- c22&#45;&gt;p11 -->
<g id="edge15" class="edge"><title>c22:p20:e&#45;&gt;p11:w</title>
<path fill="none" stroke="black" d="M245.232,-583C313.54,-583 331.497,-604.713 394.888,-606.834"/>
<polygon fill="black" stroke="black" points="394.966,-610.336 405.022,-607 395.081,-603.337 394.966,-610.336"/>
</g>
<!-- v0 -->
<g id="node16" class="node"><title>v0</title>
<ellipse fill="none" stroke="black" cx="181.232" cy="-527" rx="27" ry="18"/>
<text text-anchor="middle" x="181.232" y="-523.3" font-family="Times,serif" font-size="14.00">1&#39;0</text>
</g>
<!-- v0&#45;&gt;c33 -->
<g id="edge29" class="edge"><title>v0:e&#45;&gt;c33:p23:w</title>
<path fill="none" stroke="black" d="M209.232,-527C233.822,-527 237.594,-514.405 257.522,-500 271.815,-489.669 272.319,-474.341 283.648,-468.956"/>
<polygon fill="black" stroke="black" points="284.393,-472.376 293.522,-467 283.033,-465.51 284.393,-472.376"/>
</g>
<!-- v1 -->
<g id="node17" class="node"><title>v1</title>
<ellipse fill="none" stroke="black" cx="755.953" cy="-398" rx="27" ry="18"/>
</g>
<!-- v2 -->
<g id="node18" class="node"><title>v2</title>
<ellipse fill="none" stroke="black" cx="181.232" cy="-473" rx="27" ry="18"/>
<text text-anchor="middle" x="181.232" y="-469.3" font-family="Times,serif" font-size="14.00">1&#39;0</text>
</g>
<!-- v2&#45;&gt;c33 -->
<g id="edge33" class="edge"><title>v2:e&#45;&gt;c33:p24:w</title>
<path fill="none" stroke="black" d="M209.232,-473C245.136,-473 252.653,-449.183 283.234,-444.717"/>
<polygon fill="black" stroke="black" points="283.79,-448.187 293.522,-444 283.303,-441.204 283.79,-448.187"/>
</g>
<!-- v3 -->
<g id="node19" class="node"><title>v3</title>
<ellipse fill="none" stroke="black" cx="181.232" cy="-419" rx="27" ry="18"/>
<text text-anchor="middle" x="181.232" y="-415.3" font-family="Times,serif" font-size="14.00">1&#39;0</text>
</g>
<!-- v3&#45;&gt;c33 -->
<g id="edge34" class="edge"><title>v3:e&#45;&gt;c33:p25:w</title>
<path fill="none" stroke="black" d="M209.232,-419C243.046,-419 253.956,-420.628 283.296,-420.947"/>
<polygon fill="black" stroke="black" points="283.504,-424.448 293.522,-421 283.541,-417.448 283.504,-424.448"/>
</g>
<!-- v4 -->
<g id="node20" class="node"><title>v4</title>
<ellipse fill="none" stroke="black" cx="181.232" cy="-365" rx="27" ry="18"/>
<text text-anchor="middle" x="181.232" y="-361.3" font-family="Times,serif" font-size="14.00">1&#39;1</text>
</g>
<!-- v4&#45;&gt;c33 -->
<g id="edge35" class="edge"><title>v4:e&#45;&gt;c33:p27:w</title>
<path fill="none" stroke="black" d="M209.232,-365C243.273,-365 253.795,-373.142 283.243,-374.733"/>
<polygon fill="black" stroke="black" points="283.435,-378.239 293.522,-375 283.617,-371.241 283.435,-378.239"/>
</g>
<!-- v5 -->
<g id="node21" class="node"><title>v5</title>
<ellipse fill="none" stroke="black" cx="181.232" cy="-311" rx="27" ry="18"/>
<text text-anchor="middle" x="181.232" y="-307.3" font-family="Times,serif" font-size="14.00">1&#39;0</text>
</g>
<!-- v5&#45;&gt;c33 -->
<g id="edge36" class="edge"><title>v5:e&#45;&gt;c33:p29:w</title>
<path fill="none" stroke="black" d="M209.232,-311C243.948,-311 253.507,-325.783 283.506,-328.555"/>
<polygon fill="black" stroke="black" points="283.377,-332.053 293.522,-329 283.688,-325.06 283.377,-332.053"/>
</g>
<!-- c33&#45;&gt;n9 -->
<g id="edge28" class="edge"><title>c33:p32:e&#45;&gt;n9:w</title>
<path fill="none" stroke="black" d="M622.522,-344C663.497,-344 676.261,-344 712.607,-344"/>
<polygon fill="black" stroke="black" points="712.953,-347.5 722.953,-344 712.953,-340.5 712.953,-347.5"/>
</g>
<!-- c33&#45;&gt;n10 -->
<g id="edge1" class="edge"><title>c33:p30:e&#45;&gt;n10:w</title>
<path fill="none" stroke="black" d="M622.522,-452C634.522,-452 639.772,-452 648.397,-452"/>
<polygon fill="black" stroke="black" points="648.522,-455.5 658.522,-452 648.522,-448.5 648.522,-455.5"/>
</g>
<!-- c33&#45;&gt;v1 -->
<g id="edge30" class="edge"><title>c33:p31:e&#45;&gt;v1:w</title>
<path fill="none" stroke="black" d="M622.522,-399C665.722,-399 679.049,-398.15 717.58,-398.017"/>
<polygon fill="black" stroke="black" points="717.959,-401.517 727.953,-398 717.947,-394.517 717.959,-401.517"/>
</g>
<!-- c37&#45;&gt;n11 -->
<g id="edge3" class="edge"><title>c37:p36:e&#45;&gt;n11:w</title>
<path fill="none" stroke="black" d="M1128.88,-398C1171.39,-398 1184.5,-398 1222.42,-398"/>
<polygon fill="black" stroke="black" points="1222.62,-401.5 1232.62,-398 1222.62,-394.5 1222.62,-401.5"/>
</g>
<!-- c40&#45;&gt;n13 -->
<g id="edge5" class="edge"><title>c40:p39:e&#45;&gt;n13:w</title>
<path fill="none" stroke="black" d="M578.022,-199C619.219,-199 632.015,-201.528 668.552,-201.943"/>
<polygon fill="black" stroke="black" points="668.934,-205.445 678.953,-202 668.972,-198.445 668.934,-205.445"/>
</g>
<!-- c41&#45;&gt;n15 -->
<g id="edge8" class="edge"><title>c41:p39:e&#45;&gt;n15:w</title>
<path fill="none" stroke="black" d="M1180.38,-225C1192.38,-225 1197.63,-225 1206.26,-225"/>
<polygon fill="black" stroke="black" points="1206.38,-228.5 1216.38,-225 1206.38,-221.5 1206.38,-228.5"/>
</g>
<!-- v6 -->
<g id="node26" class="node"><title>v6</title>
<ellipse fill="none" stroke="black" cx="1304.62" cy="-279" rx="27" ry="18"/>
<text text-anchor="middle" x="1304.62" y="-275.3" font-family="Times,serif" font-size="14.00">1&#39;0</text>
</g>
<!-- v6&#45;&gt;c42 -->
<g id="edge37" class="edge"><title>v6:e&#45;&gt;c42:p23:w</title>
<path fill="none" stroke="black" d="M1332.62,-279C1373.87,-279 1382.62,-252.877 1418.54,-248.592"/>
<polygon fill="black" stroke="black" points="1419.08,-252.067 1428.86,-248 1418.68,-245.078 1419.08,-252.067"/>
</g>
<!-- v7 -->
<g id="node27" class="node"><title>v7</title>
<ellipse fill="none" stroke="black" cx="1838.15" cy="-233" rx="27" ry="18"/>
</g>
<!-- v8 -->
<g id="node28" class="node"><title>v8</title>
<ellipse fill="none" stroke="black" cx="1838.15" cy="-179" rx="27" ry="18"/>
</g>
<!-- v9 -->
<g id="node29" class="node"><title>v9</title>
<ellipse fill="none" stroke="black" cx="1304.62" cy="-133" rx="27" ry="18"/>
<text text-anchor="middle" x="1304.62" y="-129.3" font-family="Times,serif" font-size="14.00">1&#39;0</text>
</g>
<!-- v9&#45;&gt;c42 -->
<g id="edge40" class="edge"><title>v9:e&#45;&gt;c42:p27:w</title>
<path fill="none" stroke="black" d="M1332.62,-133C1372.99,-133 1383.29,-152.381 1418.72,-155.561"/>
<polygon fill="black" stroke="black" points="1418.72,-159.064 1428.86,-156 1419.02,-152.071 1418.72,-159.064"/>
</g>
<!-- v10 -->
<g id="node30" class="node"><title>v10</title>
<ellipse fill="none" stroke="black" cx="1304.62" cy="-41" rx="27" ry="18"/>
<text text-anchor="middle" x="1304.62" y="-37.3" font-family="Times,serif" font-size="14.00">1&#39;1</text>
</g>
<!-- v10&#45;&gt;c42 -->
<g id="edge31" class="edge"><title>v10:e&#45;&gt;c42:p29:w</title>
<path fill="none" stroke="black" d="M1332.62,-41C1362.94,-41 1368.61,-54.8055 1392.86,-73 1407.92,-84.2957 1407.06,-101.957 1418.93,-107.94"/>
<polygon fill="black" stroke="black" points="1418.36,-111.396 1428.86,-110 1419.78,-104.542 1418.36,-111.396"/>
</g>
<!-- c42&#45;&gt;n14 -->
<g id="edge7" class="edge"><title>c42:p32:e&#45;&gt;n14:w</title>
<path fill="none" stroke="black" d="M1764.86,-125C1776.86,-125 1782.11,-125 1790.74,-125"/>
<polygon fill="black" stroke="black" points="1790.86,-128.5 1800.86,-125 1790.86,-121.5 1790.86,-128.5"/>
</g>
<!-- c42&#45;&gt;v7 -->
<g id="edge38" class="edge"><title>c42:p30:e&#45;&gt;v7:w</title>
<path fill="none" stroke="black" d="M1764.86,-233C1781.06,-233 1787.48,-233 1799.86,-233"/>
<polygon fill="black" stroke="black" points="1800.15,-236.5 1810.15,-233 1800.15,-229.5 1800.15,-236.5"/>
</g>
<!-- c42&#45;&gt;v8 -->
<g id="edge39" class="edge"><title>c42:p31:e&#45;&gt;v8:w</title>
<path fill="none" stroke="black" d="M1764.86,-180C1781.06,-180 1787.48,-179.352 1799.86,-179.1"/>
<polygon fill="black" stroke="black" points="1800.18,-182.597 1810.15,-179 1800.11,-175.597 1800.18,-182.597"/>
</g>
<!-- p11&#45;&gt;n17 -->
<g id="edge12" class="edge"><title>p11:e&#45;&gt;n17:w</title>
<path fill="none" stroke="black" stroke-width="3" d="M511.022,-607C603.952,-607 629.703,-607 717.778,-607"/>
<polygon fill="black" stroke="black" stroke-width="3" points="717.953,-610.5 727.953,-607 717.953,-603.5 717.953,-610.5"/>
</g>
<!-- v12 -->
<g id="node33" class="node"><title>v12</title>
<ellipse fill="none" stroke="black" cx="34.4711" cy="-764" rx="27" ry="18"/>
<text text-anchor="middle" x="34.4711" y="-760.3" font-family="Times,serif" font-size="14.00">1&#39;z</text>
</g>
<!-- x13 -->
<g id="node34" class="node"><title>x13</title>
<path fill="none" stroke="black" d="M196.232,-782C196.232,-782 166.232,-782 166.232,-782 160.232,-782 154.232,-776 154.232,-770 154.232,-770 154.232,-758 154.232,-758 154.232,-752 160.232,-746 166.232,-746 166.232,-746 196.232,-746 196.232,-746 202.232,-746 208.232,-752 208.232,-758 208.232,-758 208.232,-770 208.232,-770 208.232,-776 202.232,-782 196.232,-782"/>
<text text-anchor="middle" x="181.232" y="-760.3" font-family="Times,serif" font-size="14.00">BUF</text>
</g>
<!-- v12&#45;&gt;x13 -->
<g id="edge32" class="edge"><title>v12:e&#45;&gt;x13:w:w</title>
<path fill="none" stroke="black" d="M62.4711,-764C99.1853,-764 110.838,-764 143.049,-764"/>
<polygon fill="black" stroke="black" points="143.232,-767.5 153.232,-764 143.232,-760.5 143.232,-767.5"/>
</g>
<!-- x13&#45;&gt;n16 -->
<g id="edge11" class="edge"><title>x13:e:e&#45;&gt;n16:w</title>
<path fill="none" stroke="black" d="M209.232,-764C295.413,-764 319.484,-764 400.812,-764"/>
<polygon fill="black" stroke="black" points="401.022,-767.5 411.022,-764 401.022,-760.5 401.022,-767.5"/>
</g>
</g>
</svg>
