<?xml version="1.0" encoding="UTF-8" standalone="no"?>
<!DOCTYPE svg PUBLIC "-//W3C//DTD SVG 1.1//EN"
 "http://www.w3.org/Graphics/SVG/1.1/DTD/svg11.dtd">
<!-- Generated by graphviz version 2.38.0 (20140413.2041)
 -->
<!-- Title: my_design Pages: 1 -->
<svg width="687pt" height="1276pt"
 viewBox="0.00 0.00 686.75 1276.00" xmlns="http://www.w3.org/2000/svg" xmlns:xlink="http://www.w3.org/1999/xlink">
<g id="graph0" class="graph" transform="scale(1 1) rotate(0) translate(4 1272)">
<title>my_design</title>
<polygon fill="white" stroke="none" points="-4,4 -4,-1272 682.748,-1272 682.748,4 -4,4"/>
<text text-anchor="middle" x="339.374" y="-7.8" font-family="Times,serif" font-size="14.00">my_design</text>
<!-- n5 -->
<g id="node1" class="node"><title>n5</title>
<polygon fill="none" stroke="black" points="61.4711,-1188.54 61.4711,-1203.46 45.6549,-1214 23.2874,-1214 7.47113,-1203.46 7.47113,-1188.54 23.2874,-1178 45.6549,-1178 61.4711,-1188.54"/>
<text text-anchor="middle" x="34.4711" y="-1192.3" font-family="Times,serif" font-size="14.00">a</text>
</g>
<!-- c21 -->
<g id="node14" class="node"><title>c21</title>
<polygon fill="none" stroke="black" points="154.873,-1146 154.873,-1192 249.873,-1192 249.873,-1146 154.873,-1146"/>
<text text-anchor="middle" x="167.873" y="-1176.8" font-family="Times,serif" font-size="14.00">A</text>
<polyline fill="none" stroke="black" points="154.873,-1169 180.873,-1169 "/>
<text text-anchor="middle" x="167.873" y="-1153.8" font-family="Times,serif" font-size="14.00">B</text>
<polyline fill="none" stroke="black" points="180.873,-1146 180.873,-1192 "/>
<text text-anchor="middle" x="202.373" y="-1172.8" font-family="Times,serif" font-size="14.00">$3</text>
<text text-anchor="middle" x="202.373" y="-1157.8" font-family="Times,serif" font-size="14.00">$add</text>
<polyline fill="none" stroke="black" points="223.873,-1146 223.873,-1192 "/>
<text text-anchor="middle" x="236.873" y="-1165.3" font-family="Times,serif" font-size="14.00">Y</text>
</g>
<!-- n5&#45;&gt;c21 -->
<g id="edge16" class="edge"><title>n5:e&#45;&gt;c21:p18:w</title>
<path fill="none" stroke="black" stroke-width="3" d="M62.4711,-1196C99.7394,-1196 110.549,-1183.57 143.064,-1181.34"/>
<polygon fill="black" stroke="black" stroke-width="3" points="143.494,-1184.83 153.373,-1181 143.263,-1177.83 143.494,-1184.83"/>
</g>
<!-- n6 -->
<g id="node2" class="node"><title>n6</title>
<polygon fill="none" stroke="black" points="61.4711,-1134.54 61.4711,-1149.46 45.6549,-1160 23.2874,-1160 7.47113,-1149.46 7.47113,-1134.54 23.2874,-1124 45.6549,-1124 61.4711,-1134.54"/>
<text text-anchor="middle" x="34.4711" y="-1138.3" font-family="Times,serif" font-size="14.00">b</text>
</g>
<!-- n6&#45;&gt;c21 -->
<g id="edge17" class="edge"><title>n6:e&#45;&gt;c21:p19:w</title>
<path fill="none" stroke="black" stroke-width="3" d="M62.4711,-1142C99.7394,-1142 110.549,-1154.43 143.064,-1156.66"/>
<polygon fill="black" stroke="black" stroke-width="3" points="143.263,-1160.17 153.373,-1157 143.494,-1153.17 143.263,-1160.17"/>
</g>
<!-- n7 -->
<g id="node3" class="node"><title>n7</title>
<polygon fill="none" stroke="black" points="229.373,-627.544 229.373,-642.456 213.557,-653 191.189,-653 175.373,-642.456 175.373,-627.544 191.189,-617 213.557,-617 229.373,-627.544"/>
<text text-anchor="middle" x="202.373" y="-631.3" font-family="Times,serif" font-size="14.00">clk</text>
</g>
<!-- c33 -->
<g id="node22" class="node"><title>c33</title>
<polygon fill="none" stroke="black" points="339.304,-612 339.304,-842 579.304,-842 579.304,-612 339.304,-612"/>
<text text-anchor="middle" x="419.804" y="-826.8" font-family="Times,serif" font-size="14.00">CLOCK_ENABLE</text>
<polyline fill="none" stroke="black" points="339.304,-819 500.304,-819 "/>
<text text-anchor="middle" x="419.804" y="-803.8" font-family="Times,serif" font-size="14.00">D_IN_0</text>
<polyline fill="none" stroke="black" points="339.304,-796 500.304,-796 "/>
<text text-anchor="middle" x="419.804" y="-780.8" font-family="Times,serif" font-size="14.00">D_IN_1</text>
<polyline fill="none" stroke="black" points="339.304,-773 500.304,-773 "/>
<text text-anchor="middle" x="419.804" y="-757.8" font-family="Times,serif" font-size="14.00">D_OUT_0</text>
<polyline fill="none" stroke="black" points="339.304,-750 500.304,-750 "/>
<text text-anchor="middle" x="419.804" y="-734.8" font-family="Times,serif" font-size="14.00">D_OUT_1</text>
<polyline fill="none" stroke="black" points="339.304,-727 500.304,-727 "/>
<text text-anchor="middle" x="419.804" y="-711.8" font-family="Times,serif" font-size="14.00">INPUT_CLK</text>
<polyline fill="none" stroke="black" points="339.304,-704 500.304,-704 "/>
<text text-anchor="middle" x="419.804" y="-688.8" font-family="Times,serif" font-size="14.00">LATCH_INPUT_VALUE</text>
<polyline fill="none" stroke="black" points="339.304,-681 500.304,-681 "/>
<text text-anchor="middle" x="419.804" y="-665.8" font-family="Times,serif" font-size="14.00">OUTPUT_CLK</text>
<polyline fill="none" stroke="black" points="339.304,-658 500.304,-658 "/>
<text text-anchor="middle" x="419.804" y="-642.8" font-family="Times,serif" font-size="14.00">OUTPUT_ENABLE</text>
<polyline fill="none" stroke="black" points="339.304,-635 500.304,-635 "/>
<text text-anchor="middle" x="419.804" y="-619.8" font-family="Times,serif" font-size="14.00">PACKAGE_PIN</text>
<polyline fill="none" stroke="black" points="500.304,-612 500.304,-842 "/>
<text text-anchor="middle" x="529.804" y="-730.8" font-family="Times,serif" font-size="14.00">u_sb_in</text>
<text text-anchor="middle" x="529.804" y="-715.8" font-family="Times,serif" font-size="14.00">SB_IO</text>
<polyline fill="none" stroke="black" points="559.304,-612 559.304,-842 "/>
<text text-anchor="middle" x="569.304" y="-723.3" font-family="Times,serif" font-size="14.00"> </text>
</g>
<!-- n7&#45;&gt;c33 -->
<g id="edge18" class="edge"><title>n7:e&#45;&gt;c33:p28:w</title>
<path fill="none" stroke="black" d="M230.373,-635C263.482,-635 273.581,-641.786 299.804,-662 319.62,-677.275 312.308,-705.438 328.338,-713.057"/>
<polygon fill="black" stroke="black" points="327.819,-716.521 338.304,-715 329.158,-709.651 327.819,-716.521"/>
</g>
<!-- n7&#45;&gt;c33 -->
<g id="edge19" class="edge"><title>n7:e&#45;&gt;c33:p30:w</title>
<path fill="none" stroke="black" d="M230.373,-635C277.13,-635 286.765,-664.387 328.302,-668.519"/>
<polygon fill="black" stroke="black" points="328.147,-672.016 338.304,-669 328.483,-665.024 328.147,-672.016"/>
</g>
<!-- c37 -->
<g id="node23" class="node"><title>c37</title>
<polygon fill="none" stroke="black" points="367.804,-893.5 367.804,-962.5 550.804,-962.5 550.804,-893.5 367.804,-893.5"/>
<text text-anchor="middle" x="382.804" y="-947.3" font-family="Times,serif" font-size="14.00">$1</text>
<polyline fill="none" stroke="black" points="367.804,-939.5 397.804,-939.5 "/>
<text text-anchor="middle" x="382.804" y="-924.3" font-family="Times,serif" font-size="14.00">$2</text>
<polyline fill="none" stroke="black" points="367.804,-916.5 397.804,-916.5 "/>
<text text-anchor="middle" x="382.804" y="-901.3" font-family="Times,serif" font-size="14.00">$3</text>
<polyline fill="none" stroke="black" points="397.804,-893.5 397.804,-962.5 "/>
<text text-anchor="middle" x="464.304" y="-931.8" font-family="Times,serif" font-size="14.00">u_sb_in2sb_internal0</text>
<text text-anchor="middle" x="464.304" y="-916.8" font-family="Times,serif" font-size="14.00">SB_DFF</text>
<polyline fill="none" stroke="black" points="530.804,-893.5 530.804,-962.5 "/>
<text text-anchor="middle" x="540.804" y="-924.3" font-family="Times,serif" font-size="14.00"> </text>
</g>
<!-- n7&#45;&gt;c37 -->
<g id="edge20" class="edge"><title>n7:e&#45;&gt;c37:p35:w</title>
<path fill="none" stroke="black" d="M230.373,-635C263.482,-635 278.625,-636.551 299.804,-662 375.47,-752.924 252.073,-917.97 356.239,-927.563"/>
<polygon fill="black" stroke="black" points="356.161,-931.062 366.304,-928 356.465,-924.069 356.161,-931.062"/>
</g>
<!-- c38 -->
<g id="node24" class="node"><title>c38</title>
<polygon fill="none" stroke="black" points="349.304,-455.5 349.304,-524.5 569.304,-524.5 569.304,-455.5 349.304,-455.5"/>
<text text-anchor="middle" x="364.304" y="-509.3" font-family="Times,serif" font-size="14.00">$1</text>
<polyline fill="none" stroke="black" points="349.304,-501.5 379.304,-501.5 "/>
<text text-anchor="middle" x="364.304" y="-486.3" font-family="Times,serif" font-size="14.00">$2</text>
<polyline fill="none" stroke="black" points="349.304,-478.5 379.304,-478.5 "/>
<text text-anchor="middle" x="364.304" y="-463.3" font-family="Times,serif" font-size="14.00">$3</text>
<polyline fill="none" stroke="black" points="379.304,-455.5 379.304,-524.5 "/>
<text text-anchor="middle" x="464.304" y="-493.8" font-family="Times,serif" font-size="14.00">u_sb_internal02sb_internal1</text>
<text text-anchor="middle" x="464.304" y="-478.8" font-family="Times,serif" font-size="14.00">sub_design</text>
<polyline fill="none" stroke="black" points="549.304,-455.5 549.304,-524.5 "/>
<text text-anchor="middle" x="559.304" y="-486.3" font-family="Times,serif" font-size="14.00"> </text>
</g>
<!-- n7&#45;&gt;c38 -->
<g id="edge21" class="edge"><title>n7:e&#45;&gt;c38:p34:w</title>
<path fill="none" stroke="black" d="M230.373,-635C263.482,-635 275.238,-630.198 299.804,-608 332.091,-578.823 306.022,-523.16 338.199,-514.224"/>
<polygon fill="black" stroke="black" points="338.797,-517.677 348.304,-513 337.955,-510.728 338.797,-517.677"/>
</g>
<!-- c39 -->
<g id="node25" class="node"><title>c39</title>
<polygon fill="none" stroke="black" points="364.304,-367.5 364.304,-436.5 554.304,-436.5 554.304,-367.5 364.304,-367.5"/>
<text text-anchor="middle" x="379.304" y="-421.3" font-family="Times,serif" font-size="14.00">$1</text>
<polyline fill="none" stroke="black" points="364.304,-413.5 394.304,-413.5 "/>
<text text-anchor="middle" x="379.304" y="-398.3" font-family="Times,serif" font-size="14.00">$2</text>
<polyline fill="none" stroke="black" points="364.304,-390.5 394.304,-390.5 "/>
<text text-anchor="middle" x="379.304" y="-375.3" font-family="Times,serif" font-size="14.00">$3</text>
<polyline fill="none" stroke="black" points="394.304,-367.5 394.304,-436.5 "/>
<text text-anchor="middle" x="464.304" y="-405.8" font-family="Times,serif" font-size="14.00">u_sb_internal12sb_out</text>
<text text-anchor="middle" x="464.304" y="-390.8" font-family="Times,serif" font-size="14.00">sub_design</text>
<polyline fill="none" stroke="black" points="534.304,-367.5 534.304,-436.5 "/>
<text text-anchor="middle" x="544.304" y="-398.3" font-family="Times,serif" font-size="14.00"> </text>
</g>
<!-- n7&#45;&gt;c39 -->
<g id="edge22" class="edge"><title>n7:e&#45;&gt;c39:p34:w</title>
<path fill="none" stroke="black" d="M230.373,-635C263.482,-635 278.24,-633.124 299.804,-608 353.465,-545.479 283.724,-435.016 353.095,-425.638"/>
<polygon fill="black" stroke="black" points="353.542,-429.117 363.304,-425 353.105,-422.131 353.542,-429.117"/>
</g>
<!-- c40 -->
<g id="node31" class="node"><title>c40</title>
<polygon fill="none" stroke="black" points="335.804,-80 335.804,-310 582.804,-310 582.804,-80 335.804,-80"/>
<text text-anchor="middle" x="416.304" y="-294.8" font-family="Times,serif" font-size="14.00">CLOCK_ENABLE</text>
<polyline fill="none" stroke="black" points="335.804,-287 496.804,-287 "/>
<text text-anchor="middle" x="416.304" y="-271.8" font-family="Times,serif" font-size="14.00">D_IN_0</text>
<polyline fill="none" stroke="black" points="335.804,-264 496.804,-264 "/>
<text text-anchor="middle" x="416.304" y="-248.8" font-family="Times,serif" font-size="14.00">D_IN_1</text>
<polyline fill="none" stroke="black" points="335.804,-241 496.804,-241 "/>
<text text-anchor="middle" x="416.304" y="-225.8" font-family="Times,serif" font-size="14.00">D_OUT_0</text>
<polyline fill="none" stroke="black" points="335.804,-218 496.804,-218 "/>
<text text-anchor="middle" x="416.304" y="-202.8" font-family="Times,serif" font-size="14.00">D_OUT_1</text>
<polyline fill="none" stroke="black" points="335.804,-195 496.804,-195 "/>
<text text-anchor="middle" x="416.304" y="-179.8" font-family="Times,serif" font-size="14.00">INPUT_CLK</text>
<polyline fill="none" stroke="black" points="335.804,-172 496.804,-172 "/>
<text text-anchor="middle" x="416.304" y="-156.8" font-family="Times,serif" font-size="14.00">LATCH_INPUT_VALUE</text>
<polyline fill="none" stroke="black" points="335.804,-149 496.804,-149 "/>
<text text-anchor="middle" x="416.304" y="-133.8" font-family="Times,serif" font-size="14.00">OUTPUT_CLK</text>
<polyline fill="none" stroke="black" points="335.804,-126 496.804,-126 "/>
<text text-anchor="middle" x="416.304" y="-110.8" font-family="Times,serif" font-size="14.00">OUTPUT_ENABLE</text>
<polyline fill="none" stroke="black" points="335.804,-103 496.804,-103 "/>
<text text-anchor="middle" x="416.304" y="-87.8" font-family="Times,serif" font-size="14.00">PACKAGE_PIN</text>
<polyline fill="none" stroke="black" points="496.804,-80 496.804,-310 "/>
<text text-anchor="middle" x="529.804" y="-198.8" font-family="Times,serif" font-size="14.00">u_sb_out</text>
<text text-anchor="middle" x="529.804" y="-183.8" font-family="Times,serif" font-size="14.00">SB_IO</text>
<polyline fill="none" stroke="black" points="562.804,-80 562.804,-310 "/>
<text text-anchor="middle" x="572.804" y="-191.3" font-family="Times,serif" font-size="14.00"> </text>
</g>
<!-- n7&#45;&gt;c40 -->
<g id="edge23" class="edge"><title>n7:e&#45;&gt;c40:p28:w</title>
<path fill="none" stroke="black" d="M230.373,-635C263.482,-635 279.972,-634.513 299.804,-608 326.194,-572.719 293.669,-235.703 327.046,-188.485"/>
<polygon fill="black" stroke="black" points="329.186,-191.274 335.804,-183 325.471,-185.341 329.186,-191.274"/>
</g>
<!-- n7&#45;&gt;c40 -->
<g id="edge24" class="edge"><title>n7:e&#45;&gt;c40:p30:w</title>
<path fill="none" stroke="black" d="M230.373,-635C263.482,-635 280.081,-634.594 299.804,-608 329.053,-568.559 289.145,-190.674 326.856,-142.126"/>
<polygon fill="black" stroke="black" points="328.867,-145.008 335.804,-137 325.387,-138.934 328.867,-145.008"/>
</g>
<!-- p11 -->
<g id="node32" class="node"><title>p11</title>
<path fill="none" stroke="black" d="M499.304,-1112C499.304,-1112 419.304,-1112 419.304,-1112 413.304,-1112 407.304,-1106 407.304,-1100 407.304,-1100 407.304,-1086 407.304,-1086 407.304,-1080 413.304,-1074 419.304,-1074 419.304,-1074 499.304,-1074 499.304,-1074 505.304,-1074 511.304,-1080 511.304,-1086 511.304,-1086 511.304,-1100 511.304,-1100 511.304,-1106 505.304,-1112 499.304,-1112"/>
<text text-anchor="middle" x="459.304" y="-1096.8" font-family="Times,serif" font-size="14.00">PROC $1</text>
<text text-anchor="middle" x="459.304" y="-1081.8" font-family="Times,serif" font-size="14.00">my_design.v:36</text>
</g>
<!-- n7&#45;&gt;p11 -->
<g id="edge25" class="edge"><title>n7:e&#45;&gt;p11:w</title>
<path fill="none" stroke="black" d="M230.373,-635C387.309,-635 286.2,-823.109 335.804,-972 354.323,-1027.59 345.294,-1085.75 396.1,-1092.37"/>
<polygon fill="black" stroke="black" points="396.108,-1095.88 406.304,-1093 396.536,-1088.9 396.108,-1095.88"/>
</g>
<!-- n8 -->
<g id="node4" class="node"><title>n8</title>
<polygon fill="none" stroke="black" points="68.9134,-1063.54 68.9134,-1078.46 48.7376,-1089 20.2047,-1089 0.0288429,-1078.46 0.0288429,-1063.54 20.2047,-1053 48.7376,-1053 68.9134,-1063.54"/>
<text text-anchor="middle" x="34.4711" y="-1067.3" font-family="Times,serif" font-size="14.00">reset_</text>
</g>
<!-- c22 -->
<g id="node15" class="node"><title>c22</title>
<polygon fill="none" stroke="black" points="139.373,-1050 139.373,-1088 265.373,-1088 265.373,-1050 139.373,-1050"/>
<text text-anchor="middle" x="152.373" y="-1065.3" font-family="Times,serif" font-size="14.00">A</text>
<polyline fill="none" stroke="black" points="165.373,-1050 165.373,-1088 "/>
<text text-anchor="middle" x="202.373" y="-1072.8" font-family="Times,serif" font-size="14.00">$2</text>
<text text-anchor="middle" x="202.373" y="-1057.8" font-family="Times,serif" font-size="14.00">$logic_not</text>
<polyline fill="none" stroke="black" points="239.373,-1050 239.373,-1088 "/>
<text text-anchor="middle" x="252.373" y="-1065.3" font-family="Times,serif" font-size="14.00">Y</text>
</g>
<!-- n8&#45;&gt;c22 -->
<g id="edge26" class="edge"><title>n8:e&#45;&gt;c22:p18:w</title>
<path fill="none" stroke="black" d="M68.9423,-1071C96.0749,-1071 105.3,-1069.46 128.096,-1069.08"/>
<polygon fill="black" stroke="black" points="128.401,-1072.58 138.373,-1069 128.346,-1065.58 128.401,-1072.58"/>
</g>
<!-- n8&#45;&gt;p11 -->
<g id="edge27" class="edge"><title>n8:e&#45;&gt;p11:w</title>
<path fill="none" stroke="black" d="M68.9423,-1071C88.9423,-1071 85.9686,-1091.68 104.942,-1098 228.798,-1139.29 270.243,-1095.35 396.278,-1093.09"/>
<polygon fill="black" stroke="black" points="396.335,-1096.59 406.304,-1093 396.273,-1089.59 396.335,-1096.59"/>
</g>
<!-- n9 -->
<g id="node5" class="node"><title>n9</title>
<polygon fill="none" stroke="black" points="234.595,-519.544 234.595,-534.456 215.72,-545 189.026,-545 170.151,-534.456 170.151,-519.544 189.026,-509 215.72,-509 234.595,-519.544"/>
<text text-anchor="middle" x="202.373" y="-523.3" font-family="Times,serif" font-size="14.00">sb_in</text>
</g>
<!-- n9&#45;&gt;c33 -->
<g id="edge28" class="edge"><title>n9:e&#45;&gt;c33:p32:w</title>
<path fill="none" stroke="black" d="M235.373,-527C266.421,-527 276.653,-533.31 299.804,-554 322.919,-574.659 307.858,-612.618 328.172,-621.231"/>
<polygon fill="black" stroke="black" points="327.851,-624.727 338.304,-623 329.055,-617.832 327.851,-624.727"/>
</g>
<!-- n10 -->
<g id="node6" class="node"><title>n10</title>
<polygon fill="none" stroke="black" points="202.373,-923 105.012,-905 202.373,-887 299.734,-905 202.373,-923"/>
<text text-anchor="middle" x="202.373" y="-901.3" font-family="Times,serif" font-size="14.00">sb_in_from_pad</text>
</g>
<!-- n10&#45;&gt;c33 -->
<g id="edge1" class="edge"><title>n10:e&#45;&gt;c33:p24:w</title>
<path fill="none" stroke="black" d="M299.804,-905C342.2,-905 300.504,-823.956 328.448,-810.026"/>
<polygon fill="black" stroke="black" points="329.213,-813.442 338.304,-808 327.804,-806.585 329.213,-813.442"/>
</g>
<!-- n10&#45;&gt;c37 -->
<g id="edge2" class="edge"><title>n10:e&#45;&gt;c37:p36:w</title>
<path fill="none" stroke="black" d="M299.804,-905C325.665,-905 334.554,-905 356.173,-905"/>
<polygon fill="black" stroke="black" points="356.304,-908.5 366.304,-905 356.304,-901.5 356.304,-908.5"/>
</g>
<!-- n11 -->
<g id="node7" class="node"><title>n11</title>
<polygon fill="none" stroke="black" points="202.373,-1031 131.822,-1013 202.373,-995 272.924,-1013 202.373,-1031"/>
<text text-anchor="middle" x="202.373" y="-1009.3" font-family="Times,serif" font-size="14.00">sb_internal</text>
</g>
<!-- n11&#45;&gt;c37 -->
<g id="edge3" class="edge"><title>n11:e&#45;&gt;c37:p34:w</title>
<path fill="none" stroke="black" d="M274.373,-1013C319.997,-1013 317.698,-959.862 356.209,-951.974"/>
<polygon fill="black" stroke="black" points="356.686,-955.444 366.304,-951 356.014,-948.477 356.686,-955.444"/>
</g>
<!-- n12 -->
<g id="node8" class="node"><title>n12</title>
<polygon fill="none" stroke="black" points="202.373,-491 126.292,-473 202.373,-455 278.454,-473 202.373,-491"/>
<text text-anchor="middle" x="202.373" y="-469.3" font-family="Times,serif" font-size="14.00">sb_internal0</text>
</g>
<!-- n12&#45;&gt;c38 -->
<g id="edge4" class="edge"><title>n12:e&#45;&gt;c38:p35:w</title>
<path fill="none" stroke="black" d="M279.373,-473C307.229,-473 315.032,-486.249 338.188,-489.354"/>
<polygon fill="black" stroke="black" points="338.101,-492.856 348.304,-490 338.547,-485.87 338.101,-492.856"/>
</g>
<!-- n13 -->
<g id="node9" class="node"><title>n13</title>
<polygon fill="none" stroke="black" points="202.373,-437 126.292,-419 202.373,-401 278.454,-419 202.373,-437"/>
<text text-anchor="middle" x="202.373" y="-415.3" font-family="Times,serif" font-size="14.00">sb_internal1</text>
</g>
<!-- n13&#45;&gt;c38 -->
<g id="edge5" class="edge"><title>n13:e&#45;&gt;c38:p36:w</title>
<path fill="none" stroke="black" d="M279.373,-419C312.913,-419 311.692,-457.745 338.171,-465.615"/>
<polygon fill="black" stroke="black" points="337.922,-469.114 348.304,-467 338.87,-462.178 337.922,-469.114"/>
</g>
<!-- n13&#45;&gt;c39 -->
<g id="edge6" class="edge"><title>n13:e&#45;&gt;c39:p35:w</title>
<path fill="none" stroke="black" d="M279.373,-419C313.716,-419 323.43,-405.158 352.962,-402.455"/>
<polygon fill="black" stroke="black" points="353.467,-405.936 363.304,-402 353.159,-398.943 353.467,-405.936"/>
</g>
<!-- n14 -->
<g id="node10" class="node"><title>n14</title>
<polygon fill="none" stroke="black" points="239.444,-33.5442 239.444,-48.4558 217.728,-59 187.017,-59 165.301,-48.4558 165.301,-33.5442 187.017,-23 217.728,-23 239.444,-33.5442"/>
<text text-anchor="middle" x="202.373" y="-37.3" font-family="Times,serif" font-size="14.00">sb_out</text>
</g>
<!-- n14&#45;&gt;c40 -->
<g id="edge7" class="edge"><title>n14:e&#45;&gt;c40:p32:w</title>
<path fill="none" stroke="black" d="M240.373,-41C269.385,-41 274.308,-54.1553 299.804,-68 312.839,-75.0786 315.891,-85.135 325.656,-89.1959"/>
<polygon fill="black" stroke="black" points="325.345,-92.6956 335.804,-91 326.571,-85.8036 325.345,-92.6956"/>
</g>
<!-- n15 -->
<g id="node11" class="node"><title>n15</title>
<polygon fill="none" stroke="black" points="202.373,-221 113.894,-203 202.373,-185 290.852,-203 202.373,-221"/>
<text text-anchor="middle" x="202.373" y="-199.3" font-family="Times,serif" font-size="14.00">sb_out_to_pad</text>
</g>
<!-- n15&#45;&gt;c39 -->
<g id="edge8" class="edge"><title>n15:e&#45;&gt;c39:p36:w</title>
<path fill="none" stroke="black" d="M292.373,-203C372.92,-203 287.382,-363.543 353.007,-377.966"/>
<polygon fill="black" stroke="black" points="353.004,-381.484 363.304,-379 353.703,-374.519 353.004,-381.484"/>
</g>
<!-- n15&#45;&gt;c40 -->
<g id="edge9" class="edge"><title>n15:e&#45;&gt;c40:p26:w</title>
<path fill="none" stroke="black" d="M292.373,-203C311.195,-203 313.04,-221.516 326.027,-227.881"/>
<polygon fill="black" stroke="black" points="325.289,-231.303 335.804,-230 326.772,-224.461 325.289,-231.303"/>
</g>
<!-- n15&#45;&gt;c40 -->
<g id="edge10" class="edge"><title>n15:e&#45;&gt;c40:p27:w</title>
<path fill="none" stroke="black" d="M292.373,-203C307.82,-203 313.918,-205.54 325.567,-206.572"/>
<polygon fill="black" stroke="black" points="325.666,-210.079 335.804,-207 325.959,-203.085 325.666,-210.079"/>
</g>
<!-- n16 -->
<g id="node12" class="node"><title>n16</title>
<polygon fill="none" stroke="black" points="505.259,-1242.54 505.259,-1257.46 478.339,-1268 440.268,-1268 413.348,-1257.46 413.348,-1242.54 440.268,-1232 478.339,-1232 505.259,-1242.54"/>
<text text-anchor="middle" x="459.304" y="-1246.3" font-family="Times,serif" font-size="14.00">sb_out_z</text>
</g>
<!-- n17 -->
<g id="node13" class="node"><title>n17</title>
<polygon fill="none" stroke="black" points="672.804,-1085.54 672.804,-1100.46 656.987,-1111 634.62,-1111 618.804,-1100.46 618.804,-1085.54 634.62,-1075 656.987,-1075 672.804,-1085.54"/>
<text text-anchor="middle" x="645.804" y="-1089.3" font-family="Times,serif" font-size="14.00">z</text>
</g>
<!-- n17&#45;&gt;p11 -->
<g id="edge13" class="edge"><title>n17:e&#45;&gt;p11:w</title>
<path fill="none" stroke="black" stroke-width="3" d="M673.804,-1093C681.816,-1093 678.607,-1105.48 672.804,-1111 620.812,-1160.49 583.082,-1111.78 511.304,-1112 465.082,-1112.14 440.836,-1143.81 407.304,-1112 404.62,-1109.45 402.474,-1105.5 401.618,-1101.85"/>
<polygon fill="black" stroke="black" stroke-width="3" points="404.72,-1103.48 406.304,-1093 398.533,-1100.2 404.72,-1103.48"/>
</g>
<!-- c21&#45;&gt;p11 -->
<g id="edge14" class="edge"><title>c21:p20:e&#45;&gt;p11:w</title>
<path fill="none" stroke="black" stroke-width="3" d="M251.373,-1169C324.474,-1169 329.298,-1099.96 395.998,-1093.49"/>
<polygon fill="black" stroke="black" stroke-width="3" points="396.479,-1096.97 406.304,-1093 396.15,-1089.97 396.479,-1096.97"/>
</g>
<!-- c22&#45;&gt;p11 -->
<g id="edge15" class="edge"><title>c22:p20:e&#45;&gt;p11:w</title>
<path fill="none" stroke="black" d="M266.373,-1069C325.898,-1069 341.49,-1090.36 396.039,-1092.78"/>
<polygon fill="black" stroke="black" points="396.23,-1096.28 406.304,-1093 396.382,-1089.28 396.23,-1096.28"/>
</g>
<!-- v0 -->
<g id="node16" class="node"><title>v0</title>
<ellipse fill="none" stroke="black" cx="202.373" cy="-959" rx="27" ry="18"/>
<text text-anchor="middle" x="202.373" y="-955.3" font-family="Times,serif" font-size="14.00">1&#39;0</text>
</g>
<!-- v0&#45;&gt;c33 -->
<g id="edge29" class="edge"><title>v0:e&#45;&gt;c33:p23:w</title>
<path fill="none" stroke="black" d="M230.373,-959C263.482,-959 276.47,-955.49 299.804,-932 330.882,-900.713 296.864,-841.758 328.234,-832.296"/>
<polygon fill="black" stroke="black" points="328.832,-835.748 338.304,-831 327.939,-828.805 328.832,-835.748"/>
</g>
<!-- v1 -->
<g id="node17" class="node"><title>v1</title>
<ellipse fill="none" stroke="black" cx="202.373" cy="-851" rx="27" ry="18"/>
</g>
<!-- v1&#45;&gt;c33 -->
<g id="edge30" class="edge"><title>v1:e&#45;&gt;c33:p25:w</title>
<path fill="none" stroke="black" d="M230.373,-851C263.482,-851 272.134,-842.182 299.804,-824 316.66,-812.923 315.298,-793.447 328.164,-787.079"/>
<polygon fill="black" stroke="black" points="329.21,-790.437 338.304,-785 327.804,-783.58 329.21,-790.437"/>
</g>
<!-- v2 -->
<g id="node18" class="node"><title>v2</title>
<ellipse fill="none" stroke="black" cx="202.373" cy="-797" rx="27" ry="18"/>
<text text-anchor="middle" x="202.373" y="-793.3" font-family="Times,serif" font-size="14.00">1&#39;0</text>
</g>
<!-- v2&#45;&gt;c33 -->
<g id="edge33" class="edge"><title>v2:e&#45;&gt;c33:p26:w</title>
<path fill="none" stroke="black" d="M230.373,-797C277.256,-797 286.666,-766.749 328.279,-762.495"/>
<polygon fill="black" stroke="black" points="328.488,-765.989 338.304,-762 328.143,-758.997 328.488,-765.989"/>
</g>
<!-- v3 -->
<g id="node19" class="node"><title>v3</title>
<ellipse fill="none" stroke="black" cx="202.373" cy="-743" rx="27" ry="18"/>
<text text-anchor="middle" x="202.373" y="-739.3" font-family="Times,serif" font-size="14.00">1&#39;0</text>
</g>
<!-- v3&#45;&gt;c33 -->
<g id="edge34" class="edge"><title>v3:e&#45;&gt;c33:p27:w</title>
<path fill="none" stroke="black" d="M230.373,-743C274.812,-743 288.332,-739.572 328.182,-739.063"/>
<polygon fill="black" stroke="black" points="328.326,-742.562 338.304,-739 328.282,-735.562 328.326,-742.562"/>
</g>
<!-- v4 -->
<g id="node20" class="node"><title>v4</title>
<ellipse fill="none" stroke="black" cx="202.373" cy="-689" rx="27" ry="18"/>
<text text-anchor="middle" x="202.373" y="-685.3" font-family="Times,serif" font-size="14.00">1&#39;1</text>
</g>
<!-- v4&#45;&gt;c33 -->
<g id="edge35" class="edge"><title>v4:e&#45;&gt;c33:p29:w</title>
<path fill="none" stroke="black" d="M230.373,-689C274.799,-689 288.343,-691.571 328.185,-691.953"/>
<polygon fill="black" stroke="black" points="328.287,-695.453 338.304,-692 328.32,-688.453 328.287,-695.453"/>
</g>
<!-- v5 -->
<g id="node21" class="node"><title>v5</title>
<ellipse fill="none" stroke="black" cx="202.373" cy="-581" rx="27" ry="18"/>
<text text-anchor="middle" x="202.373" y="-577.3" font-family="Times,serif" font-size="14.00">1&#39;0</text>
</g>
<!-- v5&#45;&gt;c33 -->
<g id="edge36" class="edge"><title>v5:e&#45;&gt;c33:p31:w</title>
<path fill="none" stroke="black" d="M230.373,-581C263.482,-581 272.016,-589.998 299.804,-608 316.513,-618.826 315.463,-637.781 328.262,-643.978"/>
<polygon fill="black" stroke="black" points="327.809,-647.457 338.304,-646 329.191,-640.594 327.809,-647.457"/>
</g>
<!-- v6 -->
<g id="node26" class="node"><title>v6</title>
<ellipse fill="none" stroke="black" cx="202.373" cy="-365" rx="27" ry="18"/>
<text text-anchor="middle" x="202.373" y="-361.3" font-family="Times,serif" font-size="14.00">1&#39;0</text>
</g>
<!-- v6&#45;&gt;c40 -->
<g id="edge37" class="edge"><title>v6:e&#45;&gt;c40:p23:w</title>
<path fill="none" stroke="black" d="M230.373,-365C263.482,-365 272.442,-356.644 299.804,-338 315.795,-327.104 313.902,-307.841 325.726,-301.27"/>
<polygon fill="black" stroke="black" points="326.817,-304.612 335.804,-299 325.279,-297.783 326.817,-304.612"/>
</g>
<!-- v7 -->
<g id="node27" class="node"><title>v7</title>
<ellipse fill="none" stroke="black" cx="202.373" cy="-311" rx="27" ry="18"/>
</g>
<!-- v7&#45;&gt;c40 -->
<g id="edge38" class="edge"><title>v7:e&#45;&gt;c40:p24:w</title>
<path fill="none" stroke="black" d="M230.373,-311C252.07,-311 298.001,-283.963 325.567,-277.415"/>
<polygon fill="black" stroke="black" points="326.377,-280.837 335.804,-276 325.418,-273.903 326.377,-280.837"/>
</g>
<!-- v8 -->
<g id="node28" class="node"><title>v8</title>
<ellipse fill="none" stroke="black" cx="202.373" cy="-257" rx="27" ry="18"/>
</g>
<!-- v8&#45;&gt;c40 -->
<g id="edge39" class="edge"><title>v8:e&#45;&gt;c40:p25:w</title>
<path fill="none" stroke="black" d="M230.373,-257C273.601,-257 286.877,-253.601 325.425,-253.069"/>
<polygon fill="black" stroke="black" points="325.827,-256.567 335.804,-253 325.78,-249.567 325.827,-256.567"/>
</g>
<!-- v9 -->
<g id="node29" class="node"><title>v9</title>
<ellipse fill="none" stroke="black" cx="202.373" cy="-149" rx="27" ry="18"/>
<text text-anchor="middle" x="202.373" y="-145.3" font-family="Times,serif" font-size="14.00">1&#39;0</text>
</g>
<!-- v9&#45;&gt;c40 -->
<g id="edge40" class="edge"><title>v9:e&#45;&gt;c40:p29:w</title>
<path fill="none" stroke="black" d="M230.373,-149C273.805,-149 286.721,-158.348 325.385,-159.809"/>
<polygon fill="black" stroke="black" points="325.741,-163.316 335.804,-160 325.869,-156.317 325.741,-163.316"/>
</g>
<!-- v10 -->
<g id="node30" class="node"><title>v10</title>
<ellipse fill="none" stroke="black" cx="202.373" cy="-95" rx="27" ry="18"/>
<text text-anchor="middle" x="202.373" y="-91.3" font-family="Times,serif" font-size="14.00">1&#39;1</text>
</g>
<!-- v10&#45;&gt;c40 -->
<g id="edge31" class="edge"><title>v10:e&#45;&gt;c40:p31:w</title>
<path fill="none" stroke="black" d="M230.373,-95C274.452,-95 286.47,-111.284 325.79,-113.702"/>
<polygon fill="black" stroke="black" points="325.704,-117.2 335.804,-114 325.912,-110.204 325.704,-117.2"/>
</g>
<!-- p11&#45;&gt;n17 -->
<g id="edge12" class="edge"><title>p11:e&#45;&gt;n17:w</title>
<path fill="none" stroke="black" stroke-width="3" d="M512.304,-1093C555.939,-1093 569.405,-1093 608.326,-1093"/>
<polygon fill="black" stroke="black" stroke-width="3" points="608.804,-1096.5 618.804,-1093 608.804,-1089.5 608.804,-1096.5"/>
</g>
<!-- v12 -->
<g id="node33" class="node"><title>v12</title>
<ellipse fill="none" stroke="black" cx="34.4711" cy="-1250" rx="27" ry="18"/>
<text text-anchor="middle" x="34.4711" y="-1246.3" font-family="Times,serif" font-size="14.00">1&#39;z</text>
</g>
<!-- x13 -->
<g id="node34" class="node"><title>x13</title>
<path fill="none" stroke="black" d="M217.373,-1268C217.373,-1268 187.373,-1268 187.373,-1268 181.373,-1268 175.373,-1262 175.373,-1256 175.373,-1256 175.373,-1244 175.373,-1244 175.373,-1238 181.373,-1232 187.373,-1232 187.373,-1232 217.373,-1232 217.373,-1232 223.373,-1232 229.373,-1238 229.373,-1244 229.373,-1244 229.373,-1256 229.373,-1256 229.373,-1262 223.373,-1268 217.373,-1268"/>
<text text-anchor="middle" x="202.373" y="-1246.3" font-family="Times,serif" font-size="14.00">BUF</text>
</g>
<!-- v12&#45;&gt;x13 -->
<g id="edge32" class="edge"><title>v12:e&#45;&gt;x13:w:w</title>
<path fill="none" stroke="black" d="M62.4711,-1250C108.611,-1250 122.647,-1250 164.147,-1250"/>
<polygon fill="black" stroke="black" points="164.373,-1253.5 174.373,-1250 164.373,-1246.5 164.373,-1253.5"/>
</g>
<!-- x13&#45;&gt;n16 -->
<g id="edge11" class="edge"><title>x13:e:e&#45;&gt;n16:w</title>
<path fill="none" stroke="black" d="M230.373,-1250C307.757,-1250 329.596,-1250 402.207,-1250"/>
<polygon fill="black" stroke="black" points="402.304,-1253.5 412.304,-1250 402.304,-1246.5 402.304,-1253.5"/>
</g>
</g>
</svg>
