<?xml version="1.0" encoding="UTF-8" standalone="no"?>
<!DOCTYPE svg PUBLIC "-//W3C//DTD SVG 1.1//EN"
 "http://www.w3.org/Graphics/SVG/1.1/DTD/svg11.dtd">
<!-- Generated by graphviz version 2.38.0 (20140413.2041)
 -->
<!-- Title: my_design Pages: 1 -->
<svg width="1999pt" height="760pt"
 viewBox="0.00 0.00 1999.49 760.00" xmlns="http://www.w3.org/2000/svg" xmlns:xlink="http://www.w3.org/1999/xlink">
<g id="graph0" class="graph" transform="scale(1 1) rotate(0) translate(4 756)">
<title>my_design</title>
<polygon fill="white" stroke="none" points="-4,4 -4,-756 1995.49,-756 1995.49,4 -4,4"/>
<text text-anchor="middle" x="995.745" y="-7.8" font-family="Times,serif" font-size="14.00">my_design</text>
<!-- n5 -->
<g id="node1" class="node"><title>n5</title>
<polygon fill="none" stroke="black" points="54,-87.5442 54,-102.456 38.1838,-113 15.8162,-113 3.55271e-15,-102.456 0,-87.5442 15.8162,-77 38.1838,-77 54,-87.5442"/>
<text text-anchor="middle" x="27" y="-91.3" font-family="Times,serif" font-size="14.00">a</text>
</g>
<!-- c21 -->
<g id="node14" class="node"><title>c21</title>
<polygon fill="none" stroke="black" points="90,-45 90,-91 185,-91 185,-45 90,-45"/>
<text text-anchor="middle" x="103" y="-75.8" font-family="Times,serif" font-size="14.00">A</text>
<polyline fill="none" stroke="black" points="90,-68 116,-68 "/>
<text text-anchor="middle" x="103" y="-52.8" font-family="Times,serif" font-size="14.00">B</text>
<polyline fill="none" stroke="black" points="116,-45 116,-91 "/>
<text text-anchor="middle" x="137.5" y="-71.8" font-family="Times,serif" font-size="14.00">$3</text>
<text text-anchor="middle" x="137.5" y="-56.8" font-family="Times,serif" font-size="14.00">$add</text>
<polyline fill="none" stroke="black" points="159,-45 159,-91 "/>
<text text-anchor="middle" x="172" y="-64.3" font-family="Times,serif" font-size="14.00">Y</text>
</g>
<!-- n5&#45;&gt;c21 -->
<g id="edge18" class="edge"><title>n5:e&#45;&gt;c21:p18:w</title>
<path fill="none" stroke="black" stroke-width="3" d="M54,-95C67.2708,-95 71.1628,-86.2073 80.0372,-82.0857"/>
<polygon fill="black" stroke="black" stroke-width="3" points="80.9294,-85.4749 90,-80 79.495,-78.6234 80.9294,-85.4749"/>
</g>
<!-- n6 -->
<g id="node2" class="node"><title>n6</title>
<polygon fill="none" stroke="black" points="54,-33.5442 54,-48.4558 38.1838,-59 15.8162,-59 3.55271e-15,-48.4558 0,-33.5442 15.8162,-23 38.1838,-23 54,-33.5442"/>
<text text-anchor="middle" x="27" y="-37.3" font-family="Times,serif" font-size="14.00">b</text>
</g>
<!-- n6&#45;&gt;c21 -->
<g id="edge19" class="edge"><title>n6:e&#45;&gt;c21:p19:w</title>
<path fill="none" stroke="black" stroke-width="3" d="M54,-41C67.2708,-41 71.1628,-49.7927 80.0372,-53.9143"/>
<polygon fill="black" stroke="black" stroke-width="3" points="79.495,-57.3766 90,-56 80.9294,-50.5251 79.495,-57.3766"/>
</g>
<!-- n7 -->
<g id="node3" class="node"><title>n7</title>
<polygon fill="none" stroke="black" points="324.29,-375.544 324.29,-390.456 308.474,-401 286.106,-401 270.29,-390.456 270.29,-375.544 286.106,-365 308.474,-365 324.29,-375.544"/>
<text text-anchor="middle" x="297.29" y="-379.3" font-family="Times,serif" font-size="14.00">clk</text>
</g>
<!-- c27 -->
<g id="node16" class="node"><title>c27</title>
<polygon fill="none" stroke="black" points="513.08,-136.5 513.08,-205.5 635.08,-205.5 635.08,-136.5 513.08,-136.5"/>
<text text-anchor="middle" x="538.58" y="-190.3" font-family="Times,serif" font-size="14.00">ARST</text>
<polyline fill="none" stroke="black" points="513.08,-182.5 564.08,-182.5 "/>
<text text-anchor="middle" x="538.58" y="-167.3" font-family="Times,serif" font-size="14.00">CLK</text>
<polyline fill="none" stroke="black" points="513.08,-159.5 564.08,-159.5 "/>
<text text-anchor="middle" x="538.58" y="-144.3" font-family="Times,serif" font-size="14.00">D</text>
<polyline fill="none" stroke="black" points="564.08,-136.5 564.08,-205.5 "/>
<text text-anchor="middle" x="586.58" y="-174.8" font-family="Times,serif" font-size="14.00">$6</text>
<text text-anchor="middle" x="586.58" y="-159.8" font-family="Times,serif" font-size="14.00">$adff</text>
<polyline fill="none" stroke="black" points="609.08,-136.5 609.08,-205.5 "/>
<text text-anchor="middle" x="622.08" y="-167.3" font-family="Times,serif" font-size="14.00">Q</text>
</g>
<!-- n7&#45;&gt;c27 -->
<g id="edge20" class="edge"><title>n7:e&#45;&gt;c27:p24:w</title>
<path fill="none" stroke="black" d="M325.29,-383C409.225,-383 348.319,-271.378 409.58,-214 443.031,-182.67 460.116,-172.462 501.858,-171.15"/>
<polygon fill="black" stroke="black" points="502.133,-174.647 512.08,-171 502.03,-167.648 502.133,-174.647"/>
</g>
<!-- c38 -->
<g id="node23" class="node"><title>c38</title>
<polygon fill="none" stroke="black" points="409.58,-468.5 409.58,-629.5 738.58,-629.5 738.58,-468.5 409.58,-468.5"/>
<text text-anchor="middle" x="490.08" y="-614.3" font-family="Times,serif" font-size="14.00">CLOCK_ENABLE</text>
<polyline fill="none" stroke="black" points="409.58,-606.5 570.58,-606.5 "/>
<text text-anchor="middle" x="490.08" y="-591.3" font-family="Times,serif" font-size="14.00">D_OUT_0</text>
<polyline fill="none" stroke="black" points="409.58,-583.5 570.58,-583.5 "/>
<text text-anchor="middle" x="490.08" y="-568.3" font-family="Times,serif" font-size="14.00">D_OUT_1</text>
<polyline fill="none" stroke="black" points="409.58,-560.5 570.58,-560.5 "/>
<text text-anchor="middle" x="490.08" y="-545.3" font-family="Times,serif" font-size="14.00">INPUT_CLK</text>
<polyline fill="none" stroke="black" points="409.58,-537.5 570.58,-537.5 "/>
<text text-anchor="middle" x="490.08" y="-522.3" font-family="Times,serif" font-size="14.00">LATCH_INPUT_VALUE</text>
<polyline fill="none" stroke="black" points="409.58,-514.5 570.58,-514.5 "/>
<text text-anchor="middle" x="490.08" y="-499.3" font-family="Times,serif" font-size="14.00">OUTPUT_CLK</text>
<polyline fill="none" stroke="black" points="409.58,-491.5 570.58,-491.5 "/>
<text text-anchor="middle" x="490.08" y="-476.3" font-family="Times,serif" font-size="14.00">OUTPUT_ENABLE</text>
<polyline fill="none" stroke="black" points="570.58,-468.5 570.58,-629.5 "/>
<text text-anchor="middle" x="600.08" y="-552.8" font-family="Times,serif" font-size="14.00">u_sb_in</text>
<text text-anchor="middle" x="600.08" y="-537.8" font-family="Times,serif" font-size="14.00">SB_IO</text>
<polyline fill="none" stroke="black" points="629.58,-468.5 629.58,-629.5 "/>
<text text-anchor="middle" x="684.08" y="-599.3" font-family="Times,serif" font-size="14.00">D_IN_0</text>
<polyline fill="none" stroke="black" points="629.58,-576.5 738.58,-576.5 "/>
<text text-anchor="middle" x="684.08" y="-545.8" font-family="Times,serif" font-size="14.00">D_IN_1</text>
<polyline fill="none" stroke="black" points="629.58,-522.5 738.58,-522.5 "/>
<text text-anchor="middle" x="684.08" y="-491.8" font-family="Times,serif" font-size="14.00">PACKAGE_PIN</text>
</g>
<!-- n7&#45;&gt;c38 -->
<g id="edge21" class="edge"><title>n7:e&#45;&gt;c38:p31:w</title>
<path fill="none" stroke="black" d="M325.29,-383C357.487,-383 357.573,-409.064 373.58,-437 397.645,-479 363.194,-539.226 399.434,-547.935"/>
<polygon fill="black" stroke="black" points="399.269,-551.437 409.58,-549 400,-544.475 399.269,-551.437"/>
</g>
<!-- n7&#45;&gt;c38 -->
<g id="edge22" class="edge"><title>n7:e&#45;&gt;c38:p33:w</title>
<path fill="none" stroke="black" d="M325.29,-383C357.487,-383 355.017,-410.693 373.58,-437 390.511,-460.995 379.679,-493.795 399.492,-501.387"/>
<polygon fill="black" stroke="black" points="399.153,-504.877 409.58,-503 400.258,-497.964 399.153,-504.877"/>
</g>
<!-- c40 -->
<g id="node24" class="node"><title>c40</title>
<polygon fill="none" stroke="black" points="1058.44,-508 1058.44,-554 1243.44,-554 1243.44,-508 1058.44,-508"/>
<text text-anchor="middle" x="1071.44" y="-538.8" font-family="Times,serif" font-size="14.00">C</text>
<polyline fill="none" stroke="black" points="1058.44,-531 1084.44,-531 "/>
<text text-anchor="middle" x="1071.44" y="-515.8" font-family="Times,serif" font-size="14.00">D</text>
<polyline fill="none" stroke="black" points="1084.44,-508 1084.44,-554 "/>
<text text-anchor="middle" x="1150.94" y="-534.8" font-family="Times,serif" font-size="14.00">u_sb_in2sb_internal0</text>
<text text-anchor="middle" x="1150.94" y="-519.8" font-family="Times,serif" font-size="14.00">SB_DFF</text>
<polyline fill="none" stroke="black" points="1217.44,-508 1217.44,-554 "/>
<text text-anchor="middle" x="1230.44" y="-527.3" font-family="Times,serif" font-size="14.00">Q</text>
</g>
<!-- n7&#45;&gt;c40 -->
<g id="edge23" class="edge"><title>n7:e&#45;&gt;c40:p39:w</title>
<path fill="none" stroke="black" d="M325.29,-383C365.521,-383 370.435,-406.715 409.58,-416 652.732,-473.674 739.33,-370.542 969.441,-468 1013.2,-486.532 1006.99,-535.23 1046.76,-542.172"/>
<polygon fill="black" stroke="black" points="1046.69,-545.677 1056.94,-543 1047.26,-538.7 1046.69,-545.677"/>
</g>
<!-- c43 -->
<g id="node25" class="node"><title>c43</title>
<polygon fill="none" stroke="black" points="455.58,-224 455.58,-270 692.58,-270 692.58,-224 455.58,-224"/>
<text text-anchor="middle" x="472.08" y="-254.8" font-family="Times,serif" font-size="14.00">clk</text>
<polyline fill="none" stroke="black" points="455.58,-247 488.58,-247 "/>
<text text-anchor="middle" x="472.08" y="-231.8" font-family="Times,serif" font-size="14.00">in</text>
<polyline fill="none" stroke="black" points="488.58,-224 488.58,-270 "/>
<text text-anchor="middle" x="573.58" y="-250.8" font-family="Times,serif" font-size="14.00">u_sb_internal02sb_internal1</text>
<text text-anchor="middle" x="573.58" y="-235.8" font-family="Times,serif" font-size="14.00">sub_design</text>
<polyline fill="none" stroke="black" points="658.58,-224 658.58,-270 "/>
<text text-anchor="middle" x="675.58" y="-243.3" font-family="Times,serif" font-size="14.00">out</text>
</g>
<!-- n7&#45;&gt;c43 -->
<g id="edge24" class="edge"><title>n7:e&#45;&gt;c43:p7:w</title>
<path fill="none" stroke="black" d="M325.29,-383C401.179,-383 377.107,-269.89 444.015,-259.728"/>
<polygon fill="black" stroke="black" points="444.359,-263.213 454.08,-259 443.854,-256.231 444.359,-263.213"/>
</g>
<!-- c44 -->
<g id="node26" class="node"><title>c44</title>
<polygon fill="none" stroke="black" points="1005.44,-316 1005.44,-362 1296.44,-362 1296.44,-316 1005.44,-316"/>
<text text-anchor="middle" x="1021.94" y="-346.8" font-family="Times,serif" font-size="14.00">clk</text>
<polyline fill="none" stroke="black" points="1005.44,-339 1038.44,-339 "/>
<text text-anchor="middle" x="1021.94" y="-323.8" font-family="Times,serif" font-size="14.00">in</text>
<polyline fill="none" stroke="black" points="1038.44,-316 1038.44,-362 "/>
<text text-anchor="middle" x="1150.44" y="-342.8" font-family="Times,serif" font-size="14.00">u_sb_internal12sb_out</text>
<text text-anchor="middle" x="1150.44" y="-327.8" font-family="Times,serif" font-size="14.00">$paramod\sub_design\INSERT_FF=1</text>
<polyline fill="none" stroke="black" points="1262.44,-316 1262.44,-362 "/>
<text text-anchor="middle" x="1279.44" y="-335.3" font-family="Times,serif" font-size="14.00">out</text>
</g>
<!-- n7&#45;&gt;c44 -->
<g id="edge25" class="edge"><title>n7:e&#45;&gt;c44:p7:w</title>
<path fill="none" stroke="black" d="M325.29,-383C624.515,-383 701.106,-351.715 995.331,-351.012"/>
<polygon fill="black" stroke="black" points="995.446,-354.512 1005.44,-351 995.437,-347.512 995.446,-354.512"/>
</g>
<!-- c45 -->
<g id="node32" class="node"><title>c45</title>
<polygon fill="none" stroke="black" points="1544.92,-212.5 1544.92,-373.5 1880.92,-373.5 1880.92,-212.5 1544.92,-212.5"/>
<text text-anchor="middle" x="1625.42" y="-358.3" font-family="Times,serif" font-size="14.00">CLOCK_ENABLE</text>
<polyline fill="none" stroke="black" points="1544.92,-350.5 1705.92,-350.5 "/>
<text text-anchor="middle" x="1625.42" y="-335.3" font-family="Times,serif" font-size="14.00">D_OUT_0</text>
<polyline fill="none" stroke="black" points="1544.92,-327.5 1705.92,-327.5 "/>
<text text-anchor="middle" x="1625.42" y="-312.3" font-family="Times,serif" font-size="14.00">D_OUT_1</text>
<polyline fill="none" stroke="black" points="1544.92,-304.5 1705.92,-304.5 "/>
<text text-anchor="middle" x="1625.42" y="-289.3" font-family="Times,serif" font-size="14.00">INPUT_CLK</text>
<polyline fill="none" stroke="black" points="1544.92,-281.5 1705.92,-281.5 "/>
<text text-anchor="middle" x="1625.42" y="-266.3" font-family="Times,serif" font-size="14.00">LATCH_INPUT_VALUE</text>
<polyline fill="none" stroke="black" points="1544.92,-258.5 1705.92,-258.5 "/>
<text text-anchor="middle" x="1625.42" y="-243.3" font-family="Times,serif" font-size="14.00">OUTPUT_CLK</text>
<polyline fill="none" stroke="black" points="1544.92,-235.5 1705.92,-235.5 "/>
<text text-anchor="middle" x="1625.42" y="-220.3" font-family="Times,serif" font-size="14.00">OUTPUT_ENABLE</text>
<polyline fill="none" stroke="black" points="1705.92,-212.5 1705.92,-373.5 "/>
<text text-anchor="middle" x="1738.92" y="-296.8" font-family="Times,serif" font-size="14.00">u_sb_out</text>
<text text-anchor="middle" x="1738.92" y="-281.8" font-family="Times,serif" font-size="14.00">SB_IO</text>
<polyline fill="none" stroke="black" points="1771.92,-212.5 1771.92,-373.5 "/>
<text text-anchor="middle" x="1826.42" y="-343.3" font-family="Times,serif" font-size="14.00">D_IN_0</text>
<polyline fill="none" stroke="black" points="1771.92,-320.5 1880.92,-320.5 "/>
<text text-anchor="middle" x="1826.42" y="-289.8" font-family="Times,serif" font-size="14.00">D_IN_1</text>
<polyline fill="none" stroke="black" points="1771.92,-266.5 1880.92,-266.5 "/>
<text text-anchor="middle" x="1826.42" y="-235.8" font-family="Times,serif" font-size="14.00">PACKAGE_PIN</text>
</g>
<!-- n7&#45;&gt;c45 -->
<g id="edge26" class="edge"><title>n7:e&#45;&gt;c45:p31:w</title>
<path fill="none" stroke="black" d="M325.29,-383C364.494,-383 371.491,-366.282 409.58,-357 569.745,-317.967 610.386,-305.726 774.58,-291 860.839,-283.264 882.837,-290.85 969.441,-291 1221.84,-291.439 1287.43,-292.959 1534.9,-292.999"/>
<polygon fill="black" stroke="black" points="1534.92,-296.499 1544.92,-293 1534.92,-289.499 1534.92,-296.499"/>
</g>
<!-- n7&#45;&gt;c45 -->
<g id="edge27" class="edge"><title>n7:e&#45;&gt;c45:p33:w</title>
<path fill="none" stroke="black" d="M325.29,-383C362.776,-383 372.1,-385.333 409.58,-386 555.779,-388.601 592.371,-387.965 738.58,-386 986.586,-382.666 1103.87,-527.309 1296.44,-371 1350.01,-327.521 1278.29,-262.755 1332.44,-220 1394,-171.393 1434.51,-195.197 1508.92,-220 1523.89,-224.99 1525.2,-238.916 1534.91,-244.569"/>
<polygon fill="black" stroke="black" points="1534.38,-248.041 1544.92,-247 1536.03,-241.239 1534.38,-248.041"/>
</g>
<!-- n8 -->
<g id="node4" class="node"><title>n8</title>
<polygon fill="none" stroke="black" points="331.732,-148.544 331.732,-163.456 311.557,-174 283.024,-174 262.848,-163.456 262.848,-148.544 283.024,-138 311.557,-138 331.732,-148.544"/>
<text text-anchor="middle" x="297.29" y="-152.3" font-family="Times,serif" font-size="14.00">reset_</text>
</g>
<!-- c22 -->
<g id="node15" class="node"><title>c22</title>
<polygon fill="none" stroke="black" points="511.08,-79 511.08,-117 637.08,-117 637.08,-79 511.08,-79"/>
<text text-anchor="middle" x="524.08" y="-94.3" font-family="Times,serif" font-size="14.00">A</text>
<polyline fill="none" stroke="black" points="537.08,-79 537.08,-117 "/>
<text text-anchor="middle" x="574.08" y="-101.8" font-family="Times,serif" font-size="14.00">$2</text>
<text text-anchor="middle" x="574.08" y="-86.8" font-family="Times,serif" font-size="14.00">$logic_not</text>
<polyline fill="none" stroke="black" points="611.08,-79 611.08,-117 "/>
<text text-anchor="middle" x="624.08" y="-94.3" font-family="Times,serif" font-size="14.00">Y</text>
</g>
<!-- n8&#45;&gt;c22 -->
<g id="edge28" class="edge"><title>n8:e&#45;&gt;c22:p18:w</title>
<path fill="none" stroke="black" d="M333.29,-156C369.564,-156 375.172,-138.483 409.58,-127 450.233,-113.433 461.834,-100.234 499.82,-98.2549"/>
<polygon fill="black" stroke="black" points="500.17,-101.747 510.08,-98 499.996,-94.7496 500.17,-101.747"/>
</g>
<!-- n8&#45;&gt;c27 -->
<g id="edge29" class="edge"><title>n8:e&#45;&gt;c27:p23:w</title>
<path fill="none" stroke="black" d="M333.29,-156C411.037,-156 429.321,-190.805 501.957,-193.796"/>
<polygon fill="black" stroke="black" points="502.011,-197.297 512.08,-194 502.153,-190.299 502.011,-197.297"/>
</g>
<!-- n9 -->
<g id="node5" class="node"><title>n9</title>
<polygon fill="none" stroke="black" points="904.233,-487.544 904.233,-502.456 885.358,-513 858.664,-513 839.789,-502.456 839.789,-487.544 858.664,-477 885.358,-477 904.233,-487.544"/>
<text text-anchor="middle" x="872.011" y="-491.3" font-family="Times,serif" font-size="14.00">sb_in</text>
</g>
<!-- n10 -->
<g id="node6" class="node"><title>n10</title>
<polygon fill="none" stroke="black" points="872.011,-621 774.649,-603 872.011,-585 969.372,-603 872.011,-621"/>
<text text-anchor="middle" x="872.011" y="-599.3" font-family="Times,serif" font-size="14.00">sb_in_from_pad</text>
</g>
<!-- n10&#45;&gt;c40 -->
<g id="edge2" class="edge"><title>n10:e&#45;&gt;c40:p25:w</title>
<path fill="none" stroke="black" d="M969.441,-603C1019.66,-603 1005.46,-530.092 1046.88,-520.124"/>
<polygon fill="black" stroke="black" points="1047.39,-523.589 1056.94,-519 1046.61,-516.632 1047.39,-523.589"/>
</g>
<!-- n11 -->
<g id="node7" class="node"><title>n11</title>
<polygon fill="none" stroke="black" points="1420.68,-549 1350.13,-531 1420.68,-513 1491.23,-531 1420.68,-549"/>
<text text-anchor="middle" x="1420.68" y="-527.3" font-family="Times,serif" font-size="14.00">sb_internal</text>
</g>
<!-- n12 -->
<g id="node8" class="node"><title>n12</title>
<polygon fill="none" stroke="black" points="297.29,-253 221.209,-235 297.29,-217 373.371,-235 297.29,-253"/>
<text text-anchor="middle" x="297.29" y="-231.3" font-family="Times,serif" font-size="14.00">sb_internal0</text>
</g>
<!-- n12&#45;&gt;c43 -->
<g id="edge4" class="edge"><title>n12:e&#45;&gt;c43:p41:w</title>
<path fill="none" stroke="black" d="M373.58,-235C405.724,-235 416.209,-235 443.953,-235"/>
<polygon fill="black" stroke="black" points="444.08,-238.5 454.08,-235 444.08,-231.5 444.08,-238.5"/>
</g>
<!-- n13 -->
<g id="node9" class="node"><title>n13</title>
<polygon fill="none" stroke="black" points="872.011,-336 795.93,-318 872.011,-300 948.091,-318 872.011,-336"/>
<text text-anchor="middle" x="872.011" y="-314.3" font-family="Times,serif" font-size="14.00">sb_internal1</text>
</g>
<!-- n13&#45;&gt;c44 -->
<g id="edge6" class="edge"><title>n13:e&#45;&gt;c44:p41:w</title>
<path fill="none" stroke="black" d="M949.011,-318C970.638,-318 977.936,-324.526 995.309,-326.464"/>
<polygon fill="black" stroke="black" points="995.27,-329.967 1005.44,-327 995.64,-322.977 995.27,-329.967"/>
</g>
<!-- n14 -->
<g id="node10" class="node"><title>n14</title>
<polygon fill="none" stroke="black" points="1991.28,-231.544 1991.28,-246.456 1969.56,-257 1938.85,-257 1917.13,-246.456 1917.13,-231.544 1938.85,-221 1969.56,-221 1991.28,-231.544"/>
<text text-anchor="middle" x="1954.2" y="-235.3" font-family="Times,serif" font-size="14.00">sb_out</text>
</g>
<!-- n15 -->
<g id="node11" class="node"><title>n15</title>
<polygon fill="none" stroke="black" points="1420.68,-357 1332.2,-339 1420.68,-321 1509.16,-339 1420.68,-357"/>
<text text-anchor="middle" x="1420.68" y="-335.3" font-family="Times,serif" font-size="14.00">sb_out_to_pad</text>
</g>
<!-- n15&#45;&gt;c45 -->
<g id="edge9" class="edge"><title>n15:e&#45;&gt;c45:p29:w</title>
<path fill="none" stroke="black" d="M1508.92,-339C1520.92,-339 1526.17,-339 1534.79,-339"/>
<polygon fill="black" stroke="black" points="1534.92,-342.5 1544.92,-339 1534.92,-335.5 1534.92,-342.5"/>
</g>
<!-- n15&#45;&gt;c45 -->
<g id="edge10" class="edge"><title>n15:e&#45;&gt;c45:p30:w</title>
<path fill="none" stroke="black" d="M1508.92,-339C1523.75,-339 1525.79,-324.962 1535.03,-318.82"/>
<polygon fill="black" stroke="black" points="1536.26,-322.108 1544.92,-316 1534.34,-315.377 1536.26,-322.108"/>
</g>
<!-- n16 -->
<g id="node12" class="node"><title>n16</title>
<polygon fill="none" stroke="black" points="343.245,-726.544 343.245,-741.456 316.325,-752 278.255,-752 251.335,-741.456 251.335,-726.544 278.255,-716 316.325,-716 343.245,-726.544"/>
<text text-anchor="middle" x="297.29" y="-730.3" font-family="Times,serif" font-size="14.00">sb_out_z</text>
</g>
<!-- n17 -->
<g id="node13" class="node"><title>n17</title>
<polygon fill="none" stroke="black" points="899.011,-163.544 899.011,-178.456 883.195,-189 860.827,-189 845.011,-178.456 845.011,-163.544 860.827,-153 883.195,-153 899.011,-163.544"/>
<text text-anchor="middle" x="872.011" y="-167.3" font-family="Times,serif" font-size="14.00">z</text>
</g>
<!-- n3 -->
<g id="node37" class="node"><title>n3</title>
<ellipse fill="black" stroke="black" cx="297.29" cy="-68" rx="1.8" ry="1.8"/>
</g>
<!-- c21&#45;&gt;n3 -->
<g id="edge14" class="edge"><title>c21:p20:e&#45;&gt;n3:w</title>
<path fill="none" stroke="black" stroke-width="3" d="M185,-68C229.968,-68 243.713,-68 284.047,-68"/>
<polygon fill="black" stroke="black" stroke-width="3" points="284.29,-71.5001 294.29,-68 284.29,-64.5001 284.29,-71.5001"/>
</g>
<!-- n4 -->
<g id="node38" class="node"><title>n4</title>
<polygon fill="none" stroke="black" points="872.011,-116 828.609,-98 872.011,-80 915.412,-98 872.011,-116"/>
<text text-anchor="middle" x="872.011" y="-94.3" font-family="Times,serif" font-size="14.00">$2_Y</text>
</g>
<!-- c22&#45;&gt;n4 -->
<g id="edge17" class="edge"><title>c22:p20:e&#45;&gt;n4:w</title>
<path fill="none" stroke="black" d="M638.08,-98C718.605,-98 741.214,-98 816.988,-98"/>
<polygon fill="black" stroke="black" points="817.011,-101.5 827.011,-98 817.011,-94.5001 817.011,-101.5"/>
</g>
<!-- c27&#45;&gt;n17 -->
<g id="edge12" class="edge"><title>c27:p26:e&#45;&gt;n17:w</title>
<path fill="none" stroke="black" stroke-width="3" d="M636.08,-171C725.064,-171 749.787,-171 834.002,-171"/>
<polygon fill="black" stroke="black" stroke-width="3" points="834.011,-174.5 844.011,-171 834.011,-167.5 834.011,-174.5"/>
</g>
<!-- v0 -->
<g id="node17" class="node"><title>v0</title>
<ellipse fill="none" stroke="black" cx="297.29" cy="-680" rx="27" ry="18"/>
<text text-anchor="middle" x="297.29" y="-676.3" font-family="Times,serif" font-size="14.00">1&#39;0</text>
</g>
<!-- v0&#45;&gt;c38 -->
<g id="edge31" class="edge"><title>v0:e&#45;&gt;c38:p28:w</title>
<path fill="none" stroke="black" d="M325.29,-680C349.879,-680 353.866,-667.696 373.58,-653 388.117,-642.164 388.065,-625.831 399.504,-620.087"/>
<polygon fill="black" stroke="black" points="400.498,-623.456 409.58,-618 399.078,-616.601 400.498,-623.456"/>
</g>
<!-- v1 -->
<g id="node18" class="node"><title>v1</title>
<ellipse fill="none" stroke="black" cx="872.011" cy="-549" rx="27" ry="18"/>
</g>
<!-- v2 -->
<g id="node19" class="node"><title>v2</title>
<ellipse fill="none" stroke="black" cx="297.29" cy="-626" rx="27" ry="18"/>
<text text-anchor="middle" x="297.29" y="-622.3" font-family="Times,serif" font-size="14.00">1&#39;0</text>
</g>
<!-- v2&#45;&gt;c38 -->
<g id="edge35" class="edge"><title>v2:e&#45;&gt;c38:p29:w</title>
<path fill="none" stroke="black" d="M325.29,-626C361.463,-626 368.517,-600.54 399.23,-595.766"/>
<polygon fill="black" stroke="black" points="399.866,-599.229 409.58,-595 399.349,-592.248 399.866,-599.229"/>
</g>
<!-- v3 -->
<g id="node20" class="node"><title>v3</title>
<ellipse fill="none" stroke="black" cx="297.29" cy="-572" rx="27" ry="18"/>
<text text-anchor="middle" x="297.29" y="-568.3" font-family="Times,serif" font-size="14.00">1&#39;0</text>
</g>
<!-- v3&#45;&gt;c38 -->
<g id="edge36" class="edge"><title>v3:e&#45;&gt;c38:p30:w</title>
<path fill="none" stroke="black" d="M325.29,-572C359.094,-572 370.021,-572 399.356,-572"/>
<polygon fill="black" stroke="black" points="399.58,-575.5 409.58,-572 399.58,-568.5 399.58,-575.5"/>
</g>
<!-- v4 -->
<g id="node21" class="node"><title>v4</title>
<ellipse fill="none" stroke="black" cx="297.29" cy="-518" rx="27" ry="18"/>
<text text-anchor="middle" x="297.29" y="-514.3" font-family="Times,serif" font-size="14.00">1&#39;1</text>
</g>
<!-- v4&#45;&gt;c38 -->
<g id="edge37" class="edge"><title>v4:e&#45;&gt;c38:p32:w</title>
<path fill="none" stroke="black" d="M325.29,-518C359.246,-518 369.913,-524.514 399.321,-525.786"/>
<polygon fill="black" stroke="black" points="399.509,-529.291 409.58,-526 399.655,-522.292 399.509,-529.291"/>
</g>
<!-- v5 -->
<g id="node22" class="node"><title>v5</title>
<ellipse fill="none" stroke="black" cx="297.29" cy="-464" rx="27" ry="18"/>
<text text-anchor="middle" x="297.29" y="-460.3" font-family="Times,serif" font-size="14.00">1&#39;0</text>
</g>
<!-- v5&#45;&gt;c38 -->
<g id="edge38" class="edge"><title>v5:e&#45;&gt;c38:p34:w</title>
<path fill="none" stroke="black" d="M325.29,-464C359.697,-464 369.594,-477.028 399.214,-479.572"/>
<polygon fill="black" stroke="black" points="399.444,-483.084 409.58,-480 399.733,-476.09 399.444,-483.084"/>
</g>
<!-- c38&#45;&gt;n9 -->
<g id="edge30" class="edge"><title>c38:p37:e&#45;&gt;n9:w</title>
<path fill="none" stroke="black" d="M738.58,-495C779.554,-495 792.319,-495 828.665,-495"/>
<polygon fill="black" stroke="black" points="829.011,-498.5 839.011,-495 829.011,-491.5 829.011,-498.5"/>
</g>
<!-- c38&#45;&gt;n10 -->
<g id="edge1" class="edge"><title>c38:p35:e&#45;&gt;n10:w</title>
<path fill="none" stroke="black" d="M738.58,-603C750.58,-603 755.83,-603 764.455,-603"/>
<polygon fill="black" stroke="black" points="764.58,-606.5 774.58,-603 764.58,-599.5 764.58,-606.5"/>
</g>
<!-- c38&#45;&gt;v1 -->
<g id="edge32" class="edge"><title>c38:p36:e&#45;&gt;v1:w</title>
<path fill="none" stroke="black" d="M738.58,-550C781.779,-550 795.106,-549.15 833.638,-549.017"/>
<polygon fill="black" stroke="black" points="834.017,-552.517 844.011,-549 834.005,-545.517 834.017,-552.517"/>
</g>
<!-- c40&#45;&gt;n11 -->
<g id="edge3" class="edge"><title>c40:p26:e&#45;&gt;n11:w</title>
<path fill="none" stroke="black" d="M1244.94,-531C1287.45,-531 1300.56,-531 1338.47,-531"/>
<polygon fill="black" stroke="black" points="1338.68,-534.5 1348.68,-531 1338.68,-527.5 1338.68,-534.5"/>
</g>
<!-- c43&#45;&gt;n13 -->
<g id="edge5" class="edge"><title>c43:p42:e&#45;&gt;n13:w</title>
<path fill="none" stroke="black" d="M694.08,-247C745.283,-247 741.048,-308.883 784.889,-317.102"/>
<polygon fill="black" stroke="black" points="784.741,-320.603 795.011,-318 785.359,-313.63 784.741,-320.603"/>
</g>
<!-- c44&#45;&gt;n15 -->
<g id="edge8" class="edge"><title>c44:p42:e&#45;&gt;n15:w</title>
<path fill="none" stroke="black" d="M1296.44,-339C1308.44,-339 1313.69,-339 1322.32,-339"/>
<polygon fill="black" stroke="black" points="1322.44,-342.5 1332.44,-339 1322.44,-335.5 1322.44,-342.5"/>
</g>
<!-- v6 -->
<g id="node27" class="node"><title>v6</title>
<ellipse fill="none" stroke="black" cx="1420.68" cy="-393" rx="27" ry="18"/>
<text text-anchor="middle" x="1420.68" y="-389.3" font-family="Times,serif" font-size="14.00">1&#39;0</text>
</g>
<!-- v6&#45;&gt;c45 -->
<g id="edge39" class="edge"><title>v6:e&#45;&gt;c45:p28:w</title>
<path fill="none" stroke="black" d="M1448.68,-393C1489.93,-393 1498.68,-366.877 1534.6,-362.592"/>
<polygon fill="black" stroke="black" points="1535.14,-366.067 1544.92,-362 1534.74,-359.078 1535.14,-366.067"/>
</g>
<!-- v7 -->
<g id="node28" class="node"><title>v7</title>
<ellipse fill="none" stroke="black" cx="1954.2" cy="-347" rx="27" ry="18"/>
</g>
<!-- v8 -->
<g id="node29" class="node"><title>v8</title>
<ellipse fill="none" stroke="black" cx="1954.2" cy="-293" rx="27" ry="18"/>
</g>
<!-- v9 -->
<g id="node30" class="node"><title>v9</title>
<ellipse fill="none" stroke="black" cx="1420.68" cy="-247" rx="27" ry="18"/>
<text text-anchor="middle" x="1420.68" y="-243.3" font-family="Times,serif" font-size="14.00">1&#39;0</text>
</g>
<!-- v9&#45;&gt;c45 -->
<g id="edge42" class="edge"><title>v9:e&#45;&gt;c45:p32:w</title>
<path fill="none" stroke="black" d="M1448.68,-247C1489.05,-247 1499.34,-266.381 1534.78,-269.561"/>
<polygon fill="black" stroke="black" points="1534.78,-273.064 1544.92,-270 1535.08,-266.071 1534.78,-273.064"/>
</g>
<!-- v10 -->
<g id="node31" class="node"><title>v10</title>
<ellipse fill="none" stroke="black" cx="1420.68" cy="-155" rx="27" ry="18"/>
<text text-anchor="middle" x="1420.68" y="-151.3" font-family="Times,serif" font-size="14.00">1&#39;1</text>
</g>
<!-- v10&#45;&gt;c45 -->
<g id="edge33" class="edge"><title>v10:e&#45;&gt;c45:p34:w</title>
<path fill="none" stroke="black" d="M1448.68,-155C1479,-155 1484.67,-168.806 1508.92,-187 1523.97,-198.296 1523.12,-215.957 1534.99,-221.94"/>
<polygon fill="black" stroke="black" points="1534.42,-225.396 1544.92,-224 1535.84,-218.542 1534.42,-225.396"/>
</g>
<!-- c45&#45;&gt;n14 -->
<g id="edge7" class="edge"><title>c45:p37:e&#45;&gt;n14:w</title>
<path fill="none" stroke="black" d="M1880.92,-239C1892.92,-239 1898.17,-239 1906.79,-239"/>
<polygon fill="black" stroke="black" points="1906.92,-242.5 1916.92,-239 1906.92,-235.5 1906.92,-242.5"/>
</g>
<!-- c45&#45;&gt;v7 -->
<g id="edge40" class="edge"><title>c45:p35:e&#45;&gt;v7:w</title>
<path fill="none" stroke="black" d="M1880.92,-347C1897.12,-347 1903.54,-347 1915.91,-347"/>
<polygon fill="black" stroke="black" points="1916.2,-350.5 1926.2,-347 1916.2,-343.5 1916.2,-350.5"/>
</g>
<!-- c45&#45;&gt;v8 -->
<g id="edge41" class="edge"><title>c45:p36:e&#45;&gt;v8:w</title>
<path fill="none" stroke="black" d="M1880.92,-294C1897.12,-294 1903.54,-293.352 1915.91,-293.1"/>
<polygon fill="black" stroke="black" points="1916.24,-296.597 1926.2,-293 1916.17,-289.597 1916.24,-296.597"/>
</g>
<!-- v11 -->
<g id="node33" class="node"><title>v11</title>
<ellipse fill="none" stroke="black" cx="27" cy="-734" rx="27" ry="18"/>
<text text-anchor="middle" x="27" y="-730.3" font-family="Times,serif" font-size="14.00">1&#39;z</text>
</g>
<!-- x12 -->
<g id="node34" class="node"><title>x12</title>
<path fill="none" stroke="black" d="M152.5,-752C152.5,-752 122.5,-752 122.5,-752 116.5,-752 110.5,-746 110.5,-740 110.5,-740 110.5,-728 110.5,-728 110.5,-722 116.5,-716 122.5,-716 122.5,-716 152.5,-716 152.5,-716 158.5,-716 164.5,-722 164.5,-728 164.5,-728 164.5,-740 164.5,-740 164.5,-746 158.5,-752 152.5,-752"/>
<text text-anchor="middle" x="137.5" y="-730.3" font-family="Times,serif" font-size="14.00">BUF</text>
</g>
<!-- v11&#45;&gt;x12 -->
<g id="edge34" class="edge"><title>v11:e&#45;&gt;x12:w:w</title>
<path fill="none" stroke="black" d="M54,-734C74.8125,-734 82.4546,-734 99.1513,-734"/>
<polygon fill="black" stroke="black" points="99.5,-737.5 109.5,-734 99.5,-730.5 99.5,-737.5"/>
</g>
<!-- x12&#45;&gt;n16 -->
<g id="edge11" class="edge"><title>x12:e:e&#45;&gt;n16:w</title>
<path fill="none" stroke="black" d="M165.5,-734C199.504,-734 210.496,-734 240.006,-734"/>
<polygon fill="black" stroke="black" points="240.29,-737.5 250.29,-734 240.29,-730.5 240.29,-737.5"/>
</g>
<!-- x13 -->
<g id="node35" class="node"><title>x13</title>
<path fill="none" stroke="black" d="M589.08,-60C589.08,-60 559.08,-60 559.08,-60 553.08,-60 547.08,-54 547.08,-48 547.08,-48 547.08,-36 547.08,-36 547.08,-30 553.08,-24 559.08,-24 559.08,-24 589.08,-24 589.08,-24 595.08,-24 601.08,-30 601.08,-36 601.08,-36 601.08,-48 601.08,-48 601.08,-54 595.08,-60 589.08,-60"/>
<text text-anchor="middle" x="574.08" y="-38.3" font-family="Times,serif" font-size="14.00">BUF</text>
</g>
<!-- n2 -->
<g id="node36" class="node"><title>n2</title>
<polygon fill="none" stroke="black" points="872.011,-60 811.182,-42 872.011,-24 932.84,-42 872.011,-60"/>
<text text-anchor="middle" x="872.011" y="-38.3" font-family="Times,serif" font-size="14.00">$0\z[7:0]</text>
</g>
<!-- x13&#45;&gt;n2 -->
<g id="edge13" class="edge"><title>x13:e:e&#45;&gt;n2:w</title>
<path fill="none" stroke="black" stroke-width="3" d="M602.08,-42C691.064,-42 715.787,-42 800.002,-42"/>
<polygon fill="black" stroke="black" stroke-width="3" points="800.011,-45.5001 810.011,-42 800.011,-38.5001 800.011,-45.5001"/>
</g>
<!-- n3&#45;&gt;c27 -->
<g id="edge15" class="edge"><title>n3:e&#45;&gt;c27:p25:w</title>
<path fill="none" stroke="black" stroke-width="3" d="M300.29,-68C355.28,-68 357.918,-107.161 409.58,-126 449.934,-140.715 463.398,-146.996 501.759,-147.888"/>
<polygon fill="black" stroke="black" stroke-width="3" points="502.043,-151.391 512.08,-148 502.119,-144.391 502.043,-151.391"/>
</g>
<!-- n3&#45;&gt;x13 -->
<g id="edge16" class="edge"><title>n3:e&#45;&gt;x13:w:w</title>
<path fill="none" stroke="black" stroke-width="3" d="M300.29,-68C406.707,-68 434.518,-43.5996 536.022,-42.0746"/>
<polygon fill="black" stroke="black" stroke-width="3" points="536.106,-45.5742 546.08,-42 536.054,-38.5743 536.106,-45.5742"/>
</g>
</g>
</svg>
