<?xml version="1.0" encoding="UTF-8" standalone="no"?>
<!DOCTYPE svg PUBLIC "-//W3C//DTD SVG 1.1//EN"
 "http://www.w3.org/Graphics/SVG/1.1/DTD/svg11.dtd">
<!-- Generated by graphviz version 2.38.0 (20140413.2041)
 -->
<!-- Title: simple_design Pages: 1 -->
<svg width="617pt" height="224pt"
 viewBox="0.00 0.00 617.27 223.50" xmlns="http://www.w3.org/2000/svg" xmlns:xlink="http://www.w3.org/1999/xlink">
<g id="graph0" class="graph" transform="scale(1 1) rotate(0) translate(4 219.5)">
<title>simple_design</title>
<polygon fill="white" stroke="none" points="-4,4 -4,-219.5 613.271,-219.5 613.271,4 -4,4"/>
<text text-anchor="middle" x="304.636" y="-7.8" font-family="Times,serif" font-size="14.00">simple_design</text>
<!-- n5 -->
<g id="node1" class="node"><title>n5</title>
<polygon fill="none" stroke="black" points="54,-87.5442 54,-102.456 38.1838,-113 15.8162,-113 3.55271e-15,-102.456 0,-87.5442 15.8162,-77 38.1838,-77 54,-87.5442"/>
<text text-anchor="middle" x="27" y="-91.3" font-family="Times,serif" font-size="14.00">a</text>
</g>
<!-- c13 -->
<g id="node6" class="node"><title>c13</title>
<polygon fill="none" stroke="black" points="90,-45 90,-91 185,-91 185,-45 90,-45"/>
<text text-anchor="middle" x="103" y="-75.8" font-family="Times,serif" font-size="14.00">A</text>
<polyline fill="none" stroke="black" points="90,-68 116,-68 "/>
<text text-anchor="middle" x="103" y="-52.8" font-family="Times,serif" font-size="14.00">B</text>
<polyline fill="none" stroke="black" points="116,-45 116,-91 "/>
<text text-anchor="middle" x="137.5" y="-71.8" font-family="Times,serif" font-size="14.00">$3</text>
<text text-anchor="middle" x="137.5" y="-56.8" font-family="Times,serif" font-size="14.00">$add</text>
<polyline fill="none" stroke="black" points="159,-45 159,-91 "/>
<text text-anchor="middle" x="172" y="-64.3" font-family="Times,serif" font-size="14.00">Y</text>
</g>
<!-- n5&#45;&gt;c13 -->
<g id="edge6" class="edge"><title>n5:e&#45;&gt;c13:p10:w</title>
<path fill="none" stroke="black" stroke-width="3" d="M54,-95C67.2708,-95 71.1628,-86.2073 80.0372,-82.0857"/>
<polygon fill="black" stroke="black" stroke-width="3" points="80.9294,-85.4749 90,-80 79.495,-78.6234 80.9294,-85.4749"/>
</g>
<!-- n6 -->
<g id="node2" class="node"><title>n6</title>
<polygon fill="none" stroke="black" points="54,-33.5442 54,-48.4558 38.1838,-59 15.8162,-59 3.55271e-15,-48.4558 0,-33.5442 15.8162,-23 38.1838,-23 54,-33.5442"/>
<text text-anchor="middle" x="27" y="-37.3" font-family="Times,serif" font-size="14.00">b</text>
</g>
<!-- n6&#45;&gt;c13 -->
<g id="edge7" class="edge"><title>n6:e&#45;&gt;c13:p11:w</title>
<path fill="none" stroke="black" stroke-width="3" d="M54,-41C67.2708,-41 71.1628,-49.7927 80.0372,-53.9143"/>
<polygon fill="black" stroke="black" stroke-width="3" points="79.495,-57.3766 90,-56 80.9294,-50.5251 79.495,-57.3766"/>
</g>
<!-- n7 -->
<g id="node3" class="node"><title>n7</title>
<polygon fill="none" stroke="black" points="282.471,-115.544 282.471,-130.456 266.655,-141 244.287,-141 228.471,-130.456 228.471,-115.544 244.287,-105 266.655,-105 282.471,-115.544"/>
<text text-anchor="middle" x="255.471" y="-119.3" font-family="Times,serif" font-size="14.00">clk</text>
</g>
<!-- c19 -->
<g id="node8" class="node"><title>c19</title>
<polygon fill="none" stroke="black" points="327.942,-88.5 327.942,-157.5 449.942,-157.5 449.942,-88.5 327.942,-88.5"/>
<text text-anchor="middle" x="353.442" y="-142.3" font-family="Times,serif" font-size="14.00">ARST</text>
<polyline fill="none" stroke="black" points="327.942,-134.5 378.942,-134.5 "/>
<text text-anchor="middle" x="353.442" y="-119.3" font-family="Times,serif" font-size="14.00">CLK</text>
<polyline fill="none" stroke="black" points="327.942,-111.5 378.942,-111.5 "/>
<text text-anchor="middle" x="353.442" y="-96.3" font-family="Times,serif" font-size="14.00">D</text>
<polyline fill="none" stroke="black" points="378.942,-88.5 378.942,-157.5 "/>
<text text-anchor="middle" x="401.442" y="-126.8" font-family="Times,serif" font-size="14.00">$4</text>
<text text-anchor="middle" x="401.442" y="-111.8" font-family="Times,serif" font-size="14.00">$adff</text>
<polyline fill="none" stroke="black" points="423.942,-88.5 423.942,-157.5 "/>
<text text-anchor="middle" x="436.942" y="-119.3" font-family="Times,serif" font-size="14.00">Q</text>
</g>
<!-- n7&#45;&gt;c19 -->
<g id="edge8" class="edge"><title>n7:e&#45;&gt;c19:p16:w</title>
<path fill="none" stroke="black" d="M283.471,-123C298.867,-123 305.062,-123 316.72,-123"/>
<polygon fill="black" stroke="black" points="316.942,-126.5 326.942,-123 316.942,-119.5 316.942,-126.5"/>
</g>
<!-- n8 -->
<g id="node4" class="node"><title>n8</title>
<polygon fill="none" stroke="black" points="289.913,-178.544 289.913,-193.456 269.738,-204 241.205,-204 221.029,-193.456 221.029,-178.544 241.205,-168 269.738,-168 289.913,-178.544"/>
<text text-anchor="middle" x="255.471" y="-182.3" font-family="Times,serif" font-size="14.00">reset_</text>
</g>
<!-- c14 -->
<g id="node7" class="node"><title>c14</title>
<polygon fill="none" stroke="black" points="325.942,-177 325.942,-215 451.942,-215 451.942,-177 325.942,-177"/>
<text text-anchor="middle" x="338.942" y="-192.3" font-family="Times,serif" font-size="14.00">A</text>
<polyline fill="none" stroke="black" points="351.942,-177 351.942,-215 "/>
<text text-anchor="middle" x="388.942" y="-199.8" font-family="Times,serif" font-size="14.00">$2</text>
<text text-anchor="middle" x="388.942" y="-184.8" font-family="Times,serif" font-size="14.00">$logic_not</text>
<polyline fill="none" stroke="black" points="425.942,-177 425.942,-215 "/>
<text text-anchor="middle" x="438.942" y="-192.3" font-family="Times,serif" font-size="14.00">Y</text>
</g>
<!-- n8&#45;&gt;c14 -->
<g id="edge9" class="edge"><title>n8:e&#45;&gt;c14:p10:w</title>
<path fill="none" stroke="black" d="M289.942,-186C302.526,-186 307.175,-191.743 315.916,-194.524"/>
<polygon fill="black" stroke="black" points="315.539,-198.007 325.942,-196 316.558,-191.081 315.539,-198.007"/>
</g>
<!-- n8&#45;&gt;c19 -->
<g id="edge10" class="edge"><title>n8:e&#45;&gt;c19:p15:w</title>
<path fill="none" stroke="black" d="M289.942,-186C309.997,-186 305.602,-158.568 317.253,-149.139"/>
<polygon fill="black" stroke="black" points="318.508,-152.411 326.942,-146 316.35,-145.752 318.508,-152.411"/>
</g>
<!-- n9 -->
<g id="node5" class="node"><title>n9</title>
<polygon fill="none" stroke="black" points="575.607,-115.544 575.607,-130.456 559.79,-141 537.423,-141 521.607,-130.456 521.607,-115.544 537.423,-105 559.79,-105 575.607,-115.544"/>
<text text-anchor="middle" x="548.607" y="-119.3" font-family="Times,serif" font-size="14.00">z</text>
</g>
<!-- n3 -->
<g id="node11" class="node"><title>n3</title>
<ellipse fill="black" stroke="black" cx="255.471" cy="-68" rx="1.8" ry="1.8"/>
</g>
<!-- c13&#45;&gt;n3 -->
<g id="edge2" class="edge"><title>c13:p12:e&#45;&gt;n3:w</title>
<path fill="none" stroke="black" stroke-width="3" d="M185,-68C211.239,-68 220.258,-68 242.192,-68"/>
<polygon fill="black" stroke="black" stroke-width="3" points="242.471,-71.5001 252.471,-68 242.471,-64.5001 242.471,-71.5001"/>
</g>
<!-- n4 -->
<g id="node12" class="node"><title>n4</title>
<polygon fill="none" stroke="black" points="548.607,-214 505.205,-196 548.607,-178 592.008,-196 548.607,-214"/>
<text text-anchor="middle" x="548.607" y="-192.3" font-family="Times,serif" font-size="14.00">$2_Y</text>
</g>
<!-- c14&#45;&gt;n4 -->
<g id="edge5" class="edge"><title>c14:p12:e&#45;&gt;n4:w</title>
<path fill="none" stroke="black" d="M451.942,-196C471.137,-196 478.298,-196 493.544,-196"/>
<polygon fill="black" stroke="black" points="493.607,-199.5 503.607,-196 493.607,-192.5 493.607,-199.5"/>
</g>
<!-- c19&#45;&gt;n9 -->
<g id="edge11" class="edge"><title>c19:p18:e&#45;&gt;n9:w</title>
<path fill="none" stroke="black" stroke-width="3" d="M450.942,-123C478.276,-123 487.512,-123 510.604,-123"/>
<polygon fill="black" stroke="black" stroke-width="3" points="510.607,-126.5 520.607,-123 510.607,-119.5 510.607,-126.5"/>
</g>
<!-- x0 -->
<g id="node9" class="node"><title>x0</title>
<path fill="none" stroke="black" d="M403.942,-70C403.942,-70 373.942,-70 373.942,-70 367.942,-70 361.942,-64 361.942,-58 361.942,-58 361.942,-46 361.942,-46 361.942,-40 367.942,-34 373.942,-34 373.942,-34 403.942,-34 403.942,-34 409.942,-34 415.942,-40 415.942,-46 415.942,-46 415.942,-58 415.942,-58 415.942,-64 409.942,-70 403.942,-70"/>
<text text-anchor="middle" x="388.942" y="-48.3" font-family="Times,serif" font-size="14.00">BUF</text>
</g>
<!-- n2 -->
<g id="node10" class="node"><title>n2</title>
<polygon fill="none" stroke="black" points="548.607,-70 487.777,-52 548.607,-34 609.436,-52 548.607,-70"/>
<text text-anchor="middle" x="548.607" y="-48.3" font-family="Times,serif" font-size="14.00">$0\z[7:0]</text>
</g>
<!-- x0&#45;&gt;n2 -->
<g id="edge1" class="edge"><title>x0:e:e&#45;&gt;n2:w</title>
<path fill="none" stroke="black" stroke-width="3" d="M416.942,-52C444.8,-52 454.213,-52 477.747,-52"/>
<polygon fill="black" stroke="black" stroke-width="3" points="477.942,-55.5001 487.942,-52 477.942,-48.5001 477.942,-55.5001"/>
</g>
<!-- n3&#45;&gt;c19 -->
<g id="edge3" class="edge"><title>n3:e&#45;&gt;c19:p17:w</title>
<path fill="none" stroke="black" stroke-width="3" d="M258.471,-68C288.388,-68 292.683,-93.3828 316.995,-98.9353"/>
<polygon fill="black" stroke="black" stroke-width="3" points="316.627,-102.416 326.942,-100 317.372,-95.4555 316.627,-102.416"/>
</g>
<!-- n3&#45;&gt;x0 -->
<g id="edge4" class="edge"><title>n3:e&#45;&gt;x0:w:w</title>
<path fill="none" stroke="black" stroke-width="3" d="M258.471,-68C300.965,-68 313.023,-54.4023 350.76,-52.2777"/>
<polygon fill="black" stroke="black" stroke-width="3" points="351.041,-55.7714 360.942,-52 350.851,-48.774 351.041,-55.7714"/>
</g>
</g>
</svg>
