<?xml version="1.0" encoding="UTF-8" standalone="no"?>
<!DOCTYPE svg PUBLIC "-//W3C//DTD SVG 1.1//EN"
 "http://www.w3.org/Graphics/SVG/1.1/DTD/svg11.dtd">
<!-- Generated by graphviz version 2.38.0 (20140413.2041)
 -->
<!-- Title: tribuf_design Pages: 1 -->
<svg width="846pt" height="429pt"
 viewBox="0.00 0.00 846.04 429.00" xmlns="http://www.w3.org/2000/svg" xmlns:xlink="http://www.w3.org/1999/xlink">
<g id="graph0" class="graph" transform="scale(1 1) rotate(0) translate(4 425)">
<title>tribuf_design</title>
<polygon fill="white" stroke="none" points="-4,4 -4,-425 842.038,-425 842.038,4 -4,4"/>
<text text-anchor="middle" x="419.019" y="-7.8" font-family="Times,serif" font-size="14.00">tribuf_design</text>
<!-- n7 -->
<g id="node1" class="node"><title>n7</title>
<polygon fill="none" stroke="black" points="173.5,-284.544 173.5,-299.456 157.684,-310 135.317,-310 119.5,-299.456 119.5,-284.544 135.317,-274 157.684,-274 173.5,-284.544"/>
<text text-anchor="middle" x="146.5" y="-288.3" font-family="Times,serif" font-size="14.00">a</text>
</g>
<!-- c24 -->
<g id="node12" class="node"><title>c24</title>
<polygon fill="none" stroke="black" points="232.5,-345.5 232.5,-414.5 332.5,-414.5 332.5,-345.5 232.5,-345.5"/>
<text text-anchor="middle" x="245.5" y="-399.3" font-family="Times,serif" font-size="14.00">A</text>
<polyline fill="none" stroke="black" points="232.5,-391.5 258.5,-391.5 "/>
<text text-anchor="middle" x="245.5" y="-376.3" font-family="Times,serif" font-size="14.00">B</text>
<polyline fill="none" stroke="black" points="232.5,-368.5 258.5,-368.5 "/>
<text text-anchor="middle" x="245.5" y="-353.3" font-family="Times,serif" font-size="14.00">S</text>
<polyline fill="none" stroke="black" points="258.5,-345.5 258.5,-414.5 "/>
<text text-anchor="middle" x="282.5" y="-383.8" font-family="Times,serif" font-size="14.00">$1</text>
<text text-anchor="middle" x="282.5" y="-368.8" font-family="Times,serif" font-size="14.00">$mux</text>
<polyline fill="none" stroke="black" points="306.5,-345.5 306.5,-414.5 "/>
<text text-anchor="middle" x="319.5" y="-376.3" font-family="Times,serif" font-size="14.00">Y</text>
</g>
<!-- n7&#45;&gt;c24 -->
<g id="edge16" class="edge"><title>n7:e&#45;&gt;c24:p21:w</title>
<path fill="none" stroke="black" d="M174.5,-292C217.5,-292 190.957,-366.155 222.548,-378.321"/>
<polygon fill="black" stroke="black" points="222.057,-381.787 232.5,-380 223.222,-374.885 222.057,-381.787"/>
</g>
<!-- c25 -->
<g id="node14" class="node"><title>c25</title>
<polygon fill="none" stroke="black" points="232.5,-115.5 232.5,-184.5 332.5,-184.5 332.5,-115.5 232.5,-115.5"/>
<text text-anchor="middle" x="245.5" y="-169.3" font-family="Times,serif" font-size="14.00">A</text>
<polyline fill="none" stroke="black" points="232.5,-161.5 258.5,-161.5 "/>
<text text-anchor="middle" x="245.5" y="-146.3" font-family="Times,serif" font-size="14.00">B</text>
<polyline fill="none" stroke="black" points="232.5,-138.5 258.5,-138.5 "/>
<text text-anchor="middle" x="245.5" y="-123.3" font-family="Times,serif" font-size="14.00">S</text>
<polyline fill="none" stroke="black" points="258.5,-115.5 258.5,-184.5 "/>
<text text-anchor="middle" x="282.5" y="-153.8" font-family="Times,serif" font-size="14.00">$2</text>
<text text-anchor="middle" x="282.5" y="-138.8" font-family="Times,serif" font-size="14.00">$mux</text>
<polyline fill="none" stroke="black" points="306.5,-115.5 306.5,-184.5 "/>
<text text-anchor="middle" x="319.5" y="-146.3" font-family="Times,serif" font-size="14.00">Y</text>
</g>
<!-- n7&#45;&gt;c25 -->
<g id="edge17" class="edge"><title>n7:e&#45;&gt;c25:p21:w</title>
<path fill="none" stroke="black" d="M174.5,-292C238.812,-292 172.733,-165.63 222.273,-151.315"/>
<polygon fill="black" stroke="black" points="223.028,-154.747 232.5,-150 222.136,-147.804 223.028,-154.747"/>
</g>
<!-- c27 -->
<g id="node18" class="node"><title>c27</title>
<polygon fill="none" stroke="black" points="232.5,-257.5 232.5,-326.5 332.5,-326.5 332.5,-257.5 232.5,-257.5"/>
<text text-anchor="middle" x="245.5" y="-311.3" font-family="Times,serif" font-size="14.00">A</text>
<polyline fill="none" stroke="black" points="232.5,-303.5 258.5,-303.5 "/>
<text text-anchor="middle" x="245.5" y="-288.3" font-family="Times,serif" font-size="14.00">B</text>
<polyline fill="none" stroke="black" points="232.5,-280.5 258.5,-280.5 "/>
<text text-anchor="middle" x="245.5" y="-265.3" font-family="Times,serif" font-size="14.00">S</text>
<polyline fill="none" stroke="black" points="258.5,-257.5 258.5,-326.5 "/>
<text text-anchor="middle" x="282.5" y="-295.8" font-family="Times,serif" font-size="14.00">$5</text>
<text text-anchor="middle" x="282.5" y="-280.8" font-family="Times,serif" font-size="14.00">$mux</text>
<polyline fill="none" stroke="black" points="306.5,-257.5 306.5,-326.5 "/>
<text text-anchor="middle" x="319.5" y="-288.3" font-family="Times,serif" font-size="14.00">Y</text>
</g>
<!-- n7&#45;&gt;c27 -->
<g id="edge18" class="edge"><title>n7:e&#45;&gt;c27:p21:w</title>
<path fill="none" stroke="black" d="M174.5,-292C196.452,-292 204.383,-292 222.173,-292"/>
<polygon fill="black" stroke="black" points="222.5,-295.5 232.5,-292 222.5,-288.5 222.5,-295.5"/>
</g>
<!-- n8 -->
<g id="node2" class="node"><title>n8</title>
<polygon fill="none" stroke="black" points="57.2502,-87.5442 57.2502,-102.456 41.4339,-113 19.0664,-113 3.25018,-102.456 3.25018,-87.5442 19.0664,-77 41.4339,-77 57.2502,-87.5442"/>
<text text-anchor="middle" x="30.2502" y="-91.3" font-family="Times,serif" font-size="14.00">b</text>
</g>
<!-- c26 -->
<g id="node16" class="node"><title>c26</title>
<polygon fill="none" stroke="black" points="96.5004,-60.5 96.5004,-129.5 196.5,-129.5 196.5,-60.5 96.5004,-60.5"/>
<text text-anchor="middle" x="109.5" y="-114.3" font-family="Times,serif" font-size="14.00">A</text>
<polyline fill="none" stroke="black" points="96.5004,-106.5 122.5,-106.5 "/>
<text text-anchor="middle" x="109.5" y="-91.3" font-family="Times,serif" font-size="14.00">B</text>
<polyline fill="none" stroke="black" points="96.5004,-83.5 122.5,-83.5 "/>
<text text-anchor="middle" x="109.5" y="-68.3" font-family="Times,serif" font-size="14.00">S</text>
<polyline fill="none" stroke="black" points="122.5,-60.5 122.5,-129.5 "/>
<text text-anchor="middle" x="146.5" y="-98.8" font-family="Times,serif" font-size="14.00">$3</text>
<text text-anchor="middle" x="146.5" y="-83.8" font-family="Times,serif" font-size="14.00">$mux</text>
<polyline fill="none" stroke="black" points="170.5,-60.5 170.5,-129.5 "/>
<text text-anchor="middle" x="183.5" y="-91.3" font-family="Times,serif" font-size="14.00">Y</text>
</g>
<!-- n8&#45;&gt;c26 -->
<g id="edge19" class="edge"><title>n8:e&#45;&gt;c26:p21:w</title>
<path fill="none" stroke="black" d="M58.2502,-95C71.2659,-95 76.8077,-95 86.32,-95"/>
<polygon fill="black" stroke="black" points="86.5004,-98.5001 96.5004,-95 86.5003,-91.5001 86.5004,-98.5001"/>
</g>
<!-- n9 -->
<g id="node3" class="node"><title>n9</title>
<polygon fill="none" stroke="black" points="545.671,-140 513.329,-122 545.671,-104 578.013,-122 545.671,-140"/>
<text text-anchor="middle" x="545.671" y="-118.3" font-family="Times,serif" font-size="14.00">bus</text>
</g>
<!-- x8 -->
<g id="node23" class="node"><title>x8</title>
<path fill="none" stroke="black" d="M655.841,-140C655.841,-140 625.841,-140 625.841,-140 619.841,-140 613.841,-134 613.841,-128 613.841,-128 613.841,-116 613.841,-116 613.841,-110 619.841,-104 625.841,-104 625.841,-104 655.841,-104 655.841,-104 661.841,-104 667.841,-110 667.841,-116 667.841,-116 667.841,-128 667.841,-128 667.841,-134 661.841,-140 655.841,-140"/>
<text text-anchor="middle" x="640.841" y="-118.3" font-family="Times,serif" font-size="14.00">BUF</text>
</g>
<!-- n9&#45;&gt;x8 -->
<g id="edge22" class="edge"><title>n9:e&#45;&gt;x8:w:w</title>
<path fill="none" stroke="black" d="M577.841,-122C589.841,-122 595.091,-122 603.716,-122"/>
<polygon fill="black" stroke="black" points="603.841,-125.5 613.841,-122 603.841,-118.5 603.841,-125.5"/>
</g>
<!-- n10 -->
<g id="node4" class="node"><title>n10</title>
<polygon fill="none" stroke="black" points="309.5,-213.544 309.5,-228.456 293.684,-239 271.317,-239 255.5,-228.456 255.5,-213.544 271.317,-203 293.684,-203 309.5,-213.544"/>
<text text-anchor="middle" x="282.5" y="-217.3" font-family="Times,serif" font-size="14.00">clk</text>
</g>
<!-- c19 -->
<g id="node10" class="node"><title>c19</title>
<polygon fill="none" stroke="black" points="368.5,-186 368.5,-232 477.5,-232 477.5,-186 368.5,-186"/>
<text text-anchor="middle" x="390.5" y="-216.8" font-family="Times,serif" font-size="14.00">CLK</text>
<polyline fill="none" stroke="black" points="368.5,-209 412.5,-209 "/>
<text text-anchor="middle" x="390.5" y="-193.8" font-family="Times,serif" font-size="14.00">D</text>
<polyline fill="none" stroke="black" points="412.5,-186 412.5,-232 "/>
<text text-anchor="middle" x="432" y="-212.8" font-family="Times,serif" font-size="14.00">$14</text>
<text text-anchor="middle" x="432" y="-197.8" font-family="Times,serif" font-size="14.00">$dff</text>
<polyline fill="none" stroke="black" points="451.5,-186 451.5,-232 "/>
<text text-anchor="middle" x="464.5" y="-205.3" font-family="Times,serif" font-size="14.00">Q</text>
</g>
<!-- n10&#45;&gt;c19 -->
<g id="edge1" class="edge"><title>n10:e&#45;&gt;c19:p16:w</title>
<path fill="none" stroke="black" d="M310.5,-221C332.452,-221 340.383,-221 358.173,-221"/>
<polygon fill="black" stroke="black" points="358.5,-224.5 368.5,-221 358.5,-217.5 358.5,-224.5"/>
</g>
<!-- n11 -->
<g id="node5" class="node"><title>n11</title>
<polygon fill="none" stroke="black" points="176.094,-230.544 176.094,-245.456 158.758,-256 134.242,-256 116.907,-245.456 116.907,-230.544 134.242,-220 158.758,-220 176.094,-230.544"/>
<text text-anchor="middle" x="146.5" y="-234.3" font-family="Times,serif" font-size="14.00">en_a</text>
</g>
<!-- n11&#45;&gt;c24 -->
<g id="edge2" class="edge"><title>n11:e&#45;&gt;c24:p22:w</title>
<path fill="none" stroke="black" d="M177.5,-238C231.896,-238 181.879,-341.72 222.408,-355.495"/>
<polygon fill="black" stroke="black" points="222.094,-358.987 232.5,-357 223.126,-352.064 222.094,-358.987"/>
</g>
<!-- n11&#45;&gt;c25 -->
<g id="edge3" class="edge"><title>n11:e&#45;&gt;c25:p22:w</title>
<path fill="none" stroke="black" d="M177.5,-238C228.686,-238 184.649,-142.061 222.444,-128.569"/>
<polygon fill="black" stroke="black" points="223.16,-132 232.5,-127 222.08,-125.084 223.16,-132"/>
</g>
<!-- n11&#45;&gt;c27 -->
<g id="edge4" class="edge"><title>n11:e&#45;&gt;c27:p22:w</title>
<path fill="none" stroke="black" d="M177.5,-238C201.614,-238 204.178,-260.894 222.231,-267.333"/>
<polygon fill="black" stroke="black" points="222.069,-270.853 232.5,-269 223.19,-263.943 222.069,-270.853"/>
</g>
<!-- n12 -->
<g id="node6" class="node"><title>n12</title>
<polygon fill="none" stroke="black" points="60.2526,-33.5442 60.2526,-48.4558 42.6776,-59 17.8228,-59 0.247776,-48.4558 0.247776,-33.5442 17.8228,-23 42.6776,-23 60.2526,-33.5442"/>
<text text-anchor="middle" x="30.2502" y="-37.3" font-family="Times,serif" font-size="14.00">en_b</text>
</g>
<!-- n12&#45;&gt;c26 -->
<g id="edge5" class="edge"><title>n12:e&#45;&gt;c26:p22:w</title>
<path fill="none" stroke="black" d="M60.5004,-41C77.491,-41 76.7759,-61.0732 86.8503,-68.9143"/>
<polygon fill="black" stroke="black" points="85.9094,-72.2879 96.5004,-72 88.0415,-65.6205 85.9094,-72.2879"/>
</g>
<!-- n13 -->
<g id="node7" class="node"><title>n13</title>
<polygon fill="none" stroke="black" points="572.671,-372.544 572.671,-387.456 556.855,-398 534.487,-398 518.671,-387.456 518.671,-372.544 534.487,-362 556.855,-362 572.671,-372.544"/>
<text text-anchor="middle" x="545.671" y="-376.3" font-family="Times,serif" font-size="14.00">z0</text>
</g>
<!-- n14 -->
<g id="node8" class="node"><title>n14</title>
<polygon fill="none" stroke="black" points="572.671,-201.544 572.671,-216.456 556.855,-227 534.487,-227 518.671,-216.456 518.671,-201.544 534.487,-191 556.855,-191 572.671,-201.544"/>
<text text-anchor="middle" x="545.671" y="-205.3" font-family="Times,serif" font-size="14.00">z1</text>
</g>
<!-- n15 -->
<g id="node9" class="node"><title>n15</title>
<polygon fill="none" stroke="black" points="572.671,-284.544 572.671,-299.456 556.855,-310 534.487,-310 518.671,-299.456 518.671,-284.544 534.487,-274 556.855,-274 572.671,-284.544"/>
<text text-anchor="middle" x="545.671" y="-288.3" font-family="Times,serif" font-size="14.00">z2</text>
</g>
<!-- c19&#45;&gt;n14 -->
<g id="edge7" class="edge"><title>c19:p18:e&#45;&gt;n14:w</title>
<path fill="none" stroke="black" d="M477.5,-209C491.448,-209 497.224,-209 507.596,-209"/>
<polygon fill="black" stroke="black" points="507.671,-212.5 517.671,-209 507.671,-205.5 507.671,-212.5"/>
</g>
<!-- v0 -->
<g id="node11" class="node"><title>v0</title>
<ellipse fill="none" stroke="black" cx="146.5" cy="-403" rx="27" ry="18"/>
<text text-anchor="middle" x="146.5" y="-399.3" font-family="Times,serif" font-size="14.00">1&#39;z</text>
</g>
<!-- v0&#45;&gt;c24 -->
<g id="edge23" class="edge"><title>v0:e&#45;&gt;c24:p20:w</title>
<path fill="none" stroke="black" d="M174.5,-403C196.452,-403 204.383,-403 222.173,-403"/>
<polygon fill="black" stroke="black" points="222.5,-406.5 232.5,-403 222.5,-399.5 222.5,-406.5"/>
</g>
<!-- x4 -->
<g id="node19" class="node"><title>x4</title>
<path fill="none" stroke="black" d="M438,-398C438,-398 408,-398 408,-398 402,-398 396,-392 396,-386 396,-386 396,-374 396,-374 396,-368 402,-362 408,-362 408,-362 438,-362 438,-362 444,-362 450,-368 450,-374 450,-374 450,-386 450,-386 450,-392 444,-398 438,-398"/>
<text text-anchor="middle" x="423" y="-376.3" font-family="Times,serif" font-size="14.00">BUF</text>
</g>
<!-- c24&#45;&gt;x4 -->
<g id="edge10" class="edge"><title>c24:p23:e&#45;&gt;x4:w:w</title>
<path fill="none" stroke="black" d="M332.5,-380C356.589,-380 365.01,-380 384.937,-380"/>
<polygon fill="black" stroke="black" points="385,-383.5 395,-380 385,-376.5 385,-383.5"/>
</g>
<!-- v1 -->
<g id="node13" class="node"><title>v1</title>
<ellipse fill="none" stroke="black" cx="146.5" cy="-173" rx="27" ry="18"/>
<text text-anchor="middle" x="146.5" y="-169.3" font-family="Times,serif" font-size="14.00">1&#39;z</text>
</g>
<!-- v1&#45;&gt;c25 -->
<g id="edge24" class="edge"><title>v1:e&#45;&gt;c25:p20:w</title>
<path fill="none" stroke="black" d="M174.5,-173C196.452,-173 204.383,-173 222.173,-173"/>
<polygon fill="black" stroke="black" points="222.5,-176.5 232.5,-173 222.5,-169.5 222.5,-176.5"/>
</g>
<!-- x5 -->
<g id="node20" class="node"><title>x5</title>
<path fill="none" stroke="black" d="M438,-167C438,-167 408,-167 408,-167 402,-167 396,-161 396,-155 396,-155 396,-143 396,-143 396,-137 402,-131 408,-131 408,-131 438,-131 438,-131 444,-131 450,-137 450,-143 450,-143 450,-155 450,-155 450,-161 444,-167 438,-167"/>
<text text-anchor="middle" x="423" y="-145.3" font-family="Times,serif" font-size="14.00">BUF</text>
</g>
<!-- c25&#45;&gt;x5 -->
<g id="edge11" class="edge"><title>c25:p23:e&#45;&gt;x5:w:w</title>
<path fill="none" stroke="black" d="M332.5,-150C356.592,-150 365.009,-149.248 384.937,-149.048"/>
<polygon fill="black" stroke="black" points="385.017,-152.548 395,-149 384.984,-145.548 385.017,-152.548"/>
</g>
<!-- v2 -->
<g id="node15" class="node"><title>v2</title>
<ellipse fill="none" stroke="black" cx="30.2502" cy="-149" rx="27" ry="18"/>
<text text-anchor="middle" x="30.2502" y="-145.3" font-family="Times,serif" font-size="14.00">1&#39;z</text>
</g>
<!-- v2&#45;&gt;c26 -->
<g id="edge25" class="edge"><title>v2:e&#45;&gt;c26:p20:w</title>
<path fill="none" stroke="black" d="M58.2502,-149C76.0295,-149 75.7228,-128.535 86.7199,-120.861"/>
<polygon fill="black" stroke="black" points="87.8851,-124.167 96.5004,-118 85.9199,-117.448 87.8851,-124.167"/>
</g>
<!-- n5 -->
<g id="node25" class="node"><title>n5</title>
<ellipse fill="black" stroke="black" cx="282.5" cy="-95" rx="1.8" ry="1.8"/>
</g>
<!-- c26&#45;&gt;n5 -->
<g id="edge12" class="edge"><title>c26:p23:e&#45;&gt;n5:w</title>
<path fill="none" stroke="black" d="M196.5,-95C229.787,-95 240.546,-95 269.433,-95"/>
<polygon fill="black" stroke="black" points="269.5,-98.5001 279.5,-95 269.5,-91.5001 269.5,-98.5001"/>
</g>
<!-- v3 -->
<g id="node17" class="node"><title>v3</title>
<ellipse fill="none" stroke="black" cx="146.5" cy="-346" rx="27" ry="18"/>
<text text-anchor="middle" x="146.5" y="-342.3" font-family="Times,serif" font-size="14.00">1&#39;z</text>
</g>
<!-- v3&#45;&gt;c27 -->
<g id="edge26" class="edge"><title>v3:e&#45;&gt;c27:p20:w</title>
<path fill="none" stroke="black" d="M174.5,-346C199.961,-346 202.896,-322.477 222.55,-316.413"/>
<polygon fill="black" stroke="black" points="223.092,-319.871 232.5,-315 222.108,-312.94 223.092,-319.871"/>
</g>
<!-- x7 -->
<g id="node22" class="node"><title>x7</title>
<path fill="none" stroke="black" d="M438,-310C438,-310 408,-310 408,-310 402,-310 396,-304 396,-298 396,-298 396,-286 396,-286 396,-280 402,-274 408,-274 408,-274 438,-274 438,-274 444,-274 450,-280 450,-286 450,-286 450,-298 450,-298 450,-304 444,-310 438,-310"/>
<text text-anchor="middle" x="423" y="-288.3" font-family="Times,serif" font-size="14.00">BUF</text>
</g>
<!-- c27&#45;&gt;x7 -->
<g id="edge15" class="edge"><title>c27:p23:e&#45;&gt;x7:w:w</title>
<path fill="none" stroke="black" d="M332.5,-292C356.589,-292 365.01,-292 384.937,-292"/>
<polygon fill="black" stroke="black" points="385,-295.5 395,-292 385,-288.5 385,-295.5"/>
</g>
<!-- x4&#45;&gt;n13 -->
<g id="edge6" class="edge"><title>x4:e:e&#45;&gt;n13:w</title>
<path fill="none" stroke="black" d="M451,-380C476.928,-380 485.84,-380 507.514,-380"/>
<polygon fill="black" stroke="black" points="507.671,-383.5 517.671,-380 507.671,-376.5 507.671,-383.5"/>
</g>
<!-- x5&#45;&gt;n9 -->
<g id="edge20" class="edge"><title>x5:e:e&#45;&gt;n9:w</title>
<path fill="none" stroke="black" d="M451,-149C477.477,-149 482.304,-128.328 503.368,-123.16"/>
<polygon fill="black" stroke="black" points="503.963,-126.615 513.5,-122 503.167,-119.66 503.963,-126.615"/>
</g>
<!-- x6 -->
<g id="node21" class="node"><title>x6</title>
<path fill="none" stroke="black" d="M438,-113C438,-113 408,-113 408,-113 402,-113 396,-107 396,-101 396,-101 396,-89 396,-89 396,-83 402,-77 408,-77 408,-77 438,-77 438,-77 444,-77 450,-83 450,-89 450,-89 450,-101 450,-101 450,-107 444,-113 438,-113"/>
<text text-anchor="middle" x="423" y="-91.3" font-family="Times,serif" font-size="14.00">BUF</text>
</g>
<!-- x6&#45;&gt;n9 -->
<g id="edge21" class="edge"><title>x6:e:e&#45;&gt;n9:w</title>
<path fill="none" stroke="black" d="M451,-95C477.477,-95 482.304,-115.672 503.368,-120.84"/>
<polygon fill="black" stroke="black" points="503.167,-124.34 513.5,-122 503.963,-117.385 503.167,-124.34"/>
</g>
<!-- x7&#45;&gt;n15 -->
<g id="edge8" class="edge"><title>x7:e:e&#45;&gt;n15:w</title>
<path fill="none" stroke="black" d="M451,-292C476.928,-292 485.84,-292 507.514,-292"/>
<polygon fill="black" stroke="black" points="507.671,-295.5 517.671,-292 507.671,-288.5 507.671,-295.5"/>
</g>
<!-- n2 -->
<g id="node24" class="node"><title>n2</title>
<polygon fill="none" stroke="black" points="770.94,-140 703.743,-122 770.94,-104 838.137,-122 770.94,-140"/>
<text text-anchor="middle" x="770.94" y="-118.3" font-family="Times,serif" font-size="14.00">$0\z1[0:0]</text>
</g>
<!-- x8&#45;&gt;n2 -->
<g id="edge9" class="edge"><title>x8:e:e&#45;&gt;n2:w</title>
<path fill="none" stroke="black" d="M667.841,-122C679.841,-122 685.091,-122 693.716,-122"/>
<polygon fill="black" stroke="black" points="693.841,-125.5 703.841,-122 693.841,-118.5 693.841,-125.5"/>
</g>
<!-- n5&#45;&gt;c19 -->
<g id="edge13" class="edge"><title>n5:e&#45;&gt;c19:p17:w</title>
<path fill="none" stroke="black" d="M285.5,-95C306.954,-95 316.259,-91.9835 332.5,-106 362.341,-131.753 331.941,-185.566 358.351,-195.43"/>
<polygon fill="black" stroke="black" points="358.083,-198.93 368.5,-197 359.153,-192.012 358.083,-198.93"/>
</g>
<!-- n5&#45;&gt;x6 -->
<g id="edge14" class="edge"><title>n5:e&#45;&gt;x6:w:w</title>
<path fill="none" stroke="black" d="M285.5,-95C330.65,-95 344.385,-95 384.994,-95"/>
<polygon fill="black" stroke="black" points="385,-98.5001 395,-95 385,-91.5001 385,-98.5001"/>
</g>
</g>
</svg>
