<?xml version="1.0" encoding="UTF-8" standalone="no"?>
<!DOCTYPE svg PUBLIC "-//W3C//DTD SVG 1.1//EN"
 "http://www.w3.org/Graphics/SVG/1.1/DTD/svg11.dtd">
<!-- Generated by graphviz version 2.38.0 (20140413.2041)
 -->
<!-- Title: tribuf_design Pages: 1 -->
<svg width="1079pt" height="328pt"
 viewBox="0.00 0.00 1079.44 327.50" xmlns="http://www.w3.org/2000/svg" xmlns:xlink="http://www.w3.org/1999/xlink">
<g id="graph0" class="graph" transform="scale(1 1) rotate(0) translate(4 323.5)">
<title>tribuf_design</title>
<polygon fill="white" stroke="none" points="-4,4 -4,-323.5 1075.44,-323.5 1075.44,4 -4,4"/>
<text text-anchor="middle" x="535.72" y="-7.8" font-family="Times,serif" font-size="14.00">tribuf_design</text>
<!-- n8 -->
<g id="node1" class="node"><title>n8</title>
<polygon fill="none" stroke="black" points="57.2502,-121.044 57.2502,-135.956 41.4339,-146.5 19.0664,-146.5 3.25018,-135.956 3.25018,-121.044 19.0664,-110.5 41.4339,-110.5 57.2502,-121.044"/>
<text text-anchor="middle" x="30.2502" y="-124.8" font-family="Times,serif" font-size="14.00">a</text>
</g>
<!-- x1 -->
<g id="node12" class="node"><title>x1</title>
<path fill="none" stroke="black" d="M134,-218.5C134,-218.5 173,-218.5 173,-218.5 179,-218.5 185,-224.5 185,-230.5 185,-230.5 185,-252.5 185,-252.5 185,-258.5 179,-264.5 173,-264.5 173,-264.5 134,-264.5 134,-264.5 128,-264.5 122,-258.5 122,-252.5 122,-252.5 122,-230.5 122,-230.5 122,-224.5 128,-218.5 134,-218.5"/>
<text text-anchor="middle" x="153.5" y="-249.3" font-family="Times,serif" font-size="14.00">0:0 &#45; 1:1</text>
<polyline fill="none" stroke="black" points="122,-241.5 185,-241.5 "/>
<text text-anchor="middle" x="153.5" y="-226.3" font-family="Times,serif" font-size="14.00">0:0 &#45; 0:0</text>
</g>
<!-- n8&#45;&gt;x1 -->
<g id="edge24" class="edge"><title>n8:e&#45;&gt;x1:s0:w</title>
<path fill="none" stroke="black" d="M58.2502,-128.5C107.067,-128.5 73.6558,-215.064 110.267,-227.914"/>
<polygon fill="black" stroke="black" points="110.082,-231.427 120.5,-229.5 111.155,-224.509 110.082,-231.427"/>
</g>
<!-- c27 -->
<g id="node15" class="node"><title>c27</title>
<polygon fill="none" stroke="black" points="96.5004,-23.5 96.5004,-69.5 210.5,-69.5 210.5,-23.5 96.5004,-23.5"/>
<text text-anchor="middle" x="114" y="-54.3" font-family="Times,serif" font-size="14.00">A</text>
<polyline fill="none" stroke="black" points="96.5004,-46.5 131.5,-46.5 "/>
<text text-anchor="middle" x="114" y="-31.3" font-family="Times,serif" font-size="14.00">EN</text>
<polyline fill="none" stroke="black" points="131.5,-23.5 131.5,-69.5 "/>
<text text-anchor="middle" x="158" y="-50.3" font-family="Times,serif" font-size="14.00">$1</text>
<text text-anchor="middle" x="158" y="-35.3" font-family="Times,serif" font-size="14.00">$tribuf</text>
<polyline fill="none" stroke="black" points="184.5,-23.5 184.5,-69.5 "/>
<text text-anchor="middle" x="197.5" y="-42.8" font-family="Times,serif" font-size="14.00">Y</text>
</g>
<!-- n8&#45;&gt;c27 -->
<g id="edge22" class="edge"><title>n8:e&#45;&gt;c27:p17:w</title>
<path fill="none" stroke="black" d="M58.2502,-128.5C89.5484,-128.5 67.7658,-73.9449 86.6232,-61.1586"/>
<polygon fill="black" stroke="black" points="87.7538,-64.479 96.5004,-58.5 85.9343,-57.7195 87.7538,-64.479"/>
</g>
<!-- c28 -->
<g id="node16" class="node"><title>c28</title>
<polygon fill="none" stroke="black" points="96.5004,-88.5 96.5004,-134.5 210.5,-134.5 210.5,-88.5 96.5004,-88.5"/>
<text text-anchor="middle" x="114" y="-119.3" font-family="Times,serif" font-size="14.00">A</text>
<polyline fill="none" stroke="black" points="96.5004,-111.5 131.5,-111.5 "/>
<text text-anchor="middle" x="114" y="-96.3" font-family="Times,serif" font-size="14.00">EN</text>
<polyline fill="none" stroke="black" points="131.5,-88.5 131.5,-134.5 "/>
<text text-anchor="middle" x="158" y="-115.3" font-family="Times,serif" font-size="14.00">$5</text>
<text text-anchor="middle" x="158" y="-100.3" font-family="Times,serif" font-size="14.00">$tribuf</text>
<polyline fill="none" stroke="black" points="184.5,-88.5 184.5,-134.5 "/>
<text text-anchor="middle" x="197.5" y="-107.8" font-family="Times,serif" font-size="14.00">Y</text>
</g>
<!-- n8&#45;&gt;c28 -->
<g id="edge23" class="edge"><title>n8:e&#45;&gt;c28:p17:w</title>
<path fill="none" stroke="black" d="M58.2502,-128.5C71.3766,-128.5 76.7748,-125.569 86.2787,-124.195"/>
<polygon fill="black" stroke="black" points="86.7609,-127.671 96.5004,-123.5 86.2859,-120.687 86.7609,-127.671"/>
</g>
<!-- n9 -->
<g id="node2" class="node"><title>n9</title>
<polygon fill="none" stroke="black" points="57.2502,-246.044 57.2502,-260.956 41.4339,-271.5 19.0664,-271.5 3.25018,-260.956 3.25018,-246.044 19.0664,-235.5 41.4339,-235.5 57.2502,-246.044"/>
<text text-anchor="middle" x="30.2502" y="-249.8" font-family="Times,serif" font-size="14.00">b</text>
</g>
<!-- n9&#45;&gt;x1 -->
<g id="edge25" class="edge"><title>n9:e&#45;&gt;x1:s1:w</title>
<path fill="none" stroke="black" d="M58.2502,-253.5C82.2424,-253.5 90.6304,-253.5 110.478,-253.5"/>
<polygon fill="black" stroke="black" points="110.5,-257 120.5,-253.5 110.5,-250 110.5,-257"/>
</g>
<!-- n10 -->
<g id="node3" class="node"><title>n10</title>
<polygon fill="none" stroke="black" points="779.072,-215.5 746.73,-197.5 779.072,-179.5 811.414,-197.5 779.072,-215.5"/>
<text text-anchor="middle" x="779.072" y="-193.8" font-family="Times,serif" font-size="14.00">bus</text>
</g>
<!-- x7 -->
<g id="node21" class="node"><title>x7</title>
<path fill="none" stroke="black" d="M889.242,-215.5C889.242,-215.5 859.242,-215.5 859.242,-215.5 853.242,-215.5 847.242,-209.5 847.242,-203.5 847.242,-203.5 847.242,-191.5 847.242,-191.5 847.242,-185.5 853.242,-179.5 859.242,-179.5 859.242,-179.5 889.242,-179.5 889.242,-179.5 895.242,-179.5 901.242,-185.5 901.242,-191.5 901.242,-191.5 901.242,-203.5 901.242,-203.5 901.242,-209.5 895.242,-215.5 889.242,-215.5"/>
<text text-anchor="middle" x="874.242" y="-193.8" font-family="Times,serif" font-size="14.00">BUF</text>
</g>
<!-- n10&#45;&gt;x7 -->
<g id="edge5" class="edge"><title>n10:e&#45;&gt;x7:w:w</title>
<path fill="none" stroke="black" d="M811.242,-197.5C823.242,-197.5 828.492,-197.5 837.117,-197.5"/>
<polygon fill="black" stroke="black" points="837.242,-201 847.242,-197.5 837.242,-194 837.242,-201"/>
</g>
<!-- n11 -->
<g id="node4" class="node"><title>n11</title>
<polygon fill="none" stroke="black" points="549.701,-289.044 549.701,-303.956 533.885,-314.5 511.517,-314.5 495.701,-303.956 495.701,-289.044 511.517,-278.5 533.885,-278.5 549.701,-289.044"/>
<text text-anchor="middle" x="522.701" y="-292.8" font-family="Times,serif" font-size="14.00">clk</text>
</g>
<!-- c25 -->
<g id="node14" class="node"><title>c25</title>
<polygon fill="none" stroke="black" points="601.901,-261.5 601.901,-307.5 710.901,-307.5 710.901,-261.5 601.901,-261.5"/>
<text text-anchor="middle" x="623.901" y="-292.3" font-family="Times,serif" font-size="14.00">CLK</text>
<polyline fill="none" stroke="black" points="601.901,-284.5 645.901,-284.5 "/>
<text text-anchor="middle" x="623.901" y="-269.3" font-family="Times,serif" font-size="14.00">D</text>
<polyline fill="none" stroke="black" points="645.901,-261.5 645.901,-307.5 "/>
<text text-anchor="middle" x="665.401" y="-288.3" font-family="Times,serif" font-size="14.00">$14</text>
<text text-anchor="middle" x="665.401" y="-273.3" font-family="Times,serif" font-size="14.00">$dff</text>
<polyline fill="none" stroke="black" points="684.901,-261.5 684.901,-307.5 "/>
<text text-anchor="middle" x="697.901" y="-280.8" font-family="Times,serif" font-size="14.00">Q</text>
</g>
<!-- n11&#45;&gt;c25 -->
<g id="edge6" class="edge"><title>n11:e&#45;&gt;c25:p22:w</title>
<path fill="none" stroke="black" d="M550.701,-296.5C569.545,-296.5 576.686,-296.5 591.507,-296.5"/>
<polygon fill="black" stroke="black" points="591.901,-300 601.901,-296.5 591.901,-293 591.901,-300"/>
</g>
<!-- n12 -->
<g id="node5" class="node"><title>n12</title>
<polygon fill="none" stroke="black" points="59.8436,-67.0442 59.8436,-81.9558 42.5082,-92.5 17.9922,-92.5 0.656733,-81.9558 0.656733,-67.0442 17.9922,-56.5 42.5082,-56.5 59.8436,-67.0442"/>
<text text-anchor="middle" x="30.2502" y="-70.8" font-family="Times,serif" font-size="14.00">en_a</text>
</g>
<!-- x2 -->
<g id="node13" class="node"><title>x2</title>
<path fill="none" stroke="black" d="M134,-153.5C134,-153.5 173,-153.5 173,-153.5 179,-153.5 185,-159.5 185,-165.5 185,-165.5 185,-187.5 185,-187.5 185,-193.5 179,-199.5 173,-199.5 173,-199.5 134,-199.5 134,-199.5 128,-199.5 122,-193.5 122,-187.5 122,-187.5 122,-165.5 122,-165.5 122,-159.5 128,-153.5 134,-153.5"/>
<text text-anchor="middle" x="153.5" y="-184.3" font-family="Times,serif" font-size="14.00">0:0 &#45; 1:1</text>
<polyline fill="none" stroke="black" points="122,-176.5 185,-176.5 "/>
<text text-anchor="middle" x="153.5" y="-161.3" font-family="Times,serif" font-size="14.00">0:0 &#45; 0:0</text>
</g>
<!-- n12&#45;&gt;x2 -->
<g id="edge9" class="edge"><title>n12:e&#45;&gt;x2:s0:w</title>
<path fill="none" stroke="black" d="M60.5004,-74.5C104.631,-74.5 77.7901,-150.34 110.277,-162.782"/>
<polygon fill="black" stroke="black" points="110.059,-166.295 120.5,-164.5 111.218,-159.392 110.059,-166.295"/>
</g>
<!-- n12&#45;&gt;c27 -->
<g id="edge7" class="edge"><title>n12:e&#45;&gt;c27:p26:w</title>
<path fill="none" stroke="black" d="M60.5004,-74.5C80.3071,-74.5 75.595,-47.0684 86.9733,-37.6387"/>
<polygon fill="black" stroke="black" points="88.0977,-40.9534 96.5004,-34.5 85.9073,-34.3049 88.0977,-40.9534"/>
</g>
<!-- n12&#45;&gt;c28 -->
<g id="edge8" class="edge"><title>n12:e&#45;&gt;c28:p26:w</title>
<path fill="none" stroke="black" d="M60.5004,-74.5C75.871,-74.5 77.2707,-90.0655 86.7474,-96.6322"/>
<polygon fill="black" stroke="black" points="85.9191,-100.037 96.5004,-99.5 87.8939,-93.321 85.9191,-100.037"/>
</g>
<!-- n13 -->
<g id="node6" class="node"><title>n13</title>
<polygon fill="none" stroke="black" points="60.2526,-181.044 60.2526,-195.956 42.6776,-206.5 17.8228,-206.5 0.247776,-195.956 0.247776,-181.044 17.8228,-170.5 42.6776,-170.5 60.2526,-181.044"/>
<text text-anchor="middle" x="30.2502" y="-184.8" font-family="Times,serif" font-size="14.00">en_b</text>
</g>
<!-- n13&#45;&gt;x2 -->
<g id="edge10" class="edge"><title>n13:e&#45;&gt;x2:s1:w</title>
<path fill="none" stroke="black" d="M60.5004,-188.5C83.417,-188.5 91.5632,-188.5 110.326,-188.5"/>
<polygon fill="black" stroke="black" points="110.5,-192 120.5,-188.5 110.5,-185 110.5,-192"/>
</g>
<!-- n14 -->
<g id="node7" class="node"><title>n14</title>
<polygon fill="none" stroke="black" points="443.5,-39.0442 443.5,-53.9558 427.684,-64.5 405.317,-64.5 389.5,-53.9558 389.5,-39.0442 405.317,-28.5 427.684,-28.5 443.5,-39.0442"/>
<text text-anchor="middle" x="416.5" y="-42.8" font-family="Times,serif" font-size="14.00">z0</text>
</g>
<!-- n15 -->
<g id="node8" class="node"><title>n15</title>
<polygon fill="none" stroke="black" points="806.072,-277.044 806.072,-291.956 790.255,-302.5 767.888,-302.5 752.072,-291.956 752.072,-277.044 767.888,-266.5 790.255,-266.5 806.072,-277.044"/>
<text text-anchor="middle" x="779.072" y="-280.8" font-family="Times,serif" font-size="14.00">z1</text>
</g>
<!-- n16 -->
<g id="node9" class="node"><title>n16</title>
<polygon fill="none" stroke="black" points="443.5,-104.044 443.5,-118.956 427.684,-129.5 405.317,-129.5 389.5,-118.956 389.5,-104.044 405.317,-93.5 427.684,-93.5 443.5,-104.044"/>
<text text-anchor="middle" x="416.5" y="-107.8" font-family="Times,serif" font-size="14.00">z2</text>
</g>
<!-- v0 -->
<g id="node10" class="node"><title>v0</title>
<ellipse fill="none" stroke="black" cx="153.5" cy="-301.5" rx="27" ry="18"/>
<text text-anchor="middle" x="153.5" y="-297.8" font-family="Times,serif" font-size="14.00">1&#39;x</text>
</g>
<!-- c21 -->
<g id="node11" class="node"><title>c21</title>
<polygon fill="none" stroke="black" points="246.5,-207 246.5,-276 353.5,-276 353.5,-207 246.5,-207"/>
<text text-anchor="middle" x="259.5" y="-260.8" font-family="Times,serif" font-size="14.00">A</text>
<polyline fill="none" stroke="black" points="246.5,-253 272.5,-253 "/>
<text text-anchor="middle" x="259.5" y="-237.8" font-family="Times,serif" font-size="14.00">B</text>
<polyline fill="none" stroke="black" points="246.5,-230 272.5,-230 "/>
<text text-anchor="middle" x="259.5" y="-214.8" font-family="Times,serif" font-size="14.00">S</text>
<polyline fill="none" stroke="black" points="272.5,-207 272.5,-276 "/>
<text text-anchor="middle" x="300" y="-245.3" font-family="Times,serif" font-size="14.00">$15</text>
<text text-anchor="middle" x="300" y="-230.3" font-family="Times,serif" font-size="14.00">$pmux</text>
<polyline fill="none" stroke="black" points="327.5,-207 327.5,-276 "/>
<text text-anchor="middle" x="340.5" y="-237.8" font-family="Times,serif" font-size="14.00">Y</text>
</g>
<!-- v0&#45;&gt;c21 -->
<g id="edge26" class="edge"><title>v0:e&#45;&gt;c21:p17:w</title>
<path fill="none" stroke="black" d="M181.5,-301.5C210.976,-301.5 213.149,-272.408 236.439,-265.817"/>
<polygon fill="black" stroke="black" points="237.039,-269.268 246.5,-264.5 236.131,-262.327 237.039,-269.268"/>
</g>
<!-- x8 -->
<g id="node22" class="node"><title>x8</title>
<path fill="none" stroke="black" d="M431.5,-259.5C431.5,-259.5 401.5,-259.5 401.5,-259.5 395.5,-259.5 389.5,-253.5 389.5,-247.5 389.5,-247.5 389.5,-235.5 389.5,-235.5 389.5,-229.5 395.5,-223.5 401.5,-223.5 401.5,-223.5 431.5,-223.5 431.5,-223.5 437.5,-223.5 443.5,-229.5 443.5,-235.5 443.5,-235.5 443.5,-247.5 443.5,-247.5 443.5,-253.5 437.5,-259.5 431.5,-259.5"/>
<text text-anchor="middle" x="416.5" y="-237.8" font-family="Times,serif" font-size="14.00">BUF</text>
</g>
<!-- c21&#45;&gt;x8 -->
<g id="edge15" class="edge"><title>c21:p20:e&#45;&gt;x8:w:w</title>
<path fill="none" stroke="black" d="M353.5,-241.5C365.5,-241.5 370.75,-241.5 379.375,-241.5"/>
<polygon fill="black" stroke="black" points="379.5,-245 389.5,-241.5 379.5,-238 379.5,-245"/>
</g>
<!-- x1&#45;&gt;c21 -->
<g id="edge1" class="edge"><title>x1:e&#45;&gt;c21:p18:w</title>
<path fill="none" stroke="black" stroke-width="3" d="M198.681,-241.5C212.386,-241.5 220.486,-241.5 234.143,-241.5"/>
<polygon fill="none" stroke="black" stroke-width="3" points="198.5,-241.5 192.5,-245.5 186.5,-241.5 192.5,-237.5 198.5,-241.5"/>
<polygon fill="none" stroke="black" stroke-width="3" points="234.5,-241.5 240.5,-237.5 246.5,-241.5 240.5,-245.5 234.5,-241.5"/>
</g>
<!-- x2&#45;&gt;c21 -->
<g id="edge2" class="edge"><title>x2:e&#45;&gt;c21:p19:w</title>
<path fill="none" stroke="black" stroke-width="3" d="M198.482,-178.878C214.946,-186.236 217.975,-208.58 234.345,-216.043"/>
<polygon fill="none" stroke="black" stroke-width="3" points="198.271,-178.837 191.607,-181.592 186.5,-176.5 193.164,-173.745 198.271,-178.837"/>
<polygon fill="none" stroke="black" stroke-width="3" points="234.738,-216.122 241.412,-213.391 246.5,-218.5 239.827,-221.232 234.738,-216.122"/>
</g>
<!-- c25&#45;&gt;n15 -->
<g id="edge12" class="edge"><title>c25:p24:e&#45;&gt;n15:w</title>
<path fill="none" stroke="black" d="M710.901,-284.5C724.849,-284.5 730.625,-284.5 740.997,-284.5"/>
<polygon fill="black" stroke="black" points="741.072,-288 751.072,-284.5 741.072,-281 741.072,-288"/>
</g>
<!-- x3 -->
<g id="node17" class="node"><title>x3</title>
<path fill="none" stroke="black" d="M315,-64.5C315,-64.5 285,-64.5 285,-64.5 279,-64.5 273,-58.5 273,-52.5 273,-52.5 273,-40.5 273,-40.5 273,-34.5 279,-28.5 285,-28.5 285,-28.5 315,-28.5 315,-28.5 321,-28.5 327,-34.5 327,-40.5 327,-40.5 327,-52.5 327,-52.5 327,-58.5 321,-64.5 315,-64.5"/>
<text text-anchor="middle" x="300" y="-42.8" font-family="Times,serif" font-size="14.00">BUF</text>
</g>
<!-- c27&#45;&gt;x3 -->
<g id="edge16" class="edge"><title>c27:p20:e&#45;&gt;x3:w:w</title>
<path fill="none" stroke="black" d="M210.5,-46.5C234.097,-46.5 242.415,-46.5 261.834,-46.5"/>
<polygon fill="black" stroke="black" points="262,-50.0001 272,-46.5 262,-43.0001 262,-50.0001"/>
</g>
<!-- x6 -->
<g id="node20" class="node"><title>x6</title>
<path fill="none" stroke="black" d="M315,-129.5C315,-129.5 285,-129.5 285,-129.5 279,-129.5 273,-123.5 273,-117.5 273,-117.5 273,-105.5 273,-105.5 273,-99.5 279,-93.5 285,-93.5 285,-93.5 315,-93.5 315,-93.5 321,-93.5 327,-99.5 327,-105.5 327,-105.5 327,-117.5 327,-117.5 327,-123.5 321,-129.5 315,-129.5"/>
<text text-anchor="middle" x="300" y="-107.8" font-family="Times,serif" font-size="14.00">BUF</text>
</g>
<!-- c28&#45;&gt;x6 -->
<g id="edge21" class="edge"><title>c28:p20:e&#45;&gt;x6:w:w</title>
<path fill="none" stroke="black" d="M210.5,-111.5C234.097,-111.5 242.415,-111.5 261.834,-111.5"/>
<polygon fill="black" stroke="black" points="262,-115 272,-111.5 262,-108 262,-115"/>
</g>
<!-- x3&#45;&gt;n14 -->
<g id="edge11" class="edge"><title>x3:e:e&#45;&gt;n14:w</title>
<path fill="none" stroke="black" d="M328,-46.5C351.597,-46.5 359.915,-46.5 379.334,-46.5"/>
<polygon fill="black" stroke="black" points="379.5,-50.0001 389.5,-46.5 379.5,-43.0001 379.5,-50.0001"/>
</g>
<!-- x4 -->
<g id="node18" class="node"><title>x4</title>
<path fill="none" stroke="black" d="M671.401,-188.5C671.401,-188.5 641.401,-188.5 641.401,-188.5 635.401,-188.5 629.401,-182.5 629.401,-176.5 629.401,-176.5 629.401,-164.5 629.401,-164.5 629.401,-158.5 635.401,-152.5 641.401,-152.5 641.401,-152.5 671.401,-152.5 671.401,-152.5 677.401,-152.5 683.401,-158.5 683.401,-164.5 683.401,-164.5 683.401,-176.5 683.401,-176.5 683.401,-182.5 677.401,-188.5 671.401,-188.5"/>
<text text-anchor="middle" x="656.401" y="-166.8" font-family="Times,serif" font-size="14.00">BUF</text>
</g>
<!-- x4&#45;&gt;n10 -->
<g id="edge3" class="edge"><title>x4:e:e&#45;&gt;n10:w</title>
<path fill="none" stroke="black" d="M684.401,-170.5C710.878,-170.5 715.705,-191.172 736.769,-196.34"/>
<polygon fill="black" stroke="black" points="736.568,-199.84 746.901,-197.5 737.364,-192.885 736.568,-199.84"/>
</g>
<!-- x5 -->
<g id="node19" class="node"><title>x5</title>
<path fill="none" stroke="black" d="M671.401,-242.5C671.401,-242.5 641.401,-242.5 641.401,-242.5 635.401,-242.5 629.401,-236.5 629.401,-230.5 629.401,-230.5 629.401,-218.5 629.401,-218.5 629.401,-212.5 635.401,-206.5 641.401,-206.5 641.401,-206.5 671.401,-206.5 671.401,-206.5 677.401,-206.5 683.401,-212.5 683.401,-218.5 683.401,-218.5 683.401,-230.5 683.401,-230.5 683.401,-236.5 677.401,-242.5 671.401,-242.5"/>
<text text-anchor="middle" x="656.401" y="-220.8" font-family="Times,serif" font-size="14.00">BUF</text>
</g>
<!-- x5&#45;&gt;n10 -->
<g id="edge4" class="edge"><title>x5:e:e&#45;&gt;n10:w</title>
<path fill="none" stroke="black" d="M684.401,-224.5C710.878,-224.5 715.705,-203.828 736.769,-198.66"/>
<polygon fill="black" stroke="black" points="737.364,-202.115 746.901,-197.5 736.568,-195.16 737.364,-202.115"/>
</g>
<!-- x6&#45;&gt;n16 -->
<g id="edge13" class="edge"><title>x6:e:e&#45;&gt;n16:w</title>
<path fill="none" stroke="black" d="M328,-111.5C351.597,-111.5 359.915,-111.5 379.334,-111.5"/>
<polygon fill="black" stroke="black" points="379.5,-115 389.5,-111.5 379.5,-108 379.5,-115"/>
</g>
<!-- n2 -->
<g id="node23" class="node"><title>n2</title>
<polygon fill="none" stroke="black" points="1004.34,-215.5 937.144,-197.5 1004.34,-179.5 1071.54,-197.5 1004.34,-215.5"/>
<text text-anchor="middle" x="1004.34" y="-193.8" font-family="Times,serif" font-size="14.00">$0\z1[0:0]</text>
</g>
<!-- x7&#45;&gt;n2 -->
<g id="edge14" class="edge"><title>x7:e:e&#45;&gt;n2:w</title>
<path fill="none" stroke="black" d="M901.242,-197.5C913.242,-197.5 918.492,-197.5 927.117,-197.5"/>
<polygon fill="black" stroke="black" points="927.242,-201 937.242,-197.5 927.242,-194 927.242,-201"/>
</g>
<!-- n6 -->
<g id="node25" class="node"><title>n6</title>
<ellipse fill="black" stroke="black" cx="522.701" cy="-241.5" rx="1.8" ry="1.8"/>
</g>
<!-- x8&#45;&gt;n6 -->
<g id="edge18" class="edge"><title>x8:e:e&#45;&gt;n6:w</title>
<path fill="none" stroke="black" d="M443.5,-241.5C473.663,-241.5 483.678,-241.5 509.433,-241.5"/>
<polygon fill="black" stroke="black" points="509.701,-245 519.701,-241.5 509.701,-238 509.701,-245"/>
</g>
<!-- n5 -->
<g id="node24" class="node"><title>n5</title>
<polygon fill="none" stroke="black" points="522.701,-188.5 479.299,-170.5 522.701,-152.5 566.102,-170.5 522.701,-188.5"/>
<text text-anchor="middle" x="522.701" y="-166.8" font-family="Times,serif" font-size="14.00">$2_Y</text>
</g>
<!-- n5&#45;&gt;x4 -->
<g id="edge17" class="edge"><title>n5:e&#45;&gt;x4:w:w</title>
<path fill="none" stroke="black" d="M565.901,-170.5C589.99,-170.5 598.411,-170.5 618.338,-170.5"/>
<polygon fill="black" stroke="black" points="618.401,-174 628.401,-170.5 618.401,-167 618.401,-174"/>
</g>
<!-- n6&#45;&gt;c25 -->
<g id="edge19" class="edge"><title>n6:e&#45;&gt;c25:p23:w</title>
<path fill="none" stroke="black" d="M525.701,-241.5C558.55,-241.5 564.369,-266.523 591.727,-271.606"/>
<polygon fill="black" stroke="black" points="591.633,-275.111 601.901,-272.5 592.246,-268.138 591.633,-275.111"/>
</g>
<!-- n6&#45;&gt;x5 -->
<g id="edge20" class="edge"><title>n6:e&#45;&gt;x5:w:w</title>
<path fill="none" stroke="black" d="M525.701,-241.5C568.352,-241.5 580.326,-227.052 618.184,-224.795"/>
<polygon fill="black" stroke="black" points="618.506,-228.287 628.401,-224.5 618.304,-221.29 618.506,-228.287"/>
</g>
</g>
</svg>
