<?xml version="1.0" encoding="UTF-8" standalone="no"?>
<!DOCTYPE svg PUBLIC "-//W3C//DTD SVG 1.1//EN"
 "http://www.w3.org/Graphics/SVG/1.1/DTD/svg11.dtd">
<!-- Generated by graphviz version 2.38.0 (20140413.2041)
 -->
<!-- Title: tribuf_design Pages: 1 -->
<svg width="554pt" height="291pt"
 viewBox="0.00 0.00 553.84 290.50" xmlns="http://www.w3.org/2000/svg" xmlns:xlink="http://www.w3.org/1999/xlink">
<g id="graph0" class="graph" transform="scale(1 1) rotate(0) translate(4 286.5)">
<title>tribuf_design</title>
<polygon fill="white" stroke="none" points="-4,4 -4,-286.5 549.841,-286.5 549.841,4 -4,4"/>
<text text-anchor="middle" x="272.921" y="-7.8" font-family="Times,serif" font-size="14.00">tribuf_design</text>
<!-- n2 -->
<g id="node1" class="node"><title>n2</title>
<polygon fill="none" stroke="black" points="57.2502,-131.044 57.2502,-145.956 41.4339,-156.5 19.0664,-156.5 3.25018,-145.956 3.25018,-131.044 19.0664,-120.5 41.4339,-120.5 57.2502,-131.044"/>
<text text-anchor="middle" x="30.2502" y="-134.8" font-family="Times,serif" font-size="14.00">a</text>
</g>
<!-- c15 -->
<g id="node10" class="node"><title>c15</title>
<polygon fill="none" stroke="black" points="103.5,-153 103.5,-222 203.5,-222 203.5,-153 103.5,-153"/>
<text text-anchor="middle" x="116.5" y="-206.8" font-family="Times,serif" font-size="14.00">A</text>
<polyline fill="none" stroke="black" points="103.5,-199 129.5,-199 "/>
<text text-anchor="middle" x="116.5" y="-183.8" font-family="Times,serif" font-size="14.00">B</text>
<polyline fill="none" stroke="black" points="103.5,-176 129.5,-176 "/>
<text text-anchor="middle" x="116.5" y="-160.8" font-family="Times,serif" font-size="14.00">S</text>
<polyline fill="none" stroke="black" points="129.5,-153 129.5,-222 "/>
<text text-anchor="middle" x="153.5" y="-191.3" font-family="Times,serif" font-size="14.00">$15</text>
<text text-anchor="middle" x="153.5" y="-176.3" font-family="Times,serif" font-size="14.00">$mux</text>
<polyline fill="none" stroke="black" points="177.5,-153 177.5,-222 "/>
<text text-anchor="middle" x="190.5" y="-183.8" font-family="Times,serif" font-size="14.00">Y</text>
</g>
<!-- n2&#45;&gt;c15 -->
<g id="edge2" class="edge"><title>n2:e&#45;&gt;c15:p12:w</title>
<path fill="none" stroke="black" d="M58.2502,-138.5C83.4674,-138.5 76.3513,-174.688 92.4748,-184.866"/>
<polygon fill="black" stroke="black" points="91.9392,-188.344 102.5,-187.5 93.7182,-181.573 91.9392,-188.344"/>
</g>
<!-- c21 -->
<g id="node12" class="node"><title>c21</title>
<polygon fill="none" stroke="black" points="96.5004,-23.5 96.5004,-69.5 210.5,-69.5 210.5,-23.5 96.5004,-23.5"/>
<text text-anchor="middle" x="114" y="-54.3" font-family="Times,serif" font-size="14.00">A</text>
<polyline fill="none" stroke="black" points="96.5004,-46.5 131.5,-46.5 "/>
<text text-anchor="middle" x="114" y="-31.3" font-family="Times,serif" font-size="14.00">EN</text>
<polyline fill="none" stroke="black" points="131.5,-23.5 131.5,-69.5 "/>
<text text-anchor="middle" x="158" y="-50.3" font-family="Times,serif" font-size="14.00">$1</text>
<text text-anchor="middle" x="158" y="-35.3" font-family="Times,serif" font-size="14.00">$tribuf</text>
<polyline fill="none" stroke="black" points="184.5,-23.5 184.5,-69.5 "/>
<text text-anchor="middle" x="197.5" y="-42.8" font-family="Times,serif" font-size="14.00">Y</text>
</g>
<!-- n2&#45;&gt;c21 -->
<g id="edge3" class="edge"><title>n2:e&#45;&gt;c21:p11:w</title>
<path fill="none" stroke="black" d="M58.2502,-138.5C93.5042,-138.5 64.758,-74.4851 86.512,-60.982"/>
<polygon fill="black" stroke="black" points="87.6395,-64.3083 96.5004,-58.5 85.9514,-57.5149 87.6395,-64.3083"/>
</g>
<!-- c22 -->
<g id="node13" class="node"><title>c22</title>
<polygon fill="none" stroke="black" points="96.5004,-88.5 96.5004,-134.5 210.5,-134.5 210.5,-88.5 96.5004,-88.5"/>
<text text-anchor="middle" x="114" y="-119.3" font-family="Times,serif" font-size="14.00">A</text>
<polyline fill="none" stroke="black" points="96.5004,-111.5 131.5,-111.5 "/>
<text text-anchor="middle" x="114" y="-96.3" font-family="Times,serif" font-size="14.00">EN</text>
<polyline fill="none" stroke="black" points="131.5,-88.5 131.5,-134.5 "/>
<text text-anchor="middle" x="158" y="-115.3" font-family="Times,serif" font-size="14.00">$5</text>
<text text-anchor="middle" x="158" y="-100.3" font-family="Times,serif" font-size="14.00">$tribuf</text>
<polyline fill="none" stroke="black" points="184.5,-88.5 184.5,-134.5 "/>
<text text-anchor="middle" x="197.5" y="-107.8" font-family="Times,serif" font-size="14.00">Y</text>
</g>
<!-- n2&#45;&gt;c22 -->
<g id="edge4" class="edge"><title>n2:e&#45;&gt;c22:p11:w</title>
<path fill="none" stroke="black" d="M58.2502,-138.5C72.5162,-138.5 76.6923,-129.345 86.544,-125.339"/>
<polygon fill="black" stroke="black" points="87.3026,-128.758 96.5004,-123.5 86.0309,-121.875 87.3026,-128.758"/>
</g>
<!-- n3 -->
<g id="node2" class="node"><title>n3</title>
<polygon fill="none" stroke="black" points="57.2502,-203.044 57.2502,-217.956 41.4339,-228.5 19.0664,-228.5 3.25018,-217.956 3.25018,-203.044 19.0664,-192.5 41.4339,-192.5 57.2502,-203.044"/>
<text text-anchor="middle" x="30.2502" y="-206.8" font-family="Times,serif" font-size="14.00">b</text>
</g>
<!-- n3&#45;&gt;c15 -->
<g id="edge5" class="edge"><title>n3:e&#45;&gt;c15:p11:w</title>
<path fill="none" stroke="black" d="M58.2502,-210.5C74.0758,-210.5 80.3504,-210.5 92.4451,-210.5"/>
<polygon fill="black" stroke="black" points="92.5004,-214 102.5,-210.5 92.5003,-207 92.5004,-214"/>
</g>
<!-- n4 -->
<g id="node3" class="node"><title>n4</title>
<polygon fill="none" stroke="black" points="278.671,-205.5 246.329,-187.5 278.671,-169.5 311.013,-187.5 278.671,-205.5"/>
<text text-anchor="middle" x="278.671" y="-183.8" font-family="Times,serif" font-size="14.00">bus</text>
</g>
<!-- c19 -->
<g id="node11" class="node"><title>c19</title>
<polygon fill="none" stroke="black" points="346.841,-191.5 346.841,-237.5 455.841,-237.5 455.841,-191.5 346.841,-191.5"/>
<text text-anchor="middle" x="368.841" y="-222.3" font-family="Times,serif" font-size="14.00">CLK</text>
<polyline fill="none" stroke="black" points="346.841,-214.5 390.841,-214.5 "/>
<text text-anchor="middle" x="368.841" y="-199.3" font-family="Times,serif" font-size="14.00">D</text>
<polyline fill="none" stroke="black" points="390.841,-191.5 390.841,-237.5 "/>
<text text-anchor="middle" x="410.341" y="-218.3" font-family="Times,serif" font-size="14.00">$14</text>
<text text-anchor="middle" x="410.341" y="-203.3" font-family="Times,serif" font-size="14.00">$dff</text>
<polyline fill="none" stroke="black" points="429.841,-191.5 429.841,-237.5 "/>
<text text-anchor="middle" x="442.841" y="-210.8" font-family="Times,serif" font-size="14.00">Q</text>
</g>
<!-- n4&#45;&gt;c19 -->
<g id="edge7" class="edge"><title>n4:e&#45;&gt;c19:p17:w</title>
<path fill="none" stroke="black" d="M310.841,-187.5C324.112,-187.5 328.004,-196.293 336.879,-200.414"/>
<polygon fill="black" stroke="black" points="336.336,-203.877 346.841,-202.5 337.771,-197.025 336.336,-203.877"/>
</g>
<!-- n5 -->
<g id="node4" class="node"><title>n5</title>
<polygon fill="none" stroke="black" points="305.671,-234.044 305.671,-248.956 289.855,-259.5 267.487,-259.5 251.671,-248.956 251.671,-234.044 267.487,-223.5 289.855,-223.5 305.671,-234.044"/>
<text text-anchor="middle" x="278.671" y="-237.8" font-family="Times,serif" font-size="14.00">clk</text>
</g>
<!-- n5&#45;&gt;c19 -->
<g id="edge8" class="edge"><title>n5:e&#45;&gt;c19:p16:w</title>
<path fill="none" stroke="black" d="M306.671,-241.5C321.709,-241.5 326.16,-232.161 336.732,-228.221"/>
<polygon fill="black" stroke="black" points="337.57,-231.628 346.841,-226.5 336.396,-224.728 337.57,-231.628"/>
</g>
<!-- n6 -->
<g id="node5" class="node"><title>n6</title>
<polygon fill="none" stroke="black" points="59.8436,-77.0442 59.8436,-91.9558 42.5082,-102.5 17.9922,-102.5 0.656733,-91.9558 0.656733,-77.0442 17.9922,-66.5 42.5082,-66.5 59.8436,-77.0442"/>
<text text-anchor="middle" x="30.2502" y="-80.8" font-family="Times,serif" font-size="14.00">en_a</text>
</g>
<!-- n6&#45;&gt;c15 -->
<g id="edge9" class="edge"><title>n6:e&#45;&gt;c15:p13:w</title>
<path fill="none" stroke="black" d="M60.5004,-84.5C96.5796,-84.5 69.316,-149.075 92.5287,-162.192"/>
<polygon fill="black" stroke="black" points="91.9687,-165.655 102.5,-164.5 93.5472,-158.835 91.9687,-165.655"/>
</g>
<!-- n6&#45;&gt;c21 -->
<g id="edge10" class="edge"><title>n6:e&#45;&gt;c21:p20:w</title>
<path fill="none" stroke="black" d="M60.5004,-84.5C83.6047,-84.5 73.8551,-48.9043 86.6925,-37.7806"/>
<polygon fill="black" stroke="black" points="88.1271,-40.9915 96.5004,-34.5 85.9065,-34.353 88.1271,-40.9915"/>
</g>
<!-- n6&#45;&gt;c22 -->
<g id="edge11" class="edge"><title>n6:e&#45;&gt;c22:p20:w</title>
<path fill="none" stroke="black" d="M60.5004,-84.5C73.7712,-84.5 77.6631,-93.2927 86.5376,-97.4143"/>
<polygon fill="black" stroke="black" points="85.9953,-100.877 96.5004,-99.5 87.4297,-94.0251 85.9953,-100.877"/>
</g>
<!-- n7 -->
<g id="node6" class="node"><title>n7</title>
<polygon fill="none" stroke="black" points="60.2526,-257.044 60.2526,-271.956 42.6776,-282.5 17.8228,-282.5 0.247776,-271.956 0.247776,-257.044 17.8228,-246.5 42.6776,-246.5 60.2526,-257.044"/>
<text text-anchor="middle" x="30.2502" y="-260.8" font-family="Times,serif" font-size="14.00">en_b</text>
</g>
<!-- n8 -->
<g id="node7" class="node"><title>n8</title>
<polygon fill="none" stroke="black" points="305.671,-39.0442 305.671,-53.9558 289.855,-64.5 267.487,-64.5 251.671,-53.9558 251.671,-39.0442 267.487,-28.5 289.855,-28.5 305.671,-39.0442"/>
<text text-anchor="middle" x="278.671" y="-42.8" font-family="Times,serif" font-size="14.00">z0</text>
</g>
<!-- n9 -->
<g id="node8" class="node"><title>n9</title>
<polygon fill="none" stroke="black" points="545.841,-207.044 545.841,-221.956 530.025,-232.5 507.658,-232.5 491.841,-221.956 491.841,-207.044 507.658,-196.5 530.025,-196.5 545.841,-207.044"/>
<text text-anchor="middle" x="518.841" y="-210.8" font-family="Times,serif" font-size="14.00">z1</text>
</g>
<!-- n10 -->
<g id="node9" class="node"><title>n10</title>
<polygon fill="none" stroke="black" points="305.671,-104.044 305.671,-118.956 289.855,-129.5 267.487,-129.5 251.671,-118.956 251.671,-104.044 267.487,-93.5 289.855,-93.5 305.671,-104.044"/>
<text text-anchor="middle" x="278.671" y="-107.8" font-family="Times,serif" font-size="14.00">z2</text>
</g>
<!-- c15&#45;&gt;n4 -->
<g id="edge6" class="edge"><title>c15:p14:e&#45;&gt;n4:w</title>
<path fill="none" stroke="black" d="M204.5,-187.5C219.23,-187.5 225.242,-187.5 236.294,-187.5"/>
<polygon fill="black" stroke="black" points="236.5,-191 246.5,-187.5 236.5,-184 236.5,-191"/>
</g>
<!-- c19&#45;&gt;n9 -->
<g id="edge13" class="edge"><title>c19:p18:e&#45;&gt;n9:w</title>
<path fill="none" stroke="black" d="M455.841,-214.5C467.841,-214.5 473.091,-214.5 481.716,-214.5"/>
<polygon fill="black" stroke="black" points="481.841,-218 491.841,-214.5 481.841,-211 481.841,-218"/>
</g>
<!-- c21&#45;&gt;n8 -->
<g id="edge12" class="edge"><title>c21:p14:e&#45;&gt;n8:w</title>
<path fill="none" stroke="black" d="M210.5,-46.5C224.448,-46.5 230.224,-46.5 240.596,-46.5"/>
<polygon fill="black" stroke="black" points="240.671,-50.0001 250.671,-46.5 240.671,-43.0001 240.671,-50.0001"/>
</g>
<!-- c22&#45;&gt;n10 -->
<g id="edge1" class="edge"><title>c22:p14:e&#45;&gt;n10:w</title>
<path fill="none" stroke="black" d="M210.5,-111.5C224.448,-111.5 230.224,-111.5 240.596,-111.5"/>
<polygon fill="black" stroke="black" points="240.671,-115 250.671,-111.5 240.671,-108 240.671,-115"/>
</g>
</g>
</svg>
