<?xml version="1.0" encoding="utf-8" standalone="no"?>
<!DOCTYPE svg PUBLIC "-//W3C//DTD SVG 1.1//EN"
  "http://www.w3.org/Graphics/SVG/1.1/DTD/svg11.dtd">
<svg xmlns:xlink="http://www.w3.org/1999/xlink" width="576pt" height="288pt" viewBox="0 0 576 288" xmlns="http://www.w3.org/2000/svg" version="1.1">
 <metadata>
  <rdf:RDF xmlns:dc="http://purl.org/dc/elements/1.1/" xmlns:cc="http://creativecommons.org/ns#" xmlns:rdf="http://www.w3.org/1999/02/22-rdf-syntax-ns#">
   <cc:Work>
    <dc:type rdf:resource="http://purl.org/dc/dcmitype/StillImage"/>
    <dc:date>2026-02-07T08:24:03.203410</dc:date>
    <dc:format>image/svg+xml</dc:format>
    <dc:creator>
     <cc:Agent>
      <dc:title>Matplotlib v3.10.8, https://matplotlib.org/</dc:title>
     </cc:Agent>
    </dc:creator>
   </cc:Work>
  </rdf:RDF>
 </metadata>
 <defs>
  <style type="text/css">*{stroke-linejoin: round; stroke-linecap: butt}</style>
 </defs>
 <g id="figure_1">
  <g id="patch_1">
   <path d="M 0 288 
L 576 288 
L 576 0 
L 0 0 
z
" style="fill: #ffffff"/>
  </g>
  <g id="axes_1">
   <g id="patch_2">
    <path d="M 53.03 246.04 
L 565.2 246.04 
L 565.2 26.16 
L 53.03 26.16 
z
" style="fill: #ffffff"/>
   </g>
   <g id="matplotlib.axis_1">
    <g id="xtick_1">
     <g id="line2d_1">
      <path d="M 104.272021 246.04 
L 104.272021 26.16 
" clip-path="url(#pfc25f10e5f)" style="fill: none; stroke: #b0b0b0; stroke-width: 0.8; stroke-linecap: square"/>
     </g>
     <g id="line2d_2">
      <defs>
       <path id="m137e616c75" d="M 0 0 
L 0 3.5 
" style="stroke: #000000; stroke-width: 0.8"/>
      </defs>
      <g>
       <use xlink:href="#m137e616c75" x="104.272021" y="246.04" style="stroke: #000000; stroke-width: 0.8"/>
      </g>
     </g>
     <g id="text_1">
      <!-- −40 -->
      <g transform="translate(93.719677 260.638438) scale(0.1 -0.1)">
       <defs>
        <path id="DejaVuSans-2212" d="M 678 2272 
L 4684 2272 
L 4684 1741 
L 678 1741 
L 678 2272 
z
" transform="scale(0.015625)"/>
        <path id="DejaVuSans-34" d="M 2419 4116 
L 825 1625 
L 2419 1625 
L 2419 4116 
z
M 2253 4666 
L 3047 4666 
L 3047 1625 
L 3713 1625 
L 3713 1100 
L 3047 1100 
L 3047 0 
L 2419 0 
L 2419 1100 
L 313 1100 
L 313 1709 
L 2253 4666 
z
" transform="scale(0.015625)"/>
        <path id="DejaVuSans-30" d="M 2034 4250 
Q 1547 4250 1301 3770 
Q 1056 3291 1056 2328 
Q 1056 1369 1301 889 
Q 1547 409 2034 409 
Q 2525 409 2770 889 
Q 3016 1369 3016 2328 
Q 3016 3291 2770 3770 
Q 2525 4250 2034 4250 
z
M 2034 4750 
Q 2819 4750 3233 4129 
Q 3647 3509 3647 2328 
Q 3647 1150 3233 529 
Q 2819 -91 2034 -91 
Q 1250 -91 836 529 
Q 422 1150 422 2328 
Q 422 3509 836 4129 
Q 1250 4750 2034 4750 
z
" transform="scale(0.015625)"/>
       </defs>
       <use xlink:href="#DejaVuSans-2212"/>
       <use xlink:href="#DejaVuSans-34" transform="translate(83.789062 0)"/>
       <use xlink:href="#DejaVuSans-30" transform="translate(147.412109 0)"/>
      </g>
     </g>
    </g>
    <g id="xtick_2">
     <g id="line2d_3">
      <path d="M 206.756062 246.04 
L 206.756062 26.16 
" clip-path="url(#pfc25f10e5f)" style="fill: none; stroke: #b0b0b0; stroke-width: 0.8; stroke-linecap: square"/>
     </g>
     <g id="line2d_4">
      <g>
       <use xlink:href="#m137e616c75" x="206.756062" y="246.04" style="stroke: #000000; stroke-width: 0.8"/>
      </g>
     </g>
     <g id="text_2">
      <!-- −20 -->
      <g transform="translate(196.203718 260.638438) scale(0.1 -0.1)">
       <defs>
        <path id="DejaVuSans-32" d="M 1228 531 
L 3431 531 
L 3431 0 
L 469 0 
L 469 531 
Q 828 903 1448 1529 
Q 2069 2156 2228 2338 
Q 2531 2678 2651 2914 
Q 2772 3150 2772 3378 
Q 2772 3750 2511 3984 
Q 2250 4219 1831 4219 
Q 1534 4219 1204 4116 
Q 875 4013 500 3803 
L 500 4441 
Q 881 4594 1212 4672 
Q 1544 4750 1819 4750 
Q 2544 4750 2975 4387 
Q 3406 4025 3406 3419 
Q 3406 3131 3298 2873 
Q 3191 2616 2906 2266 
Q 2828 2175 2409 1742 
Q 1991 1309 1228 531 
z
" transform="scale(0.015625)"/>
       </defs>
       <use xlink:href="#DejaVuSans-2212"/>
       <use xlink:href="#DejaVuSans-32" transform="translate(83.789062 0)"/>
       <use xlink:href="#DejaVuSans-30" transform="translate(147.412109 0)"/>
      </g>
     </g>
    </g>
    <g id="xtick_3">
     <g id="line2d_5">
      <path d="M 309.240103 246.04 
L 309.240103 26.16 
" clip-path="url(#pfc25f10e5f)" style="fill: none; stroke: #b0b0b0; stroke-width: 0.8; stroke-linecap: square"/>
     </g>
     <g id="line2d_6">
      <g>
       <use xlink:href="#m137e616c75" x="309.240103" y="246.04" style="stroke: #000000; stroke-width: 0.8"/>
      </g>
     </g>
     <g id="text_3">
      <!-- 0 -->
      <g transform="translate(306.058853 260.638438) scale(0.1 -0.1)">
       <use xlink:href="#DejaVuSans-30"/>
      </g>
     </g>
    </g>
    <g id="xtick_4">
     <g id="line2d_7">
      <path d="M 411.724144 246.04 
L 411.724144 26.16 
" clip-path="url(#pfc25f10e5f)" style="fill: none; stroke: #b0b0b0; stroke-width: 0.8; stroke-linecap: square"/>
     </g>
     <g id="line2d_8">
      <g>
       <use xlink:href="#m137e616c75" x="411.724144" y="246.04" style="stroke: #000000; stroke-width: 0.8"/>
      </g>
     </g>
     <g id="text_4">
      <!-- 20 -->
      <g transform="translate(405.361644 260.638438) scale(0.1 -0.1)">
       <use xlink:href="#DejaVuSans-32"/>
       <use xlink:href="#DejaVuSans-30" transform="translate(63.623047 0)"/>
      </g>
     </g>
    </g>
    <g id="xtick_5">
     <g id="line2d_9">
      <path d="M 514.208185 246.04 
L 514.208185 26.16 
" clip-path="url(#pfc25f10e5f)" style="fill: none; stroke: #b0b0b0; stroke-width: 0.8; stroke-linecap: square"/>
     </g>
     <g id="line2d_10">
      <g>
       <use xlink:href="#m137e616c75" x="514.208185" y="246.04" style="stroke: #000000; stroke-width: 0.8"/>
      </g>
     </g>
     <g id="text_5">
      <!-- 40 -->
      <g transform="translate(507.845685 260.638438) scale(0.1 -0.1)">
       <use xlink:href="#DejaVuSans-34"/>
       <use xlink:href="#DejaVuSans-30" transform="translate(63.623047 0)"/>
      </g>
     </g>
    </g>
    <g id="text_6">
     <!-- Frequency (MHz) -->
     <g transform="translate(267.09625 274.316562) scale(0.1 -0.1)">
      <defs>
       <path id="DejaVuSans-46" d="M 628 4666 
L 3309 4666 
L 3309 4134 
L 1259 4134 
L 1259 2759 
L 3109 2759 
L 3109 2228 
L 1259 2228 
L 1259 0 
L 628 0 
L 628 4666 
z
" transform="scale(0.015625)"/>
       <path id="DejaVuSans-72" d="M 2631 2963 
Q 2534 3019 2420 3045 
Q 2306 3072 2169 3072 
Q 1681 3072 1420 2755 
Q 1159 2438 1159 1844 
L 1159 0 
L 581 0 
L 581 3500 
L 1159 3500 
L 1159 2956 
Q 1341 3275 1631 3429 
Q 1922 3584 2338 3584 
Q 2397 3584 2469 3576 
Q 2541 3569 2628 3553 
L 2631 2963 
z
" transform="scale(0.015625)"/>
       <path id="DejaVuSans-65" d="M 3597 1894 
L 3597 1613 
L 953 1613 
Q 991 1019 1311 708 
Q 1631 397 2203 397 
Q 2534 397 2845 478 
Q 3156 559 3463 722 
L 3463 178 
Q 3153 47 2828 -22 
Q 2503 -91 2169 -91 
Q 1331 -91 842 396 
Q 353 884 353 1716 
Q 353 2575 817 3079 
Q 1281 3584 2069 3584 
Q 2775 3584 3186 3129 
Q 3597 2675 3597 1894 
z
M 3022 2063 
Q 3016 2534 2758 2815 
Q 2500 3097 2075 3097 
Q 1594 3097 1305 2825 
Q 1016 2553 972 2059 
L 3022 2063 
z
" transform="scale(0.015625)"/>
       <path id="DejaVuSans-71" d="M 947 1747 
Q 947 1113 1208 752 
Q 1469 391 1925 391 
Q 2381 391 2643 752 
Q 2906 1113 2906 1747 
Q 2906 2381 2643 2742 
Q 2381 3103 1925 3103 
Q 1469 3103 1208 2742 
Q 947 2381 947 1747 
z
M 2906 525 
Q 2725 213 2448 61 
Q 2172 -91 1784 -91 
Q 1150 -91 751 415 
Q 353 922 353 1747 
Q 353 2572 751 3078 
Q 1150 3584 1784 3584 
Q 2172 3584 2448 3432 
Q 2725 3281 2906 2969 
L 2906 3500 
L 3481 3500 
L 3481 -1331 
L 2906 -1331 
L 2906 525 
z
" transform="scale(0.015625)"/>
       <path id="DejaVuSans-75" d="M 544 1381 
L 544 3500 
L 1119 3500 
L 1119 1403 
Q 1119 906 1312 657 
Q 1506 409 1894 409 
Q 2359 409 2629 706 
Q 2900 1003 2900 1516 
L 2900 3500 
L 3475 3500 
L 3475 0 
L 2900 0 
L 2900 538 
Q 2691 219 2414 64 
Q 2138 -91 1772 -91 
Q 1169 -91 856 284 
Q 544 659 544 1381 
z
M 1991 3584 
L 1991 3584 
z
" transform="scale(0.015625)"/>
       <path id="DejaVuSans-6e" d="M 3513 2113 
L 3513 0 
L 2938 0 
L 2938 2094 
Q 2938 2591 2744 2837 
Q 2550 3084 2163 3084 
Q 1697 3084 1428 2787 
Q 1159 2491 1159 1978 
L 1159 0 
L 581 0 
L 581 3500 
L 1159 3500 
L 1159 2956 
Q 1366 3272 1645 3428 
Q 1925 3584 2291 3584 
Q 2894 3584 3203 3211 
Q 3513 2838 3513 2113 
z
" transform="scale(0.015625)"/>
       <path id="DejaVuSans-63" d="M 3122 3366 
L 3122 2828 
Q 2878 2963 2633 3030 
Q 2388 3097 2138 3097 
Q 1578 3097 1268 2742 
Q 959 2388 959 1747 
Q 959 1106 1268 751 
Q 1578 397 2138 397 
Q 2388 397 2633 464 
Q 2878 531 3122 666 
L 3122 134 
Q 2881 22 2623 -34 
Q 2366 -91 2075 -91 
Q 1284 -91 818 406 
Q 353 903 353 1747 
Q 353 2603 823 3093 
Q 1294 3584 2113 3584 
Q 2378 3584 2631 3529 
Q 2884 3475 3122 3366 
z
" transform="scale(0.015625)"/>
       <path id="DejaVuSans-79" d="M 2059 -325 
Q 1816 -950 1584 -1140 
Q 1353 -1331 966 -1331 
L 506 -1331 
L 506 -850 
L 844 -850 
Q 1081 -850 1212 -737 
Q 1344 -625 1503 -206 
L 1606 56 
L 191 3500 
L 800 3500 
L 1894 763 
L 2988 3500 
L 3597 3500 
L 2059 -325 
z
" transform="scale(0.015625)"/>
       <path id="DejaVuSans-20" transform="scale(0.015625)"/>
       <path id="DejaVuSans-28" d="M 1984 4856 
Q 1566 4138 1362 3434 
Q 1159 2731 1159 2009 
Q 1159 1288 1364 580 
Q 1569 -128 1984 -844 
L 1484 -844 
Q 1016 -109 783 600 
Q 550 1309 550 2009 
Q 550 2706 781 3412 
Q 1013 4119 1484 4856 
L 1984 4856 
z
" transform="scale(0.015625)"/>
       <path id="DejaVuSans-4d" d="M 628 4666 
L 1569 4666 
L 2759 1491 
L 3956 4666 
L 4897 4666 
L 4897 0 
L 4281 0 
L 4281 4097 
L 3078 897 
L 2444 897 
L 1241 4097 
L 1241 0 
L 628 0 
L 628 4666 
z
" transform="scale(0.015625)"/>
       <path id="DejaVuSans-48" d="M 628 4666 
L 1259 4666 
L 1259 2753 
L 3553 2753 
L 3553 4666 
L 4184 4666 
L 4184 0 
L 3553 0 
L 3553 2222 
L 1259 2222 
L 1259 0 
L 628 0 
L 628 4666 
z
" transform="scale(0.015625)"/>
       <path id="DejaVuSans-7a" d="M 353 3500 
L 3084 3500 
L 3084 2975 
L 922 459 
L 3084 459 
L 3084 0 
L 275 0 
L 275 525 
L 2438 3041 
L 353 3041 
L 353 3500 
z
" transform="scale(0.015625)"/>
       <path id="DejaVuSans-29" d="M 513 4856 
L 1013 4856 
Q 1481 4119 1714 3412 
Q 1947 2706 1947 2009 
Q 1947 1309 1714 600 
Q 1481 -109 1013 -844 
L 513 -844 
Q 928 -128 1133 580 
Q 1338 1288 1338 2009 
Q 1338 2731 1133 3434 
Q 928 4138 513 4856 
z
" transform="scale(0.015625)"/>
      </defs>
      <use xlink:href="#DejaVuSans-46"/>
      <use xlink:href="#DejaVuSans-72" transform="translate(50.269531 0)"/>
      <use xlink:href="#DejaVuSans-65" transform="translate(89.132812 0)"/>
      <use xlink:href="#DejaVuSans-71" transform="translate(150.65625 0)"/>
      <use xlink:href="#DejaVuSans-75" transform="translate(214.132812 0)"/>
      <use xlink:href="#DejaVuSans-65" transform="translate(277.511719 0)"/>
      <use xlink:href="#DejaVuSans-6e" transform="translate(339.035156 0)"/>
      <use xlink:href="#DejaVuSans-63" transform="translate(402.414062 0)"/>
      <use xlink:href="#DejaVuSans-79" transform="translate(457.394531 0)"/>
      <use xlink:href="#DejaVuSans-20" transform="translate(516.574219 0)"/>
      <use xlink:href="#DejaVuSans-28" transform="translate(548.361328 0)"/>
      <use xlink:href="#DejaVuSans-4d" transform="translate(587.375 0)"/>
      <use xlink:href="#DejaVuSans-48" transform="translate(673.654297 0)"/>
      <use xlink:href="#DejaVuSans-7a" transform="translate(748.849609 0)"/>
      <use xlink:href="#DejaVuSans-29" transform="translate(801.339844 0)"/>
     </g>
    </g>
   </g>
   <g id="matplotlib.axis_2">
    <g id="ytick_1">
     <g id="line2d_11">
      <path d="M 53.03 246.04 
L 565.2 246.04 
" clip-path="url(#pfc25f10e5f)" style="fill: none; stroke: #b0b0b0; stroke-width: 0.8; stroke-linecap: square"/>
     </g>
     <g id="line2d_12">
      <defs>
       <path id="m1c5b1188d6" d="M 0 0 
L -3.5 0 
" style="stroke: #000000; stroke-width: 0.8"/>
      </defs>
      <g>
       <use xlink:href="#m1c5b1188d6" x="53.03" y="246.04" style="stroke: #000000; stroke-width: 0.8"/>
      </g>
     </g>
     <g id="text_7">
      <!-- −80 -->
      <g transform="translate(24.925313 249.839219) scale(0.1 -0.1)">
       <defs>
        <path id="DejaVuSans-38" d="M 2034 2216 
Q 1584 2216 1326 1975 
Q 1069 1734 1069 1313 
Q 1069 891 1326 650 
Q 1584 409 2034 409 
Q 2484 409 2743 651 
Q 3003 894 3003 1313 
Q 3003 1734 2745 1975 
Q 2488 2216 2034 2216 
z
M 1403 2484 
Q 997 2584 770 2862 
Q 544 3141 544 3541 
Q 544 4100 942 4425 
Q 1341 4750 2034 4750 
Q 2731 4750 3128 4425 
Q 3525 4100 3525 3541 
Q 3525 3141 3298 2862 
Q 3072 2584 2669 2484 
Q 3125 2378 3379 2068 
Q 3634 1759 3634 1313 
Q 3634 634 3220 271 
Q 2806 -91 2034 -91 
Q 1263 -91 848 271 
Q 434 634 434 1313 
Q 434 1759 690 2068 
Q 947 2378 1403 2484 
z
M 1172 3481 
Q 1172 3119 1398 2916 
Q 1625 2713 2034 2713 
Q 2441 2713 2670 2916 
Q 2900 3119 2900 3481 
Q 2900 3844 2670 4047 
Q 2441 4250 2034 4250 
Q 1625 4250 1398 4047 
Q 1172 3844 1172 3481 
z
" transform="scale(0.015625)"/>
       </defs>
       <use xlink:href="#DejaVuSans-2212"/>
       <use xlink:href="#DejaVuSans-38" transform="translate(83.789062 0)"/>
       <use xlink:href="#DejaVuSans-30" transform="translate(147.412109 0)"/>
      </g>
     </g>
    </g>
    <g id="ytick_2">
     <g id="line2d_13">
      <path d="M 53.03 220.334637 
L 565.2 220.334637 
" clip-path="url(#pfc25f10e5f)" style="fill: none; stroke: #b0b0b0; stroke-width: 0.8; stroke-linecap: square"/>
     </g>
     <g id="line2d_14">
      <g>
       <use xlink:href="#m1c5b1188d6" x="53.03" y="220.334637" style="stroke: #000000; stroke-width: 0.8"/>
      </g>
     </g>
     <g id="text_8">
      <!-- −70 -->
      <g transform="translate(24.925313 224.133856) scale(0.1 -0.1)">
       <defs>
        <path id="DejaVuSans-37" d="M 525 4666 
L 3525 4666 
L 3525 4397 
L 1831 0 
L 1172 0 
L 2766 4134 
L 525 4134 
L 525 4666 
z
" transform="scale(0.015625)"/>
       </defs>
       <use xlink:href="#DejaVuSans-2212"/>
       <use xlink:href="#DejaVuSans-37" transform="translate(83.789062 0)"/>
       <use xlink:href="#DejaVuSans-30" transform="translate(147.412109 0)"/>
      </g>
     </g>
    </g>
    <g id="ytick_3">
     <g id="line2d_15">
      <path d="M 53.03 194.629274 
L 565.2 194.629274 
" clip-path="url(#pfc25f10e5f)" style="fill: none; stroke: #b0b0b0; stroke-width: 0.8; stroke-linecap: square"/>
     </g>
     <g id="line2d_16">
      <g>
       <use xlink:href="#m1c5b1188d6" x="53.03" y="194.629274" style="stroke: #000000; stroke-width: 0.8"/>
      </g>
     </g>
     <g id="text_9">
      <!-- −60 -->
      <g transform="translate(24.925313 198.428493) scale(0.1 -0.1)">
       <defs>
        <path id="DejaVuSans-36" d="M 2113 2584 
Q 1688 2584 1439 2293 
Q 1191 2003 1191 1497 
Q 1191 994 1439 701 
Q 1688 409 2113 409 
Q 2538 409 2786 701 
Q 3034 994 3034 1497 
Q 3034 2003 2786 2293 
Q 2538 2584 2113 2584 
z
M 3366 4563 
L 3366 3988 
Q 3128 4100 2886 4159 
Q 2644 4219 2406 4219 
Q 1781 4219 1451 3797 
Q 1122 3375 1075 2522 
Q 1259 2794 1537 2939 
Q 1816 3084 2150 3084 
Q 2853 3084 3261 2657 
Q 3669 2231 3669 1497 
Q 3669 778 3244 343 
Q 2819 -91 2113 -91 
Q 1303 -91 875 529 
Q 447 1150 447 2328 
Q 447 3434 972 4092 
Q 1497 4750 2381 4750 
Q 2619 4750 2861 4703 
Q 3103 4656 3366 4563 
z
" transform="scale(0.015625)"/>
       </defs>
       <use xlink:href="#DejaVuSans-2212"/>
       <use xlink:href="#DejaVuSans-36" transform="translate(83.789062 0)"/>
       <use xlink:href="#DejaVuSans-30" transform="translate(147.412109 0)"/>
      </g>
     </g>
    </g>
    <g id="ytick_4">
     <g id="line2d_17">
      <path d="M 53.03 168.923912 
L 565.2 168.923912 
" clip-path="url(#pfc25f10e5f)" style="fill: none; stroke: #b0b0b0; stroke-width: 0.8; stroke-linecap: square"/>
     </g>
     <g id="line2d_18">
      <g>
       <use xlink:href="#m1c5b1188d6" x="53.03" y="168.923912" style="stroke: #000000; stroke-width: 0.8"/>
      </g>
     </g>
     <g id="text_10">
      <!-- −50 -->
      <g transform="translate(24.925313 172.72313) scale(0.1 -0.1)">
       <defs>
        <path id="DejaVuSans-35" d="M 691 4666 
L 3169 4666 
L 3169 4134 
L 1269 4134 
L 1269 2991 
Q 1406 3038 1543 3061 
Q 1681 3084 1819 3084 
Q 2600 3084 3056 2656 
Q 3513 2228 3513 1497 
Q 3513 744 3044 326 
Q 2575 -91 1722 -91 
Q 1428 -91 1123 -41 
Q 819 9 494 109 
L 494 744 
Q 775 591 1075 516 
Q 1375 441 1709 441 
Q 2250 441 2565 725 
Q 2881 1009 2881 1497 
Q 2881 1984 2565 2268 
Q 2250 2553 1709 2553 
Q 1456 2553 1204 2497 
Q 953 2441 691 2322 
L 691 4666 
z
" transform="scale(0.015625)"/>
       </defs>
       <use xlink:href="#DejaVuSans-2212"/>
       <use xlink:href="#DejaVuSans-35" transform="translate(83.789062 0)"/>
       <use xlink:href="#DejaVuSans-30" transform="translate(147.412109 0)"/>
      </g>
     </g>
    </g>
    <g id="ytick_5">
     <g id="line2d_19">
      <path d="M 53.03 143.218549 
L 565.2 143.218549 
" clip-path="url(#pfc25f10e5f)" style="fill: none; stroke: #b0b0b0; stroke-width: 0.8; stroke-linecap: square"/>
     </g>
     <g id="line2d_20">
      <g>
       <use xlink:href="#m1c5b1188d6" x="53.03" y="143.218549" style="stroke: #000000; stroke-width: 0.8"/>
      </g>
     </g>
     <g id="text_11">
      <!-- −40 -->
      <g transform="translate(24.925313 147.017767) scale(0.1 -0.1)">
       <use xlink:href="#DejaVuSans-2212"/>
       <use xlink:href="#DejaVuSans-34" transform="translate(83.789062 0)"/>
       <use xlink:href="#DejaVuSans-30" transform="translate(147.412109 0)"/>
      </g>
     </g>
    </g>
    <g id="ytick_6">
     <g id="line2d_21">
      <path d="M 53.03 117.513186 
L 565.2 117.513186 
" clip-path="url(#pfc25f10e5f)" style="fill: none; stroke: #b0b0b0; stroke-width: 0.8; stroke-linecap: square"/>
     </g>
     <g id="line2d_22">
      <g>
       <use xlink:href="#m1c5b1188d6" x="53.03" y="117.513186" style="stroke: #000000; stroke-width: 0.8"/>
      </g>
     </g>
     <g id="text_12">
      <!-- −30 -->
      <g transform="translate(24.925313 121.312405) scale(0.1 -0.1)">
       <defs>
        <path id="DejaVuSans-33" d="M 2597 2516 
Q 3050 2419 3304 2112 
Q 3559 1806 3559 1356 
Q 3559 666 3084 287 
Q 2609 -91 1734 -91 
Q 1441 -91 1130 -33 
Q 819 25 488 141 
L 488 750 
Q 750 597 1062 519 
Q 1375 441 1716 441 
Q 2309 441 2620 675 
Q 2931 909 2931 1356 
Q 2931 1769 2642 2001 
Q 2353 2234 1838 2234 
L 1294 2234 
L 1294 2753 
L 1863 2753 
Q 2328 2753 2575 2939 
Q 2822 3125 2822 3475 
Q 2822 3834 2567 4026 
Q 2313 4219 1838 4219 
Q 1578 4219 1281 4162 
Q 984 4106 628 3988 
L 628 4550 
Q 988 4650 1302 4700 
Q 1616 4750 1894 4750 
Q 2613 4750 3031 4423 
Q 3450 4097 3450 3541 
Q 3450 3153 3228 2886 
Q 3006 2619 2597 2516 
z
" transform="scale(0.015625)"/>
       </defs>
       <use xlink:href="#DejaVuSans-2212"/>
       <use xlink:href="#DejaVuSans-33" transform="translate(83.789062 0)"/>
       <use xlink:href="#DejaVuSans-30" transform="translate(147.412109 0)"/>
      </g>
     </g>
    </g>
    <g id="ytick_7">
     <g id="line2d_23">
      <path d="M 53.03 91.807823 
L 565.2 91.807823 
" clip-path="url(#pfc25f10e5f)" style="fill: none; stroke: #b0b0b0; stroke-width: 0.8; stroke-linecap: square"/>
     </g>
     <g id="line2d_24">
      <g>
       <use xlink:href="#m1c5b1188d6" x="53.03" y="91.807823" style="stroke: #000000; stroke-width: 0.8"/>
      </g>
     </g>
     <g id="text_13">
      <!-- −20 -->
      <g transform="translate(24.925313 95.607042) scale(0.1 -0.1)">
       <use xlink:href="#DejaVuSans-2212"/>
       <use xlink:href="#DejaVuSans-32" transform="translate(83.789062 0)"/>
       <use xlink:href="#DejaVuSans-30" transform="translate(147.412109 0)"/>
      </g>
     </g>
    </g>
    <g id="ytick_8">
     <g id="line2d_25">
      <path d="M 53.03 66.10246 
L 565.2 66.10246 
" clip-path="url(#pfc25f10e5f)" style="fill: none; stroke: #b0b0b0; stroke-width: 0.8; stroke-linecap: square"/>
     </g>
     <g id="line2d_26">
      <g>
       <use xlink:href="#m1c5b1188d6" x="53.03" y="66.10246" style="stroke: #000000; stroke-width: 0.8"/>
      </g>
     </g>
     <g id="text_14">
      <!-- −10 -->
      <g transform="translate(24.925313 69.901679) scale(0.1 -0.1)">
       <defs>
        <path id="DejaVuSans-31" d="M 794 531 
L 1825 531 
L 1825 4091 
L 703 3866 
L 703 4441 
L 1819 4666 
L 2450 4666 
L 2450 531 
L 3481 531 
L 3481 0 
L 794 0 
L 794 531 
z
" transform="scale(0.015625)"/>
       </defs>
       <use xlink:href="#DejaVuSans-2212"/>
       <use xlink:href="#DejaVuSans-31" transform="translate(83.789062 0)"/>
       <use xlink:href="#DejaVuSans-30" transform="translate(147.412109 0)"/>
      </g>
     </g>
    </g>
    <g id="ytick_9">
     <g id="line2d_27">
      <path d="M 53.03 40.397097 
L 565.2 40.397097 
" clip-path="url(#pfc25f10e5f)" style="fill: none; stroke: #b0b0b0; stroke-width: 0.8; stroke-linecap: square"/>
     </g>
     <g id="line2d_28">
      <g>
       <use xlink:href="#m1c5b1188d6" x="53.03" y="40.397097" style="stroke: #000000; stroke-width: 0.8"/>
      </g>
     </g>
     <g id="text_15">
      <!-- 0 -->
      <g transform="translate(39.6675 44.196316) scale(0.1 -0.1)">
       <use xlink:href="#DejaVuSans-30"/>
      </g>
     </g>
    </g>
    <g id="text_16">
     <!-- Magnitude (dB) -->
     <g transform="translate(18.845625 174.685156) rotate(-90) scale(0.1 -0.1)">
      <defs>
       <path id="DejaVuSans-61" d="M 2194 1759 
Q 1497 1759 1228 1600 
Q 959 1441 959 1056 
Q 959 750 1161 570 
Q 1363 391 1709 391 
Q 2188 391 2477 730 
Q 2766 1069 2766 1631 
L 2766 1759 
L 2194 1759 
z
M 3341 1997 
L 3341 0 
L 2766 0 
L 2766 531 
Q 2569 213 2275 61 
Q 1981 -91 1556 -91 
Q 1019 -91 701 211 
Q 384 513 384 1019 
Q 384 1609 779 1909 
Q 1175 2209 1959 2209 
L 2766 2209 
L 2766 2266 
Q 2766 2663 2505 2880 
Q 2244 3097 1772 3097 
Q 1472 3097 1187 3025 
Q 903 2953 641 2809 
L 641 3341 
Q 956 3463 1253 3523 
Q 1550 3584 1831 3584 
Q 2591 3584 2966 3190 
Q 3341 2797 3341 1997 
z
" transform="scale(0.015625)"/>
       <path id="DejaVuSans-67" d="M 2906 1791 
Q 2906 2416 2648 2759 
Q 2391 3103 1925 3103 
Q 1463 3103 1205 2759 
Q 947 2416 947 1791 
Q 947 1169 1205 825 
Q 1463 481 1925 481 
Q 2391 481 2648 825 
Q 2906 1169 2906 1791 
z
M 3481 434 
Q 3481 -459 3084 -895 
Q 2688 -1331 1869 -1331 
Q 1566 -1331 1297 -1286 
Q 1028 -1241 775 -1147 
L 775 -588 
Q 1028 -725 1275 -790 
Q 1522 -856 1778 -856 
Q 2344 -856 2625 -561 
Q 2906 -266 2906 331 
L 2906 616 
Q 2728 306 2450 153 
Q 2172 0 1784 0 
Q 1141 0 747 490 
Q 353 981 353 1791 
Q 353 2603 747 3093 
Q 1141 3584 1784 3584 
Q 2172 3584 2450 3431 
Q 2728 3278 2906 2969 
L 2906 3500 
L 3481 3500 
L 3481 434 
z
" transform="scale(0.015625)"/>
       <path id="DejaVuSans-69" d="M 603 3500 
L 1178 3500 
L 1178 0 
L 603 0 
L 603 3500 
z
M 603 4863 
L 1178 4863 
L 1178 4134 
L 603 4134 
L 603 4863 
z
" transform="scale(0.015625)"/>
       <path id="DejaVuSans-74" d="M 1172 4494 
L 1172 3500 
L 2356 3500 
L 2356 3053 
L 1172 3053 
L 1172 1153 
Q 1172 725 1289 603 
Q 1406 481 1766 481 
L 2356 481 
L 2356 0 
L 1766 0 
Q 1100 0 847 248 
Q 594 497 594 1153 
L 594 3053 
L 172 3053 
L 172 3500 
L 594 3500 
L 594 4494 
L 1172 4494 
z
" transform="scale(0.015625)"/>
       <path id="DejaVuSans-64" d="M 2906 2969 
L 2906 4863 
L 3481 4863 
L 3481 0 
L 2906 0 
L 2906 525 
Q 2725 213 2448 61 
Q 2172 -91 1784 -91 
Q 1150 -91 751 415 
Q 353 922 353 1747 
Q 353 2572 751 3078 
Q 1150 3584 1784 3584 
Q 2172 3584 2448 3432 
Q 2725 3281 2906 2969 
z
M 947 1747 
Q 947 1113 1208 752 
Q 1469 391 1925 391 
Q 2381 391 2643 752 
Q 2906 1113 2906 1747 
Q 2906 2381 2643 2742 
Q 2381 3103 1925 3103 
Q 1469 3103 1208 2742 
Q 947 2381 947 1747 
z
" transform="scale(0.015625)"/>
       <path id="DejaVuSans-42" d="M 1259 2228 
L 1259 519 
L 2272 519 
Q 2781 519 3026 730 
Q 3272 941 3272 1375 
Q 3272 1813 3026 2020 
Q 2781 2228 2272 2228 
L 1259 2228 
z
M 1259 4147 
L 1259 2741 
L 2194 2741 
Q 2656 2741 2882 2914 
Q 3109 3088 3109 3444 
Q 3109 3797 2882 3972 
Q 2656 4147 2194 4147 
L 1259 4147 
z
M 628 4666 
L 2241 4666 
Q 2963 4666 3353 4366 
Q 3744 4066 3744 3513 
Q 3744 3084 3544 2831 
Q 3344 2578 2956 2516 
Q 3422 2416 3680 2098 
Q 3938 1781 3938 1306 
Q 3938 681 3513 340 
Q 3088 0 2303 0 
L 628 0 
L 628 4666 
z
" transform="scale(0.015625)"/>
      </defs>
      <use xlink:href="#DejaVuSans-4d"/>
      <use xlink:href="#DejaVuSans-61" transform="translate(86.279297 0)"/>
      <use xlink:href="#DejaVuSans-67" transform="translate(147.558594 0)"/>
      <use xlink:href="#DejaVuSans-6e" transform="translate(211.035156 0)"/>
      <use xlink:href="#DejaVuSans-69" transform="translate(274.414062 0)"/>
      <use xlink:href="#DejaVuSans-74" transform="translate(302.197266 0)"/>
      <use xlink:href="#DejaVuSans-75" transform="translate(341.40625 0)"/>
      <use xlink:href="#DejaVuSans-64" transform="translate(404.785156 0)"/>
      <use xlink:href="#DejaVuSans-65" transform="translate(468.261719 0)"/>
      <use xlink:href="#DejaVuSans-20" transform="translate(529.785156 0)"/>
      <use xlink:href="#DejaVuSans-28" transform="translate(561.572266 0)"/>
      <use xlink:href="#DejaVuSans-64" transform="translate(600.585938 0)"/>
      <use xlink:href="#DejaVuSans-42" transform="translate(664.0625 0)"/>
      <use xlink:href="#DejaVuSans-29" transform="translate(732.666016 0)"/>
     </g>
    </g>
   </g>
   <g id="line2d_29">
    <path d="M 53.03 196.742298 
L 53.280205 160.967261 
L 53.53041 153.213977 
L 54.030821 160.770505 
L 54.281026 173.330481 
L 55.281847 134.073416 
L 55.532052 133.575522 
L 55.782257 136.023663 
L 56.532872 155.154942 
L 56.783078 242.664729 
L 57.033283 146.164885 
L 57.283488 134.315734 
L 57.533693 132.989472 
L 57.783898 138.119781 
L 58.034104 146.087537 
L 58.284309 141.988977 
L 58.534514 140.263391 
L 59.034924 157.304064 
L 59.285129 150.296094 
L 59.535335 160.934652 
L 59.78554 181.551665 
L 60.035745 158.538453 
L 60.28595 173.499682 
L 60.536155 172.125916 
L 60.786361 147.674199 
L 61.036566 139.625501 
L 61.286771 139.37337 
L 61.787181 140.353521 
L 62.037386 149.306081 
L 62.287592 164.649206 
L 62.537797 158.47546 
L 62.788002 146.553059 
L 63.038207 145.144718 
L 63.288412 153.180944 
L 63.538617 188.209215 
L 63.788823 160.209684 
L 64.039028 150.150243 
L 64.289233 150.988389 
L 64.539438 154.532612 
L 64.789643 177.605293 
L 65.039849 157.321642 
L 65.290054 148.205507 
L 65.540259 151.012003 
L 65.790464 157.329983 
L 66.290874 142.959868 
L 66.54108 145.005791 
L 67.291695 164.877997 
L 67.5419 181.143252 
L 67.792106 210.02085 
L 68.042311 171.577479 
L 68.292516 161.434681 
L 69.043131 150.851591 
L 69.293337 142.901476 
L 69.543542 141.952943 
L 69.793747 157.807603 
L 70.043952 193.660659 
L 70.294157 169.328209 
L 70.544362 174.931576 
L 71.294978 138.929537 
L 71.795388 154.373152 
L 72.045594 151.527265 
L 72.546004 141.666224 
L 72.796209 143.466266 
L 73.046414 150.756391 
L 73.296619 173.586476 
L 73.79703 146.834293 
L 74.047235 145.361398 
L 74.29744 146.778425 
L 74.547645 150.939435 
L 74.797851 148.806269 
L 75.048056 149.597474 
L 75.298261 158.798878 
L 75.548466 158.757595 
L 75.798671 154.861455 
L 76.048876 148.91507 
L 76.299082 148.139216 
L 76.549287 146.664842 
L 76.799492 160.494505 
L 77.049697 167.697976 
L 77.299902 153.735749 
L 77.800313 168.768584 
L 78.050518 163.4972 
L 78.300723 162.95871 
L 78.550928 161.217778 
L 79.301544 148.64616 
L 79.551749 155.336195 
L 79.801954 167.318428 
L 80.052159 173.122266 
L 80.302364 170.781972 
L 80.55257 152.521705 
L 80.802775 156.651886 
L 81.303185 185.289705 
L 81.803596 153.734261 
L 82.053801 151.423659 
L 82.554211 150.512372 
L 82.804416 161.846123 
L 83.054621 181.211113 
L 83.304827 154.917496 
L 83.555032 159.002716 
L 83.805237 172.542152 
L 84.055442 170.536784 
L 84.305647 184.727523 
L 84.555852 159.006728 
L 84.806058 160.449061 
L 85.056263 190.706789 
L 85.306468 194.273504 
L 85.556673 156.120121 
L 85.806878 142.619096 
L 86.057084 142.929109 
L 86.557494 149.807979 
L 87.057904 153.109007 
L 87.308109 165.993902 
L 87.558315 160.706861 
L 87.80852 143.745052 
L 88.058725 137.165237 
L 88.30893 134.539509 
L 88.559135 135.145451 
L 88.80934 143.68608 
L 89.059546 168.047822 
L 89.309751 161.470635 
L 89.559956 151.733785 
L 89.810161 154.367531 
L 90.060366 165.533976 
L 90.310572 152.983776 
L 90.560777 148.482352 
L 90.810982 161.510043 
L 91.061187 156.127563 
L 91.311392 144.71322 
L 91.561597 159.830605 
L 91.811803 156.648999 
L 92.062008 146.811352 
L 92.312213 154.625796 
L 92.562418 178.676245 
L 92.812623 155.439804 
L 93.062829 144.405955 
L 93.313034 149.818253 
L 93.563239 173.286837 
L 93.813444 180.127013 
L 94.814265 140.172323 
L 95.06447 142.086017 
L 95.314675 152.367102 
L 95.56488 157.547067 
L 95.815085 156.303224 
L 96.065291 166.759286 
L 96.315496 164.026624 
L 96.565701 146.701574 
L 96.815906 151.403277 
L 97.066111 151.715531 
L 97.316317 143.305611 
L 97.566522 149.285522 
L 97.816727 171.272578 
L 98.066932 168.896172 
L 98.317137 158.767232 
L 98.567342 187.555937 
L 98.817548 158.88883 
L 99.067753 146.74541 
L 99.317958 144.09687 
L 99.568163 148.62515 
L 99.818368 159.277371 
L 100.068574 155.283966 
L 100.318779 165.413648 
L 100.568984 189.270552 
L 100.819189 168.714182 
L 101.569805 196.790262 
L 101.82001 178.553801 
L 102.070215 146.597234 
L 102.32042 139.194571 
L 102.570625 143.806392 
L 103.071036 158.788368 
L 103.321241 162.867972 
L 103.571446 147.287138 
L 103.821651 141.520869 
L 104.071856 149.569047 
L 104.322062 162.910029 
L 104.572267 170.220453 
L 105.072677 153.418555 
L 105.573087 162.146546 
L 106.073498 140.052989 
L 106.323703 141.952272 
L 107.074319 179.755536 
L 107.324524 155.002215 
L 107.574729 148.050462 
L 107.824934 146.072761 
L 108.075139 146.964621 
L 108.57555 156.086077 
L 108.825755 163.347459 
L 109.326165 145.210836 
L 109.57637 151.395744 
L 110.076781 171.433951 
L 110.326986 158.917622 
L 110.577191 160.204816 
L 110.827396 183.818123 
L 111.077601 172.861761 
L 111.327807 153.063547 
L 111.578012 145.356506 
L 111.828217 144.548223 
L 112.078422 147.164597 
L 112.328627 147.340825 
L 112.578832 145.272662 
L 113.079243 129.27609 
L 113.329448 131.560524 
L 113.579653 143.580091 
L 113.829858 162.795192 
L 114.080064 161.296645 
L 114.330269 153.094021 
L 114.580474 162.91613 
L 115.080884 141.21594 
L 115.331089 142.373887 
L 115.8315 151.029315 
L 116.33191 143.478914 
L 116.582115 140.871191 
L 116.83232 140.645408 
L 117.082526 142.036455 
L 117.332731 141.690454 
L 117.582936 148.98446 
L 117.833141 150.057027 
L 118.083346 137.414681 
L 118.333552 132.518153 
L 118.583757 136.735922 
L 118.833962 146.05481 
L 119.334372 149.557396 
L 119.584577 194.033214 
L 119.834783 147.718003 
L 120.084988 141.555435 
L 120.585398 160.676767 
L 120.835603 163.503263 
L 121.085809 180.438324 
L 121.336014 147.689466 
L 121.586219 132.516441 
L 121.836424 129.234176 
L 122.086629 134.526877 
L 122.58704 164.845484 
L 122.837245 179.686573 
L 123.08745 170.487186 
L 123.337655 153.448809 
L 123.58786 147.245393 
L 123.838065 149.589012 
L 124.088271 145.238923 
L 124.338476 143.901466 
L 124.588681 143.648399 
L 125.089091 140.69834 
L 125.589502 150.776741 
L 125.839707 156.045851 
L 126.089912 169.582149 
L 126.340117 154.793323 
L 126.590322 157.567093 
L 126.840528 165.791258 
L 127.090733 150.887613 
L 127.340938 152.095045 
L 127.841348 183.578719 
L 128.091553 152.481196 
L 128.341759 145.999275 
L 128.591964 157.064183 
L 128.842169 192.336775 
L 129.092374 160.695781 
L 129.342579 158.386119 
L 129.592785 158.823967 
L 129.84299 170.966631 
L 130.093195 159.292734 
L 130.3434 161.880089 
L 130.593605 158.668771 
L 130.84381 141.875949 
L 131.094016 136.158102 
L 131.344221 137.723697 
L 131.594426 140.872459 
L 132.094836 148.98213 
L 132.595247 143.996334 
L 132.845452 151.254129 
L 133.095657 185.848144 
L 133.345862 147.059737 
L 133.596067 135.629578 
L 133.846273 136.827396 
L 134.096478 142.866858 
L 134.346683 145.861777 
L 134.596888 151.590651 
L 134.847093 160.797632 
L 135.097298 157.072836 
L 135.347504 166.847579 
L 135.597709 159.074591 
L 135.847914 159.388072 
L 136.348324 176.920861 
L 136.59853 158.151641 
L 136.848735 151.000103 
L 137.09894 158.519765 
L 137.349145 193.509403 
L 137.59935 167.49267 
L 137.849555 168.195672 
L 138.099761 164.775792 
L 138.349966 155.627895 
L 138.600171 157.71632 
L 139.100581 192.866746 
L 139.350787 153.987102 
L 139.600992 141.110624 
L 139.851197 139.512478 
L 140.101402 146.480748 
L 140.601812 176.173121 
L 140.852018 158.844089 
L 141.102223 153.692993 
L 141.352428 158.835331 
L 141.602633 170.035588 
L 141.852838 186.453227 
L 142.103043 162.548891 
L 142.353249 150.611658 
L 142.603454 152.279272 
L 143.103864 161.575388 
L 143.354069 174.030223 
L 144.104685 139.764281 
L 144.605095 153.153761 
L 144.8553 154.804658 
L 145.105506 151.084897 
L 145.355711 157.919761 
L 145.605916 183.208693 
L 145.856121 165.63788 
L 146.106326 138.576669 
L 146.356532 129.77268 
L 146.606737 133.927094 
L 146.856942 153.801068 
L 147.357352 139.655979 
L 147.607557 147.010265 
L 147.857763 171.161131 
L 148.358173 149.925981 
L 148.858583 146.150541 
L 149.108788 154.14367 
L 149.358994 170.84268 
L 149.609199 152.109686 
L 149.859404 157.80455 
L 150.109609 192.239087 
L 150.61002 152.487698 
L 150.860225 155.28702 
L 151.11043 179.356418 
L 151.861045 154.042193 
L 152.111251 162.674192 
L 152.361456 166.298839 
L 152.611661 159.937518 
L 152.861866 169.536949 
L 153.112071 165.780038 
L 153.362277 166.53183 
L 153.612482 169.741625 
L 153.862687 170.652698 
L 154.363097 147.910192 
L 154.613302 149.895754 
L 154.863508 159.064517 
L 155.113713 159.66855 
L 155.363918 153.410793 
L 155.614123 152.939093 
L 155.864328 151.07508 
L 156.114533 146.968782 
L 156.364739 147.375921 
L 156.614944 159.089765 
L 156.865149 187.755532 
L 157.115354 154.576926 
L 157.365559 150.420858 
L 157.615765 156.242212 
L 157.86597 144.734502 
L 158.116175 144.733641 
L 158.616585 160.958018 
L 159.116996 147.595496 
L 159.367201 152.356185 
L 159.617406 164.462482 
L 160.117816 149.093858 
L 160.368021 156.24825 
L 160.618227 184.670957 
L 160.868432 165.421765 
L 161.368842 212.445289 
L 161.619047 168.786952 
L 162.119458 152.853178 
L 162.369663 152.33042 
L 162.619868 154.607509 
L 163.120278 140.202144 
L 163.370484 139.249761 
L 163.620689 152.513845 
L 163.870894 180.454831 
L 164.121099 153.351398 
L 164.371304 157.067206 
L 164.62151 157.23602 
L 164.871715 153.064648 
L 165.12192 152.284369 
L 165.372125 142.649939 
L 165.62233 138.747958 
L 165.872535 151.139051 
L 166.122741 170.030614 
L 166.372946 164.097626 
L 166.873356 182.538041 
L 167.123561 171.087072 
L 167.373766 171.637883 
L 167.874177 154.031042 
L 168.124382 149.174847 
L 168.624792 161.182704 
L 168.874998 158.926378 
L 169.125203 162.172585 
L 169.625613 173.387315 
L 169.875818 194.285355 
L 170.126023 193.495191 
L 170.876639 160.338799 
L 171.126844 160.923901 
L 171.627255 182.511029 
L 171.87746 177.682507 
L 172.628075 170.709282 
L 172.87828 178.388018 
L 173.378691 212.767807 
L 173.628896 253.498726 
L 173.879101 226.782862 
L 174.129306 226.069549 
L 174.379511 229.679134 
L 174.629717 224.09238 
L 174.879922 222.688492 
L 175.130127 229.026928 
L 175.380332 228.380021 
L 175.630537 223.909049 
L 175.880743 235.997701 
L 176.130948 255.974231 
L 176.381153 249.135309 
L 176.631358 248.129856 
L 176.881563 253.474968 
L 177.131768 235.982419 
L 177.381974 227.872409 
L 177.632179 228.258331 
L 177.882384 228.064554 
L 178.132589 216.622547 
L 178.382794 215.803105 
L 178.883205 246.247827 
L 179.13341 228.9934 
L 179.383615 224.494194 
L 179.63382 234.454885 
L 179.884025 256.645372 
L 180.134231 229.222527 
L 180.384436 224.792549 
L 180.634641 237.098207 
L 180.884846 255.708001 
L 181.135051 232.537476 
L 181.385256 221.761809 
L 181.635462 216.173992 
L 182.135872 238.826334 
L 182.386077 219.288588 
L 182.636282 225.975547 
L 183.136693 265.649102 
L 183.386898 258.852022 
L 183.637103 236.025588 
L 183.887308 227.3658 
L 184.137513 227.566749 
L 184.637924 245.452781 
L 184.888129 237.700961 
L 185.138334 225.272727 
L 185.388539 221.518019 
L 185.638745 234.157524 
L 185.88895 263.850328 
L 186.139155 238.922951 
L 186.38936 238.855287 
L 186.639565 236.56499 
L 186.88977 232.814345 
L 187.139976 232.759359 
L 187.390181 230.760987 
L 187.640386 232.572212 
L 187.890591 241.816129 
L 188.140796 237.282922 
L 188.391001 240.596968 
L 188.891412 237.088329 
L 189.141617 239.766303 
L 189.391822 252.686111 
L 189.642027 251.320055 
L 189.892233 257.482728 
L 190.142438 282.93754 
L 190.392643 245.059048 
L 190.642848 225.902103 
L 190.893053 224.636488 
L 191.143258 233.657267 
L 191.393464 234.978687 
L 191.643669 243.200309 
L 192.144079 224.787706 
L 192.394284 223.799968 
L 192.644489 231.998193 
L 193.1449 288.024662 
L 193.395105 265.090894 
L 193.64531 260.653295 
L 194.145721 235.24757 
L 194.395926 232.117876 
L 194.646131 245.682156 
L 194.896336 252.754482 
L 195.146541 234.888252 
L 195.396746 235.108773 
L 195.897157 86.000332 
L 196.147362 54.508584 
L 196.397567 40.397097 
L 196.647772 41.275298 
L 196.897978 57.270861 
L 197.148183 91.127262 
L 197.648593 219.408806 
L 198.149003 217.153099 
L 198.399209 217.768697 
L 198.649414 219.730575 
L 198.899619 226.458905 
L 199.400029 262.328552 
L 199.90044 223.379053 
L 200.150645 219.099949 
L 200.651055 225.379422 
L 201.151466 218.613988 
L 201.902081 234.457084 
L 202.152286 256.934958 
L 202.402491 263.641881 
L 202.652697 247.051195 
L 202.902902 251.746356 
L 203.403312 227.326948 
L 203.653517 231.483481 
L 203.903723 225.964486 
L 204.153928 217.925198 
L 204.404133 221.672239 
L 204.654338 243.999793 
L 204.904543 243.929502 
L 205.154748 244.307069 
L 205.404954 246.194982 
L 205.655159 241.442311 
L 205.905364 245.119398 
L 206.155569 253.247984 
L 206.405774 252.86915 
L 206.655979 228.536827 
L 206.906185 220.903985 
L 207.15639 225.796839 
L 207.406595 237.676434 
L 207.6568 240.821019 
L 207.907005 238.037323 
L 208.157211 241.236789 
L 208.407416 248.21086 
L 208.907826 226.075542 
L 209.158031 224.203325 
L 209.408236 224.433261 
L 209.658442 231.062155 
L 210.158852 274.845031 
L 210.409057 264.537821 
L 210.659262 240.327254 
L 211.159673 221.170006 
L 211.409878 218.132806 
L 211.910288 245.254083 
L 212.160493 234.593964 
L 212.410699 261.054208 
L 212.660904 238.282021 
L 212.911109 236.216211 
L 213.143222 289 
M 213.178096 289 
L 213.411519 231.772653 
L 213.661724 228.791089 
L 213.91193 231.878162 
L 214.162135 231.482938 
L 214.41234 233.131014 
L 214.662545 238.067416 
L 214.91275 267.37115 
L 215.162956 248.394039 
L 215.413161 241.989209 
L 215.663366 248.238319 
L 215.913571 257.565821 
L 216.413981 239.87481 
L 216.664187 237.495793 
L 217.164597 218.794701 
L 217.414802 218.638805 
L 217.665007 239.20055 
L 217.915213 234.590616 
L 218.165418 222.709583 
L 218.415623 233.849139 
L 218.916033 230.748055 
L 219.166238 244.173157 
L 219.416444 235.096262 
L 219.666649 238.697252 
L 219.916854 244.527125 
L 220.167059 255.117289 
L 220.28813 289 
M 220.557825 289 
L 220.667469 260.809699 
L 220.917675 241.394039 
L 221.16788 201.841252 
L 221.66829 90.474029 
L 221.918495 69.885696 
L 222.168701 64.879906 
L 222.418906 74.683553 
L 222.669111 100.894134 
L 222.919316 149.794258 
L 223.169521 226.9183 
L 223.419726 222.691401 
L 223.669932 240.423556 
L 223.920137 283.498452 
L 224.170342 239.196708 
L 224.420547 222.905354 
L 224.670752 216.647592 
L 224.920957 218.152665 
L 225.671573 239.855032 
L 225.921778 255.962373 
L 226.171983 254.218659 
L 226.422189 239.263287 
L 226.672394 236.240817 
L 226.922599 236.597964 
L 227.423009 217.659421 
L 227.673214 215.266162 
L 227.92342 220.453327 
L 228.42383 255.350893 
L 228.674035 226.772391 
L 228.92424 222.880252 
L 229.424651 228.429199 
L 229.674856 235.587884 
L 229.925061 258.132073 
L 230.425471 233.322451 
L 230.675677 235.681048 
L 230.925882 253.536755 
L 231.426292 238.463795 
L 231.676497 248.055395 
L 231.926702 247.47897 
L 232.176908 221.557297 
L 232.427113 212.996602 
L 232.677318 212.370108 
L 232.927523 212.560934 
L 233.177728 217.146627 
L 233.427934 224.158973 
L 233.678139 226.100114 
L 234.178549 220.679908 
L 234.428754 219.763457 
L 234.678959 222.843107 
L 234.929165 227.562273 
L 235.17937 222.847041 
L 235.429575 213.259011 
L 235.67978 210.23547 
L 235.929985 216.776782 
L 236.430396 240.029274 
L 236.680601 241.460593 
L 236.930806 232.13088 
L 237.181011 230.731524 
L 237.431216 252.922874 
L 237.681422 228.58337 
L 237.931627 216.642214 
L 238.181832 225.638792 
L 238.432037 239.078512 
L 238.682242 221.713146 
L 238.932447 220.585077 
L 239.182653 229.181847 
L 239.432858 249.491483 
L 239.683063 213.20481 
L 240.183473 189.764223 
L 240.433679 183.728476 
L 240.683884 182.593822 
L 240.934089 183.258721 
L 241.184294 187.831943 
L 241.434499 208.337156 
L 241.684704 182.990115 
L 241.93491 177.327642 
L 242.185115 184.400715 
L 242.43532 186.160671 
L 242.685525 218.441901 
L 242.93573 181.154037 
L 243.185936 166.495428 
L 243.436141 166.045267 
L 243.686346 175.148273 
L 244.186756 151.721786 
L 244.436961 153.537968 
L 244.687167 163.922953 
L 244.937372 157.798285 
L 245.187577 144.804742 
L 245.437782 145.718902 
L 245.687987 155.335229 
L 245.938192 159.853326 
L 246.188398 156.278469 
L 246.438603 159.616373 
L 246.939013 155.00977 
L 247.189218 163.770882 
L 247.689629 136.732229 
L 247.939834 139.689996 
L 248.190039 152.520452 
L 248.440244 147.206953 
L 248.690449 151.234462 
L 248.940655 216.49649 
L 249.19086 150.156436 
L 249.441065 137.962841 
L 249.69127 134.527462 
L 249.941475 137.279328 
L 250.191681 143.548111 
L 250.441886 146.371866 
L 250.692091 155.036817 
L 250.942296 182.311583 
L 251.192501 166.153663 
L 251.442706 164.59637 
L 251.692912 183.51163 
L 251.943117 176.758604 
L 252.193322 155.284783 
L 252.443527 147.616149 
L 252.693732 145.933363 
L 252.943937 146.709705 
L 253.194143 150.63056 
L 253.694553 163.519925 
L 253.944758 170.582099 
L 254.194963 194.313966 
L 254.445169 185.589497 
L 254.695374 170.932185 
L 254.945579 178.442126 
L 255.195784 175.1583 
L 255.445989 180.027034 
L 255.9464 146.496898 
L 256.196605 142.101058 
L 256.44681 148.59014 
L 256.697015 159.222245 
L 257.197426 142.429508 
L 257.447631 143.410211 
L 257.948041 153.331959 
L 258.198246 158.910786 
L 258.448451 167.785024 
L 258.698657 193.999464 
L 258.948862 197.231389 
L 259.449272 169.169502 
L 259.699477 156.373691 
L 259.949682 153.64375 
L 260.199888 162.052953 
L 260.450093 154.128303 
L 260.700298 153.099307 
L 260.950503 158.267109 
L 261.450914 146.168633 
L 261.701119 148.509281 
L 261.951324 152.714297 
L 262.201529 151.689936 
L 262.451734 151.792452 
L 262.701939 156.864049 
L 262.952145 149.955439 
L 263.20235 159.047496 
L 263.452555 174.994395 
L 263.70276 155.874211 
L 264.20317 152.030282 
L 264.453376 152.573371 
L 265.203991 163.492496 
L 265.454196 159.363371 
L 265.954607 148.318846 
L 266.204812 150.616644 
L 266.455017 163.627284 
L 266.705222 162.80297 
L 266.955427 156.957562 
L 267.205633 172.357622 
L 267.455838 170.8242 
L 267.706043 162.498431 
L 267.956248 163.102443 
L 268.206453 142.605216 
L 268.456659 136.68007 
L 268.706864 139.936454 
L 268.957069 151.709192 
L 269.457479 161.963203 
L 269.707684 157.566823 
L 269.95789 150.463429 
L 270.208095 150.041313 
L 270.4583 143.894124 
L 270.708505 143.334099 
L 271.208915 152.419182 
L 271.459121 153.298941 
L 271.709326 153.527115 
L 271.959531 160.664714 
L 272.209736 162.948928 
L 272.459941 155.224045 
L 272.710147 161.83282 
L 272.960352 171.69775 
L 273.210557 168.426161 
L 273.460762 152.927259 
L 273.710967 149.414526 
L 273.961172 167.264256 
L 274.211378 171.289428 
L 274.461583 147.436016 
L 274.711788 140.153781 
L 274.961993 142.865815 
L 275.212198 154.935766 
L 275.462404 195.569348 
L 275.712609 176.042043 
L 275.962814 186.483709 
L 276.213019 188.327252 
L 276.713429 145.542802 
L 276.963635 140.455481 
L 277.21384 141.146867 
L 277.464045 148.272234 
L 277.71425 168.416543 
L 277.964455 167.953811 
L 278.21466 167.052879 
L 278.464866 163.827287 
L 278.715071 157.434238 
L 278.965276 157.881437 
L 279.215481 157.306457 
L 279.465686 148.582583 
L 279.715892 144.695548 
L 279.966097 151.18575 
L 280.216302 161.893577 
L 280.466507 164.599169 
L 280.716712 153.734193 
L 281.217123 144.101557 
L 281.467328 140.958219 
L 281.967738 156.723574 
L 282.217943 149.109688 
L 282.468149 145.555345 
L 282.718354 150.320326 
L 282.968559 160.44124 
L 283.218764 177.689665 
L 283.468969 150.30107 
L 283.719174 138.927581 
L 283.96938 145.139739 
L 284.219585 167.610401 
L 284.46979 169.330355 
L 284.719995 150.83326 
L 284.9702 151.141353 
L 285.220405 156.939223 
L 285.470611 157.893532 
L 285.971021 145.168952 
L 286.221226 147.535934 
L 286.471431 163.760333 
L 286.971842 150.720334 
L 287.222047 154.93596 
L 287.722457 148.101897 
L 287.972662 150.068798 
L 288.222868 142.101216 
L 288.473073 143.712514 
L 288.723278 149.893083 
L 288.973483 149.66829 
L 289.473894 141.979725 
L 289.724099 144.957345 
L 289.974304 151.22097 
L 290.224509 149.942303 
L 290.474714 148.021702 
L 290.975125 157.738689 
L 291.22533 151.448662 
L 291.72574 145.471434 
L 291.975945 151.643288 
L 292.22615 177.230365 
L 292.476356 160.748934 
L 292.726561 171.148253 
L 292.976766 162.951689 
L 293.226971 176.396881 
L 293.727382 146.344453 
L 293.977587 148.466535 
L 294.227792 163.762859 
L 294.477997 162.935595 
L 294.728202 152.312813 
L 294.978407 158.610123 
L 295.228613 190.765719 
L 295.478818 157.659018 
L 295.729023 157.246353 
L 295.979228 158.293135 
L 296.229433 146.653477 
L 296.479638 148.343351 
L 296.729844 157.470388 
L 297.230254 161.124301 
L 297.730664 170.198525 
L 297.98087 187.216832 
L 298.48128 153.101742 
L 298.731485 150.389712 
L 299.231895 142.254814 
L 299.482101 147.09517 
L 299.732306 175.444118 
L 300.232716 143.948319 
L 300.482921 142.811068 
L 300.733127 143.442103 
L 300.983332 143.664682 
L 301.233537 148.305948 
L 301.483742 157.404607 
L 301.733947 156.766275 
L 301.984152 151.081156 
L 302.234358 163.345912 
L 302.484563 157.343483 
L 302.734768 142.557686 
L 302.984973 141.861895 
L 303.235178 155.340094 
L 303.485383 157.937895 
L 303.735589 150.779065 
L 303.985794 165.405282 
L 304.235999 169.738834 
L 304.736409 154.96942 
L 304.986615 153.476191 
L 305.23682 154.88517 
L 305.487025 152.184693 
L 305.987435 169.160451 
L 306.23764 161.958594 
L 306.487846 157.988218 
L 306.738051 148.180222 
L 307.238461 142.854471 
L 307.488666 136.746108 
L 307.738872 135.510466 
L 307.989077 143.932898 
L 308.239282 156.506443 
L 308.489487 149.974713 
L 308.739692 146.868584 
L 308.989897 153.659024 
L 309.240103 204.370233 
L 309.490308 153.659024 
L 309.740513 146.868584 
L 309.990718 149.974713 
L 310.240923 156.506443 
L 310.741334 135.510466 
L 310.991539 136.746108 
L 311.241744 142.854471 
L 311.742154 148.180222 
L 311.99236 157.988218 
L 312.242565 161.958594 
L 312.49277 169.160451 
L 312.99318 152.184693 
L 313.243385 154.88517 
L 313.493591 153.476191 
L 313.743796 154.96942 
L 314.244206 169.738834 
L 314.494411 165.405282 
L 314.744617 150.779065 
L 314.994822 157.937895 
L 315.245027 155.340094 
L 315.495232 141.861895 
L 315.745437 142.557686 
L 315.995642 157.343483 
L 316.245848 163.345912 
L 316.496053 151.081156 
L 316.746258 156.766275 
L 316.996463 157.404607 
L 317.246668 148.305948 
L 317.496873 143.664682 
L 317.747079 143.442103 
L 317.997284 142.811068 
L 318.247489 143.948319 
L 318.497694 156.076341 
L 318.747899 175.444118 
L 318.998105 147.09517 
L 319.24831 142.254814 
L 319.498515 145.226098 
L 319.74872 150.389712 
L 319.998925 153.101742 
L 320.24913 165.758643 
L 320.499336 187.216832 
L 320.749541 170.198525 
L 320.999746 166.487968 
L 321.249951 161.124301 
L 321.750362 157.470388 
L 322.000567 148.343351 
L 322.250772 146.653477 
L 322.500977 158.293135 
L 322.751182 157.246353 
L 323.001387 157.659018 
L 323.251593 190.765719 
L 323.501798 158.610123 
L 323.752003 152.312813 
L 324.002208 162.935595 
L 324.252413 163.762859 
L 324.502618 148.466535 
L 324.752824 146.344453 
L 325.253234 176.396881 
L 325.503439 162.951689 
L 325.753644 171.148253 
L 326.00385 160.748934 
L 326.254055 177.230365 
L 326.50426 151.643288 
L 326.754465 145.471434 
L 327.254875 151.448662 
L 327.505081 157.738689 
L 328.005491 148.021702 
L 328.505901 151.22097 
L 328.756106 144.957345 
L 329.006312 141.979725 
L 329.506722 149.66829 
L 329.756927 149.893083 
L 330.007132 143.712514 
L 330.257338 142.101216 
L 330.507543 150.068798 
L 330.757748 148.101897 
L 331.258158 154.93596 
L 331.508363 150.720334 
L 332.008774 163.760333 
L 332.258979 147.535934 
L 332.509184 145.168952 
L 333.009595 157.893532 
L 333.2598 156.939223 
L 333.510005 151.141353 
L 333.76021 150.83326 
L 334.010415 169.330355 
L 334.26062 167.610401 
L 334.510826 145.139739 
L 334.761031 138.927581 
L 335.011236 150.30107 
L 335.261441 177.689665 
L 335.761851 150.320326 
L 336.012057 145.555345 
L 336.262262 149.109688 
L 336.512467 156.723574 
L 337.012877 140.958219 
L 337.513288 148.575526 
L 337.763493 153.734193 
L 338.013698 164.599169 
L 338.263903 161.893577 
L 338.764314 144.695548 
L 339.014519 148.582583 
L 339.264724 157.306457 
L 339.514929 157.881437 
L 339.765134 157.434238 
L 340.01534 163.827287 
L 340.265545 167.052879 
L 340.51575 167.953811 
L 340.765955 168.416543 
L 341.01616 148.272234 
L 341.266365 141.146867 
L 341.516571 140.455481 
L 341.766776 145.542802 
L 342.016981 161.070318 
L 342.267186 188.327252 
L 342.517391 186.483709 
L 342.767596 176.042043 
L 343.017802 195.569348 
L 343.268007 154.935766 
L 343.518212 142.865815 
L 343.768417 140.153781 
L 344.018622 147.436016 
L 344.268828 171.289428 
L 344.519033 167.264256 
L 344.769238 149.414526 
L 345.019443 152.927259 
L 345.269648 168.426161 
L 345.519853 171.69775 
L 346.020264 155.224045 
L 346.270469 162.948928 
L 346.520674 160.664714 
L 346.770879 153.527115 
L 347.021085 153.298941 
L 347.27129 152.419182 
L 347.7717 143.334099 
L 348.021905 143.894124 
L 348.27211 150.041313 
L 348.522316 150.463429 
L 349.022726 161.963203 
L 349.272931 158.013105 
L 349.523136 151.709192 
L 349.773341 139.936454 
L 350.023547 136.68007 
L 350.273752 142.605216 
L 350.523957 163.102443 
L 350.774162 162.498431 
L 351.024367 170.8242 
L 351.274573 172.357622 
L 351.524778 156.957562 
L 351.774983 162.80297 
L 352.025188 163.627284 
L 352.275393 150.616644 
L 352.525598 148.318846 
L 352.775804 152.453632 
L 353.276214 163.492496 
L 353.776624 156.033775 
L 354.02683 152.573371 
L 354.277035 152.030282 
L 354.52724 153.593852 
L 354.777445 155.874211 
L 355.02765 174.994395 
L 355.528061 149.955439 
L 355.778266 156.864049 
L 356.028471 151.792452 
L 356.278676 151.689936 
L 356.528881 152.714297 
L 357.029292 146.168633 
L 357.529702 158.267109 
L 357.779907 153.099307 
L 358.030112 154.128303 
L 358.280318 162.052953 
L 358.530523 153.64375 
L 358.780728 156.373691 
L 359.531343 197.231389 
L 359.781549 193.999464 
L 360.031754 167.785024 
L 360.532164 153.331959 
L 361.032574 143.410211 
L 361.28278 142.429508 
L 361.532985 148.947348 
L 361.78319 159.222245 
L 362.2836 142.101058 
L 362.533806 146.496898 
L 363.034216 180.027034 
L 363.284421 175.1583 
L 363.534626 178.442126 
L 363.784831 170.932185 
L 364.285242 194.313966 
L 364.535447 170.582099 
L 365.286063 150.63056 
L 365.536268 146.709705 
L 365.786473 145.933363 
L 366.036678 147.616149 
L 366.286883 155.284783 
L 366.537088 176.758604 
L 366.787294 183.51163 
L 367.037499 164.59637 
L 367.287704 166.153663 
L 367.537909 182.311583 
L 367.788114 155.036817 
L 368.038319 146.371866 
L 368.288525 143.548111 
L 368.53873 137.279328 
L 368.788935 134.527462 
L 369.03914 137.962841 
L 369.289345 150.156436 
L 369.539551 216.49649 
L 369.789756 151.234462 
L 370.039961 147.206953 
L 370.290166 152.520452 
L 370.540371 139.689996 
L 370.790576 136.732229 
L 371.290987 163.770882 
L 371.541192 155.00977 
L 371.791397 156.847558 
L 372.041602 159.616373 
L 372.291808 156.278469 
L 372.542013 159.853326 
L 372.792218 155.335229 
L 373.042423 145.718902 
L 373.292628 144.804742 
L 373.542833 157.798285 
L 373.793039 163.922953 
L 374.043244 153.537968 
L 374.293449 151.721786 
L 374.543654 160.379455 
L 374.793859 175.148273 
L 375.044064 166.045267 
L 375.29427 166.495428 
L 375.544475 181.154037 
L 375.79468 218.441901 
L 376.044885 186.160671 
L 376.29509 184.400715 
L 376.545296 177.327642 
L 376.795501 182.990115 
L 377.045706 208.337156 
L 377.295911 187.831943 
L 377.546116 183.258721 
L 377.796321 182.593822 
L 378.046527 183.728476 
L 378.296732 189.764223 
L 378.546937 199.081851 
L 378.797142 213.20481 
L 379.047347 249.491483 
L 379.297553 229.181847 
L 379.547758 220.585077 
L 379.797963 221.713146 
L 380.048168 239.078512 
L 380.548578 216.642214 
L 380.798784 228.58337 
L 381.048989 252.922874 
L 381.299194 230.731524 
L 381.549399 232.13088 
L 381.799604 241.460593 
L 382.049809 240.029274 
L 382.800425 210.23547 
L 383.05063 213.259011 
L 383.300835 222.847041 
L 383.551041 227.562273 
L 384.051451 219.763457 
L 384.301656 220.679908 
L 384.802066 226.100114 
L 385.052272 224.158973 
L 385.552682 212.560934 
L 385.802887 212.370108 
L 386.053092 212.996602 
L 386.303298 221.557297 
L 386.553503 247.47897 
L 386.803708 248.055395 
L 387.053913 238.463795 
L 387.554323 253.536755 
L 387.804529 235.681048 
L 388.054734 233.322451 
L 388.555144 258.132073 
L 388.805349 235.587884 
L 389.055554 228.429199 
L 389.555965 222.880252 
L 389.80617 226.772391 
L 390.056375 255.350893 
L 390.556786 220.453327 
L 390.806991 215.266162 
L 391.057196 217.659421 
L 391.557606 236.597964 
L 391.807811 236.240817 
L 392.058017 239.263287 
L 392.308222 254.218659 
L 392.558427 255.962373 
L 392.808632 239.855032 
L 393.559248 218.152665 
L 393.809453 216.647592 
L 394.059658 222.905354 
L 394.309863 239.196708 
L 394.560068 283.498452 
L 394.810274 240.423556 
L 395.060479 222.691401 
L 395.310684 226.9183 
L 395.811094 100.894134 
L 396.061299 74.683553 
L 396.311505 64.879906 
L 396.56171 69.885696 
L 396.811915 90.474029 
L 397.06212 130.533676 
L 397.312325 201.841252 
L 397.562531 241.394039 
L 397.812736 260.809699 
L 397.92238 289 
M 398.192075 289 
L 398.313146 255.117289 
L 398.563351 244.527125 
L 399.063762 235.096262 
L 399.313967 244.173157 
L 399.564172 230.748055 
L 399.814377 231.987327 
L 400.064582 233.849139 
L 400.314787 222.709583 
L 400.564993 234.590616 
L 400.815198 239.20055 
L 401.065403 218.638805 
L 401.315608 218.794701 
L 401.816019 237.495793 
L 402.066224 239.87481 
L 402.566634 257.565821 
L 403.067044 241.989209 
L 403.31725 248.394039 
L 403.567455 267.37115 
L 403.81766 238.067416 
L 404.067865 233.131014 
L 404.31807 231.482938 
L 404.568276 231.878162 
L 404.818481 228.791089 
L 405.068686 231.772653 
L 405.30211 289 
M 405.336983 289 
L 405.569096 236.216211 
L 405.819301 238.282021 
L 406.069507 261.054208 
L 406.319712 234.593964 
L 406.569917 245.254083 
L 407.070327 218.132806 
L 407.320532 221.170006 
L 407.820943 240.327254 
L 408.071148 264.537821 
L 408.321353 274.845031 
L 408.821764 231.062155 
L 409.071969 224.433261 
L 409.322174 224.203325 
L 409.572379 226.075542 
L 409.822584 235.118987 
L 410.072789 248.21086 
L 410.322995 241.236789 
L 410.5732 238.037323 
L 410.823405 240.821019 
L 411.07361 237.676434 
L 411.323815 225.796839 
L 411.574021 220.903985 
L 411.824226 228.536827 
L 412.074431 252.86915 
L 412.324636 253.247984 
L 412.574841 245.119398 
L 412.825046 241.442311 
L 413.075252 246.194982 
L 413.325457 244.307069 
L 413.575662 243.929502 
L 413.825867 243.999793 
L 414.076072 221.672239 
L 414.326277 217.925198 
L 414.826688 231.483481 
L 415.076893 227.326948 
L 415.577303 251.746356 
L 415.827509 247.051195 
L 416.077714 263.641881 
L 416.327919 256.934958 
L 416.578124 234.457084 
L 417.32874 218.613988 
L 417.82915 225.379422 
L 418.32956 219.099949 
L 418.579766 223.379053 
L 418.829971 237.558731 
L 419.080176 262.328552 
L 419.580586 226.458905 
L 419.830791 219.730575 
L 420.080997 217.768697 
L 420.331202 217.153099 
L 420.581407 217.991929 
L 420.831612 219.408806 
L 421.332022 91.127262 
L 421.582228 57.270861 
L 421.832433 41.275298 
L 422.082638 40.397097 
L 422.332843 54.508584 
L 422.583048 86.000332 
L 422.833254 142.71016 
L 423.083459 235.108773 
L 423.333664 234.888252 
L 423.583869 252.754482 
L 423.834074 245.682156 
L 424.084279 232.117876 
L 424.334485 235.24757 
L 424.834895 260.653295 
L 425.0851 265.090894 
L 425.335305 288.024662 
L 425.835716 231.998193 
L 426.085921 223.799968 
L 426.336126 224.787706 
L 426.836536 243.200309 
L 427.086742 234.978687 
L 427.336947 233.657267 
L 427.587152 224.636488 
L 427.837357 225.902103 
L 428.087562 245.059048 
L 428.337767 282.93754 
L 428.587973 257.482728 
L 428.838178 251.320055 
L 429.088383 252.686111 
L 429.338588 239.766303 
L 429.588793 237.088329 
L 430.089204 240.596968 
L 430.339409 237.282922 
L 430.589614 241.816129 
L 430.839819 232.572212 
L 431.090024 230.760987 
L 431.34023 232.759359 
L 431.590435 232.814345 
L 432.090845 238.855287 
L 432.34105 238.922951 
L 432.591255 263.850328 
L 432.841461 234.157524 
L 433.091666 221.518019 
L 433.341871 225.272727 
L 433.842281 245.452781 
L 434.342692 227.566749 
L 434.592897 227.3658 
L 434.843102 236.025588 
L 435.093307 258.852022 
L 435.343512 265.649102 
L 435.843923 225.975547 
L 436.094128 219.288588 
L 436.344333 238.826334 
L 436.844744 216.173992 
L 437.094949 221.761809 
L 437.345154 232.537476 
L 437.595359 255.708001 
L 438.095769 224.792549 
L 438.345975 229.222527 
L 438.59618 256.645372 
L 438.846385 234.454885 
L 439.09659 224.494194 
L 439.346795 228.9934 
L 439.597 246.247827 
L 440.097411 215.803105 
L 440.347616 216.622547 
L 440.597821 228.064554 
L 440.848026 228.258331 
L 441.098232 227.872409 
L 441.348437 235.982419 
L 441.598642 253.474968 
L 441.848847 248.129856 
L 442.099052 249.135309 
L 442.349257 255.974231 
L 442.849668 223.909049 
L 443.099873 228.380021 
L 443.350078 229.026928 
L 443.600283 222.688492 
L 443.850489 224.09238 
L 444.100694 229.679134 
L 444.350899 226.069549 
L 444.601104 226.782862 
L 444.851309 253.498726 
L 445.101514 212.767807 
L 445.601925 178.388018 
L 445.85213 170.709282 
L 446.102335 172.168735 
L 446.852951 182.511029 
L 447.353361 160.923901 
L 447.603566 160.338799 
L 447.853771 167.831437 
L 448.354182 193.495191 
L 448.604387 194.285355 
L 448.854592 173.387315 
L 449.605208 158.926378 
L 449.855413 161.182704 
L 450.355823 149.174847 
L 450.606028 154.031042 
L 451.106439 171.637883 
L 451.356644 171.087072 
L 451.606849 182.538041 
L 452.107259 164.097626 
L 452.357465 170.030614 
L 452.857875 138.747958 
L 453.10808 142.649939 
L 453.358285 152.284369 
L 453.60849 153.064648 
L 453.858696 157.23602 
L 454.108901 157.067206 
L 454.359106 153.351398 
L 454.609311 180.454831 
L 454.859516 152.513845 
L 455.109722 139.249761 
L 455.359927 140.202144 
L 455.860337 154.607509 
L 456.110542 152.33042 
L 456.360747 152.853178 
L 456.610953 158.56448 
L 456.861158 168.786952 
L 457.111363 212.445289 
L 457.611773 165.421765 
L 457.861979 184.670957 
L 458.112184 156.24825 
L 458.362389 149.093858 
L 458.862799 164.462482 
L 459.113004 152.356185 
L 459.36321 147.595496 
L 459.613415 152.659951 
L 459.86362 160.958018 
L 460.113825 155.070276 
L 460.36403 144.733641 
L 460.614235 144.734502 
L 460.864441 156.242212 
L 461.114646 150.420858 
L 461.364851 154.576926 
L 461.615056 187.755532 
L 461.865261 159.089765 
L 462.115467 147.375921 
L 462.365672 146.968782 
L 462.615877 151.07508 
L 462.866082 152.939093 
L 463.116287 153.410793 
L 463.366492 159.66855 
L 463.616698 159.064517 
L 463.866903 149.895754 
L 464.117108 147.910192 
L 464.617518 170.652698 
L 464.867723 169.741625 
L 465.117929 166.53183 
L 465.368134 165.780038 
L 465.618339 169.536949 
L 465.868544 159.937518 
L 466.118749 166.298839 
L 466.368955 162.674192 
L 466.61916 154.042193 
L 466.869365 167.078826 
L 467.11957 171.739298 
L 467.369775 179.356418 
L 467.61998 155.28702 
L 467.870186 152.487698 
L 468.370596 192.239087 
L 468.620801 157.80455 
L 468.871006 152.109686 
L 469.121212 170.84268 
L 469.371417 154.14367 
L 469.621622 146.150541 
L 470.122032 149.925981 
L 470.372237 158.098276 
L 470.622443 171.161131 
L 470.872648 147.010265 
L 471.122853 139.655979 
L 471.373058 145.408388 
L 471.623263 153.801068 
L 471.873468 133.927094 
L 472.123674 129.77268 
L 472.373879 138.576669 
L 472.874289 183.208693 
L 473.124494 157.919761 
L 473.3747 151.084897 
L 473.624905 154.804658 
L 473.87511 153.153761 
L 474.37552 139.764281 
L 474.625725 144.098799 
L 475.126136 174.030223 
L 475.376341 161.575388 
L 475.876751 152.279272 
L 476.126957 150.611658 
L 476.377162 162.548891 
L 476.627367 186.453227 
L 477.127777 158.835331 
L 477.377982 153.692993 
L 477.628188 158.844089 
L 477.878393 176.173121 
L 478.629008 139.512478 
L 478.879213 141.110624 
L 479.129419 153.987102 
L 479.379624 192.866746 
L 479.880034 157.71632 
L 480.130239 155.627895 
L 480.380445 164.775792 
L 480.63065 168.195672 
L 480.880855 167.49267 
L 481.13106 193.509403 
L 481.381265 158.519765 
L 481.63147 151.000103 
L 481.881676 158.151641 
L 482.131881 176.920861 
L 482.632291 159.388072 
L 482.882496 159.074591 
L 483.132702 166.847579 
L 483.382907 157.072836 
L 483.633112 160.797632 
L 484.133522 145.861777 
L 484.383727 142.866858 
L 484.633933 136.827396 
L 484.884138 135.629578 
L 485.134343 147.059737 
L 485.384548 185.848144 
L 485.634753 151.254129 
L 485.884958 143.996334 
L 486.385369 148.98213 
L 486.635574 145.802525 
L 487.135984 137.723697 
L 487.38619 136.158102 
L 487.636395 141.875949 
L 487.8866 158.668771 
L 488.136805 161.880089 
L 488.38701 159.292734 
L 488.637215 170.966631 
L 488.887421 158.823967 
L 489.137626 158.386119 
L 489.387831 160.695781 
L 489.638036 192.336775 
L 489.888241 157.064183 
L 490.138447 145.999275 
L 490.388652 152.481196 
L 490.638857 183.578719 
L 491.139267 152.095045 
L 491.389472 150.887613 
L 491.639678 165.791258 
L 491.889883 157.567093 
L 492.140088 154.793323 
L 492.390293 169.582149 
L 492.640498 156.045851 
L 493.391114 140.69834 
L 493.891524 143.648399 
L 494.141729 143.901466 
L 494.391935 145.238923 
L 494.64214 149.589012 
L 494.892345 147.245393 
L 495.14255 153.448809 
L 495.392755 170.487186 
L 495.64296 179.686573 
L 496.393576 134.526877 
L 496.643781 129.234176 
L 496.893986 132.516441 
L 497.144191 147.689466 
L 497.394397 180.438324 
L 497.644602 163.503263 
L 497.894807 160.676767 
L 498.395217 141.555435 
L 498.645423 147.718003 
L 498.895628 194.033214 
L 499.145833 149.557396 
L 499.646243 146.05481 
L 499.896448 136.735922 
L 500.146654 132.518153 
L 500.396859 137.414681 
L 500.647064 150.057027 
L 500.897269 148.98446 
L 501.147474 141.690454 
L 501.39768 142.036455 
L 501.647885 140.645408 
L 501.89809 140.871191 
L 502.3985 146.336277 
L 502.648705 151.029315 
L 502.898911 147.86891 
L 503.149116 142.373887 
L 503.399321 141.21594 
L 503.899731 162.91613 
L 504.149936 153.094021 
L 504.400142 161.296645 
L 504.650347 162.795192 
L 505.150757 131.560524 
L 505.400962 129.27609 
L 505.901373 145.272662 
L 506.151578 147.340825 
L 506.401783 147.164597 
L 506.651988 144.548223 
L 506.902193 145.356506 
L 507.152399 153.063547 
L 507.402604 172.861761 
L 507.652809 183.818123 
L 507.903014 160.204816 
L 508.153219 158.917622 
L 508.403425 171.433951 
L 508.65363 163.947921 
L 508.903835 151.395744 
L 509.15404 145.210836 
L 509.404245 151.884217 
L 509.65445 163.347459 
L 510.154861 151.372795 
L 510.405066 146.964621 
L 510.655271 146.072761 
L 510.905476 148.050462 
L 511.155681 155.002215 
L 511.405887 179.755536 
L 511.906297 152.99647 
L 512.156502 141.952272 
L 512.406707 140.052989 
L 512.907118 162.146546 
L 513.407528 153.418555 
L 513.907938 170.220453 
L 514.158144 162.910029 
L 514.658554 141.520869 
L 514.908759 147.287138 
L 515.158964 162.867972 
L 515.40917 158.788368 
L 516.159785 139.194571 
L 516.40999 146.597234 
L 516.910401 196.790262 
L 517.661016 168.714182 
L 517.911221 189.270552 
L 518.161426 165.413648 
L 518.411632 155.283966 
L 518.661837 159.277371 
L 518.912042 148.62515 
L 519.162247 144.09687 
L 519.412452 146.74541 
L 519.662658 158.88883 
L 519.912863 187.555937 
L 520.163068 158.767232 
L 520.413273 168.896172 
L 520.663478 171.272578 
L 520.913683 149.285522 
L 521.163889 143.305611 
L 521.414094 151.715531 
L 521.664299 151.403277 
L 521.914504 146.701574 
L 522.164709 164.026624 
L 522.414915 166.759286 
L 522.66512 156.303224 
L 522.915325 157.547067 
L 523.16553 152.367102 
L 523.415735 142.086017 
L 523.66594 140.172323 
L 523.916146 147.829357 
L 524.666761 180.127013 
L 524.916966 173.286837 
L 525.167171 149.818253 
L 525.417377 144.405955 
L 525.667582 155.439804 
L 525.917787 178.676245 
L 526.167992 154.625796 
L 526.418197 146.811352 
L 526.668403 156.648999 
L 526.918608 159.830605 
L 527.168813 144.71322 
L 527.419018 156.127563 
L 527.669223 161.510043 
L 527.919428 148.482352 
L 528.169634 152.983776 
L 528.419839 165.533976 
L 528.670044 154.367531 
L 528.920249 151.733785 
L 529.42066 168.047822 
L 529.670865 143.68608 
L 529.92107 135.145451 
L 530.171275 134.539509 
L 530.42148 137.165237 
L 530.671685 143.745052 
L 530.921891 160.706861 
L 531.172096 165.993902 
L 531.422301 153.109007 
L 532.172916 146.540563 
L 532.423122 142.929109 
L 532.673327 142.619096 
L 532.923532 156.120121 
L 533.173737 194.273504 
L 533.423942 190.706789 
L 533.674148 160.449061 
L 533.924353 159.006728 
L 534.174558 184.727523 
L 534.424763 170.536784 
L 534.674968 172.542152 
L 534.925173 159.002716 
L 535.175379 154.917496 
L 535.425584 181.211113 
L 535.925994 150.512372 
L 536.426404 151.423659 
L 536.67661 153.734261 
L 536.926815 166.561032 
L 537.17702 185.289705 
L 537.927636 152.521705 
L 538.177841 170.781972 
L 538.428046 173.122266 
L 538.678251 167.318428 
L 539.178661 148.64616 
L 539.428867 151.866579 
L 539.929277 161.217778 
L 540.179482 162.95871 
L 540.429687 163.4972 
L 540.679893 168.768584 
L 541.180303 153.735749 
L 541.430508 167.697976 
L 541.680713 160.494505 
L 541.930918 146.664842 
L 542.181124 148.139216 
L 542.431329 148.91507 
L 542.931739 158.757595 
L 543.181944 158.798878 
L 543.432149 149.597474 
L 543.682355 148.806269 
L 543.93256 150.939435 
L 544.182765 146.778425 
L 544.43297 145.361398 
L 544.683175 146.834293 
L 545.183586 173.586476 
L 545.433791 150.756391 
L 545.683996 143.466266 
L 545.934201 141.666224 
L 546.184406 145.658493 
L 546.434612 151.527265 
L 546.684817 154.373152 
L 547.185227 138.929537 
L 547.435432 142.764738 
L 547.935843 174.931576 
L 548.186048 169.328209 
L 548.436253 193.660659 
L 548.686458 157.807603 
L 548.936663 141.952943 
L 549.186869 142.901476 
L 549.437074 150.851591 
L 550.187689 161.434681 
L 550.437894 171.577479 
L 550.6881 210.02085 
L 551.18851 164.877997 
L 551.438715 156.690407 
L 551.68892 152.472219 
L 551.939126 145.005791 
L 552.189331 142.959868 
L 552.689741 157.329983 
L 552.939946 151.012003 
L 553.190151 148.205507 
L 553.440357 157.321642 
L 553.690562 177.605293 
L 553.940767 154.532612 
L 554.190972 150.988389 
L 554.441177 150.150243 
L 554.691383 160.209684 
L 554.941588 188.209215 
L 555.191793 153.180944 
L 555.441998 145.144718 
L 555.692203 146.553059 
L 555.942408 158.47546 
L 556.192614 164.649206 
L 556.693024 140.353521 
L 557.193434 139.37337 
L 557.443639 139.625501 
L 557.693845 147.674199 
L 557.94405 172.125916 
L 558.194255 173.499682 
L 558.44446 158.538453 
L 558.694665 181.551665 
L 558.944871 160.934652 
L 559.195076 150.296094 
L 559.445281 157.304064 
L 559.945691 140.263391 
L 560.195896 141.988977 
L 560.446102 146.087537 
L 560.946512 132.989472 
L 561.196717 134.315734 
L 561.446922 146.164885 
L 561.697128 242.664729 
L 561.947333 155.154942 
L 562.197538 150.298034 
L 562.697948 136.023663 
L 562.948153 133.575522 
L 563.198359 134.073416 
L 563.448564 139.463496 
L 563.698769 148.203845 
L 564.199179 173.330481 
L 564.449384 160.770505 
L 564.949795 153.213977 
L 565.2 160.967261 
L 565.2 160.967261 
" clip-path="url(#pfc25f10e5f)" style="fill: none; stroke: #1f77b4; stroke-width: 1.5; stroke-linecap: square"/>
   </g>
   <g id="line2d_30">
    <path d="M 283.619092 246.04 
L 283.619092 26.16 
" clip-path="url(#pfc25f10e5f)" style="fill: none; stroke-dasharray: 2,3.3; stroke-dashoffset: 0; stroke: #d62728; stroke-width: 2"/>
   </g>
   <g id="line2d_31">
    <path d="M 334.861113 246.04 
L 334.861113 26.16 
" clip-path="url(#pfc25f10e5f)" style="fill: none; stroke-dasharray: 2,3.3; stroke-dashoffset: 0; stroke: #d62728; stroke-width: 2"/>
   </g>
   <g id="line2d_32">
    <path d="M 386.103133 246.04 
L 386.103133 26.16 
" clip-path="url(#pfc25f10e5f)" style="fill: none; stroke-dasharray: 2,3.3; stroke-dashoffset: 0; stroke: #d62728; stroke-width: 2"/>
   </g>
   <g id="line2d_33">
    <path d="M 437.345154 246.04 
L 437.345154 26.16 
" clip-path="url(#pfc25f10e5f)" style="fill: none; stroke-dasharray: 2,3.3; stroke-dashoffset: 0; stroke: #d62728; stroke-width: 2"/>
   </g>
   <g id="line2d_34">
    <path d="M 488.587174 246.04 
L 488.587174 26.16 
" clip-path="url(#pfc25f10e5f)" style="fill: none; stroke-dasharray: 2,3.3; stroke-dashoffset: 0; stroke: #d62728; stroke-width: 2"/>
   </g>
   <g id="line2d_35">
    <path d="M 539.829195 246.04 
L 539.829195 26.16 
" clip-path="url(#pfc25f10e5f)" style="fill: none; stroke-dasharray: 2,3.3; stroke-dashoffset: 0; stroke: #d62728; stroke-width: 2"/>
   </g>
   <g id="patch_3">
    <path d="M 53.03 246.04 
L 53.03 26.16 
" style="fill: none; stroke: #000000; stroke-width: 0.8; stroke-linejoin: miter; stroke-linecap: square"/>
   </g>
   <g id="patch_4">
    <path d="M 565.2 246.04 
L 565.2 26.16 
" style="fill: none; stroke: #000000; stroke-width: 0.8; stroke-linejoin: miter; stroke-linecap: square"/>
   </g>
   <g id="patch_5">
    <path d="M 53.03 246.04 
L 565.2 246.04 
" style="fill: none; stroke: #000000; stroke-width: 0.8; stroke-linejoin: miter; stroke-linecap: square"/>
   </g>
   <g id="patch_6">
    <path d="M 53.03 26.16 
L 565.2 26.16 
" style="fill: none; stroke: #000000; stroke-width: 0.8; stroke-linejoin: miter; stroke-linecap: square"/>
   </g>
   <g id="text_17">
    <!-- Multiple Channels -->
    <g transform="translate(255.616563 20.16) scale(0.12 -0.12)">
     <defs>
      <path id="DejaVuSans-6c" d="M 603 4863 
L 1178 4863 
L 1178 0 
L 603 0 
L 603 4863 
z
" transform="scale(0.015625)"/>
      <path id="DejaVuSans-70" d="M 1159 525 
L 1159 -1331 
L 581 -1331 
L 581 3500 
L 1159 3500 
L 1159 2969 
Q 1341 3281 1617 3432 
Q 1894 3584 2278 3584 
Q 2916 3584 3314 3078 
Q 3713 2572 3713 1747 
Q 3713 922 3314 415 
Q 2916 -91 2278 -91 
Q 1894 -91 1617 61 
Q 1341 213 1159 525 
z
M 3116 1747 
Q 3116 2381 2855 2742 
Q 2594 3103 2138 3103 
Q 1681 3103 1420 2742 
Q 1159 2381 1159 1747 
Q 1159 1113 1420 752 
Q 1681 391 2138 391 
Q 2594 391 2855 752 
Q 3116 1113 3116 1747 
z
" transform="scale(0.015625)"/>
      <path id="DejaVuSans-43" d="M 4122 4306 
L 4122 3641 
Q 3803 3938 3442 4084 
Q 3081 4231 2675 4231 
Q 1875 4231 1450 3742 
Q 1025 3253 1025 2328 
Q 1025 1406 1450 917 
Q 1875 428 2675 428 
Q 3081 428 3442 575 
Q 3803 722 4122 1019 
L 4122 359 
Q 3791 134 3420 21 
Q 3050 -91 2638 -91 
Q 1578 -91 968 557 
Q 359 1206 359 2328 
Q 359 3453 968 4101 
Q 1578 4750 2638 4750 
Q 3056 4750 3426 4639 
Q 3797 4528 4122 4306 
z
" transform="scale(0.015625)"/>
      <path id="DejaVuSans-68" d="M 3513 2113 
L 3513 0 
L 2938 0 
L 2938 2094 
Q 2938 2591 2744 2837 
Q 2550 3084 2163 3084 
Q 1697 3084 1428 2787 
Q 1159 2491 1159 1978 
L 1159 0 
L 581 0 
L 581 4863 
L 1159 4863 
L 1159 2956 
Q 1366 3272 1645 3428 
Q 1925 3584 2291 3584 
Q 2894 3584 3203 3211 
Q 3513 2838 3513 2113 
z
" transform="scale(0.015625)"/>
      <path id="DejaVuSans-73" d="M 2834 3397 
L 2834 2853 
Q 2591 2978 2328 3040 
Q 2066 3103 1784 3103 
Q 1356 3103 1142 2972 
Q 928 2841 928 2578 
Q 928 2378 1081 2264 
Q 1234 2150 1697 2047 
L 1894 2003 
Q 2506 1872 2764 1633 
Q 3022 1394 3022 966 
Q 3022 478 2636 193 
Q 2250 -91 1575 -91 
Q 1294 -91 989 -36 
Q 684 19 347 128 
L 347 722 
Q 666 556 975 473 
Q 1284 391 1588 391 
Q 1994 391 2212 530 
Q 2431 669 2431 922 
Q 2431 1156 2273 1281 
Q 2116 1406 1581 1522 
L 1381 1569 
Q 847 1681 609 1914 
Q 372 2147 372 2553 
Q 372 3047 722 3315 
Q 1072 3584 1716 3584 
Q 2034 3584 2315 3537 
Q 2597 3491 2834 3397 
z
" transform="scale(0.015625)"/>
     </defs>
     <use xlink:href="#DejaVuSans-4d"/>
     <use xlink:href="#DejaVuSans-75" transform="translate(86.279297 0)"/>
     <use xlink:href="#DejaVuSans-6c" transform="translate(149.658203 0)"/>
     <use xlink:href="#DejaVuSans-74" transform="translate(177.441406 0)"/>
     <use xlink:href="#DejaVuSans-69" transform="translate(216.650391 0)"/>
     <use xlink:href="#DejaVuSans-70" transform="translate(244.433594 0)"/>
     <use xlink:href="#DejaVuSans-6c" transform="translate(307.910156 0)"/>
     <use xlink:href="#DejaVuSans-65" transform="translate(335.693359 0)"/>
     <use xlink:href="#DejaVuSans-20" transform="translate(397.216797 0)"/>
     <use xlink:href="#DejaVuSans-43" transform="translate(429.003906 0)"/>
     <use xlink:href="#DejaVuSans-68" transform="translate(498.828125 0)"/>
     <use xlink:href="#DejaVuSans-61" transform="translate(562.207031 0)"/>
     <use xlink:href="#DejaVuSans-6e" transform="translate(623.486328 0)"/>
     <use xlink:href="#DejaVuSans-6e" transform="translate(686.865234 0)"/>
     <use xlink:href="#DejaVuSans-65" transform="translate(750.244141 0)"/>
     <use xlink:href="#DejaVuSans-6c" transform="translate(811.767578 0)"/>
     <use xlink:href="#DejaVuSans-73" transform="translate(839.550781 0)"/>
    </g>
   </g>
  </g>
 </g>
 <defs>
  <clipPath id="pfc25f10e5f">
   <rect x="53.03" y="26.16" width="512.17" height="219.88"/>
  </clipPath>
 </defs>
</svg>
