<?xml version="1.0" encoding="utf-8" standalone="no"?>
<!DOCTYPE svg PUBLIC "-//W3C//DTD SVG 1.1//EN"
  "http://www.w3.org/Graphics/SVG/1.1/DTD/svg11.dtd">
<!-- Created with matplotlib (https://matplotlib.org/) -->
<svg height="288pt" version="1.1" viewBox="0 0 720 288" width="720pt" xmlns="http://www.w3.org/2000/svg" xmlns:xlink="http://www.w3.org/1999/xlink">
 <defs>
  <style type="text/css">
*{stroke-linecap:butt;stroke-linejoin:round;}
  </style>
 </defs>
 <g id="figure_1">
  <g id="patch_1">
   <path d="M 0 288 
L 720 288 
L 720 0 
L 0 0 
z
" style="fill:#ffffff;"/>
  </g>
  <g id="axes_1">
   <g id="patch_2">
    <path d="M 90 256.32 
L 648 256.32 
L 648 34.56 
L 90 34.56 
z
" style="fill:#ffffff;"/>
   </g>
   <g id="patch_3">
    <path clip-path="url(#p2e3ba6d1e1)" d="M 90.484375 50.986667 
L 102.109375 50.986667 
L 102.109375 37.845333 
L 90.484375 37.845333 
z
" style="fill:none;stroke:#000000;stroke-linejoin:miter;"/>
   </g>
   <g id="matplotlib.axis_1">
    <g id="xtick_1">
     <g id="line2d_1">
      <path clip-path="url(#p2e3ba6d1e1)" d="M 90 256.32 
L 90 34.56 
" style="fill:none;stroke:#b0b0b0;stroke-linecap:square;stroke-width:0.8;"/>
     </g>
     <g id="line2d_2">
      <defs>
       <path d="M 0 0 
L 0 3.5 
" id="m0460d7283f" style="stroke:#000000;stroke-width:0.8;"/>
      </defs>
      <g>
       <use style="stroke:#000000;stroke-width:0.8;" x="90" xlink:href="#m0460d7283f" y="256.32"/>
      </g>
     </g>
     <g id="text_1">
      <!-- 0 Hz -->
      <defs>
       <path d="M 31.78125 66.40625 
Q 24.171875 66.40625 20.328125 58.90625 
Q 16.5 51.421875 16.5 36.375 
Q 16.5 21.390625 20.328125 13.890625 
Q 24.171875 6.390625 31.78125 6.390625 
Q 39.453125 6.390625 43.28125 13.890625 
Q 47.125 21.390625 47.125 36.375 
Q 47.125 51.421875 43.28125 58.90625 
Q 39.453125 66.40625 31.78125 66.40625 
z
M 31.78125 74.21875 
Q 44.046875 74.21875 50.515625 64.515625 
Q 56.984375 54.828125 56.984375 36.375 
Q 56.984375 17.96875 50.515625 8.265625 
Q 44.046875 -1.421875 31.78125 -1.421875 
Q 19.53125 -1.421875 13.0625 8.265625 
Q 6.59375 17.96875 6.59375 36.375 
Q 6.59375 54.828125 13.0625 64.515625 
Q 19.53125 74.21875 31.78125 74.21875 
z
" id="DejaVuSans-48"/>
       <path id="DejaVuSans-32"/>
       <path d="M 9.8125 72.90625 
L 19.671875 72.90625 
L 19.671875 43.015625 
L 55.515625 43.015625 
L 55.515625 72.90625 
L 65.375 72.90625 
L 65.375 0 
L 55.515625 0 
L 55.515625 34.71875 
L 19.671875 34.71875 
L 19.671875 0 
L 9.8125 0 
z
" id="DejaVuSans-72"/>
       <path d="M 5.515625 54.6875 
L 48.1875 54.6875 
L 48.1875 46.484375 
L 14.40625 7.171875 
L 48.1875 7.171875 
L 48.1875 0 
L 4.296875 0 
L 4.296875 8.203125 
L 38.09375 47.515625 
L 5.515625 47.515625 
z
" id="DejaVuSans-122"/>
      </defs>
      <g transform="translate(78.845313 270.918437)scale(0.1 -0.1)">
       <use xlink:href="#DejaVuSans-48"/>
       <use x="63.623047" xlink:href="#DejaVuSans-32"/>
       <use x="95.410156" xlink:href="#DejaVuSans-72"/>
       <use x="170.605469" xlink:href="#DejaVuSans-122"/>
      </g>
     </g>
    </g>
    <g id="xtick_2">
     <g id="line2d_3">
      <path clip-path="url(#p2e3ba6d1e1)" d="M 186.875 256.32 
L 186.875 34.56 
" style="fill:none;stroke:#b0b0b0;stroke-linecap:square;stroke-width:0.8;"/>
     </g>
     <g id="line2d_4">
      <g>
       <use style="stroke:#000000;stroke-width:0.8;" x="186.875" xlink:href="#m0460d7283f" y="256.32"/>
      </g>
     </g>
     <g id="text_2">
      <!-- 200 kHz -->
      <defs>
       <path d="M 19.1875 8.296875 
L 53.609375 8.296875 
L 53.609375 0 
L 7.328125 0 
L 7.328125 8.296875 
Q 12.9375 14.109375 22.625 23.890625 
Q 32.328125 33.6875 34.8125 36.53125 
Q 39.546875 41.84375 41.421875 45.53125 
Q 43.3125 49.21875 43.3125 52.78125 
Q 43.3125 58.59375 39.234375 62.25 
Q 35.15625 65.921875 28.609375 65.921875 
Q 23.96875 65.921875 18.8125 64.3125 
Q 13.671875 62.703125 7.8125 59.421875 
L 7.8125 69.390625 
Q 13.765625 71.78125 18.9375 73 
Q 24.125 74.21875 28.421875 74.21875 
Q 39.75 74.21875 46.484375 68.546875 
Q 53.21875 62.890625 53.21875 53.421875 
Q 53.21875 48.921875 51.53125 44.890625 
Q 49.859375 40.875 45.40625 35.40625 
Q 44.1875 33.984375 37.640625 27.21875 
Q 31.109375 20.453125 19.1875 8.296875 
z
" id="DejaVuSans-50"/>
       <path d="M 9.078125 75.984375 
L 18.109375 75.984375 
L 18.109375 31.109375 
L 44.921875 54.6875 
L 56.390625 54.6875 
L 27.390625 29.109375 
L 57.625 0 
L 45.90625 0 
L 18.109375 26.703125 
L 18.109375 0 
L 9.078125 0 
z
" id="DejaVuSans-107"/>
      </defs>
      <g transform="translate(166.4625 270.918437)scale(0.1 -0.1)">
       <use xlink:href="#DejaVuSans-50"/>
       <use x="63.623047" xlink:href="#DejaVuSans-48"/>
       <use x="127.246094" xlink:href="#DejaVuSans-48"/>
       <use x="190.869141" xlink:href="#DejaVuSans-32"/>
       <use x="222.65625" xlink:href="#DejaVuSans-107"/>
       <use x="280.566406" xlink:href="#DejaVuSans-72"/>
       <use x="355.761719" xlink:href="#DejaVuSans-122"/>
      </g>
     </g>
    </g>
    <g id="xtick_3">
     <g id="line2d_5">
      <path clip-path="url(#p2e3ba6d1e1)" d="M 283.75 256.32 
L 283.75 34.56 
" style="fill:none;stroke:#b0b0b0;stroke-linecap:square;stroke-width:0.8;"/>
     </g>
     <g id="line2d_6">
      <g>
       <use style="stroke:#000000;stroke-width:0.8;" x="283.75" xlink:href="#m0460d7283f" y="256.32"/>
      </g>
     </g>
     <g id="text_3">
      <!-- 400 kHz -->
      <defs>
       <path d="M 37.796875 64.3125 
L 12.890625 25.390625 
L 37.796875 25.390625 
z
M 35.203125 72.90625 
L 47.609375 72.90625 
L 47.609375 25.390625 
L 58.015625 25.390625 
L 58.015625 17.1875 
L 47.609375 17.1875 
L 47.609375 0 
L 37.796875 0 
L 37.796875 17.1875 
L 4.890625 17.1875 
L 4.890625 26.703125 
z
" id="DejaVuSans-52"/>
      </defs>
      <g transform="translate(263.3375 270.918437)scale(0.1 -0.1)">
       <use xlink:href="#DejaVuSans-52"/>
       <use x="63.623047" xlink:href="#DejaVuSans-48"/>
       <use x="127.246094" xlink:href="#DejaVuSans-48"/>
       <use x="190.869141" xlink:href="#DejaVuSans-32"/>
       <use x="222.65625" xlink:href="#DejaVuSans-107"/>
       <use x="280.566406" xlink:href="#DejaVuSans-72"/>
       <use x="355.761719" xlink:href="#DejaVuSans-122"/>
      </g>
     </g>
    </g>
    <g id="xtick_4">
     <g id="line2d_7">
      <path clip-path="url(#p2e3ba6d1e1)" d="M 380.625 256.32 
L 380.625 34.56 
" style="fill:none;stroke:#b0b0b0;stroke-linecap:square;stroke-width:0.8;"/>
     </g>
     <g id="line2d_8">
      <g>
       <use style="stroke:#000000;stroke-width:0.8;" x="380.625" xlink:href="#m0460d7283f" y="256.32"/>
      </g>
     </g>
     <g id="text_4">
      <!-- 600 kHz -->
      <defs>
       <path d="M 33.015625 40.375 
Q 26.375 40.375 22.484375 35.828125 
Q 18.609375 31.296875 18.609375 23.390625 
Q 18.609375 15.53125 22.484375 10.953125 
Q 26.375 6.390625 33.015625 6.390625 
Q 39.65625 6.390625 43.53125 10.953125 
Q 47.40625 15.53125 47.40625 23.390625 
Q 47.40625 31.296875 43.53125 35.828125 
Q 39.65625 40.375 33.015625 40.375 
z
M 52.59375 71.296875 
L 52.59375 62.3125 
Q 48.875 64.0625 45.09375 64.984375 
Q 41.3125 65.921875 37.59375 65.921875 
Q 27.828125 65.921875 22.671875 59.328125 
Q 17.53125 52.734375 16.796875 39.40625 
Q 19.671875 43.65625 24.015625 45.921875 
Q 28.375 48.1875 33.59375 48.1875 
Q 44.578125 48.1875 50.953125 41.515625 
Q 57.328125 34.859375 57.328125 23.390625 
Q 57.328125 12.15625 50.6875 5.359375 
Q 44.046875 -1.421875 33.015625 -1.421875 
Q 20.359375 -1.421875 13.671875 8.265625 
Q 6.984375 17.96875 6.984375 36.375 
Q 6.984375 53.65625 15.1875 63.9375 
Q 23.390625 74.21875 37.203125 74.21875 
Q 40.921875 74.21875 44.703125 73.484375 
Q 48.484375 72.75 52.59375 71.296875 
z
" id="DejaVuSans-54"/>
      </defs>
      <g transform="translate(360.2125 270.918437)scale(0.1 -0.1)">
       <use xlink:href="#DejaVuSans-54"/>
       <use x="63.623047" xlink:href="#DejaVuSans-48"/>
       <use x="127.246094" xlink:href="#DejaVuSans-48"/>
       <use x="190.869141" xlink:href="#DejaVuSans-32"/>
       <use x="222.65625" xlink:href="#DejaVuSans-107"/>
       <use x="280.566406" xlink:href="#DejaVuSans-72"/>
       <use x="355.761719" xlink:href="#DejaVuSans-122"/>
      </g>
     </g>
    </g>
    <g id="xtick_5">
     <g id="line2d_9">
      <path clip-path="url(#p2e3ba6d1e1)" d="M 477.5 256.32 
L 477.5 34.56 
" style="fill:none;stroke:#b0b0b0;stroke-linecap:square;stroke-width:0.8;"/>
     </g>
     <g id="line2d_10">
      <g>
       <use style="stroke:#000000;stroke-width:0.8;" x="477.5" xlink:href="#m0460d7283f" y="256.32"/>
      </g>
     </g>
     <g id="text_5">
      <!-- 800 kHz -->
      <defs>
       <path d="M 31.78125 34.625 
Q 24.75 34.625 20.71875 30.859375 
Q 16.703125 27.09375 16.703125 20.515625 
Q 16.703125 13.921875 20.71875 10.15625 
Q 24.75 6.390625 31.78125 6.390625 
Q 38.8125 6.390625 42.859375 10.171875 
Q 46.921875 13.96875 46.921875 20.515625 
Q 46.921875 27.09375 42.890625 30.859375 
Q 38.875 34.625 31.78125 34.625 
z
M 21.921875 38.8125 
Q 15.578125 40.375 12.03125 44.71875 
Q 8.5 49.078125 8.5 55.328125 
Q 8.5 64.0625 14.71875 69.140625 
Q 20.953125 74.21875 31.78125 74.21875 
Q 42.671875 74.21875 48.875 69.140625 
Q 55.078125 64.0625 55.078125 55.328125 
Q 55.078125 49.078125 51.53125 44.71875 
Q 48 40.375 41.703125 38.8125 
Q 48.828125 37.15625 52.796875 32.3125 
Q 56.78125 27.484375 56.78125 20.515625 
Q 56.78125 9.90625 50.3125 4.234375 
Q 43.84375 -1.421875 31.78125 -1.421875 
Q 19.734375 -1.421875 13.25 4.234375 
Q 6.78125 9.90625 6.78125 20.515625 
Q 6.78125 27.484375 10.78125 32.3125 
Q 14.796875 37.15625 21.921875 38.8125 
z
M 18.3125 54.390625 
Q 18.3125 48.734375 21.84375 45.5625 
Q 25.390625 42.390625 31.78125 42.390625 
Q 38.140625 42.390625 41.71875 45.5625 
Q 45.3125 48.734375 45.3125 54.390625 
Q 45.3125 60.0625 41.71875 63.234375 
Q 38.140625 66.40625 31.78125 66.40625 
Q 25.390625 66.40625 21.84375 63.234375 
Q 18.3125 60.0625 18.3125 54.390625 
z
" id="DejaVuSans-56"/>
      </defs>
      <g transform="translate(457.0875 270.918437)scale(0.1 -0.1)">
       <use xlink:href="#DejaVuSans-56"/>
       <use x="63.623047" xlink:href="#DejaVuSans-48"/>
       <use x="127.246094" xlink:href="#DejaVuSans-48"/>
       <use x="190.869141" xlink:href="#DejaVuSans-32"/>
       <use x="222.65625" xlink:href="#DejaVuSans-107"/>
       <use x="280.566406" xlink:href="#DejaVuSans-72"/>
       <use x="355.761719" xlink:href="#DejaVuSans-122"/>
      </g>
     </g>
    </g>
    <g id="xtick_6">
     <g id="line2d_11">
      <path clip-path="url(#p2e3ba6d1e1)" d="M 574.375 256.32 
L 574.375 34.56 
" style="fill:none;stroke:#b0b0b0;stroke-linecap:square;stroke-width:0.8;"/>
     </g>
     <g id="line2d_12">
      <g>
       <use style="stroke:#000000;stroke-width:0.8;" x="574.375" xlink:href="#m0460d7283f" y="256.32"/>
      </g>
     </g>
     <g id="text_6">
      <!-- 1 MHz -->
      <defs>
       <path d="M 12.40625 8.296875 
L 28.515625 8.296875 
L 28.515625 63.921875 
L 10.984375 60.40625 
L 10.984375 69.390625 
L 28.421875 72.90625 
L 38.28125 72.90625 
L 38.28125 8.296875 
L 54.390625 8.296875 
L 54.390625 0 
L 12.40625 0 
z
" id="DejaVuSans-49"/>
       <path d="M 9.8125 72.90625 
L 24.515625 72.90625 
L 43.109375 23.296875 
L 61.8125 72.90625 
L 76.515625 72.90625 
L 76.515625 0 
L 66.890625 0 
L 66.890625 64.015625 
L 48.09375 14.015625 
L 38.1875 14.015625 
L 19.390625 64.015625 
L 19.390625 0 
L 9.8125 0 
z
" id="DejaVuSans-77"/>
      </defs>
      <g transform="translate(558.90625 270.918437)scale(0.1 -0.1)">
       <use xlink:href="#DejaVuSans-49"/>
       <use x="63.623047" xlink:href="#DejaVuSans-32"/>
       <use x="95.410156" xlink:href="#DejaVuSans-77"/>
       <use x="181.689453" xlink:href="#DejaVuSans-72"/>
       <use x="256.884766" xlink:href="#DejaVuSans-122"/>
      </g>
     </g>
    </g>
    <g id="text_7">
     <!-- Frequency -->
     <defs>
      <path d="M 9.8125 72.90625 
L 51.703125 72.90625 
L 51.703125 64.59375 
L 19.671875 64.59375 
L 19.671875 43.109375 
L 48.578125 43.109375 
L 48.578125 34.8125 
L 19.671875 34.8125 
L 19.671875 0 
L 9.8125 0 
z
" id="DejaVuSans-70"/>
      <path d="M 41.109375 46.296875 
Q 39.59375 47.171875 37.8125 47.578125 
Q 36.03125 48 33.890625 48 
Q 26.265625 48 22.1875 43.046875 
Q 18.109375 38.09375 18.109375 28.8125 
L 18.109375 0 
L 9.078125 0 
L 9.078125 54.6875 
L 18.109375 54.6875 
L 18.109375 46.1875 
Q 20.953125 51.171875 25.484375 53.578125 
Q 30.03125 56 36.53125 56 
Q 37.453125 56 38.578125 55.875 
Q 39.703125 55.765625 41.0625 55.515625 
z
" id="DejaVuSans-114"/>
      <path d="M 56.203125 29.59375 
L 56.203125 25.203125 
L 14.890625 25.203125 
Q 15.484375 15.921875 20.484375 11.0625 
Q 25.484375 6.203125 34.421875 6.203125 
Q 39.59375 6.203125 44.453125 7.46875 
Q 49.3125 8.734375 54.109375 11.28125 
L 54.109375 2.78125 
Q 49.265625 0.734375 44.1875 -0.34375 
Q 39.109375 -1.421875 33.890625 -1.421875 
Q 20.796875 -1.421875 13.15625 6.1875 
Q 5.515625 13.8125 5.515625 26.8125 
Q 5.515625 40.234375 12.765625 48.109375 
Q 20.015625 56 32.328125 56 
Q 43.359375 56 49.78125 48.890625 
Q 56.203125 41.796875 56.203125 29.59375 
z
M 47.21875 32.234375 
Q 47.125 39.59375 43.09375 43.984375 
Q 39.0625 48.390625 32.421875 48.390625 
Q 24.90625 48.390625 20.390625 44.140625 
Q 15.875 39.890625 15.1875 32.171875 
z
" id="DejaVuSans-101"/>
      <path d="M 14.796875 27.296875 
Q 14.796875 17.390625 18.875 11.75 
Q 22.953125 6.109375 30.078125 6.109375 
Q 37.203125 6.109375 41.296875 11.75 
Q 45.40625 17.390625 45.40625 27.296875 
Q 45.40625 37.203125 41.296875 42.84375 
Q 37.203125 48.484375 30.078125 48.484375 
Q 22.953125 48.484375 18.875 42.84375 
Q 14.796875 37.203125 14.796875 27.296875 
z
M 45.40625 8.203125 
Q 42.578125 3.328125 38.25 0.953125 
Q 33.9375 -1.421875 27.875 -1.421875 
Q 17.96875 -1.421875 11.734375 6.484375 
Q 5.515625 14.40625 5.515625 27.296875 
Q 5.515625 40.1875 11.734375 48.09375 
Q 17.96875 56 27.875 56 
Q 33.9375 56 38.25 53.625 
Q 42.578125 51.265625 45.40625 46.390625 
L 45.40625 54.6875 
L 54.390625 54.6875 
L 54.390625 -20.796875 
L 45.40625 -20.796875 
z
" id="DejaVuSans-113"/>
      <path d="M 8.5 21.578125 
L 8.5 54.6875 
L 17.484375 54.6875 
L 17.484375 21.921875 
Q 17.484375 14.15625 20.5 10.265625 
Q 23.53125 6.390625 29.59375 6.390625 
Q 36.859375 6.390625 41.078125 11.03125 
Q 45.3125 15.671875 45.3125 23.6875 
L 45.3125 54.6875 
L 54.296875 54.6875 
L 54.296875 0 
L 45.3125 0 
L 45.3125 8.40625 
Q 42.046875 3.421875 37.71875 1 
Q 33.40625 -1.421875 27.6875 -1.421875 
Q 18.265625 -1.421875 13.375 4.4375 
Q 8.5 10.296875 8.5 21.578125 
z
M 31.109375 56 
z
" id="DejaVuSans-117"/>
      <path d="M 54.890625 33.015625 
L 54.890625 0 
L 45.90625 0 
L 45.90625 32.71875 
Q 45.90625 40.484375 42.875 44.328125 
Q 39.84375 48.1875 33.796875 48.1875 
Q 26.515625 48.1875 22.3125 43.546875 
Q 18.109375 38.921875 18.109375 30.90625 
L 18.109375 0 
L 9.078125 0 
L 9.078125 54.6875 
L 18.109375 54.6875 
L 18.109375 46.1875 
Q 21.34375 51.125 25.703125 53.5625 
Q 30.078125 56 35.796875 56 
Q 45.21875 56 50.046875 50.171875 
Q 54.890625 44.34375 54.890625 33.015625 
z
" id="DejaVuSans-110"/>
      <path d="M 48.78125 52.59375 
L 48.78125 44.1875 
Q 44.96875 46.296875 41.140625 47.34375 
Q 37.3125 48.390625 33.40625 48.390625 
Q 24.65625 48.390625 19.8125 42.84375 
Q 14.984375 37.3125 14.984375 27.296875 
Q 14.984375 17.28125 19.8125 11.734375 
Q 24.65625 6.203125 33.40625 6.203125 
Q 37.3125 6.203125 41.140625 7.25 
Q 44.96875 8.296875 48.78125 10.40625 
L 48.78125 2.09375 
Q 45.015625 0.34375 40.984375 -0.53125 
Q 36.96875 -1.421875 32.421875 -1.421875 
Q 20.0625 -1.421875 12.78125 6.34375 
Q 5.515625 14.109375 5.515625 27.296875 
Q 5.515625 40.671875 12.859375 48.328125 
Q 20.21875 56 33.015625 56 
Q 37.15625 56 41.109375 55.140625 
Q 45.0625 54.296875 48.78125 52.59375 
z
" id="DejaVuSans-99"/>
      <path d="M 32.171875 -5.078125 
Q 28.375 -14.84375 24.75 -17.8125 
Q 21.140625 -20.796875 15.09375 -20.796875 
L 7.90625 -20.796875 
L 7.90625 -13.28125 
L 13.1875 -13.28125 
Q 16.890625 -13.28125 18.9375 -11.515625 
Q 21 -9.765625 23.484375 -3.21875 
L 25.09375 0.875 
L 2.984375 54.6875 
L 12.5 54.6875 
L 29.59375 11.921875 
L 46.6875 54.6875 
L 56.203125 54.6875 
z
" id="DejaVuSans-121"/>
     </defs>
     <g transform="translate(342.702344 284.596563)scale(0.1 -0.1)">
      <use xlink:href="#DejaVuSans-70"/>
      <use x="57.410156" xlink:href="#DejaVuSans-114"/>
      <use x="98.492188" xlink:href="#DejaVuSans-101"/>
      <use x="160.015625" xlink:href="#DejaVuSans-113"/>
      <use x="223.492188" xlink:href="#DejaVuSans-117"/>
      <use x="286.871094" xlink:href="#DejaVuSans-101"/>
      <use x="348.394531" xlink:href="#DejaVuSans-110"/>
      <use x="411.773438" xlink:href="#DejaVuSans-99"/>
      <use x="466.753906" xlink:href="#DejaVuSans-121"/>
     </g>
    </g>
   </g>
   <g id="matplotlib.axis_2">
    <g id="ytick_1">
     <g id="line2d_13">
      <path clip-path="url(#p2e3ba6d1e1)" d="M 90 239.893333 
L 648 239.893333 
" style="fill:none;stroke:#b0b0b0;stroke-linecap:square;stroke-width:0.8;"/>
     </g>
     <g id="line2d_14">
      <defs>
       <path d="M 0 0 
L -3.5 0 
" id="m4d4e0e1c31" style="stroke:#000000;stroke-width:0.8;"/>
      </defs>
      <g>
       <use style="stroke:#000000;stroke-width:0.8;" x="90" xlink:href="#m4d4e0e1c31" y="239.893333"/>
      </g>
     </g>
     <g id="text_8">
      <!-- −120 -->
      <defs>
       <path d="M 10.59375 35.5 
L 73.1875 35.5 
L 73.1875 27.203125 
L 10.59375 27.203125 
z
" id="DejaVuSans-8722"/>
      </defs>
      <g transform="translate(55.532812 243.692552)scale(0.1 -0.1)">
       <use xlink:href="#DejaVuSans-8722"/>
       <use x="83.789062" xlink:href="#DejaVuSans-49"/>
       <use x="147.412109" xlink:href="#DejaVuSans-50"/>
       <use x="211.035156" xlink:href="#DejaVuSans-48"/>
      </g>
     </g>
    </g>
    <g id="ytick_2">
     <g id="line2d_15">
      <path clip-path="url(#p2e3ba6d1e1)" d="M 90 207.04 
L 648 207.04 
" style="fill:none;stroke:#b0b0b0;stroke-linecap:square;stroke-width:0.8;"/>
     </g>
     <g id="line2d_16">
      <g>
       <use style="stroke:#000000;stroke-width:0.8;" x="90" xlink:href="#m4d4e0e1c31" y="207.04"/>
      </g>
     </g>
     <g id="text_9">
      <!-- −100 -->
      <g transform="translate(55.532812 210.839219)scale(0.1 -0.1)">
       <use xlink:href="#DejaVuSans-8722"/>
       <use x="83.789062" xlink:href="#DejaVuSans-49"/>
       <use x="147.412109" xlink:href="#DejaVuSans-48"/>
       <use x="211.035156" xlink:href="#DejaVuSans-48"/>
      </g>
     </g>
    </g>
    <g id="ytick_3">
     <g id="line2d_17">
      <path clip-path="url(#p2e3ba6d1e1)" d="M 90 174.186667 
L 648 174.186667 
" style="fill:none;stroke:#b0b0b0;stroke-linecap:square;stroke-width:0.8;"/>
     </g>
     <g id="line2d_18">
      <g>
       <use style="stroke:#000000;stroke-width:0.8;" x="90" xlink:href="#m4d4e0e1c31" y="174.186667"/>
      </g>
     </g>
     <g id="text_10">
      <!-- −80 -->
      <g transform="translate(61.895313 177.985885)scale(0.1 -0.1)">
       <use xlink:href="#DejaVuSans-8722"/>
       <use x="83.789062" xlink:href="#DejaVuSans-56"/>
       <use x="147.412109" xlink:href="#DejaVuSans-48"/>
      </g>
     </g>
    </g>
    <g id="ytick_4">
     <g id="line2d_19">
      <path clip-path="url(#p2e3ba6d1e1)" d="M 90 141.333333 
L 648 141.333333 
" style="fill:none;stroke:#b0b0b0;stroke-linecap:square;stroke-width:0.8;"/>
     </g>
     <g id="line2d_20">
      <g>
       <use style="stroke:#000000;stroke-width:0.8;" x="90" xlink:href="#m4d4e0e1c31" y="141.333333"/>
      </g>
     </g>
     <g id="text_11">
      <!-- −60 -->
      <g transform="translate(61.895313 145.132552)scale(0.1 -0.1)">
       <use xlink:href="#DejaVuSans-8722"/>
       <use x="83.789062" xlink:href="#DejaVuSans-54"/>
       <use x="147.412109" xlink:href="#DejaVuSans-48"/>
      </g>
     </g>
    </g>
    <g id="ytick_5">
     <g id="line2d_21">
      <path clip-path="url(#p2e3ba6d1e1)" d="M 90 108.48 
L 648 108.48 
" style="fill:none;stroke:#b0b0b0;stroke-linecap:square;stroke-width:0.8;"/>
     </g>
     <g id="line2d_22">
      <g>
       <use style="stroke:#000000;stroke-width:0.8;" x="90" xlink:href="#m4d4e0e1c31" y="108.48"/>
      </g>
     </g>
     <g id="text_12">
      <!-- −40 -->
      <g transform="translate(61.895313 112.279219)scale(0.1 -0.1)">
       <use xlink:href="#DejaVuSans-8722"/>
       <use x="83.789062" xlink:href="#DejaVuSans-52"/>
       <use x="147.412109" xlink:href="#DejaVuSans-48"/>
      </g>
     </g>
    </g>
    <g id="ytick_6">
     <g id="line2d_23">
      <path clip-path="url(#p2e3ba6d1e1)" d="M 90 75.626667 
L 648 75.626667 
" style="fill:none;stroke:#b0b0b0;stroke-linecap:square;stroke-width:0.8;"/>
     </g>
     <g id="line2d_24">
      <g>
       <use style="stroke:#000000;stroke-width:0.8;" x="90" xlink:href="#m4d4e0e1c31" y="75.626667"/>
      </g>
     </g>
     <g id="text_13">
      <!-- −20 -->
      <g transform="translate(61.895313 79.425885)scale(0.1 -0.1)">
       <use xlink:href="#DejaVuSans-8722"/>
       <use x="83.789062" xlink:href="#DejaVuSans-50"/>
       <use x="147.412109" xlink:href="#DejaVuSans-48"/>
      </g>
     </g>
    </g>
    <g id="ytick_7">
     <g id="line2d_25">
      <path clip-path="url(#p2e3ba6d1e1)" d="M 90 42.773333 
L 648 42.773333 
" style="fill:none;stroke:#b0b0b0;stroke-linecap:square;stroke-width:0.8;"/>
     </g>
     <g id="line2d_26">
      <g>
       <use style="stroke:#000000;stroke-width:0.8;" x="90" xlink:href="#m4d4e0e1c31" y="42.773333"/>
      </g>
     </g>
     <g id="text_14">
      <!-- 0 -->
      <g transform="translate(76.6375 46.572552)scale(0.1 -0.1)">
       <use xlink:href="#DejaVuSans-48"/>
      </g>
     </g>
    </g>
    <g id="text_15">
     <!-- Attenuation (dB) -->
     <defs>
      <path d="M 34.1875 63.1875 
L 20.796875 26.90625 
L 47.609375 26.90625 
z
M 28.609375 72.90625 
L 39.796875 72.90625 
L 67.578125 0 
L 57.328125 0 
L 50.6875 18.703125 
L 17.828125 18.703125 
L 11.1875 0 
L 0.78125 0 
z
" id="DejaVuSans-65"/>
      <path d="M 18.3125 70.21875 
L 18.3125 54.6875 
L 36.8125 54.6875 
L 36.8125 47.703125 
L 18.3125 47.703125 
L 18.3125 18.015625 
Q 18.3125 11.328125 20.140625 9.421875 
Q 21.96875 7.515625 27.59375 7.515625 
L 36.8125 7.515625 
L 36.8125 0 
L 27.59375 0 
Q 17.1875 0 13.234375 3.875 
Q 9.28125 7.765625 9.28125 18.015625 
L 9.28125 47.703125 
L 2.6875 47.703125 
L 2.6875 54.6875 
L 9.28125 54.6875 
L 9.28125 70.21875 
z
" id="DejaVuSans-116"/>
      <path d="M 34.28125 27.484375 
Q 23.390625 27.484375 19.1875 25 
Q 14.984375 22.515625 14.984375 16.5 
Q 14.984375 11.71875 18.140625 8.90625 
Q 21.296875 6.109375 26.703125 6.109375 
Q 34.1875 6.109375 38.703125 11.40625 
Q 43.21875 16.703125 43.21875 25.484375 
L 43.21875 27.484375 
z
M 52.203125 31.203125 
L 52.203125 0 
L 43.21875 0 
L 43.21875 8.296875 
Q 40.140625 3.328125 35.546875 0.953125 
Q 30.953125 -1.421875 24.3125 -1.421875 
Q 15.921875 -1.421875 10.953125 3.296875 
Q 6 8.015625 6 15.921875 
Q 6 25.140625 12.171875 29.828125 
Q 18.359375 34.515625 30.609375 34.515625 
L 43.21875 34.515625 
L 43.21875 35.40625 
Q 43.21875 41.609375 39.140625 45 
Q 35.0625 48.390625 27.6875 48.390625 
Q 23 48.390625 18.546875 47.265625 
Q 14.109375 46.140625 10.015625 43.890625 
L 10.015625 52.203125 
Q 14.9375 54.109375 19.578125 55.046875 
Q 24.21875 56 28.609375 56 
Q 40.484375 56 46.34375 49.84375 
Q 52.203125 43.703125 52.203125 31.203125 
z
" id="DejaVuSans-97"/>
      <path d="M 9.421875 54.6875 
L 18.40625 54.6875 
L 18.40625 0 
L 9.421875 0 
z
M 9.421875 75.984375 
L 18.40625 75.984375 
L 18.40625 64.59375 
L 9.421875 64.59375 
z
" id="DejaVuSans-105"/>
      <path d="M 30.609375 48.390625 
Q 23.390625 48.390625 19.1875 42.75 
Q 14.984375 37.109375 14.984375 27.296875 
Q 14.984375 17.484375 19.15625 11.84375 
Q 23.34375 6.203125 30.609375 6.203125 
Q 37.796875 6.203125 41.984375 11.859375 
Q 46.1875 17.53125 46.1875 27.296875 
Q 46.1875 37.015625 41.984375 42.703125 
Q 37.796875 48.390625 30.609375 48.390625 
z
M 30.609375 56 
Q 42.328125 56 49.015625 48.375 
Q 55.71875 40.765625 55.71875 27.296875 
Q 55.71875 13.875 49.015625 6.21875 
Q 42.328125 -1.421875 30.609375 -1.421875 
Q 18.84375 -1.421875 12.171875 6.21875 
Q 5.515625 13.875 5.515625 27.296875 
Q 5.515625 40.765625 12.171875 48.375 
Q 18.84375 56 30.609375 56 
z
" id="DejaVuSans-111"/>
      <path d="M 31 75.875 
Q 24.46875 64.65625 21.28125 53.65625 
Q 18.109375 42.671875 18.109375 31.390625 
Q 18.109375 20.125 21.3125 9.0625 
Q 24.515625 -2 31 -13.1875 
L 23.1875 -13.1875 
Q 15.875 -1.703125 12.234375 9.375 
Q 8.59375 20.453125 8.59375 31.390625 
Q 8.59375 42.28125 12.203125 53.3125 
Q 15.828125 64.359375 23.1875 75.875 
z
" id="DejaVuSans-40"/>
      <path d="M 45.40625 46.390625 
L 45.40625 75.984375 
L 54.390625 75.984375 
L 54.390625 0 
L 45.40625 0 
L 45.40625 8.203125 
Q 42.578125 3.328125 38.25 0.953125 
Q 33.9375 -1.421875 27.875 -1.421875 
Q 17.96875 -1.421875 11.734375 6.484375 
Q 5.515625 14.40625 5.515625 27.296875 
Q 5.515625 40.1875 11.734375 48.09375 
Q 17.96875 56 27.875 56 
Q 33.9375 56 38.25 53.625 
Q 42.578125 51.265625 45.40625 46.390625 
z
M 14.796875 27.296875 
Q 14.796875 17.390625 18.875 11.75 
Q 22.953125 6.109375 30.078125 6.109375 
Q 37.203125 6.109375 41.296875 11.75 
Q 45.40625 17.390625 45.40625 27.296875 
Q 45.40625 37.203125 41.296875 42.84375 
Q 37.203125 48.484375 30.078125 48.484375 
Q 22.953125 48.484375 18.875 42.84375 
Q 14.796875 37.203125 14.796875 27.296875 
z
" id="DejaVuSans-100"/>
      <path d="M 19.671875 34.8125 
L 19.671875 8.109375 
L 35.5 8.109375 
Q 43.453125 8.109375 47.28125 11.40625 
Q 51.125 14.703125 51.125 21.484375 
Q 51.125 28.328125 47.28125 31.5625 
Q 43.453125 34.8125 35.5 34.8125 
z
M 19.671875 64.796875 
L 19.671875 42.828125 
L 34.28125 42.828125 
Q 41.5 42.828125 45.03125 45.53125 
Q 48.578125 48.25 48.578125 53.8125 
Q 48.578125 59.328125 45.03125 62.0625 
Q 41.5 64.796875 34.28125 64.796875 
z
M 9.8125 72.90625 
L 35.015625 72.90625 
Q 46.296875 72.90625 52.390625 68.21875 
Q 58.5 63.53125 58.5 54.890625 
Q 58.5 48.1875 55.375 44.234375 
Q 52.25 40.28125 46.1875 39.3125 
Q 53.46875 37.75 57.5 32.78125 
Q 61.53125 27.828125 61.53125 20.40625 
Q 61.53125 10.640625 54.890625 5.3125 
Q 48.25 0 35.984375 0 
L 9.8125 0 
z
" id="DejaVuSans-66"/>
      <path d="M 8.015625 75.875 
L 15.828125 75.875 
Q 23.140625 64.359375 26.78125 53.3125 
Q 30.421875 42.28125 30.421875 31.390625 
Q 30.421875 20.453125 26.78125 9.375 
Q 23.140625 -1.703125 15.828125 -13.1875 
L 8.015625 -13.1875 
Q 14.5 -2 17.703125 9.0625 
Q 20.90625 20.125 20.90625 31.390625 
Q 20.90625 42.671875 17.703125 53.65625 
Q 14.5 64.65625 8.015625 75.875 
z
" id="DejaVuSans-41"/>
     </defs>
     <g transform="translate(49.453125 186.930625)rotate(-90)scale(0.1 -0.1)">
      <use xlink:href="#DejaVuSans-65"/>
      <use x="68.392578" xlink:href="#DejaVuSans-116"/>
      <use x="107.601562" xlink:href="#DejaVuSans-116"/>
      <use x="146.810547" xlink:href="#DejaVuSans-101"/>
      <use x="208.333984" xlink:href="#DejaVuSans-110"/>
      <use x="271.712891" xlink:href="#DejaVuSans-117"/>
      <use x="335.091797" xlink:href="#DejaVuSans-97"/>
      <use x="396.371094" xlink:href="#DejaVuSans-116"/>
      <use x="435.580078" xlink:href="#DejaVuSans-105"/>
      <use x="463.363281" xlink:href="#DejaVuSans-111"/>
      <use x="524.544922" xlink:href="#DejaVuSans-110"/>
      <use x="587.923828" xlink:href="#DejaVuSans-32"/>
      <use x="619.710938" xlink:href="#DejaVuSans-40"/>
      <use x="658.724609" xlink:href="#DejaVuSans-100"/>
      <use x="722.201172" xlink:href="#DejaVuSans-66"/>
      <use x="790.804688" xlink:href="#DejaVuSans-41"/>
     </g>
    </g>
   </g>
   <g id="line2d_27">
    <path clip-path="url(#p2e3ba6d1e1)" d="M 90 42.773333 
L 109.821533 42.884449 
L 129.574951 43.216959 
L 149.260254 43.770636 
L 168.741211 44.540462 
L 188.017822 45.524231 
L 207.021973 46.716321 
L 225.685547 48.109086 
L 244.008545 49.699001 
L 261.922852 51.476353 
L 279.360352 53.428862 
L 296.321045 55.550367 
L 312.804932 57.835248 
L 328.743896 60.267458 
L 344.137939 62.839196 
L 359.055176 65.55565 
L 373.42749 68.39826 
L 387.254883 71.359177 
L 400.537354 74.430251 
L 413.274902 77.602886 
L 425.467529 80.86789 
L 437.115234 84.215308 
L 448.286133 87.655954 
L 458.912109 91.159108 
L 469.061279 94.736435 
L 478.733643 98.378251 
L 487.997314 102.101878 
L 496.852295 105.9005 
L 505.230469 109.734017 
L 513.268066 113.655458 
L 520.896973 117.623872 
L 528.185303 121.665675 
L 535.064941 125.732296 
L 541.672119 129.895687 
L 547.938721 134.106669 
L 553.864746 138.353018 
L 559.518311 142.673899 
L 564.899414 147.062718 
L 570.076172 151.572498 
L 574.980469 156.139989 
L 579.612305 160.753317 
L 584.039795 165.472901 
L 588.262939 170.296715 
L 592.281738 175.221376 
L 596.096191 180.241776 
L 599.774414 185.450701 
L 603.248291 190.753625 
L 606.585938 196.256011 
L 609.719238 201.845006 
L 612.716309 207.640334 
L 615.577148 213.654405 
L 618.301758 219.900371 
L 620.890137 226.392032 
L 623.342285 233.143665 
L 625.658203 240.169724 
L 627.837891 247.484351 
L 629.949463 255.369076 
L 631.924805 263.630901 
L 633.763916 272.293296 
L 635.466797 281.377623 
L 636.737259 289 
L 636.737259 289 
" style="fill:none;stroke:#1f77b4;stroke-linecap:square;stroke-width:1.5;"/>
   </g>
   <g id="line2d_28">
    <path clip-path="url(#p2e3ba6d1e1)" d="M 90 42.773333 
L 102.127473 42.884239 
L 114.254945 43.217474 
L 126.314286 43.770846 
L 138.305495 44.543175 
L 150.228571 45.534295 
L 162.015385 46.737455 
L 173.665934 48.150588 
L 185.112088 49.762286 
L 196.353846 51.568224 
L 207.391209 53.564825 
L 218.224176 55.749238 
L 228.852747 58.119318 
L 239.208791 60.656175 
L 249.292308 63.354369 
L 259.103297 66.208842 
L 268.641758 69.214866 
L 277.907692 72.367999 
L 286.832967 75.638154 
L 295.485714 79.043406 
L 303.865934 82.579612 
L 311.905495 86.210849 
L 319.672527 89.960468 
L 327.167033 93.823916 
L 334.389011 97.79642 
L 341.338462 101.872893 
L 348.015385 106.047811 
L 354.41978 110.315083 
L 360.551648 114.667891 
L 366.410989 119.098501 
L 371.997802 123.59806 
L 377.38022 128.21668 
L 382.558242 132.954398 
L 387.463736 137.742288 
L 392.164835 142.639115 
L 396.661538 147.642571 
L 400.953846 152.749432 
L 405.041758 157.955286 
L 408.993407 163.350512 
L 412.740659 168.845099 
L 416.283516 174.430587 
L 419.69011 180.215749 
L 422.96044 186.214391 
L 426.026374 192.301073 
L 428.956044 198.609478 
L 431.749451 205.154228 
L 434.406593 211.951215 
L 436.927473 219.017599 
L 439.312088 226.371736 
L 441.56044 234.032992 
L 443.672527 242.021364 
L 445.648352 250.356804 
L 447.487912 259.058068 
L 449.259341 268.52841 
L 450.894505 278.499071 
L 452.393133 289 
M 471.917157 289 
L 473.446154 278.963202 
L 475.081319 269.645859 
L 476.852747 260.814836 
L 478.76044 252.444568 
L 480.736264 244.757401 
L 482.848352 237.422641 
L 485.096703 230.425014 
L 487.413187 223.929791 
L 489.865934 217.705036 
L 492.454945 211.741239 
L 495.18022 206.028457 
L 497.973626 200.681384 
L 500.903297 195.544714 
L 503.969231 190.612374 
L 507.171429 185.878283 
L 510.50989 181.336509 
L 513.984615 176.981387 
L 517.595604 172.807591 
L 521.410989 168.740399 
L 525.362637 164.85583 
L 529.450549 161.148525 
L 533.742857 157.559055 
L 538.171429 154.146622 
L 542.804396 150.860466 
L 547.573626 147.750767 
L 552.547253 144.774769 
L 557.657143 141.97519 
L 562.971429 139.316699 
L 568.49011 136.806274 
L 574.145055 134.477451 
L 580.004396 132.305075 
L 586 130.317953 
L 592.2 128.497585 
L 598.536264 126.868845 
L 605.008791 125.433755 
L 611.617582 124.195439 
L 618.362637 123.158189 
L 625.175824 122.334666 
L 632.057143 121.725165 
L 639.006593 121.331547 
L 646.024176 121.15728 
L 647.931868 121.148462 
L 647.931868 121.148462 
" style="fill:none;stroke:#ff7f0e;stroke-linecap:square;stroke-width:1.5;"/>
   </g>
   <g id="line2d_29">
    <path clip-path="url(#p2e3ba6d1e1)" d="M 90 42.773333 
L 98.85498 42.884193 
L 107.709961 43.217241 
L 116.496826 43.768756 
L 125.283691 44.542786 
L 134.002441 45.534026 
L 142.653076 46.74149 
L 151.16748 48.1529 
L 159.61377 49.77763 
L 167.923828 51.60147 
L 176.097656 53.621341 
L 184.135254 55.834889 
L 192.036621 58.240493 
L 199.801758 60.83727 
L 207.362549 63.599135 
L 214.787109 66.548283 
L 222.007324 69.655473 
L 229.023193 72.915598 
L 235.834717 76.323821 
L 242.441895 79.87553 
L 248.912842 83.606941 
L 255.179443 87.478816 
L 261.241699 91.487365 
L 267.099609 95.628868 
L 272.753174 99.899604 
L 278.202393 104.295775 
L 283.447266 108.813409 
L 288.487793 113.448253 
L 293.323975 118.195635 
L 297.955811 123.050301 
L 302.451416 128.08507 
L 306.742676 133.224948 
L 310.82959 138.462844 
L 314.780273 143.886963 
L 318.526611 149.404011 
L 322.136719 155.114505 
L 325.610596 161.030011 
L 328.880127 167.033675 
L 332.013428 173.249089 
L 335.010498 179.689398 
L 337.871338 186.369254 
L 340.595947 193.304942 
L 343.184326 200.514484 
L 345.636475 208.017727 
L 347.952393 215.836364 
L 350.13208 223.993838 
L 352.175537 232.515077 
L 354.082764 241.425888 
L 355.85376 250.751841 
L 357.488525 260.516273 
L 359.055176 271.236268 
L 360.485596 282.577638 
L 361.203976 289 
M 377.154781 289 
L 378.536133 278.136734 
L 380.034668 268.054884 
L 381.669434 258.56481 
L 383.372314 249.954428 
L 385.211426 241.787986 
L 387.118652 234.299779 
L 389.162109 227.162827 
L 391.341797 220.36794 
L 393.5896 214.084149 
L 395.973633 208.082855 
L 398.425781 202.505248 
L 401.01416 197.169331 
L 403.670654 192.193735 
L 406.463379 187.431236 
L 409.392334 182.880908 
L 412.389404 178.633396 
L 415.522705 174.578555 
L 418.724121 170.793466 
L 422.061768 167.187695 
L 425.535645 163.762675 
L 429.145752 160.519735 
L 432.823975 157.513274 
L 436.638428 154.681794 
L 440.589111 152.027973 
L 444.60791 149.59379 
L 448.762939 147.33507 
L 453.054199 145.256022 
L 457.481689 143.361269 
L 461.977295 141.679622 
L 466.609131 140.186171 
L 471.309082 138.904583 
L 476.077148 137.832652 
L 480.981445 136.958942 
L 485.953857 136.300637 
L 490.994385 135.859366 
L 496.034912 135.639638 
L 501.143555 135.638534 
L 506.252197 135.857663 
L 511.428955 136.303085 
L 516.605713 136.973681 
L 521.714355 137.858125 
L 526.822998 138.967294 
L 531.863525 140.287016 
L 536.904053 141.837367 
L 541.876465 143.601232 
L 546.780762 145.579262 
L 551.548828 147.74097 
L 556.248779 150.11547 
L 560.8125 152.667624 
L 565.308105 155.436063 
L 569.66748 158.380408 
L 573.95874 161.549624 
L 578.11377 164.897483 
L 582.132568 168.422257 
L 586.015137 172.12273 
L 589.761475 175.998127 
L 593.371582 180.048051 
L 596.913574 184.358689 
L 600.319336 188.858455 
L 603.588867 193.549464 
L 606.722168 198.434102 
L 609.719238 203.514894 
L 612.580078 208.794334 
L 615.372803 214.417912 
L 618.029297 220.270862 
L 620.549561 226.358536 
L 623.001709 232.875557 
L 625.317627 239.675179 
L 627.497314 246.766999 
L 629.540771 254.159212 
L 631.516113 262.148761 
L 633.355225 270.517983 
L 635.058105 279.278967 
L 636.714481 289 
L 636.714481 289 
" style="fill:none;stroke:#2ca02c;stroke-linecap:square;stroke-width:1.5;"/>
   </g>
   <g id="line2d_30">
    <path clip-path="url(#p2e3ba6d1e1)" d="M 90 42.773333 
L 95.791209 42.883971 
L 101.582418 43.21632 
L 107.373626 43.771698 
L 113.164835 44.552327 
L 118.887912 45.548162 
L 124.610989 46.771097 
L 130.265934 48.207484 
L 135.852747 49.854995 
L 141.371429 51.712112 
L 146.821978 53.778137 
L 152.204396 56.053219 
L 157.518681 58.538396 
L 162.764835 61.235655 
L 167.942857 64.148007 
L 173.052747 67.2796 
L 178.026374 70.588649 
L 182.931868 74.121456 
L 187.701099 77.83076 
L 192.334066 81.713298 
L 196.898901 85.82997 
L 201.327473 90.124196 
L 205.61978 94.594962 
L 209.775824 99.241841 
L 213.795604 104.064996 
L 217.747253 109.156134 
L 221.562637 114.439222 
L 225.241758 119.918004 
L 228.784615 125.597195 
L 232.191209 131.482554 
L 235.461538 137.580959 
L 238.595604 143.900495 
L 241.593407 150.450533 
L 244.454945 157.241808 
L 247.18022 164.286492 
L 249.769231 171.598225 
L 252.221978 179.192104 
L 254.538462 187.084591 
L 256.718681 195.293263 
L 258.762637 203.836353 
L 260.738462 213.068819 
L 262.578022 222.756286 
L 264.281319 232.936188 
L 265.848352 243.646442 
L 267.279121 254.922094 
L 268.641758 267.468069 
L 269.868132 280.864671 
L 270.51294 289 
M 281.798121 289 
L 283.017582 275.841897 
L 284.312088 264.260622 
L 285.742857 253.487591 
L 287.241758 243.873217 
L 288.876923 234.845917 
L 290.58022 226.685511 
L 292.351648 219.250697 
L 294.259341 212.19839 
L 296.235165 205.736959 
L 298.279121 199.791222 
L 300.459341 194.134861 
L 302.707692 188.922677 
L 305.024176 184.110348 
L 307.408791 179.662122 
L 309.861538 175.548926 
L 312.382418 171.746991 
L 314.971429 168.236837 
L 317.628571 165.002504 
L 320.353846 162.030974 
L 323.147253 159.311726 
L 326.008791 156.836391 
L 328.938462 154.598495 
L 331.868132 152.635797 
L 334.865934 150.890734 
L 337.931868 149.362319 
L 341.065934 148.05076 
L 344.2 146.978194 
L 347.402198 146.11649 
L 350.672527 145.46975 
L 353.942857 145.049621 
L 357.281319 144.846901 
L 360.61978 144.866783 
L 364.026374 145.112119 
L 367.432967 145.581947 
L 370.83956 146.275014 
L 374.246154 147.191636 
L 377.720879 148.358855 
L 381.195604 149.764349 
L 384.67033 151.413687 
L 388.145055 153.314439 
L 391.551648 155.431421 
L 394.958242 157.81104 
L 398.296703 160.411624 
L 401.635165 163.294552 
L 404.905495 166.411564 
L 408.107692 169.766485 
L 411.30989 173.447024 
L 414.443956 177.394675 
L 417.50989 181.621846 
L 420.43956 186.036921 
L 423.301099 190.746945 
L 426.094505 195.773271 
L 428.81978 201.142384 
L 431.408791 206.732953 
L 433.92967 212.709098 
L 436.314286 218.928733 
L 438.630769 225.594751 
L 440.810989 232.539774 
L 442.923077 240.018057 
L 444.898901 247.831027 
L 446.806593 256.30425 
L 448.578022 265.200489 
L 450.213187 274.533648 
L 451.78022 284.78845 
L 452.361616 289 
M 471.952878 289 
L 473.514286 278.886279 
L 475.149451 269.724803 
L 476.920879 261.065094 
L 478.76044 253.161609 
L 480.736264 245.654219 
L 482.78022 238.751116 
L 484.96044 232.177936 
L 487.208791 226.106176 
L 489.525275 220.478852 
L 491.978022 215.108892 
L 494.498901 210.128858 
L 497.087912 205.504972 
L 499.745055 201.209948 
L 502.47033 197.221671 
L 505.263736 193.522227 
L 508.125275 190.097169 
L 511.054945 186.934961 
L 514.052747 184.026563 
L 517.118681 181.365107 
L 520.184615 178.995181 
L 523.318681 176.852108 
L 526.452747 174.97315 
L 529.654945 173.310033 
L 532.857143 171.892768 
L 536.127473 170.687374 
L 539.397802 169.716827 
L 542.736264 168.960163 
L 546.074725 168.433601 
L 549.413187 168.132385 
L 552.751648 168.053343 
L 556.09011 168.194803 
L 559.428571 168.556548 
L 562.767033 169.139811 
L 566.105495 169.947303 
L 569.443956 170.983287 
L 572.782418 172.253687 
L 576.120879 173.766255 
L 579.391209 175.49218 
L 582.661538 177.471265 
L 585.863736 179.667772 
L 589.065934 182.136088 
L 592.2 184.83337 
L 595.265934 187.762231 
L 598.331868 191.002543 
L 601.32967 194.50013 
L 604.259341 198.264949 
L 607.120879 202.309712 
L 609.914286 206.650377 
L 612.63956 211.306796 
L 615.228571 216.169283 
L 617.749451 221.375197 
L 620.202198 226.956985 
L 622.518681 232.774924 
L 624.767033 239.020069 
L 626.947253 245.746727 
L 628.991209 252.775927 
L 630.967033 260.38265 
L 632.806593 268.350729 
L 634.578022 277.036342 
L 636.213187 286.175698 
L 636.675962 289 
L 636.675962 289 
" style="fill:none;stroke:#d62728;stroke-linecap:square;stroke-width:1.5;"/>
   </g>
   <g id="line2d_31">
    <path clip-path="url(#p2e3ba6d1e1)" d="M 90 42.773333 
L 94.359375 42.886179 
L 98.650635 43.218118 
L 102.941895 43.770446 
L 107.233154 44.545294 
L 111.524414 45.545697 
L 115.815674 46.775644 
L 120.106934 48.240164 
L 124.330078 49.916432 
L 128.553223 51.832917 
L 132.708252 53.961076 
L 136.863281 56.339336 
L 140.950195 58.93334 
L 145.037109 61.79239 
L 149.055908 64.876274 
L 153.006592 68.186957 
L 156.88916 71.727632 
L 160.703613 75.502849 
L 164.518066 79.594692 
L 168.196289 83.86518 
L 171.806396 88.394497 
L 175.348389 93.195036 
L 178.822266 98.282096 
L 182.159912 103.56242 
L 185.429443 109.152758 
L 188.562744 114.947457 
L 191.62793 121.086741 
L 194.556885 127.451043 
L 197.349609 134.042385 
L 200.074219 141.045935 
L 202.662598 148.315328 
L 205.114746 155.859266 
L 207.498779 163.929169 
L 209.746582 172.344324 
L 211.858154 181.1262 
L 213.833496 190.298268 
L 215.672607 199.88533 
L 217.375488 209.912218 
L 219.010254 220.890498 
L 220.508789 232.497925 
L 221.871094 244.789294 
L 223.097168 257.813778 
L 224.255127 272.552476 
L 225.276855 288.466099 
L 225.307397 289 
M 233.946748 289 
L 234.949219 275.0223 
L 236.107178 261.896005 
L 237.333252 250.421234 
L 238.695557 239.740775 
L 240.125977 230.240123 
L 241.692627 221.340785 
L 243.327393 213.339888 
L 245.030273 206.096007 
L 246.80127 199.50358 
L 248.640381 193.482024 
L 250.547607 187.968736 
L 252.522949 182.914422 
L 254.566406 178.279898 
L 256.677979 174.033833 
L 258.857666 170.151131 
L 261.037354 166.712637 
L 263.285156 163.577467 
L 265.532959 160.814489 
L 267.848877 158.318206 
L 270.164795 156.145037 
L 272.480713 154.267963 
L 274.864746 152.621439 
L 277.248779 151.244858 
L 279.632812 150.121523 
L 282.016846 149.237621 
L 284.468994 148.566285 
L 286.921143 148.126136 
L 289.373291 147.909099 
L 291.893555 147.911923 
L 294.413818 148.138729 
L 296.934082 148.5861 
L 299.522461 149.273202 
L 302.11084 150.19061 
L 304.767334 151.372977 
L 307.423828 152.80247 
L 310.080322 154.484233 
L 312.736816 156.425498 
L 315.461426 158.696116 
L 318.186035 161.262907 
L 320.910645 164.142367 
L 323.635254 167.35497 
L 326.291748 170.832132 
L 328.948242 174.678899 
L 331.536621 178.816485 
L 334.125 183.379614 
L 336.645264 188.280009 
L 339.097412 193.537728 
L 341.481445 199.178654 
L 343.797363 205.235887 
L 346.045166 211.751701 
L 348.156738 218.548748 
L 350.200195 225.873726 
L 352.175537 233.803008 
L 354.014648 242.109541 
L 355.785645 251.163811 
L 357.42041 260.691319 
L 358.987061 271.191286 
L 360.41748 282.330249 
L 361.174262 289 
M 377.190467 289 
L 378.604248 278.061896 
L 380.102783 268.189971 
L 381.669434 259.29324 
L 383.372314 250.892753 
L 385.143311 243.257736 
L 386.982422 236.278642 
L 388.957764 229.657316 
L 391.001221 223.592585 
L 393.112793 218.024989 
L 395.29248 212.908071 
L 397.540283 208.205285 
L 399.788086 204.007802 
L 402.104004 200.14664 
L 404.488037 196.607519 
L 406.87207 193.464009 
L 409.256104 190.678266 
L 411.708252 188.153694 
L 414.1604 185.947414 
L 416.612549 184.036763 
L 419.064697 182.403048 
L 421.516846 181.030857 
L 423.968994 179.907518 
L 426.421143 179.022702 
L 428.873291 178.368107 
L 431.325439 177.937227 
L 433.845703 177.722364 
L 436.365967 177.734979 
L 438.88623 177.972956 
L 441.406494 178.435681 
L 443.926758 179.124028 
L 446.447021 180.040376 
L 449.0354 181.222976 
L 451.623779 182.656359 
L 454.212158 184.348681 
L 456.800537 186.310383 
L 459.388916 188.554527 
L 461.977295 191.097234 
L 464.565674 193.958272 
L 467.085938 197.072907 
L 469.606201 200.539563 
L 472.126465 204.391699 
L 474.578613 208.548949 
L 476.962646 213.022869 
L 479.34668 217.977605 
L 481.662598 223.316208 
L 483.9104 229.069845 
L 486.090088 235.27826 
L 488.133545 241.763626 
L 490.108887 248.764486 
L 492.016113 256.350963 
L 493.855225 264.614688 
L 495.558105 273.305667 
L 497.192871 282.84823 
L 498.132578 289 
M 519.12912 289 
L 520.692627 279.544166 
L 522.395508 270.614185 
L 524.166504 262.504615 
L 526.005615 255.090611 
L 527.980957 248.049616 
L 530.024414 241.588905 
L 532.135986 235.642782 
L 534.315674 230.160205 
L 536.563477 225.101175 
L 538.879395 220.434235 
L 541.263428 216.134675 
L 543.647461 212.287045 
L 546.099609 208.750093 
L 548.551758 205.597773 
L 551.003906 202.795741 
L 553.52417 200.25141 
L 556.044434 198.022475 
L 558.564697 196.088429 
L 561.084961 194.432441 
L 563.605225 193.040744 
L 566.125488 191.902175 
L 568.645752 191.007819 
L 571.166016 190.350745 
L 573.686279 189.925808 
L 576.206543 189.729505 
L 578.726807 189.759887 
L 581.24707 190.016503 
L 583.767334 190.500388 
L 586.287598 191.214092 
L 588.807861 192.161747 
L 591.328125 193.349176 
L 593.848389 194.784055 
L 596.368652 196.476135 
L 598.888916 198.437539 
L 601.40918 200.683153 
L 603.929443 203.231138 
L 606.449707 206.103615 
L 608.901855 209.235538 
L 611.354004 212.730521 
L 613.738037 216.511812 
L 616.12207 220.71367 
L 618.437988 225.247955 
L 620.685791 230.133047 
L 622.865479 235.392406 
L 624.977051 241.055747 
L 627.020508 247.160653 
L 628.99585 253.754828 
L 630.903076 260.899294 
L 632.742188 268.673072 
L 634.445068 276.831449 
L 636.079834 285.759246 
L 636.62082 289 
L 636.62082 289 
" style="fill:none;stroke:#9467bd;stroke-linecap:square;stroke-width:1.5;"/>
   </g>
   <g id="line2d_32">
    <path clip-path="url(#p2e3ba6d1e1)" d="M 90 42.773333 
L 92.863636 42.883859 
L 95.727273 43.215853 
L 98.590909 43.770576 
L 101.454545 44.550154 
L 104.318182 45.557618 
L 107.181818 46.796961 
L 110.113636 48.311298 
L 113.045455 50.080602 
L 115.977273 52.112908 
L 118.909091 54.417831 
L 121.840909 57.006806 
L 124.772727 59.893384 
L 127.704545 63.093609 
L 130.636364 66.626517 
L 133.568182 70.514759 
L 136.431818 74.681549 
L 139.295455 79.243543 
L 142.090909 84.113237 
L 144.886364 89.436203 
L 147.613636 95.115156 
L 150.272727 101.171084 
L 152.863636 107.630915 
L 155.386364 114.529099 
L 157.772727 121.694884 
L 160.090909 129.355247 
L 162.340909 137.573266 
L 164.454545 146.139551 
L 166.5 155.38474 
L 168.409091 165.066758 
L 170.181818 175.207185 
L 171.818182 185.827886 
L 173.386364 197.491585 
L 174.818182 209.840445 
L 176.113636 222.931835 
L 177.272727 236.815927 
L 178.363636 252.605122 
L 179.318182 269.693298 
L 180.167779 289 
M 186.011934 289 
L 186.886364 271.526126 
L 187.840909 256.652809 
L 188.931818 243.084991 
L 190.090909 231.366599 
L 191.386364 220.562182 
L 192.75 211.078496 
L 194.181818 202.672616 
L 195.681818 195.173333 
L 197.25 188.456252 
L 198.886364 182.428982 
L 200.522727 177.223093 
L 202.227273 172.529005 
L 203.931818 168.466776 
L 205.636364 164.95009 
L 207.409091 161.799666 
L 209.181818 159.107924 
L 210.886364 156.908638 
L 212.590909 155.056751 
L 214.295455 153.525144 
L 216 152.291694 
L 217.636364 151.371297 
L 219.272727 150.695973 
L 220.909091 150.255097 
L 222.545455 150.040135 
L 224.181818 150.044389 
L 225.886364 150.276507 
L 227.590909 150.737062 
L 229.363636 151.455908 
L 231.136364 152.418587 
L 232.977273 153.677537 
L 234.818182 155.203918 
L 236.727273 157.07528 
L 238.704545 159.332606 
L 240.681818 161.92804 
L 242.727273 164.987575 
L 244.772727 168.452856 
L 246.818182 172.355726 
L 248.863636 176.736576 
L 250.909091 181.646798 
L 252.954545 187.15231 
L 254.931818 193.120474 
L 256.840909 199.581664 
L 258.75 206.852458 
L 260.522727 214.472777 
L 262.227273 222.762776 
L 263.863636 231.823809 
L 265.431818 241.794513 
L 266.863636 252.32648 
L 268.227273 264.044944 
L 269.454545 276.512883 
L 270.489711 289 
M 281.827274 289 
L 282.954545 276.954972 
L 284.25 265.46639 
L 285.613636 255.334018 
L 287.045455 246.300263 
L 288.545455 238.185075 
L 290.113636 230.858571 
L 291.75 224.224905 
L 293.454545 218.212265 
L 295.227273 212.766432 
L 297 208.016664 
L 298.840909 203.717072 
L 300.681818 199.980241 
L 302.522727 196.741582 
L 304.363636 193.950268 
L 306.204545 191.565853 
L 307.977273 189.623997 
L 309.75 188.005969 
L 311.522727 186.692799 
L 313.227273 185.703352 
L 314.931818 184.970686 
L 316.568182 184.500889 
L 318.204545 184.25393 
L 319.840909 184.225515 
L 321.477273 184.412802 
L 323.181818 184.835704 
L 324.886364 185.490981 
L 326.659091 186.420577 
L 328.431818 187.606634 
L 330.272727 189.115682 
L 332.113636 190.915889 
L 334.022727 193.102568 
L 335.931818 195.631105 
L 337.909091 198.632559 
L 339.886364 202.052154 
L 341.863636 205.926577 
L 343.840909 210.302199 
L 345.818182 215.238075 
L 347.727273 220.606542 
L 349.636364 226.657261 
L 351.477273 233.248085 
L 353.25 240.430412 
L 354.954545 248.27307 
L 356.590909 256.868639 
L 358.159091 266.343235 
L 359.590909 276.356508 
L 360.954545 287.488974 
L 361.123217 289 
M 377.251852 289 
L 378.613636 278.695293 
L 380.113636 269.061174 
L 381.681818 260.450905 
L 383.318182 252.705531 
L 385.022727 245.709947 
L 386.795455 239.379239 
L 388.568182 233.848608 
L 390.409091 228.821543 
L 392.25 224.422955 
L 394.090909 220.574181 
L 395.931818 217.213988 
L 397.772727 214.294042 
L 399.613636 211.775794 
L 401.454545 209.628294 
L 403.227273 207.887425 
L 405 206.449241 
L 406.772727 205.299266 
L 408.477273 204.454577 
L 410.181818 203.857716 
L 411.886364 203.502662 
L 413.522727 203.38536 
L 415.159091 203.484707 
L 416.795455 203.799769 
L 418.5 204.3578 
L 420.204545 205.152365 
L 421.977273 206.233578 
L 423.75 207.58071 
L 425.590909 209.270074 
L 427.431818 211.267398 
L 429.340909 213.68061 
L 431.25 216.463525 
L 433.159091 219.643455 
L 435.068182 223.254578 
L 436.977273 227.339785 
L 438.886364 231.953302 
L 440.795455 237.164453 
L 442.636364 242.839483 
L 444.477273 249.25993 
L 446.25 256.279642 
L 447.954545 263.967261 
L 449.590909 272.415185 
L 451.090909 281.313924 
L 452.229923 289 
M 472.103358 289 
L 473.590909 279.803321 
L 475.159091 271.451204 
L 476.795455 263.89261 
L 478.5 257.02935 
L 480.272727 250.788388 
L 482.113636 245.115021 
L 483.954545 240.140514 
L 485.863636 235.618758 
L 487.772727 231.665725 
L 489.681818 228.218603 
L 491.590909 225.22803 
L 493.5 222.654835 
L 495.340909 220.539522 
L 497.181818 218.760738 
L 498.954545 217.349035 
L 500.727273 216.219817 
L 502.431818 215.391008 
L 504.136364 214.807153 
L 505.840909 214.463241 
L 507.477273 214.355749 
L 509.113636 214.464836 
L 510.75 214.790342 
L 512.454545 215.360831 
L 514.159091 216.170355 
L 515.863636 217.223518 
L 517.636364 218.584188 
L 519.409091 220.224872 
L 521.25 222.238131 
L 523.090909 224.583692 
L 525 227.39008 
L 526.909091 230.606732 
L 528.818182 234.270979 
L 530.727273 238.429787 
L 532.636364 243.142769 
L 534.477273 248.283804 
L 536.318182 254.100601 
L 538.090909 260.450484 
L 539.795455 267.381656 
L 541.431818 274.958276 
L 543 283.266054 
L 543.964833 289 
M 566.231361 289 
L 567.75 280.522707 
L 569.386364 272.594286 
L 571.090909 265.399901 
L 572.863636 258.856557 
L 574.704545 252.902368 
L 576.545455 247.672334 
L 578.454545 242.905929 
L 580.363636 238.724295 
L 582.272727 235.061175 
L 584.181818 231.86463 
L 586.090909 229.093518 
L 588 226.715033 
L 589.840909 224.76876 
L 591.681818 223.144367 
L 593.454545 221.870356 
L 595.227273 220.870427 
L 596.931818 220.159919 
L 598.636364 219.690129 
L 600.272727 219.462334 
L 601.909091 219.451469 
L 603.545455 219.657204 
L 605.181818 220.080543 
L 606.886364 220.755485 
L 608.590909 221.673449 
L 610.295455 222.84055 
L 612.068182 224.327336 
L 613.840909 226.103995 
L 615.681818 228.27151 
L 617.522727 230.787827 
L 619.363636 233.678304 
L 621.272727 237.104778 
L 623.181818 241.011496 
L 625.022727 245.285437 
L 626.863636 250.121084 
L 628.704545 255.60022 
L 630.477273 261.584458 
L 632.181818 268.113446 
L 633.818182 275.23983 
L 635.386364 283.033409 
L 636.454623 289 
L 636.454623 289 
" style="fill:none;stroke:#8c564b;stroke-linecap:square;stroke-width:1.5;"/>
   </g>
   <g id="line2d_33">
    <path clip-path="url(#p2e3ba6d1e1)" d="M 90 42.773333 
L 92.179688 42.887522 
L 94.359375 43.230531 
L 96.539062 43.803698 
L 98.71875 44.60928 
L 100.898438 45.650496 
L 103.14624 46.975545 
L 105.394043 48.561596 
L 107.709961 50.476393 
L 110.025879 52.685662 
L 112.341797 55.201087 
L 114.72583 58.125079 
L 117.109863 61.406662 
L 119.493896 65.06784 
L 121.87793 69.135134 
L 124.261963 73.640672 
L 126.645996 78.623671 
L 129.030029 84.132473 
L 131.345947 90.044484 
L 133.661865 96.579351 
L 135.909668 103.602144 
L 138.089355 111.15317 
L 140.200928 119.285862 
L 142.244385 128.0713 
L 144.151611 137.256712 
L 145.990723 147.228043 
L 147.693604 157.687266 
L 149.328369 169.155676 
L 150.826904 181.284807 
L 152.189209 194.12109 
L 153.415283 207.70793 
L 154.573242 223.063012 
L 155.594971 239.624542 
L 156.480469 257.509514 
L 157.297852 278.781304 
L 157.61599 289 
M 162.021649 289 
L 162.74707 270.019605 
L 163.632568 252.550452 
L 164.586182 237.987831 
L 165.676025 224.792944 
L 166.833984 213.492114 
L 168.060059 203.674528 
L 169.354248 195.068092 
L 170.716553 187.48481 
L 172.146973 180.790958 
L 173.577393 175.136454 
L 175.075928 170.125292 
L 176.574463 165.896411 
L 178.072998 162.335974 
L 179.503418 159.481821 
L 180.933838 157.100696 
L 182.364258 155.147228 
L 183.726562 153.651356 
L 185.088867 152.485789 
L 186.383057 151.666155 
L 187.677246 151.112704 
L 188.90332 150.823879 
L 190.129395 150.756619 
L 191.355469 150.905233 
L 192.649658 151.291753 
L 193.943848 151.911087 
L 195.306152 152.812992 
L 196.736572 154.036319 
L 198.235107 155.624543 
L 199.801758 157.627152 
L 201.436523 160.101525 
L 203.071289 162.986121 
L 204.77417 166.452626 
L 206.477051 170.424964 
L 208.248047 175.142149 
L 210.019043 180.523596 
L 211.721924 186.407553 
L 213.424805 193.094427 
L 215.05957 200.402349 
L 216.694336 208.758409 
L 218.260986 217.979852 
L 219.691406 227.710295 
L 221.053711 238.482829 
L 222.3479 250.525813 
L 223.505859 263.34897 
L 224.595703 277.92938 
L 225.289018 289 
M 233.970159 289 
L 234.949219 275.560839 
L 236.107178 262.688682 
L 237.333252 251.537082 
L 238.627441 241.750756 
L 239.989746 233.091773 
L 241.420166 225.394863 
L 242.918701 218.542469 
L 244.417236 212.694837 
L 245.983887 207.47239 
L 247.550537 203.022325 
L 249.117188 199.24006 
L 250.615723 196.173847 
L 252.114258 193.592374 
L 253.612793 191.453484 
L 255.043213 189.794017 
L 256.405518 188.53917 
L 257.767822 187.585854 
L 259.062012 186.948072 
L 260.356201 186.562784 
L 261.582275 186.424986 
L 262.80835 186.504405 
L 264.034424 186.798695 
L 265.328613 187.341373 
L 266.622803 188.122822 
L 267.985107 189.205703 
L 269.415527 190.634999 
L 270.914062 192.46206 
L 272.480713 194.74655 
L 274.047363 197.432887 
L 275.682129 200.691865 
L 277.316895 204.45305 
L 278.95166 208.764342 
L 280.654541 213.907295 
L 282.289307 219.55482 
L 283.924072 226.008042 
L 285.490723 233.084202 
L 287.057373 241.214333 
L 288.555908 250.210919 
L 289.986328 260.213824 
L 291.280518 270.815848 
L 292.506592 282.680701 
L 293.078168 289 
M 305.770363 289 
L 306.947021 277.908737 
L 308.241211 267.717307 
L 309.603516 258.682903 
L 311.033936 250.629742 
L 312.532471 243.433452 
L 314.099121 237.004843 
L 315.665771 231.50063 
L 317.232422 226.777814 
L 318.799072 222.730404 
L 320.365723 219.278126 
L 321.932373 216.359219 
L 323.430908 214.021908 
L 324.929443 212.095571 
L 326.359863 210.616159 
L 327.722168 209.516829 
L 329.016357 208.740987 
L 330.310547 208.218581 
L 331.536621 207.951995 
L 332.762695 207.903919 
L 333.98877 208.072205 
L 335.282959 208.483706 
L 336.577148 209.136076 
L 337.939453 210.085606 
L 339.301758 211.309464 
L 340.732178 212.897566 
L 342.230713 214.906374 
L 343.797363 217.402324 
L 345.364014 220.327812 
L 346.998779 223.873593 
L 348.633545 227.969754 
L 350.268311 232.677578 
L 351.903076 238.077091 
L 353.537842 244.274326 
L 355.104492 251.094114 
L 356.671143 258.95186 
L 358.169678 267.665493 
L 359.600098 277.367056 
L 360.894287 287.655468 
L 361.048672 289 
M 377.342368 289 
L 378.672363 279.284646 
L 380.102783 270.443675 
L 381.601318 262.566735 
L 383.167969 255.535776 
L 384.734619 249.508655 
L 386.30127 244.3211 
L 387.936035 239.673265 
L 389.502686 235.859283 
L 391.069336 232.602314 
L 392.635986 229.849386 
L 394.134521 227.649562 
L 395.633057 225.844564 
L 397.063477 224.469313 
L 398.425781 223.461086 
L 399.719971 222.766319 
L 401.01416 222.321191 
L 402.240234 222.125555 
L 403.466309 222.147343 
L 404.692383 222.38545 
L 405.986572 222.871739 
L 407.280762 223.601213 
L 408.643066 224.635788 
L 410.005371 225.950219 
L 411.435791 227.641254 
L 412.934326 229.768917 
L 414.432861 232.280731 
L 415.999512 235.345284 
L 417.566162 238.894904 
L 419.200928 243.167623 
L 420.835693 248.090325 
L 422.470459 253.754909 
L 424.037109 259.992976 
L 425.60376 267.172018 
L 427.102295 275.10724 
L 428.532715 283.892867 
L 429.271909 289 
M 448.603253 289 
L 449.989014 280.502131 
L 451.487549 272.643749 
L 453.054199 265.60987 
L 454.62085 259.563966 
L 456.255615 254.136314 
L 457.890381 249.478208 
L 459.525146 245.491028 
L 461.091797 242.230228 
L 462.658447 239.466138 
L 464.156982 237.250367 
L 465.655518 235.425478 
L 467.085938 234.028457 
L 468.448242 232.997631 
L 469.742432 232.280204 
L 471.036621 231.811671 
L 472.262695 231.593517 
L 473.48877 231.592759 
L 474.714844 231.808587 
L 476.009033 232.271971 
L 477.303223 232.979512 
L 478.665527 233.992456 
L 480.027832 235.287204 
L 481.458252 236.960231 
L 482.956787 239.072684 
L 484.455322 241.573941 
L 486.021973 244.633654 
L 487.588623 248.186365 
L 489.155273 252.281735 
L 490.790039 257.203072 
L 492.356689 262.627057 
L 493.92334 268.856504 
L 495.48999 276.042513 
L 496.988525 284.004755 
L 497.823806 289 
M 519.473085 289 
L 520.965088 280.877333 
L 522.531738 273.574142 
L 524.098389 267.292804 
L 525.733154 261.645587 
L 527.36792 256.787662 
L 529.002686 252.615566 
L 530.637451 249.051111 
L 532.204102 246.149778 
L 533.770752 243.710453 
L 535.269287 241.779905 
L 536.699707 240.283898 
L 538.062012 239.160165 
L 539.424316 238.320067 
L 540.718506 237.777998 
L 542.012695 237.480945 
L 543.23877 237.423167 
L 544.464844 237.58214 
L 545.690918 237.958383 
L 546.985107 238.593321 
L 548.279297 239.476313 
L 549.641602 240.680069 
L 551.072021 242.256622 
L 552.502441 244.167022 
L 554.000977 246.545801 
L 555.567627 249.473388 
L 557.134277 252.88859 
L 558.700928 256.839484 
L 560.267578 261.387879 
L 561.834229 266.614098 
L 563.400879 272.624183 
L 564.967529 279.561183 
L 566.466064 287.246165 
L 566.778571 289 
M 589.885889 289 
L 591.328125 281.589269 
L 592.894775 274.643567 
L 594.529541 268.40541 
L 596.164307 263.032847 
L 597.799072 258.402968 
L 599.433838 254.423894 
L 601.068604 251.025732 
L 602.635254 248.264379 
L 604.201904 245.950274 
L 605.700439 244.12872 
L 607.130859 242.729116 
L 608.493164 241.69187 
L 609.855469 240.934392 
L 611.149658 240.468303 
L 612.375732 240.251409 
L 613.601807 240.251576 
L 614.827881 240.468656 
L 616.053955 240.903837 
L 617.348145 241.602648 
L 618.642334 242.552054 
L 620.004639 243.829482 
L 621.435059 245.488838 
L 622.865479 247.489191 
L 624.364014 249.97193 
L 625.930664 253.021668 
L 627.497314 256.576523 
L 629.063965 260.689487 
L 630.630615 265.428934 
L 632.197266 270.884211 
L 633.763916 277.17419 
L 635.262451 284.120536 
L 636.197253 289 
L 636.197253 289 
" style="fill:none;stroke:#e377c2;stroke-linecap:square;stroke-width:1.5;"/>
   </g>
   <g id="line2d_34">
    <path clip-path="url(#p2e3ba6d1e1)" d="M 90 42.773333 
L 91.431818 42.884438 
L 92.863636 43.218171 
L 94.295455 43.775791 
L 95.795455 44.602427 
L 97.295455 45.680635 
L 98.863636 47.081924 
L 100.5 48.850144 
L 102.204545 51.034712 
L 103.909091 53.582355 
L 105.681818 56.634987 
L 107.522727 60.264406 
L 109.363636 64.3932 
L 111.272727 69.24444 
L 113.181818 74.729891 
L 115.090909 80.919317 
L 116.931818 87.638412 
L 118.772727 95.201149 
L 120.545455 103.411938 
L 122.318182 112.7059 
L 124.022727 122.885797 
L 125.590909 133.593153 
L 127.090909 145.371762 
L 128.522727 158.457055 
L 129.818182 172.400974 
L 130.977273 187.254102 
L 132.068182 204.225278 
L 133.022727 222.710913 
L 133.840909 242.912879 
L 134.522727 264.971931 
L 135.072724 289 
M 138.020599 289 
L 138.613636 266.479636 
L 139.363636 246.103169 
L 140.181818 229.631041 
L 141.136364 214.953842 
L 142.159091 202.712329 
L 143.25 192.345904 
L 144.409091 183.502723 
L 145.568182 176.330384 
L 146.727273 170.45942 
L 147.954545 165.386998 
L 149.113636 161.495757 
L 150.272727 158.351573 
L 151.363636 155.992476 
L 152.454545 154.156066 
L 153.477273 152.869405 
L 154.431818 152.022419 
L 155.318182 151.525528 
L 156.136364 151.304179 
L 156.954545 151.303436 
L 157.772727 151.517989 
L 158.659091 151.989029 
L 159.613636 152.770636 
L 160.636364 153.922517 
L 161.727273 155.511659 
L 162.886364 157.614708 
L 164.113636 160.321392 
L 165.409091 163.739534 
L 166.772727 168.002571 
L 168.136364 173.009928 
L 169.5 178.848454 
L 170.863636 185.637809 
L 172.227273 193.545175 
L 173.590909 202.810163 
L 174.886364 213.192344 
L 176.113636 224.879767 
L 177.272727 238.159501 
L 178.295455 252.42308 
L 179.25 268.911763 
L 180.068182 286.810326 
L 180.155043 289 
M 186.028405 289 
L 186.886364 272.142686 
L 187.840909 257.610966 
L 188.863636 245.259639 
L 189.954545 234.618186 
L 191.113636 225.386272 
L 192.340909 217.36512 
L 193.568182 210.753119 
L 194.795455 205.281116 
L 196.022727 200.762168 
L 197.25 197.062156 
L 198.409091 194.230606 
L 199.568182 191.979358 
L 200.659091 190.348135 
L 201.681818 189.220733 
L 202.636364 188.502106 
L 203.522727 188.112654 
L 204.340909 187.984397 
L 205.159091 188.07413 
L 205.977273 188.379419 
L 206.863636 188.952196 
L 207.818182 189.851097 
L 208.840909 191.142154 
L 209.931818 192.900972 
L 211.090909 195.21589 
L 212.318182 198.19263 
L 213.613636 201.961293 
L 214.909091 206.431145 
L 216.272727 211.981417 
L 217.636364 218.524067 
L 218.931818 225.820734 
L 220.227273 234.39239 
L 221.454545 243.978333 
L 222.613636 254.717726 
L 223.704545 266.818266 
L 224.727273 280.595189 
L 225.257277 289 
M 234.010636 289 
L 235.022727 275.584438 
L 236.113636 263.955705 
L 237.272727 253.886124 
L 238.5 245.126831 
L 239.727273 237.877812 
L 241.022727 231.534411 
L 242.318182 226.299528 
L 243.545455 222.209488 
L 244.772727 218.859191 
L 245.931818 216.304548 
L 247.022727 214.395995 
L 248.045455 213.014824 
L 249 212.064092 
L 249.886364 211.462734 
L 250.772727 211.124856 
L 251.590909 211.042306 
L 252.409091 211.177238 
L 253.227273 211.528439 
L 254.113636 212.153145 
L 255.068182 213.112227 
L 256.090909 214.474863 
L 257.181818 216.32102 
L 258.340909 218.74508 
L 259.568182 221.861234 
L 260.795455 225.585827 
L 262.090909 230.242632 
L 263.386364 235.736176 
L 264.681818 242.193984 
L 265.977273 249.794002 
L 267.272727 258.79193 
L 268.5 268.950591 
L 269.659091 280.465451 
L 270.390903 289 
M 281.952231 289 
L 283.090909 277.707624 
L 284.318182 267.771384 
L 285.545455 259.576513 
L 286.840909 252.400786 
L 288.136364 246.451254 
L 289.431818 241.525453 
L 290.727273 237.479699 
L 291.954545 234.363784 
L 293.113636 232.000691 
L 294.204545 230.252653 
L 295.227273 229.008941 
L 296.181818 228.178108 
L 297.068182 227.68289 
L 297.954545 227.447842 
L 298.772727 227.458592 
L 299.590909 227.686435 
L 300.477273 228.17816 
L 301.363636 228.926216 
L 302.318182 230.022584 
L 303.340909 231.539784 
L 304.431818 233.562499 
L 305.590909 236.191769 
L 306.818182 239.551284 
L 308.113636 243.797109 
L 309.409091 248.843519 
L 310.704545 254.803878 
L 312 261.835101 
L 313.295455 270.159967 
L 314.522727 279.535487 
L 315.569918 289 
M 329.834739 289 
L 331.022727 279.629584 
L 332.318182 271.180437 
L 333.613636 264.181276 
L 334.909091 258.360482 
L 336.204545 253.530126 
L 337.5 249.556078 
L 338.727273 246.492199 
L 339.886364 244.167811 
L 340.977273 242.44935 
L 342 241.228935 
L 342.954545 240.41708 
L 343.840909 239.93787 
L 344.659091 239.725719 
L 345.477273 239.731979 
L 346.295455 239.955537 
L 347.181818 240.443237 
L 348.068182 241.188322 
L 349.022727 242.283182 
L 350.045455 243.801382 
L 351.136364 245.829056 
L 352.295455 248.469282 
L 353.522727 251.848656 
L 354.75 255.882795 
L 356.045455 260.932981 
L 357.340909 266.912066 
L 358.636364 273.982627 
L 359.863636 281.896573 
L 360.811706 289 
M 377.635473 289 
L 378.886364 280.878817 
L 380.181818 273.873713 
L 381.477273 268.035914 
L 382.772727 263.180914 
L 384.068182 259.17685 
L 385.295455 256.081006 
L 386.454545 253.724179 
L 387.545455 251.973767 
L 388.568182 250.722537 
L 389.522727 249.881435 
L 390.409091 249.374836 
L 391.295455 249.127436 
L 392.113636 249.126554 
L 392.931818 249.343117 
L 393.818182 249.823661 
L 394.704545 250.562308 
L 395.659091 251.651384 
L 396.681818 253.165162 
L 397.772727 255.190769 
L 398.931818 257.832675 
L 400.159091 261.219473 
L 401.386364 265.268609 
L 402.681818 270.345508 
L 403.977273 276.366422 
L 405.272727 283.499845 
L 406.138027 289 
M 425.325987 289 
L 426.613636 281.916209 
L 427.909091 275.964933 
L 429.204545 271.005008 
L 430.5 266.902292 
L 431.727273 263.717335 
L 432.886364 261.279319 
L 433.977273 259.454543 
L 435 258.13501 
L 435.954545 257.231119 
L 436.840909 256.666853 
L 437.727273 256.362237 
L 438.545455 256.308813 
L 439.363636 256.47298 
L 440.181818 256.855073 
L 441.068182 257.516915 
L 442.022727 258.522543 
L 443.045455 259.945608 
L 444.136364 261.872335 
L 445.295455 264.405898 
L 446.522727 267.672994 
L 447.75 271.595523 
L 449.045455 276.528613 
L 450.340909 282.391329 
L 451.576848 289 
M 472.871332 289 
L 474.136364 282.929939 
L 475.431818 277.726763 
L 476.727273 273.405766 
L 477.954545 270.031034 
L 479.181818 267.288534 
L 480.340909 265.234452 
L 481.431818 263.748423 
L 482.454545 262.731653 
L 483.409091 262.100977 
L 484.295455 261.784882 
L 485.113636 261.7208 
L 485.931818 261.874361 
L 486.75 262.246014 
L 487.636364 262.896863 
L 488.590909 263.89119 
L 489.613636 265.302991 
L 490.704545 267.21898 
L 491.863636 269.743015 
L 493.022727 272.804976 
L 494.25 276.685501 
L 495.477273 281.29512 
L 496.772727 287.061329 
L 497.162578 289 
M 520.230112 289 
L 521.522727 283.462842 
L 522.818182 278.835186 
L 524.113636 275.015017 
L 525.340909 272.063925 
L 526.5 269.824244 
L 527.590909 268.171124 
L 528.613636 267.00266 
L 529.568182 266.233502 
L 530.454545 265.790605 
L 531.272727 265.610346 
L 532.090909 265.647987 
L 532.909091 265.903419 
L 533.795455 266.427367 
L 534.681818 267.211765 
L 535.636364 268.353981 
L 536.659091 269.930799 
L 537.75 272.032894 
L 538.909091 274.769793 
L 540.136364 278.277394 
L 541.363636 282.474781 
L 542.659091 287.748089 
L 542.936091 289 
M 567.35874 289 
L 568.636364 283.943129 
L 569.931818 279.673112 
L 571.227273 276.167423 
L 572.454545 273.484789 
L 573.613636 271.47903 
L 574.704545 270.033101 
L 575.727273 269.050509 
L 576.681818 268.449694 
L 577.568182 268.160255 
L 578.386364 268.120382 
L 579.204545 268.29823 
L 580.022727 268.694692 
L 580.909091 269.37354 
L 581.863636 270.40001 
L 582.886364 271.849467 
L 583.977273 273.810565 
L 585.136364 276.389933 
L 586.295455 279.517238 
L 587.522727 283.481318 
L 588.75 288.1941 
L 588.94066 289 
M 614.218243 289 
L 615.477273 284.220802 
L 616.772727 280.125389 
L 618 276.932 
L 619.227273 274.347438 
L 620.386364 272.426493 
L 621.409091 271.128925 
L 622.363636 270.241336 
L 623.25 269.689707 
L 624.136364 269.396267 
L 624.954545 269.352618 
L 625.772727 269.526727 
L 626.590909 269.919598 
L 627.477273 270.594857 
L 628.431818 271.617986 
L 629.454545 273.064702 
L 630.545455 275.024159 
L 631.704545 277.6037 
L 632.863636 280.73377 
L 634.090909 284.704497 
L 635.214831 289 
L 635.214831 289 
" style="fill:none;stroke:#7f7f7f;stroke-linecap:square;stroke-width:1.5;"/>
   </g>
   <g id="line2d_35">
    <path clip-path="url(#p2e3ba6d1e1)" d="M 90 42.773333 
L 90.683824 42.874832 
L 91.436029 43.221377 
L 92.188235 43.815428 
L 93.008824 44.748728 
L 93.897794 46.101125 
L 94.855147 47.963902 
L 95.880882 50.442705 
L 96.975 53.661844 
L 98.1375 57.770724 
L 99.368382 62.953731 
L 100.667647 69.445999 
L 101.966912 77.119934 
L 103.266176 86.162588 
L 104.565441 96.841714 
L 105.796324 108.828304 
L 106.958824 122.29907 
L 108.052941 137.539393 
L 109.078676 155.018253 
L 109.967647 173.898496 
L 110.788235 196.257857 
L 111.472059 221.146799 
L 112.019118 248.814547 
L 112.497794 285.273785 
L 112.534225 289 
M 114.012323 289 
L 114.480882 256.364485 
L 115.096324 229.619347 
L 115.780147 209.709613 
L 116.532353 194.148261 
L 117.352941 181.736247 
L 118.173529 172.483522 
L 118.994118 165.500194 
L 119.814706 160.262021 
L 120.635294 156.438206 
L 121.3875 153.98803 
L 122.002941 152.649363 
L 122.55 151.922569 
L 123.028676 151.624638 
L 123.438971 151.610836 
L 123.849265 151.814128 
L 124.327941 152.320497 
L 124.875 153.249774 
L 125.490441 154.740617 
L 126.242647 157.209953 
L 127.063235 160.74138 
L 127.952206 165.614278 
L 128.909559 172.203231 
L 129.866912 180.391364 
L 130.824265 190.511459 
L 131.781618 203.101158 
L 132.670588 217.800701 
L 133.491176 235.121334 
L 134.243382 255.994383 
L 134.858824 279.170012 
L 135.066237 289 
M 138.029081 289 
L 138.619853 267.01479 
L 139.372059 247.259913 
L 140.192647 231.684691 
L 141.081618 219.171505 
L 141.970588 209.745547 
L 142.859559 202.59211 
L 143.748529 197.226841 
L 144.569118 193.595047 
L 145.321324 191.237984 
L 145.936765 189.939127 
L 146.483824 189.231333 
L 146.9625 188.94328 
L 147.372794 188.936229 
L 147.783088 189.147165 
L 148.261765 189.66649 
L 148.808824 190.619972 
L 149.424265 192.155918 
L 150.108088 194.451811 
L 150.928676 198.064022 
L 151.817647 203.115755 
L 152.706618 209.49374 
L 153.663971 218.101058 
L 154.621324 228.938079 
L 155.510294 241.623061 
L 156.330882 256.457336 
L 157.083088 273.972192 
L 157.589514 289 
M 162.055854 289 
L 162.758824 271.511201 
L 163.579412 256.331537 
L 164.468382 243.971181 
L 165.357353 234.552043 
L 166.246324 227.325486 
L 167.135294 221.841205 
L 167.955882 218.075785 
L 168.708088 215.584795 
L 169.391912 214.048212 
L 169.938971 213.288962 
L 170.417647 212.954651 
L 170.827941 212.907962 
L 171.238235 213.07999 
L 171.716912 213.555715 
L 172.263971 214.462986 
L 172.879412 215.953431 
L 173.563235 218.209651 
L 174.315441 221.457652 
L 175.136029 225.988336 
L 176.025 232.195938 
L 176.913971 239.97835 
L 177.802941 249.687035 
L 178.691912 261.886801 
L 179.5125 276.189393 
L 180.100561 289 
M 186.099265 289 
L 186.897794 274.448992 
L 187.786765 262.143933 
L 188.675735 252.710855 
L 189.564706 245.431628 
L 190.453676 239.871929 
L 191.274265 236.024783 
L 192.026471 233.452815 
L 192.710294 231.839811 
L 193.325735 230.944356 
L 193.804412 230.599048 
L 194.214706 230.542631 
L 194.625 230.705135 
L 195.103676 231.170598 
L 195.650735 232.068121 
L 196.266176 233.551429 
L 196.95 235.806461 
L 197.702206 239.064478 
L 198.522794 243.624784 
L 199.411765 249.895592 
L 200.300735 257.788552 
L 201.189706 267.680407 
L 202.078676 280.181933 
L 202.593122 289 
M 210.167583 289 
L 211.036765 276.878677 
L 211.925735 267.318064 
L 212.814706 259.913298 
L 213.703676 254.23001 
L 214.524265 250.270469 
L 215.276471 247.596866 
L 215.960294 245.8926 
L 216.575735 244.915915 
L 217.054412 244.508011 
L 217.464706 244.398343 
L 217.875 244.507962 
L 218.353676 244.912183 
L 218.900735 245.740312 
L 219.516176 247.146301 
L 220.2 249.316338 
L 220.952206 252.481956 
L 221.772794 256.942744 
L 222.661765 263.107221 
L 223.550735 270.895354 
L 224.439706 280.683855 
L 225.059313 289 
M 234.272835 289 
L 235.107353 279.837144 
L 236.064706 271.686971 
L 236.953676 265.918021 
L 237.774265 261.88036 
L 238.526471 259.135935 
L 239.210294 257.367928 
L 239.825735 256.334393 
L 240.372794 255.842785 
L 240.783088 255.73242 
L 241.193382 255.841345 
L 241.672059 256.24506 
L 242.219118 257.073449 
L 242.834559 258.481466 
L 243.518382 260.656937 
L 244.270588 263.83402 
L 245.091176 268.316575 
L 245.980147 274.520316 
L 246.869118 282.371953 
L 247.487125 289 
M 258.434131 289 
L 259.383088 281.018853 
L 260.272059 275.306145 
L 261.092647 271.305921 
L 261.844853 268.587695 
L 262.528676 266.838988 
L 263.144118 265.820423 
L 263.622794 265.379319 
L 264.033088 265.241079 
L 264.443382 265.32226 
L 264.853676 265.622414 
L 265.332353 266.250634 
L 265.879412 267.340143 
L 266.494853 269.051879 
L 267.247059 271.874848 
L 268.067647 275.939167 
L 268.888235 281.143819 
L 269.777206 288.267904 
L 269.857714 289 
M 282.686185 289 
L 283.522059 283.625949 
L 284.411029 279.293907 
L 285.163235 276.613026 
L 285.847059 274.893788 
L 286.4625 273.899351 
L 286.941176 273.47605 
L 287.351471 273.352718 
L 287.761765 273.448725 
L 288.172059 273.763849 
L 288.650735 274.410018 
L 289.197794 275.521134 
L 289.881618 277.485204 
L 290.633824 280.420885 
L 291.454412 284.624138 
L 292.136849 289 
M 307.106395 289 
L 307.866176 285.603483 
L 308.618382 283.120904 
L 309.302206 281.568889 
L 309.849265 280.787519 
L 310.327941 280.42996 
L 310.738235 280.362279 
L 311.148529 280.513773 
L 311.627206 280.967908 
L 312.174265 281.856247 
L 312.789706 283.336724 
L 313.473529 285.602112 
L 314.246729 289 
M 331.976727 289 
L 332.620588 287.593837 
L 333.167647 286.842986 
L 333.646324 286.511362 
L 334.056618 286.465638 
L 334.466912 286.639078 
L 334.945588 287.119102 
L 335.492647 288.037854 
L 335.906335 289 
L 335.906335 289 
" style="fill:none;stroke:#bcbd22;stroke-linecap:square;stroke-width:1.5;"/>
   </g>
   <g id="patch_4">
    <path d="M 90 256.32 
L 90 34.56 
" style="fill:none;stroke:#000000;stroke-linecap:square;stroke-linejoin:miter;stroke-width:0.8;"/>
   </g>
   <g id="patch_5">
    <path d="M 648 256.32 
L 648 34.56 
" style="fill:none;stroke:#000000;stroke-linecap:square;stroke-linejoin:miter;stroke-width:0.8;"/>
   </g>
   <g id="patch_6">
    <path d="M 90 256.32 
L 648 256.32 
" style="fill:none;stroke:#000000;stroke-linecap:square;stroke-linejoin:miter;stroke-width:0.8;"/>
   </g>
   <g id="patch_7">
    <path d="M 90 34.56 
L 648 34.56 
" style="fill:none;stroke:#000000;stroke-linecap:square;stroke-linejoin:miter;stroke-width:0.8;"/>
   </g>
   <g id="patch_8">
    <path d="M 102.233576 99.199794 
Q 99.719391 83.639527 97.205207 68.07926 
L 93.256421 68.717294 
Q 95.261023 62.31598 97.265625 55.914667 
Q 101.184202 61.358929 105.102779 66.803192 
L 101.153993 67.441226 
Q 103.668177 83.001493 106.182362 98.56176 
L 102.233576 99.199794 
z
" style="stroke:#000000;stroke-linecap:round;"/>
   </g>
   <g id="text_16">
    <!-- output BW: 0 to 24 kHz -->
    <defs>
     <path d="M 18.109375 8.203125 
L 18.109375 -20.796875 
L 9.078125 -20.796875 
L 9.078125 54.6875 
L 18.109375 54.6875 
L 18.109375 46.390625 
Q 20.953125 51.265625 25.265625 53.625 
Q 29.59375 56 35.59375 56 
Q 45.5625 56 51.78125 48.09375 
Q 58.015625 40.1875 58.015625 27.296875 
Q 58.015625 14.40625 51.78125 6.484375 
Q 45.5625 -1.421875 35.59375 -1.421875 
Q 29.59375 -1.421875 25.265625 0.953125 
Q 20.953125 3.328125 18.109375 8.203125 
z
M 48.6875 27.296875 
Q 48.6875 37.203125 44.609375 42.84375 
Q 40.53125 48.484375 33.40625 48.484375 
Q 26.265625 48.484375 22.1875 42.84375 
Q 18.109375 37.203125 18.109375 27.296875 
Q 18.109375 17.390625 22.1875 11.75 
Q 26.265625 6.109375 33.40625 6.109375 
Q 40.53125 6.109375 44.609375 11.75 
Q 48.6875 17.390625 48.6875 27.296875 
z
" id="DejaVuSans-112"/>
     <path d="M 3.328125 72.90625 
L 13.28125 72.90625 
L 28.609375 11.28125 
L 43.890625 72.90625 
L 54.984375 72.90625 
L 70.3125 11.28125 
L 85.59375 72.90625 
L 95.609375 72.90625 
L 77.296875 0 
L 64.890625 0 
L 49.515625 63.28125 
L 33.984375 0 
L 21.578125 0 
z
" id="DejaVuSans-87"/>
     <path d="M 11.71875 12.40625 
L 22.015625 12.40625 
L 22.015625 0 
L 11.71875 0 
z
M 11.71875 51.703125 
L 22.015625 51.703125 
L 22.015625 39.3125 
L 11.71875 39.3125 
z
" id="DejaVuSans-58"/>
    </defs>
    <g transform="translate(104.53125 108.48)scale(0.1 -0.1)">
     <use xlink:href="#DejaVuSans-111"/>
     <use x="61.181641" xlink:href="#DejaVuSans-117"/>
     <use x="124.560547" xlink:href="#DejaVuSans-116"/>
     <use x="163.769531" xlink:href="#DejaVuSans-112"/>
     <use x="227.246094" xlink:href="#DejaVuSans-117"/>
     <use x="290.625" xlink:href="#DejaVuSans-116"/>
     <use x="329.833984" xlink:href="#DejaVuSans-32"/>
     <use x="361.621094" xlink:href="#DejaVuSans-66"/>
     <use x="430.177734" xlink:href="#DejaVuSans-87"/>
     <use x="528.976562" xlink:href="#DejaVuSans-58"/>
     <use x="562.667969" xlink:href="#DejaVuSans-32"/>
     <use x="594.455078" xlink:href="#DejaVuSans-48"/>
     <use x="658.078125" xlink:href="#DejaVuSans-32"/>
     <use x="689.865234" xlink:href="#DejaVuSans-116"/>
     <use x="729.074219" xlink:href="#DejaVuSans-111"/>
     <use x="790.255859" xlink:href="#DejaVuSans-32"/>
     <use x="822.042969" xlink:href="#DejaVuSans-50"/>
     <use x="885.666016" xlink:href="#DejaVuSans-52"/>
     <use x="949.289062" xlink:href="#DejaVuSans-32"/>
     <use x="981.076172" xlink:href="#DejaVuSans-107"/>
     <use x="1038.986328" xlink:href="#DejaVuSans-72"/>
     <use x="1114.181641" xlink:href="#DejaVuSans-122"/>
    </g>
   </g>
   <g id="text_17">
    <!-- 5 CIC Stages - All Decimation Ratios - Input Range -->
    <defs>
     <path d="M 10.796875 72.90625 
L 49.515625 72.90625 
L 49.515625 64.59375 
L 19.828125 64.59375 
L 19.828125 46.734375 
Q 21.96875 47.46875 24.109375 47.828125 
Q 26.265625 48.1875 28.421875 48.1875 
Q 40.625 48.1875 47.75 41.5 
Q 54.890625 34.8125 54.890625 23.390625 
Q 54.890625 11.625 47.5625 5.09375 
Q 40.234375 -1.421875 26.90625 -1.421875 
Q 22.3125 -1.421875 17.546875 -0.640625 
Q 12.796875 0.140625 7.71875 1.703125 
L 7.71875 11.625 
Q 12.109375 9.234375 16.796875 8.0625 
Q 21.484375 6.890625 26.703125 6.890625 
Q 35.15625 6.890625 40.078125 11.328125 
Q 45.015625 15.765625 45.015625 23.390625 
Q 45.015625 31 40.078125 35.4375 
Q 35.15625 39.890625 26.703125 39.890625 
Q 22.75 39.890625 18.8125 39.015625 
Q 14.890625 38.140625 10.796875 36.28125 
z
" id="DejaVuSans-53"/>
     <path d="M 64.40625 67.28125 
L 64.40625 56.890625 
Q 59.421875 61.53125 53.78125 63.8125 
Q 48.140625 66.109375 41.796875 66.109375 
Q 29.296875 66.109375 22.65625 58.46875 
Q 16.015625 50.828125 16.015625 36.375 
Q 16.015625 21.96875 22.65625 14.328125 
Q 29.296875 6.6875 41.796875 6.6875 
Q 48.140625 6.6875 53.78125 8.984375 
Q 59.421875 11.28125 64.40625 15.921875 
L 64.40625 5.609375 
Q 59.234375 2.09375 53.4375 0.328125 
Q 47.65625 -1.421875 41.21875 -1.421875 
Q 24.65625 -1.421875 15.125 8.703125 
Q 5.609375 18.84375 5.609375 36.375 
Q 5.609375 53.953125 15.125 64.078125 
Q 24.65625 74.21875 41.21875 74.21875 
Q 47.75 74.21875 53.53125 72.484375 
Q 59.328125 70.75 64.40625 67.28125 
z
" id="DejaVuSans-67"/>
     <path d="M 9.8125 72.90625 
L 19.671875 72.90625 
L 19.671875 0 
L 9.8125 0 
z
" id="DejaVuSans-73"/>
     <path d="M 53.515625 70.515625 
L 53.515625 60.890625 
Q 47.90625 63.578125 42.921875 64.890625 
Q 37.9375 66.21875 33.296875 66.21875 
Q 25.25 66.21875 20.875 63.09375 
Q 16.5 59.96875 16.5 54.203125 
Q 16.5 49.359375 19.40625 46.890625 
Q 22.3125 44.4375 30.421875 42.921875 
L 36.375 41.703125 
Q 47.40625 39.59375 52.65625 34.296875 
Q 57.90625 29 57.90625 20.125 
Q 57.90625 9.515625 50.796875 4.046875 
Q 43.703125 -1.421875 29.984375 -1.421875 
Q 24.8125 -1.421875 18.96875 -0.25 
Q 13.140625 0.921875 6.890625 3.21875 
L 6.890625 13.375 
Q 12.890625 10.015625 18.65625 8.296875 
Q 24.421875 6.59375 29.984375 6.59375 
Q 38.421875 6.59375 43.015625 9.90625 
Q 47.609375 13.234375 47.609375 19.390625 
Q 47.609375 24.75 44.3125 27.78125 
Q 41.015625 30.8125 33.5 32.328125 
L 27.484375 33.5 
Q 16.453125 35.6875 11.515625 40.375 
Q 6.59375 45.0625 6.59375 53.421875 
Q 6.59375 63.09375 13.40625 68.65625 
Q 20.21875 74.21875 32.171875 74.21875 
Q 37.3125 74.21875 42.625 73.28125 
Q 47.953125 72.359375 53.515625 70.515625 
z
" id="DejaVuSans-83"/>
     <path d="M 45.40625 27.984375 
Q 45.40625 37.75 41.375 43.109375 
Q 37.359375 48.484375 30.078125 48.484375 
Q 22.859375 48.484375 18.828125 43.109375 
Q 14.796875 37.75 14.796875 27.984375 
Q 14.796875 18.265625 18.828125 12.890625 
Q 22.859375 7.515625 30.078125 7.515625 
Q 37.359375 7.515625 41.375 12.890625 
Q 45.40625 18.265625 45.40625 27.984375 
z
M 54.390625 6.78125 
Q 54.390625 -7.171875 48.1875 -13.984375 
Q 42 -20.796875 29.203125 -20.796875 
Q 24.46875 -20.796875 20.265625 -20.09375 
Q 16.0625 -19.390625 12.109375 -17.921875 
L 12.109375 -9.1875 
Q 16.0625 -11.328125 19.921875 -12.34375 
Q 23.78125 -13.375 27.78125 -13.375 
Q 36.625 -13.375 41.015625 -8.765625 
Q 45.40625 -4.15625 45.40625 5.171875 
L 45.40625 9.625 
Q 42.625 4.78125 38.28125 2.390625 
Q 33.9375 0 27.875 0 
Q 17.828125 0 11.671875 7.65625 
Q 5.515625 15.328125 5.515625 27.984375 
Q 5.515625 40.671875 11.671875 48.328125 
Q 17.828125 56 27.875 56 
Q 33.9375 56 38.28125 53.609375 
Q 42.625 51.21875 45.40625 46.390625 
L 45.40625 54.6875 
L 54.390625 54.6875 
z
" id="DejaVuSans-103"/>
     <path d="M 44.28125 53.078125 
L 44.28125 44.578125 
Q 40.484375 46.53125 36.375 47.5 
Q 32.28125 48.484375 27.875 48.484375 
Q 21.1875 48.484375 17.84375 46.4375 
Q 14.5 44.390625 14.5 40.28125 
Q 14.5 37.15625 16.890625 35.375 
Q 19.28125 33.59375 26.515625 31.984375 
L 29.59375 31.296875 
Q 39.15625 29.25 43.1875 25.515625 
Q 47.21875 21.78125 47.21875 15.09375 
Q 47.21875 7.46875 41.1875 3.015625 
Q 35.15625 -1.421875 24.609375 -1.421875 
Q 20.21875 -1.421875 15.453125 -0.5625 
Q 10.6875 0.296875 5.421875 2 
L 5.421875 11.28125 
Q 10.40625 8.6875 15.234375 7.390625 
Q 20.0625 6.109375 24.8125 6.109375 
Q 31.15625 6.109375 34.5625 8.28125 
Q 37.984375 10.453125 37.984375 14.40625 
Q 37.984375 18.0625 35.515625 20.015625 
Q 33.0625 21.96875 24.703125 23.78125 
L 21.578125 24.515625 
Q 13.234375 26.265625 9.515625 29.90625 
Q 5.8125 33.546875 5.8125 39.890625 
Q 5.8125 47.609375 11.28125 51.796875 
Q 16.75 56 26.8125 56 
Q 31.78125 56 36.171875 55.265625 
Q 40.578125 54.546875 44.28125 53.078125 
z
" id="DejaVuSans-115"/>
     <path d="M 4.890625 31.390625 
L 31.203125 31.390625 
L 31.203125 23.390625 
L 4.890625 23.390625 
z
" id="DejaVuSans-45"/>
     <path d="M 9.421875 75.984375 
L 18.40625 75.984375 
L 18.40625 0 
L 9.421875 0 
z
" id="DejaVuSans-108"/>
     <path d="M 19.671875 64.796875 
L 19.671875 8.109375 
L 31.59375 8.109375 
Q 46.6875 8.109375 53.6875 14.9375 
Q 60.6875 21.78125 60.6875 36.53125 
Q 60.6875 51.171875 53.6875 57.984375 
Q 46.6875 64.796875 31.59375 64.796875 
z
M 9.8125 72.90625 
L 30.078125 72.90625 
Q 51.265625 72.90625 61.171875 64.09375 
Q 71.09375 55.28125 71.09375 36.53125 
Q 71.09375 17.671875 61.125 8.828125 
Q 51.171875 0 30.078125 0 
L 9.8125 0 
z
" id="DejaVuSans-68"/>
     <path d="M 52 44.1875 
Q 55.375 50.25 60.0625 53.125 
Q 64.75 56 71.09375 56 
Q 79.640625 56 84.28125 50.015625 
Q 88.921875 44.046875 88.921875 33.015625 
L 88.921875 0 
L 79.890625 0 
L 79.890625 32.71875 
Q 79.890625 40.578125 77.09375 44.375 
Q 74.3125 48.1875 68.609375 48.1875 
Q 61.625 48.1875 57.5625 43.546875 
Q 53.515625 38.921875 53.515625 30.90625 
L 53.515625 0 
L 44.484375 0 
L 44.484375 32.71875 
Q 44.484375 40.625 41.703125 44.40625 
Q 38.921875 48.1875 33.109375 48.1875 
Q 26.21875 48.1875 22.15625 43.53125 
Q 18.109375 38.875 18.109375 30.90625 
L 18.109375 0 
L 9.078125 0 
L 9.078125 54.6875 
L 18.109375 54.6875 
L 18.109375 46.1875 
Q 21.1875 51.21875 25.484375 53.609375 
Q 29.78125 56 35.6875 56 
Q 41.65625 56 45.828125 52.96875 
Q 50 49.953125 52 44.1875 
z
" id="DejaVuSans-109"/>
     <path d="M 44.390625 34.1875 
Q 47.5625 33.109375 50.5625 29.59375 
Q 53.5625 26.078125 56.59375 19.921875 
L 66.609375 0 
L 56 0 
L 46.6875 18.703125 
Q 43.0625 26.03125 39.671875 28.421875 
Q 36.28125 30.8125 30.421875 30.8125 
L 19.671875 30.8125 
L 19.671875 0 
L 9.8125 0 
L 9.8125 72.90625 
L 32.078125 72.90625 
Q 44.578125 72.90625 50.734375 67.671875 
Q 56.890625 62.453125 56.890625 51.90625 
Q 56.890625 45.015625 53.6875 40.46875 
Q 50.484375 35.9375 44.390625 34.1875 
z
M 19.671875 64.796875 
L 19.671875 38.921875 
L 32.078125 38.921875 
Q 39.203125 38.921875 42.84375 42.21875 
Q 46.484375 45.515625 46.484375 51.90625 
Q 46.484375 58.296875 42.84375 61.546875 
Q 39.203125 64.796875 32.078125 64.796875 
z
" id="DejaVuSans-82"/>
    </defs>
    <g transform="translate(218.003438 28.56)scale(0.12 -0.12)">
     <use xlink:href="#DejaVuSans-53"/>
     <use x="63.623047" xlink:href="#DejaVuSans-32"/>
     <use x="95.410156" xlink:href="#DejaVuSans-67"/>
     <use x="165.234375" xlink:href="#DejaVuSans-73"/>
     <use x="194.726562" xlink:href="#DejaVuSans-67"/>
     <use x="264.550781" xlink:href="#DejaVuSans-32"/>
     <use x="296.337891" xlink:href="#DejaVuSans-83"/>
     <use x="359.814453" xlink:href="#DejaVuSans-116"/>
     <use x="399.023438" xlink:href="#DejaVuSans-97"/>
     <use x="460.302734" xlink:href="#DejaVuSans-103"/>
     <use x="523.779297" xlink:href="#DejaVuSans-101"/>
     <use x="585.302734" xlink:href="#DejaVuSans-115"/>
     <use x="637.402344" xlink:href="#DejaVuSans-32"/>
     <use x="669.189453" xlink:href="#DejaVuSans-45"/>
     <use x="705.273438" xlink:href="#DejaVuSans-32"/>
     <use x="737.060547" xlink:href="#DejaVuSans-65"/>
     <use x="805.46875" xlink:href="#DejaVuSans-108"/>
     <use x="833.251953" xlink:href="#DejaVuSans-108"/>
     <use x="861.035156" xlink:href="#DejaVuSans-32"/>
     <use x="892.822266" xlink:href="#DejaVuSans-68"/>
     <use x="969.824219" xlink:href="#DejaVuSans-101"/>
     <use x="1031.347656" xlink:href="#DejaVuSans-99"/>
     <use x="1086.328125" xlink:href="#DejaVuSans-105"/>
     <use x="1114.111328" xlink:href="#DejaVuSans-109"/>
     <use x="1211.523438" xlink:href="#DejaVuSans-97"/>
     <use x="1272.802734" xlink:href="#DejaVuSans-116"/>
     <use x="1312.011719" xlink:href="#DejaVuSans-105"/>
     <use x="1339.794922" xlink:href="#DejaVuSans-111"/>
     <use x="1400.976562" xlink:href="#DejaVuSans-110"/>
     <use x="1464.355469" xlink:href="#DejaVuSans-32"/>
     <use x="1496.142578" xlink:href="#DejaVuSans-82"/>
     <use x="1565.59375" xlink:href="#DejaVuSans-97"/>
     <use x="1626.873047" xlink:href="#DejaVuSans-116"/>
     <use x="1666.082031" xlink:href="#DejaVuSans-105"/>
     <use x="1693.865234" xlink:href="#DejaVuSans-111"/>
     <use x="1755.046875" xlink:href="#DejaVuSans-115"/>
     <use x="1807.146484" xlink:href="#DejaVuSans-32"/>
     <use x="1838.933594" xlink:href="#DejaVuSans-45"/>
     <use x="1875.017578" xlink:href="#DejaVuSans-32"/>
     <use x="1906.804688" xlink:href="#DejaVuSans-73"/>
     <use x="1936.296875" xlink:href="#DejaVuSans-110"/>
     <use x="1999.675781" xlink:href="#DejaVuSans-112"/>
     <use x="2063.152344" xlink:href="#DejaVuSans-117"/>
     <use x="2126.53125" xlink:href="#DejaVuSans-116"/>
     <use x="2165.740234" xlink:href="#DejaVuSans-32"/>
     <use x="2197.527344" xlink:href="#DejaVuSans-82"/>
     <use x="2266.978516" xlink:href="#DejaVuSans-97"/>
     <use x="2328.257812" xlink:href="#DejaVuSans-110"/>
     <use x="2391.636719" xlink:href="#DejaVuSans-103"/>
     <use x="2455.113281" xlink:href="#DejaVuSans-101"/>
    </g>
   </g>
   <g id="legend_1">
    <g id="patch_9">
     <path d="M 563.8375 174.663125 
L 641 174.663125 
Q 643 174.663125 643 172.663125 
L 643 41.56 
Q 643 39.56 641 39.56 
L 563.8375 39.56 
Q 561.8375 39.56 561.8375 41.56 
L 561.8375 172.663125 
Q 561.8375 174.663125 563.8375 174.663125 
z
" style="fill:#ffffff;opacity:0.8;stroke:#cccccc;stroke-linejoin:miter;"/>
    </g>
    <g id="line2d_36">
     <path d="M 565.8375 47.658438 
L 585.8375 47.658438 
" style="fill:none;stroke:#1f77b4;stroke-linecap:square;stroke-width:1.5;"/>
    </g>
    <g id="line2d_37"/>
    <g id="text_18">
     <!-- Ratio: 2 -->
     <g transform="translate(593.8375 51.158438)scale(0.1 -0.1)">
      <use xlink:href="#DejaVuSans-82"/>
      <use x="69.451172" xlink:href="#DejaVuSans-97"/>
      <use x="130.730469" xlink:href="#DejaVuSans-116"/>
      <use x="169.939453" xlink:href="#DejaVuSans-105"/>
      <use x="197.722656" xlink:href="#DejaVuSans-111"/>
      <use x="258.904297" xlink:href="#DejaVuSans-58"/>
      <use x="292.595703" xlink:href="#DejaVuSans-32"/>
      <use x="324.382812" xlink:href="#DejaVuSans-50"/>
     </g>
    </g>
    <g id="line2d_38">
     <path d="M 565.8375 62.336563 
L 585.8375 62.336563 
" style="fill:none;stroke:#ff7f0e;stroke-linecap:square;stroke-width:1.5;"/>
    </g>
    <g id="line2d_39"/>
    <g id="text_19">
     <!-- Ratio: 3 -->
     <defs>
      <path d="M 40.578125 39.3125 
Q 47.65625 37.796875 51.625 33 
Q 55.609375 28.21875 55.609375 21.1875 
Q 55.609375 10.40625 48.1875 4.484375 
Q 40.765625 -1.421875 27.09375 -1.421875 
Q 22.515625 -1.421875 17.65625 -0.515625 
Q 12.796875 0.390625 7.625 2.203125 
L 7.625 11.71875 
Q 11.71875 9.328125 16.59375 8.109375 
Q 21.484375 6.890625 26.8125 6.890625 
Q 36.078125 6.890625 40.9375 10.546875 
Q 45.796875 14.203125 45.796875 21.1875 
Q 45.796875 27.640625 41.28125 31.265625 
Q 36.765625 34.90625 28.71875 34.90625 
L 20.21875 34.90625 
L 20.21875 43.015625 
L 29.109375 43.015625 
Q 36.375 43.015625 40.234375 45.921875 
Q 44.09375 48.828125 44.09375 54.296875 
Q 44.09375 59.90625 40.109375 62.90625 
Q 36.140625 65.921875 28.71875 65.921875 
Q 24.65625 65.921875 20.015625 65.03125 
Q 15.375 64.15625 9.8125 62.3125 
L 9.8125 71.09375 
Q 15.4375 72.65625 20.34375 73.4375 
Q 25.25 74.21875 29.59375 74.21875 
Q 40.828125 74.21875 47.359375 69.109375 
Q 53.90625 64.015625 53.90625 55.328125 
Q 53.90625 49.265625 50.4375 45.09375 
Q 46.96875 40.921875 40.578125 39.3125 
z
" id="DejaVuSans-51"/>
     </defs>
     <g transform="translate(593.8375 65.836563)scale(0.1 -0.1)">
      <use xlink:href="#DejaVuSans-82"/>
      <use x="69.451172" xlink:href="#DejaVuSans-97"/>
      <use x="130.730469" xlink:href="#DejaVuSans-116"/>
      <use x="169.939453" xlink:href="#DejaVuSans-105"/>
      <use x="197.722656" xlink:href="#DejaVuSans-111"/>
      <use x="258.904297" xlink:href="#DejaVuSans-58"/>
      <use x="292.595703" xlink:href="#DejaVuSans-32"/>
      <use x="324.382812" xlink:href="#DejaVuSans-51"/>
     </g>
    </g>
    <g id="line2d_40">
     <path d="M 565.8375 77.014688 
L 585.8375 77.014688 
" style="fill:none;stroke:#2ca02c;stroke-linecap:square;stroke-width:1.5;"/>
    </g>
    <g id="line2d_41"/>
    <g id="text_20">
     <!-- Ratio: 4 -->
     <g transform="translate(593.8375 80.514688)scale(0.1 -0.1)">
      <use xlink:href="#DejaVuSans-82"/>
      <use x="69.451172" xlink:href="#DejaVuSans-97"/>
      <use x="130.730469" xlink:href="#DejaVuSans-116"/>
      <use x="169.939453" xlink:href="#DejaVuSans-105"/>
      <use x="197.722656" xlink:href="#DejaVuSans-111"/>
      <use x="258.904297" xlink:href="#DejaVuSans-58"/>
      <use x="292.595703" xlink:href="#DejaVuSans-32"/>
      <use x="324.382812" xlink:href="#DejaVuSans-52"/>
     </g>
    </g>
    <g id="line2d_42">
     <path d="M 565.8375 91.692813 
L 585.8375 91.692813 
" style="fill:none;stroke:#d62728;stroke-linecap:square;stroke-width:1.5;"/>
    </g>
    <g id="line2d_43"/>
    <g id="text_21">
     <!-- Ratio: 6 -->
     <g transform="translate(593.8375 95.192813)scale(0.1 -0.1)">
      <use xlink:href="#DejaVuSans-82"/>
      <use x="69.451172" xlink:href="#DejaVuSans-97"/>
      <use x="130.730469" xlink:href="#DejaVuSans-116"/>
      <use x="169.939453" xlink:href="#DejaVuSans-105"/>
      <use x="197.722656" xlink:href="#DejaVuSans-111"/>
      <use x="258.904297" xlink:href="#DejaVuSans-58"/>
      <use x="292.595703" xlink:href="#DejaVuSans-32"/>
      <use x="324.382812" xlink:href="#DejaVuSans-54"/>
     </g>
    </g>
    <g id="line2d_44">
     <path d="M 565.8375 106.370938 
L 585.8375 106.370938 
" style="fill:none;stroke:#9467bd;stroke-linecap:square;stroke-width:1.5;"/>
    </g>
    <g id="line2d_45"/>
    <g id="text_22">
     <!-- Ratio: 8 -->
     <g transform="translate(593.8375 109.870938)scale(0.1 -0.1)">
      <use xlink:href="#DejaVuSans-82"/>
      <use x="69.451172" xlink:href="#DejaVuSans-97"/>
      <use x="130.730469" xlink:href="#DejaVuSans-116"/>
      <use x="169.939453" xlink:href="#DejaVuSans-105"/>
      <use x="197.722656" xlink:href="#DejaVuSans-111"/>
      <use x="258.904297" xlink:href="#DejaVuSans-58"/>
      <use x="292.595703" xlink:href="#DejaVuSans-32"/>
      <use x="324.382812" xlink:href="#DejaVuSans-56"/>
     </g>
    </g>
    <g id="line2d_46">
     <path d="M 565.8375 121.049063 
L 585.8375 121.049063 
" style="fill:none;stroke:#8c564b;stroke-linecap:square;stroke-width:1.5;"/>
    </g>
    <g id="line2d_47"/>
    <g id="text_23">
     <!-- Ratio: 12 -->
     <g transform="translate(593.8375 124.549063)scale(0.1 -0.1)">
      <use xlink:href="#DejaVuSans-82"/>
      <use x="69.451172" xlink:href="#DejaVuSans-97"/>
      <use x="130.730469" xlink:href="#DejaVuSans-116"/>
      <use x="169.939453" xlink:href="#DejaVuSans-105"/>
      <use x="197.722656" xlink:href="#DejaVuSans-111"/>
      <use x="258.904297" xlink:href="#DejaVuSans-58"/>
      <use x="292.595703" xlink:href="#DejaVuSans-32"/>
      <use x="324.382812" xlink:href="#DejaVuSans-49"/>
      <use x="388.005859" xlink:href="#DejaVuSans-50"/>
     </g>
    </g>
    <g id="line2d_48">
     <path d="M 565.8375 135.727188 
L 585.8375 135.727188 
" style="fill:none;stroke:#e377c2;stroke-linecap:square;stroke-width:1.5;"/>
    </g>
    <g id="line2d_49"/>
    <g id="text_24">
     <!-- Ratio: 16 -->
     <g transform="translate(593.8375 139.227188)scale(0.1 -0.1)">
      <use xlink:href="#DejaVuSans-82"/>
      <use x="69.451172" xlink:href="#DejaVuSans-97"/>
      <use x="130.730469" xlink:href="#DejaVuSans-116"/>
      <use x="169.939453" xlink:href="#DejaVuSans-105"/>
      <use x="197.722656" xlink:href="#DejaVuSans-111"/>
      <use x="258.904297" xlink:href="#DejaVuSans-58"/>
      <use x="292.595703" xlink:href="#DejaVuSans-32"/>
      <use x="324.382812" xlink:href="#DejaVuSans-49"/>
      <use x="388.005859" xlink:href="#DejaVuSans-54"/>
     </g>
    </g>
    <g id="line2d_50">
     <path d="M 565.8375 150.405313 
L 585.8375 150.405313 
" style="fill:none;stroke:#7f7f7f;stroke-linecap:square;stroke-width:1.5;"/>
    </g>
    <g id="line2d_51"/>
    <g id="text_25">
     <!-- Ratio: 24 -->
     <g transform="translate(593.8375 153.905313)scale(0.1 -0.1)">
      <use xlink:href="#DejaVuSans-82"/>
      <use x="69.451172" xlink:href="#DejaVuSans-97"/>
      <use x="130.730469" xlink:href="#DejaVuSans-116"/>
      <use x="169.939453" xlink:href="#DejaVuSans-105"/>
      <use x="197.722656" xlink:href="#DejaVuSans-111"/>
      <use x="258.904297" xlink:href="#DejaVuSans-58"/>
      <use x="292.595703" xlink:href="#DejaVuSans-32"/>
      <use x="324.382812" xlink:href="#DejaVuSans-50"/>
      <use x="388.005859" xlink:href="#DejaVuSans-52"/>
     </g>
    </g>
    <g id="line2d_52">
     <path d="M 565.8375 165.083438 
L 585.8375 165.083438 
" style="fill:none;stroke:#bcbd22;stroke-linecap:square;stroke-width:1.5;"/>
    </g>
    <g id="line2d_53"/>
    <g id="text_26">
     <!-- Ratio: 48 -->
     <g transform="translate(593.8375 168.583438)scale(0.1 -0.1)">
      <use xlink:href="#DejaVuSans-82"/>
      <use x="69.451172" xlink:href="#DejaVuSans-97"/>
      <use x="130.730469" xlink:href="#DejaVuSans-116"/>
      <use x="169.939453" xlink:href="#DejaVuSans-105"/>
      <use x="197.722656" xlink:href="#DejaVuSans-111"/>
      <use x="258.904297" xlink:href="#DejaVuSans-58"/>
      <use x="292.595703" xlink:href="#DejaVuSans-32"/>
      <use x="324.382812" xlink:href="#DejaVuSans-52"/>
      <use x="388.005859" xlink:href="#DejaVuSans-56"/>
     </g>
    </g>
   </g>
  </g>
 </g>
 <defs>
  <clipPath id="p2e3ba6d1e1">
   <rect height="221.76" width="558" x="90" y="34.56"/>
  </clipPath>
 </defs>
</svg>
