<?xml version="1.0" encoding="utf-8" standalone="no"?>
<!DOCTYPE svg PUBLIC "-//W3C//DTD SVG 1.1//EN"
  "http://www.w3.org/Graphics/SVG/1.1/DTD/svg11.dtd">
<!-- Created with matplotlib (https://matplotlib.org/) -->
<svg height="288pt" version="1.1" viewBox="0 0 720 288" width="720pt" xmlns="http://www.w3.org/2000/svg" xmlns:xlink="http://www.w3.org/1999/xlink">
 <defs>
  <style type="text/css">
*{stroke-linecap:butt;stroke-linejoin:round;}
  </style>
 </defs>
 <g id="figure_1">
  <g id="patch_1">
   <path d="M 0 288 
L 720 288 
L 720 0 
L 0 0 
z
" style="fill:#ffffff;"/>
  </g>
  <g id="axes_1">
   <g id="patch_2">
    <path d="M 45.16 260.12 
L 687.105 260.12 
L 687.105 37.968 
L 45.16 37.968 
z
" style="fill:#ffffff;"/>
   </g>
   <g id="matplotlib.axis_1">
    <g id="xtick_1">
     <g id="line2d_1">
      <path clip-path="url(#pb5f01f8561)" d="M 45.16 260.12 
L 45.16 37.968 
" style="fill:none;stroke:#b0b0b0;stroke-linecap:square;stroke-width:0.8;"/>
     </g>
     <g id="line2d_2">
      <defs>
       <path d="M 0 0 
L 0 3.5 
" id="mb4c1310b06" style="stroke:#000000;stroke-width:0.8;"/>
      </defs>
      <g>
       <use style="stroke:#000000;stroke-width:0.8;" x="45.16" xlink:href="#mb4c1310b06" y="260.12"/>
      </g>
     </g>
     <g id="text_1">
      <!-- 0 -->
      <defs>
       <path d="M 31.78125 66.40625 
Q 24.171875 66.40625 20.328125 58.90625 
Q 16.5 51.421875 16.5 36.375 
Q 16.5 21.390625 20.328125 13.890625 
Q 24.171875 6.390625 31.78125 6.390625 
Q 39.453125 6.390625 43.28125 13.890625 
Q 47.125 21.390625 47.125 36.375 
Q 47.125 51.421875 43.28125 58.90625 
Q 39.453125 66.40625 31.78125 66.40625 
z
M 31.78125 74.21875 
Q 44.046875 74.21875 50.515625 64.515625 
Q 56.984375 54.828125 56.984375 36.375 
Q 56.984375 17.96875 50.515625 8.265625 
Q 44.046875 -1.421875 31.78125 -1.421875 
Q 19.53125 -1.421875 13.0625 8.265625 
Q 6.59375 17.96875 6.59375 36.375 
Q 6.59375 54.828125 13.0625 64.515625 
Q 19.53125 74.21875 31.78125 74.21875 
z
" id="DejaVuSans-48"/>
      </defs>
      <g transform="translate(41.97875 274.718437)scale(0.1 -0.1)">
       <use xlink:href="#DejaVuSans-48"/>
      </g>
     </g>
    </g>
    <g id="xtick_2">
     <g id="line2d_3">
      <path clip-path="url(#pb5f01f8561)" d="M 152.150833 260.12 
L 152.150833 37.968 
" style="fill:none;stroke:#b0b0b0;stroke-linecap:square;stroke-width:0.8;"/>
     </g>
     <g id="line2d_4">
      <g>
       <use style="stroke:#000000;stroke-width:0.8;" x="152.150833" xlink:href="#mb4c1310b06" y="260.12"/>
      </g>
     </g>
     <g id="text_2">
      <!-- 200000 -->
      <defs>
       <path d="M 19.1875 8.296875 
L 53.609375 8.296875 
L 53.609375 0 
L 7.328125 0 
L 7.328125 8.296875 
Q 12.9375 14.109375 22.625 23.890625 
Q 32.328125 33.6875 34.8125 36.53125 
Q 39.546875 41.84375 41.421875 45.53125 
Q 43.3125 49.21875 43.3125 52.78125 
Q 43.3125 58.59375 39.234375 62.25 
Q 35.15625 65.921875 28.609375 65.921875 
Q 23.96875 65.921875 18.8125 64.3125 
Q 13.671875 62.703125 7.8125 59.421875 
L 7.8125 69.390625 
Q 13.765625 71.78125 18.9375 73 
Q 24.125 74.21875 28.421875 74.21875 
Q 39.75 74.21875 46.484375 68.546875 
Q 53.21875 62.890625 53.21875 53.421875 
Q 53.21875 48.921875 51.53125 44.890625 
Q 49.859375 40.875 45.40625 35.40625 
Q 44.1875 33.984375 37.640625 27.21875 
Q 31.109375 20.453125 19.1875 8.296875 
z
" id="DejaVuSans-50"/>
      </defs>
      <g transform="translate(133.063333 274.718437)scale(0.1 -0.1)">
       <use xlink:href="#DejaVuSans-50"/>
       <use x="63.623047" xlink:href="#DejaVuSans-48"/>
       <use x="127.246094" xlink:href="#DejaVuSans-48"/>
       <use x="190.869141" xlink:href="#DejaVuSans-48"/>
       <use x="254.492188" xlink:href="#DejaVuSans-48"/>
       <use x="318.115234" xlink:href="#DejaVuSans-48"/>
      </g>
     </g>
    </g>
    <g id="xtick_3">
     <g id="line2d_5">
      <path clip-path="url(#pb5f01f8561)" d="M 259.141667 260.12 
L 259.141667 37.968 
" style="fill:none;stroke:#b0b0b0;stroke-linecap:square;stroke-width:0.8;"/>
     </g>
     <g id="line2d_6">
      <g>
       <use style="stroke:#000000;stroke-width:0.8;" x="259.141667" xlink:href="#mb4c1310b06" y="260.12"/>
      </g>
     </g>
     <g id="text_3">
      <!-- 400000 -->
      <defs>
       <path d="M 37.796875 64.3125 
L 12.890625 25.390625 
L 37.796875 25.390625 
z
M 35.203125 72.90625 
L 47.609375 72.90625 
L 47.609375 25.390625 
L 58.015625 25.390625 
L 58.015625 17.1875 
L 47.609375 17.1875 
L 47.609375 0 
L 37.796875 0 
L 37.796875 17.1875 
L 4.890625 17.1875 
L 4.890625 26.703125 
z
" id="DejaVuSans-52"/>
      </defs>
      <g transform="translate(240.054167 274.718437)scale(0.1 -0.1)">
       <use xlink:href="#DejaVuSans-52"/>
       <use x="63.623047" xlink:href="#DejaVuSans-48"/>
       <use x="127.246094" xlink:href="#DejaVuSans-48"/>
       <use x="190.869141" xlink:href="#DejaVuSans-48"/>
       <use x="254.492188" xlink:href="#DejaVuSans-48"/>
       <use x="318.115234" xlink:href="#DejaVuSans-48"/>
      </g>
     </g>
    </g>
    <g id="xtick_4">
     <g id="line2d_7">
      <path clip-path="url(#pb5f01f8561)" d="M 366.1325 260.12 
L 366.1325 37.968 
" style="fill:none;stroke:#b0b0b0;stroke-linecap:square;stroke-width:0.8;"/>
     </g>
     <g id="line2d_8">
      <g>
       <use style="stroke:#000000;stroke-width:0.8;" x="366.1325" xlink:href="#mb4c1310b06" y="260.12"/>
      </g>
     </g>
     <g id="text_4">
      <!-- 600000 -->
      <defs>
       <path d="M 33.015625 40.375 
Q 26.375 40.375 22.484375 35.828125 
Q 18.609375 31.296875 18.609375 23.390625 
Q 18.609375 15.53125 22.484375 10.953125 
Q 26.375 6.390625 33.015625 6.390625 
Q 39.65625 6.390625 43.53125 10.953125 
Q 47.40625 15.53125 47.40625 23.390625 
Q 47.40625 31.296875 43.53125 35.828125 
Q 39.65625 40.375 33.015625 40.375 
z
M 52.59375 71.296875 
L 52.59375 62.3125 
Q 48.875 64.0625 45.09375 64.984375 
Q 41.3125 65.921875 37.59375 65.921875 
Q 27.828125 65.921875 22.671875 59.328125 
Q 17.53125 52.734375 16.796875 39.40625 
Q 19.671875 43.65625 24.015625 45.921875 
Q 28.375 48.1875 33.59375 48.1875 
Q 44.578125 48.1875 50.953125 41.515625 
Q 57.328125 34.859375 57.328125 23.390625 
Q 57.328125 12.15625 50.6875 5.359375 
Q 44.046875 -1.421875 33.015625 -1.421875 
Q 20.359375 -1.421875 13.671875 8.265625 
Q 6.984375 17.96875 6.984375 36.375 
Q 6.984375 53.65625 15.1875 63.9375 
Q 23.390625 74.21875 37.203125 74.21875 
Q 40.921875 74.21875 44.703125 73.484375 
Q 48.484375 72.75 52.59375 71.296875 
z
" id="DejaVuSans-54"/>
      </defs>
      <g transform="translate(347.045 274.718437)scale(0.1 -0.1)">
       <use xlink:href="#DejaVuSans-54"/>
       <use x="63.623047" xlink:href="#DejaVuSans-48"/>
       <use x="127.246094" xlink:href="#DejaVuSans-48"/>
       <use x="190.869141" xlink:href="#DejaVuSans-48"/>
       <use x="254.492188" xlink:href="#DejaVuSans-48"/>
       <use x="318.115234" xlink:href="#DejaVuSans-48"/>
      </g>
     </g>
    </g>
    <g id="xtick_5">
     <g id="line2d_9">
      <path clip-path="url(#pb5f01f8561)" d="M 473.123333 260.12 
L 473.123333 37.968 
" style="fill:none;stroke:#b0b0b0;stroke-linecap:square;stroke-width:0.8;"/>
     </g>
     <g id="line2d_10">
      <g>
       <use style="stroke:#000000;stroke-width:0.8;" x="473.123333" xlink:href="#mb4c1310b06" y="260.12"/>
      </g>
     </g>
     <g id="text_5">
      <!-- 800000 -->
      <defs>
       <path d="M 31.78125 34.625 
Q 24.75 34.625 20.71875 30.859375 
Q 16.703125 27.09375 16.703125 20.515625 
Q 16.703125 13.921875 20.71875 10.15625 
Q 24.75 6.390625 31.78125 6.390625 
Q 38.8125 6.390625 42.859375 10.171875 
Q 46.921875 13.96875 46.921875 20.515625 
Q 46.921875 27.09375 42.890625 30.859375 
Q 38.875 34.625 31.78125 34.625 
z
M 21.921875 38.8125 
Q 15.578125 40.375 12.03125 44.71875 
Q 8.5 49.078125 8.5 55.328125 
Q 8.5 64.0625 14.71875 69.140625 
Q 20.953125 74.21875 31.78125 74.21875 
Q 42.671875 74.21875 48.875 69.140625 
Q 55.078125 64.0625 55.078125 55.328125 
Q 55.078125 49.078125 51.53125 44.71875 
Q 48 40.375 41.703125 38.8125 
Q 48.828125 37.15625 52.796875 32.3125 
Q 56.78125 27.484375 56.78125 20.515625 
Q 56.78125 9.90625 50.3125 4.234375 
Q 43.84375 -1.421875 31.78125 -1.421875 
Q 19.734375 -1.421875 13.25 4.234375 
Q 6.78125 9.90625 6.78125 20.515625 
Q 6.78125 27.484375 10.78125 32.3125 
Q 14.796875 37.15625 21.921875 38.8125 
z
M 18.3125 54.390625 
Q 18.3125 48.734375 21.84375 45.5625 
Q 25.390625 42.390625 31.78125 42.390625 
Q 38.140625 42.390625 41.71875 45.5625 
Q 45.3125 48.734375 45.3125 54.390625 
Q 45.3125 60.0625 41.71875 63.234375 
Q 38.140625 66.40625 31.78125 66.40625 
Q 25.390625 66.40625 21.84375 63.234375 
Q 18.3125 60.0625 18.3125 54.390625 
z
" id="DejaVuSans-56"/>
      </defs>
      <g transform="translate(454.035833 274.718437)scale(0.1 -0.1)">
       <use xlink:href="#DejaVuSans-56"/>
       <use x="63.623047" xlink:href="#DejaVuSans-48"/>
       <use x="127.246094" xlink:href="#DejaVuSans-48"/>
       <use x="190.869141" xlink:href="#DejaVuSans-48"/>
       <use x="254.492188" xlink:href="#DejaVuSans-48"/>
       <use x="318.115234" xlink:href="#DejaVuSans-48"/>
      </g>
     </g>
    </g>
    <g id="xtick_6">
     <g id="line2d_11">
      <path clip-path="url(#pb5f01f8561)" d="M 580.114167 260.12 
L 580.114167 37.968 
" style="fill:none;stroke:#b0b0b0;stroke-linecap:square;stroke-width:0.8;"/>
     </g>
     <g id="line2d_12">
      <g>
       <use style="stroke:#000000;stroke-width:0.8;" x="580.114167" xlink:href="#mb4c1310b06" y="260.12"/>
      </g>
     </g>
     <g id="text_6">
      <!-- 1000000 -->
      <defs>
       <path d="M 12.40625 8.296875 
L 28.515625 8.296875 
L 28.515625 63.921875 
L 10.984375 60.40625 
L 10.984375 69.390625 
L 28.421875 72.90625 
L 38.28125 72.90625 
L 38.28125 8.296875 
L 54.390625 8.296875 
L 54.390625 0 
L 12.40625 0 
z
" id="DejaVuSans-49"/>
      </defs>
      <g transform="translate(557.845417 274.718437)scale(0.1 -0.1)">
       <use xlink:href="#DejaVuSans-49"/>
       <use x="63.623047" xlink:href="#DejaVuSans-48"/>
       <use x="127.246094" xlink:href="#DejaVuSans-48"/>
       <use x="190.869141" xlink:href="#DejaVuSans-48"/>
       <use x="254.492188" xlink:href="#DejaVuSans-48"/>
       <use x="318.115234" xlink:href="#DejaVuSans-48"/>
       <use x="381.738281" xlink:href="#DejaVuSans-48"/>
      </g>
     </g>
    </g>
    <g id="xtick_7">
     <g id="line2d_13">
      <path clip-path="url(#pb5f01f8561)" d="M 687.105 260.12 
L 687.105 37.968 
" style="fill:none;stroke:#b0b0b0;stroke-linecap:square;stroke-width:0.8;"/>
     </g>
     <g id="line2d_14">
      <g>
       <use style="stroke:#000000;stroke-width:0.8;" x="687.105" xlink:href="#mb4c1310b06" y="260.12"/>
      </g>
     </g>
     <g id="text_7">
      <!-- 1200000 -->
      <g transform="translate(664.83625 274.718437)scale(0.1 -0.1)">
       <use xlink:href="#DejaVuSans-49"/>
       <use x="63.623047" xlink:href="#DejaVuSans-50"/>
       <use x="127.246094" xlink:href="#DejaVuSans-48"/>
       <use x="190.869141" xlink:href="#DejaVuSans-48"/>
       <use x="254.492188" xlink:href="#DejaVuSans-48"/>
       <use x="318.115234" xlink:href="#DejaVuSans-48"/>
       <use x="381.738281" xlink:href="#DejaVuSans-48"/>
      </g>
     </g>
    </g>
   </g>
   <g id="matplotlib.axis_2">
    <g id="ytick_1">
     <g id="line2d_15">
      <path clip-path="url(#pb5f01f8561)" d="M 45.16 260.12 
L 687.105 260.12 
" style="fill:none;stroke:#b0b0b0;stroke-linecap:square;stroke-width:0.8;"/>
     </g>
     <g id="line2d_16">
      <defs>
       <path d="M 0 0 
L -3.5 0 
" id="m17824061fb" style="stroke:#000000;stroke-width:0.8;"/>
      </defs>
      <g>
       <use style="stroke:#000000;stroke-width:0.8;" x="45.16" xlink:href="#m17824061fb" y="260.12"/>
      </g>
     </g>
     <g id="text_8">
      <!-- −120 -->
      <defs>
       <path d="M 10.59375 35.5 
L 73.1875 35.5 
L 73.1875 27.203125 
L 10.59375 27.203125 
z
" id="DejaVuSans-8722"/>
      </defs>
      <g transform="translate(10.692812 263.919219)scale(0.1 -0.1)">
       <use xlink:href="#DejaVuSans-8722"/>
       <use x="83.789062" xlink:href="#DejaVuSans-49"/>
       <use x="147.412109" xlink:href="#DejaVuSans-50"/>
       <use x="211.035156" xlink:href="#DejaVuSans-48"/>
      </g>
     </g>
    </g>
    <g id="ytick_2">
     <g id="line2d_17">
      <path clip-path="url(#pb5f01f8561)" d="M 45.16 223.997724 
L 687.105 223.997724 
" style="fill:none;stroke:#b0b0b0;stroke-linecap:square;stroke-width:0.8;"/>
     </g>
     <g id="line2d_18">
      <g>
       <use style="stroke:#000000;stroke-width:0.8;" x="45.16" xlink:href="#m17824061fb" y="223.997724"/>
      </g>
     </g>
     <g id="text_9">
      <!-- −100 -->
      <g transform="translate(10.692812 227.796942)scale(0.1 -0.1)">
       <use xlink:href="#DejaVuSans-8722"/>
       <use x="83.789062" xlink:href="#DejaVuSans-49"/>
       <use x="147.412109" xlink:href="#DejaVuSans-48"/>
       <use x="211.035156" xlink:href="#DejaVuSans-48"/>
      </g>
     </g>
    </g>
    <g id="ytick_3">
     <g id="line2d_19">
      <path clip-path="url(#pb5f01f8561)" d="M 45.16 187.875447 
L 687.105 187.875447 
" style="fill:none;stroke:#b0b0b0;stroke-linecap:square;stroke-width:0.8;"/>
     </g>
     <g id="line2d_20">
      <g>
       <use style="stroke:#000000;stroke-width:0.8;" x="45.16" xlink:href="#m17824061fb" y="187.875447"/>
      </g>
     </g>
     <g id="text_10">
      <!-- −80 -->
      <g transform="translate(17.055312 191.674666)scale(0.1 -0.1)">
       <use xlink:href="#DejaVuSans-8722"/>
       <use x="83.789062" xlink:href="#DejaVuSans-56"/>
       <use x="147.412109" xlink:href="#DejaVuSans-48"/>
      </g>
     </g>
    </g>
    <g id="ytick_4">
     <g id="line2d_21">
      <path clip-path="url(#pb5f01f8561)" d="M 45.16 151.753171 
L 687.105 151.753171 
" style="fill:none;stroke:#b0b0b0;stroke-linecap:square;stroke-width:0.8;"/>
     </g>
     <g id="line2d_22">
      <g>
       <use style="stroke:#000000;stroke-width:0.8;" x="45.16" xlink:href="#m17824061fb" y="151.753171"/>
      </g>
     </g>
     <g id="text_11">
      <!-- −60 -->
      <g transform="translate(17.055312 155.552389)scale(0.1 -0.1)">
       <use xlink:href="#DejaVuSans-8722"/>
       <use x="83.789062" xlink:href="#DejaVuSans-54"/>
       <use x="147.412109" xlink:href="#DejaVuSans-48"/>
      </g>
     </g>
    </g>
    <g id="ytick_5">
     <g id="line2d_23">
      <path clip-path="url(#pb5f01f8561)" d="M 45.16 115.630894 
L 687.105 115.630894 
" style="fill:none;stroke:#b0b0b0;stroke-linecap:square;stroke-width:0.8;"/>
     </g>
     <g id="line2d_24">
      <g>
       <use style="stroke:#000000;stroke-width:0.8;" x="45.16" xlink:href="#m17824061fb" y="115.630894"/>
      </g>
     </g>
     <g id="text_12">
      <!-- −40 -->
      <g transform="translate(17.055312 119.430113)scale(0.1 -0.1)">
       <use xlink:href="#DejaVuSans-8722"/>
       <use x="83.789062" xlink:href="#DejaVuSans-52"/>
       <use x="147.412109" xlink:href="#DejaVuSans-48"/>
      </g>
     </g>
    </g>
    <g id="ytick_6">
     <g id="line2d_25">
      <path clip-path="url(#pb5f01f8561)" d="M 45.16 79.508618 
L 687.105 79.508618 
" style="fill:none;stroke:#b0b0b0;stroke-linecap:square;stroke-width:0.8;"/>
     </g>
     <g id="line2d_26">
      <g>
       <use style="stroke:#000000;stroke-width:0.8;" x="45.16" xlink:href="#m17824061fb" y="79.508618"/>
      </g>
     </g>
     <g id="text_13">
      <!-- −20 -->
      <g transform="translate(17.055312 83.307837)scale(0.1 -0.1)">
       <use xlink:href="#DejaVuSans-8722"/>
       <use x="83.789062" xlink:href="#DejaVuSans-50"/>
       <use x="147.412109" xlink:href="#DejaVuSans-48"/>
      </g>
     </g>
    </g>
    <g id="ytick_7">
     <g id="line2d_27">
      <path clip-path="url(#pb5f01f8561)" d="M 45.16 43.386341 
L 687.105 43.386341 
" style="fill:none;stroke:#b0b0b0;stroke-linecap:square;stroke-width:0.8;"/>
     </g>
     <g id="line2d_28">
      <g>
       <use style="stroke:#000000;stroke-width:0.8;" x="45.16" xlink:href="#m17824061fb" y="43.386341"/>
      </g>
     </g>
     <g id="text_14">
      <!-- 0 -->
      <g transform="translate(31.7975 47.18556)scale(0.1 -0.1)">
       <use xlink:href="#DejaVuSans-48"/>
      </g>
     </g>
    </g>
   </g>
   <g id="line2d_29">
    <path clip-path="url(#pb5f01f8561)" d="M 45.16 43.475839 
L 47.667598 43.470005 
L 48.921396 48.415093 
L 50.175195 119.742668 
L 51.428994 209.736086 
L 52.682793 256.222898 
L 53.936592 204.29436 
L 55.190391 217.852389 
L 56.444189 211.957248 
L 57.697988 204.277713 
L 58.951787 215.350142 
L 60.205586 218.321176 
L 61.459385 204.712477 
L 62.713184 207.638689 
L 63.966982 247.043193 
L 65.220781 209.477005 
L 66.47458 204.263415 
L 67.728379 212.154482 
L 68.982178 230.179119 
L 70.235977 206.657004 
L 71.489775 204.890468 
L 72.743574 217.171914 
L 73.997373 220.084325 
L 75.251172 205.314975 
L 76.504971 205.722985 
L 77.75877 222.55228 
L 79.012568 215.723334 
L 80.266367 204.734216 
L 81.520166 206.799229 
L 82.773965 229.4958 
L 84.027764 212.967312 
L 85.281563 204.402542 
L 86.535361 207.891544 
L 87.78916 239.614961 
L 89.042959 211.062809 
L 90.296758 204.229146 
L 91.550557 208.995424 
L 92.804355 263.689046 
L 94.058154 209.669528 
L 95.311953 204.168726 
L 96.565752 210.118811 
L 97.819551 251.398592 
L 99.07335 208.628071 
L 100.327148 204.212704 
L 101.580947 211.303367 
L 102.834746 238.25645 
L 104.088545 207.818813 
L 105.342344 204.345835 
L 106.596143 212.599567 
L 107.849941 231.530404 
L 109.10374 207.142989 
L 110.357539 204.525173 
L 111.611338 213.983974 
L 112.865137 227.105031 
L 114.118936 206.577149 
L 115.372734 204.74566 
L 116.626533 215.472624 
L 117.880332 223.849259 
L 119.134131 206.100796 
L 120.38793 205.004231 
L 121.641729 217.089076 
L 122.895527 221.297511 
L 124.149326 205.698561 
L 125.403125 205.299033 
L 126.656924 218.864392 
L 127.910723 219.214281 
L 129.164521 205.358994 
L 130.41832 205.629074 
L 131.672119 220.840159 
L 132.925918 217.46464 
L 134.179717 205.07347 
L 135.433516 205.994011 
L 136.687314 223.074267 
L 137.941113 215.964488 
L 139.194912 204.835411 
L 140.448711 206.394021 
L 141.70251 225.651469 
L 144.210107 204.639727 
L 145.463906 206.829715 
L 146.717705 228.704108 
L 147.971504 213.506796 
L 149.225303 204.482435 
L 150.479102 207.302086 
L 151.7329 232.45739 
L 152.986699 212.482712 
L 154.240498 204.360377 
L 155.494297 207.812475 
L 156.748096 237.345455 
L 158.001895 211.565188 
L 159.255693 204.271024 
L 160.509492 208.362543 
L 161.763291 244.394668 
L 163.01709 210.738533 
L 164.270889 204.212319 
L 165.524688 208.954237 
L 166.778486 257.318566 
L 168.032285 209.990615 
L 169.286084 204.182552 
L 170.539883 209.589705 
L 171.793682 278.203086 
L 173.04748 209.311967 
L 174.301279 204.180227 
L 175.555078 210.271047 
L 176.808877 250.843002 
L 178.062676 208.695319 
L 179.316475 204.203862 
L 180.570273 210.999303 
L 181.824072 241.531563 
L 183.077871 208.136242 
L 184.33167 204.250932 
L 185.585469 211.769309 
L 186.839268 235.900282 
L 188.093066 207.650547 
L 189.346865 204.346491 
L 190.600664 212.631038 
L 191.854463 231.751798 
L 193.108262 207.204239 
L 194.362061 204.469523 
L 195.615859 213.571969 
L 196.869658 228.492025 
L 198.123457 206.794746 
L 199.377256 204.618413 
L 200.631055 214.597188 
L 201.884854 225.822085 
L 203.138652 206.421135 
L 204.392451 204.79338 
L 205.64625 215.716962 
L 206.900049 223.570024 
L 208.153848 206.081734 
L 209.407646 204.99472 
L 210.661445 216.944964 
L 211.915244 221.629621 
L 213.169043 205.774853 
L 214.422842 205.222835 
L 215.676641 218.298937 
L 216.930439 219.930938 
L 218.184238 205.498929 
L 219.438037 205.478245 
L 220.691836 219.802124 
L 221.945635 218.425567 
L 223.199434 205.252564 
L 224.453232 205.761595 
L 225.707031 221.485615 
L 226.96083 217.078644 
L 228.214629 205.03452 
L 229.468428 206.073663 
L 230.722227 223.392201 
L 231.976025 215.864255 
L 233.229824 204.843709 
L 234.483623 206.415373 
L 235.737422 225.583005 
L 238.24502 204.679176 
L 239.498818 206.787796 
L 240.752617 228.149637 
L 242.006416 213.758324 
L 243.260215 204.540087 
L 244.514014 207.192173 
L 245.767812 231.238517 
L 247.021611 212.839109 
L 248.27541 204.425714 
L 249.529209 207.629915 
L 250.783008 235.105681 
L 252.036807 211.9951 
L 253.290605 204.335417 
L 254.544404 208.102626 
L 255.798203 240.263825 
L 257.052002 211.218222 
L 258.305801 204.268632 
L 259.5596 208.612104 
L 260.813398 248.007943 
L 262.067197 210.501812 
L 263.320996 204.224854 
L 264.574795 209.160339 
L 265.828594 263.934423 
L 267.082393 209.840331 
L 268.336191 204.20361 
L 269.58999 209.74948 
L 270.843789 268.342952 
L 272.097588 209.229168 
L 273.351387 204.204422 
L 274.605186 210.381802 
L 275.858984 249.543877 
L 277.112783 208.664449 
L 278.366582 204.226747 
L 279.620381 211.05908 
L 280.87418 241.297785 
L 282.127979 208.143492 
L 283.381777 204.269717 
L 284.635576 211.781655 
L 285.889375 235.982476 
L 287.143174 207.665236 
L 288.396973 204.330925 
L 289.650771 212.538057 
L 290.90457 232.16552 
L 292.158369 207.254781 
L 293.412168 204.442538 
L 294.665967 213.398828 
L 295.919766 229.054631 
L 297.173564 206.873545 
L 298.427363 204.581468 
L 299.681162 214.345012 
L 300.934961 226.450786 
L 302.18876 206.518187 
L 303.442559 204.743191 
L 304.696357 215.379091 
L 305.950156 224.228146 
L 307.203955 206.190115 
L 308.457754 204.928318 
L 309.711553 216.511311 
L 310.965352 222.297277 
L 312.21915 205.889181 
L 313.472949 205.137471 
L 314.726748 217.755896 
L 315.980547 220.596333 
L 317.234346 205.614834 
L 318.488145 205.371317 
L 319.741943 219.131551 
L 320.995742 219.081318 
L 322.249541 205.366404 
L 323.50334 205.630579 
L 324.757139 220.662972 
L 326.010938 217.719975 
L 327.264736 205.143206 
L 328.518535 205.916058 
L 329.772334 222.383415 
L 331.026133 216.488009 
L 332.279932 204.944576 
L 333.53373 206.228637 
L 334.787529 224.338994 
L 336.041328 215.366699 
L 337.295127 204.769895 
L 338.548926 206.569295 
L 339.802725 226.596173 
L 341.056523 214.341337 
L 342.310322 204.618584 
L 343.564121 206.939103 
L 344.81792 229.255736 
L 346.071719 213.400175 
L 347.325518 204.490111 
L 348.579316 207.339233 
L 349.833115 232.481329 
L 351.086914 212.533704 
L 352.340713 204.383977 
L 353.594512 207.770947 
L 354.848311 236.56732 
L 356.102109 211.734036 
L 357.355908 204.299706 
L 358.609707 208.235502 
L 359.863506 242.117131 
L 361.117305 210.99518 
L 362.371104 204.236821 
L 363.624902 208.734174 
L 364.878701 250.784799 
L 366.1325 210.311575 
L 367.386299 204.194788 
L 368.640098 209.267855 
L 369.893896 271.628144 
L 371.147695 209.679412 
L 372.401494 204.172891 
L 373.655293 209.836141 
L 374.909092 262.843227 
L 376.162891 209.097 
L 377.416689 204.169619 
L 378.670488 210.428514 
L 379.924287 248.383316 
L 381.178086 208.588941 
L 382.431885 204.211963 
L 383.685684 211.100518 
L 384.939482 240.874972 
L 386.193281 208.116996 
L 387.44708 204.283982 
L 388.700879 211.841249 
L 389.954678 235.764589 
L 391.208477 207.672208 
L 392.462275 204.376393 
L 393.716074 212.644841 
L 394.969873 231.912235 
L 396.223672 207.257075 
L 397.477471 204.489947 
L 398.73127 213.516139 
L 399.985068 228.830344 
L 401.238867 206.871529 
L 402.492666 204.625205 
L 403.746465 214.462245 
L 405.000264 226.269303 
L 406.254063 206.514883 
L 407.507861 204.782681 
L 408.76166 215.492254 
L 410.015459 224.084574 
L 411.269258 206.186266 
L 412.523057 204.962892 
L 413.776855 216.617586 
L 415.030654 222.185054 
L 416.284453 205.884775 
L 417.538252 205.16638 
L 418.792051 217.852636 
L 420.04585 220.509657 
L 421.299648 205.609528 
L 422.553447 205.393724 
L 423.807246 219.215798 
L 425.061045 219.01546 
L 426.314844 205.359691 
L 427.568643 205.645545 
L 428.822441 220.731017 
L 430.07624 217.67117 
L 431.330039 205.134482 
L 432.583838 205.922506 
L 433.837637 222.430274 
L 435.091436 216.452615 
L 436.345234 204.933189 
L 437.599033 206.225264 
L 438.852832 224.35699 
L 440.106631 215.343936 
L 441.36043 204.755115 
L 442.614229 206.554563 
L 443.868027 226.573871 
L 445.121826 214.328849 
L 446.375625 204.599628 
L 447.629424 206.911003 
L 448.883223 229.173449 
L 450.137021 213.397059 
L 451.39082 204.4661 
L 452.644619 207.295007 
L 453.898418 232.302136 
L 455.152217 212.540003 
L 456.406016 204.353873 
L 457.659814 207.706347 
L 458.913613 236.208908 
L 460.167412 211.751874 
L 461.421211 204.262149 
L 462.67501 208.142155 
L 463.928809 241.341523 
L 465.182607 211.04078 
L 466.436406 204.201854 
L 467.690205 208.613466 
L 468.944004 248.860866 
L 470.197803 210.409606 
L 471.451602 204.18583 
L 472.7054 209.154342 
L 473.959199 264.852737 
L 475.212998 209.805241 
L 476.466797 204.187721 
L 477.720596 209.740266 
L 478.974395 268.584321 
L 480.228193 209.237755 
L 481.481992 204.209074 
L 482.735791 210.372421 
L 483.98959 249.964456 
L 485.243389 208.707303 
L 486.497187 204.250527 
L 487.750986 211.053902 
L 489.004785 241.684275 
L 490.258584 208.212704 
L 491.512383 204.312495 
L 492.766182 211.788787 
L 494.01998 236.300974 
L 495.273779 207.752449 
L 496.527578 204.395318 
L 497.781377 212.582055 
L 499.035176 232.313599 
L 500.288975 207.32499 
L 501.542773 204.49931 
L 502.796572 213.439693 
L 504.050371 229.152869 
L 505.30417 206.92884 
L 506.557969 204.624783 
L 507.811768 214.368902 
L 509.065566 226.540824 
L 510.319365 206.562613 
L 511.573164 204.772063 
L 512.826963 215.378402 
L 514.080762 224.320702 
L 515.334561 206.224671 
L 516.588359 204.941959 
L 517.842158 216.478905 
L 519.095957 222.395508 
L 520.349756 205.914925 
L 521.603555 205.133378 
L 522.857354 217.683311 
L 524.111152 220.701034 
L 525.364951 205.631239 
L 526.61875 205.348064 
L 527.872549 219.008219 
L 529.126348 219.192573 
L 530.380146 205.372986 
L 531.633945 205.5858 
L 532.887744 220.474245 
L 534.141543 217.838104 
L 535.395342 205.139279 
L 536.649141 205.846671 
L 537.902939 222.107608 
L 539.156738 216.614234 
L 540.410537 204.929306 
L 541.664336 206.130303 
L 542.918135 223.940883 
L 544.171934 215.504529 
L 545.425732 204.742384 
L 546.679531 206.434723 
L 547.93333 226.006249 
L 549.187129 214.504433 
L 550.440928 204.585254 
L 551.694727 206.765464 
L 552.948525 228.351632 
L 554.202324 213.629098 
L 555.456123 204.478777 
L 556.709922 207.157791 
L 557.963721 231.264582 
L 559.21752 212.792131 
L 560.471318 204.388292 
L 561.725117 207.584403 
L 562.978916 234.910175 
L 564.232715 212.009052 
L 565.486514 204.316737 
L 566.740313 208.045377 
L 567.994111 239.721491 
L 569.24791 211.278867 
L 570.501709 204.264897 
L 571.755508 208.542278 
L 573.009307 246.751741 
L 574.263105 210.598642 
L 575.516904 204.233125 
L 576.770703 209.077218 
L 578.024502 259.904881 
L 579.278301 209.965173 
L 580.5321 204.221614 
L 581.785898 209.652723 
L 583.039697 278.011015 
L 584.293496 209.375395 
L 585.547295 204.230496 
L 586.801094 210.271743 
L 588.054893 252.231568 
L 589.308691 208.8265 
L 590.56249 204.259877 
L 591.816289 210.937688 
L 593.070088 242.963044 
L 594.323887 208.315951 
L 595.577686 204.30959 
L 596.831484 211.654519 
L 598.085283 237.190051 
L 599.339082 207.84144 
L 600.592881 204.380521 
L 601.84668 212.426853 
L 603.100479 232.998415 
L 604.354277 207.401057 
L 605.608076 204.471956 
L 606.861875 213.259902 
L 608.115674 229.712731 
L 609.369473 206.992913 
L 610.623271 204.584228 
L 611.87707 214.159885 
L 613.130869 227.018214 
L 614.384668 206.615433 
L 615.638467 204.717339 
L 618.146064 224.741702 
L 619.399863 206.267223 
L 620.653662 204.871152 
L 621.907461 216.189724 
L 623.16126 222.778581 
L 624.415059 205.947112 
L 625.668857 205.045177 
L 626.922656 217.335293 
L 628.176455 221.062727 
L 629.430254 205.654348 
L 630.684053 205.237753 
L 631.937852 218.572573 
L 633.19165 219.56057 
L 634.445449 205.396998 
L 635.699248 205.456202 
L 636.953047 219.913888 
L 638.206846 218.262034 
L 639.460645 205.192024 
L 640.714443 205.728632 
L 641.968242 221.475848 
L 643.222041 217.041877 
L 644.47584 205.002637 
L 645.729639 206.028098 
L 646.983437 223.250712 
L 648.237236 215.918104 
L 649.491035 204.833004 
L 650.744834 206.354687 
L 651.998633 225.28435 
L 654.50623 204.684003 
L 655.760029 206.709284 
L 657.013828 227.650398 
L 658.267627 213.930014 
L 659.521426 204.555885 
L 660.775225 207.092984 
L 662.029023 230.464693 
L 663.282822 213.049357 
L 664.536621 204.448671 
L 665.79042 207.506973 
L 667.044219 233.921203 
L 668.298018 212.234915 
L 669.551816 204.362247 
L 670.805615 207.951226 
L 672.059414 238.371418 
L 673.313213 211.482246 
L 674.567012 204.295842 
L 675.820811 208.426523 
L 677.074609 244.568513 
L 678.328408 210.793862 
L 679.582207 204.255233 
L 680.836006 208.935974 
L 682.089805 254.750595 
L 683.343604 210.179735 
L 684.597402 204.252074 
L 685.851201 209.46868 
L 685.851201 209.46868 
" style="fill:none;stroke:#ff0000;stroke-linecap:square;stroke-width:1.5;"/>
   </g>
   <g id="line2d_30">
    <path clip-path="url(#pb5f01f8561)" d="M 45.16 43.463279 
L 48.369725 43.463279 
" style="fill:none;stroke:#0000ff;stroke-dasharray:3.7,1.6;stroke-dashoffset:0;"/>
   </g>
   <g id="line2d_31">
    <path clip-path="url(#pb5f01f8561)" d="M 45.16 43.475839 
L 48.369725 43.475839 
" style="fill:none;stroke:#0000ff;stroke-dasharray:3.7,1.6;stroke-dashoffset:0;"/>
   </g>
   <g id="line2d_32">
    <path clip-path="url(#pb5f01f8561)" d="M 50.509542 204.168726 
L 687.105 204.168726 
" style="fill:none;stroke:#0000ff;stroke-dasharray:3.7,1.6;stroke-dashoffset:0;"/>
   </g>
   <g id="patch_3">
    <path d="M 45.16 260.12 
L 45.16 37.968 
" style="fill:none;stroke:#000000;stroke-linecap:square;stroke-linejoin:miter;stroke-width:0.8;"/>
   </g>
   <g id="patch_4">
    <path d="M 687.105 260.12 
L 687.105 37.968 
" style="fill:none;stroke:#000000;stroke-linecap:square;stroke-linejoin:miter;stroke-width:0.8;"/>
   </g>
   <g id="patch_5">
    <path d="M 45.16 260.12 
L 687.105 260.12 
" style="fill:none;stroke:#000000;stroke-linecap:square;stroke-linejoin:miter;stroke-width:0.8;"/>
   </g>
   <g id="patch_6">
    <path d="M 45.16 37.968 
L 687.105 37.968 
" style="fill:none;stroke:#000000;stroke-linecap:square;stroke-linejoin:miter;stroke-width:0.8;"/>
   </g>
   <g id="text_15">
    <!-- Just Filter the Damn Thing - Frequency Reponse -->
    <defs>
     <path d="M 9.8125 72.90625 
L 19.671875 72.90625 
L 19.671875 5.078125 
Q 19.671875 -8.109375 14.671875 -14.0625 
Q 9.671875 -20.015625 -1.421875 -20.015625 
L -5.171875 -20.015625 
L -5.171875 -11.71875 
L -2.09375 -11.71875 
Q 4.4375 -11.71875 7.125 -8.046875 
Q 9.8125 -4.390625 9.8125 5.078125 
z
" id="DejaVuSans-74"/>
     <path d="M 8.5 21.578125 
L 8.5 54.6875 
L 17.484375 54.6875 
L 17.484375 21.921875 
Q 17.484375 14.15625 20.5 10.265625 
Q 23.53125 6.390625 29.59375 6.390625 
Q 36.859375 6.390625 41.078125 11.03125 
Q 45.3125 15.671875 45.3125 23.6875 
L 45.3125 54.6875 
L 54.296875 54.6875 
L 54.296875 0 
L 45.3125 0 
L 45.3125 8.40625 
Q 42.046875 3.421875 37.71875 1 
Q 33.40625 -1.421875 27.6875 -1.421875 
Q 18.265625 -1.421875 13.375 4.4375 
Q 8.5 10.296875 8.5 21.578125 
z
M 31.109375 56 
z
" id="DejaVuSans-117"/>
     <path d="M 44.28125 53.078125 
L 44.28125 44.578125 
Q 40.484375 46.53125 36.375 47.5 
Q 32.28125 48.484375 27.875 48.484375 
Q 21.1875 48.484375 17.84375 46.4375 
Q 14.5 44.390625 14.5 40.28125 
Q 14.5 37.15625 16.890625 35.375 
Q 19.28125 33.59375 26.515625 31.984375 
L 29.59375 31.296875 
Q 39.15625 29.25 43.1875 25.515625 
Q 47.21875 21.78125 47.21875 15.09375 
Q 47.21875 7.46875 41.1875 3.015625 
Q 35.15625 -1.421875 24.609375 -1.421875 
Q 20.21875 -1.421875 15.453125 -0.5625 
Q 10.6875 0.296875 5.421875 2 
L 5.421875 11.28125 
Q 10.40625 8.6875 15.234375 7.390625 
Q 20.0625 6.109375 24.8125 6.109375 
Q 31.15625 6.109375 34.5625 8.28125 
Q 37.984375 10.453125 37.984375 14.40625 
Q 37.984375 18.0625 35.515625 20.015625 
Q 33.0625 21.96875 24.703125 23.78125 
L 21.578125 24.515625 
Q 13.234375 26.265625 9.515625 29.90625 
Q 5.8125 33.546875 5.8125 39.890625 
Q 5.8125 47.609375 11.28125 51.796875 
Q 16.75 56 26.8125 56 
Q 31.78125 56 36.171875 55.265625 
Q 40.578125 54.546875 44.28125 53.078125 
z
" id="DejaVuSans-115"/>
     <path d="M 18.3125 70.21875 
L 18.3125 54.6875 
L 36.8125 54.6875 
L 36.8125 47.703125 
L 18.3125 47.703125 
L 18.3125 18.015625 
Q 18.3125 11.328125 20.140625 9.421875 
Q 21.96875 7.515625 27.59375 7.515625 
L 36.8125 7.515625 
L 36.8125 0 
L 27.59375 0 
Q 17.1875 0 13.234375 3.875 
Q 9.28125 7.765625 9.28125 18.015625 
L 9.28125 47.703125 
L 2.6875 47.703125 
L 2.6875 54.6875 
L 9.28125 54.6875 
L 9.28125 70.21875 
z
" id="DejaVuSans-116"/>
     <path id="DejaVuSans-32"/>
     <path d="M 9.8125 72.90625 
L 51.703125 72.90625 
L 51.703125 64.59375 
L 19.671875 64.59375 
L 19.671875 43.109375 
L 48.578125 43.109375 
L 48.578125 34.8125 
L 19.671875 34.8125 
L 19.671875 0 
L 9.8125 0 
z
" id="DejaVuSans-70"/>
     <path d="M 9.421875 54.6875 
L 18.40625 54.6875 
L 18.40625 0 
L 9.421875 0 
z
M 9.421875 75.984375 
L 18.40625 75.984375 
L 18.40625 64.59375 
L 9.421875 64.59375 
z
" id="DejaVuSans-105"/>
     <path d="M 9.421875 75.984375 
L 18.40625 75.984375 
L 18.40625 0 
L 9.421875 0 
z
" id="DejaVuSans-108"/>
     <path d="M 56.203125 29.59375 
L 56.203125 25.203125 
L 14.890625 25.203125 
Q 15.484375 15.921875 20.484375 11.0625 
Q 25.484375 6.203125 34.421875 6.203125 
Q 39.59375 6.203125 44.453125 7.46875 
Q 49.3125 8.734375 54.109375 11.28125 
L 54.109375 2.78125 
Q 49.265625 0.734375 44.1875 -0.34375 
Q 39.109375 -1.421875 33.890625 -1.421875 
Q 20.796875 -1.421875 13.15625 6.1875 
Q 5.515625 13.8125 5.515625 26.8125 
Q 5.515625 40.234375 12.765625 48.109375 
Q 20.015625 56 32.328125 56 
Q 43.359375 56 49.78125 48.890625 
Q 56.203125 41.796875 56.203125 29.59375 
z
M 47.21875 32.234375 
Q 47.125 39.59375 43.09375 43.984375 
Q 39.0625 48.390625 32.421875 48.390625 
Q 24.90625 48.390625 20.390625 44.140625 
Q 15.875 39.890625 15.1875 32.171875 
z
" id="DejaVuSans-101"/>
     <path d="M 41.109375 46.296875 
Q 39.59375 47.171875 37.8125 47.578125 
Q 36.03125 48 33.890625 48 
Q 26.265625 48 22.1875 43.046875 
Q 18.109375 38.09375 18.109375 28.8125 
L 18.109375 0 
L 9.078125 0 
L 9.078125 54.6875 
L 18.109375 54.6875 
L 18.109375 46.1875 
Q 20.953125 51.171875 25.484375 53.578125 
Q 30.03125 56 36.53125 56 
Q 37.453125 56 38.578125 55.875 
Q 39.703125 55.765625 41.0625 55.515625 
z
" id="DejaVuSans-114"/>
     <path d="M 54.890625 33.015625 
L 54.890625 0 
L 45.90625 0 
L 45.90625 32.71875 
Q 45.90625 40.484375 42.875 44.328125 
Q 39.84375 48.1875 33.796875 48.1875 
Q 26.515625 48.1875 22.3125 43.546875 
Q 18.109375 38.921875 18.109375 30.90625 
L 18.109375 0 
L 9.078125 0 
L 9.078125 75.984375 
L 18.109375 75.984375 
L 18.109375 46.1875 
Q 21.34375 51.125 25.703125 53.5625 
Q 30.078125 56 35.796875 56 
Q 45.21875 56 50.046875 50.171875 
Q 54.890625 44.34375 54.890625 33.015625 
z
" id="DejaVuSans-104"/>
     <path d="M 19.671875 64.796875 
L 19.671875 8.109375 
L 31.59375 8.109375 
Q 46.6875 8.109375 53.6875 14.9375 
Q 60.6875 21.78125 60.6875 36.53125 
Q 60.6875 51.171875 53.6875 57.984375 
Q 46.6875 64.796875 31.59375 64.796875 
z
M 9.8125 72.90625 
L 30.078125 72.90625 
Q 51.265625 72.90625 61.171875 64.09375 
Q 71.09375 55.28125 71.09375 36.53125 
Q 71.09375 17.671875 61.125 8.828125 
Q 51.171875 0 30.078125 0 
L 9.8125 0 
z
" id="DejaVuSans-68"/>
     <path d="M 34.28125 27.484375 
Q 23.390625 27.484375 19.1875 25 
Q 14.984375 22.515625 14.984375 16.5 
Q 14.984375 11.71875 18.140625 8.90625 
Q 21.296875 6.109375 26.703125 6.109375 
Q 34.1875 6.109375 38.703125 11.40625 
Q 43.21875 16.703125 43.21875 25.484375 
L 43.21875 27.484375 
z
M 52.203125 31.203125 
L 52.203125 0 
L 43.21875 0 
L 43.21875 8.296875 
Q 40.140625 3.328125 35.546875 0.953125 
Q 30.953125 -1.421875 24.3125 -1.421875 
Q 15.921875 -1.421875 10.953125 3.296875 
Q 6 8.015625 6 15.921875 
Q 6 25.140625 12.171875 29.828125 
Q 18.359375 34.515625 30.609375 34.515625 
L 43.21875 34.515625 
L 43.21875 35.40625 
Q 43.21875 41.609375 39.140625 45 
Q 35.0625 48.390625 27.6875 48.390625 
Q 23 48.390625 18.546875 47.265625 
Q 14.109375 46.140625 10.015625 43.890625 
L 10.015625 52.203125 
Q 14.9375 54.109375 19.578125 55.046875 
Q 24.21875 56 28.609375 56 
Q 40.484375 56 46.34375 49.84375 
Q 52.203125 43.703125 52.203125 31.203125 
z
" id="DejaVuSans-97"/>
     <path d="M 52 44.1875 
Q 55.375 50.25 60.0625 53.125 
Q 64.75 56 71.09375 56 
Q 79.640625 56 84.28125 50.015625 
Q 88.921875 44.046875 88.921875 33.015625 
L 88.921875 0 
L 79.890625 0 
L 79.890625 32.71875 
Q 79.890625 40.578125 77.09375 44.375 
Q 74.3125 48.1875 68.609375 48.1875 
Q 61.625 48.1875 57.5625 43.546875 
Q 53.515625 38.921875 53.515625 30.90625 
L 53.515625 0 
L 44.484375 0 
L 44.484375 32.71875 
Q 44.484375 40.625 41.703125 44.40625 
Q 38.921875 48.1875 33.109375 48.1875 
Q 26.21875 48.1875 22.15625 43.53125 
Q 18.109375 38.875 18.109375 30.90625 
L 18.109375 0 
L 9.078125 0 
L 9.078125 54.6875 
L 18.109375 54.6875 
L 18.109375 46.1875 
Q 21.1875 51.21875 25.484375 53.609375 
Q 29.78125 56 35.6875 56 
Q 41.65625 56 45.828125 52.96875 
Q 50 49.953125 52 44.1875 
z
" id="DejaVuSans-109"/>
     <path d="M 54.890625 33.015625 
L 54.890625 0 
L 45.90625 0 
L 45.90625 32.71875 
Q 45.90625 40.484375 42.875 44.328125 
Q 39.84375 48.1875 33.796875 48.1875 
Q 26.515625 48.1875 22.3125 43.546875 
Q 18.109375 38.921875 18.109375 30.90625 
L 18.109375 0 
L 9.078125 0 
L 9.078125 54.6875 
L 18.109375 54.6875 
L 18.109375 46.1875 
Q 21.34375 51.125 25.703125 53.5625 
Q 30.078125 56 35.796875 56 
Q 45.21875 56 50.046875 50.171875 
Q 54.890625 44.34375 54.890625 33.015625 
z
" id="DejaVuSans-110"/>
     <path d="M -0.296875 72.90625 
L 61.375 72.90625 
L 61.375 64.59375 
L 35.5 64.59375 
L 35.5 0 
L 25.59375 0 
L 25.59375 64.59375 
L -0.296875 64.59375 
z
" id="DejaVuSans-84"/>
     <path d="M 45.40625 27.984375 
Q 45.40625 37.75 41.375 43.109375 
Q 37.359375 48.484375 30.078125 48.484375 
Q 22.859375 48.484375 18.828125 43.109375 
Q 14.796875 37.75 14.796875 27.984375 
Q 14.796875 18.265625 18.828125 12.890625 
Q 22.859375 7.515625 30.078125 7.515625 
Q 37.359375 7.515625 41.375 12.890625 
Q 45.40625 18.265625 45.40625 27.984375 
z
M 54.390625 6.78125 
Q 54.390625 -7.171875 48.1875 -13.984375 
Q 42 -20.796875 29.203125 -20.796875 
Q 24.46875 -20.796875 20.265625 -20.09375 
Q 16.0625 -19.390625 12.109375 -17.921875 
L 12.109375 -9.1875 
Q 16.0625 -11.328125 19.921875 -12.34375 
Q 23.78125 -13.375 27.78125 -13.375 
Q 36.625 -13.375 41.015625 -8.765625 
Q 45.40625 -4.15625 45.40625 5.171875 
L 45.40625 9.625 
Q 42.625 4.78125 38.28125 2.390625 
Q 33.9375 0 27.875 0 
Q 17.828125 0 11.671875 7.65625 
Q 5.515625 15.328125 5.515625 27.984375 
Q 5.515625 40.671875 11.671875 48.328125 
Q 17.828125 56 27.875 56 
Q 33.9375 56 38.28125 53.609375 
Q 42.625 51.21875 45.40625 46.390625 
L 45.40625 54.6875 
L 54.390625 54.6875 
z
" id="DejaVuSans-103"/>
     <path d="M 4.890625 31.390625 
L 31.203125 31.390625 
L 31.203125 23.390625 
L 4.890625 23.390625 
z
" id="DejaVuSans-45"/>
     <path d="M 14.796875 27.296875 
Q 14.796875 17.390625 18.875 11.75 
Q 22.953125 6.109375 30.078125 6.109375 
Q 37.203125 6.109375 41.296875 11.75 
Q 45.40625 17.390625 45.40625 27.296875 
Q 45.40625 37.203125 41.296875 42.84375 
Q 37.203125 48.484375 30.078125 48.484375 
Q 22.953125 48.484375 18.875 42.84375 
Q 14.796875 37.203125 14.796875 27.296875 
z
M 45.40625 8.203125 
Q 42.578125 3.328125 38.25 0.953125 
Q 33.9375 -1.421875 27.875 -1.421875 
Q 17.96875 -1.421875 11.734375 6.484375 
Q 5.515625 14.40625 5.515625 27.296875 
Q 5.515625 40.1875 11.734375 48.09375 
Q 17.96875 56 27.875 56 
Q 33.9375 56 38.25 53.625 
Q 42.578125 51.265625 45.40625 46.390625 
L 45.40625 54.6875 
L 54.390625 54.6875 
L 54.390625 -20.796875 
L 45.40625 -20.796875 
z
" id="DejaVuSans-113"/>
     <path d="M 48.78125 52.59375 
L 48.78125 44.1875 
Q 44.96875 46.296875 41.140625 47.34375 
Q 37.3125 48.390625 33.40625 48.390625 
Q 24.65625 48.390625 19.8125 42.84375 
Q 14.984375 37.3125 14.984375 27.296875 
Q 14.984375 17.28125 19.8125 11.734375 
Q 24.65625 6.203125 33.40625 6.203125 
Q 37.3125 6.203125 41.140625 7.25 
Q 44.96875 8.296875 48.78125 10.40625 
L 48.78125 2.09375 
Q 45.015625 0.34375 40.984375 -0.53125 
Q 36.96875 -1.421875 32.421875 -1.421875 
Q 20.0625 -1.421875 12.78125 6.34375 
Q 5.515625 14.109375 5.515625 27.296875 
Q 5.515625 40.671875 12.859375 48.328125 
Q 20.21875 56 33.015625 56 
Q 37.15625 56 41.109375 55.140625 
Q 45.0625 54.296875 48.78125 52.59375 
z
" id="DejaVuSans-99"/>
     <path d="M 32.171875 -5.078125 
Q 28.375 -14.84375 24.75 -17.8125 
Q 21.140625 -20.796875 15.09375 -20.796875 
L 7.90625 -20.796875 
L 7.90625 -13.28125 
L 13.1875 -13.28125 
Q 16.890625 -13.28125 18.9375 -11.515625 
Q 21 -9.765625 23.484375 -3.21875 
L 25.09375 0.875 
L 2.984375 54.6875 
L 12.5 54.6875 
L 29.59375 11.921875 
L 46.6875 54.6875 
L 56.203125 54.6875 
z
" id="DejaVuSans-121"/>
     <path d="M 44.390625 34.1875 
Q 47.5625 33.109375 50.5625 29.59375 
Q 53.5625 26.078125 56.59375 19.921875 
L 66.609375 0 
L 56 0 
L 46.6875 18.703125 
Q 43.0625 26.03125 39.671875 28.421875 
Q 36.28125 30.8125 30.421875 30.8125 
L 19.671875 30.8125 
L 19.671875 0 
L 9.8125 0 
L 9.8125 72.90625 
L 32.078125 72.90625 
Q 44.578125 72.90625 50.734375 67.671875 
Q 56.890625 62.453125 56.890625 51.90625 
Q 56.890625 45.015625 53.6875 40.46875 
Q 50.484375 35.9375 44.390625 34.1875 
z
M 19.671875 64.796875 
L 19.671875 38.921875 
L 32.078125 38.921875 
Q 39.203125 38.921875 42.84375 42.21875 
Q 46.484375 45.515625 46.484375 51.90625 
Q 46.484375 58.296875 42.84375 61.546875 
Q 39.203125 64.796875 32.078125 64.796875 
z
" id="DejaVuSans-82"/>
     <path d="M 18.109375 8.203125 
L 18.109375 -20.796875 
L 9.078125 -20.796875 
L 9.078125 54.6875 
L 18.109375 54.6875 
L 18.109375 46.390625 
Q 20.953125 51.265625 25.265625 53.625 
Q 29.59375 56 35.59375 56 
Q 45.5625 56 51.78125 48.09375 
Q 58.015625 40.1875 58.015625 27.296875 
Q 58.015625 14.40625 51.78125 6.484375 
Q 45.5625 -1.421875 35.59375 -1.421875 
Q 29.59375 -1.421875 25.265625 0.953125 
Q 20.953125 3.328125 18.109375 8.203125 
z
M 48.6875 27.296875 
Q 48.6875 37.203125 44.609375 42.84375 
Q 40.53125 48.484375 33.40625 48.484375 
Q 26.265625 48.484375 22.1875 42.84375 
Q 18.109375 37.203125 18.109375 27.296875 
Q 18.109375 17.390625 22.1875 11.75 
Q 26.265625 6.109375 33.40625 6.109375 
Q 40.53125 6.109375 44.609375 11.75 
Q 48.6875 17.390625 48.6875 27.296875 
z
" id="DejaVuSans-112"/>
     <path d="M 30.609375 48.390625 
Q 23.390625 48.390625 19.1875 42.75 
Q 14.984375 37.109375 14.984375 27.296875 
Q 14.984375 17.484375 19.15625 11.84375 
Q 23.34375 6.203125 30.609375 6.203125 
Q 37.796875 6.203125 41.984375 11.859375 
Q 46.1875 17.53125 46.1875 27.296875 
Q 46.1875 37.015625 41.984375 42.703125 
Q 37.796875 48.390625 30.609375 48.390625 
z
M 30.609375 56 
Q 42.328125 56 49.015625 48.375 
Q 55.71875 40.765625 55.71875 27.296875 
Q 55.71875 13.875 49.015625 6.21875 
Q 42.328125 -1.421875 30.609375 -1.421875 
Q 18.84375 -1.421875 12.171875 6.21875 
Q 5.515625 13.875 5.515625 27.296875 
Q 5.515625 40.765625 12.171875 48.375 
Q 18.84375 56 30.609375 56 
z
" id="DejaVuSans-111"/>
    </defs>
    <g transform="translate(222.23 18.530625)scale(0.12 -0.12)">
     <use xlink:href="#DejaVuSans-74"/>
     <use x="29.492188" xlink:href="#DejaVuSans-117"/>
     <use x="92.871094" xlink:href="#DejaVuSans-115"/>
     <use x="144.970703" xlink:href="#DejaVuSans-116"/>
     <use x="184.179688" xlink:href="#DejaVuSans-32"/>
     <use x="215.966797" xlink:href="#DejaVuSans-70"/>
     <use x="273.376953" xlink:href="#DejaVuSans-105"/>
     <use x="301.160156" xlink:href="#DejaVuSans-108"/>
     <use x="328.943359" xlink:href="#DejaVuSans-116"/>
     <use x="368.152344" xlink:href="#DejaVuSans-101"/>
     <use x="429.675781" xlink:href="#DejaVuSans-114"/>
     <use x="470.789062" xlink:href="#DejaVuSans-32"/>
     <use x="502.576172" xlink:href="#DejaVuSans-116"/>
     <use x="541.785156" xlink:href="#DejaVuSans-104"/>
     <use x="605.164062" xlink:href="#DejaVuSans-101"/>
     <use x="666.6875" xlink:href="#DejaVuSans-32"/>
     <use x="698.474609" xlink:href="#DejaVuSans-68"/>
     <use x="775.476562" xlink:href="#DejaVuSans-97"/>
     <use x="836.755859" xlink:href="#DejaVuSans-109"/>
     <use x="934.167969" xlink:href="#DejaVuSans-110"/>
     <use x="997.546875" xlink:href="#DejaVuSans-32"/>
     <use x="1029.333984" xlink:href="#DejaVuSans-84"/>
     <use x="1090.417969" xlink:href="#DejaVuSans-104"/>
     <use x="1153.796875" xlink:href="#DejaVuSans-105"/>
     <use x="1181.580078" xlink:href="#DejaVuSans-110"/>
     <use x="1244.958984" xlink:href="#DejaVuSans-103"/>
     <use x="1308.435547" xlink:href="#DejaVuSans-32"/>
     <use x="1340.222656" xlink:href="#DejaVuSans-45"/>
     <use x="1376.306641" xlink:href="#DejaVuSans-32"/>
     <use x="1408.09375" xlink:href="#DejaVuSans-70"/>
     <use x="1465.503906" xlink:href="#DejaVuSans-114"/>
     <use x="1506.585938" xlink:href="#DejaVuSans-101"/>
     <use x="1568.109375" xlink:href="#DejaVuSans-113"/>
     <use x="1631.585938" xlink:href="#DejaVuSans-117"/>
     <use x="1694.964844" xlink:href="#DejaVuSans-101"/>
     <use x="1756.488281" xlink:href="#DejaVuSans-110"/>
     <use x="1819.867188" xlink:href="#DejaVuSans-99"/>
     <use x="1874.847656" xlink:href="#DejaVuSans-121"/>
     <use x="1934.027344" xlink:href="#DejaVuSans-32"/>
     <use x="1965.814453" xlink:href="#DejaVuSans-82"/>
     <use x="2035.234375" xlink:href="#DejaVuSans-101"/>
     <use x="2096.757812" xlink:href="#DejaVuSans-112"/>
     <use x="2160.234375" xlink:href="#DejaVuSans-111"/>
     <use x="2221.416016" xlink:href="#DejaVuSans-110"/>
     <use x="2284.794922" xlink:href="#DejaVuSans-115"/>
     <use x="2336.894531" xlink:href="#DejaVuSans-101"/>
    </g>
    <!-- 2308 Taps -->
    <defs>
     <path d="M 40.578125 39.3125 
Q 47.65625 37.796875 51.625 33 
Q 55.609375 28.21875 55.609375 21.1875 
Q 55.609375 10.40625 48.1875 4.484375 
Q 40.765625 -1.421875 27.09375 -1.421875 
Q 22.515625 -1.421875 17.65625 -0.515625 
Q 12.796875 0.390625 7.625 2.203125 
L 7.625 11.71875 
Q 11.71875 9.328125 16.59375 8.109375 
Q 21.484375 6.890625 26.8125 6.890625 
Q 36.078125 6.890625 40.9375 10.546875 
Q 45.796875 14.203125 45.796875 21.1875 
Q 45.796875 27.640625 41.28125 31.265625 
Q 36.765625 34.90625 28.71875 34.90625 
L 20.21875 34.90625 
L 20.21875 43.015625 
L 29.109375 43.015625 
Q 36.375 43.015625 40.234375 45.921875 
Q 44.09375 48.828125 44.09375 54.296875 
Q 44.09375 59.90625 40.109375 62.90625 
Q 36.140625 65.921875 28.71875 65.921875 
Q 24.65625 65.921875 20.015625 65.03125 
Q 15.375 64.15625 9.8125 62.3125 
L 9.8125 71.09375 
Q 15.4375 72.65625 20.34375 73.4375 
Q 25.25 74.21875 29.59375 74.21875 
Q 40.828125 74.21875 47.359375 69.109375 
Q 53.90625 64.015625 53.90625 55.328125 
Q 53.90625 49.265625 50.4375 45.09375 
Q 46.96875 40.921875 40.578125 39.3125 
z
" id="DejaVuSans-51"/>
    </defs>
    <g transform="translate(334.694375 31.968)scale(0.12 -0.12)">
     <use xlink:href="#DejaVuSans-50"/>
     <use x="63.623047" xlink:href="#DejaVuSans-51"/>
     <use x="127.246094" xlink:href="#DejaVuSans-48"/>
     <use x="190.869141" xlink:href="#DejaVuSans-56"/>
     <use x="254.492188" xlink:href="#DejaVuSans-32"/>
     <use x="286.279297" xlink:href="#DejaVuSans-84"/>
     <use x="347.113281" xlink:href="#DejaVuSans-97"/>
     <use x="408.392578" xlink:href="#DejaVuSans-112"/>
     <use x="471.869141" xlink:href="#DejaVuSans-115"/>
    </g>
   </g>
  </g>
 </g>
 <defs>
  <clipPath id="pb5f01f8561">
   <rect height="222.152" width="641.945" x="45.16" y="37.968"/>
  </clipPath>
 </defs>
</svg>
