<?xml version="1.0" encoding="utf-8" standalone="no"?>
<!DOCTYPE svg PUBLIC "-//W3C//DTD SVG 1.1//EN"
  "http://www.w3.org/Graphics/SVG/1.1/DTD/svg11.dtd">
<!-- Created with matplotlib (https://matplotlib.org/) -->
<svg height="288pt" version="1.1" viewBox="0 0 720 288" width="720pt" xmlns="http://www.w3.org/2000/svg" xmlns:xlink="http://www.w3.org/1999/xlink">
 <defs>
  <style type="text/css">
*{stroke-linecap:butt;stroke-linejoin:round;}
  </style>
 </defs>
 <g id="figure_1">
  <g id="patch_1">
   <path d="M 0 288 
L 720 288 
L 720 0 
L 0 0 
z
" style="fill:#ffffff;"/>
  </g>
  <g id="axes_1">
   <g id="patch_2">
    <path d="M 38.86 260.12 
L 709.2 260.12 
L 709.2 37.968 
L 38.86 37.968 
z
" style="fill:#ffffff;"/>
   </g>
   <g id="matplotlib.axis_1">
    <g id="xtick_1">
     <g id="line2d_1">
      <path clip-path="url(#p7d26d70d4a)" d="M 38.86 260.12 
L 38.86 37.968 
" style="fill:none;stroke:#b0b0b0;stroke-linecap:square;stroke-width:0.8;"/>
     </g>
     <g id="line2d_2">
      <defs>
       <path d="M 0 0 
L 0 3.5 
" id="m95c142e67d" style="stroke:#000000;stroke-width:0.8;"/>
      </defs>
      <g>
       <use style="stroke:#000000;stroke-width:0.8;" x="38.86" xlink:href="#m95c142e67d" y="260.12"/>
      </g>
     </g>
     <g id="text_1">
      <!-- 0 -->
      <defs>
       <path d="M 31.78125 66.40625 
Q 24.171875 66.40625 20.328125 58.90625 
Q 16.5 51.421875 16.5 36.375 
Q 16.5 21.390625 20.328125 13.890625 
Q 24.171875 6.390625 31.78125 6.390625 
Q 39.453125 6.390625 43.28125 13.890625 
Q 47.125 21.390625 47.125 36.375 
Q 47.125 51.421875 43.28125 58.90625 
Q 39.453125 66.40625 31.78125 66.40625 
z
M 31.78125 74.21875 
Q 44.046875 74.21875 50.515625 64.515625 
Q 56.984375 54.828125 56.984375 36.375 
Q 56.984375 17.96875 50.515625 8.265625 
Q 44.046875 -1.421875 31.78125 -1.421875 
Q 19.53125 -1.421875 13.0625 8.265625 
Q 6.59375 17.96875 6.59375 36.375 
Q 6.59375 54.828125 13.0625 64.515625 
Q 19.53125 74.21875 31.78125 74.21875 
z
" id="DejaVuSans-48"/>
      </defs>
      <g transform="translate(35.67875 274.718437)scale(0.1 -0.1)">
       <use xlink:href="#DejaVuSans-48"/>
      </g>
     </g>
    </g>
    <g id="xtick_2">
     <g id="line2d_3">
      <path clip-path="url(#p7d26d70d4a)" d="M 178.514167 260.12 
L 178.514167 37.968 
" style="fill:none;stroke:#b0b0b0;stroke-linecap:square;stroke-width:0.8;"/>
     </g>
     <g id="line2d_4">
      <g>
       <use style="stroke:#000000;stroke-width:0.8;" x="178.514167" xlink:href="#m95c142e67d" y="260.12"/>
      </g>
     </g>
     <g id="text_2">
      <!-- 200000 -->
      <defs>
       <path d="M 19.1875 8.296875 
L 53.609375 8.296875 
L 53.609375 0 
L 7.328125 0 
L 7.328125 8.296875 
Q 12.9375 14.109375 22.625 23.890625 
Q 32.328125 33.6875 34.8125 36.53125 
Q 39.546875 41.84375 41.421875 45.53125 
Q 43.3125 49.21875 43.3125 52.78125 
Q 43.3125 58.59375 39.234375 62.25 
Q 35.15625 65.921875 28.609375 65.921875 
Q 23.96875 65.921875 18.8125 64.3125 
Q 13.671875 62.703125 7.8125 59.421875 
L 7.8125 69.390625 
Q 13.765625 71.78125 18.9375 73 
Q 24.125 74.21875 28.421875 74.21875 
Q 39.75 74.21875 46.484375 68.546875 
Q 53.21875 62.890625 53.21875 53.421875 
Q 53.21875 48.921875 51.53125 44.890625 
Q 49.859375 40.875 45.40625 35.40625 
Q 44.1875 33.984375 37.640625 27.21875 
Q 31.109375 20.453125 19.1875 8.296875 
z
" id="DejaVuSans-50"/>
      </defs>
      <g transform="translate(159.426667 274.718437)scale(0.1 -0.1)">
       <use xlink:href="#DejaVuSans-50"/>
       <use x="63.623047" xlink:href="#DejaVuSans-48"/>
       <use x="127.246094" xlink:href="#DejaVuSans-48"/>
       <use x="190.869141" xlink:href="#DejaVuSans-48"/>
       <use x="254.492188" xlink:href="#DejaVuSans-48"/>
       <use x="318.115234" xlink:href="#DejaVuSans-48"/>
      </g>
     </g>
    </g>
    <g id="xtick_3">
     <g id="line2d_5">
      <path clip-path="url(#p7d26d70d4a)" d="M 318.168333 260.12 
L 318.168333 37.968 
" style="fill:none;stroke:#b0b0b0;stroke-linecap:square;stroke-width:0.8;"/>
     </g>
     <g id="line2d_6">
      <g>
       <use style="stroke:#000000;stroke-width:0.8;" x="318.168333" xlink:href="#m95c142e67d" y="260.12"/>
      </g>
     </g>
     <g id="text_3">
      <!-- 400000 -->
      <defs>
       <path d="M 37.796875 64.3125 
L 12.890625 25.390625 
L 37.796875 25.390625 
z
M 35.203125 72.90625 
L 47.609375 72.90625 
L 47.609375 25.390625 
L 58.015625 25.390625 
L 58.015625 17.1875 
L 47.609375 17.1875 
L 47.609375 0 
L 37.796875 0 
L 37.796875 17.1875 
L 4.890625 17.1875 
L 4.890625 26.703125 
z
" id="DejaVuSans-52"/>
      </defs>
      <g transform="translate(299.080833 274.718437)scale(0.1 -0.1)">
       <use xlink:href="#DejaVuSans-52"/>
       <use x="63.623047" xlink:href="#DejaVuSans-48"/>
       <use x="127.246094" xlink:href="#DejaVuSans-48"/>
       <use x="190.869141" xlink:href="#DejaVuSans-48"/>
       <use x="254.492188" xlink:href="#DejaVuSans-48"/>
       <use x="318.115234" xlink:href="#DejaVuSans-48"/>
      </g>
     </g>
    </g>
    <g id="xtick_4">
     <g id="line2d_7">
      <path clip-path="url(#p7d26d70d4a)" d="M 457.8225 260.12 
L 457.8225 37.968 
" style="fill:none;stroke:#b0b0b0;stroke-linecap:square;stroke-width:0.8;"/>
     </g>
     <g id="line2d_8">
      <g>
       <use style="stroke:#000000;stroke-width:0.8;" x="457.8225" xlink:href="#m95c142e67d" y="260.12"/>
      </g>
     </g>
     <g id="text_4">
      <!-- 600000 -->
      <defs>
       <path d="M 33.015625 40.375 
Q 26.375 40.375 22.484375 35.828125 
Q 18.609375 31.296875 18.609375 23.390625 
Q 18.609375 15.53125 22.484375 10.953125 
Q 26.375 6.390625 33.015625 6.390625 
Q 39.65625 6.390625 43.53125 10.953125 
Q 47.40625 15.53125 47.40625 23.390625 
Q 47.40625 31.296875 43.53125 35.828125 
Q 39.65625 40.375 33.015625 40.375 
z
M 52.59375 71.296875 
L 52.59375 62.3125 
Q 48.875 64.0625 45.09375 64.984375 
Q 41.3125 65.921875 37.59375 65.921875 
Q 27.828125 65.921875 22.671875 59.328125 
Q 17.53125 52.734375 16.796875 39.40625 
Q 19.671875 43.65625 24.015625 45.921875 
Q 28.375 48.1875 33.59375 48.1875 
Q 44.578125 48.1875 50.953125 41.515625 
Q 57.328125 34.859375 57.328125 23.390625 
Q 57.328125 12.15625 50.6875 5.359375 
Q 44.046875 -1.421875 33.015625 -1.421875 
Q 20.359375 -1.421875 13.671875 8.265625 
Q 6.984375 17.96875 6.984375 36.375 
Q 6.984375 53.65625 15.1875 63.9375 
Q 23.390625 74.21875 37.203125 74.21875 
Q 40.921875 74.21875 44.703125 73.484375 
Q 48.484375 72.75 52.59375 71.296875 
z
" id="DejaVuSans-54"/>
      </defs>
      <g transform="translate(438.735 274.718437)scale(0.1 -0.1)">
       <use xlink:href="#DejaVuSans-54"/>
       <use x="63.623047" xlink:href="#DejaVuSans-48"/>
       <use x="127.246094" xlink:href="#DejaVuSans-48"/>
       <use x="190.869141" xlink:href="#DejaVuSans-48"/>
       <use x="254.492188" xlink:href="#DejaVuSans-48"/>
       <use x="318.115234" xlink:href="#DejaVuSans-48"/>
      </g>
     </g>
    </g>
    <g id="xtick_5">
     <g id="line2d_9">
      <path clip-path="url(#p7d26d70d4a)" d="M 597.476667 260.12 
L 597.476667 37.968 
" style="fill:none;stroke:#b0b0b0;stroke-linecap:square;stroke-width:0.8;"/>
     </g>
     <g id="line2d_10">
      <g>
       <use style="stroke:#000000;stroke-width:0.8;" x="597.476667" xlink:href="#m95c142e67d" y="260.12"/>
      </g>
     </g>
     <g id="text_5">
      <!-- 800000 -->
      <defs>
       <path d="M 31.78125 34.625 
Q 24.75 34.625 20.71875 30.859375 
Q 16.703125 27.09375 16.703125 20.515625 
Q 16.703125 13.921875 20.71875 10.15625 
Q 24.75 6.390625 31.78125 6.390625 
Q 38.8125 6.390625 42.859375 10.171875 
Q 46.921875 13.96875 46.921875 20.515625 
Q 46.921875 27.09375 42.890625 30.859375 
Q 38.875 34.625 31.78125 34.625 
z
M 21.921875 38.8125 
Q 15.578125 40.375 12.03125 44.71875 
Q 8.5 49.078125 8.5 55.328125 
Q 8.5 64.0625 14.71875 69.140625 
Q 20.953125 74.21875 31.78125 74.21875 
Q 42.671875 74.21875 48.875 69.140625 
Q 55.078125 64.0625 55.078125 55.328125 
Q 55.078125 49.078125 51.53125 44.71875 
Q 48 40.375 41.703125 38.8125 
Q 48.828125 37.15625 52.796875 32.3125 
Q 56.78125 27.484375 56.78125 20.515625 
Q 56.78125 9.90625 50.3125 4.234375 
Q 43.84375 -1.421875 31.78125 -1.421875 
Q 19.734375 -1.421875 13.25 4.234375 
Q 6.78125 9.90625 6.78125 20.515625 
Q 6.78125 27.484375 10.78125 32.3125 
Q 14.796875 37.15625 21.921875 38.8125 
z
M 18.3125 54.390625 
Q 18.3125 48.734375 21.84375 45.5625 
Q 25.390625 42.390625 31.78125 42.390625 
Q 38.140625 42.390625 41.71875 45.5625 
Q 45.3125 48.734375 45.3125 54.390625 
Q 45.3125 60.0625 41.71875 63.234375 
Q 38.140625 66.40625 31.78125 66.40625 
Q 25.390625 66.40625 21.84375 63.234375 
Q 18.3125 60.0625 18.3125 54.390625 
z
" id="DejaVuSans-56"/>
      </defs>
      <g transform="translate(578.389167 274.718437)scale(0.1 -0.1)">
       <use xlink:href="#DejaVuSans-56"/>
       <use x="63.623047" xlink:href="#DejaVuSans-48"/>
       <use x="127.246094" xlink:href="#DejaVuSans-48"/>
       <use x="190.869141" xlink:href="#DejaVuSans-48"/>
       <use x="254.492188" xlink:href="#DejaVuSans-48"/>
       <use x="318.115234" xlink:href="#DejaVuSans-48"/>
      </g>
     </g>
    </g>
   </g>
   <g id="matplotlib.axis_2">
    <g id="ytick_1">
     <g id="line2d_11">
      <path clip-path="url(#p7d26d70d4a)" d="M 38.86 236.232688 
L 709.2 236.232688 
" style="fill:none;stroke:#b0b0b0;stroke-linecap:square;stroke-width:0.8;"/>
     </g>
     <g id="line2d_12">
      <defs>
       <path d="M 0 0 
L -3.5 0 
" id="mea681a7a39" style="stroke:#000000;stroke-width:0.8;"/>
      </defs>
      <g>
       <use style="stroke:#000000;stroke-width:0.8;" x="38.86" xlink:href="#mea681a7a39" y="236.232688"/>
      </g>
     </g>
     <g id="text_6">
      <!-- −80 -->
      <defs>
       <path d="M 10.59375 35.5 
L 73.1875 35.5 
L 73.1875 27.203125 
L 10.59375 27.203125 
z
" id="DejaVuSans-8722"/>
      </defs>
      <g transform="translate(10.755313 240.031907)scale(0.1 -0.1)">
       <use xlink:href="#DejaVuSans-8722"/>
       <use x="83.789062" xlink:href="#DejaVuSans-56"/>
       <use x="147.412109" xlink:href="#DejaVuSans-48"/>
      </g>
     </g>
    </g>
    <g id="ytick_2">
     <g id="line2d_13">
      <path clip-path="url(#p7d26d70d4a)" d="M 38.86 188.458065 
L 709.2 188.458065 
" style="fill:none;stroke:#b0b0b0;stroke-linecap:square;stroke-width:0.8;"/>
     </g>
     <g id="line2d_14">
      <g>
       <use style="stroke:#000000;stroke-width:0.8;" x="38.86" xlink:href="#mea681a7a39" y="188.458065"/>
      </g>
     </g>
     <g id="text_7">
      <!-- −60 -->
      <g transform="translate(10.755313 192.257283)scale(0.1 -0.1)">
       <use xlink:href="#DejaVuSans-8722"/>
       <use x="83.789062" xlink:href="#DejaVuSans-54"/>
       <use x="147.412109" xlink:href="#DejaVuSans-48"/>
      </g>
     </g>
    </g>
    <g id="ytick_3">
     <g id="line2d_15">
      <path clip-path="url(#p7d26d70d4a)" d="M 38.86 140.683441 
L 709.2 140.683441 
" style="fill:none;stroke:#b0b0b0;stroke-linecap:square;stroke-width:0.8;"/>
     </g>
     <g id="line2d_16">
      <g>
       <use style="stroke:#000000;stroke-width:0.8;" x="38.86" xlink:href="#mea681a7a39" y="140.683441"/>
      </g>
     </g>
     <g id="text_8">
      <!-- −40 -->
      <g transform="translate(10.755313 144.48266)scale(0.1 -0.1)">
       <use xlink:href="#DejaVuSans-8722"/>
       <use x="83.789062" xlink:href="#DejaVuSans-52"/>
       <use x="147.412109" xlink:href="#DejaVuSans-48"/>
      </g>
     </g>
    </g>
    <g id="ytick_4">
     <g id="line2d_17">
      <path clip-path="url(#p7d26d70d4a)" d="M 38.86 92.908817 
L 709.2 92.908817 
" style="fill:none;stroke:#b0b0b0;stroke-linecap:square;stroke-width:0.8;"/>
     </g>
     <g id="line2d_18">
      <g>
       <use style="stroke:#000000;stroke-width:0.8;" x="38.86" xlink:href="#mea681a7a39" y="92.908817"/>
      </g>
     </g>
     <g id="text_9">
      <!-- −20 -->
      <g transform="translate(10.755313 96.708036)scale(0.1 -0.1)">
       <use xlink:href="#DejaVuSans-8722"/>
       <use x="83.789062" xlink:href="#DejaVuSans-50"/>
       <use x="147.412109" xlink:href="#DejaVuSans-48"/>
      </g>
     </g>
    </g>
    <g id="ytick_5">
     <g id="line2d_19">
      <path clip-path="url(#p7d26d70d4a)" d="M 38.86 45.134194 
L 709.2 45.134194 
" style="fill:none;stroke:#b0b0b0;stroke-linecap:square;stroke-width:0.8;"/>
     </g>
     <g id="line2d_20">
      <g>
       <use style="stroke:#000000;stroke-width:0.8;" x="38.86" xlink:href="#mea681a7a39" y="45.134194"/>
      </g>
     </g>
     <g id="text_10">
      <!-- 0 -->
      <g transform="translate(25.4975 48.933412)scale(0.1 -0.1)">
       <use xlink:href="#DejaVuSans-48"/>
      </g>
     </g>
    </g>
   </g>
   <g id="line2d_21">
    <path clip-path="url(#p7d26d70d4a)" d="M 38.86 45.016585 
L 40.169258 45.239712 
L 42.787773 45.019302 
L 44.097031 54.957589 
L 45.406289 114.508208 
L 46.715547 192.781843 
L 48.024805 190.087587 
L 49.334063 208.321261 
L 50.64332 192.612238 
L 51.952578 193.542759 
L 53.261836 212.53133 
L 54.571094 188.545167 
L 55.880352 205.574054 
L 58.498867 189.376515 
L 59.808125 227.979735 
L 61.117383 192.347983 
L 62.426641 191.853954 
L 63.735898 235.684365 
L 65.045156 189.835078 
L 66.354414 195.665583 
L 67.663672 212.004912 
L 68.97293 188.715271 
L 70.282188 201.064978 
L 71.591445 202.465767 
L 72.900703 188.569689 
L 74.209961 209.00976 
L 75.519219 196.930604 
L 76.828477 189.293264 
L 78.137734 223.021407 
L 79.446992 193.310993 
L 80.75625 190.801623 
L 81.947464 289 
M 82.18368 289 
L 83.374766 190.918757 
L 84.684023 193.15079 
L 85.993281 224.586596 
L 87.302539 189.437517 
L 88.611797 196.521501 
L 89.921055 210.433696 
L 91.230312 188.702419 
L 92.53957 201.287056 
L 93.848828 202.632723 
L 95.158086 188.631997 
L 96.467344 208.27297 
L 97.776602 197.520766 
L 99.085859 189.199758 
L 100.395117 219.814594 
L 101.704375 193.97393 
L 103.013633 190.425264 
L 104.322891 250.133799 
L 105.632148 191.503761 
L 106.941406 192.37884 
L 108.250664 232.675656 
L 109.559922 189.861365 
L 110.86918 195.203037 
L 112.178438 214.558411 
L 113.487695 188.911534 
L 114.796953 199.167455 
L 116.106211 205.45053 
L 117.415469 188.58349 
L 118.724727 204.814337 
L 120.033984 199.603644 
L 121.343242 188.850153 
L 122.6525 213.438834 
L 123.961758 195.536711 
L 125.271016 189.721058 
L 126.580273 229.645909 
L 127.889531 192.64703 
L 129.198789 191.244672 
L 130.508047 262.110322 
L 131.817305 190.635882 
L 133.126563 193.521454 
L 134.43582 222.515627 
L 135.745078 189.340755 
L 137.054336 196.736112 
L 138.363594 210.061924 
L 139.672852 188.672216 
L 140.982109 201.235697 
L 142.291367 202.741447 
L 143.600625 188.58704 
L 144.909883 207.747702 
L 146.219141 197.791127 
L 147.528398 189.077138 
L 148.837656 218.197539 
L 150.146914 194.274078 
L 151.456172 190.167247 
L 152.76543 241.91549 
L 154.074688 191.767774 
L 155.383945 191.921404 
L 156.693203 238.821036 
L 158.002461 190.045013 
L 159.311719 194.45576 
L 160.620977 217.268251 
L 161.930234 188.996266 
L 164.54875 207.277501 
L 165.858008 188.548998 
L 167.167266 203.011415 
L 168.476523 200.96546 
L 169.785781 188.665425 
L 171.095039 210.400718 
L 172.404297 196.583596 
L 173.713555 189.352734 
L 175.022813 222.969939 
L 176.33207 193.44666 
L 177.641328 190.650141 
L 178.950586 263.585591 
L 180.259844 191.221711 
L 181.569102 192.639475 
L 182.878359 229.771709 
L 184.187617 189.728589 
L 185.496875 195.468989 
L 186.806133 213.71831 
L 188.115391 188.866737 
L 189.424648 199.408108 
L 190.733906 205.150486 
L 192.043164 188.584236 
L 193.352422 204.988535 
L 194.66168 199.530838 
L 195.970938 188.864495 
L 197.280195 213.461934 
L 198.589453 195.572923 
L 199.898711 189.722387 
L 201.207969 229.169426 
L 202.517227 192.733699 
L 203.826484 191.207771 
L 205.135742 267.428114 
L 206.445 190.738687 
L 207.754258 193.418297 
L 209.063516 223.542397 
L 210.372773 189.436813 
L 211.682031 196.529348 
L 212.991289 210.754152 
L 214.300547 188.744371 
L 215.609805 200.864711 
L 216.919063 203.288117 
L 218.22832 188.620822 
L 219.537578 207.088616 
L 222.156094 189.05877 
L 223.465352 216.892991 
L 224.774609 194.64968 
L 226.083867 190.082261 
L 227.393125 237.567899 
L 228.702383 192.073603 
L 230.011641 191.752494 
L 231.320898 243.942306 
L 232.630156 190.285539 
L 233.939414 194.183932 
L 235.248672 218.961405 
L 236.55793 189.158011 
L 237.867188 197.582747 
L 239.176445 208.280731 
L 240.485703 188.621531 
L 241.794961 202.334855 
L 243.104219 201.661336 
L 244.413477 188.64511 
L 245.722734 209.26904 
L 247.031992 197.088571 
L 248.34125 189.229145 
L 249.650508 220.696304 
L 250.959766 193.809085 
L 252.269023 190.405134 
L 253.578281 250.395886 
L 254.887539 191.46371 
L 256.196797 192.242239 
L 257.506055 233.959646 
L 258.815313 189.85932 
L 260.12457 194.858274 
L 261.433828 215.640221 
L 262.743086 188.913793 
L 264.052344 198.538378 
L 265.361602 206.386589 
L 266.670859 188.541583 
L 267.980117 203.713644 
L 269.289375 200.411181 
L 270.598633 188.721317 
L 271.907891 211.404775 
L 273.217148 196.22221 
L 274.526406 189.46457 
L 275.835664 224.77652 
L 277.144922 193.210614 
L 278.45418 190.814505 
L 279.763438 280.270946 
L 281.072695 191.073828 
L 282.381953 192.857147 
L 283.691211 227.822204 
L 285.000469 189.646271 
L 286.309727 195.74644 
L 287.618984 212.901071 
L 288.928242 188.835345 
L 290.2375 199.761749 
L 291.546758 204.682987 
L 292.856016 188.593946 
L 294.165273 205.457143 
L 295.474531 199.234429 
L 296.783789 188.908695 
L 298.093047 214.153619 
L 299.402305 195.378009 
L 300.711563 189.796867 
L 302.02082 230.590411 
L 303.330078 192.605664 
L 304.639336 191.310426 
L 305.948594 260.6653 
L 307.257852 190.657629 
L 308.567109 193.549307 
L 309.876367 222.695424 
L 311.185625 189.390115 
L 312.494883 196.692104 
L 313.804141 210.350652 
L 315.113398 188.72344 
L 316.422656 201.068494 
L 317.731914 203.047627 
L 319.041172 188.61945 
L 320.35043 207.356613 
L 322.968945 189.072232 
L 324.278203 217.297624 
L 325.587461 194.543617 
L 326.896719 190.106724 
L 328.205977 238.575921 
L 329.515234 191.999529 
L 330.824492 191.784574 
L 332.13375 242.801357 
L 333.443008 190.232202 
L 334.752266 194.220348 
L 336.061523 218.667281 
L 337.370781 189.117517 
L 338.680039 197.618476 
L 339.989297 208.13629 
L 341.298555 188.587231 
L 342.607813 202.362117 
L 343.91707 201.579547 
L 345.226328 188.610272 
L 346.535586 209.265313 
L 347.844844 197.042504 
L 349.154102 189.182814 
L 350.463359 220.533881 
L 351.772617 193.814053 
L 353.081875 190.370427 
L 354.391133 249.440775 
L 355.700391 191.500056 
L 357.009648 192.224135 
L 358.318906 234.457807 
L 359.628164 189.915914 
L 360.937422 194.871578 
L 362.24668 215.786028 
L 363.555938 188.960441 
L 364.865195 198.549819 
L 366.174453 206.469482 
L 367.483711 188.578865 
L 368.792969 203.713645 
L 370.102227 200.472529 
L 371.411484 188.750802 
L 372.720742 211.380638 
L 374.03 196.271788 
L 375.339258 189.485965 
L 376.648516 224.685062 
L 377.957773 193.251479 
L 379.267031 190.826534 
L 380.576289 278.427704 
L 381.885547 191.106823 
L 383.194805 192.857575 
L 384.504063 228.015655 
L 385.81332 189.671275 
L 387.122578 195.731616 
L 388.431836 213.007976 
L 389.741094 188.851686 
L 391.050352 199.725303 
L 392.359609 204.758588 
L 393.668867 188.600511 
L 394.978125 205.386255 
L 396.287383 199.291098 
L 397.596641 188.903892 
L 398.905898 214.014934 
L 400.215156 195.420004 
L 401.524414 189.778465 
L 402.833672 230.229842 
L 404.14293 192.634504 
L 405.452188 191.275207 
L 406.761445 262.462919 
L 408.070703 190.673541 
L 409.379961 193.492385 
L 410.689219 222.988119 
L 411.998477 189.392497 
L 413.307734 196.605459 
L 414.616992 210.511244 
L 415.92625 188.710961 
L 417.235508 200.937412 
L 418.544766 203.154007 
L 419.854023 188.589946 
L 421.163281 207.149382 
L 423.781797 189.022343 
L 425.091055 216.920892 
L 426.400313 194.591299 
L 427.70957 190.031135 
L 429.018828 237.439038 
L 430.328086 192.025266 
L 431.637344 191.674163 
L 432.946602 244.425404 
L 434.255859 190.236629 
L 435.565117 194.055906 
L 436.874375 219.241708 
L 438.183633 189.113781 
L 439.492891 197.384165 
L 440.802148 208.540356 
L 442.111406 188.589193 
L 443.420664 202.057354 
L 444.729922 201.883913 
L 446.03918 188.613661 
L 447.348438 208.844654 
L 448.657695 197.283375 
L 449.966953 189.191972 
L 451.276211 219.906853 
L 452.585469 193.982181 
L 453.894727 190.357609 
L 455.203984 247.107669 
L 456.513242 191.619144 
L 457.8225 192.182201 
L 459.131758 235.67358 
L 460.441016 190.000118 
L 461.750273 194.795291 
L 463.059531 216.257669 
L 464.368789 189.016128 
L 465.678047 198.428636 
L 466.987305 206.753511 
L 468.296563 188.609004 
L 469.60582 203.525705 
L 470.915078 200.667328 
L 472.224336 188.756309 
L 473.533594 211.071921 
L 474.842852 196.411575 
L 476.152109 189.466138 
L 477.461367 224.053101 
L 478.770625 193.351685 
L 480.079883 190.778984 
L 481.389141 270.996414 
L 482.698398 191.175291 
L 484.007656 192.777658 
L 485.316914 228.823641 
L 486.626172 189.712072 
L 487.93543 195.611008 
L 489.244688 213.384418 
L 490.553945 188.866629 
L 491.863203 199.548513 
L 493.172461 204.993366 
L 494.481719 188.589792 
L 495.790977 205.120883 
L 497.100234 199.450622 
L 498.409492 188.866232 
L 499.71875 213.575395 
L 501.028008 195.529376 
L 502.337266 189.710906 
L 503.646523 229.22655 
L 504.955781 192.705282 
L 506.265039 191.172457 
L 507.574297 268.166795 
L 508.883555 190.711278 
L 510.192813 193.34533 
L 511.50207 223.742513 
L 512.811328 189.39933 
L 514.120586 196.397747 
L 515.429844 210.907729 
L 516.739102 188.686388 
L 518.048359 200.636437 
L 519.357617 203.415299 
L 520.666875 188.530243 
L 521.976133 206.674041 
L 523.285391 198.357528 
L 524.594648 188.929377 
L 525.903906 216.039192 
L 527.213164 194.775061 
L 528.522422 189.92435 
L 529.83168 235.070188 
L 531.140938 192.183517 
L 532.450195 191.5497 
L 533.759453 248.261237 
L 535.068711 190.3728 
L 536.377969 193.91581 
L 537.687227 220.227753 
L 538.996484 189.218432 
L 540.305742 197.217508 
L 541.615 209.042953 
L 542.924258 188.651363 
L 544.233516 201.81689 
L 545.542773 202.208603 
L 546.852031 188.640477 
L 548.161289 208.47488 
L 549.470547 197.511061 
L 550.779805 189.185511 
L 552.089063 219.236037 
L 553.39832 194.146136 
L 554.707578 190.317112 
L 556.016836 244.637813 
L 557.326094 191.735797 
L 558.635352 192.104159 
L 559.944609 237.250574 
L 561.253867 190.078328 
L 562.563125 194.67241 
L 563.872383 216.845461 
L 565.181641 189.060709 
L 567.800156 207.100838 
L 569.109414 188.622055 
L 570.418672 203.256615 
L 571.72793 200.900607 
L 573.037188 188.738555 
L 574.346445 210.645942 
L 575.655703 196.574239 
L 576.964961 189.415981 
L 578.274219 223.215867 
L 579.583477 193.463419 
L 580.892734 190.692914 
L 582.201992 263.931337 
L 583.51125 191.246102 
L 584.820508 192.649172 
L 586.129766 229.947052 
L 587.439023 189.747106 
L 588.748281 195.428548 
L 590.057539 213.888343 
L 591.366797 188.868049 
L 592.676055 199.290555 
L 593.985313 205.301913 
L 595.29457 188.557461 
L 596.603828 204.74228 
L 597.913086 199.657763 
L 599.222344 188.797667 
L 600.531602 212.957144 
L 601.840859 195.670434 
L 603.150117 189.600389 
L 604.459375 227.842409 
L 605.768633 192.796877 
L 607.077891 191.007867 
L 608.387148 282.031775 
L 609.696406 190.770382 
L 611.005664 193.113676 
L 612.314922 225.114679 
L 613.62418 189.452631 
L 614.933438 196.110337 
L 616.242695 211.642468 
L 617.551953 188.727049 
L 618.861211 200.271441 
L 620.170469 203.910113 
L 621.479727 188.559481 
L 622.788984 206.195195 
L 624.098242 198.71146 
L 625.4075 188.942681 
L 626.716758 215.34797 
L 628.026016 195.012103 
L 629.335273 189.898559 
L 630.644531 233.379761 
L 631.953789 192.351345 
L 633.263047 191.483781 
L 634.572305 251.847894 
L 635.881563 190.489822 
L 637.19082 193.804505 
L 638.500078 221.070589 
L 639.809336 189.294217 
L 641.118594 197.049616 
L 642.427852 209.501795 
L 643.737109 188.691061 
L 645.046367 201.569562 
L 646.355625 202.508256 
L 647.664883 188.646511 
L 648.974141 208.095464 
L 650.283398 197.719568 
L 651.592656 189.158244 
L 652.901914 218.558643 
L 654.211172 194.293271 
L 655.52043 190.254943 
L 656.829687 242.363225 
L 658.138945 191.83506 
L 659.448203 192.002952 
L 660.757461 238.994488 
L 662.066719 190.138449 
L 663.375977 194.524475 
L 664.685234 217.453768 
L 665.994492 189.086096 
L 668.613008 207.449008 
L 669.922266 188.614936 
L 671.231523 202.957679 
L 672.540781 201.126549 
L 673.850039 188.698799 
L 675.159297 210.187471 
L 676.468555 196.724916 
L 677.777813 189.342247 
L 679.08707 222.351622 
L 680.396328 193.559773 
L 681.705586 190.581585 
L 683.014844 258.428557 
L 684.324102 191.298763 
L 685.633359 192.493539 
L 686.942617 231.170449 
L 688.251875 189.761526 
L 689.561133 195.216302 
L 690.870391 214.408723 
L 692.179648 188.846369 
L 693.488906 198.995606 
L 694.798164 205.619735 
L 696.107422 188.507385 
L 697.41668 204.318231 
L 698.725938 199.901631 
L 700.035195 188.74776 
L 701.344453 212.406784 
L 702.653711 195.828208 
L 703.962969 189.567999 
L 705.272227 227.381062 
L 706.581484 192.79138 
L 707.890742 190.899265 
L 707.890742 190.899265 
" style="fill:none;stroke:#ff0000;stroke-linecap:square;stroke-width:1.5;"/>
   </g>
   <g id="line2d_22">
    <path clip-path="url(#p7d26d70d4a)" d="M 38.86 45.016585 
L 43.049625 45.016585 
" style="fill:none;stroke:#0000ff;stroke-dasharray:3.7,1.6;stroke-dashoffset:0;"/>
   </g>
   <g id="line2d_23">
    <path clip-path="url(#p7d26d70d4a)" d="M 38.86 45.239712 
L 43.049625 45.239712 
" style="fill:none;stroke:#0000ff;stroke-dasharray:3.7,1.6;stroke-dashoffset:0;"/>
   </g>
   <g id="line2d_24">
    <path clip-path="url(#p7d26d70d4a)" d="M 45.842708 188.507385 
L 709.2 188.507385 
" style="fill:none;stroke:#0000ff;stroke-dasharray:3.7,1.6;stroke-dashoffset:0;"/>
   </g>
   <g id="patch_3">
    <path d="M 38.86 260.12 
L 38.86 37.968 
" style="fill:none;stroke:#000000;stroke-linecap:square;stroke-linejoin:miter;stroke-width:0.8;"/>
   </g>
   <g id="patch_4">
    <path d="M 709.2 260.12 
L 709.2 37.968 
" style="fill:none;stroke:#000000;stroke-linecap:square;stroke-linejoin:miter;stroke-width:0.8;"/>
   </g>
   <g id="patch_5">
    <path d="M 38.86 260.12 
L 709.2 260.12 
" style="fill:none;stroke:#000000;stroke-linecap:square;stroke-linejoin:miter;stroke-width:0.8;"/>
   </g>
   <g id="patch_6">
    <path d="M 38.86 37.968 
L 709.2 37.968 
" style="fill:none;stroke:#000000;stroke-linecap:square;stroke-linejoin:miter;stroke-width:0.8;"/>
   </g>
   <g id="text_11">
    <!-- Just Filter the Damn Thing - Frequency Reponse -->
    <defs>
     <path d="M 9.8125 72.90625 
L 19.671875 72.90625 
L 19.671875 5.078125 
Q 19.671875 -8.109375 14.671875 -14.0625 
Q 9.671875 -20.015625 -1.421875 -20.015625 
L -5.171875 -20.015625 
L -5.171875 -11.71875 
L -2.09375 -11.71875 
Q 4.4375 -11.71875 7.125 -8.046875 
Q 9.8125 -4.390625 9.8125 5.078125 
z
" id="DejaVuSans-74"/>
     <path d="M 8.5 21.578125 
L 8.5 54.6875 
L 17.484375 54.6875 
L 17.484375 21.921875 
Q 17.484375 14.15625 20.5 10.265625 
Q 23.53125 6.390625 29.59375 6.390625 
Q 36.859375 6.390625 41.078125 11.03125 
Q 45.3125 15.671875 45.3125 23.6875 
L 45.3125 54.6875 
L 54.296875 54.6875 
L 54.296875 0 
L 45.3125 0 
L 45.3125 8.40625 
Q 42.046875 3.421875 37.71875 1 
Q 33.40625 -1.421875 27.6875 -1.421875 
Q 18.265625 -1.421875 13.375 4.4375 
Q 8.5 10.296875 8.5 21.578125 
z
M 31.109375 56 
z
" id="DejaVuSans-117"/>
     <path d="M 44.28125 53.078125 
L 44.28125 44.578125 
Q 40.484375 46.53125 36.375 47.5 
Q 32.28125 48.484375 27.875 48.484375 
Q 21.1875 48.484375 17.84375 46.4375 
Q 14.5 44.390625 14.5 40.28125 
Q 14.5 37.15625 16.890625 35.375 
Q 19.28125 33.59375 26.515625 31.984375 
L 29.59375 31.296875 
Q 39.15625 29.25 43.1875 25.515625 
Q 47.21875 21.78125 47.21875 15.09375 
Q 47.21875 7.46875 41.1875 3.015625 
Q 35.15625 -1.421875 24.609375 -1.421875 
Q 20.21875 -1.421875 15.453125 -0.5625 
Q 10.6875 0.296875 5.421875 2 
L 5.421875 11.28125 
Q 10.40625 8.6875 15.234375 7.390625 
Q 20.0625 6.109375 24.8125 6.109375 
Q 31.15625 6.109375 34.5625 8.28125 
Q 37.984375 10.453125 37.984375 14.40625 
Q 37.984375 18.0625 35.515625 20.015625 
Q 33.0625 21.96875 24.703125 23.78125 
L 21.578125 24.515625 
Q 13.234375 26.265625 9.515625 29.90625 
Q 5.8125 33.546875 5.8125 39.890625 
Q 5.8125 47.609375 11.28125 51.796875 
Q 16.75 56 26.8125 56 
Q 31.78125 56 36.171875 55.265625 
Q 40.578125 54.546875 44.28125 53.078125 
z
" id="DejaVuSans-115"/>
     <path d="M 18.3125 70.21875 
L 18.3125 54.6875 
L 36.8125 54.6875 
L 36.8125 47.703125 
L 18.3125 47.703125 
L 18.3125 18.015625 
Q 18.3125 11.328125 20.140625 9.421875 
Q 21.96875 7.515625 27.59375 7.515625 
L 36.8125 7.515625 
L 36.8125 0 
L 27.59375 0 
Q 17.1875 0 13.234375 3.875 
Q 9.28125 7.765625 9.28125 18.015625 
L 9.28125 47.703125 
L 2.6875 47.703125 
L 2.6875 54.6875 
L 9.28125 54.6875 
L 9.28125 70.21875 
z
" id="DejaVuSans-116"/>
     <path id="DejaVuSans-32"/>
     <path d="M 9.8125 72.90625 
L 51.703125 72.90625 
L 51.703125 64.59375 
L 19.671875 64.59375 
L 19.671875 43.109375 
L 48.578125 43.109375 
L 48.578125 34.8125 
L 19.671875 34.8125 
L 19.671875 0 
L 9.8125 0 
z
" id="DejaVuSans-70"/>
     <path d="M 9.421875 54.6875 
L 18.40625 54.6875 
L 18.40625 0 
L 9.421875 0 
z
M 9.421875 75.984375 
L 18.40625 75.984375 
L 18.40625 64.59375 
L 9.421875 64.59375 
z
" id="DejaVuSans-105"/>
     <path d="M 9.421875 75.984375 
L 18.40625 75.984375 
L 18.40625 0 
L 9.421875 0 
z
" id="DejaVuSans-108"/>
     <path d="M 56.203125 29.59375 
L 56.203125 25.203125 
L 14.890625 25.203125 
Q 15.484375 15.921875 20.484375 11.0625 
Q 25.484375 6.203125 34.421875 6.203125 
Q 39.59375 6.203125 44.453125 7.46875 
Q 49.3125 8.734375 54.109375 11.28125 
L 54.109375 2.78125 
Q 49.265625 0.734375 44.1875 -0.34375 
Q 39.109375 -1.421875 33.890625 -1.421875 
Q 20.796875 -1.421875 13.15625 6.1875 
Q 5.515625 13.8125 5.515625 26.8125 
Q 5.515625 40.234375 12.765625 48.109375 
Q 20.015625 56 32.328125 56 
Q 43.359375 56 49.78125 48.890625 
Q 56.203125 41.796875 56.203125 29.59375 
z
M 47.21875 32.234375 
Q 47.125 39.59375 43.09375 43.984375 
Q 39.0625 48.390625 32.421875 48.390625 
Q 24.90625 48.390625 20.390625 44.140625 
Q 15.875 39.890625 15.1875 32.171875 
z
" id="DejaVuSans-101"/>
     <path d="M 41.109375 46.296875 
Q 39.59375 47.171875 37.8125 47.578125 
Q 36.03125 48 33.890625 48 
Q 26.265625 48 22.1875 43.046875 
Q 18.109375 38.09375 18.109375 28.8125 
L 18.109375 0 
L 9.078125 0 
L 9.078125 54.6875 
L 18.109375 54.6875 
L 18.109375 46.1875 
Q 20.953125 51.171875 25.484375 53.578125 
Q 30.03125 56 36.53125 56 
Q 37.453125 56 38.578125 55.875 
Q 39.703125 55.765625 41.0625 55.515625 
z
" id="DejaVuSans-114"/>
     <path d="M 54.890625 33.015625 
L 54.890625 0 
L 45.90625 0 
L 45.90625 32.71875 
Q 45.90625 40.484375 42.875 44.328125 
Q 39.84375 48.1875 33.796875 48.1875 
Q 26.515625 48.1875 22.3125 43.546875 
Q 18.109375 38.921875 18.109375 30.90625 
L 18.109375 0 
L 9.078125 0 
L 9.078125 75.984375 
L 18.109375 75.984375 
L 18.109375 46.1875 
Q 21.34375 51.125 25.703125 53.5625 
Q 30.078125 56 35.796875 56 
Q 45.21875 56 50.046875 50.171875 
Q 54.890625 44.34375 54.890625 33.015625 
z
" id="DejaVuSans-104"/>
     <path d="M 19.671875 64.796875 
L 19.671875 8.109375 
L 31.59375 8.109375 
Q 46.6875 8.109375 53.6875 14.9375 
Q 60.6875 21.78125 60.6875 36.53125 
Q 60.6875 51.171875 53.6875 57.984375 
Q 46.6875 64.796875 31.59375 64.796875 
z
M 9.8125 72.90625 
L 30.078125 72.90625 
Q 51.265625 72.90625 61.171875 64.09375 
Q 71.09375 55.28125 71.09375 36.53125 
Q 71.09375 17.671875 61.125 8.828125 
Q 51.171875 0 30.078125 0 
L 9.8125 0 
z
" id="DejaVuSans-68"/>
     <path d="M 34.28125 27.484375 
Q 23.390625 27.484375 19.1875 25 
Q 14.984375 22.515625 14.984375 16.5 
Q 14.984375 11.71875 18.140625 8.90625 
Q 21.296875 6.109375 26.703125 6.109375 
Q 34.1875 6.109375 38.703125 11.40625 
Q 43.21875 16.703125 43.21875 25.484375 
L 43.21875 27.484375 
z
M 52.203125 31.203125 
L 52.203125 0 
L 43.21875 0 
L 43.21875 8.296875 
Q 40.140625 3.328125 35.546875 0.953125 
Q 30.953125 -1.421875 24.3125 -1.421875 
Q 15.921875 -1.421875 10.953125 3.296875 
Q 6 8.015625 6 15.921875 
Q 6 25.140625 12.171875 29.828125 
Q 18.359375 34.515625 30.609375 34.515625 
L 43.21875 34.515625 
L 43.21875 35.40625 
Q 43.21875 41.609375 39.140625 45 
Q 35.0625 48.390625 27.6875 48.390625 
Q 23 48.390625 18.546875 47.265625 
Q 14.109375 46.140625 10.015625 43.890625 
L 10.015625 52.203125 
Q 14.9375 54.109375 19.578125 55.046875 
Q 24.21875 56 28.609375 56 
Q 40.484375 56 46.34375 49.84375 
Q 52.203125 43.703125 52.203125 31.203125 
z
" id="DejaVuSans-97"/>
     <path d="M 52 44.1875 
Q 55.375 50.25 60.0625 53.125 
Q 64.75 56 71.09375 56 
Q 79.640625 56 84.28125 50.015625 
Q 88.921875 44.046875 88.921875 33.015625 
L 88.921875 0 
L 79.890625 0 
L 79.890625 32.71875 
Q 79.890625 40.578125 77.09375 44.375 
Q 74.3125 48.1875 68.609375 48.1875 
Q 61.625 48.1875 57.5625 43.546875 
Q 53.515625 38.921875 53.515625 30.90625 
L 53.515625 0 
L 44.484375 0 
L 44.484375 32.71875 
Q 44.484375 40.625 41.703125 44.40625 
Q 38.921875 48.1875 33.109375 48.1875 
Q 26.21875 48.1875 22.15625 43.53125 
Q 18.109375 38.875 18.109375 30.90625 
L 18.109375 0 
L 9.078125 0 
L 9.078125 54.6875 
L 18.109375 54.6875 
L 18.109375 46.1875 
Q 21.1875 51.21875 25.484375 53.609375 
Q 29.78125 56 35.6875 56 
Q 41.65625 56 45.828125 52.96875 
Q 50 49.953125 52 44.1875 
z
" id="DejaVuSans-109"/>
     <path d="M 54.890625 33.015625 
L 54.890625 0 
L 45.90625 0 
L 45.90625 32.71875 
Q 45.90625 40.484375 42.875 44.328125 
Q 39.84375 48.1875 33.796875 48.1875 
Q 26.515625 48.1875 22.3125 43.546875 
Q 18.109375 38.921875 18.109375 30.90625 
L 18.109375 0 
L 9.078125 0 
L 9.078125 54.6875 
L 18.109375 54.6875 
L 18.109375 46.1875 
Q 21.34375 51.125 25.703125 53.5625 
Q 30.078125 56 35.796875 56 
Q 45.21875 56 50.046875 50.171875 
Q 54.890625 44.34375 54.890625 33.015625 
z
" id="DejaVuSans-110"/>
     <path d="M -0.296875 72.90625 
L 61.375 72.90625 
L 61.375 64.59375 
L 35.5 64.59375 
L 35.5 0 
L 25.59375 0 
L 25.59375 64.59375 
L -0.296875 64.59375 
z
" id="DejaVuSans-84"/>
     <path d="M 45.40625 27.984375 
Q 45.40625 37.75 41.375 43.109375 
Q 37.359375 48.484375 30.078125 48.484375 
Q 22.859375 48.484375 18.828125 43.109375 
Q 14.796875 37.75 14.796875 27.984375 
Q 14.796875 18.265625 18.828125 12.890625 
Q 22.859375 7.515625 30.078125 7.515625 
Q 37.359375 7.515625 41.375 12.890625 
Q 45.40625 18.265625 45.40625 27.984375 
z
M 54.390625 6.78125 
Q 54.390625 -7.171875 48.1875 -13.984375 
Q 42 -20.796875 29.203125 -20.796875 
Q 24.46875 -20.796875 20.265625 -20.09375 
Q 16.0625 -19.390625 12.109375 -17.921875 
L 12.109375 -9.1875 
Q 16.0625 -11.328125 19.921875 -12.34375 
Q 23.78125 -13.375 27.78125 -13.375 
Q 36.625 -13.375 41.015625 -8.765625 
Q 45.40625 -4.15625 45.40625 5.171875 
L 45.40625 9.625 
Q 42.625 4.78125 38.28125 2.390625 
Q 33.9375 0 27.875 0 
Q 17.828125 0 11.671875 7.65625 
Q 5.515625 15.328125 5.515625 27.984375 
Q 5.515625 40.671875 11.671875 48.328125 
Q 17.828125 56 27.875 56 
Q 33.9375 56 38.28125 53.609375 
Q 42.625 51.21875 45.40625 46.390625 
L 45.40625 54.6875 
L 54.390625 54.6875 
z
" id="DejaVuSans-103"/>
     <path d="M 4.890625 31.390625 
L 31.203125 31.390625 
L 31.203125 23.390625 
L 4.890625 23.390625 
z
" id="DejaVuSans-45"/>
     <path d="M 14.796875 27.296875 
Q 14.796875 17.390625 18.875 11.75 
Q 22.953125 6.109375 30.078125 6.109375 
Q 37.203125 6.109375 41.296875 11.75 
Q 45.40625 17.390625 45.40625 27.296875 
Q 45.40625 37.203125 41.296875 42.84375 
Q 37.203125 48.484375 30.078125 48.484375 
Q 22.953125 48.484375 18.875 42.84375 
Q 14.796875 37.203125 14.796875 27.296875 
z
M 45.40625 8.203125 
Q 42.578125 3.328125 38.25 0.953125 
Q 33.9375 -1.421875 27.875 -1.421875 
Q 17.96875 -1.421875 11.734375 6.484375 
Q 5.515625 14.40625 5.515625 27.296875 
Q 5.515625 40.1875 11.734375 48.09375 
Q 17.96875 56 27.875 56 
Q 33.9375 56 38.25 53.625 
Q 42.578125 51.265625 45.40625 46.390625 
L 45.40625 54.6875 
L 54.390625 54.6875 
L 54.390625 -20.796875 
L 45.40625 -20.796875 
z
" id="DejaVuSans-113"/>
     <path d="M 48.78125 52.59375 
L 48.78125 44.1875 
Q 44.96875 46.296875 41.140625 47.34375 
Q 37.3125 48.390625 33.40625 48.390625 
Q 24.65625 48.390625 19.8125 42.84375 
Q 14.984375 37.3125 14.984375 27.296875 
Q 14.984375 17.28125 19.8125 11.734375 
Q 24.65625 6.203125 33.40625 6.203125 
Q 37.3125 6.203125 41.140625 7.25 
Q 44.96875 8.296875 48.78125 10.40625 
L 48.78125 2.09375 
Q 45.015625 0.34375 40.984375 -0.53125 
Q 36.96875 -1.421875 32.421875 -1.421875 
Q 20.0625 -1.421875 12.78125 6.34375 
Q 5.515625 14.109375 5.515625 27.296875 
Q 5.515625 40.671875 12.859375 48.328125 
Q 20.21875 56 33.015625 56 
Q 37.15625 56 41.109375 55.140625 
Q 45.0625 54.296875 48.78125 52.59375 
z
" id="DejaVuSans-99"/>
     <path d="M 32.171875 -5.078125 
Q 28.375 -14.84375 24.75 -17.8125 
Q 21.140625 -20.796875 15.09375 -20.796875 
L 7.90625 -20.796875 
L 7.90625 -13.28125 
L 13.1875 -13.28125 
Q 16.890625 -13.28125 18.9375 -11.515625 
Q 21 -9.765625 23.484375 -3.21875 
L 25.09375 0.875 
L 2.984375 54.6875 
L 12.5 54.6875 
L 29.59375 11.921875 
L 46.6875 54.6875 
L 56.203125 54.6875 
z
" id="DejaVuSans-121"/>
     <path d="M 44.390625 34.1875 
Q 47.5625 33.109375 50.5625 29.59375 
Q 53.5625 26.078125 56.59375 19.921875 
L 66.609375 0 
L 56 0 
L 46.6875 18.703125 
Q 43.0625 26.03125 39.671875 28.421875 
Q 36.28125 30.8125 30.421875 30.8125 
L 19.671875 30.8125 
L 19.671875 0 
L 9.8125 0 
L 9.8125 72.90625 
L 32.078125 72.90625 
Q 44.578125 72.90625 50.734375 67.671875 
Q 56.890625 62.453125 56.890625 51.90625 
Q 56.890625 45.015625 53.6875 40.46875 
Q 50.484375 35.9375 44.390625 34.1875 
z
M 19.671875 64.796875 
L 19.671875 38.921875 
L 32.078125 38.921875 
Q 39.203125 38.921875 42.84375 42.21875 
Q 46.484375 45.515625 46.484375 51.90625 
Q 46.484375 58.296875 42.84375 61.546875 
Q 39.203125 64.796875 32.078125 64.796875 
z
" id="DejaVuSans-82"/>
     <path d="M 18.109375 8.203125 
L 18.109375 -20.796875 
L 9.078125 -20.796875 
L 9.078125 54.6875 
L 18.109375 54.6875 
L 18.109375 46.390625 
Q 20.953125 51.265625 25.265625 53.625 
Q 29.59375 56 35.59375 56 
Q 45.5625 56 51.78125 48.09375 
Q 58.015625 40.1875 58.015625 27.296875 
Q 58.015625 14.40625 51.78125 6.484375 
Q 45.5625 -1.421875 35.59375 -1.421875 
Q 29.59375 -1.421875 25.265625 0.953125 
Q 20.953125 3.328125 18.109375 8.203125 
z
M 48.6875 27.296875 
Q 48.6875 37.203125 44.609375 42.84375 
Q 40.53125 48.484375 33.40625 48.484375 
Q 26.265625 48.484375 22.1875 42.84375 
Q 18.109375 37.203125 18.109375 27.296875 
Q 18.109375 17.390625 22.1875 11.75 
Q 26.265625 6.109375 33.40625 6.109375 
Q 40.53125 6.109375 44.609375 11.75 
Q 48.6875 17.390625 48.6875 27.296875 
z
" id="DejaVuSans-112"/>
     <path d="M 30.609375 48.390625 
Q 23.390625 48.390625 19.1875 42.75 
Q 14.984375 37.109375 14.984375 27.296875 
Q 14.984375 17.484375 19.15625 11.84375 
Q 23.34375 6.203125 30.609375 6.203125 
Q 37.796875 6.203125 41.984375 11.859375 
Q 46.1875 17.53125 46.1875 27.296875 
Q 46.1875 37.015625 41.984375 42.703125 
Q 37.796875 48.390625 30.609375 48.390625 
z
M 30.609375 56 
Q 42.328125 56 49.015625 48.375 
Q 55.71875 40.765625 55.71875 27.296875 
Q 55.71875 13.875 49.015625 6.21875 
Q 42.328125 -1.421875 30.609375 -1.421875 
Q 18.84375 -1.421875 12.171875 6.21875 
Q 5.515625 13.875 5.515625 27.296875 
Q 5.515625 40.765625 12.171875 48.375 
Q 18.84375 56 30.609375 56 
z
" id="DejaVuSans-111"/>
    </defs>
    <g transform="translate(230.1275 18.530625)scale(0.12 -0.12)">
     <use xlink:href="#DejaVuSans-74"/>
     <use x="29.492188" xlink:href="#DejaVuSans-117"/>
     <use x="92.871094" xlink:href="#DejaVuSans-115"/>
     <use x="144.970703" xlink:href="#DejaVuSans-116"/>
     <use x="184.179688" xlink:href="#DejaVuSans-32"/>
     <use x="215.966797" xlink:href="#DejaVuSans-70"/>
     <use x="273.376953" xlink:href="#DejaVuSans-105"/>
     <use x="301.160156" xlink:href="#DejaVuSans-108"/>
     <use x="328.943359" xlink:href="#DejaVuSans-116"/>
     <use x="368.152344" xlink:href="#DejaVuSans-101"/>
     <use x="429.675781" xlink:href="#DejaVuSans-114"/>
     <use x="470.789062" xlink:href="#DejaVuSans-32"/>
     <use x="502.576172" xlink:href="#DejaVuSans-116"/>
     <use x="541.785156" xlink:href="#DejaVuSans-104"/>
     <use x="605.164062" xlink:href="#DejaVuSans-101"/>
     <use x="666.6875" xlink:href="#DejaVuSans-32"/>
     <use x="698.474609" xlink:href="#DejaVuSans-68"/>
     <use x="775.476562" xlink:href="#DejaVuSans-97"/>
     <use x="836.755859" xlink:href="#DejaVuSans-109"/>
     <use x="934.167969" xlink:href="#DejaVuSans-110"/>
     <use x="997.546875" xlink:href="#DejaVuSans-32"/>
     <use x="1029.333984" xlink:href="#DejaVuSans-84"/>
     <use x="1090.417969" xlink:href="#DejaVuSans-104"/>
     <use x="1153.796875" xlink:href="#DejaVuSans-105"/>
     <use x="1181.580078" xlink:href="#DejaVuSans-110"/>
     <use x="1244.958984" xlink:href="#DejaVuSans-103"/>
     <use x="1308.435547" xlink:href="#DejaVuSans-32"/>
     <use x="1340.222656" xlink:href="#DejaVuSans-45"/>
     <use x="1376.306641" xlink:href="#DejaVuSans-32"/>
     <use x="1408.09375" xlink:href="#DejaVuSans-70"/>
     <use x="1465.503906" xlink:href="#DejaVuSans-114"/>
     <use x="1506.585938" xlink:href="#DejaVuSans-101"/>
     <use x="1568.109375" xlink:href="#DejaVuSans-113"/>
     <use x="1631.585938" xlink:href="#DejaVuSans-117"/>
     <use x="1694.964844" xlink:href="#DejaVuSans-101"/>
     <use x="1756.488281" xlink:href="#DejaVuSans-110"/>
     <use x="1819.867188" xlink:href="#DejaVuSans-99"/>
     <use x="1874.847656" xlink:href="#DejaVuSans-121"/>
     <use x="1934.027344" xlink:href="#DejaVuSans-32"/>
     <use x="1965.814453" xlink:href="#DejaVuSans-82"/>
     <use x="2035.234375" xlink:href="#DejaVuSans-101"/>
     <use x="2096.757812" xlink:href="#DejaVuSans-112"/>
     <use x="2160.234375" xlink:href="#DejaVuSans-111"/>
     <use x="2221.416016" xlink:href="#DejaVuSans-110"/>
     <use x="2284.794922" xlink:href="#DejaVuSans-115"/>
     <use x="2336.894531" xlink:href="#DejaVuSans-101"/>
    </g>
    <!-- 1384 Taps -->
    <defs>
     <path d="M 12.40625 8.296875 
L 28.515625 8.296875 
L 28.515625 63.921875 
L 10.984375 60.40625 
L 10.984375 69.390625 
L 28.421875 72.90625 
L 38.28125 72.90625 
L 38.28125 8.296875 
L 54.390625 8.296875 
L 54.390625 0 
L 12.40625 0 
z
" id="DejaVuSans-49"/>
     <path d="M 40.578125 39.3125 
Q 47.65625 37.796875 51.625 33 
Q 55.609375 28.21875 55.609375 21.1875 
Q 55.609375 10.40625 48.1875 4.484375 
Q 40.765625 -1.421875 27.09375 -1.421875 
Q 22.515625 -1.421875 17.65625 -0.515625 
Q 12.796875 0.390625 7.625 2.203125 
L 7.625 11.71875 
Q 11.71875 9.328125 16.59375 8.109375 
Q 21.484375 6.890625 26.8125 6.890625 
Q 36.078125 6.890625 40.9375 10.546875 
Q 45.796875 14.203125 45.796875 21.1875 
Q 45.796875 27.640625 41.28125 31.265625 
Q 36.765625 34.90625 28.71875 34.90625 
L 20.21875 34.90625 
L 20.21875 43.015625 
L 29.109375 43.015625 
Q 36.375 43.015625 40.234375 45.921875 
Q 44.09375 48.828125 44.09375 54.296875 
Q 44.09375 59.90625 40.109375 62.90625 
Q 36.140625 65.921875 28.71875 65.921875 
Q 24.65625 65.921875 20.015625 65.03125 
Q 15.375 64.15625 9.8125 62.3125 
L 9.8125 71.09375 
Q 15.4375 72.65625 20.34375 73.4375 
Q 25.25 74.21875 29.59375 74.21875 
Q 40.828125 74.21875 47.359375 69.109375 
Q 53.90625 64.015625 53.90625 55.328125 
Q 53.90625 49.265625 50.4375 45.09375 
Q 46.96875 40.921875 40.578125 39.3125 
z
" id="DejaVuSans-51"/>
    </defs>
    <g transform="translate(342.591875 31.968)scale(0.12 -0.12)">
     <use xlink:href="#DejaVuSans-49"/>
     <use x="63.623047" xlink:href="#DejaVuSans-51"/>
     <use x="127.246094" xlink:href="#DejaVuSans-56"/>
     <use x="190.869141" xlink:href="#DejaVuSans-52"/>
     <use x="254.492188" xlink:href="#DejaVuSans-32"/>
     <use x="286.279297" xlink:href="#DejaVuSans-84"/>
     <use x="347.113281" xlink:href="#DejaVuSans-97"/>
     <use x="408.392578" xlink:href="#DejaVuSans-112"/>
     <use x="471.869141" xlink:href="#DejaVuSans-115"/>
    </g>
   </g>
  </g>
 </g>
 <defs>
  <clipPath id="p7d26d70d4a">
   <rect height="222.152" width="670.34" x="38.86" y="37.968"/>
  </clipPath>
 </defs>
</svg>
