<?xml version="1.0" encoding="utf-8" standalone="no"?>
<!DOCTYPE svg PUBLIC "-//W3C//DTD SVG 1.1//EN"
  "http://www.w3.org/Graphics/SVG/1.1/DTD/svg11.dtd">
<!-- Created with matplotlib (https://matplotlib.org/) -->
<svg height="288pt" version="1.1" viewBox="0 0 720 288" width="720pt" xmlns="http://www.w3.org/2000/svg" xmlns:xlink="http://www.w3.org/1999/xlink">
 <defs>
  <style type="text/css">
*{stroke-linecap:butt;stroke-linejoin:round;}
  </style>
 </defs>
 <g id="figure_1">
  <g id="patch_1">
   <path d="M 0 288 
L 720 288 
L 720 0 
L 0 0 
z
" style="fill:#ffffff;"/>
  </g>
  <g id="axes_1">
   <g id="patch_2">
    <path d="M 38.86 260.12 
L 709.2 260.12 
L 709.2 37.968 
L 38.86 37.968 
z
" style="fill:#ffffff;"/>
   </g>
   <g id="matplotlib.axis_1">
    <g id="xtick_1">
     <g id="line2d_1">
      <path clip-path="url(#pdb833afc17)" d="M 38.86 260.12 
L 38.86 37.968 
" style="fill:none;stroke:#b0b0b0;stroke-linecap:square;stroke-width:0.8;"/>
     </g>
     <g id="line2d_2">
      <defs>
       <path d="M 0 0 
L 0 3.5 
" id="ma62727aa93" style="stroke:#000000;stroke-width:0.8;"/>
      </defs>
      <g>
       <use style="stroke:#000000;stroke-width:0.8;" x="38.86" xlink:href="#ma62727aa93" y="260.12"/>
      </g>
     </g>
     <g id="text_1">
      <!-- 0 -->
      <defs>
       <path d="M 31.78125 66.40625 
Q 24.171875 66.40625 20.328125 58.90625 
Q 16.5 51.421875 16.5 36.375 
Q 16.5 21.390625 20.328125 13.890625 
Q 24.171875 6.390625 31.78125 6.390625 
Q 39.453125 6.390625 43.28125 13.890625 
Q 47.125 21.390625 47.125 36.375 
Q 47.125 51.421875 43.28125 58.90625 
Q 39.453125 66.40625 31.78125 66.40625 
z
M 31.78125 74.21875 
Q 44.046875 74.21875 50.515625 64.515625 
Q 56.984375 54.828125 56.984375 36.375 
Q 56.984375 17.96875 50.515625 8.265625 
Q 44.046875 -1.421875 31.78125 -1.421875 
Q 19.53125 -1.421875 13.0625 8.265625 
Q 6.59375 17.96875 6.59375 36.375 
Q 6.59375 54.828125 13.0625 64.515625 
Q 19.53125 74.21875 31.78125 74.21875 
z
" id="DejaVuSans-48"/>
      </defs>
      <g transform="translate(35.67875 274.718437)scale(0.1 -0.1)">
       <use xlink:href="#DejaVuSans-48"/>
      </g>
     </g>
    </g>
    <g id="xtick_2">
     <g id="line2d_3">
      <path clip-path="url(#pdb833afc17)" d="M 126.143854 260.12 
L 126.143854 37.968 
" style="fill:none;stroke:#b0b0b0;stroke-linecap:square;stroke-width:0.8;"/>
     </g>
     <g id="line2d_4">
      <g>
       <use style="stroke:#000000;stroke-width:0.8;" x="126.143854" xlink:href="#ma62727aa93" y="260.12"/>
      </g>
     </g>
     <g id="text_2">
      <!-- 25000 -->
      <defs>
       <path d="M 19.1875 8.296875 
L 53.609375 8.296875 
L 53.609375 0 
L 7.328125 0 
L 7.328125 8.296875 
Q 12.9375 14.109375 22.625 23.890625 
Q 32.328125 33.6875 34.8125 36.53125 
Q 39.546875 41.84375 41.421875 45.53125 
Q 43.3125 49.21875 43.3125 52.78125 
Q 43.3125 58.59375 39.234375 62.25 
Q 35.15625 65.921875 28.609375 65.921875 
Q 23.96875 65.921875 18.8125 64.3125 
Q 13.671875 62.703125 7.8125 59.421875 
L 7.8125 69.390625 
Q 13.765625 71.78125 18.9375 73 
Q 24.125 74.21875 28.421875 74.21875 
Q 39.75 74.21875 46.484375 68.546875 
Q 53.21875 62.890625 53.21875 53.421875 
Q 53.21875 48.921875 51.53125 44.890625 
Q 49.859375 40.875 45.40625 35.40625 
Q 44.1875 33.984375 37.640625 27.21875 
Q 31.109375 20.453125 19.1875 8.296875 
z
" id="DejaVuSans-50"/>
       <path d="M 10.796875 72.90625 
L 49.515625 72.90625 
L 49.515625 64.59375 
L 19.828125 64.59375 
L 19.828125 46.734375 
Q 21.96875 47.46875 24.109375 47.828125 
Q 26.265625 48.1875 28.421875 48.1875 
Q 40.625 48.1875 47.75 41.5 
Q 54.890625 34.8125 54.890625 23.390625 
Q 54.890625 11.625 47.5625 5.09375 
Q 40.234375 -1.421875 26.90625 -1.421875 
Q 22.3125 -1.421875 17.546875 -0.640625 
Q 12.796875 0.140625 7.71875 1.703125 
L 7.71875 11.625 
Q 12.109375 9.234375 16.796875 8.0625 
Q 21.484375 6.890625 26.703125 6.890625 
Q 35.15625 6.890625 40.078125 11.328125 
Q 45.015625 15.765625 45.015625 23.390625 
Q 45.015625 31 40.078125 35.4375 
Q 35.15625 39.890625 26.703125 39.890625 
Q 22.75 39.890625 18.8125 39.015625 
Q 14.890625 38.140625 10.796875 36.28125 
z
" id="DejaVuSans-53"/>
      </defs>
      <g transform="translate(110.237604 274.718437)scale(0.1 -0.1)">
       <use xlink:href="#DejaVuSans-50"/>
       <use x="63.623047" xlink:href="#DejaVuSans-53"/>
       <use x="127.246094" xlink:href="#DejaVuSans-48"/>
       <use x="190.869141" xlink:href="#DejaVuSans-48"/>
       <use x="254.492188" xlink:href="#DejaVuSans-48"/>
      </g>
     </g>
    </g>
    <g id="xtick_3">
     <g id="line2d_5">
      <path clip-path="url(#pdb833afc17)" d="M 213.427708 260.12 
L 213.427708 37.968 
" style="fill:none;stroke:#b0b0b0;stroke-linecap:square;stroke-width:0.8;"/>
     </g>
     <g id="line2d_6">
      <g>
       <use style="stroke:#000000;stroke-width:0.8;" x="213.427708" xlink:href="#ma62727aa93" y="260.12"/>
      </g>
     </g>
     <g id="text_3">
      <!-- 50000 -->
      <g transform="translate(197.521458 274.718437)scale(0.1 -0.1)">
       <use xlink:href="#DejaVuSans-53"/>
       <use x="63.623047" xlink:href="#DejaVuSans-48"/>
       <use x="127.246094" xlink:href="#DejaVuSans-48"/>
       <use x="190.869141" xlink:href="#DejaVuSans-48"/>
       <use x="254.492188" xlink:href="#DejaVuSans-48"/>
      </g>
     </g>
    </g>
    <g id="xtick_4">
     <g id="line2d_7">
      <path clip-path="url(#pdb833afc17)" d="M 300.711563 260.12 
L 300.711563 37.968 
" style="fill:none;stroke:#b0b0b0;stroke-linecap:square;stroke-width:0.8;"/>
     </g>
     <g id="line2d_8">
      <g>
       <use style="stroke:#000000;stroke-width:0.8;" x="300.711563" xlink:href="#ma62727aa93" y="260.12"/>
      </g>
     </g>
     <g id="text_4">
      <!-- 75000 -->
      <defs>
       <path d="M 8.203125 72.90625 
L 55.078125 72.90625 
L 55.078125 68.703125 
L 28.609375 0 
L 18.3125 0 
L 43.21875 64.59375 
L 8.203125 64.59375 
z
" id="DejaVuSans-55"/>
      </defs>
      <g transform="translate(284.805313 274.718437)scale(0.1 -0.1)">
       <use xlink:href="#DejaVuSans-55"/>
       <use x="63.623047" xlink:href="#DejaVuSans-53"/>
       <use x="127.246094" xlink:href="#DejaVuSans-48"/>
       <use x="190.869141" xlink:href="#DejaVuSans-48"/>
       <use x="254.492188" xlink:href="#DejaVuSans-48"/>
      </g>
     </g>
    </g>
    <g id="xtick_5">
     <g id="line2d_9">
      <path clip-path="url(#pdb833afc17)" d="M 387.995417 260.12 
L 387.995417 37.968 
" style="fill:none;stroke:#b0b0b0;stroke-linecap:square;stroke-width:0.8;"/>
     </g>
     <g id="line2d_10">
      <g>
       <use style="stroke:#000000;stroke-width:0.8;" x="387.995417" xlink:href="#ma62727aa93" y="260.12"/>
      </g>
     </g>
     <g id="text_5">
      <!-- 100000 -->
      <defs>
       <path d="M 12.40625 8.296875 
L 28.515625 8.296875 
L 28.515625 63.921875 
L 10.984375 60.40625 
L 10.984375 69.390625 
L 28.421875 72.90625 
L 38.28125 72.90625 
L 38.28125 8.296875 
L 54.390625 8.296875 
L 54.390625 0 
L 12.40625 0 
z
" id="DejaVuSans-49"/>
      </defs>
      <g transform="translate(368.907917 274.718437)scale(0.1 -0.1)">
       <use xlink:href="#DejaVuSans-49"/>
       <use x="63.623047" xlink:href="#DejaVuSans-48"/>
       <use x="127.246094" xlink:href="#DejaVuSans-48"/>
       <use x="190.869141" xlink:href="#DejaVuSans-48"/>
       <use x="254.492188" xlink:href="#DejaVuSans-48"/>
       <use x="318.115234" xlink:href="#DejaVuSans-48"/>
      </g>
     </g>
    </g>
    <g id="xtick_6">
     <g id="line2d_11">
      <path clip-path="url(#pdb833afc17)" d="M 475.279271 260.12 
L 475.279271 37.968 
" style="fill:none;stroke:#b0b0b0;stroke-linecap:square;stroke-width:0.8;"/>
     </g>
     <g id="line2d_12">
      <g>
       <use style="stroke:#000000;stroke-width:0.8;" x="475.279271" xlink:href="#ma62727aa93" y="260.12"/>
      </g>
     </g>
     <g id="text_6">
      <!-- 125000 -->
      <g transform="translate(456.191771 274.718437)scale(0.1 -0.1)">
       <use xlink:href="#DejaVuSans-49"/>
       <use x="63.623047" xlink:href="#DejaVuSans-50"/>
       <use x="127.246094" xlink:href="#DejaVuSans-53"/>
       <use x="190.869141" xlink:href="#DejaVuSans-48"/>
       <use x="254.492188" xlink:href="#DejaVuSans-48"/>
       <use x="318.115234" xlink:href="#DejaVuSans-48"/>
      </g>
     </g>
    </g>
    <g id="xtick_7">
     <g id="line2d_13">
      <path clip-path="url(#pdb833afc17)" d="M 562.563125 260.12 
L 562.563125 37.968 
" style="fill:none;stroke:#b0b0b0;stroke-linecap:square;stroke-width:0.8;"/>
     </g>
     <g id="line2d_14">
      <g>
       <use style="stroke:#000000;stroke-width:0.8;" x="562.563125" xlink:href="#ma62727aa93" y="260.12"/>
      </g>
     </g>
     <g id="text_7">
      <!-- 150000 -->
      <g transform="translate(543.475625 274.718437)scale(0.1 -0.1)">
       <use xlink:href="#DejaVuSans-49"/>
       <use x="63.623047" xlink:href="#DejaVuSans-53"/>
       <use x="127.246094" xlink:href="#DejaVuSans-48"/>
       <use x="190.869141" xlink:href="#DejaVuSans-48"/>
       <use x="254.492188" xlink:href="#DejaVuSans-48"/>
       <use x="318.115234" xlink:href="#DejaVuSans-48"/>
      </g>
     </g>
    </g>
    <g id="xtick_8">
     <g id="line2d_15">
      <path clip-path="url(#pdb833afc17)" d="M 649.846979 260.12 
L 649.846979 37.968 
" style="fill:none;stroke:#b0b0b0;stroke-linecap:square;stroke-width:0.8;"/>
     </g>
     <g id="line2d_16">
      <g>
       <use style="stroke:#000000;stroke-width:0.8;" x="649.846979" xlink:href="#ma62727aa93" y="260.12"/>
      </g>
     </g>
     <g id="text_8">
      <!-- 175000 -->
      <g transform="translate(630.759479 274.718437)scale(0.1 -0.1)">
       <use xlink:href="#DejaVuSans-49"/>
       <use x="63.623047" xlink:href="#DejaVuSans-55"/>
       <use x="127.246094" xlink:href="#DejaVuSans-53"/>
       <use x="190.869141" xlink:href="#DejaVuSans-48"/>
       <use x="254.492188" xlink:href="#DejaVuSans-48"/>
       <use x="318.115234" xlink:href="#DejaVuSans-48"/>
      </g>
     </g>
    </g>
   </g>
   <g id="matplotlib.axis_2">
    <g id="ytick_1">
     <g id="line2d_17">
      <path clip-path="url(#pdb833afc17)" d="M 38.86 236.232688 
L 709.2 236.232688 
" style="fill:none;stroke:#b0b0b0;stroke-linecap:square;stroke-width:0.8;"/>
     </g>
     <g id="line2d_18">
      <defs>
       <path d="M 0 0 
L -3.5 0 
" id="m3fc2269cb1" style="stroke:#000000;stroke-width:0.8;"/>
      </defs>
      <g>
       <use style="stroke:#000000;stroke-width:0.8;" x="38.86" xlink:href="#m3fc2269cb1" y="236.232688"/>
      </g>
     </g>
     <g id="text_9">
      <!-- −80 -->
      <defs>
       <path d="M 10.59375 35.5 
L 73.1875 35.5 
L 73.1875 27.203125 
L 10.59375 27.203125 
z
" id="DejaVuSans-8722"/>
       <path d="M 31.78125 34.625 
Q 24.75 34.625 20.71875 30.859375 
Q 16.703125 27.09375 16.703125 20.515625 
Q 16.703125 13.921875 20.71875 10.15625 
Q 24.75 6.390625 31.78125 6.390625 
Q 38.8125 6.390625 42.859375 10.171875 
Q 46.921875 13.96875 46.921875 20.515625 
Q 46.921875 27.09375 42.890625 30.859375 
Q 38.875 34.625 31.78125 34.625 
z
M 21.921875 38.8125 
Q 15.578125 40.375 12.03125 44.71875 
Q 8.5 49.078125 8.5 55.328125 
Q 8.5 64.0625 14.71875 69.140625 
Q 20.953125 74.21875 31.78125 74.21875 
Q 42.671875 74.21875 48.875 69.140625 
Q 55.078125 64.0625 55.078125 55.328125 
Q 55.078125 49.078125 51.53125 44.71875 
Q 48 40.375 41.703125 38.8125 
Q 48.828125 37.15625 52.796875 32.3125 
Q 56.78125 27.484375 56.78125 20.515625 
Q 56.78125 9.90625 50.3125 4.234375 
Q 43.84375 -1.421875 31.78125 -1.421875 
Q 19.734375 -1.421875 13.25 4.234375 
Q 6.78125 9.90625 6.78125 20.515625 
Q 6.78125 27.484375 10.78125 32.3125 
Q 14.796875 37.15625 21.921875 38.8125 
z
M 18.3125 54.390625 
Q 18.3125 48.734375 21.84375 45.5625 
Q 25.390625 42.390625 31.78125 42.390625 
Q 38.140625 42.390625 41.71875 45.5625 
Q 45.3125 48.734375 45.3125 54.390625 
Q 45.3125 60.0625 41.71875 63.234375 
Q 38.140625 66.40625 31.78125 66.40625 
Q 25.390625 66.40625 21.84375 63.234375 
Q 18.3125 60.0625 18.3125 54.390625 
z
" id="DejaVuSans-56"/>
      </defs>
      <g transform="translate(10.755313 240.031907)scale(0.1 -0.1)">
       <use xlink:href="#DejaVuSans-8722"/>
       <use x="83.789062" xlink:href="#DejaVuSans-56"/>
       <use x="147.412109" xlink:href="#DejaVuSans-48"/>
      </g>
     </g>
    </g>
    <g id="ytick_2">
     <g id="line2d_19">
      <path clip-path="url(#pdb833afc17)" d="M 38.86 188.458065 
L 709.2 188.458065 
" style="fill:none;stroke:#b0b0b0;stroke-linecap:square;stroke-width:0.8;"/>
     </g>
     <g id="line2d_20">
      <g>
       <use style="stroke:#000000;stroke-width:0.8;" x="38.86" xlink:href="#m3fc2269cb1" y="188.458065"/>
      </g>
     </g>
     <g id="text_10">
      <!-- −60 -->
      <defs>
       <path d="M 33.015625 40.375 
Q 26.375 40.375 22.484375 35.828125 
Q 18.609375 31.296875 18.609375 23.390625 
Q 18.609375 15.53125 22.484375 10.953125 
Q 26.375 6.390625 33.015625 6.390625 
Q 39.65625 6.390625 43.53125 10.953125 
Q 47.40625 15.53125 47.40625 23.390625 
Q 47.40625 31.296875 43.53125 35.828125 
Q 39.65625 40.375 33.015625 40.375 
z
M 52.59375 71.296875 
L 52.59375 62.3125 
Q 48.875 64.0625 45.09375 64.984375 
Q 41.3125 65.921875 37.59375 65.921875 
Q 27.828125 65.921875 22.671875 59.328125 
Q 17.53125 52.734375 16.796875 39.40625 
Q 19.671875 43.65625 24.015625 45.921875 
Q 28.375 48.1875 33.59375 48.1875 
Q 44.578125 48.1875 50.953125 41.515625 
Q 57.328125 34.859375 57.328125 23.390625 
Q 57.328125 12.15625 50.6875 5.359375 
Q 44.046875 -1.421875 33.015625 -1.421875 
Q 20.359375 -1.421875 13.671875 8.265625 
Q 6.984375 17.96875 6.984375 36.375 
Q 6.984375 53.65625 15.1875 63.9375 
Q 23.390625 74.21875 37.203125 74.21875 
Q 40.921875 74.21875 44.703125 73.484375 
Q 48.484375 72.75 52.59375 71.296875 
z
" id="DejaVuSans-54"/>
      </defs>
      <g transform="translate(10.755313 192.257283)scale(0.1 -0.1)">
       <use xlink:href="#DejaVuSans-8722"/>
       <use x="83.789062" xlink:href="#DejaVuSans-54"/>
       <use x="147.412109" xlink:href="#DejaVuSans-48"/>
      </g>
     </g>
    </g>
    <g id="ytick_3">
     <g id="line2d_21">
      <path clip-path="url(#pdb833afc17)" d="M 38.86 140.683441 
L 709.2 140.683441 
" style="fill:none;stroke:#b0b0b0;stroke-linecap:square;stroke-width:0.8;"/>
     </g>
     <g id="line2d_22">
      <g>
       <use style="stroke:#000000;stroke-width:0.8;" x="38.86" xlink:href="#m3fc2269cb1" y="140.683441"/>
      </g>
     </g>
     <g id="text_11">
      <!-- −40 -->
      <defs>
       <path d="M 37.796875 64.3125 
L 12.890625 25.390625 
L 37.796875 25.390625 
z
M 35.203125 72.90625 
L 47.609375 72.90625 
L 47.609375 25.390625 
L 58.015625 25.390625 
L 58.015625 17.1875 
L 47.609375 17.1875 
L 47.609375 0 
L 37.796875 0 
L 37.796875 17.1875 
L 4.890625 17.1875 
L 4.890625 26.703125 
z
" id="DejaVuSans-52"/>
      </defs>
      <g transform="translate(10.755313 144.48266)scale(0.1 -0.1)">
       <use xlink:href="#DejaVuSans-8722"/>
       <use x="83.789062" xlink:href="#DejaVuSans-52"/>
       <use x="147.412109" xlink:href="#DejaVuSans-48"/>
      </g>
     </g>
    </g>
    <g id="ytick_4">
     <g id="line2d_23">
      <path clip-path="url(#pdb833afc17)" d="M 38.86 92.908817 
L 709.2 92.908817 
" style="fill:none;stroke:#b0b0b0;stroke-linecap:square;stroke-width:0.8;"/>
     </g>
     <g id="line2d_24">
      <g>
       <use style="stroke:#000000;stroke-width:0.8;" x="38.86" xlink:href="#m3fc2269cb1" y="92.908817"/>
      </g>
     </g>
     <g id="text_12">
      <!-- −20 -->
      <g transform="translate(10.755313 96.708036)scale(0.1 -0.1)">
       <use xlink:href="#DejaVuSans-8722"/>
       <use x="83.789062" xlink:href="#DejaVuSans-50"/>
       <use x="147.412109" xlink:href="#DejaVuSans-48"/>
      </g>
     </g>
    </g>
    <g id="ytick_5">
     <g id="line2d_25">
      <path clip-path="url(#pdb833afc17)" d="M 38.86 45.134194 
L 709.2 45.134194 
" style="fill:none;stroke:#b0b0b0;stroke-linecap:square;stroke-width:0.8;"/>
     </g>
     <g id="line2d_26">
      <g>
       <use style="stroke:#000000;stroke-width:0.8;" x="38.86" xlink:href="#m3fc2269cb1" y="45.134194"/>
      </g>
     </g>
     <g id="text_13">
      <!-- 0 -->
      <g transform="translate(25.4975 48.933412)scale(0.1 -0.1)">
       <use xlink:href="#DejaVuSans-48"/>
      </g>
     </g>
    </g>
   </g>
   <g id="line2d_27">
    <path clip-path="url(#pdb833afc17)" d="M 38.86 45.018164 
L 42.787773 45.196153 
L 45.406289 45.239027 
L 50.64332 45.02911 
L 54.571094 45.251114 
L 58.498867 45.019388 
L 59.808125 45.250876 
L 61.117383 46.065219 
L 62.426641 47.761949 
L 63.735898 50.630395 
L 65.045156 54.95518 
L 66.354414 61.043401 
L 67.663672 69.274294 
L 68.97293 80.18966 
L 70.282188 94.691299 
L 71.591445 114.608937 
L 72.900703 145.340993 
L 74.209961 205.401514 
L 75.519219 201.557815 
L 76.828477 193.4507 
L 78.137734 193.266764 
L 79.446992 220.210678 
L 80.75625 189.539371 
L 82.065508 196.125642 
L 83.374766 219.546269 
L 84.684023 190.191249 
L 85.993281 193.00961 
L 87.29451 289 
M 87.310603 289 
L 88.611797 193.430596 
L 89.921055 189.736815 
L 91.230312 210.406828 
L 92.53957 202.285368 
L 93.848828 189.002559 
L 95.158086 196.16157 
L 96.467344 233.365257 
L 97.776602 192.27409 
L 99.085859 189.958105 
L 100.395117 210.668452 
L 101.704375 203.093156 
L 103.013633 189.133433 
L 104.322891 194.772709 
L 105.632148 263.867952 
L 106.941406 193.85567 
L 108.250664 189.266047 
L 109.559922 204.34516 
L 110.86918 209.532616 
L 112.178438 189.968909 
L 113.487695 192.178255 
L 114.796953 227.942779 
L 116.106211 197.618974 
L 117.415469 188.854025 
L 118.724727 198.124259 
L 120.033984 225.490878 
L 121.343242 191.924879 
L 122.6525 189.914798 
L 123.961758 209.267419 
L 125.271016 204.847189 
L 126.580273 189.376759 
L 127.889531 193.302377 
L 129.198789 242.078977 
L 130.508047 196.080342 
L 131.817305 188.921739 
L 133.126563 199.650508 
L 134.43582 220.198548 
L 135.745078 191.458547 
L 137.054336 190.338814 
L 138.363594 211.589779 
L 139.672852 203.492425 
L 140.982109 189.279002 
L 142.291367 193.81465 
L 143.600625 250.888057 
L 144.909883 195.627446 
L 146.219141 188.966011 
L 147.528398 200.129897 
L 148.837656 218.979933 
L 150.146914 191.331661 
L 151.456172 190.389352 
L 152.76543 211.882649 
L 154.074687 203.37221 
L 155.383945 189.253921 
L 156.693203 193.754911 
L 158.002461 249.149743 
L 159.311719 195.728427 
L 160.620977 188.920728 
L 161.930234 199.798117 
L 163.239492 220.047232 
L 164.54875 191.457021 
L 165.858008 190.231384 
L 167.167266 210.837503 
L 168.476523 204.054487 
L 169.785781 189.315849 
L 171.095039 193.379245 
L 172.404297 241.707153 
L 173.713555 196.217689 
L 175.022813 188.858339 
L 176.33207 199.018979 
L 177.641328 222.818562 
L 178.950586 191.780282 
L 180.259844 189.981552 
L 181.569102 209.110585 
L 182.878359 205.337767 
L 184.187617 189.468379 
L 185.496875 192.849165 
L 186.806133 233.913839 
L 188.115391 197.011251 
L 189.424648 188.818284 
L 190.733906 198.023739 
L 192.043164 227.38866 
L 193.352422 192.272111 
L 194.66168 189.706641 
L 195.970937 207.116098 
L 197.280195 207.152344 
L 198.589453 189.713146 
L 199.898711 192.259474 
L 201.207969 227.207709 
L 202.517227 198.071491 
L 203.826484 188.822746 
L 205.135742 196.948492 
L 206.445 234.592148 
L 207.754258 192.918473 
L 209.063516 189.445232 
L 210.372773 205.079979 
L 211.682031 209.510114 
L 212.991289 190.051915 
L 214.300547 191.665413 
L 215.609805 221.629653 
L 216.919063 199.388588 
L 218.22832 188.884986 
L 219.537578 195.87074 
L 220.846836 247.448152 
L 222.156094 193.715131 
L 223.465352 189.220147 
L 224.774609 203.114584 
L 226.083867 212.495504 
L 227.393125 190.487346 
L 228.702383 191.099251 
L 230.011641 216.972748 
L 231.320898 200.972835 
L 232.630156 189.013653 
L 233.939414 194.833559 
L 235.112496 289 
M 235.384629 289 
L 236.55793 194.665011 
L 237.867188 189.04532 
L 239.176445 201.270547 
L 240.485703 216.288694 
L 241.794961 191.023388 
L 243.104219 190.579896 
L 244.413477 213.037088 
L 245.722734 202.853013 
L 247.031992 189.215122 
L 248.34125 193.860149 
L 249.650508 249.982137 
L 250.959766 195.77725 
L 252.269023 188.929655 
L 253.578281 199.566667 
L 254.887539 221.242108 
L 256.196797 191.665625 
L 257.506055 190.118461 
L 258.815313 209.667351 
L 260.12457 205.079385 
L 261.433828 189.494842 
L 262.743086 192.962327 
L 264.052344 234.337502 
L 265.361602 197.067358 
L 266.670859 188.879259 
L 267.980117 198.005923 
L 269.289375 228.107535 
L 270.598633 192.421669 
L 271.907891 189.72152 
L 273.217148 206.74795 
L 274.526406 207.732231 
L 275.835664 189.858216 
L 277.144922 192.145441 
L 278.45418 225.365742 
L 279.763438 198.558423 
L 281.072695 188.898815 
L 282.381953 196.583775 
L 283.691211 238.912089 
L 285.000469 193.301746 
L 286.309727 189.393061 
L 287.618984 204.192848 
L 288.928242 210.939983 
L 290.2375 190.311273 
L 291.546758 191.411205 
L 292.856016 219.04922 
L 294.165273 200.283637 
L 295.474531 188.992481 
L 296.783789 195.292369 
L 298.093047 264.058041 
L 299.402305 194.319602 
L 300.711563 189.135687 
L 303.330078 214.918339 
L 304.639336 190.861352 
L 305.948594 190.759315 
L 307.257852 214.179126 
L 308.567109 202.291039 
L 309.876367 189.164591 
L 311.185625 194.1225 
L 312.494883 256.858625 
L 313.804141 195.494106 
L 315.113398 188.951395 
L 316.422656 199.929568 
L 317.731914 220.064748 
L 319.041172 191.5181 
L 320.35043 190.188272 
L 321.659688 210.221493 
L 322.968945 204.652945 
L 324.278203 189.420453 
L 325.587461 193.064066 
L 326.896719 235.924136 
L 328.205977 196.8527 
L 329.515234 188.842127 
L 330.824492 198.128387 
L 332.13375 227.239638 
L 333.443008 192.295799 
L 334.752266 189.695273 
L 336.061523 206.883625 
L 337.370781 207.489664 
L 338.680039 189.768158 
L 339.989297 192.103496 
L 341.298555 225.510655 
L 342.607813 198.444591 
L 343.91707 188.810153 
L 345.226328 196.482431 
L 346.535586 239.124358 
L 347.844844 193.241938 
L 349.154102 189.287928 
L 350.463359 203.959066 
L 351.772617 211.119097 
L 353.081875 190.277028 
L 354.391133 191.277168 
L 355.700391 218.442992 
L 357.009648 200.423859 
L 358.318906 188.950844 
L 359.628164 195.089104 
L 360.937422 271.73796 
L 362.24668 194.426172 
L 363.555938 189.064903 
L 364.865195 201.587159 
L 366.174453 215.594678 
L 367.483711 190.93237 
L 368.792969 190.636117 
L 370.102227 213.427985 
L 371.411484 202.664553 
L 372.720742 189.194313 
L 374.03 193.912078 
L 375.339258 250.97111 
L 376.648516 195.74441 
L 377.957773 188.930206 
L 379.267031 199.561791 
L 380.576289 221.342221 
L 381.885547 191.688462 
L 383.194805 190.100567 
L 384.504063 209.487955 
L 385.81332 205.254484 
L 387.122578 189.523992 
L 388.431836 192.882393 
L 389.741094 233.168622 
L 391.050352 197.237422 
L 392.359609 188.879938 
L 393.668867 197.796356 
L 394.978125 229.431522 
L 396.287383 192.559845 
L 397.596641 189.660389 
L 398.905898 206.248297 
L 400.215156 208.314342 
L 401.524414 189.94493 
L 402.833672 191.979902 
L 404.14293 223.766654 
L 405.452188 198.941834 
L 406.761445 188.91374 
L 408.070703 196.241894 
L 409.379961 243.108824 
L 410.689219 193.561769 
L 411.998477 189.310134 
L 413.307734 203.507195 
L 414.616992 212.027489 
L 415.92625 190.463726 
L 417.235508 191.19096 
L 418.544766 217.34459 
L 419.854023 200.906008 
L 421.163281 189.033066 
L 422.472539 194.863807 
L 423.607734 289 
M 423.95562 289 
L 425.091055 194.714186 
L 426.400313 189.046417 
L 427.70957 201.139242 
L 429.018828 216.713958 
L 430.328086 191.089856 
L 431.637344 190.50481 
L 432.946602 212.460986 
L 434.255859 203.201488 
L 435.565117 189.241443 
L 436.874375 193.634319 
L 438.183633 245.166348 
L 439.492891 196.046889 
L 440.802148 188.86717 
L 442.111406 199.055139 
L 443.420664 223.034169 
L 444.729922 191.839392 
L 446.03918 189.910418 
L 447.348438 208.494334 
L 448.657695 205.957161 
L 449.966953 189.547386 
L 451.276211 192.51875 
L 452.585469 229.782771 
L 453.894727 197.649594 
L 455.203984 188.793947 
L 456.513242 197.185217 
L 457.8225 232.966489 
L 459.131758 192.809903 
L 460.441016 189.462016 
L 461.750273 205.183252 
L 463.059531 209.473709 
L 464.368789 190.063008 
L 465.678047 191.633908 
L 466.987305 221.154792 
L 468.296563 199.585125 
L 469.60582 188.91055 
L 470.915078 195.678668 
L 472.224336 252.0754 
L 473.533594 193.952038 
L 474.842852 189.180527 
L 476.152109 202.552654 
L 477.461367 213.667121 
L 478.770625 190.683612 
L 480.079883 190.912126 
L 481.389141 215.317972 
L 484.007656 189.113122 
L 485.316914 194.382164 
L 486.626172 266.862398 
L 487.93543 195.234677 
L 489.244688 188.99293 
L 490.553945 200.323397 
L 491.863203 218.976138 
L 493.172461 191.407327 
L 494.481719 190.305302 
L 495.790977 210.870064 
L 497.100234 204.265361 
L 498.409492 189.404908 
L 499.71875 193.250915 
L 501.028008 237.989759 
L 502.337266 196.689893 
L 503.646523 188.894512 
L 504.955781 198.395269 
L 506.265039 226.235287 
L 507.574297 192.247072 
L 508.883555 189.801527 
L 510.192813 207.283911 
L 511.50207 207.219931 
L 512.811328 189.790243 
L 514.120586 192.260171 
L 515.429844 226.395876 
L 516.739102 198.353928 
L 518.048359 188.883889 
L 519.357617 196.705933 
L 520.666875 237.71266 
L 521.976133 193.218557 
L 523.285391 189.39328 
L 524.594648 204.286363 
L 525.903906 210.795684 
L 527.213164 190.276067 
L 528.522422 191.392074 
L 529.83168 219.011652 
L 531.140938 200.277499 
L 532.450195 188.961961 
L 533.759453 195.210043 
L 535.068711 266.612529 
L 536.377969 194.344615 
L 537.687227 189.075107 
L 540.305742 215.305113 
L 541.615 190.873838 
L 542.924258 190.62955 
L 544.233516 213.547523 
L 545.542773 202.548522 
L 546.852031 189.133151 
L 548.161289 193.861335 
L 549.470547 250.915889 
L 550.779805 195.685769 
L 552.089063 188.851654 
L 553.39832 199.41945 
L 554.707578 221.582152 
L 556.016836 191.66704 
L 557.326094 190.008756 
L 558.635352 209.188423 
L 559.944609 205.409602 
L 561.253867 189.501967 
L 562.563125 192.749619 
L 563.872383 232.048637 
L 565.181641 197.350447 
L 566.490898 188.838766 
L 567.800156 197.581307 
L 569.109414 230.550005 
L 570.418672 192.637967 
L 571.72793 189.583557 
L 573.037188 205.851967 
L 574.346445 208.731365 
L 575.655703 189.987293 
L 576.964961 191.845905 
L 578.274219 222.70887 
L 579.583477 199.196304 
L 580.892734 188.91522 
L 582.201992 196.013361 
L 583.51125 246.380228 
L 584.820508 193.730769 
L 586.129766 189.261185 
L 587.439023 203.096608 
L 588.748281 212.736606 
L 590.057539 190.569329 
L 591.366797 191.074928 
L 592.676055 216.413006 
L 593.985313 201.301317 
L 595.29457 189.080783 
L 596.603828 194.649122 
L 597.913086 286.967425 
L 599.222344 194.971678 
L 600.531602 189.033134 
L 601.840859 200.753946 
L 603.150117 217.797186 
L 604.459375 191.258123 
L 605.768633 190.419358 
L 607.077891 211.667577 
L 608.387148 203.741442 
L 609.696406 189.337585 
L 611.005664 193.452864 
L 612.314922 241.209281 
L 613.62418 196.388644 
L 614.933438 188.89556 
L 616.242695 198.724793 
L 617.551953 224.653735 
L 618.861211 192.066051 
L 620.170469 189.867955 
L 621.479727 207.864269 
L 622.788984 206.627168 
L 624.098242 189.690265 
L 625.4075 192.39891 
L 626.716758 227.972759 
L 628.026016 198.020448 
L 629.335273 188.84712 
L 630.644531 196.940281 
L 631.953789 235.269218 
L 633.263047 193.011801 
L 634.572305 189.411792 
L 635.881563 204.684274 
L 637.19082 210.146981 
L 638.500078 190.148212 
L 639.809336 191.463393 
L 641.118594 219.872673 
L 642.427852 199.937085 
L 643.737109 188.889156 
L 645.046367 195.330939 
L 646.355625 260.197591 
L 647.664883 194.163621 
L 648.974141 189.063828 
L 651.592656 214.795034 
L 652.901914 190.800217 
L 654.211172 190.693416 
L 655.52043 214.004196 
L 656.829687 202.336284 
L 658.138945 189.137516 
L 659.448203 194.01827 
L 660.757461 254.290092 
L 662.066719 195.581959 
L 663.375977 188.921792 
L 664.685234 199.719134 
L 665.994492 220.760794 
L 667.30375 191.608766 
L 668.613008 190.124139 
L 669.922266 209.726828 
L 671.231523 205.061006 
L 672.540781 189.491025 
L 673.850039 192.926452 
L 675.159297 233.773728 
L 676.468555 197.156515 
L 677.777813 188.873368 
L 679.08707 197.851353 
L 680.396328 229.105731 
L 681.705586 192.529117 
L 683.014844 189.665976 
L 684.324102 206.303133 
L 685.633359 208.26083 
L 686.942617 189.938063 
L 688.251875 191.98494 
L 689.561133 223.78953 
L 690.870391 198.943861 
L 692.179648 188.915108 
L 693.488906 196.230736 
L 694.798164 243.358185 
L 696.107422 193.58223 
L 697.41668 189.307301 
L 698.725938 203.450161 
L 700.035195 212.147321 
L 701.344453 190.486808 
L 702.653711 191.170355 
L 703.962969 217.134441 
L 705.272227 201.004544 
L 706.581484 189.047782 
L 707.890742 194.803602 
L 707.890742 194.803602 
" style="fill:none;stroke:#ff0000;stroke-linecap:square;stroke-width:1.5;"/>
   </g>
   <g id="line2d_28">
    <path clip-path="url(#pdb833afc17)" d="M 38.86 45.018164 
L 59.808125 45.018164 
" style="fill:none;stroke:#0000ff;stroke-dasharray:3.7,1.6;stroke-dashoffset:0;"/>
   </g>
   <g id="line2d_29">
    <path clip-path="url(#pdb833afc17)" d="M 38.86 45.251114 
L 59.808125 45.251114 
" style="fill:none;stroke:#0000ff;stroke-dasharray:3.7,1.6;stroke-dashoffset:0;"/>
   </g>
   <g id="line2d_30">
    <path clip-path="url(#pdb833afc17)" d="M 73.773542 188.793947 
L 709.2 188.793947 
" style="fill:none;stroke:#0000ff;stroke-dasharray:3.7,1.6;stroke-dashoffset:0;"/>
   </g>
   <g id="patch_3">
    <path d="M 38.86 260.12 
L 38.86 37.968 
" style="fill:none;stroke:#000000;stroke-linecap:square;stroke-linejoin:miter;stroke-width:0.8;"/>
   </g>
   <g id="patch_4">
    <path d="M 709.2 260.12 
L 709.2 37.968 
" style="fill:none;stroke:#000000;stroke-linecap:square;stroke-linejoin:miter;stroke-width:0.8;"/>
   </g>
   <g id="patch_5">
    <path d="M 38.86 260.12 
L 709.2 260.12 
" style="fill:none;stroke:#000000;stroke-linecap:square;stroke-linejoin:miter;stroke-width:0.8;"/>
   </g>
   <g id="patch_6">
    <path d="M 38.86 37.968 
L 709.2 37.968 
" style="fill:none;stroke:#000000;stroke-linecap:square;stroke-linejoin:miter;stroke-width:0.8;"/>
   </g>
   <g id="text_14">
    <!-- Fpdm/5 - Frequency Reponse -->
    <defs>
     <path d="M 9.8125 72.90625 
L 51.703125 72.90625 
L 51.703125 64.59375 
L 19.671875 64.59375 
L 19.671875 43.109375 
L 48.578125 43.109375 
L 48.578125 34.8125 
L 19.671875 34.8125 
L 19.671875 0 
L 9.8125 0 
z
" id="DejaVuSans-70"/>
     <path d="M 18.109375 8.203125 
L 18.109375 -20.796875 
L 9.078125 -20.796875 
L 9.078125 54.6875 
L 18.109375 54.6875 
L 18.109375 46.390625 
Q 20.953125 51.265625 25.265625 53.625 
Q 29.59375 56 35.59375 56 
Q 45.5625 56 51.78125 48.09375 
Q 58.015625 40.1875 58.015625 27.296875 
Q 58.015625 14.40625 51.78125 6.484375 
Q 45.5625 -1.421875 35.59375 -1.421875 
Q 29.59375 -1.421875 25.265625 0.953125 
Q 20.953125 3.328125 18.109375 8.203125 
z
M 48.6875 27.296875 
Q 48.6875 37.203125 44.609375 42.84375 
Q 40.53125 48.484375 33.40625 48.484375 
Q 26.265625 48.484375 22.1875 42.84375 
Q 18.109375 37.203125 18.109375 27.296875 
Q 18.109375 17.390625 22.1875 11.75 
Q 26.265625 6.109375 33.40625 6.109375 
Q 40.53125 6.109375 44.609375 11.75 
Q 48.6875 17.390625 48.6875 27.296875 
z
" id="DejaVuSans-112"/>
     <path d="M 45.40625 46.390625 
L 45.40625 75.984375 
L 54.390625 75.984375 
L 54.390625 0 
L 45.40625 0 
L 45.40625 8.203125 
Q 42.578125 3.328125 38.25 0.953125 
Q 33.9375 -1.421875 27.875 -1.421875 
Q 17.96875 -1.421875 11.734375 6.484375 
Q 5.515625 14.40625 5.515625 27.296875 
Q 5.515625 40.1875 11.734375 48.09375 
Q 17.96875 56 27.875 56 
Q 33.9375 56 38.25 53.625 
Q 42.578125 51.265625 45.40625 46.390625 
z
M 14.796875 27.296875 
Q 14.796875 17.390625 18.875 11.75 
Q 22.953125 6.109375 30.078125 6.109375 
Q 37.203125 6.109375 41.296875 11.75 
Q 45.40625 17.390625 45.40625 27.296875 
Q 45.40625 37.203125 41.296875 42.84375 
Q 37.203125 48.484375 30.078125 48.484375 
Q 22.953125 48.484375 18.875 42.84375 
Q 14.796875 37.203125 14.796875 27.296875 
z
" id="DejaVuSans-100"/>
     <path d="M 52 44.1875 
Q 55.375 50.25 60.0625 53.125 
Q 64.75 56 71.09375 56 
Q 79.640625 56 84.28125 50.015625 
Q 88.921875 44.046875 88.921875 33.015625 
L 88.921875 0 
L 79.890625 0 
L 79.890625 32.71875 
Q 79.890625 40.578125 77.09375 44.375 
Q 74.3125 48.1875 68.609375 48.1875 
Q 61.625 48.1875 57.5625 43.546875 
Q 53.515625 38.921875 53.515625 30.90625 
L 53.515625 0 
L 44.484375 0 
L 44.484375 32.71875 
Q 44.484375 40.625 41.703125 44.40625 
Q 38.921875 48.1875 33.109375 48.1875 
Q 26.21875 48.1875 22.15625 43.53125 
Q 18.109375 38.875 18.109375 30.90625 
L 18.109375 0 
L 9.078125 0 
L 9.078125 54.6875 
L 18.109375 54.6875 
L 18.109375 46.1875 
Q 21.1875 51.21875 25.484375 53.609375 
Q 29.78125 56 35.6875 56 
Q 41.65625 56 45.828125 52.96875 
Q 50 49.953125 52 44.1875 
z
" id="DejaVuSans-109"/>
     <path d="M 25.390625 72.90625 
L 33.6875 72.90625 
L 8.296875 -9.28125 
L 0 -9.28125 
z
" id="DejaVuSans-47"/>
     <path id="DejaVuSans-32"/>
     <path d="M 4.890625 31.390625 
L 31.203125 31.390625 
L 31.203125 23.390625 
L 4.890625 23.390625 
z
" id="DejaVuSans-45"/>
     <path d="M 41.109375 46.296875 
Q 39.59375 47.171875 37.8125 47.578125 
Q 36.03125 48 33.890625 48 
Q 26.265625 48 22.1875 43.046875 
Q 18.109375 38.09375 18.109375 28.8125 
L 18.109375 0 
L 9.078125 0 
L 9.078125 54.6875 
L 18.109375 54.6875 
L 18.109375 46.1875 
Q 20.953125 51.171875 25.484375 53.578125 
Q 30.03125 56 36.53125 56 
Q 37.453125 56 38.578125 55.875 
Q 39.703125 55.765625 41.0625 55.515625 
z
" id="DejaVuSans-114"/>
     <path d="M 56.203125 29.59375 
L 56.203125 25.203125 
L 14.890625 25.203125 
Q 15.484375 15.921875 20.484375 11.0625 
Q 25.484375 6.203125 34.421875 6.203125 
Q 39.59375 6.203125 44.453125 7.46875 
Q 49.3125 8.734375 54.109375 11.28125 
L 54.109375 2.78125 
Q 49.265625 0.734375 44.1875 -0.34375 
Q 39.109375 -1.421875 33.890625 -1.421875 
Q 20.796875 -1.421875 13.15625 6.1875 
Q 5.515625 13.8125 5.515625 26.8125 
Q 5.515625 40.234375 12.765625 48.109375 
Q 20.015625 56 32.328125 56 
Q 43.359375 56 49.78125 48.890625 
Q 56.203125 41.796875 56.203125 29.59375 
z
M 47.21875 32.234375 
Q 47.125 39.59375 43.09375 43.984375 
Q 39.0625 48.390625 32.421875 48.390625 
Q 24.90625 48.390625 20.390625 44.140625 
Q 15.875 39.890625 15.1875 32.171875 
z
" id="DejaVuSans-101"/>
     <path d="M 14.796875 27.296875 
Q 14.796875 17.390625 18.875 11.75 
Q 22.953125 6.109375 30.078125 6.109375 
Q 37.203125 6.109375 41.296875 11.75 
Q 45.40625 17.390625 45.40625 27.296875 
Q 45.40625 37.203125 41.296875 42.84375 
Q 37.203125 48.484375 30.078125 48.484375 
Q 22.953125 48.484375 18.875 42.84375 
Q 14.796875 37.203125 14.796875 27.296875 
z
M 45.40625 8.203125 
Q 42.578125 3.328125 38.25 0.953125 
Q 33.9375 -1.421875 27.875 -1.421875 
Q 17.96875 -1.421875 11.734375 6.484375 
Q 5.515625 14.40625 5.515625 27.296875 
Q 5.515625 40.1875 11.734375 48.09375 
Q 17.96875 56 27.875 56 
Q 33.9375 56 38.25 53.625 
Q 42.578125 51.265625 45.40625 46.390625 
L 45.40625 54.6875 
L 54.390625 54.6875 
L 54.390625 -20.796875 
L 45.40625 -20.796875 
z
" id="DejaVuSans-113"/>
     <path d="M 8.5 21.578125 
L 8.5 54.6875 
L 17.484375 54.6875 
L 17.484375 21.921875 
Q 17.484375 14.15625 20.5 10.265625 
Q 23.53125 6.390625 29.59375 6.390625 
Q 36.859375 6.390625 41.078125 11.03125 
Q 45.3125 15.671875 45.3125 23.6875 
L 45.3125 54.6875 
L 54.296875 54.6875 
L 54.296875 0 
L 45.3125 0 
L 45.3125 8.40625 
Q 42.046875 3.421875 37.71875 1 
Q 33.40625 -1.421875 27.6875 -1.421875 
Q 18.265625 -1.421875 13.375 4.4375 
Q 8.5 10.296875 8.5 21.578125 
z
M 31.109375 56 
z
" id="DejaVuSans-117"/>
     <path d="M 54.890625 33.015625 
L 54.890625 0 
L 45.90625 0 
L 45.90625 32.71875 
Q 45.90625 40.484375 42.875 44.328125 
Q 39.84375 48.1875 33.796875 48.1875 
Q 26.515625 48.1875 22.3125 43.546875 
Q 18.109375 38.921875 18.109375 30.90625 
L 18.109375 0 
L 9.078125 0 
L 9.078125 54.6875 
L 18.109375 54.6875 
L 18.109375 46.1875 
Q 21.34375 51.125 25.703125 53.5625 
Q 30.078125 56 35.796875 56 
Q 45.21875 56 50.046875 50.171875 
Q 54.890625 44.34375 54.890625 33.015625 
z
" id="DejaVuSans-110"/>
     <path d="M 48.78125 52.59375 
L 48.78125 44.1875 
Q 44.96875 46.296875 41.140625 47.34375 
Q 37.3125 48.390625 33.40625 48.390625 
Q 24.65625 48.390625 19.8125 42.84375 
Q 14.984375 37.3125 14.984375 27.296875 
Q 14.984375 17.28125 19.8125 11.734375 
Q 24.65625 6.203125 33.40625 6.203125 
Q 37.3125 6.203125 41.140625 7.25 
Q 44.96875 8.296875 48.78125 10.40625 
L 48.78125 2.09375 
Q 45.015625 0.34375 40.984375 -0.53125 
Q 36.96875 -1.421875 32.421875 -1.421875 
Q 20.0625 -1.421875 12.78125 6.34375 
Q 5.515625 14.109375 5.515625 27.296875 
Q 5.515625 40.671875 12.859375 48.328125 
Q 20.21875 56 33.015625 56 
Q 37.15625 56 41.109375 55.140625 
Q 45.0625 54.296875 48.78125 52.59375 
z
" id="DejaVuSans-99"/>
     <path d="M 32.171875 -5.078125 
Q 28.375 -14.84375 24.75 -17.8125 
Q 21.140625 -20.796875 15.09375 -20.796875 
L 7.90625 -20.796875 
L 7.90625 -13.28125 
L 13.1875 -13.28125 
Q 16.890625 -13.28125 18.9375 -11.515625 
Q 21 -9.765625 23.484375 -3.21875 
L 25.09375 0.875 
L 2.984375 54.6875 
L 12.5 54.6875 
L 29.59375 11.921875 
L 46.6875 54.6875 
L 56.203125 54.6875 
z
" id="DejaVuSans-121"/>
     <path d="M 44.390625 34.1875 
Q 47.5625 33.109375 50.5625 29.59375 
Q 53.5625 26.078125 56.59375 19.921875 
L 66.609375 0 
L 56 0 
L 46.6875 18.703125 
Q 43.0625 26.03125 39.671875 28.421875 
Q 36.28125 30.8125 30.421875 30.8125 
L 19.671875 30.8125 
L 19.671875 0 
L 9.8125 0 
L 9.8125 72.90625 
L 32.078125 72.90625 
Q 44.578125 72.90625 50.734375 67.671875 
Q 56.890625 62.453125 56.890625 51.90625 
Q 56.890625 45.015625 53.6875 40.46875 
Q 50.484375 35.9375 44.390625 34.1875 
z
M 19.671875 64.796875 
L 19.671875 38.921875 
L 32.078125 38.921875 
Q 39.203125 38.921875 42.84375 42.21875 
Q 46.484375 45.515625 46.484375 51.90625 
Q 46.484375 58.296875 42.84375 61.546875 
Q 39.203125 64.796875 32.078125 64.796875 
z
" id="DejaVuSans-82"/>
     <path d="M 30.609375 48.390625 
Q 23.390625 48.390625 19.1875 42.75 
Q 14.984375 37.109375 14.984375 27.296875 
Q 14.984375 17.484375 19.15625 11.84375 
Q 23.34375 6.203125 30.609375 6.203125 
Q 37.796875 6.203125 41.984375 11.859375 
Q 46.1875 17.53125 46.1875 27.296875 
Q 46.1875 37.015625 41.984375 42.703125 
Q 37.796875 48.390625 30.609375 48.390625 
z
M 30.609375 56 
Q 42.328125 56 49.015625 48.375 
Q 55.71875 40.765625 55.71875 27.296875 
Q 55.71875 13.875 49.015625 6.21875 
Q 42.328125 -1.421875 30.609375 -1.421875 
Q 18.84375 -1.421875 12.171875 6.21875 
Q 5.515625 13.875 5.515625 27.296875 
Q 5.515625 40.765625 12.171875 48.375 
Q 18.84375 56 30.609375 56 
z
" id="DejaVuSans-111"/>
     <path d="M 44.28125 53.078125 
L 44.28125 44.578125 
Q 40.484375 46.53125 36.375 47.5 
Q 32.28125 48.484375 27.875 48.484375 
Q 21.1875 48.484375 17.84375 46.4375 
Q 14.5 44.390625 14.5 40.28125 
Q 14.5 37.15625 16.890625 35.375 
Q 19.28125 33.59375 26.515625 31.984375 
L 29.59375 31.296875 
Q 39.15625 29.25 43.1875 25.515625 
Q 47.21875 21.78125 47.21875 15.09375 
Q 47.21875 7.46875 41.1875 3.015625 
Q 35.15625 -1.421875 24.609375 -1.421875 
Q 20.21875 -1.421875 15.453125 -0.5625 
Q 10.6875 0.296875 5.421875 2 
L 5.421875 11.28125 
Q 10.40625 8.6875 15.234375 7.390625 
Q 20.0625 6.109375 24.8125 6.109375 
Q 31.15625 6.109375 34.5625 8.28125 
Q 37.984375 10.453125 37.984375 14.40625 
Q 37.984375 18.0625 35.515625 20.015625 
Q 33.0625 21.96875 24.703125 23.78125 
L 21.578125 24.515625 
Q 13.234375 26.265625 9.515625 29.90625 
Q 5.8125 33.546875 5.8125 39.890625 
Q 5.8125 47.609375 11.28125 51.796875 
Q 16.75 56 26.8125 56 
Q 31.78125 56 36.171875 55.265625 
Q 40.578125 54.546875 44.28125 53.078125 
z
" id="DejaVuSans-115"/>
    </defs>
    <g transform="translate(285.877813 18.530625)scale(0.12 -0.12)">
     <use xlink:href="#DejaVuSans-70"/>
     <use x="57.519531" xlink:href="#DejaVuSans-112"/>
     <use x="120.996094" xlink:href="#DejaVuSans-100"/>
     <use x="184.472656" xlink:href="#DejaVuSans-109"/>
     <use x="281.884766" xlink:href="#DejaVuSans-47"/>
     <use x="315.576172" xlink:href="#DejaVuSans-53"/>
     <use x="379.199219" xlink:href="#DejaVuSans-32"/>
     <use x="410.986328" xlink:href="#DejaVuSans-45"/>
     <use x="447.070312" xlink:href="#DejaVuSans-32"/>
     <use x="478.857422" xlink:href="#DejaVuSans-70"/>
     <use x="536.267578" xlink:href="#DejaVuSans-114"/>
     <use x="577.349609" xlink:href="#DejaVuSans-101"/>
     <use x="638.873047" xlink:href="#DejaVuSans-113"/>
     <use x="702.349609" xlink:href="#DejaVuSans-117"/>
     <use x="765.728516" xlink:href="#DejaVuSans-101"/>
     <use x="827.251953" xlink:href="#DejaVuSans-110"/>
     <use x="890.630859" xlink:href="#DejaVuSans-99"/>
     <use x="945.611328" xlink:href="#DejaVuSans-121"/>
     <use x="1004.791016" xlink:href="#DejaVuSans-32"/>
     <use x="1036.578125" xlink:href="#DejaVuSans-82"/>
     <use x="1105.998047" xlink:href="#DejaVuSans-101"/>
     <use x="1167.521484" xlink:href="#DejaVuSans-112"/>
     <use x="1230.998047" xlink:href="#DejaVuSans-111"/>
     <use x="1292.179688" xlink:href="#DejaVuSans-110"/>
     <use x="1355.558594" xlink:href="#DejaVuSans-115"/>
     <use x="1407.658203" xlink:href="#DejaVuSans-101"/>
    </g>
    <!-- 278 Taps -->
    <defs>
     <path d="M -0.296875 72.90625 
L 61.375 72.90625 
L 61.375 64.59375 
L 35.5 64.59375 
L 35.5 0 
L 25.59375 0 
L 25.59375 64.59375 
L -0.296875 64.59375 
z
" id="DejaVuSans-84"/>
     <path d="M 34.28125 27.484375 
Q 23.390625 27.484375 19.1875 25 
Q 14.984375 22.515625 14.984375 16.5 
Q 14.984375 11.71875 18.140625 8.90625 
Q 21.296875 6.109375 26.703125 6.109375 
Q 34.1875 6.109375 38.703125 11.40625 
Q 43.21875 16.703125 43.21875 25.484375 
L 43.21875 27.484375 
z
M 52.203125 31.203125 
L 52.203125 0 
L 43.21875 0 
L 43.21875 8.296875 
Q 40.140625 3.328125 35.546875 0.953125 
Q 30.953125 -1.421875 24.3125 -1.421875 
Q 15.921875 -1.421875 10.953125 3.296875 
Q 6 8.015625 6 15.921875 
Q 6 25.140625 12.171875 29.828125 
Q 18.359375 34.515625 30.609375 34.515625 
L 43.21875 34.515625 
L 43.21875 35.40625 
Q 43.21875 41.609375 39.140625 45 
Q 35.0625 48.390625 27.6875 48.390625 
Q 23 48.390625 18.546875 47.265625 
Q 14.109375 46.140625 10.015625 43.890625 
L 10.015625 52.203125 
Q 14.9375 54.109375 19.578125 55.046875 
Q 24.21875 56 28.609375 56 
Q 40.484375 56 46.34375 49.84375 
Q 52.203125 43.703125 52.203125 31.203125 
z
" id="DejaVuSans-97"/>
    </defs>
    <g transform="translate(346.409375 31.968)scale(0.12 -0.12)">
     <use xlink:href="#DejaVuSans-50"/>
     <use x="63.623047" xlink:href="#DejaVuSans-55"/>
     <use x="127.246094" xlink:href="#DejaVuSans-56"/>
     <use x="190.869141" xlink:href="#DejaVuSans-32"/>
     <use x="222.65625" xlink:href="#DejaVuSans-84"/>
     <use x="283.490234" xlink:href="#DejaVuSans-97"/>
     <use x="344.769531" xlink:href="#DejaVuSans-112"/>
     <use x="408.246094" xlink:href="#DejaVuSans-115"/>
    </g>
   </g>
  </g>
 </g>
 <defs>
  <clipPath id="pdb833afc17">
   <rect height="222.152" width="670.34" x="38.86" y="37.968"/>
  </clipPath>
 </defs>
</svg>
