<?xml version="1.0" encoding="utf-8" standalone="no"?>
<!DOCTYPE svg PUBLIC "-//W3C//DTD SVG 1.1//EN"
  "http://www.w3.org/Graphics/SVG/1.1/DTD/svg11.dtd">
<!-- Created with matplotlib (https://matplotlib.org/) -->
<svg height="288pt" version="1.1" viewBox="0 0 720 288" width="720pt" xmlns="http://www.w3.org/2000/svg" xmlns:xlink="http://www.w3.org/1999/xlink">
 <defs>
  <style type="text/css">
*{stroke-linecap:butt;stroke-linejoin:round;}
  </style>
 </defs>
 <g id="figure_1">
  <g id="patch_1">
   <path d="M 0 288 
L 720 288 
L 720 0 
L 0 0 
z
" style="fill:#ffffff;"/>
  </g>
  <g id="axes_1">
   <g id="patch_2">
    <path d="M 45.16 247.04 
L 709.2 247.04 
L 709.2 41.856 
L 45.16 41.856 
z
" style="fill:#ffffff;"/>
   </g>
   <g id="matplotlib.axis_1">
    <g id="xtick_1">
     <g id="line2d_1">
      <path clip-path="url(#p0ca7bc86e0)" d="M 45.16 247.04 
L 45.16 41.856 
" style="fill:none;stroke:#b0b0b0;stroke-linecap:square;stroke-width:0.8;"/>
     </g>
     <g id="line2d_2">
      <defs>
       <path d="M 0 0 
L 0 3.5 
" id="ma705eee1e5" style="stroke:#000000;stroke-width:0.8;"/>
      </defs>
      <g>
       <use style="stroke:#000000;stroke-width:0.8;" x="45.16" xlink:href="#ma705eee1e5" y="247.04"/>
      </g>
     </g>
     <g id="text_1">
      <!-- 0.0 -->
      <defs>
       <path d="M 31.78125 66.40625 
Q 24.171875 66.40625 20.328125 58.90625 
Q 16.5 51.421875 16.5 36.375 
Q 16.5 21.390625 20.328125 13.890625 
Q 24.171875 6.390625 31.78125 6.390625 
Q 39.453125 6.390625 43.28125 13.890625 
Q 47.125 21.390625 47.125 36.375 
Q 47.125 51.421875 43.28125 58.90625 
Q 39.453125 66.40625 31.78125 66.40625 
z
M 31.78125 74.21875 
Q 44.046875 74.21875 50.515625 64.515625 
Q 56.984375 54.828125 56.984375 36.375 
Q 56.984375 17.96875 50.515625 8.265625 
Q 44.046875 -1.421875 31.78125 -1.421875 
Q 19.53125 -1.421875 13.0625 8.265625 
Q 6.59375 17.96875 6.59375 36.375 
Q 6.59375 54.828125 13.0625 64.515625 
Q 19.53125 74.21875 31.78125 74.21875 
z
" id="DejaVuSans-48"/>
       <path d="M 10.6875 12.40625 
L 21 12.40625 
L 21 0 
L 10.6875 0 
z
" id="DejaVuSans-46"/>
      </defs>
      <g transform="translate(37.208437 261.638438)scale(0.1 -0.1)">
       <use xlink:href="#DejaVuSans-48"/>
       <use x="63.623047" xlink:href="#DejaVuSans-46"/>
       <use x="95.410156" xlink:href="#DejaVuSans-48"/>
      </g>
     </g>
    </g>
    <g id="xtick_2">
     <g id="line2d_3">
      <path clip-path="url(#p0ca7bc86e0)" d="M 160.444722 247.04 
L 160.444722 41.856 
" style="fill:none;stroke:#b0b0b0;stroke-linecap:square;stroke-width:0.8;"/>
     </g>
     <g id="line2d_4">
      <g>
       <use style="stroke:#000000;stroke-width:0.8;" x="160.444722" xlink:href="#ma705eee1e5" y="247.04"/>
      </g>
     </g>
     <g id="text_2">
      <!-- 0.2 -->
      <defs>
       <path d="M 19.1875 8.296875 
L 53.609375 8.296875 
L 53.609375 0 
L 7.328125 0 
L 7.328125 8.296875 
Q 12.9375 14.109375 22.625 23.890625 
Q 32.328125 33.6875 34.8125 36.53125 
Q 39.546875 41.84375 41.421875 45.53125 
Q 43.3125 49.21875 43.3125 52.78125 
Q 43.3125 58.59375 39.234375 62.25 
Q 35.15625 65.921875 28.609375 65.921875 
Q 23.96875 65.921875 18.8125 64.3125 
Q 13.671875 62.703125 7.8125 59.421875 
L 7.8125 69.390625 
Q 13.765625 71.78125 18.9375 73 
Q 24.125 74.21875 28.421875 74.21875 
Q 39.75 74.21875 46.484375 68.546875 
Q 53.21875 62.890625 53.21875 53.421875 
Q 53.21875 48.921875 51.53125 44.890625 
Q 49.859375 40.875 45.40625 35.40625 
Q 44.1875 33.984375 37.640625 27.21875 
Q 31.109375 20.453125 19.1875 8.296875 
z
" id="DejaVuSans-50"/>
      </defs>
      <g transform="translate(152.49316 261.638438)scale(0.1 -0.1)">
       <use xlink:href="#DejaVuSans-48"/>
       <use x="63.623047" xlink:href="#DejaVuSans-46"/>
       <use x="95.410156" xlink:href="#DejaVuSans-50"/>
      </g>
     </g>
    </g>
    <g id="xtick_3">
     <g id="line2d_5">
      <path clip-path="url(#p0ca7bc86e0)" d="M 275.729444 247.04 
L 275.729444 41.856 
" style="fill:none;stroke:#b0b0b0;stroke-linecap:square;stroke-width:0.8;"/>
     </g>
     <g id="line2d_6">
      <g>
       <use style="stroke:#000000;stroke-width:0.8;" x="275.729444" xlink:href="#ma705eee1e5" y="247.04"/>
      </g>
     </g>
     <g id="text_3">
      <!-- 0.4 -->
      <defs>
       <path d="M 37.796875 64.3125 
L 12.890625 25.390625 
L 37.796875 25.390625 
z
M 35.203125 72.90625 
L 47.609375 72.90625 
L 47.609375 25.390625 
L 58.015625 25.390625 
L 58.015625 17.1875 
L 47.609375 17.1875 
L 47.609375 0 
L 37.796875 0 
L 37.796875 17.1875 
L 4.890625 17.1875 
L 4.890625 26.703125 
z
" id="DejaVuSans-52"/>
      </defs>
      <g transform="translate(267.777882 261.638438)scale(0.1 -0.1)">
       <use xlink:href="#DejaVuSans-48"/>
       <use x="63.623047" xlink:href="#DejaVuSans-46"/>
       <use x="95.410156" xlink:href="#DejaVuSans-52"/>
      </g>
     </g>
    </g>
    <g id="xtick_4">
     <g id="line2d_7">
      <path clip-path="url(#p0ca7bc86e0)" d="M 391.014167 247.04 
L 391.014167 41.856 
" style="fill:none;stroke:#b0b0b0;stroke-linecap:square;stroke-width:0.8;"/>
     </g>
     <g id="line2d_8">
      <g>
       <use style="stroke:#000000;stroke-width:0.8;" x="391.014167" xlink:href="#ma705eee1e5" y="247.04"/>
      </g>
     </g>
     <g id="text_4">
      <!-- 0.6 -->
      <defs>
       <path d="M 33.015625 40.375 
Q 26.375 40.375 22.484375 35.828125 
Q 18.609375 31.296875 18.609375 23.390625 
Q 18.609375 15.53125 22.484375 10.953125 
Q 26.375 6.390625 33.015625 6.390625 
Q 39.65625 6.390625 43.53125 10.953125 
Q 47.40625 15.53125 47.40625 23.390625 
Q 47.40625 31.296875 43.53125 35.828125 
Q 39.65625 40.375 33.015625 40.375 
z
M 52.59375 71.296875 
L 52.59375 62.3125 
Q 48.875 64.0625 45.09375 64.984375 
Q 41.3125 65.921875 37.59375 65.921875 
Q 27.828125 65.921875 22.671875 59.328125 
Q 17.53125 52.734375 16.796875 39.40625 
Q 19.671875 43.65625 24.015625 45.921875 
Q 28.375 48.1875 33.59375 48.1875 
Q 44.578125 48.1875 50.953125 41.515625 
Q 57.328125 34.859375 57.328125 23.390625 
Q 57.328125 12.15625 50.6875 5.359375 
Q 44.046875 -1.421875 33.015625 -1.421875 
Q 20.359375 -1.421875 13.671875 8.265625 
Q 6.984375 17.96875 6.984375 36.375 
Q 6.984375 53.65625 15.1875 63.9375 
Q 23.390625 74.21875 37.203125 74.21875 
Q 40.921875 74.21875 44.703125 73.484375 
Q 48.484375 72.75 52.59375 71.296875 
z
" id="DejaVuSans-54"/>
      </defs>
      <g transform="translate(383.062604 261.638438)scale(0.1 -0.1)">
       <use xlink:href="#DejaVuSans-48"/>
       <use x="63.623047" xlink:href="#DejaVuSans-46"/>
       <use x="95.410156" xlink:href="#DejaVuSans-54"/>
      </g>
     </g>
    </g>
    <g id="xtick_5">
     <g id="line2d_9">
      <path clip-path="url(#p0ca7bc86e0)" d="M 506.298889 247.04 
L 506.298889 41.856 
" style="fill:none;stroke:#b0b0b0;stroke-linecap:square;stroke-width:0.8;"/>
     </g>
     <g id="line2d_10">
      <g>
       <use style="stroke:#000000;stroke-width:0.8;" x="506.298889" xlink:href="#ma705eee1e5" y="247.04"/>
      </g>
     </g>
     <g id="text_5">
      <!-- 0.8 -->
      <defs>
       <path d="M 31.78125 34.625 
Q 24.75 34.625 20.71875 30.859375 
Q 16.703125 27.09375 16.703125 20.515625 
Q 16.703125 13.921875 20.71875 10.15625 
Q 24.75 6.390625 31.78125 6.390625 
Q 38.8125 6.390625 42.859375 10.171875 
Q 46.921875 13.96875 46.921875 20.515625 
Q 46.921875 27.09375 42.890625 30.859375 
Q 38.875 34.625 31.78125 34.625 
z
M 21.921875 38.8125 
Q 15.578125 40.375 12.03125 44.71875 
Q 8.5 49.078125 8.5 55.328125 
Q 8.5 64.0625 14.71875 69.140625 
Q 20.953125 74.21875 31.78125 74.21875 
Q 42.671875 74.21875 48.875 69.140625 
Q 55.078125 64.0625 55.078125 55.328125 
Q 55.078125 49.078125 51.53125 44.71875 
Q 48 40.375 41.703125 38.8125 
Q 48.828125 37.15625 52.796875 32.3125 
Q 56.78125 27.484375 56.78125 20.515625 
Q 56.78125 9.90625 50.3125 4.234375 
Q 43.84375 -1.421875 31.78125 -1.421875 
Q 19.734375 -1.421875 13.25 4.234375 
Q 6.78125 9.90625 6.78125 20.515625 
Q 6.78125 27.484375 10.78125 32.3125 
Q 14.796875 37.15625 21.921875 38.8125 
z
M 18.3125 54.390625 
Q 18.3125 48.734375 21.84375 45.5625 
Q 25.390625 42.390625 31.78125 42.390625 
Q 38.140625 42.390625 41.71875 45.5625 
Q 45.3125 48.734375 45.3125 54.390625 
Q 45.3125 60.0625 41.71875 63.234375 
Q 38.140625 66.40625 31.78125 66.40625 
Q 25.390625 66.40625 21.84375 63.234375 
Q 18.3125 60.0625 18.3125 54.390625 
z
" id="DejaVuSans-56"/>
      </defs>
      <g transform="translate(498.347326 261.638438)scale(0.1 -0.1)">
       <use xlink:href="#DejaVuSans-48"/>
       <use x="63.623047" xlink:href="#DejaVuSans-46"/>
       <use x="95.410156" xlink:href="#DejaVuSans-56"/>
      </g>
     </g>
    </g>
    <g id="xtick_6">
     <g id="line2d_11">
      <path clip-path="url(#p0ca7bc86e0)" d="M 621.583611 247.04 
L 621.583611 41.856 
" style="fill:none;stroke:#b0b0b0;stroke-linecap:square;stroke-width:0.8;"/>
     </g>
     <g id="line2d_12">
      <g>
       <use style="stroke:#000000;stroke-width:0.8;" x="621.583611" xlink:href="#ma705eee1e5" y="247.04"/>
      </g>
     </g>
     <g id="text_6">
      <!-- 1.0 -->
      <defs>
       <path d="M 12.40625 8.296875 
L 28.515625 8.296875 
L 28.515625 63.921875 
L 10.984375 60.40625 
L 10.984375 69.390625 
L 28.421875 72.90625 
L 38.28125 72.90625 
L 38.28125 8.296875 
L 54.390625 8.296875 
L 54.390625 0 
L 12.40625 0 
z
" id="DejaVuSans-49"/>
      </defs>
      <g transform="translate(613.632049 261.638438)scale(0.1 -0.1)">
       <use xlink:href="#DejaVuSans-49"/>
       <use x="63.623047" xlink:href="#DejaVuSans-46"/>
       <use x="95.410156" xlink:href="#DejaVuSans-48"/>
      </g>
     </g>
    </g>
    <g id="text_7">
     <!-- 1e6 -->
     <defs>
      <path d="M 56.203125 29.59375 
L 56.203125 25.203125 
L 14.890625 25.203125 
Q 15.484375 15.921875 20.484375 11.0625 
Q 25.484375 6.203125 34.421875 6.203125 
Q 39.59375 6.203125 44.453125 7.46875 
Q 49.3125 8.734375 54.109375 11.28125 
L 54.109375 2.78125 
Q 49.265625 0.734375 44.1875 -0.34375 
Q 39.109375 -1.421875 33.890625 -1.421875 
Q 20.796875 -1.421875 13.15625 6.1875 
Q 5.515625 13.8125 5.515625 26.8125 
Q 5.515625 40.234375 12.765625 48.109375 
Q 20.015625 56 32.328125 56 
Q 43.359375 56 49.78125 48.890625 
Q 56.203125 41.796875 56.203125 29.59375 
z
M 47.21875 32.234375 
Q 47.125 39.59375 43.09375 43.984375 
Q 39.0625 48.390625 32.421875 48.390625 
Q 24.90625 48.390625 20.390625 44.140625 
Q 15.875 39.890625 15.1875 32.171875 
z
" id="DejaVuSans-101"/>
     </defs>
     <g transform="translate(690.321875 274.316562)scale(0.1 -0.1)">
      <use xlink:href="#DejaVuSans-49"/>
      <use x="63.623047" xlink:href="#DejaVuSans-101"/>
      <use x="125.146484" xlink:href="#DejaVuSans-54"/>
     </g>
    </g>
   </g>
   <g id="matplotlib.axis_2">
    <g id="ytick_1">
     <g id="line2d_13">
      <path clip-path="url(#p0ca7bc86e0)" d="M 45.16 247.04 
L 709.2 247.04 
" style="fill:none;stroke:#b0b0b0;stroke-linecap:square;stroke-width:0.8;"/>
     </g>
     <g id="line2d_14">
      <defs>
       <path d="M 0 0 
L -3.5 0 
" id="mccd43d40cb" style="stroke:#000000;stroke-width:0.8;"/>
      </defs>
      <g>
       <use style="stroke:#000000;stroke-width:0.8;" x="45.16" xlink:href="#mccd43d40cb" y="247.04"/>
      </g>
     </g>
     <g id="text_8">
      <!-- −120 -->
      <defs>
       <path d="M 10.59375 35.5 
L 73.1875 35.5 
L 73.1875 27.203125 
L 10.59375 27.203125 
z
" id="DejaVuSans-8722"/>
      </defs>
      <g transform="translate(10.692812 250.839219)scale(0.1 -0.1)">
       <use xlink:href="#DejaVuSans-8722"/>
       <use x="83.789062" xlink:href="#DejaVuSans-49"/>
       <use x="147.412109" xlink:href="#DejaVuSans-50"/>
       <use x="211.035156" xlink:href="#DejaVuSans-48"/>
      </g>
     </g>
    </g>
    <g id="ytick_2">
     <g id="line2d_15">
      <path clip-path="url(#p0ca7bc86e0)" d="M 45.16 213.676748 
L 709.2 213.676748 
" style="fill:none;stroke:#b0b0b0;stroke-linecap:square;stroke-width:0.8;"/>
     </g>
     <g id="line2d_16">
      <g>
       <use style="stroke:#000000;stroke-width:0.8;" x="45.16" xlink:href="#mccd43d40cb" y="213.676748"/>
      </g>
     </g>
     <g id="text_9">
      <!-- −100 -->
      <g transform="translate(10.692812 217.475967)scale(0.1 -0.1)">
       <use xlink:href="#DejaVuSans-8722"/>
       <use x="83.789062" xlink:href="#DejaVuSans-49"/>
       <use x="147.412109" xlink:href="#DejaVuSans-48"/>
       <use x="211.035156" xlink:href="#DejaVuSans-48"/>
      </g>
     </g>
    </g>
    <g id="ytick_3">
     <g id="line2d_17">
      <path clip-path="url(#p0ca7bc86e0)" d="M 45.16 180.313496 
L 709.2 180.313496 
" style="fill:none;stroke:#b0b0b0;stroke-linecap:square;stroke-width:0.8;"/>
     </g>
     <g id="line2d_18">
      <g>
       <use style="stroke:#000000;stroke-width:0.8;" x="45.16" xlink:href="#mccd43d40cb" y="180.313496"/>
      </g>
     </g>
     <g id="text_10">
      <!-- −80 -->
      <g transform="translate(17.055312 184.112715)scale(0.1 -0.1)">
       <use xlink:href="#DejaVuSans-8722"/>
       <use x="83.789062" xlink:href="#DejaVuSans-56"/>
       <use x="147.412109" xlink:href="#DejaVuSans-48"/>
      </g>
     </g>
    </g>
    <g id="ytick_4">
     <g id="line2d_19">
      <path clip-path="url(#p0ca7bc86e0)" d="M 45.16 146.950244 
L 709.2 146.950244 
" style="fill:none;stroke:#b0b0b0;stroke-linecap:square;stroke-width:0.8;"/>
     </g>
     <g id="line2d_20">
      <g>
       <use style="stroke:#000000;stroke-width:0.8;" x="45.16" xlink:href="#mccd43d40cb" y="146.950244"/>
      </g>
     </g>
     <g id="text_11">
      <!-- −60 -->
      <g transform="translate(17.055312 150.749463)scale(0.1 -0.1)">
       <use xlink:href="#DejaVuSans-8722"/>
       <use x="83.789062" xlink:href="#DejaVuSans-54"/>
       <use x="147.412109" xlink:href="#DejaVuSans-48"/>
      </g>
     </g>
    </g>
    <g id="ytick_5">
     <g id="line2d_21">
      <path clip-path="url(#p0ca7bc86e0)" d="M 45.16 113.586992 
L 709.2 113.586992 
" style="fill:none;stroke:#b0b0b0;stroke-linecap:square;stroke-width:0.8;"/>
     </g>
     <g id="line2d_22">
      <g>
       <use style="stroke:#000000;stroke-width:0.8;" x="45.16" xlink:href="#mccd43d40cb" y="113.586992"/>
      </g>
     </g>
     <g id="text_12">
      <!-- −40 -->
      <g transform="translate(17.055312 117.386211)scale(0.1 -0.1)">
       <use xlink:href="#DejaVuSans-8722"/>
       <use x="83.789062" xlink:href="#DejaVuSans-52"/>
       <use x="147.412109" xlink:href="#DejaVuSans-48"/>
      </g>
     </g>
    </g>
    <g id="ytick_6">
     <g id="line2d_23">
      <path clip-path="url(#p0ca7bc86e0)" d="M 45.16 80.22374 
L 709.2 80.22374 
" style="fill:none;stroke:#b0b0b0;stroke-linecap:square;stroke-width:0.8;"/>
     </g>
     <g id="line2d_24">
      <g>
       <use style="stroke:#000000;stroke-width:0.8;" x="45.16" xlink:href="#mccd43d40cb" y="80.22374"/>
      </g>
     </g>
     <g id="text_13">
      <!-- −20 -->
      <g transform="translate(17.055312 84.022959)scale(0.1 -0.1)">
       <use xlink:href="#DejaVuSans-8722"/>
       <use x="83.789062" xlink:href="#DejaVuSans-50"/>
       <use x="147.412109" xlink:href="#DejaVuSans-48"/>
      </g>
     </g>
    </g>
    <g id="ytick_7">
     <g id="line2d_25">
      <path clip-path="url(#p0ca7bc86e0)" d="M 45.16 46.860488 
L 709.2 46.860488 
" style="fill:none;stroke:#b0b0b0;stroke-linecap:square;stroke-width:0.8;"/>
     </g>
     <g id="line2d_26">
      <g>
       <use style="stroke:#000000;stroke-width:0.8;" x="45.16" xlink:href="#mccd43d40cb" y="46.860488"/>
      </g>
     </g>
     <g id="text_14">
      <!-- 0 -->
      <g transform="translate(31.7975 50.659707)scale(0.1 -0.1)">
       <use xlink:href="#DejaVuSans-48"/>
      </g>
     </g>
    </g>
   </g>
   <g id="line2d_27">
    <path clip-path="url(#p0ca7bc86e0)" d="M 45.16 46.885224 
L 52.941719 46.983419 
L 60.723438 47.278372 
L 68.505156 47.771189 
L 76.286875 48.46374 
L 84.068594 49.358691 
L 91.850313 50.459556 
L 99.632031 51.770772 
L 107.41375 53.29779 
L 115.195469 55.047195 
L 122.977187 57.026864 
L 130.758906 59.246165 
L 138.540625 61.716209 
L 146.322344 64.450181 
L 152.807109 66.941338 
L 159.291875 69.637304 
L 165.776641 72.550536 
L 172.261406 75.695657 
L 178.746172 79.089959 
L 185.230938 82.754086 
L 191.715703 86.712966 
L 196.903516 90.112558 
L 202.091328 93.73911 
L 207.279141 97.615442 
L 212.466953 101.769464 
L 217.654766 106.235912 
L 222.842578 111.058929 
L 226.733438 114.944153 
L 230.624297 119.093148 
L 234.515156 123.545765 
L 238.406016 128.354262 
L 242.296875 133.589537 
L 244.890781 137.364696 
L 247.484688 141.414049 
L 250.078594 145.79272 
L 252.6725 150.578217 
L 255.266406 155.885525 
L 257.860313 161.898175 
L 259.157266 165.261268 
L 260.454219 168.941697 
L 261.751172 173.035732 
L 263.048125 177.697782 
L 264.345078 183.201199 
L 265.642031 190.108796 
L 266.938984 199.934869 
L 268.235938 220.894728 
L 269.532891 215.180971 
L 270.829844 203.58713 
L 272.126797 198.948963 
L 273.42375 196.716759 
L 274.720703 195.800422 
L 276.017656 195.786482 
L 277.314609 196.500172 
L 278.611563 197.888193 
L 279.908516 199.989728 
L 281.205469 202.956337 
L 282.502422 207.146905 
L 283.799375 213.469601 
L 285.096328 225.261353 
L 286.393281 245.774694 
L 287.690234 219.963766 
L 288.987188 211.58082 
L 290.284141 206.661318 
L 291.581094 203.330762 
L 292.878047 200.94236 
L 294.175 199.19551 
L 295.471953 197.926857 
L 296.768906 197.03905 
L 298.065859 196.470981 
L 299.362813 196.183658 
L 300.659766 196.152969 
L 301.956719 196.365907 
L 303.253672 196.818794 
L 304.550625 197.516918 
L 305.847578 198.475464 
L 307.144531 199.722055 
L 308.441484 201.301832 
L 309.738438 203.287244 
L 311.035391 205.797807 
L 312.332344 209.044118 
L 313.629297 213.44262 
L 314.92625 220.003831 
L 316.223203 232.574854 
L 317.520156 246.555675 
L 318.817109 224.50621 
L 320.114063 216.290557 
L 321.411016 211.23625 
L 322.707969 207.65341 
L 324.004922 204.939834 
L 325.301875 202.810843 
L 326.598828 201.109385 
L 327.895781 199.739925 
L 329.192734 198.640386 
L 330.489688 197.768568 
L 331.786641 197.094935 
L 333.083594 196.598517 
L 334.380547 196.264464 
L 335.6775 196.082545 
L 336.974453 196.046239 
L 338.271406 196.1522 
L 339.568359 196.400008 
L 340.865313 196.792172 
L 342.162266 197.334358 
L 343.459219 198.035909 
L 344.756172 198.910745 
L 346.053125 199.978844 
L 347.350078 201.268654 
L 348.647031 202.821145 
L 349.943984 204.696945 
L 351.240937 206.989749 
L 352.537891 209.853999 
L 353.834844 213.569935 
L 355.131797 218.729692 
L 356.42875 226.986011 
L 357.725703 248.474607 
L 360.319609 223.087607 
L 361.616563 216.522547 
L 362.913516 212.123499 
L 364.210469 208.858699 
L 365.507422 206.302568 
L 366.804375 204.237972 
L 368.101328 202.539213 
L 369.398281 201.127158 
L 370.695234 199.948964 
L 371.992188 198.967803 
L 373.289141 198.157214 
L 374.586094 197.497789 
L 375.883047 196.975138 
L 377.18 196.578585 
L 379.773906 196.134858 
L 382.367813 196.129899 
L 384.961719 196.555727 
L 386.258672 196.934978 
L 387.555625 197.431332 
L 388.852578 198.052234 
L 390.149531 198.807981 
L 391.446484 199.712557 
L 392.743438 200.784925 
L 394.040391 202.051043 
L 395.337344 203.547151 
L 396.634297 205.325361 
L 397.93125 207.463819 
L 399.228203 210.086728 
L 400.525156 213.408565 
L 401.822109 217.848992 
L 403.119063 224.421194 
L 404.416016 236.974416 
L 405.712969 250.911525 
L 407.009922 228.791678 
L 408.306875 220.481863 
L 409.603828 215.310149 
L 410.900781 211.587295 
L 412.197734 208.711509 
L 413.494688 206.398294 
L 414.791641 204.490544 
L 416.088594 202.892425 
L 417.385547 201.541299 
L 418.6825 200.394118 
L 419.979453 199.420178 
L 421.276406 198.596965 
L 423.870313 197.339482 
L 426.464219 196.530235 
L 429.058125 196.117382 
L 431.652031 196.075049 
L 434.245938 196.397521 
L 436.839844 197.09813 
L 439.43375 198.212299 
L 440.730703 198.943548 
L 442.027656 199.806275 
L 443.324609 200.816728 
L 444.621563 201.996659 
L 445.918516 203.375726 
L 447.215469 204.995458 
L 448.512422 206.91613 
L 449.809375 209.22958 
L 451.106328 212.085402 
L 452.403281 215.751792 
L 453.700234 220.786523 
L 454.997188 228.702164 
L 456.294141 247.774869 
L 457.591094 239.814772 
L 458.888047 226.141171 
L 460.185 219.293384 
L 461.481953 214.728948 
L 462.778906 211.333998 
L 464.075859 208.658795 
L 465.372813 206.476491 
L 466.669766 204.656646 
L 467.966719 203.117448 
L 469.263672 201.804312 
L 470.560625 200.679123 
L 471.857578 199.714336 
L 474.451484 198.189246 
L 477.045391 197.117771 
L 479.639297 196.434552 
L 482.233203 196.102188 
L 484.827109 196.102803 
L 487.421016 196.4345 
L 490.014922 197.111048 
L 492.608828 198.164679 
L 495.202734 199.653248 
L 496.499688 200.589201 
L 497.796641 201.675566 
L 499.093594 202.93652 
L 500.390547 204.405159 
L 501.6875 206.128187 
L 502.984453 208.174229 
L 504.281406 210.649722 
L 505.578359 213.732589 
L 506.875313 217.754564 
L 508.172266 223.452441 
L 509.469219 233.118891 
L 510.766172 277.500151 
L 512.063125 234.551228 
L 513.360078 224.18439 
L 514.657031 218.260234 
L 515.953984 214.130072 
L 517.250938 210.985916 
L 518.547891 208.472225 
L 519.844844 206.400804 
L 521.141797 204.660006 
L 522.43875 203.178249 
L 523.735703 201.906987 
L 525.032656 200.811889 
L 527.626562 199.056235 
L 530.220469 197.776158 
L 532.814375 196.892216 
L 535.408281 196.357115 
L 538.002188 196.14457 
L 540.596094 196.244031 
L 543.19 196.658761 
L 545.783906 197.406462 
L 548.377813 198.522695 
L 550.971719 200.068625 
L 552.268672 201.032498 
L 553.565625 202.147127 
L 554.862578 203.437573 
L 556.159531 204.938187 
L 557.456484 206.697574 
L 558.753438 208.78745 
L 560.050391 211.319746 
L 561.347344 214.483286 
L 562.644297 218.635183 
L 563.94125 224.588348 
L 565.238203 235.017467 
L 566.535156 276.089146 
L 567.832109 233.417932 
L 569.129063 223.802825 
L 570.426016 218.126586 
L 571.722969 214.117409 
L 573.019922 211.042758 
L 574.316875 208.57226 
L 575.613828 206.528505 
L 576.910781 204.805235 
L 578.207734 203.333851 
L 579.504688 202.067587 
L 580.801641 200.973228 
L 583.395547 199.208945 
L 585.989453 197.909235 
L 588.583359 196.996066 
L 591.177266 196.42247 
L 593.771172 196.161697 
L 596.365078 196.201979 
L 598.958984 196.544434 
L 601.552891 197.203277 
L 604.146797 198.208417 
L 606.740703 199.611518 
L 608.037656 200.487232 
L 609.334609 201.498435 
L 610.631562 202.665451 
L 611.928516 204.0156 
L 613.225469 205.586592 
L 614.522422 207.432311 
L 615.819375 209.63333 
L 617.116328 212.317761 
L 618.413281 215.707565 
L 619.710234 220.240247 
L 621.007188 226.987908 
L 622.304141 240.195297 
L 623.601094 250.446967 
L 624.898047 230.276415 
L 626.195 222.199425 
L 627.491953 217.096681 
L 628.788906 213.388057 
L 630.085859 210.498593 
L 631.382813 208.153579 
L 632.679766 206.200294 
L 633.976719 204.545112 
L 635.273672 203.12657 
L 636.570625 201.902235 
L 639.164531 199.922441 
L 641.758438 198.443994 
L 644.352344 197.372684 
L 646.94625 196.651544 
L 649.540156 196.246738 
L 652.134063 196.140621 
L 654.727969 196.328543 
L 657.321875 196.81806 
L 659.915781 197.630245 
L 662.509688 198.803616 
L 665.103594 200.40237 
L 666.400547 201.39218 
L 667.6975 202.533241 
L 668.994453 203.85148 
L 670.291406 205.382482 
L 671.588359 207.176732 
L 672.885313 209.309034 
L 674.182266 211.896858 
L 675.479219 215.14018 
L 676.776172 219.422579 
L 678.073125 225.639206 
L 679.370078 236.915086 
L 680.667031 261.561227 
L 681.963984 232.417227 
L 683.260938 223.41681 
L 684.557891 217.957079 
L 685.854844 214.056677 
L 687.151797 211.045864 
L 688.44875 208.615919 
L 689.745703 206.598894 
L 691.042656 204.893326 
L 692.339609 203.433302 
L 693.636562 202.173673 
L 696.230469 200.135389 
L 698.824375 198.608287 
L 701.418281 197.49374 
L 704.012188 196.732141 
L 706.606094 196.287842 
L 707.903047 196.178181 
L 707.903047 196.178181 
" style="fill:none;stroke:#ff0000;stroke-linecap:square;stroke-width:1.5;"/>
   </g>
   <g id="line2d_28">
    <path clip-path="url(#p0ca7bc86e0)" d="M 45.16 46.885224 
L 50.924236 46.885224 
" style="fill:none;stroke:#0000ff;stroke-dasharray:3.7,1.6;stroke-dashoffset:0;"/>
   </g>
   <g id="line2d_29">
    <path clip-path="url(#p0ca7bc86e0)" d="M 45.16 46.909767 
L 50.924236 46.909767 
" style="fill:none;stroke:#0000ff;stroke-dasharray:3.7,1.6;stroke-dashoffset:0;"/>
   </g>
   <g id="line2d_30">
    <path clip-path="url(#p0ca7bc86e0)" d="M 266.506667 195.786482 
L 709.2 195.786482 
" style="fill:none;stroke:#0000ff;stroke-dasharray:3.7,1.6;stroke-dashoffset:0;"/>
   </g>
   <g id="patch_3">
    <path d="M 45.16 247.04 
L 45.16 41.856 
" style="fill:none;stroke:#000000;stroke-linecap:square;stroke-linejoin:miter;stroke-width:0.8;"/>
   </g>
   <g id="patch_4">
    <path d="M 709.2 247.04 
L 709.2 41.856 
" style="fill:none;stroke:#000000;stroke-linecap:square;stroke-linejoin:miter;stroke-width:0.8;"/>
   </g>
   <g id="patch_5">
    <path d="M 45.16 247.04 
L 709.2 247.04 
" style="fill:none;stroke:#000000;stroke-linecap:square;stroke-linejoin:miter;stroke-width:0.8;"/>
   </g>
   <g id="patch_6">
    <path d="M 45.16 41.856 
L 709.2 41.856 
" style="fill:none;stroke:#000000;stroke-linecap:square;stroke-linejoin:miter;stroke-width:0.8;"/>
   </g>
   <g id="text_15">
    <!-- Fpdm to Fpdm/6 - Frequency Reponse -->
    <defs>
     <path d="M 9.8125 72.90625 
L 51.703125 72.90625 
L 51.703125 64.59375 
L 19.671875 64.59375 
L 19.671875 43.109375 
L 48.578125 43.109375 
L 48.578125 34.8125 
L 19.671875 34.8125 
L 19.671875 0 
L 9.8125 0 
z
" id="DejaVuSans-70"/>
     <path d="M 18.109375 8.203125 
L 18.109375 -20.796875 
L 9.078125 -20.796875 
L 9.078125 54.6875 
L 18.109375 54.6875 
L 18.109375 46.390625 
Q 20.953125 51.265625 25.265625 53.625 
Q 29.59375 56 35.59375 56 
Q 45.5625 56 51.78125 48.09375 
Q 58.015625 40.1875 58.015625 27.296875 
Q 58.015625 14.40625 51.78125 6.484375 
Q 45.5625 -1.421875 35.59375 -1.421875 
Q 29.59375 -1.421875 25.265625 0.953125 
Q 20.953125 3.328125 18.109375 8.203125 
z
M 48.6875 27.296875 
Q 48.6875 37.203125 44.609375 42.84375 
Q 40.53125 48.484375 33.40625 48.484375 
Q 26.265625 48.484375 22.1875 42.84375 
Q 18.109375 37.203125 18.109375 27.296875 
Q 18.109375 17.390625 22.1875 11.75 
Q 26.265625 6.109375 33.40625 6.109375 
Q 40.53125 6.109375 44.609375 11.75 
Q 48.6875 17.390625 48.6875 27.296875 
z
" id="DejaVuSans-112"/>
     <path d="M 45.40625 46.390625 
L 45.40625 75.984375 
L 54.390625 75.984375 
L 54.390625 0 
L 45.40625 0 
L 45.40625 8.203125 
Q 42.578125 3.328125 38.25 0.953125 
Q 33.9375 -1.421875 27.875 -1.421875 
Q 17.96875 -1.421875 11.734375 6.484375 
Q 5.515625 14.40625 5.515625 27.296875 
Q 5.515625 40.1875 11.734375 48.09375 
Q 17.96875 56 27.875 56 
Q 33.9375 56 38.25 53.625 
Q 42.578125 51.265625 45.40625 46.390625 
z
M 14.796875 27.296875 
Q 14.796875 17.390625 18.875 11.75 
Q 22.953125 6.109375 30.078125 6.109375 
Q 37.203125 6.109375 41.296875 11.75 
Q 45.40625 17.390625 45.40625 27.296875 
Q 45.40625 37.203125 41.296875 42.84375 
Q 37.203125 48.484375 30.078125 48.484375 
Q 22.953125 48.484375 18.875 42.84375 
Q 14.796875 37.203125 14.796875 27.296875 
z
" id="DejaVuSans-100"/>
     <path d="M 52 44.1875 
Q 55.375 50.25 60.0625 53.125 
Q 64.75 56 71.09375 56 
Q 79.640625 56 84.28125 50.015625 
Q 88.921875 44.046875 88.921875 33.015625 
L 88.921875 0 
L 79.890625 0 
L 79.890625 32.71875 
Q 79.890625 40.578125 77.09375 44.375 
Q 74.3125 48.1875 68.609375 48.1875 
Q 61.625 48.1875 57.5625 43.546875 
Q 53.515625 38.921875 53.515625 30.90625 
L 53.515625 0 
L 44.484375 0 
L 44.484375 32.71875 
Q 44.484375 40.625 41.703125 44.40625 
Q 38.921875 48.1875 33.109375 48.1875 
Q 26.21875 48.1875 22.15625 43.53125 
Q 18.109375 38.875 18.109375 30.90625 
L 18.109375 0 
L 9.078125 0 
L 9.078125 54.6875 
L 18.109375 54.6875 
L 18.109375 46.1875 
Q 21.1875 51.21875 25.484375 53.609375 
Q 29.78125 56 35.6875 56 
Q 41.65625 56 45.828125 52.96875 
Q 50 49.953125 52 44.1875 
z
" id="DejaVuSans-109"/>
     <path id="DejaVuSans-32"/>
     <path d="M 18.3125 70.21875 
L 18.3125 54.6875 
L 36.8125 54.6875 
L 36.8125 47.703125 
L 18.3125 47.703125 
L 18.3125 18.015625 
Q 18.3125 11.328125 20.140625 9.421875 
Q 21.96875 7.515625 27.59375 7.515625 
L 36.8125 7.515625 
L 36.8125 0 
L 27.59375 0 
Q 17.1875 0 13.234375 3.875 
Q 9.28125 7.765625 9.28125 18.015625 
L 9.28125 47.703125 
L 2.6875 47.703125 
L 2.6875 54.6875 
L 9.28125 54.6875 
L 9.28125 70.21875 
z
" id="DejaVuSans-116"/>
     <path d="M 30.609375 48.390625 
Q 23.390625 48.390625 19.1875 42.75 
Q 14.984375 37.109375 14.984375 27.296875 
Q 14.984375 17.484375 19.15625 11.84375 
Q 23.34375 6.203125 30.609375 6.203125 
Q 37.796875 6.203125 41.984375 11.859375 
Q 46.1875 17.53125 46.1875 27.296875 
Q 46.1875 37.015625 41.984375 42.703125 
Q 37.796875 48.390625 30.609375 48.390625 
z
M 30.609375 56 
Q 42.328125 56 49.015625 48.375 
Q 55.71875 40.765625 55.71875 27.296875 
Q 55.71875 13.875 49.015625 6.21875 
Q 42.328125 -1.421875 30.609375 -1.421875 
Q 18.84375 -1.421875 12.171875 6.21875 
Q 5.515625 13.875 5.515625 27.296875 
Q 5.515625 40.765625 12.171875 48.375 
Q 18.84375 56 30.609375 56 
z
" id="DejaVuSans-111"/>
     <path d="M 25.390625 72.90625 
L 33.6875 72.90625 
L 8.296875 -9.28125 
L 0 -9.28125 
z
" id="DejaVuSans-47"/>
     <path d="M 4.890625 31.390625 
L 31.203125 31.390625 
L 31.203125 23.390625 
L 4.890625 23.390625 
z
" id="DejaVuSans-45"/>
     <path d="M 41.109375 46.296875 
Q 39.59375 47.171875 37.8125 47.578125 
Q 36.03125 48 33.890625 48 
Q 26.265625 48 22.1875 43.046875 
Q 18.109375 38.09375 18.109375 28.8125 
L 18.109375 0 
L 9.078125 0 
L 9.078125 54.6875 
L 18.109375 54.6875 
L 18.109375 46.1875 
Q 20.953125 51.171875 25.484375 53.578125 
Q 30.03125 56 36.53125 56 
Q 37.453125 56 38.578125 55.875 
Q 39.703125 55.765625 41.0625 55.515625 
z
" id="DejaVuSans-114"/>
     <path d="M 14.796875 27.296875 
Q 14.796875 17.390625 18.875 11.75 
Q 22.953125 6.109375 30.078125 6.109375 
Q 37.203125 6.109375 41.296875 11.75 
Q 45.40625 17.390625 45.40625 27.296875 
Q 45.40625 37.203125 41.296875 42.84375 
Q 37.203125 48.484375 30.078125 48.484375 
Q 22.953125 48.484375 18.875 42.84375 
Q 14.796875 37.203125 14.796875 27.296875 
z
M 45.40625 8.203125 
Q 42.578125 3.328125 38.25 0.953125 
Q 33.9375 -1.421875 27.875 -1.421875 
Q 17.96875 -1.421875 11.734375 6.484375 
Q 5.515625 14.40625 5.515625 27.296875 
Q 5.515625 40.1875 11.734375 48.09375 
Q 17.96875 56 27.875 56 
Q 33.9375 56 38.25 53.625 
Q 42.578125 51.265625 45.40625 46.390625 
L 45.40625 54.6875 
L 54.390625 54.6875 
L 54.390625 -20.796875 
L 45.40625 -20.796875 
z
" id="DejaVuSans-113"/>
     <path d="M 8.5 21.578125 
L 8.5 54.6875 
L 17.484375 54.6875 
L 17.484375 21.921875 
Q 17.484375 14.15625 20.5 10.265625 
Q 23.53125 6.390625 29.59375 6.390625 
Q 36.859375 6.390625 41.078125 11.03125 
Q 45.3125 15.671875 45.3125 23.6875 
L 45.3125 54.6875 
L 54.296875 54.6875 
L 54.296875 0 
L 45.3125 0 
L 45.3125 8.40625 
Q 42.046875 3.421875 37.71875 1 
Q 33.40625 -1.421875 27.6875 -1.421875 
Q 18.265625 -1.421875 13.375 4.4375 
Q 8.5 10.296875 8.5 21.578125 
z
M 31.109375 56 
z
" id="DejaVuSans-117"/>
     <path d="M 54.890625 33.015625 
L 54.890625 0 
L 45.90625 0 
L 45.90625 32.71875 
Q 45.90625 40.484375 42.875 44.328125 
Q 39.84375 48.1875 33.796875 48.1875 
Q 26.515625 48.1875 22.3125 43.546875 
Q 18.109375 38.921875 18.109375 30.90625 
L 18.109375 0 
L 9.078125 0 
L 9.078125 54.6875 
L 18.109375 54.6875 
L 18.109375 46.1875 
Q 21.34375 51.125 25.703125 53.5625 
Q 30.078125 56 35.796875 56 
Q 45.21875 56 50.046875 50.171875 
Q 54.890625 44.34375 54.890625 33.015625 
z
" id="DejaVuSans-110"/>
     <path d="M 48.78125 52.59375 
L 48.78125 44.1875 
Q 44.96875 46.296875 41.140625 47.34375 
Q 37.3125 48.390625 33.40625 48.390625 
Q 24.65625 48.390625 19.8125 42.84375 
Q 14.984375 37.3125 14.984375 27.296875 
Q 14.984375 17.28125 19.8125 11.734375 
Q 24.65625 6.203125 33.40625 6.203125 
Q 37.3125 6.203125 41.140625 7.25 
Q 44.96875 8.296875 48.78125 10.40625 
L 48.78125 2.09375 
Q 45.015625 0.34375 40.984375 -0.53125 
Q 36.96875 -1.421875 32.421875 -1.421875 
Q 20.0625 -1.421875 12.78125 6.34375 
Q 5.515625 14.109375 5.515625 27.296875 
Q 5.515625 40.671875 12.859375 48.328125 
Q 20.21875 56 33.015625 56 
Q 37.15625 56 41.109375 55.140625 
Q 45.0625 54.296875 48.78125 52.59375 
z
" id="DejaVuSans-99"/>
     <path d="M 32.171875 -5.078125 
Q 28.375 -14.84375 24.75 -17.8125 
Q 21.140625 -20.796875 15.09375 -20.796875 
L 7.90625 -20.796875 
L 7.90625 -13.28125 
L 13.1875 -13.28125 
Q 16.890625 -13.28125 18.9375 -11.515625 
Q 21 -9.765625 23.484375 -3.21875 
L 25.09375 0.875 
L 2.984375 54.6875 
L 12.5 54.6875 
L 29.59375 11.921875 
L 46.6875 54.6875 
L 56.203125 54.6875 
z
" id="DejaVuSans-121"/>
     <path d="M 44.390625 34.1875 
Q 47.5625 33.109375 50.5625 29.59375 
Q 53.5625 26.078125 56.59375 19.921875 
L 66.609375 0 
L 56 0 
L 46.6875 18.703125 
Q 43.0625 26.03125 39.671875 28.421875 
Q 36.28125 30.8125 30.421875 30.8125 
L 19.671875 30.8125 
L 19.671875 0 
L 9.8125 0 
L 9.8125 72.90625 
L 32.078125 72.90625 
Q 44.578125 72.90625 50.734375 67.671875 
Q 56.890625 62.453125 56.890625 51.90625 
Q 56.890625 45.015625 53.6875 40.46875 
Q 50.484375 35.9375 44.390625 34.1875 
z
M 19.671875 64.796875 
L 19.671875 38.921875 
L 32.078125 38.921875 
Q 39.203125 38.921875 42.84375 42.21875 
Q 46.484375 45.515625 46.484375 51.90625 
Q 46.484375 58.296875 42.84375 61.546875 
Q 39.203125 64.796875 32.078125 64.796875 
z
" id="DejaVuSans-82"/>
     <path d="M 44.28125 53.078125 
L 44.28125 44.578125 
Q 40.484375 46.53125 36.375 47.5 
Q 32.28125 48.484375 27.875 48.484375 
Q 21.1875 48.484375 17.84375 46.4375 
Q 14.5 44.390625 14.5 40.28125 
Q 14.5 37.15625 16.890625 35.375 
Q 19.28125 33.59375 26.515625 31.984375 
L 29.59375 31.296875 
Q 39.15625 29.25 43.1875 25.515625 
Q 47.21875 21.78125 47.21875 15.09375 
Q 47.21875 7.46875 41.1875 3.015625 
Q 35.15625 -1.421875 24.609375 -1.421875 
Q 20.21875 -1.421875 15.453125 -0.5625 
Q 10.6875 0.296875 5.421875 2 
L 5.421875 11.28125 
Q 10.40625 8.6875 15.234375 7.390625 
Q 20.0625 6.109375 24.8125 6.109375 
Q 31.15625 6.109375 34.5625 8.28125 
Q 37.984375 10.453125 37.984375 14.40625 
Q 37.984375 18.0625 35.515625 20.015625 
Q 33.0625 21.96875 24.703125 23.78125 
L 21.578125 24.515625 
Q 13.234375 26.265625 9.515625 29.90625 
Q 5.8125 33.546875 5.8125 39.890625 
Q 5.8125 47.609375 11.28125 51.796875 
Q 16.75 56 26.8125 56 
Q 31.78125 56 36.171875 55.265625 
Q 40.578125 54.546875 44.28125 53.078125 
z
" id="DejaVuSans-115"/>
    </defs>
    <g transform="translate(263.105 22.418625)scale(0.12 -0.12)">
     <use xlink:href="#DejaVuSans-70"/>
     <use x="57.519531" xlink:href="#DejaVuSans-112"/>
     <use x="120.996094" xlink:href="#DejaVuSans-100"/>
     <use x="184.472656" xlink:href="#DejaVuSans-109"/>
     <use x="281.884766" xlink:href="#DejaVuSans-32"/>
     <use x="313.671875" xlink:href="#DejaVuSans-116"/>
     <use x="352.880859" xlink:href="#DejaVuSans-111"/>
     <use x="414.0625" xlink:href="#DejaVuSans-32"/>
     <use x="445.849609" xlink:href="#DejaVuSans-70"/>
     <use x="503.369141" xlink:href="#DejaVuSans-112"/>
     <use x="566.845703" xlink:href="#DejaVuSans-100"/>
     <use x="630.322266" xlink:href="#DejaVuSans-109"/>
     <use x="727.734375" xlink:href="#DejaVuSans-47"/>
     <use x="761.425781" xlink:href="#DejaVuSans-54"/>
     <use x="825.048828" xlink:href="#DejaVuSans-32"/>
     <use x="856.835938" xlink:href="#DejaVuSans-45"/>
     <use x="892.919922" xlink:href="#DejaVuSans-32"/>
     <use x="924.707031" xlink:href="#DejaVuSans-70"/>
     <use x="974.976562" xlink:href="#DejaVuSans-114"/>
     <use x="1013.839844" xlink:href="#DejaVuSans-101"/>
     <use x="1075.363281" xlink:href="#DejaVuSans-113"/>
     <use x="1138.839844" xlink:href="#DejaVuSans-117"/>
     <use x="1202.21875" xlink:href="#DejaVuSans-101"/>
     <use x="1263.742188" xlink:href="#DejaVuSans-110"/>
     <use x="1327.121094" xlink:href="#DejaVuSans-99"/>
     <use x="1382.101562" xlink:href="#DejaVuSans-121"/>
     <use x="1441.28125" xlink:href="#DejaVuSans-32"/>
     <use x="1473.068359" xlink:href="#DejaVuSans-82"/>
     <use x="1538.050781" xlink:href="#DejaVuSans-101"/>
     <use x="1599.574219" xlink:href="#DejaVuSans-112"/>
     <use x="1663.050781" xlink:href="#DejaVuSans-111"/>
     <use x="1724.232422" xlink:href="#DejaVuSans-110"/>
     <use x="1787.611328" xlink:href="#DejaVuSans-115"/>
     <use x="1839.710938" xlink:href="#DejaVuSans-101"/>
    </g>
    <!-- 21 Taps -->
    <defs>
     <path d="M -0.296875 72.90625 
L 61.375 72.90625 
L 61.375 64.59375 
L 35.5 64.59375 
L 35.5 0 
L 25.59375 0 
L 25.59375 64.59375 
L -0.296875 64.59375 
z
" id="DejaVuSans-84"/>
     <path d="M 34.28125 27.484375 
Q 23.390625 27.484375 19.1875 25 
Q 14.984375 22.515625 14.984375 16.5 
Q 14.984375 11.71875 18.140625 8.90625 
Q 21.296875 6.109375 26.703125 6.109375 
Q 34.1875 6.109375 38.703125 11.40625 
Q 43.21875 16.703125 43.21875 25.484375 
L 43.21875 27.484375 
z
M 52.203125 31.203125 
L 52.203125 0 
L 43.21875 0 
L 43.21875 8.296875 
Q 40.140625 3.328125 35.546875 0.953125 
Q 30.953125 -1.421875 24.3125 -1.421875 
Q 15.921875 -1.421875 10.953125 3.296875 
Q 6 8.015625 6 15.921875 
Q 6 25.140625 12.171875 29.828125 
Q 18.359375 34.515625 30.609375 34.515625 
L 43.21875 34.515625 
L 43.21875 35.40625 
Q 43.21875 41.609375 39.140625 45 
Q 35.0625 48.390625 27.6875 48.390625 
Q 23 48.390625 18.546875 47.265625 
Q 14.109375 46.140625 10.015625 43.890625 
L 10.015625 52.203125 
Q 14.9375 54.109375 19.578125 55.046875 
Q 24.21875 56 28.609375 56 
Q 40.484375 56 46.34375 49.84375 
Q 52.203125 43.703125 52.203125 31.203125 
z
" id="DejaVuSans-97"/>
    </defs>
    <g transform="translate(354.351875 35.856)scale(0.12 -0.12)">
     <use xlink:href="#DejaVuSans-50"/>
     <use x="63.623047" xlink:href="#DejaVuSans-49"/>
     <use x="127.246094" xlink:href="#DejaVuSans-32"/>
     <use x="159.033203" xlink:href="#DejaVuSans-84"/>
     <use x="203.617188" xlink:href="#DejaVuSans-97"/>
     <use x="264.896484" xlink:href="#DejaVuSans-112"/>
     <use x="328.373047" xlink:href="#DejaVuSans-115"/>
    </g>
   </g>
  </g>
 </g>
 <defs>
  <clipPath id="p0ca7bc86e0">
   <rect height="205.184" width="664.04" x="45.16" y="41.856"/>
  </clipPath>
 </defs>
</svg>
