<?xml version="1.0" encoding="utf-8" standalone="no"?>
<!DOCTYPE svg PUBLIC "-//W3C//DTD SVG 1.1//EN"
  "http://www.w3.org/Graphics/SVG/1.1/DTD/svg11.dtd">
<!-- Created with matplotlib (https://matplotlib.org/) -->
<svg height="288pt" version="1.1" viewBox="0 0 720 288" width="720pt" xmlns="http://www.w3.org/2000/svg" xmlns:xlink="http://www.w3.org/1999/xlink">
 <defs>
  <style type="text/css">
*{stroke-linecap:butt;stroke-linejoin:round;}
  </style>
 </defs>
 <g id="figure_1">
  <g id="patch_1">
   <path d="M 0 288 
L 720 288 
L 720 0 
L 0 0 
z
" style="fill:#ffffff;"/>
  </g>
  <g id="axes_1">
   <g id="patch_2">
    <path d="M 45.16 260.12 
L 709.2 260.12 
L 709.2 37.968 
L 45.16 37.968 
z
" style="fill:#ffffff;"/>
   </g>
   <g id="matplotlib.axis_1">
    <g id="xtick_1">
     <g id="line2d_1">
      <path clip-path="url(#p7ce40252bb)" d="M 45.16 260.12 
L 45.16 37.968 
" style="fill:none;stroke:#b0b0b0;stroke-linecap:square;stroke-width:0.8;"/>
     </g>
     <g id="line2d_2">
      <defs>
       <path d="M 0 0 
L 0 3.5 
" id="ma5b60f0850" style="stroke:#000000;stroke-width:0.8;"/>
      </defs>
      <g>
       <use style="stroke:#000000;stroke-width:0.8;" x="45.16" xlink:href="#ma5b60f0850" y="260.12"/>
      </g>
     </g>
     <g id="text_1">
      <!-- 0 -->
      <defs>
       <path d="M 31.78125 66.40625 
Q 24.171875 66.40625 20.328125 58.90625 
Q 16.5 51.421875 16.5 36.375 
Q 16.5 21.390625 20.328125 13.890625 
Q 24.171875 6.390625 31.78125 6.390625 
Q 39.453125 6.390625 43.28125 13.890625 
Q 47.125 21.390625 47.125 36.375 
Q 47.125 51.421875 43.28125 58.90625 
Q 39.453125 66.40625 31.78125 66.40625 
z
M 31.78125 74.21875 
Q 44.046875 74.21875 50.515625 64.515625 
Q 56.984375 54.828125 56.984375 36.375 
Q 56.984375 17.96875 50.515625 8.265625 
Q 44.046875 -1.421875 31.78125 -1.421875 
Q 19.53125 -1.421875 13.0625 8.265625 
Q 6.59375 17.96875 6.59375 36.375 
Q 6.59375 54.828125 13.0625 64.515625 
Q 19.53125 74.21875 31.78125 74.21875 
z
" id="DejaVuSans-48"/>
      </defs>
      <g transform="translate(41.97875 274.718437)scale(0.1 -0.1)">
       <use xlink:href="#DejaVuSans-48"/>
      </g>
     </g>
    </g>
    <g id="xtick_2">
     <g id="line2d_3">
      <path clip-path="url(#p7ce40252bb)" d="M 183.501667 260.12 
L 183.501667 37.968 
" style="fill:none;stroke:#b0b0b0;stroke-linecap:square;stroke-width:0.8;"/>
     </g>
     <g id="line2d_4">
      <g>
       <use style="stroke:#000000;stroke-width:0.8;" x="183.501667" xlink:href="#ma5b60f0850" y="260.12"/>
      </g>
     </g>
     <g id="text_2">
      <!-- 50000 -->
      <defs>
       <path d="M 10.796875 72.90625 
L 49.515625 72.90625 
L 49.515625 64.59375 
L 19.828125 64.59375 
L 19.828125 46.734375 
Q 21.96875 47.46875 24.109375 47.828125 
Q 26.265625 48.1875 28.421875 48.1875 
Q 40.625 48.1875 47.75 41.5 
Q 54.890625 34.8125 54.890625 23.390625 
Q 54.890625 11.625 47.5625 5.09375 
Q 40.234375 -1.421875 26.90625 -1.421875 
Q 22.3125 -1.421875 17.546875 -0.640625 
Q 12.796875 0.140625 7.71875 1.703125 
L 7.71875 11.625 
Q 12.109375 9.234375 16.796875 8.0625 
Q 21.484375 6.890625 26.703125 6.890625 
Q 35.15625 6.890625 40.078125 11.328125 
Q 45.015625 15.765625 45.015625 23.390625 
Q 45.015625 31 40.078125 35.4375 
Q 35.15625 39.890625 26.703125 39.890625 
Q 22.75 39.890625 18.8125 39.015625 
Q 14.890625 38.140625 10.796875 36.28125 
z
" id="DejaVuSans-53"/>
      </defs>
      <g transform="translate(167.595417 274.718437)scale(0.1 -0.1)">
       <use xlink:href="#DejaVuSans-53"/>
       <use x="63.623047" xlink:href="#DejaVuSans-48"/>
       <use x="127.246094" xlink:href="#DejaVuSans-48"/>
       <use x="190.869141" xlink:href="#DejaVuSans-48"/>
       <use x="254.492188" xlink:href="#DejaVuSans-48"/>
      </g>
     </g>
    </g>
    <g id="xtick_3">
     <g id="line2d_5">
      <path clip-path="url(#p7ce40252bb)" d="M 321.843333 260.12 
L 321.843333 37.968 
" style="fill:none;stroke:#b0b0b0;stroke-linecap:square;stroke-width:0.8;"/>
     </g>
     <g id="line2d_6">
      <g>
       <use style="stroke:#000000;stroke-width:0.8;" x="321.843333" xlink:href="#ma5b60f0850" y="260.12"/>
      </g>
     </g>
     <g id="text_3">
      <!-- 100000 -->
      <defs>
       <path d="M 12.40625 8.296875 
L 28.515625 8.296875 
L 28.515625 63.921875 
L 10.984375 60.40625 
L 10.984375 69.390625 
L 28.421875 72.90625 
L 38.28125 72.90625 
L 38.28125 8.296875 
L 54.390625 8.296875 
L 54.390625 0 
L 12.40625 0 
z
" id="DejaVuSans-49"/>
      </defs>
      <g transform="translate(302.755833 274.718437)scale(0.1 -0.1)">
       <use xlink:href="#DejaVuSans-49"/>
       <use x="63.623047" xlink:href="#DejaVuSans-48"/>
       <use x="127.246094" xlink:href="#DejaVuSans-48"/>
       <use x="190.869141" xlink:href="#DejaVuSans-48"/>
       <use x="254.492188" xlink:href="#DejaVuSans-48"/>
       <use x="318.115234" xlink:href="#DejaVuSans-48"/>
      </g>
     </g>
    </g>
    <g id="xtick_4">
     <g id="line2d_7">
      <path clip-path="url(#p7ce40252bb)" d="M 460.185 260.12 
L 460.185 37.968 
" style="fill:none;stroke:#b0b0b0;stroke-linecap:square;stroke-width:0.8;"/>
     </g>
     <g id="line2d_8">
      <g>
       <use style="stroke:#000000;stroke-width:0.8;" x="460.185" xlink:href="#ma5b60f0850" y="260.12"/>
      </g>
     </g>
     <g id="text_4">
      <!-- 150000 -->
      <g transform="translate(441.0975 274.718437)scale(0.1 -0.1)">
       <use xlink:href="#DejaVuSans-49"/>
       <use x="63.623047" xlink:href="#DejaVuSans-53"/>
       <use x="127.246094" xlink:href="#DejaVuSans-48"/>
       <use x="190.869141" xlink:href="#DejaVuSans-48"/>
       <use x="254.492188" xlink:href="#DejaVuSans-48"/>
       <use x="318.115234" xlink:href="#DejaVuSans-48"/>
      </g>
     </g>
    </g>
    <g id="xtick_5">
     <g id="line2d_9">
      <path clip-path="url(#p7ce40252bb)" d="M 598.526667 260.12 
L 598.526667 37.968 
" style="fill:none;stroke:#b0b0b0;stroke-linecap:square;stroke-width:0.8;"/>
     </g>
     <g id="line2d_10">
      <g>
       <use style="stroke:#000000;stroke-width:0.8;" x="598.526667" xlink:href="#ma5b60f0850" y="260.12"/>
      </g>
     </g>
     <g id="text_5">
      <!-- 200000 -->
      <defs>
       <path d="M 19.1875 8.296875 
L 53.609375 8.296875 
L 53.609375 0 
L 7.328125 0 
L 7.328125 8.296875 
Q 12.9375 14.109375 22.625 23.890625 
Q 32.328125 33.6875 34.8125 36.53125 
Q 39.546875 41.84375 41.421875 45.53125 
Q 43.3125 49.21875 43.3125 52.78125 
Q 43.3125 58.59375 39.234375 62.25 
Q 35.15625 65.921875 28.609375 65.921875 
Q 23.96875 65.921875 18.8125 64.3125 
Q 13.671875 62.703125 7.8125 59.421875 
L 7.8125 69.390625 
Q 13.765625 71.78125 18.9375 73 
Q 24.125 74.21875 28.421875 74.21875 
Q 39.75 74.21875 46.484375 68.546875 
Q 53.21875 62.890625 53.21875 53.421875 
Q 53.21875 48.921875 51.53125 44.890625 
Q 49.859375 40.875 45.40625 35.40625 
Q 44.1875 33.984375 37.640625 27.21875 
Q 31.109375 20.453125 19.1875 8.296875 
z
" id="DejaVuSans-50"/>
      </defs>
      <g transform="translate(579.439167 274.718437)scale(0.1 -0.1)">
       <use xlink:href="#DejaVuSans-50"/>
       <use x="63.623047" xlink:href="#DejaVuSans-48"/>
       <use x="127.246094" xlink:href="#DejaVuSans-48"/>
       <use x="190.869141" xlink:href="#DejaVuSans-48"/>
       <use x="254.492188" xlink:href="#DejaVuSans-48"/>
       <use x="318.115234" xlink:href="#DejaVuSans-48"/>
      </g>
     </g>
    </g>
   </g>
   <g id="matplotlib.axis_2">
    <g id="ytick_1">
     <g id="line2d_11">
      <path clip-path="url(#p7ce40252bb)" d="M 45.16 260.12 
L 709.2 260.12 
" style="fill:none;stroke:#b0b0b0;stroke-linecap:square;stroke-width:0.8;"/>
     </g>
     <g id="line2d_12">
      <defs>
       <path d="M 0 0 
L -3.5 0 
" id="m51bc9bb862" style="stroke:#000000;stroke-width:0.8;"/>
      </defs>
      <g>
       <use style="stroke:#000000;stroke-width:0.8;" x="45.16" xlink:href="#m51bc9bb862" y="260.12"/>
      </g>
     </g>
     <g id="text_6">
      <!-- −120 -->
      <defs>
       <path d="M 10.59375 35.5 
L 73.1875 35.5 
L 73.1875 27.203125 
L 10.59375 27.203125 
z
" id="DejaVuSans-8722"/>
      </defs>
      <g transform="translate(10.692812 263.919219)scale(0.1 -0.1)">
       <use xlink:href="#DejaVuSans-8722"/>
       <use x="83.789062" xlink:href="#DejaVuSans-49"/>
       <use x="147.412109" xlink:href="#DejaVuSans-50"/>
       <use x="211.035156" xlink:href="#DejaVuSans-48"/>
      </g>
     </g>
    </g>
    <g id="ytick_2">
     <g id="line2d_13">
      <path clip-path="url(#p7ce40252bb)" d="M 45.16 223.997724 
L 709.2 223.997724 
" style="fill:none;stroke:#b0b0b0;stroke-linecap:square;stroke-width:0.8;"/>
     </g>
     <g id="line2d_14">
      <g>
       <use style="stroke:#000000;stroke-width:0.8;" x="45.16" xlink:href="#m51bc9bb862" y="223.997724"/>
      </g>
     </g>
     <g id="text_7">
      <!-- −100 -->
      <g transform="translate(10.692812 227.796942)scale(0.1 -0.1)">
       <use xlink:href="#DejaVuSans-8722"/>
       <use x="83.789062" xlink:href="#DejaVuSans-49"/>
       <use x="147.412109" xlink:href="#DejaVuSans-48"/>
       <use x="211.035156" xlink:href="#DejaVuSans-48"/>
      </g>
     </g>
    </g>
    <g id="ytick_3">
     <g id="line2d_15">
      <path clip-path="url(#p7ce40252bb)" d="M 45.16 187.875447 
L 709.2 187.875447 
" style="fill:none;stroke:#b0b0b0;stroke-linecap:square;stroke-width:0.8;"/>
     </g>
     <g id="line2d_16">
      <g>
       <use style="stroke:#000000;stroke-width:0.8;" x="45.16" xlink:href="#m51bc9bb862" y="187.875447"/>
      </g>
     </g>
     <g id="text_8">
      <!-- −80 -->
      <defs>
       <path d="M 31.78125 34.625 
Q 24.75 34.625 20.71875 30.859375 
Q 16.703125 27.09375 16.703125 20.515625 
Q 16.703125 13.921875 20.71875 10.15625 
Q 24.75 6.390625 31.78125 6.390625 
Q 38.8125 6.390625 42.859375 10.171875 
Q 46.921875 13.96875 46.921875 20.515625 
Q 46.921875 27.09375 42.890625 30.859375 
Q 38.875 34.625 31.78125 34.625 
z
M 21.921875 38.8125 
Q 15.578125 40.375 12.03125 44.71875 
Q 8.5 49.078125 8.5 55.328125 
Q 8.5 64.0625 14.71875 69.140625 
Q 20.953125 74.21875 31.78125 74.21875 
Q 42.671875 74.21875 48.875 69.140625 
Q 55.078125 64.0625 55.078125 55.328125 
Q 55.078125 49.078125 51.53125 44.71875 
Q 48 40.375 41.703125 38.8125 
Q 48.828125 37.15625 52.796875 32.3125 
Q 56.78125 27.484375 56.78125 20.515625 
Q 56.78125 9.90625 50.3125 4.234375 
Q 43.84375 -1.421875 31.78125 -1.421875 
Q 19.734375 -1.421875 13.25 4.234375 
Q 6.78125 9.90625 6.78125 20.515625 
Q 6.78125 27.484375 10.78125 32.3125 
Q 14.796875 37.15625 21.921875 38.8125 
z
M 18.3125 54.390625 
Q 18.3125 48.734375 21.84375 45.5625 
Q 25.390625 42.390625 31.78125 42.390625 
Q 38.140625 42.390625 41.71875 45.5625 
Q 45.3125 48.734375 45.3125 54.390625 
Q 45.3125 60.0625 41.71875 63.234375 
Q 38.140625 66.40625 31.78125 66.40625 
Q 25.390625 66.40625 21.84375 63.234375 
Q 18.3125 60.0625 18.3125 54.390625 
z
" id="DejaVuSans-56"/>
      </defs>
      <g transform="translate(17.055312 191.674666)scale(0.1 -0.1)">
       <use xlink:href="#DejaVuSans-8722"/>
       <use x="83.789062" xlink:href="#DejaVuSans-56"/>
       <use x="147.412109" xlink:href="#DejaVuSans-48"/>
      </g>
     </g>
    </g>
    <g id="ytick_4">
     <g id="line2d_17">
      <path clip-path="url(#p7ce40252bb)" d="M 45.16 151.753171 
L 709.2 151.753171 
" style="fill:none;stroke:#b0b0b0;stroke-linecap:square;stroke-width:0.8;"/>
     </g>
     <g id="line2d_18">
      <g>
       <use style="stroke:#000000;stroke-width:0.8;" x="45.16" xlink:href="#m51bc9bb862" y="151.753171"/>
      </g>
     </g>
     <g id="text_9">
      <!-- −60 -->
      <defs>
       <path d="M 33.015625 40.375 
Q 26.375 40.375 22.484375 35.828125 
Q 18.609375 31.296875 18.609375 23.390625 
Q 18.609375 15.53125 22.484375 10.953125 
Q 26.375 6.390625 33.015625 6.390625 
Q 39.65625 6.390625 43.53125 10.953125 
Q 47.40625 15.53125 47.40625 23.390625 
Q 47.40625 31.296875 43.53125 35.828125 
Q 39.65625 40.375 33.015625 40.375 
z
M 52.59375 71.296875 
L 52.59375 62.3125 
Q 48.875 64.0625 45.09375 64.984375 
Q 41.3125 65.921875 37.59375 65.921875 
Q 27.828125 65.921875 22.671875 59.328125 
Q 17.53125 52.734375 16.796875 39.40625 
Q 19.671875 43.65625 24.015625 45.921875 
Q 28.375 48.1875 33.59375 48.1875 
Q 44.578125 48.1875 50.953125 41.515625 
Q 57.328125 34.859375 57.328125 23.390625 
Q 57.328125 12.15625 50.6875 5.359375 
Q 44.046875 -1.421875 33.015625 -1.421875 
Q 20.359375 -1.421875 13.671875 8.265625 
Q 6.984375 17.96875 6.984375 36.375 
Q 6.984375 53.65625 15.1875 63.9375 
Q 23.390625 74.21875 37.203125 74.21875 
Q 40.921875 74.21875 44.703125 73.484375 
Q 48.484375 72.75 52.59375 71.296875 
z
" id="DejaVuSans-54"/>
      </defs>
      <g transform="translate(17.055312 155.552389)scale(0.1 -0.1)">
       <use xlink:href="#DejaVuSans-8722"/>
       <use x="83.789062" xlink:href="#DejaVuSans-54"/>
       <use x="147.412109" xlink:href="#DejaVuSans-48"/>
      </g>
     </g>
    </g>
    <g id="ytick_5">
     <g id="line2d_19">
      <path clip-path="url(#p7ce40252bb)" d="M 45.16 115.630894 
L 709.2 115.630894 
" style="fill:none;stroke:#b0b0b0;stroke-linecap:square;stroke-width:0.8;"/>
     </g>
     <g id="line2d_20">
      <g>
       <use style="stroke:#000000;stroke-width:0.8;" x="45.16" xlink:href="#m51bc9bb862" y="115.630894"/>
      </g>
     </g>
     <g id="text_10">
      <!-- −40 -->
      <defs>
       <path d="M 37.796875 64.3125 
L 12.890625 25.390625 
L 37.796875 25.390625 
z
M 35.203125 72.90625 
L 47.609375 72.90625 
L 47.609375 25.390625 
L 58.015625 25.390625 
L 58.015625 17.1875 
L 47.609375 17.1875 
L 47.609375 0 
L 37.796875 0 
L 37.796875 17.1875 
L 4.890625 17.1875 
L 4.890625 26.703125 
z
" id="DejaVuSans-52"/>
      </defs>
      <g transform="translate(17.055312 119.430113)scale(0.1 -0.1)">
       <use xlink:href="#DejaVuSans-8722"/>
       <use x="83.789062" xlink:href="#DejaVuSans-52"/>
       <use x="147.412109" xlink:href="#DejaVuSans-48"/>
      </g>
     </g>
    </g>
    <g id="ytick_6">
     <g id="line2d_21">
      <path clip-path="url(#p7ce40252bb)" d="M 45.16 79.508618 
L 709.2 79.508618 
" style="fill:none;stroke:#b0b0b0;stroke-linecap:square;stroke-width:0.8;"/>
     </g>
     <g id="line2d_22">
      <g>
       <use style="stroke:#000000;stroke-width:0.8;" x="45.16" xlink:href="#m51bc9bb862" y="79.508618"/>
      </g>
     </g>
     <g id="text_11">
      <!-- −20 -->
      <g transform="translate(17.055312 83.307837)scale(0.1 -0.1)">
       <use xlink:href="#DejaVuSans-8722"/>
       <use x="83.789062" xlink:href="#DejaVuSans-50"/>
       <use x="147.412109" xlink:href="#DejaVuSans-48"/>
      </g>
     </g>
    </g>
    <g id="ytick_7">
     <g id="line2d_23">
      <path clip-path="url(#p7ce40252bb)" d="M 45.16 43.386341 
L 709.2 43.386341 
" style="fill:none;stroke:#b0b0b0;stroke-linecap:square;stroke-width:0.8;"/>
     </g>
     <g id="line2d_24">
      <g>
       <use style="stroke:#000000;stroke-width:0.8;" x="45.16" xlink:href="#m51bc9bb862" y="43.386341"/>
      </g>
     </g>
     <g id="text_12">
      <!-- 0 -->
      <g transform="translate(31.7975 47.18556)scale(0.1 -0.1)">
       <use xlink:href="#DejaVuSans-48"/>
      </g>
     </g>
    </g>
   </g>
   <g id="line2d_25">
    <path clip-path="url(#p7ce40252bb)" d="M 45.16 43.474462 
L 50.347812 43.371469 
L 52.941719 43.456713 
L 55.535625 43.298713 
L 59.426484 43.420965 
L 60.723438 43.298713 
L 62.020391 43.604317 
L 63.317344 45.071858 
L 64.614297 48.403399 
L 65.91125 54.202945 
L 67.208203 63.072034 
L 68.505156 75.79858 
L 69.802109 93.7214 
L 71.099063 119.820072 
L 72.396016 165.760374 
L 73.692969 237.278955 
L 76.286875 205.452681 
L 77.583828 209.673258 
L 78.880781 216.319156 
L 80.177734 205.076204 
L 81.474688 234.677309 
L 82.771641 204.478904 
L 83.885202 289 
M 84.251978 289 
L 85.365547 204.47484 
L 86.6625 255.24382 
L 87.959453 204.394639 
L 89.245165 289 
M 89.267655 289 
L 90.553359 204.454361 
L 91.850313 241.883986 
L 93.147266 204.615214 
L 94.444219 228.540384 
L 95.741172 205.065578 
L 97.038125 220.187757 
L 98.335078 206.166408 
L 99.632031 214.71211 
L 100.928984 207.916936 
L 102.225937 210.667425 
L 103.522891 210.770064 
L 104.819844 207.761182 
L 106.116797 215.399048 
L 107.41375 205.80312 
L 108.710703 223.657142 
L 110.007656 204.737765 
L 111.304609 245.949594 
L 112.601563 204.430574 
L 113.898516 232.334592 
L 115.195469 205.11387 
L 116.492422 218.7591 
L 117.789375 206.843058 
L 119.086328 212.126603 
L 120.383281 209.911192 
L 121.680234 208.116433 
L 122.977187 215.150588 
L 124.274141 205.691652 
L 125.571094 225.314809 
L 126.868047 204.562868 
L 128.017341 289 
M 128.312692 289 
L 129.461953 204.583651 
L 130.758906 225.568106 
L 132.055859 205.736081 
L 133.352813 215.131566 
L 134.649766 208.243916 
L 135.946719 209.649565 
L 137.243672 212.702364 
L 138.540625 206.472344 
L 139.837578 220.870446 
L 141.134531 204.828544 
L 142.431484 243.617001 
L 143.728438 204.450466 
L 145.025391 230.060414 
L 146.322344 205.311633 
L 147.619297 216.59874 
L 148.91625 207.616729 
L 150.213203 210.242482 
L 151.510156 211.913056 
L 152.807109 206.707577 
L 154.104062 219.787945 
L 155.401016 204.899685 
L 156.697969 240.504318 
L 157.994922 204.45561 
L 159.291875 231.010905 
L 160.588828 205.308642 
L 161.885781 216.836912 
L 163.182734 207.62836 
L 164.479688 210.324934 
L 165.776641 211.969033 
L 167.073594 206.720584 
L 168.370547 220.03488 
L 169.6675 204.900336 
L 170.964453 242.210626 
L 172.261406 204.488203 
L 173.558359 229.834345 
L 174.855313 205.419338 
L 176.152266 216.273372 
L 177.449219 207.882339 
L 178.746172 209.957638 
L 180.043125 212.494764 
L 181.340078 206.488547 
L 182.637031 221.236386 
L 183.933984 204.797142 
L 185.230938 249.243445 
L 186.527891 204.530341 
L 187.824844 227.28091 
L 189.121797 205.645944 
L 190.41875 215.178445 
L 191.715703 208.374299 
L 193.012656 209.322146 
L 194.309609 213.447677 
L 195.606563 206.128431 
L 196.903516 223.368181 
L 198.200469 204.661803 
L 199.497422 278.267965 
L 200.794375 204.619597 
L 202.091328 224.282182 
L 203.388281 205.999362 
L 204.685234 213.835633 
L 205.982188 209.09595 
L 207.279141 208.562119 
L 208.576094 214.820493 
L 209.873047 205.722481 
L 211.17 226.608732 
L 212.466953 204.54131 
L 213.763906 251.17958 
L 215.060859 204.780221 
L 216.357813 221.324133 
L 217.654766 206.489633 
L 218.951719 212.421881 
L 221.545625 207.76787 
L 222.842578 216.657891 
L 224.139531 205.322093 
L 225.436484 231.519274 
L 226.733438 204.4656 
L 228.030391 237.828034 
L 229.327344 205.030014 
L 230.624297 218.588059 
L 231.92125 207.130745 
L 233.218203 211.032405 
L 234.515156 211.276581 
L 235.812109 206.991438 
L 237.109063 219.076035 
L 238.406016 204.958226 
L 239.702969 239.844402 
L 240.999922 204.454865 
L 242.296875 230.187717 
L 243.593828 205.385776 
L 244.890781 216.109602 
L 246.187734 207.946261 
L 247.484688 209.7086 
L 248.781641 212.820829 
L 250.078594 206.257881 
L 251.375547 222.335488 
L 252.6725 204.647703 
L 253.969453 263.120267 
L 255.266406 204.525574 
L 256.563359 224.677673 
L 257.860313 205.889482 
L 259.157266 213.839647 
L 260.454219 209.032897 
L 261.751172 208.479888 
L 263.048125 214.888648 
L 264.345078 205.633572 
L 265.642031 227.137399 
L 266.938984 204.48871 
L 268.235938 247.558219 
L 269.532891 204.801437 
L 270.829844 220.583367 
L 272.126797 206.633062 
L 273.42375 211.982895 
L 274.720703 210.408176 
L 276.017656 207.489493 
L 277.314609 217.460257 
L 278.611563 205.177611 
L 279.908516 234.270807 
L 281.205469 204.460504 
L 282.502422 234.120319 
L 283.799375 205.19229 
L 285.096328 217.418441 
L 286.393281 207.52261 
L 287.690234 210.394278 
L 288.987188 212.045726 
L 290.284141 206.637409 
L 291.581094 220.716346 
L 292.878047 204.823408 
L 294.175 248.379963 
L 295.471953 204.53178 
L 296.768906 226.931803 
L 298.065859 205.705583 
L 299.362813 214.815296 
L 300.659766 208.59675 
L 301.956719 209.010152 
L 303.253672 214.039225 
L 304.550625 205.905278 
L 305.847578 225.09474 
L 307.144531 204.56786 
L 308.441484 259.014016 
L 309.738438 204.709678 
L 311.035391 221.962216 
L 312.332344 206.362246 
L 313.629297 212.60171 
L 314.92625 209.906921 
L 316.223203 207.788802 
L 317.520156 216.546557 
L 318.817109 205.278188 
L 320.114063 231.698854 
L 321.411016 204.409883 
L 322.707969 236.76198 
L 324.004922 205.019005 
L 325.301875 218.054786 
L 326.598828 207.253597 
L 327.895781 210.66725 
L 329.192734 211.64109 
L 330.489688 206.753328 
L 331.786641 220.006368 
L 333.083594 204.847089 
L 334.380547 244.83222 
L 335.6775 204.488985 
L 336.974453 227.842606 
L 338.271406 205.603988 
L 339.568359 215.148143 
L 340.865313 208.427991 
L 342.162266 209.176906 
L 343.459219 213.762207 
L 344.756172 205.990218 
L 346.053125 224.509366 
L 347.350078 204.601013 
L 348.647031 265.188859 
L 349.943984 204.702625 
L 351.240937 222.417626 
L 352.537891 206.315587 
L 353.834844 212.822961 
L 355.131797 209.807298 
L 356.42875 207.925825 
L 357.725703 216.341336 
L 359.022656 205.369734 
L 360.319609 231.042897 
L 361.616563 204.468815 
L 362.913516 237.917316 
L 364.210469 205.036451 
L 365.507422 218.440322 
L 366.804375 207.191311 
L 368.101328 210.868033 
L 369.398281 211.475368 
L 370.695234 206.850567 
L 371.992188 219.650785 
L 373.289141 204.868747 
L 374.586094 243.197976 
L 375.883047 204.449012 
L 377.18 228.28344 
L 378.476953 205.513446 
L 379.773906 215.212499 
L 381.070859 208.331767 
L 382.367813 209.165475 
L 383.664766 213.673553 
L 384.961719 205.959944 
L 386.258672 224.433161 
L 387.555625 204.569842 
L 388.852578 265.013884 
L 390.149531 204.680172 
L 391.446484 222.350145 
L 392.743438 206.309805 
L 394.040391 212.772581 
L 395.337344 209.82895 
L 396.634297 207.8922 
L 397.93125 216.415519 
L 399.228203 205.354331 
L 400.525156 231.309445 
L 401.822109 204.474046 
L 403.119063 237.470465 
L 404.416016 205.066116 
L 405.712969 218.322512 
L 407.009922 207.25213 
L 408.306875 210.81853 
L 409.603828 211.581971 
L 410.900781 206.840123 
L 412.197734 219.850201 
L 413.494688 204.889063 
L 414.791641 244.044684 
L 416.088594 204.497028 
L 417.385547 228.0599 
L 418.6825 205.586378 
L 419.979453 215.19415 
L 421.276406 208.393907 
L 422.573359 209.16574 
L 423.870313 213.728326 
L 425.167266 205.948234 
L 426.464219 224.537638 
L 427.761172 204.542879 
L 429.058125 262.862432 
L 430.355078 204.644291 
L 431.652031 222.05451 
L 432.948984 206.315218 
L 434.245938 212.583193 
L 435.542891 209.907835 
L 436.839844 207.766933 
L 438.136797 216.634439 
L 439.43375 205.28056 
L 440.730703 232.074712 
L 442.027656 204.449658 
L 443.324609 236.276224 
L 444.621563 205.095867 
L 445.918516 217.968014 
L 447.215469 207.350149 
L 448.512422 210.631546 
L 449.809375 211.784795 
L 451.106328 206.740931 
L 452.403281 220.285368 
L 453.700234 204.855143 
L 454.997188 246.407351 
L 456.294141 204.522765 
L 457.591094 227.310889 
L 458.888047 205.676156 
L 460.185 214.91021 
L 461.481953 208.565127 
L 462.778906 209.030218 
L 464.075859 214.031747 
L 465.372813 205.899491 
L 466.669766 225.196881 
L 467.966719 204.560417 
L 469.263672 257.124281 
L 470.560625 204.720116 
L 471.857578 221.684804 
L 473.154531 206.414614 
L 474.451484 212.420199 
L 477.045391 207.657526 
L 478.342344 216.887939 
L 479.639297 205.192234 
L 480.93625 233.044896 
L 482.233203 204.405024 
L 483.530156 234.827709 
L 484.827109 205.122023 
L 486.124063 217.494415 
L 487.421016 207.467668 
L 488.717969 210.369197 
L 490.014922 212.045037 
L 491.311875 206.591593 
L 492.608828 220.872129 
L 493.905781 204.79054 
L 495.202734 250.26408 
L 496.499688 204.53628 
L 497.796641 226.329854 
L 499.093594 205.774908 
L 500.390547 214.507255 
L 501.6875 208.775428 
L 502.984453 208.817901 
L 504.281406 214.431476 
L 505.578359 205.799623 
L 506.875313 226.145883 
L 508.172266 204.548154 
L 509.469219 251.211025 
L 510.766172 204.790353 
L 512.063125 221.017464 
L 513.360078 206.576721 
L 514.657031 212.125373 
L 515.953984 210.330797 
L 517.250938 207.522383 
L 518.547891 217.402168 
L 519.844844 205.161122 
L 521.141797 234.448729 
L 522.43875 204.430345 
L 523.735703 233.52632 
L 525.032656 205.182587 
L 526.329609 217.065372 
L 527.626562 207.584466 
L 528.923516 210.09084 
L 530.220469 212.321313 
L 531.517422 206.416524 
L 532.814375 221.550421 
L 534.111328 204.707604 
L 535.408281 256.267757 
L 536.705234 204.541829 
L 538.002188 225.261373 
L 539.299141 205.879217 
L 540.596094 214.042782 
L 541.893047 209.011648 
L 543.19 208.563156 
L 544.486953 214.897891 
L 545.783906 205.671256 
L 547.080859 227.320494 
L 548.377813 204.519903 
L 549.674766 246.264891 
L 550.971719 204.858297 
L 552.268672 220.244833 
L 553.565625 206.754988 
L 554.862578 211.759868 
L 556.159531 210.665299 
L 557.456484 207.336234 
L 558.753438 218.046071 
L 560.050391 205.093239 
L 561.347344 236.5875 
L 562.644297 204.460491 
L 563.94125 231.822499 
L 565.238203 205.309047 
L 566.535156 216.545841 
L 567.832109 207.821023 
L 569.129063 209.863868 
L 570.426016 212.680545 
L 571.722969 206.299267 
L 573.019922 222.247369 
L 574.316875 204.645333 
L 575.613828 265.446744 
L 576.910781 204.536904 
L 578.207734 224.218399 
L 579.504688 205.98161 
L 580.801641 213.557847 
L 582.098594 209.260652 
L 583.395547 208.287823 
L 584.6925 215.4091 
L 585.989453 205.52717 
L 587.286406 228.692649 
L 588.583359 204.482436 
L 589.880313 242.215127 
L 591.177266 204.925378 
L 592.474219 219.435432 
L 593.771172 206.944459 
L 595.068125 211.360741 
L 596.365078 211.03258 
L 597.662031 207.124786 
L 598.958984 218.779972 
L 600.255937 205.008271 
L 601.552891 239.360993 
L 602.849844 204.482768 
L 604.146797 230.088334 
L 605.44375 205.440408 
L 606.740703 215.952565 
L 608.037656 208.085958 
L 609.334609 209.570009 
L 610.631562 213.154712 
L 611.928516 206.165955 
L 613.225469 223.238503 
L 614.522422 204.628213 
L 615.578453 289 
M 616.060257 289 
L 617.116328 204.610959 
L 618.413281 223.339709 
L 619.710234 206.115917 
L 621.007188 213.150912 
L 622.304141 209.49618 
L 623.601094 208.020971 
L 624.898047 215.926163 
L 626.195 205.376461 
L 627.491953 230.22346 
L 628.788906 204.438835 
L 630.085859 238.898197 
L 631.382813 204.990642 
L 632.679766 218.630756 
L 633.976719 207.140218 
L 635.273672 210.949474 
L 636.570625 211.42255 
L 637.867578 206.901245 
L 639.164531 219.586463 
L 640.461484 204.914415 
L 641.758438 242.940029 
L 643.055391 204.501165 
L 644.352344 228.431518 
L 645.649297 205.575482 
L 646.94625 215.337452 
L 648.243203 208.367824 
L 649.540156 209.253036 
L 650.837109 213.675575 
L 652.134063 206.013508 
L 653.431016 224.393657 
L 654.727969 204.597752 
L 656.024922 265.410756 
L 657.321875 204.690771 
L 658.618828 222.327955 
L 659.915781 206.313914 
L 661.212734 212.721771 
L 662.509688 209.845884 
L 663.806641 207.825957 
L 665.103594 216.496808 
L 666.400547 205.28141 
L 667.6975 231.766232 
L 668.994453 204.406089 
L 670.291406 236.315649 
L 671.588359 205.047383 
L 672.885313 217.868781 
L 674.182266 207.333438 
L 675.479219 210.542455 
L 676.776172 211.82323 
L 678.073125 206.674158 
L 679.370078 220.449949 
L 680.667031 204.816098 
L 681.963984 247.715086 
L 683.260938 204.517228 
L 684.557891 226.8882 
L 685.854844 205.713186 
L 687.151797 214.722731 
L 688.44875 208.662372 
L 689.745703 208.92699 
L 691.042656 214.234021 
L 692.339609 205.851961 
L 693.636562 225.700663 
L 694.933516 204.561272 
L 696.230469 253.559485 
L 697.527422 204.770704 
L 698.824375 221.303529 
L 700.121328 206.524146 
L 701.418281 212.254477 
L 702.715234 210.237016 
L 704.012188 207.587973 
L 705.309141 217.237911 
L 706.606094 205.188623 
L 707.903047 234.076015 
L 707.903047 234.076015 
" style="fill:none;stroke:#ff0000;stroke-linecap:square;stroke-width:1.5;"/>
   </g>
   <g id="line2d_26">
    <path clip-path="url(#p7ce40252bb)" d="M 45.16 43.298713 
L 61.761 43.298713 
" style="fill:none;stroke:#0000ff;stroke-dasharray:3.7,1.6;stroke-dashoffset:0;"/>
   </g>
   <g id="line2d_27">
    <path clip-path="url(#p7ce40252bb)" d="M 45.16 43.474462 
L 61.761 43.474462 
" style="fill:none;stroke:#0000ff;stroke-dasharray:3.7,1.6;stroke-dashoffset:0;"/>
   </g>
   <g id="line2d_28">
    <path clip-path="url(#p7ce40252bb)" d="M 72.828333 204.394639 
L 709.2 204.394639 
" style="fill:none;stroke:#0000ff;stroke-dasharray:3.7,1.6;stroke-dashoffset:0;"/>
   </g>
   <g id="patch_3">
    <path d="M 45.16 260.12 
L 45.16 37.968 
" style="fill:none;stroke:#000000;stroke-linecap:square;stroke-linejoin:miter;stroke-width:0.8;"/>
   </g>
   <g id="patch_4">
    <path d="M 709.2 260.12 
L 709.2 37.968 
" style="fill:none;stroke:#000000;stroke-linecap:square;stroke-linejoin:miter;stroke-width:0.8;"/>
   </g>
   <g id="patch_5">
    <path d="M 45.16 260.12 
L 709.2 260.12 
" style="fill:none;stroke:#000000;stroke-linecap:square;stroke-linejoin:miter;stroke-width:0.8;"/>
   </g>
   <g id="patch_6">
    <path d="M 45.16 37.968 
L 709.2 37.968 
" style="fill:none;stroke:#000000;stroke-linecap:square;stroke-linejoin:miter;stroke-width:0.8;"/>
   </g>
   <g id="text_13">
    <!-- Fpdm/5 - Frequency Reponse -->
    <defs>
     <path d="M 9.8125 72.90625 
L 51.703125 72.90625 
L 51.703125 64.59375 
L 19.671875 64.59375 
L 19.671875 43.109375 
L 48.578125 43.109375 
L 48.578125 34.8125 
L 19.671875 34.8125 
L 19.671875 0 
L 9.8125 0 
z
" id="DejaVuSans-70"/>
     <path d="M 18.109375 8.203125 
L 18.109375 -20.796875 
L 9.078125 -20.796875 
L 9.078125 54.6875 
L 18.109375 54.6875 
L 18.109375 46.390625 
Q 20.953125 51.265625 25.265625 53.625 
Q 29.59375 56 35.59375 56 
Q 45.5625 56 51.78125 48.09375 
Q 58.015625 40.1875 58.015625 27.296875 
Q 58.015625 14.40625 51.78125 6.484375 
Q 45.5625 -1.421875 35.59375 -1.421875 
Q 29.59375 -1.421875 25.265625 0.953125 
Q 20.953125 3.328125 18.109375 8.203125 
z
M 48.6875 27.296875 
Q 48.6875 37.203125 44.609375 42.84375 
Q 40.53125 48.484375 33.40625 48.484375 
Q 26.265625 48.484375 22.1875 42.84375 
Q 18.109375 37.203125 18.109375 27.296875 
Q 18.109375 17.390625 22.1875 11.75 
Q 26.265625 6.109375 33.40625 6.109375 
Q 40.53125 6.109375 44.609375 11.75 
Q 48.6875 17.390625 48.6875 27.296875 
z
" id="DejaVuSans-112"/>
     <path d="M 45.40625 46.390625 
L 45.40625 75.984375 
L 54.390625 75.984375 
L 54.390625 0 
L 45.40625 0 
L 45.40625 8.203125 
Q 42.578125 3.328125 38.25 0.953125 
Q 33.9375 -1.421875 27.875 -1.421875 
Q 17.96875 -1.421875 11.734375 6.484375 
Q 5.515625 14.40625 5.515625 27.296875 
Q 5.515625 40.1875 11.734375 48.09375 
Q 17.96875 56 27.875 56 
Q 33.9375 56 38.25 53.625 
Q 42.578125 51.265625 45.40625 46.390625 
z
M 14.796875 27.296875 
Q 14.796875 17.390625 18.875 11.75 
Q 22.953125 6.109375 30.078125 6.109375 
Q 37.203125 6.109375 41.296875 11.75 
Q 45.40625 17.390625 45.40625 27.296875 
Q 45.40625 37.203125 41.296875 42.84375 
Q 37.203125 48.484375 30.078125 48.484375 
Q 22.953125 48.484375 18.875 42.84375 
Q 14.796875 37.203125 14.796875 27.296875 
z
" id="DejaVuSans-100"/>
     <path d="M 52 44.1875 
Q 55.375 50.25 60.0625 53.125 
Q 64.75 56 71.09375 56 
Q 79.640625 56 84.28125 50.015625 
Q 88.921875 44.046875 88.921875 33.015625 
L 88.921875 0 
L 79.890625 0 
L 79.890625 32.71875 
Q 79.890625 40.578125 77.09375 44.375 
Q 74.3125 48.1875 68.609375 48.1875 
Q 61.625 48.1875 57.5625 43.546875 
Q 53.515625 38.921875 53.515625 30.90625 
L 53.515625 0 
L 44.484375 0 
L 44.484375 32.71875 
Q 44.484375 40.625 41.703125 44.40625 
Q 38.921875 48.1875 33.109375 48.1875 
Q 26.21875 48.1875 22.15625 43.53125 
Q 18.109375 38.875 18.109375 30.90625 
L 18.109375 0 
L 9.078125 0 
L 9.078125 54.6875 
L 18.109375 54.6875 
L 18.109375 46.1875 
Q 21.1875 51.21875 25.484375 53.609375 
Q 29.78125 56 35.6875 56 
Q 41.65625 56 45.828125 52.96875 
Q 50 49.953125 52 44.1875 
z
" id="DejaVuSans-109"/>
     <path d="M 25.390625 72.90625 
L 33.6875 72.90625 
L 8.296875 -9.28125 
L 0 -9.28125 
z
" id="DejaVuSans-47"/>
     <path id="DejaVuSans-32"/>
     <path d="M 4.890625 31.390625 
L 31.203125 31.390625 
L 31.203125 23.390625 
L 4.890625 23.390625 
z
" id="DejaVuSans-45"/>
     <path d="M 41.109375 46.296875 
Q 39.59375 47.171875 37.8125 47.578125 
Q 36.03125 48 33.890625 48 
Q 26.265625 48 22.1875 43.046875 
Q 18.109375 38.09375 18.109375 28.8125 
L 18.109375 0 
L 9.078125 0 
L 9.078125 54.6875 
L 18.109375 54.6875 
L 18.109375 46.1875 
Q 20.953125 51.171875 25.484375 53.578125 
Q 30.03125 56 36.53125 56 
Q 37.453125 56 38.578125 55.875 
Q 39.703125 55.765625 41.0625 55.515625 
z
" id="DejaVuSans-114"/>
     <path d="M 56.203125 29.59375 
L 56.203125 25.203125 
L 14.890625 25.203125 
Q 15.484375 15.921875 20.484375 11.0625 
Q 25.484375 6.203125 34.421875 6.203125 
Q 39.59375 6.203125 44.453125 7.46875 
Q 49.3125 8.734375 54.109375 11.28125 
L 54.109375 2.78125 
Q 49.265625 0.734375 44.1875 -0.34375 
Q 39.109375 -1.421875 33.890625 -1.421875 
Q 20.796875 -1.421875 13.15625 6.1875 
Q 5.515625 13.8125 5.515625 26.8125 
Q 5.515625 40.234375 12.765625 48.109375 
Q 20.015625 56 32.328125 56 
Q 43.359375 56 49.78125 48.890625 
Q 56.203125 41.796875 56.203125 29.59375 
z
M 47.21875 32.234375 
Q 47.125 39.59375 43.09375 43.984375 
Q 39.0625 48.390625 32.421875 48.390625 
Q 24.90625 48.390625 20.390625 44.140625 
Q 15.875 39.890625 15.1875 32.171875 
z
" id="DejaVuSans-101"/>
     <path d="M 14.796875 27.296875 
Q 14.796875 17.390625 18.875 11.75 
Q 22.953125 6.109375 30.078125 6.109375 
Q 37.203125 6.109375 41.296875 11.75 
Q 45.40625 17.390625 45.40625 27.296875 
Q 45.40625 37.203125 41.296875 42.84375 
Q 37.203125 48.484375 30.078125 48.484375 
Q 22.953125 48.484375 18.875 42.84375 
Q 14.796875 37.203125 14.796875 27.296875 
z
M 45.40625 8.203125 
Q 42.578125 3.328125 38.25 0.953125 
Q 33.9375 -1.421875 27.875 -1.421875 
Q 17.96875 -1.421875 11.734375 6.484375 
Q 5.515625 14.40625 5.515625 27.296875 
Q 5.515625 40.1875 11.734375 48.09375 
Q 17.96875 56 27.875 56 
Q 33.9375 56 38.25 53.625 
Q 42.578125 51.265625 45.40625 46.390625 
L 45.40625 54.6875 
L 54.390625 54.6875 
L 54.390625 -20.796875 
L 45.40625 -20.796875 
z
" id="DejaVuSans-113"/>
     <path d="M 8.5 21.578125 
L 8.5 54.6875 
L 17.484375 54.6875 
L 17.484375 21.921875 
Q 17.484375 14.15625 20.5 10.265625 
Q 23.53125 6.390625 29.59375 6.390625 
Q 36.859375 6.390625 41.078125 11.03125 
Q 45.3125 15.671875 45.3125 23.6875 
L 45.3125 54.6875 
L 54.296875 54.6875 
L 54.296875 0 
L 45.3125 0 
L 45.3125 8.40625 
Q 42.046875 3.421875 37.71875 1 
Q 33.40625 -1.421875 27.6875 -1.421875 
Q 18.265625 -1.421875 13.375 4.4375 
Q 8.5 10.296875 8.5 21.578125 
z
M 31.109375 56 
z
" id="DejaVuSans-117"/>
     <path d="M 54.890625 33.015625 
L 54.890625 0 
L 45.90625 0 
L 45.90625 32.71875 
Q 45.90625 40.484375 42.875 44.328125 
Q 39.84375 48.1875 33.796875 48.1875 
Q 26.515625 48.1875 22.3125 43.546875 
Q 18.109375 38.921875 18.109375 30.90625 
L 18.109375 0 
L 9.078125 0 
L 9.078125 54.6875 
L 18.109375 54.6875 
L 18.109375 46.1875 
Q 21.34375 51.125 25.703125 53.5625 
Q 30.078125 56 35.796875 56 
Q 45.21875 56 50.046875 50.171875 
Q 54.890625 44.34375 54.890625 33.015625 
z
" id="DejaVuSans-110"/>
     <path d="M 48.78125 52.59375 
L 48.78125 44.1875 
Q 44.96875 46.296875 41.140625 47.34375 
Q 37.3125 48.390625 33.40625 48.390625 
Q 24.65625 48.390625 19.8125 42.84375 
Q 14.984375 37.3125 14.984375 27.296875 
Q 14.984375 17.28125 19.8125 11.734375 
Q 24.65625 6.203125 33.40625 6.203125 
Q 37.3125 6.203125 41.140625 7.25 
Q 44.96875 8.296875 48.78125 10.40625 
L 48.78125 2.09375 
Q 45.015625 0.34375 40.984375 -0.53125 
Q 36.96875 -1.421875 32.421875 -1.421875 
Q 20.0625 -1.421875 12.78125 6.34375 
Q 5.515625 14.109375 5.515625 27.296875 
Q 5.515625 40.671875 12.859375 48.328125 
Q 20.21875 56 33.015625 56 
Q 37.15625 56 41.109375 55.140625 
Q 45.0625 54.296875 48.78125 52.59375 
z
" id="DejaVuSans-99"/>
     <path d="M 32.171875 -5.078125 
Q 28.375 -14.84375 24.75 -17.8125 
Q 21.140625 -20.796875 15.09375 -20.796875 
L 7.90625 -20.796875 
L 7.90625 -13.28125 
L 13.1875 -13.28125 
Q 16.890625 -13.28125 18.9375 -11.515625 
Q 21 -9.765625 23.484375 -3.21875 
L 25.09375 0.875 
L 2.984375 54.6875 
L 12.5 54.6875 
L 29.59375 11.921875 
L 46.6875 54.6875 
L 56.203125 54.6875 
z
" id="DejaVuSans-121"/>
     <path d="M 44.390625 34.1875 
Q 47.5625 33.109375 50.5625 29.59375 
Q 53.5625 26.078125 56.59375 19.921875 
L 66.609375 0 
L 56 0 
L 46.6875 18.703125 
Q 43.0625 26.03125 39.671875 28.421875 
Q 36.28125 30.8125 30.421875 30.8125 
L 19.671875 30.8125 
L 19.671875 0 
L 9.8125 0 
L 9.8125 72.90625 
L 32.078125 72.90625 
Q 44.578125 72.90625 50.734375 67.671875 
Q 56.890625 62.453125 56.890625 51.90625 
Q 56.890625 45.015625 53.6875 40.46875 
Q 50.484375 35.9375 44.390625 34.1875 
z
M 19.671875 64.796875 
L 19.671875 38.921875 
L 32.078125 38.921875 
Q 39.203125 38.921875 42.84375 42.21875 
Q 46.484375 45.515625 46.484375 51.90625 
Q 46.484375 58.296875 42.84375 61.546875 
Q 39.203125 64.796875 32.078125 64.796875 
z
" id="DejaVuSans-82"/>
     <path d="M 30.609375 48.390625 
Q 23.390625 48.390625 19.1875 42.75 
Q 14.984375 37.109375 14.984375 27.296875 
Q 14.984375 17.484375 19.15625 11.84375 
Q 23.34375 6.203125 30.609375 6.203125 
Q 37.796875 6.203125 41.984375 11.859375 
Q 46.1875 17.53125 46.1875 27.296875 
Q 46.1875 37.015625 41.984375 42.703125 
Q 37.796875 48.390625 30.609375 48.390625 
z
M 30.609375 56 
Q 42.328125 56 49.015625 48.375 
Q 55.71875 40.765625 55.71875 27.296875 
Q 55.71875 13.875 49.015625 6.21875 
Q 42.328125 -1.421875 30.609375 -1.421875 
Q 18.84375 -1.421875 12.171875 6.21875 
Q 5.515625 13.875 5.515625 27.296875 
Q 5.515625 40.765625 12.171875 48.375 
Q 18.84375 56 30.609375 56 
z
" id="DejaVuSans-111"/>
     <path d="M 44.28125 53.078125 
L 44.28125 44.578125 
Q 40.484375 46.53125 36.375 47.5 
Q 32.28125 48.484375 27.875 48.484375 
Q 21.1875 48.484375 17.84375 46.4375 
Q 14.5 44.390625 14.5 40.28125 
Q 14.5 37.15625 16.890625 35.375 
Q 19.28125 33.59375 26.515625 31.984375 
L 29.59375 31.296875 
Q 39.15625 29.25 43.1875 25.515625 
Q 47.21875 21.78125 47.21875 15.09375 
Q 47.21875 7.46875 41.1875 3.015625 
Q 35.15625 -1.421875 24.609375 -1.421875 
Q 20.21875 -1.421875 15.453125 -0.5625 
Q 10.6875 0.296875 5.421875 2 
L 5.421875 11.28125 
Q 10.40625 8.6875 15.234375 7.390625 
Q 20.0625 6.109375 24.8125 6.109375 
Q 31.15625 6.109375 34.5625 8.28125 
Q 37.984375 10.453125 37.984375 14.40625 
Q 37.984375 18.0625 35.515625 20.015625 
Q 33.0625 21.96875 24.703125 23.78125 
L 21.578125 24.515625 
Q 13.234375 26.265625 9.515625 29.90625 
Q 5.8125 33.546875 5.8125 39.890625 
Q 5.8125 47.609375 11.28125 51.796875 
Q 16.75 56 26.8125 56 
Q 31.78125 56 36.171875 55.265625 
Q 40.578125 54.546875 44.28125 53.078125 
z
" id="DejaVuSans-115"/>
    </defs>
    <g transform="translate(289.027813 18.530625)scale(0.12 -0.12)">
     <use xlink:href="#DejaVuSans-70"/>
     <use x="57.519531" xlink:href="#DejaVuSans-112"/>
     <use x="120.996094" xlink:href="#DejaVuSans-100"/>
     <use x="184.472656" xlink:href="#DejaVuSans-109"/>
     <use x="281.884766" xlink:href="#DejaVuSans-47"/>
     <use x="315.576172" xlink:href="#DejaVuSans-53"/>
     <use x="379.199219" xlink:href="#DejaVuSans-32"/>
     <use x="410.986328" xlink:href="#DejaVuSans-45"/>
     <use x="447.070312" xlink:href="#DejaVuSans-32"/>
     <use x="478.857422" xlink:href="#DejaVuSans-70"/>
     <use x="536.267578" xlink:href="#DejaVuSans-114"/>
     <use x="577.349609" xlink:href="#DejaVuSans-101"/>
     <use x="638.873047" xlink:href="#DejaVuSans-113"/>
     <use x="702.349609" xlink:href="#DejaVuSans-117"/>
     <use x="765.728516" xlink:href="#DejaVuSans-101"/>
     <use x="827.251953" xlink:href="#DejaVuSans-110"/>
     <use x="890.630859" xlink:href="#DejaVuSans-99"/>
     <use x="945.611328" xlink:href="#DejaVuSans-121"/>
     <use x="1004.791016" xlink:href="#DejaVuSans-32"/>
     <use x="1036.578125" xlink:href="#DejaVuSans-82"/>
     <use x="1105.998047" xlink:href="#DejaVuSans-101"/>
     <use x="1167.521484" xlink:href="#DejaVuSans-112"/>
     <use x="1230.998047" xlink:href="#DejaVuSans-111"/>
     <use x="1292.179688" xlink:href="#DejaVuSans-110"/>
     <use x="1355.558594" xlink:href="#DejaVuSans-115"/>
     <use x="1407.658203" xlink:href="#DejaVuSans-101"/>
    </g>
    <!-- 463 Taps -->
    <defs>
     <path d="M 40.578125 39.3125 
Q 47.65625 37.796875 51.625 33 
Q 55.609375 28.21875 55.609375 21.1875 
Q 55.609375 10.40625 48.1875 4.484375 
Q 40.765625 -1.421875 27.09375 -1.421875 
Q 22.515625 -1.421875 17.65625 -0.515625 
Q 12.796875 0.390625 7.625 2.203125 
L 7.625 11.71875 
Q 11.71875 9.328125 16.59375 8.109375 
Q 21.484375 6.890625 26.8125 6.890625 
Q 36.078125 6.890625 40.9375 10.546875 
Q 45.796875 14.203125 45.796875 21.1875 
Q 45.796875 27.640625 41.28125 31.265625 
Q 36.765625 34.90625 28.71875 34.90625 
L 20.21875 34.90625 
L 20.21875 43.015625 
L 29.109375 43.015625 
Q 36.375 43.015625 40.234375 45.921875 
Q 44.09375 48.828125 44.09375 54.296875 
Q 44.09375 59.90625 40.109375 62.90625 
Q 36.140625 65.921875 28.71875 65.921875 
Q 24.65625 65.921875 20.015625 65.03125 
Q 15.375 64.15625 9.8125 62.3125 
L 9.8125 71.09375 
Q 15.4375 72.65625 20.34375 73.4375 
Q 25.25 74.21875 29.59375 74.21875 
Q 40.828125 74.21875 47.359375 69.109375 
Q 53.90625 64.015625 53.90625 55.328125 
Q 53.90625 49.265625 50.4375 45.09375 
Q 46.96875 40.921875 40.578125 39.3125 
z
" id="DejaVuSans-51"/>
     <path d="M -0.296875 72.90625 
L 61.375 72.90625 
L 61.375 64.59375 
L 35.5 64.59375 
L 35.5 0 
L 25.59375 0 
L 25.59375 64.59375 
L -0.296875 64.59375 
z
" id="DejaVuSans-84"/>
     <path d="M 34.28125 27.484375 
Q 23.390625 27.484375 19.1875 25 
Q 14.984375 22.515625 14.984375 16.5 
Q 14.984375 11.71875 18.140625 8.90625 
Q 21.296875 6.109375 26.703125 6.109375 
Q 34.1875 6.109375 38.703125 11.40625 
Q 43.21875 16.703125 43.21875 25.484375 
L 43.21875 27.484375 
z
M 52.203125 31.203125 
L 52.203125 0 
L 43.21875 0 
L 43.21875 8.296875 
Q 40.140625 3.328125 35.546875 0.953125 
Q 30.953125 -1.421875 24.3125 -1.421875 
Q 15.921875 -1.421875 10.953125 3.296875 
Q 6 8.015625 6 15.921875 
Q 6 25.140625 12.171875 29.828125 
Q 18.359375 34.515625 30.609375 34.515625 
L 43.21875 34.515625 
L 43.21875 35.40625 
Q 43.21875 41.609375 39.140625 45 
Q 35.0625 48.390625 27.6875 48.390625 
Q 23 48.390625 18.546875 47.265625 
Q 14.109375 46.140625 10.015625 43.890625 
L 10.015625 52.203125 
Q 14.9375 54.109375 19.578125 55.046875 
Q 24.21875 56 28.609375 56 
Q 40.484375 56 46.34375 49.84375 
Q 52.203125 43.703125 52.203125 31.203125 
z
" id="DejaVuSans-97"/>
    </defs>
    <g transform="translate(349.559375 31.968)scale(0.12 -0.12)">
     <use xlink:href="#DejaVuSans-52"/>
     <use x="63.623047" xlink:href="#DejaVuSans-54"/>
     <use x="127.246094" xlink:href="#DejaVuSans-51"/>
     <use x="190.869141" xlink:href="#DejaVuSans-32"/>
     <use x="222.65625" xlink:href="#DejaVuSans-84"/>
     <use x="283.490234" xlink:href="#DejaVuSans-97"/>
     <use x="344.769531" xlink:href="#DejaVuSans-112"/>
     <use x="408.246094" xlink:href="#DejaVuSans-115"/>
    </g>
   </g>
  </g>
 </g>
 <defs>
  <clipPath id="p7ce40252bb">
   <rect height="222.152" width="664.04" x="45.16" y="37.968"/>
  </clipPath>
 </defs>
</svg>
