<?xml version="1.0" encoding="utf-8" standalone="no"?>
<!DOCTYPE svg PUBLIC "-//W3C//DTD SVG 1.1//EN"
  "http://www.w3.org/Graphics/SVG/1.1/DTD/svg11.dtd">
<!-- Created with matplotlib (https://matplotlib.org/) -->
<svg height="288pt" version="1.1" viewBox="0 0 720 288" width="720pt" xmlns="http://www.w3.org/2000/svg" xmlns:xlink="http://www.w3.org/1999/xlink">
 <defs>
  <style type="text/css">
*{stroke-linecap:butt;stroke-linejoin:round;}
  </style>
 </defs>
 <g id="figure_1">
  <g id="patch_1">
   <path d="M 0 288 
L 720 288 
L 720 0 
L 0 0 
z
" style="fill:#ffffff;"/>
  </g>
  <g id="axes_1">
   <g id="patch_2">
    <path d="M 45.16 260.12 
L 709.2 260.12 
L 709.2 41.856 
L 45.16 41.856 
z
" style="fill:#ffffff;"/>
   </g>
   <g id="matplotlib.axis_1">
    <g id="xtick_1">
     <g id="line2d_1">
      <path clip-path="url(#p0d096c9f9a)" d="M 45.16 260.12 
L 45.16 41.856 
" style="fill:none;stroke:#b0b0b0;stroke-linecap:square;stroke-width:0.8;"/>
     </g>
     <g id="line2d_2">
      <defs>
       <path d="M 0 0 
L 0 3.5 
" id="m445a0715ad" style="stroke:#000000;stroke-width:0.8;"/>
      </defs>
      <g>
       <use style="stroke:#000000;stroke-width:0.8;" x="45.16" xlink:href="#m445a0715ad" y="260.12"/>
      </g>
     </g>
     <g id="text_1">
      <!-- 0 -->
      <defs>
       <path d="M 31.78125 66.40625 
Q 24.171875 66.40625 20.328125 58.90625 
Q 16.5 51.421875 16.5 36.375 
Q 16.5 21.390625 20.328125 13.890625 
Q 24.171875 6.390625 31.78125 6.390625 
Q 39.453125 6.390625 43.28125 13.890625 
Q 47.125 21.390625 47.125 36.375 
Q 47.125 51.421875 43.28125 58.90625 
Q 39.453125 66.40625 31.78125 66.40625 
z
M 31.78125 74.21875 
Q 44.046875 74.21875 50.515625 64.515625 
Q 56.984375 54.828125 56.984375 36.375 
Q 56.984375 17.96875 50.515625 8.265625 
Q 44.046875 -1.421875 31.78125 -1.421875 
Q 19.53125 -1.421875 13.0625 8.265625 
Q 6.59375 17.96875 6.59375 36.375 
Q 6.59375 54.828125 13.0625 64.515625 
Q 19.53125 74.21875 31.78125 74.21875 
z
" id="DejaVuSans-48"/>
      </defs>
      <g transform="translate(41.97875 274.718437)scale(0.1 -0.1)">
       <use xlink:href="#DejaVuSans-48"/>
      </g>
     </g>
    </g>
    <g id="xtick_2">
     <g id="line2d_3">
      <path clip-path="url(#p0d096c9f9a)" d="M 131.623542 260.12 
L 131.623542 41.856 
" style="fill:none;stroke:#b0b0b0;stroke-linecap:square;stroke-width:0.8;"/>
     </g>
     <g id="line2d_4">
      <g>
       <use style="stroke:#000000;stroke-width:0.8;" x="131.623542" xlink:href="#m445a0715ad" y="260.12"/>
      </g>
     </g>
     <g id="text_2">
      <!-- 25000 -->
      <defs>
       <path d="M 19.1875 8.296875 
L 53.609375 8.296875 
L 53.609375 0 
L 7.328125 0 
L 7.328125 8.296875 
Q 12.9375 14.109375 22.625 23.890625 
Q 32.328125 33.6875 34.8125 36.53125 
Q 39.546875 41.84375 41.421875 45.53125 
Q 43.3125 49.21875 43.3125 52.78125 
Q 43.3125 58.59375 39.234375 62.25 
Q 35.15625 65.921875 28.609375 65.921875 
Q 23.96875 65.921875 18.8125 64.3125 
Q 13.671875 62.703125 7.8125 59.421875 
L 7.8125 69.390625 
Q 13.765625 71.78125 18.9375 73 
Q 24.125 74.21875 28.421875 74.21875 
Q 39.75 74.21875 46.484375 68.546875 
Q 53.21875 62.890625 53.21875 53.421875 
Q 53.21875 48.921875 51.53125 44.890625 
Q 49.859375 40.875 45.40625 35.40625 
Q 44.1875 33.984375 37.640625 27.21875 
Q 31.109375 20.453125 19.1875 8.296875 
z
" id="DejaVuSans-50"/>
       <path d="M 10.796875 72.90625 
L 49.515625 72.90625 
L 49.515625 64.59375 
L 19.828125 64.59375 
L 19.828125 46.734375 
Q 21.96875 47.46875 24.109375 47.828125 
Q 26.265625 48.1875 28.421875 48.1875 
Q 40.625 48.1875 47.75 41.5 
Q 54.890625 34.8125 54.890625 23.390625 
Q 54.890625 11.625 47.5625 5.09375 
Q 40.234375 -1.421875 26.90625 -1.421875 
Q 22.3125 -1.421875 17.546875 -0.640625 
Q 12.796875 0.140625 7.71875 1.703125 
L 7.71875 11.625 
Q 12.109375 9.234375 16.796875 8.0625 
Q 21.484375 6.890625 26.703125 6.890625 
Q 35.15625 6.890625 40.078125 11.328125 
Q 45.015625 15.765625 45.015625 23.390625 
Q 45.015625 31 40.078125 35.4375 
Q 35.15625 39.890625 26.703125 39.890625 
Q 22.75 39.890625 18.8125 39.015625 
Q 14.890625 38.140625 10.796875 36.28125 
z
" id="DejaVuSans-53"/>
      </defs>
      <g transform="translate(115.717292 274.718437)scale(0.1 -0.1)">
       <use xlink:href="#DejaVuSans-50"/>
       <use x="63.623047" xlink:href="#DejaVuSans-53"/>
       <use x="127.246094" xlink:href="#DejaVuSans-48"/>
       <use x="190.869141" xlink:href="#DejaVuSans-48"/>
       <use x="254.492188" xlink:href="#DejaVuSans-48"/>
      </g>
     </g>
    </g>
    <g id="xtick_3">
     <g id="line2d_5">
      <path clip-path="url(#p0d096c9f9a)" d="M 218.087083 260.12 
L 218.087083 41.856 
" style="fill:none;stroke:#b0b0b0;stroke-linecap:square;stroke-width:0.8;"/>
     </g>
     <g id="line2d_6">
      <g>
       <use style="stroke:#000000;stroke-width:0.8;" x="218.087083" xlink:href="#m445a0715ad" y="260.12"/>
      </g>
     </g>
     <g id="text_3">
      <!-- 50000 -->
      <g transform="translate(202.180833 274.718437)scale(0.1 -0.1)">
       <use xlink:href="#DejaVuSans-53"/>
       <use x="63.623047" xlink:href="#DejaVuSans-48"/>
       <use x="127.246094" xlink:href="#DejaVuSans-48"/>
       <use x="190.869141" xlink:href="#DejaVuSans-48"/>
       <use x="254.492188" xlink:href="#DejaVuSans-48"/>
      </g>
     </g>
    </g>
    <g id="xtick_4">
     <g id="line2d_7">
      <path clip-path="url(#p0d096c9f9a)" d="M 304.550625 260.12 
L 304.550625 41.856 
" style="fill:none;stroke:#b0b0b0;stroke-linecap:square;stroke-width:0.8;"/>
     </g>
     <g id="line2d_8">
      <g>
       <use style="stroke:#000000;stroke-width:0.8;" x="304.550625" xlink:href="#m445a0715ad" y="260.12"/>
      </g>
     </g>
     <g id="text_4">
      <!-- 75000 -->
      <defs>
       <path d="M 8.203125 72.90625 
L 55.078125 72.90625 
L 55.078125 68.703125 
L 28.609375 0 
L 18.3125 0 
L 43.21875 64.59375 
L 8.203125 64.59375 
z
" id="DejaVuSans-55"/>
      </defs>
      <g transform="translate(288.644375 274.718437)scale(0.1 -0.1)">
       <use xlink:href="#DejaVuSans-55"/>
       <use x="63.623047" xlink:href="#DejaVuSans-53"/>
       <use x="127.246094" xlink:href="#DejaVuSans-48"/>
       <use x="190.869141" xlink:href="#DejaVuSans-48"/>
       <use x="254.492188" xlink:href="#DejaVuSans-48"/>
      </g>
     </g>
    </g>
    <g id="xtick_5">
     <g id="line2d_9">
      <path clip-path="url(#p0d096c9f9a)" d="M 391.014167 260.12 
L 391.014167 41.856 
" style="fill:none;stroke:#b0b0b0;stroke-linecap:square;stroke-width:0.8;"/>
     </g>
     <g id="line2d_10">
      <g>
       <use style="stroke:#000000;stroke-width:0.8;" x="391.014167" xlink:href="#m445a0715ad" y="260.12"/>
      </g>
     </g>
     <g id="text_5">
      <!-- 100000 -->
      <defs>
       <path d="M 12.40625 8.296875 
L 28.515625 8.296875 
L 28.515625 63.921875 
L 10.984375 60.40625 
L 10.984375 69.390625 
L 28.421875 72.90625 
L 38.28125 72.90625 
L 38.28125 8.296875 
L 54.390625 8.296875 
L 54.390625 0 
L 12.40625 0 
z
" id="DejaVuSans-49"/>
      </defs>
      <g transform="translate(371.926667 274.718437)scale(0.1 -0.1)">
       <use xlink:href="#DejaVuSans-49"/>
       <use x="63.623047" xlink:href="#DejaVuSans-48"/>
       <use x="127.246094" xlink:href="#DejaVuSans-48"/>
       <use x="190.869141" xlink:href="#DejaVuSans-48"/>
       <use x="254.492188" xlink:href="#DejaVuSans-48"/>
       <use x="318.115234" xlink:href="#DejaVuSans-48"/>
      </g>
     </g>
    </g>
    <g id="xtick_6">
     <g id="line2d_11">
      <path clip-path="url(#p0d096c9f9a)" d="M 477.477708 260.12 
L 477.477708 41.856 
" style="fill:none;stroke:#b0b0b0;stroke-linecap:square;stroke-width:0.8;"/>
     </g>
     <g id="line2d_12">
      <g>
       <use style="stroke:#000000;stroke-width:0.8;" x="477.477708" xlink:href="#m445a0715ad" y="260.12"/>
      </g>
     </g>
     <g id="text_6">
      <!-- 125000 -->
      <g transform="translate(458.390208 274.718437)scale(0.1 -0.1)">
       <use xlink:href="#DejaVuSans-49"/>
       <use x="63.623047" xlink:href="#DejaVuSans-50"/>
       <use x="127.246094" xlink:href="#DejaVuSans-53"/>
       <use x="190.869141" xlink:href="#DejaVuSans-48"/>
       <use x="254.492188" xlink:href="#DejaVuSans-48"/>
       <use x="318.115234" xlink:href="#DejaVuSans-48"/>
      </g>
     </g>
    </g>
    <g id="xtick_7">
     <g id="line2d_13">
      <path clip-path="url(#p0d096c9f9a)" d="M 563.94125 260.12 
L 563.94125 41.856 
" style="fill:none;stroke:#b0b0b0;stroke-linecap:square;stroke-width:0.8;"/>
     </g>
     <g id="line2d_14">
      <g>
       <use style="stroke:#000000;stroke-width:0.8;" x="563.94125" xlink:href="#m445a0715ad" y="260.12"/>
      </g>
     </g>
     <g id="text_7">
      <!-- 150000 -->
      <g transform="translate(544.85375 274.718437)scale(0.1 -0.1)">
       <use xlink:href="#DejaVuSans-49"/>
       <use x="63.623047" xlink:href="#DejaVuSans-53"/>
       <use x="127.246094" xlink:href="#DejaVuSans-48"/>
       <use x="190.869141" xlink:href="#DejaVuSans-48"/>
       <use x="254.492188" xlink:href="#DejaVuSans-48"/>
       <use x="318.115234" xlink:href="#DejaVuSans-48"/>
      </g>
     </g>
    </g>
    <g id="xtick_8">
     <g id="line2d_15">
      <path clip-path="url(#p0d096c9f9a)" d="M 650.404792 260.12 
L 650.404792 41.856 
" style="fill:none;stroke:#b0b0b0;stroke-linecap:square;stroke-width:0.8;"/>
     </g>
     <g id="line2d_16">
      <g>
       <use style="stroke:#000000;stroke-width:0.8;" x="650.404792" xlink:href="#m445a0715ad" y="260.12"/>
      </g>
     </g>
     <g id="text_8">
      <!-- 175000 -->
      <g transform="translate(631.317292 274.718437)scale(0.1 -0.1)">
       <use xlink:href="#DejaVuSans-49"/>
       <use x="63.623047" xlink:href="#DejaVuSans-55"/>
       <use x="127.246094" xlink:href="#DejaVuSans-53"/>
       <use x="190.869141" xlink:href="#DejaVuSans-48"/>
       <use x="254.492188" xlink:href="#DejaVuSans-48"/>
       <use x="318.115234" xlink:href="#DejaVuSans-48"/>
      </g>
     </g>
    </g>
   </g>
   <g id="matplotlib.axis_2">
    <g id="ytick_1">
     <g id="line2d_17">
      <path clip-path="url(#p0d096c9f9a)" d="M 45.16 260.12 
L 709.2 260.12 
" style="fill:none;stroke:#b0b0b0;stroke-linecap:square;stroke-width:0.8;"/>
     </g>
     <g id="line2d_18">
      <defs>
       <path d="M 0 0 
L -3.5 0 
" id="me3c100699e" style="stroke:#000000;stroke-width:0.8;"/>
      </defs>
      <g>
       <use style="stroke:#000000;stroke-width:0.8;" x="45.16" xlink:href="#me3c100699e" y="260.12"/>
      </g>
     </g>
     <g id="text_9">
      <!-- −120 -->
      <defs>
       <path d="M 10.59375 35.5 
L 73.1875 35.5 
L 73.1875 27.203125 
L 10.59375 27.203125 
z
" id="DejaVuSans-8722"/>
      </defs>
      <g transform="translate(10.692812 263.919219)scale(0.1 -0.1)">
       <use xlink:href="#DejaVuSans-8722"/>
       <use x="83.789062" xlink:href="#DejaVuSans-49"/>
       <use x="147.412109" xlink:href="#DejaVuSans-50"/>
       <use x="211.035156" xlink:href="#DejaVuSans-48"/>
      </g>
     </g>
    </g>
    <g id="ytick_2">
     <g id="line2d_19">
      <path clip-path="url(#p0d096c9f9a)" d="M 45.16 224.629919 
L 709.2 224.629919 
" style="fill:none;stroke:#b0b0b0;stroke-linecap:square;stroke-width:0.8;"/>
     </g>
     <g id="line2d_20">
      <g>
       <use style="stroke:#000000;stroke-width:0.8;" x="45.16" xlink:href="#me3c100699e" y="224.629919"/>
      </g>
     </g>
     <g id="text_10">
      <!-- −100 -->
      <g transform="translate(10.692812 228.429137)scale(0.1 -0.1)">
       <use xlink:href="#DejaVuSans-8722"/>
       <use x="83.789062" xlink:href="#DejaVuSans-49"/>
       <use x="147.412109" xlink:href="#DejaVuSans-48"/>
       <use x="211.035156" xlink:href="#DejaVuSans-48"/>
      </g>
     </g>
    </g>
    <g id="ytick_3">
     <g id="line2d_21">
      <path clip-path="url(#p0d096c9f9a)" d="M 45.16 189.139837 
L 709.2 189.139837 
" style="fill:none;stroke:#b0b0b0;stroke-linecap:square;stroke-width:0.8;"/>
     </g>
     <g id="line2d_22">
      <g>
       <use style="stroke:#000000;stroke-width:0.8;" x="45.16" xlink:href="#me3c100699e" y="189.139837"/>
      </g>
     </g>
     <g id="text_11">
      <!-- −80 -->
      <defs>
       <path d="M 31.78125 34.625 
Q 24.75 34.625 20.71875 30.859375 
Q 16.703125 27.09375 16.703125 20.515625 
Q 16.703125 13.921875 20.71875 10.15625 
Q 24.75 6.390625 31.78125 6.390625 
Q 38.8125 6.390625 42.859375 10.171875 
Q 46.921875 13.96875 46.921875 20.515625 
Q 46.921875 27.09375 42.890625 30.859375 
Q 38.875 34.625 31.78125 34.625 
z
M 21.921875 38.8125 
Q 15.578125 40.375 12.03125 44.71875 
Q 8.5 49.078125 8.5 55.328125 
Q 8.5 64.0625 14.71875 69.140625 
Q 20.953125 74.21875 31.78125 74.21875 
Q 42.671875 74.21875 48.875 69.140625 
Q 55.078125 64.0625 55.078125 55.328125 
Q 55.078125 49.078125 51.53125 44.71875 
Q 48 40.375 41.703125 38.8125 
Q 48.828125 37.15625 52.796875 32.3125 
Q 56.78125 27.484375 56.78125 20.515625 
Q 56.78125 9.90625 50.3125 4.234375 
Q 43.84375 -1.421875 31.78125 -1.421875 
Q 19.734375 -1.421875 13.25 4.234375 
Q 6.78125 9.90625 6.78125 20.515625 
Q 6.78125 27.484375 10.78125 32.3125 
Q 14.796875 37.15625 21.921875 38.8125 
z
M 18.3125 54.390625 
Q 18.3125 48.734375 21.84375 45.5625 
Q 25.390625 42.390625 31.78125 42.390625 
Q 38.140625 42.390625 41.71875 45.5625 
Q 45.3125 48.734375 45.3125 54.390625 
Q 45.3125 60.0625 41.71875 63.234375 
Q 38.140625 66.40625 31.78125 66.40625 
Q 25.390625 66.40625 21.84375 63.234375 
Q 18.3125 60.0625 18.3125 54.390625 
z
" id="DejaVuSans-56"/>
      </defs>
      <g transform="translate(17.055312 192.939056)scale(0.1 -0.1)">
       <use xlink:href="#DejaVuSans-8722"/>
       <use x="83.789062" xlink:href="#DejaVuSans-56"/>
       <use x="147.412109" xlink:href="#DejaVuSans-48"/>
      </g>
     </g>
    </g>
    <g id="ytick_4">
     <g id="line2d_23">
      <path clip-path="url(#p0d096c9f9a)" d="M 45.16 153.649756 
L 709.2 153.649756 
" style="fill:none;stroke:#b0b0b0;stroke-linecap:square;stroke-width:0.8;"/>
     </g>
     <g id="line2d_24">
      <g>
       <use style="stroke:#000000;stroke-width:0.8;" x="45.16" xlink:href="#me3c100699e" y="153.649756"/>
      </g>
     </g>
     <g id="text_12">
      <!-- −60 -->
      <defs>
       <path d="M 33.015625 40.375 
Q 26.375 40.375 22.484375 35.828125 
Q 18.609375 31.296875 18.609375 23.390625 
Q 18.609375 15.53125 22.484375 10.953125 
Q 26.375 6.390625 33.015625 6.390625 
Q 39.65625 6.390625 43.53125 10.953125 
Q 47.40625 15.53125 47.40625 23.390625 
Q 47.40625 31.296875 43.53125 35.828125 
Q 39.65625 40.375 33.015625 40.375 
z
M 52.59375 71.296875 
L 52.59375 62.3125 
Q 48.875 64.0625 45.09375 64.984375 
Q 41.3125 65.921875 37.59375 65.921875 
Q 27.828125 65.921875 22.671875 59.328125 
Q 17.53125 52.734375 16.796875 39.40625 
Q 19.671875 43.65625 24.015625 45.921875 
Q 28.375 48.1875 33.59375 48.1875 
Q 44.578125 48.1875 50.953125 41.515625 
Q 57.328125 34.859375 57.328125 23.390625 
Q 57.328125 12.15625 50.6875 5.359375 
Q 44.046875 -1.421875 33.015625 -1.421875 
Q 20.359375 -1.421875 13.671875 8.265625 
Q 6.984375 17.96875 6.984375 36.375 
Q 6.984375 53.65625 15.1875 63.9375 
Q 23.390625 74.21875 37.203125 74.21875 
Q 40.921875 74.21875 44.703125 73.484375 
Q 48.484375 72.75 52.59375 71.296875 
z
" id="DejaVuSans-54"/>
      </defs>
      <g transform="translate(17.055312 157.448975)scale(0.1 -0.1)">
       <use xlink:href="#DejaVuSans-8722"/>
       <use x="83.789062" xlink:href="#DejaVuSans-54"/>
       <use x="147.412109" xlink:href="#DejaVuSans-48"/>
      </g>
     </g>
    </g>
    <g id="ytick_5">
     <g id="line2d_25">
      <path clip-path="url(#p0d096c9f9a)" d="M 45.16 118.159675 
L 709.2 118.159675 
" style="fill:none;stroke:#b0b0b0;stroke-linecap:square;stroke-width:0.8;"/>
     </g>
     <g id="line2d_26">
      <g>
       <use style="stroke:#000000;stroke-width:0.8;" x="45.16" xlink:href="#me3c100699e" y="118.159675"/>
      </g>
     </g>
     <g id="text_13">
      <!-- −40 -->
      <defs>
       <path d="M 37.796875 64.3125 
L 12.890625 25.390625 
L 37.796875 25.390625 
z
M 35.203125 72.90625 
L 47.609375 72.90625 
L 47.609375 25.390625 
L 58.015625 25.390625 
L 58.015625 17.1875 
L 47.609375 17.1875 
L 47.609375 0 
L 37.796875 0 
L 37.796875 17.1875 
L 4.890625 17.1875 
L 4.890625 26.703125 
z
" id="DejaVuSans-52"/>
      </defs>
      <g transform="translate(17.055312 121.958894)scale(0.1 -0.1)">
       <use xlink:href="#DejaVuSans-8722"/>
       <use x="83.789062" xlink:href="#DejaVuSans-52"/>
       <use x="147.412109" xlink:href="#DejaVuSans-48"/>
      </g>
     </g>
    </g>
    <g id="ytick_6">
     <g id="line2d_27">
      <path clip-path="url(#p0d096c9f9a)" d="M 45.16 82.669593 
L 709.2 82.669593 
" style="fill:none;stroke:#b0b0b0;stroke-linecap:square;stroke-width:0.8;"/>
     </g>
     <g id="line2d_28">
      <g>
       <use style="stroke:#000000;stroke-width:0.8;" x="45.16" xlink:href="#me3c100699e" y="82.669593"/>
      </g>
     </g>
     <g id="text_14">
      <!-- −20 -->
      <g transform="translate(17.055312 86.468812)scale(0.1 -0.1)">
       <use xlink:href="#DejaVuSans-8722"/>
       <use x="83.789062" xlink:href="#DejaVuSans-50"/>
       <use x="147.412109" xlink:href="#DejaVuSans-48"/>
      </g>
     </g>
    </g>
    <g id="ytick_7">
     <g id="line2d_29">
      <path clip-path="url(#p0d096c9f9a)" d="M 45.16 47.179512 
L 709.2 47.179512 
" style="fill:none;stroke:#b0b0b0;stroke-linecap:square;stroke-width:0.8;"/>
     </g>
     <g id="line2d_30">
      <g>
       <use style="stroke:#000000;stroke-width:0.8;" x="45.16" xlink:href="#me3c100699e" y="47.179512"/>
      </g>
     </g>
     <g id="text_15">
      <!-- 0 -->
      <g transform="translate(31.7975 50.978731)scale(0.1 -0.1)">
       <use xlink:href="#DejaVuSans-48"/>
      </g>
     </g>
    </g>
   </g>
   <g id="line2d_31">
    <path clip-path="url(#p0d096c9f9a)" d="M 45.16 47.26752 
L 51.644766 47.166582 
L 54.238672 47.26616 
L 59.426484 47.139893 
L 62.020391 47.265158 
L 64.614297 47.092492 
L 65.91125 47.26752 
L 67.208203 48.080861 
L 68.505156 49.900193 
L 69.802109 53.048953 
L 71.099063 57.818771 
L 72.396016 64.511157 
L 73.692969 73.499435 
L 74.989922 85.328733 
L 76.286875 100.925232 
L 77.583828 122.194547 
L 78.880781 154.854026 
L 80.177734 205.400971 
L 81.474688 206.410579 
L 82.771641 238.117131 
L 84.068594 206.055529 
L 85.365547 220.195753 
L 86.6625 205.937823 
L 87.959453 229.750073 
L 89.256406 205.169247 
L 90.553359 231.792223 
L 91.850313 206.569162 
L 93.147266 212.267049 
L 94.444219 213.901317 
L 95.741172 205.917329 
L 97.038125 282.36521 
L 98.335078 206.000315 
L 99.632031 212.490357 
L 100.928984 214.969425 
L 102.225937 205.511071 
L 103.522891 234.62996 
L 104.819844 207.28087 
L 106.116797 209.206021 
L 107.41375 222.972449 
L 108.710703 205.16557 
L 110.007656 218.328038 
L 111.304609 211.104735 
L 112.601563 206.186725 
L 113.898516 259.577763 
L 115.195469 206.594275 
L 116.492422 210.096731 
L 117.789375 221.211249 
L 119.086328 205.143146 
L 120.383281 218.211899 
L 121.680234 211.496057 
L 122.977187 206.006493 
L 124.274141 243.847517 
L 125.571094 207.081679 
L 126.868047 208.963529 
L 128.165 225.846175 
L 129.461953 205.32029 
L 130.758906 214.929805 
L 132.055859 214.015688 
L 133.352813 205.460446 
L 134.649766 228.169868 
L 135.946719 208.595751 
L 137.243672 207.289291 
L 138.540625 241.226761 
L 139.837578 205.936998 
L 141.134531 211.147318 
L 142.431484 219.404568 
L 143.728438 205.170826 
L 145.025391 218.63018 
L 146.322344 211.613442 
L 147.619297 205.890249 
L 148.91625 237.644346 
L 150.213203 207.58705 
L 151.510156 208.191546 
L 152.807109 231.505479 
L 154.104062 205.614563 
L 155.401016 212.587332 
L 156.697969 217.016882 
L 157.994922 205.145926 
L 159.291875 220.748471 
L 160.588828 210.668944 
L 161.885781 206.09631 
L 163.182734 244.294989 
L 164.479688 207.224946 
L 165.776641 208.562313 
L 167.073594 229.180172 
L 168.370547 205.54227 
L 169.6675 213.097975 
L 170.964453 216.473453 
L 172.261406 205.233138 
L 173.558359 221.528228 
L 174.855313 210.478129 
L 176.152266 206.212371 
L 177.449219 246.619433 
L 178.746172 207.16914 
L 180.043125 208.634007 
L 181.340078 228.945055 
L 182.637031 205.525574 
L 183.933984 213.034914 
L 185.230938 216.571438 
L 186.527891 205.188779 
L 187.824844 221.090192 
L 189.121797 210.618631 
L 190.41875 206.077428 
L 191.715703 243.110795 
L 193.012656 207.278845 
L 194.309609 208.321372 
L 195.606563 230.768847 
L 196.903516 205.57895 
L 198.200469 212.411996 
L 199.497422 217.475279 
L 200.794375 205.149474 
L 202.091328 219.748794 
L 203.388281 211.213553 
L 204.685234 205.898472 
L 205.982188 237.403103 
L 207.279141 207.676847 
L 208.576094 207.939761 
L 209.873047 234.473954 
L 211.17 205.792854 
L 212.466953 211.673097 
L 213.763906 218.904841 
L 215.060859 205.176221 
L 216.357813 218.235713 
L 218.951719 205.714826 
L 220.248672 232.446971 
L 221.545625 208.190376 
L 222.842578 207.485012 
L 224.139531 240.773674 
L 225.436484 206.061903 
L 226.733438 210.810036 
L 228.030391 220.876482 
L 229.327344 205.219702 
L 230.624297 216.584743 
L 231.92125 213.149932 
L 233.218203 205.516917 
L 234.515156 228.072694 
L 235.812109 208.854562 
L 237.109063 206.991843 
L 238.406016 254.814782 
L 239.702969 206.420752 
L 240.999922 209.896247 
L 242.296875 223.587486 
L 243.593828 205.314357 
L 244.890781 214.921439 
L 246.187734 214.568065 
L 247.484688 205.344456 
L 248.781641 224.298422 
L 250.078594 209.701355 
L 251.375547 206.509317 
L 252.6725 260.872532 
L 253.969453 206.895937 
L 255.266406 208.995812 
L 256.563359 227.381067 
L 257.860313 205.487283 
L 259.157266 213.331234 
L 260.454219 216.377982 
L 261.751172 205.227877 
L 263.048125 221.065053 
L 264.345078 210.763641 
L 265.642031 206.073328 
L 266.938984 240.726717 
L 268.235938 207.510704 
L 269.532891 208.152017 
L 270.829844 233.031125 
L 272.126797 205.759856 
L 273.42375 211.861164 
L 274.720703 218.691299 
L 276.017656 205.189581 
L 277.314609 218.295197 
L 279.908516 205.708674 
L 281.205469 231.919534 
L 282.502422 208.288292 
L 283.799375 207.392046 
L 285.096328 242.973031 
L 286.393281 206.150258 
L 287.690234 210.533562 
L 288.987188 221.696711 
L 290.284141 205.246551 
L 291.581094 215.91758 
L 292.878047 213.710663 
L 294.175 205.432431 
L 295.471953 226.191953 
L 296.768906 209.254957 
L 298.065859 206.732326 
L 299.340619 289 
M 299.384991 289 
L 300.659766 206.675704 
L 301.956719 209.356643 
L 303.253672 225.750483 
L 304.550625 205.412637 
L 305.847578 213.873041 
L 307.144531 215.730862 
L 308.441484 205.25679 
L 309.738438 221.969762 
L 311.035391 210.443368 
L 312.332344 206.182628 
L 313.629297 243.889084 
L 314.92625 207.354457 
L 316.223203 208.331212 
L 317.520156 231.653226 
L 318.817109 205.700385 
L 321.411016 218.269054 
L 322.707969 205.191172 
L 324.004922 218.661473 
L 325.301875 211.897231 
L 326.598828 205.748903 
L 327.895781 232.666229 
L 329.192734 208.207861 
L 330.489688 207.454593 
L 331.786641 241.937601 
L 333.083594 206.122557 
L 334.380547 210.604075 
L 335.6775 221.542298 
L 336.974453 205.243801 
L 338.271406 215.978268 
L 339.568359 213.678622 
L 340.865313 205.435183 
L 342.162266 226.197395 
L 343.459219 209.262804 
L 344.756172 206.722881 
L 345.889591 289 
M 346.216608 289 
L 347.350078 206.693552 
L 348.647031 209.313163 
L 349.943984 225.970723 
L 351.240937 205.422918 
L 352.537891 213.756842 
L 353.834844 215.881121 
L 355.131797 205.244877 
L 356.42875 221.669429 
L 357.725703 210.555162 
L 359.022656 206.132211 
L 360.319609 242.321232 
L 361.616562 207.430939 
L 362.913516 208.218737 
L 364.210469 232.548217 
L 365.507422 205.737845 
L 366.804375 211.895746 
L 368.101328 218.656114 
L 369.398281 205.181712 
L 370.695234 218.221638 
L 373.289141 205.679495 
L 374.586094 231.39514 
L 375.883047 208.357462 
L 377.18 207.303068 
L 378.476953 244.851273 
L 379.773906 206.200083 
L 381.070859 210.327719 
L 382.367813 222.273142 
L 383.664766 205.25052 
L 384.961719 215.473985 
L 386.258672 214.077598 
L 387.555625 205.362908 
L 388.852578 225.068655 
L 390.149531 209.504052 
L 391.446484 206.552531 
L 392.743438 266.186979 
L 394.040391 206.824744 
L 395.337344 209.005916 
L 396.634297 227.287237 
L 397.93125 205.458105 
L 399.228203 213.22402 
L 400.525156 216.499977 
L 401.822109 205.182288 
L 403.119063 220.632509 
L 404.416016 210.915239 
L 405.712969 205.956762 
L 407.009922 238.388304 
L 408.306875 207.633097 
L 409.603828 207.895901 
L 410.900781 235.177614 
L 412.197734 205.814743 
L 413.494688 211.348493 
L 414.791641 219.609756 
L 416.088594 205.139707 
L 417.385547 217.238048 
L 418.6825 212.663657 
L 419.979453 205.506783 
L 421.276406 228.921977 
L 422.573359 208.667015 
L 423.870313 206.969882 
L 425.167266 253.783693 
L 426.464219 206.36087 
L 427.761172 209.777361 
L 429.058125 223.880906 
L 430.355078 205.278009 
L 431.652031 214.543825 
L 432.948984 214.910188 
L 434.245938 205.254984 
L 435.542891 223.167426 
L 436.839844 210.006368 
L 438.136797 206.288596 
L 439.43375 249.227092 
L 440.730703 207.120019 
L 442.027656 208.536058 
L 443.324609 229.977001 
L 444.621563 205.591245 
L 445.918516 212.429966 
L 447.215469 217.688393 
L 448.512422 205.165984 
L 449.809375 219.155179 
L 451.106328 211.617886 
L 452.403281 205.782155 
L 453.700234 233.788689 
L 454.997187 208.068572 
L 456.294141 207.528862 
L 457.591094 240.43839 
L 458.888047 206.06005 
L 460.185 210.706458 
L 461.481953 221.254995 
L 462.778906 205.224019 
L 464.075859 216.098392 
L 465.372813 213.5814 
L 466.669766 205.434946 
L 467.966719 226.325342 
L 469.263672 209.23671 
L 470.560625 206.722181 
L 471.684431 289 
M 472.030678 289 
L 473.154531 206.696263 
L 474.451484 209.288968 
L 475.748438 226.108779 
L 477.045391 205.430834 
L 478.342344 213.670984 
L 479.639297 216.007128 
L 480.93625 205.239754 
L 482.233203 221.417696 
L 483.530156 210.664338 
L 484.827109 206.095208 
L 486.124063 240.991348 
L 487.421016 207.516647 
L 488.717969 208.124316 
L 490.014922 233.49522 
L 491.311875 205.791934 
L 492.608828 211.698349 
L 493.905781 219.077059 
L 495.202734 205.193596 
L 496.499688 217.806774 
L 497.796641 212.40919 
L 499.093594 205.634151 
L 500.390547 230.201956 
L 501.6875 208.545021 
L 502.984453 207.176606 
L 504.281406 248.701151 
L 505.578359 206.3169 
L 506.875313 210.075915 
L 508.172266 223.128261 
L 509.469219 205.297078 
L 510.766172 214.993869 
L 512.063125 214.559235 
L 513.360078 205.330256 
L 514.657031 223.988326 
L 515.953984 209.815595 
L 517.250938 206.420925 
L 518.547891 254.152812 
L 519.844844 207.020495 
L 521.141797 208.736295 
L 522.43875 228.90185 
L 523.735703 205.554536 
L 525.032656 212.729783 
L 526.329609 217.257735 
L 527.626562 205.17894 
L 528.923516 219.655421 
L 530.220469 211.3791 
L 531.517422 205.839883 
L 532.814375 235.128422 
L 534.111328 207.92499 
L 535.408281 207.633526 
L 536.705234 238.651934 
L 538.002188 205.975 
L 539.299141 210.870871 
L 540.596094 220.762921 
L 541.893047 205.179669 
L 543.19 216.362951 
L 544.486953 213.31643 
L 545.783906 205.421326 
L 547.080859 226.865436 
L 548.377813 209.066687 
L 549.674766 206.732891 
L 550.971719 275.536134 
L 552.268672 206.576886 
L 553.565625 209.316413 
L 554.862578 225.671996 
L 556.159531 205.349799 
L 557.456484 213.723204 
L 558.753438 215.819906 
L 560.050391 205.188195 
L 561.347344 221.525867 
L 562.644297 210.55721 
L 563.94125 206.063072 
L 565.238203 241.395272 
L 566.535156 207.449005 
L 567.832109 208.105331 
L 569.129063 233.272666 
L 570.426016 205.747102 
L 571.722969 211.687511 
L 573.019922 219.005146 
L 574.316875 205.162503 
L 575.613828 217.798149 
L 576.910781 212.374938 
L 578.207734 205.610624 
L 579.504688 230.178025 
L 580.801641 208.527715 
L 582.098594 207.155273 
L 583.395547 248.845754 
L 584.6925 206.308257 
L 585.989453 210.050359 
L 587.286406 223.172646 
L 588.583359 205.292255 
L 589.880313 214.952599 
L 591.177266 214.594462 
L 592.474219 205.325449 
L 593.771172 223.895205 
L 595.068125 209.846989 
L 596.365078 206.412181 
L 597.662031 253.344697 
L 598.958984 207.048723 
L 600.255937 208.718165 
L 601.552891 229.097526 
L 602.849844 205.579074 
L 604.146797 212.692145 
L 605.44375 217.362729 
L 606.740703 205.198624 
L 608.037656 219.570748 
L 609.334609 211.456798 
L 610.631562 205.852854 
L 611.928516 234.826802 
L 613.225469 207.988676 
L 614.522422 207.636725 
L 615.819375 239.127106 
L 617.116328 206.029394 
L 618.413281 210.858539 
L 619.710234 220.932465 
L 621.007188 205.226913 
L 622.304141 216.321261 
L 623.601094 213.430451 
L 624.898047 205.462769 
L 626.195 226.739585 
L 627.491953 209.157119 
L 628.788906 206.770364 
L 630.085859 279.811986 
L 631.382812 206.654736 
L 632.679766 209.356444 
L 633.976719 225.811533 
L 635.273672 205.411516 
L 636.570625 213.762329 
L 637.867578 215.883546 
L 639.164531 205.233225 
L 640.461484 221.556069 
L 641.758438 210.596697 
L 643.055391 206.094733 
L 644.352344 241.40953 
L 645.649297 207.473264 
L 646.94625 208.123959 
L 648.243203 233.295328 
L 649.540156 205.758277 
L 650.837109 211.691093 
L 652.134063 219.014679 
L 653.431016 205.160309 
L 654.727969 217.779637 
L 656.024922 212.373233 
L 657.321875 205.593043 
L 658.618828 230.102129 
L 659.915781 208.513712 
L 661.212734 207.117915 
L 662.509688 249.142339 
L 663.806641 206.27972 
L 665.103594 209.983779 
L 666.400547 223.218886 
L 667.6975 205.24525 
L 668.994453 214.831767 
L 670.291406 214.607298 
L 671.588359 205.252715 
L 672.885313 223.611168 
L 674.182266 209.857571 
L 675.479219 206.322266 
L 676.776172 251.456258 
L 678.073125 207.044326 
L 679.370078 208.597922 
L 680.667031 229.503995 
L 681.963984 205.557288 
L 683.260938 212.518367 
L 684.557891 217.530805 
L 685.854844 205.156946 
L 687.151797 219.279821 
L 688.44875 211.548962 
L 689.745703 205.787005 
L 691.042656 234.034082 
L 692.339609 208.038713 
L 693.636562 207.538796 
L 694.933516 240.219637 
L 696.230469 206.048836 
L 697.527422 210.712345 
L 698.824375 221.236129 
L 700.121328 205.219803 
L 701.418281 216.086055 
L 702.715234 213.59156 
L 704.012188 205.429252 
L 705.309141 226.251424 
L 706.606094 209.253251 
L 707.903047 206.707525 
L 707.903047 206.707525 
" style="fill:none;stroke:#ff0000;stroke-linecap:square;stroke-width:1.5;"/>
   </g>
   <g id="line2d_32">
    <path clip-path="url(#p0d096c9f9a)" d="M 45.16 47.091817 
L 65.91125 47.091817 
" style="fill:none;stroke:#0000ff;stroke-dasharray:3.7,1.6;stroke-dashoffset:0;"/>
   </g>
   <g id="line2d_33">
    <path clip-path="url(#p0d096c9f9a)" d="M 45.16 47.26752 
L 65.91125 47.26752 
" style="fill:none;stroke:#0000ff;stroke-dasharray:3.7,1.6;stroke-dashoffset:0;"/>
   </g>
   <g id="line2d_34">
    <path clip-path="url(#p0d096c9f9a)" d="M 79.745417 205.139707 
L 709.2 205.139707 
" style="fill:none;stroke:#0000ff;stroke-dasharray:3.7,1.6;stroke-dashoffset:0;"/>
   </g>
   <g id="patch_3">
    <path d="M 45.16 260.12 
L 45.16 41.856 
" style="fill:none;stroke:#000000;stroke-linecap:square;stroke-linejoin:miter;stroke-width:0.8;"/>
   </g>
   <g id="patch_4">
    <path d="M 709.2 260.12 
L 709.2 41.856 
" style="fill:none;stroke:#000000;stroke-linecap:square;stroke-linejoin:miter;stroke-width:0.8;"/>
   </g>
   <g id="patch_5">
    <path d="M 45.16 260.12 
L 709.2 260.12 
" style="fill:none;stroke:#000000;stroke-linecap:square;stroke-linejoin:miter;stroke-width:0.8;"/>
   </g>
   <g id="patch_6">
    <path d="M 45.16 41.856 
L 709.2 41.856 
" style="fill:none;stroke:#000000;stroke-linecap:square;stroke-linejoin:miter;stroke-width:0.8;"/>
   </g>
   <g id="text_16">
    <!-- Fpdm/6 - Frequency Reponse -->
    <defs>
     <path d="M 9.8125 72.90625 
L 51.703125 72.90625 
L 51.703125 64.59375 
L 19.671875 64.59375 
L 19.671875 43.109375 
L 48.578125 43.109375 
L 48.578125 34.8125 
L 19.671875 34.8125 
L 19.671875 0 
L 9.8125 0 
z
" id="DejaVuSans-70"/>
     <path d="M 18.109375 8.203125 
L 18.109375 -20.796875 
L 9.078125 -20.796875 
L 9.078125 54.6875 
L 18.109375 54.6875 
L 18.109375 46.390625 
Q 20.953125 51.265625 25.265625 53.625 
Q 29.59375 56 35.59375 56 
Q 45.5625 56 51.78125 48.09375 
Q 58.015625 40.1875 58.015625 27.296875 
Q 58.015625 14.40625 51.78125 6.484375 
Q 45.5625 -1.421875 35.59375 -1.421875 
Q 29.59375 -1.421875 25.265625 0.953125 
Q 20.953125 3.328125 18.109375 8.203125 
z
M 48.6875 27.296875 
Q 48.6875 37.203125 44.609375 42.84375 
Q 40.53125 48.484375 33.40625 48.484375 
Q 26.265625 48.484375 22.1875 42.84375 
Q 18.109375 37.203125 18.109375 27.296875 
Q 18.109375 17.390625 22.1875 11.75 
Q 26.265625 6.109375 33.40625 6.109375 
Q 40.53125 6.109375 44.609375 11.75 
Q 48.6875 17.390625 48.6875 27.296875 
z
" id="DejaVuSans-112"/>
     <path d="M 45.40625 46.390625 
L 45.40625 75.984375 
L 54.390625 75.984375 
L 54.390625 0 
L 45.40625 0 
L 45.40625 8.203125 
Q 42.578125 3.328125 38.25 0.953125 
Q 33.9375 -1.421875 27.875 -1.421875 
Q 17.96875 -1.421875 11.734375 6.484375 
Q 5.515625 14.40625 5.515625 27.296875 
Q 5.515625 40.1875 11.734375 48.09375 
Q 17.96875 56 27.875 56 
Q 33.9375 56 38.25 53.625 
Q 42.578125 51.265625 45.40625 46.390625 
z
M 14.796875 27.296875 
Q 14.796875 17.390625 18.875 11.75 
Q 22.953125 6.109375 30.078125 6.109375 
Q 37.203125 6.109375 41.296875 11.75 
Q 45.40625 17.390625 45.40625 27.296875 
Q 45.40625 37.203125 41.296875 42.84375 
Q 37.203125 48.484375 30.078125 48.484375 
Q 22.953125 48.484375 18.875 42.84375 
Q 14.796875 37.203125 14.796875 27.296875 
z
" id="DejaVuSans-100"/>
     <path d="M 52 44.1875 
Q 55.375 50.25 60.0625 53.125 
Q 64.75 56 71.09375 56 
Q 79.640625 56 84.28125 50.015625 
Q 88.921875 44.046875 88.921875 33.015625 
L 88.921875 0 
L 79.890625 0 
L 79.890625 32.71875 
Q 79.890625 40.578125 77.09375 44.375 
Q 74.3125 48.1875 68.609375 48.1875 
Q 61.625 48.1875 57.5625 43.546875 
Q 53.515625 38.921875 53.515625 30.90625 
L 53.515625 0 
L 44.484375 0 
L 44.484375 32.71875 
Q 44.484375 40.625 41.703125 44.40625 
Q 38.921875 48.1875 33.109375 48.1875 
Q 26.21875 48.1875 22.15625 43.53125 
Q 18.109375 38.875 18.109375 30.90625 
L 18.109375 0 
L 9.078125 0 
L 9.078125 54.6875 
L 18.109375 54.6875 
L 18.109375 46.1875 
Q 21.1875 51.21875 25.484375 53.609375 
Q 29.78125 56 35.6875 56 
Q 41.65625 56 45.828125 52.96875 
Q 50 49.953125 52 44.1875 
z
" id="DejaVuSans-109"/>
     <path d="M 25.390625 72.90625 
L 33.6875 72.90625 
L 8.296875 -9.28125 
L 0 -9.28125 
z
" id="DejaVuSans-47"/>
     <path id="DejaVuSans-32"/>
     <path d="M 4.890625 31.390625 
L 31.203125 31.390625 
L 31.203125 23.390625 
L 4.890625 23.390625 
z
" id="DejaVuSans-45"/>
     <path d="M 41.109375 46.296875 
Q 39.59375 47.171875 37.8125 47.578125 
Q 36.03125 48 33.890625 48 
Q 26.265625 48 22.1875 43.046875 
Q 18.109375 38.09375 18.109375 28.8125 
L 18.109375 0 
L 9.078125 0 
L 9.078125 54.6875 
L 18.109375 54.6875 
L 18.109375 46.1875 
Q 20.953125 51.171875 25.484375 53.578125 
Q 30.03125 56 36.53125 56 
Q 37.453125 56 38.578125 55.875 
Q 39.703125 55.765625 41.0625 55.515625 
z
" id="DejaVuSans-114"/>
     <path d="M 56.203125 29.59375 
L 56.203125 25.203125 
L 14.890625 25.203125 
Q 15.484375 15.921875 20.484375 11.0625 
Q 25.484375 6.203125 34.421875 6.203125 
Q 39.59375 6.203125 44.453125 7.46875 
Q 49.3125 8.734375 54.109375 11.28125 
L 54.109375 2.78125 
Q 49.265625 0.734375 44.1875 -0.34375 
Q 39.109375 -1.421875 33.890625 -1.421875 
Q 20.796875 -1.421875 13.15625 6.1875 
Q 5.515625 13.8125 5.515625 26.8125 
Q 5.515625 40.234375 12.765625 48.109375 
Q 20.015625 56 32.328125 56 
Q 43.359375 56 49.78125 48.890625 
Q 56.203125 41.796875 56.203125 29.59375 
z
M 47.21875 32.234375 
Q 47.125 39.59375 43.09375 43.984375 
Q 39.0625 48.390625 32.421875 48.390625 
Q 24.90625 48.390625 20.390625 44.140625 
Q 15.875 39.890625 15.1875 32.171875 
z
" id="DejaVuSans-101"/>
     <path d="M 14.796875 27.296875 
Q 14.796875 17.390625 18.875 11.75 
Q 22.953125 6.109375 30.078125 6.109375 
Q 37.203125 6.109375 41.296875 11.75 
Q 45.40625 17.390625 45.40625 27.296875 
Q 45.40625 37.203125 41.296875 42.84375 
Q 37.203125 48.484375 30.078125 48.484375 
Q 22.953125 48.484375 18.875 42.84375 
Q 14.796875 37.203125 14.796875 27.296875 
z
M 45.40625 8.203125 
Q 42.578125 3.328125 38.25 0.953125 
Q 33.9375 -1.421875 27.875 -1.421875 
Q 17.96875 -1.421875 11.734375 6.484375 
Q 5.515625 14.40625 5.515625 27.296875 
Q 5.515625 40.1875 11.734375 48.09375 
Q 17.96875 56 27.875 56 
Q 33.9375 56 38.25 53.625 
Q 42.578125 51.265625 45.40625 46.390625 
L 45.40625 54.6875 
L 54.390625 54.6875 
L 54.390625 -20.796875 
L 45.40625 -20.796875 
z
" id="DejaVuSans-113"/>
     <path d="M 8.5 21.578125 
L 8.5 54.6875 
L 17.484375 54.6875 
L 17.484375 21.921875 
Q 17.484375 14.15625 20.5 10.265625 
Q 23.53125 6.390625 29.59375 6.390625 
Q 36.859375 6.390625 41.078125 11.03125 
Q 45.3125 15.671875 45.3125 23.6875 
L 45.3125 54.6875 
L 54.296875 54.6875 
L 54.296875 0 
L 45.3125 0 
L 45.3125 8.40625 
Q 42.046875 3.421875 37.71875 1 
Q 33.40625 -1.421875 27.6875 -1.421875 
Q 18.265625 -1.421875 13.375 4.4375 
Q 8.5 10.296875 8.5 21.578125 
z
M 31.109375 56 
z
" id="DejaVuSans-117"/>
     <path d="M 54.890625 33.015625 
L 54.890625 0 
L 45.90625 0 
L 45.90625 32.71875 
Q 45.90625 40.484375 42.875 44.328125 
Q 39.84375 48.1875 33.796875 48.1875 
Q 26.515625 48.1875 22.3125 43.546875 
Q 18.109375 38.921875 18.109375 30.90625 
L 18.109375 0 
L 9.078125 0 
L 9.078125 54.6875 
L 18.109375 54.6875 
L 18.109375 46.1875 
Q 21.34375 51.125 25.703125 53.5625 
Q 30.078125 56 35.796875 56 
Q 45.21875 56 50.046875 50.171875 
Q 54.890625 44.34375 54.890625 33.015625 
z
" id="DejaVuSans-110"/>
     <path d="M 48.78125 52.59375 
L 48.78125 44.1875 
Q 44.96875 46.296875 41.140625 47.34375 
Q 37.3125 48.390625 33.40625 48.390625 
Q 24.65625 48.390625 19.8125 42.84375 
Q 14.984375 37.3125 14.984375 27.296875 
Q 14.984375 17.28125 19.8125 11.734375 
Q 24.65625 6.203125 33.40625 6.203125 
Q 37.3125 6.203125 41.140625 7.25 
Q 44.96875 8.296875 48.78125 10.40625 
L 48.78125 2.09375 
Q 45.015625 0.34375 40.984375 -0.53125 
Q 36.96875 -1.421875 32.421875 -1.421875 
Q 20.0625 -1.421875 12.78125 6.34375 
Q 5.515625 14.109375 5.515625 27.296875 
Q 5.515625 40.671875 12.859375 48.328125 
Q 20.21875 56 33.015625 56 
Q 37.15625 56 41.109375 55.140625 
Q 45.0625 54.296875 48.78125 52.59375 
z
" id="DejaVuSans-99"/>
     <path d="M 32.171875 -5.078125 
Q 28.375 -14.84375 24.75 -17.8125 
Q 21.140625 -20.796875 15.09375 -20.796875 
L 7.90625 -20.796875 
L 7.90625 -13.28125 
L 13.1875 -13.28125 
Q 16.890625 -13.28125 18.9375 -11.515625 
Q 21 -9.765625 23.484375 -3.21875 
L 25.09375 0.875 
L 2.984375 54.6875 
L 12.5 54.6875 
L 29.59375 11.921875 
L 46.6875 54.6875 
L 56.203125 54.6875 
z
" id="DejaVuSans-121"/>
     <path d="M 44.390625 34.1875 
Q 47.5625 33.109375 50.5625 29.59375 
Q 53.5625 26.078125 56.59375 19.921875 
L 66.609375 0 
L 56 0 
L 46.6875 18.703125 
Q 43.0625 26.03125 39.671875 28.421875 
Q 36.28125 30.8125 30.421875 30.8125 
L 19.671875 30.8125 
L 19.671875 0 
L 9.8125 0 
L 9.8125 72.90625 
L 32.078125 72.90625 
Q 44.578125 72.90625 50.734375 67.671875 
Q 56.890625 62.453125 56.890625 51.90625 
Q 56.890625 45.015625 53.6875 40.46875 
Q 50.484375 35.9375 44.390625 34.1875 
z
M 19.671875 64.796875 
L 19.671875 38.921875 
L 32.078125 38.921875 
Q 39.203125 38.921875 42.84375 42.21875 
Q 46.484375 45.515625 46.484375 51.90625 
Q 46.484375 58.296875 42.84375 61.546875 
Q 39.203125 64.796875 32.078125 64.796875 
z
" id="DejaVuSans-82"/>
     <path d="M 30.609375 48.390625 
Q 23.390625 48.390625 19.1875 42.75 
Q 14.984375 37.109375 14.984375 27.296875 
Q 14.984375 17.484375 19.15625 11.84375 
Q 23.34375 6.203125 30.609375 6.203125 
Q 37.796875 6.203125 41.984375 11.859375 
Q 46.1875 17.53125 46.1875 27.296875 
Q 46.1875 37.015625 41.984375 42.703125 
Q 37.796875 48.390625 30.609375 48.390625 
z
M 30.609375 56 
Q 42.328125 56 49.015625 48.375 
Q 55.71875 40.765625 55.71875 27.296875 
Q 55.71875 13.875 49.015625 6.21875 
Q 42.328125 -1.421875 30.609375 -1.421875 
Q 18.84375 -1.421875 12.171875 6.21875 
Q 5.515625 13.875 5.515625 27.296875 
Q 5.515625 40.765625 12.171875 48.375 
Q 18.84375 56 30.609375 56 
z
" id="DejaVuSans-111"/>
     <path d="M 44.28125 53.078125 
L 44.28125 44.578125 
Q 40.484375 46.53125 36.375 47.5 
Q 32.28125 48.484375 27.875 48.484375 
Q 21.1875 48.484375 17.84375 46.4375 
Q 14.5 44.390625 14.5 40.28125 
Q 14.5 37.15625 16.890625 35.375 
Q 19.28125 33.59375 26.515625 31.984375 
L 29.59375 31.296875 
Q 39.15625 29.25 43.1875 25.515625 
Q 47.21875 21.78125 47.21875 15.09375 
Q 47.21875 7.46875 41.1875 3.015625 
Q 35.15625 -1.421875 24.609375 -1.421875 
Q 20.21875 -1.421875 15.453125 -0.5625 
Q 10.6875 0.296875 5.421875 2 
L 5.421875 11.28125 
Q 10.40625 8.6875 15.234375 7.390625 
Q 20.0625 6.109375 24.8125 6.109375 
Q 31.15625 6.109375 34.5625 8.28125 
Q 37.984375 10.453125 37.984375 14.40625 
Q 37.984375 18.0625 35.515625 20.015625 
Q 33.0625 21.96875 24.703125 23.78125 
L 21.578125 24.515625 
Q 13.234375 26.265625 9.515625 29.90625 
Q 5.8125 33.546875 5.8125 39.890625 
Q 5.8125 47.609375 11.28125 51.796875 
Q 16.75 56 26.8125 56 
Q 31.78125 56 36.171875 55.265625 
Q 40.578125 54.546875 44.28125 53.078125 
z
" id="DejaVuSans-115"/>
    </defs>
    <g transform="translate(289.855625 22.418625)scale(0.12 -0.12)">
     <use xlink:href="#DejaVuSans-70"/>
     <use x="57.519531" xlink:href="#DejaVuSans-112"/>
     <use x="120.996094" xlink:href="#DejaVuSans-100"/>
     <use x="184.472656" xlink:href="#DejaVuSans-109"/>
     <use x="281.884766" xlink:href="#DejaVuSans-47"/>
     <use x="315.576172" xlink:href="#DejaVuSans-54"/>
     <use x="379.199219" xlink:href="#DejaVuSans-32"/>
     <use x="410.986328" xlink:href="#DejaVuSans-45"/>
     <use x="447.070312" xlink:href="#DejaVuSans-32"/>
     <use x="478.857422" xlink:href="#DejaVuSans-70"/>
     <use x="529.126953" xlink:href="#DejaVuSans-114"/>
     <use x="567.990234" xlink:href="#DejaVuSans-101"/>
     <use x="629.513672" xlink:href="#DejaVuSans-113"/>
     <use x="692.990234" xlink:href="#DejaVuSans-117"/>
     <use x="756.369141" xlink:href="#DejaVuSans-101"/>
     <use x="817.892578" xlink:href="#DejaVuSans-110"/>
     <use x="881.271484" xlink:href="#DejaVuSans-99"/>
     <use x="936.251953" xlink:href="#DejaVuSans-121"/>
     <use x="995.431641" xlink:href="#DejaVuSans-32"/>
     <use x="1027.21875" xlink:href="#DejaVuSans-82"/>
     <use x="1092.201172" xlink:href="#DejaVuSans-101"/>
     <use x="1153.724609" xlink:href="#DejaVuSans-112"/>
     <use x="1217.201172" xlink:href="#DejaVuSans-111"/>
     <use x="1278.382812" xlink:href="#DejaVuSans-110"/>
     <use x="1341.761719" xlink:href="#DejaVuSans-115"/>
     <use x="1393.861328" xlink:href="#DejaVuSans-101"/>
    </g>
    <!-- 370 Taps -->
    <defs>
     <path d="M 40.578125 39.3125 
Q 47.65625 37.796875 51.625 33 
Q 55.609375 28.21875 55.609375 21.1875 
Q 55.609375 10.40625 48.1875 4.484375 
Q 40.765625 -1.421875 27.09375 -1.421875 
Q 22.515625 -1.421875 17.65625 -0.515625 
Q 12.796875 0.390625 7.625 2.203125 
L 7.625 11.71875 
Q 11.71875 9.328125 16.59375 8.109375 
Q 21.484375 6.890625 26.8125 6.890625 
Q 36.078125 6.890625 40.9375 10.546875 
Q 45.796875 14.203125 45.796875 21.1875 
Q 45.796875 27.640625 41.28125 31.265625 
Q 36.765625 34.90625 28.71875 34.90625 
L 20.21875 34.90625 
L 20.21875 43.015625 
L 29.109375 43.015625 
Q 36.375 43.015625 40.234375 45.921875 
Q 44.09375 48.828125 44.09375 54.296875 
Q 44.09375 59.90625 40.109375 62.90625 
Q 36.140625 65.921875 28.71875 65.921875 
Q 24.65625 65.921875 20.015625 65.03125 
Q 15.375 64.15625 9.8125 62.3125 
L 9.8125 71.09375 
Q 15.4375 72.65625 20.34375 73.4375 
Q 25.25 74.21875 29.59375 74.21875 
Q 40.828125 74.21875 47.359375 69.109375 
Q 53.90625 64.015625 53.90625 55.328125 
Q 53.90625 49.265625 50.4375 45.09375 
Q 46.96875 40.921875 40.578125 39.3125 
z
" id="DejaVuSans-51"/>
     <path d="M -0.296875 72.90625 
L 61.375 72.90625 
L 61.375 64.59375 
L 35.5 64.59375 
L 35.5 0 
L 25.59375 0 
L 25.59375 64.59375 
L -0.296875 64.59375 
z
" id="DejaVuSans-84"/>
     <path d="M 34.28125 27.484375 
Q 23.390625 27.484375 19.1875 25 
Q 14.984375 22.515625 14.984375 16.5 
Q 14.984375 11.71875 18.140625 8.90625 
Q 21.296875 6.109375 26.703125 6.109375 
Q 34.1875 6.109375 38.703125 11.40625 
Q 43.21875 16.703125 43.21875 25.484375 
L 43.21875 27.484375 
z
M 52.203125 31.203125 
L 52.203125 0 
L 43.21875 0 
L 43.21875 8.296875 
Q 40.140625 3.328125 35.546875 0.953125 
Q 30.953125 -1.421875 24.3125 -1.421875 
Q 15.921875 -1.421875 10.953125 3.296875 
Q 6 8.015625 6 15.921875 
Q 6 25.140625 12.171875 29.828125 
Q 18.359375 34.515625 30.609375 34.515625 
L 43.21875 34.515625 
L 43.21875 35.40625 
Q 43.21875 41.609375 39.140625 45 
Q 35.0625 48.390625 27.6875 48.390625 
Q 23 48.390625 18.546875 47.265625 
Q 14.109375 46.140625 10.015625 43.890625 
L 10.015625 52.203125 
Q 14.9375 54.109375 19.578125 55.046875 
Q 24.21875 56 28.609375 56 
Q 40.484375 56 46.34375 49.84375 
Q 52.203125 43.703125 52.203125 31.203125 
z
" id="DejaVuSans-97"/>
    </defs>
    <g transform="translate(350.534375 35.856)scale(0.12 -0.12)">
     <use xlink:href="#DejaVuSans-51"/>
     <use x="63.623047" xlink:href="#DejaVuSans-55"/>
     <use x="127.246094" xlink:href="#DejaVuSans-48"/>
     <use x="190.869141" xlink:href="#DejaVuSans-32"/>
     <use x="222.65625" xlink:href="#DejaVuSans-84"/>
     <use x="267.240234" xlink:href="#DejaVuSans-97"/>
     <use x="328.519531" xlink:href="#DejaVuSans-112"/>
     <use x="391.996094" xlink:href="#DejaVuSans-115"/>
    </g>
   </g>
  </g>
 </g>
 <defs>
  <clipPath id="p0d096c9f9a">
   <rect height="218.264" width="664.04" x="45.16" y="41.856"/>
  </clipPath>
 </defs>
</svg>
