<?xml version="1.0" encoding="utf-8" standalone="no"?>
<!DOCTYPE svg PUBLIC "-//W3C//DTD SVG 1.1//EN"
  "http://www.w3.org/Graphics/SVG/1.1/DTD/svg11.dtd">
<!-- Created with matplotlib (https://matplotlib.org/) -->
<svg height="288pt" version="1.1" viewBox="0 0 720 288" width="720pt" xmlns="http://www.w3.org/2000/svg" xmlns:xlink="http://www.w3.org/1999/xlink">
 <defs>
  <style type="text/css">
*{stroke-linecap:butt;stroke-linejoin:round;}
  </style>
 </defs>
 <g id="figure_1">
  <g id="patch_1">
   <path d="M 0 288 
L 720 288 
L 720 0 
L 0 0 
z
" style="fill:#ffffff;"/>
  </g>
  <g id="axes_1">
   <g id="patch_2">
    <path d="M 41.92 260.12 
L 709.2 260.12 
L 709.2 26.88 
L 41.92 26.88 
z
" style="fill:#ffffff;"/>
   </g>
   <g id="matplotlib.axis_1">
    <g id="xtick_1">
     <g id="line2d_1">
      <path clip-path="url(#pfaefa12372)" d="M 72.250909 260.12 
L 72.250909 26.88 
" style="fill:none;stroke:#b0b0b0;stroke-linecap:square;stroke-width:0.8;"/>
     </g>
     <g id="line2d_2">
      <defs>
       <path d="M 0 0 
L 0 3.5 
" id="m2534404fad" style="stroke:#000000;stroke-width:0.8;"/>
      </defs>
      <g>
       <use style="stroke:#000000;stroke-width:0.8;" x="72.250909" xlink:href="#m2534404fad" y="260.12"/>
      </g>
     </g>
     <g id="text_1">
      <!-- 0 -->
      <defs>
       <path d="M 31.78125 66.40625 
Q 24.171875 66.40625 20.328125 58.90625 
Q 16.5 51.421875 16.5 36.375 
Q 16.5 21.390625 20.328125 13.890625 
Q 24.171875 6.390625 31.78125 6.390625 
Q 39.453125 6.390625 43.28125 13.890625 
Q 47.125 21.390625 47.125 36.375 
Q 47.125 51.421875 43.28125 58.90625 
Q 39.453125 66.40625 31.78125 66.40625 
z
M 31.78125 74.21875 
Q 44.046875 74.21875 50.515625 64.515625 
Q 56.984375 54.828125 56.984375 36.375 
Q 56.984375 17.96875 50.515625 8.265625 
Q 44.046875 -1.421875 31.78125 -1.421875 
Q 19.53125 -1.421875 13.0625 8.265625 
Q 6.59375 17.96875 6.59375 36.375 
Q 6.59375 54.828125 13.0625 64.515625 
Q 19.53125 74.21875 31.78125 74.21875 
z
" id="DejaVuSans-48"/>
      </defs>
      <g transform="translate(69.069659 274.718437)scale(0.1 -0.1)">
       <use xlink:href="#DejaVuSans-48"/>
      </g>
     </g>
    </g>
    <g id="xtick_2">
     <g id="line2d_3">
      <path clip-path="url(#pfaefa12372)" d="M 194.785077 260.12 
L 194.785077 26.88 
" style="fill:none;stroke:#b0b0b0;stroke-linecap:square;stroke-width:0.8;"/>
     </g>
     <g id="line2d_4">
      <g>
       <use style="stroke:#000000;stroke-width:0.8;" x="194.785077" xlink:href="#m2534404fad" y="260.12"/>
      </g>
     </g>
     <g id="text_2">
      <!-- 20 -->
      <defs>
       <path d="M 19.1875 8.296875 
L 53.609375 8.296875 
L 53.609375 0 
L 7.328125 0 
L 7.328125 8.296875 
Q 12.9375 14.109375 22.625 23.890625 
Q 32.328125 33.6875 34.8125 36.53125 
Q 39.546875 41.84375 41.421875 45.53125 
Q 43.3125 49.21875 43.3125 52.78125 
Q 43.3125 58.59375 39.234375 62.25 
Q 35.15625 65.921875 28.609375 65.921875 
Q 23.96875 65.921875 18.8125 64.3125 
Q 13.671875 62.703125 7.8125 59.421875 
L 7.8125 69.390625 
Q 13.765625 71.78125 18.9375 73 
Q 24.125 74.21875 28.421875 74.21875 
Q 39.75 74.21875 46.484375 68.546875 
Q 53.21875 62.890625 53.21875 53.421875 
Q 53.21875 48.921875 51.53125 44.890625 
Q 49.859375 40.875 45.40625 35.40625 
Q 44.1875 33.984375 37.640625 27.21875 
Q 31.109375 20.453125 19.1875 8.296875 
z
" id="DejaVuSans-50"/>
      </defs>
      <g transform="translate(188.422577 274.718437)scale(0.1 -0.1)">
       <use xlink:href="#DejaVuSans-50"/>
       <use x="63.623047" xlink:href="#DejaVuSans-48"/>
      </g>
     </g>
    </g>
    <g id="xtick_3">
     <g id="line2d_5">
      <path clip-path="url(#pfaefa12372)" d="M 317.319245 260.12 
L 317.319245 26.88 
" style="fill:none;stroke:#b0b0b0;stroke-linecap:square;stroke-width:0.8;"/>
     </g>
     <g id="line2d_6">
      <g>
       <use style="stroke:#000000;stroke-width:0.8;" x="317.319245" xlink:href="#m2534404fad" y="260.12"/>
      </g>
     </g>
     <g id="text_3">
      <!-- 40 -->
      <defs>
       <path d="M 37.796875 64.3125 
L 12.890625 25.390625 
L 37.796875 25.390625 
z
M 35.203125 72.90625 
L 47.609375 72.90625 
L 47.609375 25.390625 
L 58.015625 25.390625 
L 58.015625 17.1875 
L 47.609375 17.1875 
L 47.609375 0 
L 37.796875 0 
L 37.796875 17.1875 
L 4.890625 17.1875 
L 4.890625 26.703125 
z
" id="DejaVuSans-52"/>
      </defs>
      <g transform="translate(310.956745 274.718437)scale(0.1 -0.1)">
       <use xlink:href="#DejaVuSans-52"/>
       <use x="63.623047" xlink:href="#DejaVuSans-48"/>
      </g>
     </g>
    </g>
    <g id="xtick_4">
     <g id="line2d_7">
      <path clip-path="url(#pfaefa12372)" d="M 439.853413 260.12 
L 439.853413 26.88 
" style="fill:none;stroke:#b0b0b0;stroke-linecap:square;stroke-width:0.8;"/>
     </g>
     <g id="line2d_8">
      <g>
       <use style="stroke:#000000;stroke-width:0.8;" x="439.853413" xlink:href="#m2534404fad" y="260.12"/>
      </g>
     </g>
     <g id="text_4">
      <!-- 60 -->
      <defs>
       <path d="M 33.015625 40.375 
Q 26.375 40.375 22.484375 35.828125 
Q 18.609375 31.296875 18.609375 23.390625 
Q 18.609375 15.53125 22.484375 10.953125 
Q 26.375 6.390625 33.015625 6.390625 
Q 39.65625 6.390625 43.53125 10.953125 
Q 47.40625 15.53125 47.40625 23.390625 
Q 47.40625 31.296875 43.53125 35.828125 
Q 39.65625 40.375 33.015625 40.375 
z
M 52.59375 71.296875 
L 52.59375 62.3125 
Q 48.875 64.0625 45.09375 64.984375 
Q 41.3125 65.921875 37.59375 65.921875 
Q 27.828125 65.921875 22.671875 59.328125 
Q 17.53125 52.734375 16.796875 39.40625 
Q 19.671875 43.65625 24.015625 45.921875 
Q 28.375 48.1875 33.59375 48.1875 
Q 44.578125 48.1875 50.953125 41.515625 
Q 57.328125 34.859375 57.328125 23.390625 
Q 57.328125 12.15625 50.6875 5.359375 
Q 44.046875 -1.421875 33.015625 -1.421875 
Q 20.359375 -1.421875 13.671875 8.265625 
Q 6.984375 17.96875 6.984375 36.375 
Q 6.984375 53.65625 15.1875 63.9375 
Q 23.390625 74.21875 37.203125 74.21875 
Q 40.921875 74.21875 44.703125 73.484375 
Q 48.484375 72.75 52.59375 71.296875 
z
" id="DejaVuSans-54"/>
      </defs>
      <g transform="translate(433.490913 274.718437)scale(0.1 -0.1)">
       <use xlink:href="#DejaVuSans-54"/>
       <use x="63.623047" xlink:href="#DejaVuSans-48"/>
      </g>
     </g>
    </g>
    <g id="xtick_5">
     <g id="line2d_9">
      <path clip-path="url(#pfaefa12372)" d="M 562.387581 260.12 
L 562.387581 26.88 
" style="fill:none;stroke:#b0b0b0;stroke-linecap:square;stroke-width:0.8;"/>
     </g>
     <g id="line2d_10">
      <g>
       <use style="stroke:#000000;stroke-width:0.8;" x="562.387581" xlink:href="#m2534404fad" y="260.12"/>
      </g>
     </g>
     <g id="text_5">
      <!-- 80 -->
      <defs>
       <path d="M 31.78125 34.625 
Q 24.75 34.625 20.71875 30.859375 
Q 16.703125 27.09375 16.703125 20.515625 
Q 16.703125 13.921875 20.71875 10.15625 
Q 24.75 6.390625 31.78125 6.390625 
Q 38.8125 6.390625 42.859375 10.171875 
Q 46.921875 13.96875 46.921875 20.515625 
Q 46.921875 27.09375 42.890625 30.859375 
Q 38.875 34.625 31.78125 34.625 
z
M 21.921875 38.8125 
Q 15.578125 40.375 12.03125 44.71875 
Q 8.5 49.078125 8.5 55.328125 
Q 8.5 64.0625 14.71875 69.140625 
Q 20.953125 74.21875 31.78125 74.21875 
Q 42.671875 74.21875 48.875 69.140625 
Q 55.078125 64.0625 55.078125 55.328125 
Q 55.078125 49.078125 51.53125 44.71875 
Q 48 40.375 41.703125 38.8125 
Q 48.828125 37.15625 52.796875 32.3125 
Q 56.78125 27.484375 56.78125 20.515625 
Q 56.78125 9.90625 50.3125 4.234375 
Q 43.84375 -1.421875 31.78125 -1.421875 
Q 19.734375 -1.421875 13.25 4.234375 
Q 6.78125 9.90625 6.78125 20.515625 
Q 6.78125 27.484375 10.78125 32.3125 
Q 14.796875 37.15625 21.921875 38.8125 
z
M 18.3125 54.390625 
Q 18.3125 48.734375 21.84375 45.5625 
Q 25.390625 42.390625 31.78125 42.390625 
Q 38.140625 42.390625 41.71875 45.5625 
Q 45.3125 48.734375 45.3125 54.390625 
Q 45.3125 60.0625 41.71875 63.234375 
Q 38.140625 66.40625 31.78125 66.40625 
Q 25.390625 66.40625 21.84375 63.234375 
Q 18.3125 60.0625 18.3125 54.390625 
z
" id="DejaVuSans-56"/>
      </defs>
      <g transform="translate(556.025081 274.718437)scale(0.1 -0.1)">
       <use xlink:href="#DejaVuSans-56"/>
       <use x="63.623047" xlink:href="#DejaVuSans-48"/>
      </g>
     </g>
    </g>
    <g id="xtick_6">
     <g id="line2d_11">
      <path clip-path="url(#pfaefa12372)" d="M 684.921749 260.12 
L 684.921749 26.88 
" style="fill:none;stroke:#b0b0b0;stroke-linecap:square;stroke-width:0.8;"/>
     </g>
     <g id="line2d_12">
      <g>
       <use style="stroke:#000000;stroke-width:0.8;" x="684.921749" xlink:href="#m2534404fad" y="260.12"/>
      </g>
     </g>
     <g id="text_6">
      <!-- 100 -->
      <defs>
       <path d="M 12.40625 8.296875 
L 28.515625 8.296875 
L 28.515625 63.921875 
L 10.984375 60.40625 
L 10.984375 69.390625 
L 28.421875 72.90625 
L 38.28125 72.90625 
L 38.28125 8.296875 
L 54.390625 8.296875 
L 54.390625 0 
L 12.40625 0 
z
" id="DejaVuSans-49"/>
      </defs>
      <g transform="translate(675.377999 274.718437)scale(0.1 -0.1)">
       <use xlink:href="#DejaVuSans-49"/>
       <use x="63.623047" xlink:href="#DejaVuSans-48"/>
       <use x="127.246094" xlink:href="#DejaVuSans-48"/>
      </g>
     </g>
    </g>
   </g>
   <g id="matplotlib.axis_2">
    <g id="ytick_1">
     <g id="line2d_13">
      <path clip-path="url(#pfaefa12372)" d="M 41.92 228.314545 
L 709.2 228.314545 
" style="fill:none;stroke:#b0b0b0;stroke-linecap:square;stroke-width:0.8;"/>
     </g>
     <g id="line2d_14">
      <defs>
       <path d="M 0 0 
L -3.5 0 
" id="m398df55d9c" style="stroke:#000000;stroke-width:0.8;"/>
      </defs>
      <g>
       <use style="stroke:#000000;stroke-width:0.8;" x="41.92" xlink:href="#m398df55d9c" y="228.314545"/>
      </g>
     </g>
     <g id="text_7">
      <!-- −0.4 -->
      <defs>
       <path d="M 10.59375 35.5 
L 73.1875 35.5 
L 73.1875 27.203125 
L 10.59375 27.203125 
z
" id="DejaVuSans-8722"/>
       <path d="M 10.6875 12.40625 
L 21 12.40625 
L 21 0 
L 10.6875 0 
z
" id="DejaVuSans-46"/>
      </defs>
      <g transform="translate(10.637188 232.113764)scale(0.1 -0.1)">
       <use xlink:href="#DejaVuSans-8722"/>
       <use x="83.789062" xlink:href="#DejaVuSans-48"/>
       <use x="147.412109" xlink:href="#DejaVuSans-46"/>
       <use x="179.199219" xlink:href="#DejaVuSans-52"/>
      </g>
     </g>
    </g>
    <g id="ytick_2">
     <g id="line2d_15">
      <path clip-path="url(#pfaefa12372)" d="M 41.92 185.907272 
L 709.2 185.907272 
" style="fill:none;stroke:#b0b0b0;stroke-linecap:square;stroke-width:0.8;"/>
     </g>
     <g id="line2d_16">
      <g>
       <use style="stroke:#000000;stroke-width:0.8;" x="41.92" xlink:href="#m398df55d9c" y="185.907272"/>
      </g>
     </g>
     <g id="text_8">
      <!-- −0.2 -->
      <g transform="translate(10.637188 189.706491)scale(0.1 -0.1)">
       <use xlink:href="#DejaVuSans-8722"/>
       <use x="83.789062" xlink:href="#DejaVuSans-48"/>
       <use x="147.412109" xlink:href="#DejaVuSans-46"/>
       <use x="179.199219" xlink:href="#DejaVuSans-50"/>
      </g>
     </g>
    </g>
    <g id="ytick_3">
     <g id="line2d_17">
      <path clip-path="url(#pfaefa12372)" d="M 41.92 143.499999 
L 709.2 143.499999 
" style="fill:none;stroke:#b0b0b0;stroke-linecap:square;stroke-width:0.8;"/>
     </g>
     <g id="line2d_18">
      <g>
       <use style="stroke:#000000;stroke-width:0.8;" x="41.92" xlink:href="#m398df55d9c" y="143.499999"/>
      </g>
     </g>
     <g id="text_9">
      <!-- 0.0 -->
      <g transform="translate(19.016875 147.299218)scale(0.1 -0.1)">
       <use xlink:href="#DejaVuSans-48"/>
       <use x="63.623047" xlink:href="#DejaVuSans-46"/>
       <use x="95.410156" xlink:href="#DejaVuSans-48"/>
      </g>
     </g>
    </g>
    <g id="ytick_4">
     <g id="line2d_19">
      <path clip-path="url(#pfaefa12372)" d="M 41.92 101.092726 
L 709.2 101.092726 
" style="fill:none;stroke:#b0b0b0;stroke-linecap:square;stroke-width:0.8;"/>
     </g>
     <g id="line2d_20">
      <g>
       <use style="stroke:#000000;stroke-width:0.8;" x="41.92" xlink:href="#m398df55d9c" y="101.092726"/>
      </g>
     </g>
     <g id="text_10">
      <!-- 0.2 -->
      <g transform="translate(19.016875 104.891945)scale(0.1 -0.1)">
       <use xlink:href="#DejaVuSans-48"/>
       <use x="63.623047" xlink:href="#DejaVuSans-46"/>
       <use x="95.410156" xlink:href="#DejaVuSans-50"/>
      </g>
     </g>
    </g>
    <g id="ytick_5">
     <g id="line2d_21">
      <path clip-path="url(#pfaefa12372)" d="M 41.92 58.685453 
L 709.2 58.685453 
" style="fill:none;stroke:#b0b0b0;stroke-linecap:square;stroke-width:0.8;"/>
     </g>
     <g id="line2d_22">
      <g>
       <use style="stroke:#000000;stroke-width:0.8;" x="41.92" xlink:href="#m398df55d9c" y="58.685453"/>
      </g>
     </g>
     <g id="text_11">
      <!-- 0.4 -->
      <g transform="translate(19.016875 62.484672)scale(0.1 -0.1)">
       <use xlink:href="#DejaVuSans-48"/>
       <use x="63.623047" xlink:href="#DejaVuSans-46"/>
       <use x="95.410156" xlink:href="#DejaVuSans-52"/>
      </g>
     </g>
    </g>
   </g>
   <g id="line2d_23">
    <path clip-path="url(#pfaefa12372)" d="M 72.250909 143.499999 
L 78.378365 133.107135 
L 84.505822 122.814385 
L 90.633278 112.720897 
L 96.760735 102.923901 
L 102.888191 93.51777 
L 109.015647 84.593113 
L 115.143104 76.2359 
L 121.27056 68.526635 
L 127.398017 61.539581 
L 133.525473 55.342043 
L 139.652929 49.993721 
L 145.780386 45.546136 
L 151.907842 42.04213 
L 158.035298 39.515457 
L 164.162755 37.990456 
L 170.290211 37.481818 
L 176.417668 37.994442 
L 182.545124 39.523391 
L 188.67258 42.053935 
L 194.800037 45.561698 
L 200.927493 50.012891 
L 207.054949 55.364636 
L 213.182406 61.565379 
L 219.309862 68.555391 
L 225.437319 76.267336 
L 231.564775 84.626926 
L 237.692231 93.553634 
L 243.819688 102.961471 
L 249.947144 112.75981 
L 256.074601 122.854267 
L 262.202057 133.147603 
L 268.329513 143.540661 
L 274.45697 153.933329 
L 280.584426 164.225492 
L 286.711882 174.31801 
L 292.839339 184.11366 
L 298.966795 193.518084 
L 305.094252 202.440688 
L 311.221708 210.795523 
L 317.349164 218.502107 
L 323.476621 225.486204 
L 329.604077 231.680536 
L 335.731534 237.025434 
L 341.85899 241.469411 
L 347.986446 244.969659 
L 354.113903 247.49246 
L 360.241359 249.013512 
L 366.368815 249.518164 
L 372.496272 249.001554 
L 378.623728 247.468658 
L 384.751185 244.934243 
L 390.878641 241.422723 
L 397.006097 236.967923 
L 403.133554 231.612756 
L 409.26101 225.408808 
L 415.388466 218.415841 
L 421.515923 210.701217 
L 427.643379 202.339251 
L 433.770836 193.410493 
L 439.898292 184.000952 
L 446.025748 174.20127 
L 452.153205 164.105845 
L 458.280661 153.811926 
L 464.408118 143.418674 
L 470.535574 133.026205 
L 476.66303 122.734629 
L 482.790487 112.643084 
L 488.917943 102.84878 
L 495.045399 93.446065 
L 501.172856 84.525515 
L 507.300312 76.173059 
L 513.427769 68.469157 
L 519.555225 61.48802 
L 525.682681 55.296895 
L 531.810138 49.955422 
L 537.937594 45.515054 
L 544.065051 42.018564 
L 550.192507 39.499635 
L 556.319963 37.982531 
L 562.44742 37.481865 
L 568.574876 38.002461 
L 574.702332 39.539304 
L 580.829789 42.07759 
L 586.957245 45.592867 
L 593.084702 50.051273 
L 599.212158 55.409861 
L 605.339614 61.617013 
L 611.467071 68.612935 
L 617.594527 76.330236 
L 623.721983 84.694576 
L 629.84944 93.625383 
L 635.976896 103.036627 
L 642.104353 112.837651 
L 648.231809 122.934041 
L 654.359265 133.228542 
L 660.486722 143.621986 
L 666.614178 154.014256 
L 672.741635 164.305242 
L 678.869091 174.395814 
" style="fill:none;stroke:#1f77b4;stroke-linecap:square;stroke-width:1.5;"/>
   </g>
   <g id="line2d_24">
    <defs>
     <path d="M 0 1.5 
C 0.397805 1.5 0.77937 1.341951 1.06066 1.06066 
C 1.341951 0.77937 1.5 0.397805 1.5 0 
C 1.5 -0.397805 1.341951 -0.77937 1.06066 -1.06066 
C 0.77937 -1.341951 0.397805 -1.5 0 -1.5 
C -0.397805 -1.5 -0.77937 -1.341951 -1.06066 -1.06066 
C -1.341951 -0.77937 -1.5 -0.397805 -1.5 0 
C -1.5 0.397805 -1.341951 0.77937 -1.06066 1.06066 
C -0.77937 1.341951 -0.397805 1.5 0 1.5 
z
" id="m5f2e0bfd8c" style="stroke:#ff7f0e;"/>
    </defs>
    <g clip-path="url(#pfaefa12372)">
     <use style="fill:#ff7f0e;stroke:#ff7f0e;" x="72.250909" xlink:href="#m5f2e0bfd8c" y="143.499999"/>
     <use style="fill:#ff7f0e;stroke:#ff7f0e;" x="78.378365" xlink:href="#m5f2e0bfd8c" y="133.560794"/>
     <use style="fill:#ff7f0e;stroke:#ff7f0e;" x="84.505822" xlink:href="#m5f2e0bfd8c" y="123.62159"/>
     <use style="fill:#ff7f0e;stroke:#ff7f0e;" x="90.633278" xlink:href="#m5f2e0bfd8c" y="112.854118"/>
     <use style="fill:#ff7f0e;stroke:#ff7f0e;" x="96.760735" xlink:href="#m5f2e0bfd8c" y="103.74318"/>
     <use style="fill:#ff7f0e;stroke:#ff7f0e;" x="102.888191" xlink:href="#m5f2e0bfd8c" y="93.803976"/>
     <use style="fill:#ff7f0e;stroke:#ff7f0e;" x="109.015647" xlink:href="#m5f2e0bfd8c" y="84.693038"/>
     <use style="fill:#ff7f0e;stroke:#ff7f0e;" x="115.143104" xlink:href="#m5f2e0bfd8c" y="76.410368"/>
     <use style="fill:#ff7f0e;stroke:#ff7f0e;" x="121.27056" xlink:href="#m5f2e0bfd8c" y="68.955964"/>
     <use style="fill:#ff7f0e;stroke:#ff7f0e;" x="127.398017" xlink:href="#m5f2e0bfd8c" y="62.329828"/>
     <use style="fill:#ff7f0e;stroke:#ff7f0e;" x="133.525473" xlink:href="#m5f2e0bfd8c" y="55.703691"/>
     <use style="fill:#ff7f0e;stroke:#ff7f0e;" x="139.652929" xlink:href="#m5f2e0bfd8c" y="50.734089"/>
     <use style="fill:#ff7f0e;stroke:#ff7f0e;" x="145.780386" xlink:href="#m5f2e0bfd8c" y="45.764487"/>
     <use style="fill:#ff7f0e;stroke:#ff7f0e;" x="151.907842" xlink:href="#m5f2e0bfd8c" y="42.451419"/>
     <use style="fill:#ff7f0e;stroke:#ff7f0e;" x="158.035298" xlink:href="#m5f2e0bfd8c" y="39.966617"/>
     <use style="fill:#ff7f0e;stroke:#ff7f0e;" x="164.162755" xlink:href="#m5f2e0bfd8c" y="38.310083"/>
     <use style="fill:#ff7f0e;stroke:#ff7f0e;" x="170.290211" xlink:href="#m5f2e0bfd8c" y="38.310083"/>
     <use style="fill:#ff7f0e;stroke:#ff7f0e;" x="176.417668" xlink:href="#m5f2e0bfd8c" y="38.310083"/>
     <use style="fill:#ff7f0e;stroke:#ff7f0e;" x="182.545124" xlink:href="#m5f2e0bfd8c" y="39.966617"/>
     <use style="fill:#ff7f0e;stroke:#ff7f0e;" x="188.67258" xlink:href="#m5f2e0bfd8c" y="42.451419"/>
     <use style="fill:#ff7f0e;stroke:#ff7f0e;" x="194.800037" xlink:href="#m5f2e0bfd8c" y="45.764487"/>
     <use style="fill:#ff7f0e;stroke:#ff7f0e;" x="200.927493" xlink:href="#m5f2e0bfd8c" y="50.734089"/>
     <use style="fill:#ff7f0e;stroke:#ff7f0e;" x="207.054949" xlink:href="#m5f2e0bfd8c" y="55.703691"/>
     <use style="fill:#ff7f0e;stroke:#ff7f0e;" x="213.182406" xlink:href="#m5f2e0bfd8c" y="62.329828"/>
     <use style="fill:#ff7f0e;stroke:#ff7f0e;" x="219.309862" xlink:href="#m5f2e0bfd8c" y="68.955964"/>
     <use style="fill:#ff7f0e;stroke:#ff7f0e;" x="225.437319" xlink:href="#m5f2e0bfd8c" y="76.410368"/>
     <use style="fill:#ff7f0e;stroke:#ff7f0e;" x="231.564775" xlink:href="#m5f2e0bfd8c" y="84.693038"/>
     <use style="fill:#ff7f0e;stroke:#ff7f0e;" x="237.692231" xlink:href="#m5f2e0bfd8c" y="93.803976"/>
     <use style="fill:#ff7f0e;stroke:#ff7f0e;" x="243.819688" xlink:href="#m5f2e0bfd8c" y="103.74318"/>
     <use style="fill:#ff7f0e;stroke:#ff7f0e;" x="249.947144" xlink:href="#m5f2e0bfd8c" y="112.854118"/>
     <use style="fill:#ff7f0e;stroke:#ff7f0e;" x="256.074601" xlink:href="#m5f2e0bfd8c" y="123.62159"/>
     <use style="fill:#ff7f0e;stroke:#ff7f0e;" x="262.202057" xlink:href="#m5f2e0bfd8c" y="133.560794"/>
     <use style="fill:#ff7f0e;stroke:#ff7f0e;" x="268.329513" xlink:href="#m5f2e0bfd8c" y="144.328266"/>
     <use style="fill:#ff7f0e;stroke:#ff7f0e;" x="274.45697" xlink:href="#m5f2e0bfd8c" y="154.267471"/>
     <use style="fill:#ff7f0e;stroke:#ff7f0e;" x="280.584426" xlink:href="#m5f2e0bfd8c" y="165.034942"/>
     <use style="fill:#ff7f0e;stroke:#ff7f0e;" x="286.711882" xlink:href="#m5f2e0bfd8c" y="174.974147"/>
     <use style="fill:#ff7f0e;stroke:#ff7f0e;" x="292.839339" xlink:href="#m5f2e0bfd8c" y="184.913352"/>
     <use style="fill:#ff7f0e;stroke:#ff7f0e;" x="298.966795" xlink:href="#m5f2e0bfd8c" y="194.024289"/>
     <use style="fill:#ff7f0e;stroke:#ff7f0e;" x="305.094252" xlink:href="#m5f2e0bfd8c" y="203.135227"/>
     <use style="fill:#ff7f0e;stroke:#ff7f0e;" x="311.221708" xlink:href="#m5f2e0bfd8c" y="211.417897"/>
     <use style="fill:#ff7f0e;stroke:#ff7f0e;" x="317.349164" xlink:href="#m5f2e0bfd8c" y="218.872301"/>
     <use style="fill:#ff7f0e;stroke:#ff7f0e;" x="323.476621" xlink:href="#m5f2e0bfd8c" y="225.498437"/>
     <use style="fill:#ff7f0e;stroke:#ff7f0e;" x="329.604077" xlink:href="#m5f2e0bfd8c" y="232.124574"/>
     <use style="fill:#ff7f0e;stroke:#ff7f0e;" x="335.731534" xlink:href="#m5f2e0bfd8c" y="237.094176"/>
     <use style="fill:#ff7f0e;stroke:#ff7f0e;" x="341.85899" xlink:href="#m5f2e0bfd8c" y="242.063778"/>
     <use style="fill:#ff7f0e;stroke:#ff7f0e;" x="347.986446" xlink:href="#m5f2e0bfd8c" y="245.376847"/>
     <use style="fill:#ff7f0e;stroke:#ff7f0e;" x="354.113903" xlink:href="#m5f2e0bfd8c" y="247.861648"/>
     <use style="fill:#ff7f0e;stroke:#ff7f0e;" x="360.241359" xlink:href="#m5f2e0bfd8c" y="249.518182"/>
     <use style="fill:#ff7f0e;stroke:#ff7f0e;" x="366.368815" xlink:href="#m5f2e0bfd8c" y="249.518182"/>
     <use style="fill:#ff7f0e;stroke:#ff7f0e;" x="372.496272" xlink:href="#m5f2e0bfd8c" y="249.518182"/>
     <use style="fill:#ff7f0e;stroke:#ff7f0e;" x="378.623728" xlink:href="#m5f2e0bfd8c" y="247.861648"/>
     <use style="fill:#ff7f0e;stroke:#ff7f0e;" x="384.751185" xlink:href="#m5f2e0bfd8c" y="245.376847"/>
     <use style="fill:#ff7f0e;stroke:#ff7f0e;" x="390.878641" xlink:href="#m5f2e0bfd8c" y="242.063778"/>
     <use style="fill:#ff7f0e;stroke:#ff7f0e;" x="397.006097" xlink:href="#m5f2e0bfd8c" y="237.094176"/>
     <use style="fill:#ff7f0e;stroke:#ff7f0e;" x="403.133554" xlink:href="#m5f2e0bfd8c" y="232.124574"/>
     <use style="fill:#ff7f0e;stroke:#ff7f0e;" x="409.26101" xlink:href="#m5f2e0bfd8c" y="225.498437"/>
     <use style="fill:#ff7f0e;stroke:#ff7f0e;" x="415.388466" xlink:href="#m5f2e0bfd8c" y="218.872301"/>
     <use style="fill:#ff7f0e;stroke:#ff7f0e;" x="421.515923" xlink:href="#m5f2e0bfd8c" y="211.417897"/>
     <use style="fill:#ff7f0e;stroke:#ff7f0e;" x="427.643379" xlink:href="#m5f2e0bfd8c" y="203.135227"/>
     <use style="fill:#ff7f0e;stroke:#ff7f0e;" x="433.770836" xlink:href="#m5f2e0bfd8c" y="194.024289"/>
     <use style="fill:#ff7f0e;stroke:#ff7f0e;" x="439.898292" xlink:href="#m5f2e0bfd8c" y="184.085085"/>
     <use style="fill:#ff7f0e;stroke:#ff7f0e;" x="446.025748" xlink:href="#m5f2e0bfd8c" y="174.974147"/>
     <use style="fill:#ff7f0e;stroke:#ff7f0e;" x="452.153205" xlink:href="#m5f2e0bfd8c" y="164.206675"/>
     <use style="fill:#ff7f0e;stroke:#ff7f0e;" x="458.280661" xlink:href="#m5f2e0bfd8c" y="154.267471"/>
     <use style="fill:#ff7f0e;stroke:#ff7f0e;" x="464.408118" xlink:href="#m5f2e0bfd8c" y="143.499999"/>
     <use style="fill:#ff7f0e;stroke:#ff7f0e;" x="470.535574" xlink:href="#m5f2e0bfd8c" y="133.560794"/>
     <use style="fill:#ff7f0e;stroke:#ff7f0e;" x="476.66303" xlink:href="#m5f2e0bfd8c" y="122.793323"/>
     <use style="fill:#ff7f0e;stroke:#ff7f0e;" x="482.790487" xlink:href="#m5f2e0bfd8c" y="112.854118"/>
     <use style="fill:#ff7f0e;stroke:#ff7f0e;" x="488.917943" xlink:href="#m5f2e0bfd8c" y="102.914913"/>
     <use style="fill:#ff7f0e;stroke:#ff7f0e;" x="495.045399" xlink:href="#m5f2e0bfd8c" y="93.803976"/>
     <use style="fill:#ff7f0e;stroke:#ff7f0e;" x="501.172856" xlink:href="#m5f2e0bfd8c" y="84.693038"/>
     <use style="fill:#ff7f0e;stroke:#ff7f0e;" x="507.300312" xlink:href="#m5f2e0bfd8c" y="76.410368"/>
     <use style="fill:#ff7f0e;stroke:#ff7f0e;" x="513.427769" xlink:href="#m5f2e0bfd8c" y="68.955964"/>
     <use style="fill:#ff7f0e;stroke:#ff7f0e;" x="519.555225" xlink:href="#m5f2e0bfd8c" y="61.501561"/>
     <use style="fill:#ff7f0e;stroke:#ff7f0e;" x="525.682681" xlink:href="#m5f2e0bfd8c" y="55.703691"/>
     <use style="fill:#ff7f0e;stroke:#ff7f0e;" x="531.810138" xlink:href="#m5f2e0bfd8c" y="50.734089"/>
     <use style="fill:#ff7f0e;stroke:#ff7f0e;" x="537.937594" xlink:href="#m5f2e0bfd8c" y="45.764487"/>
     <use style="fill:#ff7f0e;stroke:#ff7f0e;" x="544.065051" xlink:href="#m5f2e0bfd8c" y="42.451419"/>
     <use style="fill:#ff7f0e;stroke:#ff7f0e;" x="550.192507" xlink:href="#m5f2e0bfd8c" y="39.966617"/>
     <use style="fill:#ff7f0e;stroke:#ff7f0e;" x="556.319963" xlink:href="#m5f2e0bfd8c" y="38.310083"/>
     <use style="fill:#ff7f0e;stroke:#ff7f0e;" x="562.44742" xlink:href="#m5f2e0bfd8c" y="38.310083"/>
     <use style="fill:#ff7f0e;stroke:#ff7f0e;" x="568.574876" xlink:href="#m5f2e0bfd8c" y="38.310083"/>
     <use style="fill:#ff7f0e;stroke:#ff7f0e;" x="574.702332" xlink:href="#m5f2e0bfd8c" y="39.966617"/>
     <use style="fill:#ff7f0e;stroke:#ff7f0e;" x="580.829789" xlink:href="#m5f2e0bfd8c" y="42.451419"/>
     <use style="fill:#ff7f0e;stroke:#ff7f0e;" x="586.957245" xlink:href="#m5f2e0bfd8c" y="45.764487"/>
     <use style="fill:#ff7f0e;stroke:#ff7f0e;" x="593.084702" xlink:href="#m5f2e0bfd8c" y="50.734089"/>
     <use style="fill:#ff7f0e;stroke:#ff7f0e;" x="599.212158" xlink:href="#m5f2e0bfd8c" y="55.703691"/>
     <use style="fill:#ff7f0e;stroke:#ff7f0e;" x="605.339614" xlink:href="#m5f2e0bfd8c" y="62.329828"/>
     <use style="fill:#ff7f0e;stroke:#ff7f0e;" x="611.467071" xlink:href="#m5f2e0bfd8c" y="68.955964"/>
     <use style="fill:#ff7f0e;stroke:#ff7f0e;" x="617.594527" xlink:href="#m5f2e0bfd8c" y="76.410368"/>
     <use style="fill:#ff7f0e;stroke:#ff7f0e;" x="623.721983" xlink:href="#m5f2e0bfd8c" y="85.521305"/>
     <use style="fill:#ff7f0e;stroke:#ff7f0e;" x="629.84944" xlink:href="#m5f2e0bfd8c" y="93.803976"/>
     <use style="fill:#ff7f0e;stroke:#ff7f0e;" x="635.976896" xlink:href="#m5f2e0bfd8c" y="103.74318"/>
     <use style="fill:#ff7f0e;stroke:#ff7f0e;" x="642.104353" xlink:href="#m5f2e0bfd8c" y="112.854118"/>
     <use style="fill:#ff7f0e;stroke:#ff7f0e;" x="648.231809" xlink:href="#m5f2e0bfd8c" y="123.62159"/>
     <use style="fill:#ff7f0e;stroke:#ff7f0e;" x="654.359265" xlink:href="#m5f2e0bfd8c" y="133.560794"/>
     <use style="fill:#ff7f0e;stroke:#ff7f0e;" x="660.486722" xlink:href="#m5f2e0bfd8c" y="144.328266"/>
     <use style="fill:#ff7f0e;stroke:#ff7f0e;" x="666.614178" xlink:href="#m5f2e0bfd8c" y="154.267471"/>
     <use style="fill:#ff7f0e;stroke:#ff7f0e;" x="672.741635" xlink:href="#m5f2e0bfd8c" y="165.034942"/>
     <use style="fill:#ff7f0e;stroke:#ff7f0e;" x="678.869091" xlink:href="#m5f2e0bfd8c" y="174.974147"/>
    </g>
   </g>
   <g id="line2d_25">
    <path clip-path="url(#pfaefa12372)" d="M 72.250909 143.499999 
L 78.378365 143.04634 
L 84.505822 142.692794 
L 90.633278 143.366778 
L 96.760735 142.68072 
L 102.888191 143.213794 
L 109.015647 143.400074 
L 115.143104 143.325532 
L 121.27056 143.07067 
L 127.398017 142.709752 
L 133.525473 143.13835 
L 139.652929 142.759631 
L 145.780386 143.281648 
L 151.907842 143.09071 
L 158.035298 143.048838 
L 164.162755 143.180372 
L 170.290211 142.671734 
L 176.417668 143.184358 
L 182.545124 143.056772 
L 188.67258 143.102515 
L 194.800037 143.29721 
L 200.927493 142.778801 
L 207.054949 143.160944 
L 213.182406 142.735551 
L 219.309862 143.099425 
L 225.437319 143.356967 
L 231.564775 143.433886 
L 237.692231 143.249657 
L 243.819688 142.718289 
L 249.947144 143.405691 
L 256.074601 142.732677 
L 262.202057 143.086807 
L 268.329513 142.712394 
L 274.45697 143.165857 
L 280.584426 142.690549 
L 286.711882 142.843862 
L 292.839339 142.700308 
L 298.966795 142.993794 
L 305.094252 142.80546 
L 311.221708 142.877625 
L 317.349164 143.129805 
L 323.476621 143.487766 
L 329.604077 143.055961 
L 335.731534 143.431257 
L 341.85899 142.905631 
L 347.986446 143.092811 
L 354.113903 143.130811 
L 360.241359 142.99533 
L 366.368815 143.499981 
L 372.496272 142.983371 
L 378.623728 143.10701 
L 384.751185 143.057396 
L 390.878641 142.858943 
L 397.006097 143.373746 
L 403.133554 142.988181 
L 409.26101 143.41037 
L 415.388466 143.043539 
L 421.515923 142.783319 
L 427.643379 142.704024 
L 433.770836 142.886203 
L 439.898292 143.415867 
L 446.025748 142.727122 
L 452.153205 143.399169 
L 458.280661 143.044455 
L 464.408118 143.418674 
L 470.535574 142.96541 
L 476.66303 143.441306 
L 482.790487 143.288965 
L 488.917943 143.433866 
L 495.045399 143.142088 
L 501.172856 143.332476 
L 507.300312 143.262691 
L 513.427769 143.013192 
L 519.555225 143.486458 
L 525.682681 143.093203 
L 531.810138 142.721332 
L 537.937594 143.250566 
L 544.065051 143.067145 
L 550.192507 143.033017 
L 556.319963 143.172446 
L 562.44742 142.671781 
L 568.574876 143.192377 
L 574.702332 143.072686 
L 580.829789 143.12617 
L 586.957245 143.328379 
L 593.084702 142.817183 
L 599.212158 143.206169 
L 605.339614 142.787184 
L 611.467071 143.156969 
L 617.594527 143.419867 
L 623.721983 142.67327 
L 629.84944 143.321406 
L 635.976896 142.793446 
L 642.104353 143.483532 
L 648.231809 142.812451 
L 654.359265 143.167747 
L 660.486722 142.793719 
L 666.614178 143.246784 
L 672.741635 142.770299 
L 678.869091 142.921666 
" style="fill:none;stroke:#2ca02c;stroke-linecap:square;stroke-width:1.5;"/>
   </g>
   <g id="patch_3">
    <path d="M 41.92 260.12 
L 41.92 26.88 
" style="fill:none;stroke:#000000;stroke-linecap:square;stroke-linejoin:miter;stroke-width:0.8;"/>
   </g>
   <g id="patch_4">
    <path d="M 709.2 260.12 
L 709.2 26.88 
" style="fill:none;stroke:#000000;stroke-linecap:square;stroke-linejoin:miter;stroke-width:0.8;"/>
   </g>
   <g id="patch_5">
    <path d="M 41.92 260.12 
L 709.2 260.12 
" style="fill:none;stroke:#000000;stroke-linecap:square;stroke-linejoin:miter;stroke-width:0.8;"/>
   </g>
   <g id="patch_6">
    <path d="M 41.92 26.88 
L 709.2 26.88 
" style="fill:none;stroke:#000000;stroke-linecap:square;stroke-linejoin:miter;stroke-width:0.8;"/>
   </g>
   <g id="text_12">
    <!-- Sine wave with 256 quantization levels -->
    <defs>
     <path d="M 53.515625 70.515625 
L 53.515625 60.890625 
Q 47.90625 63.578125 42.921875 64.890625 
Q 37.9375 66.21875 33.296875 66.21875 
Q 25.25 66.21875 20.875 63.09375 
Q 16.5 59.96875 16.5 54.203125 
Q 16.5 49.359375 19.40625 46.890625 
Q 22.3125 44.4375 30.421875 42.921875 
L 36.375 41.703125 
Q 47.40625 39.59375 52.65625 34.296875 
Q 57.90625 29 57.90625 20.125 
Q 57.90625 9.515625 50.796875 4.046875 
Q 43.703125 -1.421875 29.984375 -1.421875 
Q 24.8125 -1.421875 18.96875 -0.25 
Q 13.140625 0.921875 6.890625 3.21875 
L 6.890625 13.375 
Q 12.890625 10.015625 18.65625 8.296875 
Q 24.421875 6.59375 29.984375 6.59375 
Q 38.421875 6.59375 43.015625 9.90625 
Q 47.609375 13.234375 47.609375 19.390625 
Q 47.609375 24.75 44.3125 27.78125 
Q 41.015625 30.8125 33.5 32.328125 
L 27.484375 33.5 
Q 16.453125 35.6875 11.515625 40.375 
Q 6.59375 45.0625 6.59375 53.421875 
Q 6.59375 63.09375 13.40625 68.65625 
Q 20.21875 74.21875 32.171875 74.21875 
Q 37.3125 74.21875 42.625 73.28125 
Q 47.953125 72.359375 53.515625 70.515625 
z
" id="DejaVuSans-83"/>
     <path d="M 9.421875 54.6875 
L 18.40625 54.6875 
L 18.40625 0 
L 9.421875 0 
z
M 9.421875 75.984375 
L 18.40625 75.984375 
L 18.40625 64.59375 
L 9.421875 64.59375 
z
" id="DejaVuSans-105"/>
     <path d="M 54.890625 33.015625 
L 54.890625 0 
L 45.90625 0 
L 45.90625 32.71875 
Q 45.90625 40.484375 42.875 44.328125 
Q 39.84375 48.1875 33.796875 48.1875 
Q 26.515625 48.1875 22.3125 43.546875 
Q 18.109375 38.921875 18.109375 30.90625 
L 18.109375 0 
L 9.078125 0 
L 9.078125 54.6875 
L 18.109375 54.6875 
L 18.109375 46.1875 
Q 21.34375 51.125 25.703125 53.5625 
Q 30.078125 56 35.796875 56 
Q 45.21875 56 50.046875 50.171875 
Q 54.890625 44.34375 54.890625 33.015625 
z
" id="DejaVuSans-110"/>
     <path d="M 56.203125 29.59375 
L 56.203125 25.203125 
L 14.890625 25.203125 
Q 15.484375 15.921875 20.484375 11.0625 
Q 25.484375 6.203125 34.421875 6.203125 
Q 39.59375 6.203125 44.453125 7.46875 
Q 49.3125 8.734375 54.109375 11.28125 
L 54.109375 2.78125 
Q 49.265625 0.734375 44.1875 -0.34375 
Q 39.109375 -1.421875 33.890625 -1.421875 
Q 20.796875 -1.421875 13.15625 6.1875 
Q 5.515625 13.8125 5.515625 26.8125 
Q 5.515625 40.234375 12.765625 48.109375 
Q 20.015625 56 32.328125 56 
Q 43.359375 56 49.78125 48.890625 
Q 56.203125 41.796875 56.203125 29.59375 
z
M 47.21875 32.234375 
Q 47.125 39.59375 43.09375 43.984375 
Q 39.0625 48.390625 32.421875 48.390625 
Q 24.90625 48.390625 20.390625 44.140625 
Q 15.875 39.890625 15.1875 32.171875 
z
" id="DejaVuSans-101"/>
     <path id="DejaVuSans-32"/>
     <path d="M 4.203125 54.6875 
L 13.1875 54.6875 
L 24.421875 12.015625 
L 35.59375 54.6875 
L 46.1875 54.6875 
L 57.421875 12.015625 
L 68.609375 54.6875 
L 77.59375 54.6875 
L 63.28125 0 
L 52.6875 0 
L 40.921875 44.828125 
L 29.109375 0 
L 18.5 0 
z
" id="DejaVuSans-119"/>
     <path d="M 34.28125 27.484375 
Q 23.390625 27.484375 19.1875 25 
Q 14.984375 22.515625 14.984375 16.5 
Q 14.984375 11.71875 18.140625 8.90625 
Q 21.296875 6.109375 26.703125 6.109375 
Q 34.1875 6.109375 38.703125 11.40625 
Q 43.21875 16.703125 43.21875 25.484375 
L 43.21875 27.484375 
z
M 52.203125 31.203125 
L 52.203125 0 
L 43.21875 0 
L 43.21875 8.296875 
Q 40.140625 3.328125 35.546875 0.953125 
Q 30.953125 -1.421875 24.3125 -1.421875 
Q 15.921875 -1.421875 10.953125 3.296875 
Q 6 8.015625 6 15.921875 
Q 6 25.140625 12.171875 29.828125 
Q 18.359375 34.515625 30.609375 34.515625 
L 43.21875 34.515625 
L 43.21875 35.40625 
Q 43.21875 41.609375 39.140625 45 
Q 35.0625 48.390625 27.6875 48.390625 
Q 23 48.390625 18.546875 47.265625 
Q 14.109375 46.140625 10.015625 43.890625 
L 10.015625 52.203125 
Q 14.9375 54.109375 19.578125 55.046875 
Q 24.21875 56 28.609375 56 
Q 40.484375 56 46.34375 49.84375 
Q 52.203125 43.703125 52.203125 31.203125 
z
" id="DejaVuSans-97"/>
     <path d="M 2.984375 54.6875 
L 12.5 54.6875 
L 29.59375 8.796875 
L 46.6875 54.6875 
L 56.203125 54.6875 
L 35.6875 0 
L 23.484375 0 
z
" id="DejaVuSans-118"/>
     <path d="M 18.3125 70.21875 
L 18.3125 54.6875 
L 36.8125 54.6875 
L 36.8125 47.703125 
L 18.3125 47.703125 
L 18.3125 18.015625 
Q 18.3125 11.328125 20.140625 9.421875 
Q 21.96875 7.515625 27.59375 7.515625 
L 36.8125 7.515625 
L 36.8125 0 
L 27.59375 0 
Q 17.1875 0 13.234375 3.875 
Q 9.28125 7.765625 9.28125 18.015625 
L 9.28125 47.703125 
L 2.6875 47.703125 
L 2.6875 54.6875 
L 9.28125 54.6875 
L 9.28125 70.21875 
z
" id="DejaVuSans-116"/>
     <path d="M 54.890625 33.015625 
L 54.890625 0 
L 45.90625 0 
L 45.90625 32.71875 
Q 45.90625 40.484375 42.875 44.328125 
Q 39.84375 48.1875 33.796875 48.1875 
Q 26.515625 48.1875 22.3125 43.546875 
Q 18.109375 38.921875 18.109375 30.90625 
L 18.109375 0 
L 9.078125 0 
L 9.078125 75.984375 
L 18.109375 75.984375 
L 18.109375 46.1875 
Q 21.34375 51.125 25.703125 53.5625 
Q 30.078125 56 35.796875 56 
Q 45.21875 56 50.046875 50.171875 
Q 54.890625 44.34375 54.890625 33.015625 
z
" id="DejaVuSans-104"/>
     <path d="M 10.796875 72.90625 
L 49.515625 72.90625 
L 49.515625 64.59375 
L 19.828125 64.59375 
L 19.828125 46.734375 
Q 21.96875 47.46875 24.109375 47.828125 
Q 26.265625 48.1875 28.421875 48.1875 
Q 40.625 48.1875 47.75 41.5 
Q 54.890625 34.8125 54.890625 23.390625 
Q 54.890625 11.625 47.5625 5.09375 
Q 40.234375 -1.421875 26.90625 -1.421875 
Q 22.3125 -1.421875 17.546875 -0.640625 
Q 12.796875 0.140625 7.71875 1.703125 
L 7.71875 11.625 
Q 12.109375 9.234375 16.796875 8.0625 
Q 21.484375 6.890625 26.703125 6.890625 
Q 35.15625 6.890625 40.078125 11.328125 
Q 45.015625 15.765625 45.015625 23.390625 
Q 45.015625 31 40.078125 35.4375 
Q 35.15625 39.890625 26.703125 39.890625 
Q 22.75 39.890625 18.8125 39.015625 
Q 14.890625 38.140625 10.796875 36.28125 
z
" id="DejaVuSans-53"/>
     <path d="M 14.796875 27.296875 
Q 14.796875 17.390625 18.875 11.75 
Q 22.953125 6.109375 30.078125 6.109375 
Q 37.203125 6.109375 41.296875 11.75 
Q 45.40625 17.390625 45.40625 27.296875 
Q 45.40625 37.203125 41.296875 42.84375 
Q 37.203125 48.484375 30.078125 48.484375 
Q 22.953125 48.484375 18.875 42.84375 
Q 14.796875 37.203125 14.796875 27.296875 
z
M 45.40625 8.203125 
Q 42.578125 3.328125 38.25 0.953125 
Q 33.9375 -1.421875 27.875 -1.421875 
Q 17.96875 -1.421875 11.734375 6.484375 
Q 5.515625 14.40625 5.515625 27.296875 
Q 5.515625 40.1875 11.734375 48.09375 
Q 17.96875 56 27.875 56 
Q 33.9375 56 38.25 53.625 
Q 42.578125 51.265625 45.40625 46.390625 
L 45.40625 54.6875 
L 54.390625 54.6875 
L 54.390625 -20.796875 
L 45.40625 -20.796875 
z
" id="DejaVuSans-113"/>
     <path d="M 8.5 21.578125 
L 8.5 54.6875 
L 17.484375 54.6875 
L 17.484375 21.921875 
Q 17.484375 14.15625 20.5 10.265625 
Q 23.53125 6.390625 29.59375 6.390625 
Q 36.859375 6.390625 41.078125 11.03125 
Q 45.3125 15.671875 45.3125 23.6875 
L 45.3125 54.6875 
L 54.296875 54.6875 
L 54.296875 0 
L 45.3125 0 
L 45.3125 8.40625 
Q 42.046875 3.421875 37.71875 1 
Q 33.40625 -1.421875 27.6875 -1.421875 
Q 18.265625 -1.421875 13.375 4.4375 
Q 8.5 10.296875 8.5 21.578125 
z
M 31.109375 56 
z
" id="DejaVuSans-117"/>
     <path d="M 5.515625 54.6875 
L 48.1875 54.6875 
L 48.1875 46.484375 
L 14.40625 7.171875 
L 48.1875 7.171875 
L 48.1875 0 
L 4.296875 0 
L 4.296875 8.203125 
L 38.09375 47.515625 
L 5.515625 47.515625 
z
" id="DejaVuSans-122"/>
     <path d="M 30.609375 48.390625 
Q 23.390625 48.390625 19.1875 42.75 
Q 14.984375 37.109375 14.984375 27.296875 
Q 14.984375 17.484375 19.15625 11.84375 
Q 23.34375 6.203125 30.609375 6.203125 
Q 37.796875 6.203125 41.984375 11.859375 
Q 46.1875 17.53125 46.1875 27.296875 
Q 46.1875 37.015625 41.984375 42.703125 
Q 37.796875 48.390625 30.609375 48.390625 
z
M 30.609375 56 
Q 42.328125 56 49.015625 48.375 
Q 55.71875 40.765625 55.71875 27.296875 
Q 55.71875 13.875 49.015625 6.21875 
Q 42.328125 -1.421875 30.609375 -1.421875 
Q 18.84375 -1.421875 12.171875 6.21875 
Q 5.515625 13.875 5.515625 27.296875 
Q 5.515625 40.765625 12.171875 48.375 
Q 18.84375 56 30.609375 56 
z
" id="DejaVuSans-111"/>
     <path d="M 9.421875 75.984375 
L 18.40625 75.984375 
L 18.40625 0 
L 9.421875 0 
z
" id="DejaVuSans-108"/>
     <path d="M 44.28125 53.078125 
L 44.28125 44.578125 
Q 40.484375 46.53125 36.375 47.5 
Q 32.28125 48.484375 27.875 48.484375 
Q 21.1875 48.484375 17.84375 46.4375 
Q 14.5 44.390625 14.5 40.28125 
Q 14.5 37.15625 16.890625 35.375 
Q 19.28125 33.59375 26.515625 31.984375 
L 29.59375 31.296875 
Q 39.15625 29.25 43.1875 25.515625 
Q 47.21875 21.78125 47.21875 15.09375 
Q 47.21875 7.46875 41.1875 3.015625 
Q 35.15625 -1.421875 24.609375 -1.421875 
Q 20.21875 -1.421875 15.453125 -0.5625 
Q 10.6875 0.296875 5.421875 2 
L 5.421875 11.28125 
Q 10.40625 8.6875 15.234375 7.390625 
Q 20.0625 6.109375 24.8125 6.109375 
Q 31.15625 6.109375 34.5625 8.28125 
Q 37.984375 10.453125 37.984375 14.40625 
Q 37.984375 18.0625 35.515625 20.015625 
Q 33.0625 21.96875 24.703125 23.78125 
L 21.578125 24.515625 
Q 13.234375 26.265625 9.515625 29.90625 
Q 5.8125 33.546875 5.8125 39.890625 
Q 5.8125 47.609375 11.28125 51.796875 
Q 16.75 56 26.8125 56 
Q 31.78125 56 36.171875 55.265625 
Q 40.578125 54.546875 44.28125 53.078125 
z
" id="DejaVuSans-115"/>
    </defs>
    <g transform="translate(258.224375 20.88)scale(0.12 -0.12)">
     <use xlink:href="#DejaVuSans-83"/>
     <use x="63.476562" xlink:href="#DejaVuSans-105"/>
     <use x="91.259766" xlink:href="#DejaVuSans-110"/>
     <use x="154.638672" xlink:href="#DejaVuSans-101"/>
     <use x="216.162109" xlink:href="#DejaVuSans-32"/>
     <use x="247.949219" xlink:href="#DejaVuSans-119"/>
     <use x="329.736328" xlink:href="#DejaVuSans-97"/>
     <use x="391.015625" xlink:href="#DejaVuSans-118"/>
     <use x="450.195312" xlink:href="#DejaVuSans-101"/>
     <use x="511.71875" xlink:href="#DejaVuSans-32"/>
     <use x="543.505859" xlink:href="#DejaVuSans-119"/>
     <use x="625.292969" xlink:href="#DejaVuSans-105"/>
     <use x="653.076172" xlink:href="#DejaVuSans-116"/>
     <use x="692.285156" xlink:href="#DejaVuSans-104"/>
     <use x="755.664062" xlink:href="#DejaVuSans-32"/>
     <use x="787.451172" xlink:href="#DejaVuSans-50"/>
     <use x="851.074219" xlink:href="#DejaVuSans-53"/>
     <use x="914.697266" xlink:href="#DejaVuSans-54"/>
     <use x="978.320312" xlink:href="#DejaVuSans-32"/>
     <use x="1010.107422" xlink:href="#DejaVuSans-113"/>
     <use x="1073.583984" xlink:href="#DejaVuSans-117"/>
     <use x="1136.962891" xlink:href="#DejaVuSans-97"/>
     <use x="1198.242188" xlink:href="#DejaVuSans-110"/>
     <use x="1261.621094" xlink:href="#DejaVuSans-116"/>
     <use x="1300.830078" xlink:href="#DejaVuSans-105"/>
     <use x="1328.613281" xlink:href="#DejaVuSans-122"/>
     <use x="1381.103516" xlink:href="#DejaVuSans-97"/>
     <use x="1442.382812" xlink:href="#DejaVuSans-116"/>
     <use x="1481.591797" xlink:href="#DejaVuSans-105"/>
     <use x="1509.375" xlink:href="#DejaVuSans-111"/>
     <use x="1570.556641" xlink:href="#DejaVuSans-110"/>
     <use x="1633.935547" xlink:href="#DejaVuSans-32"/>
     <use x="1665.722656" xlink:href="#DejaVuSans-108"/>
     <use x="1693.505859" xlink:href="#DejaVuSans-101"/>
     <use x="1755.029297" xlink:href="#DejaVuSans-118"/>
     <use x="1814.208984" xlink:href="#DejaVuSans-101"/>
     <use x="1875.732422" xlink:href="#DejaVuSans-108"/>
     <use x="1903.515625" xlink:href="#DejaVuSans-115"/>
    </g>
   </g>
   <g id="legend_1">
    <g id="patch_7">
     <path d="M 637.217187 78.914375 
L 702.2 78.914375 
Q 704.2 78.914375 704.2 76.914375 
L 704.2 33.88 
Q 704.2 31.88 702.2 31.88 
L 637.217187 31.88 
Q 635.217187 31.88 635.217187 33.88 
L 635.217187 76.914375 
Q 635.217187 78.914375 637.217187 78.914375 
z
" style="fill:#ffffff;opacity:0.8;stroke:#cccccc;stroke-linejoin:miter;"/>
    </g>
    <g id="line2d_26">
     <path d="M 639.217187 39.978438 
L 659.217187 39.978438 
" style="fill:none;stroke:#1f77b4;stroke-linecap:square;stroke-width:1.5;"/>
    </g>
    <g id="line2d_27"/>
    <g id="text_13">
     <!-- input -->
     <defs>
      <path d="M 18.109375 8.203125 
L 18.109375 -20.796875 
L 9.078125 -20.796875 
L 9.078125 54.6875 
L 18.109375 54.6875 
L 18.109375 46.390625 
Q 20.953125 51.265625 25.265625 53.625 
Q 29.59375 56 35.59375 56 
Q 45.5625 56 51.78125 48.09375 
Q 58.015625 40.1875 58.015625 27.296875 
Q 58.015625 14.40625 51.78125 6.484375 
Q 45.5625 -1.421875 35.59375 -1.421875 
Q 29.59375 -1.421875 25.265625 0.953125 
Q 20.953125 3.328125 18.109375 8.203125 
z
M 48.6875 27.296875 
Q 48.6875 37.203125 44.609375 42.84375 
Q 40.53125 48.484375 33.40625 48.484375 
Q 26.265625 48.484375 22.1875 42.84375 
Q 18.109375 37.203125 18.109375 27.296875 
Q 18.109375 17.390625 22.1875 11.75 
Q 26.265625 6.109375 33.40625 6.109375 
Q 40.53125 6.109375 44.609375 11.75 
Q 48.6875 17.390625 48.6875 27.296875 
z
" id="DejaVuSans-112"/>
     </defs>
     <g transform="translate(667.217187 43.478438)scale(0.1 -0.1)">
      <use xlink:href="#DejaVuSans-105"/>
      <use x="27.783203" xlink:href="#DejaVuSans-110"/>
      <use x="91.162109" xlink:href="#DejaVuSans-112"/>
      <use x="154.638672" xlink:href="#DejaVuSans-117"/>
      <use x="218.017578" xlink:href="#DejaVuSans-116"/>
     </g>
    </g>
    <g id="line2d_28"/>
    <g id="line2d_29">
     <g>
      <use style="fill:#ff7f0e;stroke:#ff7f0e;" x="649.217187" xlink:href="#m5f2e0bfd8c" y="54.656563"/>
     </g>
    </g>
    <g id="text_14">
     <!-- output -->
     <g transform="translate(667.217187 58.156563)scale(0.1 -0.1)">
      <use xlink:href="#DejaVuSans-111"/>
      <use x="61.181641" xlink:href="#DejaVuSans-117"/>
      <use x="124.560547" xlink:href="#DejaVuSans-116"/>
      <use x="163.769531" xlink:href="#DejaVuSans-112"/>
      <use x="227.246094" xlink:href="#DejaVuSans-117"/>
      <use x="290.625" xlink:href="#DejaVuSans-116"/>
     </g>
    </g>
    <g id="line2d_30">
     <path d="M 639.217187 69.334688 
L 659.217187 69.334688 
" style="fill:none;stroke:#2ca02c;stroke-linecap:square;stroke-width:1.5;"/>
    </g>
    <g id="line2d_31"/>
    <g id="text_15">
     <!-- error -->
     <defs>
      <path d="M 41.109375 46.296875 
Q 39.59375 47.171875 37.8125 47.578125 
Q 36.03125 48 33.890625 48 
Q 26.265625 48 22.1875 43.046875 
Q 18.109375 38.09375 18.109375 28.8125 
L 18.109375 0 
L 9.078125 0 
L 9.078125 54.6875 
L 18.109375 54.6875 
L 18.109375 46.1875 
Q 20.953125 51.171875 25.484375 53.578125 
Q 30.03125 56 36.53125 56 
Q 37.453125 56 38.578125 55.875 
Q 39.703125 55.765625 41.0625 55.515625 
z
" id="DejaVuSans-114"/>
     </defs>
     <g transform="translate(667.217187 72.834688)scale(0.1 -0.1)">
      <use xlink:href="#DejaVuSans-101"/>
      <use x="61.523438" xlink:href="#DejaVuSans-114"/>
      <use x="100.886719" xlink:href="#DejaVuSans-114"/>
      <use x="139.75" xlink:href="#DejaVuSans-111"/>
      <use x="200.931641" xlink:href="#DejaVuSans-114"/>
     </g>
    </g>
   </g>
  </g>
 </g>
 <defs>
  <clipPath id="pfaefa12372">
   <rect height="233.24" width="667.28" x="41.92" y="26.88"/>
  </clipPath>
 </defs>
</svg>
