<?xml version="1.0" encoding="utf-8" standalone="no"?>
<!DOCTYPE svg PUBLIC "-//W3C//DTD SVG 1.1//EN"
  "http://www.w3.org/Graphics/SVG/1.1/DTD/svg11.dtd">
<!-- Created with matplotlib (https://matplotlib.org/) -->
<svg height="288pt" version="1.1" viewBox="0 0 720 288" width="720pt" xmlns="http://www.w3.org/2000/svg" xmlns:xlink="http://www.w3.org/1999/xlink">
 <defs>
  <style type="text/css">
*{stroke-linecap:butt;stroke-linejoin:round;}
  </style>
 </defs>
 <g id="figure_1">
  <g id="patch_1">
   <path d="M 0 288 
L 720 288 
L 720 0 
L 0 0 
z
" style="fill:#ffffff;"/>
  </g>
  <g id="axes_1">
   <g id="patch_2">
    <path d="M 45.16 260.12 
L 709.2 260.12 
L 709.2 37.968 
L 45.16 37.968 
z
" style="fill:#ffffff;"/>
   </g>
   <g id="matplotlib.axis_1">
    <g id="xtick_1">
     <g id="line2d_1">
      <path clip-path="url(#p9c2bb8f31e)" d="M 45.16 260.12 
L 45.16 37.968 
" style="fill:none;stroke:#b0b0b0;stroke-linecap:square;stroke-width:0.8;"/>
     </g>
     <g id="line2d_2">
      <defs>
       <path d="M 0 0 
L 0 3.5 
" id="m68c3c5c5c5" style="stroke:#000000;stroke-width:0.8;"/>
      </defs>
      <g>
       <use style="stroke:#000000;stroke-width:0.8;" x="45.16" xlink:href="#m68c3c5c5c5" y="260.12"/>
      </g>
     </g>
     <g id="text_1">
      <!-- 0 -->
      <defs>
       <path d="M 31.78125 66.40625 
Q 24.171875 66.40625 20.328125 58.90625 
Q 16.5 51.421875 16.5 36.375 
Q 16.5 21.390625 20.328125 13.890625 
Q 24.171875 6.390625 31.78125 6.390625 
Q 39.453125 6.390625 43.28125 13.890625 
Q 47.125 21.390625 47.125 36.375 
Q 47.125 51.421875 43.28125 58.90625 
Q 39.453125 66.40625 31.78125 66.40625 
z
M 31.78125 74.21875 
Q 44.046875 74.21875 50.515625 64.515625 
Q 56.984375 54.828125 56.984375 36.375 
Q 56.984375 17.96875 50.515625 8.265625 
Q 44.046875 -1.421875 31.78125 -1.421875 
Q 19.53125 -1.421875 13.0625 8.265625 
Q 6.59375 17.96875 6.59375 36.375 
Q 6.59375 54.828125 13.0625 64.515625 
Q 19.53125 74.21875 31.78125 74.21875 
z
" id="DejaVuSans-48"/>
      </defs>
      <g transform="translate(41.97875 274.718437)scale(0.1 -0.1)">
       <use xlink:href="#DejaVuSans-48"/>
      </g>
     </g>
    </g>
    <g id="xtick_2">
     <g id="line2d_3">
      <path clip-path="url(#p9c2bb8f31e)" d="M 160.444722 260.12 
L 160.444722 37.968 
" style="fill:none;stroke:#b0b0b0;stroke-linecap:square;stroke-width:0.8;"/>
     </g>
     <g id="line2d_4">
      <g>
       <use style="stroke:#000000;stroke-width:0.8;" x="160.444722" xlink:href="#m68c3c5c5c5" y="260.12"/>
      </g>
     </g>
     <g id="text_2">
      <!-- 200000 -->
      <defs>
       <path d="M 19.1875 8.296875 
L 53.609375 8.296875 
L 53.609375 0 
L 7.328125 0 
L 7.328125 8.296875 
Q 12.9375 14.109375 22.625 23.890625 
Q 32.328125 33.6875 34.8125 36.53125 
Q 39.546875 41.84375 41.421875 45.53125 
Q 43.3125 49.21875 43.3125 52.78125 
Q 43.3125 58.59375 39.234375 62.25 
Q 35.15625 65.921875 28.609375 65.921875 
Q 23.96875 65.921875 18.8125 64.3125 
Q 13.671875 62.703125 7.8125 59.421875 
L 7.8125 69.390625 
Q 13.765625 71.78125 18.9375 73 
Q 24.125 74.21875 28.421875 74.21875 
Q 39.75 74.21875 46.484375 68.546875 
Q 53.21875 62.890625 53.21875 53.421875 
Q 53.21875 48.921875 51.53125 44.890625 
Q 49.859375 40.875 45.40625 35.40625 
Q 44.1875 33.984375 37.640625 27.21875 
Q 31.109375 20.453125 19.1875 8.296875 
z
" id="DejaVuSans-50"/>
      </defs>
      <g transform="translate(141.357222 274.718437)scale(0.1 -0.1)">
       <use xlink:href="#DejaVuSans-50"/>
       <use x="63.623047" xlink:href="#DejaVuSans-48"/>
       <use x="127.246094" xlink:href="#DejaVuSans-48"/>
       <use x="190.869141" xlink:href="#DejaVuSans-48"/>
       <use x="254.492188" xlink:href="#DejaVuSans-48"/>
       <use x="318.115234" xlink:href="#DejaVuSans-48"/>
      </g>
     </g>
    </g>
    <g id="xtick_3">
     <g id="line2d_5">
      <path clip-path="url(#p9c2bb8f31e)" d="M 275.729444 260.12 
L 275.729444 37.968 
" style="fill:none;stroke:#b0b0b0;stroke-linecap:square;stroke-width:0.8;"/>
     </g>
     <g id="line2d_6">
      <g>
       <use style="stroke:#000000;stroke-width:0.8;" x="275.729444" xlink:href="#m68c3c5c5c5" y="260.12"/>
      </g>
     </g>
     <g id="text_3">
      <!-- 400000 -->
      <defs>
       <path d="M 37.796875 64.3125 
L 12.890625 25.390625 
L 37.796875 25.390625 
z
M 35.203125 72.90625 
L 47.609375 72.90625 
L 47.609375 25.390625 
L 58.015625 25.390625 
L 58.015625 17.1875 
L 47.609375 17.1875 
L 47.609375 0 
L 37.796875 0 
L 37.796875 17.1875 
L 4.890625 17.1875 
L 4.890625 26.703125 
z
" id="DejaVuSans-52"/>
      </defs>
      <g transform="translate(256.641944 274.718437)scale(0.1 -0.1)">
       <use xlink:href="#DejaVuSans-52"/>
       <use x="63.623047" xlink:href="#DejaVuSans-48"/>
       <use x="127.246094" xlink:href="#DejaVuSans-48"/>
       <use x="190.869141" xlink:href="#DejaVuSans-48"/>
       <use x="254.492188" xlink:href="#DejaVuSans-48"/>
       <use x="318.115234" xlink:href="#DejaVuSans-48"/>
      </g>
     </g>
    </g>
    <g id="xtick_4">
     <g id="line2d_7">
      <path clip-path="url(#p9c2bb8f31e)" d="M 391.014167 260.12 
L 391.014167 37.968 
" style="fill:none;stroke:#b0b0b0;stroke-linecap:square;stroke-width:0.8;"/>
     </g>
     <g id="line2d_8">
      <g>
       <use style="stroke:#000000;stroke-width:0.8;" x="391.014167" xlink:href="#m68c3c5c5c5" y="260.12"/>
      </g>
     </g>
     <g id="text_4">
      <!-- 600000 -->
      <defs>
       <path d="M 33.015625 40.375 
Q 26.375 40.375 22.484375 35.828125 
Q 18.609375 31.296875 18.609375 23.390625 
Q 18.609375 15.53125 22.484375 10.953125 
Q 26.375 6.390625 33.015625 6.390625 
Q 39.65625 6.390625 43.53125 10.953125 
Q 47.40625 15.53125 47.40625 23.390625 
Q 47.40625 31.296875 43.53125 35.828125 
Q 39.65625 40.375 33.015625 40.375 
z
M 52.59375 71.296875 
L 52.59375 62.3125 
Q 48.875 64.0625 45.09375 64.984375 
Q 41.3125 65.921875 37.59375 65.921875 
Q 27.828125 65.921875 22.671875 59.328125 
Q 17.53125 52.734375 16.796875 39.40625 
Q 19.671875 43.65625 24.015625 45.921875 
Q 28.375 48.1875 33.59375 48.1875 
Q 44.578125 48.1875 50.953125 41.515625 
Q 57.328125 34.859375 57.328125 23.390625 
Q 57.328125 12.15625 50.6875 5.359375 
Q 44.046875 -1.421875 33.015625 -1.421875 
Q 20.359375 -1.421875 13.671875 8.265625 
Q 6.984375 17.96875 6.984375 36.375 
Q 6.984375 53.65625 15.1875 63.9375 
Q 23.390625 74.21875 37.203125 74.21875 
Q 40.921875 74.21875 44.703125 73.484375 
Q 48.484375 72.75 52.59375 71.296875 
z
" id="DejaVuSans-54"/>
      </defs>
      <g transform="translate(371.926667 274.718437)scale(0.1 -0.1)">
       <use xlink:href="#DejaVuSans-54"/>
       <use x="63.623047" xlink:href="#DejaVuSans-48"/>
       <use x="127.246094" xlink:href="#DejaVuSans-48"/>
       <use x="190.869141" xlink:href="#DejaVuSans-48"/>
       <use x="254.492188" xlink:href="#DejaVuSans-48"/>
       <use x="318.115234" xlink:href="#DejaVuSans-48"/>
      </g>
     </g>
    </g>
    <g id="xtick_5">
     <g id="line2d_9">
      <path clip-path="url(#p9c2bb8f31e)" d="M 506.298889 260.12 
L 506.298889 37.968 
" style="fill:none;stroke:#b0b0b0;stroke-linecap:square;stroke-width:0.8;"/>
     </g>
     <g id="line2d_10">
      <g>
       <use style="stroke:#000000;stroke-width:0.8;" x="506.298889" xlink:href="#m68c3c5c5c5" y="260.12"/>
      </g>
     </g>
     <g id="text_5">
      <!-- 800000 -->
      <defs>
       <path d="M 31.78125 34.625 
Q 24.75 34.625 20.71875 30.859375 
Q 16.703125 27.09375 16.703125 20.515625 
Q 16.703125 13.921875 20.71875 10.15625 
Q 24.75 6.390625 31.78125 6.390625 
Q 38.8125 6.390625 42.859375 10.171875 
Q 46.921875 13.96875 46.921875 20.515625 
Q 46.921875 27.09375 42.890625 30.859375 
Q 38.875 34.625 31.78125 34.625 
z
M 21.921875 38.8125 
Q 15.578125 40.375 12.03125 44.71875 
Q 8.5 49.078125 8.5 55.328125 
Q 8.5 64.0625 14.71875 69.140625 
Q 20.953125 74.21875 31.78125 74.21875 
Q 42.671875 74.21875 48.875 69.140625 
Q 55.078125 64.0625 55.078125 55.328125 
Q 55.078125 49.078125 51.53125 44.71875 
Q 48 40.375 41.703125 38.8125 
Q 48.828125 37.15625 52.796875 32.3125 
Q 56.78125 27.484375 56.78125 20.515625 
Q 56.78125 9.90625 50.3125 4.234375 
Q 43.84375 -1.421875 31.78125 -1.421875 
Q 19.734375 -1.421875 13.25 4.234375 
Q 6.78125 9.90625 6.78125 20.515625 
Q 6.78125 27.484375 10.78125 32.3125 
Q 14.796875 37.15625 21.921875 38.8125 
z
M 18.3125 54.390625 
Q 18.3125 48.734375 21.84375 45.5625 
Q 25.390625 42.390625 31.78125 42.390625 
Q 38.140625 42.390625 41.71875 45.5625 
Q 45.3125 48.734375 45.3125 54.390625 
Q 45.3125 60.0625 41.71875 63.234375 
Q 38.140625 66.40625 31.78125 66.40625 
Q 25.390625 66.40625 21.84375 63.234375 
Q 18.3125 60.0625 18.3125 54.390625 
z
" id="DejaVuSans-56"/>
      </defs>
      <g transform="translate(487.211389 274.718437)scale(0.1 -0.1)">
       <use xlink:href="#DejaVuSans-56"/>
       <use x="63.623047" xlink:href="#DejaVuSans-48"/>
       <use x="127.246094" xlink:href="#DejaVuSans-48"/>
       <use x="190.869141" xlink:href="#DejaVuSans-48"/>
       <use x="254.492188" xlink:href="#DejaVuSans-48"/>
       <use x="318.115234" xlink:href="#DejaVuSans-48"/>
      </g>
     </g>
    </g>
    <g id="xtick_6">
     <g id="line2d_11">
      <path clip-path="url(#p9c2bb8f31e)" d="M 621.583611 260.12 
L 621.583611 37.968 
" style="fill:none;stroke:#b0b0b0;stroke-linecap:square;stroke-width:0.8;"/>
     </g>
     <g id="line2d_12">
      <g>
       <use style="stroke:#000000;stroke-width:0.8;" x="621.583611" xlink:href="#m68c3c5c5c5" y="260.12"/>
      </g>
     </g>
     <g id="text_6">
      <!-- 1000000 -->
      <defs>
       <path d="M 12.40625 8.296875 
L 28.515625 8.296875 
L 28.515625 63.921875 
L 10.984375 60.40625 
L 10.984375 69.390625 
L 28.421875 72.90625 
L 38.28125 72.90625 
L 38.28125 8.296875 
L 54.390625 8.296875 
L 54.390625 0 
L 12.40625 0 
z
" id="DejaVuSans-49"/>
      </defs>
      <g transform="translate(599.314861 274.718437)scale(0.1 -0.1)">
       <use xlink:href="#DejaVuSans-49"/>
       <use x="63.623047" xlink:href="#DejaVuSans-48"/>
       <use x="127.246094" xlink:href="#DejaVuSans-48"/>
       <use x="190.869141" xlink:href="#DejaVuSans-48"/>
       <use x="254.492188" xlink:href="#DejaVuSans-48"/>
       <use x="318.115234" xlink:href="#DejaVuSans-48"/>
       <use x="381.738281" xlink:href="#DejaVuSans-48"/>
      </g>
     </g>
    </g>
   </g>
   <g id="matplotlib.axis_2">
    <g id="ytick_1">
     <g id="line2d_13">
      <path clip-path="url(#p9c2bb8f31e)" d="M 45.16 260.12 
L 709.2 260.12 
" style="fill:none;stroke:#b0b0b0;stroke-linecap:square;stroke-width:0.8;"/>
     </g>
     <g id="line2d_14">
      <defs>
       <path d="M 0 0 
L -3.5 0 
" id="mce5be44015" style="stroke:#000000;stroke-width:0.8;"/>
      </defs>
      <g>
       <use style="stroke:#000000;stroke-width:0.8;" x="45.16" xlink:href="#mce5be44015" y="260.12"/>
      </g>
     </g>
     <g id="text_7">
      <!-- −120 -->
      <defs>
       <path d="M 10.59375 35.5 
L 73.1875 35.5 
L 73.1875 27.203125 
L 10.59375 27.203125 
z
" id="DejaVuSans-8722"/>
      </defs>
      <g transform="translate(10.692812 263.919219)scale(0.1 -0.1)">
       <use xlink:href="#DejaVuSans-8722"/>
       <use x="83.789062" xlink:href="#DejaVuSans-49"/>
       <use x="147.412109" xlink:href="#DejaVuSans-50"/>
       <use x="211.035156" xlink:href="#DejaVuSans-48"/>
      </g>
     </g>
    </g>
    <g id="ytick_2">
     <g id="line2d_15">
      <path clip-path="url(#p9c2bb8f31e)" d="M 45.16 223.997724 
L 709.2 223.997724 
" style="fill:none;stroke:#b0b0b0;stroke-linecap:square;stroke-width:0.8;"/>
     </g>
     <g id="line2d_16">
      <g>
       <use style="stroke:#000000;stroke-width:0.8;" x="45.16" xlink:href="#mce5be44015" y="223.997724"/>
      </g>
     </g>
     <g id="text_8">
      <!-- −100 -->
      <g transform="translate(10.692812 227.796942)scale(0.1 -0.1)">
       <use xlink:href="#DejaVuSans-8722"/>
       <use x="83.789062" xlink:href="#DejaVuSans-49"/>
       <use x="147.412109" xlink:href="#DejaVuSans-48"/>
       <use x="211.035156" xlink:href="#DejaVuSans-48"/>
      </g>
     </g>
    </g>
    <g id="ytick_3">
     <g id="line2d_17">
      <path clip-path="url(#p9c2bb8f31e)" d="M 45.16 187.875447 
L 709.2 187.875447 
" style="fill:none;stroke:#b0b0b0;stroke-linecap:square;stroke-width:0.8;"/>
     </g>
     <g id="line2d_18">
      <g>
       <use style="stroke:#000000;stroke-width:0.8;" x="45.16" xlink:href="#mce5be44015" y="187.875447"/>
      </g>
     </g>
     <g id="text_9">
      <!-- −80 -->
      <g transform="translate(17.055312 191.674666)scale(0.1 -0.1)">
       <use xlink:href="#DejaVuSans-8722"/>
       <use x="83.789062" xlink:href="#DejaVuSans-56"/>
       <use x="147.412109" xlink:href="#DejaVuSans-48"/>
      </g>
     </g>
    </g>
    <g id="ytick_4">
     <g id="line2d_19">
      <path clip-path="url(#p9c2bb8f31e)" d="M 45.16 151.753171 
L 709.2 151.753171 
" style="fill:none;stroke:#b0b0b0;stroke-linecap:square;stroke-width:0.8;"/>
     </g>
     <g id="line2d_20">
      <g>
       <use style="stroke:#000000;stroke-width:0.8;" x="45.16" xlink:href="#mce5be44015" y="151.753171"/>
      </g>
     </g>
     <g id="text_10">
      <!-- −60 -->
      <g transform="translate(17.055312 155.552389)scale(0.1 -0.1)">
       <use xlink:href="#DejaVuSans-8722"/>
       <use x="83.789062" xlink:href="#DejaVuSans-54"/>
       <use x="147.412109" xlink:href="#DejaVuSans-48"/>
      </g>
     </g>
    </g>
    <g id="ytick_5">
     <g id="line2d_21">
      <path clip-path="url(#p9c2bb8f31e)" d="M 45.16 115.630894 
L 709.2 115.630894 
" style="fill:none;stroke:#b0b0b0;stroke-linecap:square;stroke-width:0.8;"/>
     </g>
     <g id="line2d_22">
      <g>
       <use style="stroke:#000000;stroke-width:0.8;" x="45.16" xlink:href="#mce5be44015" y="115.630894"/>
      </g>
     </g>
     <g id="text_11">
      <!-- −40 -->
      <g transform="translate(17.055312 119.430113)scale(0.1 -0.1)">
       <use xlink:href="#DejaVuSans-8722"/>
       <use x="83.789062" xlink:href="#DejaVuSans-52"/>
       <use x="147.412109" xlink:href="#DejaVuSans-48"/>
      </g>
     </g>
    </g>
    <g id="ytick_6">
     <g id="line2d_23">
      <path clip-path="url(#p9c2bb8f31e)" d="M 45.16 79.508618 
L 709.2 79.508618 
" style="fill:none;stroke:#b0b0b0;stroke-linecap:square;stroke-width:0.8;"/>
     </g>
     <g id="line2d_24">
      <g>
       <use style="stroke:#000000;stroke-width:0.8;" x="45.16" xlink:href="#mce5be44015" y="79.508618"/>
      </g>
     </g>
     <g id="text_12">
      <!-- −20 -->
      <g transform="translate(17.055312 83.307837)scale(0.1 -0.1)">
       <use xlink:href="#DejaVuSans-8722"/>
       <use x="83.789062" xlink:href="#DejaVuSans-50"/>
       <use x="147.412109" xlink:href="#DejaVuSans-48"/>
      </g>
     </g>
    </g>
    <g id="ytick_7">
     <g id="line2d_25">
      <path clip-path="url(#p9c2bb8f31e)" d="M 45.16 43.386341 
L 709.2 43.386341 
" style="fill:none;stroke:#b0b0b0;stroke-linecap:square;stroke-width:0.8;"/>
     </g>
     <g id="line2d_26">
      <g>
       <use style="stroke:#000000;stroke-width:0.8;" x="45.16" xlink:href="#mce5be44015" y="43.386341"/>
      </g>
     </g>
     <g id="text_13">
      <!-- 0 -->
      <g transform="translate(31.7975 47.18556)scale(0.1 -0.1)">
       <use xlink:href="#DejaVuSans-48"/>
      </g>
     </g>
    </g>
   </g>
   <g id="line2d_27">
    <path clip-path="url(#p9c2bb8f31e)" d="M 45.16 43.475728 
L 47.753906 43.439085 
L 49.050859 46.153863 
L 50.347812 98.094871 
L 51.644766 205.147135 
L 52.941719 205.587858 
L 54.238672 211.844209 
L 55.535625 221.993493 
L 56.832578 205.582737 
L 58.129531 205.119461 
L 59.426484 214.618472 
L 60.723438 238.974809 
L 62.020391 210.407677 
L 63.317344 204.643321 
L 64.614297 205.303198 
L 65.91125 212.724763 
L 67.208203 252.803336 
L 68.505156 215.129653 
L 69.802109 206.148951 
L 71.099063 204.248663 
L 72.396016 207.395127 
L 73.692969 218.683952 
L 74.989922 235.710582 
L 76.286875 211.566884 
L 77.583828 205.206493 
L 78.880781 204.42691 
L 80.177734 208.547287 
L 81.474688 222.007505 
L 82.771641 229.27455 
L 84.068594 210.51592 
L 85.365547 204.994352 
L 86.6625 204.633861 
L 87.959453 209.130062 
L 89.256406 223.600893 
L 90.553359 227.417029 
L 91.850313 210.158982 
L 93.147266 204.900233 
L 94.444219 204.638536 
L 95.741172 209.166512 
L 97.038125 223.588456 
L 98.335078 227.616063 
L 99.632031 210.240031 
L 100.928984 204.909502 
L 102.225938 204.54327 
L 103.522891 208.869959 
L 104.819844 222.524495 
L 106.116797 229.284286 
L 107.41375 210.683189 
L 108.710703 205.062869 
L 110.007656 204.476848 
L 111.304609 208.494745 
L 112.601563 221.164083 
L 113.898516 231.918305 
L 115.195469 211.305597 
L 116.492422 205.27297 
L 117.789375 204.397711 
L 119.086328 208.041808 
L 120.383281 219.645428 
L 121.680234 235.849863 
L 122.977187 212.092541 
L 124.274141 205.536183 
L 125.571094 204.31935 
L 126.868047 207.549435 
L 128.165 218.086159 
L 129.461953 242.006185 
L 130.758906 213.052056 
L 132.055859 205.859983 
L 133.352813 204.258149 
L 134.649766 207.049742 
L 135.946719 216.563061 
L 137.243672 253.722927 
L 138.540625 214.197964 
L 139.837578 206.250442 
L 141.134531 204.225621 
L 142.431484 206.564298 
L 143.728438 215.116551 
L 145.025391 280.23753 
L 146.322344 215.553657 
L 147.619297 206.713467 
L 148.91625 204.229949 
L 150.213203 206.107097 
L 151.510156 213.76497 
L 152.807109 248.159479 
L 154.104062 217.155548 
L 155.401016 207.25552 
L 156.697969 204.27723 
L 157.994922 205.6871 
L 159.291875 212.514328 
L 160.588828 238.08556 
L 161.885781 219.059212 
L 163.182734 207.884216 
L 164.479688 204.372358 
L 165.776641 205.309997 
L 167.073594 211.364018 
L 168.370547 231.877416 
L 169.6675 221.351288 
L 170.964453 208.609048 
L 172.261406 204.51968 
L 173.558359 204.979338 
L 174.855313 210.309866 
L 176.152266 227.374279 
L 177.449219 224.17465 
L 178.746172 209.442633 
L 180.043125 204.723637 
L 181.340078 204.697163 
L 182.637031 209.345066 
L 183.933984 223.836916 
L 185.230938 227.792386 
L 186.527891 210.404854 
L 187.824844 204.99041 
L 189.121797 204.464376 
L 190.41875 208.460767 
L 193.012656 232.80601 
L 194.309609 211.552325 
L 195.606563 205.360002 
L 196.903516 204.324289 
L 198.200469 207.705879 
L 199.497422 218.524753 
L 200.794375 240.245245 
L 202.091328 212.849048 
L 203.388281 205.797127 
L 204.685234 204.242278 
L 205.982188 207.041558 
L 207.279141 216.50712 
L 208.576094 255.036793 
L 209.873047 214.32651 
L 211.17 206.306245 
L 212.466953 204.217468 
L 213.763906 206.457919 
L 215.060859 214.766881 
L 216.357813 263.719671 
L 217.654766 216.026123 
L 218.951719 206.893466 
L 220.248672 204.250168 
L 221.545625 205.949244 
L 222.842578 213.248313 
L 224.139531 243.009305 
L 225.436484 218.004253 
L 226.733438 207.565766 
L 228.030391 204.341188 
L 229.327344 205.511253 
L 230.624297 211.912717 
L 231.92125 234.395675 
L 233.218203 220.343861 
L 234.515156 208.33164 
L 235.812109 204.491802 
L 237.109063 205.140593 
L 238.406016 210.731899 
L 239.702969 228.89152 
L 240.999922 223.175386 
L 242.296875 209.201669 
L 243.593828 204.703796 
L 244.890781 204.834642 
L 246.187734 209.684647 
L 247.484688 224.85661 
L 248.781641 226.721944 
L 250.078594 210.189274 
L 251.375547 204.979554 
L 252.6725 204.59141 
L 253.969453 208.754615 
L 255.266406 221.685928 
L 256.563359 231.415068 
L 257.860313 211.311782 
L 259.157266 205.322174 
L 260.454219 204.409488 
L 261.751172 207.928974 
L 263.048125 219.088144 
L 264.345078 238.27684 
L 265.642031 212.592064 
L 266.938984 205.735653 
L 268.235938 204.288024 
L 269.532891 207.197485 
L 270.829844 216.900195 
L 272.126797 251.006412 
L 273.42375 214.061174 
L 274.720703 206.225162 
L 276.017656 204.226738 
L 277.314609 206.551839 
L 278.611563 215.02117 
L 279.908516 271.883668 
L 281.205469 215.76296 
L 282.502422 206.797556 
L 283.799375 204.225988 
L 285.096328 205.985188 
L 286.393281 213.383401 
L 287.690234 244.231955 
L 288.987188 217.763193 
L 290.284141 207.462561 
L 291.581094 204.286995 
L 292.878047 205.490594 
L 294.175 211.935797 
L 295.471953 234.679177 
L 296.768906 220.1779 
L 298.065859 208.241048 
L 299.362813 204.422926 
L 300.659766 205.075045 
L 301.956719 210.654806 
L 303.253672 228.723059 
L 304.550625 223.224253 
L 305.847578 209.18853 
L 307.144531 204.667942 
L 308.441484 204.775279 
L 309.738438 209.583137 
L 311.035391 224.582008 
L 312.332344 226.983403 
L 313.629297 210.239867 
L 314.92625 204.976009 
L 316.223203 204.545908 
L 317.520156 208.648878 
L 318.817109 221.386972 
L 320.114063 231.974791 
L 321.411016 211.425112 
L 322.707969 205.351607 
L 324.004922 204.382366 
L 325.301875 207.830269 
L 326.598828 218.797547 
L 327.895781 239.398655 
L 329.192734 212.76967 
L 330.489688 205.79873 
L 331.786641 204.282412 
L 333.083594 207.113314 
L 334.380547 216.634236 
L 335.6775 254.08609 
L 336.974453 214.305861 
L 338.271406 206.322203 
L 339.568359 204.244883 
L 340.865313 206.487745 
L 342.162266 214.789646 
L 343.459219 263.362062 
L 344.756172 216.077817 
L 346.053125 206.92806 
L 347.350078 204.269425 
L 348.647031 205.94571 
L 349.943984 213.194194 
L 351.240937 242.398786 
L 352.537891 218.148805 
L 353.834844 207.62393 
L 355.131797 204.356415 
L 356.42875 205.481102 
L 357.725703 211.800138 
L 359.022656 233.755819 
L 361.616563 208.419576 
L 362.913516 204.506984 
L 364.210469 205.089147 
L 365.507422 210.573211 
L 366.804375 228.241348 
L 368.101328 223.632604 
L 369.398281 209.327639 
L 370.695234 204.723112 
L 371.992188 204.766146 
L 373.289141 209.487838 
L 374.586094 224.196796 
L 375.883047 227.473615 
L 377.18 210.3655 
L 378.476953 205.007958 
L 379.773906 204.509192 
L 381.070859 208.523713 
L 383.664766 232.724661 
L 384.961719 211.55812 
L 386.258672 205.366742 
L 387.555625 204.315815 
L 388.852578 207.661639 
L 390.149531 218.36763 
L 391.446484 241.063013 
L 392.743438 212.974715 
L 394.040391 205.83386 
L 395.337344 204.213257 
L 396.634297 206.923633 
L 397.93125 216.169929 
L 399.228203 260.456852 
L 400.525156 214.62997 
L 401.822109 206.409101 
L 403.119063 204.206109 
L 404.416016 206.318877 
L 405.712969 214.361285 
L 407.009922 255.310825 
L 408.306875 216.517875 
L 409.603828 207.063466 
L 410.900781 204.262504 
L 412.197734 205.803829 
L 413.494688 212.811545 
L 414.791641 239.718402 
L 416.088594 218.719652 
L 417.385547 207.807682 
L 418.6825 204.382283 
L 419.979453 205.369217 
L 421.276406 211.465944 
L 422.573359 232.121808 
L 423.870313 221.344415 
L 425.167266 208.652343 
L 426.464219 204.566235 
L 427.761172 205.009088 
L 429.058125 210.288309 
L 430.355078 227.081639 
L 431.652031 224.568234 
L 432.948984 209.610267 
L 434.245938 204.815976 
L 435.542891 204.719204 
L 436.839844 209.252826 
L 438.136797 223.324913 
L 439.43375 228.710464 
L 440.730703 210.697753 
L 442.027656 205.133988 
L 443.324609 204.496526 
L 444.621563 208.3403 
L 445.918516 220.345956 
L 447.215469 234.453295 
L 448.512422 211.936113 
L 449.809375 205.523695 
L 451.106328 204.339082 
L 452.403281 207.535981 
L 453.700234 217.891483 
L 454.997188 243.756861 
L 456.294141 213.354328 
L 457.591094 205.989971 
L 458.888047 204.245301 
L 460.185 206.828425 
L 461.481953 215.81635 
L 462.778906 270.437311 
L 464.075859 214.992654 
L 465.372813 206.539084 
L 466.669766 204.215115 
L 467.966719 206.208137 
L 469.263672 214.028062 
L 470.560625 250.703458 
L 471.857578 216.911659 
L 473.154531 207.18049 
L 474.451484 204.248982 
L 475.748438 205.666497 
L 477.045391 212.460293 
L 478.342344 237.632605 
L 479.639297 219.219067 
L 480.93625 207.936708 
L 482.233203 204.361159 
L 483.530156 205.210357 
L 484.827109 211.082205 
L 486.124063 230.527265 
L 487.421016 222.114611 
L 488.717969 208.862081 
L 490.014922 204.586853 
L 491.311875 204.878443 
L 492.608828 209.937153 
L 493.905781 225.846624 
L 495.202734 225.63991 
L 496.499688 209.888867 
L 497.796641 204.876649 
L 499.093594 204.620919 
L 500.390547 208.943005 
L 501.6875 222.333153 
L 502.984453 230.227361 
L 504.281406 211.046047 
L 505.578359 205.234609 
L 506.875313 204.432197 
L 508.172266 208.074209 
L 509.469219 219.533189 
L 510.766172 236.790589 
L 512.063125 212.357989 
L 513.360078 205.664462 
L 514.657031 204.309402 
L 515.953984 207.31438 
L 517.250938 217.220112 
L 518.547891 248.369962 
L 519.844844 213.855498 
L 521.141797 206.170819 
L 522.43875 204.250912 
L 523.735703 206.651584 
L 525.032656 215.26324 
L 526.329609 285.325387 
L 527.626562 215.58043 
L 528.923516 206.759539 
L 530.220469 204.25603 
L 531.517422 206.07674 
L 532.814375 213.580082 
L 534.111328 245.638808 
L 535.408281 217.592355 
L 536.705234 207.438101 
L 538.002188 204.324876 
L 539.299141 205.582829 
L 540.596094 212.115203 
L 541.893047 235.423017 
L 543.19 219.981444 
L 544.486953 208.21629 
L 545.783906 204.45842 
L 547.080859 205.164293 
L 548.377813 210.829129 
L 549.674766 229.307709 
L 550.971719 222.892124 
L 552.268672 209.107023 
L 553.565625 204.658624 
L 554.862578 204.816769 
L 556.159531 209.692482 
L 557.456484 224.939409 
L 558.753438 226.582289 
L 560.050391 210.128656 
L 561.347344 204.928972 
L 562.644297 204.536522 
L 563.94125 208.680713 
L 565.238203 221.535401 
L 566.535156 231.599674 
L 567.832109 211.314811 
L 569.129063 205.282308 
L 570.426016 204.330632 
L 571.722969 207.784986 
L 573.019922 218.747857 
L 574.316875 239.427592 
L 575.613828 212.747154 
L 576.910781 205.767858 
L 578.207734 204.242095 
L 579.504688 207.055833 
L 580.801641 216.526987 
L 582.098594 255.107528 
L 583.395547 214.353063 
L 584.6925 206.323694 
L 585.989453 204.219524 
L 587.286406 206.430536 
L 588.583359 214.661745 
L 589.880313 260.657241 
L 591.177266 216.195558 
L 592.474219 206.961309 
L 593.771172 204.261197 
L 595.068125 205.895171 
L 596.365078 213.062937 
L 597.662031 241.432286 
L 598.958984 218.344465 
L 600.255937 207.689279 
L 601.552891 204.366897 
L 602.849844 205.441411 
L 604.146797 211.675517 
L 605.44375 233.108347 
L 608.037656 208.517635 
L 609.334609 204.537337 
L 610.631562 205.063343 
L 611.928516 210.461824 
L 613.225469 227.750427 
L 614.522422 224.032825 
L 615.819375 209.458434 
L 617.116328 204.774241 
L 618.413281 204.756626 
L 619.710234 209.394692 
L 621.007188 223.812208 
L 622.304141 228.03347 
L 623.601094 210.529372 
L 624.898047 205.079656 
L 626.195 204.518029 
L 627.491953 208.453826 
L 630.085859 233.522483 
L 631.382813 211.750381 
L 632.679766 205.457616 
L 633.976719 204.345398 
L 635.273672 207.623601 
L 636.570625 218.171389 
L 637.867578 242.20126 
L 639.164531 213.151413 
L 640.461484 205.913046 
L 641.758438 204.237376 
L 643.055391 206.891429 
L 644.352344 216.025998 
L 645.649297 263.870836 
L 646.94625 214.775436 
L 648.243203 206.453515 
L 649.540156 204.193502 
L 650.837109 206.245966 
L 652.134063 214.17251 
L 653.431016 252.749621 
L 654.727969 216.698289 
L 656.024922 207.09794 
L 657.321875 204.225898 
L 658.618828 205.690717 
L 659.915781 212.555304 
L 661.212734 238.229611 
L 662.509688 219.066169 
L 663.806641 207.901196 
L 665.103594 204.373069 
L 666.400547 205.268654 
L 667.6975 211.216667 
L 668.994453 231.05936 
L 670.291406 221.851227 
L 671.588359 208.794487 
L 672.885313 204.584049 
L 674.182266 204.926581 
L 675.479219 210.058132 
L 676.776172 226.250803 
L 678.073125 225.282679 
L 679.370078 209.801664 
L 680.667031 204.861519 
L 681.963984 204.657129 
L 683.260938 209.04585 
L 684.557891 222.644533 
L 685.854844 229.741485 
L 687.151797 210.942073 
L 688.44875 205.208411 
L 689.745703 204.456301 
L 691.042656 208.157937 
L 692.339609 219.773633 
L 693.636562 236.067299 
L 694.933516 212.239445 
L 696.230469 205.628027 
L 697.527422 204.31994 
L 698.824375 207.37402 
L 700.121328 217.385947 
L 701.418281 247.175976 
L 702.715234 213.751937 
L 704.012188 206.143773 
L 705.309141 204.262325 
L 706.606094 206.692441 
L 707.903047 215.312781 
L 707.903047 215.312781 
" style="fill:none;stroke:#ff0000;stroke-linecap:square;stroke-width:1.5;"/>
   </g>
   <g id="line2d_28">
    <path clip-path="url(#p9c2bb8f31e)" d="M 45.16 43.450053 
L 48.618542 43.450053 
" style="fill:none;stroke:#0000ff;stroke-dasharray:3.7,1.6;stroke-dashoffset:0;"/>
   </g>
   <g id="line2d_29">
    <path clip-path="url(#p9c2bb8f31e)" d="M 45.16 43.475728 
L 48.618542 43.475728 
" style="fill:none;stroke:#0000ff;stroke-dasharray:3.7,1.6;stroke-dashoffset:0;"/>
   </g>
   <g id="line2d_30">
    <path clip-path="url(#p9c2bb8f31e)" d="M 50.924236 204.193502 
L 709.2 204.193502 
" style="fill:none;stroke:#0000ff;stroke-dasharray:3.7,1.6;stroke-dashoffset:0;"/>
   </g>
   <g id="patch_3">
    <path d="M 45.16 260.12 
L 45.16 37.968 
" style="fill:none;stroke:#000000;stroke-linecap:square;stroke-linejoin:miter;stroke-width:0.8;"/>
   </g>
   <g id="patch_4">
    <path d="M 709.2 260.12 
L 709.2 37.968 
" style="fill:none;stroke:#000000;stroke-linecap:square;stroke-linejoin:miter;stroke-width:0.8;"/>
   </g>
   <g id="patch_5">
    <path d="M 45.16 260.12 
L 709.2 260.12 
" style="fill:none;stroke:#000000;stroke-linecap:square;stroke-linejoin:miter;stroke-width:0.8;"/>
   </g>
   <g id="patch_6">
    <path d="M 45.16 37.968 
L 709.2 37.968 
" style="fill:none;stroke:#000000;stroke-linecap:square;stroke-linejoin:miter;stroke-width:0.8;"/>
   </g>
   <g id="text_14">
    <!-- Just Filter the Damn Thing - Frequency Reponse -->
    <defs>
     <path d="M 9.8125 72.90625 
L 19.671875 72.90625 
L 19.671875 5.078125 
Q 19.671875 -8.109375 14.671875 -14.0625 
Q 9.671875 -20.015625 -1.421875 -20.015625 
L -5.171875 -20.015625 
L -5.171875 -11.71875 
L -2.09375 -11.71875 
Q 4.4375 -11.71875 7.125 -8.046875 
Q 9.8125 -4.390625 9.8125 5.078125 
z
" id="DejaVuSans-74"/>
     <path d="M 8.5 21.578125 
L 8.5 54.6875 
L 17.484375 54.6875 
L 17.484375 21.921875 
Q 17.484375 14.15625 20.5 10.265625 
Q 23.53125 6.390625 29.59375 6.390625 
Q 36.859375 6.390625 41.078125 11.03125 
Q 45.3125 15.671875 45.3125 23.6875 
L 45.3125 54.6875 
L 54.296875 54.6875 
L 54.296875 0 
L 45.3125 0 
L 45.3125 8.40625 
Q 42.046875 3.421875 37.71875 1 
Q 33.40625 -1.421875 27.6875 -1.421875 
Q 18.265625 -1.421875 13.375 4.4375 
Q 8.5 10.296875 8.5 21.578125 
z
M 31.109375 56 
z
" id="DejaVuSans-117"/>
     <path d="M 44.28125 53.078125 
L 44.28125 44.578125 
Q 40.484375 46.53125 36.375 47.5 
Q 32.28125 48.484375 27.875 48.484375 
Q 21.1875 48.484375 17.84375 46.4375 
Q 14.5 44.390625 14.5 40.28125 
Q 14.5 37.15625 16.890625 35.375 
Q 19.28125 33.59375 26.515625 31.984375 
L 29.59375 31.296875 
Q 39.15625 29.25 43.1875 25.515625 
Q 47.21875 21.78125 47.21875 15.09375 
Q 47.21875 7.46875 41.1875 3.015625 
Q 35.15625 -1.421875 24.609375 -1.421875 
Q 20.21875 -1.421875 15.453125 -0.5625 
Q 10.6875 0.296875 5.421875 2 
L 5.421875 11.28125 
Q 10.40625 8.6875 15.234375 7.390625 
Q 20.0625 6.109375 24.8125 6.109375 
Q 31.15625 6.109375 34.5625 8.28125 
Q 37.984375 10.453125 37.984375 14.40625 
Q 37.984375 18.0625 35.515625 20.015625 
Q 33.0625 21.96875 24.703125 23.78125 
L 21.578125 24.515625 
Q 13.234375 26.265625 9.515625 29.90625 
Q 5.8125 33.546875 5.8125 39.890625 
Q 5.8125 47.609375 11.28125 51.796875 
Q 16.75 56 26.8125 56 
Q 31.78125 56 36.171875 55.265625 
Q 40.578125 54.546875 44.28125 53.078125 
z
" id="DejaVuSans-115"/>
     <path d="M 18.3125 70.21875 
L 18.3125 54.6875 
L 36.8125 54.6875 
L 36.8125 47.703125 
L 18.3125 47.703125 
L 18.3125 18.015625 
Q 18.3125 11.328125 20.140625 9.421875 
Q 21.96875 7.515625 27.59375 7.515625 
L 36.8125 7.515625 
L 36.8125 0 
L 27.59375 0 
Q 17.1875 0 13.234375 3.875 
Q 9.28125 7.765625 9.28125 18.015625 
L 9.28125 47.703125 
L 2.6875 47.703125 
L 2.6875 54.6875 
L 9.28125 54.6875 
L 9.28125 70.21875 
z
" id="DejaVuSans-116"/>
     <path id="DejaVuSans-32"/>
     <path d="M 9.8125 72.90625 
L 51.703125 72.90625 
L 51.703125 64.59375 
L 19.671875 64.59375 
L 19.671875 43.109375 
L 48.578125 43.109375 
L 48.578125 34.8125 
L 19.671875 34.8125 
L 19.671875 0 
L 9.8125 0 
z
" id="DejaVuSans-70"/>
     <path d="M 9.421875 54.6875 
L 18.40625 54.6875 
L 18.40625 0 
L 9.421875 0 
z
M 9.421875 75.984375 
L 18.40625 75.984375 
L 18.40625 64.59375 
L 9.421875 64.59375 
z
" id="DejaVuSans-105"/>
     <path d="M 9.421875 75.984375 
L 18.40625 75.984375 
L 18.40625 0 
L 9.421875 0 
z
" id="DejaVuSans-108"/>
     <path d="M 56.203125 29.59375 
L 56.203125 25.203125 
L 14.890625 25.203125 
Q 15.484375 15.921875 20.484375 11.0625 
Q 25.484375 6.203125 34.421875 6.203125 
Q 39.59375 6.203125 44.453125 7.46875 
Q 49.3125 8.734375 54.109375 11.28125 
L 54.109375 2.78125 
Q 49.265625 0.734375 44.1875 -0.34375 
Q 39.109375 -1.421875 33.890625 -1.421875 
Q 20.796875 -1.421875 13.15625 6.1875 
Q 5.515625 13.8125 5.515625 26.8125 
Q 5.515625 40.234375 12.765625 48.109375 
Q 20.015625 56 32.328125 56 
Q 43.359375 56 49.78125 48.890625 
Q 56.203125 41.796875 56.203125 29.59375 
z
M 47.21875 32.234375 
Q 47.125 39.59375 43.09375 43.984375 
Q 39.0625 48.390625 32.421875 48.390625 
Q 24.90625 48.390625 20.390625 44.140625 
Q 15.875 39.890625 15.1875 32.171875 
z
" id="DejaVuSans-101"/>
     <path d="M 41.109375 46.296875 
Q 39.59375 47.171875 37.8125 47.578125 
Q 36.03125 48 33.890625 48 
Q 26.265625 48 22.1875 43.046875 
Q 18.109375 38.09375 18.109375 28.8125 
L 18.109375 0 
L 9.078125 0 
L 9.078125 54.6875 
L 18.109375 54.6875 
L 18.109375 46.1875 
Q 20.953125 51.171875 25.484375 53.578125 
Q 30.03125 56 36.53125 56 
Q 37.453125 56 38.578125 55.875 
Q 39.703125 55.765625 41.0625 55.515625 
z
" id="DejaVuSans-114"/>
     <path d="M 54.890625 33.015625 
L 54.890625 0 
L 45.90625 0 
L 45.90625 32.71875 
Q 45.90625 40.484375 42.875 44.328125 
Q 39.84375 48.1875 33.796875 48.1875 
Q 26.515625 48.1875 22.3125 43.546875 
Q 18.109375 38.921875 18.109375 30.90625 
L 18.109375 0 
L 9.078125 0 
L 9.078125 75.984375 
L 18.109375 75.984375 
L 18.109375 46.1875 
Q 21.34375 51.125 25.703125 53.5625 
Q 30.078125 56 35.796875 56 
Q 45.21875 56 50.046875 50.171875 
Q 54.890625 44.34375 54.890625 33.015625 
z
" id="DejaVuSans-104"/>
     <path d="M 19.671875 64.796875 
L 19.671875 8.109375 
L 31.59375 8.109375 
Q 46.6875 8.109375 53.6875 14.9375 
Q 60.6875 21.78125 60.6875 36.53125 
Q 60.6875 51.171875 53.6875 57.984375 
Q 46.6875 64.796875 31.59375 64.796875 
z
M 9.8125 72.90625 
L 30.078125 72.90625 
Q 51.265625 72.90625 61.171875 64.09375 
Q 71.09375 55.28125 71.09375 36.53125 
Q 71.09375 17.671875 61.125 8.828125 
Q 51.171875 0 30.078125 0 
L 9.8125 0 
z
" id="DejaVuSans-68"/>
     <path d="M 34.28125 27.484375 
Q 23.390625 27.484375 19.1875 25 
Q 14.984375 22.515625 14.984375 16.5 
Q 14.984375 11.71875 18.140625 8.90625 
Q 21.296875 6.109375 26.703125 6.109375 
Q 34.1875 6.109375 38.703125 11.40625 
Q 43.21875 16.703125 43.21875 25.484375 
L 43.21875 27.484375 
z
M 52.203125 31.203125 
L 52.203125 0 
L 43.21875 0 
L 43.21875 8.296875 
Q 40.140625 3.328125 35.546875 0.953125 
Q 30.953125 -1.421875 24.3125 -1.421875 
Q 15.921875 -1.421875 10.953125 3.296875 
Q 6 8.015625 6 15.921875 
Q 6 25.140625 12.171875 29.828125 
Q 18.359375 34.515625 30.609375 34.515625 
L 43.21875 34.515625 
L 43.21875 35.40625 
Q 43.21875 41.609375 39.140625 45 
Q 35.0625 48.390625 27.6875 48.390625 
Q 23 48.390625 18.546875 47.265625 
Q 14.109375 46.140625 10.015625 43.890625 
L 10.015625 52.203125 
Q 14.9375 54.109375 19.578125 55.046875 
Q 24.21875 56 28.609375 56 
Q 40.484375 56 46.34375 49.84375 
Q 52.203125 43.703125 52.203125 31.203125 
z
" id="DejaVuSans-97"/>
     <path d="M 52 44.1875 
Q 55.375 50.25 60.0625 53.125 
Q 64.75 56 71.09375 56 
Q 79.640625 56 84.28125 50.015625 
Q 88.921875 44.046875 88.921875 33.015625 
L 88.921875 0 
L 79.890625 0 
L 79.890625 32.71875 
Q 79.890625 40.578125 77.09375 44.375 
Q 74.3125 48.1875 68.609375 48.1875 
Q 61.625 48.1875 57.5625 43.546875 
Q 53.515625 38.921875 53.515625 30.90625 
L 53.515625 0 
L 44.484375 0 
L 44.484375 32.71875 
Q 44.484375 40.625 41.703125 44.40625 
Q 38.921875 48.1875 33.109375 48.1875 
Q 26.21875 48.1875 22.15625 43.53125 
Q 18.109375 38.875 18.109375 30.90625 
L 18.109375 0 
L 9.078125 0 
L 9.078125 54.6875 
L 18.109375 54.6875 
L 18.109375 46.1875 
Q 21.1875 51.21875 25.484375 53.609375 
Q 29.78125 56 35.6875 56 
Q 41.65625 56 45.828125 52.96875 
Q 50 49.953125 52 44.1875 
z
" id="DejaVuSans-109"/>
     <path d="M 54.890625 33.015625 
L 54.890625 0 
L 45.90625 0 
L 45.90625 32.71875 
Q 45.90625 40.484375 42.875 44.328125 
Q 39.84375 48.1875 33.796875 48.1875 
Q 26.515625 48.1875 22.3125 43.546875 
Q 18.109375 38.921875 18.109375 30.90625 
L 18.109375 0 
L 9.078125 0 
L 9.078125 54.6875 
L 18.109375 54.6875 
L 18.109375 46.1875 
Q 21.34375 51.125 25.703125 53.5625 
Q 30.078125 56 35.796875 56 
Q 45.21875 56 50.046875 50.171875 
Q 54.890625 44.34375 54.890625 33.015625 
z
" id="DejaVuSans-110"/>
     <path d="M -0.296875 72.90625 
L 61.375 72.90625 
L 61.375 64.59375 
L 35.5 64.59375 
L 35.5 0 
L 25.59375 0 
L 25.59375 64.59375 
L -0.296875 64.59375 
z
" id="DejaVuSans-84"/>
     <path d="M 45.40625 27.984375 
Q 45.40625 37.75 41.375 43.109375 
Q 37.359375 48.484375 30.078125 48.484375 
Q 22.859375 48.484375 18.828125 43.109375 
Q 14.796875 37.75 14.796875 27.984375 
Q 14.796875 18.265625 18.828125 12.890625 
Q 22.859375 7.515625 30.078125 7.515625 
Q 37.359375 7.515625 41.375 12.890625 
Q 45.40625 18.265625 45.40625 27.984375 
z
M 54.390625 6.78125 
Q 54.390625 -7.171875 48.1875 -13.984375 
Q 42 -20.796875 29.203125 -20.796875 
Q 24.46875 -20.796875 20.265625 -20.09375 
Q 16.0625 -19.390625 12.109375 -17.921875 
L 12.109375 -9.1875 
Q 16.0625 -11.328125 19.921875 -12.34375 
Q 23.78125 -13.375 27.78125 -13.375 
Q 36.625 -13.375 41.015625 -8.765625 
Q 45.40625 -4.15625 45.40625 5.171875 
L 45.40625 9.625 
Q 42.625 4.78125 38.28125 2.390625 
Q 33.9375 0 27.875 0 
Q 17.828125 0 11.671875 7.65625 
Q 5.515625 15.328125 5.515625 27.984375 
Q 5.515625 40.671875 11.671875 48.328125 
Q 17.828125 56 27.875 56 
Q 33.9375 56 38.28125 53.609375 
Q 42.625 51.21875 45.40625 46.390625 
L 45.40625 54.6875 
L 54.390625 54.6875 
z
" id="DejaVuSans-103"/>
     <path d="M 4.890625 31.390625 
L 31.203125 31.390625 
L 31.203125 23.390625 
L 4.890625 23.390625 
z
" id="DejaVuSans-45"/>
     <path d="M 14.796875 27.296875 
Q 14.796875 17.390625 18.875 11.75 
Q 22.953125 6.109375 30.078125 6.109375 
Q 37.203125 6.109375 41.296875 11.75 
Q 45.40625 17.390625 45.40625 27.296875 
Q 45.40625 37.203125 41.296875 42.84375 
Q 37.203125 48.484375 30.078125 48.484375 
Q 22.953125 48.484375 18.875 42.84375 
Q 14.796875 37.203125 14.796875 27.296875 
z
M 45.40625 8.203125 
Q 42.578125 3.328125 38.25 0.953125 
Q 33.9375 -1.421875 27.875 -1.421875 
Q 17.96875 -1.421875 11.734375 6.484375 
Q 5.515625 14.40625 5.515625 27.296875 
Q 5.515625 40.1875 11.734375 48.09375 
Q 17.96875 56 27.875 56 
Q 33.9375 56 38.25 53.625 
Q 42.578125 51.265625 45.40625 46.390625 
L 45.40625 54.6875 
L 54.390625 54.6875 
L 54.390625 -20.796875 
L 45.40625 -20.796875 
z
" id="DejaVuSans-113"/>
     <path d="M 48.78125 52.59375 
L 48.78125 44.1875 
Q 44.96875 46.296875 41.140625 47.34375 
Q 37.3125 48.390625 33.40625 48.390625 
Q 24.65625 48.390625 19.8125 42.84375 
Q 14.984375 37.3125 14.984375 27.296875 
Q 14.984375 17.28125 19.8125 11.734375 
Q 24.65625 6.203125 33.40625 6.203125 
Q 37.3125 6.203125 41.140625 7.25 
Q 44.96875 8.296875 48.78125 10.40625 
L 48.78125 2.09375 
Q 45.015625 0.34375 40.984375 -0.53125 
Q 36.96875 -1.421875 32.421875 -1.421875 
Q 20.0625 -1.421875 12.78125 6.34375 
Q 5.515625 14.109375 5.515625 27.296875 
Q 5.515625 40.671875 12.859375 48.328125 
Q 20.21875 56 33.015625 56 
Q 37.15625 56 41.109375 55.140625 
Q 45.0625 54.296875 48.78125 52.59375 
z
" id="DejaVuSans-99"/>
     <path d="M 32.171875 -5.078125 
Q 28.375 -14.84375 24.75 -17.8125 
Q 21.140625 -20.796875 15.09375 -20.796875 
L 7.90625 -20.796875 
L 7.90625 -13.28125 
L 13.1875 -13.28125 
Q 16.890625 -13.28125 18.9375 -11.515625 
Q 21 -9.765625 23.484375 -3.21875 
L 25.09375 0.875 
L 2.984375 54.6875 
L 12.5 54.6875 
L 29.59375 11.921875 
L 46.6875 54.6875 
L 56.203125 54.6875 
z
" id="DejaVuSans-121"/>
     <path d="M 44.390625 34.1875 
Q 47.5625 33.109375 50.5625 29.59375 
Q 53.5625 26.078125 56.59375 19.921875 
L 66.609375 0 
L 56 0 
L 46.6875 18.703125 
Q 43.0625 26.03125 39.671875 28.421875 
Q 36.28125 30.8125 30.421875 30.8125 
L 19.671875 30.8125 
L 19.671875 0 
L 9.8125 0 
L 9.8125 72.90625 
L 32.078125 72.90625 
Q 44.578125 72.90625 50.734375 67.671875 
Q 56.890625 62.453125 56.890625 51.90625 
Q 56.890625 45.015625 53.6875 40.46875 
Q 50.484375 35.9375 44.390625 34.1875 
z
M 19.671875 64.796875 
L 19.671875 38.921875 
L 32.078125 38.921875 
Q 39.203125 38.921875 42.84375 42.21875 
Q 46.484375 45.515625 46.484375 51.90625 
Q 46.484375 58.296875 42.84375 61.546875 
Q 39.203125 64.796875 32.078125 64.796875 
z
" id="DejaVuSans-82"/>
     <path d="M 18.109375 8.203125 
L 18.109375 -20.796875 
L 9.078125 -20.796875 
L 9.078125 54.6875 
L 18.109375 54.6875 
L 18.109375 46.390625 
Q 20.953125 51.265625 25.265625 53.625 
Q 29.59375 56 35.59375 56 
Q 45.5625 56 51.78125 48.09375 
Q 58.015625 40.1875 58.015625 27.296875 
Q 58.015625 14.40625 51.78125 6.484375 
Q 45.5625 -1.421875 35.59375 -1.421875 
Q 29.59375 -1.421875 25.265625 0.953125 
Q 20.953125 3.328125 18.109375 8.203125 
z
M 48.6875 27.296875 
Q 48.6875 37.203125 44.609375 42.84375 
Q 40.53125 48.484375 33.40625 48.484375 
Q 26.265625 48.484375 22.1875 42.84375 
Q 18.109375 37.203125 18.109375 27.296875 
Q 18.109375 17.390625 22.1875 11.75 
Q 26.265625 6.109375 33.40625 6.109375 
Q 40.53125 6.109375 44.609375 11.75 
Q 48.6875 17.390625 48.6875 27.296875 
z
" id="DejaVuSans-112"/>
     <path d="M 30.609375 48.390625 
Q 23.390625 48.390625 19.1875 42.75 
Q 14.984375 37.109375 14.984375 27.296875 
Q 14.984375 17.484375 19.15625 11.84375 
Q 23.34375 6.203125 30.609375 6.203125 
Q 37.796875 6.203125 41.984375 11.859375 
Q 46.1875 17.53125 46.1875 27.296875 
Q 46.1875 37.015625 41.984375 42.703125 
Q 37.796875 48.390625 30.609375 48.390625 
z
M 30.609375 56 
Q 42.328125 56 49.015625 48.375 
Q 55.71875 40.765625 55.71875 27.296875 
Q 55.71875 13.875 49.015625 6.21875 
Q 42.328125 -1.421875 30.609375 -1.421875 
Q 18.84375 -1.421875 12.171875 6.21875 
Q 5.515625 13.875 5.515625 27.296875 
Q 5.515625 40.765625 12.171875 48.375 
Q 18.84375 56 30.609375 56 
z
" id="DejaVuSans-111"/>
    </defs>
    <g transform="translate(233.2775 18.530625)scale(0.12 -0.12)">
     <use xlink:href="#DejaVuSans-74"/>
     <use x="29.492188" xlink:href="#DejaVuSans-117"/>
     <use x="92.871094" xlink:href="#DejaVuSans-115"/>
     <use x="144.970703" xlink:href="#DejaVuSans-116"/>
     <use x="184.179688" xlink:href="#DejaVuSans-32"/>
     <use x="215.966797" xlink:href="#DejaVuSans-70"/>
     <use x="273.376953" xlink:href="#DejaVuSans-105"/>
     <use x="301.160156" xlink:href="#DejaVuSans-108"/>
     <use x="328.943359" xlink:href="#DejaVuSans-116"/>
     <use x="368.152344" xlink:href="#DejaVuSans-101"/>
     <use x="429.675781" xlink:href="#DejaVuSans-114"/>
     <use x="470.789062" xlink:href="#DejaVuSans-32"/>
     <use x="502.576172" xlink:href="#DejaVuSans-116"/>
     <use x="541.785156" xlink:href="#DejaVuSans-104"/>
     <use x="605.164062" xlink:href="#DejaVuSans-101"/>
     <use x="666.6875" xlink:href="#DejaVuSans-32"/>
     <use x="698.474609" xlink:href="#DejaVuSans-68"/>
     <use x="775.476562" xlink:href="#DejaVuSans-97"/>
     <use x="836.755859" xlink:href="#DejaVuSans-109"/>
     <use x="934.167969" xlink:href="#DejaVuSans-110"/>
     <use x="997.546875" xlink:href="#DejaVuSans-32"/>
     <use x="1029.333984" xlink:href="#DejaVuSans-84"/>
     <use x="1090.417969" xlink:href="#DejaVuSans-104"/>
     <use x="1153.796875" xlink:href="#DejaVuSans-105"/>
     <use x="1181.580078" xlink:href="#DejaVuSans-110"/>
     <use x="1244.958984" xlink:href="#DejaVuSans-103"/>
     <use x="1308.435547" xlink:href="#DejaVuSans-32"/>
     <use x="1340.222656" xlink:href="#DejaVuSans-45"/>
     <use x="1376.306641" xlink:href="#DejaVuSans-32"/>
     <use x="1408.09375" xlink:href="#DejaVuSans-70"/>
     <use x="1465.503906" xlink:href="#DejaVuSans-114"/>
     <use x="1506.585938" xlink:href="#DejaVuSans-101"/>
     <use x="1568.109375" xlink:href="#DejaVuSans-113"/>
     <use x="1631.585938" xlink:href="#DejaVuSans-117"/>
     <use x="1694.964844" xlink:href="#DejaVuSans-101"/>
     <use x="1756.488281" xlink:href="#DejaVuSans-110"/>
     <use x="1819.867188" xlink:href="#DejaVuSans-99"/>
     <use x="1874.847656" xlink:href="#DejaVuSans-121"/>
     <use x="1934.027344" xlink:href="#DejaVuSans-32"/>
     <use x="1965.814453" xlink:href="#DejaVuSans-82"/>
     <use x="2035.234375" xlink:href="#DejaVuSans-101"/>
     <use x="2096.757812" xlink:href="#DejaVuSans-112"/>
     <use x="2160.234375" xlink:href="#DejaVuSans-111"/>
     <use x="2221.416016" xlink:href="#DejaVuSans-110"/>
     <use x="2284.794922" xlink:href="#DejaVuSans-115"/>
     <use x="2336.894531" xlink:href="#DejaVuSans-101"/>
    </g>
    <!-- 2216 Taps -->
    <g transform="translate(345.741875 31.968)scale(0.12 -0.12)">
     <use xlink:href="#DejaVuSans-50"/>
     <use x="63.623047" xlink:href="#DejaVuSans-50"/>
     <use x="127.246094" xlink:href="#DejaVuSans-49"/>
     <use x="190.869141" xlink:href="#DejaVuSans-54"/>
     <use x="254.492188" xlink:href="#DejaVuSans-32"/>
     <use x="286.279297" xlink:href="#DejaVuSans-84"/>
     <use x="347.113281" xlink:href="#DejaVuSans-97"/>
     <use x="408.392578" xlink:href="#DejaVuSans-112"/>
     <use x="471.869141" xlink:href="#DejaVuSans-115"/>
    </g>
   </g>
  </g>
 </g>
 <defs>
  <clipPath id="p9c2bb8f31e">
   <rect height="222.152" width="664.04" x="45.16" y="37.968"/>
  </clipPath>
 </defs>
</svg>
