<?xml version="1.0" encoding="utf-8" standalone="no"?>
<!DOCTYPE svg PUBLIC "-//W3C//DTD SVG 1.1//EN"
  "http://www.w3.org/Graphics/SVG/1.1/DTD/svg11.dtd">
<svg xmlns:xlink="http://www.w3.org/1999/xlink" width="576pt" height="648pt" viewBox="0 0 576 648" xmlns="http://www.w3.org/2000/svg" version="1.1">
 <metadata>
  <rdf:RDF xmlns:dc="http://purl.org/dc/elements/1.1/" xmlns:cc="http://creativecommons.org/ns#" xmlns:rdf="http://www.w3.org/1999/02/22-rdf-syntax-ns#">
   <cc:Work>
    <dc:type rdf:resource="http://purl.org/dc/dcmitype/StillImage"/>
    <dc:date>2026-02-16T17:54:19.586491</dc:date>
    <dc:format>image/svg+xml</dc:format>
    <dc:creator>
     <cc:Agent>
      <dc:title>Matplotlib v3.10.8, https://matplotlib.org/</dc:title>
     </cc:Agent>
    </dc:creator>
   </cc:Work>
  </rdf:RDF>
 </metadata>
 <defs>
  <style type="text/css">*{stroke-linejoin: round; stroke-linecap: butt}</style>
 </defs>
 <g id="figure_1">
  <g id="patch_1">
   <path d="M 0 648 
L 576 648 
L 576 0 
L 0 0 
z
" style="fill: #ffffff"/>
  </g>
  <g id="axes_1">
   <g id="patch_2">
    <path d="M 52.985 181.24 
L 565.2 181.24 
L 565.2 26.16 
L 52.985 26.16 
z
" style="fill: #ffffff"/>
   </g>
   <g id="matplotlib.axis_1">
    <g id="xtick_1">
     <g id="line2d_1">
      <path d="M 103.202157 181.24 
L 103.202157 26.16 
" clip-path="url(#p548710928d)" style="fill: none; stroke: #b0b0b0; stroke-width: 0.8; stroke-linecap: square"/>
     </g>
     <g id="line2d_2">
      <defs>
       <path id="m5eac29c478" d="M 0 0 
L 0 3.5 
" style="stroke: #000000; stroke-width: 0.8"/>
      </defs>
      <g>
       <use xlink:href="#m5eac29c478" x="103.202157" y="181.24" style="stroke: #000000; stroke-width: 0.8"/>
      </g>
     </g>
     <g id="text_1">
      <!-- −4 -->
      <g transform="translate(95.831063 195.838437) scale(0.1 -0.1)">
       <defs>
        <path id="DejaVuSans-2212" d="M 678 2272 
L 4684 2272 
L 4684 1741 
L 678 1741 
L 678 2272 
z
" transform="scale(0.015625)"/>
        <path id="DejaVuSans-34" d="M 2419 4116 
L 825 1625 
L 2419 1625 
L 2419 4116 
z
M 2253 4666 
L 3047 4666 
L 3047 1625 
L 3713 1625 
L 3713 1100 
L 3047 1100 
L 3047 0 
L 2419 0 
L 2419 1100 
L 313 1100 
L 313 1709 
L 2253 4666 
z
" transform="scale(0.015625)"/>
       </defs>
       <use xlink:href="#DejaVuSans-2212"/>
       <use xlink:href="#DejaVuSans-34" transform="translate(83.789062 0)"/>
      </g>
     </g>
    </g>
    <g id="xtick_2">
     <g id="line2d_3">
      <path d="M 206.147328 181.24 
L 206.147328 26.16 
" clip-path="url(#p548710928d)" style="fill: none; stroke: #b0b0b0; stroke-width: 0.8; stroke-linecap: square"/>
     </g>
     <g id="line2d_4">
      <g>
       <use xlink:href="#m5eac29c478" x="206.147328" y="181.24" style="stroke: #000000; stroke-width: 0.8"/>
      </g>
     </g>
     <g id="text_2">
      <!-- −2 -->
      <g transform="translate(198.776235 195.838437) scale(0.1 -0.1)">
       <defs>
        <path id="DejaVuSans-32" d="M 1228 531 
L 3431 531 
L 3431 0 
L 469 0 
L 469 531 
Q 828 903 1448 1529 
Q 2069 2156 2228 2338 
Q 2531 2678 2651 2914 
Q 2772 3150 2772 3378 
Q 2772 3750 2511 3984 
Q 2250 4219 1831 4219 
Q 1534 4219 1204 4116 
Q 875 4013 500 3803 
L 500 4441 
Q 881 4594 1212 4672 
Q 1544 4750 1819 4750 
Q 2544 4750 2975 4387 
Q 3406 4025 3406 3419 
Q 3406 3131 3298 2873 
Q 3191 2616 2906 2266 
Q 2828 2175 2409 1742 
Q 1991 1309 1228 531 
z
" transform="scale(0.015625)"/>
       </defs>
       <use xlink:href="#DejaVuSans-2212"/>
       <use xlink:href="#DejaVuSans-32" transform="translate(83.789062 0)"/>
      </g>
     </g>
    </g>
    <g id="xtick_3">
     <g id="line2d_5">
      <path d="M 309.0925 181.24 
L 309.0925 26.16 
" clip-path="url(#p548710928d)" style="fill: none; stroke: #b0b0b0; stroke-width: 0.8; stroke-linecap: square"/>
     </g>
     <g id="line2d_6">
      <g>
       <use xlink:href="#m5eac29c478" x="309.0925" y="181.24" style="stroke: #000000; stroke-width: 0.8"/>
      </g>
     </g>
     <g id="text_3">
      <!-- 0 -->
      <g transform="translate(305.91125 195.838437) scale(0.1 -0.1)">
       <defs>
        <path id="DejaVuSans-30" d="M 2034 4250 
Q 1547 4250 1301 3770 
Q 1056 3291 1056 2328 
Q 1056 1369 1301 889 
Q 1547 409 2034 409 
Q 2525 409 2770 889 
Q 3016 1369 3016 2328 
Q 3016 3291 2770 3770 
Q 2525 4250 2034 4250 
z
M 2034 4750 
Q 2819 4750 3233 4129 
Q 3647 3509 3647 2328 
Q 3647 1150 3233 529 
Q 2819 -91 2034 -91 
Q 1250 -91 836 529 
Q 422 1150 422 2328 
Q 422 3509 836 4129 
Q 1250 4750 2034 4750 
z
" transform="scale(0.015625)"/>
       </defs>
       <use xlink:href="#DejaVuSans-30"/>
      </g>
     </g>
    </g>
    <g id="xtick_4">
     <g id="line2d_7">
      <path d="M 412.037672 181.24 
L 412.037672 26.16 
" clip-path="url(#p548710928d)" style="fill: none; stroke: #b0b0b0; stroke-width: 0.8; stroke-linecap: square"/>
     </g>
     <g id="line2d_8">
      <g>
       <use xlink:href="#m5eac29c478" x="412.037672" y="181.24" style="stroke: #000000; stroke-width: 0.8"/>
      </g>
     </g>
     <g id="text_4">
      <!-- 2 -->
      <g transform="translate(408.856422 195.838437) scale(0.1 -0.1)">
       <use xlink:href="#DejaVuSans-32"/>
      </g>
     </g>
    </g>
    <g id="xtick_5">
     <g id="line2d_9">
      <path d="M 514.982843 181.24 
L 514.982843 26.16 
" clip-path="url(#p548710928d)" style="fill: none; stroke: #b0b0b0; stroke-width: 0.8; stroke-linecap: square"/>
     </g>
     <g id="line2d_10">
      <g>
       <use xlink:href="#m5eac29c478" x="514.982843" y="181.24" style="stroke: #000000; stroke-width: 0.8"/>
      </g>
     </g>
     <g id="text_5">
      <!-- 4 -->
      <g transform="translate(511.801593 195.838437) scale(0.1 -0.1)">
       <use xlink:href="#DejaVuSans-34"/>
      </g>
     </g>
    </g>
    <g id="text_6">
     <!-- Frequency (MHz) -->
     <g transform="translate(267.07375 209.516563) scale(0.1 -0.1)">
      <defs>
       <path id="DejaVuSans-46" d="M 628 4666 
L 3309 4666 
L 3309 4134 
L 1259 4134 
L 1259 2759 
L 3109 2759 
L 3109 2228 
L 1259 2228 
L 1259 0 
L 628 0 
L 628 4666 
z
" transform="scale(0.015625)"/>
       <path id="DejaVuSans-72" d="M 2631 2963 
Q 2534 3019 2420 3045 
Q 2306 3072 2169 3072 
Q 1681 3072 1420 2755 
Q 1159 2438 1159 1844 
L 1159 0 
L 581 0 
L 581 3500 
L 1159 3500 
L 1159 2956 
Q 1341 3275 1631 3429 
Q 1922 3584 2338 3584 
Q 2397 3584 2469 3576 
Q 2541 3569 2628 3553 
L 2631 2963 
z
" transform="scale(0.015625)"/>
       <path id="DejaVuSans-65" d="M 3597 1894 
L 3597 1613 
L 953 1613 
Q 991 1019 1311 708 
Q 1631 397 2203 397 
Q 2534 397 2845 478 
Q 3156 559 3463 722 
L 3463 178 
Q 3153 47 2828 -22 
Q 2503 -91 2169 -91 
Q 1331 -91 842 396 
Q 353 884 353 1716 
Q 353 2575 817 3079 
Q 1281 3584 2069 3584 
Q 2775 3584 3186 3129 
Q 3597 2675 3597 1894 
z
M 3022 2063 
Q 3016 2534 2758 2815 
Q 2500 3097 2075 3097 
Q 1594 3097 1305 2825 
Q 1016 2553 972 2059 
L 3022 2063 
z
" transform="scale(0.015625)"/>
       <path id="DejaVuSans-71" d="M 947 1747 
Q 947 1113 1208 752 
Q 1469 391 1925 391 
Q 2381 391 2643 752 
Q 2906 1113 2906 1747 
Q 2906 2381 2643 2742 
Q 2381 3103 1925 3103 
Q 1469 3103 1208 2742 
Q 947 2381 947 1747 
z
M 2906 525 
Q 2725 213 2448 61 
Q 2172 -91 1784 -91 
Q 1150 -91 751 415 
Q 353 922 353 1747 
Q 353 2572 751 3078 
Q 1150 3584 1784 3584 
Q 2172 3584 2448 3432 
Q 2725 3281 2906 2969 
L 2906 3500 
L 3481 3500 
L 3481 -1331 
L 2906 -1331 
L 2906 525 
z
" transform="scale(0.015625)"/>
       <path id="DejaVuSans-75" d="M 544 1381 
L 544 3500 
L 1119 3500 
L 1119 1403 
Q 1119 906 1312 657 
Q 1506 409 1894 409 
Q 2359 409 2629 706 
Q 2900 1003 2900 1516 
L 2900 3500 
L 3475 3500 
L 3475 0 
L 2900 0 
L 2900 538 
Q 2691 219 2414 64 
Q 2138 -91 1772 -91 
Q 1169 -91 856 284 
Q 544 659 544 1381 
z
M 1991 3584 
L 1991 3584 
z
" transform="scale(0.015625)"/>
       <path id="DejaVuSans-6e" d="M 3513 2113 
L 3513 0 
L 2938 0 
L 2938 2094 
Q 2938 2591 2744 2837 
Q 2550 3084 2163 3084 
Q 1697 3084 1428 2787 
Q 1159 2491 1159 1978 
L 1159 0 
L 581 0 
L 581 3500 
L 1159 3500 
L 1159 2956 
Q 1366 3272 1645 3428 
Q 1925 3584 2291 3584 
Q 2894 3584 3203 3211 
Q 3513 2838 3513 2113 
z
" transform="scale(0.015625)"/>
       <path id="DejaVuSans-63" d="M 3122 3366 
L 3122 2828 
Q 2878 2963 2633 3030 
Q 2388 3097 2138 3097 
Q 1578 3097 1268 2742 
Q 959 2388 959 1747 
Q 959 1106 1268 751 
Q 1578 397 2138 397 
Q 2388 397 2633 464 
Q 2878 531 3122 666 
L 3122 134 
Q 2881 22 2623 -34 
Q 2366 -91 2075 -91 
Q 1284 -91 818 406 
Q 353 903 353 1747 
Q 353 2603 823 3093 
Q 1294 3584 2113 3584 
Q 2378 3584 2631 3529 
Q 2884 3475 3122 3366 
z
" transform="scale(0.015625)"/>
       <path id="DejaVuSans-79" d="M 2059 -325 
Q 1816 -950 1584 -1140 
Q 1353 -1331 966 -1331 
L 506 -1331 
L 506 -850 
L 844 -850 
Q 1081 -850 1212 -737 
Q 1344 -625 1503 -206 
L 1606 56 
L 191 3500 
L 800 3500 
L 1894 763 
L 2988 3500 
L 3597 3500 
L 2059 -325 
z
" transform="scale(0.015625)"/>
       <path id="DejaVuSans-20" transform="scale(0.015625)"/>
       <path id="DejaVuSans-28" d="M 1984 4856 
Q 1566 4138 1362 3434 
Q 1159 2731 1159 2009 
Q 1159 1288 1364 580 
Q 1569 -128 1984 -844 
L 1484 -844 
Q 1016 -109 783 600 
Q 550 1309 550 2009 
Q 550 2706 781 3412 
Q 1013 4119 1484 4856 
L 1984 4856 
z
" transform="scale(0.015625)"/>
       <path id="DejaVuSans-4d" d="M 628 4666 
L 1569 4666 
L 2759 1491 
L 3956 4666 
L 4897 4666 
L 4897 0 
L 4281 0 
L 4281 4097 
L 3078 897 
L 2444 897 
L 1241 4097 
L 1241 0 
L 628 0 
L 628 4666 
z
" transform="scale(0.015625)"/>
       <path id="DejaVuSans-48" d="M 628 4666 
L 1259 4666 
L 1259 2753 
L 3553 2753 
L 3553 4666 
L 4184 4666 
L 4184 0 
L 3553 0 
L 3553 2222 
L 1259 2222 
L 1259 0 
L 628 0 
L 628 4666 
z
" transform="scale(0.015625)"/>
       <path id="DejaVuSans-7a" d="M 353 3500 
L 3084 3500 
L 3084 2975 
L 922 459 
L 3084 459 
L 3084 0 
L 275 0 
L 275 525 
L 2438 3041 
L 353 3041 
L 353 3500 
z
" transform="scale(0.015625)"/>
       <path id="DejaVuSans-29" d="M 513 4856 
L 1013 4856 
Q 1481 4119 1714 3412 
Q 1947 2706 1947 2009 
Q 1947 1309 1714 600 
Q 1481 -109 1013 -844 
L 513 -844 
Q 928 -128 1133 580 
Q 1338 1288 1338 2009 
Q 1338 2731 1133 3434 
Q 928 4138 513 4856 
z
" transform="scale(0.015625)"/>
      </defs>
      <use xlink:href="#DejaVuSans-46"/>
      <use xlink:href="#DejaVuSans-72" transform="translate(50.269531 0)"/>
      <use xlink:href="#DejaVuSans-65" transform="translate(89.132812 0)"/>
      <use xlink:href="#DejaVuSans-71" transform="translate(150.65625 0)"/>
      <use xlink:href="#DejaVuSans-75" transform="translate(214.132812 0)"/>
      <use xlink:href="#DejaVuSans-65" transform="translate(277.511719 0)"/>
      <use xlink:href="#DejaVuSans-6e" transform="translate(339.035156 0)"/>
      <use xlink:href="#DejaVuSans-63" transform="translate(402.414062 0)"/>
      <use xlink:href="#DejaVuSans-79" transform="translate(457.394531 0)"/>
      <use xlink:href="#DejaVuSans-20" transform="translate(516.574219 0)"/>
      <use xlink:href="#DejaVuSans-28" transform="translate(548.361328 0)"/>
      <use xlink:href="#DejaVuSans-4d" transform="translate(587.375 0)"/>
      <use xlink:href="#DejaVuSans-48" transform="translate(673.654297 0)"/>
      <use xlink:href="#DejaVuSans-7a" transform="translate(748.849609 0)"/>
      <use xlink:href="#DejaVuSans-29" transform="translate(801.339844 0)"/>
     </g>
    </g>
   </g>
   <g id="matplotlib.axis_2">
    <g id="ytick_1">
     <g id="line2d_11">
      <path d="M 52.985 181.24 
L 565.2 181.24 
" clip-path="url(#p548710928d)" style="fill: none; stroke: #b0b0b0; stroke-width: 0.8; stroke-linecap: square"/>
     </g>
     <g id="line2d_12">
      <defs>
       <path id="m2485a92eab" d="M 0 0 
L -3.5 0 
" style="stroke: #000000; stroke-width: 0.8"/>
      </defs>
      <g>
       <use xlink:href="#m2485a92eab" x="52.985" y="181.24" style="stroke: #000000; stroke-width: 0.8"/>
      </g>
     </g>
     <g id="text_7">
      <!-- −80 -->
      <g transform="translate(24.880313 185.039219) scale(0.1 -0.1)">
       <defs>
        <path id="DejaVuSans-38" d="M 2034 2216 
Q 1584 2216 1326 1975 
Q 1069 1734 1069 1313 
Q 1069 891 1326 650 
Q 1584 409 2034 409 
Q 2484 409 2743 651 
Q 3003 894 3003 1313 
Q 3003 1734 2745 1975 
Q 2488 2216 2034 2216 
z
M 1403 2484 
Q 997 2584 770 2862 
Q 544 3141 544 3541 
Q 544 4100 942 4425 
Q 1341 4750 2034 4750 
Q 2731 4750 3128 4425 
Q 3525 4100 3525 3541 
Q 3525 3141 3298 2862 
Q 3072 2584 2669 2484 
Q 3125 2378 3379 2068 
Q 3634 1759 3634 1313 
Q 3634 634 3220 271 
Q 2806 -91 2034 -91 
Q 1263 -91 848 271 
Q 434 634 434 1313 
Q 434 1759 690 2068 
Q 947 2378 1403 2484 
z
M 1172 3481 
Q 1172 3119 1398 2916 
Q 1625 2713 2034 2713 
Q 2441 2713 2670 2916 
Q 2900 3119 2900 3481 
Q 2900 3844 2670 4047 
Q 2441 4250 2034 4250 
Q 1625 4250 1398 4047 
Q 1172 3844 1172 3481 
z
" transform="scale(0.015625)"/>
       </defs>
       <use xlink:href="#DejaVuSans-2212"/>
       <use xlink:href="#DejaVuSans-38" transform="translate(83.789062 0)"/>
       <use xlink:href="#DejaVuSans-30" transform="translate(147.412109 0)"/>
      </g>
     </g>
    </g>
    <g id="ytick_2">
     <g id="line2d_13">
      <path d="M 52.985 144.750588 
L 565.2 144.750588 
" clip-path="url(#p548710928d)" style="fill: none; stroke: #b0b0b0; stroke-width: 0.8; stroke-linecap: square"/>
     </g>
     <g id="line2d_14">
      <g>
       <use xlink:href="#m2485a92eab" x="52.985" y="144.750588" style="stroke: #000000; stroke-width: 0.8"/>
      </g>
     </g>
     <g id="text_8">
      <!-- −60 -->
      <g transform="translate(24.880313 148.549807) scale(0.1 -0.1)">
       <defs>
        <path id="DejaVuSans-36" d="M 2113 2584 
Q 1688 2584 1439 2293 
Q 1191 2003 1191 1497 
Q 1191 994 1439 701 
Q 1688 409 2113 409 
Q 2538 409 2786 701 
Q 3034 994 3034 1497 
Q 3034 2003 2786 2293 
Q 2538 2584 2113 2584 
z
M 3366 4563 
L 3366 3988 
Q 3128 4100 2886 4159 
Q 2644 4219 2406 4219 
Q 1781 4219 1451 3797 
Q 1122 3375 1075 2522 
Q 1259 2794 1537 2939 
Q 1816 3084 2150 3084 
Q 2853 3084 3261 2657 
Q 3669 2231 3669 1497 
Q 3669 778 3244 343 
Q 2819 -91 2113 -91 
Q 1303 -91 875 529 
Q 447 1150 447 2328 
Q 447 3434 972 4092 
Q 1497 4750 2381 4750 
Q 2619 4750 2861 4703 
Q 3103 4656 3366 4563 
z
" transform="scale(0.015625)"/>
       </defs>
       <use xlink:href="#DejaVuSans-2212"/>
       <use xlink:href="#DejaVuSans-36" transform="translate(83.789062 0)"/>
       <use xlink:href="#DejaVuSans-30" transform="translate(147.412109 0)"/>
      </g>
     </g>
    </g>
    <g id="ytick_3">
     <g id="line2d_15">
      <path d="M 52.985 108.261176 
L 565.2 108.261176 
" clip-path="url(#p548710928d)" style="fill: none; stroke: #b0b0b0; stroke-width: 0.8; stroke-linecap: square"/>
     </g>
     <g id="line2d_16">
      <g>
       <use xlink:href="#m2485a92eab" x="52.985" y="108.261176" style="stroke: #000000; stroke-width: 0.8"/>
      </g>
     </g>
     <g id="text_9">
      <!-- −40 -->
      <g transform="translate(24.880313 112.060395) scale(0.1 -0.1)">
       <use xlink:href="#DejaVuSans-2212"/>
       <use xlink:href="#DejaVuSans-34" transform="translate(83.789062 0)"/>
       <use xlink:href="#DejaVuSans-30" transform="translate(147.412109 0)"/>
      </g>
     </g>
    </g>
    <g id="ytick_4">
     <g id="line2d_17">
      <path d="M 52.985 71.771765 
L 565.2 71.771765 
" clip-path="url(#p548710928d)" style="fill: none; stroke: #b0b0b0; stroke-width: 0.8; stroke-linecap: square"/>
     </g>
     <g id="line2d_18">
      <g>
       <use xlink:href="#m2485a92eab" x="52.985" y="71.771765" style="stroke: #000000; stroke-width: 0.8"/>
      </g>
     </g>
     <g id="text_10">
      <!-- −20 -->
      <g transform="translate(24.880313 75.570983) scale(0.1 -0.1)">
       <use xlink:href="#DejaVuSans-2212"/>
       <use xlink:href="#DejaVuSans-32" transform="translate(83.789062 0)"/>
       <use xlink:href="#DejaVuSans-30" transform="translate(147.412109 0)"/>
      </g>
     </g>
    </g>
    <g id="ytick_5">
     <g id="line2d_19">
      <path d="M 52.985 35.282353 
L 565.2 35.282353 
" clip-path="url(#p548710928d)" style="fill: none; stroke: #b0b0b0; stroke-width: 0.8; stroke-linecap: square"/>
     </g>
     <g id="line2d_20">
      <g>
       <use xlink:href="#m2485a92eab" x="52.985" y="35.282353" style="stroke: #000000; stroke-width: 0.8"/>
      </g>
     </g>
     <g id="text_11">
      <!-- 0 -->
      <g transform="translate(39.6225 39.081572) scale(0.1 -0.1)">
       <use xlink:href="#DejaVuSans-30"/>
      </g>
     </g>
    </g>
    <g id="text_12">
     <!-- Magnitude (dB) -->
     <g transform="translate(18.800625 142.285156) rotate(-90) scale(0.1 -0.1)">
      <defs>
       <path id="DejaVuSans-61" d="M 2194 1759 
Q 1497 1759 1228 1600 
Q 959 1441 959 1056 
Q 959 750 1161 570 
Q 1363 391 1709 391 
Q 2188 391 2477 730 
Q 2766 1069 2766 1631 
L 2766 1759 
L 2194 1759 
z
M 3341 1997 
L 3341 0 
L 2766 0 
L 2766 531 
Q 2569 213 2275 61 
Q 1981 -91 1556 -91 
Q 1019 -91 701 211 
Q 384 513 384 1019 
Q 384 1609 779 1909 
Q 1175 2209 1959 2209 
L 2766 2209 
L 2766 2266 
Q 2766 2663 2505 2880 
Q 2244 3097 1772 3097 
Q 1472 3097 1187 3025 
Q 903 2953 641 2809 
L 641 3341 
Q 956 3463 1253 3523 
Q 1550 3584 1831 3584 
Q 2591 3584 2966 3190 
Q 3341 2797 3341 1997 
z
" transform="scale(0.015625)"/>
       <path id="DejaVuSans-67" d="M 2906 1791 
Q 2906 2416 2648 2759 
Q 2391 3103 1925 3103 
Q 1463 3103 1205 2759 
Q 947 2416 947 1791 
Q 947 1169 1205 825 
Q 1463 481 1925 481 
Q 2391 481 2648 825 
Q 2906 1169 2906 1791 
z
M 3481 434 
Q 3481 -459 3084 -895 
Q 2688 -1331 1869 -1331 
Q 1566 -1331 1297 -1286 
Q 1028 -1241 775 -1147 
L 775 -588 
Q 1028 -725 1275 -790 
Q 1522 -856 1778 -856 
Q 2344 -856 2625 -561 
Q 2906 -266 2906 331 
L 2906 616 
Q 2728 306 2450 153 
Q 2172 0 1784 0 
Q 1141 0 747 490 
Q 353 981 353 1791 
Q 353 2603 747 3093 
Q 1141 3584 1784 3584 
Q 2172 3584 2450 3431 
Q 2728 3278 2906 2969 
L 2906 3500 
L 3481 3500 
L 3481 434 
z
" transform="scale(0.015625)"/>
       <path id="DejaVuSans-69" d="M 603 3500 
L 1178 3500 
L 1178 0 
L 603 0 
L 603 3500 
z
M 603 4863 
L 1178 4863 
L 1178 4134 
L 603 4134 
L 603 4863 
z
" transform="scale(0.015625)"/>
       <path id="DejaVuSans-74" d="M 1172 4494 
L 1172 3500 
L 2356 3500 
L 2356 3053 
L 1172 3053 
L 1172 1153 
Q 1172 725 1289 603 
Q 1406 481 1766 481 
L 2356 481 
L 2356 0 
L 1766 0 
Q 1100 0 847 248 
Q 594 497 594 1153 
L 594 3053 
L 172 3053 
L 172 3500 
L 594 3500 
L 594 4494 
L 1172 4494 
z
" transform="scale(0.015625)"/>
       <path id="DejaVuSans-64" d="M 2906 2969 
L 2906 4863 
L 3481 4863 
L 3481 0 
L 2906 0 
L 2906 525 
Q 2725 213 2448 61 
Q 2172 -91 1784 -91 
Q 1150 -91 751 415 
Q 353 922 353 1747 
Q 353 2572 751 3078 
Q 1150 3584 1784 3584 
Q 2172 3584 2448 3432 
Q 2725 3281 2906 2969 
z
M 947 1747 
Q 947 1113 1208 752 
Q 1469 391 1925 391 
Q 2381 391 2643 752 
Q 2906 1113 2906 1747 
Q 2906 2381 2643 2742 
Q 2381 3103 1925 3103 
Q 1469 3103 1208 2742 
Q 947 2381 947 1747 
z
" transform="scale(0.015625)"/>
       <path id="DejaVuSans-42" d="M 1259 2228 
L 1259 519 
L 2272 519 
Q 2781 519 3026 730 
Q 3272 941 3272 1375 
Q 3272 1813 3026 2020 
Q 2781 2228 2272 2228 
L 1259 2228 
z
M 1259 4147 
L 1259 2741 
L 2194 2741 
Q 2656 2741 2882 2914 
Q 3109 3088 3109 3444 
Q 3109 3797 2882 3972 
Q 2656 4147 2194 4147 
L 1259 4147 
z
M 628 4666 
L 2241 4666 
Q 2963 4666 3353 4366 
Q 3744 4066 3744 3513 
Q 3744 3084 3544 2831 
Q 3344 2578 2956 2516 
Q 3422 2416 3680 2098 
Q 3938 1781 3938 1306 
Q 3938 681 3513 340 
Q 3088 0 2303 0 
L 628 0 
L 628 4666 
z
" transform="scale(0.015625)"/>
      </defs>
      <use xlink:href="#DejaVuSans-4d"/>
      <use xlink:href="#DejaVuSans-61" transform="translate(86.279297 0)"/>
      <use xlink:href="#DejaVuSans-67" transform="translate(147.558594 0)"/>
      <use xlink:href="#DejaVuSans-6e" transform="translate(211.035156 0)"/>
      <use xlink:href="#DejaVuSans-69" transform="translate(274.414062 0)"/>
      <use xlink:href="#DejaVuSans-74" transform="translate(302.197266 0)"/>
      <use xlink:href="#DejaVuSans-75" transform="translate(341.40625 0)"/>
      <use xlink:href="#DejaVuSans-64" transform="translate(404.785156 0)"/>
      <use xlink:href="#DejaVuSans-65" transform="translate(468.261719 0)"/>
      <use xlink:href="#DejaVuSans-20" transform="translate(529.785156 0)"/>
      <use xlink:href="#DejaVuSans-28" transform="translate(561.572266 0)"/>
      <use xlink:href="#DejaVuSans-64" transform="translate(600.585938 0)"/>
      <use xlink:href="#DejaVuSans-42" transform="translate(664.0625 0)"/>
      <use xlink:href="#DejaVuSans-29" transform="translate(732.666016 0)"/>
     </g>
    </g>
   </g>
   <g id="line2d_21">
    <path d="M 52.985 126.380221 
L 55.495858 142.888941 
L 58.006716 127.365995 
L 60.517574 115.772852 
L 63.028431 115.799901 
L 65.539289 120.094791 
L 68.050147 116.981457 
L 70.561005 112.862595 
L 73.071863 118.766216 
L 75.582721 139.391457 
L 78.093578 119.331066 
L 80.604436 116.611185 
L 83.115294 120.846724 
L 85.626152 117.5399 
L 88.13701 111.321661 
L 90.647868 111.661064 
L 93.158725 115.862982 
L 95.669583 115.735375 
L 98.180441 119.607057 
L 100.691299 125.611511 
L 103.202157 122.142967 
L 105.713015 115.303925 
L 108.223873 107.087434 
L 110.73473 104.048931 
L 113.245588 107.5105 
L 115.756446 111.377252 
L 118.267304 109.062473 
L 120.778162 107.291449 
L 123.28902 107.632374 
L 125.799877 111.041103 
L 128.310735 124.827942 
L 130.821593 115.308306 
L 133.332451 112.680449 
L 135.843309 116.267102 
L 138.354167 122.144152 
L 140.865025 127.31334 
L 143.375882 130.931657 
L 145.88674 135.552619 
L 148.397598 132.853629 
L 150.908456 112.12975 
L 153.419314 108.428972 
L 155.930172 118.061656 
L 158.441029 123.007018 
L 160.951887 113.816104 
L 163.462745 111.479688 
L 165.973603 113.202364 
L 168.484461 127.456492 
L 170.995319 112.125464 
L 173.506176 106.986176 
L 176.017034 116.629302 
L 178.527892 143.859983 
L 181.03875 134.186463 
L 183.549608 119.543338 
L 186.060466 110.993857 
L 188.571324 110.871687 
L 191.082181 113.302747 
L 193.593039 113.58982 
L 196.103897 110.573895 
L 198.614755 111.74531 
L 201.125613 128.697453 
L 203.636471 132.10383 
L 206.147328 125.070109 
L 208.658186 117.239807 
L 211.169044 114.08759 
L 213.679902 115.251047 
L 216.19076 120.057257 
L 218.701618 134.971813 
L 221.212475 147.672876 
L 223.723333 127.525085 
L 226.234191 118.262687 
L 228.745049 121.858746 
L 231.255907 139.50752 
L 233.766765 139.401477 
L 236.277623 132.118975 
L 238.78848 120.412487 
L 241.299338 112.851167 
L 243.810196 107.565475 
L 246.321054 103.175522 
L 248.831912 102.220885 
L 251.34277 107.048237 
L 253.853627 115.080782 
L 256.364485 112.987065 
L 258.875343 110.367147 
L 261.386201 118.520747 
L 263.897059 140.112362 
L 266.407917 118.375147 
L 268.918775 115.152639 
L 271.429632 117.776428 
L 273.94049 128.938283 
L 276.451348 143.300351 
L 278.962206 129.767098 
L 281.473064 118.678908 
L 283.983922 114.625773 
L 286.494779 121.43972 
L 289.005637 126.303746 
L 291.516495 108.550798 
L 294.027353 108.95367 
L 296.538211 113.353639 
L 299.049069 110.926362 
L 301.559926 109.735222 
L 304.070784 108.738631 
L 306.581642 108.845888 
L 309.0925 111.032377 
L 311.603358 118.882156 
L 314.114216 147.308133 
L 316.625074 121.163471 
L 319.135931 111.182636 
L 321.646789 112.742355 
L 324.157647 110.897295 
L 326.668505 104.69506 
L 329.179363 104.498313 
L 331.690221 111.044799 
L 334.201078 129.591373 
L 336.711936 118.134469 
L 339.222794 114.245856 
L 341.733652 119.984108 
L 344.24451 120.878058 
L 346.755368 113.800575 
L 349.266225 113.834901 
L 351.777083 119.486937 
L 354.287941 127.49356 
L 356.798799 130.029373 
L 361.820515 115.51109 
L 364.331373 113.920335 
L 366.84223 117.871334 
L 369.353088 118.714771 
L 371.863946 117.416818 
L 374.374804 119.407985 
L 376.885662 122.322008 
L 379.39652 146.166289 
L 381.907377 121.809701 
L 384.418235 112.352453 
L 386.929093 114.266082 
L 389.439951 118.434261 
L 391.950809 112.832574 
L 394.461667 111.3846 
L 396.972525 117.413906 
L 399.483382 143.658755 
L 401.99424 118.241182 
L 404.505098 107.865145 
L 407.015956 106.080734 
L 409.526814 111.568864 
L 412.037672 123.945759 
L 414.548529 128.089943 
L 417.059387 122.222437 
L 419.570245 128.979062 
L 422.081103 125.918729 
L 424.591961 120.03674 
L 427.102819 123.794531 
L 429.613676 118.271057 
L 432.124534 121.582987 
L 434.635392 150.116384 
L 437.14625 138.613962 
L 439.657108 142.614427 
L 442.167966 126.370219 
L 444.678824 120.672244 
L 447.189681 120.766633 
L 449.700539 123.626286 
L 452.211397 121.755897 
L 454.722255 113.58929 
L 457.233113 110.232815 
L 459.743971 112.554304 
L 462.254828 115.364216 
L 464.765686 111.293215 
L 467.276544 108.062083 
L 469.787402 109.118581 
L 472.29826 111.186122 
L 474.809118 112.410802 
L 477.319975 112.264216 
L 479.830833 112.498997 
L 482.341691 117.279742 
L 484.852549 120.226951 
L 487.363407 116.758341 
L 489.874265 119.105156 
L 492.385123 121.042802 
L 494.89598 124.061671 
L 497.406838 134.357658 
L 499.917696 134.029852 
L 502.428554 129.796316 
L 504.939412 120.859278 
L 507.45027 115.558435 
L 509.961127 118.032753 
L 512.471985 121.608916 
L 514.982843 119.93161 
L 517.493701 118.57568 
L 520.004559 124.439307 
L 522.515417 157.024186 
L 525.026275 123.626748 
L 527.537132 111.708291 
L 530.04799 108.617731 
L 532.558848 110.834433 
L 535.069706 116.666026 
L 537.580564 124.107019 
L 540.091422 123.588981 
L 542.602279 116.212207 
L 545.113137 112.662689 
L 547.623995 115.037621 
L 550.134853 124.944519 
L 552.645711 150.499783 
L 555.156569 134.75929 
L 557.667426 121.188327 
L 560.178284 118.223731 
L 562.689142 123.214902 
L 565.2 126.018066 
L 565.2 126.018066 
" clip-path="url(#p548710928d)" style="fill: none; stroke: #1f77b4; stroke-width: 1.5; stroke-linecap: square"/>
   </g>
   <g id="patch_3">
    <path d="M 52.985 181.24 
L 52.985 26.16 
" style="fill: none; stroke: #000000; stroke-width: 0.8; stroke-linejoin: miter; stroke-linecap: square"/>
   </g>
   <g id="patch_4">
    <path d="M 565.2 181.24 
L 565.2 26.16 
" style="fill: none; stroke: #000000; stroke-width: 0.8; stroke-linejoin: miter; stroke-linecap: square"/>
   </g>
   <g id="patch_5">
    <path d="M 52.985 181.24 
L 565.2 181.24 
" style="fill: none; stroke: #000000; stroke-width: 0.8; stroke-linejoin: miter; stroke-linecap: square"/>
   </g>
   <g id="patch_6">
    <path d="M 52.985 26.16 
L 565.2 26.16 
" style="fill: none; stroke: #000000; stroke-width: 0.8; stroke-linejoin: miter; stroke-linecap: square"/>
   </g>
   <g id="text_13">
    <!-- Spectrum of Channel 1 -->
    <g transform="translate(240.063437 20.16) scale(0.12 -0.12)">
     <defs>
      <path id="DejaVuSans-53" d="M 3425 4513 
L 3425 3897 
Q 3066 4069 2747 4153 
Q 2428 4238 2131 4238 
Q 1616 4238 1336 4038 
Q 1056 3838 1056 3469 
Q 1056 3159 1242 3001 
Q 1428 2844 1947 2747 
L 2328 2669 
Q 3034 2534 3370 2195 
Q 3706 1856 3706 1288 
Q 3706 609 3251 259 
Q 2797 -91 1919 -91 
Q 1588 -91 1214 -16 
Q 841 59 441 206 
L 441 856 
Q 825 641 1194 531 
Q 1563 422 1919 422 
Q 2459 422 2753 634 
Q 3047 847 3047 1241 
Q 3047 1584 2836 1778 
Q 2625 1972 2144 2069 
L 1759 2144 
Q 1053 2284 737 2584 
Q 422 2884 422 3419 
Q 422 4038 858 4394 
Q 1294 4750 2059 4750 
Q 2388 4750 2728 4690 
Q 3069 4631 3425 4513 
z
" transform="scale(0.015625)"/>
      <path id="DejaVuSans-70" d="M 1159 525 
L 1159 -1331 
L 581 -1331 
L 581 3500 
L 1159 3500 
L 1159 2969 
Q 1341 3281 1617 3432 
Q 1894 3584 2278 3584 
Q 2916 3584 3314 3078 
Q 3713 2572 3713 1747 
Q 3713 922 3314 415 
Q 2916 -91 2278 -91 
Q 1894 -91 1617 61 
Q 1341 213 1159 525 
z
M 3116 1747 
Q 3116 2381 2855 2742 
Q 2594 3103 2138 3103 
Q 1681 3103 1420 2742 
Q 1159 2381 1159 1747 
Q 1159 1113 1420 752 
Q 1681 391 2138 391 
Q 2594 391 2855 752 
Q 3116 1113 3116 1747 
z
" transform="scale(0.015625)"/>
      <path id="DejaVuSans-6d" d="M 3328 2828 
Q 3544 3216 3844 3400 
Q 4144 3584 4550 3584 
Q 5097 3584 5394 3201 
Q 5691 2819 5691 2113 
L 5691 0 
L 5113 0 
L 5113 2094 
Q 5113 2597 4934 2840 
Q 4756 3084 4391 3084 
Q 3944 3084 3684 2787 
Q 3425 2491 3425 1978 
L 3425 0 
L 2847 0 
L 2847 2094 
Q 2847 2600 2669 2842 
Q 2491 3084 2119 3084 
Q 1678 3084 1418 2786 
Q 1159 2488 1159 1978 
L 1159 0 
L 581 0 
L 581 3500 
L 1159 3500 
L 1159 2956 
Q 1356 3278 1631 3431 
Q 1906 3584 2284 3584 
Q 2666 3584 2933 3390 
Q 3200 3197 3328 2828 
z
" transform="scale(0.015625)"/>
      <path id="DejaVuSans-6f" d="M 1959 3097 
Q 1497 3097 1228 2736 
Q 959 2375 959 1747 
Q 959 1119 1226 758 
Q 1494 397 1959 397 
Q 2419 397 2687 759 
Q 2956 1122 2956 1747 
Q 2956 2369 2687 2733 
Q 2419 3097 1959 3097 
z
M 1959 3584 
Q 2709 3584 3137 3096 
Q 3566 2609 3566 1747 
Q 3566 888 3137 398 
Q 2709 -91 1959 -91 
Q 1206 -91 779 398 
Q 353 888 353 1747 
Q 353 2609 779 3096 
Q 1206 3584 1959 3584 
z
" transform="scale(0.015625)"/>
      <path id="DejaVuSans-66" d="M 2375 4863 
L 2375 4384 
L 1825 4384 
Q 1516 4384 1395 4259 
Q 1275 4134 1275 3809 
L 1275 3500 
L 2222 3500 
L 2222 3053 
L 1275 3053 
L 1275 0 
L 697 0 
L 697 3053 
L 147 3053 
L 147 3500 
L 697 3500 
L 697 3744 
Q 697 4328 969 4595 
Q 1241 4863 1831 4863 
L 2375 4863 
z
" transform="scale(0.015625)"/>
      <path id="DejaVuSans-43" d="M 4122 4306 
L 4122 3641 
Q 3803 3938 3442 4084 
Q 3081 4231 2675 4231 
Q 1875 4231 1450 3742 
Q 1025 3253 1025 2328 
Q 1025 1406 1450 917 
Q 1875 428 2675 428 
Q 3081 428 3442 575 
Q 3803 722 4122 1019 
L 4122 359 
Q 3791 134 3420 21 
Q 3050 -91 2638 -91 
Q 1578 -91 968 557 
Q 359 1206 359 2328 
Q 359 3453 968 4101 
Q 1578 4750 2638 4750 
Q 3056 4750 3426 4639 
Q 3797 4528 4122 4306 
z
" transform="scale(0.015625)"/>
      <path id="DejaVuSans-68" d="M 3513 2113 
L 3513 0 
L 2938 0 
L 2938 2094 
Q 2938 2591 2744 2837 
Q 2550 3084 2163 3084 
Q 1697 3084 1428 2787 
Q 1159 2491 1159 1978 
L 1159 0 
L 581 0 
L 581 4863 
L 1159 4863 
L 1159 2956 
Q 1366 3272 1645 3428 
Q 1925 3584 2291 3584 
Q 2894 3584 3203 3211 
Q 3513 2838 3513 2113 
z
" transform="scale(0.015625)"/>
      <path id="DejaVuSans-6c" d="M 603 4863 
L 1178 4863 
L 1178 0 
L 603 0 
L 603 4863 
z
" transform="scale(0.015625)"/>
      <path id="DejaVuSans-31" d="M 794 531 
L 1825 531 
L 1825 4091 
L 703 3866 
L 703 4441 
L 1819 4666 
L 2450 4666 
L 2450 531 
L 3481 531 
L 3481 0 
L 794 0 
L 794 531 
z
" transform="scale(0.015625)"/>
     </defs>
     <use xlink:href="#DejaVuSans-53"/>
     <use xlink:href="#DejaVuSans-70" transform="translate(63.476562 0)"/>
     <use xlink:href="#DejaVuSans-65" transform="translate(126.953125 0)"/>
     <use xlink:href="#DejaVuSans-63" transform="translate(188.476562 0)"/>
     <use xlink:href="#DejaVuSans-74" transform="translate(243.457031 0)"/>
     <use xlink:href="#DejaVuSans-72" transform="translate(282.666016 0)"/>
     <use xlink:href="#DejaVuSans-75" transform="translate(323.779297 0)"/>
     <use xlink:href="#DejaVuSans-6d" transform="translate(387.158203 0)"/>
     <use xlink:href="#DejaVuSans-20" transform="translate(484.570312 0)"/>
     <use xlink:href="#DejaVuSans-6f" transform="translate(516.357422 0)"/>
     <use xlink:href="#DejaVuSans-66" transform="translate(577.539062 0)"/>
     <use xlink:href="#DejaVuSans-20" transform="translate(612.744141 0)"/>
     <use xlink:href="#DejaVuSans-43" transform="translate(644.53125 0)"/>
     <use xlink:href="#DejaVuSans-68" transform="translate(714.355469 0)"/>
     <use xlink:href="#DejaVuSans-61" transform="translate(777.734375 0)"/>
     <use xlink:href="#DejaVuSans-6e" transform="translate(839.013672 0)"/>
     <use xlink:href="#DejaVuSans-6e" transform="translate(902.392578 0)"/>
     <use xlink:href="#DejaVuSans-65" transform="translate(965.771484 0)"/>
     <use xlink:href="#DejaVuSans-6c" transform="translate(1027.294922 0)"/>
     <use xlink:href="#DejaVuSans-20" transform="translate(1055.078125 0)"/>
     <use xlink:href="#DejaVuSans-31" transform="translate(1086.865234 0)"/>
    </g>
   </g>
  </g>
  <g id="axes_2">
   <g id="patch_7">
    <path d="M 52.985 393.64 
L 565.2 393.64 
L 565.2 238.56 
L 52.985 238.56 
z
" style="fill: #ffffff"/>
   </g>
   <g id="matplotlib.axis_3">
    <g id="xtick_6">
     <g id="line2d_22">
      <path d="M 103.202157 393.64 
L 103.202157 238.56 
" clip-path="url(#pbdba912089)" style="fill: none; stroke: #b0b0b0; stroke-width: 0.8; stroke-linecap: square"/>
     </g>
     <g id="line2d_23">
      <g>
       <use xlink:href="#m5eac29c478" x="103.202157" y="393.64" style="stroke: #000000; stroke-width: 0.8"/>
      </g>
     </g>
     <g id="text_14">
      <!-- −4 -->
      <g transform="translate(95.831063 408.238437) scale(0.1 -0.1)">
       <use xlink:href="#DejaVuSans-2212"/>
       <use xlink:href="#DejaVuSans-34" transform="translate(83.789062 0)"/>
      </g>
     </g>
    </g>
    <g id="xtick_7">
     <g id="line2d_24">
      <path d="M 206.147328 393.64 
L 206.147328 238.56 
" clip-path="url(#pbdba912089)" style="fill: none; stroke: #b0b0b0; stroke-width: 0.8; stroke-linecap: square"/>
     </g>
     <g id="line2d_25">
      <g>
       <use xlink:href="#m5eac29c478" x="206.147328" y="393.64" style="stroke: #000000; stroke-width: 0.8"/>
      </g>
     </g>
     <g id="text_15">
      <!-- −2 -->
      <g transform="translate(198.776235 408.238437) scale(0.1 -0.1)">
       <use xlink:href="#DejaVuSans-2212"/>
       <use xlink:href="#DejaVuSans-32" transform="translate(83.789062 0)"/>
      </g>
     </g>
    </g>
    <g id="xtick_8">
     <g id="line2d_26">
      <path d="M 309.0925 393.64 
L 309.0925 238.56 
" clip-path="url(#pbdba912089)" style="fill: none; stroke: #b0b0b0; stroke-width: 0.8; stroke-linecap: square"/>
     </g>
     <g id="line2d_27">
      <g>
       <use xlink:href="#m5eac29c478" x="309.0925" y="393.64" style="stroke: #000000; stroke-width: 0.8"/>
      </g>
     </g>
     <g id="text_16">
      <!-- 0 -->
      <g transform="translate(305.91125 408.238437) scale(0.1 -0.1)">
       <use xlink:href="#DejaVuSans-30"/>
      </g>
     </g>
    </g>
    <g id="xtick_9">
     <g id="line2d_28">
      <path d="M 412.037672 393.64 
L 412.037672 238.56 
" clip-path="url(#pbdba912089)" style="fill: none; stroke: #b0b0b0; stroke-width: 0.8; stroke-linecap: square"/>
     </g>
     <g id="line2d_29">
      <g>
       <use xlink:href="#m5eac29c478" x="412.037672" y="393.64" style="stroke: #000000; stroke-width: 0.8"/>
      </g>
     </g>
     <g id="text_17">
      <!-- 2 -->
      <g transform="translate(408.856422 408.238437) scale(0.1 -0.1)">
       <use xlink:href="#DejaVuSans-32"/>
      </g>
     </g>
    </g>
    <g id="xtick_10">
     <g id="line2d_30">
      <path d="M 514.982843 393.64 
L 514.982843 238.56 
" clip-path="url(#pbdba912089)" style="fill: none; stroke: #b0b0b0; stroke-width: 0.8; stroke-linecap: square"/>
     </g>
     <g id="line2d_31">
      <g>
       <use xlink:href="#m5eac29c478" x="514.982843" y="393.64" style="stroke: #000000; stroke-width: 0.8"/>
      </g>
     </g>
     <g id="text_18">
      <!-- 4 -->
      <g transform="translate(511.801593 408.238437) scale(0.1 -0.1)">
       <use xlink:href="#DejaVuSans-34"/>
      </g>
     </g>
    </g>
    <g id="text_19">
     <!-- Frequency (MHz) -->
     <g transform="translate(267.07375 421.916562) scale(0.1 -0.1)">
      <use xlink:href="#DejaVuSans-46"/>
      <use xlink:href="#DejaVuSans-72" transform="translate(50.269531 0)"/>
      <use xlink:href="#DejaVuSans-65" transform="translate(89.132812 0)"/>
      <use xlink:href="#DejaVuSans-71" transform="translate(150.65625 0)"/>
      <use xlink:href="#DejaVuSans-75" transform="translate(214.132812 0)"/>
      <use xlink:href="#DejaVuSans-65" transform="translate(277.511719 0)"/>
      <use xlink:href="#DejaVuSans-6e" transform="translate(339.035156 0)"/>
      <use xlink:href="#DejaVuSans-63" transform="translate(402.414062 0)"/>
      <use xlink:href="#DejaVuSans-79" transform="translate(457.394531 0)"/>
      <use xlink:href="#DejaVuSans-20" transform="translate(516.574219 0)"/>
      <use xlink:href="#DejaVuSans-28" transform="translate(548.361328 0)"/>
      <use xlink:href="#DejaVuSans-4d" transform="translate(587.375 0)"/>
      <use xlink:href="#DejaVuSans-48" transform="translate(673.654297 0)"/>
      <use xlink:href="#DejaVuSans-7a" transform="translate(748.849609 0)"/>
      <use xlink:href="#DejaVuSans-29" transform="translate(801.339844 0)"/>
     </g>
    </g>
   </g>
   <g id="matplotlib.axis_4">
    <g id="ytick_6">
     <g id="line2d_32">
      <path d="M 52.985 393.64 
L 565.2 393.64 
" clip-path="url(#pbdba912089)" style="fill: none; stroke: #b0b0b0; stroke-width: 0.8; stroke-linecap: square"/>
     </g>
     <g id="line2d_33">
      <g>
       <use xlink:href="#m2485a92eab" x="52.985" y="393.64" style="stroke: #000000; stroke-width: 0.8"/>
      </g>
     </g>
     <g id="text_20">
      <!-- −80 -->
      <g transform="translate(24.880313 397.439219) scale(0.1 -0.1)">
       <use xlink:href="#DejaVuSans-2212"/>
       <use xlink:href="#DejaVuSans-38" transform="translate(83.789062 0)"/>
       <use xlink:href="#DejaVuSans-30" transform="translate(147.412109 0)"/>
      </g>
     </g>
    </g>
    <g id="ytick_7">
     <g id="line2d_34">
      <path d="M 52.985 357.150588 
L 565.2 357.150588 
" clip-path="url(#pbdba912089)" style="fill: none; stroke: #b0b0b0; stroke-width: 0.8; stroke-linecap: square"/>
     </g>
     <g id="line2d_35">
      <g>
       <use xlink:href="#m2485a92eab" x="52.985" y="357.150588" style="stroke: #000000; stroke-width: 0.8"/>
      </g>
     </g>
     <g id="text_21">
      <!-- −60 -->
      <g transform="translate(24.880313 360.949807) scale(0.1 -0.1)">
       <use xlink:href="#DejaVuSans-2212"/>
       <use xlink:href="#DejaVuSans-36" transform="translate(83.789062 0)"/>
       <use xlink:href="#DejaVuSans-30" transform="translate(147.412109 0)"/>
      </g>
     </g>
    </g>
    <g id="ytick_8">
     <g id="line2d_36">
      <path d="M 52.985 320.661176 
L 565.2 320.661176 
" clip-path="url(#pbdba912089)" style="fill: none; stroke: #b0b0b0; stroke-width: 0.8; stroke-linecap: square"/>
     </g>
     <g id="line2d_37">
      <g>
       <use xlink:href="#m2485a92eab" x="52.985" y="320.661176" style="stroke: #000000; stroke-width: 0.8"/>
      </g>
     </g>
     <g id="text_22">
      <!-- −40 -->
      <g transform="translate(24.880313 324.460395) scale(0.1 -0.1)">
       <use xlink:href="#DejaVuSans-2212"/>
       <use xlink:href="#DejaVuSans-34" transform="translate(83.789062 0)"/>
       <use xlink:href="#DejaVuSans-30" transform="translate(147.412109 0)"/>
      </g>
     </g>
    </g>
    <g id="ytick_9">
     <g id="line2d_38">
      <path d="M 52.985 284.171765 
L 565.2 284.171765 
" clip-path="url(#pbdba912089)" style="fill: none; stroke: #b0b0b0; stroke-width: 0.8; stroke-linecap: square"/>
     </g>
     <g id="line2d_39">
      <g>
       <use xlink:href="#m2485a92eab" x="52.985" y="284.171765" style="stroke: #000000; stroke-width: 0.8"/>
      </g>
     </g>
     <g id="text_23">
      <!-- −20 -->
      <g transform="translate(24.880313 287.970983) scale(0.1 -0.1)">
       <use xlink:href="#DejaVuSans-2212"/>
       <use xlink:href="#DejaVuSans-32" transform="translate(83.789062 0)"/>
       <use xlink:href="#DejaVuSans-30" transform="translate(147.412109 0)"/>
      </g>
     </g>
    </g>
    <g id="ytick_10">
     <g id="line2d_40">
      <path d="M 52.985 247.682353 
L 565.2 247.682353 
" clip-path="url(#pbdba912089)" style="fill: none; stroke: #b0b0b0; stroke-width: 0.8; stroke-linecap: square"/>
     </g>
     <g id="line2d_41">
      <g>
       <use xlink:href="#m2485a92eab" x="52.985" y="247.682353" style="stroke: #000000; stroke-width: 0.8"/>
      </g>
     </g>
     <g id="text_24">
      <!-- 0 -->
      <g transform="translate(39.6225 251.481572) scale(0.1 -0.1)">
       <use xlink:href="#DejaVuSans-30"/>
      </g>
     </g>
    </g>
    <g id="text_25">
     <!-- Magnitude (dB) -->
     <g transform="translate(18.800625 354.685156) rotate(-90) scale(0.1 -0.1)">
      <use xlink:href="#DejaVuSans-4d"/>
      <use xlink:href="#DejaVuSans-61" transform="translate(86.279297 0)"/>
      <use xlink:href="#DejaVuSans-67" transform="translate(147.558594 0)"/>
      <use xlink:href="#DejaVuSans-6e" transform="translate(211.035156 0)"/>
      <use xlink:href="#DejaVuSans-69" transform="translate(274.414062 0)"/>
      <use xlink:href="#DejaVuSans-74" transform="translate(302.197266 0)"/>
      <use xlink:href="#DejaVuSans-75" transform="translate(341.40625 0)"/>
      <use xlink:href="#DejaVuSans-64" transform="translate(404.785156 0)"/>
      <use xlink:href="#DejaVuSans-65" transform="translate(468.261719 0)"/>
      <use xlink:href="#DejaVuSans-20" transform="translate(529.785156 0)"/>
      <use xlink:href="#DejaVuSans-28" transform="translate(561.572266 0)"/>
      <use xlink:href="#DejaVuSans-64" transform="translate(600.585938 0)"/>
      <use xlink:href="#DejaVuSans-42" transform="translate(664.0625 0)"/>
      <use xlink:href="#DejaVuSans-29" transform="translate(732.666016 0)"/>
     </g>
    </g>
   </g>
   <g id="line2d_42">
    <path d="M 52.985 345.190966 
L 55.495858 345.961655 
L 58.006716 345.743453 
L 60.517574 350.227615 
L 65.539289 377.490238 
L 68.050147 365.013974 
L 70.561005 363.559618 
L 73.071863 367.369795 
L 75.582721 377.868499 
L 78.093578 379.898997 
L 80.604436 376.605328 
L 83.115294 383.095863 
L 85.626152 386.31887 
L 88.13701 393.405485 
L 90.647868 449.604476 
L 93.158725 412.436068 
L 95.669583 414.080792 
L 98.180441 393.882054 
L 100.691299 383.384712 
L 103.202157 378.025127 
L 105.713015 376.989099 
L 108.223873 376.842109 
L 110.73473 378.059234 
L 113.245588 381.841462 
L 115.756446 383.967515 
L 118.267304 381.585322 
L 120.778162 378.092424 
L 123.28902 380.700008 
L 125.799877 387.491786 
L 128.310735 383.295147 
L 130.821593 382.337874 
L 133.332451 378.419634 
L 135.843309 377.775064 
L 138.354167 380.368133 
L 140.865025 383.775457 
L 143.375882 388.171129 
L 145.88674 341.692178 
L 148.397598 300.763617 
L 150.908456 277.799854 
L 153.419314 267.209198 
L 155.930172 267.201274 
L 158.441029 277.769341 
L 160.951887 300.695388 
L 163.462745 342.180285 
L 165.973603 395.867249 
L 168.484461 393.795189 
L 170.995319 380.383666 
L 173.506176 379.731903 
L 176.017034 382.741759 
L 178.527892 380.174687 
L 181.03875 385.466235 
L 183.549608 392.061814 
L 186.060466 385.032789 
L 188.571324 380.770939 
L 191.082181 377.899865 
L 193.593039 378.758245 
L 196.103897 388.09991 
L 198.614755 401.955667 
L 201.125613 389.934913 
L 203.636471 389.18928 
L 206.147328 398.257719 
L 208.658186 385.989853 
L 211.169044 377.277989 
L 213.679902 378.03358 
L 216.19076 387.164903 
L 218.701618 409.926079 
L 221.212475 391.646228 
L 223.723333 396.993651 
L 226.234191 395.927715 
L 228.745049 393.769268 
L 231.255907 400.81192 
L 233.766765 401.117658 
L 236.277623 398.465847 
L 238.78848 388.736864 
L 243.810196 378.783009 
L 246.321054 384.749699 
L 248.831912 397.915073 
L 251.34277 392.522862 
L 253.853627 394.265332 
L 256.364485 390.587919 
L 258.875343 410.042073 
L 261.386201 392.724284 
L 263.897059 380.610285 
L 266.407917 377.018158 
L 268.918775 376.346246 
L 271.429632 373.326931 
L 273.94049 371.950159 
L 276.451348 377.616397 
L 278.962206 386.415855 
L 281.473064 391.623136 
L 283.983922 389.263462 
L 286.494779 388.312412 
L 289.005637 400.709308 
L 291.516495 388.237068 
L 294.027353 386.875485 
L 296.538211 390.748072 
L 299.049069 390.164697 
L 301.559926 386.013023 
L 304.070784 382.912573 
L 306.581642 380.206772 
L 309.0925 376.740035 
L 311.603358 377.246081 
L 314.114216 382.483351 
L 316.625074 394.761602 
L 319.135931 403.099464 
L 321.646789 395.697166 
L 324.157647 387.138454 
L 326.668505 379.432516 
L 329.179363 385.491432 
L 331.690221 390.587828 
L 334.201078 383.621875 
L 336.711936 379.197575 
L 339.222794 382.021447 
L 341.733652 392.220322 
L 344.24451 387.999951 
L 346.755368 382.062228 
L 349.266225 384.484597 
L 351.777083 391.603902 
L 354.287941 389.655327 
L 356.798799 381.829412 
L 359.309657 380.975388 
L 361.820515 383.641977 
L 364.331373 382.685266 
L 366.84223 380.839438 
L 369.353088 383.054003 
L 371.863946 392.847828 
L 374.374804 403.185506 
L 376.885662 391.209069 
L 379.39652 388.694562 
L 381.907377 394.497459 
L 384.418235 378.652109 
L 386.929093 374.332111 
L 389.439951 378.753317 
L 391.950809 395.507197 
L 394.461667 402.08629 
L 396.972525 396.773718 
L 399.483382 416.398831 
L 401.99424 355.213866 
L 404.505098 299.971184 
L 407.015956 269.255074 
L 409.526814 252.876023 
L 412.037672 247.682353 
L 414.548529 252.880626 
L 417.059387 269.279444 
L 419.570245 300.115464 
L 422.081103 356.166155 
L 424.591961 377.181421 
L 427.102819 379.531923 
L 432.124534 376.252328 
L 434.635392 377.969231 
L 437.14625 380.342045 
L 439.657108 381.364664 
L 442.167966 383.000205 
L 444.678824 386.496825 
L 447.189681 393.564805 
L 449.700539 386.785186 
L 452.211397 387.432165 
L 454.722255 423.221629 
L 457.233113 381.637654 
L 459.743971 372.299653 
L 462.254828 371.988456 
L 464.765686 375.108832 
L 467.276544 376.911954 
L 469.787402 379.817211 
L 472.29826 388.032603 
L 474.809118 389.303529 
L 477.319975 385.019488 
L 479.830833 383.450394 
L 484.852549 392.391202 
L 487.363407 397.653678 
L 489.874265 402.420428 
L 492.385123 394.110113 
L 494.89598 394.985817 
L 497.406838 397.474697 
L 499.917696 404.797067 
L 502.428554 407.145393 
L 504.939412 389.75022 
L 507.45027 388.862967 
L 509.961127 408.756369 
L 512.471985 393.387467 
L 514.982843 385.888291 
L 517.493701 381.12912 
L 520.004559 384.402601 
L 522.515417 409.467613 
L 525.026275 370.546896 
L 527.537132 359.853943 
L 530.04799 356.449445 
L 532.558848 357.439725 
L 535.069706 361.498188 
L 537.580564 368.428323 
L 540.091422 362.182854 
L 542.602279 349.613625 
L 545.113137 343.956718 
L 547.623995 344.822285 
L 550.134853 352.052933 
L 552.645711 366.529821 
L 555.156569 370.834967 
L 557.667426 354.72395 
L 560.178284 358.132981 
L 562.689142 356.372555 
L 565.2 345.852898 
L 565.2 345.852898 
" clip-path="url(#pbdba912089)" style="fill: none; stroke: #1f77b4; stroke-width: 1.5; stroke-linecap: square"/>
   </g>
   <g id="patch_8">
    <path d="M 52.985 393.64 
L 52.985 238.56 
" style="fill: none; stroke: #000000; stroke-width: 0.8; stroke-linejoin: miter; stroke-linecap: square"/>
   </g>
   <g id="patch_9">
    <path d="M 565.2 393.64 
L 565.2 238.56 
" style="fill: none; stroke: #000000; stroke-width: 0.8; stroke-linejoin: miter; stroke-linecap: square"/>
   </g>
   <g id="patch_10">
    <path d="M 52.985 393.64 
L 565.2 393.64 
" style="fill: none; stroke: #000000; stroke-width: 0.8; stroke-linejoin: miter; stroke-linecap: square"/>
   </g>
   <g id="patch_11">
    <path d="M 52.985 238.56 
L 565.2 238.56 
" style="fill: none; stroke: #000000; stroke-width: 0.8; stroke-linejoin: miter; stroke-linecap: square"/>
   </g>
   <g id="text_26">
    <!-- Spectrum of Channel 2 -->
    <g transform="translate(240.063437 232.56) scale(0.12 -0.12)">
     <use xlink:href="#DejaVuSans-53"/>
     <use xlink:href="#DejaVuSans-70" transform="translate(63.476562 0)"/>
     <use xlink:href="#DejaVuSans-65" transform="translate(126.953125 0)"/>
     <use xlink:href="#DejaVuSans-63" transform="translate(188.476562 0)"/>
     <use xlink:href="#DejaVuSans-74" transform="translate(243.457031 0)"/>
     <use xlink:href="#DejaVuSans-72" transform="translate(282.666016 0)"/>
     <use xlink:href="#DejaVuSans-75" transform="translate(323.779297 0)"/>
     <use xlink:href="#DejaVuSans-6d" transform="translate(387.158203 0)"/>
     <use xlink:href="#DejaVuSans-20" transform="translate(484.570312 0)"/>
     <use xlink:href="#DejaVuSans-6f" transform="translate(516.357422 0)"/>
     <use xlink:href="#DejaVuSans-66" transform="translate(577.539062 0)"/>
     <use xlink:href="#DejaVuSans-20" transform="translate(612.744141 0)"/>
     <use xlink:href="#DejaVuSans-43" transform="translate(644.53125 0)"/>
     <use xlink:href="#DejaVuSans-68" transform="translate(714.355469 0)"/>
     <use xlink:href="#DejaVuSans-61" transform="translate(777.734375 0)"/>
     <use xlink:href="#DejaVuSans-6e" transform="translate(839.013672 0)"/>
     <use xlink:href="#DejaVuSans-6e" transform="translate(902.392578 0)"/>
     <use xlink:href="#DejaVuSans-65" transform="translate(965.771484 0)"/>
     <use xlink:href="#DejaVuSans-6c" transform="translate(1027.294922 0)"/>
     <use xlink:href="#DejaVuSans-20" transform="translate(1055.078125 0)"/>
     <use xlink:href="#DejaVuSans-32" transform="translate(1086.865234 0)"/>
    </g>
   </g>
  </g>
  <g id="axes_3">
   <g id="patch_12">
    <path d="M 52.985 606.04 
L 565.2 606.04 
L 565.2 450.96 
L 52.985 450.96 
z
" style="fill: #ffffff"/>
   </g>
   <g id="matplotlib.axis_5">
    <g id="xtick_11">
     <g id="line2d_43">
      <path d="M 103.202157 606.04 
L 103.202157 450.96 
" clip-path="url(#p98b0b7b407)" style="fill: none; stroke: #b0b0b0; stroke-width: 0.8; stroke-linecap: square"/>
     </g>
     <g id="line2d_44">
      <g>
       <use xlink:href="#m5eac29c478" x="103.202157" y="606.04" style="stroke: #000000; stroke-width: 0.8"/>
      </g>
     </g>
     <g id="text_27">
      <!-- −4 -->
      <g transform="translate(95.831063 620.638437) scale(0.1 -0.1)">
       <use xlink:href="#DejaVuSans-2212"/>
       <use xlink:href="#DejaVuSans-34" transform="translate(83.789062 0)"/>
      </g>
     </g>
    </g>
    <g id="xtick_12">
     <g id="line2d_45">
      <path d="M 206.147328 606.04 
L 206.147328 450.96 
" clip-path="url(#p98b0b7b407)" style="fill: none; stroke: #b0b0b0; stroke-width: 0.8; stroke-linecap: square"/>
     </g>
     <g id="line2d_46">
      <g>
       <use xlink:href="#m5eac29c478" x="206.147328" y="606.04" style="stroke: #000000; stroke-width: 0.8"/>
      </g>
     </g>
     <g id="text_28">
      <!-- −2 -->
      <g transform="translate(198.776235 620.638437) scale(0.1 -0.1)">
       <use xlink:href="#DejaVuSans-2212"/>
       <use xlink:href="#DejaVuSans-32" transform="translate(83.789062 0)"/>
      </g>
     </g>
    </g>
    <g id="xtick_13">
     <g id="line2d_47">
      <path d="M 309.0925 606.04 
L 309.0925 450.96 
" clip-path="url(#p98b0b7b407)" style="fill: none; stroke: #b0b0b0; stroke-width: 0.8; stroke-linecap: square"/>
     </g>
     <g id="line2d_48">
      <g>
       <use xlink:href="#m5eac29c478" x="309.0925" y="606.04" style="stroke: #000000; stroke-width: 0.8"/>
      </g>
     </g>
     <g id="text_29">
      <!-- 0 -->
      <g transform="translate(305.91125 620.638437) scale(0.1 -0.1)">
       <use xlink:href="#DejaVuSans-30"/>
      </g>
     </g>
    </g>
    <g id="xtick_14">
     <g id="line2d_49">
      <path d="M 412.037672 606.04 
L 412.037672 450.96 
" clip-path="url(#p98b0b7b407)" style="fill: none; stroke: #b0b0b0; stroke-width: 0.8; stroke-linecap: square"/>
     </g>
     <g id="line2d_50">
      <g>
       <use xlink:href="#m5eac29c478" x="412.037672" y="606.04" style="stroke: #000000; stroke-width: 0.8"/>
      </g>
     </g>
     <g id="text_30">
      <!-- 2 -->
      <g transform="translate(408.856422 620.638437) scale(0.1 -0.1)">
       <use xlink:href="#DejaVuSans-32"/>
      </g>
     </g>
    </g>
    <g id="xtick_15">
     <g id="line2d_51">
      <path d="M 514.982843 606.04 
L 514.982843 450.96 
" clip-path="url(#p98b0b7b407)" style="fill: none; stroke: #b0b0b0; stroke-width: 0.8; stroke-linecap: square"/>
     </g>
     <g id="line2d_52">
      <g>
       <use xlink:href="#m5eac29c478" x="514.982843" y="606.04" style="stroke: #000000; stroke-width: 0.8"/>
      </g>
     </g>
     <g id="text_31">
      <!-- 4 -->
      <g transform="translate(511.801593 620.638437) scale(0.1 -0.1)">
       <use xlink:href="#DejaVuSans-34"/>
      </g>
     </g>
    </g>
    <g id="text_32">
     <!-- Frequency (MHz) -->
     <g transform="translate(267.07375 634.316562) scale(0.1 -0.1)">
      <use xlink:href="#DejaVuSans-46"/>
      <use xlink:href="#DejaVuSans-72" transform="translate(50.269531 0)"/>
      <use xlink:href="#DejaVuSans-65" transform="translate(89.132812 0)"/>
      <use xlink:href="#DejaVuSans-71" transform="translate(150.65625 0)"/>
      <use xlink:href="#DejaVuSans-75" transform="translate(214.132812 0)"/>
      <use xlink:href="#DejaVuSans-65" transform="translate(277.511719 0)"/>
      <use xlink:href="#DejaVuSans-6e" transform="translate(339.035156 0)"/>
      <use xlink:href="#DejaVuSans-63" transform="translate(402.414062 0)"/>
      <use xlink:href="#DejaVuSans-79" transform="translate(457.394531 0)"/>
      <use xlink:href="#DejaVuSans-20" transform="translate(516.574219 0)"/>
      <use xlink:href="#DejaVuSans-28" transform="translate(548.361328 0)"/>
      <use xlink:href="#DejaVuSans-4d" transform="translate(587.375 0)"/>
      <use xlink:href="#DejaVuSans-48" transform="translate(673.654297 0)"/>
      <use xlink:href="#DejaVuSans-7a" transform="translate(748.849609 0)"/>
      <use xlink:href="#DejaVuSans-29" transform="translate(801.339844 0)"/>
     </g>
    </g>
   </g>
   <g id="matplotlib.axis_6">
    <g id="ytick_11">
     <g id="line2d_53">
      <path d="M 52.985 606.04 
L 565.2 606.04 
" clip-path="url(#p98b0b7b407)" style="fill: none; stroke: #b0b0b0; stroke-width: 0.8; stroke-linecap: square"/>
     </g>
     <g id="line2d_54">
      <g>
       <use xlink:href="#m2485a92eab" x="52.985" y="606.04" style="stroke: #000000; stroke-width: 0.8"/>
      </g>
     </g>
     <g id="text_33">
      <!-- −80 -->
      <g transform="translate(24.880313 609.839219) scale(0.1 -0.1)">
       <use xlink:href="#DejaVuSans-2212"/>
       <use xlink:href="#DejaVuSans-38" transform="translate(83.789062 0)"/>
       <use xlink:href="#DejaVuSans-30" transform="translate(147.412109 0)"/>
      </g>
     </g>
    </g>
    <g id="ytick_12">
     <g id="line2d_55">
      <path d="M 52.985 569.550588 
L 565.2 569.550588 
" clip-path="url(#p98b0b7b407)" style="fill: none; stroke: #b0b0b0; stroke-width: 0.8; stroke-linecap: square"/>
     </g>
     <g id="line2d_56">
      <g>
       <use xlink:href="#m2485a92eab" x="52.985" y="569.550588" style="stroke: #000000; stroke-width: 0.8"/>
      </g>
     </g>
     <g id="text_34">
      <!-- −60 -->
      <g transform="translate(24.880313 573.349807) scale(0.1 -0.1)">
       <use xlink:href="#DejaVuSans-2212"/>
       <use xlink:href="#DejaVuSans-36" transform="translate(83.789062 0)"/>
       <use xlink:href="#DejaVuSans-30" transform="translate(147.412109 0)"/>
      </g>
     </g>
    </g>
    <g id="ytick_13">
     <g id="line2d_57">
      <path d="M 52.985 533.061176 
L 565.2 533.061176 
" clip-path="url(#p98b0b7b407)" style="fill: none; stroke: #b0b0b0; stroke-width: 0.8; stroke-linecap: square"/>
     </g>
     <g id="line2d_58">
      <g>
       <use xlink:href="#m2485a92eab" x="52.985" y="533.061176" style="stroke: #000000; stroke-width: 0.8"/>
      </g>
     </g>
     <g id="text_35">
      <!-- −40 -->
      <g transform="translate(24.880313 536.860395) scale(0.1 -0.1)">
       <use xlink:href="#DejaVuSans-2212"/>
       <use xlink:href="#DejaVuSans-34" transform="translate(83.789062 0)"/>
       <use xlink:href="#DejaVuSans-30" transform="translate(147.412109 0)"/>
      </g>
     </g>
    </g>
    <g id="ytick_14">
     <g id="line2d_59">
      <path d="M 52.985 496.571765 
L 565.2 496.571765 
" clip-path="url(#p98b0b7b407)" style="fill: none; stroke: #b0b0b0; stroke-width: 0.8; stroke-linecap: square"/>
     </g>
     <g id="line2d_60">
      <g>
       <use xlink:href="#m2485a92eab" x="52.985" y="496.571765" style="stroke: #000000; stroke-width: 0.8"/>
      </g>
     </g>
     <g id="text_36">
      <!-- −20 -->
      <g transform="translate(24.880313 500.370983) scale(0.1 -0.1)">
       <use xlink:href="#DejaVuSans-2212"/>
       <use xlink:href="#DejaVuSans-32" transform="translate(83.789062 0)"/>
       <use xlink:href="#DejaVuSans-30" transform="translate(147.412109 0)"/>
      </g>
     </g>
    </g>
    <g id="ytick_15">
     <g id="line2d_61">
      <path d="M 52.985 460.082353 
L 565.2 460.082353 
" clip-path="url(#p98b0b7b407)" style="fill: none; stroke: #b0b0b0; stroke-width: 0.8; stroke-linecap: square"/>
     </g>
     <g id="line2d_62">
      <g>
       <use xlink:href="#m2485a92eab" x="52.985" y="460.082353" style="stroke: #000000; stroke-width: 0.8"/>
      </g>
     </g>
     <g id="text_37">
      <!-- 0 -->
      <g transform="translate(39.6225 463.881572) scale(0.1 -0.1)">
       <use xlink:href="#DejaVuSans-30"/>
      </g>
     </g>
    </g>
    <g id="text_38">
     <!-- Magnitude (dB) -->
     <g transform="translate(18.800625 567.085156) rotate(-90) scale(0.1 -0.1)">
      <use xlink:href="#DejaVuSans-4d"/>
      <use xlink:href="#DejaVuSans-61" transform="translate(86.279297 0)"/>
      <use xlink:href="#DejaVuSans-67" transform="translate(147.558594 0)"/>
      <use xlink:href="#DejaVuSans-6e" transform="translate(211.035156 0)"/>
      <use xlink:href="#DejaVuSans-69" transform="translate(274.414062 0)"/>
      <use xlink:href="#DejaVuSans-74" transform="translate(302.197266 0)"/>
      <use xlink:href="#DejaVuSans-75" transform="translate(341.40625 0)"/>
      <use xlink:href="#DejaVuSans-64" transform="translate(404.785156 0)"/>
      <use xlink:href="#DejaVuSans-65" transform="translate(468.261719 0)"/>
      <use xlink:href="#DejaVuSans-20" transform="translate(529.785156 0)"/>
      <use xlink:href="#DejaVuSans-28" transform="translate(561.572266 0)"/>
      <use xlink:href="#DejaVuSans-64" transform="translate(600.585938 0)"/>
      <use xlink:href="#DejaVuSans-42" transform="translate(664.0625 0)"/>
      <use xlink:href="#DejaVuSans-29" transform="translate(732.666016 0)"/>
     </g>
    </g>
   </g>
   <g id="line2d_63">
    <path d="M 52.985 560.919414 
L 55.495858 559.536089 
L 58.006716 562.181801 
L 60.517574 562.694341 
L 63.028431 561.13553 
L 65.539289 557.327377 
L 68.050147 554.865295 
L 70.561005 554.841796 
L 73.071863 557.708851 
L 75.582721 562.75157 
L 78.093578 565.891796 
L 80.604436 567.725356 
L 83.115294 569.075919 
L 85.626152 570.717082 
L 88.13701 577.559358 
L 90.647868 593.418338 
L 93.158725 584.964593 
L 95.669583 580.640508 
L 98.180441 579.380712 
L 100.691299 578.471999 
L 103.202157 580.842845 
L 105.713015 586.484664 
L 108.223873 596.271021 
L 110.73473 627.22816 
L 113.245588 597.094941 
L 115.756446 594.745727 
L 118.267304 591.211003 
L 120.778162 587.948134 
L 123.28902 585.823245 
L 125.799877 588.496517 
L 128.310735 601.386703 
L 130.821593 594.509589 
L 133.332451 592.824645 
L 135.843309 600.902308 
L 138.354167 600.019254 
L 140.865025 593.43579 
L 143.375882 595.607975 
L 145.88674 611.317879 
L 148.397598 599.247854 
L 150.908456 611.976408 
L 153.419314 596.767732 
L 155.930172 587.365384 
L 158.441029 590.188078 
L 160.951887 605.139613 
L 163.462745 600.585726 
L 165.973603 594.066751 
L 168.484461 600.442536 
L 170.995319 612.462751 
L 173.506176 592.361543 
L 176.017034 591.039252 
L 178.527892 600.496552 
L 181.03875 609.05519 
L 183.549608 612.546522 
L 186.060466 605.423316 
L 188.571324 593.41522 
L 191.082181 594.872175 
L 193.593039 607.072047 
L 196.103897 612.870226 
L 198.614755 605.288474 
L 201.125613 603.419264 
L 203.636471 609.877111 
L 206.147328 622.123876 
L 208.658186 602.604222 
L 211.169044 595.005746 
L 213.679902 600.363928 
L 216.19076 601.521971 
L 218.701618 587.732244 
L 221.212475 582.31428 
L 223.723333 581.807274 
L 226.234191 586.831262 
L 228.745049 595.632971 
L 231.255907 608.890394 
L 233.766765 614.641596 
L 236.277623 605.194789 
L 238.78848 596.869389 
L 241.299338 592.258819 
L 243.810196 598.516228 
L 246.321054 597.870681 
L 248.831912 571.88969 
L 251.34277 531.430141 
L 253.853627 508.456293 
L 256.364485 497.855106 
L 258.875343 497.845065 
L 261.386201 508.420957 
L 263.897059 531.359496 
L 266.407917 572.374189 
L 268.918775 615.38605 
L 271.429632 613.60931 
L 273.94049 595.770098 
L 276.451348 590.534854 
L 278.962206 602.975345 
L 281.473064 595.040251 
L 283.983922 588.577881 
L 286.494779 592.469602 
L 289.005637 598.267106 
L 291.516495 594.298297 
L 294.027353 596.899605 
L 296.538211 600.907435 
L 299.049069 596.098622 
L 301.559926 570.193323 
L 304.070784 536.631589 
L 306.581642 520.007453 
L 309.0925 514.771913 
L 311.603358 519.892956 
L 314.114216 535.906547 
L 316.625074 563.88175 
L 319.135931 589.107025 
L 324.157647 606.935576 
L 326.668505 594.832226 
L 329.179363 592.068231 
L 331.690221 592.481708 
L 334.201078 595.975289 
L 336.711936 602.762962 
L 339.222794 597.778565 
L 341.733652 591.86998 
L 344.24451 593.443445 
L 349.266225 604.411609 
L 351.777083 603.703891 
L 354.287941 600.862087 
L 356.798799 592.888179 
L 359.309657 587.339221 
L 361.820515 590.668723 
L 364.331373 611.07521 
L 366.84223 604.272508 
L 369.353088 607.307629 
L 371.863946 603.476344 
L 374.374804 600.971899 
L 376.885662 625.534277 
L 379.39652 597.522501 
L 381.907377 598.694097 
L 384.418235 596.778806 
L 386.929093 591.424264 
L 389.439951 591.330977 
L 391.950809 589.441162 
L 394.461667 586.085975 
L 396.972525 584.4373 
L 399.483382 584.621217 
L 401.99424 588.425144 
L 404.505098 598.068479 
L 407.015956 615.611197 
L 409.526814 613.007945 
L 412.037672 605.743646 
L 414.548529 600.856202 
L 417.059387 591.987062 
L 419.570245 585.172879 
L 422.081103 584.561248 
L 424.591961 589.088001 
L 427.102819 595.614276 
L 429.613676 603.18922 
L 432.124534 604.653535 
L 434.635392 591.949069 
L 437.14625 586.397836 
L 439.657108 587.334304 
L 442.167966 590.771973 
L 444.678824 592.26964 
L 447.189681 591.454158 
L 449.700539 594.230471 
L 452.211397 603.829812 
L 457.233113 587.518828 
L 459.743971 586.464012 
L 462.254828 589.873639 
L 464.765686 590.579575 
L 467.276544 591.953334 
L 469.787402 598.11794 
L 472.29826 603.776093 
L 474.809118 601.727654 
L 477.319975 605.703751 
L 479.830833 615.05973 
L 482.341691 621.158944 
L 484.852549 610.732233 
L 487.363407 598.288569 
L 489.874265 594.963595 
L 492.385123 599.567554 
L 494.89598 616.77149 
L 497.406838 606.78697 
L 499.917696 592.587424 
L 502.428554 588.889662 
L 504.939412 589.073007 
L 507.45027 593.489204 
L 509.961127 602.300381 
L 512.471985 605.339656 
L 514.982843 602.063407 
L 517.493701 600.81036 
L 520.004559 604.646236 
L 522.515417 610.941074 
L 525.026275 608.263601 
L 527.537132 598.043073 
L 530.04799 591.504368 
L 532.558848 589.209351 
L 535.069706 594.191825 
L 537.580564 590.896156 
L 540.091422 573.666345 
L 542.602279 571.477479 
L 545.113137 586.151871 
L 547.623995 585.220383 
L 550.134853 582.546792 
L 552.645711 584.263397 
L 555.156569 585.427892 
L 557.667426 596.077576 
L 560.178284 575.047532 
L 562.689142 568.86662 
L 565.2 564.338333 
L 565.2 564.338333 
" clip-path="url(#p98b0b7b407)" style="fill: none; stroke: #1f77b4; stroke-width: 1.5; stroke-linecap: square"/>
   </g>
   <g id="patch_13">
    <path d="M 52.985 606.04 
L 52.985 450.96 
" style="fill: none; stroke: #000000; stroke-width: 0.8; stroke-linejoin: miter; stroke-linecap: square"/>
   </g>
   <g id="patch_14">
    <path d="M 565.2 606.04 
L 565.2 450.96 
" style="fill: none; stroke: #000000; stroke-width: 0.8; stroke-linejoin: miter; stroke-linecap: square"/>
   </g>
   <g id="patch_15">
    <path d="M 52.985 606.04 
L 565.2 606.04 
" style="fill: none; stroke: #000000; stroke-width: 0.8; stroke-linejoin: miter; stroke-linecap: square"/>
   </g>
   <g id="patch_16">
    <path d="M 52.985 450.96 
L 565.2 450.96 
" style="fill: none; stroke: #000000; stroke-width: 0.8; stroke-linejoin: miter; stroke-linecap: square"/>
   </g>
   <g id="text_39">
    <!-- Spectrum of Channel 3 -->
    <g transform="translate(240.063437 444.96) scale(0.12 -0.12)">
     <defs>
      <path id="DejaVuSans-33" d="M 2597 2516 
Q 3050 2419 3304 2112 
Q 3559 1806 3559 1356 
Q 3559 666 3084 287 
Q 2609 -91 1734 -91 
Q 1441 -91 1130 -33 
Q 819 25 488 141 
L 488 750 
Q 750 597 1062 519 
Q 1375 441 1716 441 
Q 2309 441 2620 675 
Q 2931 909 2931 1356 
Q 2931 1769 2642 2001 
Q 2353 2234 1838 2234 
L 1294 2234 
L 1294 2753 
L 1863 2753 
Q 2328 2753 2575 2939 
Q 2822 3125 2822 3475 
Q 2822 3834 2567 4026 
Q 2313 4219 1838 4219 
Q 1578 4219 1281 4162 
Q 984 4106 628 3988 
L 628 4550 
Q 988 4650 1302 4700 
Q 1616 4750 1894 4750 
Q 2613 4750 3031 4423 
Q 3450 4097 3450 3541 
Q 3450 3153 3228 2886 
Q 3006 2619 2597 2516 
z
" transform="scale(0.015625)"/>
     </defs>
     <use xlink:href="#DejaVuSans-53"/>
     <use xlink:href="#DejaVuSans-70" transform="translate(63.476562 0)"/>
     <use xlink:href="#DejaVuSans-65" transform="translate(126.953125 0)"/>
     <use xlink:href="#DejaVuSans-63" transform="translate(188.476562 0)"/>
     <use xlink:href="#DejaVuSans-74" transform="translate(243.457031 0)"/>
     <use xlink:href="#DejaVuSans-72" transform="translate(282.666016 0)"/>
     <use xlink:href="#DejaVuSans-75" transform="translate(323.779297 0)"/>
     <use xlink:href="#DejaVuSans-6d" transform="translate(387.158203 0)"/>
     <use xlink:href="#DejaVuSans-20" transform="translate(484.570312 0)"/>
     <use xlink:href="#DejaVuSans-6f" transform="translate(516.357422 0)"/>
     <use xlink:href="#DejaVuSans-66" transform="translate(577.539062 0)"/>
     <use xlink:href="#DejaVuSans-20" transform="translate(612.744141 0)"/>
     <use xlink:href="#DejaVuSans-43" transform="translate(644.53125 0)"/>
     <use xlink:href="#DejaVuSans-68" transform="translate(714.355469 0)"/>
     <use xlink:href="#DejaVuSans-61" transform="translate(777.734375 0)"/>
     <use xlink:href="#DejaVuSans-6e" transform="translate(839.013672 0)"/>
     <use xlink:href="#DejaVuSans-6e" transform="translate(902.392578 0)"/>
     <use xlink:href="#DejaVuSans-65" transform="translate(965.771484 0)"/>
     <use xlink:href="#DejaVuSans-6c" transform="translate(1027.294922 0)"/>
     <use xlink:href="#DejaVuSans-20" transform="translate(1055.078125 0)"/>
     <use xlink:href="#DejaVuSans-33" transform="translate(1086.865234 0)"/>
    </g>
   </g>
  </g>
 </g>
 <defs>
  <clipPath id="p548710928d">
   <rect x="52.985" y="26.16" width="512.215" height="155.08"/>
  </clipPath>
  <clipPath id="pbdba912089">
   <rect x="52.985" y="238.56" width="512.215" height="155.08"/>
  </clipPath>
  <clipPath id="p98b0b7b407">
   <rect x="52.985" y="450.96" width="512.215" height="155.08"/>
  </clipPath>
 </defs>
</svg>
