<?xml version="1.0" encoding="UTF-8"?>
<!DOCTYPE svg PUBLIC "-//W3C//DTD SVG 1.1//EN" "http://www.w3.org/Graphics/SVG/1.1/DTD/svg11.dtd">
<svg xmlns="http://www.w3.org/2000/svg" xmlns:xlink="http://www.w3.org/1999/xlink" version="1.1" width="819px" height="358px" viewBox="-0.5 -0.5 819 358" style="background-color: rgb(255, 255, 255);"><defs/><g><path d="M 196.5 81.03 L 256.53 81.03 L 301.34 81.01" fill="none" stroke="rgb(0, 0, 0)" stroke-width="4.5" stroke-miterlimit="10" pointer-events="stroke"/><path d="M 311.47 81 L 297.97 87.76 L 301.34 81.01 L 297.97 74.26 Z" fill="rgb(0, 0, 0)" stroke="rgb(0, 0, 0)" stroke-width="4.5" stroke-miterlimit="10" pointer-events="all"/><ellipse cx="166.5" cy="81" rx="29.999999999999996" ry="29.999999999999996" fill="rgb(255, 255, 255)" stroke="rgb(0, 0, 0)" stroke-width="1.5" pointer-events="all"/><path d="M 145.14 59.64 L 187.86 102.36 M 187.86 59.64 L 145.14 102.36" fill="none" stroke="rgb(0, 0, 0)" stroke-width="1.5" stroke-miterlimit="10" pointer-events="all"/><path d="M 76.5 81 L 106.53 81.03 L 126.95 81.03" fill="none" stroke="rgb(0, 0, 0)" stroke-width="1.5" stroke-miterlimit="10" pointer-events="stroke"/><path d="M 134.82 81.03 L 124.32 86.28 L 126.95 81.03 L 124.32 75.78 Z" fill="rgb(0, 0, 0)" stroke="rgb(0, 0, 0)" stroke-width="1.5" stroke-miterlimit="10" pointer-events="all"/><path d="M 436.5 81 L 468 81.03 L 481.34 81.02" fill="none" stroke="rgb(0, 0, 0)" stroke-width="4.5" stroke-miterlimit="10" pointer-events="stroke"/><path d="M 491.47 81.01 L 477.98 87.77 L 481.34 81.02 L 477.96 74.27 Z" fill="rgb(0, 0, 0)" stroke="rgb(0, 0, 0)" stroke-width="4.5" stroke-miterlimit="10" pointer-events="all"/><path d="M 256.5 171 L 256.5 215.84" fill="none" stroke="rgb(0, 0, 0)" stroke-width="4.5" stroke-miterlimit="10" pointer-events="stroke"/><path d="M 256.5 225.97 L 249.75 212.47 L 256.5 215.84 L 263.25 212.47 Z" fill="rgb(0, 0, 0)" stroke="rgb(0, 0, 0)" stroke-width="4.5" stroke-miterlimit="10" pointer-events="all"/><rect x="226.5" y="111" width="60" height="60" fill="rgb(255, 255, 255)" stroke="rgb(0, 0, 0)" stroke-width="1.5" pointer-events="all"/><g transform="translate(-0.5 -0.5)scale(1.4999999999999998)"><switch><foreignObject pointer-events="none" width="100%" height="100%" requiredFeatures="http://www.w3.org/TR/SVG11/feature#Extensibility" style="overflow: visible; text-align: left;"><div xmlns="http://www.w3.org/1999/xhtml" style="display: flex; align-items: unsafe center; justify-content: unsafe center; width: 38px; height: 1px; padding-top: 94px; margin-left: 152px;"><div data-drawio-colors="color: rgb(0, 0, 0); " style="box-sizing: border-box; font-size: 0px; text-align: center;"><div style="display: inline-block; font-size: 12px; font-family: Helvetica; color: rgb(0, 0, 0); line-height: 1.2; pointer-events: all; white-space: normal; overflow-wrap: normal;">z<sup>-1</sup></div></div></div></foreignObject><text x="171" y="98" fill="rgb(0, 0, 0)" font-family="Helvetica" font-size="12px" text-anchor="middle">z-1</text></switch></g><path d="M 436.5 201 L 466.53 201.03 L 481.34 201.02" fill="none" stroke="rgb(0, 0, 0)" stroke-width="4.5" stroke-miterlimit="10" pointer-events="stroke"/><path d="M 491.47 201.01 L 477.98 207.77 L 481.34 201.02 L 477.96 194.27 Z" fill="rgb(0, 0, 0)" stroke="rgb(0, 0, 0)" stroke-width="4.5" stroke-miterlimit="10" pointer-events="all"/><path d="M 556.5 201 L 588 201.77 L 601.35 201.42" fill="none" stroke="rgb(0, 0, 0)" stroke-width="4.5" stroke-miterlimit="10" pointer-events="stroke"/><path d="M 611.47 201.16 L 598.15 208.26 L 601.35 201.42 L 597.8 194.76 Z" fill="rgb(0, 0, 0)" stroke="rgb(0, 0, 0)" stroke-width="4.5" stroke-miterlimit="10" pointer-events="all"/><rect x="226.5" y="231" width="60" height="60" fill="rgb(255, 255, 255)" stroke="rgb(0, 0, 0)" stroke-width="1.5" pointer-events="all"/><g transform="translate(-0.5 -0.5)scale(1.4999999999999998)"><switch><foreignObject pointer-events="none" width="100%" height="100%" requiredFeatures="http://www.w3.org/TR/SVG11/feature#Extensibility" style="overflow: visible; text-align: left;"><div xmlns="http://www.w3.org/1999/xhtml" style="display: flex; align-items: unsafe center; justify-content: unsafe center; width: 38px; height: 1px; padding-top: 174px; margin-left: 152px;"><div data-drawio-colors="color: rgb(0, 0, 0); " style="box-sizing: border-box; font-size: 0px; text-align: center;"><div style="display: inline-block; font-size: 12px; font-family: Helvetica; color: rgb(0, 0, 0); line-height: 1.2; pointer-events: all; white-space: normal; overflow-wrap: normal;">z<sup>-1</sup></div></div></div></foreignObject><text x="171" y="178" fill="rgb(0, 0, 0)" font-family="Helvetica" font-size="12px" text-anchor="middle">z-1</text></switch></g><path d="M 436.5 321 L 466.53 321.03 L 481.34 321.02" fill="none" stroke="rgb(0, 0, 0)" stroke-width="4.5" stroke-miterlimit="10" pointer-events="stroke"/><path d="M 491.47 321.01 L 477.98 327.77 L 481.34 321.02 L 477.96 314.27 Z" fill="rgb(0, 0, 0)" stroke="rgb(0, 0, 0)" stroke-width="4.5" stroke-miterlimit="10" pointer-events="all"/><path d="M 256.5 291 L 256.5 321 L 301.34 321" fill="none" stroke="rgb(0, 0, 0)" stroke-width="4.5" stroke-miterlimit="10" pointer-events="stroke"/><path d="M 311.47 321 L 297.97 327.75 L 301.34 321 L 297.97 314.25 Z" fill="rgb(0, 0, 0)" stroke="rgb(0, 0, 0)" stroke-width="4.5" stroke-miterlimit="10" pointer-events="all"/><path d="M 256.5 171 L 256.5 201 L 301.34 201" fill="none" stroke="rgb(0, 0, 0)" stroke-width="4.5" stroke-miterlimit="10" pointer-events="stroke"/><path d="M 311.47 201 L 297.97 207.75 L 301.34 201 L 297.97 194.25 Z" fill="rgb(0, 0, 0)" stroke="rgb(0, 0, 0)" stroke-width="4.5" stroke-miterlimit="10" pointer-events="all"/><path d="M 256.5 81 L 256.5 95.84" fill="none" stroke="rgb(0, 0, 0)" stroke-width="4.5" stroke-miterlimit="10" pointer-events="stroke"/><path d="M 256.5 105.97 L 249.75 92.47 L 256.5 95.84 L 263.25 92.47 Z" fill="rgb(0, 0, 0)" stroke="rgb(0, 0, 0)" stroke-width="4.5" stroke-miterlimit="10" pointer-events="all"/><ellipse cx="646.5" cy="201" rx="29.999999999999996" ry="29.999999999999996" fill="rgb(255, 255, 255)" stroke="rgb(0, 0, 0)" stroke-width="1.5" pointer-events="all"/><path d="M 654.9 213 L 638.1 213 L 650.1 201 L 638.1 189 L 654.9 189" fill="none" stroke="rgb(0, 0, 0)" stroke-width="1.5" stroke-miterlimit="10" pointer-events="all"/><path d="M 556.5 81 L 616.5 81 L 641.71 156.62" fill="none" stroke="rgb(0, 0, 0)" stroke-width="4.5" stroke-miterlimit="10" pointer-events="stroke"/><path d="M 644.91 166.23 L 634.24 155.55 L 641.71 156.62 L 647.04 151.29 Z" fill="rgb(0, 0, 0)" stroke="rgb(0, 0, 0)" stroke-width="4.5" stroke-miterlimit="10" pointer-events="all"/><path d="M 556.5 321 L 616.5 321 L 641.71 245.38" fill="none" stroke="rgb(0, 0, 0)" stroke-width="4.5" stroke-miterlimit="10" pointer-events="stroke"/><path d="M 644.91 235.77 L 647.04 250.71 L 641.71 245.38 L 634.24 246.45 Z" fill="rgb(0, 0, 0)" stroke="rgb(0, 0, 0)" stroke-width="4.5" stroke-miterlimit="10" pointer-events="all"/><path d="M 676.5 201 L 721.34 201" fill="none" stroke="rgb(0, 0, 0)" stroke-width="4.5" stroke-miterlimit="10" pointer-events="stroke"/><path d="M 731.47 201 L 717.97 207.75 L 721.34 201 L 717.97 194.25 Z" fill="rgb(0, 0, 0)" stroke="rgb(0, 0, 0)" stroke-width="4.5" stroke-miterlimit="10" pointer-events="all"/><rect x="496.5" y="51" width="60" height="60" fill="rgb(255, 255, 255)" stroke="rgb(0, 0, 0)" stroke-width="1.5" pointer-events="all"/><g transform="translate(-0.5 -0.5)scale(1.4999999999999998)"><switch><foreignObject pointer-events="none" width="100%" height="100%" requiredFeatures="http://www.w3.org/TR/SVG11/feature#Extensibility" style="overflow: visible; text-align: left;"><div xmlns="http://www.w3.org/1999/xhtml" style="display: flex; align-items: unsafe center; justify-content: unsafe center; width: 38px; height: 1px; padding-top: 54px; margin-left: 332px;"><div data-drawio-colors="color: rgb(0, 0, 0); " style="box-sizing: border-box; font-size: 0px; text-align: center;"><div style="display: inline-block; font-size: 12px; font-family: Helvetica; color: rgb(0, 0, 0); line-height: 1.2; pointer-events: all; white-space: normal; overflow-wrap: normal;">M:1</div></div></div></foreignObject><text x="351" y="58" fill="rgb(0, 0, 0)" font-family="Helvetica" font-size="12px" text-anchor="middle">M:1</text></switch></g><rect x="496.5" y="171" width="60" height="60" fill="rgb(255, 255, 255)" stroke="rgb(0, 0, 0)" stroke-width="1.5" pointer-events="all"/><g transform="translate(-0.5 -0.5)scale(1.4999999999999998)"><switch><foreignObject pointer-events="none" width="100%" height="100%" requiredFeatures="http://www.w3.org/TR/SVG11/feature#Extensibility" style="overflow: visible; text-align: left;"><div xmlns="http://www.w3.org/1999/xhtml" style="display: flex; align-items: unsafe center; justify-content: unsafe center; width: 38px; height: 1px; padding-top: 134px; margin-left: 332px;"><div data-drawio-colors="color: rgb(0, 0, 0); " style="box-sizing: border-box; font-size: 0px; text-align: center;"><div style="display: inline-block; font-size: 12px; font-family: Helvetica; color: rgb(0, 0, 0); line-height: 1.2; pointer-events: all; white-space: normal; overflow-wrap: normal;">M:1</div></div></div></foreignObject><text x="351" y="138" fill="rgb(0, 0, 0)" font-family="Helvetica" font-size="12px" text-anchor="middle">M:1</text></switch></g><rect x="496.5" y="291" width="60" height="60" fill="rgb(255, 255, 255)" stroke="rgb(0, 0, 0)" stroke-width="1.5" pointer-events="all"/><g transform="translate(-0.5 -0.5)scale(1.4999999999999998)"><switch><foreignObject pointer-events="none" width="100%" height="100%" requiredFeatures="http://www.w3.org/TR/SVG11/feature#Extensibility" style="overflow: visible; text-align: left;"><div xmlns="http://www.w3.org/1999/xhtml" style="display: flex; align-items: unsafe center; justify-content: unsafe center; width: 38px; height: 1px; padding-top: 214px; margin-left: 332px;"><div data-drawio-colors="color: rgb(0, 0, 0); " style="box-sizing: border-box; font-size: 0px; text-align: center;"><div style="display: inline-block; font-size: 12px; font-family: Helvetica; color: rgb(0, 0, 0); line-height: 1.2; pointer-events: all; white-space: normal; overflow-wrap: normal;">M:1</div></div></div></foreignObject><text x="351" y="218" fill="rgb(0, 0, 0)" font-family="Helvetica" font-size="12px" text-anchor="middle">M:1</text></switch></g><rect x="316.5" y="51" width="120" height="60" fill="rgb(255, 255, 255)" stroke="rgb(0, 0, 0)" stroke-width="1.5" pointer-events="all"/><g transform="translate(-0.5 -0.5)scale(1.4999999999999998)"><switch><foreignObject pointer-events="none" width="100%" height="100%" requiredFeatures="http://www.w3.org/TR/SVG11/feature#Extensibility" style="overflow: visible; text-align: left;"><div xmlns="http://www.w3.org/1999/xhtml" style="display: flex; align-items: unsafe center; justify-content: unsafe center; width: 78px; height: 1px; padding-top: 54px; margin-left: 212px;"><div data-drawio-colors="color: rgb(0, 0, 0); " style="box-sizing: border-box; font-size: 0px; text-align: center;"><div style="display: inline-block; font-size: 12px; font-family: Helvetica; color: rgb(0, 0, 0); line-height: 1.2; pointer-events: all; white-space: normal; overflow-wrap: normal;"><mjx-container class="MathJax" jax="SVG" display="true"><svg xmlns="http://www.w3.org/2000/svg" width="7.549ex" height="2.593ex" role="img" focusable="false" viewBox="0 -896 3336.7 1146" xmlns:xlink="http://www.w3.org/1999/xlink" style="vertical-align: -0.566ex;"><defs><path id="MJX-256-TEX-I-1D43B" d="M228 637Q194 637 192 641Q191 643 191 649Q191 673 202 682Q204 683 219 683Q260 681 355 681Q389 681 418 681T463 682T483 682Q499 682 499 672Q499 670 497 658Q492 641 487 638H485Q483 638 480 638T473 638T464 637T455 637Q416 636 405 634T387 623Q384 619 355 500Q348 474 340 442T328 395L324 380Q324 378 469 378H614L615 381Q615 384 646 504Q674 619 674 627T617 637Q594 637 587 639T580 648Q580 650 582 660Q586 677 588 679T604 682Q609 682 646 681T740 680Q802 680 835 681T871 682Q888 682 888 672Q888 645 876 638H874Q872 638 869 638T862 638T853 637T844 637Q805 636 794 634T776 623Q773 618 704 340T634 58Q634 51 638 51Q646 48 692 46H723Q729 38 729 37T726 19Q722 6 716 0H701Q664 2 567 2Q533 2 504 2T458 2T437 1Q420 1 420 10Q420 15 423 24Q428 43 433 45Q437 46 448 46H454Q481 46 514 49Q520 50 522 50T528 55T534 64T540 82T547 110T558 153Q565 181 569 198Q602 330 602 331T457 332H312L279 197Q245 63 245 58Q245 51 253 49T303 46H334Q340 38 340 37T337 19Q333 6 327 0H312Q275 2 178 2Q144 2 115 2T69 2T48 1Q31 1 31 10Q31 12 34 24Q39 43 44 45Q48 46 59 46H65Q92 46 125 49Q139 52 144 61Q147 65 216 339T285 628Q285 635 228 637Z"/><path id="MJX-256-TEX-N-30" d="M96 585Q152 666 249 666Q297 666 345 640T423 548Q460 465 460 320Q460 165 417 83Q397 41 362 16T301 -15T250 -22Q224 -22 198 -16T137 16T82 83Q39 165 39 320Q39 494 96 585ZM321 597Q291 629 250 629Q208 629 178 597Q153 571 145 525T137 333Q137 175 145 125T181 46Q209 16 250 16Q290 16 318 46Q347 76 354 130T362 333Q362 478 354 524T321 597Z"/><path id="MJX-256-TEX-N-28" d="M94 250Q94 319 104 381T127 488T164 576T202 643T244 695T277 729T302 750H315H319Q333 750 333 741Q333 738 316 720T275 667T226 581T184 443T167 250T184 58T225 -81T274 -167T316 -220T333 -241Q333 -250 318 -250H315H302L274 -226Q180 -141 137 -14T94 250Z"/><path id="MJX-256-TEX-I-1D467" d="M347 338Q337 338 294 349T231 360Q211 360 197 356T174 346T162 335T155 324L153 320Q150 317 138 317Q117 317 117 325Q117 330 120 339Q133 378 163 406T229 440Q241 442 246 442Q271 442 291 425T329 392T367 375Q389 375 411 408T434 441Q435 442 449 442H462Q468 436 468 434Q468 430 463 420T449 399T432 377T418 358L411 349Q368 298 275 214T160 106L148 94L163 93Q185 93 227 82T290 71Q328 71 360 90T402 140Q406 149 409 151T424 153Q443 153 443 143Q443 138 442 134Q425 72 376 31T278 -11Q252 -11 232 6T193 40T155 57Q111 57 76 -3Q70 -11 59 -11H54H41Q35 -5 35 -2Q35 13 93 84Q132 129 225 214T340 322Q352 338 347 338Z"/><path id="MJX-256-TEX-I-1D440" d="M289 629Q289 635 232 637Q208 637 201 638T194 648Q194 649 196 659Q197 662 198 666T199 671T201 676T203 679T207 681T212 683T220 683T232 684Q238 684 262 684T307 683Q386 683 398 683T414 678Q415 674 451 396L487 117L510 154Q534 190 574 254T662 394Q837 673 839 675Q840 676 842 678T846 681L852 683H948Q965 683 988 683T1017 684Q1051 684 1051 673Q1051 668 1048 656T1045 643Q1041 637 1008 637Q968 636 957 634T939 623Q936 618 867 340T797 59Q797 55 798 54T805 50T822 48T855 46H886Q892 37 892 35Q892 19 885 5Q880 0 869 0Q864 0 828 1T736 2Q675 2 644 2T609 1Q592 1 592 11Q592 13 594 25Q598 41 602 43T625 46Q652 46 685 49Q699 52 704 61Q706 65 742 207T813 490T848 631L654 322Q458 10 453 5Q451 4 449 3Q444 0 433 0Q418 0 415 7Q413 11 374 317L335 624L267 354Q200 88 200 79Q206 46 272 46H282Q288 41 289 37T286 19Q282 3 278 1Q274 0 267 0Q265 0 255 0T221 1T157 2Q127 2 95 1T58 0Q43 0 39 2T35 11Q35 13 38 25T43 40Q45 46 65 46Q135 46 154 86Q158 92 223 354T289 629Z"/><path id="MJX-256-TEX-N-29" d="M60 749L64 750Q69 750 74 750H86L114 726Q208 641 251 514T294 250Q294 182 284 119T261 12T224 -76T186 -143T145 -194T113 -227T90 -246Q87 -249 86 -250H74Q66 -250 63 -250T58 -247T55 -238Q56 -237 66 -225Q221 -64 221 250T66 725Q56 737 55 738Q55 746 60 749Z"/></defs><g stroke="currentColor" fill="currentColor" stroke-width="0" transform="scale(1,-1)"><g data-mml-node="math"><g data-mml-node="msub"><g data-mml-node="mi"><use data-c="1D43B" xlink:href="#MJX-256-TEX-I-1D43B"/></g><g data-mml-node="mn" transform="translate(864,-150) scale(0.707)"><use data-c="30" xlink:href="#MJX-256-TEX-N-30"/></g></g><g data-mml-node="mo" transform="translate(1267.6,0)"><use data-c="28" xlink:href="#MJX-256-TEX-N-28"/></g><g data-mml-node="msup" transform="translate(1656.6,0)"><g data-mml-node="mi"><use data-c="1D467" xlink:href="#MJX-256-TEX-I-1D467"/></g><g data-mml-node="mi" transform="translate(498,413) scale(0.707)"><use data-c="1D440" xlink:href="#MJX-256-TEX-I-1D440"/></g></g><g data-mml-node="mo" transform="translate(2947.7,0)"><use data-c="29" xlink:href="#MJX-256-TEX-N-29"/></g></g></g></svg></mjx-container></div></div></div></foreignObject><text x="251" y="58" fill="rgb(0, 0, 0)" font-family="Helvetica" font-size="12px" text-anchor="middle">$$H_0(z^M)$$</text></switch></g><rect x="316.5" y="171" width="120" height="60" fill="rgb(255, 255, 255)" stroke="rgb(0, 0, 0)" stroke-width="1.5" pointer-events="all"/><g transform="translate(-0.5 -0.5)scale(1.4999999999999998)"><switch><foreignObject pointer-events="none" width="100%" height="100%" requiredFeatures="http://www.w3.org/TR/SVG11/feature#Extensibility" style="overflow: visible; text-align: left;"><div xmlns="http://www.w3.org/1999/xhtml" style="display: flex; align-items: unsafe center; justify-content: unsafe center; width: 78px; height: 1px; padding-top: 134px; margin-left: 212px;"><div data-drawio-colors="color: rgb(0, 0, 0); " style="box-sizing: border-box; font-size: 0px; text-align: center;"><div style="display: inline-block; font-size: 12px; font-family: Helvetica; color: rgb(0, 0, 0); line-height: 1.2; pointer-events: all; white-space: normal; overflow-wrap: normal;"><mjx-container class="MathJax" jax="SVG" display="true"><svg xmlns="http://www.w3.org/2000/svg" width="7.549ex" height="2.593ex" role="img" focusable="false" viewBox="0 -896 3336.7 1146" xmlns:xlink="http://www.w3.org/1999/xlink" style="vertical-align: -0.566ex;"><defs><path id="MJX-257-TEX-I-1D43B" d="M228 637Q194 637 192 641Q191 643 191 649Q191 673 202 682Q204 683 219 683Q260 681 355 681Q389 681 418 681T463 682T483 682Q499 682 499 672Q499 670 497 658Q492 641 487 638H485Q483 638 480 638T473 638T464 637T455 637Q416 636 405 634T387 623Q384 619 355 500Q348 474 340 442T328 395L324 380Q324 378 469 378H614L615 381Q615 384 646 504Q674 619 674 627T617 637Q594 637 587 639T580 648Q580 650 582 660Q586 677 588 679T604 682Q609 682 646 681T740 680Q802 680 835 681T871 682Q888 682 888 672Q888 645 876 638H874Q872 638 869 638T862 638T853 637T844 637Q805 636 794 634T776 623Q773 618 704 340T634 58Q634 51 638 51Q646 48 692 46H723Q729 38 729 37T726 19Q722 6 716 0H701Q664 2 567 2Q533 2 504 2T458 2T437 1Q420 1 420 10Q420 15 423 24Q428 43 433 45Q437 46 448 46H454Q481 46 514 49Q520 50 522 50T528 55T534 64T540 82T547 110T558 153Q565 181 569 198Q602 330 602 331T457 332H312L279 197Q245 63 245 58Q245 51 253 49T303 46H334Q340 38 340 37T337 19Q333 6 327 0H312Q275 2 178 2Q144 2 115 2T69 2T48 1Q31 1 31 10Q31 12 34 24Q39 43 44 45Q48 46 59 46H65Q92 46 125 49Q139 52 144 61Q147 65 216 339T285 628Q285 635 228 637Z"/><path id="MJX-257-TEX-N-31" d="M213 578L200 573Q186 568 160 563T102 556H83V602H102Q149 604 189 617T245 641T273 663Q275 666 285 666Q294 666 302 660V361L303 61Q310 54 315 52T339 48T401 46H427V0H416Q395 3 257 3Q121 3 100 0H88V46H114Q136 46 152 46T177 47T193 50T201 52T207 57T213 61V578Z"/><path id="MJX-257-TEX-N-28" d="M94 250Q94 319 104 381T127 488T164 576T202 643T244 695T277 729T302 750H315H319Q333 750 333 741Q333 738 316 720T275 667T226 581T184 443T167 250T184 58T225 -81T274 -167T316 -220T333 -241Q333 -250 318 -250H315H302L274 -226Q180 -141 137 -14T94 250Z"/><path id="MJX-257-TEX-I-1D467" d="M347 338Q337 338 294 349T231 360Q211 360 197 356T174 346T162 335T155 324L153 320Q150 317 138 317Q117 317 117 325Q117 330 120 339Q133 378 163 406T229 440Q241 442 246 442Q271 442 291 425T329 392T367 375Q389 375 411 408T434 441Q435 442 449 442H462Q468 436 468 434Q468 430 463 420T449 399T432 377T418 358L411 349Q368 298 275 214T160 106L148 94L163 93Q185 93 227 82T290 71Q328 71 360 90T402 140Q406 149 409 151T424 153Q443 153 443 143Q443 138 442 134Q425 72 376 31T278 -11Q252 -11 232 6T193 40T155 57Q111 57 76 -3Q70 -11 59 -11H54H41Q35 -5 35 -2Q35 13 93 84Q132 129 225 214T340 322Q352 338 347 338Z"/><path id="MJX-257-TEX-I-1D440" d="M289 629Q289 635 232 637Q208 637 201 638T194 648Q194 649 196 659Q197 662 198 666T199 671T201 676T203 679T207 681T212 683T220 683T232 684Q238 684 262 684T307 683Q386 683 398 683T414 678Q415 674 451 396L487 117L510 154Q534 190 574 254T662 394Q837 673 839 675Q840 676 842 678T846 681L852 683H948Q965 683 988 683T1017 684Q1051 684 1051 673Q1051 668 1048 656T1045 643Q1041 637 1008 637Q968 636 957 634T939 623Q936 618 867 340T797 59Q797 55 798 54T805 50T822 48T855 46H886Q892 37 892 35Q892 19 885 5Q880 0 869 0Q864 0 828 1T736 2Q675 2 644 2T609 1Q592 1 592 11Q592 13 594 25Q598 41 602 43T625 46Q652 46 685 49Q699 52 704 61Q706 65 742 207T813 490T848 631L654 322Q458 10 453 5Q451 4 449 3Q444 0 433 0Q418 0 415 7Q413 11 374 317L335 624L267 354Q200 88 200 79Q206 46 272 46H282Q288 41 289 37T286 19Q282 3 278 1Q274 0 267 0Q265 0 255 0T221 1T157 2Q127 2 95 1T58 0Q43 0 39 2T35 11Q35 13 38 25T43 40Q45 46 65 46Q135 46 154 86Q158 92 223 354T289 629Z"/><path id="MJX-257-TEX-N-29" d="M60 749L64 750Q69 750 74 750H86L114 726Q208 641 251 514T294 250Q294 182 284 119T261 12T224 -76T186 -143T145 -194T113 -227T90 -246Q87 -249 86 -250H74Q66 -250 63 -250T58 -247T55 -238Q56 -237 66 -225Q221 -64 221 250T66 725Q56 737 55 738Q55 746 60 749Z"/></defs><g stroke="currentColor" fill="currentColor" stroke-width="0" transform="scale(1,-1)"><g data-mml-node="math"><g data-mml-node="msub"><g data-mml-node="mi"><use data-c="1D43B" xlink:href="#MJX-257-TEX-I-1D43B"/></g><g data-mml-node="mn" transform="translate(864,-150) scale(0.707)"><use data-c="31" xlink:href="#MJX-257-TEX-N-31"/></g></g><g data-mml-node="mo" transform="translate(1267.6,0)"><use data-c="28" xlink:href="#MJX-257-TEX-N-28"/></g><g data-mml-node="msup" transform="translate(1656.6,0)"><g data-mml-node="mi"><use data-c="1D467" xlink:href="#MJX-257-TEX-I-1D467"/></g><g data-mml-node="mi" transform="translate(498,413) scale(0.707)"><use data-c="1D440" xlink:href="#MJX-257-TEX-I-1D440"/></g></g><g data-mml-node="mo" transform="translate(2947.7,0)"><use data-c="29" xlink:href="#MJX-257-TEX-N-29"/></g></g></g></svg></mjx-container></div></div></div></foreignObject><text x="251" y="138" fill="rgb(0, 0, 0)" font-family="Helvetica" font-size="12px" text-anchor="middle">$$H_1(z^M)$$</text></switch></g><rect x="316.5" y="291" width="120" height="60" fill="rgb(255, 255, 255)" stroke="rgb(0, 0, 0)" stroke-width="1.5" pointer-events="all"/><g transform="translate(-0.5 -0.5)scale(1.4999999999999998)"><switch><foreignObject pointer-events="none" width="100%" height="100%" requiredFeatures="http://www.w3.org/TR/SVG11/feature#Extensibility" style="overflow: visible; text-align: left;"><div xmlns="http://www.w3.org/1999/xhtml" style="display: flex; align-items: unsafe center; justify-content: unsafe center; width: 78px; height: 1px; padding-top: 214px; margin-left: 212px;"><div data-drawio-colors="color: rgb(0, 0, 0); " style="box-sizing: border-box; font-size: 0px; text-align: center;"><div style="display: inline-block; font-size: 12px; font-family: Helvetica; color: rgb(0, 0, 0); line-height: 1.2; pointer-events: all; white-space: normal; overflow-wrap: normal;"><mjx-container class="MathJax" jax="SVG" display="true"><svg xmlns="http://www.w3.org/2000/svg" width="7.549ex" height="2.593ex" role="img" focusable="false" viewBox="0 -896 3336.7 1146" xmlns:xlink="http://www.w3.org/1999/xlink" style="vertical-align: -0.566ex;"><defs><path id="MJX-258-TEX-I-1D43B" d="M228 637Q194 637 192 641Q191 643 191 649Q191 673 202 682Q204 683 219 683Q260 681 355 681Q389 681 418 681T463 682T483 682Q499 682 499 672Q499 670 497 658Q492 641 487 638H485Q483 638 480 638T473 638T464 637T455 637Q416 636 405 634T387 623Q384 619 355 500Q348 474 340 442T328 395L324 380Q324 378 469 378H614L615 381Q615 384 646 504Q674 619 674 627T617 637Q594 637 587 639T580 648Q580 650 582 660Q586 677 588 679T604 682Q609 682 646 681T740 680Q802 680 835 681T871 682Q888 682 888 672Q888 645 876 638H874Q872 638 869 638T862 638T853 637T844 637Q805 636 794 634T776 623Q773 618 704 340T634 58Q634 51 638 51Q646 48 692 46H723Q729 38 729 37T726 19Q722 6 716 0H701Q664 2 567 2Q533 2 504 2T458 2T437 1Q420 1 420 10Q420 15 423 24Q428 43 433 45Q437 46 448 46H454Q481 46 514 49Q520 50 522 50T528 55T534 64T540 82T547 110T558 153Q565 181 569 198Q602 330 602 331T457 332H312L279 197Q245 63 245 58Q245 51 253 49T303 46H334Q340 38 340 37T337 19Q333 6 327 0H312Q275 2 178 2Q144 2 115 2T69 2T48 1Q31 1 31 10Q31 12 34 24Q39 43 44 45Q48 46 59 46H65Q92 46 125 49Q139 52 144 61Q147 65 216 339T285 628Q285 635 228 637Z"/><path id="MJX-258-TEX-N-32" d="M109 429Q82 429 66 447T50 491Q50 562 103 614T235 666Q326 666 387 610T449 465Q449 422 429 383T381 315T301 241Q265 210 201 149L142 93L218 92Q375 92 385 97Q392 99 409 186V189H449V186Q448 183 436 95T421 3V0H50V19V31Q50 38 56 46T86 81Q115 113 136 137Q145 147 170 174T204 211T233 244T261 278T284 308T305 340T320 369T333 401T340 431T343 464Q343 527 309 573T212 619Q179 619 154 602T119 569T109 550Q109 549 114 549Q132 549 151 535T170 489Q170 464 154 447T109 429Z"/><path id="MJX-258-TEX-N-28" d="M94 250Q94 319 104 381T127 488T164 576T202 643T244 695T277 729T302 750H315H319Q333 750 333 741Q333 738 316 720T275 667T226 581T184 443T167 250T184 58T225 -81T274 -167T316 -220T333 -241Q333 -250 318 -250H315H302L274 -226Q180 -141 137 -14T94 250Z"/><path id="MJX-258-TEX-I-1D467" d="M347 338Q337 338 294 349T231 360Q211 360 197 356T174 346T162 335T155 324L153 320Q150 317 138 317Q117 317 117 325Q117 330 120 339Q133 378 163 406T229 440Q241 442 246 442Q271 442 291 425T329 392T367 375Q389 375 411 408T434 441Q435 442 449 442H462Q468 436 468 434Q468 430 463 420T449 399T432 377T418 358L411 349Q368 298 275 214T160 106L148 94L163 93Q185 93 227 82T290 71Q328 71 360 90T402 140Q406 149 409 151T424 153Q443 153 443 143Q443 138 442 134Q425 72 376 31T278 -11Q252 -11 232 6T193 40T155 57Q111 57 76 -3Q70 -11 59 -11H54H41Q35 -5 35 -2Q35 13 93 84Q132 129 225 214T340 322Q352 338 347 338Z"/><path id="MJX-258-TEX-I-1D440" d="M289 629Q289 635 232 637Q208 637 201 638T194 648Q194 649 196 659Q197 662 198 666T199 671T201 676T203 679T207 681T212 683T220 683T232 684Q238 684 262 684T307 683Q386 683 398 683T414 678Q415 674 451 396L487 117L510 154Q534 190 574 254T662 394Q837 673 839 675Q840 676 842 678T846 681L852 683H948Q965 683 988 683T1017 684Q1051 684 1051 673Q1051 668 1048 656T1045 643Q1041 637 1008 637Q968 636 957 634T939 623Q936 618 867 340T797 59Q797 55 798 54T805 50T822 48T855 46H886Q892 37 892 35Q892 19 885 5Q880 0 869 0Q864 0 828 1T736 2Q675 2 644 2T609 1Q592 1 592 11Q592 13 594 25Q598 41 602 43T625 46Q652 46 685 49Q699 52 704 61Q706 65 742 207T813 490T848 631L654 322Q458 10 453 5Q451 4 449 3Q444 0 433 0Q418 0 415 7Q413 11 374 317L335 624L267 354Q200 88 200 79Q206 46 272 46H282Q288 41 289 37T286 19Q282 3 278 1Q274 0 267 0Q265 0 255 0T221 1T157 2Q127 2 95 1T58 0Q43 0 39 2T35 11Q35 13 38 25T43 40Q45 46 65 46Q135 46 154 86Q158 92 223 354T289 629Z"/><path id="MJX-258-TEX-N-29" d="M60 749L64 750Q69 750 74 750H86L114 726Q208 641 251 514T294 250Q294 182 284 119T261 12T224 -76T186 -143T145 -194T113 -227T90 -246Q87 -249 86 -250H74Q66 -250 63 -250T58 -247T55 -238Q56 -237 66 -225Q221 -64 221 250T66 725Q56 737 55 738Q55 746 60 749Z"/></defs><g stroke="currentColor" fill="currentColor" stroke-width="0" transform="scale(1,-1)"><g data-mml-node="math"><g data-mml-node="msub"><g data-mml-node="mi"><use data-c="1D43B" xlink:href="#MJX-258-TEX-I-1D43B"/></g><g data-mml-node="mn" transform="translate(864,-150) scale(0.707)"><use data-c="32" xlink:href="#MJX-258-TEX-N-32"/></g></g><g data-mml-node="mo" transform="translate(1267.6,0)"><use data-c="28" xlink:href="#MJX-258-TEX-N-28"/></g><g data-mml-node="msup" transform="translate(1656.6,0)"><g data-mml-node="mi"><use data-c="1D467" xlink:href="#MJX-258-TEX-I-1D467"/></g><g data-mml-node="mi" transform="translate(498,413) scale(0.707)"><use data-c="1D440" xlink:href="#MJX-258-TEX-I-1D440"/></g></g><g data-mml-node="mo" transform="translate(2947.7,0)"><use data-c="29" xlink:href="#MJX-258-TEX-N-29"/></g></g></g></svg></mjx-container></div></div></div></foreignObject><text x="251" y="218" fill="rgb(0, 0, 0)" font-family="Helvetica" font-size="12px" text-anchor="middle">$$H_2(z^M)$$</text></switch></g><rect x="106.5" y="21" width="120" height="30" fill="none" stroke="none" pointer-events="all"/><g transform="translate(-0.5 -0.5)scale(1.4999999999999998)"><switch><foreignObject pointer-events="none" width="100%" height="100%" requiredFeatures="http://www.w3.org/TR/SVG11/feature#Extensibility" style="overflow: visible; text-align: left;"><div xmlns="http://www.w3.org/1999/xhtml" style="display: flex; align-items: unsafe center; justify-content: unsafe center; width: 78px; height: 1px; padding-top: 24px; margin-left: 72px;"><div data-drawio-colors="color: rgb(0, 0, 0); " style="box-sizing: border-box; font-size: 0px; text-align: center;"><div style="display: inline-block; font-size: 12px; font-family: Helvetica; color: rgb(0, 0, 0); line-height: 1.2; pointer-events: all; white-space: normal; overflow-wrap: normal;"><mjx-container class="MathJax" jax="SVG" display="true"><svg xmlns="http://www.w3.org/2000/svg" width="5.785ex" height="2.017ex" role="img" focusable="false" viewBox="0 -880.4 2556.9 891.4" xmlns:xlink="http://www.w3.org/1999/xlink" style="vertical-align: -0.025ex;"><defs><path id="MJX-259-TEX-I-1D452" d="M39 168Q39 225 58 272T107 350T174 402T244 433T307 442H310Q355 442 388 420T421 355Q421 265 310 237Q261 224 176 223Q139 223 138 221Q138 219 132 186T125 128Q125 81 146 54T209 26T302 45T394 111Q403 121 406 121Q410 121 419 112T429 98T420 82T390 55T344 24T281 -1T205 -11Q126 -11 83 42T39 168ZM373 353Q367 405 305 405Q272 405 244 391T199 357T170 316T154 280T149 261Q149 260 169 260Q282 260 327 284T373 353Z"/><path id="MJX-259-TEX-N-2212" d="M84 237T84 250T98 270H679Q694 262 694 250T679 230H98Q84 237 84 250Z"/><path id="MJX-259-TEX-I-1D457" d="M297 596Q297 627 318 644T361 661Q378 661 389 651T403 623Q403 595 384 576T340 557Q322 557 310 567T297 596ZM288 376Q288 405 262 405Q240 405 220 393T185 362T161 325T144 293L137 279Q135 278 121 278H107Q101 284 101 286T105 299Q126 348 164 391T252 441Q253 441 260 441T272 442Q296 441 316 432Q341 418 354 401T367 348V332L318 133Q267 -67 264 -75Q246 -125 194 -164T75 -204Q25 -204 7 -183T-12 -137Q-12 -110 7 -91T53 -71Q70 -71 82 -81T95 -112Q95 -148 63 -167Q69 -168 77 -168Q111 -168 139 -140T182 -74L193 -32Q204 11 219 72T251 197T278 308T289 365Q289 372 288 376Z"/><path id="MJX-259-TEX-I-1D714" d="M495 384Q495 406 514 424T555 443Q574 443 589 425T604 364Q604 334 592 278T555 155T483 38T377 -11Q297 -11 267 66Q266 68 260 61Q201 -11 125 -11Q15 -11 15 139Q15 230 56 325T123 434Q135 441 147 436Q160 429 160 418Q160 406 140 379T94 306T62 208Q61 202 61 187Q61 124 85 100T143 76Q201 76 245 129L253 137V156Q258 297 317 297Q348 297 348 261Q348 243 338 213T318 158L308 135Q309 133 310 129T318 115T334 97T358 83T393 76Q456 76 501 148T546 274Q546 305 533 325T508 357T495 384Z"/><path id="MJX-259-TEX-I-1D450" d="M34 159Q34 268 120 355T306 442Q362 442 394 418T427 355Q427 326 408 306T360 285Q341 285 330 295T319 325T330 359T352 380T366 386H367Q367 388 361 392T340 400T306 404Q276 404 249 390Q228 381 206 359Q162 315 142 235T121 119Q121 73 147 50Q169 26 205 26H209Q321 26 394 111Q403 121 406 121Q410 121 419 112T429 98T420 83T391 55T346 25T282 0T202 -11Q127 -11 81 37T34 159Z"/><path id="MJX-259-TEX-I-1D45B" d="M21 287Q22 293 24 303T36 341T56 388T89 425T135 442Q171 442 195 424T225 390T231 369Q231 367 232 367L243 378Q304 442 382 442Q436 442 469 415T503 336T465 179T427 52Q427 26 444 26Q450 26 453 27Q482 32 505 65T540 145Q542 153 560 153Q580 153 580 145Q580 144 576 130Q568 101 554 73T508 17T439 -10Q392 -10 371 17T350 73Q350 92 386 193T423 345Q423 404 379 404H374Q288 404 229 303L222 291L189 157Q156 26 151 16Q138 -11 108 -11Q95 -11 87 -5T76 7T74 17Q74 30 112 180T152 343Q153 348 153 366Q153 405 129 405Q91 405 66 305Q60 285 60 284Q58 278 41 278H27Q21 284 21 287Z"/></defs><g stroke="currentColor" fill="currentColor" stroke-width="0" transform="scale(1,-1)"><g data-mml-node="math"><g data-mml-node="msup"><g data-mml-node="mi"><use data-c="1D452" xlink:href="#MJX-259-TEX-I-1D452"/></g><g data-mml-node="TeXAtom" transform="translate(499,413) scale(0.707)" data-mjx-texclass="ORD"><g data-mml-node="mo"><use data-c="2212" xlink:href="#MJX-259-TEX-N-2212"/></g><g data-mml-node="mi" transform="translate(778,0)"><use data-c="1D457" xlink:href="#MJX-259-TEX-I-1D457"/></g><g data-mml-node="msub" transform="translate(1190,0)"><g data-mml-node="mi"><use data-c="1D714" xlink:href="#MJX-259-TEX-I-1D714"/></g><g data-mml-node="mi" transform="translate(655,-150) scale(0.796)"><use data-c="1D450" xlink:href="#MJX-259-TEX-I-1D450"/></g></g><g data-mml-node="mi" transform="translate(2239.6,0)"><use data-c="1D45B" xlink:href="#MJX-259-TEX-I-1D45B"/></g></g></g></g></g></svg></mjx-container></div></div></div></foreignObject><text x="111" y="28" fill="rgb(0, 0, 0)" font-family="Helvetica" font-size="12px" text-anchor="middle">$$e^{-j \omeg...</text></switch></g><rect x="16.5" y="66" width="60" height="30" fill="none" stroke="none" pointer-events="all"/><g transform="translate(-0.5 -0.5)scale(1.4999999999999998)"><switch><foreignObject pointer-events="none" width="100%" height="100%" requiredFeatures="http://www.w3.org/TR/SVG11/feature#Extensibility" style="overflow: visible; text-align: left;"><div xmlns="http://www.w3.org/1999/xhtml" style="display: flex; align-items: unsafe center; justify-content: unsafe flex-end; width: 38px; height: 1px; padding-top: 54px; margin-left: 11px;"><div data-drawio-colors="color: rgb(0, 0, 0); " style="box-sizing: border-box; font-size: 0px; text-align: right;"><div style="display: inline-block; font-size: 12px; font-family: Helvetica; color: rgb(0, 0, 0); line-height: 1.2; pointer-events: all; white-space: normal; overflow-wrap: normal;"><mjx-container class="MathJax" jax="SVG" display="true"><svg xmlns="http://www.w3.org/2000/svg" width="3.91ex" height="2.262ex" role="img" focusable="false" viewBox="0 -750 1728 1000" xmlns:xlink="http://www.w3.org/1999/xlink" style="vertical-align: -0.566ex;"><defs><path id="MJX-260-TEX-I-1D465" d="M52 289Q59 331 106 386T222 442Q257 442 286 424T329 379Q371 442 430 442Q467 442 494 420T522 361Q522 332 508 314T481 292T458 288Q439 288 427 299T415 328Q415 374 465 391Q454 404 425 404Q412 404 406 402Q368 386 350 336Q290 115 290 78Q290 50 306 38T341 26Q378 26 414 59T463 140Q466 150 469 151T485 153H489Q504 153 504 145Q504 144 502 134Q486 77 440 33T333 -11Q263 -11 227 52Q186 -10 133 -10H127Q78 -10 57 16T35 71Q35 103 54 123T99 143Q142 143 142 101Q142 81 130 66T107 46T94 41L91 40Q91 39 97 36T113 29T132 26Q168 26 194 71Q203 87 217 139T245 247T261 313Q266 340 266 352Q266 380 251 392T217 404Q177 404 142 372T93 290Q91 281 88 280T72 278H58Q52 284 52 289Z"/><path id="MJX-260-TEX-N-5B" d="M118 -250V750H255V710H158V-210H255V-250H118Z"/><path id="MJX-260-TEX-I-1D45B" d="M21 287Q22 293 24 303T36 341T56 388T89 425T135 442Q171 442 195 424T225 390T231 369Q231 367 232 367L243 378Q304 442 382 442Q436 442 469 415T503 336T465 179T427 52Q427 26 444 26Q450 26 453 27Q482 32 505 65T540 145Q542 153 560 153Q580 153 580 145Q580 144 576 130Q568 101 554 73T508 17T439 -10Q392 -10 371 17T350 73Q350 92 386 193T423 345Q423 404 379 404H374Q288 404 229 303L222 291L189 157Q156 26 151 16Q138 -11 108 -11Q95 -11 87 -5T76 7T74 17Q74 30 112 180T152 343Q153 348 153 366Q153 405 129 405Q91 405 66 305Q60 285 60 284Q58 278 41 278H27Q21 284 21 287Z"/><path id="MJX-260-TEX-N-5D" d="M22 710V750H159V-250H22V-210H119V710H22Z"/></defs><g stroke="currentColor" fill="currentColor" stroke-width="0" transform="scale(1,-1)"><g data-mml-node="math"><g data-mml-node="mi"><use data-c="1D465" xlink:href="#MJX-260-TEX-I-1D465"/></g><g data-mml-node="mo" transform="translate(572,0)"><use data-c="5B" xlink:href="#MJX-260-TEX-N-5B"/></g><g data-mml-node="mi" transform="translate(850,0)"><use data-c="1D45B" xlink:href="#MJX-260-TEX-I-1D45B"/></g><g data-mml-node="mo" transform="translate(1450,0)"><use data-c="5D" xlink:href="#MJX-260-TEX-N-5D"/></g></g></g></svg></mjx-container></div></div></div></foreignObject><text x="49" y="58" fill="rgb(0, 0, 0)" font-family="Helvetica" font-size="12px" text-anchor="end">$$x[n]...</text></switch></g><rect x="736.5" y="186" width="60" height="30" fill="none" stroke="none" pointer-events="all"/><g transform="translate(-0.5 -0.5)scale(1.4999999999999998)"><switch><foreignObject pointer-events="none" width="100%" height="100%" requiredFeatures="http://www.w3.org/TR/SVG11/feature#Extensibility" style="overflow: visible; text-align: left;"><div xmlns="http://www.w3.org/1999/xhtml" style="display: flex; align-items: unsafe center; justify-content: unsafe flex-start; width: 38px; height: 1px; padding-top: 134px; margin-left: 493px;"><div data-drawio-colors="color: rgb(0, 0, 0); " style="box-sizing: border-box; font-size: 0px; text-align: left;"><div style="display: inline-block; font-size: 12px; font-family: Helvetica; color: rgb(0, 0, 0); line-height: 1.2; pointer-events: all; white-space: normal; overflow-wrap: normal;"><mjx-container class="MathJax" jax="SVG" display="true"><svg xmlns="http://www.w3.org/2000/svg" width="4.353ex" height="2.262ex" role="img" focusable="false" viewBox="0 -750 1924 1000" xmlns:xlink="http://www.w3.org/1999/xlink" style="vertical-align: -0.566ex;"><defs><path id="MJX-261-TEX-I-1D466" d="M21 287Q21 301 36 335T84 406T158 442Q199 442 224 419T250 355Q248 336 247 334Q247 331 231 288T198 191T182 105Q182 62 196 45T238 27Q261 27 281 38T312 61T339 94Q339 95 344 114T358 173T377 247Q415 397 419 404Q432 431 462 431Q475 431 483 424T494 412T496 403Q496 390 447 193T391 -23Q363 -106 294 -155T156 -205Q111 -205 77 -183T43 -117Q43 -95 50 -80T69 -58T89 -48T106 -45Q150 -45 150 -87Q150 -107 138 -122T115 -142T102 -147L99 -148Q101 -153 118 -160T152 -167H160Q177 -167 186 -165Q219 -156 247 -127T290 -65T313 -9T321 21L315 17Q309 13 296 6T270 -6Q250 -11 231 -11Q185 -11 150 11T104 82Q103 89 103 113Q103 170 138 262T173 379Q173 380 173 381Q173 390 173 393T169 400T158 404H154Q131 404 112 385T82 344T65 302T57 280Q55 278 41 278H27Q21 284 21 287Z"/><path id="MJX-261-TEX-N-5B" d="M118 -250V750H255V710H158V-210H255V-250H118Z"/><path id="MJX-261-TEX-I-1D45A" d="M21 287Q22 293 24 303T36 341T56 388T88 425T132 442T175 435T205 417T221 395T229 376L231 369Q231 367 232 367L243 378Q303 442 384 442Q401 442 415 440T441 433T460 423T475 411T485 398T493 385T497 373T500 364T502 357L510 367Q573 442 659 442Q713 442 746 415T780 336Q780 285 742 178T704 50Q705 36 709 31T724 26Q752 26 776 56T815 138Q818 149 821 151T837 153Q857 153 857 145Q857 144 853 130Q845 101 831 73T785 17T716 -10Q669 -10 648 17T627 73Q627 92 663 193T700 345Q700 404 656 404H651Q565 404 506 303L499 291L466 157Q433 26 428 16Q415 -11 385 -11Q372 -11 364 -4T353 8T350 18Q350 29 384 161L420 307Q423 322 423 345Q423 404 379 404H374Q288 404 229 303L222 291L189 157Q156 26 151 16Q138 -11 108 -11Q95 -11 87 -5T76 7T74 17Q74 30 112 181Q151 335 151 342Q154 357 154 369Q154 405 129 405Q107 405 92 377T69 316T57 280Q55 278 41 278H27Q21 284 21 287Z"/><path id="MJX-261-TEX-N-5D" d="M22 710V750H159V-250H22V-210H119V710H22Z"/></defs><g stroke="currentColor" fill="currentColor" stroke-width="0" transform="scale(1,-1)"><g data-mml-node="math"><g data-mml-node="mi"><use data-c="1D466" xlink:href="#MJX-261-TEX-I-1D466"/></g><g data-mml-node="mo" transform="translate(490,0)"><use data-c="5B" xlink:href="#MJX-261-TEX-N-5B"/></g><g data-mml-node="mi" transform="translate(768,0)"><use data-c="1D45A" xlink:href="#MJX-261-TEX-I-1D45A"/></g><g data-mml-node="mo" transform="translate(1646,0)"><use data-c="5D" xlink:href="#MJX-261-TEX-N-5D"/></g></g></g></svg></mjx-container></div></div></div></foreignObject><text x="493" y="138" fill="rgb(0, 0, 0)" font-family="Helvetica" font-size="12px">$$y[m]...</text></switch></g></g><switch><g requiredFeatures="http://www.w3.org/TR/SVG11/feature#Extensibility"/><a transform="translate(0,-5)" xlink:href="https://www.drawio.com/doc/faq/svg-export-text-problems" target="_blank"><text text-anchor="middle" font-size="10px" x="50%" y="100%">Text is not SVG - cannot display</text></a></switch></svg>