<?xml version="1.0" encoding="UTF-8"?>
<!DOCTYPE svg PUBLIC "-//W3C//DTD SVG 1.1//EN" "http://www.w3.org/Graphics/SVG/1.1/DTD/svg11.dtd">
<svg xmlns="http://www.w3.org/2000/svg" xmlns:xlink="http://www.w3.org/1999/xlink" version="1.1" width="755px" height="414px" viewBox="-0.5 -0.5 755 414" style="background-color: rgb(255, 255, 255);"><defs/><g><path d="M 15 106.56 L 165 106.5 L 185.45 106.46" fill="none" stroke="rgb(0, 0, 0)" stroke-width="1.5" stroke-miterlimit="10" pointer-events="stroke"/><path d="M 193.32 106.44 L 182.83 111.71 L 185.45 106.46 L 182.81 101.21 Z" fill="rgb(0, 0, 0)" stroke="rgb(0, 0, 0)" stroke-width="1.5" stroke-miterlimit="10" pointer-events="all"/><path d="M 555 226.56 L 585 226.5 L 599.84 226.53" fill="none" stroke="rgb(0, 0, 0)" stroke-width="4.5" stroke-miterlimit="10" pointer-events="stroke"/><path d="M 609.97 226.55 L 596.46 233.27 L 599.84 226.53 L 596.48 219.77 Z" fill="rgb(0, 0, 0)" stroke="rgb(0, 0, 0)" stroke-width="4.5" stroke-miterlimit="10" pointer-events="all"/><rect x="75" y="136.56" width="60" height="60" fill="rgb(255, 255, 255)" stroke="rgb(0, 0, 0)" stroke-width="1.5" pointer-events="all"/><g transform="translate(-0.5 -0.5)scale(1.5)"><switch><foreignObject pointer-events="none" width="100%" height="100%" requiredFeatures="http://www.w3.org/TR/SVG11/feature#Extensibility" style="overflow: visible; text-align: left;"><div xmlns="http://www.w3.org/1999/xhtml" style="display: flex; align-items: unsafe center; justify-content: unsafe center; width: 38px; height: 1px; padding-top: 111px; margin-left: 51px;"><div data-drawio-colors="color: rgb(0, 0, 0); " style="box-sizing: border-box; font-size: 0px; text-align: center;"><div style="display: inline-block; font-size: 12px; font-family: Helvetica; color: rgb(0, 0, 0); line-height: 1.2; pointer-events: all; white-space: normal; overflow-wrap: normal;">z<sup>-1</sup></div></div></div></foreignObject><text x="70" y="115" fill="rgb(0, 0, 0)" font-family="Helvetica" font-size="12px" text-anchor="middle">z-1</text></switch></g><rect x="75" y="286.5" width="60" height="60" fill="rgb(255, 255, 255)" stroke="rgb(0, 0, 0)" stroke-width="1.5" pointer-events="all"/><g transform="translate(-0.5 -0.5)scale(1.5)"><switch><foreignObject pointer-events="none" width="100%" height="100%" requiredFeatures="http://www.w3.org/TR/SVG11/feature#Extensibility" style="overflow: visible; text-align: left;"><div xmlns="http://www.w3.org/1999/xhtml" style="display: flex; align-items: unsafe center; justify-content: unsafe center; width: 38px; height: 1px; padding-top: 211px; margin-left: 51px;"><div data-drawio-colors="color: rgb(0, 0, 0); " style="box-sizing: border-box; font-size: 0px; text-align: center;"><div style="display: inline-block; font-size: 12px; font-family: Helvetica; color: rgb(0, 0, 0); line-height: 1.2; pointer-events: all; white-space: normal; overflow-wrap: normal;">z<sup>-1</sup></div></div></div></foreignObject><text x="70" y="215" fill="rgb(0, 0, 0)" font-family="Helvetica" font-size="12px" text-anchor="middle">z-1</text></switch></g><path d="M 105 106.56 L 105 127.01" fill="none" stroke="rgb(0, 0, 0)" stroke-width="1.5" stroke-miterlimit="10" pointer-events="stroke"/><path d="M 105 134.88 L 99.75 124.38 L 105 127.01 L 110.25 124.38 Z" fill="rgb(0, 0, 0)" stroke="rgb(0, 0, 0)" stroke-width="1.5" stroke-miterlimit="10" pointer-events="all"/><path d="M 104.88 196.56 L 104.99 276.95" fill="none" stroke="rgb(0, 0, 0)" stroke-width="1.5" stroke-miterlimit="10" pointer-events="stroke"/><path d="M 105 284.82 L 99.73 274.33 L 104.99 276.95 L 110.23 274.32 Z" fill="rgb(0, 0, 0)" stroke="rgb(0, 0, 0)" stroke-width="1.5" stroke-miterlimit="10" pointer-events="all"/><path d="M 105 226.56 L 185.45 226.56" fill="none" stroke="rgb(0, 0, 0)" stroke-width="1.5" stroke-miterlimit="10" pointer-events="stroke"/><path d="M 193.32 226.56 L 182.82 231.81 L 185.45 226.56 L 182.82 221.31 Z" fill="rgb(0, 0, 0)" stroke="rgb(0, 0, 0)" stroke-width="1.5" stroke-miterlimit="10" pointer-events="all"/><path d="M 105 346.5 L 105 376.5 L 185.45 376.29" fill="none" stroke="rgb(0, 0, 0)" stroke-width="1.5" stroke-miterlimit="10" pointer-events="stroke"/><path d="M 193.32 376.26 L 182.84 381.54 L 185.45 376.29 L 182.81 371.04 Z" fill="rgb(0, 0, 0)" stroke="rgb(0, 0, 0)" stroke-width="1.5" stroke-miterlimit="10" pointer-events="all"/><path d="M 675 226.5 L 705 226.5 L 719.84 226.53" fill="none" stroke="rgb(0, 0, 0)" stroke-width="4.5" stroke-miterlimit="10" pointer-events="stroke"/><path d="M 729.97 226.55 L 716.46 233.27 L 719.84 226.53 L 716.48 219.77 Z" fill="rgb(0, 0, 0)" stroke="rgb(0, 0, 0)" stroke-width="4.5" stroke-miterlimit="10" pointer-events="all"/><ellipse cx="645" cy="226.56" rx="30" ry="30" fill="rgb(255, 255, 255)" stroke="rgb(0, 0, 0)" stroke-width="1.5" pointer-events="all"/><path d="M 653.4 238.56 L 636.6 238.56 L 648.6 226.56 L 636.6 214.56 L 653.4 214.56" fill="none" stroke="rgb(0, 0, 0)" stroke-width="1.5" stroke-miterlimit="10" pointer-events="all"/><path d="M 555 106.56 L 615 106.56 L 640.21 182.18" fill="none" stroke="rgb(0, 0, 0)" stroke-width="4.5" stroke-miterlimit="10" pointer-events="stroke"/><path d="M 643.41 191.79 L 632.74 181.11 L 640.21 182.18 L 645.54 176.85 Z" fill="rgb(0, 0, 0)" stroke="rgb(0, 0, 0)" stroke-width="4.5" stroke-miterlimit="10" pointer-events="all"/><path d="M 555 376.5 L 615 376.5 L 641.32 271.26" fill="none" stroke="rgb(0, 0, 0)" stroke-width="4.5" stroke-miterlimit="10" pointer-events="stroke"/><path d="M 643.78 261.44 L 647.05 276.18 L 641.32 271.26 L 633.96 272.9 Z" fill="rgb(0, 0, 0)" stroke="rgb(0, 0, 0)" stroke-width="4.5" stroke-miterlimit="10" pointer-events="all"/><path d="M 255 106.56 L 305.45 106.56" fill="none" stroke="rgb(0, 0, 0)" stroke-width="1.5" stroke-miterlimit="10" pointer-events="stroke"/><path d="M 313.32 106.56 L 302.82 111.81 L 305.45 106.56 L 302.82 101.31 Z" fill="rgb(0, 0, 0)" stroke="rgb(0, 0, 0)" stroke-width="1.5" stroke-miterlimit="10" pointer-events="all"/><rect x="195" y="76.56" width="60" height="60" fill="rgb(255, 255, 255)" stroke="rgb(0, 0, 0)" stroke-width="1.5" pointer-events="all"/><g transform="translate(-0.5 -0.5)scale(1.5)"><switch><foreignObject pointer-events="none" width="100%" height="100%" requiredFeatures="http://www.w3.org/TR/SVG11/feature#Extensibility" style="overflow: visible; text-align: left;"><div xmlns="http://www.w3.org/1999/xhtml" style="display: flex; align-items: unsafe center; justify-content: unsafe center; width: 38px; height: 1px; padding-top: 71px; margin-left: 131px;"><div data-drawio-colors="color: rgb(0, 0, 0); " style="box-sizing: border-box; font-size: 0px; text-align: center;"><div style="display: inline-block; font-size: 12px; font-family: Helvetica; color: rgb(0, 0, 0); line-height: 1.2; pointer-events: all; white-space: normal; overflow-wrap: normal;">M:1</div></div></div></foreignObject><text x="150" y="75" fill="rgb(0, 0, 0)" font-family="Helvetica" font-size="12px" text-anchor="middle">M:1</text></switch></g><path d="M 255 226.56 L 305.45 226.56" fill="none" stroke="rgb(0, 0, 0)" stroke-width="1.5" stroke-miterlimit="10" pointer-events="stroke"/><path d="M 313.32 226.56 L 302.82 231.81 L 305.45 226.56 L 302.82 221.31 Z" fill="rgb(0, 0, 0)" stroke="rgb(0, 0, 0)" stroke-width="1.5" stroke-miterlimit="10" pointer-events="all"/><rect x="195" y="196.56" width="60" height="60" fill="rgb(255, 255, 255)" stroke="rgb(0, 0, 0)" stroke-width="1.5" pointer-events="all"/><g transform="translate(-0.5 -0.5)scale(1.5)"><switch><foreignObject pointer-events="none" width="100%" height="100%" requiredFeatures="http://www.w3.org/TR/SVG11/feature#Extensibility" style="overflow: visible; text-align: left;"><div xmlns="http://www.w3.org/1999/xhtml" style="display: flex; align-items: unsafe center; justify-content: unsafe center; width: 38px; height: 1px; padding-top: 151px; margin-left: 131px;"><div data-drawio-colors="color: rgb(0, 0, 0); " style="box-sizing: border-box; font-size: 0px; text-align: center;"><div style="display: inline-block; font-size: 12px; font-family: Helvetica; color: rgb(0, 0, 0); line-height: 1.2; pointer-events: all; white-space: normal; overflow-wrap: normal;">M:1</div></div></div></foreignObject><text x="150" y="155" fill="rgb(0, 0, 0)" font-family="Helvetica" font-size="12px" text-anchor="middle">M:1</text></switch></g><path d="M 255 376.5 L 305.45 376.5" fill="none" stroke="rgb(0, 0, 0)" stroke-width="1.5" stroke-miterlimit="10" pointer-events="stroke"/><path d="M 313.32 376.5 L 302.82 381.75 L 305.45 376.5 L 302.82 371.25 Z" fill="rgb(0, 0, 0)" stroke="rgb(0, 0, 0)" stroke-width="1.5" stroke-miterlimit="10" pointer-events="all"/><rect x="195" y="346.5" width="60" height="60" fill="rgb(255, 255, 255)" stroke="rgb(0, 0, 0)" stroke-width="1.5" pointer-events="all"/><g transform="translate(-0.5 -0.5)scale(1.5)"><switch><foreignObject pointer-events="none" width="100%" height="100%" requiredFeatures="http://www.w3.org/TR/SVG11/feature#Extensibility" style="overflow: visible; text-align: left;"><div xmlns="http://www.w3.org/1999/xhtml" style="display: flex; align-items: unsafe center; justify-content: unsafe center; width: 38px; height: 1px; padding-top: 251px; margin-left: 131px;"><div data-drawio-colors="color: rgb(0, 0, 0); " style="box-sizing: border-box; font-size: 0px; text-align: center;"><div style="display: inline-block; font-size: 12px; font-family: Helvetica; color: rgb(0, 0, 0); line-height: 1.2; pointer-events: all; white-space: normal; overflow-wrap: normal;">M:1</div></div></div></foreignObject><text x="150" y="255" fill="rgb(0, 0, 0)" font-family="Helvetica" font-size="12px" text-anchor="middle">M:1</text></switch></g><path d="M 435 106.56 L 485.45 106.56" fill="none" stroke="rgb(0, 0, 0)" stroke-width="1.5" stroke-miterlimit="10" pointer-events="stroke"/><path d="M 493.32 106.56 L 482.82 111.81 L 485.45 106.56 L 482.82 101.31 Z" fill="rgb(0, 0, 0)" stroke="rgb(0, 0, 0)" stroke-width="1.5" stroke-miterlimit="10" pointer-events="all"/><rect x="315" y="76.56" width="120" height="60" fill="rgb(255, 255, 255)" stroke="rgb(0, 0, 0)" stroke-width="1.5" pointer-events="all"/><g transform="translate(-0.5 -0.5)scale(1.5)"><switch><foreignObject pointer-events="none" width="100%" height="100%" requiredFeatures="http://www.w3.org/TR/SVG11/feature#Extensibility" style="overflow: visible; text-align: left;"><div xmlns="http://www.w3.org/1999/xhtml" style="display: flex; align-items: unsafe center; justify-content: unsafe center; width: 78px; height: 1px; padding-top: 71px; margin-left: 211px;"><div data-drawio-colors="color: rgb(0, 0, 0); " style="box-sizing: border-box; font-size: 0px; text-align: center;"><div style="display: inline-block; font-size: 12px; font-family: Helvetica; color: rgb(0, 0, 0); line-height: 1.2; pointer-events: all; white-space: normal; overflow-wrap: normal;"><mjx-container class="MathJax" jax="SVG" display="true"><svg xmlns="http://www.w3.org/2000/svg" width="5.68ex" height="2.262ex" role="img" focusable="false" viewBox="0 -750 2510.6 1000" xmlns:xlink="http://www.w3.org/1999/xlink" style="vertical-align: -0.566ex;"><defs><path id="MJX-2192-TEX-I-1D43B" d="M228 637Q194 637 192 641Q191 643 191 649Q191 673 202 682Q204 683 219 683Q260 681 355 681Q389 681 418 681T463 682T483 682Q499 682 499 672Q499 670 497 658Q492 641 487 638H485Q483 638 480 638T473 638T464 637T455 637Q416 636 405 634T387 623Q384 619 355 500Q348 474 340 442T328 395L324 380Q324 378 469 378H614L615 381Q615 384 646 504Q674 619 674 627T617 637Q594 637 587 639T580 648Q580 650 582 660Q586 677 588 679T604 682Q609 682 646 681T740 680Q802 680 835 681T871 682Q888 682 888 672Q888 645 876 638H874Q872 638 869 638T862 638T853 637T844 637Q805 636 794 634T776 623Q773 618 704 340T634 58Q634 51 638 51Q646 48 692 46H723Q729 38 729 37T726 19Q722 6 716 0H701Q664 2 567 2Q533 2 504 2T458 2T437 1Q420 1 420 10Q420 15 423 24Q428 43 433 45Q437 46 448 46H454Q481 46 514 49Q520 50 522 50T528 55T534 64T540 82T547 110T558 153Q565 181 569 198Q602 330 602 331T457 332H312L279 197Q245 63 245 58Q245 51 253 49T303 46H334Q340 38 340 37T337 19Q333 6 327 0H312Q275 2 178 2Q144 2 115 2T69 2T48 1Q31 1 31 10Q31 12 34 24Q39 43 44 45Q48 46 59 46H65Q92 46 125 49Q139 52 144 61Q147 65 216 339T285 628Q285 635 228 637Z"/><path id="MJX-2192-TEX-N-30" d="M96 585Q152 666 249 666Q297 666 345 640T423 548Q460 465 460 320Q460 165 417 83Q397 41 362 16T301 -15T250 -22Q224 -22 198 -16T137 16T82 83Q39 165 39 320Q39 494 96 585ZM321 597Q291 629 250 629Q208 629 178 597Q153 571 145 525T137 333Q137 175 145 125T181 46Q209 16 250 16Q290 16 318 46Q347 76 354 130T362 333Q362 478 354 524T321 597Z"/><path id="MJX-2192-TEX-N-28" d="M94 250Q94 319 104 381T127 488T164 576T202 643T244 695T277 729T302 750H315H319Q333 750 333 741Q333 738 316 720T275 667T226 581T184 443T167 250T184 58T225 -81T274 -167T316 -220T333 -241Q333 -250 318 -250H315H302L274 -226Q180 -141 137 -14T94 250Z"/><path id="MJX-2192-TEX-I-1D467" d="M347 338Q337 338 294 349T231 360Q211 360 197 356T174 346T162 335T155 324L153 320Q150 317 138 317Q117 317 117 325Q117 330 120 339Q133 378 163 406T229 440Q241 442 246 442Q271 442 291 425T329 392T367 375Q389 375 411 408T434 441Q435 442 449 442H462Q468 436 468 434Q468 430 463 420T449 399T432 377T418 358L411 349Q368 298 275 214T160 106L148 94L163 93Q185 93 227 82T290 71Q328 71 360 90T402 140Q406 149 409 151T424 153Q443 153 443 143Q443 138 442 134Q425 72 376 31T278 -11Q252 -11 232 6T193 40T155 57Q111 57 76 -3Q70 -11 59 -11H54H41Q35 -5 35 -2Q35 13 93 84Q132 129 225 214T340 322Q352 338 347 338Z"/><path id="MJX-2192-TEX-N-29" d="M60 749L64 750Q69 750 74 750H86L114 726Q208 641 251 514T294 250Q294 182 284 119T261 12T224 -76T186 -143T145 -194T113 -227T90 -246Q87 -249 86 -250H74Q66 -250 63 -250T58 -247T55 -238Q56 -237 66 -225Q221 -64 221 250T66 725Q56 737 55 738Q55 746 60 749Z"/></defs><g stroke="currentColor" fill="currentColor" stroke-width="0" transform="scale(1,-1)"><g data-mml-node="math"><g data-mml-node="msub"><g data-mml-node="mi"><use data-c="1D43B" xlink:href="#MJX-2192-TEX-I-1D43B"/></g><g data-mml-node="mn" transform="translate(864,-150) scale(0.707)"><use data-c="30" xlink:href="#MJX-2192-TEX-N-30"/></g></g><g data-mml-node="mo" transform="translate(1267.6,0)"><use data-c="28" xlink:href="#MJX-2192-TEX-N-28"/></g><g data-mml-node="mi" transform="translate(1656.6,0)"><use data-c="1D467" xlink:href="#MJX-2192-TEX-I-1D467"/></g><g data-mml-node="mo" transform="translate(2121.6,0)"><use data-c="29" xlink:href="#MJX-2192-TEX-N-29"/></g></g></g></svg></mjx-container></div></div></div></foreignObject><text x="250" y="75" fill="rgb(0, 0, 0)" font-family="Helvetica" font-size="12px" text-anchor="middle">$$H_0(z)$$</text></switch></g><path d="M 435 226.56 L 485.45 226.56" fill="none" stroke="rgb(0, 0, 0)" stroke-width="1.5" stroke-miterlimit="10" pointer-events="stroke"/><path d="M 493.32 226.56 L 482.82 231.81 L 485.45 226.56 L 482.82 221.31 Z" fill="rgb(0, 0, 0)" stroke="rgb(0, 0, 0)" stroke-width="1.5" stroke-miterlimit="10" pointer-events="all"/><rect x="315" y="196.56" width="120" height="60" fill="rgb(255, 255, 255)" stroke="rgb(0, 0, 0)" stroke-width="1.5" pointer-events="all"/><g transform="translate(-0.5 -0.5)scale(1.5)"><switch><foreignObject pointer-events="none" width="100%" height="100%" requiredFeatures="http://www.w3.org/TR/SVG11/feature#Extensibility" style="overflow: visible; text-align: left;"><div xmlns="http://www.w3.org/1999/xhtml" style="display: flex; align-items: unsafe center; justify-content: unsafe center; width: 78px; height: 1px; padding-top: 151px; margin-left: 211px;"><div data-drawio-colors="color: rgb(0, 0, 0); " style="box-sizing: border-box; font-size: 0px; text-align: center;"><div style="display: inline-block; font-size: 12px; font-family: Helvetica; color: rgb(0, 0, 0); line-height: 1.2; pointer-events: all; white-space: normal; overflow-wrap: normal;"><mjx-container class="MathJax" jax="SVG" display="true"><svg xmlns="http://www.w3.org/2000/svg" width="5.68ex" height="2.262ex" role="img" focusable="false" viewBox="0 -750 2510.6 1000" xmlns:xlink="http://www.w3.org/1999/xlink" style="vertical-align: -0.566ex;"><defs><path id="MJX-2193-TEX-I-1D43B" d="M228 637Q194 637 192 641Q191 643 191 649Q191 673 202 682Q204 683 219 683Q260 681 355 681Q389 681 418 681T463 682T483 682Q499 682 499 672Q499 670 497 658Q492 641 487 638H485Q483 638 480 638T473 638T464 637T455 637Q416 636 405 634T387 623Q384 619 355 500Q348 474 340 442T328 395L324 380Q324 378 469 378H614L615 381Q615 384 646 504Q674 619 674 627T617 637Q594 637 587 639T580 648Q580 650 582 660Q586 677 588 679T604 682Q609 682 646 681T740 680Q802 680 835 681T871 682Q888 682 888 672Q888 645 876 638H874Q872 638 869 638T862 638T853 637T844 637Q805 636 794 634T776 623Q773 618 704 340T634 58Q634 51 638 51Q646 48 692 46H723Q729 38 729 37T726 19Q722 6 716 0H701Q664 2 567 2Q533 2 504 2T458 2T437 1Q420 1 420 10Q420 15 423 24Q428 43 433 45Q437 46 448 46H454Q481 46 514 49Q520 50 522 50T528 55T534 64T540 82T547 110T558 153Q565 181 569 198Q602 330 602 331T457 332H312L279 197Q245 63 245 58Q245 51 253 49T303 46H334Q340 38 340 37T337 19Q333 6 327 0H312Q275 2 178 2Q144 2 115 2T69 2T48 1Q31 1 31 10Q31 12 34 24Q39 43 44 45Q48 46 59 46H65Q92 46 125 49Q139 52 144 61Q147 65 216 339T285 628Q285 635 228 637Z"/><path id="MJX-2193-TEX-N-31" d="M213 578L200 573Q186 568 160 563T102 556H83V602H102Q149 604 189 617T245 641T273 663Q275 666 285 666Q294 666 302 660V361L303 61Q310 54 315 52T339 48T401 46H427V0H416Q395 3 257 3Q121 3 100 0H88V46H114Q136 46 152 46T177 47T193 50T201 52T207 57T213 61V578Z"/><path id="MJX-2193-TEX-N-28" d="M94 250Q94 319 104 381T127 488T164 576T202 643T244 695T277 729T302 750H315H319Q333 750 333 741Q333 738 316 720T275 667T226 581T184 443T167 250T184 58T225 -81T274 -167T316 -220T333 -241Q333 -250 318 -250H315H302L274 -226Q180 -141 137 -14T94 250Z"/><path id="MJX-2193-TEX-I-1D467" d="M347 338Q337 338 294 349T231 360Q211 360 197 356T174 346T162 335T155 324L153 320Q150 317 138 317Q117 317 117 325Q117 330 120 339Q133 378 163 406T229 440Q241 442 246 442Q271 442 291 425T329 392T367 375Q389 375 411 408T434 441Q435 442 449 442H462Q468 436 468 434Q468 430 463 420T449 399T432 377T418 358L411 349Q368 298 275 214T160 106L148 94L163 93Q185 93 227 82T290 71Q328 71 360 90T402 140Q406 149 409 151T424 153Q443 153 443 143Q443 138 442 134Q425 72 376 31T278 -11Q252 -11 232 6T193 40T155 57Q111 57 76 -3Q70 -11 59 -11H54H41Q35 -5 35 -2Q35 13 93 84Q132 129 225 214T340 322Q352 338 347 338Z"/><path id="MJX-2193-TEX-N-29" d="M60 749L64 750Q69 750 74 750H86L114 726Q208 641 251 514T294 250Q294 182 284 119T261 12T224 -76T186 -143T145 -194T113 -227T90 -246Q87 -249 86 -250H74Q66 -250 63 -250T58 -247T55 -238Q56 -237 66 -225Q221 -64 221 250T66 725Q56 737 55 738Q55 746 60 749Z"/></defs><g stroke="currentColor" fill="currentColor" stroke-width="0" transform="scale(1,-1)"><g data-mml-node="math"><g data-mml-node="msub"><g data-mml-node="mi"><use data-c="1D43B" xlink:href="#MJX-2193-TEX-I-1D43B"/></g><g data-mml-node="mn" transform="translate(864,-150) scale(0.707)"><use data-c="31" xlink:href="#MJX-2193-TEX-N-31"/></g></g><g data-mml-node="mo" transform="translate(1267.6,0)"><use data-c="28" xlink:href="#MJX-2193-TEX-N-28"/></g><g data-mml-node="mi" transform="translate(1656.6,0)"><use data-c="1D467" xlink:href="#MJX-2193-TEX-I-1D467"/></g><g data-mml-node="mo" transform="translate(2121.6,0)"><use data-c="29" xlink:href="#MJX-2193-TEX-N-29"/></g></g></g></svg></mjx-container></div></div></div></foreignObject><text x="250" y="155" fill="rgb(0, 0, 0)" font-family="Helvetica" font-size="12px" text-anchor="middle">$$H_1(z)$$</text></switch></g><rect x="315" y="346.5" width="120" height="60" fill="rgb(255, 255, 255)" stroke="rgb(0, 0, 0)" stroke-width="1.5" pointer-events="all"/><g transform="translate(-0.5 -0.5)scale(1.5)"><switch><foreignObject pointer-events="none" width="100%" height="100%" requiredFeatures="http://www.w3.org/TR/SVG11/feature#Extensibility" style="overflow: visible; text-align: left;"><div xmlns="http://www.w3.org/1999/xhtml" style="display: flex; align-items: unsafe center; justify-content: unsafe center; width: 78px; height: 1px; padding-top: 251px; margin-left: 211px;"><div data-drawio-colors="color: rgb(0, 0, 0); " style="box-sizing: border-box; font-size: 0px; text-align: center;"><div style="display: inline-block; font-size: 12px; font-family: Helvetica; color: rgb(0, 0, 0); line-height: 1.2; pointer-events: all; white-space: normal; overflow-wrap: normal;"><mjx-container class="MathJax" jax="SVG" display="true"><svg xmlns="http://www.w3.org/2000/svg" width="8.606ex" height="2.262ex" role="img" focusable="false" viewBox="0 -750 3803.9 1000" xmlns:xlink="http://www.w3.org/1999/xlink" style="vertical-align: -0.566ex;"><defs><path id="MJX-2194-TEX-I-1D43B" d="M228 637Q194 637 192 641Q191 643 191 649Q191 673 202 682Q204 683 219 683Q260 681 355 681Q389 681 418 681T463 682T483 682Q499 682 499 672Q499 670 497 658Q492 641 487 638H485Q483 638 480 638T473 638T464 637T455 637Q416 636 405 634T387 623Q384 619 355 500Q348 474 340 442T328 395L324 380Q324 378 469 378H614L615 381Q615 384 646 504Q674 619 674 627T617 637Q594 637 587 639T580 648Q580 650 582 660Q586 677 588 679T604 682Q609 682 646 681T740 680Q802 680 835 681T871 682Q888 682 888 672Q888 645 876 638H874Q872 638 869 638T862 638T853 637T844 637Q805 636 794 634T776 623Q773 618 704 340T634 58Q634 51 638 51Q646 48 692 46H723Q729 38 729 37T726 19Q722 6 716 0H701Q664 2 567 2Q533 2 504 2T458 2T437 1Q420 1 420 10Q420 15 423 24Q428 43 433 45Q437 46 448 46H454Q481 46 514 49Q520 50 522 50T528 55T534 64T540 82T547 110T558 153Q565 181 569 198Q602 330 602 331T457 332H312L279 197Q245 63 245 58Q245 51 253 49T303 46H334Q340 38 340 37T337 19Q333 6 327 0H312Q275 2 178 2Q144 2 115 2T69 2T48 1Q31 1 31 10Q31 12 34 24Q39 43 44 45Q48 46 59 46H65Q92 46 125 49Q139 52 144 61Q147 65 216 339T285 628Q285 635 228 637Z"/><path id="MJX-2194-TEX-I-1D440" d="M289 629Q289 635 232 637Q208 637 201 638T194 648Q194 649 196 659Q197 662 198 666T199 671T201 676T203 679T207 681T212 683T220 683T232 684Q238 684 262 684T307 683Q386 683 398 683T414 678Q415 674 451 396L487 117L510 154Q534 190 574 254T662 394Q837 673 839 675Q840 676 842 678T846 681L852 683H948Q965 683 988 683T1017 684Q1051 684 1051 673Q1051 668 1048 656T1045 643Q1041 637 1008 637Q968 636 957 634T939 623Q936 618 867 340T797 59Q797 55 798 54T805 50T822 48T855 46H886Q892 37 892 35Q892 19 885 5Q880 0 869 0Q864 0 828 1T736 2Q675 2 644 2T609 1Q592 1 592 11Q592 13 594 25Q598 41 602 43T625 46Q652 46 685 49Q699 52 704 61Q706 65 742 207T813 490T848 631L654 322Q458 10 453 5Q451 4 449 3Q444 0 433 0Q418 0 415 7Q413 11 374 317L335 624L267 354Q200 88 200 79Q206 46 272 46H282Q288 41 289 37T286 19Q282 3 278 1Q274 0 267 0Q265 0 255 0T221 1T157 2Q127 2 95 1T58 0Q43 0 39 2T35 11Q35 13 38 25T43 40Q45 46 65 46Q135 46 154 86Q158 92 223 354T289 629Z"/><path id="MJX-2194-TEX-N-2212" d="M84 237T84 250T98 270H679Q694 262 694 250T679 230H98Q84 237 84 250Z"/><path id="MJX-2194-TEX-N-31" d="M213 578L200 573Q186 568 160 563T102 556H83V602H102Q149 604 189 617T245 641T273 663Q275 666 285 666Q294 666 302 660V361L303 61Q310 54 315 52T339 48T401 46H427V0H416Q395 3 257 3Q121 3 100 0H88V46H114Q136 46 152 46T177 47T193 50T201 52T207 57T213 61V578Z"/><path id="MJX-2194-TEX-N-28" d="M94 250Q94 319 104 381T127 488T164 576T202 643T244 695T277 729T302 750H315H319Q333 750 333 741Q333 738 316 720T275 667T226 581T184 443T167 250T184 58T225 -81T274 -167T316 -220T333 -241Q333 -250 318 -250H315H302L274 -226Q180 -141 137 -14T94 250Z"/><path id="MJX-2194-TEX-I-1D467" d="M347 338Q337 338 294 349T231 360Q211 360 197 356T174 346T162 335T155 324L153 320Q150 317 138 317Q117 317 117 325Q117 330 120 339Q133 378 163 406T229 440Q241 442 246 442Q271 442 291 425T329 392T367 375Q389 375 411 408T434 441Q435 442 449 442H462Q468 436 468 434Q468 430 463 420T449 399T432 377T418 358L411 349Q368 298 275 214T160 106L148 94L163 93Q185 93 227 82T290 71Q328 71 360 90T402 140Q406 149 409 151T424 153Q443 153 443 143Q443 138 442 134Q425 72 376 31T278 -11Q252 -11 232 6T193 40T155 57Q111 57 76 -3Q70 -11 59 -11H54H41Q35 -5 35 -2Q35 13 93 84Q132 129 225 214T340 322Q352 338 347 338Z"/><path id="MJX-2194-TEX-N-29" d="M60 749L64 750Q69 750 74 750H86L114 726Q208 641 251 514T294 250Q294 182 284 119T261 12T224 -76T186 -143T145 -194T113 -227T90 -246Q87 -249 86 -250H74Q66 -250 63 -250T58 -247T55 -238Q56 -237 66 -225Q221 -64 221 250T66 725Q56 737 55 738Q55 746 60 749Z"/></defs><g stroke="currentColor" fill="currentColor" stroke-width="0" transform="scale(1,-1)"><g data-mml-node="math"><g data-mml-node="msub"><g data-mml-node="mi"><use data-c="1D43B" xlink:href="#MJX-2194-TEX-I-1D43B"/></g><g data-mml-node="TeXAtom" transform="translate(864,-150) scale(0.707)" data-mjx-texclass="ORD"><g data-mml-node="mi"><use data-c="1D440" xlink:href="#MJX-2194-TEX-I-1D440"/></g><g data-mml-node="mo" transform="translate(1051,0)"><use data-c="2212" xlink:href="#MJX-2194-TEX-N-2212"/></g><g data-mml-node="mn" transform="translate(1829,0)"><use data-c="31" xlink:href="#MJX-2194-TEX-N-31"/></g></g></g><g data-mml-node="mo" transform="translate(2560.9,0)"><use data-c="28" xlink:href="#MJX-2194-TEX-N-28"/></g><g data-mml-node="mi" transform="translate(2949.9,0)"><use data-c="1D467" xlink:href="#MJX-2194-TEX-I-1D467"/></g><g data-mml-node="mo" transform="translate(3414.9,0)"><use data-c="29" xlink:href="#MJX-2194-TEX-N-29"/></g></g></g></svg></mjx-container></div></div></div></foreignObject><text x="250" y="255" fill="rgb(0, 0, 0)" font-family="Helvetica" font-size="12px" text-anchor="middle">$$H_{M-1}(z)$$</text></switch></g><ellipse cx="525" cy="106.56" rx="30" ry="30" fill="rgb(255, 255, 255)" stroke="rgb(0, 0, 0)" stroke-width="1.5" pointer-events="all"/><path d="M 503.64 85.2 L 546.36 127.92 M 546.36 85.2 L 503.64 127.92" fill="none" stroke="rgb(0, 0, 0)" stroke-width="1.5" stroke-miterlimit="10" pointer-events="all"/><path d="M 524.28 44.37 L 524.58 61.41" fill="none" stroke="rgb(0, 0, 0)" stroke-width="4.5" stroke-miterlimit="10" pointer-events="stroke"/><path d="M 524.76 71.53 L 517.77 58.15 L 524.58 61.41 L 531.27 57.91 Z" fill="rgb(0, 0, 0)" stroke="rgb(0, 0, 0)" stroke-width="4.5" stroke-miterlimit="10" pointer-events="all"/><ellipse cx="525" cy="226.56" rx="30" ry="30" fill="rgb(255, 255, 255)" stroke="rgb(0, 0, 0)" stroke-width="1.5" pointer-events="all"/><path d="M 503.64 205.2 L 546.36 247.92 M 546.36 205.2 L 503.64 247.92" fill="none" stroke="rgb(0, 0, 0)" stroke-width="1.5" stroke-miterlimit="10" pointer-events="all"/><path d="M 524.28 164.7 L 524.56 181.41" fill="none" stroke="rgb(0, 0, 0)" stroke-width="4.5" stroke-miterlimit="10" pointer-events="stroke"/><path d="M 524.73 191.53 L 517.76 178.15 L 524.56 181.41 L 531.25 177.92 Z" fill="rgb(0, 0, 0)" stroke="rgb(0, 0, 0)" stroke-width="4.5" stroke-miterlimit="10" pointer-events="all"/><ellipse cx="525" cy="376.5" rx="30" ry="30" fill="rgb(255, 255, 255)" stroke="rgb(0, 0, 0)" stroke-width="1.5" pointer-events="all"/><path d="M 503.64 355.14 L 546.36 397.86 M 546.36 355.14 L 503.64 397.86" fill="none" stroke="rgb(0, 0, 0)" stroke-width="1.5" stroke-miterlimit="10" pointer-events="all"/><path d="M 524.28 314.64 L 524.56 331.35" fill="none" stroke="rgb(0, 0, 0)" stroke-width="4.5" stroke-miterlimit="10" pointer-events="stroke"/><path d="M 524.73 341.47 L 517.76 328.09 L 524.56 331.35 L 531.25 327.86 Z" fill="rgb(0, 0, 0)" stroke="rgb(0, 0, 0)" stroke-width="4.5" stroke-miterlimit="10" pointer-events="all"/><path d="M 435 376.5 L 485.45 376.5" fill="none" stroke="rgb(0, 0, 0)" stroke-width="1.5" stroke-miterlimit="10" pointer-events="stroke"/><path d="M 493.32 376.5 L 482.82 381.75 L 485.45 376.5 L 482.82 371.25 Z" fill="rgb(0, 0, 0)" stroke="rgb(0, 0, 0)" stroke-width="1.5" stroke-miterlimit="10" pointer-events="all"/><rect x="435" y="21" width="180" height="30" fill="none" stroke="none" pointer-events="all"/><g transform="translate(-0.5 -0.5)scale(1.5)"><switch><foreignObject pointer-events="none" width="100%" height="100%" requiredFeatures="http://www.w3.org/TR/SVG11/feature#Extensibility" style="overflow: visible; text-align: left;"><div xmlns="http://www.w3.org/1999/xhtml" style="display: flex; align-items: unsafe center; justify-content: unsafe center; width: 118px; height: 1px; padding-top: 24px; margin-left: 291px;"><div data-drawio-colors="color: rgb(0, 0, 0); " style="box-sizing: border-box; font-size: 0px; text-align: center;"><div style="display: inline-block; font-size: 12px; font-family: Helvetica; color: rgb(0, 0, 0); line-height: 1.2; pointer-events: all; white-space: normal; overflow-wrap: normal;"><mjx-container class="MathJax" jax="SVG" display="true"><svg xmlns="http://www.w3.org/2000/svg" width="5.979ex" height="2.438ex" role="img" focusable="false" viewBox="0 -1066.4 2642.6 1077.4" xmlns:xlink="http://www.w3.org/1999/xlink" style="vertical-align: -0.025ex;"><defs><path id="MJX-2195-TEX-I-1D452" d="M39 168Q39 225 58 272T107 350T174 402T244 433T307 442H310Q355 442 388 420T421 355Q421 265 310 237Q261 224 176 223Q139 223 138 221Q138 219 132 186T125 128Q125 81 146 54T209 26T302 45T394 111Q403 121 406 121Q410 121 419 112T429 98T420 82T390 55T344 24T281 -1T205 -11Q126 -11 83 42T39 168ZM373 353Q367 405 305 405Q272 405 244 391T199 357T170 316T154 280T149 261Q149 260 169 260Q282 260 327 284T373 353Z"/><path id="MJX-2195-TEX-I-1D457" d="M297 596Q297 627 318 644T361 661Q378 661 389 651T403 623Q403 595 384 576T340 557Q322 557 310 567T297 596ZM288 376Q288 405 262 405Q240 405 220 393T185 362T161 325T144 293L137 279Q135 278 121 278H107Q101 284 101 286T105 299Q126 348 164 391T252 441Q253 441 260 441T272 442Q296 441 316 432Q341 418 354 401T367 348V332L318 133Q267 -67 264 -75Q246 -125 194 -164T75 -204Q25 -204 7 -183T-12 -137Q-12 -110 7 -91T53 -71Q70 -71 82 -81T95 -112Q95 -148 63 -167Q69 -168 77 -168Q111 -168 139 -140T182 -74L193 -32Q204 11 219 72T251 197T278 308T289 365Q289 372 288 376Z"/><path id="MJX-2195-TEX-N-32" d="M109 429Q82 429 66 447T50 491Q50 562 103 614T235 666Q326 666 387 610T449 465Q449 422 429 383T381 315T301 241Q265 210 201 149L142 93L218 92Q375 92 385 97Q392 99 409 186V189H449V186Q448 183 436 95T421 3V0H50V19V31Q50 38 56 46T86 81Q115 113 136 137Q145 147 170 174T204 211T233 244T261 278T284 308T305 340T320 369T333 401T340 431T343 464Q343 527 309 573T212 619Q179 619 154 602T119 569T109 550Q109 549 114 549Q132 549 151 535T170 489Q170 464 154 447T109 429Z"/><path id="MJX-2195-TEX-I-1D70B" d="M132 -11Q98 -11 98 22V33L111 61Q186 219 220 334L228 358H196Q158 358 142 355T103 336Q92 329 81 318T62 297T53 285Q51 284 38 284Q19 284 19 294Q19 300 38 329T93 391T164 429Q171 431 389 431Q549 431 553 430Q573 423 573 402Q573 371 541 360Q535 358 472 358H408L405 341Q393 269 393 222Q393 170 402 129T421 65T431 37Q431 20 417 5T381 -10Q370 -10 363 -7T347 17T331 77Q330 86 330 121Q330 170 339 226T357 318T367 358H269L268 354Q268 351 249 275T206 114T175 17Q164 -11 132 -11Z"/><path id="MJX-2195-TEX-I-1D440" d="M289 629Q289 635 232 637Q208 637 201 638T194 648Q194 649 196 659Q197 662 198 666T199 671T201 676T203 679T207 681T212 683T220 683T232 684Q238 684 262 684T307 683Q386 683 398 683T414 678Q415 674 451 396L487 117L510 154Q534 190 574 254T662 394Q837 673 839 675Q840 676 842 678T846 681L852 683H948Q965 683 988 683T1017 684Q1051 684 1051 673Q1051 668 1048 656T1045 643Q1041 637 1008 637Q968 636 957 634T939 623Q936 618 867 340T797 59Q797 55 798 54T805 50T822 48T855 46H886Q892 37 892 35Q892 19 885 5Q880 0 869 0Q864 0 828 1T736 2Q675 2 644 2T609 1Q592 1 592 11Q592 13 594 25Q598 41 602 43T625 46Q652 46 685 49Q699 52 704 61Q706 65 742 207T813 490T848 631L654 322Q458 10 453 5Q451 4 449 3Q444 0 433 0Q418 0 415 7Q413 11 374 317L335 624L267 354Q200 88 200 79Q206 46 272 46H282Q288 41 289 37T286 19Q282 3 278 1Q274 0 267 0Q265 0 255 0T221 1T157 2Q127 2 95 1T58 0Q43 0 39 2T35 11Q35 13 38 25T43 40Q45 46 65 46Q135 46 154 86Q158 92 223 354T289 629Z"/><path id="MJX-2195-TEX-I-1D458" d="M121 647Q121 657 125 670T137 683Q138 683 209 688T282 694Q294 694 294 686Q294 679 244 477Q194 279 194 272Q213 282 223 291Q247 309 292 354T362 415Q402 442 438 442Q468 442 485 423T503 369Q503 344 496 327T477 302T456 291T438 288Q418 288 406 299T394 328Q394 353 410 369T442 390L458 393Q446 405 434 405H430Q398 402 367 380T294 316T228 255Q230 254 243 252T267 246T293 238T320 224T342 206T359 180T365 147Q365 130 360 106T354 66Q354 26 381 26Q429 26 459 145Q461 153 479 153H483Q499 153 499 144Q499 139 496 130Q455 -11 378 -11Q333 -11 305 15T277 90Q277 108 280 121T283 145Q283 167 269 183T234 206T200 217T182 220H180Q168 178 159 139T145 81T136 44T129 20T122 7T111 -2Q98 -11 83 -11Q66 -11 57 -1T48 16Q48 26 85 176T158 471L195 616Q196 629 188 632T149 637H144Q134 637 131 637T124 640T121 647Z"/><path id="MJX-2195-TEX-N-30" d="M96 585Q152 666 249 666Q297 666 345 640T423 548Q460 465 460 320Q460 165 417 83Q397 41 362 16T301 -15T250 -22Q224 -22 198 -16T137 16T82 83Q39 165 39 320Q39 494 96 585ZM321 597Q291 629 250 629Q208 629 178 597Q153 571 145 525T137 333Q137 175 145 125T181 46Q209 16 250 16Q290 16 318 46Q347 76 354 130T362 333Q362 478 354 524T321 597Z"/></defs><g stroke="currentColor" fill="currentColor" stroke-width="0" transform="scale(1,-1)"><g data-mml-node="math"><g data-mml-node="msup"><g data-mml-node="mi"><use data-c="1D452" xlink:href="#MJX-2195-TEX-I-1D452"/></g><g data-mml-node="TeXAtom" transform="translate(499,413) scale(0.707)" data-mjx-texclass="ORD"><g data-mml-node="mi"><use data-c="1D457" xlink:href="#MJX-2195-TEX-I-1D457"/></g><g data-mml-node="mfrac" transform="translate(412,0)"><g data-mml-node="mrow" transform="translate(220,394) scale(0.796)"><g data-mml-node="mn"><use data-c="32" xlink:href="#MJX-2195-TEX-N-32"/></g><g data-mml-node="mi" transform="translate(500,0)"><use data-c="1D70B" xlink:href="#MJX-2195-TEX-I-1D70B"/></g></g><g data-mml-node="mi" transform="translate(227.6,-383.6) scale(0.796)"><use data-c="1D440" xlink:href="#MJX-2195-TEX-I-1D440"/></g><rect width="1051.6" height="60" x="120" y="220"/></g><g data-mml-node="mi" transform="translate(1703.6,0)"><use data-c="1D458" xlink:href="#MJX-2195-TEX-I-1D458"/></g><g data-mml-node="mstyle" transform="translate(2224.6,0) scale(1.414)"><g data-mml-node="mspace"/></g><g data-mml-node="mn" transform="translate(2460.7,0)"><use data-c="30" xlink:href="#MJX-2195-TEX-N-30"/></g></g></g></g></g></svg></mjx-container></div></div></div></foreignObject><text x="350" y="28" fill="rgb(0, 0, 0)" font-family="Helvetica" font-size="12px" text-anchor="middle">$$e^{j \frac{2 \pi}{...</text></switch></g><rect x="435" y="141" width="180" height="30" fill="none" stroke="none" pointer-events="all"/><g transform="translate(-0.5 -0.5)scale(1.5)"><switch><foreignObject pointer-events="none" width="100%" height="100%" requiredFeatures="http://www.w3.org/TR/SVG11/feature#Extensibility" style="overflow: visible; text-align: left;"><div xmlns="http://www.w3.org/1999/xhtml" style="display: flex; align-items: unsafe center; justify-content: unsafe center; width: 118px; height: 1px; padding-top: 104px; margin-left: 291px;"><div data-drawio-colors="color: rgb(0, 0, 0); " style="box-sizing: border-box; font-size: 0px; text-align: center;"><div style="display: inline-block; font-size: 12px; font-family: Helvetica; color: rgb(0, 0, 0); line-height: 1.2; pointer-events: all; white-space: normal; overflow-wrap: normal;"><mjx-container class="MathJax" jax="SVG" display="true"><svg xmlns="http://www.w3.org/2000/svg" width="5.979ex" height="2.438ex" role="img" focusable="false" viewBox="0 -1066.4 2642.6 1077.4" xmlns:xlink="http://www.w3.org/1999/xlink" style="vertical-align: -0.025ex;"><defs><path id="MJX-2196-TEX-I-1D452" d="M39 168Q39 225 58 272T107 350T174 402T244 433T307 442H310Q355 442 388 420T421 355Q421 265 310 237Q261 224 176 223Q139 223 138 221Q138 219 132 186T125 128Q125 81 146 54T209 26T302 45T394 111Q403 121 406 121Q410 121 419 112T429 98T420 82T390 55T344 24T281 -1T205 -11Q126 -11 83 42T39 168ZM373 353Q367 405 305 405Q272 405 244 391T199 357T170 316T154 280T149 261Q149 260 169 260Q282 260 327 284T373 353Z"/><path id="MJX-2196-TEX-I-1D457" d="M297 596Q297 627 318 644T361 661Q378 661 389 651T403 623Q403 595 384 576T340 557Q322 557 310 567T297 596ZM288 376Q288 405 262 405Q240 405 220 393T185 362T161 325T144 293L137 279Q135 278 121 278H107Q101 284 101 286T105 299Q126 348 164 391T252 441Q253 441 260 441T272 442Q296 441 316 432Q341 418 354 401T367 348V332L318 133Q267 -67 264 -75Q246 -125 194 -164T75 -204Q25 -204 7 -183T-12 -137Q-12 -110 7 -91T53 -71Q70 -71 82 -81T95 -112Q95 -148 63 -167Q69 -168 77 -168Q111 -168 139 -140T182 -74L193 -32Q204 11 219 72T251 197T278 308T289 365Q289 372 288 376Z"/><path id="MJX-2196-TEX-N-32" d="M109 429Q82 429 66 447T50 491Q50 562 103 614T235 666Q326 666 387 610T449 465Q449 422 429 383T381 315T301 241Q265 210 201 149L142 93L218 92Q375 92 385 97Q392 99 409 186V189H449V186Q448 183 436 95T421 3V0H50V19V31Q50 38 56 46T86 81Q115 113 136 137Q145 147 170 174T204 211T233 244T261 278T284 308T305 340T320 369T333 401T340 431T343 464Q343 527 309 573T212 619Q179 619 154 602T119 569T109 550Q109 549 114 549Q132 549 151 535T170 489Q170 464 154 447T109 429Z"/><path id="MJX-2196-TEX-I-1D70B" d="M132 -11Q98 -11 98 22V33L111 61Q186 219 220 334L228 358H196Q158 358 142 355T103 336Q92 329 81 318T62 297T53 285Q51 284 38 284Q19 284 19 294Q19 300 38 329T93 391T164 429Q171 431 389 431Q549 431 553 430Q573 423 573 402Q573 371 541 360Q535 358 472 358H408L405 341Q393 269 393 222Q393 170 402 129T421 65T431 37Q431 20 417 5T381 -10Q370 -10 363 -7T347 17T331 77Q330 86 330 121Q330 170 339 226T357 318T367 358H269L268 354Q268 351 249 275T206 114T175 17Q164 -11 132 -11Z"/><path id="MJX-2196-TEX-I-1D440" d="M289 629Q289 635 232 637Q208 637 201 638T194 648Q194 649 196 659Q197 662 198 666T199 671T201 676T203 679T207 681T212 683T220 683T232 684Q238 684 262 684T307 683Q386 683 398 683T414 678Q415 674 451 396L487 117L510 154Q534 190 574 254T662 394Q837 673 839 675Q840 676 842 678T846 681L852 683H948Q965 683 988 683T1017 684Q1051 684 1051 673Q1051 668 1048 656T1045 643Q1041 637 1008 637Q968 636 957 634T939 623Q936 618 867 340T797 59Q797 55 798 54T805 50T822 48T855 46H886Q892 37 892 35Q892 19 885 5Q880 0 869 0Q864 0 828 1T736 2Q675 2 644 2T609 1Q592 1 592 11Q592 13 594 25Q598 41 602 43T625 46Q652 46 685 49Q699 52 704 61Q706 65 742 207T813 490T848 631L654 322Q458 10 453 5Q451 4 449 3Q444 0 433 0Q418 0 415 7Q413 11 374 317L335 624L267 354Q200 88 200 79Q206 46 272 46H282Q288 41 289 37T286 19Q282 3 278 1Q274 0 267 0Q265 0 255 0T221 1T157 2Q127 2 95 1T58 0Q43 0 39 2T35 11Q35 13 38 25T43 40Q45 46 65 46Q135 46 154 86Q158 92 223 354T289 629Z"/><path id="MJX-2196-TEX-I-1D458" d="M121 647Q121 657 125 670T137 683Q138 683 209 688T282 694Q294 694 294 686Q294 679 244 477Q194 279 194 272Q213 282 223 291Q247 309 292 354T362 415Q402 442 438 442Q468 442 485 423T503 369Q503 344 496 327T477 302T456 291T438 288Q418 288 406 299T394 328Q394 353 410 369T442 390L458 393Q446 405 434 405H430Q398 402 367 380T294 316T228 255Q230 254 243 252T267 246T293 238T320 224T342 206T359 180T365 147Q365 130 360 106T354 66Q354 26 381 26Q429 26 459 145Q461 153 479 153H483Q499 153 499 144Q499 139 496 130Q455 -11 378 -11Q333 -11 305 15T277 90Q277 108 280 121T283 145Q283 167 269 183T234 206T200 217T182 220H180Q168 178 159 139T145 81T136 44T129 20T122 7T111 -2Q98 -11 83 -11Q66 -11 57 -1T48 16Q48 26 85 176T158 471L195 616Q196 629 188 632T149 637H144Q134 637 131 637T124 640T121 647Z"/><path id="MJX-2196-TEX-N-31" d="M213 578L200 573Q186 568 160 563T102 556H83V602H102Q149 604 189 617T245 641T273 663Q275 666 285 666Q294 666 302 660V361L303 61Q310 54 315 52T339 48T401 46H427V0H416Q395 3 257 3Q121 3 100 0H88V46H114Q136 46 152 46T177 47T193 50T201 52T207 57T213 61V578Z"/></defs><g stroke="currentColor" fill="currentColor" stroke-width="0" transform="scale(1,-1)"><g data-mml-node="math"><g data-mml-node="msup"><g data-mml-node="mi"><use data-c="1D452" xlink:href="#MJX-2196-TEX-I-1D452"/></g><g data-mml-node="TeXAtom" transform="translate(499,413) scale(0.707)" data-mjx-texclass="ORD"><g data-mml-node="mi"><use data-c="1D457" xlink:href="#MJX-2196-TEX-I-1D457"/></g><g data-mml-node="mfrac" transform="translate(412,0)"><g data-mml-node="mrow" transform="translate(220,394) scale(0.796)"><g data-mml-node="mn"><use data-c="32" xlink:href="#MJX-2196-TEX-N-32"/></g><g data-mml-node="mi" transform="translate(500,0)"><use data-c="1D70B" xlink:href="#MJX-2196-TEX-I-1D70B"/></g></g><g data-mml-node="mi" transform="translate(227.6,-383.6) scale(0.796)"><use data-c="1D440" xlink:href="#MJX-2196-TEX-I-1D440"/></g><rect width="1051.6" height="60" x="120" y="220"/></g><g data-mml-node="mi" transform="translate(1703.6,0)"><use data-c="1D458" xlink:href="#MJX-2196-TEX-I-1D458"/></g><g data-mml-node="mstyle" transform="translate(2224.6,0) scale(1.414)"><g data-mml-node="mspace"/></g><g data-mml-node="mn" transform="translate(2460.7,0)"><use data-c="31" xlink:href="#MJX-2196-TEX-N-31"/></g></g></g></g></g></svg></mjx-container></div></div></div></foreignObject><text x="350" y="108" fill="rgb(0, 0, 0)" font-family="Helvetica" font-size="12px" text-anchor="middle">$$e^{j \frac{2 \pi}{...</text></switch></g><rect x="435" y="292.44" width="180" height="30" fill="none" stroke="none" pointer-events="all"/><g transform="translate(-0.5 -0.5)scale(1.5)"><switch><foreignObject pointer-events="none" width="100%" height="100%" requiredFeatures="http://www.w3.org/TR/SVG11/feature#Extensibility" style="overflow: visible; text-align: left;"><div xmlns="http://www.w3.org/1999/xhtml" style="display: flex; align-items: unsafe center; justify-content: unsafe center; width: 118px; height: 1px; padding-top: 205px; margin-left: 291px;"><div data-drawio-colors="color: rgb(0, 0, 0); " style="box-sizing: border-box; font-size: 0px; text-align: center;"><div style="display: inline-block; font-size: 12px; font-family: Helvetica; color: rgb(0, 0, 0); line-height: 1.2; pointer-events: all; white-space: normal; overflow-wrap: normal;"><mjx-container class="MathJax" jax="SVG" display="true"><svg xmlns="http://www.w3.org/2000/svg" width="10.149ex" height="2.438ex" role="img" focusable="false" viewBox="0 -1066.4 4486 1077.4" xmlns:xlink="http://www.w3.org/1999/xlink" style="vertical-align: -0.025ex;"><defs><path id="MJX-2197-TEX-I-1D452" d="M39 168Q39 225 58 272T107 350T174 402T244 433T307 442H310Q355 442 388 420T421 355Q421 265 310 237Q261 224 176 223Q139 223 138 221Q138 219 132 186T125 128Q125 81 146 54T209 26T302 45T394 111Q403 121 406 121Q410 121 419 112T429 98T420 82T390 55T344 24T281 -1T205 -11Q126 -11 83 42T39 168ZM373 353Q367 405 305 405Q272 405 244 391T199 357T170 316T154 280T149 261Q149 260 169 260Q282 260 327 284T373 353Z"/><path id="MJX-2197-TEX-I-1D457" d="M297 596Q297 627 318 644T361 661Q378 661 389 651T403 623Q403 595 384 576T340 557Q322 557 310 567T297 596ZM288 376Q288 405 262 405Q240 405 220 393T185 362T161 325T144 293L137 279Q135 278 121 278H107Q101 284 101 286T105 299Q126 348 164 391T252 441Q253 441 260 441T272 442Q296 441 316 432Q341 418 354 401T367 348V332L318 133Q267 -67 264 -75Q246 -125 194 -164T75 -204Q25 -204 7 -183T-12 -137Q-12 -110 7 -91T53 -71Q70 -71 82 -81T95 -112Q95 -148 63 -167Q69 -168 77 -168Q111 -168 139 -140T182 -74L193 -32Q204 11 219 72T251 197T278 308T289 365Q289 372 288 376Z"/><path id="MJX-2197-TEX-N-32" d="M109 429Q82 429 66 447T50 491Q50 562 103 614T235 666Q326 666 387 610T449 465Q449 422 429 383T381 315T301 241Q265 210 201 149L142 93L218 92Q375 92 385 97Q392 99 409 186V189H449V186Q448 183 436 95T421 3V0H50V19V31Q50 38 56 46T86 81Q115 113 136 137Q145 147 170 174T204 211T233 244T261 278T284 308T305 340T320 369T333 401T340 431T343 464Q343 527 309 573T212 619Q179 619 154 602T119 569T109 550Q109 549 114 549Q132 549 151 535T170 489Q170 464 154 447T109 429Z"/><path id="MJX-2197-TEX-I-1D70B" d="M132 -11Q98 -11 98 22V33L111 61Q186 219 220 334L228 358H196Q158 358 142 355T103 336Q92 329 81 318T62 297T53 285Q51 284 38 284Q19 284 19 294Q19 300 38 329T93 391T164 429Q171 431 389 431Q549 431 553 430Q573 423 573 402Q573 371 541 360Q535 358 472 358H408L405 341Q393 269 393 222Q393 170 402 129T421 65T431 37Q431 20 417 5T381 -10Q370 -10 363 -7T347 17T331 77Q330 86 330 121Q330 170 339 226T357 318T367 358H269L268 354Q268 351 249 275T206 114T175 17Q164 -11 132 -11Z"/><path id="MJX-2197-TEX-I-1D440" d="M289 629Q289 635 232 637Q208 637 201 638T194 648Q194 649 196 659Q197 662 198 666T199 671T201 676T203 679T207 681T212 683T220 683T232 684Q238 684 262 684T307 683Q386 683 398 683T414 678Q415 674 451 396L487 117L510 154Q534 190 574 254T662 394Q837 673 839 675Q840 676 842 678T846 681L852 683H948Q965 683 988 683T1017 684Q1051 684 1051 673Q1051 668 1048 656T1045 643Q1041 637 1008 637Q968 636 957 634T939 623Q936 618 867 340T797 59Q797 55 798 54T805 50T822 48T855 46H886Q892 37 892 35Q892 19 885 5Q880 0 869 0Q864 0 828 1T736 2Q675 2 644 2T609 1Q592 1 592 11Q592 13 594 25Q598 41 602 43T625 46Q652 46 685 49Q699 52 704 61Q706 65 742 207T813 490T848 631L654 322Q458 10 453 5Q451 4 449 3Q444 0 433 0Q418 0 415 7Q413 11 374 317L335 624L267 354Q200 88 200 79Q206 46 272 46H282Q288 41 289 37T286 19Q282 3 278 1Q274 0 267 0Q265 0 255 0T221 1T157 2Q127 2 95 1T58 0Q43 0 39 2T35 11Q35 13 38 25T43 40Q45 46 65 46Q135 46 154 86Q158 92 223 354T289 629Z"/><path id="MJX-2197-TEX-I-1D458" d="M121 647Q121 657 125 670T137 683Q138 683 209 688T282 694Q294 694 294 686Q294 679 244 477Q194 279 194 272Q213 282 223 291Q247 309 292 354T362 415Q402 442 438 442Q468 442 485 423T503 369Q503 344 496 327T477 302T456 291T438 288Q418 288 406 299T394 328Q394 353 410 369T442 390L458 393Q446 405 434 405H430Q398 402 367 380T294 316T228 255Q230 254 243 252T267 246T293 238T320 224T342 206T359 180T365 147Q365 130 360 106T354 66Q354 26 381 26Q429 26 459 145Q461 153 479 153H483Q499 153 499 144Q499 139 496 130Q455 -11 378 -11Q333 -11 305 15T277 90Q277 108 280 121T283 145Q283 167 269 183T234 206T200 217T182 220H180Q168 178 159 139T145 81T136 44T129 20T122 7T111 -2Q98 -11 83 -11Q66 -11 57 -1T48 16Q48 26 85 176T158 471L195 616Q196 629 188 632T149 637H144Q134 637 131 637T124 640T121 647Z"/><path id="MJX-2197-TEX-N-28" d="M94 250Q94 319 104 381T127 488T164 576T202 643T244 695T277 729T302 750H315H319Q333 750 333 741Q333 738 316 720T275 667T226 581T184 443T167 250T184 58T225 -81T274 -167T316 -220T333 -241Q333 -250 318 -250H315H302L274 -226Q180 -141 137 -14T94 250Z"/><path id="MJX-2197-TEX-N-2212" d="M84 237T84 250T98 270H679Q694 262 694 250T679 230H98Q84 237 84 250Z"/><path id="MJX-2197-TEX-N-31" d="M213 578L200 573Q186 568 160 563T102 556H83V602H102Q149 604 189 617T245 641T273 663Q275 666 285 666Q294 666 302 660V361L303 61Q310 54 315 52T339 48T401 46H427V0H416Q395 3 257 3Q121 3 100 0H88V46H114Q136 46 152 46T177 47T193 50T201 52T207 57T213 61V578Z"/><path id="MJX-2197-TEX-N-29" d="M60 749L64 750Q69 750 74 750H86L114 726Q208 641 251 514T294 250Q294 182 284 119T261 12T224 -76T186 -143T145 -194T113 -227T90 -246Q87 -249 86 -250H74Q66 -250 63 -250T58 -247T55 -238Q56 -237 66 -225Q221 -64 221 250T66 725Q56 737 55 738Q55 746 60 749Z"/></defs><g stroke="currentColor" fill="currentColor" stroke-width="0" transform="scale(1,-1)"><g data-mml-node="math"><g data-mml-node="msup"><g data-mml-node="mi"><use data-c="1D452" xlink:href="#MJX-2197-TEX-I-1D452"/></g><g data-mml-node="TeXAtom" transform="translate(499,413) scale(0.707)" data-mjx-texclass="ORD"><g data-mml-node="mi"><use data-c="1D457" xlink:href="#MJX-2197-TEX-I-1D457"/></g><g data-mml-node="mfrac" transform="translate(412,0)"><g data-mml-node="mrow" transform="translate(220,394) scale(0.796)"><g data-mml-node="mn"><use data-c="32" xlink:href="#MJX-2197-TEX-N-32"/></g><g data-mml-node="mi" transform="translate(500,0)"><use data-c="1D70B" xlink:href="#MJX-2197-TEX-I-1D70B"/></g></g><g data-mml-node="mi" transform="translate(227.6,-383.6) scale(0.796)"><use data-c="1D440" xlink:href="#MJX-2197-TEX-I-1D440"/></g><rect width="1051.6" height="60" x="120" y="220"/></g><g data-mml-node="mi" transform="translate(1703.6,0)"><use data-c="1D458" xlink:href="#MJX-2197-TEX-I-1D458"/></g><g data-mml-node="mstyle" transform="translate(2224.6,0) scale(1.414)"><g data-mml-node="mspace"/></g><g data-mml-node="mo" transform="translate(2460.7,0)"><use data-c="28" xlink:href="#MJX-2197-TEX-N-28"/></g><g data-mml-node="mi" transform="translate(2849.7,0)"><use data-c="1D440" xlink:href="#MJX-2197-TEX-I-1D440"/></g><g data-mml-node="mo" transform="translate(3900.7,0)"><use data-c="2212" xlink:href="#MJX-2197-TEX-N-2212"/></g><g data-mml-node="mn" transform="translate(4678.7,0)"><use data-c="31" xlink:href="#MJX-2197-TEX-N-31"/></g><g data-mml-node="mo" transform="translate(5178.7,0)"><use data-c="29" xlink:href="#MJX-2197-TEX-N-29"/></g></g></g></g></g></svg></mjx-container></div></div></div></foreignObject><text x="350" y="209" fill="rgb(0, 0, 0)" font-family="Helvetica" font-size="12px" text-anchor="middle">$$e^{j \frac{2 \pi}{...</text></switch></g><rect x="345" y="271.5" width="60" height="45" fill="none" stroke="none" pointer-events="all"/><g transform="translate(-0.5 -0.5)scale(1.5)"><switch><foreignObject pointer-events="none" width="100%" height="100%" requiredFeatures="http://www.w3.org/TR/SVG11/feature#Extensibility" style="overflow: visible; text-align: left;"><div xmlns="http://www.w3.org/1999/xhtml" style="display: flex; align-items: unsafe center; justify-content: unsafe center; width: 38px; height: 1px; padding-top: 196px; margin-left: 231px;"><div data-drawio-colors="color: rgb(0, 0, 0); " style="box-sizing: border-box; font-size: 0px; text-align: center;"><div style="display: inline-block; font-size: 19px; font-family: Helvetica; color: rgb(0, 0, 0); line-height: 1.2; pointer-events: all; white-space: normal; overflow-wrap: normal;">...</div></div></div></foreignObject><text x="250" y="202" fill="rgb(0, 0, 0)" font-family="Helvetica" font-size="19px" text-anchor="middle">...</text></switch></g></g><switch><g requiredFeatures="http://www.w3.org/TR/SVG11/feature#Extensibility"/><a transform="translate(0,-5)" xlink:href="https://www.drawio.com/doc/faq/svg-export-text-problems" target="_blank"><text text-anchor="middle" font-size="10px" x="50%" y="100%">Text is not SVG - cannot display</text></a></switch></svg>