<?xml version="1.0" encoding="utf-8" standalone="no"?>
<!DOCTYPE svg PUBLIC "-//W3C//DTD SVG 1.1//EN"
  "http://www.w3.org/Graphics/SVG/1.1/DTD/svg11.dtd">
<svg xmlns:xlink="http://www.w3.org/1999/xlink" width="576pt" height="288pt" viewBox="0 0 576 288" xmlns="http://www.w3.org/2000/svg" version="1.1">
 <metadata>
  <rdf:RDF xmlns:dc="http://purl.org/dc/elements/1.1/" xmlns:cc="http://creativecommons.org/ns#" xmlns:rdf="http://www.w3.org/1999/02/22-rdf-syntax-ns#">
   <cc:Work>
    <dc:type rdf:resource="http://purl.org/dc/dcmitype/StillImage"/>
    <dc:date>2026-02-16T16:11:24.985317</dc:date>
    <dc:format>image/svg+xml</dc:format>
    <dc:creator>
     <cc:Agent>
      <dc:title>Matplotlib v3.10.8, https://matplotlib.org/</dc:title>
     </cc:Agent>
    </dc:creator>
   </cc:Work>
  </rdf:RDF>
 </metadata>
 <defs>
  <style type="text/css">*{stroke-linejoin: round; stroke-linecap: butt}</style>
 </defs>
 <g id="figure_1">
  <g id="patch_1">
   <path d="M 0 288 
L 576 288 
L 576 0 
L 0 0 
z
" style="fill: #ffffff"/>
  </g>
  <g id="axes_1">
   <g id="patch_2">
    <path d="M 53.03 246.04 
L 565.2 246.04 
L 565.2 26.16 
L 53.03 26.16 
z
" style="fill: #ffffff"/>
   </g>
   <g id="matplotlib.axis_1">
    <g id="xtick_1">
     <g id="line2d_1">
      <path d="M 104.272021 246.04 
L 104.272021 26.16 
" clip-path="url(#p412401d1ce)" style="fill: none; stroke: #b0b0b0; stroke-width: 0.8; stroke-linecap: square"/>
     </g>
     <g id="line2d_2">
      <defs>
       <path id="mac9910cd67" d="M 0 0 
L 0 3.5 
" style="stroke: #000000; stroke-width: 0.8"/>
      </defs>
      <g>
       <use xlink:href="#mac9910cd67" x="104.272021" y="246.04" style="stroke: #000000; stroke-width: 0.8"/>
      </g>
     </g>
     <g id="text_1">
      <!-- −40 -->
      <g transform="translate(93.719677 260.638438) scale(0.1 -0.1)">
       <defs>
        <path id="DejaVuSans-2212" d="M 678 2272 
L 4684 2272 
L 4684 1741 
L 678 1741 
L 678 2272 
z
" transform="scale(0.015625)"/>
        <path id="DejaVuSans-34" d="M 2419 4116 
L 825 1625 
L 2419 1625 
L 2419 4116 
z
M 2253 4666 
L 3047 4666 
L 3047 1625 
L 3713 1625 
L 3713 1100 
L 3047 1100 
L 3047 0 
L 2419 0 
L 2419 1100 
L 313 1100 
L 313 1709 
L 2253 4666 
z
" transform="scale(0.015625)"/>
        <path id="DejaVuSans-30" d="M 2034 4250 
Q 1547 4250 1301 3770 
Q 1056 3291 1056 2328 
Q 1056 1369 1301 889 
Q 1547 409 2034 409 
Q 2525 409 2770 889 
Q 3016 1369 3016 2328 
Q 3016 3291 2770 3770 
Q 2525 4250 2034 4250 
z
M 2034 4750 
Q 2819 4750 3233 4129 
Q 3647 3509 3647 2328 
Q 3647 1150 3233 529 
Q 2819 -91 2034 -91 
Q 1250 -91 836 529 
Q 422 1150 422 2328 
Q 422 3509 836 4129 
Q 1250 4750 2034 4750 
z
" transform="scale(0.015625)"/>
       </defs>
       <use xlink:href="#DejaVuSans-2212"/>
       <use xlink:href="#DejaVuSans-34" transform="translate(83.789062 0)"/>
       <use xlink:href="#DejaVuSans-30" transform="translate(147.412109 0)"/>
      </g>
     </g>
    </g>
    <g id="xtick_2">
     <g id="line2d_3">
      <path d="M 206.756062 246.04 
L 206.756062 26.16 
" clip-path="url(#p412401d1ce)" style="fill: none; stroke: #b0b0b0; stroke-width: 0.8; stroke-linecap: square"/>
     </g>
     <g id="line2d_4">
      <g>
       <use xlink:href="#mac9910cd67" x="206.756062" y="246.04" style="stroke: #000000; stroke-width: 0.8"/>
      </g>
     </g>
     <g id="text_2">
      <!-- −20 -->
      <g transform="translate(196.203718 260.638438) scale(0.1 -0.1)">
       <defs>
        <path id="DejaVuSans-32" d="M 1228 531 
L 3431 531 
L 3431 0 
L 469 0 
L 469 531 
Q 828 903 1448 1529 
Q 2069 2156 2228 2338 
Q 2531 2678 2651 2914 
Q 2772 3150 2772 3378 
Q 2772 3750 2511 3984 
Q 2250 4219 1831 4219 
Q 1534 4219 1204 4116 
Q 875 4013 500 3803 
L 500 4441 
Q 881 4594 1212 4672 
Q 1544 4750 1819 4750 
Q 2544 4750 2975 4387 
Q 3406 4025 3406 3419 
Q 3406 3131 3298 2873 
Q 3191 2616 2906 2266 
Q 2828 2175 2409 1742 
Q 1991 1309 1228 531 
z
" transform="scale(0.015625)"/>
       </defs>
       <use xlink:href="#DejaVuSans-2212"/>
       <use xlink:href="#DejaVuSans-32" transform="translate(83.789062 0)"/>
       <use xlink:href="#DejaVuSans-30" transform="translate(147.412109 0)"/>
      </g>
     </g>
    </g>
    <g id="xtick_3">
     <g id="line2d_5">
      <path d="M 309.240103 246.04 
L 309.240103 26.16 
" clip-path="url(#p412401d1ce)" style="fill: none; stroke: #b0b0b0; stroke-width: 0.8; stroke-linecap: square"/>
     </g>
     <g id="line2d_6">
      <g>
       <use xlink:href="#mac9910cd67" x="309.240103" y="246.04" style="stroke: #000000; stroke-width: 0.8"/>
      </g>
     </g>
     <g id="text_3">
      <!-- 0 -->
      <g transform="translate(306.058853 260.638438) scale(0.1 -0.1)">
       <use xlink:href="#DejaVuSans-30"/>
      </g>
     </g>
    </g>
    <g id="xtick_4">
     <g id="line2d_7">
      <path d="M 411.724144 246.04 
L 411.724144 26.16 
" clip-path="url(#p412401d1ce)" style="fill: none; stroke: #b0b0b0; stroke-width: 0.8; stroke-linecap: square"/>
     </g>
     <g id="line2d_8">
      <g>
       <use xlink:href="#mac9910cd67" x="411.724144" y="246.04" style="stroke: #000000; stroke-width: 0.8"/>
      </g>
     </g>
     <g id="text_4">
      <!-- 20 -->
      <g transform="translate(405.361644 260.638438) scale(0.1 -0.1)">
       <use xlink:href="#DejaVuSans-32"/>
       <use xlink:href="#DejaVuSans-30" transform="translate(63.623047 0)"/>
      </g>
     </g>
    </g>
    <g id="xtick_5">
     <g id="line2d_9">
      <path d="M 514.208185 246.04 
L 514.208185 26.16 
" clip-path="url(#p412401d1ce)" style="fill: none; stroke: #b0b0b0; stroke-width: 0.8; stroke-linecap: square"/>
     </g>
     <g id="line2d_10">
      <g>
       <use xlink:href="#mac9910cd67" x="514.208185" y="246.04" style="stroke: #000000; stroke-width: 0.8"/>
      </g>
     </g>
     <g id="text_5">
      <!-- 40 -->
      <g transform="translate(507.845685 260.638438) scale(0.1 -0.1)">
       <use xlink:href="#DejaVuSans-34"/>
       <use xlink:href="#DejaVuSans-30" transform="translate(63.623047 0)"/>
      </g>
     </g>
    </g>
    <g id="text_6">
     <!-- Frequency (MHz) -->
     <g transform="translate(267.09625 274.316562) scale(0.1 -0.1)">
      <defs>
       <path id="DejaVuSans-46" d="M 628 4666 
L 3309 4666 
L 3309 4134 
L 1259 4134 
L 1259 2759 
L 3109 2759 
L 3109 2228 
L 1259 2228 
L 1259 0 
L 628 0 
L 628 4666 
z
" transform="scale(0.015625)"/>
       <path id="DejaVuSans-72" d="M 2631 2963 
Q 2534 3019 2420 3045 
Q 2306 3072 2169 3072 
Q 1681 3072 1420 2755 
Q 1159 2438 1159 1844 
L 1159 0 
L 581 0 
L 581 3500 
L 1159 3500 
L 1159 2956 
Q 1341 3275 1631 3429 
Q 1922 3584 2338 3584 
Q 2397 3584 2469 3576 
Q 2541 3569 2628 3553 
L 2631 2963 
z
" transform="scale(0.015625)"/>
       <path id="DejaVuSans-65" d="M 3597 1894 
L 3597 1613 
L 953 1613 
Q 991 1019 1311 708 
Q 1631 397 2203 397 
Q 2534 397 2845 478 
Q 3156 559 3463 722 
L 3463 178 
Q 3153 47 2828 -22 
Q 2503 -91 2169 -91 
Q 1331 -91 842 396 
Q 353 884 353 1716 
Q 353 2575 817 3079 
Q 1281 3584 2069 3584 
Q 2775 3584 3186 3129 
Q 3597 2675 3597 1894 
z
M 3022 2063 
Q 3016 2534 2758 2815 
Q 2500 3097 2075 3097 
Q 1594 3097 1305 2825 
Q 1016 2553 972 2059 
L 3022 2063 
z
" transform="scale(0.015625)"/>
       <path id="DejaVuSans-71" d="M 947 1747 
Q 947 1113 1208 752 
Q 1469 391 1925 391 
Q 2381 391 2643 752 
Q 2906 1113 2906 1747 
Q 2906 2381 2643 2742 
Q 2381 3103 1925 3103 
Q 1469 3103 1208 2742 
Q 947 2381 947 1747 
z
M 2906 525 
Q 2725 213 2448 61 
Q 2172 -91 1784 -91 
Q 1150 -91 751 415 
Q 353 922 353 1747 
Q 353 2572 751 3078 
Q 1150 3584 1784 3584 
Q 2172 3584 2448 3432 
Q 2725 3281 2906 2969 
L 2906 3500 
L 3481 3500 
L 3481 -1331 
L 2906 -1331 
L 2906 525 
z
" transform="scale(0.015625)"/>
       <path id="DejaVuSans-75" d="M 544 1381 
L 544 3500 
L 1119 3500 
L 1119 1403 
Q 1119 906 1312 657 
Q 1506 409 1894 409 
Q 2359 409 2629 706 
Q 2900 1003 2900 1516 
L 2900 3500 
L 3475 3500 
L 3475 0 
L 2900 0 
L 2900 538 
Q 2691 219 2414 64 
Q 2138 -91 1772 -91 
Q 1169 -91 856 284 
Q 544 659 544 1381 
z
M 1991 3584 
L 1991 3584 
z
" transform="scale(0.015625)"/>
       <path id="DejaVuSans-6e" d="M 3513 2113 
L 3513 0 
L 2938 0 
L 2938 2094 
Q 2938 2591 2744 2837 
Q 2550 3084 2163 3084 
Q 1697 3084 1428 2787 
Q 1159 2491 1159 1978 
L 1159 0 
L 581 0 
L 581 3500 
L 1159 3500 
L 1159 2956 
Q 1366 3272 1645 3428 
Q 1925 3584 2291 3584 
Q 2894 3584 3203 3211 
Q 3513 2838 3513 2113 
z
" transform="scale(0.015625)"/>
       <path id="DejaVuSans-63" d="M 3122 3366 
L 3122 2828 
Q 2878 2963 2633 3030 
Q 2388 3097 2138 3097 
Q 1578 3097 1268 2742 
Q 959 2388 959 1747 
Q 959 1106 1268 751 
Q 1578 397 2138 397 
Q 2388 397 2633 464 
Q 2878 531 3122 666 
L 3122 134 
Q 2881 22 2623 -34 
Q 2366 -91 2075 -91 
Q 1284 -91 818 406 
Q 353 903 353 1747 
Q 353 2603 823 3093 
Q 1294 3584 2113 3584 
Q 2378 3584 2631 3529 
Q 2884 3475 3122 3366 
z
" transform="scale(0.015625)"/>
       <path id="DejaVuSans-79" d="M 2059 -325 
Q 1816 -950 1584 -1140 
Q 1353 -1331 966 -1331 
L 506 -1331 
L 506 -850 
L 844 -850 
Q 1081 -850 1212 -737 
Q 1344 -625 1503 -206 
L 1606 56 
L 191 3500 
L 800 3500 
L 1894 763 
L 2988 3500 
L 3597 3500 
L 2059 -325 
z
" transform="scale(0.015625)"/>
       <path id="DejaVuSans-20" transform="scale(0.015625)"/>
       <path id="DejaVuSans-28" d="M 1984 4856 
Q 1566 4138 1362 3434 
Q 1159 2731 1159 2009 
Q 1159 1288 1364 580 
Q 1569 -128 1984 -844 
L 1484 -844 
Q 1016 -109 783 600 
Q 550 1309 550 2009 
Q 550 2706 781 3412 
Q 1013 4119 1484 4856 
L 1984 4856 
z
" transform="scale(0.015625)"/>
       <path id="DejaVuSans-4d" d="M 628 4666 
L 1569 4666 
L 2759 1491 
L 3956 4666 
L 4897 4666 
L 4897 0 
L 4281 0 
L 4281 4097 
L 3078 897 
L 2444 897 
L 1241 4097 
L 1241 0 
L 628 0 
L 628 4666 
z
" transform="scale(0.015625)"/>
       <path id="DejaVuSans-48" d="M 628 4666 
L 1259 4666 
L 1259 2753 
L 3553 2753 
L 3553 4666 
L 4184 4666 
L 4184 0 
L 3553 0 
L 3553 2222 
L 1259 2222 
L 1259 0 
L 628 0 
L 628 4666 
z
" transform="scale(0.015625)"/>
       <path id="DejaVuSans-7a" d="M 353 3500 
L 3084 3500 
L 3084 2975 
L 922 459 
L 3084 459 
L 3084 0 
L 275 0 
L 275 525 
L 2438 3041 
L 353 3041 
L 353 3500 
z
" transform="scale(0.015625)"/>
       <path id="DejaVuSans-29" d="M 513 4856 
L 1013 4856 
Q 1481 4119 1714 3412 
Q 1947 2706 1947 2009 
Q 1947 1309 1714 600 
Q 1481 -109 1013 -844 
L 513 -844 
Q 928 -128 1133 580 
Q 1338 1288 1338 2009 
Q 1338 2731 1133 3434 
Q 928 4138 513 4856 
z
" transform="scale(0.015625)"/>
      </defs>
      <use xlink:href="#DejaVuSans-46"/>
      <use xlink:href="#DejaVuSans-72" transform="translate(50.269531 0)"/>
      <use xlink:href="#DejaVuSans-65" transform="translate(89.132812 0)"/>
      <use xlink:href="#DejaVuSans-71" transform="translate(150.65625 0)"/>
      <use xlink:href="#DejaVuSans-75" transform="translate(214.132812 0)"/>
      <use xlink:href="#DejaVuSans-65" transform="translate(277.511719 0)"/>
      <use xlink:href="#DejaVuSans-6e" transform="translate(339.035156 0)"/>
      <use xlink:href="#DejaVuSans-63" transform="translate(402.414062 0)"/>
      <use xlink:href="#DejaVuSans-79" transform="translate(457.394531 0)"/>
      <use xlink:href="#DejaVuSans-20" transform="translate(516.574219 0)"/>
      <use xlink:href="#DejaVuSans-28" transform="translate(548.361328 0)"/>
      <use xlink:href="#DejaVuSans-4d" transform="translate(587.375 0)"/>
      <use xlink:href="#DejaVuSans-48" transform="translate(673.654297 0)"/>
      <use xlink:href="#DejaVuSans-7a" transform="translate(748.849609 0)"/>
      <use xlink:href="#DejaVuSans-29" transform="translate(801.339844 0)"/>
     </g>
    </g>
   </g>
   <g id="matplotlib.axis_2">
    <g id="ytick_1">
     <g id="line2d_11">
      <path d="M 53.03 246.04 
L 565.2 246.04 
" clip-path="url(#p412401d1ce)" style="fill: none; stroke: #b0b0b0; stroke-width: 0.8; stroke-linecap: square"/>
     </g>
     <g id="line2d_12">
      <defs>
       <path id="mf80b808757" d="M 0 0 
L -3.5 0 
" style="stroke: #000000; stroke-width: 0.8"/>
      </defs>
      <g>
       <use xlink:href="#mf80b808757" x="53.03" y="246.04" style="stroke: #000000; stroke-width: 0.8"/>
      </g>
     </g>
     <g id="text_7">
      <!-- −80 -->
      <g transform="translate(24.925313 249.839219) scale(0.1 -0.1)">
       <defs>
        <path id="DejaVuSans-38" d="M 2034 2216 
Q 1584 2216 1326 1975 
Q 1069 1734 1069 1313 
Q 1069 891 1326 650 
Q 1584 409 2034 409 
Q 2484 409 2743 651 
Q 3003 894 3003 1313 
Q 3003 1734 2745 1975 
Q 2488 2216 2034 2216 
z
M 1403 2484 
Q 997 2584 770 2862 
Q 544 3141 544 3541 
Q 544 4100 942 4425 
Q 1341 4750 2034 4750 
Q 2731 4750 3128 4425 
Q 3525 4100 3525 3541 
Q 3525 3141 3298 2862 
Q 3072 2584 2669 2484 
Q 3125 2378 3379 2068 
Q 3634 1759 3634 1313 
Q 3634 634 3220 271 
Q 2806 -91 2034 -91 
Q 1263 -91 848 271 
Q 434 634 434 1313 
Q 434 1759 690 2068 
Q 947 2378 1403 2484 
z
M 1172 3481 
Q 1172 3119 1398 2916 
Q 1625 2713 2034 2713 
Q 2441 2713 2670 2916 
Q 2900 3119 2900 3481 
Q 2900 3844 2670 4047 
Q 2441 4250 2034 4250 
Q 1625 4250 1398 4047 
Q 1172 3844 1172 3481 
z
" transform="scale(0.015625)"/>
       </defs>
       <use xlink:href="#DejaVuSans-2212"/>
       <use xlink:href="#DejaVuSans-38" transform="translate(83.789062 0)"/>
       <use xlink:href="#DejaVuSans-30" transform="translate(147.412109 0)"/>
      </g>
     </g>
    </g>
    <g id="ytick_2">
     <g id="line2d_13">
      <path d="M 53.03 220.200469 
L 565.2 220.200469 
" clip-path="url(#p412401d1ce)" style="fill: none; stroke: #b0b0b0; stroke-width: 0.8; stroke-linecap: square"/>
     </g>
     <g id="line2d_14">
      <g>
       <use xlink:href="#mf80b808757" x="53.03" y="220.200469" style="stroke: #000000; stroke-width: 0.8"/>
      </g>
     </g>
     <g id="text_8">
      <!-- −70 -->
      <g transform="translate(24.925313 223.999688) scale(0.1 -0.1)">
       <defs>
        <path id="DejaVuSans-37" d="M 525 4666 
L 3525 4666 
L 3525 4397 
L 1831 0 
L 1172 0 
L 2766 4134 
L 525 4134 
L 525 4666 
z
" transform="scale(0.015625)"/>
       </defs>
       <use xlink:href="#DejaVuSans-2212"/>
       <use xlink:href="#DejaVuSans-37" transform="translate(83.789062 0)"/>
       <use xlink:href="#DejaVuSans-30" transform="translate(147.412109 0)"/>
      </g>
     </g>
    </g>
    <g id="ytick_3">
     <g id="line2d_15">
      <path d="M 53.03 194.360939 
L 565.2 194.360939 
" clip-path="url(#p412401d1ce)" style="fill: none; stroke: #b0b0b0; stroke-width: 0.8; stroke-linecap: square"/>
     </g>
     <g id="line2d_16">
      <g>
       <use xlink:href="#mf80b808757" x="53.03" y="194.360939" style="stroke: #000000; stroke-width: 0.8"/>
      </g>
     </g>
     <g id="text_9">
      <!-- −60 -->
      <g transform="translate(24.925313 198.160158) scale(0.1 -0.1)">
       <defs>
        <path id="DejaVuSans-36" d="M 2113 2584 
Q 1688 2584 1439 2293 
Q 1191 2003 1191 1497 
Q 1191 994 1439 701 
Q 1688 409 2113 409 
Q 2538 409 2786 701 
Q 3034 994 3034 1497 
Q 3034 2003 2786 2293 
Q 2538 2584 2113 2584 
z
M 3366 4563 
L 3366 3988 
Q 3128 4100 2886 4159 
Q 2644 4219 2406 4219 
Q 1781 4219 1451 3797 
Q 1122 3375 1075 2522 
Q 1259 2794 1537 2939 
Q 1816 3084 2150 3084 
Q 2853 3084 3261 2657 
Q 3669 2231 3669 1497 
Q 3669 778 3244 343 
Q 2819 -91 2113 -91 
Q 1303 -91 875 529 
Q 447 1150 447 2328 
Q 447 3434 972 4092 
Q 1497 4750 2381 4750 
Q 2619 4750 2861 4703 
Q 3103 4656 3366 4563 
z
" transform="scale(0.015625)"/>
       </defs>
       <use xlink:href="#DejaVuSans-2212"/>
       <use xlink:href="#DejaVuSans-36" transform="translate(83.789062 0)"/>
       <use xlink:href="#DejaVuSans-30" transform="translate(147.412109 0)"/>
      </g>
     </g>
    </g>
    <g id="ytick_4">
     <g id="line2d_17">
      <path d="M 53.03 168.521408 
L 565.2 168.521408 
" clip-path="url(#p412401d1ce)" style="fill: none; stroke: #b0b0b0; stroke-width: 0.8; stroke-linecap: square"/>
     </g>
     <g id="line2d_18">
      <g>
       <use xlink:href="#mf80b808757" x="53.03" y="168.521408" style="stroke: #000000; stroke-width: 0.8"/>
      </g>
     </g>
     <g id="text_10">
      <!-- −50 -->
      <g transform="translate(24.925313 172.320627) scale(0.1 -0.1)">
       <defs>
        <path id="DejaVuSans-35" d="M 691 4666 
L 3169 4666 
L 3169 4134 
L 1269 4134 
L 1269 2991 
Q 1406 3038 1543 3061 
Q 1681 3084 1819 3084 
Q 2600 3084 3056 2656 
Q 3513 2228 3513 1497 
Q 3513 744 3044 326 
Q 2575 -91 1722 -91 
Q 1428 -91 1123 -41 
Q 819 9 494 109 
L 494 744 
Q 775 591 1075 516 
Q 1375 441 1709 441 
Q 2250 441 2565 725 
Q 2881 1009 2881 1497 
Q 2881 1984 2565 2268 
Q 2250 2553 1709 2553 
Q 1456 2553 1204 2497 
Q 953 2441 691 2322 
L 691 4666 
z
" transform="scale(0.015625)"/>
       </defs>
       <use xlink:href="#DejaVuSans-2212"/>
       <use xlink:href="#DejaVuSans-35" transform="translate(83.789062 0)"/>
       <use xlink:href="#DejaVuSans-30" transform="translate(147.412109 0)"/>
      </g>
     </g>
    </g>
    <g id="ytick_5">
     <g id="line2d_19">
      <path d="M 53.03 142.681878 
L 565.2 142.681878 
" clip-path="url(#p412401d1ce)" style="fill: none; stroke: #b0b0b0; stroke-width: 0.8; stroke-linecap: square"/>
     </g>
     <g id="line2d_20">
      <g>
       <use xlink:href="#mf80b808757" x="53.03" y="142.681878" style="stroke: #000000; stroke-width: 0.8"/>
      </g>
     </g>
     <g id="text_11">
      <!-- −40 -->
      <g transform="translate(24.925313 146.481097) scale(0.1 -0.1)">
       <use xlink:href="#DejaVuSans-2212"/>
       <use xlink:href="#DejaVuSans-34" transform="translate(83.789062 0)"/>
       <use xlink:href="#DejaVuSans-30" transform="translate(147.412109 0)"/>
      </g>
     </g>
    </g>
    <g id="ytick_6">
     <g id="line2d_21">
      <path d="M 53.03 116.842347 
L 565.2 116.842347 
" clip-path="url(#p412401d1ce)" style="fill: none; stroke: #b0b0b0; stroke-width: 0.8; stroke-linecap: square"/>
     </g>
     <g id="line2d_22">
      <g>
       <use xlink:href="#mf80b808757" x="53.03" y="116.842347" style="stroke: #000000; stroke-width: 0.8"/>
      </g>
     </g>
     <g id="text_12">
      <!-- −30 -->
      <g transform="translate(24.925313 120.641566) scale(0.1 -0.1)">
       <defs>
        <path id="DejaVuSans-33" d="M 2597 2516 
Q 3050 2419 3304 2112 
Q 3559 1806 3559 1356 
Q 3559 666 3084 287 
Q 2609 -91 1734 -91 
Q 1441 -91 1130 -33 
Q 819 25 488 141 
L 488 750 
Q 750 597 1062 519 
Q 1375 441 1716 441 
Q 2309 441 2620 675 
Q 2931 909 2931 1356 
Q 2931 1769 2642 2001 
Q 2353 2234 1838 2234 
L 1294 2234 
L 1294 2753 
L 1863 2753 
Q 2328 2753 2575 2939 
Q 2822 3125 2822 3475 
Q 2822 3834 2567 4026 
Q 2313 4219 1838 4219 
Q 1578 4219 1281 4162 
Q 984 4106 628 3988 
L 628 4550 
Q 988 4650 1302 4700 
Q 1616 4750 1894 4750 
Q 2613 4750 3031 4423 
Q 3450 4097 3450 3541 
Q 3450 3153 3228 2886 
Q 3006 2619 2597 2516 
z
" transform="scale(0.015625)"/>
       </defs>
       <use xlink:href="#DejaVuSans-2212"/>
       <use xlink:href="#DejaVuSans-33" transform="translate(83.789062 0)"/>
       <use xlink:href="#DejaVuSans-30" transform="translate(147.412109 0)"/>
      </g>
     </g>
    </g>
    <g id="ytick_7">
     <g id="line2d_23">
      <path d="M 53.03 91.002817 
L 565.2 91.002817 
" clip-path="url(#p412401d1ce)" style="fill: none; stroke: #b0b0b0; stroke-width: 0.8; stroke-linecap: square"/>
     </g>
     <g id="line2d_24">
      <g>
       <use xlink:href="#mf80b808757" x="53.03" y="91.002817" style="stroke: #000000; stroke-width: 0.8"/>
      </g>
     </g>
     <g id="text_13">
      <!-- −20 -->
      <g transform="translate(24.925313 94.802036) scale(0.1 -0.1)">
       <use xlink:href="#DejaVuSans-2212"/>
       <use xlink:href="#DejaVuSans-32" transform="translate(83.789062 0)"/>
       <use xlink:href="#DejaVuSans-30" transform="translate(147.412109 0)"/>
      </g>
     </g>
    </g>
    <g id="ytick_8">
     <g id="line2d_25">
      <path d="M 53.03 65.163286 
L 565.2 65.163286 
" clip-path="url(#p412401d1ce)" style="fill: none; stroke: #b0b0b0; stroke-width: 0.8; stroke-linecap: square"/>
     </g>
     <g id="line2d_26">
      <g>
       <use xlink:href="#mf80b808757" x="53.03" y="65.163286" style="stroke: #000000; stroke-width: 0.8"/>
      </g>
     </g>
     <g id="text_14">
      <!-- −10 -->
      <g transform="translate(24.925313 68.962505) scale(0.1 -0.1)">
       <defs>
        <path id="DejaVuSans-31" d="M 794 531 
L 1825 531 
L 1825 4091 
L 703 3866 
L 703 4441 
L 1819 4666 
L 2450 4666 
L 2450 531 
L 3481 531 
L 3481 0 
L 794 0 
L 794 531 
z
" transform="scale(0.015625)"/>
       </defs>
       <use xlink:href="#DejaVuSans-2212"/>
       <use xlink:href="#DejaVuSans-31" transform="translate(83.789062 0)"/>
       <use xlink:href="#DejaVuSans-30" transform="translate(147.412109 0)"/>
      </g>
     </g>
    </g>
    <g id="ytick_9">
     <g id="line2d_27">
      <path d="M 53.03 39.323756 
L 565.2 39.323756 
" clip-path="url(#p412401d1ce)" style="fill: none; stroke: #b0b0b0; stroke-width: 0.8; stroke-linecap: square"/>
     </g>
     <g id="line2d_28">
      <g>
       <use xlink:href="#mf80b808757" x="53.03" y="39.323756" style="stroke: #000000; stroke-width: 0.8"/>
      </g>
     </g>
     <g id="text_15">
      <!-- 0 -->
      <g transform="translate(39.6675 43.122974) scale(0.1 -0.1)">
       <use xlink:href="#DejaVuSans-30"/>
      </g>
     </g>
    </g>
    <g id="text_16">
     <!-- Magnitude (dB) -->
     <g transform="translate(18.845625 174.685156) rotate(-90) scale(0.1 -0.1)">
      <defs>
       <path id="DejaVuSans-61" d="M 2194 1759 
Q 1497 1759 1228 1600 
Q 959 1441 959 1056 
Q 959 750 1161 570 
Q 1363 391 1709 391 
Q 2188 391 2477 730 
Q 2766 1069 2766 1631 
L 2766 1759 
L 2194 1759 
z
M 3341 1997 
L 3341 0 
L 2766 0 
L 2766 531 
Q 2569 213 2275 61 
Q 1981 -91 1556 -91 
Q 1019 -91 701 211 
Q 384 513 384 1019 
Q 384 1609 779 1909 
Q 1175 2209 1959 2209 
L 2766 2209 
L 2766 2266 
Q 2766 2663 2505 2880 
Q 2244 3097 1772 3097 
Q 1472 3097 1187 3025 
Q 903 2953 641 2809 
L 641 3341 
Q 956 3463 1253 3523 
Q 1550 3584 1831 3584 
Q 2591 3584 2966 3190 
Q 3341 2797 3341 1997 
z
" transform="scale(0.015625)"/>
       <path id="DejaVuSans-67" d="M 2906 1791 
Q 2906 2416 2648 2759 
Q 2391 3103 1925 3103 
Q 1463 3103 1205 2759 
Q 947 2416 947 1791 
Q 947 1169 1205 825 
Q 1463 481 1925 481 
Q 2391 481 2648 825 
Q 2906 1169 2906 1791 
z
M 3481 434 
Q 3481 -459 3084 -895 
Q 2688 -1331 1869 -1331 
Q 1566 -1331 1297 -1286 
Q 1028 -1241 775 -1147 
L 775 -588 
Q 1028 -725 1275 -790 
Q 1522 -856 1778 -856 
Q 2344 -856 2625 -561 
Q 2906 -266 2906 331 
L 2906 616 
Q 2728 306 2450 153 
Q 2172 0 1784 0 
Q 1141 0 747 490 
Q 353 981 353 1791 
Q 353 2603 747 3093 
Q 1141 3584 1784 3584 
Q 2172 3584 2450 3431 
Q 2728 3278 2906 2969 
L 2906 3500 
L 3481 3500 
L 3481 434 
z
" transform="scale(0.015625)"/>
       <path id="DejaVuSans-69" d="M 603 3500 
L 1178 3500 
L 1178 0 
L 603 0 
L 603 3500 
z
M 603 4863 
L 1178 4863 
L 1178 4134 
L 603 4134 
L 603 4863 
z
" transform="scale(0.015625)"/>
       <path id="DejaVuSans-74" d="M 1172 4494 
L 1172 3500 
L 2356 3500 
L 2356 3053 
L 1172 3053 
L 1172 1153 
Q 1172 725 1289 603 
Q 1406 481 1766 481 
L 2356 481 
L 2356 0 
L 1766 0 
Q 1100 0 847 248 
Q 594 497 594 1153 
L 594 3053 
L 172 3053 
L 172 3500 
L 594 3500 
L 594 4494 
L 1172 4494 
z
" transform="scale(0.015625)"/>
       <path id="DejaVuSans-64" d="M 2906 2969 
L 2906 4863 
L 3481 4863 
L 3481 0 
L 2906 0 
L 2906 525 
Q 2725 213 2448 61 
Q 2172 -91 1784 -91 
Q 1150 -91 751 415 
Q 353 922 353 1747 
Q 353 2572 751 3078 
Q 1150 3584 1784 3584 
Q 2172 3584 2448 3432 
Q 2725 3281 2906 2969 
z
M 947 1747 
Q 947 1113 1208 752 
Q 1469 391 1925 391 
Q 2381 391 2643 752 
Q 2906 1113 2906 1747 
Q 2906 2381 2643 2742 
Q 2381 3103 1925 3103 
Q 1469 3103 1208 2742 
Q 947 2381 947 1747 
z
" transform="scale(0.015625)"/>
       <path id="DejaVuSans-42" d="M 1259 2228 
L 1259 519 
L 2272 519 
Q 2781 519 3026 730 
Q 3272 941 3272 1375 
Q 3272 1813 3026 2020 
Q 2781 2228 2272 2228 
L 1259 2228 
z
M 1259 4147 
L 1259 2741 
L 2194 2741 
Q 2656 2741 2882 2914 
Q 3109 3088 3109 3444 
Q 3109 3797 2882 3972 
Q 2656 4147 2194 4147 
L 1259 4147 
z
M 628 4666 
L 2241 4666 
Q 2963 4666 3353 4366 
Q 3744 4066 3744 3513 
Q 3744 3084 3544 2831 
Q 3344 2578 2956 2516 
Q 3422 2416 3680 2098 
Q 3938 1781 3938 1306 
Q 3938 681 3513 340 
Q 3088 0 2303 0 
L 628 0 
L 628 4666 
z
" transform="scale(0.015625)"/>
      </defs>
      <use xlink:href="#DejaVuSans-4d"/>
      <use xlink:href="#DejaVuSans-61" transform="translate(86.279297 0)"/>
      <use xlink:href="#DejaVuSans-67" transform="translate(147.558594 0)"/>
      <use xlink:href="#DejaVuSans-6e" transform="translate(211.035156 0)"/>
      <use xlink:href="#DejaVuSans-69" transform="translate(274.414062 0)"/>
      <use xlink:href="#DejaVuSans-74" transform="translate(302.197266 0)"/>
      <use xlink:href="#DejaVuSans-75" transform="translate(341.40625 0)"/>
      <use xlink:href="#DejaVuSans-64" transform="translate(404.785156 0)"/>
      <use xlink:href="#DejaVuSans-65" transform="translate(468.261719 0)"/>
      <use xlink:href="#DejaVuSans-20" transform="translate(529.785156 0)"/>
      <use xlink:href="#DejaVuSans-28" transform="translate(561.572266 0)"/>
      <use xlink:href="#DejaVuSans-64" transform="translate(600.585938 0)"/>
      <use xlink:href="#DejaVuSans-42" transform="translate(664.0625 0)"/>
      <use xlink:href="#DejaVuSans-29" transform="translate(732.666016 0)"/>
     </g>
    </g>
   </g>
   <g id="line2d_29">
    <path d="M 53.03 137.751317 
L 53.280205 140.157694 
L 53.53041 154.897998 
L 53.780616 148.205438 
L 54.030821 145.440897 
L 54.281026 157.375209 
L 54.531231 148.494287 
L 54.781436 149.567608 
L 55.031641 158.755106 
L 55.281847 157.786699 
L 55.532052 153.914638 
L 55.782257 155.835072 
L 56.282667 164.17351 
L 56.532872 153.069428 
L 56.783078 148.340584 
L 57.533693 176.648045 
L 57.783898 163.810906 
L 58.034104 162.080796 
L 58.284309 156.60088 
L 58.534514 160.810328 
L 58.784719 150.137717 
L 59.034924 146.945393 
L 59.78554 192.976885 
L 60.035745 158.832362 
L 60.28595 144.40287 
L 60.536155 148.161119 
L 60.786361 175.908795 
L 61.036566 154.35775 
L 61.286771 146.103829 
L 61.536976 143.934079 
L 61.787181 149.305221 
L 62.037386 188.716635 
L 62.287592 151.66316 
L 62.537797 146.975335 
L 62.788002 163.413893 
L 63.038207 199.979275 
L 63.288412 178.375773 
L 63.538617 170.721373 
L 63.788823 145.644906 
L 64.039028 134.701219 
L 64.289233 133.285387 
L 64.539438 137.500675 
L 65.039849 152.061237 
L 65.290054 148.226467 
L 65.540259 139.00861 
L 65.790464 136.46918 
L 66.040669 144.40625 
L 66.290874 177.080226 
L 66.54108 170.619347 
L 66.791285 168.866929 
L 67.04149 165.011306 
L 67.291695 144.795976 
L 67.5419 141.8048 
L 67.792106 145.669618 
L 68.042311 151.623697 
L 68.292516 168.253104 
L 68.542721 210.687855 
L 68.792926 170.596901 
L 69.043131 161.960617 
L 69.293337 159.86558 
L 69.793747 150.071839 
L 70.043952 151.444619 
L 70.294157 155.361594 
L 70.544362 157.116114 
L 70.794568 169.715715 
L 71.044773 167.895079 
L 71.294978 168.356146 
L 71.545183 160.394992 
L 71.795388 146.577426 
L 72.045594 145.421876 
L 72.295799 151.481363 
L 72.546004 150.18105 
L 72.796209 144.922134 
L 73.046414 152.881756 
L 73.296619 191.869504 
L 73.546825 160.444339 
L 73.79703 160.186362 
L 74.29744 142.251449 
L 74.797851 140.593334 
L 75.048056 137.992909 
L 75.298261 138.324081 
L 75.548466 141.870022 
L 76.048876 160.509955 
L 76.299082 151.847658 
L 76.799492 155.264784 
L 77.049697 154.680083 
L 77.299902 150.53759 
L 77.550107 148.807624 
L 78.300723 169.875555 
L 78.550928 183.708173 
L 78.801133 180.474304 
L 79.051339 164.268976 
L 79.301544 164.256505 
L 79.801954 205.378131 
L 80.052159 186.046021 
L 80.302364 185.036358 
L 80.55257 174.057588 
L 81.05298 143.179304 
L 81.303185 136.601498 
L 81.55339 133.446577 
L 81.803596 133.977684 
L 82.053801 137.671821 
L 82.554211 153.58077 
L 82.804416 164.986272 
L 83.054621 207.317339 
L 83.304827 159.382979 
L 83.555032 151.430715 
L 83.805237 152.946466 
L 84.305647 165.844064 
L 84.555852 169.048521 
L 84.806058 166.336266 
L 85.056263 145.520397 
L 85.306468 138.296088 
L 85.556673 139.969644 
L 86.057084 172.661335 
L 86.307289 154.249794 
L 86.557494 153.334456 
L 86.807699 159.726153 
L 87.057904 162.333577 
L 87.308109 157.692136 
L 87.558315 161.726357 
L 87.80852 161.333601 
L 88.058725 168.081893 
L 88.30893 186.79461 
L 88.559135 152.693399 
L 88.80934 148.421242 
L 89.059546 160.492587 
L 89.559956 203.430268 
L 89.810161 167.140437 
L 90.060366 164.715303 
L 90.560777 139.055516 
L 90.810982 134.238911 
L 91.061187 141.693366 
L 91.311392 176.900638 
L 91.561597 167.761768 
L 92.062008 135.087008 
L 92.312213 132.130216 
L 92.562418 139.803455 
L 92.812623 157.250232 
L 93.062829 165.677512 
L 93.563239 172.465157 
L 94.313854 153.524388 
L 94.56406 156.414332 
L 94.814265 174.225447 
L 95.06447 157.787663 
L 95.314675 160.971351 
L 95.815085 138.727006 
L 96.065291 144.64055 
L 96.315496 173.280631 
L 96.565701 179.637738 
L 96.815906 177.722038 
L 97.066111 182.540073 
L 97.316317 165.53109 
L 97.566522 174.07797 
L 97.816727 174.063103 
L 98.066932 148.403439 
L 98.317137 143.13552 
L 98.567342 142.18609 
L 98.817548 141.88679 
L 99.317958 153.464186 
L 99.568163 142.233427 
L 99.818368 143.063908 
L 100.068574 151.453726 
L 100.568984 159.500766 
L 100.819189 175.384424 
L 101.069394 174.679408 
L 101.319599 162.555898 
L 101.569805 158.267027 
L 101.82001 163.34779 
L 102.070215 178.41832 
L 102.32042 183.561198 
L 102.570625 163.448065 
L 102.82083 155.980285 
L 103.071036 159.761533 
L 103.321241 161.156891 
L 103.571446 151.638694 
L 103.821651 137.804788 
L 104.071856 136.95822 
L 104.572267 163.990664 
L 104.822472 200.141078 
L 105.573087 165.412571 
L 105.823293 172.353835 
L 106.073498 166.673331 
L 106.323703 151.710841 
L 106.573908 146.201575 
L 106.824113 147.717793 
L 107.074319 151.116838 
L 107.324524 145.841546 
L 107.574729 143.798538 
L 108.075139 165.154818 
L 108.325344 159.669248 
L 108.57555 159.044066 
L 109.07596 151.068845 
L 109.326165 140.668425 
L 109.57637 135.411371 
L 109.826575 140.725403 
L 110.326986 173.645563 
L 110.577191 175.058427 
L 111.077601 161.109934 
L 111.327807 159.721172 
L 111.828217 150.005824 
L 112.078422 157.687841 
L 112.328627 161.794561 
L 112.578832 152.043158 
L 112.829038 151.858027 
L 113.079243 155.762838 
L 113.329448 164.371429 
L 113.579653 181.318583 
L 114.080064 172.07427 
L 114.330269 154.482056 
L 114.580474 149.722259 
L 114.830679 157.938724 
L 115.331089 151.771703 
L 115.581295 159.715029 
L 116.081705 199.97045 
L 116.33191 163.846089 
L 116.582115 150.984823 
L 116.83232 148.641881 
L 117.082526 151.988788 
L 117.332731 158.017856 
L 117.582936 161.105702 
L 117.833141 151.628138 
L 118.333552 156.434031 
L 118.583757 141.755139 
L 118.833962 137.327954 
L 119.084167 137.721806 
L 119.334372 141.203722 
L 119.584577 157.215705 
L 119.834783 164.246801 
L 120.084988 146.12178 
L 120.585398 165.815269 
L 120.835603 161.764845 
L 121.085809 200.634419 
L 121.336014 174.1758 
L 121.586219 160.979647 
L 121.836424 153.722406 
L 122.086629 160.6489 
L 122.336834 178.969202 
L 122.58704 173.884525 
L 122.837245 178.685486 
L 123.337655 172.216893 
L 123.58786 162.442655 
L 123.838065 145.582965 
L 124.088271 138.907619 
L 124.338476 143.210957 
L 124.838886 167.899768 
L 125.089091 167.231486 
L 125.339297 160.050299 
L 125.589502 170.349405 
L 125.839707 175.99657 
L 126.340117 158.305231 
L 126.590322 146.450905 
L 126.840528 141.5045 
L 127.090733 144.708399 
L 127.340938 150.757973 
L 127.591143 163.794256 
L 128.091553 235.0479 
L 128.341759 175.209622 
L 128.591964 164.980643 
L 128.842169 172.021989 
L 129.092374 174.949873 
L 129.342579 167.762432 
L 129.84299 181.461245 
L 130.093195 176.173374 
L 130.3434 179.151753 
L 130.593605 189.570466 
L 130.84381 234.052666 
L 131.094016 184.587917 
L 131.344221 172.853391 
L 131.594426 173.6988 
L 132.595247 200.551088 
L 132.845452 219.763633 
L 133.095657 255.69987 
L 133.345862 233.72126 
L 133.596067 222.045431 
L 133.846273 219.731127 
L 134.096478 220.998676 
L 134.346683 227.767971 
L 134.596888 262.216883 
L 134.847093 247.329888 
L 135.097298 256.514468 
L 135.347504 255.912905 
L 135.597709 232.68421 
L 135.847914 221.725031 
L 136.098119 226.443859 
L 136.348324 237.527821 
L 136.59853 232.355466 
L 136.848735 224.807938 
L 137.349145 218.14219 
L 137.59935 222.419359 
L 137.849555 234.727286 
L 138.099761 235.830798 
L 138.349966 243.481767 
L 138.600171 240.003261 
L 138.850376 227.497842 
L 139.350787 246.732771 
L 139.600992 237.956322 
L 140.101402 230.598688 
L 140.351607 231.691827 
L 140.601812 233.831019 
L 140.852018 232.25562 
L 141.352428 218.553254 
L 141.602633 216.534129 
L 141.852838 220.544402 
L 142.353249 243.806115 
L 142.853659 221.211743 
L 143.103864 223.385692 
L 143.85448 272.529686 
L 144.104685 251.096671 
L 144.35489 243.616816 
L 144.605095 250.137607 
L 145.105506 231.668468 
L 145.355711 245.987629 
L 145.605916 221.963546 
L 145.856121 212.490676 
L 146.106326 216.309796 
L 146.356532 231.396614 
L 146.606737 255.913569 
L 147.107147 260.208553 
L 147.357352 278.892887 
L 147.607557 249.6455 
L 147.857763 240.297859 
L 148.358173 208.053233 
L 148.608378 202.916319 
L 148.858583 204.561523 
L 149.358994 227.870941 
L 149.609199 220.852497 
L 149.859404 222.687355 
L 150.359814 262.334453 
L 150.61002 238.98512 
L 150.860225 234.410628 
L 151.360635 216.17878 
L 151.61084 214.529921 
L 151.861045 227.145361 
L 152.111251 268.819871 
L 152.361456 231.14328 
L 152.611661 229.814527 
L 152.861866 227.683625 
L 153.112071 218.718997 
L 153.362277 223.757166 
L 153.612482 260.614099 
L 153.862687 239.844956 
L 154.363097 229.308671 
L 154.613302 215.570511 
L 155.113713 134.497695 
L 155.363918 117.991214 
L 155.614123 116.572475 
L 155.864328 130.054184 
L 156.865149 239.166522 
L 157.115354 253.497823 
L 157.365559 249.37587 
L 157.615765 256.716198 
L 157.86597 273.729066 
L 158.116175 251.144292 
L 158.36638 241.980864 
L 158.616585 251.26096 
L 158.86679 236.350028 
L 159.116996 231.354252 
L 159.367201 238.468358 
L 159.617406 222.105591 
L 160.117816 123.091416 
L 160.368021 98.301716 
L 160.618227 89.676353 
L 160.868432 95.929209 
L 161.118637 118.072602 
L 161.368842 160.733481 
L 161.619047 225.421277 
L 161.869253 218.772708 
L 162.119458 219.164136 
L 162.369663 225.104992 
L 162.870073 245.81471 
L 163.120278 236.820806 
L 163.370484 219.742332 
L 163.620689 211.292269 
L 163.870894 212.041153 
L 164.371304 237.336978 
L 164.62151 281.079073 
L 164.871715 240.962682 
L 165.12192 234.187165 
L 165.372125 238.182461 
L 165.62233 253.495214 
L 165.872535 251.465313 
L 166.122741 255.588047 
L 166.372946 223.258619 
L 166.623151 210.368478 
L 166.873356 211.46372 
L 167.123561 227.009961 
L 167.373766 258.387587 
L 167.623972 269.569607 
L 167.874177 226.057404 
L 168.124382 221.119825 
L 168.374587 244.725726 
L 169.375408 222.112142 
L 169.625613 222.585994 
L 169.875818 224.120413 
L 170.126023 215.213966 
L 170.376229 216.254746 
L 170.876639 243.980235 
L 171.126844 245.360117 
L 171.377049 247.420319 
L 171.803479 289 
M 171.915491 289 
L 172.127665 251.741941 
L 172.37787 239.644667 
L 172.628075 240.019302 
L 172.87828 253.009754 
L 173.378691 237.761886 
L 173.628896 237.288477 
L 173.879101 245.294715 
L 174.379511 232.020596 
L 174.629717 228.042539 
L 174.879922 237.69353 
L 175.130127 252.572 
L 175.380332 228.518201 
L 175.630537 226.953395 
L 175.880743 229.427862 
L 176.130948 247.341909 
L 176.381153 242.168413 
L 176.631358 242.667925 
L 176.881563 242.355903 
L 177.131768 237.827654 
L 177.381974 264.518325 
L 177.632179 226.058571 
L 177.882384 220.109885 
L 178.132589 230.522249 
L 178.382794 263.567781 
L 178.883205 223.053636 
L 179.13341 220.352863 
L 179.383615 225.035301 
L 179.63382 225.012358 
L 179.884025 222.782533 
L 180.134231 225.947401 
L 180.384436 232.482211 
L 180.634641 253.228537 
L 180.884846 247.588397 
L 181.135051 230.415403 
L 181.385256 224.971071 
L 181.635462 233.433086 
L 181.836473 289 
M 181.932986 289 
L 182.135872 230.693807 
L 182.386077 218.143286 
L 182.636282 215.555866 
L 182.886488 219.697302 
L 183.136693 227.41542 
L 183.386898 250.173658 
L 183.637103 243.82422 
L 183.887308 233.494402 
L 184.137513 252.353634 
L 184.387719 239.442778 
L 184.637924 233.076274 
L 184.888129 240.015727 
L 185.388539 221.267725 
L 185.638745 218.492091 
L 185.88895 218.922527 
L 186.139155 220.74916 
L 186.639565 234.604318 
L 186.88977 229.892184 
L 187.139976 233.902342 
L 187.390181 258.245782 
L 187.890591 238.392255 
L 188.140796 235.530835 
L 188.391001 251.036078 
L 188.641207 256.942759 
L 189.141617 222.977894 
L 189.391822 221.866641 
L 189.892233 241.472453 
L 190.142438 257.355254 
L 190.893053 227.890235 
L 191.143258 226.305287 
L 191.393464 234.527756 
L 191.643669 282.192586 
L 191.893874 236.206768 
L 192.144079 225.91392 
L 192.394284 220.223819 
L 192.644489 221.029783 
L 192.894695 233.762044 
L 193.1449 238.578833 
L 193.395105 226.184387 
L 193.64531 224.940745 
L 193.895515 224.429664 
L 194.145721 226.919134 
L 194.395926 225.927341 
L 194.646131 221.204837 
L 194.896336 222.492807 
L 195.146541 230.531771 
L 195.396746 228.989536 
L 195.897157 85.111125 
L 196.147362 53.501 
L 196.397567 39.323756 
L 196.647772 40.20866 
L 196.897978 56.291045 
L 197.148183 90.349589 
L 197.898798 258.532558 
L 198.149003 232.65415 
L 198.399209 231.57208 
L 198.649414 243.486459 
L 198.899619 267.514101 
L 199.149824 230.098296 
L 199.400029 221.339489 
L 199.650234 223.271714 
L 199.90044 247.433453 
L 200.150645 247.927135 
L 200.40085 228.919643 
L 200.651055 220.393873 
L 200.90126 226.323289 
L 201.401671 281.715954 
L 201.651876 257.52931 
L 202.152286 228.527118 
L 202.402491 231.60122 
L 202.652697 251.099866 
L 202.902902 254.824507 
L 203.153107 242.793484 
L 203.403312 254.879619 
L 203.903723 238.648328 
L 204.153928 273.26221 
L 204.404133 240.269877 
L 204.654338 228.352884 
L 204.904543 229.139514 
L 205.404954 236.732894 
L 205.655159 227.639299 
L 205.905364 226.982749 
L 206.155569 234.522161 
L 206.405774 232.730439 
L 206.906185 236.690054 
L 207.15639 251.480462 
L 207.406595 253.746678 
L 207.6568 238.264258 
L 207.907005 236.174027 
L 208.157211 256.004728 
L 208.657621 234.60945 
L 208.907826 233.933607 
L 209.158031 234.392338 
L 209.658442 227.516046 
L 209.908647 230.815003 
L 210.158852 228.39004 
L 210.409057 218.247405 
L 210.659262 214.962705 
L 211.159673 223.524659 
L 211.409878 230.798668 
L 211.660083 256.482372 
L 211.910288 235.878593 
L 212.160493 227.55907 
L 212.660904 223.55515 
L 212.911109 225.073226 
L 213.161314 227.673881 
L 213.411519 241.588882 
L 213.661724 237.900338 
L 213.91193 235.987388 
L 214.162135 224.431266 
L 214.41234 225.680869 
L 214.662545 242.507321 
L 214.91275 249.598919 
L 215.162956 233.767923 
L 215.413161 232.934621 
L 215.663366 245.955848 
L 215.913571 243.918185 
L 216.163776 223.302984 
L 216.413981 224.725231 
L 216.664187 227.787808 
L 216.914392 221.350975 
L 217.915213 229.03911 
L 218.415623 256.857472 
L 218.665828 244.772968 
L 218.916033 240.508161 
L 219.166238 244.090055 
L 219.416444 266.496171 
L 219.666649 259.451887 
L 219.916854 235.764238 
L 220.167059 226.566362 
L 220.417264 228.042264 
L 220.667469 236.908144 
L 220.917675 275.716397 
L 221.418085 129.745728 
L 221.66829 89.608422 
L 221.918495 68.942869 
L 222.168701 63.923214 
L 222.418906 73.790994 
L 222.669111 100.14523 
L 222.919316 148.580911 
L 223.169521 221.750721 
L 223.669932 229.052634 
L 223.920137 234.09534 
L 224.670752 225.206049 
L 224.920957 226.424718 
L 225.421368 245.53201 
L 225.671573 237.247435 
L 225.921778 239.296395 
L 226.171983 262.908418 
L 226.672394 228.275528 
L 226.922599 224.199464 
L 227.172804 222.981509 
L 227.673214 239.356765 
L 227.92342 222.08204 
L 228.42383 227.093049 
L 228.674035 216.317426 
L 228.92424 211.188863 
L 229.174446 220.678002 
L 229.674856 206.809077 
L 229.925061 214.73394 
L 230.175266 210.652293 
L 230.425471 195.505303 
L 230.675677 191.451263 
L 230.925882 200.570505 
L 231.176087 202.002587 
L 231.426292 207.997783 
L 231.676497 223.401301 
L 231.926702 195.144402 
L 232.677318 156.774134 
L 232.927523 151.587707 
L 233.177728 152.076357 
L 233.427934 152.920449 
L 233.928344 153.84599 
L 234.428754 140.19935 
L 234.678959 141.545307 
L 234.929165 154.768302 
L 235.17937 185.024897 
L 235.429575 187.999077 
L 235.67978 181.871072 
L 235.929985 151.319589 
L 236.180191 138.322698 
L 236.430396 132.961285 
L 236.680601 133.855376 
L 236.930806 142.136643 
L 237.181011 156.205302 
L 237.431216 157.466657 
L 237.681422 154.491857 
L 237.931627 167.217504 
L 238.181832 160.558194 
L 238.432037 147.619803 
L 238.682242 147.577076 
L 238.932447 166.678948 
L 239.182653 156.364678 
L 239.432858 140.242146 
L 239.683063 138.200639 
L 240.183473 148.595556 
L 240.433679 144.367192 
L 240.683884 137.995095 
L 240.934089 140.576526 
L 241.434499 157.96472 
L 241.93491 142.322553 
L 242.185115 146.749879 
L 242.93573 203.296161 
L 243.185936 196.82865 
L 243.436141 203.95194 
L 243.686346 174.263083 
L 244.687167 148.09156 
L 244.937372 158.181195 
L 245.187577 178.266947 
L 245.437782 150.271983 
L 245.687987 152.151078 
L 245.938192 163.703705 
L 246.188398 151.282063 
L 246.438603 146.748783 
L 246.688808 146.929779 
L 246.939013 147.942787 
L 247.189218 141.779657 
L 247.439424 140.375562 
L 247.689629 147.261405 
L 247.939834 148.108102 
L 248.190039 156.202923 
L 248.440244 172.604786 
L 248.690449 167.44068 
L 248.940655 151.886291 
L 249.19086 155.594682 
L 249.441065 174.956502 
L 249.941475 141.657218 
L 250.191681 138.366649 
L 250.441886 148.376693 
L 250.692091 166.465367 
L 250.942296 204.510306 
L 251.192501 167.302284 
L 251.442706 160.180391 
L 251.692912 164.181215 
L 251.943117 174.638233 
L 252.193322 170.302018 
L 252.443527 155.721871 
L 252.693732 160.811893 
L 252.943937 159.658968 
L 253.194143 154.796364 
L 253.444348 163.540982 
L 253.944758 141.561769 
L 254.194963 142.918458 
L 254.695374 163.118363 
L 254.945579 162.228239 
L 255.195784 177.238939 
L 255.445989 169.091113 
L 255.696194 155.899865 
L 255.9464 161.292003 
L 256.196605 172.250667 
L 256.44681 188.690906 
L 256.697015 165.343111 
L 256.94722 178.476529 
L 257.447631 140.034677 
L 257.697836 132.247816 
L 257.948041 132.550736 
L 258.448451 160.478108 
L 258.698657 151.765254 
L 258.948862 149.94934 
L 259.199067 149.626176 
L 259.699477 158.046961 
L 259.949682 152.740025 
L 260.199888 143.487179 
L 260.450093 144.920936 
L 260.700298 155.708324 
L 260.950503 160.541052 
L 261.200708 153.869678 
L 261.450914 153.75766 
L 261.701119 149.19385 
L 261.951324 150.352814 
L 262.201529 156.373517 
L 262.451734 155.297615 
L 262.701939 151.439784 
L 262.952145 149.980085 
L 263.20235 166.487079 
L 263.70276 147.854811 
L 263.952965 148.006904 
L 264.20317 152.217531 
L 264.453376 151.81439 
L 264.703581 156.556576 
L 264.953786 154.92184 
L 265.454196 133.64989 
L 265.704402 133.169086 
L 265.954607 157.40111 
L 266.204812 152.007736 
L 266.455017 153.156853 
L 266.705222 204.697128 
L 266.955427 157.902694 
L 267.205633 148.640373 
L 267.455838 147.967192 
L 267.706043 144.839645 
L 267.956248 144.237902 
L 268.206453 153.378105 
L 268.456659 151.535768 
L 268.706864 144.645532 
L 269.207274 143.782803 
L 269.457479 146.817619 
L 270.208095 187.508522 
L 270.4583 160.582588 
L 270.708505 152.133371 
L 270.95871 155.746711 
L 271.459121 141.913049 
L 271.709326 140.586644 
L 271.959531 142.750382 
L 272.209736 154.649967 
L 272.459941 178.842763 
L 272.710147 165.081613 
L 272.960352 162.252793 
L 273.210557 150.708948 
L 273.710967 159.59388 
L 273.961172 158.032772 
L 274.211378 154.275591 
L 274.461583 156.298297 
L 274.711788 168.545109 
L 275.212198 145.28766 
L 275.462404 149.068432 
L 275.712609 167.422521 
L 275.962814 160.09751 
L 276.213019 163.736002 
L 276.463224 169.738165 
L 276.713429 143.504437 
L 276.963635 137.204424 
L 277.464045 148.427668 
L 277.71425 144.257925 
L 277.964455 142.390417 
L 278.464866 156.425383 
L 278.715071 156.141273 
L 279.215481 146.337712 
L 279.715892 140.592865 
L 280.216302 141.300282 
L 280.466507 141.767687 
L 280.716712 145.666574 
L 280.966917 158.645233 
L 281.217123 182.950219 
L 281.467328 148.201888 
L 281.717533 143.215342 
L 281.967738 156.961012 
L 282.217943 161.967262 
L 282.468149 145.736554 
L 282.718354 145.386108 
L 282.968559 157.320887 
L 283.218764 176.416875 
L 283.468969 158.99945 
L 283.719174 165.567045 
L 283.96938 163.793269 
L 284.219585 164.374136 
L 284.46979 151.592419 
L 284.719995 144.559813 
L 284.9702 147.790212 
L 285.470611 178.308884 
L 285.720816 152.336408 
L 285.971021 146.605063 
L 286.221226 145.25336 
L 286.471431 150.066021 
L 286.721637 168.363417 
L 286.971842 201.790166 
L 287.222047 163.753818 
L 287.472252 152.594365 
L 287.972662 142.868868 
L 288.222868 149.434052 
L 288.473073 194.717355 
L 288.723278 148.518604 
L 288.973483 143.696164 
L 289.223688 142.385659 
L 289.473894 139.866211 
L 289.724099 141.241892 
L 289.974304 146.366086 
L 290.474714 161.453929 
L 290.724919 152.303311 
L 290.975125 148.111723 
L 291.22533 147.140839 
L 291.475535 150.772766 
L 291.72574 161.286624 
L 291.975945 147.939196 
L 292.22615 146.998197 
L 292.476356 153.814854 
L 292.726561 146.297661 
L 292.976766 152.435414 
L 293.226971 179.926909 
L 293.477176 176.359989 
L 293.727382 156.007806 
L 293.977587 147.913065 
L 294.227792 143.681809 
L 294.728202 145.569643 
L 294.978407 142.307158 
L 295.228613 142.65929 
L 295.478818 148.639694 
L 295.729023 150.932708 
L 295.979228 152.064349 
L 296.229433 173.60203 
L 296.479638 171.397987 
L 296.729844 153.024114 
L 296.980049 148.258087 
L 297.480459 157.463021 
L 297.730664 166.807505 
L 297.98087 180.508962 
L 298.231075 158.143957 
L 298.98169 136.293109 
L 299.231895 133.179255 
L 299.482101 132.75294 
L 299.732306 138.118437 
L 300.232716 158.943235 
L 300.733127 174.752874 
L 300.983332 160.180363 
L 301.233537 164.827 
L 301.483742 172.054197 
L 301.733947 153.337375 
L 301.984152 155.27781 
L 302.234358 176.351421 
L 302.484563 141.049713 
L 302.734768 131.424365 
L 302.984973 131.434375 
L 303.235178 139.988363 
L 303.485383 154.579644 
L 303.735589 157.130247 
L 304.486204 132.552376 
L 304.736409 133.758314 
L 304.986615 137.979412 
L 305.23682 136.304728 
L 305.487025 132.083977 
L 305.73723 130.206437 
L 305.987435 131.144078 
L 306.23764 137.643189 
L 306.487846 152.209228 
L 306.738051 153.648135 
L 306.988256 154.154983 
L 307.488666 144.866482 
L 308.239282 159.166975 
L 308.489487 174.903827 
L 308.739692 183.313698 
L 308.989897 158.424078 
L 309.240103 153.539526 
L 309.490308 158.424078 
L 309.740513 183.313698 
L 309.990718 174.903827 
L 310.240923 159.166975 
L 310.741334 149.237702 
L 310.991539 144.866482 
L 311.491949 154.154983 
L 311.742154 153.648135 
L 311.99236 152.209228 
L 312.242565 137.643189 
L 312.49277 131.144078 
L 312.742975 130.206437 
L 312.99318 132.083977 
L 313.243385 136.304728 
L 313.493591 137.979412 
L 313.743796 133.758314 
L 313.994001 132.552376 
L 314.244206 138.855717 
L 314.744617 157.130247 
L 314.994822 154.579644 
L 315.495232 131.434375 
L 315.745437 131.424365 
L 315.995642 141.049713 
L 316.245848 176.351421 
L 316.496053 155.27781 
L 316.746258 153.337375 
L 316.996463 172.054197 
L 317.496873 160.180363 
L 317.747079 174.752874 
L 318.497694 149.594703 
L 318.747899 138.118437 
L 318.998105 132.75294 
L 319.24831 133.179255 
L 319.498515 136.293109 
L 319.74872 141.223592 
L 320.24913 158.143957 
L 320.499336 180.508962 
L 320.999746 157.463021 
L 321.500156 148.258087 
L 321.750362 153.024114 
L 322.000567 171.397987 
L 322.250772 173.60203 
L 322.500977 152.064349 
L 322.751182 150.932708 
L 323.001387 148.639694 
L 323.251593 142.65929 
L 323.501798 142.307158 
L 323.752003 145.569643 
L 324.002208 144.82604 
L 324.252413 143.681809 
L 324.502618 147.913065 
L 324.752824 156.007806 
L 325.003029 176.359989 
L 325.253234 179.926909 
L 325.503439 152.435414 
L 325.753644 146.297661 
L 326.00385 153.814854 
L 326.254055 146.998197 
L 326.50426 147.939196 
L 326.754465 161.286624 
L 327.00467 150.772766 
L 327.254875 147.140839 
L 327.505081 148.111723 
L 327.755286 152.303311 
L 328.005491 161.453929 
L 328.756106 141.241892 
L 329.006312 139.866211 
L 329.256517 142.385659 
L 329.506722 143.696164 
L 329.756927 148.518604 
L 330.007132 194.717355 
L 330.257338 149.434052 
L 330.507543 142.868868 
L 330.757748 146.646937 
L 331.007953 152.594365 
L 331.258158 163.753818 
L 331.508363 201.790166 
L 331.758569 168.363417 
L 332.008774 150.066021 
L 332.258979 145.25336 
L 332.509184 146.605063 
L 332.759389 152.336408 
L 333.009595 178.308884 
L 333.510005 147.790212 
L 333.76021 144.559813 
L 334.010415 151.592419 
L 334.26062 164.374136 
L 334.510826 163.793269 
L 334.761031 165.567045 
L 335.011236 158.99945 
L 335.261441 176.416875 
L 335.761851 145.386108 
L 336.012057 145.736554 
L 336.262262 161.967262 
L 336.512467 156.961012 
L 336.762672 143.215342 
L 337.012877 148.201888 
L 337.263083 182.950219 
L 337.513288 158.645233 
L 337.763493 145.666574 
L 338.013698 141.767687 
L 338.764314 140.592865 
L 339.264724 146.337712 
L 339.765134 156.141273 
L 340.01534 156.425383 
L 340.51575 142.390417 
L 340.765955 144.257925 
L 341.01616 148.427668 
L 341.516571 137.204424 
L 341.766776 143.504437 
L 342.016981 169.738165 
L 342.517391 160.09751 
L 342.767596 167.422521 
L 343.017802 149.068432 
L 343.268007 145.28766 
L 343.768417 168.545109 
L 344.018622 156.298297 
L 344.268828 154.275591 
L 344.519033 158.032772 
L 344.769238 159.59388 
L 345.269648 150.708948 
L 345.519853 162.252793 
L 345.770059 165.081613 
L 346.020264 178.842763 
L 346.270469 154.649967 
L 346.520674 142.750382 
L 346.770879 140.586644 
L 347.021085 141.913049 
L 347.521495 155.746711 
L 347.7717 152.133371 
L 348.021905 160.582588 
L 348.27211 187.508522 
L 349.022726 146.817619 
L 349.272931 143.782803 
L 349.773341 144.645532 
L 350.023547 151.535768 
L 350.273752 153.378105 
L 350.523957 144.237902 
L 350.774162 144.839645 
L 351.024367 147.967192 
L 351.274573 148.640373 
L 351.524778 157.902694 
L 351.774983 204.697128 
L 352.025188 153.156853 
L 352.275393 152.007736 
L 352.525598 157.40111 
L 352.775804 133.169086 
L 353.026009 133.64989 
L 353.526419 154.92184 
L 353.776624 156.556576 
L 354.02683 151.81439 
L 354.277035 152.217531 
L 354.52724 148.006904 
L 354.777445 147.854811 
L 355.277855 166.487079 
L 355.528061 149.980085 
L 355.778266 151.439784 
L 356.028471 155.297615 
L 356.278676 156.373517 
L 356.528881 150.352814 
L 356.779086 149.19385 
L 357.029292 153.75766 
L 357.279497 153.869678 
L 357.529702 160.541052 
L 357.779907 155.708324 
L 358.030112 144.920936 
L 358.280318 143.487179 
L 358.780728 158.046961 
L 359.281138 149.626176 
L 359.531343 149.94934 
L 359.781549 151.765254 
L 360.031754 160.478108 
L 360.532164 132.550736 
L 360.782369 132.247816 
L 361.032574 140.034677 
L 361.28278 155.511992 
L 361.532985 178.476529 
L 361.78319 165.343111 
L 362.033395 188.690906 
L 362.533806 161.292003 
L 362.784011 155.899865 
L 363.284421 177.238939 
L 363.534626 162.228239 
L 363.784831 163.118363 
L 364.285242 142.918458 
L 364.535447 141.561769 
L 365.035857 163.540982 
L 365.286063 154.796364 
L 365.536268 159.658968 
L 365.786473 160.811893 
L 366.036678 155.721871 
L 366.286883 170.302018 
L 366.537088 174.638233 
L 366.787294 164.181215 
L 367.037499 160.180391 
L 367.287704 167.302284 
L 367.537909 204.510306 
L 367.788114 166.465367 
L 368.038319 148.376693 
L 368.288525 138.366649 
L 368.53873 141.657218 
L 369.03914 174.956502 
L 369.289345 155.594682 
L 369.539551 151.886291 
L 369.789756 167.44068 
L 370.039961 172.604786 
L 370.290166 156.202923 
L 370.540371 148.108102 
L 370.790576 147.261405 
L 371.040782 140.375562 
L 371.290987 141.779657 
L 371.541192 147.942787 
L 371.791397 146.929779 
L 372.041602 146.748783 
L 372.291808 151.282063 
L 372.542013 163.703705 
L 372.792218 152.151078 
L 373.042423 150.271983 
L 373.292628 178.266947 
L 373.542833 158.181195 
L 373.793039 148.09156 
L 374.043244 152.085422 
L 374.293449 163.226095 
L 374.543654 167.656271 
L 374.793859 174.263083 
L 375.044064 203.95194 
L 375.29427 196.82865 
L 375.544475 203.296161 
L 375.79468 194.063822 
L 376.29509 146.749879 
L 376.545296 142.322553 
L 376.795501 148.551735 
L 377.045706 157.96472 
L 377.295911 151.719044 
L 377.546116 140.576526 
L 377.796321 137.995095 
L 378.296732 148.595556 
L 378.797142 138.200639 
L 379.047347 140.242146 
L 379.547758 166.678948 
L 379.797963 147.577076 
L 380.048168 147.619803 
L 380.298373 160.558194 
L 380.548578 167.217504 
L 380.798784 154.491857 
L 381.048989 157.466657 
L 381.299194 156.205302 
L 381.799604 133.855376 
L 382.049809 132.961285 
L 382.300015 138.322698 
L 382.55022 151.319589 
L 382.800425 181.871072 
L 383.05063 187.999077 
L 383.300835 185.024897 
L 383.551041 154.768302 
L 383.801246 141.545307 
L 384.051451 140.19935 
L 384.551861 153.84599 
L 385.552682 151.587707 
L 385.802887 156.774134 
L 386.553503 195.144402 
L 386.803708 223.401301 
L 387.053913 207.997783 
L 387.304118 202.002587 
L 387.554323 200.570505 
L 387.804529 191.451263 
L 388.054734 195.505303 
L 388.304939 210.652293 
L 388.555144 214.73394 
L 388.805349 206.809077 
L 389.30576 220.678002 
L 389.555965 211.188863 
L 389.80617 216.317426 
L 390.056375 227.093049 
L 390.556786 222.08204 
L 390.806991 239.356765 
L 391.307401 222.981509 
L 391.557606 224.199464 
L 391.807811 228.275528 
L 392.058017 241.953418 
L 392.308222 262.908418 
L 392.558427 239.296395 
L 392.808632 237.247435 
L 393.058837 245.53201 
L 393.309043 238.466486 
L 393.559248 226.424718 
L 393.809453 225.206049 
L 394.560068 234.09534 
L 395.060479 225.185492 
L 395.310684 221.750721 
L 395.811094 100.14523 
L 396.061299 73.790994 
L 396.311505 63.923214 
L 396.56171 68.942869 
L 396.811915 89.608422 
L 397.06212 129.745728 
L 397.562531 275.716397 
L 397.812736 236.908144 
L 398.062941 228.042264 
L 398.313146 226.566362 
L 398.563351 235.764238 
L 398.813556 259.451887 
L 399.063762 266.496171 
L 399.313967 244.090055 
L 399.564172 240.508161 
L 399.814377 244.772968 
L 400.064582 256.857472 
L 400.564993 229.03911 
L 400.815198 226.191412 
L 401.065403 225.786226 
L 401.565813 221.350975 
L 401.816019 227.787808 
L 402.066224 224.725231 
L 402.316429 223.302984 
L 402.566634 243.918185 
L 402.816839 245.955848 
L 403.067044 232.934621 
L 403.31725 233.767923 
L 403.567455 249.598919 
L 403.81766 242.507321 
L 404.067865 225.680869 
L 404.31807 224.431266 
L 404.568276 235.987388 
L 404.818481 237.900338 
L 405.068686 241.588882 
L 405.318891 227.673881 
L 405.819301 223.55515 
L 406.319712 227.55907 
L 406.569917 235.878593 
L 406.820122 256.482372 
L 407.070327 230.798668 
L 407.570738 218.680784 
L 407.820943 214.962705 
L 408.071148 218.247405 
L 408.321353 228.39004 
L 408.571558 230.815003 
L 408.821764 227.516046 
L 409.322174 234.392338 
L 409.572379 233.933607 
L 409.822584 234.60945 
L 410.072789 242.426207 
L 410.322995 256.004728 
L 410.5732 236.174027 
L 410.823405 238.264258 
L 411.07361 253.746678 
L 411.323815 251.480462 
L 411.574021 236.690054 
L 412.074431 232.730439 
L 412.324636 234.522161 
L 412.574841 226.982749 
L 412.825046 227.639299 
L 413.075252 236.732894 
L 413.575662 229.139514 
L 413.825867 228.352884 
L 414.076072 240.269877 
L 414.326277 273.26221 
L 414.576483 238.648328 
L 414.826688 244.866349 
L 415.076893 254.879619 
L 415.327098 242.793484 
L 415.577303 254.824507 
L 415.827509 251.099866 
L 416.077714 231.60122 
L 416.327919 228.527118 
L 417.078534 281.715954 
L 417.578945 226.323289 
L 417.82915 220.393873 
L 418.079355 228.919643 
L 418.32956 247.927135 
L 418.579766 247.433453 
L 418.829971 223.271714 
L 419.080176 221.339489 
L 419.330381 230.098296 
L 419.580586 267.514101 
L 419.830791 243.486459 
L 420.080997 231.57208 
L 420.331202 232.65415 
L 420.581407 258.532558 
L 420.831612 237.114534 
L 421.332022 90.349589 
L 421.582228 56.291045 
L 421.832433 40.20866 
L 422.082638 39.323756 
L 422.332843 53.501 
L 422.583048 85.111125 
L 422.833254 141.723947 
L 423.083459 228.989536 
L 423.333664 230.531771 
L 423.583869 222.492807 
L 423.834074 221.204837 
L 424.084279 225.927341 
L 424.334485 226.919134 
L 424.58469 224.429664 
L 424.834895 224.940745 
L 425.0851 226.184387 
L 425.335305 238.578833 
L 425.585511 233.762044 
L 425.835716 221.029783 
L 426.085921 220.223819 
L 426.336126 225.91392 
L 426.586331 236.206768 
L 426.836536 282.192586 
L 427.086742 234.527756 
L 427.336947 226.305287 
L 427.587152 227.890235 
L 427.837357 235.087859 
L 428.337767 257.355254 
L 428.838178 231.754683 
L 429.088383 221.866641 
L 429.338588 222.977894 
L 429.838999 256.942759 
L 430.089204 251.036078 
L 430.339409 235.530835 
L 430.589614 238.392255 
L 431.090024 258.245782 
L 431.34023 233.902342 
L 431.590435 229.892184 
L 431.84064 234.604318 
L 432.34105 220.74916 
L 432.591255 218.922527 
L 432.841461 218.492091 
L 433.091666 221.267725 
L 433.592076 240.015727 
L 433.842281 233.076274 
L 434.092487 239.442778 
L 434.342692 252.353634 
L 434.592897 233.494402 
L 435.093307 250.173658 
L 435.343512 227.41542 
L 435.593718 219.697302 
L 435.843923 215.555866 
L 436.094128 218.143286 
L 436.344333 230.693807 
L 436.547219 289 
M 436.643732 289 
L 436.844744 233.433086 
L 437.094949 224.971071 
L 437.345154 230.415403 
L 437.595359 247.588397 
L 437.845564 253.228537 
L 438.095769 232.482211 
L 438.345975 225.947401 
L 438.59618 222.782533 
L 438.846385 225.012358 
L 439.09659 225.035301 
L 439.346795 220.352863 
L 439.597 223.053636 
L 439.847206 237.938072 
L 440.097411 263.567781 
L 440.347616 230.522249 
L 440.597821 220.109885 
L 440.848026 226.058571 
L 441.098232 264.518325 
L 441.348437 237.827654 
L 441.598642 242.355903 
L 441.848847 242.667925 
L 442.099052 242.168413 
L 442.349257 247.341909 
L 442.599463 229.427862 
L 442.849668 226.953395 
L 443.099873 228.518201 
L 443.350078 252.572 
L 443.850489 228.042539 
L 444.350899 237.466117 
L 444.601104 245.294715 
L 444.851309 237.288477 
L 445.101514 237.761886 
L 445.601925 253.009754 
L 445.85213 240.019302 
L 446.102335 239.644667 
L 446.35254 251.741941 
L 446.564714 289 
M 446.676727 289 
L 447.103156 247.420319 
L 447.603566 243.980235 
L 448.103977 216.254746 
L 448.354182 215.213966 
L 448.604387 224.120413 
L 448.854592 222.585994 
L 449.104797 222.112142 
L 449.355002 230.099576 
L 449.605208 232.468154 
L 450.105618 244.725726 
L 450.355823 221.119825 
L 450.606028 226.057404 
L 450.856234 269.569607 
L 451.106439 258.387587 
L 451.356644 227.009961 
L 451.606849 211.46372 
L 451.857054 210.368478 
L 452.107259 223.258619 
L 452.357465 255.588047 
L 452.60767 251.465313 
L 452.857875 253.495214 
L 453.10808 238.182461 
L 453.358285 234.187165 
L 453.60849 240.962682 
L 453.858696 281.079073 
L 454.108901 237.336978 
L 454.609311 212.041153 
L 454.859516 211.292269 
L 455.109722 219.742332 
L 455.359927 236.820806 
L 455.610132 245.81471 
L 456.110542 225.104992 
L 456.360747 219.164136 
L 456.610953 218.772708 
L 456.861158 225.421277 
L 457.361568 118.072602 
L 457.611773 95.929209 
L 457.861979 89.676353 
L 458.112184 98.301716 
L 458.362389 123.091416 
L 458.862799 222.105591 
L 459.113004 238.468358 
L 459.36321 231.354252 
L 459.613415 236.350028 
L 459.86362 251.26096 
L 460.113825 241.980864 
L 460.36403 251.144292 
L 460.614235 273.729066 
L 460.864441 256.716198 
L 461.114646 249.37587 
L 461.364851 253.497823 
L 461.865261 221.864505 
L 462.115467 202.930591 
L 462.615877 130.054184 
L 462.866082 116.572475 
L 463.116287 117.991214 
L 463.366492 134.497695 
L 464.117108 229.308671 
L 464.367313 233.514427 
L 464.617518 239.844956 
L 464.867723 260.614099 
L 465.117929 223.757166 
L 465.368134 218.718997 
L 465.618339 227.683625 
L 466.118749 231.14328 
L 466.368955 268.819871 
L 466.61916 227.145361 
L 466.869365 214.529921 
L 467.11957 216.17878 
L 467.870186 238.98512 
L 468.120391 262.334453 
L 468.620801 222.687355 
L 468.871006 220.852497 
L 469.121212 227.870941 
L 469.621622 204.561523 
L 469.871827 202.916319 
L 470.122032 208.053233 
L 470.872648 249.6455 
L 471.122853 278.892887 
L 471.373058 260.208553 
L 471.873468 255.913569 
L 472.373879 216.309796 
L 472.624084 212.490676 
L 472.874289 221.963546 
L 473.124494 245.987629 
L 473.3747 231.668468 
L 473.624905 238.951813 
L 473.87511 250.137607 
L 474.125315 243.616816 
L 474.37552 251.096671 
L 474.625725 272.529686 
L 475.376341 223.385692 
L 475.626546 221.211743 
L 476.126957 243.806115 
L 476.627367 220.544402 
L 476.877572 216.534129 
L 477.127777 218.553254 
L 477.628188 232.25562 
L 477.878393 233.831019 
L 478.128598 231.691827 
L 478.378803 230.598688 
L 478.629008 233.267009 
L 478.879213 237.956322 
L 479.129419 246.732771 
L 479.379624 239.111752 
L 479.629829 227.497842 
L 479.880034 240.003261 
L 480.130239 243.481767 
L 480.380445 235.830798 
L 480.63065 234.727286 
L 480.880855 222.419359 
L 481.13106 218.14219 
L 481.63147 224.807938 
L 482.131881 237.527821 
L 482.382086 226.443859 
L 482.632291 221.725031 
L 482.882496 232.68421 
L 483.132702 255.912905 
L 483.382907 256.514468 
L 483.633112 247.329888 
L 483.883317 262.216883 
L 484.133522 227.767971 
L 484.383727 220.998676 
L 484.633933 219.731127 
L 484.884138 222.045431 
L 485.134343 233.72126 
L 485.384548 255.69987 
L 485.634753 219.763633 
L 485.884958 200.551088 
L 486.135164 193.655077 
L 486.385369 190.986966 
L 486.885779 173.6988 
L 487.135984 172.853391 
L 487.38619 184.587917 
L 487.636395 234.052666 
L 487.8866 189.570466 
L 488.136805 179.151753 
L 488.38701 176.173374 
L 488.637215 181.461245 
L 489.137626 167.762432 
L 489.387831 174.949873 
L 489.638036 172.021989 
L 489.888241 164.980643 
L 490.138447 175.209622 
L 490.388652 235.0479 
L 490.889062 163.794256 
L 491.139267 150.757973 
L 491.389472 144.708399 
L 491.639678 141.5045 
L 491.889883 146.450905 
L 492.390293 167.948266 
L 492.640498 175.99657 
L 492.890703 170.349405 
L 493.140909 160.050299 
L 493.391114 167.231486 
L 493.641319 167.899768 
L 494.141729 143.210957 
L 494.391935 138.907619 
L 494.64214 145.582965 
L 495.14255 172.216893 
L 495.64296 178.685486 
L 495.893166 173.884525 
L 496.143371 178.969202 
L 496.393576 160.6489 
L 496.643781 153.722406 
L 496.893986 160.979647 
L 497.144191 174.1758 
L 497.394397 200.634419 
L 497.644602 161.764845 
L 497.894807 165.815269 
L 498.395217 146.12178 
L 498.645423 164.246801 
L 498.895628 157.215705 
L 499.145833 141.203722 
L 499.396038 137.721806 
L 499.646243 137.327954 
L 499.896448 141.755139 
L 500.146654 156.434031 
L 500.647064 151.628138 
L 500.897269 161.105702 
L 501.147474 158.017856 
L 501.39768 151.988788 
L 501.647885 148.641881 
L 501.89809 150.984823 
L 502.148295 163.846089 
L 502.3985 199.97045 
L 502.898911 159.715029 
L 503.149116 151.771703 
L 503.649526 157.938724 
L 503.899731 149.722259 
L 504.149936 154.482056 
L 504.400142 172.07427 
L 504.650347 175.657044 
L 504.900552 181.318583 
L 505.150757 164.371429 
L 505.400962 155.762838 
L 505.651168 151.858027 
L 505.901373 152.043158 
L 506.151578 161.794561 
L 506.401783 157.687841 
L 506.651988 150.005824 
L 506.902193 153.979109 
L 507.152399 159.721172 
L 507.402604 161.109934 
L 507.903014 175.058427 
L 508.153219 173.645563 
L 508.65363 140.725403 
L 508.903835 135.411371 
L 509.15404 140.668425 
L 509.404245 151.068845 
L 509.904656 159.044066 
L 510.154861 159.669248 
L 510.405066 165.154818 
L 510.905476 143.798538 
L 511.155681 145.841546 
L 511.405887 151.116838 
L 511.656092 147.717793 
L 511.906297 146.201575 
L 512.156502 151.710841 
L 512.406707 166.673331 
L 512.656913 172.353835 
L 512.907118 165.412571 
L 513.157323 171.878289 
L 513.657733 200.141078 
L 513.907938 163.990664 
L 514.408349 136.95822 
L 514.658554 137.804788 
L 515.158964 161.156891 
L 515.40917 159.761533 
L 515.659375 155.980285 
L 515.90958 163.448065 
L 516.159785 183.561198 
L 516.40999 178.41832 
L 516.660195 163.34779 
L 516.910401 158.267027 
L 517.160606 162.555898 
L 517.410811 174.679408 
L 517.661016 175.384424 
L 517.911221 159.500766 
L 518.411632 151.453726 
L 518.661837 143.063908 
L 518.912042 142.233427 
L 519.162247 153.464186 
L 519.412452 149.324342 
L 519.662658 141.88679 
L 519.912863 142.18609 
L 520.163068 143.13552 
L 520.413273 148.403439 
L 520.663478 174.063103 
L 520.913683 174.07797 
L 521.163889 165.53109 
L 521.414094 182.540073 
L 521.664299 177.722038 
L 521.914504 179.637738 
L 522.164709 173.280631 
L 522.414915 144.64055 
L 522.66512 138.727006 
L 523.16553 160.971351 
L 523.415735 157.787663 
L 523.66594 174.225447 
L 523.916146 156.414332 
L 524.166351 153.524388 
L 524.666761 165.434255 
L 524.916966 172.465157 
L 525.417377 165.677512 
L 525.667582 157.250232 
L 525.917787 139.803455 
L 526.167992 132.130216 
L 526.418197 135.087008 
L 527.168813 176.900638 
L 527.419018 141.693366 
L 527.669223 134.238911 
L 527.919428 139.055516 
L 528.419839 164.715303 
L 528.670044 167.140437 
L 528.920249 203.430268 
L 529.170454 188.072232 
L 529.42066 160.492587 
L 529.670865 148.421242 
L 529.92107 152.693399 
L 530.171275 186.79461 
L 530.42148 168.081893 
L 530.671685 161.333601 
L 530.921891 161.726357 
L 531.172096 157.692136 
L 531.422301 162.333577 
L 531.672506 159.726153 
L 531.922711 153.334456 
L 532.172916 154.249794 
L 532.423122 172.661335 
L 532.923532 139.969644 
L 533.173737 138.296088 
L 533.423942 145.520397 
L 533.674148 166.336266 
L 533.924353 169.048521 
L 534.174558 165.844064 
L 534.674968 152.946466 
L 534.925173 151.430715 
L 535.175379 159.382979 
L 535.425584 207.317339 
L 535.675789 164.986272 
L 536.176199 144.952166 
L 536.426404 137.671821 
L 536.67661 133.977684 
L 536.926815 133.446577 
L 537.17702 136.601498 
L 537.427225 143.179304 
L 537.67743 154.798379 
L 538.177841 185.036358 
L 538.428046 186.046021 
L 538.678251 205.378131 
L 539.178661 164.256505 
L 539.428867 164.268976 
L 539.679072 180.474304 
L 539.929277 183.708173 
L 540.179482 169.875555 
L 540.930098 148.807624 
L 541.180303 150.53759 
L 541.430508 154.680083 
L 541.680713 155.264784 
L 542.181124 151.847658 
L 542.431329 160.509955 
L 542.931739 141.870022 
L 543.181944 138.324081 
L 543.432149 137.992909 
L 543.682355 140.593334 
L 544.182765 142.251449 
L 544.683175 160.186362 
L 544.933381 160.444339 
L 545.183586 191.869504 
L 545.433791 152.881756 
L 545.683996 144.922134 
L 545.934201 150.18105 
L 546.184406 151.481363 
L 546.434612 145.421876 
L 546.684817 146.577426 
L 547.185227 168.356146 
L 547.435432 167.895079 
L 547.685638 169.715715 
L 547.935843 157.116114 
L 548.186048 155.361594 
L 548.436253 151.444619 
L 548.686458 150.071839 
L 549.186869 159.86558 
L 549.437074 161.960617 
L 549.687279 170.596901 
L 549.937484 210.687855 
L 550.187689 168.253104 
L 550.437894 151.623697 
L 550.938305 141.8048 
L 551.18851 144.795976 
L 551.438715 165.011306 
L 551.68892 168.866929 
L 551.939126 170.619347 
L 552.189331 177.080226 
L 552.439536 144.40625 
L 552.689741 136.46918 
L 552.939946 139.00861 
L 553.190151 148.226467 
L 553.440357 152.061237 
L 554.190972 133.285387 
L 554.441177 134.701219 
L 554.691383 145.644906 
L 554.941588 170.721373 
L 555.191793 178.375773 
L 555.441998 199.979275 
L 555.692203 163.413893 
L 555.942408 146.975335 
L 556.192614 151.66316 
L 556.442819 188.716635 
L 556.693024 149.305221 
L 556.943229 143.934079 
L 557.193434 146.103829 
L 557.443639 154.35775 
L 557.693845 175.908795 
L 557.94405 148.161119 
L 558.194255 144.40287 
L 558.44446 158.832362 
L 558.694665 192.976885 
L 559.445281 146.945393 
L 559.695486 150.137717 
L 559.945691 160.810328 
L 560.195896 156.60088 
L 560.446102 162.080796 
L 560.696307 163.810906 
L 560.946512 176.648045 
L 561.196717 171.734012 
L 561.697128 148.340584 
L 561.947333 153.069428 
L 562.197538 164.17351 
L 562.948153 153.914638 
L 563.198359 157.786699 
L 563.448564 158.755106 
L 563.698769 149.567608 
L 563.948974 148.494287 
L 564.199179 157.375209 
L 564.449384 145.440897 
L 564.69959 148.205438 
L 564.949795 154.897998 
L 565.2 140.157694 
L 565.2 140.157694 
" clip-path="url(#p412401d1ce)" style="fill: none; stroke: #1f77b4; stroke-width: 1.5; stroke-linecap: square"/>
   </g>
   <g id="line2d_30">
    <path d="M 283.619092 246.04 
L 283.619092 26.16 
" clip-path="url(#p412401d1ce)" style="fill: none; stroke-dasharray: 2,3.3; stroke-dashoffset: 0; stroke: #d62728; stroke-width: 2"/>
   </g>
   <g id="line2d_31">
    <path d="M 334.861113 246.04 
L 334.861113 26.16 
" clip-path="url(#p412401d1ce)" style="fill: none; stroke-dasharray: 2,3.3; stroke-dashoffset: 0; stroke: #d62728; stroke-width: 2"/>
   </g>
   <g id="line2d_32">
    <path d="M 386.103133 246.04 
L 386.103133 26.16 
" clip-path="url(#p412401d1ce)" style="fill: none; stroke-dasharray: 2,3.3; stroke-dashoffset: 0; stroke: #d62728; stroke-width: 2"/>
   </g>
   <g id="line2d_33">
    <path d="M 437.345154 246.04 
L 437.345154 26.16 
" clip-path="url(#p412401d1ce)" style="fill: none; stroke-dasharray: 2,3.3; stroke-dashoffset: 0; stroke: #d62728; stroke-width: 2"/>
   </g>
   <g id="line2d_34">
    <path d="M 488.587174 246.04 
L 488.587174 26.16 
" clip-path="url(#p412401d1ce)" style="fill: none; stroke-dasharray: 2,3.3; stroke-dashoffset: 0; stroke: #d62728; stroke-width: 2"/>
   </g>
   <g id="line2d_35">
    <path d="M 539.829195 246.04 
L 539.829195 26.16 
" clip-path="url(#p412401d1ce)" style="fill: none; stroke-dasharray: 2,3.3; stroke-dashoffset: 0; stroke: #d62728; stroke-width: 2"/>
   </g>
   <g id="patch_3">
    <path d="M 53.03 246.04 
L 53.03 26.16 
" style="fill: none; stroke: #000000; stroke-width: 0.8; stroke-linejoin: miter; stroke-linecap: square"/>
   </g>
   <g id="patch_4">
    <path d="M 565.2 246.04 
L 565.2 26.16 
" style="fill: none; stroke: #000000; stroke-width: 0.8; stroke-linejoin: miter; stroke-linecap: square"/>
   </g>
   <g id="patch_5">
    <path d="M 53.03 246.04 
L 565.2 246.04 
" style="fill: none; stroke: #000000; stroke-width: 0.8; stroke-linejoin: miter; stroke-linecap: square"/>
   </g>
   <g id="patch_6">
    <path d="M 53.03 26.16 
L 565.2 26.16 
" style="fill: none; stroke: #000000; stroke-width: 0.8; stroke-linejoin: miter; stroke-linecap: square"/>
   </g>
   <g id="text_17">
    <!-- Spectrum of Multiple Channel Signal -->
    <g transform="translate(199.732188 20.16) scale(0.12 -0.12)">
     <defs>
      <path id="DejaVuSans-53" d="M 3425 4513 
L 3425 3897 
Q 3066 4069 2747 4153 
Q 2428 4238 2131 4238 
Q 1616 4238 1336 4038 
Q 1056 3838 1056 3469 
Q 1056 3159 1242 3001 
Q 1428 2844 1947 2747 
L 2328 2669 
Q 3034 2534 3370 2195 
Q 3706 1856 3706 1288 
Q 3706 609 3251 259 
Q 2797 -91 1919 -91 
Q 1588 -91 1214 -16 
Q 841 59 441 206 
L 441 856 
Q 825 641 1194 531 
Q 1563 422 1919 422 
Q 2459 422 2753 634 
Q 3047 847 3047 1241 
Q 3047 1584 2836 1778 
Q 2625 1972 2144 2069 
L 1759 2144 
Q 1053 2284 737 2584 
Q 422 2884 422 3419 
Q 422 4038 858 4394 
Q 1294 4750 2059 4750 
Q 2388 4750 2728 4690 
Q 3069 4631 3425 4513 
z
" transform="scale(0.015625)"/>
      <path id="DejaVuSans-70" d="M 1159 525 
L 1159 -1331 
L 581 -1331 
L 581 3500 
L 1159 3500 
L 1159 2969 
Q 1341 3281 1617 3432 
Q 1894 3584 2278 3584 
Q 2916 3584 3314 3078 
Q 3713 2572 3713 1747 
Q 3713 922 3314 415 
Q 2916 -91 2278 -91 
Q 1894 -91 1617 61 
Q 1341 213 1159 525 
z
M 3116 1747 
Q 3116 2381 2855 2742 
Q 2594 3103 2138 3103 
Q 1681 3103 1420 2742 
Q 1159 2381 1159 1747 
Q 1159 1113 1420 752 
Q 1681 391 2138 391 
Q 2594 391 2855 752 
Q 3116 1113 3116 1747 
z
" transform="scale(0.015625)"/>
      <path id="DejaVuSans-6d" d="M 3328 2828 
Q 3544 3216 3844 3400 
Q 4144 3584 4550 3584 
Q 5097 3584 5394 3201 
Q 5691 2819 5691 2113 
L 5691 0 
L 5113 0 
L 5113 2094 
Q 5113 2597 4934 2840 
Q 4756 3084 4391 3084 
Q 3944 3084 3684 2787 
Q 3425 2491 3425 1978 
L 3425 0 
L 2847 0 
L 2847 2094 
Q 2847 2600 2669 2842 
Q 2491 3084 2119 3084 
Q 1678 3084 1418 2786 
Q 1159 2488 1159 1978 
L 1159 0 
L 581 0 
L 581 3500 
L 1159 3500 
L 1159 2956 
Q 1356 3278 1631 3431 
Q 1906 3584 2284 3584 
Q 2666 3584 2933 3390 
Q 3200 3197 3328 2828 
z
" transform="scale(0.015625)"/>
      <path id="DejaVuSans-6f" d="M 1959 3097 
Q 1497 3097 1228 2736 
Q 959 2375 959 1747 
Q 959 1119 1226 758 
Q 1494 397 1959 397 
Q 2419 397 2687 759 
Q 2956 1122 2956 1747 
Q 2956 2369 2687 2733 
Q 2419 3097 1959 3097 
z
M 1959 3584 
Q 2709 3584 3137 3096 
Q 3566 2609 3566 1747 
Q 3566 888 3137 398 
Q 2709 -91 1959 -91 
Q 1206 -91 779 398 
Q 353 888 353 1747 
Q 353 2609 779 3096 
Q 1206 3584 1959 3584 
z
" transform="scale(0.015625)"/>
      <path id="DejaVuSans-66" d="M 2375 4863 
L 2375 4384 
L 1825 4384 
Q 1516 4384 1395 4259 
Q 1275 4134 1275 3809 
L 1275 3500 
L 2222 3500 
L 2222 3053 
L 1275 3053 
L 1275 0 
L 697 0 
L 697 3053 
L 147 3053 
L 147 3500 
L 697 3500 
L 697 3744 
Q 697 4328 969 4595 
Q 1241 4863 1831 4863 
L 2375 4863 
z
" transform="scale(0.015625)"/>
      <path id="DejaVuSans-6c" d="M 603 4863 
L 1178 4863 
L 1178 0 
L 603 0 
L 603 4863 
z
" transform="scale(0.015625)"/>
      <path id="DejaVuSans-43" d="M 4122 4306 
L 4122 3641 
Q 3803 3938 3442 4084 
Q 3081 4231 2675 4231 
Q 1875 4231 1450 3742 
Q 1025 3253 1025 2328 
Q 1025 1406 1450 917 
Q 1875 428 2675 428 
Q 3081 428 3442 575 
Q 3803 722 4122 1019 
L 4122 359 
Q 3791 134 3420 21 
Q 3050 -91 2638 -91 
Q 1578 -91 968 557 
Q 359 1206 359 2328 
Q 359 3453 968 4101 
Q 1578 4750 2638 4750 
Q 3056 4750 3426 4639 
Q 3797 4528 4122 4306 
z
" transform="scale(0.015625)"/>
      <path id="DejaVuSans-68" d="M 3513 2113 
L 3513 0 
L 2938 0 
L 2938 2094 
Q 2938 2591 2744 2837 
Q 2550 3084 2163 3084 
Q 1697 3084 1428 2787 
Q 1159 2491 1159 1978 
L 1159 0 
L 581 0 
L 581 4863 
L 1159 4863 
L 1159 2956 
Q 1366 3272 1645 3428 
Q 1925 3584 2291 3584 
Q 2894 3584 3203 3211 
Q 3513 2838 3513 2113 
z
" transform="scale(0.015625)"/>
     </defs>
     <use xlink:href="#DejaVuSans-53"/>
     <use xlink:href="#DejaVuSans-70" transform="translate(63.476562 0)"/>
     <use xlink:href="#DejaVuSans-65" transform="translate(126.953125 0)"/>
     <use xlink:href="#DejaVuSans-63" transform="translate(188.476562 0)"/>
     <use xlink:href="#DejaVuSans-74" transform="translate(243.457031 0)"/>
     <use xlink:href="#DejaVuSans-72" transform="translate(282.666016 0)"/>
     <use xlink:href="#DejaVuSans-75" transform="translate(323.779297 0)"/>
     <use xlink:href="#DejaVuSans-6d" transform="translate(387.158203 0)"/>
     <use xlink:href="#DejaVuSans-20" transform="translate(484.570312 0)"/>
     <use xlink:href="#DejaVuSans-6f" transform="translate(516.357422 0)"/>
     <use xlink:href="#DejaVuSans-66" transform="translate(577.539062 0)"/>
     <use xlink:href="#DejaVuSans-20" transform="translate(612.744141 0)"/>
     <use xlink:href="#DejaVuSans-4d" transform="translate(644.53125 0)"/>
     <use xlink:href="#DejaVuSans-75" transform="translate(730.810547 0)"/>
     <use xlink:href="#DejaVuSans-6c" transform="translate(794.189453 0)"/>
     <use xlink:href="#DejaVuSans-74" transform="translate(821.972656 0)"/>
     <use xlink:href="#DejaVuSans-69" transform="translate(861.181641 0)"/>
     <use xlink:href="#DejaVuSans-70" transform="translate(888.964844 0)"/>
     <use xlink:href="#DejaVuSans-6c" transform="translate(952.441406 0)"/>
     <use xlink:href="#DejaVuSans-65" transform="translate(980.224609 0)"/>
     <use xlink:href="#DejaVuSans-20" transform="translate(1041.748047 0)"/>
     <use xlink:href="#DejaVuSans-43" transform="translate(1073.535156 0)"/>
     <use xlink:href="#DejaVuSans-68" transform="translate(1143.359375 0)"/>
     <use xlink:href="#DejaVuSans-61" transform="translate(1206.738281 0)"/>
     <use xlink:href="#DejaVuSans-6e" transform="translate(1268.017578 0)"/>
     <use xlink:href="#DejaVuSans-6e" transform="translate(1331.396484 0)"/>
     <use xlink:href="#DejaVuSans-65" transform="translate(1394.775391 0)"/>
     <use xlink:href="#DejaVuSans-6c" transform="translate(1456.298828 0)"/>
     <use xlink:href="#DejaVuSans-20" transform="translate(1484.082031 0)"/>
     <use xlink:href="#DejaVuSans-53" transform="translate(1515.869141 0)"/>
     <use xlink:href="#DejaVuSans-69" transform="translate(1579.345703 0)"/>
     <use xlink:href="#DejaVuSans-67" transform="translate(1607.128906 0)"/>
     <use xlink:href="#DejaVuSans-6e" transform="translate(1670.605469 0)"/>
     <use xlink:href="#DejaVuSans-61" transform="translate(1733.984375 0)"/>
     <use xlink:href="#DejaVuSans-6c" transform="translate(1795.263672 0)"/>
    </g>
   </g>
  </g>
 </g>
 <defs>
  <clipPath id="p412401d1ce">
   <rect x="53.03" y="26.16" width="512.17" height="219.88"/>
  </clipPath>
 </defs>
</svg>
