<?xml version="1.0" encoding="UTF-8"?>
<!DOCTYPE svg PUBLIC "-//W3C//DTD SVG 1.1//EN" "http://www.w3.org/Graphics/SVG/1.1/DTD/svg11.dtd">
<svg xmlns="http://www.w3.org/2000/svg" xmlns:xlink="http://www.w3.org/1999/xlink" version="1.1" width="1103px" height="387px" viewBox="-0.5 -0.5 1103 387" style="background-color: rgb(255, 255, 255);"><defs/><g><rect x="16.5" y="19.5" width="60" height="30" fill="none" stroke="none" pointer-events="all"/><g transform="translate(-0.5 -0.5)scale(1.5)"><switch><foreignObject pointer-events="none" width="100%" height="100%" requiredFeatures="http://www.w3.org/TR/SVG11/feature#Extensibility" style="overflow: visible; text-align: left;"><div xmlns="http://www.w3.org/1999/xhtml" style="display: flex; align-items: unsafe center; justify-content: unsafe flex-end; width: 38px; height: 1px; padding-top: 23px; margin-left: 11px;"><div data-drawio-colors="color: rgb(0, 0, 0); " style="box-sizing: border-box; font-size: 0px; text-align: right;"><div style="display: inline-block; font-size: 12px; font-family: Helvetica; color: rgb(0, 0, 0); line-height: 1.2; pointer-events: all; white-space: normal; overflow-wrap: normal;"><mjx-container class="MathJax" jax="SVG" display="true"><svg xmlns="http://www.w3.org/2000/svg" width="3.91ex" height="2.262ex" role="img" focusable="false" viewBox="0 -750 1728 1000" xmlns:xlink="http://www.w3.org/1999/xlink" style="vertical-align: -0.566ex;"><defs><path id="MJX-130-TEX-I-1D465" d="M52 289Q59 331 106 386T222 442Q257 442 286 424T329 379Q371 442 430 442Q467 442 494 420T522 361Q522 332 508 314T481 292T458 288Q439 288 427 299T415 328Q415 374 465 391Q454 404 425 404Q412 404 406 402Q368 386 350 336Q290 115 290 78Q290 50 306 38T341 26Q378 26 414 59T463 140Q466 150 469 151T485 153H489Q504 153 504 145Q504 144 502 134Q486 77 440 33T333 -11Q263 -11 227 52Q186 -10 133 -10H127Q78 -10 57 16T35 71Q35 103 54 123T99 143Q142 143 142 101Q142 81 130 66T107 46T94 41L91 40Q91 39 97 36T113 29T132 26Q168 26 194 71Q203 87 217 139T245 247T261 313Q266 340 266 352Q266 380 251 392T217 404Q177 404 142 372T93 290Q91 281 88 280T72 278H58Q52 284 52 289Z"/><path id="MJX-130-TEX-N-5B" d="M118 -250V750H255V710H158V-210H255V-250H118Z"/><path id="MJX-130-TEX-I-1D45B" d="M21 287Q22 293 24 303T36 341T56 388T89 425T135 442Q171 442 195 424T225 390T231 369Q231 367 232 367L243 378Q304 442 382 442Q436 442 469 415T503 336T465 179T427 52Q427 26 444 26Q450 26 453 27Q482 32 505 65T540 145Q542 153 560 153Q580 153 580 145Q580 144 576 130Q568 101 554 73T508 17T439 -10Q392 -10 371 17T350 73Q350 92 386 193T423 345Q423 404 379 404H374Q288 404 229 303L222 291L189 157Q156 26 151 16Q138 -11 108 -11Q95 -11 87 -5T76 7T74 17Q74 30 112 180T152 343Q153 348 153 366Q153 405 129 405Q91 405 66 305Q60 285 60 284Q58 278 41 278H27Q21 284 21 287Z"/><path id="MJX-130-TEX-N-5D" d="M22 710V750H159V-250H22V-210H119V710H22Z"/></defs><g stroke="currentColor" fill="currentColor" stroke-width="0" transform="scale(1,-1)"><g data-mml-node="math"><g data-mml-node="mi"><use data-c="1D465" xlink:href="#MJX-130-TEX-I-1D465"/></g><g data-mml-node="mo" transform="translate(572,0)"><use data-c="5B" xlink:href="#MJX-130-TEX-N-5B"/></g><g data-mml-node="mi" transform="translate(850,0)"><use data-c="1D45B" xlink:href="#MJX-130-TEX-I-1D45B"/></g><g data-mml-node="mo" transform="translate(1450,0)"><use data-c="5D" xlink:href="#MJX-130-TEX-N-5D"/></g></g></g></svg></mjx-container></div></div></div></foreignObject><text x="49" y="27" fill="rgb(0, 0, 0)" font-family="Helvetica" font-size="12px" text-anchor="end">$$x[n]...</text></switch></g><ellipse cx="166.5" cy="124.5" rx="30" ry="30" fill="rgb(255, 255, 255)" stroke="rgb(0, 0, 0)" stroke-width="1.5" pointer-events="all"/><path d="M 145.14 103.14 L 187.86 145.86 M 187.86 103.14 L 145.14 145.86" fill="none" stroke="rgb(0, 0, 0)" stroke-width="1.5" stroke-miterlimit="10" pointer-events="all"/><path d="M 76.5 124.5 L 126.95 124.5" fill="none" stroke="rgb(0, 0, 0)" stroke-width="1.5" stroke-miterlimit="10" pointer-events="stroke"/><path d="M 134.82 124.5 L 124.32 129.75 L 126.95 124.5 L 124.32 119.25 Z" fill="rgb(0, 0, 0)" stroke="rgb(0, 0, 0)" stroke-width="1.5" stroke-miterlimit="10" pointer-events="all"/><g transform="translate(-0.5 -0.5)scale(1.5)"><switch><foreignObject pointer-events="none" width="100%" height="100%" requiredFeatures="http://www.w3.org/TR/SVG11/feature#Extensibility" style="overflow: visible; text-align: left;"><div xmlns="http://www.w3.org/1999/xhtml" style="display: flex; align-items: unsafe center; justify-content: unsafe center; width: 1px; height: 1px; padding-top: 83px; margin-left: 52px;"><div data-drawio-colors="color: rgb(0, 0, 0); background-color: rgb(255, 255, 255); " style="box-sizing: border-box; font-size: 0px; text-align: center;"><div style="display: inline-block; font-size: 11px; font-family: Helvetica; color: rgb(0, 0, 0); line-height: 1.2; pointer-events: all; background-color: rgb(255, 255, 255); white-space: nowrap;"><mjx-container class="MathJax" jax="SVG" display="true"><svg xmlns="http://www.w3.org/2000/svg" width="2.291ex" height="1.945ex" role="img" focusable="false" viewBox="0 -694 1012.6 859.6" xmlns:xlink="http://www.w3.org/1999/xlink" style="vertical-align: -0.375ex;"><defs><path id="MJX-131-TEX-I-210E" d="M137 683Q138 683 209 688T282 694Q294 694 294 685Q294 674 258 534Q220 386 220 383Q220 381 227 388Q288 442 357 442Q411 442 444 415T478 336Q478 285 440 178T402 50Q403 36 407 31T422 26Q450 26 474 56T513 138Q516 149 519 151T535 153Q555 153 555 145Q555 144 551 130Q535 71 500 33Q466 -10 419 -10H414Q367 -10 346 17T325 74Q325 90 361 192T398 345Q398 404 354 404H349Q266 404 205 306L198 293L164 158Q132 28 127 16Q114 -11 83 -11Q69 -11 59 -2T48 16Q48 30 121 320L195 616Q195 629 188 632T149 637H128Q122 643 122 645T124 664Q129 683 137 683Z"/><path id="MJX-131-TEX-N-30" d="M96 585Q152 666 249 666Q297 666 345 640T423 548Q460 465 460 320Q460 165 417 83Q397 41 362 16T301 -15T250 -22Q224 -22 198 -16T137 16T82 83Q39 165 39 320Q39 494 96 585ZM321 597Q291 629 250 629Q208 629 178 597Q153 571 145 525T137 333Q137 175 145 125T181 46Q209 16 250 16Q290 16 318 46Q347 76 354 130T362 333Q362 478 354 524T321 597Z"/></defs><g stroke="currentColor" fill="currentColor" stroke-width="0" transform="scale(1,-1)"><g data-mml-node="math"><g data-mml-node="msub"><g data-mml-node="mi"><use data-c="210E" xlink:href="#MJX-131-TEX-I-210E"/></g><g data-mml-node="mn" transform="translate(609,-150) scale(0.707)"><use data-c="30" xlink:href="#MJX-131-TEX-N-30"/></g></g></g></g></svg></mjx-container></div></div></div></foreignObject><text x="52" y="87" fill="rgb(0, 0, 0)" font-family="Helvetica" font-size="11px" text-anchor="middle">$$h_0$$</text></switch></g><path d="M 166.5 154.5 L 166.5 274.5 L 576.97 303.82" fill="none" stroke="rgb(0, 0, 0)" stroke-width="1.5" stroke-miterlimit="10" pointer-events="stroke"/><path d="M 584.83 304.38 L 573.98 308.87 L 576.97 303.82 L 574.73 298.4 Z" fill="rgb(0, 0, 0)" stroke="rgb(0, 0, 0)" stroke-width="1.5" stroke-miterlimit="10" pointer-events="all"/><rect x="196.5" y="4.5" width="60" height="60" fill="rgb(255, 255, 255)" stroke="rgb(0, 0, 0)" stroke-width="1.5" pointer-events="all"/><g transform="translate(-0.5 -0.5)scale(1.5)"><switch><foreignObject pointer-events="none" width="100%" height="100%" requiredFeatures="http://www.w3.org/TR/SVG11/feature#Extensibility" style="overflow: visible; text-align: left;"><div xmlns="http://www.w3.org/1999/xhtml" style="display: flex; align-items: unsafe center; justify-content: unsafe center; width: 38px; height: 1px; padding-top: 23px; margin-left: 132px;"><div data-drawio-colors="color: rgb(0, 0, 0); " style="box-sizing: border-box; font-size: 0px; text-align: center;"><div style="display: inline-block; font-size: 12px; font-family: Helvetica; color: rgb(0, 0, 0); line-height: 1.2; pointer-events: all; white-space: normal; overflow-wrap: normal;">z<sup>-1</sup></div></div></div></foreignObject><text x="151" y="27" fill="rgb(0, 0, 0)" font-family="Helvetica" font-size="12px" text-anchor="middle">z-1</text></switch></g><path d="M 76.5 34.5 L 186.95 34.5" fill="none" stroke="rgb(0, 0, 0)" stroke-width="1.5" stroke-miterlimit="10" pointer-events="stroke"/><path d="M 194.82 34.5 L 184.32 39.75 L 186.95 34.5 L 184.32 29.25 Z" fill="rgb(0, 0, 0)" stroke="rgb(0, 0, 0)" stroke-width="1.5" stroke-miterlimit="10" pointer-events="all"/><path d="M 256.5 34.5 L 336.95 34.5" fill="none" stroke="rgb(0, 0, 0)" stroke-width="1.5" stroke-miterlimit="10" pointer-events="stroke"/><path d="M 344.82 34.5 L 334.32 39.75 L 336.95 34.5 L 334.32 29.25 Z" fill="rgb(0, 0, 0)" stroke="rgb(0, 0, 0)" stroke-width="1.5" stroke-miterlimit="10" pointer-events="all"/><ellipse cx="316.5" cy="124.5" rx="30" ry="30" fill="rgb(255, 255, 255)" stroke="rgb(0, 0, 0)" stroke-width="1.5" pointer-events="all"/><path d="M 295.14 103.14 L 337.86 145.86 M 337.86 103.14 L 295.14 145.86" fill="none" stroke="rgb(0, 0, 0)" stroke-width="1.5" stroke-miterlimit="10" pointer-events="all"/><path d="M 226.5 124.5 L 276.95 124.5" fill="none" stroke="rgb(0, 0, 0)" stroke-width="1.5" stroke-miterlimit="10" pointer-events="stroke"/><path d="M 284.82 124.5 L 274.32 129.75 L 276.95 124.5 L 274.32 119.25 Z" fill="rgb(0, 0, 0)" stroke="rgb(0, 0, 0)" stroke-width="1.5" stroke-miterlimit="10" pointer-events="all"/><g transform="translate(-0.5 -0.5)scale(1.5)"><switch><foreignObject pointer-events="none" width="100%" height="100%" requiredFeatures="http://www.w3.org/TR/SVG11/feature#Extensibility" style="overflow: visible; text-align: left;"><div xmlns="http://www.w3.org/1999/xhtml" style="display: flex; align-items: unsafe center; justify-content: unsafe center; width: 1px; height: 1px; padding-top: 83px; margin-left: 152px;"><div data-drawio-colors="color: rgb(0, 0, 0); background-color: rgb(255, 255, 255); " style="box-sizing: border-box; font-size: 0px; text-align: center;"><div style="display: inline-block; font-size: 11px; font-family: Helvetica; color: rgb(0, 0, 0); line-height: 1.2; pointer-events: all; background-color: rgb(255, 255, 255); white-space: nowrap;"><mjx-container class="MathJax" jax="SVG" display="true"><svg xmlns="http://www.w3.org/2000/svg" width="2.291ex" height="1.91ex" role="img" focusable="false" viewBox="0 -694 1012.6 844" xmlns:xlink="http://www.w3.org/1999/xlink" style="vertical-align: -0.339ex;"><defs><path id="MJX-132-TEX-I-210E" d="M137 683Q138 683 209 688T282 694Q294 694 294 685Q294 674 258 534Q220 386 220 383Q220 381 227 388Q288 442 357 442Q411 442 444 415T478 336Q478 285 440 178T402 50Q403 36 407 31T422 26Q450 26 474 56T513 138Q516 149 519 151T535 153Q555 153 555 145Q555 144 551 130Q535 71 500 33Q466 -10 419 -10H414Q367 -10 346 17T325 74Q325 90 361 192T398 345Q398 404 354 404H349Q266 404 205 306L198 293L164 158Q132 28 127 16Q114 -11 83 -11Q69 -11 59 -2T48 16Q48 30 121 320L195 616Q195 629 188 632T149 637H128Q122 643 122 645T124 664Q129 683 137 683Z"/><path id="MJX-132-TEX-N-31" d="M213 578L200 573Q186 568 160 563T102 556H83V602H102Q149 604 189 617T245 641T273 663Q275 666 285 666Q294 666 302 660V361L303 61Q310 54 315 52T339 48T401 46H427V0H416Q395 3 257 3Q121 3 100 0H88V46H114Q136 46 152 46T177 47T193 50T201 52T207 57T213 61V578Z"/></defs><g stroke="currentColor" fill="currentColor" stroke-width="0" transform="scale(1,-1)"><g data-mml-node="math"><g data-mml-node="msub"><g data-mml-node="mi"><use data-c="210E" xlink:href="#MJX-132-TEX-I-210E"/></g><g data-mml-node="mn" transform="translate(609,-150) scale(0.707)"><use data-c="31" xlink:href="#MJX-132-TEX-N-31"/></g></g></g></g></svg></mjx-container></div></div></div></foreignObject><text x="152" y="87" fill="rgb(0, 0, 0)" font-family="Helvetica" font-size="11px" text-anchor="middle">$$h_1$$</text></switch></g><path d="M 316.5 154.5 L 316.5 244.5 L 580.73 287.31" fill="none" stroke="rgb(0, 0, 0)" stroke-width="1.5" stroke-miterlimit="10" pointer-events="stroke"/><path d="M 588.5 288.57 L 577.3 292.07 L 580.73 287.31 L 578.98 281.71 Z" fill="rgb(0, 0, 0)" stroke="rgb(0, 0, 0)" stroke-width="1.5" stroke-miterlimit="10" pointer-events="all"/><rect x="346.5" y="4.5" width="60" height="60" fill="rgb(255, 255, 255)" stroke="rgb(0, 0, 0)" stroke-width="1.5" pointer-events="all"/><g transform="translate(-0.5 -0.5)scale(1.5)"><switch><foreignObject pointer-events="none" width="100%" height="100%" requiredFeatures="http://www.w3.org/TR/SVG11/feature#Extensibility" style="overflow: visible; text-align: left;"><div xmlns="http://www.w3.org/1999/xhtml" style="display: flex; align-items: unsafe center; justify-content: unsafe center; width: 38px; height: 1px; padding-top: 23px; margin-left: 232px;"><div data-drawio-colors="color: rgb(0, 0, 0); " style="box-sizing: border-box; font-size: 0px; text-align: center;"><div style="display: inline-block; font-size: 12px; font-family: Helvetica; color: rgb(0, 0, 0); line-height: 1.2; pointer-events: all; white-space: normal; overflow-wrap: normal;">z<sup>-1</sup></div></div></div></foreignObject><text x="251" y="27" fill="rgb(0, 0, 0)" font-family="Helvetica" font-size="12px" text-anchor="middle">z-1</text></switch></g><path d="M 406.5 34.5 L 486.95 34.5" fill="none" stroke="rgb(0, 0, 0)" stroke-width="1.5" stroke-miterlimit="10" pointer-events="stroke"/><path d="M 494.82 34.5 L 484.32 39.75 L 486.95 34.5 L 484.32 29.25 Z" fill="rgb(0, 0, 0)" stroke="rgb(0, 0, 0)" stroke-width="1.5" stroke-miterlimit="10" pointer-events="all"/><ellipse cx="466.5" cy="124.5" rx="30" ry="30" fill="rgb(255, 255, 255)" stroke="rgb(0, 0, 0)" stroke-width="1.5" pointer-events="all"/><path d="M 445.14 103.14 L 487.86 145.86 M 487.86 103.14 L 445.14 145.86" fill="none" stroke="rgb(0, 0, 0)" stroke-width="1.5" stroke-miterlimit="10" pointer-events="all"/><path d="M 376.5 124.5 L 426.95 124.5" fill="none" stroke="rgb(0, 0, 0)" stroke-width="1.5" stroke-miterlimit="10" pointer-events="stroke"/><path d="M 434.82 124.5 L 424.32 129.75 L 426.95 124.5 L 424.32 119.25 Z" fill="rgb(0, 0, 0)" stroke="rgb(0, 0, 0)" stroke-width="1.5" stroke-miterlimit="10" pointer-events="all"/><g transform="translate(-0.5 -0.5)scale(1.5)"><switch><foreignObject pointer-events="none" width="100%" height="100%" requiredFeatures="http://www.w3.org/TR/SVG11/feature#Extensibility" style="overflow: visible; text-align: left;"><div xmlns="http://www.w3.org/1999/xhtml" style="display: flex; align-items: unsafe center; justify-content: unsafe center; width: 1px; height: 1px; padding-top: 83px; margin-left: 252px;"><div data-drawio-colors="color: rgb(0, 0, 0); background-color: rgb(255, 255, 255); " style="box-sizing: border-box; font-size: 0px; text-align: center;"><div style="display: inline-block; font-size: 11px; font-family: Helvetica; color: rgb(0, 0, 0); line-height: 1.2; pointer-events: all; background-color: rgb(255, 255, 255); white-space: nowrap;"><mjx-container class="MathJax" jax="SVG" display="true"><svg xmlns="http://www.w3.org/2000/svg" width="2.291ex" height="1.91ex" role="img" focusable="false" viewBox="0 -694 1012.6 844" xmlns:xlink="http://www.w3.org/1999/xlink" style="vertical-align: -0.339ex;"><defs><path id="MJX-133-TEX-I-210E" d="M137 683Q138 683 209 688T282 694Q294 694 294 685Q294 674 258 534Q220 386 220 383Q220 381 227 388Q288 442 357 442Q411 442 444 415T478 336Q478 285 440 178T402 50Q403 36 407 31T422 26Q450 26 474 56T513 138Q516 149 519 151T535 153Q555 153 555 145Q555 144 551 130Q535 71 500 33Q466 -10 419 -10H414Q367 -10 346 17T325 74Q325 90 361 192T398 345Q398 404 354 404H349Q266 404 205 306L198 293L164 158Q132 28 127 16Q114 -11 83 -11Q69 -11 59 -2T48 16Q48 30 121 320L195 616Q195 629 188 632T149 637H128Q122 643 122 645T124 664Q129 683 137 683Z"/><path id="MJX-133-TEX-N-32" d="M109 429Q82 429 66 447T50 491Q50 562 103 614T235 666Q326 666 387 610T449 465Q449 422 429 383T381 315T301 241Q265 210 201 149L142 93L218 92Q375 92 385 97Q392 99 409 186V189H449V186Q448 183 436 95T421 3V0H50V19V31Q50 38 56 46T86 81Q115 113 136 137Q145 147 170 174T204 211T233 244T261 278T284 308T305 340T320 369T333 401T340 431T343 464Q343 527 309 573T212 619Q179 619 154 602T119 569T109 550Q109 549 114 549Q132 549 151 535T170 489Q170 464 154 447T109 429Z"/></defs><g stroke="currentColor" fill="currentColor" stroke-width="0" transform="scale(1,-1)"><g data-mml-node="math"><g data-mml-node="msub"><g data-mml-node="mi"><use data-c="210E" xlink:href="#MJX-133-TEX-I-210E"/></g><g data-mml-node="mn" transform="translate(609,-150) scale(0.707)"><use data-c="32" xlink:href="#MJX-133-TEX-N-32"/></g></g></g></g></svg></mjx-container></div></div></div></foreignObject><text x="252" y="87" fill="rgb(0, 0, 0)" font-family="Helvetica" font-size="11px" text-anchor="middle">$$h_2$$</text></switch></g><path d="M 466.5 154.5 L 466.5 214.5 L 593.04 274.26" fill="none" stroke="rgb(0, 0, 0)" stroke-width="1.5" stroke-miterlimit="10" pointer-events="stroke"/><path d="M 600.16 277.62 L 588.43 277.89 L 593.04 274.26 L 592.91 268.39 Z" fill="rgb(0, 0, 0)" stroke="rgb(0, 0, 0)" stroke-width="1.5" stroke-miterlimit="10" pointer-events="all"/><rect x="496.5" y="4.5" width="60" height="60" fill="rgb(255, 255, 255)" stroke="rgb(0, 0, 0)" stroke-width="1.5" pointer-events="all"/><g transform="translate(-0.5 -0.5)scale(1.5)"><switch><foreignObject pointer-events="none" width="100%" height="100%" requiredFeatures="http://www.w3.org/TR/SVG11/feature#Extensibility" style="overflow: visible; text-align: left;"><div xmlns="http://www.w3.org/1999/xhtml" style="display: flex; align-items: unsafe center; justify-content: unsafe center; width: 38px; height: 1px; padding-top: 23px; margin-left: 332px;"><div data-drawio-colors="color: rgb(0, 0, 0); " style="box-sizing: border-box; font-size: 0px; text-align: center;"><div style="display: inline-block; font-size: 12px; font-family: Helvetica; color: rgb(0, 0, 0); line-height: 1.2; pointer-events: all; white-space: normal; overflow-wrap: normal;">z<sup>-1</sup></div></div></div></foreignObject><text x="351" y="27" fill="rgb(0, 0, 0)" font-family="Helvetica" font-size="12px" text-anchor="middle">z-1</text></switch></g><path d="M 556.5 34.5 L 636.95 34.5" fill="none" stroke="rgb(0, 0, 0)" stroke-width="1.5" stroke-miterlimit="10" pointer-events="stroke"/><path d="M 644.82 34.5 L 634.32 39.75 L 636.95 34.5 L 634.32 29.25 Z" fill="rgb(0, 0, 0)" stroke="rgb(0, 0, 0)" stroke-width="1.5" stroke-miterlimit="10" pointer-events="all"/><ellipse cx="616.5" cy="124.5" rx="30" ry="30" fill="rgb(255, 255, 255)" stroke="rgb(0, 0, 0)" stroke-width="1.5" pointer-events="all"/><path d="M 595.14 103.14 L 637.86 145.86 M 637.86 103.14 L 595.14 145.86" fill="none" stroke="rgb(0, 0, 0)" stroke-width="1.5" stroke-miterlimit="10" pointer-events="all"/><path d="M 526.5 124.5 L 576.95 124.5" fill="none" stroke="rgb(0, 0, 0)" stroke-width="1.5" stroke-miterlimit="10" pointer-events="stroke"/><path d="M 584.82 124.5 L 574.32 129.75 L 576.95 124.5 L 574.32 119.25 Z" fill="rgb(0, 0, 0)" stroke="rgb(0, 0, 0)" stroke-width="1.5" stroke-miterlimit="10" pointer-events="all"/><g transform="translate(-0.5 -0.5)scale(1.5)"><switch><foreignObject pointer-events="none" width="100%" height="100%" requiredFeatures="http://www.w3.org/TR/SVG11/feature#Extensibility" style="overflow: visible; text-align: left;"><div xmlns="http://www.w3.org/1999/xhtml" style="display: flex; align-items: unsafe center; justify-content: unsafe center; width: 1px; height: 1px; padding-top: 83px; margin-left: 352px;"><div data-drawio-colors="color: rgb(0, 0, 0); background-color: rgb(255, 255, 255); " style="box-sizing: border-box; font-size: 0px; text-align: center;"><div style="display: inline-block; font-size: 11px; font-family: Helvetica; color: rgb(0, 0, 0); line-height: 1.2; pointer-events: all; background-color: rgb(255, 255, 255); white-space: nowrap;"><mjx-container class="MathJax" jax="SVG" display="true"><svg xmlns="http://www.w3.org/2000/svg" width="2.291ex" height="1.945ex" role="img" focusable="false" viewBox="0 -694 1012.6 859.6" xmlns:xlink="http://www.w3.org/1999/xlink" style="vertical-align: -0.375ex;"><defs><path id="MJX-134-TEX-I-210E" d="M137 683Q138 683 209 688T282 694Q294 694 294 685Q294 674 258 534Q220 386 220 383Q220 381 227 388Q288 442 357 442Q411 442 444 415T478 336Q478 285 440 178T402 50Q403 36 407 31T422 26Q450 26 474 56T513 138Q516 149 519 151T535 153Q555 153 555 145Q555 144 551 130Q535 71 500 33Q466 -10 419 -10H414Q367 -10 346 17T325 74Q325 90 361 192T398 345Q398 404 354 404H349Q266 404 205 306L198 293L164 158Q132 28 127 16Q114 -11 83 -11Q69 -11 59 -2T48 16Q48 30 121 320L195 616Q195 629 188 632T149 637H128Q122 643 122 645T124 664Q129 683 137 683Z"/><path id="MJX-134-TEX-N-33" d="M127 463Q100 463 85 480T69 524Q69 579 117 622T233 665Q268 665 277 664Q351 652 390 611T430 522Q430 470 396 421T302 350L299 348Q299 347 308 345T337 336T375 315Q457 262 457 175Q457 96 395 37T238 -22Q158 -22 100 21T42 130Q42 158 60 175T105 193Q133 193 151 175T169 130Q169 119 166 110T159 94T148 82T136 74T126 70T118 67L114 66Q165 21 238 21Q293 21 321 74Q338 107 338 175V195Q338 290 274 322Q259 328 213 329L171 330L168 332Q166 335 166 348Q166 366 174 366Q202 366 232 371Q266 376 294 413T322 525V533Q322 590 287 612Q265 626 240 626Q208 626 181 615T143 592T132 580H135Q138 579 143 578T153 573T165 566T175 555T183 540T186 520Q186 498 172 481T127 463Z"/></defs><g stroke="currentColor" fill="currentColor" stroke-width="0" transform="scale(1,-1)"><g data-mml-node="math"><g data-mml-node="msub"><g data-mml-node="mi"><use data-c="210E" xlink:href="#MJX-134-TEX-I-210E"/></g><g data-mml-node="mn" transform="translate(609,-150) scale(0.707)"><use data-c="33" xlink:href="#MJX-134-TEX-N-33"/></g></g></g></g></svg></mjx-container></div></div></div></foreignObject><text x="352" y="87" fill="rgb(0, 0, 0)" font-family="Helvetica" font-size="11px" text-anchor="middle">$$h_3$$</text></switch></g><path d="M 616.5 154.5 L 616.5 264.95" fill="none" stroke="rgb(0, 0, 0)" stroke-width="1.5" stroke-miterlimit="10" pointer-events="stroke"/><path d="M 616.5 272.82 L 611.25 262.32 L 616.5 264.95 L 621.75 262.32 Z" fill="rgb(0, 0, 0)" stroke="rgb(0, 0, 0)" stroke-width="1.5" stroke-miterlimit="10" pointer-events="all"/><rect x="646.5" y="4.5" width="60" height="60" fill="rgb(255, 255, 255)" stroke="rgb(0, 0, 0)" stroke-width="1.5" pointer-events="all"/><g transform="translate(-0.5 -0.5)scale(1.5)"><switch><foreignObject pointer-events="none" width="100%" height="100%" requiredFeatures="http://www.w3.org/TR/SVG11/feature#Extensibility" style="overflow: visible; text-align: left;"><div xmlns="http://www.w3.org/1999/xhtml" style="display: flex; align-items: unsafe center; justify-content: unsafe center; width: 38px; height: 1px; padding-top: 23px; margin-left: 432px;"><div data-drawio-colors="color: rgb(0, 0, 0); " style="box-sizing: border-box; font-size: 0px; text-align: center;"><div style="display: inline-block; font-size: 12px; font-family: Helvetica; color: rgb(0, 0, 0); line-height: 1.2; pointer-events: all; white-space: normal; overflow-wrap: normal;">z<sup>-1</sup></div></div></div></foreignObject><text x="451" y="27" fill="rgb(0, 0, 0)" font-family="Helvetica" font-size="12px" text-anchor="middle">z-1</text></switch></g><path d="M 706.5 34.5 L 786.95 34.5" fill="none" stroke="rgb(0, 0, 0)" stroke-width="1.5" stroke-miterlimit="10" pointer-events="stroke"/><path d="M 794.82 34.5 L 784.32 39.75 L 786.95 34.5 L 784.32 29.25 Z" fill="rgb(0, 0, 0)" stroke="rgb(0, 0, 0)" stroke-width="1.5" stroke-miterlimit="10" pointer-events="all"/><ellipse cx="766.5" cy="124.5" rx="30" ry="30" fill="rgb(255, 255, 255)" stroke="rgb(0, 0, 0)" stroke-width="1.5" pointer-events="all"/><path d="M 745.14 103.14 L 787.86 145.86 M 787.86 103.14 L 745.14 145.86" fill="none" stroke="rgb(0, 0, 0)" stroke-width="1.5" stroke-miterlimit="10" pointer-events="all"/><path d="M 676.5 124.5 L 726.95 124.5" fill="none" stroke="rgb(0, 0, 0)" stroke-width="1.5" stroke-miterlimit="10" pointer-events="stroke"/><path d="M 734.82 124.5 L 724.32 129.75 L 726.95 124.5 L 724.32 119.25 Z" fill="rgb(0, 0, 0)" stroke="rgb(0, 0, 0)" stroke-width="1.5" stroke-miterlimit="10" pointer-events="all"/><g transform="translate(-0.5 -0.5)scale(1.5)"><switch><foreignObject pointer-events="none" width="100%" height="100%" requiredFeatures="http://www.w3.org/TR/SVG11/feature#Extensibility" style="overflow: visible; text-align: left;"><div xmlns="http://www.w3.org/1999/xhtml" style="display: flex; align-items: unsafe center; justify-content: unsafe center; width: 1px; height: 1px; padding-top: 83px; margin-left: 452px;"><div data-drawio-colors="color: rgb(0, 0, 0); background-color: rgb(255, 255, 255); " style="box-sizing: border-box; font-size: 0px; text-align: center;"><div style="display: inline-block; font-size: 11px; font-family: Helvetica; color: rgb(0, 0, 0); line-height: 1.2; pointer-events: all; background-color: rgb(255, 255, 255); white-space: nowrap;"><mjx-container class="MathJax" jax="SVG" display="true"><svg xmlns="http://www.w3.org/2000/svg" width="2.291ex" height="1.91ex" role="img" focusable="false" viewBox="0 -694 1012.6 844" xmlns:xlink="http://www.w3.org/1999/xlink" style="vertical-align: -0.339ex;"><defs><path id="MJX-135-TEX-I-210E" d="M137 683Q138 683 209 688T282 694Q294 694 294 685Q294 674 258 534Q220 386 220 383Q220 381 227 388Q288 442 357 442Q411 442 444 415T478 336Q478 285 440 178T402 50Q403 36 407 31T422 26Q450 26 474 56T513 138Q516 149 519 151T535 153Q555 153 555 145Q555 144 551 130Q535 71 500 33Q466 -10 419 -10H414Q367 -10 346 17T325 74Q325 90 361 192T398 345Q398 404 354 404H349Q266 404 205 306L198 293L164 158Q132 28 127 16Q114 -11 83 -11Q69 -11 59 -2T48 16Q48 30 121 320L195 616Q195 629 188 632T149 637H128Q122 643 122 645T124 664Q129 683 137 683Z"/><path id="MJX-135-TEX-N-34" d="M462 0Q444 3 333 3Q217 3 199 0H190V46H221Q241 46 248 46T265 48T279 53T286 61Q287 63 287 115V165H28V211L179 442Q332 674 334 675Q336 677 355 677H373L379 671V211H471V165H379V114Q379 73 379 66T385 54Q393 47 442 46H471V0H462ZM293 211V545L74 212L183 211H293Z"/></defs><g stroke="currentColor" fill="currentColor" stroke-width="0" transform="scale(1,-1)"><g data-mml-node="math"><g data-mml-node="msub"><g data-mml-node="mi"><use data-c="210E" xlink:href="#MJX-135-TEX-I-210E"/></g><g data-mml-node="mn" transform="translate(609,-150) scale(0.707)"><use data-c="34" xlink:href="#MJX-135-TEX-N-34"/></g></g></g></g></svg></mjx-container></div></div></div></foreignObject><text x="452" y="87" fill="rgb(0, 0, 0)" font-family="Helvetica" font-size="11px" text-anchor="middle">$$h_4$$</text></switch></g><path d="M 766.5 154.5 L 766.5 214.5 L 640.09 273.86" fill="none" stroke="rgb(0, 0, 0)" stroke-width="1.5" stroke-miterlimit="10" pointer-events="stroke"/><path d="M 632.96 277.21 L 640.23 267.99 L 640.09 273.86 L 644.69 277.5 Z" fill="rgb(0, 0, 0)" stroke="rgb(0, 0, 0)" stroke-width="1.5" stroke-miterlimit="10" pointer-events="all"/><rect x="796.5" y="4.5" width="60" height="60" fill="rgb(255, 255, 255)" stroke="rgb(0, 0, 0)" stroke-width="1.5" pointer-events="all"/><g transform="translate(-0.5 -0.5)scale(1.5)"><switch><foreignObject pointer-events="none" width="100%" height="100%" requiredFeatures="http://www.w3.org/TR/SVG11/feature#Extensibility" style="overflow: visible; text-align: left;"><div xmlns="http://www.w3.org/1999/xhtml" style="display: flex; align-items: unsafe center; justify-content: unsafe center; width: 38px; height: 1px; padding-top: 23px; margin-left: 532px;"><div data-drawio-colors="color: rgb(0, 0, 0); " style="box-sizing: border-box; font-size: 0px; text-align: center;"><div style="display: inline-block; font-size: 12px; font-family: Helvetica; color: rgb(0, 0, 0); line-height: 1.2; pointer-events: all; white-space: normal; overflow-wrap: normal;">z<sup>-1</sup></div></div></div></foreignObject><text x="551" y="27" fill="rgb(0, 0, 0)" font-family="Helvetica" font-size="12px" text-anchor="middle">z-1</text></switch></g><path d="M 856.5 34.5 L 936.95 34.5" fill="none" stroke="rgb(0, 0, 0)" stroke-width="1.5" stroke-miterlimit="10" pointer-events="stroke"/><path d="M 944.82 34.5 L 934.32 39.75 L 936.95 34.5 L 934.32 29.25 Z" fill="rgb(0, 0, 0)" stroke="rgb(0, 0, 0)" stroke-width="1.5" stroke-miterlimit="10" pointer-events="all"/><ellipse cx="916.5" cy="124.5" rx="30" ry="30" fill="rgb(255, 255, 255)" stroke="rgb(0, 0, 0)" stroke-width="1.5" pointer-events="all"/><path d="M 895.14 103.14 L 937.86 145.86 M 937.86 103.14 L 895.14 145.86" fill="none" stroke="rgb(0, 0, 0)" stroke-width="1.5" stroke-miterlimit="10" pointer-events="all"/><path d="M 826.5 124.5 L 876.95 124.5" fill="none" stroke="rgb(0, 0, 0)" stroke-width="1.5" stroke-miterlimit="10" pointer-events="stroke"/><path d="M 884.82 124.5 L 874.32 129.75 L 876.95 124.5 L 874.32 119.25 Z" fill="rgb(0, 0, 0)" stroke="rgb(0, 0, 0)" stroke-width="1.5" stroke-miterlimit="10" pointer-events="all"/><g transform="translate(-0.5 -0.5)scale(1.5)"><switch><foreignObject pointer-events="none" width="100%" height="100%" requiredFeatures="http://www.w3.org/TR/SVG11/feature#Extensibility" style="overflow: visible; text-align: left;"><div xmlns="http://www.w3.org/1999/xhtml" style="display: flex; align-items: unsafe center; justify-content: unsafe center; width: 1px; height: 1px; padding-top: 83px; margin-left: 552px;"><div data-drawio-colors="color: rgb(0, 0, 0); background-color: rgb(255, 255, 255); " style="box-sizing: border-box; font-size: 0px; text-align: center;"><div style="display: inline-block; font-size: 11px; font-family: Helvetica; color: rgb(0, 0, 0); line-height: 1.2; pointer-events: all; background-color: rgb(255, 255, 255); white-space: nowrap;"><mjx-container class="MathJax" jax="SVG" display="true"><svg xmlns="http://www.w3.org/2000/svg" width="2.291ex" height="1.945ex" role="img" focusable="false" viewBox="0 -694 1012.6 859.6" xmlns:xlink="http://www.w3.org/1999/xlink" style="vertical-align: -0.375ex;"><defs><path id="MJX-136-TEX-I-210E" d="M137 683Q138 683 209 688T282 694Q294 694 294 685Q294 674 258 534Q220 386 220 383Q220 381 227 388Q288 442 357 442Q411 442 444 415T478 336Q478 285 440 178T402 50Q403 36 407 31T422 26Q450 26 474 56T513 138Q516 149 519 151T535 153Q555 153 555 145Q555 144 551 130Q535 71 500 33Q466 -10 419 -10H414Q367 -10 346 17T325 74Q325 90 361 192T398 345Q398 404 354 404H349Q266 404 205 306L198 293L164 158Q132 28 127 16Q114 -11 83 -11Q69 -11 59 -2T48 16Q48 30 121 320L195 616Q195 629 188 632T149 637H128Q122 643 122 645T124 664Q129 683 137 683Z"/><path id="MJX-136-TEX-N-35" d="M164 157Q164 133 148 117T109 101H102Q148 22 224 22Q294 22 326 82Q345 115 345 210Q345 313 318 349Q292 382 260 382H254Q176 382 136 314Q132 307 129 306T114 304Q97 304 95 310Q93 314 93 485V614Q93 664 98 664Q100 666 102 666Q103 666 123 658T178 642T253 634Q324 634 389 662Q397 666 402 666Q410 666 410 648V635Q328 538 205 538Q174 538 149 544L139 546V374Q158 388 169 396T205 412T256 420Q337 420 393 355T449 201Q449 109 385 44T229 -22Q148 -22 99 32T50 154Q50 178 61 192T84 210T107 214Q132 214 148 197T164 157Z"/></defs><g stroke="currentColor" fill="currentColor" stroke-width="0" transform="scale(1,-1)"><g data-mml-node="math"><g data-mml-node="msub"><g data-mml-node="mi"><use data-c="210E" xlink:href="#MJX-136-TEX-I-210E"/></g><g data-mml-node="mn" transform="translate(609,-150) scale(0.707)"><use data-c="35" xlink:href="#MJX-136-TEX-N-35"/></g></g></g></g></svg></mjx-container></div></div></div></foreignObject><text x="552" y="87" fill="rgb(0, 0, 0)" font-family="Helvetica" font-size="11px" text-anchor="middle">$$h_5$$</text></switch></g><path d="M 916.5 154.5 L 916.5 244.5 L 652.62 289.11" fill="none" stroke="rgb(0, 0, 0)" stroke-width="1.5" stroke-miterlimit="10" pointer-events="stroke"/><path d="M 644.85 290.42 L 654.33 283.49 L 652.62 289.11 L 656.08 293.85 Z" fill="rgb(0, 0, 0)" stroke="rgb(0, 0, 0)" stroke-width="1.5" stroke-miterlimit="10" pointer-events="all"/><rect x="946.5" y="4.5" width="60" height="60" fill="rgb(255, 255, 255)" stroke="rgb(0, 0, 0)" stroke-width="1.5" pointer-events="all"/><g transform="translate(-0.5 -0.5)scale(1.5)"><switch><foreignObject pointer-events="none" width="100%" height="100%" requiredFeatures="http://www.w3.org/TR/SVG11/feature#Extensibility" style="overflow: visible; text-align: left;"><div xmlns="http://www.w3.org/1999/xhtml" style="display: flex; align-items: unsafe center; justify-content: unsafe center; width: 38px; height: 1px; padding-top: 23px; margin-left: 632px;"><div data-drawio-colors="color: rgb(0, 0, 0); " style="box-sizing: border-box; font-size: 0px; text-align: center;"><div style="display: inline-block; font-size: 12px; font-family: Helvetica; color: rgb(0, 0, 0); line-height: 1.2; pointer-events: all; white-space: normal; overflow-wrap: normal;">z<sup>-1</sup></div></div></div></foreignObject><text x="651" y="27" fill="rgb(0, 0, 0)" font-family="Helvetica" font-size="12px" text-anchor="middle">z-1</text></switch></g><ellipse cx="1066.5" cy="124.5" rx="30" ry="30" fill="rgb(255, 255, 255)" stroke="rgb(0, 0, 0)" stroke-width="1.5" pointer-events="all"/><path d="M 1045.14 103.14 L 1087.86 145.86 M 1087.86 103.14 L 1045.14 145.86" fill="none" stroke="rgb(0, 0, 0)" stroke-width="1.5" stroke-miterlimit="10" pointer-events="all"/><path d="M 976.5 124.5 L 1026.95 124.5" fill="none" stroke="rgb(0, 0, 0)" stroke-width="1.5" stroke-miterlimit="10" pointer-events="stroke"/><path d="M 1034.82 124.5 L 1024.32 129.75 L 1026.95 124.5 L 1024.32 119.25 Z" fill="rgb(0, 0, 0)" stroke="rgb(0, 0, 0)" stroke-width="1.5" stroke-miterlimit="10" pointer-events="all"/><g transform="translate(-0.5 -0.5)scale(1.5)"><switch><foreignObject pointer-events="none" width="100%" height="100%" requiredFeatures="http://www.w3.org/TR/SVG11/feature#Extensibility" style="overflow: visible; text-align: left;"><div xmlns="http://www.w3.org/1999/xhtml" style="display: flex; align-items: unsafe center; justify-content: unsafe center; width: 1px; height: 1px; padding-top: 83px; margin-left: 652px;"><div data-drawio-colors="color: rgb(0, 0, 0); background-color: rgb(255, 255, 255); " style="box-sizing: border-box; font-size: 0px; text-align: center;"><div style="display: inline-block; font-size: 11px; font-family: Helvetica; color: rgb(0, 0, 0); line-height: 1.2; pointer-events: all; background-color: rgb(255, 255, 255); white-space: nowrap;"><mjx-container class="MathJax" jax="SVG" display="true"><svg xmlns="http://www.w3.org/2000/svg" width="2.291ex" height="1.945ex" role="img" focusable="false" viewBox="0 -694 1012.6 859.6" xmlns:xlink="http://www.w3.org/1999/xlink" style="vertical-align: -0.375ex;"><defs><path id="MJX-137-TEX-I-210E" d="M137 683Q138 683 209 688T282 694Q294 694 294 685Q294 674 258 534Q220 386 220 383Q220 381 227 388Q288 442 357 442Q411 442 444 415T478 336Q478 285 440 178T402 50Q403 36 407 31T422 26Q450 26 474 56T513 138Q516 149 519 151T535 153Q555 153 555 145Q555 144 551 130Q535 71 500 33Q466 -10 419 -10H414Q367 -10 346 17T325 74Q325 90 361 192T398 345Q398 404 354 404H349Q266 404 205 306L198 293L164 158Q132 28 127 16Q114 -11 83 -11Q69 -11 59 -2T48 16Q48 30 121 320L195 616Q195 629 188 632T149 637H128Q122 643 122 645T124 664Q129 683 137 683Z"/><path id="MJX-137-TEX-N-36" d="M42 313Q42 476 123 571T303 666Q372 666 402 630T432 550Q432 525 418 510T379 495Q356 495 341 509T326 548Q326 592 373 601Q351 623 311 626Q240 626 194 566Q147 500 147 364L148 360Q153 366 156 373Q197 433 263 433H267Q313 433 348 414Q372 400 396 374T435 317Q456 268 456 210V192Q456 169 451 149Q440 90 387 34T253 -22Q225 -22 199 -14T143 16T92 75T56 172T42 313ZM257 397Q227 397 205 380T171 335T154 278T148 216Q148 133 160 97T198 39Q222 21 251 21Q302 21 329 59Q342 77 347 104T352 209Q352 289 347 316T329 361Q302 397 257 397Z"/></defs><g stroke="currentColor" fill="currentColor" stroke-width="0" transform="scale(1,-1)"><g data-mml-node="math"><g data-mml-node="msub"><g data-mml-node="mi"><use data-c="210E" xlink:href="#MJX-137-TEX-I-210E"/></g><g data-mml-node="mn" transform="translate(609,-150) scale(0.707)"><use data-c="36" xlink:href="#MJX-137-TEX-N-36"/></g></g></g></g></svg></mjx-container></div></div></div></foreignObject><text x="652" y="87" fill="rgb(0, 0, 0)" font-family="Helvetica" font-size="11px" text-anchor="middle">$$h_6$$</text></switch></g><path d="M 1066.5 154.5 L 1066.5 289.5 L 656.05 304.16" fill="none" stroke="rgb(0, 0, 0)" stroke-width="1.5" stroke-miterlimit="10" pointer-events="stroke"/><path d="M 648.18 304.44 L 658.48 298.82 L 656.05 304.16 L 658.86 309.31 Z" fill="rgb(0, 0, 0)" stroke="rgb(0, 0, 0)" stroke-width="1.5" stroke-miterlimit="10" pointer-events="all"/><path d="M 166.5 34.5 L 166.5 84.95" fill="none" stroke="rgb(0, 0, 0)" stroke-width="1.5" stroke-miterlimit="10" pointer-events="stroke"/><path d="M 166.5 92.82 L 161.25 82.32 L 166.5 84.95 L 171.75 82.32 Z" fill="rgb(0, 0, 0)" stroke="rgb(0, 0, 0)" stroke-width="1.5" stroke-miterlimit="10" pointer-events="all"/><path d="M 316.5 34.5 L 316.5 84.95" fill="none" stroke="rgb(0, 0, 0)" stroke-width="1.5" stroke-miterlimit="10" pointer-events="stroke"/><path d="M 316.5 92.82 L 311.25 82.32 L 316.5 84.95 L 321.75 82.32 Z" fill="rgb(0, 0, 0)" stroke="rgb(0, 0, 0)" stroke-width="1.5" stroke-miterlimit="10" pointer-events="all"/><path d="M 465.61 34.5 L 465.61 84.95" fill="none" stroke="rgb(0, 0, 0)" stroke-width="1.5" stroke-miterlimit="10" pointer-events="stroke"/><path d="M 465.61 92.82 L 460.36 82.32 L 465.61 84.95 L 470.86 82.32 Z" fill="rgb(0, 0, 0)" stroke="rgb(0, 0, 0)" stroke-width="1.5" stroke-miterlimit="10" pointer-events="all"/><path d="M 615.61 34.5 L 615.61 84.95" fill="none" stroke="rgb(0, 0, 0)" stroke-width="1.5" stroke-miterlimit="10" pointer-events="stroke"/><path d="M 615.61 92.82 L 610.36 82.32 L 615.61 84.95 L 620.86 82.32 Z" fill="rgb(0, 0, 0)" stroke="rgb(0, 0, 0)" stroke-width="1.5" stroke-miterlimit="10" pointer-events="all"/><path d="M 766.5 34.5 L 766.5 84.95" fill="none" stroke="rgb(0, 0, 0)" stroke-width="1.5" stroke-miterlimit="10" pointer-events="stroke"/><path d="M 766.5 92.82 L 761.25 82.32 L 766.5 84.95 L 771.75 82.32 Z" fill="rgb(0, 0, 0)" stroke="rgb(0, 0, 0)" stroke-width="1.5" stroke-miterlimit="10" pointer-events="all"/><path d="M 916.5 34.5 L 916.5 84.95" fill="none" stroke="rgb(0, 0, 0)" stroke-width="1.5" stroke-miterlimit="10" pointer-events="stroke"/><path d="M 916.5 92.82 L 911.25 82.32 L 916.5 84.95 L 921.75 82.32 Z" fill="rgb(0, 0, 0)" stroke="rgb(0, 0, 0)" stroke-width="1.5" stroke-miterlimit="10" pointer-events="all"/><path d="M 1006.5 34.5 L 1066.5 34.5 L 1066.5 84.95" fill="none" stroke="rgb(0, 0, 0)" stroke-width="1.5" stroke-miterlimit="10" pointer-events="stroke"/><path d="M 1066.5 92.82 L 1061.25 82.32 L 1066.5 84.95 L 1071.75 82.32 Z" fill="rgb(0, 0, 0)" stroke="rgb(0, 0, 0)" stroke-width="1.5" stroke-miterlimit="10" pointer-events="all"/><ellipse cx="616.5" cy="304.5" rx="30" ry="30" fill="rgb(255, 255, 255)" stroke="rgb(0, 0, 0)" stroke-width="1.5" pointer-events="all"/><path d="M 624.9 316.5 L 608.1 316.5 L 620.1 304.5 L 608.1 292.5 L 624.9 292.5" fill="none" stroke="rgb(0, 0, 0)" stroke-width="1.5" stroke-miterlimit="10" pointer-events="all"/><path d="M 616.5 334.5 L 616.5 364.5 L 846.95 364.5" fill="none" stroke="rgb(0, 0, 0)" stroke-width="1.5" stroke-miterlimit="10" pointer-events="stroke"/><path d="M 854.82 364.5 L 844.32 369.75 L 846.95 364.5 L 844.32 359.25 Z" fill="rgb(0, 0, 0)" stroke="rgb(0, 0, 0)" stroke-width="1.5" stroke-miterlimit="10" pointer-events="all"/><rect x="856.5" y="349.5" width="60" height="30" fill="none" stroke="none" pointer-events="all"/><g transform="translate(-0.5 -0.5)scale(1.5)"><switch><foreignObject pointer-events="none" width="100%" height="100%" requiredFeatures="http://www.w3.org/TR/SVG11/feature#Extensibility" style="overflow: visible; text-align: left;"><div xmlns="http://www.w3.org/1999/xhtml" style="display: flex; align-items: unsafe center; justify-content: unsafe flex-start; width: 38px; height: 1px; padding-top: 243px; margin-left: 573px;"><div data-drawio-colors="color: rgb(0, 0, 0); " style="box-sizing: border-box; font-size: 0px; text-align: left;"><div style="display: inline-block; font-size: 12px; font-family: Helvetica; color: rgb(0, 0, 0); line-height: 1.2; pointer-events: all; white-space: normal; overflow-wrap: normal;"><mjx-container class="MathJax" jax="SVG" display="true"><svg xmlns="http://www.w3.org/2000/svg" width="3.724ex" height="2.262ex" role="img" focusable="false" viewBox="0 -750 1646 1000" xmlns:xlink="http://www.w3.org/1999/xlink" style="vertical-align: -0.566ex;"><defs><path id="MJX-138-TEX-I-1D466" d="M21 287Q21 301 36 335T84 406T158 442Q199 442 224 419T250 355Q248 336 247 334Q247 331 231 288T198 191T182 105Q182 62 196 45T238 27Q261 27 281 38T312 61T339 94Q339 95 344 114T358 173T377 247Q415 397 419 404Q432 431 462 431Q475 431 483 424T494 412T496 403Q496 390 447 193T391 -23Q363 -106 294 -155T156 -205Q111 -205 77 -183T43 -117Q43 -95 50 -80T69 -58T89 -48T106 -45Q150 -45 150 -87Q150 -107 138 -122T115 -142T102 -147L99 -148Q101 -153 118 -160T152 -167H160Q177 -167 186 -165Q219 -156 247 -127T290 -65T313 -9T321 21L315 17Q309 13 296 6T270 -6Q250 -11 231 -11Q185 -11 150 11T104 82Q103 89 103 113Q103 170 138 262T173 379Q173 380 173 381Q173 390 173 393T169 400T158 404H154Q131 404 112 385T82 344T65 302T57 280Q55 278 41 278H27Q21 284 21 287Z"/><path id="MJX-138-TEX-N-5B" d="M118 -250V750H255V710H158V-210H255V-250H118Z"/><path id="MJX-138-TEX-I-1D45B" d="M21 287Q22 293 24 303T36 341T56 388T89 425T135 442Q171 442 195 424T225 390T231 369Q231 367 232 367L243 378Q304 442 382 442Q436 442 469 415T503 336T465 179T427 52Q427 26 444 26Q450 26 453 27Q482 32 505 65T540 145Q542 153 560 153Q580 153 580 145Q580 144 576 130Q568 101 554 73T508 17T439 -10Q392 -10 371 17T350 73Q350 92 386 193T423 345Q423 404 379 404H374Q288 404 229 303L222 291L189 157Q156 26 151 16Q138 -11 108 -11Q95 -11 87 -5T76 7T74 17Q74 30 112 180T152 343Q153 348 153 366Q153 405 129 405Q91 405 66 305Q60 285 60 284Q58 278 41 278H27Q21 284 21 287Z"/><path id="MJX-138-TEX-N-5D" d="M22 710V750H159V-250H22V-210H119V710H22Z"/></defs><g stroke="currentColor" fill="currentColor" stroke-width="0" transform="scale(1,-1)"><g data-mml-node="math"><g data-mml-node="mi"><use data-c="1D466" xlink:href="#MJX-138-TEX-I-1D466"/></g><g data-mml-node="mo" transform="translate(490,0)"><use data-c="5B" xlink:href="#MJX-138-TEX-N-5B"/></g><g data-mml-node="mi" transform="translate(768,0)"><use data-c="1D45B" xlink:href="#MJX-138-TEX-I-1D45B"/></g><g data-mml-node="mo" transform="translate(1368,0)"><use data-c="5D" xlink:href="#MJX-138-TEX-N-5D"/></g></g></g></svg></mjx-container></div></div></div></foreignObject><text x="573" y="247" fill="rgb(0, 0, 0)" font-family="Helvetica" font-size="12px">$$y[n]...</text></switch></g></g><switch><g requiredFeatures="http://www.w3.org/TR/SVG11/feature#Extensibility"/><a transform="translate(0,-5)" xlink:href="https://www.drawio.com/doc/faq/svg-export-text-problems" target="_blank"><text text-anchor="middle" font-size="10px" x="50%" y="100%">Text is not SVG - cannot display</text></a></switch></svg>