<?xml version="1.0" encoding="utf-8" standalone="no"?>
<!DOCTYPE svg PUBLIC "-//W3C//DTD SVG 1.1//EN"
  "http://www.w3.org/Graphics/SVG/1.1/DTD/svg11.dtd">
<svg xmlns:xlink="http://www.w3.org/1999/xlink" width="576pt" height="288pt" viewBox="0 0 576 288" xmlns="http://www.w3.org/2000/svg" version="1.1">
 <metadata>
  <rdf:RDF xmlns:dc="http://purl.org/dc/elements/1.1/" xmlns:cc="http://creativecommons.org/ns#" xmlns:rdf="http://www.w3.org/1999/02/22-rdf-syntax-ns#">
   <cc:Work>
    <dc:type rdf:resource="http://purl.org/dc/dcmitype/StillImage"/>
    <dc:date>2026-02-16T17:54:17.156428</dc:date>
    <dc:format>image/svg+xml</dc:format>
    <dc:creator>
     <cc:Agent>
      <dc:title>Matplotlib v3.10.8, https://matplotlib.org/</dc:title>
     </cc:Agent>
    </dc:creator>
   </cc:Work>
  </rdf:RDF>
 </metadata>
 <defs>
  <style type="text/css">*{stroke-linejoin: round; stroke-linecap: butt}</style>
 </defs>
 <g id="figure_1">
  <g id="patch_1">
   <path d="M 0 288 
L 576 288 
L 576 0 
L 0 0 
z
" style="fill: #ffffff"/>
  </g>
  <g id="axes_1">
   <g id="patch_2">
    <path d="M 53.03 246.04 
L 565.2 246.04 
L 565.2 26.16 
L 53.03 26.16 
z
" style="fill: #ffffff"/>
   </g>
   <g id="matplotlib.axis_1">
    <g id="xtick_1">
     <g id="line2d_1">
      <path d="M 104.272021 246.04 
L 104.272021 26.16 
" clip-path="url(#p37ae7e287a)" style="fill: none; stroke: #b0b0b0; stroke-width: 0.8; stroke-linecap: square"/>
     </g>
     <g id="line2d_2">
      <defs>
       <path id="md88cfdaa90" d="M 0 0 
L 0 3.5 
" style="stroke: #000000; stroke-width: 0.8"/>
      </defs>
      <g>
       <use xlink:href="#md88cfdaa90" x="104.272021" y="246.04" style="stroke: #000000; stroke-width: 0.8"/>
      </g>
     </g>
     <g id="text_1">
      <!-- −40 -->
      <g transform="translate(93.719677 260.638438) scale(0.1 -0.1)">
       <defs>
        <path id="DejaVuSans-2212" d="M 678 2272 
L 4684 2272 
L 4684 1741 
L 678 1741 
L 678 2272 
z
" transform="scale(0.015625)"/>
        <path id="DejaVuSans-34" d="M 2419 4116 
L 825 1625 
L 2419 1625 
L 2419 4116 
z
M 2253 4666 
L 3047 4666 
L 3047 1625 
L 3713 1625 
L 3713 1100 
L 3047 1100 
L 3047 0 
L 2419 0 
L 2419 1100 
L 313 1100 
L 313 1709 
L 2253 4666 
z
" transform="scale(0.015625)"/>
        <path id="DejaVuSans-30" d="M 2034 4250 
Q 1547 4250 1301 3770 
Q 1056 3291 1056 2328 
Q 1056 1369 1301 889 
Q 1547 409 2034 409 
Q 2525 409 2770 889 
Q 3016 1369 3016 2328 
Q 3016 3291 2770 3770 
Q 2525 4250 2034 4250 
z
M 2034 4750 
Q 2819 4750 3233 4129 
Q 3647 3509 3647 2328 
Q 3647 1150 3233 529 
Q 2819 -91 2034 -91 
Q 1250 -91 836 529 
Q 422 1150 422 2328 
Q 422 3509 836 4129 
Q 1250 4750 2034 4750 
z
" transform="scale(0.015625)"/>
       </defs>
       <use xlink:href="#DejaVuSans-2212"/>
       <use xlink:href="#DejaVuSans-34" transform="translate(83.789062 0)"/>
       <use xlink:href="#DejaVuSans-30" transform="translate(147.412109 0)"/>
      </g>
     </g>
    </g>
    <g id="xtick_2">
     <g id="line2d_3">
      <path d="M 206.756062 246.04 
L 206.756062 26.16 
" clip-path="url(#p37ae7e287a)" style="fill: none; stroke: #b0b0b0; stroke-width: 0.8; stroke-linecap: square"/>
     </g>
     <g id="line2d_4">
      <g>
       <use xlink:href="#md88cfdaa90" x="206.756062" y="246.04" style="stroke: #000000; stroke-width: 0.8"/>
      </g>
     </g>
     <g id="text_2">
      <!-- −20 -->
      <g transform="translate(196.203718 260.638438) scale(0.1 -0.1)">
       <defs>
        <path id="DejaVuSans-32" d="M 1228 531 
L 3431 531 
L 3431 0 
L 469 0 
L 469 531 
Q 828 903 1448 1529 
Q 2069 2156 2228 2338 
Q 2531 2678 2651 2914 
Q 2772 3150 2772 3378 
Q 2772 3750 2511 3984 
Q 2250 4219 1831 4219 
Q 1534 4219 1204 4116 
Q 875 4013 500 3803 
L 500 4441 
Q 881 4594 1212 4672 
Q 1544 4750 1819 4750 
Q 2544 4750 2975 4387 
Q 3406 4025 3406 3419 
Q 3406 3131 3298 2873 
Q 3191 2616 2906 2266 
Q 2828 2175 2409 1742 
Q 1991 1309 1228 531 
z
" transform="scale(0.015625)"/>
       </defs>
       <use xlink:href="#DejaVuSans-2212"/>
       <use xlink:href="#DejaVuSans-32" transform="translate(83.789062 0)"/>
       <use xlink:href="#DejaVuSans-30" transform="translate(147.412109 0)"/>
      </g>
     </g>
    </g>
    <g id="xtick_3">
     <g id="line2d_5">
      <path d="M 309.240103 246.04 
L 309.240103 26.16 
" clip-path="url(#p37ae7e287a)" style="fill: none; stroke: #b0b0b0; stroke-width: 0.8; stroke-linecap: square"/>
     </g>
     <g id="line2d_6">
      <g>
       <use xlink:href="#md88cfdaa90" x="309.240103" y="246.04" style="stroke: #000000; stroke-width: 0.8"/>
      </g>
     </g>
     <g id="text_3">
      <!-- 0 -->
      <g transform="translate(306.058853 260.638438) scale(0.1 -0.1)">
       <use xlink:href="#DejaVuSans-30"/>
      </g>
     </g>
    </g>
    <g id="xtick_4">
     <g id="line2d_7">
      <path d="M 411.724144 246.04 
L 411.724144 26.16 
" clip-path="url(#p37ae7e287a)" style="fill: none; stroke: #b0b0b0; stroke-width: 0.8; stroke-linecap: square"/>
     </g>
     <g id="line2d_8">
      <g>
       <use xlink:href="#md88cfdaa90" x="411.724144" y="246.04" style="stroke: #000000; stroke-width: 0.8"/>
      </g>
     </g>
     <g id="text_4">
      <!-- 20 -->
      <g transform="translate(405.361644 260.638438) scale(0.1 -0.1)">
       <use xlink:href="#DejaVuSans-32"/>
       <use xlink:href="#DejaVuSans-30" transform="translate(63.623047 0)"/>
      </g>
     </g>
    </g>
    <g id="xtick_5">
     <g id="line2d_9">
      <path d="M 514.208185 246.04 
L 514.208185 26.16 
" clip-path="url(#p37ae7e287a)" style="fill: none; stroke: #b0b0b0; stroke-width: 0.8; stroke-linecap: square"/>
     </g>
     <g id="line2d_10">
      <g>
       <use xlink:href="#md88cfdaa90" x="514.208185" y="246.04" style="stroke: #000000; stroke-width: 0.8"/>
      </g>
     </g>
     <g id="text_5">
      <!-- 40 -->
      <g transform="translate(507.845685 260.638438) scale(0.1 -0.1)">
       <use xlink:href="#DejaVuSans-34"/>
       <use xlink:href="#DejaVuSans-30" transform="translate(63.623047 0)"/>
      </g>
     </g>
    </g>
    <g id="text_6">
     <!-- Frequency (MHz) -->
     <g transform="translate(267.09625 274.316562) scale(0.1 -0.1)">
      <defs>
       <path id="DejaVuSans-46" d="M 628 4666 
L 3309 4666 
L 3309 4134 
L 1259 4134 
L 1259 2759 
L 3109 2759 
L 3109 2228 
L 1259 2228 
L 1259 0 
L 628 0 
L 628 4666 
z
" transform="scale(0.015625)"/>
       <path id="DejaVuSans-72" d="M 2631 2963 
Q 2534 3019 2420 3045 
Q 2306 3072 2169 3072 
Q 1681 3072 1420 2755 
Q 1159 2438 1159 1844 
L 1159 0 
L 581 0 
L 581 3500 
L 1159 3500 
L 1159 2956 
Q 1341 3275 1631 3429 
Q 1922 3584 2338 3584 
Q 2397 3584 2469 3576 
Q 2541 3569 2628 3553 
L 2631 2963 
z
" transform="scale(0.015625)"/>
       <path id="DejaVuSans-65" d="M 3597 1894 
L 3597 1613 
L 953 1613 
Q 991 1019 1311 708 
Q 1631 397 2203 397 
Q 2534 397 2845 478 
Q 3156 559 3463 722 
L 3463 178 
Q 3153 47 2828 -22 
Q 2503 -91 2169 -91 
Q 1331 -91 842 396 
Q 353 884 353 1716 
Q 353 2575 817 3079 
Q 1281 3584 2069 3584 
Q 2775 3584 3186 3129 
Q 3597 2675 3597 1894 
z
M 3022 2063 
Q 3016 2534 2758 2815 
Q 2500 3097 2075 3097 
Q 1594 3097 1305 2825 
Q 1016 2553 972 2059 
L 3022 2063 
z
" transform="scale(0.015625)"/>
       <path id="DejaVuSans-71" d="M 947 1747 
Q 947 1113 1208 752 
Q 1469 391 1925 391 
Q 2381 391 2643 752 
Q 2906 1113 2906 1747 
Q 2906 2381 2643 2742 
Q 2381 3103 1925 3103 
Q 1469 3103 1208 2742 
Q 947 2381 947 1747 
z
M 2906 525 
Q 2725 213 2448 61 
Q 2172 -91 1784 -91 
Q 1150 -91 751 415 
Q 353 922 353 1747 
Q 353 2572 751 3078 
Q 1150 3584 1784 3584 
Q 2172 3584 2448 3432 
Q 2725 3281 2906 2969 
L 2906 3500 
L 3481 3500 
L 3481 -1331 
L 2906 -1331 
L 2906 525 
z
" transform="scale(0.015625)"/>
       <path id="DejaVuSans-75" d="M 544 1381 
L 544 3500 
L 1119 3500 
L 1119 1403 
Q 1119 906 1312 657 
Q 1506 409 1894 409 
Q 2359 409 2629 706 
Q 2900 1003 2900 1516 
L 2900 3500 
L 3475 3500 
L 3475 0 
L 2900 0 
L 2900 538 
Q 2691 219 2414 64 
Q 2138 -91 1772 -91 
Q 1169 -91 856 284 
Q 544 659 544 1381 
z
M 1991 3584 
L 1991 3584 
z
" transform="scale(0.015625)"/>
       <path id="DejaVuSans-6e" d="M 3513 2113 
L 3513 0 
L 2938 0 
L 2938 2094 
Q 2938 2591 2744 2837 
Q 2550 3084 2163 3084 
Q 1697 3084 1428 2787 
Q 1159 2491 1159 1978 
L 1159 0 
L 581 0 
L 581 3500 
L 1159 3500 
L 1159 2956 
Q 1366 3272 1645 3428 
Q 1925 3584 2291 3584 
Q 2894 3584 3203 3211 
Q 3513 2838 3513 2113 
z
" transform="scale(0.015625)"/>
       <path id="DejaVuSans-63" d="M 3122 3366 
L 3122 2828 
Q 2878 2963 2633 3030 
Q 2388 3097 2138 3097 
Q 1578 3097 1268 2742 
Q 959 2388 959 1747 
Q 959 1106 1268 751 
Q 1578 397 2138 397 
Q 2388 397 2633 464 
Q 2878 531 3122 666 
L 3122 134 
Q 2881 22 2623 -34 
Q 2366 -91 2075 -91 
Q 1284 -91 818 406 
Q 353 903 353 1747 
Q 353 2603 823 3093 
Q 1294 3584 2113 3584 
Q 2378 3584 2631 3529 
Q 2884 3475 3122 3366 
z
" transform="scale(0.015625)"/>
       <path id="DejaVuSans-79" d="M 2059 -325 
Q 1816 -950 1584 -1140 
Q 1353 -1331 966 -1331 
L 506 -1331 
L 506 -850 
L 844 -850 
Q 1081 -850 1212 -737 
Q 1344 -625 1503 -206 
L 1606 56 
L 191 3500 
L 800 3500 
L 1894 763 
L 2988 3500 
L 3597 3500 
L 2059 -325 
z
" transform="scale(0.015625)"/>
       <path id="DejaVuSans-20" transform="scale(0.015625)"/>
       <path id="DejaVuSans-28" d="M 1984 4856 
Q 1566 4138 1362 3434 
Q 1159 2731 1159 2009 
Q 1159 1288 1364 580 
Q 1569 -128 1984 -844 
L 1484 -844 
Q 1016 -109 783 600 
Q 550 1309 550 2009 
Q 550 2706 781 3412 
Q 1013 4119 1484 4856 
L 1984 4856 
z
" transform="scale(0.015625)"/>
       <path id="DejaVuSans-4d" d="M 628 4666 
L 1569 4666 
L 2759 1491 
L 3956 4666 
L 4897 4666 
L 4897 0 
L 4281 0 
L 4281 4097 
L 3078 897 
L 2444 897 
L 1241 4097 
L 1241 0 
L 628 0 
L 628 4666 
z
" transform="scale(0.015625)"/>
       <path id="DejaVuSans-48" d="M 628 4666 
L 1259 4666 
L 1259 2753 
L 3553 2753 
L 3553 4666 
L 4184 4666 
L 4184 0 
L 3553 0 
L 3553 2222 
L 1259 2222 
L 1259 0 
L 628 0 
L 628 4666 
z
" transform="scale(0.015625)"/>
       <path id="DejaVuSans-7a" d="M 353 3500 
L 3084 3500 
L 3084 2975 
L 922 459 
L 3084 459 
L 3084 0 
L 275 0 
L 275 525 
L 2438 3041 
L 353 3041 
L 353 3500 
z
" transform="scale(0.015625)"/>
       <path id="DejaVuSans-29" d="M 513 4856 
L 1013 4856 
Q 1481 4119 1714 3412 
Q 1947 2706 1947 2009 
Q 1947 1309 1714 600 
Q 1481 -109 1013 -844 
L 513 -844 
Q 928 -128 1133 580 
Q 1338 1288 1338 2009 
Q 1338 2731 1133 3434 
Q 928 4138 513 4856 
z
" transform="scale(0.015625)"/>
      </defs>
      <use xlink:href="#DejaVuSans-46"/>
      <use xlink:href="#DejaVuSans-72" transform="translate(50.269531 0)"/>
      <use xlink:href="#DejaVuSans-65" transform="translate(89.132812 0)"/>
      <use xlink:href="#DejaVuSans-71" transform="translate(150.65625 0)"/>
      <use xlink:href="#DejaVuSans-75" transform="translate(214.132812 0)"/>
      <use xlink:href="#DejaVuSans-65" transform="translate(277.511719 0)"/>
      <use xlink:href="#DejaVuSans-6e" transform="translate(339.035156 0)"/>
      <use xlink:href="#DejaVuSans-63" transform="translate(402.414062 0)"/>
      <use xlink:href="#DejaVuSans-79" transform="translate(457.394531 0)"/>
      <use xlink:href="#DejaVuSans-20" transform="translate(516.574219 0)"/>
      <use xlink:href="#DejaVuSans-28" transform="translate(548.361328 0)"/>
      <use xlink:href="#DejaVuSans-4d" transform="translate(587.375 0)"/>
      <use xlink:href="#DejaVuSans-48" transform="translate(673.654297 0)"/>
      <use xlink:href="#DejaVuSans-7a" transform="translate(748.849609 0)"/>
      <use xlink:href="#DejaVuSans-29" transform="translate(801.339844 0)"/>
     </g>
    </g>
   </g>
   <g id="matplotlib.axis_2">
    <g id="ytick_1">
     <g id="line2d_11">
      <path d="M 53.03 246.04 
L 565.2 246.04 
" clip-path="url(#p37ae7e287a)" style="fill: none; stroke: #b0b0b0; stroke-width: 0.8; stroke-linecap: square"/>
     </g>
     <g id="line2d_12">
      <defs>
       <path id="m72b6777e3a" d="M 0 0 
L -3.5 0 
" style="stroke: #000000; stroke-width: 0.8"/>
      </defs>
      <g>
       <use xlink:href="#m72b6777e3a" x="53.03" y="246.04" style="stroke: #000000; stroke-width: 0.8"/>
      </g>
     </g>
     <g id="text_7">
      <!-- −80 -->
      <g transform="translate(24.925313 249.839219) scale(0.1 -0.1)">
       <defs>
        <path id="DejaVuSans-38" d="M 2034 2216 
Q 1584 2216 1326 1975 
Q 1069 1734 1069 1313 
Q 1069 891 1326 650 
Q 1584 409 2034 409 
Q 2484 409 2743 651 
Q 3003 894 3003 1313 
Q 3003 1734 2745 1975 
Q 2488 2216 2034 2216 
z
M 1403 2484 
Q 997 2584 770 2862 
Q 544 3141 544 3541 
Q 544 4100 942 4425 
Q 1341 4750 2034 4750 
Q 2731 4750 3128 4425 
Q 3525 4100 3525 3541 
Q 3525 3141 3298 2862 
Q 3072 2584 2669 2484 
Q 3125 2378 3379 2068 
Q 3634 1759 3634 1313 
Q 3634 634 3220 271 
Q 2806 -91 2034 -91 
Q 1263 -91 848 271 
Q 434 634 434 1313 
Q 434 1759 690 2068 
Q 947 2378 1403 2484 
z
M 1172 3481 
Q 1172 3119 1398 2916 
Q 1625 2713 2034 2713 
Q 2441 2713 2670 2916 
Q 2900 3119 2900 3481 
Q 2900 3844 2670 4047 
Q 2441 4250 2034 4250 
Q 1625 4250 1398 4047 
Q 1172 3844 1172 3481 
z
" transform="scale(0.015625)"/>
       </defs>
       <use xlink:href="#DejaVuSans-2212"/>
       <use xlink:href="#DejaVuSans-38" transform="translate(83.789062 0)"/>
       <use xlink:href="#DejaVuSans-30" transform="translate(147.412109 0)"/>
      </g>
     </g>
    </g>
    <g id="ytick_2">
     <g id="line2d_13">
      <path d="M 53.03 220.139545 
L 565.2 220.139545 
" clip-path="url(#p37ae7e287a)" style="fill: none; stroke: #b0b0b0; stroke-width: 0.8; stroke-linecap: square"/>
     </g>
     <g id="line2d_14">
      <g>
       <use xlink:href="#m72b6777e3a" x="53.03" y="220.139545" style="stroke: #000000; stroke-width: 0.8"/>
      </g>
     </g>
     <g id="text_8">
      <!-- −70 -->
      <g transform="translate(24.925313 223.938764) scale(0.1 -0.1)">
       <defs>
        <path id="DejaVuSans-37" d="M 525 4666 
L 3525 4666 
L 3525 4397 
L 1831 0 
L 1172 0 
L 2766 4134 
L 525 4134 
L 525 4666 
z
" transform="scale(0.015625)"/>
       </defs>
       <use xlink:href="#DejaVuSans-2212"/>
       <use xlink:href="#DejaVuSans-37" transform="translate(83.789062 0)"/>
       <use xlink:href="#DejaVuSans-30" transform="translate(147.412109 0)"/>
      </g>
     </g>
    </g>
    <g id="ytick_3">
     <g id="line2d_15">
      <path d="M 53.03 194.239091 
L 565.2 194.239091 
" clip-path="url(#p37ae7e287a)" style="fill: none; stroke: #b0b0b0; stroke-width: 0.8; stroke-linecap: square"/>
     </g>
     <g id="line2d_16">
      <g>
       <use xlink:href="#m72b6777e3a" x="53.03" y="194.239091" style="stroke: #000000; stroke-width: 0.8"/>
      </g>
     </g>
     <g id="text_9">
      <!-- −60 -->
      <g transform="translate(24.925313 198.038309) scale(0.1 -0.1)">
       <defs>
        <path id="DejaVuSans-36" d="M 2113 2584 
Q 1688 2584 1439 2293 
Q 1191 2003 1191 1497 
Q 1191 994 1439 701 
Q 1688 409 2113 409 
Q 2538 409 2786 701 
Q 3034 994 3034 1497 
Q 3034 2003 2786 2293 
Q 2538 2584 2113 2584 
z
M 3366 4563 
L 3366 3988 
Q 3128 4100 2886 4159 
Q 2644 4219 2406 4219 
Q 1781 4219 1451 3797 
Q 1122 3375 1075 2522 
Q 1259 2794 1537 2939 
Q 1816 3084 2150 3084 
Q 2853 3084 3261 2657 
Q 3669 2231 3669 1497 
Q 3669 778 3244 343 
Q 2819 -91 2113 -91 
Q 1303 -91 875 529 
Q 447 1150 447 2328 
Q 447 3434 972 4092 
Q 1497 4750 2381 4750 
Q 2619 4750 2861 4703 
Q 3103 4656 3366 4563 
z
" transform="scale(0.015625)"/>
       </defs>
       <use xlink:href="#DejaVuSans-2212"/>
       <use xlink:href="#DejaVuSans-36" transform="translate(83.789062 0)"/>
       <use xlink:href="#DejaVuSans-30" transform="translate(147.412109 0)"/>
      </g>
     </g>
    </g>
    <g id="ytick_4">
     <g id="line2d_17">
      <path d="M 53.03 168.338636 
L 565.2 168.338636 
" clip-path="url(#p37ae7e287a)" style="fill: none; stroke: #b0b0b0; stroke-width: 0.8; stroke-linecap: square"/>
     </g>
     <g id="line2d_18">
      <g>
       <use xlink:href="#m72b6777e3a" x="53.03" y="168.338636" style="stroke: #000000; stroke-width: 0.8"/>
      </g>
     </g>
     <g id="text_10">
      <!-- −50 -->
      <g transform="translate(24.925313 172.137855) scale(0.1 -0.1)">
       <defs>
        <path id="DejaVuSans-35" d="M 691 4666 
L 3169 4666 
L 3169 4134 
L 1269 4134 
L 1269 2991 
Q 1406 3038 1543 3061 
Q 1681 3084 1819 3084 
Q 2600 3084 3056 2656 
Q 3513 2228 3513 1497 
Q 3513 744 3044 326 
Q 2575 -91 1722 -91 
Q 1428 -91 1123 -41 
Q 819 9 494 109 
L 494 744 
Q 775 591 1075 516 
Q 1375 441 1709 441 
Q 2250 441 2565 725 
Q 2881 1009 2881 1497 
Q 2881 1984 2565 2268 
Q 2250 2553 1709 2553 
Q 1456 2553 1204 2497 
Q 953 2441 691 2322 
L 691 4666 
z
" transform="scale(0.015625)"/>
       </defs>
       <use xlink:href="#DejaVuSans-2212"/>
       <use xlink:href="#DejaVuSans-35" transform="translate(83.789062 0)"/>
       <use xlink:href="#DejaVuSans-30" transform="translate(147.412109 0)"/>
      </g>
     </g>
    </g>
    <g id="ytick_5">
     <g id="line2d_19">
      <path d="M 53.03 142.438181 
L 565.2 142.438181 
" clip-path="url(#p37ae7e287a)" style="fill: none; stroke: #b0b0b0; stroke-width: 0.8; stroke-linecap: square"/>
     </g>
     <g id="line2d_20">
      <g>
       <use xlink:href="#m72b6777e3a" x="53.03" y="142.438181" style="stroke: #000000; stroke-width: 0.8"/>
      </g>
     </g>
     <g id="text_11">
      <!-- −40 -->
      <g transform="translate(24.925313 146.2374) scale(0.1 -0.1)">
       <use xlink:href="#DejaVuSans-2212"/>
       <use xlink:href="#DejaVuSans-34" transform="translate(83.789062 0)"/>
       <use xlink:href="#DejaVuSans-30" transform="translate(147.412109 0)"/>
      </g>
     </g>
    </g>
    <g id="ytick_6">
     <g id="line2d_21">
      <path d="M 53.03 116.537726 
L 565.2 116.537726 
" clip-path="url(#p37ae7e287a)" style="fill: none; stroke: #b0b0b0; stroke-width: 0.8; stroke-linecap: square"/>
     </g>
     <g id="line2d_22">
      <g>
       <use xlink:href="#m72b6777e3a" x="53.03" y="116.537726" style="stroke: #000000; stroke-width: 0.8"/>
      </g>
     </g>
     <g id="text_12">
      <!-- −30 -->
      <g transform="translate(24.925313 120.336945) scale(0.1 -0.1)">
       <defs>
        <path id="DejaVuSans-33" d="M 2597 2516 
Q 3050 2419 3304 2112 
Q 3559 1806 3559 1356 
Q 3559 666 3084 287 
Q 2609 -91 1734 -91 
Q 1441 -91 1130 -33 
Q 819 25 488 141 
L 488 750 
Q 750 597 1062 519 
Q 1375 441 1716 441 
Q 2309 441 2620 675 
Q 2931 909 2931 1356 
Q 2931 1769 2642 2001 
Q 2353 2234 1838 2234 
L 1294 2234 
L 1294 2753 
L 1863 2753 
Q 2328 2753 2575 2939 
Q 2822 3125 2822 3475 
Q 2822 3834 2567 4026 
Q 2313 4219 1838 4219 
Q 1578 4219 1281 4162 
Q 984 4106 628 3988 
L 628 4550 
Q 988 4650 1302 4700 
Q 1616 4750 1894 4750 
Q 2613 4750 3031 4423 
Q 3450 4097 3450 3541 
Q 3450 3153 3228 2886 
Q 3006 2619 2597 2516 
z
" transform="scale(0.015625)"/>
       </defs>
       <use xlink:href="#DejaVuSans-2212"/>
       <use xlink:href="#DejaVuSans-33" transform="translate(83.789062 0)"/>
       <use xlink:href="#DejaVuSans-30" transform="translate(147.412109 0)"/>
      </g>
     </g>
    </g>
    <g id="ytick_7">
     <g id="line2d_23">
      <path d="M 53.03 90.637272 
L 565.2 90.637272 
" clip-path="url(#p37ae7e287a)" style="fill: none; stroke: #b0b0b0; stroke-width: 0.8; stroke-linecap: square"/>
     </g>
     <g id="line2d_24">
      <g>
       <use xlink:href="#m72b6777e3a" x="53.03" y="90.637272" style="stroke: #000000; stroke-width: 0.8"/>
      </g>
     </g>
     <g id="text_13">
      <!-- −20 -->
      <g transform="translate(24.925313 94.43649) scale(0.1 -0.1)">
       <use xlink:href="#DejaVuSans-2212"/>
       <use xlink:href="#DejaVuSans-32" transform="translate(83.789062 0)"/>
       <use xlink:href="#DejaVuSans-30" transform="translate(147.412109 0)"/>
      </g>
     </g>
    </g>
    <g id="ytick_8">
     <g id="line2d_25">
      <path d="M 53.03 64.736817 
L 565.2 64.736817 
" clip-path="url(#p37ae7e287a)" style="fill: none; stroke: #b0b0b0; stroke-width: 0.8; stroke-linecap: square"/>
     </g>
     <g id="line2d_26">
      <g>
       <use xlink:href="#m72b6777e3a" x="53.03" y="64.736817" style="stroke: #000000; stroke-width: 0.8"/>
      </g>
     </g>
     <g id="text_14">
      <!-- −10 -->
      <g transform="translate(24.925313 68.536036) scale(0.1 -0.1)">
       <defs>
        <path id="DejaVuSans-31" d="M 794 531 
L 1825 531 
L 1825 4091 
L 703 3866 
L 703 4441 
L 1819 4666 
L 2450 4666 
L 2450 531 
L 3481 531 
L 3481 0 
L 794 0 
L 794 531 
z
" transform="scale(0.015625)"/>
       </defs>
       <use xlink:href="#DejaVuSans-2212"/>
       <use xlink:href="#DejaVuSans-31" transform="translate(83.789062 0)"/>
       <use xlink:href="#DejaVuSans-30" transform="translate(147.412109 0)"/>
      </g>
     </g>
    </g>
    <g id="ytick_9">
     <g id="line2d_27">
      <path d="M 53.03 38.836362 
L 565.2 38.836362 
" clip-path="url(#p37ae7e287a)" style="fill: none; stroke: #b0b0b0; stroke-width: 0.8; stroke-linecap: square"/>
     </g>
     <g id="line2d_28">
      <g>
       <use xlink:href="#m72b6777e3a" x="53.03" y="38.836362" style="stroke: #000000; stroke-width: 0.8"/>
      </g>
     </g>
     <g id="text_15">
      <!-- 0 -->
      <g transform="translate(39.6675 42.635581) scale(0.1 -0.1)">
       <use xlink:href="#DejaVuSans-30"/>
      </g>
     </g>
    </g>
    <g id="text_16">
     <!-- Magnitude (dB) -->
     <g transform="translate(18.845625 174.685156) rotate(-90) scale(0.1 -0.1)">
      <defs>
       <path id="DejaVuSans-61" d="M 2194 1759 
Q 1497 1759 1228 1600 
Q 959 1441 959 1056 
Q 959 750 1161 570 
Q 1363 391 1709 391 
Q 2188 391 2477 730 
Q 2766 1069 2766 1631 
L 2766 1759 
L 2194 1759 
z
M 3341 1997 
L 3341 0 
L 2766 0 
L 2766 531 
Q 2569 213 2275 61 
Q 1981 -91 1556 -91 
Q 1019 -91 701 211 
Q 384 513 384 1019 
Q 384 1609 779 1909 
Q 1175 2209 1959 2209 
L 2766 2209 
L 2766 2266 
Q 2766 2663 2505 2880 
Q 2244 3097 1772 3097 
Q 1472 3097 1187 3025 
Q 903 2953 641 2809 
L 641 3341 
Q 956 3463 1253 3523 
Q 1550 3584 1831 3584 
Q 2591 3584 2966 3190 
Q 3341 2797 3341 1997 
z
" transform="scale(0.015625)"/>
       <path id="DejaVuSans-67" d="M 2906 1791 
Q 2906 2416 2648 2759 
Q 2391 3103 1925 3103 
Q 1463 3103 1205 2759 
Q 947 2416 947 1791 
Q 947 1169 1205 825 
Q 1463 481 1925 481 
Q 2391 481 2648 825 
Q 2906 1169 2906 1791 
z
M 3481 434 
Q 3481 -459 3084 -895 
Q 2688 -1331 1869 -1331 
Q 1566 -1331 1297 -1286 
Q 1028 -1241 775 -1147 
L 775 -588 
Q 1028 -725 1275 -790 
Q 1522 -856 1778 -856 
Q 2344 -856 2625 -561 
Q 2906 -266 2906 331 
L 2906 616 
Q 2728 306 2450 153 
Q 2172 0 1784 0 
Q 1141 0 747 490 
Q 353 981 353 1791 
Q 353 2603 747 3093 
Q 1141 3584 1784 3584 
Q 2172 3584 2450 3431 
Q 2728 3278 2906 2969 
L 2906 3500 
L 3481 3500 
L 3481 434 
z
" transform="scale(0.015625)"/>
       <path id="DejaVuSans-69" d="M 603 3500 
L 1178 3500 
L 1178 0 
L 603 0 
L 603 3500 
z
M 603 4863 
L 1178 4863 
L 1178 4134 
L 603 4134 
L 603 4863 
z
" transform="scale(0.015625)"/>
       <path id="DejaVuSans-74" d="M 1172 4494 
L 1172 3500 
L 2356 3500 
L 2356 3053 
L 1172 3053 
L 1172 1153 
Q 1172 725 1289 603 
Q 1406 481 1766 481 
L 2356 481 
L 2356 0 
L 1766 0 
Q 1100 0 847 248 
Q 594 497 594 1153 
L 594 3053 
L 172 3053 
L 172 3500 
L 594 3500 
L 594 4494 
L 1172 4494 
z
" transform="scale(0.015625)"/>
       <path id="DejaVuSans-64" d="M 2906 2969 
L 2906 4863 
L 3481 4863 
L 3481 0 
L 2906 0 
L 2906 525 
Q 2725 213 2448 61 
Q 2172 -91 1784 -91 
Q 1150 -91 751 415 
Q 353 922 353 1747 
Q 353 2572 751 3078 
Q 1150 3584 1784 3584 
Q 2172 3584 2448 3432 
Q 2725 3281 2906 2969 
z
M 947 1747 
Q 947 1113 1208 752 
Q 1469 391 1925 391 
Q 2381 391 2643 752 
Q 2906 1113 2906 1747 
Q 2906 2381 2643 2742 
Q 2381 3103 1925 3103 
Q 1469 3103 1208 2742 
Q 947 2381 947 1747 
z
" transform="scale(0.015625)"/>
       <path id="DejaVuSans-42" d="M 1259 2228 
L 1259 519 
L 2272 519 
Q 2781 519 3026 730 
Q 3272 941 3272 1375 
Q 3272 1813 3026 2020 
Q 2781 2228 2272 2228 
L 1259 2228 
z
M 1259 4147 
L 1259 2741 
L 2194 2741 
Q 2656 2741 2882 2914 
Q 3109 3088 3109 3444 
Q 3109 3797 2882 3972 
Q 2656 4147 2194 4147 
L 1259 4147 
z
M 628 4666 
L 2241 4666 
Q 2963 4666 3353 4366 
Q 3744 4066 3744 3513 
Q 3744 3084 3544 2831 
Q 3344 2578 2956 2516 
Q 3422 2416 3680 2098 
Q 3938 1781 3938 1306 
Q 3938 681 3513 340 
Q 3088 0 2303 0 
L 628 0 
L 628 4666 
z
" transform="scale(0.015625)"/>
      </defs>
      <use xlink:href="#DejaVuSans-4d"/>
      <use xlink:href="#DejaVuSans-61" transform="translate(86.279297 0)"/>
      <use xlink:href="#DejaVuSans-67" transform="translate(147.558594 0)"/>
      <use xlink:href="#DejaVuSans-6e" transform="translate(211.035156 0)"/>
      <use xlink:href="#DejaVuSans-69" transform="translate(274.414062 0)"/>
      <use xlink:href="#DejaVuSans-74" transform="translate(302.197266 0)"/>
      <use xlink:href="#DejaVuSans-75" transform="translate(341.40625 0)"/>
      <use xlink:href="#DejaVuSans-64" transform="translate(404.785156 0)"/>
      <use xlink:href="#DejaVuSans-65" transform="translate(468.261719 0)"/>
      <use xlink:href="#DejaVuSans-20" transform="translate(529.785156 0)"/>
      <use xlink:href="#DejaVuSans-28" transform="translate(561.572266 0)"/>
      <use xlink:href="#DejaVuSans-64" transform="translate(600.585938 0)"/>
      <use xlink:href="#DejaVuSans-42" transform="translate(664.0625 0)"/>
      <use xlink:href="#DejaVuSans-29" transform="translate(732.666016 0)"/>
     </g>
    </g>
   </g>
   <g id="line2d_29">
    <path d="M 53.03 171.514275 
L 53.280205 155.176025 
L 53.53041 154.62787 
L 53.780616 174.194722 
L 54.030821 180.542313 
L 54.281026 159.471021 
L 54.531231 150.19424 
L 54.781436 150.88112 
L 55.281847 145.91141 
L 55.532052 147.521051 
L 55.782257 156.193777 
L 56.282667 138.859563 
L 56.532872 141.340917 
L 56.783078 148.627102 
L 57.033283 147.973492 
L 57.283488 148.929073 
L 57.533693 170.478234 
L 57.783898 169.49174 
L 58.034104 166.078579 
L 58.534514 146.301366 
L 58.784719 158.764276 
L 59.034924 186.396773 
L 59.285129 153.342197 
L 59.535335 143.770051 
L 59.78554 149.198078 
L 60.035745 164.790544 
L 60.28595 156.844327 
L 60.536155 143.363837 
L 60.786361 136.874981 
L 61.036566 136.609899 
L 61.286771 137.098634 
L 61.536976 136.589789 
L 61.787181 134.4023 
L 62.037386 137.86527 
L 62.287592 157.54344 
L 62.537797 162.286396 
L 62.788002 146.802285 
L 63.288412 155.697114 
L 63.538617 148.997301 
L 63.788823 157.547774 
L 64.039028 174.551876 
L 64.289233 170.685449 
L 64.789643 154.348169 
L 65.039849 152.579105 
L 65.540259 188.272316 
L 65.790464 167.665596 
L 66.040669 173.092337 
L 66.791285 139.914576 
L 67.04149 135.850749 
L 67.291695 145.994884 
L 67.5419 167.311638 
L 67.792106 144.591879 
L 68.042311 142.914779 
L 68.292516 143.893632 
L 68.542721 139.731666 
L 68.792926 137.646149 
L 69.293337 152.215547 
L 69.543542 148.578257 
L 69.793747 152.644558 
L 70.043952 176.136832 
L 70.294157 174.596445 
L 70.544362 152.637563 
L 70.794568 147.122594 
L 71.044773 150.287147 
L 71.294978 162.456855 
L 71.545183 183.343303 
L 71.795388 143.370314 
L 72.045594 132.709007 
L 72.295799 134.565281 
L 72.546004 154.731685 
L 72.796209 163.427953 
L 73.046414 144.494315 
L 73.296619 141.561498 
L 73.546825 148.787618 
L 73.79703 164.199292 
L 74.047235 155.169095 
L 74.29744 154.405073 
L 74.547645 163.746441 
L 74.797851 168.656389 
L 75.048056 179.945672 
L 75.298261 223.184004 
L 75.548466 163.709602 
L 75.798671 148.89239 
L 76.048876 146.916941 
L 76.299082 155.004886 
L 76.549287 167.360537 
L 76.799492 164.132931 
L 77.049697 151.995835 
L 77.299902 148.176062 
L 77.550107 154.70349 
L 77.800313 175.934366 
L 78.050518 171.725369 
L 78.300723 149.37908 
L 78.550928 144.215889 
L 78.801133 144.64676 
L 79.051339 143.143137 
L 79.301544 137.174426 
L 79.551749 136.327853 
L 80.052159 155.875722 
L 80.302364 153.72461 
L 80.55257 152.845867 
L 80.802775 152.373462 
L 81.05298 148.837026 
L 81.303185 149.951673 
L 81.55339 156.844364 
L 81.803596 151.069273 
L 82.053801 149.111894 
L 82.304006 157.494451 
L 82.554211 183.592219 
L 82.804416 180.968595 
L 83.054621 157.035305 
L 83.304827 151.810834 
L 83.555032 158.757788 
L 84.055442 143.501971 
L 84.305647 146.697963 
L 84.555852 174.55167 
L 84.806058 144.575264 
L 85.056263 139.557403 
L 85.306468 145.753413 
L 85.556673 146.297086 
L 85.806878 148.450643 
L 86.057084 168.698452 
L 86.307289 153.421966 
L 86.557494 148.444122 
L 86.807699 153.190009 
L 87.057904 150.499419 
L 87.308109 150.628207 
L 87.558315 152.156095 
L 87.80852 149.710264 
L 88.058725 148.400925 
L 88.30893 154.020204 
L 88.559135 148.267194 
L 88.80934 145.445496 
L 89.059546 155.429472 
L 89.559956 188.158146 
L 89.810161 208.974274 
L 90.060366 171.298194 
L 90.310572 152.673328 
L 90.560777 146.681411 
L 90.810982 148.680401 
L 91.061187 153.358171 
L 91.311392 162.583919 
L 91.561597 163.09986 
L 91.811803 150.121668 
L 92.062008 153.607408 
L 92.312213 181.239653 
L 92.562418 182.380454 
L 92.812623 166.111341 
L 93.062829 171.889624 
L 93.313034 173.461667 
L 93.563239 157.804779 
L 93.813444 168.23365 
L 94.063649 166.67537 
L 94.313854 145.291987 
L 94.56406 140.831117 
L 94.814265 139.376826 
L 95.06447 140.188865 
L 95.56488 156.574805 
L 95.815085 168.377739 
L 96.065291 171.54892 
L 96.315496 165.928734 
L 96.565701 180.236505 
L 97.066111 150.183872 
L 97.316317 152.555486 
L 97.566522 166.596699 
L 97.816727 168.967449 
L 98.066932 165.165107 
L 98.567342 136.814127 
L 98.817548 130.924494 
L 99.067753 134.509068 
L 99.317958 144.55959 
L 99.818368 179.442724 
L 100.068574 158.367154 
L 100.318779 154.366985 
L 100.568984 168.752646 
L 100.819189 170.027434 
L 101.069394 149.211773 
L 101.319599 146.310297 
L 101.82001 167.781686 
L 102.070215 168.386518 
L 102.32042 179.020561 
L 102.82083 182.571208 
L 103.071036 157.287997 
L 103.321241 151.015429 
L 103.821651 167.715864 
L 104.322062 135.769069 
L 104.572267 136.323383 
L 104.822472 146.025857 
L 105.322882 173.562086 
L 106.073498 152.752863 
L 106.323703 151.316383 
L 106.573908 155.577962 
L 107.074319 135.867592 
L 107.324524 135.355885 
L 107.574729 140.599491 
L 107.824934 151.158961 
L 108.325344 198.436346 
L 108.57555 178.834474 
L 108.825755 176.831738 
L 109.57637 155.561939 
L 109.826575 150.824602 
L 110.076781 156.650823 
L 110.326986 154.940597 
L 110.577191 150.120176 
L 111.077601 161.067934 
L 111.327807 156.958097 
L 111.578012 155.928903 
L 112.078422 167.399165 
L 112.328627 160.663613 
L 112.578832 158.760584 
L 112.829038 178.281598 
L 113.329448 164.184549 
L 114.080064 132.417518 
L 114.330269 130.519342 
L 114.580474 135.738178 
L 115.080884 155.352229 
L 115.581295 149.714075 
L 115.8315 155.342499 
L 116.081705 176.922167 
L 116.33191 164.874071 
L 116.582115 178.996961 
L 116.83232 154.763056 
L 117.082526 141.870556 
L 117.332731 148.929358 
L 117.582936 176.298553 
L 117.833141 164.354334 
L 118.083346 144.891773 
L 118.333552 146.424788 
L 118.583757 158.896753 
L 119.084167 140.690132 
L 119.334372 141.61009 
L 119.584577 159.695032 
L 119.834783 167.130315 
L 120.084988 162.944893 
L 120.335193 162.883724 
L 120.585398 160.266744 
L 120.835603 177.832924 
L 121.085809 147.569125 
L 121.336014 133.052331 
L 121.586219 130.389763 
L 121.836424 135.404033 
L 122.336834 160.830303 
L 122.58704 161.166751 
L 122.837245 160.761471 
L 123.08745 158.867245 
L 123.337655 151.129957 
L 123.58786 150.93284 
L 124.088271 167.586716 
L 124.338476 143.790088 
L 124.588681 135.304497 
L 124.838886 134.655932 
L 125.339297 144.2432 
L 125.589502 146.121529 
L 125.839707 153.641406 
L 126.089912 166.685734 
L 126.340117 154.595297 
L 126.590322 148.396348 
L 126.840528 147.888927 
L 127.090733 148.060691 
L 127.340938 150.56213 
L 127.591143 149.141621 
L 127.841348 142.877725 
L 128.091553 141.426191 
L 128.341759 144.750146 
L 129.092374 162.299747 
L 129.342579 162.457393 
L 129.592785 160.003573 
L 129.84299 165.1292 
L 130.593605 190.296426 
L 130.84381 231.843283 
L 131.094016 203.784827 
L 131.344221 212.366048 
L 131.594426 206.603542 
L 131.844631 225.885923 
L 132.094836 200.083729 
L 132.345042 189.949605 
L 132.595247 198.324666 
L 132.845452 234.509383 
L 133.095657 219.821542 
L 133.345862 218.716584 
L 133.596067 222.904927 
L 134.096478 248.585401 
L 134.346683 249.062787 
L 134.596888 238.901701 
L 134.847093 236.261637 
L 135.347504 243.743666 
L 136.098119 219.459889 
L 136.348324 220.512848 
L 136.59853 229.236984 
L 136.848735 261.58533 
L 137.349145 231.985323 
L 137.59935 228.938817 
L 137.849555 237.879605 
L 138.099761 258.430561 
L 138.349966 265.359173 
L 138.850376 241.070427 
L 139.100581 238.968901 
L 139.350787 239.781392 
L 139.851197 223.119035 
L 140.101402 222.607947 
L 140.601812 216.213527 
L 140.852018 220.877601 
L 141.102223 235.585403 
L 141.352428 235.89987 
L 141.602633 225.251589 
L 141.852838 224.332119 
L 142.103043 225.174303 
L 142.603454 216.805256 
L 142.853659 218.072988 
L 143.354069 244.78533 
L 144.35489 213.475741 
L 144.605095 217.554534 
L 145.105506 240.751522 
L 145.355711 246.97091 
L 145.605916 260.395836 
L 145.856121 248.026912 
L 146.106326 227.131843 
L 146.356532 216.883859 
L 146.606737 213.862973 
L 146.856942 214.693673 
L 147.107147 217.809993 
L 147.357352 222.495692 
L 147.607557 223.349845 
L 147.857763 225.347388 
L 148.107968 234.745372 
L 148.358173 231.492033 
L 148.608378 238.139695 
L 148.858583 260.829946 
L 149.108788 234.860737 
L 149.358994 250.477613 
L 149.609199 241.003529 
L 149.859404 249.664471 
L 150.359814 219.075965 
L 150.61002 219.791252 
L 151.11043 239.146372 
L 151.360635 242.428937 
L 151.61084 240.4934 
L 152.111251 224.865414 
L 152.361456 225.973738 
L 152.611661 237.924946 
L 152.861866 235.110294 
L 153.112071 227.634008 
L 153.362277 224.66142 
L 153.612482 225.811446 
L 153.862687 233.74626 
L 154.112892 246.691956 
L 154.613302 210.964113 
L 155.113713 134.13306 
L 155.363918 117.654468 
L 155.614123 116.240616 
L 155.864328 129.916549 
L 156.114533 161.643374 
L 156.364739 228.757581 
L 156.614944 231.546382 
L 156.865149 237.330834 
L 157.115354 228.278482 
L 157.615765 231.388486 
L 157.86597 221.759245 
L 158.116175 221.075098 
L 158.36638 239.252944 
L 158.616585 228.78755 
L 158.86679 222.975437 
L 159.367201 262.226462 
L 159.617406 247.144739 
L 160.117816 122.774724 
L 160.368021 97.880402 
L 160.618227 89.241494 
L 160.868432 95.501829 
L 161.118637 117.639393 
L 161.368842 159.833692 
L 161.619047 226.235833 
L 161.869253 234.515517 
L 162.369663 225.533888 
L 162.870073 245.680993 
L 163.120278 270.657036 
L 163.370484 238.480392 
L 163.870894 213.256397 
L 164.121099 209.705195 
L 164.371304 213.501882 
L 164.62151 224.992999 
L 164.871715 245.103265 
L 165.12192 230.495409 
L 165.372125 231.565087 
L 165.62233 251.395844 
L 165.872535 262.129087 
L 166.122741 244.660864 
L 166.372946 240.48428 
L 166.873356 255.56421 
L 167.373766 225.800553 
L 167.623972 231.822403 
L 167.874177 257.605587 
L 168.124382 249.83763 
L 168.374587 247.66057 
L 168.624792 229.101959 
L 168.874998 222.08118 
L 169.125203 232.629082 
L 169.375408 259.709678 
L 169.625613 229.812174 
L 169.875818 229.616936 
L 170.126023 246.836755 
L 170.626434 218.652221 
L 170.876639 221.313804 
L 171.126844 254.980953 
L 171.377049 236.946341 
L 171.627255 242.799314 
L 171.87746 239.983582 
L 172.127665 226.909388 
L 172.37787 230.3378 
L 172.628075 242.570367 
L 172.87828 230.273804 
L 173.128486 224.22121 
L 173.378691 234.099574 
L 173.628896 227.570955 
L 173.879101 216.335463 
L 174.129306 216.178053 
L 174.379511 218.707012 
L 174.879922 225.848068 
L 175.130127 234.803493 
L 175.380332 248.256977 
L 175.630537 227.405558 
L 176.130948 239.287788 
L 176.381153 233.873894 
L 176.631358 240.98507 
L 176.881563 252.186469 
L 177.131768 244.949714 
L 177.381974 228.438522 
L 177.632179 228.299785 
L 177.882384 246.850679 
L 178.132589 235.883941 
L 178.382794 235.576167 
L 178.633 233.898303 
L 178.883205 218.267968 
L 179.13341 216.411053 
L 179.884025 242.229053 
L 180.134231 234.712098 
L 180.384436 223.397382 
L 180.634641 217.954486 
L 180.884846 225.348624 
L 181.135051 267.412652 
L 181.385256 232.38242 
L 181.635462 231.937673 
L 181.885667 239.457297 
L 182.135872 222.965607 
L 182.386077 219.468554 
L 182.636282 219.921653 
L 182.886488 218.829771 
L 183.136693 218.404031 
L 183.386898 226.340549 
L 183.637103 266.896132 
L 183.887308 243.699536 
L 184.137513 246.929101 
L 184.387719 257.251936 
L 184.637924 250.92503 
L 184.888129 249.030652 
L 185.138334 239.075865 
L 185.638745 268.097333 
L 185.88895 269.30862 
L 186.139155 240.720244 
L 186.38936 230.408977 
L 186.639565 237.342615 
L 186.88977 236.098195 
L 187.139976 232.782625 
L 187.390181 247.236856 
L 187.640386 272.573071 
L 187.890591 248.865202 
L 188.140796 252.370867 
L 188.391001 245.396183 
L 188.891412 258.366277 
L 189.141617 245.7789 
L 189.391822 240.618747 
L 189.642027 232.759387 
L 189.892233 230.080547 
L 190.392643 240.357082 
L 190.893053 222.127956 
L 191.143258 220.041496 
L 191.643669 213.07655 
L 191.893874 219.373529 
L 192.144079 248.024258 
L 192.394284 244.455559 
L 192.644489 233.212096 
L 192.894695 241.815699 
L 193.1449 239.977504 
L 193.395105 231.375622 
L 193.64531 228.404286 
L 193.895515 226.846795 
L 194.395926 220.465322 
L 194.646131 220.557438 
L 194.896336 224.361821 
L 195.146541 223.149153 
L 195.396746 220.981884 
L 195.897157 84.766222 
L 196.147362 53.051626 
L 196.397567 38.836362 
L 196.647772 39.721806 
L 196.897978 55.834421 
L 197.148183 89.920321 
L 197.398388 150.575662 
L 197.648593 267.672936 
L 197.898798 254.199756 
L 198.149003 249.128798 
L 198.399209 281.269836 
L 198.649414 230.567179 
L 198.899619 218.549713 
L 199.149824 218.943156 
L 199.400029 234.39153 
L 199.650234 241.970224 
L 199.90044 237.35836 
L 200.150645 251.122731 
L 200.40085 253.469865 
L 200.651055 234.077261 
L 200.90126 226.970987 
L 201.151466 227.747707 
L 201.401671 230.671652 
L 201.902081 226.141103 
L 202.152286 233.016743 
L 202.402491 243.562292 
L 202.902902 228.272487 
L 203.153107 231.301659 
L 203.403312 245.565856 
L 203.903723 224.251535 
L 204.153928 227.644346 
L 204.654338 241.720208 
L 204.904543 225.683403 
L 205.154748 229.077147 
L 205.404954 246.559995 
L 205.655159 250.968378 
L 205.905364 259.612099 
L 206.155569 234.123566 
L 206.405774 223.495094 
L 206.655979 220.149091 
L 206.906185 223.505179 
L 207.6568 237.777545 
L 207.907005 241.120142 
L 208.407416 234.049331 
L 208.657621 247.697023 
L 209.158031 236.111513 
L 209.408236 242.723865 
L 209.658442 238.262595 
L 210.158852 215.869172 
L 210.409057 214.173468 
L 210.659262 219.455685 
L 210.909468 220.569402 
L 211.159673 223.280784 
L 211.409878 234.269067 
L 211.660083 279.529727 
L 211.910288 244.76956 
L 212.160493 240.755936 
L 212.410699 246.42458 
L 212.660904 243.836673 
L 212.911109 243.199957 
L 213.161314 224.049403 
L 213.411519 226.934493 
L 213.661724 234.701379 
L 214.162135 256.080306 
L 214.41234 255.567825 
L 214.91275 243.429869 
L 215.162956 254.924379 
L 215.413161 240.393245 
L 215.663366 256.974893 
L 216.413981 220.340823 
L 216.664187 227.700964 
L 216.914392 249.897491 
L 217.414802 237.215416 
L 217.665007 249.735381 
L 217.915213 246.169622 
L 218.165418 226.578261 
L 218.415623 221.921451 
L 218.665828 224.921955 
L 218.916033 230.020249 
L 219.166238 238.962696 
L 219.416444 239.512888 
L 219.666649 226.254843 
L 219.916854 227.619847 
L 220.167059 226.674285 
L 220.417264 223.973586 
L 220.667469 235.163164 
L 220.917675 253.537472 
L 221.16788 205.530892 
L 221.418085 129.520447 
L 221.66829 89.221871 
L 221.918495 68.516983 
L 222.168701 63.486024 
L 222.418906 73.363651 
L 222.669111 99.733874 
L 222.919316 148.187213 
L 223.169521 228.96747 
L 223.419726 232.411109 
L 223.920137 223.017342 
L 224.170342 221.903101 
L 224.420547 227.484886 
L 224.670752 229.536491 
L 224.920957 235.243672 
L 225.171163 230.205159 
L 225.421368 222.463175 
L 225.671573 225.298091 
L 225.921778 230.500452 
L 226.171983 229.505669 
L 226.672394 220.320093 
L 226.922599 220.141943 
L 227.172804 220.986771 
L 227.423009 226.852247 
L 227.673214 239.614706 
L 227.92342 263.407557 
L 228.375463 289 
M 228.4438 289 
L 228.674035 250.220225 
L 228.92424 233.164887 
L 229.174446 230.648056 
L 229.424651 219.130364 
L 229.674856 221.008646 
L 229.925061 223.750132 
L 230.425471 197.474345 
L 230.675677 196.363537 
L 230.925882 207.582383 
L 231.176087 202.747737 
L 231.426292 176.875405 
L 231.676497 166.940819 
L 231.926702 165.218285 
L 232.427113 159.64949 
L 232.927523 179.549049 
L 233.177728 165.362847 
L 233.678139 188.772002 
L 234.178549 148.128698 
L 234.428754 142.30785 
L 234.678959 145.524354 
L 235.17937 172.984534 
L 235.67978 144.483464 
L 235.929985 138.926097 
L 236.180191 140.273272 
L 236.430396 151.586728 
L 236.680601 190.167122 
L 237.181011 155.108356 
L 237.431216 154.832183 
L 237.681422 158.919395 
L 237.931627 155.86764 
L 238.181832 150.888383 
L 238.432037 155.063443 
L 238.682242 169.72002 
L 239.182653 180.515968 
L 239.432858 166.484239 
L 239.683063 159.573782 
L 239.933268 158.403997 
L 240.183473 153.029845 
L 240.433679 155.976045 
L 240.683884 155.740306 
L 240.934089 147.999419 
L 241.184294 146.659681 
L 241.434499 147.277556 
L 241.684704 145.96979 
L 242.185115 140.886939 
L 242.43532 143.644152 
L 242.685525 150.625824 
L 242.93573 148.889596 
L 243.185936 143.98638 
L 243.436141 146.519111 
L 243.936551 163.42242 
L 244.186756 159.139398 
L 244.436961 158.024875 
L 244.687167 163.351053 
L 244.937372 184.945788 
L 245.187577 184.852995 
L 245.437782 202.5401 
L 245.687987 164.824818 
L 245.938192 154.244293 
L 246.188398 161.287056 
L 246.438603 158.513589 
L 246.688808 161.90468 
L 246.939013 176.843637 
L 247.189218 161.041221 
L 247.439424 166.966156 
L 247.689629 168.181508 
L 248.190039 138.858859 
L 248.440244 138.958708 
L 248.690449 150.177023 
L 248.940655 188.723853 
L 249.19086 158.287373 
L 249.441065 146.41269 
L 249.69127 146.288686 
L 249.941475 154.661718 
L 250.191681 151.980913 
L 250.441886 146.318185 
L 250.692091 155.115706 
L 250.942296 216.347055 
L 251.192501 163.854755 
L 251.442706 157.710119 
L 251.692912 154.836403 
L 251.943117 154.971091 
L 252.193322 155.775016 
L 252.443527 149.718644 
L 252.693732 150.11577 
L 253.194143 170.965314 
L 253.444348 170.317105 
L 253.944758 150.106456 
L 254.194963 148.039998 
L 254.445169 156.59586 
L 254.695374 160.373375 
L 254.945579 150.309929 
L 255.195784 152.205316 
L 255.445989 175.594417 
L 255.696194 148.754898 
L 255.9464 136.736179 
L 256.196605 135.109896 
L 256.697015 147.941282 
L 256.94722 144.471364 
L 257.197426 154.674172 
L 257.447631 212.586607 
L 257.697836 160.205948 
L 257.948041 146.438049 
L 258.198246 142.482289 
L 258.448451 141.558477 
L 258.948862 144.230982 
L 259.199067 148.610918 
L 259.699477 140.342837 
L 259.949682 157.514436 
L 260.199888 166.23673 
L 260.450093 150.198816 
L 260.700298 153.964748 
L 260.950503 167.781682 
L 261.200708 190.053604 
L 261.951324 150.976997 
L 262.201529 154.214839 
L 262.451734 173.593022 
L 262.952145 144.5769 
L 263.20235 146.324119 
L 263.452555 150.989869 
L 263.952965 132.883555 
L 264.20317 133.06512 
L 264.703581 146.146853 
L 264.953786 155.826067 
L 265.454196 182.856584 
L 265.704402 189.011659 
L 265.954607 162.900333 
L 266.204812 154.645807 
L 266.455017 164.601249 
L 266.705222 189.616114 
L 266.955427 185.509247 
L 267.205633 159.917442 
L 267.455838 151.852803 
L 267.706043 149.531629 
L 267.956248 152.673597 
L 268.456659 171.542815 
L 268.706864 179.801014 
L 268.957069 147.513335 
L 269.207274 143.845035 
L 269.457479 148.216551 
L 269.707684 148.732496 
L 269.95789 145.344759 
L 270.208095 144.516461 
L 270.4583 154.185786 
L 270.708505 178.950401 
L 270.95871 183.850329 
L 271.459121 139.762569 
L 271.709326 143.86623 
L 271.959531 168.125736 
L 272.209736 149.40575 
L 272.459941 145.576145 
L 272.710147 148.36289 
L 272.960352 158.49051 
L 273.210557 158.223511 
L 273.460762 141.716934 
L 273.710967 144.628652 
L 274.211378 182.708801 
L 274.461583 173.931091 
L 274.711788 169.253777 
L 275.462404 147.473827 
L 275.712609 149.362991 
L 275.962814 164.082602 
L 276.213019 146.427576 
L 276.463224 140.479122 
L 276.713429 139.792034 
L 276.963635 141.559677 
L 277.21384 145.280981 
L 277.71425 134.93472 
L 277.964455 138.137715 
L 278.464866 159.359694 
L 278.715071 164.974826 
L 279.215481 150.305607 
L 279.465686 150.053416 
L 279.715892 144.194211 
L 279.966097 142.544061 
L 280.466507 155.406701 
L 280.716712 149.260965 
L 280.966917 151.672885 
L 281.217123 176.994767 
L 281.467328 151.79311 
L 281.717533 141.322792 
L 282.217943 149.730347 
L 282.468149 143.775902 
L 282.718354 144.040608 
L 282.968559 160.054302 
L 283.218764 160.85118 
L 283.468969 149.236534 
L 283.96938 142.616818 
L 284.219585 142.670978 
L 284.46979 151.022834 
L 285.220405 205.269905 
L 286.221226 149.148897 
L 286.471431 145.653899 
L 286.721637 154.613468 
L 286.971842 224.509362 
L 287.222047 155.605477 
L 287.472252 145.029716 
L 287.722457 147.688794 
L 287.972662 167.229754 
L 288.222868 177.938175 
L 288.473073 152.734802 
L 288.723278 148.612466 
L 289.223688 172.127793 
L 289.473894 172.560111 
L 289.724099 164.485986 
L 289.974304 163.285001 
L 290.224509 160.031871 
L 290.474714 150.126688 
L 290.724919 147.738482 
L 290.975125 154.348352 
L 291.22533 157.399299 
L 291.475535 155.313289 
L 291.72574 161.547721 
L 292.22615 186.570932 
L 292.476356 172.255006 
L 292.726561 187.312434 
L 293.226971 147.076227 
L 293.477176 143.910269 
L 293.727382 145.12255 
L 293.977587 145.729197 
L 294.227792 147.937192 
L 294.477997 153.017027 
L 294.728202 185.019003 
L 294.978407 158.927645 
L 295.228613 157.726521 
L 295.478818 186.574198 
L 295.729023 176.740406 
L 295.979228 151.661618 
L 296.229433 148.819828 
L 296.729844 163.573596 
L 296.980049 177.696409 
L 297.230254 143.511869 
L 297.480459 139.524569 
L 297.730664 144.132336 
L 297.98087 142.94931 
L 298.231075 145.262732 
L 298.48128 151.764859 
L 298.731485 151.649948 
L 298.98169 155.961538 
L 299.231895 177.021876 
L 299.732306 144.833922 
L 299.982511 144.412283 
L 300.482921 161.934124 
L 300.733127 159.875766 
L 301.233537 149.744682 
L 301.483742 155.078483 
L 301.733947 177.572991 
L 302.484563 165.556129 
L 302.734768 167.440886 
L 302.984973 194.852328 
L 303.235178 169.166694 
L 303.485383 160.312302 
L 303.735589 160.751337 
L 303.985794 170.240197 
L 304.235999 194.56288 
L 304.736409 155.768508 
L 304.986615 146.981651 
L 305.23682 142.580136 
L 305.487025 142.523458 
L 305.73723 145.870403 
L 305.987435 141.357948 
L 306.23764 133.477708 
L 306.487846 135.210842 
L 306.738051 148.761099 
L 306.988256 171.246754 
L 307.488666 182.080438 
L 307.738872 153.362005 
L 307.989077 148.32246 
L 308.239282 165.808464 
L 308.489487 167.515714 
L 308.739692 153.325795 
L 308.989897 150.701362 
L 309.240103 152.121571 
L 309.490308 150.701362 
L 309.740513 153.325795 
L 309.990718 167.515714 
L 310.240923 165.808464 
L 310.491128 148.32246 
L 310.741334 153.362005 
L 310.991539 182.080438 
L 311.491949 171.246754 
L 311.99236 135.210842 
L 312.242565 133.477708 
L 312.742975 145.870403 
L 312.99318 142.523458 
L 313.243385 142.580136 
L 313.493591 146.981651 
L 313.743796 155.768508 
L 314.244206 194.56288 
L 314.494411 170.240197 
L 314.744617 160.751337 
L 314.994822 160.312302 
L 315.245027 169.166694 
L 315.495232 194.852328 
L 315.745437 167.440886 
L 315.995642 165.556129 
L 316.245848 168.252015 
L 316.746258 177.572991 
L 316.996463 155.078483 
L 317.246668 149.744682 
L 317.997284 161.934124 
L 318.497694 144.412283 
L 318.747899 144.833922 
L 318.998105 156.620913 
L 319.24831 177.021876 
L 319.498515 155.961538 
L 319.74872 151.649948 
L 319.998925 151.764859 
L 320.24913 145.262732 
L 320.499336 142.94931 
L 320.749541 144.132336 
L 320.999746 139.524569 
L 321.249951 143.511869 
L 321.500156 177.696409 
L 321.750362 163.573596 
L 322.250772 148.819828 
L 322.500977 151.661618 
L 322.751182 176.740406 
L 323.001387 186.574198 
L 323.251593 157.726521 
L 323.501798 158.927645 
L 323.752003 185.019003 
L 324.002208 153.017027 
L 324.252413 147.937192 
L 324.502618 145.729197 
L 324.752824 145.12255 
L 325.003029 143.910269 
L 325.253234 147.076227 
L 325.753644 187.312434 
L 326.00385 172.255006 
L 326.254055 186.570932 
L 326.754465 161.547721 
L 327.00467 155.313289 
L 327.254875 157.399299 
L 327.505081 154.348352 
L 327.755286 147.738482 
L 328.005491 150.126688 
L 328.255696 160.031871 
L 328.505901 163.285001 
L 328.756106 164.485986 
L 329.006312 172.560111 
L 329.256517 172.127793 
L 329.756927 148.612466 
L 330.007132 152.734802 
L 330.257338 177.938175 
L 330.507543 167.229754 
L 330.757748 147.688794 
L 331.007953 145.029716 
L 331.258158 155.605477 
L 331.508363 224.509362 
L 331.758569 154.613468 
L 332.008774 145.653899 
L 332.258979 149.148897 
L 333.2598 205.269905 
L 333.510005 180.241532 
L 333.76021 169.047 
L 334.010415 151.022834 
L 334.26062 142.670978 
L 334.510826 142.616818 
L 335.011236 149.236534 
L 335.261441 160.85118 
L 335.511646 160.054302 
L 335.761851 144.040608 
L 336.012057 143.775902 
L 336.262262 149.730347 
L 336.762672 141.322792 
L 337.012877 151.79311 
L 337.263083 176.994767 
L 337.513288 151.672885 
L 337.763493 149.260965 
L 338.013698 155.406701 
L 338.514108 142.544061 
L 338.764314 144.194211 
L 339.014519 150.053416 
L 339.264724 150.305607 
L 339.765134 164.974826 
L 340.01534 159.359694 
L 340.51575 138.137715 
L 340.765955 134.93472 
L 341.266365 145.280981 
L 341.516571 141.559677 
L 341.766776 139.792034 
L 342.016981 140.479122 
L 342.267186 146.427576 
L 342.517391 164.082602 
L 342.767596 149.362991 
L 343.017802 147.473827 
L 343.518212 162.060145 
L 344.268828 182.708801 
L 344.519033 169.039313 
L 344.769238 144.628652 
L 345.019443 141.716934 
L 345.269648 158.223511 
L 345.519853 158.49051 
L 345.770059 148.36289 
L 346.020264 145.576145 
L 346.270469 149.40575 
L 346.520674 168.125736 
L 346.770879 143.86623 
L 347.021085 139.762569 
L 347.27129 157.335545 
L 347.521495 183.850329 
L 347.7717 178.950401 
L 348.021905 154.185786 
L 348.27211 144.516461 
L 348.522316 145.344759 
L 348.772521 148.732496 
L 349.022726 148.216551 
L 349.272931 143.845035 
L 349.523136 147.513335 
L 349.773341 179.801014 
L 350.774162 149.531629 
L 351.024367 151.852803 
L 351.274573 159.917442 
L 351.524778 185.509247 
L 351.774983 189.616114 
L 352.025188 164.601249 
L 352.275393 154.645807 
L 352.525598 162.900333 
L 352.775804 189.011659 
L 353.026009 182.856584 
L 354.02683 138.862147 
L 354.277035 133.06512 
L 354.52724 132.883555 
L 355.02765 150.989869 
L 355.277855 146.324119 
L 355.528061 144.5769 
L 356.028471 173.593022 
L 356.278676 154.214839 
L 356.528881 150.976997 
L 356.779086 156.550394 
L 357.279497 190.053604 
L 357.779907 153.964748 
L 358.030112 150.198816 
L 358.280318 166.23673 
L 358.530523 157.514436 
L 358.780728 140.342837 
L 359.281138 148.610918 
L 359.531343 144.230982 
L 360.031754 141.558477 
L 360.281959 142.482289 
L 360.532164 146.438049 
L 360.782369 160.205948 
L 361.032574 212.586607 
L 361.28278 154.674172 
L 361.532985 144.471364 
L 361.78319 147.941282 
L 362.2836 135.109896 
L 362.533806 136.736179 
L 362.784011 148.754898 
L 363.034216 175.594417 
L 363.284421 152.205316 
L 363.534626 150.309929 
L 363.784831 160.373375 
L 364.035037 156.59586 
L 364.285242 148.039998 
L 364.535447 150.106456 
L 365.035857 170.317105 
L 365.286063 170.965314 
L 365.786473 150.11577 
L 366.036678 149.718644 
L 366.286883 155.775016 
L 366.537088 154.971091 
L 366.787294 154.836403 
L 367.037499 157.710119 
L 367.287704 163.854755 
L 367.537909 216.347055 
L 367.788114 155.115706 
L 368.038319 146.318185 
L 368.288525 151.980913 
L 368.53873 154.661718 
L 368.788935 146.288686 
L 369.03914 146.41269 
L 369.289345 158.287373 
L 369.539551 188.723853 
L 369.789756 150.177023 
L 370.039961 138.958708 
L 370.290166 138.858859 
L 370.540371 149.369582 
L 370.790576 168.181508 
L 371.040782 166.966156 
L 371.290987 161.041221 
L 371.541192 176.843637 
L 371.791397 161.90468 
L 372.041602 158.513589 
L 372.291808 161.287056 
L 372.542013 154.244293 
L 372.792218 164.824818 
L 373.042423 202.5401 
L 373.292628 184.852995 
L 373.542833 184.945788 
L 373.793039 163.351053 
L 374.043244 158.024875 
L 374.293449 159.139398 
L 374.543654 163.42242 
L 374.793859 156.848381 
L 375.044064 146.519111 
L 375.29427 143.98638 
L 375.544475 148.889596 
L 375.79468 150.625824 
L 376.044885 143.644152 
L 376.29509 140.886939 
L 377.045706 147.277556 
L 377.295911 146.659681 
L 377.546116 147.999419 
L 377.796321 155.740306 
L 378.046527 155.976045 
L 378.296732 153.029845 
L 378.546937 158.403997 
L 378.797142 159.573782 
L 379.047347 166.484239 
L 379.297553 180.515968 
L 379.797963 169.72002 
L 380.048168 155.063443 
L 380.298373 150.888383 
L 380.798784 158.919395 
L 381.048989 154.832183 
L 381.299194 155.108356 
L 381.549399 168.69641 
L 381.799604 190.167122 
L 382.049809 151.586728 
L 382.300015 140.273272 
L 382.55022 138.926097 
L 382.800425 144.483464 
L 383.05063 156.099761 
L 383.300835 172.984534 
L 383.801246 145.524354 
L 384.051451 142.30785 
L 384.301656 148.128698 
L 384.551861 163.323896 
L 384.802066 188.772002 
L 385.302477 165.362847 
L 385.552682 179.549049 
L 386.053092 159.64949 
L 386.803708 166.940819 
L 387.053913 176.875405 
L 387.304118 202.747737 
L 387.554323 207.582383 
L 387.804529 196.363537 
L 388.054734 197.474345 
L 388.304939 207.308044 
L 388.555144 223.750132 
L 389.055554 219.130364 
L 389.30576 230.648056 
L 389.555965 233.164887 
L 389.80617 250.220225 
L 390.036405 289 
M 390.104742 289 
L 391.057196 226.852247 
L 391.307401 220.986771 
L 391.557606 220.141943 
L 391.807811 220.320093 
L 392.058017 223.819025 
L 392.308222 229.505669 
L 392.558427 230.500452 
L 392.808632 225.298091 
L 393.058837 222.463175 
L 393.559248 235.243672 
L 393.809453 229.536491 
L 394.059658 227.484886 
L 394.309863 221.903101 
L 394.560068 223.017342 
L 395.060479 232.411109 
L 395.310684 228.96747 
L 395.811094 99.733874 
L 396.061299 73.363651 
L 396.311505 63.486024 
L 396.56171 68.516983 
L 396.811915 89.221871 
L 397.06212 129.520447 
L 397.562531 253.537472 
L 398.062941 223.973586 
L 398.313146 226.674285 
L 398.563351 227.619847 
L 398.813556 226.254843 
L 399.063762 239.512888 
L 399.313967 238.962696 
L 399.814377 224.921955 
L 400.064582 221.921451 
L 400.314787 226.578261 
L 400.564993 246.169622 
L 400.815198 249.735381 
L 401.065403 237.215416 
L 401.315608 242.019692 
L 401.565813 249.897491 
L 401.816019 227.700964 
L 402.066224 220.340823 
L 402.316429 225.616733 
L 402.816839 256.974893 
L 403.067044 240.393245 
L 403.31725 254.924379 
L 403.567455 243.429869 
L 404.067865 255.567825 
L 404.31807 256.080306 
L 405.068686 226.934493 
L 405.318891 224.049403 
L 405.569096 243.199957 
L 405.819301 243.836673 
L 406.069507 246.42458 
L 406.319712 240.755936 
L 406.569917 244.76956 
L 406.820122 279.529727 
L 407.070327 234.269067 
L 407.320532 223.280784 
L 407.570738 220.569402 
L 407.820943 219.455685 
L 408.071148 214.173468 
L 408.321353 215.869172 
L 408.821764 238.262595 
L 409.071969 242.723865 
L 409.322174 236.111513 
L 409.822584 247.697023 
L 410.072789 234.049331 
L 410.5732 241.120142 
L 410.823405 237.777545 
L 411.07361 231.756181 
L 411.323815 228.583032 
L 411.824226 220.149091 
L 412.074431 223.495094 
L 412.324636 234.123566 
L 412.574841 259.612099 
L 412.825046 250.968378 
L 413.075252 246.559995 
L 413.325457 229.077147 
L 413.575662 225.683403 
L 413.825867 241.720208 
L 414.076072 236.021728 
L 414.326277 227.644346 
L 414.576483 224.251535 
L 415.076893 245.565856 
L 415.327098 231.301659 
L 415.577303 228.272487 
L 416.077714 243.562292 
L 416.578124 226.141103 
L 417.078534 230.671652 
L 417.32874 227.747707 
L 417.578945 226.970987 
L 417.82915 234.077261 
L 418.079355 253.469865 
L 418.32956 251.122731 
L 418.579766 237.35836 
L 418.829971 241.970224 
L 419.080176 234.39153 
L 419.330381 218.943156 
L 419.580586 218.549713 
L 419.830791 230.567179 
L 420.080997 281.269836 
L 420.331202 249.128798 
L 420.581407 254.199756 
L 420.831612 267.672936 
L 421.081817 150.575662 
L 421.582228 55.834421 
L 421.832433 39.721806 
L 422.082638 38.836362 
L 422.332843 53.051626 
L 422.583048 84.766222 
L 423.083459 220.981884 
L 423.583869 224.361821 
L 423.834074 220.557438 
L 424.084279 220.465322 
L 424.58469 226.846795 
L 424.834895 228.404286 
L 425.0851 231.375622 
L 425.335305 239.977504 
L 425.585511 241.815699 
L 425.835716 233.212096 
L 426.085921 244.455559 
L 426.336126 248.024258 
L 426.586331 219.373529 
L 426.836536 213.07655 
L 427.086742 215.885386 
L 427.336947 220.041496 
L 427.587152 222.127956 
L 428.087562 240.357082 
L 428.587973 230.080547 
L 428.838178 232.759387 
L 429.588793 258.366277 
L 430.089204 245.396183 
L 430.339409 252.370867 
L 430.589614 248.865202 
L 430.839819 272.573071 
L 431.34023 232.782625 
L 431.590435 236.098195 
L 431.84064 237.342615 
L 432.090845 230.408977 
L 432.34105 240.720244 
L 432.591255 269.30862 
L 432.841461 268.097333 
L 433.341871 239.075865 
L 433.592076 249.030652 
L 433.842281 250.92503 
L 434.092487 257.251936 
L 434.342692 246.929101 
L 434.592897 243.699536 
L 434.843102 266.896132 
L 435.093307 226.340549 
L 435.343512 218.404031 
L 435.593718 218.829771 
L 435.843923 219.921653 
L 436.094128 219.468554 
L 436.344333 222.965607 
L 436.594538 239.457297 
L 436.844744 231.937673 
L 437.094949 232.38242 
L 437.345154 267.412652 
L 437.595359 225.348624 
L 437.845564 217.954486 
L 438.095769 223.397382 
L 438.59618 242.229053 
L 439.346795 216.411053 
L 439.597 218.267968 
L 439.847206 233.898303 
L 440.097411 235.576167 
L 440.347616 235.883941 
L 440.597821 246.850679 
L 440.848026 228.299785 
L 441.098232 228.438522 
L 441.348437 244.949714 
L 441.598642 252.186469 
L 442.099052 233.873894 
L 442.349257 239.287788 
L 442.849668 227.405558 
L 443.099873 248.256977 
L 443.600283 225.848068 
L 443.850489 223.003731 
L 444.350899 216.178053 
L 444.601104 216.335463 
L 445.101514 234.099574 
L 445.35172 224.22121 
L 445.601925 230.273804 
L 445.85213 242.570367 
L 446.102335 230.3378 
L 446.35254 226.909388 
L 446.602745 239.983582 
L 446.852951 242.799314 
L 447.103156 236.946341 
L 447.353361 254.980953 
L 447.603566 221.313804 
L 447.853771 218.652221 
L 448.354182 246.836755 
L 448.604387 229.616936 
L 448.854592 229.812174 
L 449.104797 259.709678 
L 449.355002 232.629082 
L 449.605208 222.08118 
L 449.855413 229.101959 
L 450.105618 247.66057 
L 450.355823 249.83763 
L 450.606028 257.605587 
L 450.856234 231.822403 
L 451.106439 225.800553 
L 451.356644 237.037847 
L 451.606849 255.56421 
L 452.107259 240.48428 
L 452.357465 244.660864 
L 452.60767 262.129087 
L 452.857875 251.395844 
L 453.10808 231.565087 
L 453.358285 230.495409 
L 453.60849 245.103265 
L 454.108901 213.501882 
L 454.359106 209.705195 
L 454.609311 213.256397 
L 455.109722 238.480392 
L 455.359927 270.657036 
L 455.610132 245.680993 
L 455.860337 237.556001 
L 456.110542 225.533888 
L 456.610953 234.515517 
L 456.861158 226.235833 
L 457.361568 117.639393 
L 457.611773 95.501829 
L 457.861979 89.241494 
L 458.112184 97.880402 
L 458.362389 122.774724 
L 458.612594 168.996583 
L 458.862799 247.144739 
L 459.113004 262.226462 
L 459.613415 222.975437 
L 459.86362 228.78755 
L 460.113825 239.252944 
L 460.36403 221.075098 
L 460.614235 221.759245 
L 460.864441 231.388486 
L 461.364851 228.278482 
L 461.615056 237.330834 
L 461.865261 231.546382 
L 462.115467 228.757581 
L 462.365672 161.643374 
L 462.615877 129.916549 
L 462.866082 116.240616 
L 463.116287 117.654468 
L 463.366492 134.13306 
L 464.117108 227.877626 
L 464.367313 246.691956 
L 464.867723 225.811446 
L 465.117929 224.66142 
L 465.368134 227.634008 
L 465.618339 235.110294 
L 465.868544 237.924946 
L 466.118749 225.973738 
L 466.368955 224.865414 
L 466.61916 231.069538 
L 466.869365 240.4934 
L 467.11957 242.428937 
L 467.369775 239.146372 
L 467.870186 219.791252 
L 468.120391 219.075965 
L 468.620801 249.664471 
L 468.871006 241.003529 
L 469.121212 250.477613 
L 469.371417 234.860737 
L 469.621622 260.829946 
L 469.871827 238.139695 
L 470.122032 231.492033 
L 470.372237 234.745372 
L 470.622443 225.347388 
L 470.872648 223.349845 
L 471.122853 222.495692 
L 471.623263 214.693673 
L 471.873468 213.862973 
L 472.123674 216.883859 
L 472.373879 227.131843 
L 472.874289 260.395836 
L 473.124494 246.97091 
L 473.3747 240.751522 
L 473.87511 217.554534 
L 474.125315 213.475741 
L 474.37552 217.880026 
L 475.126136 244.78533 
L 475.626546 218.072988 
L 475.876751 216.805256 
L 476.377162 225.174303 
L 476.627367 224.332119 
L 476.877572 225.251589 
L 477.127777 235.89987 
L 477.377982 235.585403 
L 477.628188 220.877601 
L 477.878393 216.213527 
L 478.378803 222.607947 
L 478.629008 223.119035 
L 478.879213 229.583183 
L 479.129419 239.781392 
L 479.379624 238.968901 
L 479.629829 241.070427 
L 480.130239 265.359173 
L 480.380445 258.430561 
L 480.63065 237.879605 
L 480.880855 228.938817 
L 481.13106 231.985323 
L 481.63147 261.58533 
L 481.881676 229.236984 
L 482.131881 220.512848 
L 482.382086 219.459889 
L 482.632291 223.46043 
L 483.132702 243.743666 
L 483.633112 236.261637 
L 483.883317 238.901701 
L 484.133522 249.062787 
L 484.383727 248.585401 
L 484.884138 222.904927 
L 485.134343 218.716584 
L 485.384548 219.821542 
L 485.634753 234.509383 
L 485.884958 198.324666 
L 486.135164 189.949605 
L 486.385369 200.083729 
L 486.635574 225.885923 
L 486.885779 206.603542 
L 487.135984 212.366048 
L 487.38619 203.784827 
L 487.636395 231.843283 
L 487.8866 190.296426 
L 488.887421 160.003573 
L 489.137626 162.457393 
L 489.387831 162.299747 
L 489.638036 158.017663 
L 490.138447 144.750146 
L 490.388652 141.426191 
L 490.638857 142.877725 
L 490.889062 149.141621 
L 491.139267 150.56213 
L 491.389472 148.060691 
L 491.639678 147.888927 
L 491.889883 148.396348 
L 492.140088 154.595297 
L 492.390293 166.685734 
L 492.890703 146.121529 
L 493.140909 144.2432 
L 493.641319 134.655932 
L 493.891524 135.304497 
L 494.141729 143.790088 
L 494.391935 167.586716 
L 494.892345 150.93284 
L 495.14255 151.129957 
L 495.392755 158.867245 
L 495.64296 160.761471 
L 495.893166 161.166751 
L 496.143371 160.830303 
L 496.643781 135.404033 
L 496.893986 130.389763 
L 497.144191 133.052331 
L 497.394397 147.569125 
L 497.644602 177.832924 
L 497.894807 160.266744 
L 498.145012 162.883724 
L 498.395217 162.944893 
L 498.645423 167.130315 
L 498.895628 159.695032 
L 499.145833 141.61009 
L 499.396038 140.690132 
L 499.896448 158.896753 
L 500.146654 146.424788 
L 500.396859 144.891773 
L 500.897269 176.298553 
L 501.147474 148.929358 
L 501.39768 141.870556 
L 501.647885 154.763056 
L 501.89809 178.996961 
L 502.148295 164.874071 
L 502.3985 176.922167 
L 502.648705 155.342499 
L 502.898911 149.714075 
L 503.149116 151.753957 
L 503.399321 155.352229 
L 504.149936 130.519342 
L 504.400142 132.417518 
L 504.900552 151.920621 
L 505.400962 172.025906 
L 505.651168 178.281598 
L 505.901373 158.760584 
L 506.151578 160.663613 
L 506.401783 167.399165 
L 506.902193 155.928903 
L 507.152399 156.958097 
L 507.402604 161.067934 
L 507.903014 150.120176 
L 508.153219 154.940597 
L 508.403425 156.650823 
L 508.65363 150.824602 
L 509.15404 158.831138 
L 509.65445 176.831738 
L 509.904656 178.834474 
L 510.154861 198.436346 
L 510.655271 151.158961 
L 510.905476 140.599491 
L 511.155681 135.355885 
L 511.405887 135.867592 
L 511.906297 155.577962 
L 512.156502 151.316383 
L 512.406707 152.752863 
L 512.656913 157.916258 
L 513.157323 173.562086 
L 513.907938 136.323383 
L 514.158144 135.769069 
L 514.408349 147.610164 
L 514.658554 167.715864 
L 515.158964 151.015429 
L 515.40917 157.287997 
L 515.659375 182.571208 
L 516.159785 179.020561 
L 516.40999 168.386518 
L 516.660195 167.781686 
L 517.160606 146.310297 
L 517.410811 149.211773 
L 517.661016 170.027434 
L 517.911221 168.752646 
L 518.161426 154.366985 
L 518.411632 158.367154 
L 518.661837 179.442724 
L 519.162247 144.55959 
L 519.412452 134.509068 
L 519.662658 130.924494 
L 519.912863 136.814127 
L 520.413273 165.165107 
L 520.663478 168.967449 
L 520.913683 166.596699 
L 521.163889 152.555486 
L 521.414094 150.183872 
L 521.914504 180.236505 
L 522.164709 165.928734 
L 522.414915 171.54892 
L 522.66512 168.377739 
L 523.16553 147.503432 
L 523.415735 140.188865 
L 523.66594 139.376826 
L 523.916146 140.831117 
L 524.166351 145.291987 
L 524.416556 166.67537 
L 524.666761 168.23365 
L 524.916966 157.804779 
L 525.167171 173.461667 
L 525.417377 171.889624 
L 525.667582 166.111341 
L 525.917787 182.380454 
L 526.167992 181.239653 
L 526.418197 153.607408 
L 526.668403 150.121668 
L 526.918608 163.09986 
L 527.168813 162.583919 
L 527.419018 153.358171 
L 527.669223 148.680401 
L 527.919428 146.681411 
L 528.169634 152.673328 
L 528.419839 171.298194 
L 528.670044 208.974274 
L 529.42066 155.429472 
L 529.670865 145.445496 
L 529.92107 148.267194 
L 530.171275 154.020204 
L 530.42148 148.400925 
L 530.671685 149.710264 
L 530.921891 152.156095 
L 531.172096 150.628207 
L 531.422301 150.499419 
L 531.672506 153.190009 
L 531.922711 148.444122 
L 532.172916 153.421966 
L 532.423122 168.698452 
L 532.673327 148.450643 
L 532.923532 146.297086 
L 533.173737 145.753413 
L 533.423942 139.557403 
L 533.674148 144.575264 
L 533.924353 174.55167 
L 534.174558 146.697963 
L 534.424763 143.501971 
L 534.925173 158.757788 
L 535.175379 151.810834 
L 535.425584 157.035305 
L 535.675789 180.968595 
L 535.925994 183.592219 
L 536.176199 157.494451 
L 536.426404 149.111894 
L 536.67661 151.069273 
L 536.926815 156.844364 
L 537.17702 149.951673 
L 537.427225 148.837026 
L 537.67743 152.373462 
L 537.927636 152.845867 
L 538.177841 153.72461 
L 538.428046 155.875722 
L 538.928456 136.327853 
L 539.178661 137.174426 
L 539.428867 143.143137 
L 539.679072 144.64676 
L 539.929277 144.215889 
L 540.179482 149.37908 
L 540.429687 171.725369 
L 540.679893 175.934366 
L 540.930098 154.70349 
L 541.180303 148.176062 
L 541.430508 151.995835 
L 541.680713 164.132931 
L 541.930918 167.360537 
L 542.431329 146.916941 
L 542.681534 148.89239 
L 542.931739 163.709602 
L 543.181944 223.184004 
L 543.432149 179.945672 
L 543.682355 168.656389 
L 543.93256 163.746441 
L 544.182765 154.405073 
L 544.43297 155.169095 
L 544.683175 164.199292 
L 544.933381 148.787618 
L 545.183586 141.561498 
L 545.433791 144.494315 
L 545.683996 163.427953 
L 545.934201 154.731685 
L 546.184406 134.565281 
L 546.434612 132.709007 
L 546.684817 143.370314 
L 546.935022 183.343303 
L 547.435432 150.287147 
L 547.685638 147.122594 
L 547.935843 152.637563 
L 548.186048 174.596445 
L 548.436253 176.136832 
L 548.686458 152.644558 
L 548.936663 148.578257 
L 549.186869 152.215547 
L 549.687279 137.646149 
L 549.937484 139.731666 
L 550.187689 143.893632 
L 550.437894 142.914779 
L 550.6881 144.591879 
L 550.938305 167.311638 
L 551.18851 145.994884 
L 551.438715 135.850749 
L 551.68892 139.914576 
L 551.939126 147.715708 
L 552.439536 173.092337 
L 552.689741 167.665596 
L 552.939946 188.272316 
L 553.440357 152.579105 
L 553.690562 154.348169 
L 554.190972 170.685449 
L 554.441177 174.551876 
L 554.691383 157.547774 
L 554.941588 148.997301 
L 555.191793 155.697114 
L 555.692203 146.802285 
L 555.942408 162.286396 
L 556.192614 157.54344 
L 556.442819 137.86527 
L 556.693024 134.4023 
L 556.943229 136.589789 
L 557.193434 137.098634 
L 557.443639 136.609899 
L 557.693845 136.874981 
L 557.94405 143.363837 
L 558.44446 164.790544 
L 558.694665 149.198078 
L 558.944871 143.770051 
L 559.195076 153.342197 
L 559.445281 186.396773 
L 559.695486 158.764276 
L 559.945691 146.301366 
L 560.446102 166.078579 
L 560.696307 169.49174 
L 560.946512 170.478234 
L 561.196717 148.929073 
L 561.446922 147.973492 
L 561.697128 148.627102 
L 561.947333 141.340917 
L 562.197538 138.859563 
L 562.697948 156.193777 
L 562.948153 147.521051 
L 563.198359 145.91141 
L 563.698769 150.88112 
L 563.948974 150.19424 
L 564.199179 159.471021 
L 564.449384 180.542313 
L 564.69959 174.194722 
L 564.949795 154.62787 
L 565.2 155.176025 
L 565.2 155.176025 
" clip-path="url(#p37ae7e287a)" style="fill: none; stroke: #1f77b4; stroke-width: 1.5; stroke-linecap: square"/>
   </g>
   <g id="line2d_30">
    <path d="M 283.619092 246.04 
L 283.619092 26.16 
" clip-path="url(#p37ae7e287a)" style="fill: none; stroke-dasharray: 2,3.3; stroke-dashoffset: 0; stroke: #d62728; stroke-width: 2"/>
   </g>
   <g id="line2d_31">
    <path d="M 334.861113 246.04 
L 334.861113 26.16 
" clip-path="url(#p37ae7e287a)" style="fill: none; stroke-dasharray: 2,3.3; stroke-dashoffset: 0; stroke: #d62728; stroke-width: 2"/>
   </g>
   <g id="line2d_32">
    <path d="M 386.103133 246.04 
L 386.103133 26.16 
" clip-path="url(#p37ae7e287a)" style="fill: none; stroke-dasharray: 2,3.3; stroke-dashoffset: 0; stroke: #d62728; stroke-width: 2"/>
   </g>
   <g id="line2d_33">
    <path d="M 437.345154 246.04 
L 437.345154 26.16 
" clip-path="url(#p37ae7e287a)" style="fill: none; stroke-dasharray: 2,3.3; stroke-dashoffset: 0; stroke: #d62728; stroke-width: 2"/>
   </g>
   <g id="line2d_34">
    <path d="M 488.587174 246.04 
L 488.587174 26.16 
" clip-path="url(#p37ae7e287a)" style="fill: none; stroke-dasharray: 2,3.3; stroke-dashoffset: 0; stroke: #d62728; stroke-width: 2"/>
   </g>
   <g id="line2d_35">
    <path d="M 539.829195 246.04 
L 539.829195 26.16 
" clip-path="url(#p37ae7e287a)" style="fill: none; stroke-dasharray: 2,3.3; stroke-dashoffset: 0; stroke: #d62728; stroke-width: 2"/>
   </g>
   <g id="patch_3">
    <path d="M 53.03 246.04 
L 53.03 26.16 
" style="fill: none; stroke: #000000; stroke-width: 0.8; stroke-linejoin: miter; stroke-linecap: square"/>
   </g>
   <g id="patch_4">
    <path d="M 565.2 246.04 
L 565.2 26.16 
" style="fill: none; stroke: #000000; stroke-width: 0.8; stroke-linejoin: miter; stroke-linecap: square"/>
   </g>
   <g id="patch_5">
    <path d="M 53.03 246.04 
L 565.2 246.04 
" style="fill: none; stroke: #000000; stroke-width: 0.8; stroke-linejoin: miter; stroke-linecap: square"/>
   </g>
   <g id="patch_6">
    <path d="M 53.03 26.16 
L 565.2 26.16 
" style="fill: none; stroke: #000000; stroke-width: 0.8; stroke-linejoin: miter; stroke-linecap: square"/>
   </g>
   <g id="text_17">
    <!-- Spectrum of Multiple Channel Signal -->
    <g transform="translate(199.732188 20.16) scale(0.12 -0.12)">
     <defs>
      <path id="DejaVuSans-53" d="M 3425 4513 
L 3425 3897 
Q 3066 4069 2747 4153 
Q 2428 4238 2131 4238 
Q 1616 4238 1336 4038 
Q 1056 3838 1056 3469 
Q 1056 3159 1242 3001 
Q 1428 2844 1947 2747 
L 2328 2669 
Q 3034 2534 3370 2195 
Q 3706 1856 3706 1288 
Q 3706 609 3251 259 
Q 2797 -91 1919 -91 
Q 1588 -91 1214 -16 
Q 841 59 441 206 
L 441 856 
Q 825 641 1194 531 
Q 1563 422 1919 422 
Q 2459 422 2753 634 
Q 3047 847 3047 1241 
Q 3047 1584 2836 1778 
Q 2625 1972 2144 2069 
L 1759 2144 
Q 1053 2284 737 2584 
Q 422 2884 422 3419 
Q 422 4038 858 4394 
Q 1294 4750 2059 4750 
Q 2388 4750 2728 4690 
Q 3069 4631 3425 4513 
z
" transform="scale(0.015625)"/>
      <path id="DejaVuSans-70" d="M 1159 525 
L 1159 -1331 
L 581 -1331 
L 581 3500 
L 1159 3500 
L 1159 2969 
Q 1341 3281 1617 3432 
Q 1894 3584 2278 3584 
Q 2916 3584 3314 3078 
Q 3713 2572 3713 1747 
Q 3713 922 3314 415 
Q 2916 -91 2278 -91 
Q 1894 -91 1617 61 
Q 1341 213 1159 525 
z
M 3116 1747 
Q 3116 2381 2855 2742 
Q 2594 3103 2138 3103 
Q 1681 3103 1420 2742 
Q 1159 2381 1159 1747 
Q 1159 1113 1420 752 
Q 1681 391 2138 391 
Q 2594 391 2855 752 
Q 3116 1113 3116 1747 
z
" transform="scale(0.015625)"/>
      <path id="DejaVuSans-6d" d="M 3328 2828 
Q 3544 3216 3844 3400 
Q 4144 3584 4550 3584 
Q 5097 3584 5394 3201 
Q 5691 2819 5691 2113 
L 5691 0 
L 5113 0 
L 5113 2094 
Q 5113 2597 4934 2840 
Q 4756 3084 4391 3084 
Q 3944 3084 3684 2787 
Q 3425 2491 3425 1978 
L 3425 0 
L 2847 0 
L 2847 2094 
Q 2847 2600 2669 2842 
Q 2491 3084 2119 3084 
Q 1678 3084 1418 2786 
Q 1159 2488 1159 1978 
L 1159 0 
L 581 0 
L 581 3500 
L 1159 3500 
L 1159 2956 
Q 1356 3278 1631 3431 
Q 1906 3584 2284 3584 
Q 2666 3584 2933 3390 
Q 3200 3197 3328 2828 
z
" transform="scale(0.015625)"/>
      <path id="DejaVuSans-6f" d="M 1959 3097 
Q 1497 3097 1228 2736 
Q 959 2375 959 1747 
Q 959 1119 1226 758 
Q 1494 397 1959 397 
Q 2419 397 2687 759 
Q 2956 1122 2956 1747 
Q 2956 2369 2687 2733 
Q 2419 3097 1959 3097 
z
M 1959 3584 
Q 2709 3584 3137 3096 
Q 3566 2609 3566 1747 
Q 3566 888 3137 398 
Q 2709 -91 1959 -91 
Q 1206 -91 779 398 
Q 353 888 353 1747 
Q 353 2609 779 3096 
Q 1206 3584 1959 3584 
z
" transform="scale(0.015625)"/>
      <path id="DejaVuSans-66" d="M 2375 4863 
L 2375 4384 
L 1825 4384 
Q 1516 4384 1395 4259 
Q 1275 4134 1275 3809 
L 1275 3500 
L 2222 3500 
L 2222 3053 
L 1275 3053 
L 1275 0 
L 697 0 
L 697 3053 
L 147 3053 
L 147 3500 
L 697 3500 
L 697 3744 
Q 697 4328 969 4595 
Q 1241 4863 1831 4863 
L 2375 4863 
z
" transform="scale(0.015625)"/>
      <path id="DejaVuSans-6c" d="M 603 4863 
L 1178 4863 
L 1178 0 
L 603 0 
L 603 4863 
z
" transform="scale(0.015625)"/>
      <path id="DejaVuSans-43" d="M 4122 4306 
L 4122 3641 
Q 3803 3938 3442 4084 
Q 3081 4231 2675 4231 
Q 1875 4231 1450 3742 
Q 1025 3253 1025 2328 
Q 1025 1406 1450 917 
Q 1875 428 2675 428 
Q 3081 428 3442 575 
Q 3803 722 4122 1019 
L 4122 359 
Q 3791 134 3420 21 
Q 3050 -91 2638 -91 
Q 1578 -91 968 557 
Q 359 1206 359 2328 
Q 359 3453 968 4101 
Q 1578 4750 2638 4750 
Q 3056 4750 3426 4639 
Q 3797 4528 4122 4306 
z
" transform="scale(0.015625)"/>
      <path id="DejaVuSans-68" d="M 3513 2113 
L 3513 0 
L 2938 0 
L 2938 2094 
Q 2938 2591 2744 2837 
Q 2550 3084 2163 3084 
Q 1697 3084 1428 2787 
Q 1159 2491 1159 1978 
L 1159 0 
L 581 0 
L 581 4863 
L 1159 4863 
L 1159 2956 
Q 1366 3272 1645 3428 
Q 1925 3584 2291 3584 
Q 2894 3584 3203 3211 
Q 3513 2838 3513 2113 
z
" transform="scale(0.015625)"/>
     </defs>
     <use xlink:href="#DejaVuSans-53"/>
     <use xlink:href="#DejaVuSans-70" transform="translate(63.476562 0)"/>
     <use xlink:href="#DejaVuSans-65" transform="translate(126.953125 0)"/>
     <use xlink:href="#DejaVuSans-63" transform="translate(188.476562 0)"/>
     <use xlink:href="#DejaVuSans-74" transform="translate(243.457031 0)"/>
     <use xlink:href="#DejaVuSans-72" transform="translate(282.666016 0)"/>
     <use xlink:href="#DejaVuSans-75" transform="translate(323.779297 0)"/>
     <use xlink:href="#DejaVuSans-6d" transform="translate(387.158203 0)"/>
     <use xlink:href="#DejaVuSans-20" transform="translate(484.570312 0)"/>
     <use xlink:href="#DejaVuSans-6f" transform="translate(516.357422 0)"/>
     <use xlink:href="#DejaVuSans-66" transform="translate(577.539062 0)"/>
     <use xlink:href="#DejaVuSans-20" transform="translate(612.744141 0)"/>
     <use xlink:href="#DejaVuSans-4d" transform="translate(644.53125 0)"/>
     <use xlink:href="#DejaVuSans-75" transform="translate(730.810547 0)"/>
     <use xlink:href="#DejaVuSans-6c" transform="translate(794.189453 0)"/>
     <use xlink:href="#DejaVuSans-74" transform="translate(821.972656 0)"/>
     <use xlink:href="#DejaVuSans-69" transform="translate(861.181641 0)"/>
     <use xlink:href="#DejaVuSans-70" transform="translate(888.964844 0)"/>
     <use xlink:href="#DejaVuSans-6c" transform="translate(952.441406 0)"/>
     <use xlink:href="#DejaVuSans-65" transform="translate(980.224609 0)"/>
     <use xlink:href="#DejaVuSans-20" transform="translate(1041.748047 0)"/>
     <use xlink:href="#DejaVuSans-43" transform="translate(1073.535156 0)"/>
     <use xlink:href="#DejaVuSans-68" transform="translate(1143.359375 0)"/>
     <use xlink:href="#DejaVuSans-61" transform="translate(1206.738281 0)"/>
     <use xlink:href="#DejaVuSans-6e" transform="translate(1268.017578 0)"/>
     <use xlink:href="#DejaVuSans-6e" transform="translate(1331.396484 0)"/>
     <use xlink:href="#DejaVuSans-65" transform="translate(1394.775391 0)"/>
     <use xlink:href="#DejaVuSans-6c" transform="translate(1456.298828 0)"/>
     <use xlink:href="#DejaVuSans-20" transform="translate(1484.082031 0)"/>
     <use xlink:href="#DejaVuSans-53" transform="translate(1515.869141 0)"/>
     <use xlink:href="#DejaVuSans-69" transform="translate(1579.345703 0)"/>
     <use xlink:href="#DejaVuSans-67" transform="translate(1607.128906 0)"/>
     <use xlink:href="#DejaVuSans-6e" transform="translate(1670.605469 0)"/>
     <use xlink:href="#DejaVuSans-61" transform="translate(1733.984375 0)"/>
     <use xlink:href="#DejaVuSans-6c" transform="translate(1795.263672 0)"/>
    </g>
   </g>
  </g>
 </g>
 <defs>
  <clipPath id="p37ae7e287a">
   <rect x="53.03" y="26.16" width="512.17" height="219.88"/>
  </clipPath>
 </defs>
</svg>
