<?xml version="1.0" encoding="UTF-8"?>
<!DOCTYPE svg PUBLIC "-//W3C//DTD SVG 1.1//EN" "http://www.w3.org/Graphics/SVG/1.1/DTD/svg11.dtd">
<svg xmlns="http://www.w3.org/2000/svg" xmlns:xlink="http://www.w3.org/1999/xlink" version="1.1" width="653px" height="266px" viewBox="-0.5 -0.5 653 266" style="background-color: rgb(255, 255, 255);"><defs/><g><path d="M 340.5 132.26 L 450.95 132.26" fill="none" stroke="rgb(0, 0, 0)" stroke-width="1.5" stroke-miterlimit="10" pointer-events="stroke"/><path d="M 458.82 132.26 L 448.32 137.51 L 450.95 132.26 L 448.32 127.01 Z" fill="rgb(0, 0, 0)" stroke="rgb(0, 0, 0)" stroke-width="1.5" stroke-miterlimit="10" pointer-events="all"/><path d="M 160.5 132.26 L 270.95 132.03" fill="none" stroke="rgb(0, 0, 0)" stroke-width="1.5" stroke-miterlimit="10" pointer-events="stroke"/><path d="M 278.82 132.02 L 268.33 137.29 L 270.95 132.03 L 268.31 126.79 Z" fill="rgb(0, 0, 0)" stroke="rgb(0, 0, 0)" stroke-width="1.5" stroke-miterlimit="10" pointer-events="all"/><path d="M 250.5 117.26 L 238.52 81.32" fill="none" stroke="rgb(0, 0, 0)" stroke-width="1.5" stroke-miterlimit="10" stroke-dasharray="4.5 4.5" pointer-events="stroke"/><path d="M 236.03 73.85 L 244.33 82.15 L 238.52 81.32 L 234.37 85.47 Z" fill="rgb(0, 0, 0)" stroke="rgb(0, 0, 0)" stroke-width="1.5" stroke-miterlimit="10" pointer-events="all"/><path d="M 400.5 147.26 L 400.5 182.7" fill="none" stroke="rgb(0, 0, 0)" stroke-width="1.5" stroke-miterlimit="10" stroke-dasharray="4.5 4.5" pointer-events="stroke"/><path d="M 400.5 190.58 L 395.25 180.08 L 400.5 182.7 L 405.75 180.08 Z" fill="rgb(0, 0, 0)" stroke="rgb(0, 0, 0)" stroke-width="1.5" stroke-miterlimit="10" pointer-events="all"/><rect x="280.5" y="102.25" width="60" height="59.74" fill="rgb(255, 255, 255)" stroke="rgb(0, 0, 0)" stroke-width="1.5" pointer-events="all"/><path d="M 287.42 145.12 L 298.96 119.14 L 322.04 119.14 L 333.58 145.12" fill="none" stroke="rgb(0, 0, 0)" stroke-width="1.5" stroke-miterlimit="10" pointer-events="all"/><path d="M 400.5 252 L 400.5 210.35" fill="none" stroke="rgb(0, 0, 0)" stroke-width="1.5" stroke-miterlimit="10" pointer-events="stroke"/><path d="M 404 219.18 L 400.5 208.68 L 397 219.18" fill="none" stroke="rgb(0, 0, 0)" stroke-width="1.5" stroke-miterlimit="10" pointer-events="all"/><path d="M 520.5 252.6 L 526.5 222.6 L 550.5 222.6 L 550.5 252.6 Z" fill="#d5e8d4" stroke="#82b366" stroke-width="1.5" stroke-miterlimit="10" transform="translate(535.5,0)scale(-1,1)translate(-535.5,0)" pointer-events="none"/><path d="M 490.5 252.6 L 496.5 222.6 L 520.5 222.6 L 520.5 252.6 Z" fill="#97d077" stroke="#82b366" stroke-width="1.5" stroke-miterlimit="10" pointer-events="none"/><path d="M 220.5 252.6 L 577.15 252.6" fill="none" stroke="rgb(0, 0, 0)" stroke-width="1.5" stroke-miterlimit="10" pointer-events="none"/><path d="M 568.32 256.1 L 578.82 252.6 L 568.32 249.1" fill="none" stroke="rgb(0, 0, 0)" stroke-width="1.5" stroke-miterlimit="10" pointer-events="none"/><rect x="460.5" y="102.6" width="59.4" height="59.4" fill="rgb(255, 255, 255)" stroke="rgb(0, 0, 0)" stroke-width="1.5" pointer-events="none"/><g transform="translate(-0.5 -0.5)scale(1.5)"><switch><foreignObject pointer-events="none" width="100%" height="100%" requiredFeatures="http://www.w3.org/TR/SVG11/feature#Extensibility" style="overflow: visible; text-align: left;"><div xmlns="http://www.w3.org/1999/xhtml" style="display: flex; align-items: unsafe center; justify-content: unsafe center; width: 38px; height: 1px; padding-top: 88px; margin-left: 308px;"><div data-drawio-colors="color: rgb(0, 0, 0); " style="box-sizing: border-box; font-size: 0px; text-align: center;"><div style="display: inline-block; font-size: 12px; font-family: Helvetica; color: rgb(0, 0, 0); line-height: 1.2; pointer-events: none; white-space: normal; overflow-wrap: normal;">3:1</div></div></div></foreignObject><text x="327" y="92" fill="rgb(0, 0, 0)" font-family="Helvetica" font-size="12px" text-anchor="middle">3:1</text></switch></g><path d="M 519.9 132.18 L 630.35 131.96" fill="none" stroke="rgb(0, 0, 0)" stroke-width="1.5" stroke-miterlimit="10" pointer-events="none"/><path d="M 638.22 131.94 L 627.73 137.21 L 630.35 131.96 L 627.71 126.71 Z" fill="rgb(0, 0, 0)" stroke="rgb(0, 0, 0)" stroke-width="1.5" stroke-miterlimit="10" pointer-events="none"/><path d="M 580.5 56.28 L 586.5 26.28 L 610.5 26.28 L 610.5 56.28 Z" fill="#d5e8d4" stroke="#82b366" stroke-width="1.5" stroke-miterlimit="10" transform="translate(595.5,0)scale(-1,1)translate(-595.5,0)" pointer-events="none"/><path d="M 550.5 56.28 L 556.5 26.28 L 580.5 26.28 L 580.5 56.28 Z" fill="#97d077" stroke="#82b366" stroke-width="1.5" stroke-miterlimit="10" pointer-events="none"/><path d="M 535.5 57 L 622.15 57" fill="none" stroke="rgb(0, 0, 0)" stroke-width="1.5" stroke-miterlimit="10" pointer-events="none"/><path d="M 613.32 60.5 L 623.82 57 L 613.32 53.5" fill="none" stroke="rgb(0, 0, 0)" stroke-width="1.5" stroke-miterlimit="10" pointer-events="none"/><path d="M 550.5 117 L 562.48 81.06" fill="none" stroke="rgb(0, 0, 0)" stroke-width="1.5" stroke-miterlimit="10" stroke-dasharray="4.5 4.5" pointer-events="none"/><path d="M 564.97 73.59 L 566.63 85.21 L 562.48 81.06 L 556.67 81.89 Z" fill="rgb(0, 0, 0)" stroke="rgb(0, 0, 0)" stroke-width="1.5" stroke-miterlimit="10" pointer-events="none"/><path d="M 580.5 55.68 L 580.5 14.03" fill="none" stroke="rgb(0, 0, 0)" stroke-width="1.5" stroke-miterlimit="10" pointer-events="none"/><path d="M 584 22.86 L 580.5 12.36 L 577 22.86" fill="none" stroke="rgb(0, 0, 0)" stroke-width="1.5" stroke-miterlimit="10" pointer-events="none"/><path d="M 145.5 56.4 L 151.5 27 L 199.5 27 L 205.5 56.4 Z" fill="#ffcccc" stroke="#cc0000" stroke-width="1.5" stroke-miterlimit="10" pointer-events="none"/><path d="M 265.5 56.4 L 271.5 27 L 319.5 27 L 325.5 56.4 Z" fill="#ffcccc" stroke="#cc0000" stroke-width="1.5" stroke-miterlimit="10" pointer-events="none"/><path d="M 25.5 56.4 L 31.5 27 L 79.5 27 L 85.5 56.4 Z" fill="#ffcccc" stroke="#cc0000" stroke-width="1.5" stroke-miterlimit="10" pointer-events="none"/><path d="M 385.5 56.4 L 391.5 27 L 439.5 27 L 445.5 56.4 Z" fill="#ffcccc" stroke="#cc0000" stroke-width="1.5" stroke-miterlimit="10" pointer-events="none"/><path d="M 205.5 56.4 L 211.5 27 L 259.5 27 L 265.5 56.4 Z" fill="#ffcccc" stroke="#cc0000" stroke-width="1.5" stroke-miterlimit="10" pointer-events="none"/><path d="M 355.5 57 L 361.5 27 L 385.5 27 L 385.5 57 Z" fill="#d5e8d4" stroke="#82b366" stroke-width="1.5" stroke-miterlimit="10" transform="translate(370.5,0)scale(-1,1)translate(-370.5,0)" pointer-events="none"/><path d="M 325.5 57 L 331.5 27 L 355.5 27 L 355.5 57 Z" fill="#97d077" stroke="#82b366" stroke-width="1.5" stroke-miterlimit="10" pointer-events="none"/><path d="M 85.5 57 L 91.5 27 L 115.5 27 L 115.5 57 Z" fill="#d5e8d4" stroke="#82b366" stroke-width="1.5" stroke-miterlimit="10" pointer-events="none"/><path d="M 115.5 57 L 121.5 27 L 145.5 27 L 145.5 57 Z" fill="#97d077" stroke="#82b366" stroke-width="1.5" stroke-miterlimit="10" transform="translate(130.5,0)scale(-1,1)translate(-130.5,0)" pointer-events="none"/><path d="M 10.5 57 L 457.15 57.6" fill="none" stroke="rgb(0, 0, 0)" stroke-width="1.5" stroke-miterlimit="10" pointer-events="none"/><path d="M 448.32 61.08 L 458.82 57.6 L 448.33 54.08" fill="none" stroke="rgb(0, 0, 0)" stroke-width="1.5" stroke-miterlimit="10" pointer-events="none"/><path d="M 235.5 57 L 235.5 15.35" fill="none" stroke="rgb(0, 0, 0)" stroke-width="1.5" stroke-miterlimit="10" pointer-events="none"/><path d="M 239 24.18 L 235.5 13.68 L 232 24.18" fill="none" stroke="rgb(0, 0, 0)" stroke-width="1.5" stroke-miterlimit="10" pointer-events="none"/></g><switch><g requiredFeatures="http://www.w3.org/TR/SVG11/feature#Extensibility"/><a transform="translate(0,-5)" xlink:href="https://www.drawio.com/doc/faq/svg-export-text-problems" target="_blank"><text text-anchor="middle" font-size="10px" x="50%" y="100%">Text is not SVG - cannot display</text></a></switch></svg>